<svg xmlns="http://www.w3.org/2000/svg" viewBox="0 0 90 90"><path d="M5.1,59.32C7.26,58.51,9.34,57.51,11.33,56.34L14.99,54.18C16.66,53.19,18.57,52.67,20.51,52.67L23,52.67L25.49,52.67C27.43,52.67,29.34,53.19,31.01,54.18L34.31,56.13C36.54,57.44,38.86,58.59,41.25,59.58L48.34,62.5C52.41,64.17,55.07,68.14,55.07,72.54L55.07,78.57C55.07,81.57,52.63,84,49.64,84L5.36,84C2.37,84,-0.07,81.57,-0.07,78.57L-0.07,66.79C-0.07,63.46,1.99,60.49,5.1,59.32Z" fill="currentColor"/><path d="M5.1,59.32C7.26,58.51,9.34,57.51,11.33,56.34L14.99,54.18C16.66,53.19,18.57,52.67,20.51,52.67L23,52.67L25.49,52.67C27.43,52.67,29.34,53.19,31.01,54.18L34.31,56.13C36.54,57.44,38.86,58.59,41.25,59.58L48.34,62.5C52.41,64.17,55.07,68.14,55.07,72.54L55.07,74C54.37,68.71,50.64,64.32,45.54,62.78L23,55.98L7.67,59.71C3.66,60.68,0.62,63.94,-0.07,68L-0.07,66.79C-0.07,63.46,1.99,60.49,5.1,59.32Z" fill="currentColor"/><path d="M41.11,58.08C39.85,54.17,36.22,51.53,32.12,51.53L13.88,51.53C9.78,51.53,6.15,54.17,4.89,58.08C4.55,59.13,4.84,60.28,5.63,61.05L13.67,68.86L23,77.93L32.33,68.86L40.37,61.05C41.16,60.28,41.45,59.13,41.11,58.08Z" fill="currentColor"/><path d="M12.6,40.27L12.6,56.37C12.6,58.67,13.51,60.88,15.14,62.5L23,70.36L30.86,62.5C32.49,60.88,33.4,58.67,33.4,56.37L33.4,40.27Z" fill="currentColor"/><path d="M12.6,35.94L12.6,54.76L16.87,59.04C20.26,62.42,25.74,62.42,29.13,59.04L33.4,54.76L33.4,35.94Z" fill="currentColor"/><path d="M23,57.18C31.25,57.18,38.6,48.65,38.6,38.28C38.62,38.28,38.6,17.27,38.6,17.27L7.4,17.27L7.4,38.28C7.4,48.65,14.75,57.18,23,57.18Z" fill="currentColor"/><path d="M6.78,32L39.22,32C40.75,32,41.95,33.31,41.81,34.84L41.41,39.17C41.29,40.51,40.17,41.53,38.83,41.53L7.17,41.53C5.83,41.53,4.71,40.51,4.59,39.17L4.19,34.84C4.05,33.31,5.25,32,6.78,32Z" fill="currentColor"/><path d="M22.99,6C12.97,6,4.85,12.85,4.8,21.33L4.8,26.9C4.8,30.76,6.15,34.49,8.62,37.45L9.13,38.07L9.13,28.14C9.13,25.91,10.83,24.04,13.06,23.83L22.45,22.93C25.61,22.63,28.56,21.24,30.8,19L33.33,21.53C33.95,22.15,34.64,22.71,35.37,23.2C36.31,23.83,36.87,24.87,36.87,26L36.87,38.07L37.38,37.45C39.85,34.49,41.2,30.76,41.2,26.9L41.2,21.33L41.18,21.33C41.13,12.85,33.01,6,22.99,6Z" fill="currentColor"/><path d="M35.65,20.71C36.41,21.27,36.87,22.16,36.87,23.11L36.87,26C36.87,24.87,36.31,23.83,35.37,23.2C34.64,22.71,33.95,22.15,33.33,21.53L30.8,19C28.56,21.24,25.61,22.63,22.45,22.93L13.06,23.83C10.83,24.04,9.13,25.91,9.13,28.14L9.13,25.63C9.13,23.36,10.89,21.47,13.15,21.31L19.31,20.86C23.94,20.52,28.19,18.17,30.94,14.43L32.27,16.84C33.1,18.36,34.26,19.68,35.65,20.71Z" fill="currentColor" opacity="0.5"/><path d="M22.99,6C12.97,6,4.85,12.85,4.8,21.33C8.64,3.97,38.05,3.47,41.2,21.33L41.18,21.33C41.13,12.85,33.01,6,22.99,6Z" fill="currentColor"/><path d="M57.47,55.4L42.79,61.37C38.94,62.93,36.07,66.25,35.07,70.28L31.67,84L85.67,84C88.06,84,90,82.06,90,79.67L90,69.62C90,64.32,86.79,59.56,81.89,57.57L76.53,55.4Z" fill="currentColor"/><path d="M67,6C80.47,6,90.6,18.29,88.01,31.52L86.57,38.91C86.22,40.65,86.05,42.43,86.05,44.21L86.05,48.78C86.05,49.68,85.65,50.53,84.96,51.1L84.57,51.41C74.35,59.78,59.65,59.78,49.43,51.41L49.04,51.1C48.35,50.53,47.95,49.68,47.95,48.78L47.95,44.21C47.95,42.43,47.78,40.65,47.43,38.91L45.99,31.52C43.4,18.29,53.53,6,67,6Z" fill="currentColor"/><path d="M80.87,29.57L80.87,45.1C80.87,47.17,80.3,49.2,79.22,50.97L74.4,58.87C71.02,64.41,62.98,64.41,59.6,58.87L54.78,50.97C53.7,49.2,53.13,47.17,53.13,45.1L53.13,29.57C53.13,28.53,53.9,27.64,54.93,27.48C60.15,26.69,64.58,23.21,66.59,18.32L67,17.34L67.41,18.32C69.42,23.21,73.85,26.69,79.07,27.48C80.1,27.64,80.87,28.53,80.87,29.57Z" fill="currentColor" opacity="0.5"/><path d="M67,6C80.47,6,90.6,18.29,88.02,31.52L86.07,41.53L87.49,31.25C89.2,18.82,79.55,7.73,67,7.73C54.45,7.73,44.8,18.82,46.51,31.25L47.93,41.53L45.98,31.52C43.4,18.29,53.53,6,67,6Z" fill="currentColor"/><path d="M57.47,55.4L44.77,60.57C39.87,62.56,36.67,67.32,36.67,72.61L36.67,79.67C36.67,82.06,38.61,84,41,84L85.67,84C88.06,84,90,82.06,90,79.67L90,69.62C90,64.32,86.79,59.56,81.88,57.57L76.53,55.4Z" fill="currentColor"/><path d="M57.47,55.4L44.77,60.57C39.87,62.56,36.67,67.32,36.67,72.61L36.67,75.33L36.94,73.1C37.57,68.11,41.01,63.93,45.79,62.36L63.11,56.68C65.64,55.85,68.37,55.81,70.92,56.58L80.85,59.57C85.65,61.01,89.19,65.08,89.95,70.03L90,70.33L90,69.62C90,64.32,86.79,59.56,81.88,57.57L76.53,55.4Z" fill="currentColor" opacity="0.5"/><path d="M56.47,53.67L55.6,53.67C53.28,53.67,51.4,55.55,51.4,57.86L58.33,64.28L67,74.31L75.67,64.28L82.6,57.86C82.6,55.55,80.72,53.67,78.4,53.67L77.53,53.67Z" fill="currentColor"/><path d="M57.47,41.56L57.47,55.4L57.74,55.72C61.3,59.98,64.41,64.6,67,69.5C69.59,64.6,72.7,59.98,76.26,55.72L76.53,55.4L76.53,41.56Z" fill="currentColor"/><path d="M76.53,43.27C76.53,38,72.26,33.73,67,33.73C61.73,33.73,57.47,38,57.47,43.27L57.47,49.62C57.47,50.45,57.73,51.27,58.22,51.94L59.98,54.37C63.44,59.15,70.56,59.15,74.02,54.37L75.78,51.94C76.27,51.27,76.53,50.45,76.53,49.62Z" fill="currentColor"/><path d="M80.87,40.25C80.87,43.59,79.39,46.75,76.84,48.89L72.57,52.47C69.35,55.17,64.65,55.17,61.43,52.47L57.16,48.89C54.61,46.75,53.13,43.59,53.13,40.25L53.13,30.27L54.41,30.16C59.81,29.69,64.57,26.45,67,21.6C69.42,26.45,74.19,29.69,79.59,30.16L80.87,30.27Z" fill="currentColor"/><path d="M50.53,30.27L51.4,39.8L51.17,39.8C49.83,39.8,48.71,38.77,48.59,37.44L48.17,32.86C48.04,31.47,49.14,30.27,50.53,30.27Z" fill="currentColor"/><path d="M85.83,32.86L85.42,37.44C85.29,38.77,84.17,39.8,82.83,39.8L82.6,39.8L83.47,30.27C84.86,30.27,85.96,31.47,85.83,32.86Z" fill="currentColor"/></svg>