<svg xmlns="http://www.w3.org/2000/svg" viewBox="0 0 90 90"><path d="M45.01,4C41.36,4,38.29,6.63,38,11.05L52,11.05C51.72,6.63,48.65,4,45.01,4Z" fill="#F7C631"/><path d="M45.01,6C41.36,6,38.29,7.88,38,11.05L52,11.05C51.72,7.88,48.65,6,45.01,6Z" fill="#E3AA24"/><path d="M45,10C32.9,9.96,20.61,17.93,20.61,31.46C20.61,55.5,7.6,60.54,7.6,71.54C7.6,80.74,31,84.95,44.94,84.95C58.88,84.95,82.41,80.74,82.41,71.54C82.41,60.69,68.26,52.5,68.26,31.46C68.26,17.65,56.72,10.04,45,10Z" fill="#FAD541"/><path d="M82.41,71.54C82.41,67,79.94,62.93,77.06,58.19C73.05,51.6,68.26,43.7,68.26,31.46C68.26,19.04,58.93,11.63,48.52,10.24C57.28,11.68,64,19.29,64,28.51L64,41.42C64,44.6,64.75,47.72,66.2,50.54L79.59,76.69C81.37,75.19,82.41,73.48,82.41,71.54Z" fill="#CF8D1B"/><path d="M45,10L45,10C45,10,45.01,10,45.01,10C45.01,10,45,10,45,10Z" fill="#CF8D1B"/><path d="M44.99,10C44.99,10,45,10,45,10L45,10C44.99,10,44.99,10,44.99,10Z" fill="#FFF599"/><path d="M26,28.51L26,41.42C26,44.6,25.25,47.72,23.8,50.54L10.4,76.69C8.64,75.19,7.6,73.48,7.6,71.54C7.6,67.1,9.72,63.63,12.24,59.5C15.98,53.38,20.61,45.8,20.61,31.46C20.61,18.92,31.17,11.16,42.34,10.12C33.17,11.19,26,18.99,26,28.51Z" fill="#FFF599"/><path d="M75.41,69.54C75.41,62.11,64.11,57.03,41.01,56.08C17.91,55.13,6.61,62.11,6.61,69.54C6.61,76.97,22.01,83,41.01,83C60.01,83,75.41,76.97,75.41,69.54Z" fill="#FFF599"/><path d="M82.41,71.54C82.41,64.11,65.67,58.08,45.01,58.08C24.35,58.08,7.61,64.11,7.61,71.54C7.61,78.97,24.35,85,45.01,85C65.67,85,82.41,78.97,82.41,71.54Z" fill="#E3AA24"/><path d="M15.22,71.91C20.61,65.47,34.68,64.15,44.94,64.15C55.2,64.15,69.26,65.46,74.66,71.91C69.26,78.48,55.33,79.8,44.94,79.8C34.68,79.93,20.61,78.36,15.22,71.91Z" fill="#B27314"/><path d="M15.22,71.91C20.61,65.47,34.68,64.15,44.94,64.15C55.2,64.15,69.26,65.46,74.66,71.91C69.26,78.48,55.33,79.8,44.94,79.8C34.68,79.93,20.61,78.36,15.22,71.91Z" fill="#B27314"/><path d="M44.94,73.8C53.37,73.8,64.13,72.87,70.78,68.79C64.11,65.01,53.27,64.15,44.94,64.15C36.63,64.15,25.81,65.02,19.14,68.77C25.81,72.84,36.63,73.91,44.94,73.8Z" fill="#7A4414"/><path d="M53,69L37,69L37,64.44C39.75,64.23,42.46,64.15,44.94,64.15C47.46,64.15,50.21,64.23,53,64.44Z" fill="#B27314"/><path d="M37,69.11C37,73.31,40.55,76.61,45.01,76.61C49.46,76.61,53,73.31,53,69.11C53,68.51,51.22,68.06,45.01,68.06C42.52,68.06,37,68.21,37,69.11Z" fill="#E3AA24"/><path d="M39,69.11C39,73.14,41.86,76.34,45.54,76.59C45.36,76.6,45.18,76.61,45.01,76.61C40.55,76.61,37,73.31,37,69.11C37,68.76,37.84,68.52,39.01,68.36C39,68.61,39,68.85,39,69.11Z" fill="#F7C631"/></svg>