<svg xmlns="http://www.w3.org/2000/svg" viewBox="0 0 90 90"><path d="M73.76,45.09C73.72,44.15,72.58,33.38,72.58,33.38C70.64,20.03,60.9,9.29,47.45,9.29C34,9.29,24.92,19.54,22.98,32.9L21.33,43.63C20.84,48.08,16.41,54.84,16.41,54.84C16.41,54.84,16.26,55.41,18.12,53.1C18,53.56,18.12,53.1,18.12,53.61C17.89,62.43,25.26,67.52,25.2,66.3C30.33,72.29,37.82,75.73,45.69,75.71L49.2,75.71C57.05,75.73,64.51,72.31,69.65,66.36C69.6,67.54,76.96,62.42,76.73,53.61C76.72,53.09,76.84,53.56,76.73,53.09C78.58,55.41,78.43,54.84,78.43,54.84C78.43,54.84,74.25,49.52,73.76,45.09Z" fill="black"/><path d="M44.15,65.53L44.15,59.01L50.7,59.19L50.7,65.53Z" fill="#FEEAD2"/><path d="M50.7,59.61L50.7,61.56L44.15,60.21L44.15,59.61C44.15,59.61,49.06,59.85,50.7,59.61Z" fill="black"/><path d="M41.18,59.1C40.54,58.86,39.9,58.63,39.3,58.45C27.8,54.93,26.86,41.5,26.99,35.89C27,35.3,27.48,34.83,28.07,34.83L66.78,34.83C67.37,34.83,67.85,35.3,67.87,35.89C68,41.5,67.06,54.93,55.54,58.45C54.95,58.63,54.32,58.87,53.66,59.1C51.82,59.78,49.73,60.55,47.43,60.55C45.13,60.55,43.03,59.78,41.18,59.1Z" fill="black"/><path d="M42.26,58.65C41.67,58.39,41.11,58.15,40.54,57.95C31.16,54.57,27.98,43.88,29.95,35.7C31.84,27.9,34.46,23.91,47.99,23.96C59.64,23.99,63.18,28.25,64.88,35.7C66.76,43.91,63.68,54.58,54.29,57.95C53.74,58.15,53.18,58.4,52.57,58.65C51.03,59.32,49.28,60.08,47.42,60.08C45.57,60.08,43.81,59.32,42.26,58.65Z" fill="#FEEAD2"/><path d="M70.98,40.76C70.02,29.13,60.34,20.18,48.71,20.18C37.08,20.18,27.4,29.13,26.44,40.76C26.4,41.32,25.92,41.76,25.36,41.76C24.8,41.76,24.32,41.32,24.27,40.76C24.22,40.07,24.19,39.39,24.19,38.73C24.18,28.42,30.59,19.19,40.23,15.64C43.46,9.1,47.06,11.95,54.4,13.11L54.58,13.13L56.17,13.44C56.24,13.45,56.32,13.47,56.39,13.49C65.9,14.94,62.75,15.86,67.29,22.67C71.14,27.14,73.24,32.84,73.23,38.74C73.23,39.4,73.2,40.08,73.15,40.77C73.1,41.33,72.63,41.77,72.07,41.77L72.07,41.76C71.5,41.76,71.03,41.32,70.98,40.76Z" fill="black"/><path d="M46.47,83.84C43.87,82.37,28.9,72.69,28.27,72.28C27.96,72.07,27.77,71.73,27.77,71.36L27.77,52.61C27.76,52.29,27.89,51.98,28.12,51.76C28.48,51.42,29.03,51.37,29.45,51.65C35.63,55.72,44.76,61.7,47.04,63.15C47.26,63.28,47.52,63.28,47.73,63.15C50.02,61.7,59.19,55.72,65.41,51.64C65.83,51.37,66.37,51.42,66.74,51.75C66.97,51.97,67.1,52.28,67.09,52.6L67.09,71.36C67.09,71.73,66.9,72.07,66.59,72.27C65.96,72.69,50.89,82.41,48.28,83.84C48,84,47.69,84.07,47.38,84.07C47.06,84.07,46.75,83.99,46.47,83.84Z" fill="black"/><path d="M47.75,64.41C47.64,64.47,47.51,64.5,47.38,64.5C47.25,64.5,47.12,64.47,47,64.4C46.17,63.94,35.1,56.67,30.67,53.74L28.85,53.74L28.85,71.36C28.85,71.36,44.39,81.42,46.99,82.89C47.11,82.95,47.24,82.98,47.37,82.98C47.5,82.98,47.63,82.96,47.74,82.89C50.34,81.46,66,71.37,66,71.37L66,53.75L64.17,53.75C59.71,56.67,48.58,63.95,47.75,64.41Z" fill="white"/><path d="M46.47,86.01C43.87,84.54,28.9,74.86,28.27,74.45C27.96,74.25,27.77,73.91,27.77,73.53L27.77,54.78C27.76,54.47,27.89,54.15,28.12,53.93C28.48,53.59,29.03,53.55,29.45,53.82C35.63,57.89,44.76,63.88,47.04,65.32C47.26,65.45,47.52,65.45,47.73,65.32C50.02,63.88,59.19,57.89,65.41,53.82C65.83,53.55,66.37,53.59,66.74,53.93C66.97,54.15,67.1,54.45,67.09,54.78L67.09,73.53C67.09,73.9,66.9,74.25,66.59,74.45C65.96,74.86,50.89,84.58,48.28,86.02C48,86.17,47.69,86.25,47.38,86.25C47.06,86.25,46.75,86.17,46.47,86.01Z" fill="black"/><path d="M47.38,66.68C47.25,66.68,47.12,66.64,47,66.57C45.97,66,28.85,54.73,28.85,54.73L28.85,73.54C28.85,73.54,44.39,83.59,46.99,85.06C47.11,85.13,47.24,85.16,47.37,85.16C47.5,85.16,47.63,85.13,47.74,85.07C50.34,83.63,65.99,73.54,65.99,73.54L65.99,54.73C65.99,54.73,48.8,66.01,47.75,66.58C47.63,66.64,47.51,66.68,47.38,66.68Z" fill="#EB3035"/><path d="M46.34,84.67L46.34,66.19L45.26,65.57L45.26,83.98C45.67,84.25,46.04,84.47,46.34,84.67Z" fill="#C12B36"/><path d="M66,73.53L66,54.73C66,54.73,52.32,63.98,48.51,66.15L48.51,84.62C52.46,82.21,66,73.53,66,73.53Z" fill="#C12B36"/><path d="M22.72,68.09C22.35,66.78,22.43,65.38,22.96,64.13C23.44,62.91,24.46,61.99,25.72,61.62C26.03,61.54,26.36,61.49,26.68,61.49C29.25,61.49,30.04,64.44,30.38,65.71C31.36,69.41,30.74,71.58,28.53,72.17C28.2,72.26,27.86,72.31,27.52,72.31C25.35,72.31,23.38,70.57,22.72,68.09Z" fill="black"/><path d="M28.25,71.12C26.38,71.62,24.38,70.14,23.75,67.81C23.13,65.48,24.14,63.18,25.99,62.68C27.85,62.19,28.71,63.67,29.33,66C29.95,68.33,30.11,70.62,28.25,71.12Z" fill="#FEEAD2"/><path d="M66.82,72.31C65.52,72.07,64.63,71.18,64.33,69.78C64.12,68.85,64.16,67.69,64.42,66.14C64.64,64.87,65.24,61.5,68.06,61.5C68.27,61.5,68.49,61.52,68.7,61.56C69.95,61.78,71.01,62.58,71.67,63.8C72.3,65.01,72.51,66.39,72.26,67.73C71.79,70.42,69.78,72.37,67.5,72.37C67.27,72.37,67.04,72.35,66.82,72.31Z" fill="black"/><path d="M67.01,71.24C65.12,70.9,65.08,68.7,65.49,66.32C65.91,63.95,66.62,62.29,68.53,62.63C70.43,62.96,71.61,65.16,71.19,67.54C70.78,69.92,68.9,71.57,67.01,71.24Z" fill="#FEEAD2"/><path d="M63.51,42.13C63.51,34.83,55.12,34.08,49.86,42.13C49.86,42.89,49.97,42.28,50.78,41.48C54.16,38.17,65.21,38.09,63.4,44.39C63.48,43.64,63.51,42.89,63.51,42.13Z" fill="black"/><path d="M30.36,42.03C30.36,42.81,30.4,43.59,30.46,44.37C29.19,37.25,37.17,37.11,41.96,39.4C44.24,40.49,42.98,40.14,42.29,39.38C37.04,33.57,30.36,35.05,30.36,42.03Z" fill="black"/><path d="M54.37,41.84C55.48,40.74,57.64,40.06,58.94,41.2C60.24,42.33,60.65,43.58,61.44,44.62C60.51,44.24,60.19,44.15,59.54,44.33C58.82,44.51,58.71,44.88,57.52,45.33C56.33,45.79,54.92,45.71,53.86,46.29C53.38,46.55,53.07,46.66,52.61,47.47C52.8,44.79,53.57,42.8,54.37,41.84Z" fill="#F9FAFF"/><path d="M54.45,41.92C53.79,42.72,53.01,44.47,52.75,47.04C53.07,46.6,53.34,46.45,53.68,46.27L53.81,46.2C54.41,45.86,55.14,45.74,55.84,45.62C56.39,45.53,56.96,45.43,57.48,45.24C58.08,45,58.41,44.79,58.68,44.62C58.93,44.46,59.15,44.31,59.51,44.22C60.12,44.05,60.45,44.12,61.14,44.38C60.95,44.1,60.78,43.82,60.6,43.52C60.16,42.78,59.7,42,58.86,41.28C58.42,40.9,57.86,40.73,57.26,40.73C56.25,40.73,55.16,41.21,54.45,41.92Z" fill="#2D0000"/><path d="M52.58,47.57C52.53,47.56,52.49,47.51,52.5,47.46C52.71,44.6,53.56,42.65,54.29,41.77C54.88,41.18,55.73,40.74,56.57,40.57C57.53,40.39,58.4,40.58,59.01,41.12C59.87,41.87,60.33,42.65,60.79,43.41C61.03,43.81,61.25,44.19,61.53,44.55C61.56,44.59,61.56,44.64,61.53,44.68C61.5,44.73,61.45,44.74,61.4,44.72C60.49,44.36,60.2,44.26,59.56,44.43C59.24,44.52,59.04,44.64,58.8,44.8C58.52,44.98,58.18,45.2,57.56,45.44C57.02,45.64,56.44,45.74,55.88,45.84C55.16,45.96,54.49,46.07,53.92,46.39L53.78,46.46C53.38,46.68,53.11,46.82,52.7,47.53C52.68,47.56,52.65,47.58,52.61,47.58C52.6,47.58,52.59,47.57,52.58,47.57Z" fill="#2D0000"/><path d="M55.01,45.87C53.85,44.4,53.73,41.42,56.28,40.89C59.32,40.14,59.93,44.34,57.85,45.15Z" fill="black"/><path d="M55.01,45.87C53.85,44.4,53.73,41.42,56.28,40.89C59.32,40.14,59.93,44.34,57.85,45.15Z" fill="#000000" stroke="black" stroke-width="0.016"/><path d="M39.73,41.03C38.64,40.52,37.53,40.37,36.54,40.82C35.14,41.46,34.3,43.19,33.52,44.56C34.12,44.33,35.02,44.06,35.76,44.25C36.49,44.45,37.03,45.22,38.45,45.55C39.86,45.88,41.17,46.03,42.09,46.89C41.56,44.59,41.15,41.58,39.73,41.03Z" fill="#F9FAFF"/><path d="M35.78,44.15C36.1,44.23,36.38,44.41,36.69,44.62C37.15,44.92,37.65,45.25,38.47,45.45C38.72,45.5,38.96,45.56,39.19,45.6C40.2,45.82,41.15,46.02,41.91,46.59C41.86,46.35,41.8,46.1,41.75,45.85C41.32,43.85,40.85,41.58,39.7,41.13C38.52,40.58,37.47,40.51,36.58,40.92C35.38,41.46,34.59,42.88,33.89,44.13C33.84,44.21,33.8,44.28,33.76,44.36C34.3,44.17,34.79,44.08,35.21,44.08C35.42,44.08,35.61,44.1,35.78,44.15Z" fill="#2D0000"/><path d="M42.01,46.96C41.27,46.27,40.28,46.06,39.14,45.81C38.91,45.76,38.67,45.71,38.42,45.65C37.57,45.45,37.02,45.09,36.58,44.8C36.27,44.6,36.01,44.43,35.73,44.36C35.19,44.21,34.45,44.32,33.56,44.66C33.51,44.68,33.47,44.67,33.44,44.64C33.41,44.6,33.4,44.55,33.43,44.51C33.51,44.35,33.61,44.19,33.7,44.03C34.41,42.74,35.22,41.3,36.5,40.72C37.44,40.29,38.55,40.36,39.78,40.94C41.03,41.42,41.51,43.65,41.96,45.8C42.04,46.17,42.11,46.52,42.19,46.86C42.2,46.91,42.18,46.96,42.14,46.98C42.12,46.99,42.1,47,42.09,47C42.06,47,42.03,46.99,42.01,46.96Z" fill="#2D0000"/><path d="M39.9,45.84L38.94,45.68L37.29,45.05C35.9,44.85,35.46,42.17,36.62,41.22C36.62,41.22,37.37,40.51,38.45,40.72C38.97,40.82,40.44,40.9,40.87,42.9C41.17,44.64,40.56,45.39,39.9,45.84Z" fill="black"/><path d="M39.9,45.84L38.94,45.68L37.29,45.05C35.9,44.85,35.46,42.17,36.62,41.22C36.62,41.22,37.37,40.51,38.45,40.72C38.97,40.82,40.44,40.9,40.87,42.9C41.17,44.64,40.56,45.39,39.9,45.84Z" fill="#000000" stroke="black" stroke-width="0.01"/><path d="M37.84,42.16C37.84,42.68,37.57,43.11,37.23,43.11C36.89,43.11,36.62,42.68,36.62,42.16C36.62,41.64,36.89,41.22,37.23,41.22C37.57,41.22,37.84,41.64,37.84,42.16Z" fill="#328CFF"/><path d="M55.63,42.48C55.63,42.88,55.44,43.2,55.21,43.2C54.98,43.2,54.79,42.88,54.79,42.48C54.79,42.08,54.98,41.76,55.21,41.76C55.44,41.76,55.63,42.08,55.63,42.48Z" fill="#328CFF"/><path d="M40.58,44.43C40.58,45.05,40.09,45.55,39.48,45.55C38.87,45.55,38.38,45.05,38.38,44.43C38.38,43.82,38.87,43.32,39.48,43.32C40.09,43.32,40.58,43.82,40.58,44.43Z" fill="white"/><path d="M58.18,44.17C58.18,44.79,57.73,45.29,57.18,45.29C56.62,45.29,56.17,44.79,56.17,44.17C56.17,43.56,56.62,43.06,57.18,43.06C57.73,43.06,58.18,43.56,58.18,44.17Z" fill="white"/><path d="M58.71,64.96L58.87,64.94C58.91,64.93,58.97,64.93,59.02,64.97C59.06,65,59.08,65.06,59.08,65.14C59.09,65.36,58.95,65.66,58.74,65.85L58.71,65.88L58.7,65.91C58.66,66.2,58.59,66.81,58.63,67.74C58.66,68.49,58.97,68.92,59.25,69.3C59.47,69.6,59.65,69.83,59.66,70.17C59.67,70.35,59.6,70.58,59.49,70.81L59.31,71.16L59.66,70.94C59.88,70.8,60.1,70.77,60.26,70.85C60.38,70.92,60.44,71.04,60.45,71.21L60.48,71.96C60.49,72.02,60.43,72.12,60.35,72.17L54.87,75.65C54.86,75.65,54.85,75.66,54.85,75.66L54.81,74.91C54.8,74.47,55.21,73.77,55.64,73.49L55.81,73.38L55.66,73.29C55.55,73.23,55.49,73.11,55.49,72.95C55.48,72.6,55.63,72.12,55.82,71.57C56.05,70.87,56.37,70.11,56.34,69.39C56.33,69.16,56.28,68.41,56.26,68.09L56.21,67.51L56.08,67.56C55.95,67.64,55.82,67.67,55.73,67.63C55.67,67.6,55.65,67.54,55.64,67.45C55.64,67.26,55.75,67.01,55.92,66.81L55.37,65.14L56.02,64.71C56.48,64.47,57.09,63.49,57.09,63.49C57.09,63.49,58.34,63.22,58.79,62.88L59.15,62.71Z" fill="white"/><path d="M56.22,69.36C56.17,70.06,55.94,70.85,55.72,71.54C55.53,72.1,55.37,72.58,55.38,72.95C55.39,73.16,55.48,73.3,55.61,73.39L55.59,73.4C55.11,73.69,54.69,74.43,54.71,74.92L54.74,75.67C54.74,75.77,54.83,75.8,54.93,75.74L60.41,72.26C60.52,72.2,60.6,72.06,60.59,71.96L60.56,71.21C60.54,70.72,60.07,70.55,59.61,70.84L59.59,70.86C59.71,70.62,59.78,70.37,59.77,70.17C59.75,69.8,59.57,69.54,59.34,69.23C59.07,68.86,58.76,68.45,58.73,67.74C58.7,66.79,58.77,66.18,58.81,65.93C59.04,65.72,59.2,65.39,59.19,65.14C59.18,64.91,59.04,64.79,58.85,64.83L59.25,62.75C59.37,62.62,59.46,62.43,59.46,62.28C59.44,62.07,59.27,62.01,59.07,62.13C58.87,62.26,58.71,62.53,58.72,62.74L58.73,62.8C58.29,63.12,57.93,63.22,57.54,63.13C57.58,63.04,57.6,62.95,57.6,62.87C57.59,62.67,57.42,62.6,57.22,62.73C57.02,62.85,56.86,63.13,56.87,63.34C56.87,63.42,56.9,63.47,56.95,63.51C56.59,64.07,56.23,64.43,55.79,64.66C55.79,64.64,55.79,64.62,55.79,64.6C55.79,64.39,55.62,64.33,55.42,64.45C55.21,64.58,55.05,64.86,55.07,65.06C55.07,65.21,55.17,65.28,55.3,65.26L55.84,66.74C55.65,66.95,55.53,67.23,55.54,67.46C55.55,67.77,55.84,67.84,56.15,67.65L56.19,68C56.26,68.67,56.24,69.1,56.22,69.36Z" fill="black"/><path d="M58.11,66.21C58.11,66.1,58.02,66.07,57.92,66.14L56.09,67.3C55.99,67.36,55.9,67.33,55.9,67.23C55.9,67.12,55.98,66.98,56.08,66.92C56.13,66.89,56.19,66.82,56.22,66.75C56.25,66.69,56.26,66.62,56.24,66.57L55.7,65.1C56.29,64.79,56.79,64.31,57.25,63.55C57.76,63.69,58.27,63.55,58.85,63.1L58.48,65.01L56.79,66.08C56.69,66.15,56.62,66.29,56.62,66.39C56.62,66.49,56.71,66.52,56.81,66.46L58.64,65.3C58.74,65.23,58.82,65.27,58.83,65.37C58.83,65.48,58.75,65.61,58.65,65.68L58.65,65.68C58.63,65.69,58.62,65.7,58.61,65.71C58.6,65.72,58.58,65.73,58.58,65.74C58.57,65.75,58.56,65.77,58.55,65.78C58.54,65.79,58.53,65.81,58.52,65.82C58.51,65.83,58.51,65.85,58.5,65.86C58.5,65.87,58.49,65.89,58.49,65.91L58.48,65.91C58.48,65.94,58.32,66.64,58.36,67.97C58.4,68.77,58.74,69.23,59.02,69.61C59.22,69.88,59.39,70.12,59.4,70.4C59.41,70.67,59.14,71.14,58.87,71.31L57.05,72.47C56.95,72.53,56.87,72.67,56.87,72.78C56.88,72.87,56.96,72.91,57.07,72.85L59.62,71.22C59.89,71.05,60.18,71.16,60.2,71.44L60.22,72L55.1,75.25L55.08,74.68C55.07,74.41,55.33,73.94,55.6,73.77L56.33,73.31C56.43,73.24,56.51,73.11,56.51,73.01C56.5,72.9,56.42,72.87,56.32,72.93C56.05,73.1,55.76,72.99,55.75,72.71C55.73,72.44,55.88,72,56.05,71.49C56.28,70.8,56.57,69.93,56.54,69.13C56.53,68.89,56.48,67.96,56.41,67.48L57.93,66.51C58.04,66.45,58.12,66.31,58.11,66.21Z" fill="black"/><path d="M57.7,50.96C55.43,51.18,53.33,51.04,52.29,49.54C50.99,47.75,49.68,45.24,49.96,43.05C50.13,41.64,51.48,41.17,52.84,40.67C54.29,40.14,55.86,39.75,57.69,39.63C59.69,39.49,62.02,39.44,63.04,41.68C63.37,43.36,63.76,44.73,62.8,46.93C61.98,49.67,59.98,50.73,57.7,50.96Z" fill="#EB3035"/><path d="M41.45,49.91C38.94,50.79,36.72,50.18,34.47,48.66C32.4,47.5,30.5,43.99,30.87,41.06C31.05,40.43,31.47,39.89,31.71,39.68C33.61,38.33,35.74,38.42,37.86,38.98C39.46,39.53,41.1,40.2,42.59,41.12C43.57,41.68,44.7,42.89,44.46,44.27C44.06,46.32,43.15,48.98,41.45,49.91Z" fill="#EB3035"/><path d="M63.91,39.26C59.6,36.93,53.1,38.67,49.22,40.48C44.66,42.61,41.9,37.72,37,37.11C34.02,36.74,31.53,37.43,30.73,38.39C28.84,40.62,29.96,35.69,30.11,35.11C29.79,36.08,26.73,40.24,27.81,41.27C30.11,42.55,30.23,45.78,31.77,48.05C33.81,50.96,37.11,52.24,40.04,52.13C42.37,52.02,43.96,50.67,45.8,46.89C47.85,43.17,49.13,48.16,50.89,50.56C52.65,52.96,56.78,52.92,59.59,52.21C62.11,51.44,63.84,49.43,64.68,46.57C65.53,43.71,64.71,43.67,66.41,41.85C67.26,39.91,65.58,36.27,64.72,35.05C65.24,37.23,65.99,41.13,63.91,39.26Z" fill="#EB3035"/><path d="M30.12,35.07C30.13,35.04,30.12,35.05,30.11,35.11C30.11,35.1,30.12,35.08,30.12,35.07Z" fill="#EB3035"/><path d="M70.05,61.5C71.98,60.34,74.49,57.08,74.75,53.37C73.58,52.42,71.41,49.38,70.79,46.94C68.9,39.26,75.6,24.46,57.18,12.61C73.32,25.71,68.01,41.11,69.12,49.22C72.09,56.1,70.05,61.5,70.05,61.5Z" fill="white"/><path d="M70.05,61.5C71.98,60.34,74.49,57.08,74.75,53.37C73.58,52.42,71.41,49.38,70.79,46.94C68.9,39.26,75.6,24.46,57.18,12.61C73.32,25.71,68.01,41.11,69.12,49.22C72.09,56.1,70.05,61.5,70.05,61.5Z" fill="url(#paint0_linear_119_7693)"/><path d="M70.79,46.94C71.4,49.38,73.58,52.42,74.75,53.36C74.49,57.08,71.98,60.34,70.05,61.5C70.05,61.5,72.09,56.1,69.12,49.22C68.01,41.11,73.33,25.71,57.18,12.6C75.6,24.46,68.9,39.26,70.79,46.94Z" fill="#000000" stroke="black" stroke-width="0.04"/><path d="M51.27,11.42C51.27,12.3,49.76,13.02,47.9,13.02C46.04,13.02,44.52,12.3,44.52,11.42C44.52,10.54,46.04,9.83,47.9,9.83C49.76,9.83,51.27,10.54,51.27,11.42Z" fill="#EB3035"/><path d="M44.67,11.42C44.67,12.21,46.15,12.88,47.9,12.88C49.65,12.88,51.13,12.21,51.13,11.42C51.13,10.63,49.65,9.97,47.9,9.97C46.15,9.97,44.67,10.63,44.67,11.42Z" fill="black"/><path d="M44.38,11.42C44.38,10.45,45.93,9.69,47.9,9.69C49.86,9.69,51.41,10.45,51.41,11.42C51.41,12.39,49.86,13.16,47.9,13.16C45.93,13.16,44.38,12.39,44.38,11.42Z" fill="black"/><path d="M51.27,10.44C51.27,11.32,49.76,12.04,47.9,12.04C46.04,12.04,44.52,11.32,44.52,10.44C44.52,9.56,46.04,8.85,47.9,8.85C49.76,8.85,51.27,9.56,51.27,10.44Z" fill="#EB3035"/><path d="M44.67,10.45C44.67,11.23,46.15,11.9,47.9,11.9C49.65,11.9,51.13,11.23,51.13,10.45C51.13,9.65,49.65,8.99,47.9,8.99C46.15,8.99,44.67,9.65,44.67,10.45Z" fill="black"/><path d="M44.38,10.45C44.38,9.47,45.93,8.71,47.9,8.71C49.86,8.71,51.41,9.47,51.41,10.45C51.41,11.41,49.86,12.18,47.9,12.18C45.93,12.18,44.38,11.41,44.38,10.45Z" fill="black"/><path d="M51.2,9.42C51.2,10.3,49.7,11.01,47.83,11.01C45.97,11.01,44.46,10.3,44.46,9.42C44.46,8.54,45.97,7.82,47.83,7.82C49.7,7.82,51.2,8.54,51.2,9.42Z" fill="#EB3035"/><path d="M44.6,9.42C44.6,10.21,46.08,10.87,47.83,10.87C49.58,10.87,51.06,10.21,51.06,9.42C51.06,8.63,49.58,7.96,47.83,7.96C46.08,7.96,44.6,8.63,44.6,9.42Z" fill="black"/><path d="M44.32,9.42C44.32,8.45,45.87,7.68,47.83,7.68C49.8,7.68,51.35,8.45,51.35,9.42C51.35,10.39,49.8,11.16,47.83,11.16C45.87,11.16,44.32,10.39,44.32,9.42Z" fill="black"/><path d="M39.44,14.05C36.99,25.7,27.43,37.38,11.57,39.1C27.83,35.1,25.65,27.3,25.65,27.3C31.41,18.57,39.19,-3.73,48.89,6.29C49.13,6.54,50.02,7.74,50.07,9.73C50.07,9.73,49.75,10.41,47.85,10.42C45.85,10.42,45.51,9.62,45.51,9.62C45.27,5.8,40.95,6.83,39.44,14.05Z" fill="black"/><path d="M28.32,31.73C28.49,31.82,28.65,31.9,28.81,31.99C28.97,32.08,29.14,32.16,29.31,32.24L29.82,32.49C30.67,32.91,32.22,31.83,32.72,31.54C32.17,32.39,31.4,32.67,30.67,32.9L31.4,33.19L31.96,33.41C32.13,33.49,32.32,33.56,32.5,33.63C32.7,33.7,32.88,33.76,33.07,33.83C33.97,33.9,35.85,32.3,36.76,31.45C36.06,33.17,34.03,34.16,34.23,34.22C34.42,34.29,34.62,34.35,34.82,34.41C35.01,34.47,35.21,34.53,35.41,34.58C35.62,34.64,35.82,34.7,36.02,34.75C36.23,34.81,36.43,34.86,36.63,34.91C36.83,34.97,37.04,35.02,37.25,35.07C37.46,35.12,37.66,35.17,37.88,35.21C38.08,35.26,39.68,34.59,41.53,31.9C41.06,34.14,40.1,34.65,39.14,35.48C39.35,35.52,39.55,35.56,39.77,35.6C39.99,35.64,40.2,35.68,40.41,35.71C40.63,35.75,40.84,35.79,41.06,35.82C41.27,35.85,41.49,35.89,41.71,35.91C41.93,35.95,42.14,35.97,42.36,36C42.58,36.03,42.8,36.06,43.02,36.08C43.24,36.11,43.45,36.13,43.68,36.15C43.9,36.17,44.12,36.19,44.34,36.21C44.56,36.23,44.78,36.24,45.01,36.26C45.22,36.28,46.93,34.2,47.09,32.4C47.31,34.15,46.85,35.89,46.34,36.34C46.56,36.34,46.78,36.35,47,36.36C47.23,36.37,47.44,36.38,47.67,36.38C47.89,36.38,48.11,36.38,48.34,36.38C48.56,36.38,48.78,36.38,49.01,36.38C49.23,36.37,49.45,36.37,49.67,36.36C50.75,36.34,51.89,34.33,52.02,33.04C52.57,34.18,51.8,36.05,51.66,36.26C51.88,36.24,52.1,36.22,52.32,36.2C52.54,36.18,52.76,36.16,52.97,36.14C53.2,36.11,53.41,36.09,53.63,36.06C53.85,36.03,54.07,36,54.29,35.97C54.5,35.94,54.72,35.91,54.94,35.88C55.14,35.84,55.36,35.8,55.58,35.77C55.79,35.73,56.52,34.23,56.6,33.15C57.18,33.6,57.04,35.34,56.85,35.52C57.06,35.47,57.28,35.42,57.49,35.38C57.69,35.33,57.9,35.28,58.1,35.23C58.32,35.17,58.52,35.12,58.73,35.06C58.93,35,59.13,34.95,59.34,34.89C59.55,34.82,59.75,34.76,59.95,34.7C60.15,34.64,60.35,34.57,60.55,34.51C60.75,34.43,60.94,34.36,61.15,34.29C61.34,34.22,61.54,34.14,61.73,34.07C62.18,33.91,61.99,31.84,61.99,31.84C61.99,31.84,62.59,32.73,62.42,33.81C62.63,33.7,63.25,33.42,63.44,33.33C63.62,33.25,63.8,33.16,63.99,33.06C64.17,32.97,64.34,32.86,64.53,32.78C64.83,32.65,64.74,31.81,64.68,31.44C64.86,31.59,65.15,32.3,65.04,32.51C65.15,32.41,65.93,31.97,66.1,31.86C66.27,31.75,66.44,31.64,66.6,31.53C63.97,21.47,57.05,18.81,47.6,18.81C38.16,18.81,30.48,21.41,27.85,31.46C28.01,31.56,28.16,31.64,28.32,31.73Z" fill="white"/><path d="M28.32,31.73C28.49,31.82,28.65,31.9,28.81,31.99C28.97,32.08,29.14,32.16,29.31,32.24L29.82,32.49C30.67,32.91,32.22,31.83,32.72,31.54C32.17,32.39,31.4,32.67,30.67,32.9L31.4,33.19L31.96,33.41C32.13,33.49,32.32,33.56,32.5,33.63C32.7,33.7,32.88,33.76,33.07,33.83C33.97,33.9,35.85,32.3,36.76,31.45C36.06,33.17,34.03,34.16,34.23,34.22C34.42,34.29,34.62,34.35,34.82,34.41C35.01,34.47,35.21,34.53,35.41,34.58C35.62,34.64,35.82,34.7,36.02,34.75C36.23,34.81,36.43,34.86,36.63,34.91C36.83,34.97,37.04,35.02,37.25,35.07C37.46,35.12,37.66,35.17,37.88,35.21C38.08,35.26,39.68,34.59,41.53,31.9C41.06,34.14,40.1,34.65,39.14,35.48C39.35,35.52,39.55,35.56,39.77,35.6C39.99,35.64,40.2,35.68,40.41,35.71C40.63,35.75,40.84,35.79,41.06,35.82C41.27,35.85,41.49,35.89,41.71,35.91C41.93,35.95,42.14,35.97,42.36,36C42.58,36.03,42.8,36.06,43.02,36.08C43.24,36.11,43.45,36.13,43.68,36.15C43.9,36.17,44.12,36.19,44.34,36.21C44.56,36.23,44.78,36.24,45.01,36.26C45.22,36.28,46.93,34.2,47.09,32.4C47.31,34.15,46.85,35.89,46.34,36.34C46.56,36.34,46.78,36.35,47,36.36C47.23,36.37,47.44,36.38,47.67,36.38C47.89,36.38,48.11,36.38,48.34,36.38C48.56,36.38,48.78,36.38,49.01,36.38C49.23,36.37,49.45,36.37,49.67,36.36C50.75,36.34,51.89,34.33,52.02,33.04C52.57,34.18,51.8,36.05,51.66,36.26C51.88,36.24,52.1,36.22,52.32,36.2C52.54,36.18,52.76,36.16,52.97,36.14C53.2,36.11,53.41,36.09,53.63,36.06C53.85,36.03,54.07,36,54.29,35.97C54.5,35.94,54.72,35.91,54.94,35.88C55.14,35.84,55.36,35.8,55.58,35.77C55.79,35.73,56.52,34.23,56.6,33.15C57.18,33.6,57.04,35.34,56.85,35.52C57.06,35.47,57.28,35.42,57.49,35.38C57.69,35.33,57.9,35.28,58.1,35.23C58.32,35.17,58.52,35.12,58.73,35.06C58.93,35,59.13,34.95,59.34,34.89C59.55,34.82,59.75,34.76,59.95,34.7C60.15,34.64,60.35,34.57,60.55,34.51C60.75,34.43,60.94,34.36,61.15,34.29C61.34,34.22,61.54,34.14,61.73,34.07C62.18,33.91,61.99,31.84,61.99,31.84C61.99,31.84,62.59,32.73,62.42,33.81C62.63,33.7,63.25,33.42,63.44,33.33C63.62,33.25,63.8,33.16,63.99,33.06C64.17,32.97,64.34,32.86,64.53,32.78C64.83,32.65,64.74,31.81,64.68,31.44C64.86,31.59,65.15,32.3,65.04,32.51C65.15,32.41,65.93,31.97,66.1,31.86C66.27,31.75,66.44,31.64,66.6,31.53C63.97,21.47,57.05,18.81,47.6,18.81C38.16,18.81,30.48,21.41,27.85,31.46C28.01,31.56,28.16,31.64,28.32,31.73Z" fill="url(#paint1_linear_119_7693)"/><path d="M24.46,32.69L26.62,34.99C22.12,35.8,19.9,40.22,12.61,41.78C15.39,41,21.88,35.45,24.46,32.69Z" fill="black"/><path d="M20.25,53.54C20.51,57.26,23.01,60.52,24.95,61.68C24.95,61.68,22.9,56.28,25.87,49.4C26.98,41.29,21.67,25.89,37.81,12.78C19.39,24.64,26.1,39.43,24.2,47.11C23.59,49.55,21.41,52.6,20.25,53.54Z" fill="white"/><path d="M20.25,53.54C20.51,57.26,23.01,60.52,24.95,61.68C24.95,61.68,22.9,56.28,25.87,49.4C26.98,41.29,21.67,25.89,37.81,12.78C19.39,24.64,26.1,39.43,24.2,47.11C23.59,49.55,21.41,52.6,20.25,53.54Z" fill="url(#paint2_linear_119_7693)"/><path d="M24.2,47.11C23.59,49.56,21.41,52.6,20.24,53.54C20.5,57.25,23.01,60.52,24.94,61.68C24.94,61.68,22.9,56.28,25.87,49.4C26.98,41.29,21.67,25.89,37.81,12.78C19.39,24.64,26.1,39.43,24.2,47.11Z" fill="#000000" stroke="black" stroke-width="0.04"/><path d="M21.41,35.41C23.22,34.77,25.35,35.89,22.99,38.15C21.06,39.74,17.96,42.01,15.25,42.51C21.61,39.19,21.41,35.41,21.41,35.41Z" fill="black"/><path d="M48.36,55.45L49.13,55.45C49.26,55.45,49.38,55.45,49.52,55.42C49.64,55.41,49.77,55.41,49.92,55.38L49.93,55.38C49.99,55.38,50.05,55.36,50.1,55.34C50.41,55.16,50.51,54.76,50.33,54.44C50.2,54.21,49.94,54.09,49.68,54.13C49.59,54.15,49.47,54.17,49.36,54.19C49.26,54.21,49.15,54.23,49.03,54.25C48.81,54.28,48.57,54.31,48.34,54.32C47.88,54.36,47.42,54.36,46.96,54.34C46.03,54.29,45.11,54.1,44.25,53.76C44.01,53.64,43.72,53.73,43.61,53.98C43.49,54.21,43.59,54.5,43.83,54.61C43.93,54.67,45.99,55.14,46.85,55.29C47.35,55.37,47.85,55.42,48.36,55.45Z" fill="black"/></svg>