<svg xmlns="http://www.w3.org/2000/svg" viewBox="0 0 90 90"><path d="M84.09,20.08C89.88,15.1,90,5.87,90,5.87C90,5.87,80.86,4.62,75.07,9.6L19.61,57.35L23.98,62.72L28.68,67.8L28.67,67.8Z" fill="currentColor"/><path d="M28.68,67.8L84.1,20.08C89.89,15.1,90.01,5.87,90.01,5.87L23.98,62.72Z" fill="currentColor"/><path d="M33.7,75.36C34.69,74.51,34.9,73.03,34.17,71.93C33.01,70.19,31.69,68.34,30.24,66.44C30.24,66.44,25.09,59.75,21.18,55.99C19.52,54.27,17.89,52.69,16.34,51.29C15.36,50.4,13.87,50.4,12.88,51.25C11.89,52.1,9.86,54.17,10.39,54.9L29.73,77.28L29.72,77.28C30.37,77.91,32.71,76.21,33.7,75.36Z" fill="currentColor"/><path d="M10.76,82.69C8.04,85.04,3.93,84.73,1.58,82C-0.77,79.27,-0.46,75.17,2.27,72.82C3.72,71.57,7.28,71.24,7.28,71.24L13.07,77.97C13.07,77.97,12.21,81.44,10.76,82.69Z" fill="currentColor"/><path d="M12.98,77.89L7.19,71.17L16.25,61.73L23.69,70.3Z" fill="currentColor"/><path d="M1.03,78.56C4.21,79.47,7.74,78.83,10.47,76.61L7.13,72.73C5.61,72.38,3.97,72.65,2.7,73.74C1.27,74.97,0.7,76.83,1.03,78.56Z" fill="currentColor"/><path d="M12.43,65.7L16.25,61.73L23.7,70.3L23.69,70.3C23.69,70.3,20.97,67.46,12.43,65.7Z" fill="currentColor"/><path d="M5.91,20.09C0.12,15.1,0,5.87,0,5.87C0,5.87,9.14,4.62,14.93,9.6L70.39,57.35L66.02,62.72L61.32,67.8L61.33,67.8Z" fill="currentColor"/><path d="M61.32,67.8L5.91,20.09C0.12,15.1,0,5.87,0,5.87L66.02,62.72Z" fill="currentColor"/><path d="M64.67,18.56L45,35.49L25.33,18.56C24.21,21.15,23.59,24.01,23.59,27.01L23.59,35.31L34.4,44.61L23.74,53.79C24.1,56.7,25.11,59.45,26.72,61.84C28.2,64.03,30.24,66.44,30.24,66.44L44.99,53.74L59.74,66.44C59.74,66.44,61.78,64.03,63.26,61.84C64.87,59.45,65.89,56.7,66.24,53.79L55.58,44.61L66.39,35.31L66.39,27.01L66.41,27.01C66.41,24.01,65.79,21.15,64.67,18.56Z" fill="currentColor"/><path d="M56.3,75.36C55.31,74.51,55.1,73.03,55.83,71.93C56.99,70.19,58.31,68.34,59.76,66.44C59.76,66.44,64.91,59.75,68.82,55.99C70.48,54.27,72.11,52.69,73.66,51.29C74.64,50.4,76.13,50.4,77.12,51.25C78.11,52.1,80.14,54.17,79.61,54.9L60.27,77.28L60.28,77.28C59.63,77.91,57.29,76.21,56.3,75.36Z" fill="currentColor"/><path d="M79.24,82.69C81.96,85.04,86.07,84.73,88.42,82C90.77,79.28,90.46,75.17,87.73,72.82C86.28,71.57,82.72,71.24,82.72,71.24L76.93,77.97C76.93,77.97,77.79,81.44,79.24,82.69Z" fill="currentColor"/><path d="M77.02,77.89L82.81,71.17L73.75,61.73L66.31,70.3Z" fill="currentColor"/><path d="M88.97,78.56C85.79,79.47,82.26,78.83,79.53,76.61L82.87,72.73C84.39,72.38,86.03,72.65,87.3,73.74C88.73,74.97,89.3,76.83,88.97,78.56Z" fill="currentColor"/><path d="M77.57,65.7L73.75,61.73L66.3,70.3L66.31,70.3C66.31,70.3,69.03,67.46,77.57,65.7Z" fill="currentColor"/><path d="M48.17,36.36L44.91,39.62L52.36,42.19Z" fill="currentColor"/><path d="M45,44.62L50.3,49.18L66.41,35.31L66.41,27.01C66.41,26.74,66.4,26.47,66.39,26.2L66.38,26.21Z" fill="currentColor"/><path d="M23.6,27.02L23.6,35.32L34.41,44.62L23.75,53.8C24.06,56.32,24.86,58.73,26.13,60.88L39.71,49.19L45.01,53.75L50.31,49.19L45.01,44.63L23.63,26.22L23.62,26.21C23.61,26.48,23.6,26.75,23.6,27.02Z" fill="currentColor"/><path d="M50.3,49.18L63.88,60.87C65.14,58.71,65.95,56.31,66.26,53.79L55.6,44.61L66.41,35.31Z" fill="currentColor"/><path d="M59.7,58.47C59.7,58.47,57.13,49.65,45,49.65C32.87,49.65,30.3,58.47,30.3,58.47L28.1,46.35L28.1,22.47L61.19,22.47L59.7,46.35Z" fill="currentColor"/><path d="M63.62,27.01L63.62,51.42C63.62,59.94,57.47,64.02,57.33,63.95L52.28,40.52L54.65,40.43C54.81,40.43,56.67,40.42,56.83,40.4L57.19,40.38L57.19,40.34C57.43,40.29,57.66,40.23,57.89,40.14C60.09,39.28,60.34,30.12,58.14,30.99L47.17,35.13C46.95,35.24,46.76,35.39,46.6,35.59L49.28,49.04L44.98,51.76L43.88,45.25L43.51,18.06L44.98,8.38L45,8.39C55.29,8.39,63.62,16.73,63.62,27.01Z" fill="currentColor"/><path d="M45,51.76L45,8.39C34.71,8.39,26.38,16.73,26.38,27.01L26.38,51.42C26.38,59.94,32.53,64.02,32.67,63.95L37.72,40.52L35.35,40.43C35.19,40.43,33.33,40.42,33.17,40.4L32.81,40.38L32.81,40.34C32.57,40.29,32.34,40.23,32.11,40.14C29.91,39.28,29.66,30.12,31.86,30.99L42.83,35.13C43.05,35.24,43.24,35.39,43.4,35.59L40.72,49.04L45.02,51.76L34.1,52.66Z" fill="currentColor"/></svg>