<svg xmlns="http://www.w3.org/2000/svg" viewBox="0 0 90 90"><path d="M49.77,52.96L44.87,57.34L56.07,60.79Z" fill="currentColor"/><path d="M45,70.81C26.78,70.81,22.91,82.65,22.91,82.65L19.55,34.32L69.34,34.32L67.09,82.65C67.09,82.65,63.22,70.81,45,70.81Z" fill="currentColor"/><path d="M73,40.42L73,73.18C73,84.6,63.75,90.09,63.55,90L55.95,58.55C58.59,58.45,61.95,59.03,64.43,58.14C67.79,56.99,68.12,44.7,64.8,45.86L48.28,51.3C47.95,51.43,47.65,51.64,47.43,51.9L51.46,70L45,73.63L43.34,64.89L42.76,28.41L45,15.42C58.84,15.42,73,25.63,73,40.42Z" fill="currentColor"/><path d="M45,15.42C37.57,15.42,30.45,18.05,25.2,22.74C19.95,27.43,17,33.79,17,40.42L17,73.18C17,84.6,26.25,90.09,26.45,90L34.05,58.55L30.44,58.42L26.61,58.42C26.25,58.35,25.9,58.26,25.57,58.14C22.21,56.99,21.88,44.7,25.2,45.86L41.72,51.3C42.05,51.43,42.35,51.64,42.57,51.9L38.54,70L45,73.63Z" fill="currentColor"/><path d="M17,73.18C17,78.65,19.39,85.5,26.45,90L29.32,78.1C21.18,70.82,19.7,59.02,19.51,53.01C19.61,47.06,18.58,40.3,20.28,34.5C26.47,35.45,39.14,25.87,32.31,19.77C32.25,19.72,32.19,19.66,32.13,19.61C34.75,17.7,36.8,16.59,37.04,16.46L37.05,16.46C26.14,19.34,17,28.72,17,40.42Z" fill="currentColor"/><path d="M73,73.18C73,73.75,73,74.3,72.91,74.84C70.49,74.78,70.4,52.49,70.4,39.16C70.4,25.83,53.6,16.81,52.95,16.46C63.86,19.34,73,28.72,73,40.42Z" fill="currentColor"/><path d="M70.45,49.23L73,54.45L73,73.18C73,84.6,63.75,90.09,63.55,90L60.68,78.1C71.97,68,70.45,49.23,70.45,49.23Z" fill="currentColor"/><path d="M40.46,26.41C40.01,26.41,39.58,26.24,39.25,25.94C38.92,25.64,38.71,25.22,38.67,24.77L36.64,2C36.61,1.75,36.64,1.49,36.71,1.25C36.79,1.01,36.91,0.79,37.08,0.6C37.25,0.41,37.46,0.26,37.69,0.16C37.93,0.05,38.18,0,38.43,0L51.57,0C51.82,0,52.07,0.05,52.31,0.16C52.54,0.26,52.75,0.41,52.92,0.6C53.09,0.79,53.22,1.01,53.29,1.25C53.37,1.49,53.39,1.75,53.36,2L51.36,24.82C51.31,25.26,51.09,25.67,50.76,25.97C50.42,26.26,49.99,26.42,49.54,26.41C46.56,25.64,43.44,25.64,40.46,26.41Z" fill="currentColor"/><path d="M49.54,26.41C49.99,26.41,50.42,26.24,50.75,25.94C51.08,25.64,51.29,25.22,51.33,24.77L52.5,11.59C52.28,13.49,50.63,22.3,38.5,22.3L38.72,24.77C38.76,25.21,38.96,25.62,39.28,25.92C39.6,26.22,40.02,26.4,40.46,26.41C43.44,25.64,46.56,25.64,49.54,26.41Z" fill="currentColor"/></svg>