<svg xmlns="http://www.w3.org/2000/svg" viewBox="0 0 90 90"><path d="M7,7C10.87,7,14,10.13,14,14C14,17.87,10.87,21,7,21L0,21L0,7Z" fill="currentColor"/><path d="M72.19,11C77.64,11,82.61,7.9,85,3L85,25C82.61,20.1,77.64,17,72.19,17L5,17L5,11Z" fill="currentColor"/><path d="M69.38,11C70.57,12.79,70.57,15.13,69.38,16.92L73.67,16.92L73.67,11Z" fill="currentColor"/><path d="M22.85,11C21.66,12.79,21.66,15.13,22.85,16.92L18.56,16.92L18.56,11Z" fill="currentColor"/><path d="M2.5,3.77C1.12,3.77,0,4.89,0,6.27L0,21.5C0,22.88,1.12,24,2.5,24C3.88,24,5,22.88,5,21.5L5,6.27C5,4.89,3.88,3.77,2.5,3.77Z" fill="currentColor"/><path d="M2.5,3.77C1.48,4.34,0.83,5.39,0.76,6.56L0,20L0,6.27C0,4.89,1.12,3.77,2.5,3.77Z" fill="currentColor"/><path d="M87.5,0C86.12,0,85,1.12,85,2.5L85,25.5C85,26.88,86.12,28,87.5,28C88.88,28,90,26.88,90,25.5L90,2.5C90,1.12,88.88,0,87.5,0Z" fill="currentColor"/><path d="M87.5,0C86.48,0.57,85.83,1.62,85.76,2.79L85,16.23L85,2.5C85,1.12,86.12,0,87.5,0Z" fill="currentColor"/><path d="M9,10L9,84.81C9,87.96,11.87,90.32,14.96,89.72L45,83.87L45,23.04L19,21.16L19,10C19,8.34,17.66,7,16,7L12,7C10.34,7,9,8.34,9,10Z" fill="currentColor"/><path d="M75.04,89.72C78.13,90.32,81,87.96,81,84.81L81,10C81,8.34,79.66,7,78,7L74,7C72.34,7,71,8.34,71,10L71,21.16L45,23.04L45,83.87Z" fill="currentColor"/><path d="M45.08,25.83L19,24L19,79.16L45.08,74.86L71,79.16L71,24Z" fill="currentColor"/><path d="M45,25.83L45,74.86L71,79.16L71,24Z" fill="currentColor"/><path d="M59,68L59,67.35C59,62.49,56.68,60.73,54.26,58.89C51.84,57.06,49.32,55.15,48.95,50L52.66,50C53.17,49.06,53.24,48.02,53.24,46.98L49.33,44.6C51.1,43.2,52.01,40.96,52.01,38.95C52.01,35.13,48.89,32.04,45.02,32C45.01,32,45.01,32,45,32L45,68Z" fill="currentColor"/><path d="M45.12,68L31,68L31,67.35C31,62.49,33.32,60.73,35.74,58.89C38.16,57.06,40.68,55.15,41.05,50L37.34,50C36.83,49.06,36.76,48.02,36.76,46.98L40.67,44.6C38.9,43.2,37.99,40.96,37.99,38.95C37.99,35.13,41.11,32.04,45.02,32C45.05,32,45.08,32,45.12,32Z" fill="currentColor"/><path d="M9,84.84C9,87.97,11.85,90.34,14.94,89.75L45,84.03L45,82.34L13.73,88.13C11.27,88.58,9,86.7,9,84.19L9,79Z" fill="currentColor"/><path d="M81,84.84C81,87.97,78.15,90.34,75.06,89.75L45,84.03L45,82.34L76.26,88.21C78.72,88.67,81,86.78,81,84.28L81,79Z" fill="currentColor"/><path d="M12,7L14.73,7C12.35,8.3,10.82,10.75,10.7,13.46L9,52.79L9,10C9,8.34,10.34,7,12,7Z" fill="currentColor"/><path d="M78,7L76.27,7C78.15,8.78,79.25,11.24,79.32,13.83L81,72.79L81,10C81,8.34,79.66,7,78,7Z" fill="currentColor"/></svg>