<svg xmlns="http://www.w3.org/2000/svg" viewBox="0 0 90 90"><path d="M71.16,8.82L18.6,8.82C16.98,8.82,15.69,10.14,15.69,11.73L15.69,71.49C15.69,72.54,16.26,73.53,17.19,74.04L43.47,88.56C43.92,88.8,44.4,88.92,44.88,88.92C45.36,88.92,45.84,88.8,46.29,88.56L72.57,74.04C73.5,73.53,74.07,72.54,74.07,71.49L74.07,11.76C74.07,10.98,73.77,10.23,73.2,9.69L73.23,9.69C72.69,9.15,71.94,8.82,71.16,8.82Z" fill="#0B548C"/><path d="M16.89,35.07L15.66,36.12L15.66,57.87L16.89,58.92L30.87,47.01Z" fill="#083A66"/><path d="M44.88,58.92L58.86,47.01L44.88,35.07L30.87,47.01Z" fill="#083A66"/><path d="M72.84,58.92L74.07,57.87L74.07,36.12L72.84,35.07L58.86,47.01Z" fill="#083A66"/><path d="M15.66,59.97L15.66,71.52C15.66,72.57,16.23,73.56,17.16,74.07L23.19,77.4L30.87,70.83L16.89,58.92Z" fill="#083A66"/><path d="M44.88,82.77L58.86,70.83L44.88,58.92L30.87,70.83Z" fill="#083A66"/><path d="M43.47,88.62C43.92,88.86,44.4,88.98,44.88,88.98C45.36,88.98,45.84,88.86,46.29,88.62L49.59,86.79L44.88,82.77L40.17,86.79Z" fill="#083A66"/><path d="M66.54,77.4L72.57,74.07C73.5,73.56,74.07,72.57,74.07,71.52L74.07,59.97L72.84,58.92L58.86,70.83Z" fill="#083A66"/><path d="M16.89,11.25L15.66,12.3L15.66,34.05L16.89,35.07L30.87,23.16Z" fill="#083A66"/><path d="M44.88,11.25L30.87,23.16L44.88,35.07L58.86,23.16Z" fill="#083A66"/><path d="M72.84,35.07L74.07,34.05L74.07,12.3L72.84,11.25L58.86,23.16Z" fill="#083A66"/><path d="M18.6,8.82C17.46,8.82,16.47,9.48,15.99,10.44L16.92,11.22L19.77,8.79L19.74,8.82Z" fill="#2D3246"/><path d="M42.03,8.82L44.88,11.25L47.7,8.82Z" fill="#083A66"/><path d="M70.02,8.82L72.87,11.25L73.8,10.47C73.65,10.2,73.47,9.93,73.26,9.69C72.72,9.15,71.97,8.82,71.19,8.82L71.16,8.82Z" fill="#2D3246"/><path d="M71.82,7.8L71.82,9.63C72.12,9.63,72.42,9.75,72.63,9.96C72.84,10.17,72.96,10.47,72.96,10.77L72.96,72.09C72.96,72.51,72.72,72.9,72.36,73.11L45.39,88.02C45.21,88.11,45.03,88.17,44.82,88.17C44.61,88.17,44.43,88.11,44.25,88.02L17.28,73.11C16.92,72.9,16.68,72.51,16.68,72.09L16.68,10.77C16.68,10.14,17.19,9.63,17.82,9.63L71.76,9.63L71.76,7.8" fill="none" stroke="#E3AA24" stroke-width="2" stroke-linecap="round" stroke-linejoin="round"/><path d="M17.91,7.8C16.26,7.8,14.91,9.15,14.91,10.8L14.91,72.12C14.91,73.2,15.51,74.22,16.47,74.73L43.44,89.64C43.89,89.88,44.4,90,44.88,90C45.36,90,45.87,89.88,46.32,89.64L73.29,74.73C74.25,74.19,74.85,73.2,74.85,72.12L74.85,10.77C74.85,9.99,74.52,9.21,73.98,8.64C73.41,8.07,72.66,7.77,71.85,7.77L71.76,7.8Z" fill="#E3AA24"/><path d="M37.29,58.35L33.6,58.35L33.6,64.77L30.51,57.72L27.75,57.72L24.12,66.03L26.97,66.03L27.54,64.59L30.69,64.59L31.26,66.03L36.18,66.03L36.18,64.11L36.87,64.11L38.16,66.03L40.92,66.03L39.3,63.66C40.23,63.18,40.74,62.37,40.74,61.26L40.8,61.23C40.8,59.46,39.45,58.35,37.29,58.35Z" fill="#F7C631"/><path d="M29.13,60.45L29.94,62.55L28.32,62.55Z" fill="#F7C631"/><path d="M36.21,62.13L36.21,60.33L37.14,60.33C37.86,60.33,38.19,60.66,38.19,61.23C38.19,61.8,37.86,62.13,37.14,62.13Z" fill="#F7C631"/><path d="M47.34,63.06L47.34,61.2L44.1,61.2L44.1,60.3L47.79,60.3L47.79,58.35L41.55,58.35L41.55,66L47.94,66L47.94,64.05L44.1,64.05L44.1,63.06Z" fill="#F7C631"/><path d="M59.19,57.69L56.25,64.41L56.25,58.32L53.73,58.32L53.73,61.8L50.82,58.32L48.69,58.32L48.69,66L51.21,66L51.21,62.52L54.12,66L58.41,66L58.98,64.56L62.13,64.56L62.7,66L65.61,66L61.98,57.69L61.95,57.69Z" fill="#F7C631"/><path d="M60.54,60.42L61.35,62.52L59.73,62.52Z" fill="#F7C631"/><path d="M53.76,58.32L53.76,58.92C53.76,58.92,54.51,59.34,54.96,59.61C55.41,59.88,56.07,60.06,56.28,59.82L56.28,58.29L54.3,58.29L54.3,58.32Z" fill="#CF8D1B"/><path d="M74.07,16.5C78.39,12.78,78.48,5.88,78.48,5.88C78.48,5.88,71.64,4.95,67.32,8.67L25.89,44.34L29.16,48.36L32.67,52.17L32.67,52.14Z" fill="#E8E6E1"/><path d="M32.67,52.17L74.07,16.53C78.39,12.81,78.48,5.91,78.48,5.91L29.16,48.36Z" fill="#B3ACA8"/><path d="M35.46,59.37C36.15,58.92,36.9,58.35,36.9,58.35L33.6,58.35L33.6,60.03C34.47,59.97,34.77,59.82,35.46,59.37Z" fill="#CF8D1B"/><path d="M36.42,57.81C37.17,57.18,37.32,56.07,36.78,55.26C35.91,53.97,34.92,52.59,33.84,51.15C33.84,51.15,30,46.14,27.06,43.35C25.83,42.06,24.6,40.89,23.43,39.84C22.71,39.18,21.6,39.18,20.85,39.81C20.1,40.44,18.6,42,18.99,42.54L33.45,59.25C33.93,59.73,35.67,58.44,36.42,57.81Z" fill="#807B76"/><path d="M19.26,63.3C17.22,65.04,14.16,64.83,12.39,62.79C10.62,60.75,10.86,57.69,12.9,55.92C13.98,54.99,16.65,54.75,16.65,54.75L20.97,59.79L21,59.76C21,59.76,20.37,62.34,19.26,63.3Z" fill="#807B76"/><path d="M20.94,59.7L16.62,54.66L23.4,47.61L28.95,54.03Z" fill="#4A4743"/><path d="M12.03,60.18C14.4,60.87,17.04,60.39,19.08,58.74L16.59,55.83C15.45,55.56,14.22,55.77,13.29,56.58L13.26,56.58C12.18,57.51,11.76,58.89,12.03,60.18Z" fill="#D1CCC5"/><path d="M20.52,50.61L23.37,47.64L28.92,54.03L28.95,54.03C28.95,54.03,26.91,51.9,20.52,50.61Z" fill="#383532"/><path d="M15.66,16.5C11.34,12.78,11.25,5.88,11.25,5.88C11.25,5.88,18.09,4.95,22.41,8.67L63.84,44.34L60.57,48.36L57.06,52.17L57.06,52.14Z" fill="#E8E6E1"/><path d="M57.06,52.17L15.66,16.5C11.34,12.78,11.25,5.88,11.25,5.88L60.57,48.36Z" fill="#B3ACA8"/><path d="M53.31,57.81C52.56,57.18,52.41,56.07,52.95,55.26C53.82,53.97,54.81,52.59,55.89,51.15C55.89,51.15,59.73,46.14,62.67,43.35C63.9,42.06,65.13,40.89,66.3,39.84C67.02,39.18,68.13,39.18,68.88,39.81C69.63,40.44,71.13,42,70.74,42.54L56.28,59.25C55.8,59.73,54.06,58.44,53.31,57.81Z" fill="#807B76"/><path d="M70.47,63.3C72.51,65.04,75.57,64.83,77.34,62.79C79.11,60.75,78.87,57.69,76.83,55.92C75.75,54.99,73.08,54.75,73.08,54.75L68.76,59.79L68.73,59.76C68.73,59.76,69.36,62.34,70.47,63.3Z" fill="#807B76"/><path d="M68.79,59.7L73.11,54.66L66.36,47.61L60.78,54.03Z" fill="#4A4743"/><path d="M77.7,60.18C75.33,60.87,72.69,60.39,70.65,58.74L73.14,55.83C74.28,55.56,75.51,55.77,76.44,56.58L76.47,56.58C77.55,57.51,77.97,58.89,77.7,60.18Z" fill="#D1CCC5"/><path d="M69.21,50.61L66.36,47.64L60.81,54.03L60.78,54.03C60.78,54.03,62.82,51.9,69.21,50.61Z" fill="#383532"/><path d="M50.01,28.95L50.01,30.3L51.57,30.3L51.57,28.95Z" fill="#B3ACA8"/><path d="M38.07,28.95L38.07,30.3L39.63,30.3L39.63,28.95Z" fill="#B3ACA8"/><path d="M32.22,67.47L29.7,70.26L29.7,67.47L27.15,67.47L27.15,75.15L29.7,75.15L29.7,73.26L30.27,72.6L32.19,75.15L35.19,75.15L31.98,70.86L35.04,67.47Z" fill="#F7C631"/><path d="M35.76,67.47L35.76,75.15L38.34,75.15L38.34,67.47Z" fill="#F7C631"/><path d="M41.73,67.47L39.6,67.47L39.6,75.15L42.12,75.15L42.12,71.67L45.03,75.15L47.16,75.15L47.16,67.47L44.64,67.47L44.64,70.98Z" fill="#F7C631"/><path d="M54.06,70.23L55.71,68.76C54.93,67.8,53.73,67.29,52.2,67.29C49.68,67.29,47.85,68.94,47.85,71.31C47.85,73.68,49.65,75.33,52.14,75.33C53.28,75.33,54.54,75,55.47,74.34L55.47,71.1L53.22,71.1L53.22,73.05C52.89,73.17,52.59,73.23,52.29,73.23C51.18,73.23,50.46,72.45,50.46,71.31C50.46,70.17,51.18,69.39,52.32,69.39L52.35,69.39C53.04,69.39,53.58,69.66,54.06,70.23Z" fill="#F7C631"/><path d="M59.79,69.27C60.45,69.27,61.17,69.45,61.92,69.84L62.7,67.98C61.89,67.53,60.84,67.32,59.82,67.32C57.45,67.32,56.25,68.49,56.25,69.9C56.25,72.75,60.48,71.97,60.48,72.96C60.48,73.23,60.21,73.38,59.49,73.38C58.65,73.38,57.69,73.11,56.97,72.69L56.13,74.58C56.91,75.06,58.2,75.36,59.46,75.36C61.83,75.36,63.03,74.19,63.03,72.78C63.03,69.96,58.8,70.71,58.8,69.81L58.8,69.75C58.8,69.48,59.04,69.27,59.79,69.27Z" fill="#F7C631"/><path d="M60.84,45.24C60,43.14,58.71,41.34,57,40.05C54.75,38.34,53.28,36.69,52.35,35.22C52.02,34.71,51.75,34.2,51.54,33.72C50.82,32.1,50.67,30.72,50.64,29.64L53.82,29.64C54.39,29.64,54.9,29.34,55.17,28.83C55.86,27.51,56.19,26.31,56.19,24.93C56.19,24.42,55.92,23.94,55.5,23.64L52.35,21.57L44.88,27.99L37.44,21.6L34.32,23.64C33.9,23.91,33.63,24.42,33.63,24.93C33.63,26.31,33.93,27.51,34.65,28.83C34.92,29.34,35.43,29.64,36,29.64L39.18,29.64C39.18,29.64,39.18,29.76,39.18,29.82C39.15,30.87,38.97,32.19,38.31,33.66C38.07,34.17,37.8,34.71,37.44,35.25C36.48,36.72,35.04,38.34,32.79,40.05C31.11,41.34,29.76,43.14,28.92,45.27C28.86,45.42,28.8,45.54,28.77,45.69C28.77,45.72,28.77,45.75,28.74,45.81C28.74,45.9,28.68,45.99,28.65,46.05C28.53,46.44,28.41,46.86,28.32,47.28C28.05,48.48,27.9,49.77,27.9,51.12C27.9,51.81,28.29,53.16,30.99,54.12C32.43,54.66,34.38,55.05,36.84,55.29C36.84,55.26,36.81,55.23,36.78,55.2C35.91,53.91,34.92,52.53,33.84,51.09L44.85,41.61L55.86,51.09C54.78,52.5,53.79,53.88,52.92,55.2C52.92,55.23,52.89,55.26,52.86,55.29C55.35,55.05,57.33,54.63,58.77,54.12C61.47,53.13,61.86,51.81,61.86,51.12C61.86,49.77,61.71,48.48,61.41,47.25L61.47,47.28C61.29,46.59,61.08,45.9,60.84,45.24Z" fill="#D1CCC5"/><path d="M44.88,41.64L33.84,51.15Z" fill="#7A66F4"/><path d="M56.13,25.11L50.88,29.64L53.79,29.64C54.36,29.64,54.87,29.34,55.14,28.83C55.8,27.57,56.1,26.43,56.13,25.11Z" fill="#807B76"/><path d="M38.85,29.64L33.66,25.17C33.69,26.46,33.99,27.6,34.65,28.83C34.92,29.34,35.43,29.64,36,29.64Z" fill="#807B76"/><path d="M52.35,35.25C52.02,34.74,51.75,34.23,51.54,33.75C50.85,32.25,50.7,30.93,50.64,29.88L44.88,34.83L39.18,29.94C39.12,30.99,38.94,32.25,38.31,33.69C38.07,34.2,37.8,34.74,37.44,35.28L40.89,38.25L29.13,48.36L32.64,52.17L33.81,51.15L44.82,41.67L55.83,51.15L57,52.17L60.51,48.36L48.75,38.25L48.84,38.25Z" fill="#807B76"/><path d="M33.84,51.15C34.38,51.87,34.89,52.56,35.4,53.25C34.92,52.56,34.38,51.87,33.84,51.15Z" fill="#7A66F4"/><path d="M52.92,55.26C52.92,55.29,52.89,55.32,52.86,55.35L52.89,55.35C52.89,55.32,52.89,55.29,52.92,55.26Z" fill="#7A66F4"/><path d="M36.78,55.23C36.78,55.23,36.78,55.29,36.81,55.32L36.84,55.32C36.84,55.32,36.81,55.26,36.78,55.23Z" fill="#7A66F4"/><path d="M33.84,51.15C33.84,51.15,31.41,48,28.95,45.3C28.89,45.45,28.83,45.57,28.8,45.72C28.8,45.75,28.8,45.78,28.77,45.84C28.77,45.93,28.71,46.02,28.68,46.08C28.56,46.47,28.44,46.89,28.35,47.31C28.08,48.51,27.93,49.8,27.93,51.15C27.93,51.84,28.32,53.19,31.02,54.15C32.46,54.66,34.41,55.05,36.84,55.32C36.84,55.32,36.84,55.26,36.81,55.23C36.39,54.57,35.91,53.91,35.43,53.22L35.4,53.25C34.92,52.56,34.38,51.87,33.84,51.15Z" fill="#4A4743"/><path d="M60.84,45.27C58.35,47.97,55.92,51.15,55.92,51.15C54.84,52.56,53.85,53.94,52.98,55.26C52.98,55.26,52.98,55.32,52.95,55.35C55.44,55.11,57.39,54.69,58.83,54.18C61.53,53.19,61.92,51.87,61.92,51.18C61.92,49.83,61.77,48.54,61.47,47.31L61.47,47.28C61.29,46.59,61.08,45.9,60.84,45.27Z" fill="#4A4743"/><path d="M49.05,28.11L53.79,28.11C54.33,27.09,54.63,26.13,54.63,24.93L49.26,21.39C51.12,20.04,52.35,17.85,52.35,15.36C52.35,12.24,50.43,9.57,47.7,8.46C46.83,8.1,40.77,28.08,40.77,28.08C40.77,28.53,40.77,29.13,40.77,29.85C40.77,31.83,45.66,31.53,45.39,33.3C45,35.91,44.91,37.92,42.66,44.22C41.13,48.48,30.99,44.22,30.27,46.32C29.76,47.76,29.49,49.41,29.49,51.15C29.49,51.33,29.91,54.15,44.97,54.15C60.03,54.15,60.45,51.33,60.45,51.15C60.45,46.89,58.86,43.35,56.13,41.28L56.04,41.28C48.27,35.37,49.14,30.21,49.05,28.11Z" fill="#CF8D1B"/><path d="M46.65,33.66C47.22,30.63,42.6,30.09,40.71,29.79C40.62,32.37,39.9,36.6,33.72,41.28C32.07,42.54,30.81,44.37,30.09,46.56C31.74,47.37,33.99,47.85,37.41,47.85C39.6,47.85,43.68,48.12,44.61,43.95C45.45,40.14,46.2,36.09,46.65,33.66Z" fill="#F7C631"/><path d="M48.48,24.93L45.45,21.39C48.69,20.01,50.64,17.43,50.64,14.4C50.64,12,49.5,9.84,47.7,8.49C46.83,8.13,45.9,7.95,44.88,7.95C40.77,7.95,37.44,11.28,37.44,15.39C37.44,17.88,38.67,20.07,40.53,21.42L35.16,24.96C35.16,26.16,35.43,27.09,36,28.14L47.85,28.14L47.85,28.11C48.57,26.22,48.48,24.93,48.48,24.93Z" fill="#F7C631"/><path d="M40.5,14.88C38.61,14.67,40.44,8.85,44.46,9.48C48.75,10.14,42.48,15.12,40.5,14.88Z" fill="#FFFFC7"/><path d="M35.82,2.49L36.69,7.8L38.01,10.89L37.65,13.62C37.65,13.62,39.72,9.9,44.85,9.9C47.4,9.9,50.07,11.73,51.12,13.53C51.9,14.82,52.05,13.62,52.05,13.62L53.91,2.49L44.85,6.84L44.88,6.84Z" fill="#E3AA24"/><path d="M36.69,7.8L37.65,13.62C37.65,13.62,39.72,9.09,44.85,9.09C49.98,9.09,52.05,13.62,52.05,13.62L53.01,7.8L44.82,0L44.88,0Z" fill="#FCE26A"/><path d="M44.46,9.09C44.28,8.97,44.04,8.88,43.68,8.82C42.36,8.61,41.37,9.33,40.77,10.23C41.73,9.63,42.96,9.18,44.46,9.09Z" fill="#FFF599"/><path d="M44.88,0L53.07,7.8L52.11,13.62C52.11,13.62,50.04,9.09,44.91,9.09" fill="none" stroke="#FAD541" stroke-width="2" stroke-linecap="round" stroke-linejoin="round"/><path d="M45.27,7.65L44.52,7.65L44.52,7.08C43.98,7.05,43.47,6.9,43.14,6.72L43.56,5.79C43.92,6,44.37,6.12,44.79,6.12C45.15,6.12,45.27,6.06,45.27,5.91C45.27,5.43,43.2,5.82,43.2,4.41C43.2,3.81,43.65,3.3,44.52,3.18L44.52,2.61L45.27,2.61L45.27,3.18C45.66,3.21,46.05,3.33,46.35,3.48L45.96,4.38C45.6,4.2,45.24,4.11,44.91,4.11C44.55,4.11,44.43,4.23,44.43,4.35C44.43,4.8,46.5,4.41,46.5,5.79C46.5,6.36,46.08,6.87,45.24,7.02L45.27,7.05Z" fill="#B37314"/></svg>