<svg xmlns="http://www.w3.org/2000/svg" viewBox="0 0 90 90"><path d="M13,7.5L77,7.5C81.42,7.5,85,11.08,85,15.5L85,79.5C85,83.92,81.42,87.5,77,87.5L13,87.5C8.58,87.5,5,83.92,5,79.5L5,15.5C5,11.08,8.58,7.5,13,7.5Z" fill="currentColor"/><path d="M13,5L77,5C81.42,5,85,8.58,85,13L85,77C85,81.42,81.42,85,77,85L13,85C8.58,85,5,81.42,5,77L5,13C5,8.58,8.58,5,13,5Z" fill="currentColor"/><path d="M5,55L5,13C5,8.58,8.58,5,13,5L55,5Z" fill="currentColor"/><path d="M5,13C5,8.58,8.58,5,13,5L55,5L16.86,6.5C12.05,6.68,8.06,10.27,7.36,15.03L5,31Z" fill="currentColor"/><path d="M85,55L85,77C85,81.42,81.42,85,77,85L55,85Z" fill="currentColor"/><path d="M85,77C85,81.42,81.42,85,77,85L60,85L73.54,83.85C78.16,83.46,81.91,79.94,82.59,75.35L85,59Z" fill="currentColor"/><path d="M14,12L76,12C77.1,12,78,12.9,78,14L78,76C78,77.1,77.1,78,76,78L14,78C12.9,78,12,77.1,12,76L12,14C12,12.9,12.9,12,14,12Z" fill="currentColor"/><path d="M60,15L15,60L15,15Z" fill="currentColor"/><path d="M43.29,19.32L37.5,37.15L18.75,37.15C16.57,37.15,15.66,39.94,17.42,41.22L32.6,52.25L26.8,70.08C26.13,72.16,28.5,73.88,30.26,72.6L45.43,61.58L60.61,72.6C62.37,73.88,64.74,72.16,64.07,70.08L58.27,52.25L73.45,41.22C75.21,39.94,74.3,37.15,72.12,37.15L53.37,37.15L47.57,19.32C46.9,17.25,43.97,17.25,43.29,19.32Z" fill="currentColor"/><path d="M47.34,17.78L53.19,35.79L72.12,35.79C74.06,35.79,74.87,38.26,73.3,39.4L57.98,50.53L63.83,68.54C64.43,70.39,62.32,71.92,60.75,70.78L45.43,59.65L30.12,70.78C28.55,71.92,26.44,70.39,27.04,68.54L32.89,50.53L17.57,39.4C16,38.26,16.81,35.79,18.75,35.79L37.68,35.79L43.53,17.78C44.13,15.93,46.74,15.93,47.34,17.78Z" fill="currentColor"/><path d="M27.04,68.62L32.89,50.61L17.57,39.48C16,38.34,16.81,35.86,18.74,35.86L37.68,35.86L43.53,17.85C44.13,16.01,46.74,16.01,47.34,17.85L53.19,35.86L62.14,35.86L27.44,70.56C27,70.07,26.79,69.37,27.04,68.62Z" fill="currentColor"/></svg>