<svg xmlns="http://www.w3.org/2000/svg" viewBox="0 0 90 90"><path d="M10,60L10,75C10,79.42,13.58,83,18,83L72,83C76.42,83,80,79.42,80,75L80,47Z" fill="currentColor"/><path d="M10,45L10,72C10,76.42,13.58,80,18,80L72,80C76.42,80,80,76.42,80,72L80,45Z" fill="currentColor"/><path d="M80,72C80,76.42,76.42,80,72,80L49,80L70.72,77.92C74.54,77.56,77.56,74.54,77.92,70.72L80,49Z" fill="currentColor"/><path d="M80,18C80,13.58,76.42,10,72,10L18,10C13.58,10,10,13.58,10,18L10,38L18,38L18,18L72,18L72,38L80,38Z" fill="currentColor"/><path d="M10,18C10,13.58,13.58,10,18,10L60,10L19.36,11.03C15.3,11.14,11.96,14.27,11.6,18.31L10,36Z" fill="currentColor"/><path d="M85,43L5,43C2.24,43,0,45.24,0,48C0,50.76,2.24,53,5,53L85,53C87.76,53,90,50.76,90,48C90,45.24,87.76,43,85,43Z" fill="currentColor"/><path d="M5,43C2.24,43,0,45.24,0,48C2.64,45.79,5.95,44.54,9.4,44.46L76.86,43Z" fill="currentColor"/></svg>