<svg xmlns="http://www.w3.org/2000/svg" viewBox="0 0 90 90"><path d="M33.27,78.66C35.29,76.68,31.82,71.16,30.44,69.56C30.44,69.56,25.22,63.57,21.32,60.28C19.77,58.85,14.33,55.26,12.31,57.25C11.43,58.11,9.66,60.17,10.2,60.83L29.66,80.7L29.65,80.7C30.3,81.25,32.39,79.52,33.27,78.66Z" fill="currentColor"/><path d="M12.21,86.92C9.79,89.29,5.92,89.25,3.57,86.82C1.2,84.4,1.25,80.52,3.66,78.16C4.94,76.9,8.26,76.37,8.26,76.37L14.09,82.35L14.09,82.35C14.09,82.35,13.5,85.66,12.21,86.92Z" fill="currentColor"/><path d="M14,82.28L8.18,76.3L16.1,66.9L23.59,74.51Z" fill="currentColor"/><path d="M12.76,70.86L16.1,66.9L23.59,74.51C23.59,74.51,20.86,72,12.76,70.86Z" fill="currentColor"/><path d="M80.34,23.7C86.14,18,85.64,8.18,85.64,8.18C85.64,8.18,75.85,7.46,70.05,13.15L29.27,52.27L34.26,57.68L39.59,62.77Z" fill="currentColor"/><path d="M85.64,8.18L72.99,20.36L71.79,18.6C70.92,17.32,69.44,16.61,67.9,16.75L66.15,16.9L70.05,13.15C75.86,7.46,85.64,8.18,85.64,8.18Z" fill="currentColor"/><path d="M56.73,78.66C54.71,76.68,58.18,71.16,59.56,69.56C59.56,69.56,64.78,63.57,68.68,60.28C70.24,58.85,75.67,55.26,77.69,57.25C78.57,58.11,80.34,60.17,79.8,60.83L60.34,80.7L60.35,80.7C59.7,81.25,57.61,79.52,56.73,78.66Z" fill="currentColor"/><path d="M77.79,86.92C80.21,89.29,84.08,89.25,86.43,86.82C88.8,84.4,88.76,80.52,86.34,78.16C85.06,76.9,81.74,76.37,81.74,76.37L75.92,82.35L75.91,82.35C75.91,82.35,76.5,85.66,77.79,86.92Z" fill="currentColor"/><path d="M76,82.28L81.82,76.3L73.9,66.9L66.41,74.51Z" fill="currentColor"/><path d="M77.24,70.86L73.9,66.9L66.41,74.51C66.41,74.51,69.14,72,77.24,70.86Z" fill="currentColor"/><path d="M9.67,23.7C3.86,18,4.36,8.18,4.36,8.18C4.36,8.18,14.15,7.46,19.95,13.15L60.73,52.27L55.74,57.68L50.41,62.77Z" fill="currentColor"/><path d="M4.36,8.18L17.01,20.36L18.21,18.6C19.08,17.32,20.56,16.61,22.1,16.75L23.85,16.9L19.95,13.15C14.15,7.46,4.36,8.18,4.36,8.18Z" fill="currentColor"/><path d="M43.51,5.23C35.48,11.71,27.56,15.98,17.31,16.53C16.03,16.6,15,17.63,15,18.9L15,43.44C15,61.66,30.01,74.75,43.82,83.28C44.55,83.73,45.46,83.72,46.19,83.27C59.99,74.71,75,61.68,75,43.44L75,18.96C75,17.67,73.93,16.63,72.63,16.58C62.42,16.21,54.47,11.68,46.5,5.23C45.63,4.53,44.38,4.53,43.51,5.23Z" fill="currentColor"/><path d="M46.45,5.19C50.67,8.61,54.88,11.49,59.43,13.5C59.47,13.52,59.52,13.54,59.56,13.56C59.76,13.65,59.96,13.74,60.17,13.82C60.27,13.87,60.37,13.91,60.48,13.95C60.65,14.02,60.82,14.09,60.99,14.16C61.11,14.2,61.22,14.25,61.34,14.29C61.52,14.36,61.69,14.43,61.87,14.49C62,14.54,62.12,14.58,62.24,14.62C62.41,14.68,62.57,14.74,62.74,14.79C62.85,14.83,62.97,14.87,63.08,14.9C63.69,15.1,64.3,15.28,64.92,15.44C65.09,15.49,65.25,15.53,65.42,15.58C65.68,15.64,65.95,15.7,66.21,15.76C66.23,15.77,66.24,15.77,66.25,15.77C66.53,15.83,66.81,15.89,67.09,15.95C67.11,15.95,67.13,15.96,67.15,15.96C67.71,16.07,68.27,16.16,68.84,16.25C68.88,16.25,68.91,16.26,68.95,16.26C69.22,16.3,69.49,16.33,69.77,16.37C69.8,16.37,69.83,16.37,69.86,16.38C70.15,16.41,70.44,16.44,70.73,16.47C70.74,16.47,70.75,16.47,70.75,16.47C71.05,16.49,71.36,16.52,71.66,16.54C71.67,16.54,71.68,16.54,71.68,16.54C71.96,16.56,72.25,16.57,72.53,16.58C72.56,16.58,72.6,16.58,72.63,16.58C73.92,16.63,74.99,17.66,75,18.95L75,43.43C75,44.31,74.96,45.16,74.9,46.01C74.89,46.08,74.88,46.15,74.88,46.22C74.84,46.71,74.78,47.2,74.72,47.69C74.64,48.31,74.54,48.92,74.43,49.52C74.33,50.01,74.23,50.49,74.12,50.97C73.66,52.9,73.03,54.76,72.27,56.55C72.07,57.02,71.86,57.48,71.64,57.93C71.39,58.46,71.13,58.98,70.85,59.49C65.41,69.66,55.45,77.54,46.07,83.34C45.73,83.52,45.37,83.61,45,83.61L45,4.7C45.51,4.7,46.02,4.86,46.45,5.19Z" fill="currentColor"/><path d="M55.7,30.84C55.7,36.57,49.97,37.56,49.94,40.87C49.92,43.55,52.78,45.59,55.17,45.67L74.92,45.67C73.76,62.75,59.42,75.07,46.19,83.27C45.46,83.72,44.55,83.73,43.82,83.28C30.58,75.1,16.24,62.74,15.08,45.67L34.62,45.67C37.11,45.67,40.41,43.78,40.34,40.87C40.27,37.63,34.3,36.6,34.3,30.84C34.3,25.25,40.91,22.65,45,22.65C49.09,22.65,55.7,25.25,55.7,30.84Z" fill="currentColor"/><path d="M43.82,83.28C30.58,75.1,16.24,62.74,15.08,45.67L34.62,45.67C37.11,45.67,40.41,43.78,40.34,40.87C40.31,39.49,39.21,38.51,37.96,37.4C36.27,35.89,34.3,34.15,34.3,30.84C34.3,25.28,40.84,22.67,44.94,22.65L45,22.65L45,83.61C44.59,83.61,44.18,83.5,43.82,83.28Z" fill="currentColor"/><path d="M46.19,83.27C45.99,83.4,45.77,83.49,45.54,83.54C56.96,73.95,70.72,63.72,74.88,46.23C73.45,63.01,59.27,75.16,46.19,83.27Z" fill="currentColor" opacity="0.5"/><path d="M19.37,18.34C18.2,18.45,17.21,19.32,17.08,20.49L15,39.26L15,18.9C15,17.63,16.03,16.6,17.31,16.53C27.56,15.98,35.48,11.71,43.51,5.23C43.75,5.04,44.02,4.9,44.29,4.81C36.5,13.58,26.59,17.67,19.37,18.34Z" fill="currentColor"/></svg>