<svg xmlns="http://www.w3.org/2000/svg" viewBox="0 0 90 90"><path d="M32.9,8.5C28.4,8.5,24.45,12.28,24.45,16.95C24.45,21.62,28.23,25.4,32.9,25.4C33.29,25.4,33.67,25.36,34.04,25.31L41.3,39.47L41.3,39.53L41.33,39.5L41.36,39.47L41.33,16.43L41.33,16.44C41.06,12.01,37.4,8.5,32.9,8.5Z" fill="#8B8987"/><path d="M57.1,8.5C61.77,8.5,65.55,12.28,65.55,16.95C65.55,21.62,61.77,25.4,57.1,25.4C56.71,25.4,56.33,25.36,55.96,25.31L48.7,39.47L48.7,39.53L48.67,39.5L48.64,39.47L48.67,16.43L48.67,16.44C48.94,12.01,52.6,8.5,57.1,8.5Z" fill="#8B8987"/><path d="M27.09,14.36C22.24,14.36,17.96,16.78,15.39,20.48L1.46,55C1.46,55,27.37,58.06,40,62.5L40,28.17C39.76,20.51,34.81,14.36,27.09,14.36Z" fill="#BEBDB9"/><path d="M36.29,18.32C34.42,16.47,31.93,15.36,28.83,15.36C24.23,15.36,20.17,17.79,17.73,21.5L5.63,52.73C5.69,52.74,22.24,56.87,34.51,60.85C21.1,57.32,1.46,55,1.46,55L15.39,20.48C17.96,16.78,22.24,14.36,27.09,14.36C30.91,14.36,34.06,15.87,36.29,18.32Z" fill="#DAD8D6"/><path d="M62.91,14.36C67.76,14.36,72.04,16.78,74.61,20.48L88.54,55C88.54,55,62.63,58.06,50,62.5L50,28.17C50.24,20.51,55.19,14.36,62.91,14.36Z" fill="#BEBDB9"/><path d="M53.71,18.32C55.58,16.47,58.08,15.36,61.17,15.36C65.77,15.36,69.83,17.79,72.27,21.5L84.37,52.73C84.31,52.74,67.76,56.87,55.49,60.85C68.9,57.32,88.54,55,88.54,55L74.61,20.48C72.04,16.78,67.76,14.36,62.91,14.36C59.09,14.36,55.94,15.87,53.71,18.32Z" fill="#DAD8D6"/><path d="M39.5,22.42L38.05,36.79C37.59,41.35,33.75,44.82,29.17,44.82L29.17,63.82L41,63.82L41,57.82C43.6,58.48,46.32,58.48,48.92,57.84L49,57.82L49,63.82L60.75,63.82L60.75,44.82C56.17,44.82,52.32,41.35,51.85,36.79L50.37,22.41C50.09,19.63,47.74,17.51,44.94,17.51C42.13,17.51,39.79,19.63,39.5,22.42Z" fill="#8B8987"/><path d="M48.85,48.36C48.85,46.21,47.1,44.46,44.95,44.46C42.8,44.46,41.05,46.21,41.05,48.36C41.05,50.51,42.8,52.26,44.95,52.26C47.1,52.26,48.85,50.51,48.85,48.36Z" fill="#1E2533"/><path d="M41,62.5C41,51.18,31.82,42,20.5,42C9.18,42,0,51.18,0,62.5C0,73.82,9.18,83,20.5,83C31.82,83,41,73.82,41,62.5Z" fill="#DAD8D6"/><path d="M41,62.5C41,62.83,40.99,63.15,40.98,63.48C40.47,52.61,31.49,43.95,20.5,43.95C9.5,43.95,0.53,52.61,0.02,63.49C0.01,63.16,0,62.83,0,62.5C0,51.18,9.18,42,20.5,42C31.82,42,41,51.18,41,62.5Z" fill="#DAD8D6"/><path d="M35.05,62.45C35.05,54.39,28.51,47.86,20.45,47.86C12.39,47.86,5.86,54.39,5.86,62.45C5.86,70.51,12.39,77.05,20.45,77.05C28.51,77.05,35.05,70.51,35.05,62.45Z" fill="#8B8987"/><path d="M35.05,62.45C35.05,65.49,34.12,68.31,32.53,70.65C30.19,72.24,27.37,73.17,24.33,73.17C16.27,73.17,9.74,66.63,9.74,58.57C9.74,55.53,10.66,52.71,12.25,50.37C14.59,48.79,17.41,47.86,20.45,47.86C28.51,47.86,35.05,54.39,35.05,62.45Z" fill="#008CD1"/><path d="M34.89,60.32C34.99,61.02,35.05,61.73,35.05,62.45C35.05,65.49,34.12,68.31,32.53,70.65C30.19,72.24,27.37,73.17,24.33,73.17C17.05,73.17,11.02,67.84,9.92,60.87C11.6,55.53,16.6,51.65,22.5,51.65C28.2,51.65,33.05,55.26,34.89,60.32Z" fill="#4DC3EA"/><path d="M23.36,71.23C27.9,71.23,31.96,69.15,34.63,65.9C34.21,67.62,33.49,69.23,32.53,70.65C30.19,72.24,27.37,73.17,24.33,73.17C18.24,73.17,13.02,69.44,10.84,64.14C13.39,68.39,18.04,71.23,23.36,71.23Z" fill="#83DEFC"/><path d="M49,62.5C49,51.18,58.18,42,69.5,42C80.82,42,90,51.18,90,62.5C90,73.82,80.82,83,69.5,83C58.18,83,49,73.82,49,62.5Z" fill="#DAD8D6"/><path d="M49,62.5C49,62.83,49.01,63.15,49.02,63.48C49.53,52.61,58.51,43.95,69.5,43.95C80.5,43.95,89.47,52.61,89.98,63.49C89.99,63.16,90,62.83,90,62.5C90,51.18,80.82,42,69.5,42C58.18,42,49,51.18,49,62.5Z" fill="#DAD8D6"/><path d="M54.95,62.45C54.95,54.39,61.49,47.86,69.55,47.86C77.61,47.86,84.14,54.39,84.14,62.45C84.14,70.51,77.61,77.05,69.55,77.05C61.49,77.05,54.95,70.51,54.95,62.45Z" fill="#8B8987"/><path d="M54.95,62.45C54.95,65.49,55.88,68.31,57.47,70.65C59.81,72.24,62.63,73.17,65.67,73.17C73.73,73.17,80.26,66.63,80.26,58.57C80.26,55.53,79.34,52.71,77.75,50.37C75.41,48.79,72.59,47.86,69.55,47.86C61.49,47.86,54.95,54.39,54.95,62.45Z" fill="#008CD1"/><path d="M55.11,60.32C55.01,61.02,54.95,61.73,54.95,62.45C54.95,65.49,55.88,68.31,57.47,70.65C59.81,72.24,62.63,73.17,65.67,73.17C72.95,73.17,78.98,67.84,80.08,60.87C78.4,55.53,73.4,51.65,67.5,51.65C61.8,51.65,56.95,55.26,55.11,60.32Z" fill="#4DC3EA"/><path d="M66.64,71.23C62.1,71.23,58.04,69.15,55.37,65.9C55.79,67.62,56.51,69.23,57.47,70.65C59.81,72.24,62.63,73.17,65.67,73.17C71.76,73.17,76.98,69.44,79.16,64.14C76.61,68.39,71.96,71.23,66.64,71.23Z" fill="#83DEFC"/></svg>