<svg xmlns="http://www.w3.org/2000/svg" viewBox="0 0 90 90"><path d="M13,5L45,5L45,85L13,85C8.58,85,5,81.42,5,77L5,13C5,8.58,8.58,5,13,5Z" fill="#305730"/><path d="M77,5L45,5L45,85L77,85C81.42,85,85,81.42,85,77L85,13C85,8.58,81.42,5,77,5Z" fill="#8B8987"/><path d="M5,13L5,43L45,43L45,81L77,81C81.42,81,85,77.42,85,73L85,43L45,43L45,5L13,5C8.58,5,5,8.58,5,13Z" fill="#E7E6E5"/><path d="M85,13L85,43L45,43L45,5L77,5C81.42,5,85,8.58,85,13Z" fill="#81B64C"/><path d="M5,43L5,73C5,77.42,8.58,81,13,81L45,81L45,43Z" fill="#81B64C"/><path d="M13,5L45,5L45,6.34L15.25,7.68C11.14,7.86,7.83,11.14,7.62,15.25L6.16,43L5,43L5,13C5,8.6,8.55,5.03,12.95,5C12.97,5,12.98,5,13,5Z" fill="#F8F8F8"/><path d="M45,5L45,6.34L75,5Z" fill="#B2E068"/><path d="M5,43L5,65L6.16,43Z" fill="#B2E068"/><path d="M82.71,71.13C82.39,75.08,79.22,78.2,75.27,78.46L45,80.5L45,81L77,81C81.42,81,85,77.42,85,73L85,43Z" fill="#F8F8F8"/><path d="M45,81L45,80.5L37.5,81Z" fill="#B2E068"/><path d="M49.22,42.73L79.22,42.66C79.22,53.71,72.5,62.63,64.22,62.63C55.94,62.63,49.22,53.77,49.22,42.73Z" fill="#BEBDB9"/><path d="M11,42.73L41,42.66C41,53.71,34.28,62.63,26,62.63C17.72,62.63,11,53.77,11,42.73Z" fill="#5D9948"/><path d="M50.53,36.07C49.49,35.46,47,35,45,35C43,35,40.51,35.46,39.47,36.07C37.03,31.08,31.93,27.64,26,27.64C17.72,27.64,11,34.35,11,42.64C11,50.93,17.72,57.64,26,57.64C34.28,57.64,41,50.99,41,42.71C41,42.51,40.98,42.01,40.97,42.01L41.01,42.01C41.04,41.01,43,40.06,45,40C47,39.94,48.97,41.01,49,42.01L49.04,42.01C49.04,42.01,49.01,42.51,49.01,42.71C49.01,50.99,55.73,57.63,64.01,57.63C72.29,57.63,79.01,50.94,79.01,42.66C79.01,34.38,72.29,27.65,64.01,27.65L64,27.64C58.08,27.64,52.97,31.08,50.53,36.07Z" fill="white"/><path d="M26.2,52.63C20.71,52.63,16.25,48.11,16.2,42.63L36.2,42.63C36.16,48.11,31.69,52.63,26.2,52.63Z" fill="#5D9948"/><path d="M26.2,32.63C20.71,32.63,16.25,37.15,16.2,42.63L36.2,42.63C36.16,37.15,31.69,32.63,26.2,32.63Z" fill="#DAD8D6"/><path d="M64.21,32.63C69.7,32.63,74.16,37.15,74.21,42.63L54.21,42.63C54.25,37.15,58.72,32.63,64.21,32.63Z" fill="#5D9948"/><path d="M64.21,52.63C69.7,52.63,74.16,48.11,74.21,42.63L54.21,42.63C54.25,48.11,58.72,52.63,64.21,52.63Z" fill="#DAD8D6"/><path d="M57.41,41.19C56.53,41.37,55.65,38.62,57.74,36.48C59.86,34.39,62.49,35.25,62.28,36.12C62.15,36.99,60.83,37.69,59.93,38.74C58.92,39.68,58.27,41.1,57.41,41.19Z" fill="#81B64C"/><path d="M19.41,41.19C18.53,41.37,17.65,38.62,19.74,36.48C21.86,34.39,24.49,35.25,24.28,36.12C24.15,36.99,22.83,37.69,21.93,38.74C20.92,39.68,20.27,41.1,19.41,41.19Z" fill="#E7E6E5"/></svg>