<svg xmlns="http://www.w3.org/2000/svg" viewBox="0 0 90 90"><path d="M13,29L35,29L35,87L13,87C8.58,87,5,83.42,5,79L5,37C5,32.58,8.58,29,13,29Z" fill="currentColor"/><path d="M57,29L35,29L35,87L57,87C61.42,87,65,83.42,65,79L65,37C65,32.58,61.42,29,57,29Z" fill="currentColor"/><path d="M13,27L35,27L35,55L5,55L5,35C5,30.58,8.58,27,13,27Z" fill="currentColor"/><path d="M57,83L35,83L35,55L65,55L65,75C65,79.42,61.42,83,57,83Z" fill="currentColor"/><path d="M57,27L35,27L35,55L65,55L65,35C65,30.58,61.42,27,57,27Z" fill="currentColor"/><path d="M13,83L35,83L35,55L5,55L5,75C5,79.42,8.58,83,13,83Z" fill="currentColor"/><path d="M5,55L5.87,55L6.6,38.11C6.83,32.92,11,28.76,16.19,28.55L35,27.8L35,27L13,27C8.58,27,5,30.58,5,35Z" fill="currentColor"/><path d="M55,27L35,27L35,27.8Z" fill="currentColor"/><path d="M5,75C5.6,67.52,5.8,61.18,5.93,55L5,55Z" fill="currentColor"/><path d="M65,75C65,79.42,61.42,83,57,83L35,83L54.16,81.29C58.93,80.86,62.73,77.11,63.22,72.35L65,55Z" fill="currentColor"/><path d="M65,64L65,75C65,79.42,61.42,83,57,83L41.75,83L35,83L35,64Z" fill="currentColor"/><path d="M19.15,64C16.86,64,15,65.86,15,68.15C15,70.07,15.72,71.92,17.03,73.32L26,83L35,83L35,64Z" fill="currentColor" opacity="0.5"/><path d="M23,18L45,18L45,76L23,76C18.58,76,15,72.42,15,68L15,26C15,21.58,18.58,18,23,18Z" fill="currentColor"/><path d="M67,18L45,18L45,76L67,76C71.42,76,75,72.42,75,68L75,26C75,21.58,71.42,18,67,18Z" fill="currentColor"/><path d="M23,16L45,16L45,44L15,44L15,24C15,19.58,18.58,16,23,16Z" fill="currentColor"/><path d="M67,72L45,72L45,44L75,44L75,64C75,68.42,71.42,72,67,72Z" fill="currentColor"/><path d="M67,16L45,16L45,44L75,44L75,24C75,19.58,71.42,16,67,16Z" fill="currentColor"/><path d="M23,72L45,72L45,44L15,44L15,64C15,68.42,18.58,72,23,72Z" fill="currentColor"/><path d="M15,44L15.87,44L16.6,27.11C16.83,21.92,21,17.76,26.19,17.55L45,16.8L45,16L23,16C18.58,16,15,19.58,15,24Z" fill="currentColor"/><path d="M65,16L45,16L45,16.8Z" fill="currentColor"/><path d="M15,64C15.6,56.52,15.79,50.18,15.93,44L15,44Z" fill="currentColor"/><path d="M75,64C75,68.42,71.42,72,67,72L45,72L64.16,70.29C68.93,69.86,72.73,66.11,73.22,61.35L75,44Z" fill="currentColor"/><path d="M75,53L75,64C75,68.42,71.42,72,67,72L51.75,72L45,72L45,53Z" fill="currentColor"/><path d="M29.15,53C26.86,53,25,54.86,25,57.15C25,59.07,25.72,60.92,27.03,62.32L36,72L45,72L45,53Z" fill="currentColor"/><path d="M33,7L55,7L55,65L33,65C28.58,65,25,61.42,25,57L25,15C25,10.58,28.58,7,33,7Z" fill="currentColor"/><path d="M77,7L55,7L55,65L77,65C81.42,65,85,61.42,85,57L85,15C85,10.58,81.42,7,77,7Z" fill="currentColor"/><path d="M33,5L55,5L55,33L25,33L25,13C25,8.58,28.58,5,33,5Z" fill="currentColor"/><path d="M77,61L55,61L55,33L85,33L85,53C85,57.42,81.42,61,77,61Z" fill="currentColor"/><path d="M77,5L55,5L55,33L85,33L85,13C85,8.58,81.42,5,77,5Z" fill="currentColor"/><path d="M33,61L55,61L55,33L25,33L25,53C25,57.42,28.58,61,33,61Z" fill="currentColor"/><path d="M25,33L25.87,33L26.6,16.11C26.83,10.92,31,6.76,36.19,6.55L55,5.8L55,5L33,5C28.58,5,25,8.58,25,13Z" fill="currentColor"/><path d="M75,5L55,5L55,5.8Z" fill="currentColor"/><path d="M25,53C25.6,45.52,25.8,39.18,25.93,33L25,33Z" fill="currentColor"/><path d="M85,53C85,57.42,81.42,61,77,61L55,61L74.16,59.29C78.93,58.86,82.73,55.11,83.22,50.35L85,33Z" fill="currentColor"/></svg>