<svg xmlns="http://www.w3.org/2000/svg" viewBox="0 0 90 90"><path d="M13,5L45,5L45,85L13,85C8.58,85,5,81.42,5,77L5,13C5,8.58,8.58,5,13,5Z" fill="#305730"/><path d="M77,5L45,5L45,85L77,85C81.42,85,85,81.42,85,77L85,13C85,8.58,81.42,5,77,5Z" fill="#8B8987"/><path d="M5,13L5,43L45,43L45,81L77,81C81.42,81,85,77.42,85,73L85,43L45,43L45,5L13,5C8.58,5,5,8.58,5,13Z" fill="#E7E6E5"/><path d="M85,13L85,43L45,43L45,5L77,5C81.42,5,85,8.58,85,13Z" fill="#81B64C"/><path d="M5,43L5,73C5,77.42,8.58,81,13,81L45,81L45,43Z" fill="#81B64C"/><path d="M13,5L45,5L45,6.34L15.25,7.68C11.14,7.86,7.83,11.14,7.62,15.25L6.16,43L5,43L5,13C5,8.6,8.55,5.03,12.95,5C12.97,5,12.98,5,13,5Z" fill="#F8F8F8"/><path d="M45,5L45,6.34L75,5Z" fill="#B2E068"/><path d="M5,43L5,65L6.16,43Z" fill="#B2E068"/><path d="M82.71,71.13C82.39,75.08,79.22,78.2,75.27,78.46L45,80.5L45,81L77,81C81.42,81,85,77.42,85,73L85,43Z" fill="#F8F8F8"/><path d="M45,81L45,80.5L37.5,81Z" fill="#B2E068"/><path d="M50,15.39C64,17.59,74.99,28.86,76.75,43L66.64,43C64.76,32.76,55.78,25,45,25L45,5L48,5C49.21,5.91,50,7.36,50,9Z" fill="#5D9948"/><path d="M13.25,43C13.25,43,13.25,43,13.25,43L5,43L5,53L13.56,53C16.06,66.19,26.67,76.52,40,78.61L40,81L45,81L45,69C32.85,69,23,59.15,23,47C23,45.63,23.12,44.3,23.36,43Z" fill="#5D9948"/><path d="M32.74,55C31.14,55,30.19,53.22,31.07,51.89L37,43L45,43L45,55Z" fill="#5D9948"/><path d="M45,43L45,32.61C45.63,32.61,46.27,32.9,46.66,33.5L53,43Z" fill="#5D9948"/><path d="M66.64,43C66.88,44.3,67,45.63,67,47C67,59.15,57.15,69,45,69L45,81L50,81L50,78.61C63.33,76.52,73.94,66.19,76.44,53L85,53C85,53,85,53,85,53L85,43C85,43,85,43,85,43L76.75,43C76.75,43,76.75,43,76.75,43Z" fill="#BEBDB9"/><path d="M40,9L40,15.39C26,17.59,15.01,28.86,13.25,43L23.36,43C25.24,32.76,34.22,25,45,25C45,25,45,25,45,25L45,5L42,5C40.79,5.91,40,7.36,40,9Z" fill="#BEBDB9"/><path d="M43.34,33.5L37,43L45,43L45,55L57.26,55C58.86,55,59.81,53.22,58.93,51.89L53,43L45,43L45,32.61C44.37,32.61,43.73,32.9,43.34,33.5Z" fill="#BEBDB9"/><path d="M50,5C50,2.24,47.76,0,45,0C42.24,0,40,2.24,40,5L40,11.39C26,13.58,15.01,24.86,13.25,39L5,39C2.24,39,0,41.24,0,44C0,46.76,2.24,49,5,49L13.56,49C16.06,62.19,26.67,72.52,40,74.61L40,81C40,83.76,42.24,86,45,86C47.76,86,50,83.76,50,81L50,74.61C63.33,72.52,73.94,62.19,76.44,49L85,49C87.76,49,90,46.76,90,44C90,41.24,87.76,39,85,39L76.75,39C74.99,24.86,64,13.58,50,11.39Z" fill="white"/><path d="M45,21C32.85,21,23,30.85,23,43C23,55.15,32.85,65,45,65C57.15,65,67,55.15,67,43C67,30.85,57.15,21,45,21Z" fill="white"/><path d="M32.74,51L57.26,51C58.86,51,59.81,49.22,58.93,47.89L46.66,29.5C45.87,28.31,44.13,28.31,43.34,29.5L31.07,47.89C30.19,49.22,31.14,51,32.74,51Z" fill="white"/></svg>