<svg xmlns="http://www.w3.org/2000/svg" viewBox="0 0 90 90"><path d="M13,5L25,5L25,85L13,85C8.58,85,5,81.42,5,77L5,13C5,8.58,8.58,5,13,5Z" fill="#305730"/><path d="M65,5L65,85L45,85L45,5Z" fill="#305730"/><path d="M77,5L65,5L65,85L77,85C81.42,85,85,81.42,85,77L85,13C85,8.58,81.42,5,77,5Z" fill="#BEBDB9"/><path d="M25,5L25,85L45,85L45,5Z" fill="#BEBDB9"/><path d="M25,5L25,24L45,24L45,5Z" fill="#312E2B"/><path d="M25,24L25,43L5,43L5,24Z" fill="#312E2B"/><path d="M65,24L65,43L45,43L45,24Z" fill="#312E2B"/><path d="M77,5C81.42,5,85,8.58,85,13L85,24L65,24L65,5Z" fill="#312E2B"/><path d="M13,5C8.58,5,5,8.58,5,13L5,24L25,24L25,5Z" fill="#4B4847"/><path d="M45,5L45,24L65,24L65,5Z" fill="#4B4847"/><path d="M65,24L65,43L85,43L85,24Z" fill="#4B4847"/><path d="M85,42.99L85,61.99L65,61.99L65,42.99Z" fill="#81B64C"/><path d="M25.01,43L25.01,62L45,62L45,80.99L65,80.99L65,61.99L45.01,61.99L45.01,43Z" fill="#81B64C"/><path d="M25,61.99L25,80.99L13,80.99C8.58,80.99,5,77.41,5,72.99L5,61.99Z" fill="#81B64C"/><path d="M25.01,24L25.01,43L45.01,43L45.01,24Z" fill="#E7E6E5"/><path d="M5,43L5,62L25,62L25,43Z" fill="#E7E6E5"/><path d="M45,61.99L45,43L65,43L65,62L45.01,62L45.01,80.99L25.01,80.99L25.01,61.99Z" fill="#E7E6E5"/><path d="M85,62L85,73C85,77.42,81.42,81,77,81L65,81L65,62Z" fill="#E7E6E5"/><path d="M45,5L25,5L25,7.24L45,6.34Z" fill="#4B4847"/><path d="M5,24L5,43L5.77,43L6.98,24Z" fill="#4B4847"/><path d="M65,5L45,5L45,6.34L65,5.45Z" fill="#666564"/><path d="M25,5L13,5C8.58,5,5,8.58,5,13L5,24L6.98,24L7.54,15.16C7.8,11.09,11.09,7.86,15.17,7.68L25,7.24Z" fill="#666564"/><path d="M5,43L5,55L5.77,43Z" fill="#666564"/><path d="M65.86,79.87C75.35,78.96,82.88,71.47,83.85,62L85,62L85,73C85,77.42,81.42,81,77,81L65,81L65,79.95Z" fill="#E7E6E5"/><path d="M83.87,61.86C83.86,61.9,83.86,61.95,83.85,61.99L85,61.99L85,50Z" fill="#B2E068"/><path d="M65,80.99L54.12,80.99L65,79.95Z" fill="#B2E068"/></svg>