<svg xmlns="http://www.w3.org/2000/svg" viewBox="0 0 90 90"><path d="M12,5L32.89,5C36.82,5,40,8.18,40,12.11L40,67.89C40,71.82,36.82,75,32.89,75L12,75C8.13,75,5,71.87,5,68L5,12C5,8.13,8.13,5,12,5Z" fill="#543426"/><path d="M68,5L47.11,5C43.18,5,40,8.18,40,12.11L40,67.89C40,71.82,43.18,75,47.11,75L68,75C71.87,75,75,71.87,75,68L75,12C75,8.13,71.87,5,68,5Z" fill="#E2B664"/><path d="M5,11.95L5,38L40,38L40,71L68,71C71.87,71,75,67.89,75,64.05L75,38L40,38L40,5L12,5C8.13,5,5,8.11,5,11.95Z" fill="#FBEBC1"/><path d="M75,11.95L75,38L40,38L40,5L68,5C71.87,5,75,8.11,75,11.95Z" fill="#9D6C3E"/><path d="M5,38L5,64.05C5,67.89,8.13,71,12,71L40,71L40,38Z" fill="#9D6C3E"/><path d="M12,5L40,5L40,6.17L13.97,7.32C10.37,7.48,7.48,10.33,7.29,13.9L6.01,38L5,38L5,11.95C5,8.13,8.11,5.02,11.95,5C11.97,5,11.98,5,12,5Z" fill="#FFFEF5"/><path d="M40,5L40,6.17L66.25,5Z" fill="#E2B664"/><path d="M5,38L5,57.11L6.01,38Z" fill="#E2B664"/><path d="M73,62.43C72.71,65.86,69.95,68.57,66.49,68.8L40,70.56L40,71L68,71C71.87,71,75,67.89,75,64.05L75,38Z" fill="#FFFEF5"/><path d="M40,71L40,70.56L33.44,71Z" fill="#E2B664"/><path d="M36.29,40.84L36.29,66.7L70.9,66.7L70.9,40.84Z" fill="#E2B664"/><path d="M62.68,57.55C62.68,53.6,59.26,50.4,55.03,50.4C50.81,50.4,47.38,53.6,47.38,57.55C47.38,61.5,50.81,64.7,55.03,64.7C59.26,64.7,62.68,61.5,62.68,57.55Z" fill="#FBEBC1"/><path d="M35.21,26.1L39.83,23.44C42.03,22.17,44.81,22.58,46.54,24.44L49.47,27.58C49.95,28.1,50.56,28.47,51.22,28.66L55.02,28.75L58.82,28.66C59.49,28.47,60.09,28.1,60.57,27.58L63.51,24.44C65.23,22.58,68.01,22.17,70.21,23.44L74.83,26.1C77.03,27.37,78.06,29.99,77.32,32.41L76.06,36.52C75.86,37.17,75.84,37.85,75.98,38.5L78.05,42.29L79.71,45.01C80.22,45.53,80.87,45.89,81.59,46.06L85.78,47.03C88.25,47.6,90,49.8,90,52.33L90,57.67C90,60.2,88.25,62.4,85.78,62.97L81.59,63.94C80.97,64.08,80.41,64.37,79.94,64.78L77.21,69.24L76.07,71.34C75.84,72.08,75.83,72.88,76.06,73.64L77.32,77.75C78.06,80.17,77.03,82.79,74.83,84.06L70.21,86.73C68.01,87.99,65.23,87.58,63.51,85.72L60.57,82.58C60.09,82.06,59.49,81.69,58.82,81.5L55.02,81.41L51.22,81.5C50.56,81.69,49.95,82.06,49.47,82.58L46.54,85.72C44.81,87.58,42.03,87.99,39.83,86.73L35.21,84.06C33.01,82.79,31.98,80.17,32.73,77.75L33.98,73.64C34.19,72.96,34.21,72.25,34.04,71.58L32.23,68.25L30.24,65C29.74,64.52,29.12,64.18,28.43,64.02L24.24,63.05C21.77,62.48,20.02,60.28,20.02,57.75L20.02,52.41C20.02,49.88,21.77,47.68,24.24,47.11L28.43,46.14C29.12,45.98,29.74,45.64,30.24,45.16L32.23,41.91L34.04,38.58C34.21,37.91,34.19,37.2,33.98,36.52L32.73,32.41C31.98,29.99,33.01,27.37,35.21,26.1Z" fill="#BEBDB9"/><path d="M63.59,55.08C63.59,50.35,59.76,46.52,55.03,46.52C50.31,46.52,46.48,50.35,46.48,55.08C46.48,59.8,50.31,63.63,55.03,63.63C59.76,63.63,63.59,59.8,63.59,55.08Z" fill="#BEBDB9"/><path d="M35.21,26.1C33.01,27.37,31.98,29.99,32.73,32.41L33.98,36.52C34.19,37.2,34.21,37.91,34.04,38.58L32.22,41.92L30.24,45.16C29.74,45.64,29.12,45.98,28.43,46.14L24.24,47.11C21.77,47.68,20.02,49.88,20.02,52.41L20.02,57.75C20.02,60.28,21.77,62.48,24.24,63.05L28.43,64.02C29.12,64.18,29.74,64.52,30.24,65L32.22,68.24L34.04,71.58C34.21,72.25,34.19,72.96,33.98,73.64L32.73,77.75C31.98,80.17,33.01,82.79,35.21,84.06L36.78,84.96C39.94,82.51,42.75,79.42,45.04,75.71C47.66,71.44,49.28,66.74,49.9,61.93C48.99,61.26,48.21,60.4,47.61,59.36C45.61,55.88,46.31,51.59,49.08,48.93C48.41,46.35,47.45,43.83,46.17,41.42L37.42,24.83Z" fill="#DAD8D6"/><path d="M90,58.23C89.8,60.56,88.11,62.52,85.8,63.05L82,63.93C83.34,58.12,83.35,52.05,82.04,46.24L85.8,47.11C88.11,47.64,89.8,49.6,90,51.93Z" fill="#DAD8D6"/><path d="M76.88,33.84L77.32,32.41C78.06,29.99,77.03,27.37,74.83,26.1L70.21,23.44C68.96,22.71,67.52,22.54,66.19,22.86C70.63,25.89,74.2,29.65,76.88,33.84Z" fill="#DAD8D6"/><path d="M77.32,77.75C78.06,80.17,77.03,82.79,74.83,84.06L70.21,86.73C68.9,87.48,67.39,87.64,66.02,87.25C70.52,84.21,74.13,80.44,76.85,76.22Z" fill="#DAD8D6"/><path d="M74.47,55.08C74.47,44.34,65.76,35.64,55.02,35.64C44.28,35.64,35.58,44.34,35.58,55.08C35.58,65.82,44.28,74.53,55.02,74.53C65.76,74.53,74.47,65.82,74.47,55.08Z" fill="#8B8987"/><path d="M65.91,55.08C65.91,49.07,61.04,44.19,55.02,44.19C49.01,44.19,44.13,49.07,44.13,55.08C44.13,61.1,49.01,65.97,55.02,65.97C61.04,65.97,65.91,61.1,65.91,55.08Z" fill="#8B8987"/><path d="M72.13,55.08C72.13,45.63,64.47,37.97,55.02,37.97C45.57,37.97,37.91,45.63,37.91,55.08C37.91,64.53,45.57,72.19,55.02,72.19C64.47,72.19,72.13,64.53,72.13,55.08Z" fill="#BEBDB9"/><path d="M65.91,55.08C65.91,49.07,61.03,44.19,55.02,44.19C49.01,44.19,44.13,49.07,44.13,55.08C44.13,61.09,49.01,65.97,55.02,65.97C61.03,65.97,65.91,61.09,65.91,55.08Z" fill="#BEBDB9"/><path d="M69.84,46.52C65.11,38.34,54.65,35.54,46.47,40.26C38.28,44.99,35.48,55.45,40.2,63.64C44.93,71.82,55.39,74.62,63.58,69.9C71.76,65.17,74.57,54.71,69.84,46.52Z" fill="#BEBDB9"/><path d="M65.91,55.08C65.91,49.07,61.04,44.19,55.02,44.19C49.01,44.19,44.13,49.07,44.13,55.08C44.13,61.09,49.01,65.97,55.02,65.97C61.04,65.97,65.91,61.09,65.91,55.08Z" fill="#BEBDB9"/><path d="M68.81,48.03C71.02,53.49,71.05,59.49,69.07,64.86C72.73,59.58,73.26,52.46,69.84,46.52C68.93,44.96,67.82,43.59,66.55,42.43Z" fill="#DAD8D6"/><path d="M64.45,49.64C61.44,44.43,54.78,42.64,49.58,45.65C44.37,48.66,42.58,55.32,45.59,60.52C48.6,65.73,55.26,67.52,60.47,64.51C65.67,61.5,67.46,54.84,64.45,49.64Z" fill="#4B4847"/><path d="M62.43,50.8C60.07,46.71,54.84,45.31,50.74,47.67C46.65,50.03,45.25,55.27,47.61,59.36C49.97,63.45,55.21,64.85,59.3,62.49C63.39,60.13,64.79,54.89,62.43,50.8Z" fill="#4B4847"/><path d="M60.47,64.51C65.67,61.5,67.46,54.84,64.45,49.64C63.18,47.43,61.25,45.84,59.05,44.96C59.4,45.98,59.68,47.01,59.89,48.04C60.9,48.74,61.78,49.67,62.43,50.8C64.79,54.89,63.39,60.13,59.3,62.49C58.83,62.76,58.34,62.99,57.84,63.16C57.36,64.11,56.82,65.02,56.21,65.91C57.67,65.75,59.11,65.29,60.47,64.51Z" fill="#666564"/><path d="M35.21,26.1L39.83,23.43C42.03,22.17,44.81,22.58,46.54,24.44L49.41,27.52C50.2,28.37,51.33,28.82,52.49,28.75L59.34,28.34L63.71,24.21C65.41,22.6,67.96,22.26,70.02,23.37L74.86,25.96C77.25,27.25,78.33,30.09,77.39,32.64L76.59,34.84L77.09,32.9C77.73,30.43,76.58,27.86,74.31,26.69L70.04,24.49C67.93,23.4,65.37,23.8,63.7,25.47L59.88,29.28L50.21,29.63L46.57,25.56C45.1,23.91,42.67,23.52,40.76,24.62L35.83,27.47C33.92,28.57,33.04,30.87,33.73,32.97L35.44,38.15L30.25,46.39L24.85,47.9C22.49,48.56,20.87,50.71,20.87,53.15L20.88,57.71C20.88,60.07,22.4,62.17,24.65,62.89L27.55,63.82L24.31,63.13C21.79,62.58,19.99,60.34,20.01,57.76L20.05,52.36C20.07,49.98,21.64,47.88,23.92,47.19L29.7,45.45L33.48,39.72C34.12,38.75,34.3,37.55,33.96,36.44L32.73,32.41C31.98,29.99,33.01,27.37,35.21,26.1Z" fill="white"/></svg>