<svg xmlns="http://www.w3.org/2000/svg" viewBox="0 0 90 90"><path d="M13,5L45,5L45,85L13,85C8.58,85,5,81.42,5,77L5,13C5,8.58,8.58,5,13,5Z" fill="#305730"/><path d="M77,5L45,5L45,85L77,85C81.42,85,85,81.42,85,77L85,13C85,8.58,81.42,5,77,5Z" fill="#8B8987"/><path d="M5,13L5,43L45,43L45,81L77,81C81.42,81,85,77.42,85,73L85,43L45,43L45,5L13,5C8.58,5,5,8.58,5,13Z" fill="#E7E6E5"/><path d="M85,13L85,43L45,43L45,5L77,5C81.42,5,85,8.58,85,13Z" fill="#81B64C"/><path d="M5,43L5,73C5,77.42,8.58,81,13,81L45,81L45,43Z" fill="#81B64C"/><path d="M13,5L45,5L45,6.34L15.25,7.68C11.14,7.86,7.83,11.14,7.62,15.25L6.16,43L5,43L5,13C5,8.6,8.55,5.03,12.95,5C12.97,5,12.98,5,13,5Z" fill="#F8F8F8"/><path d="M45,5L45,6.34L75,5Z" fill="#B2E068"/><path d="M5,43L5,65L6.16,43Z" fill="#B2E068"/><path d="M82.71,71.13C82.39,75.08,79.22,78.2,75.27,78.46L45,80.5L45,81L77,81C81.42,81,85,77.42,85,73L85,43Z" fill="#F8F8F8"/><path d="M45,81L45,80.5L37.5,81Z" fill="#B2E068"/><path d="M45,43L45,76C60.44,76,73,61.19,73,43Z" fill="#BEBDB9"/><path d="M45,43L45,76C29.56,76,17,61.19,17,43Z" fill="#5D9948"/><path d="M17,43C17,27.56,29.56,15,45,15C60.44,15,73,27.56,73,43C73,58.44,60.44,71,45,71C29.56,71,17,58.44,17,43Z" fill="white"/><path d="M21,43C21,29.77,31.77,19,45,19C58.23,19,69,29.77,69,43C69,56.23,58.23,67,45,67C31.77,67,21,56.23,21,43Z" fill="#F8F8F8"/><path d="M40.93,45.5L45,49.57L49.07,45.5L47.13,21.89L42.87,21.89Z" fill="#2E2C29"/><path d="M40.93,45.5L45,49.57L45,21.89L42.87,21.89Z" fill="#4B4847"/><path d="M40.93,45.5L44.99,49.57L49.06,45.5L44.99,41.44Z" fill="#4B4847"/></svg>