<svg xmlns="http://www.w3.org/2000/svg" viewBox="0 0 90 90"><path d="M13,25L57,25C61.42,25,65,28.58,65,33L65,77C65,81.42,61.42,85,57,85L13,85C8.58,85,5,81.42,5,77L5,33C5,28.58,8.58,25,13,25Z" fill="currentColor"/><path d="M13,25L57,25C61.42,25,65,28.58,65,33L65,73C65,77.42,61.42,81,57,81L13,81C8.58,81,5,77.42,5,73L5,33C5,28.58,8.58,25,13,25Z" fill="currentColor"/><path d="M5,33C5,28.58,8.58,25,13,25L45,25L13.59,25.97C9.4,26.1,6.01,29.45,5.85,33.65L5,55Z" fill="currentColor"/><path d="M65,73C65,77.42,61.42,81,57,81L15,81L56.12,79.65C60.32,79.51,63.69,76.15,63.85,71.95L65,41Z" fill="currentColor"/><path d="M15,71L15,63L55,63L55,71Z" fill="currentColor"/><path d="M15,57L15,49L27,49L27,57Z" fill="currentColor"/><path d="M15,43L15,35L30,35L30,43Z" fill="currentColor"/><path d="M25,25L25,53L35,53L35,25Z" fill="currentColor"/><path d="M65,53L65,73C65,77.42,61.42,81,57,81L44,81L35,71L35,53Z" fill="currentColor"/><path d="M30,53L29.16,53C26.86,53,25,54.86,25,57.16C25,59.07,25.72,60.92,27.01,62.32L35,71L35,58C35,55.24,32.76,53,30,53Z" fill="currentColor"/><path d="M55,63L55,71L35,71L35,63Z" fill="currentColor"/><path d="M33,7L55,7L55,65L33,65C28.58,65,25,61.42,25,57L25,15C25,10.58,28.58,7,33,7Z" fill="currentColor"/><path d="M77,7L55,7L55,65L77,65C81.42,65,85,61.42,85,57L85,15C85,10.58,81.42,7,77,7Z" fill="currentColor"/><path d="M33,5L55,5L55,33L25,33L25,13C25,8.58,28.58,5,33,5Z" fill="currentColor"/><path d="M77,61L55,61L55,33L85,33L85,53C85,57.42,81.42,61,77,61Z" fill="currentColor"/><path d="M77,5L55,5L55,33L85,33L85,13C85,8.58,81.42,5,77,5Z" fill="currentColor"/><path d="M33,61L55,61L55,33L25,33L25,53C25,57.42,28.58,61,33,61Z" fill="currentColor"/><path d="M25,33L25.87,33L26.6,16.11C26.83,10.92,31,6.76,36.19,6.55L55,5.8L55,5L33,5C28.58,5,25,8.58,25,13Z" fill="currentColor"/><path d="M75,5L55,5L55,5.8Z" fill="currentColor"/><path d="M25,53C25.6,45.52,25.8,39.18,25.93,33L25,33Z" fill="currentColor"/><path d="M85,53C85,57.42,81.42,61,77,61L55,61L74.16,59.29C78.93,58.86,82.73,55.11,83.22,50.35L85,33Z" fill="currentColor"/></svg>