<svg xmlns="http://www.w3.org/2000/svg" viewBox="0 0 90 90"><path d="M13,5L45,5L45,85L13,85C8.58,85,5,81.42,5,77L5,13C5,8.58,8.58,5,13,5Z" fill="#072A4F"/><path d="M77,5L45,5L45,85L77,85C81.42,85,85,81.42,85,77L85,13C85,8.58,81.42,5,77,5Z" fill="#0B548C"/><path d="M5,13L5,43L45,43L45,81L77,81C81.42,81,85,77.42,85,73L85,43L45,43L45,5L13,5C8.58,5,5,8.58,5,13Z" fill="#008CD1"/><path d="M85,13L85,43L45,43L45,5L77,5C81.42,5,85,8.58,85,13Z" fill="#0B548C"/><path d="M5,43L5,73C5,77.42,8.58,81,13,81L45,81L45,43Z" fill="#0B548C"/><path d="M13,5L45,5L45,6.34L15.25,7.68C11.14,7.86,7.83,11.14,7.62,15.25L6.16,43L5,43L5,13C5,8.6,8.55,5.03,12.95,5C12.97,5,12.98,5,13,5Z" fill="#009FD9"/><path d="M45,5L45,6.34L75,5Z" fill="#0B548C"/><path d="M5,43L5,65L6.16,43Z" fill="#0B548C"/><path d="M82.71,71.13C82.39,75.08,79.22,78.2,75.27,78.46L45,80.5L45,81L77,81C81.42,81,85,77.42,85,73L85,43Z" fill="#009FD9"/><path d="M45,81L45,80.5L37.5,81Z" fill="#0B548C"/><path d="M71.2,60.43C72.28,61.23,72.94,62.48,73,63.82C73.06,65.16,72.52,66.46,71.52,67.36L56.42,81L45,81L45,43L59.8,43L53.82,47.37Z" fill="#0B548C"/><path d="M61.43,64.34L50.45,56.09L50.45,74.27Z" fill="#0B548C"/><path d="M33.01,43L19,32.48L24.4,25.29L41.45,38.08L41.45,11.6C41.45,9.84,42.47,8.24,44.07,7.51C44.37,7.37,44.68,7.27,45,7.2L45,43Z" fill="#0B548C"/><path d="M48.89,8.19L71.44,27.65C72.48,28.55,73.05,29.87,73,31.24C72.94,32.61,72.27,33.88,71.16,34.69L59.8,43L45,43L45,81L41.45,81L41.45,56.42L24.36,68.92L19.05,61.65L38.7,47.28L33.01,43L45,43L45,7.2C46.36,6.91,47.8,7.26,48.89,8.19Z" fill="#072A4F"/><path d="M61.28,30.77L50.45,21.43L50.45,38.69Z" fill="#072A4F"/><path d="M48.89,2.19L71.44,21.65C72.48,22.55,73.05,23.87,73,25.24C72.94,26.61,72.27,27.88,71.16,28.69L53.82,41.37L71.2,54.43C72.28,55.23,72.94,56.48,73,57.82C73.06,59.16,72.52,60.46,71.52,61.36L48.96,81.74C47.64,82.93,45.74,83.23,44.12,82.51C42.49,81.79,41.45,80.18,41.45,78.4L41.45,50.42L24.36,62.92L19.05,55.65L38.7,41.28L19,26.48L24.4,19.29L41.45,32.08L41.45,5.6C41.45,3.84,42.47,2.24,44.07,1.51C45.67,0.78,47.55,1.04,48.89,2.19Z" fill="white"/><path d="M61.43,58.35L50.45,50.09L50.45,68.27Z" fill="white"/><path d="M61.28,24.77L50.45,15.43L50.45,32.69Z" fill="white"/></svg>