<svg xmlns="http://www.w3.org/2000/svg" viewBox="0 0 90 90"><path d="M13,5L25,5L25,85L13,85C8.58,85,5,81.42,5,77L5,13C5,8.58,8.58,5,13,5Z" fill="currentColor"/><path d="M65,5L65,85L45,85L45,5Z" fill="currentColor"/><path d="M77,5L65,5L65,85L77,85C81.42,85,85,81.42,85,77L85,13C85,8.58,81.42,5,77,5Z" fill="currentColor"/><path d="M25,5L25,85L45,85L45,5Z" fill="currentColor"/><path d="M13,5C8.58,5,5,8.58,5,13L5,73C5,77.42,8.58,81,13,81L77,81C81.42,81,85,77.42,85,73L85,13C85,8.58,81.42,5,77,5Z" fill="currentColor"/><path d="M5,13L5,24L25,24L25,43L5,43L5,62L25,62L25,81L45,81L45,62L65,62L65,81L77,81C81.42,81,85,77.42,85,73L85,62L65,62L65,43L85,43L85,24L65,24L65,5L45,5L45,24L25,24L25,5L13,5C8.58,5,5,8.58,5,13Z" fill="currentColor"/><path d="M45,62L25,62L25,43L45,43Z" fill="currentColor"/><path d="M45,24L65,24L65,43L45,43Z" fill="currentColor"/><path d="M45,5L45,24L25,24L25,5Z" fill="currentColor"/><path d="M5,43L5,24L25,24L25,43Z" fill="currentColor"/><path d="M25,43L25,62L5,62L5,73C5,77.42,8.58,81,13,81L25,81L25,62L45,62L45,81L65,81L65,62L85,62L85,43L65,43L65,24L85,24L85,13C85,8.58,81.42,5,77,5L65,5L65,24L45,24L45,43Z" fill="currentColor"/><path d="M65,43L65,62L45,62L45,43Z" fill="currentColor"/><path d="M13,5L25,5L25,7.11L15.17,7.62C11.09,7.84,7.83,11.09,7.6,15.17L7.11,24L5,24L5,13C5,8.86,8.15,5.45,12.18,5.04C12.45,5.01,12.72,5,13,5Z" fill="currentColor"/><path d="M5,62L6.06,43L5,43Z" fill="currentColor"/><path d="M45,5L65,5L45,6.05Z" fill="currentColor"/><path d="M45,81L25,81L45,79.95Z" fill="currentColor"/><path d="M65,81L77,81C81.42,81,85,77.42,85,73L85,62L82.89,62L82.4,70.83C82.17,74.91,78.91,78.16,74.83,78.38L65,78.89Z" fill="currentColor"/><path d="M85,43L85,24L83.94,43Z" fill="currentColor"/><path d="M45,5L25,5L25,7.11L45,6.05Z" fill="currentColor"/><path d="M5,24L5,43L6.06,43L7.11,24Z" fill="currentColor"/><path d="M65,81L65,78.89L45,79.95L45,81Z" fill="currentColor"/><path d="M85,62L85,43L83.94,43L82.89,62Z" fill="currentColor"/><path d="M27.34,65.9C25.52,68.9,25.95,70.72,28.95,72.54C33.76,75.21,39.22,76.71,45,76.71C63.52,76.71,78.71,61.51,78.71,43L69.08,43C69.08,56.27,58.27,67.08,45,67.08C41.15,67.08,37.51,66.12,33.87,64.51C30.77,62.91,28.95,63.33,27.13,66.33Z" fill="currentColor"/><path d="M58.38,39.25C56.56,41.61,57.31,43,60.2,43L87.17,43C90.16,43,90.81,41.61,88.99,39.25L76.57,23.09C74.43,20.31,72.93,20.31,70.79,23.09Z" fill="currentColor"/><path d="M31.62,46.75C33.44,44.39,32.69,43,29.8,43L2.83,43C-0.16,43,-0.81,44.39,1.01,46.75L13.43,62.91C15.57,65.69,17.07,65.69,19.21,62.91Z" fill="currentColor"/><path d="M62.66,20.1C64.48,17.1,64.05,15.28,61.05,13.46C56.24,10.79,50.78,9.29,45,9.29C26.49,9.29,11.29,24.49,11.29,43L20.92,43C20.92,29.73,31.73,18.92,45,18.92C48.85,18.92,52.49,19.88,56.13,21.49C59.23,23.09,61.05,22.67,62.87,19.67Z" fill="currentColor"/></svg>