<svg xmlns="http://www.w3.org/2000/svg" viewBox="0 0 90 90"><path d="M13,5L45,5L45,85L13,85C8.58,85,5,81.42,5,77L5,13C5,8.58,8.58,5,13,5Z" fill="#305730"/><path d="M77,5L45,5L45,85L77,85C81.42,85,85,81.42,85,77L85,13C85,8.58,81.42,5,77,5Z" fill="#8B8987"/><path d="M5,13L5,43L45,43L45,81L77,81C81.42,81,85,77.42,85,73L85,43L45,43L45,5L13,5C8.58,5,5,8.58,5,13Z" fill="#E7E6E5"/><path d="M85,13L85,43L45,43L45,5L77,5C81.42,5,85,8.58,85,13Z" fill="#81B64C"/><path d="M5,43L5,73C5,77.42,8.58,81,13,81L45,81L45,43Z" fill="#81B64C"/><path d="M13,5L45,5L45,6.34L15.25,7.68C11.14,7.86,7.83,11.14,7.62,15.25L6.16,43L5,43L5,13C5,8.6,8.55,5.03,12.95,5C12.97,5,12.98,5,13,5Z" fill="#F8F8F8"/><path d="M45,5L45,6.34L75,5Z" fill="#B2E068"/><path d="M5,43L5,65L6.16,43Z" fill="#B2E068"/><path d="M82.71,71.13C82.39,75.08,79.22,78.2,75.27,78.46L45,80.5L45,81L77,81C81.42,81,85,77.42,85,73L85,43Z" fill="#F8F8F8"/><path d="M45,81L45,80.5L37.5,81Z" fill="#B2E068"/><path d="M77.47,40.26C78.8,39.27,79.08,37.4,78.11,36.07L71.32,26.81L51.92,43L73.74,43Z" fill="#45753C"/><path d="M45,64.18L34.38,72L17.15,72L45,48.77Z" fill="#45753C"/><path d="M45,48.77L45,64.18L73.74,43L51.92,43Z" fill="#BEBDB9"/><path d="M20.51,55.97L17,72L33.03,68.49L26.77,62.23Z" fill="#FADAAE"/><path d="M17,72L33.03,68.49L26.77,62.23Z" fill="#E3C29C"/><path d="M20.51,55.98L33.03,68.5L70.81,30.71L58.29,18.19Z" fill="#F7C631"/><path d="M26.77,62.23L33.03,68.49L70.81,30.7L64.55,24.45Z" fill="#CF8D1B"/><path d="M77.24,24.29C77.42,24.11,77.56,23.92,77.67,23.72C77.89,23.32,78,22.9,78,22.45C78,22.11,77.93,21.74,77.79,21.41C77.74,21.31,77.69,21.22,77.63,21.12C77.52,20.93,77.39,20.76,77.22,20.59C76.47,19.84,69.11,12.48,68.4,11.77C68.2,11.57,67.98,11.41,67.73,11.29C67.64,11.25,67.54,11.19,67.44,11.16C67.16,11.05,66.86,11.01,66.55,11C66.12,11,65.68,11.11,65.29,11.34C65.08,11.45,64.89,11.59,64.71,11.77C63.26,13.22,61.81,14.67,60.35,16.12C60.58,16.36,72.59,28.37,72.87,28.64L72.88,28.64C74.33,27.19,75.78,25.74,77.24,24.29Z" fill="#FF8A75"/><path d="M66.62,22.38C66.62,22.38,72.73,28.5,72.88,28.64C74.33,27.19,75.78,25.74,77.24,24.29C77.42,24.11,77.56,23.92,77.67,23.72C77.89,23.32,78,22.9,78,22.45C78,22.11,77.93,21.74,77.79,21.41C77.74,21.31,77.69,21.22,77.63,21.12C77.52,20.93,77.39,20.76,77.22,20.59C76.84,20.22,74.84,18.21,72.82,16.2" fill="none" stroke="#FF6352" stroke-width="2" stroke-linecap="round" stroke-linejoin="round"/><path d="M56.25,20.23L68.77,32.75L72.87,28.65L60.35,16.13Z" fill="white"/><path d="M62.5,26.5L68.76,32.75L72.87,28.64L66.61,22.39Z" fill="#E7E6E5"/></svg>