<svg xmlns="http://www.w3.org/2000/svg" viewBox="0 0 90 90"><path d="M13,5L45,5L45,85L13,85C8.58,85,5,81.42,5,77L5,13C5,8.58,8.58,5,13,5Z" fill="#305730"/><path d="M77,5L45,5L45,85L77,85C81.42,85,85,81.42,85,77L85,13C85,8.58,81.42,5,77,5Z" fill="#8B8987"/><path d="M5,13L5,43L45,43L45,81L77,81C81.42,81,85,77.42,85,73L85,43L45,43L45,5L13,5C8.58,5,5,8.58,5,13Z" fill="#E7E6E5"/><path d="M85,13L85,43L45,43L45,5L77,5C81.42,5,85,8.58,85,13Z" fill="#81B64C"/><path d="M5,43L5,73C5,77.42,8.58,81,13,81L45,81L45,43Z" fill="#81B64C"/><path d="M13,5L45,5L45,6.34L15.25,7.68C11.14,7.86,7.83,11.14,7.62,15.25L6.16,43L5,43L5,13C5,8.6,8.55,5.03,12.95,5C12.97,5,12.98,5,13,5Z" fill="#F8F8F8"/><path d="M45,5L45,6.34L75,5Z" fill="#B2E068"/><path d="M5,43L5,65L6.16,43Z" fill="#B2E068"/><path d="M82.71,71.13C82.39,75.08,79.22,78.2,75.27,78.46L45,80.5L45,81L77,81C81.42,81,85,77.42,85,73L85,43Z" fill="#F8F8F8"/><path d="M45,81L45,80.5L37.5,81Z" fill="#B2E068"/><path d="M57,34L57,40.21C57,41.86,58.88,42.8,60.2,41.81L74.98,30.7C76.04,29.9,76.04,28.31,74.98,27.51L60.2,16.4C58.88,15.41,57,16.35,57,18L57,24L45,24L45,34Z" fill="#5D9948"/><path d="M33,58L33,51.79C33,50.14,31.12,49.2,29.8,50.19L15.02,61.29C13.96,62.09,13.96,63.69,15.02,64.49L29.8,75.59C31.12,76.59,33,75.64,33,74L33,68L45,68L45,58Z" fill="#5D9948"/><path d="M5,24L45,24L45,34L5,34Z" fill="#BEBDB9"/><path d="M45,58L85,58C85,58,85,58,85,58L85,68C85,68,85,68,85,68L45,68Z" fill="#BEBDB9"/><path d="M74.98,26.7L60.2,37.81C58.88,38.8,57,37.86,57,36.21L57,30L5,30C2.24,30,0,27.76,0,25C0,22.24,2.24,20,5,20L57,20L57,14C57,12.35,58.88,11.41,60.2,12.4L74.98,23.51C76.04,24.31,76.04,25.9,74.98,26.7Z" fill="white"/><path d="M15.02,57.29L29.8,46.19C31.12,45.2,33,46.14,33,47.79L33,54L85,54C87.76,54,90,56.24,90,59C90,61.76,87.76,64,85,64L33,64L33,70C33,71.64,31.12,72.59,29.8,71.59L15.02,60.49C13.96,59.69,13.96,58.09,15.02,57.29Z" fill="white"/></svg>