<svg xmlns="http://www.w3.org/2000/svg" viewBox="0 0 90 90"><path d="M85.5,37L63.08,37C61.31,37,59.68,37.96,58.81,39.5C57.94,41.04,56.31,42,54.54,42L24.25,42C22.36,42,20.73,43.33,20.34,45.18L12,85L77.17,85C79.06,85,80.7,83.67,81.08,81.82L89.42,41.82C89.93,39.33,88.04,37,85.5,37Z" fill="currentColor"/><path d="M69.54,84.04L62.98,37C63.01,37,63.04,37,63.08,37L81,37L81,82.15C80.63,83.4,79.66,84.38,78.46,84.79Z" fill="currentColor"/><path d="M18,5C15.79,5,14,6.79,14,9L14,65C14,67.21,15.79,69,18,69L74,69C76.21,69,78,67.21,78,65L78,9C78,6.79,76.21,5,74,5Z" fill="currentColor"/><path d="M14,21L14,37L78,37L78,21Z" fill="currentColor"/><path d="M14,53L14,69L74,69C76.21,69,78,67.21,78,65L78,53Z" fill="currentColor"/><path d="M14,5C11.79,5,10,6.79,10,9L10,65C10,67.21,11.79,69,14,69L70,69C72.21,69,74,67.21,74,65L74,9C74,6.79,72.21,5,70,5Z" fill="currentColor"/><path d="M26,5L26,21L10,21L10,9C10,6.79,11.79,5,14,5Z" fill="currentColor"/><path d="M26,21L26,37L42,37L42,53L58,53L58,70L71,70C72.66,70,74,68.66,74,67L74,53L58,53L58,37L74,37L74,21L58,21L58,5L42,5L42,21Z" fill="currentColor"/><path d="M42,37L58,37L58,21L42,21Z" fill="currentColor"/><path d="M10,9C10,6.79,11.79,5,14,5L70,5L15.7,6.85C13.61,6.92,11.93,8.59,11.84,10.68L10,54.34Z" fill="currentColor"/><path d="M26,5L14,5C13.86,5,13.73,5.01,13.59,5.02C11.57,5.23,10,6.93,10,9L10,21L11.41,21L11.84,10.68C11.93,8.59,13.61,6.92,15.7,6.85L26,6.5Z" fill="currentColor"/><path d="M42,5.95L42,5L58,5L58,5.41Z" fill="currentColor"/><path d="M29.92,32C31.69,32,33.33,32.96,34.19,34.5C35.06,36.04,36.69,37,38.46,37L26,37L26,32Z" fill="currentColor"/><path d="M26,37L10,37L10,53L26,53Z" fill="currentColor"/><path d="M26,53L26,69L42,69L42,53Z" fill="currentColor"/><path d="M42,53L58,53L58,69L74,69L74,53L58,53L58,37L42,37Z" fill="currentColor"/><path d="M10,67.61L10,53L26,53L26,69L10.29,69Z" fill="currentColor"/><path d="M58,37L58,53L42,53L42,37L38.46,37L26,37L26,32L10,32L10,37L26,37L26,53L42,53L42,69L58,69L58,53L74,53L74,46.57L72.66,40.18C72.28,38.33,70.64,37,68.75,37Z" fill="currentColor"/><path d="M4.5,37L26.92,37C28.69,37,30.32,37.96,31.19,39.5C32.06,41.04,33.69,42,35.46,42L65.75,42C67.64,42,69.27,43.33,69.66,45.18L78,85L12.83,85C10.94,85,9.3,83.67,8.92,81.82L0.58,41.82C0.07,39.33,1.96,37,4.5,37Z" fill="currentColor"/><path d="M4.5,37L21,37L5.57,38.07C3.24,38.23,1.55,40.35,1.89,42.66L4.88,62.46L0.58,41.82C0.07,39.33,1.96,37,4.5,37Z" fill="currentColor"/></svg>