<svg xmlns="http://www.w3.org/2000/svg" viewBox="0 0 90 90"><path d="M13,5L45,5L45,85L13,85C8.58,85,5,81.42,5,77L5,13C5,8.58,8.58,5,13,5Z" fill="#1A1816"/><path d="M77,5L45,5L45,85L77,85C81.42,85,85,81.42,85,77L85,13C85,8.58,81.42,5,77,5Z" fill="#4B4847"/><path d="M5,13L5,43L45,43L45,81L77,81C81.42,81,85,77.42,85,73L85,43L45,43L45,5L13,5C8.58,5,5,8.58,5,13Z" fill="#4B4847"/><path d="M85,13L85,43L45,43L45,5L77,5C81.42,5,85,8.58,85,13Z" fill="#312E2B"/><path d="M5,43L5,73C5,77.42,8.58,81,13,81L45,81L45,43Z" fill="#312E2B"/><path d="M13,5L45,5L45,6.34L15.25,7.68C11.14,7.86,7.83,11.14,7.62,15.25L6.16,43L5,43L5,13C5,8.6,8.55,5.03,12.95,5C12.97,5,12.98,5,13,5Z" fill="#666564"/><path d="M45,5L45,6.34L75,5Z" fill="#4B4847"/><path d="M5,43L5,65L6.16,43Z" fill="#4B4847"/><path d="M82.71,71.13C82.39,75.08,79.22,78.2,75.27,78.46L45,80.5L45,81L77,81C81.42,81,85,77.42,85,73L85,43Z" fill="#666564"/><path d="M45,81L45,80.5L37.5,81Z" fill="#4B4847"/><path d="M5,43L5,25.69C8.34,22.77,12.71,21,17.5,21L39.5,21C41.41,21,43.26,21.28,45,21.81L45,32.88C43.48,31.7,41.57,31,39.5,31L17.5,31C12.53,31,8.5,35.03,8.5,40C8.5,41.05,8.68,42.06,9.01,43Z" fill="#312E2B"/><path d="M72.5,71L50.5,71C48.59,71,46.74,70.72,45,70.19L45,59.13C46.52,60.3,48.43,61,50.5,61L72.5,61C77.47,61,81.5,56.97,81.5,52C81.5,47.04,77.48,43.01,72.52,43L85,43L85,66.31C81.66,69.23,77.29,71,72.5,71Z" fill="#312E2B"/><path d="M47.99,43C47.4,44.65,46.36,46.08,45,47.12L45,58.19C51.88,56.11,57.12,50.24,58.26,43Z" fill="#312E2B"/><path d="M47.57,43.49C47.66,43.33,47.75,43.17,47.83,43L45,43L45,33.81C40.15,35.27,36.12,38.62,33.76,43L45,43L45,44.87C45.77,44.28,46.63,43.81,47.57,43.49Z" fill="#312E2B"/><path d="M72.5,33L57.47,33C58.14,34.88,58.5,36.9,58.5,39L58.5,43L85,43L85,37.69C81.66,34.77,77.29,33,72.5,33Z" fill="#262421"/><path d="M44.19,58.42C44.44,58.67,44.72,58.91,45,59.13L45,70.19C37.19,67.83,31.5,60.58,31.5,52C31.5,48.74,32.32,45.68,33.76,43L45,43L45,44.88C42.87,46.52,41.5,49.1,41.5,52C41.5,50.73,41.84,49.54,42.43,48.51C43.37,48.19,44.23,47.72,45,47.12L45,58.19C44.73,58.27,44.46,58.35,44.19,58.42Z" fill="#262421"/><path d="M58.5,40C58.5,31.42,52.81,24.17,45,21.81L45,32.88C45.28,33.1,45.55,33.33,45.81,33.58C45.54,33.65,45.27,33.73,45,33.81L45,43L47.83,43C48.26,42.09,48.5,41.07,48.5,40C48.5,41.05,48.32,42.06,47.99,43L58.26,43C58.42,42.02,58.5,41.02,58.5,40Z" fill="#262421"/><path d="M5,43L5,54.31C8.34,57.23,12.71,59,17.5,59L32.52,59C31.86,57.12,31.5,55.1,31.5,53L31.5,49L17.5,49C13.58,49,10.25,46.5,9.01,43Z" fill="#262421"/><path d="M32.04,48.76C32.04,58.83,40.21,67,50.28,67L71.4,67C81.47,67,89.64,58.83,89.64,48.76C89.64,38.69,81.47,30.52,71.4,30.52L56.98,30.52C57.61,32.32,57.96,34.26,57.96,36.28L57.96,40.12L71.4,40.12C76.17,40.12,80.04,43.99,80.04,48.76C80.04,53.53,76.17,57.4,71.4,57.4L50.28,57.4C45.51,57.4,41.64,53.53,41.64,48.76C41.64,44.97,44.08,41.75,47.47,40.59C48.04,39.6,48.36,38.46,48.36,37.24L48.36,36.28C48.36,34.17,47.39,32.29,45.87,31.06C37.93,33.03,32.04,40.21,32.04,48.76Z" fill="#BEBDB9"/><path d="M45.37,41.17L45.41,41.62C46.04,41.19,46.73,40.84,47.47,40.59C47.68,40.22,47.86,39.83,48,39.43C48.04,39.29,48.09,39.15,48.13,39C48.28,38.44,48.36,37.85,48.36,37.24L48.36,36.28C48.36,34.17,47.39,32.29,45.87,31.06C43.38,31.67,41.1,32.8,39.13,34.32C42.45,34.94,45.05,37.7,45.37,41.17Z" fill="#8B8987"/><path d="M57.96,36.28L57.96,40.12L62.34,40.12C62.65,37.57,62.5,34.99,61.87,32.49L61.38,30.52L56.98,30.52C57.61,32.32,57.96,34.26,57.96,36.28Z" fill="#8B8987"/><path d="M50.28,65.08L71.4,65.08C81.07,65.08,88.98,57.56,89.6,48.05C89.63,48.44,89.64,48.84,89.64,49.24C89.64,59.05,81.69,67,71.88,67L49.8,67C39.99,67,32.04,59.05,32.04,49.24C32.04,48.84,32.05,48.44,32.08,48.05C32.7,57.56,40.61,65.08,50.28,65.08Z" fill="#DAD8D6"/><path d="M57.96,37.24C57.96,27.17,49.79,19,39.72,19L18.6,19C8.53,19,0.36,27.17,0.36,37.24C0.36,47.31,8.53,55.48,18.6,55.48L33.02,55.48C32.39,53.68,32.04,51.74,32.04,49.72L32.04,45.88L18.6,45.88C13.83,45.88,9.96,42.01,9.96,37.24C9.96,32.47,13.83,28.6,18.6,28.6L39.72,28.6C44.49,28.6,48.36,32.47,48.36,37.24C48.36,41.03,45.92,44.25,42.53,45.41C41.96,46.4,41.64,47.54,41.64,48.76L41.64,49.72C41.64,51.83,42.61,53.71,44.13,54.94C52.07,52.97,57.96,45.79,57.96,37.24Z" fill="#BEBDB9"/><path d="M44.63,44.83L44.59,44.38C43.96,44.81,43.27,45.16,42.53,45.41C42.32,45.78,42.14,46.17,42,46.57C41.96,46.71,41.91,46.85,41.87,47C41.72,47.56,41.64,48.15,41.64,48.76L41.64,49.72C41.64,51.83,42.61,53.71,44.13,54.94C46.62,54.33,48.9,53.2,50.87,51.68C47.55,51.06,44.95,48.3,44.63,44.83Z" fill="#8B8987"/><path d="M32.04,49.72L32.04,45.88L27.66,45.88C27.35,48.43,27.5,51.01,28.13,53.51L28.62,55.48L33.02,55.48C32.39,53.68,32.04,51.74,32.04,49.72Z" fill="#8B8987"/><path d="M39.72,20.92L18.6,20.92C8.93,20.92,1.02,28.44,0.4,37.95C0.37,37.56,0.36,37.16,0.36,36.76C0.36,26.95,8.31,19,18.12,19L40.2,19C50.01,19,57.96,26.95,57.96,36.76C57.96,37.16,57.95,37.56,57.92,37.95C57.3,28.44,49.39,20.92,39.72,20.92Z" fill="#DAD8D6"/></svg>