<svg xmlns="http://www.w3.org/2000/svg" viewBox="0 0 90 90"><path d="M13,5L45,5L45,85L13,85C8.58,85,5,81.42,5,77L5,13C5,8.58,8.58,5,13,5Z" fill="currentColor"/><path d="M77,5L45,5L45,85L77,85C81.42,85,85,81.42,85,77L85,13C85,8.58,81.42,5,77,5Z" fill="currentColor"/><path d="M5,13L5,43L45,43L45,81L77,81C81.42,81,85,77.42,85,73L85,43L45,43L45,5L13,5C8.58,5,5,8.58,5,13Z" fill="currentColor"/><path d="M85,13L85,43L45,43L45,5L77,5C81.42,5,85,8.58,85,13Z" fill="currentColor"/><path d="M5,43L5,73C5,77.42,8.58,81,13,81L45,81L45,43Z" fill="currentColor"/><path d="M13,5L45,5L45,6.34L15.25,7.68C11.14,7.86,7.83,11.14,7.62,15.25L6.16,43L5,43L5,13C5,8.6,8.55,5.03,12.95,5C12.97,5,12.98,5,13,5Z" fill="currentColor"/><path d="M45,5L45,6.34L75,5Z" fill="currentColor"/><path d="M5,43L5,65L6.16,43Z" fill="currentColor"/><path d="M82.71,71.13C82.39,75.08,79.22,78.2,75.27,78.46L45,80.5L45,81L77,81C81.42,81,85,77.42,85,73L85,43Z" fill="currentColor"/><path d="M45,81L45,80.5L37.5,81Z" fill="currentColor"/><path d="M50,9C50,7.36,49.21,5.91,48,5L45,5L45,25C55.78,25,64.76,32.76,66.64,43L76.75,43C74.99,28.86,64,17.59,50,15.39Z" fill="currentColor"/><path d="M45,81L45,69C32.85,69,23,59.15,23,47C23,45.63,23.12,44.3,23.36,43L13.25,43C13.25,43,13.25,43,13.25,43L5,43L5,53L13.56,53C16.06,66.19,26.67,76.52,40,78.61L40,81Z" fill="currentColor"/><path d="M45,5L45,25C45,25,45,25,45,25C34.22,25,25.24,32.76,23.36,43L13.25,43C15.01,28.86,26,17.59,40,15.39L40,9C40,7.36,40.79,5.91,42,5Z" fill="currentColor"/><path d="M85,53L76.44,53C73.94,66.19,63.33,76.52,50,78.61L50,81L45,81L45,69C57.15,69,67,59.15,67,47C67,45.63,66.88,44.3,66.64,43L76.75,43C76.75,43,76.75,43,76.75,43L85,43C85,43,85,43,85,43L85,53C85,53,85,53,85,53Z" fill="currentColor"/><path d="M50,11.39C64,13.58,74.99,24.86,76.75,39L85,39C87.76,39,90,41.24,90,44C90,46.76,87.76,49,85,49L76.44,49C73.94,62.19,63.33,72.52,50,74.61L50,81C50,83.76,47.76,86,45,86C42.24,86,40,83.76,40,81L40,74.61C26.67,72.52,16.06,62.19,13.56,49L5,49C2.24,49,0,46.76,0,44C0,41.24,2.24,39,5,39L13.25,39C15.01,24.86,26,13.58,40,11.39L40,5C40,2.24,42.24,0,45,0C47.76,0,50,2.24,50,5Z" fill="currentColor"/><path d="M67,43C67,55.15,57.15,65,45,65C32.85,65,23,55.15,23,43C23,30.85,32.85,21,45,21C57.15,21,67,30.85,67,43Z" fill="currentColor"/></svg>