<svg xmlns="http://www.w3.org/2000/svg" viewBox="0 0 90 90"><path d="M13,5L45,5L45,85L13,85C8.58,85,5,81.42,5,77L5,13C5,8.58,8.58,5,13,5Z" fill="currentColor"/><path d="M77,5L45,5L45,85L77,85C81.42,85,85,81.42,85,77L85,13C85,8.58,81.42,5,77,5Z" fill="currentColor"/><path d="M5,13L5,43L45,43L45,81L77,81C81.42,81,85,77.42,85,73L85,43L45,43L45,5L13,5C8.58,5,5,8.58,5,13Z" fill="currentColor"/><path d="M85,13L85,43L45,43L45,5L77,5C81.42,5,85,8.58,85,13Z" fill="currentColor"/><path d="M5,43L5,73C5,77.42,8.58,81,13,81L45,81L45,43Z" fill="currentColor"/><path d="M13,5L45,5L45,6.34L15.25,7.68C11.14,7.86,7.83,11.14,7.62,15.25L6.16,43L5,43L5,13C5,8.6,8.55,5.03,12.95,5C12.97,5,12.98,5,13,5Z" fill="currentColor"/><path d="M45,5L45,6.34L75,5Z" fill="currentColor"/><path d="M5,43L5,65L6.16,43Z" fill="currentColor"/><path d="M82.71,71.13C82.39,75.08,79.22,78.2,75.27,78.46L45,80.5L45,81L77,81C81.42,81,85,77.42,85,73L85,43Z" fill="currentColor"/><path d="M45,81L45,80.5L37.5,81Z" fill="currentColor"/><path d="M14.32,75.28L14.32,74.78C14.32,71.06,16.1,69.71,17.94,68.31C19.79,66.9,21.7,65.44,21.99,61.5L19.16,61.5C18.77,60.78,18.71,59.98,18.71,59.19L21.7,57.37C20.34,56.29,19.65,54.58,19.65,53.04C19.65,50.12,22.03,47.75,25.01,47.72C27.97,47.75,30.35,50.12,30.35,53.04C30.35,54.58,29.66,56.29,28.3,57.37L31.29,59.19C31.29,59.98,31.23,60.78,30.84,61.5L28.01,61.5C28.3,65.44,30.21,66.9,32.06,68.31C33.9,69.71,35.68,71.06,35.68,74.78L35.68,75.28Z" fill="currentColor"/><path d="M26.82,48.05C28.88,48.79,30.35,50.75,30.35,53.04C30.35,54.58,29.66,56.29,28.3,57.37L31.29,59.19C31.29,59.98,31.23,60.78,30.84,61.5L28.01,61.5C28.3,65.44,30.21,66.9,32.06,68.31C32.66,68.77,33.26,69.22,33.79,69.75C29.33,69.08,26.36,65.9,23.41,62.74C23.02,62.32,22.64,61.91,22.24,61.5L21.99,61.5L19.16,61.5C19.02,61.25,18.93,60.99,18.86,60.73L27.76,60.73C29.9,59.34,27.87,57.53,27.7,57.38L27.69,57.37L24.66,57.37C24.66,57.37,27.15,56.8,28.43,54.99C30.14,52.57,28.69,49.21,26.82,48.05Z" fill="currentColor"/><path d="M24.77,47.73C21.9,47.88,19.65,50.2,19.65,53.04C19.65,53.5,19.72,53.98,19.84,54.45C20.26,50.1,23.07,47.95,24.91,47.73L24.84,47.73C24.82,47.73,24.79,47.73,24.77,47.73Z" fill="currentColor"/><path d="M18.71,59.19L21.7,57.37L21.05,59.43L18.72,59.43C18.72,59.35,18.71,59.27,18.71,59.19Z" fill="currentColor"/><path d="M14.32,75.28C15.26,72.18,16.63,71.19,18.94,69.51L18.94,69.51C19.11,69.39,19.29,69.26,19.46,69.13C20.94,68.05,21.24,66.02,21.43,64.2C20.67,66.23,19.29,67.28,17.94,68.31C16.1,69.71,14.32,71.06,14.32,74.78Z" fill="currentColor"/><path d="M70.03,15.86L70.02,15.86C70.02,15.86,70.02,15.86,70.03,15.86Z" fill="currentColor"/><path d="M73.28,24.29C73.28,20.32,71.36,17.49,70.03,15.86L68.77,18.11C68.18,19.25,67.62,20.49,67.28,21.77C66.9,22.96,66.51,25.65,66.51,25.65L64.5,25.67C64.71,23.83,65.07,21.77,65.83,19.82L68.46,14.41C68.73,13.91,68.9,13.27,68.9,12.7C68.9,11.06,67.54,9.72,65.88,9.72C64.21,9.72,62.85,11.06,62.85,12.7C62.85,13.46,63.17,14.51,63.17,14.51C63.17,14.51,58.65,18.44,58.65,24.27C58.65,28.11,60.47,31.01,61.33,32.08L60.8,32.08C55.65,32.08,55.67,35.55,55.67,35.55L55.67,37.28L76.27,37.28L76.27,35.55C76.27,35.55,76.3,32.08,71.14,32.08L70.62,32.08C71.49,30.99,73.28,28.11,73.28,24.29Z" fill="currentColor"/><path d="M73.28,24.29C73.28,28.11,71.49,30.99,70.62,32.08L65.18,32.08C66.62,31.4,74.67,27.14,71.25,17.54C72.3,19.19,73.28,21.45,73.28,24.29Z" fill="currentColor"/><path d="M66.28,16.4C67.51,14.1,68.62,12.03,67.83,10.45C67.83,10.44,67.83,10.44,67.84,10.43C68.49,10.98,68.9,11.79,68.9,12.7C68.9,12.95,68.87,13.18,68.81,13.4C68.74,13.74,68.64,14.07,68.46,14.41L68.46,14.41L65.83,19.82C65.07,21.77,64.71,23.83,64.5,25.67C63,22.52,64.74,19.28,66.28,16.4Z" fill="currentColor"/><path d="M65.88,9.72C64.21,9.72,62.85,11.06,62.85,12.7C62.85,13,62.9,13.35,62.96,13.66C63.26,11.62,64.89,10.07,66.06,9.73C66,9.72,65.94,9.72,65.88,9.72Z" fill="currentColor"/><path d="M58.65,24.27C58.65,25.58,58.87,26.76,59.18,27.81C59.18,24.44,59.91,19.53,63.76,14.72C63.76,14.72,63.5,14.63,63.17,14.51C63.17,14.51,58.65,18.44,58.65,24.27Z" fill="currentColor"/><path d="M60.8,32.08L71.14,32.08C73.85,32.08,75.12,33.04,75.73,33.95C75.06,33.71,72.87,33.21,66.04,33.21C58.25,33.21,56.49,33.86,56.15,34.04L56.15,34.03C56.73,33.1,58,32.08,60.8,32.08Z" fill="currentColor"/><path d="M74.67,65.81C73.64,66.75,72.77,67.83,72.06,69.02C74.29,69.62,74.67,71.14,74.67,73.24L74.67,74.27L55.33,74.27L55.33,73.24C55.33,71.2,55.65,69.65,57.97,69.03C57.25,67.83,56.37,66.75,55.33,65.81C53.74,64.24,52.09,62.59,52.09,60.01C52.02,56.61,54.73,53.67,58.19,53.73C59.76,53.67,61.31,54.06,62.67,54.84L63.22,52.43L61,52.43L61,49.02L63.28,49.02L63.28,46.72L66.71,46.72L66.71,49.08L68.99,49.08L68.99,52.46L66.77,52.46L67.33,54.88C68.68,54.08,70.23,53.69,71.8,53.73C75.43,53.64,78,56.48,77.92,60.01C77.92,62.58,76.27,64.22,74.67,65.81Z" fill="currentColor"/><path d="M72.25,60.68C72.54,58.68,70.31,58.6,70.3,58.6C69.08,58.6,67.56,59.69,67.56,59.69L67.56,64.43C68.09,64.45,68.45,64.48,69.06,64.52C69.51,63.94,70.06,63.42,70.56,62.94C71.4,62.15,72.14,61.44,72.25,60.68Z" fill="currentColor"/><path d="M59.68,58.6C59.68,58.6,57.47,58.68,57.74,60.68C57.85,61.44,58.58,62.14,59.41,62.93C59.92,63.42,60.47,63.93,60.93,64.52C61.53,64.48,61.91,64.43,62.42,64.43L62.42,59.69C62.42,59.69,60.9,58.6,59.68,58.6Z" fill="currentColor"/><path d="M77.92,60.01C77.96,58.13,77.25,56.44,76.03,55.29C76.01,55.29,76,55.29,75.99,55.29C76.33,55.99,78.2,60.27,75.39,63.08L69.72,68.77L69.77,68.77C70.59,68.77,71.45,68.84,72.21,69.07C72.21,69.07,72.21,69.07,72.21,69.07C72.16,69.05,72.11,69.04,72.06,69.02C72.77,67.83,73.64,66.75,74.67,65.81C76.27,64.22,77.92,62.58,77.92,60.01Z" fill="currentColor" opacity="0.5"/><path d="M66.71,46.77L66.71,46.78L66.19,47.29L63.86,47.29L63.86,49.58L61.58,49.58L61.58,51.91L61.06,52.43L61,52.43L61,49.02L63.28,49.02L63.28,46.72L66.71,46.72Z" fill="currentColor"/><path d="M66.2,49.58L66.71,49.02L68.99,49.02L68.99,49.58Z" fill="currentColor"/><path d="M58.55,53.73L58.57,53.73L58.57,53.73Z" fill="currentColor"/><path d="M53.02,63.16C52.41,62.22,52.09,61.13,52.09,60.01C52.06,58.33,52.69,56.71,53.84,55.49C54.41,54.92,55.09,54.47,55.84,54.17C56.59,53.87,57.38,53.72,58.19,53.73L58.55,53.73C53.9,54.5,51.64,58.9,53.02,63.16Z" fill="currentColor"/><path d="M55.64,70.91C56.27,70.65,58.37,70.1,64.99,70.1C71.65,70.1,73.74,70.64,74.36,70.92C74.17,70.42,73.88,69.99,73.43,69.66C73.04,69.37,72.59,69.17,72.09,69.03L72.06,69.02C71.33,68.83,70.53,68.77,69.77,68.77L60.26,68.77C58.98,68.77,57.47,68.94,56.47,69.74C56.08,70.07,55.81,70.46,55.64,70.91Z" fill="currentColor"/></svg>