<svg xmlns="http://www.w3.org/2000/svg" viewBox="0 0 90 90"><path d="M13,5L45,5L45,85L13,85C8.58,85,5,81.42,5,77L5,13C5,8.58,8.58,5,13,5Z" fill="currentColor"/><path d="M77,5L45,5L45,85L77,85C81.42,85,85,81.42,85,77L85,13C85,8.58,81.42,5,77,5Z" fill="currentColor"/><path d="M5,13L5,42.5L45,42.5L45,80L77,80C81.42,80,85,76.42,85,72L85,42.5L45,42.5L45,5L13,5C8.58,5,5,8.58,5,13Z" fill="currentColor"/><path d="M77,5L45,5L45,42.5L85,42.5L85,13C85,8.58,81.42,5,77,5Z" fill="currentColor"/><path d="M13,80L45,80L45,42.5L5,42.5L5,72C5,76.42,8.58,80,13,80Z" fill="currentColor"/><path d="M17.86,62.68C13.71,65.91,14.52,73.01,12.48,75.88C12.29,76.19,12.29,76.21,12.65,76.1C12.69,76.09,12.71,76.09,12.73,76.08C16.12,75.07,22.6,77.92,26.9,74.95C31.17,72,31.64,66.81,31.69,65.79C49.74,58.79,73.97,36.68,85,25.54L85,20.72C66.52,29.32,40.29,46.32,27.94,60.84C26.66,60.53,21.79,59.63,17.86,62.68Z" fill="currentColor"/><path d="M27.94,60.84C32.25,55.78,38.24,50.42,45,45.21L45,58.81C40.39,61.73,35.88,64.17,31.69,65.79C31.64,66.81,31.17,72,26.9,74.95C24.27,76.77,20.81,76.4,17.75,76.08C15.82,75.88,14.04,75.69,12.73,76.08C12.72,76.09,12.71,76.09,12.69,76.09C12.68,76.09,12.67,76.1,12.65,76.1C12.29,76.21,12.29,76.19,12.48,75.88C13.28,74.75,13.64,72.98,14.04,71.04C14.65,68.03,15.34,64.64,17.86,62.68C21.79,59.63,26.66,60.53,27.94,60.84Z" fill="currentColor"/><path d="M48.61,42.5L66.67,42.5C74.07,36.2,80.59,29.99,85,25.54L85,20.72C74.09,25.8,60.48,33.8,48.61,42.5Z" fill="currentColor"/><path d="M5,13C5,8.58,8.58,5,13,5L75,5L18.87,7.51C12.7,7.79,7.75,12.7,7.43,18.87L5,65Z" fill="currentColor"/><path d="M5,65L6.18,42.5L5,42.5Z" fill="currentColor"/><path d="M45,5L45,6.34L75,5Z" fill="currentColor"/><path d="M85,72C85,76.42,81.42,80,77,80L54,80L74.08,78.1C78.85,77.65,82.63,73.88,83.09,69.11L85,49.41Z" fill="currentColor"/><path d="M27.52,60.75L25.45,58.72C25.45,58.72,19.39,57.88,15.44,62.1C11.85,65.95,13.78,72.83,12.22,75.99C12.08,76.32,12.09,76.35,12.42,76.18C12.45,76.16,12.47,76.16,12.5,76.15C15.68,74.62,22.54,76.4,26.31,72.79C30.48,68.8,29.56,62.77,29.56,62.77L29.58,62.77Z" fill="currentColor"/><path d="M28.03,60.66C28.03,60.66,28.85,63.42,25.51,67.71C20.54,74.1,18.04,70.91,12.22,75.99C12.08,76.32,12.09,76.35,12.42,76.18C12.45,76.16,12.47,76.16,12.5,76.15C15.68,74.62,22.54,76.4,26.31,72.79C30.48,68.8,29.56,62.77,29.56,62.77L29.58,62.77Z" fill="currentColor"/><path d="M76.96,13.38C77.93,12.27,78.15,10.87,77.44,10.14C77.44,10.14,77.44,10.13,77.44,10.12C76.7,9.43,75.28,9.66,74.2,10.65C74.2,10.65,49.15,31.14,37.99,42.54C37.89,42.64,35.68,52.27,35.68,52.27L35.94,52.52C35.94,52.52,45.57,50.19,45.67,50.09L45.65,50.08C57.09,38.91,76.96,13.38,76.96,13.38Z" fill="currentColor"/><path d="M41.19,46.93C38.37,44.17,37.8,42.66,37.95,42.52C37.95,42.5,37.95,42.5,37.95,42.5C33.92,46.22,25.16,58.38,25.16,58.38C24.94,58.65,25.18,59.58,26.88,61.26C28.49,62.83,29.51,63.16,29.78,62.96C29.78,62.96,42.02,54.08,45.65,50.12L45.66,50.12C45.41,50.21,43.8,49.49,41.19,46.93Z" fill="currentColor"/></svg>