<svg xmlns="http://www.w3.org/2000/svg" viewBox="0 0 90 90"><path d="M13,5L25,5L25,85L13,85C8.58,85,5,81.42,5,77L5,13C5,8.58,8.58,5,13,5Z" fill="currentColor"/><path d="M65,5L65,85L45,85L45,5Z" fill="currentColor"/><path d="M77,5L65,5L65,85L77,85C81.42,85,85,81.42,85,77L85,13C85,8.58,81.42,5,77,5Z" fill="currentColor"/><path d="M25,5L25,85L45,85L45,5Z" fill="currentColor"/><path d="M13,5L77,5C81.42,5,85,8.58,85,13L85,73C85,77.42,81.42,81,77,81L13,81C8.58,81,5,77.42,5,73L5,13C5,8.58,8.58,5,13,5Z" fill="currentColor"/><path d="M5,13L5,24L25,24L25,43L5,43L5,62L25,62L25,81L45,81L45,62L65,62L65,81L77,81C81.42,81,85,77.42,85,73L85,62L65,62L65,43L85,43L85,24L65,24L65,5L45,5L45,24L25,24L25,5L13,5C8.58,5,5,8.58,5,13Z" fill="currentColor"/><path d="M45,62L25,62L25,43L45,43Z" fill="currentColor"/><path d="M45,24L65,24L65,43L45,43Z" fill="currentColor"/><path d="M45,5L45,24L25,24L25,5Z" fill="currentColor"/><path d="M5,43L5,24L25,24L25,43Z" fill="currentColor"/><path d="M25,43L25,62L5,62L5,73C5,77.42,8.58,81,13,81L25,81L25,62L45,62L45,81L65,81L65,62L85,62L85,43L65,43L65,24L85,24L85,13C85,8.58,81.42,5,77,5L65,5L65,24L45,24L45,43Z" fill="currentColor"/><path d="M65,43L65,62L45,62L45,43Z" fill="currentColor"/><path d="M13,5L25,5L25,7.11L15.17,7.62C11.09,7.84,7.83,11.09,7.6,15.17L7.11,24L5,24L5,13C5,8.86,8.15,5.45,12.18,5.04C12.45,5.01,12.72,5,13,5Z" fill="currentColor"/><path d="M5,62L6.06,43L5,43Z" fill="currentColor"/><path d="M45,5L65,5L45,6.05Z" fill="currentColor"/><path d="M45,81L25,81L45,79.95Z" fill="currentColor"/><path d="M65,81L77,81C81.42,81,85,77.42,85,73L85,62L82.89,62L82.4,70.83C82.17,74.91,78.91,78.16,74.83,78.38L65,78.89Z" fill="currentColor"/><path d="M85,43L85,24L83.94,43Z" fill="currentColor"/><path d="M45,5L25,5L25,7.11L45,6.05Z" fill="currentColor"/><path d="M5,24L5,43L6.06,43L7.11,24Z" fill="currentColor"/><path d="M65,81L65,78.89L45,79.95L45,81Z" fill="currentColor"/><path d="M85,62L85,43L83.94,43L82.89,62Z" fill="currentColor"/><path d="M13,5L25,5L25,85L13,85C8.58,85,5,81.42,5,77L5,13C5,8.58,8.58,5,13,5Z" fill="currentColor"/><path d="M65,5L65,85L45,85L45,5Z" fill="currentColor"/><path d="M77,5L65,5L65,85L77,85C81.42,85,85,81.42,85,77L85,13C85,8.58,81.42,5,77,5Z" fill="currentColor"/><path d="M25,5L25,85L45,85L45,5Z" fill="currentColor"/><path d="M13,5C8.58,5,5,8.58,5,13L5,73C5,77.42,8.58,81,13,81L77,81C81.42,81,85,77.42,85,73L85,13C85,8.58,81.42,5,77,5Z" fill="currentColor"/><path d="M5,13L5,24L25,24L25,43L5,43L5,62L25,62L25,81L45,81L45,62L65,62L65,81L77,81C81.42,81,85,77.42,85,73L85,62L65,62L65,43L85,43L85,24L65,24L65,5L45,5L45,24L25,24L25,5L13,5C8.58,5,5,8.58,5,13Z" fill="currentColor"/><path d="M45,62L25,62L25,43L45,43Z" fill="currentColor"/><path d="M45,24L65,24L65,43L45,43Z" fill="currentColor"/><path d="M45,5L45,24L25,24L25,5Z" fill="currentColor"/><path d="M5,43L5,24L25,24L25,43Z" fill="currentColor"/><path d="M25,43L25,62L5,62L5,73C5,77.42,8.58,81,13,81L25,81L25,62L45,62L45,81L65,81L65,62L85,62L85,43L65,43L65,24L85,24L85,13C85,8.58,81.42,5,77,5L65,5L65,24L45,24L45,43Z" fill="currentColor"/><path d="M65,43L65,62L45,62L45,43Z" fill="currentColor"/><path d="M13,5L25,5L25,7.11L15.17,7.62C11.09,7.84,7.83,11.09,7.6,15.17L7.11,24L5,24L5,13C5,8.86,8.15,5.45,12.18,5.04C12.45,5.01,12.72,5,13,5Z" fill="currentColor"/><path d="M5,62L6.06,43L5,43Z" fill="currentColor"/><path d="M45,5L65,5L45,6.05Z" fill="currentColor"/><path d="M45,81L25,81L45,79.95Z" fill="currentColor"/><path d="M65,81L77,81C81.42,81,85,77.42,85,73L85,62L82.89,62L82.4,70.83C82.17,74.91,78.91,78.16,74.83,78.38L65,78.89Z" fill="currentColor"/><path d="M85,43L85,24L83.94,43Z" fill="currentColor"/><path d="M45,5L25,5L25,7.11L45,6.05Z" fill="currentColor"/><path d="M5,24L5,43L6.06,43L7.11,24Z" fill="currentColor"/><path d="M65,81L65,78.89L45,79.95L45,81Z" fill="currentColor"/><path d="M85,62L85,43L83.94,43L82.89,62Z" fill="currentColor"/></svg>