<svg xmlns="http://www.w3.org/2000/svg" viewBox="0 0 90 90"><path d="M13,27L35,27L35,85L13,85C8.58,85,5,81.42,5,77L5,35C5,30.58,8.58,27,13,27Z" fill="#543426"/><path d="M57,27L35,27L35,85L57,85C61.42,85,65,81.42,65,77L65,35C65,30.58,61.42,27,57,27Z" fill="#9D6C3E"/><path d="M13,25L35,25L35,53L5,53L5,33C5,28.58,8.58,25,13,25Z" fill="#FBEBC1"/><path d="M57,81L35,81L35,53L65,53L65,73C65,77.42,61.42,81,57,81Z" fill="#FBEBC1"/><path d="M57,25L35,25L35,53L65,53L65,33C65,28.58,61.42,25,57,25Z" fill="#9D6C3E"/><path d="M13,81L35,81L35,53L5,53L5,73C5,77.42,8.58,81,13,81Z" fill="#9D6C3E"/><path d="M5,53L5.87,53L6.6,36.11C6.83,30.92,11,26.76,16.19,26.55L35,25.8L35,25L13,25C8.58,25,5,28.58,5,33Z" fill="#FBF7EC"/><path d="M55,25L35,25L35,25.8Z" fill="#E2B664"/><path d="M5,73C5.6,65.52,5.8,59.18,5.93,53L5,53Z" fill="#E2B664"/><path d="M65,73C65,77.42,61.42,81,57,81L35,81L54.16,79.29C58.93,78.86,62.73,75.11,63.22,70.35L65,53Z" fill="#FBEBC1"/><path d="M25,25L25,53L35,53L35,25Z" fill="#E2B664"/><path d="M65,53L65,73C65,77.42,61.42,81,57,81L44,81L35,71L35,53Z" fill="#E2B664"/><path d="M30,53L29.16,53C26.86,53,25,54.86,25,57.16C25,59.07,25.72,60.92,27.01,62.32L35,71L35,58C35,55.24,32.76,53,30,53Z" fill="#543426" opacity="0.5"/><path d="M33,7L55,7L55,65L33,65C28.58,65,25,61.42,25,57L25,15C25,10.58,28.58,7,33,7Z" fill="#543426"/><path d="M77,7L55,7L55,65L77,65C81.42,65,85,61.42,85,57L85,15C85,10.58,81.42,7,77,7Z" fill="#CA9350"/><path d="M33,5L55,5L55,33L25,33L25,13C25,8.58,28.58,5,33,5Z" fill="#FBEBC1"/><path d="M77,61L55,61L55,33L85,33L85,53C85,57.42,81.42,61,77,61Z" fill="#FBEBC1"/><path d="M77,5L55,5L55,33L85,33L85,13C85,8.58,81.42,5,77,5Z" fill="#9D6C3E"/><path d="M33,61L55,61L55,33L25,33L25,53C25,57.42,28.58,61,33,61Z" fill="#9D6C3E"/><path d="M25,33L25.87,33L26.6,16.11C26.83,10.92,31,6.76,36.19,6.55L55,5.8L55,5L33,5C28.58,5,25,8.58,25,13Z" fill="#FBF7EC"/><path d="M75,5L55,5L55,5.8Z" fill="#E2B664"/><path d="M25,53C25.6,45.52,25.8,39.18,25.93,33L25,33Z" fill="#E2B664"/><path d="M85,53C85,57.42,81.42,61,77,61L55,61L74.16,59.29C78.93,58.86,82.73,55.11,83.22,50.35L85,33Z" fill="#FBF7EC"/></svg>