<svg xmlns="http://www.w3.org/2000/svg" viewBox="0 0 90 90"><path d="M13,5L45,5L45,85L13,85C8.58,85,5,81.42,5,77L5,13C5,8.58,8.58,5,13,5Z" fill="#204227"/><path d="M77,5L45,5L45,85L77,85C81.42,85,85,81.42,85,77L85,13C85,8.58,81.42,5,77,5Z" fill="#45753C"/><path d="M77,81L45,81L45,43L85,43L85,73C85,77.42,81.42,81,77,81Z" fill="#81B64C"/><path d="M5,43L5,13C5,8.58,8.58,5,13,5L45,5L45,43Z" fill="#81B64C"/><path d="M45,81L13,81C8.58,81,5,77.42,5,73L5,43L45,43Z" fill="#5D9948"/><path d="M85,13L85,43L45,43L45,5L77,5C81.42,5,85,8.58,85,13Z" fill="#5D9948"/><path d="M15.25,7.68C11.14,7.86,7.83,11.14,7.62,15.25L6.16,43L5,43L5,13C5,8.58,8.58,5,13,5L45,5L45,6.34Z" fill="#B2E068"/><path d="M5,43L6.16,43L5,65Z" fill="#81B64C"/><path d="M45,5L75,5L45,6.34Z" fill="#81B64C"/><path d="M77,81L45,81L45,80.5L75.27,78.46C79.22,78.2,82.39,75.08,82.71,71.13L85,43L85,73C85,77.42,81.42,81,77,81Z" fill="#B2E068"/><path d="M37.5,81L45,80.5L45,81Z" fill="#81B64C"/><path d="M25.04,67.19L31.21,73.44C33.04,75.32,33.71,75.32,35.58,73.49C37.46,71.65,37.46,70.94,35.63,69.11L29.46,62.78L35.71,56.53C37.58,54.65,37.58,53.99,35.71,52.11C33.88,50.28,33.17,50.28,31.33,52.11L25.04,58.32L18.79,52.07C16.92,50.19,16.25,50.19,14.38,52.07C12.54,53.9,12.54,54.61,14.38,56.44L20.58,62.78L14.33,68.99C12.46,70.86,12.46,71.53,14.33,73.4C16.17,75.24,16.83,75.24,18.71,73.4Z" fill="#305730"/><path d="M25.04,65.42L31.21,71.67C33.04,73.54,33.71,73.54,35.58,71.71C37.46,69.88,37.46,69.17,35.63,67.33L29.46,61L35.71,54.75C37.58,52.88,37.58,52.21,35.71,50.33C33.88,48.5,33.17,48.5,31.33,50.33L25.04,56.54L18.79,50.29C16.92,48.42,16.25,48.42,14.38,50.29C12.54,52.13,12.54,52.83,14.38,54.67L20.58,61L14.33,67.21C12.46,69.08,12.46,69.75,14.33,71.63C16.17,73.46,16.83,73.46,18.71,71.63Z" fill="white"/><path d="M56.21,21.14C53,21.14,52.5,21.64,52.5,24.85C52.5,28.1,53,28.6,56.21,28.6L73.79,28.64C77,28.64,77.5,28.14,77.5,24.93C77.5,21.68,77,21.18,73.79,21.18Z" fill="#305730"/><path d="M56.21,19.36C53,19.36,52.5,19.86,52.5,23.07C52.5,26.32,53,26.82,56.21,26.82L73.79,26.86C77,26.86,77.5,26.36,77.5,23.15C77.5,19.9,77,19.4,73.79,19.4Z" fill="white"/><path d="M55.58,54.03C53,54.03,52.5,54.53,52.5,57.11C52.5,59.74,53,60.24,55.58,60.24L74.42,60.28C77,60.28,77.5,59.78,77.5,57.19C77.5,54.57,77,54.07,74.42,54.07Z" fill="#45753C"/><path d="M55.58,65.28C53,65.28,52.5,65.78,52.5,68.36C52.5,70.99,53,71.49,55.58,71.49L74.42,71.53C77,71.53,77.5,71.03,77.5,68.44C77.5,65.82,77,65.32,74.42,65.32Z" fill="#45753C"/><path d="M55.58,52.25C53,52.25,52.5,52.75,52.5,55.33C52.5,57.96,53,58.46,55.58,58.46L74.42,58.5C77,58.5,77.5,58,77.5,55.42C77.5,52.79,77,52.29,74.42,52.29Z" fill="white"/><path d="M55.58,63.5C53,63.5,52.5,64,52.5,66.58C52.5,69.21,53,69.71,55.58,69.71L74.42,69.75C77,69.75,77.5,69.25,77.5,66.67C77.5,64.04,77,63.54,74.42,63.54Z" fill="white"/><path d="M26.25,37.35C27.63,37.35,28.13,36.85,28.13,35.47L28.13,28.01L35.63,28.01C37,28.01,37.5,27.51,37.5,26.14L37.5,23.64C37.5,22.26,37,21.76,35.63,21.76L28.13,21.76L28.13,14.22C28.13,12.85,27.63,12.35,26.25,12.35L23.75,12.35C22.38,12.35,21.88,12.85,21.88,14.22L21.88,21.76L14.38,21.76C13,21.76,12.5,22.26,12.5,23.64L12.5,26.14C12.5,27.51,13,28.01,14.38,28.01L21.88,28.01L21.88,35.47C21.88,36.85,22.38,37.35,23.75,37.35Z" fill="#45753C"/><path d="M26.25,35.57C27.63,35.57,28.13,35.07,28.13,33.69L28.13,26.24L35.63,26.24C37,26.24,37.5,25.74,37.5,24.36L37.5,21.86C37.5,20.49,37,19.99,35.63,19.99L28.13,19.99L28.13,12.44C28.13,11.07,27.63,10.57,26.25,10.57L23.75,10.57C22.38,10.57,21.88,11.07,21.88,12.44L21.88,19.99L14.38,19.99C13,19.99,12.5,20.49,12.5,21.86L12.5,24.36C12.5,25.74,13,26.24,14.38,26.24L21.88,26.24L21.88,33.69C21.88,35.07,22.38,35.57,23.75,35.57Z" fill="white"/></svg>