<svg xmlns="http://www.w3.org/2000/svg" viewBox="0 0 90 90"><path d="M60.61,0.46C63.17,-0.27,65.71,1.65,65.71,4.31L65.71,14.57L11.82,29.9L10,14.98L10,14.97Z" fill="currentColor"/><path d="M20.06,23.81L72,8C72,8,67,6,62.34,3.41L11.5,18Z" fill="currentColor"/><path d="M22,22.81L72,8.02L72,45.77L22,58.11Z" fill="currentColor"/><path d="M22,20L22,90C17.49,90,12.91,88.55,10,84.92L10,14.98L10,14.97C12.5,18.5,16.75,20.07,22,20Z" fill="currentColor"/><path d="M76,20C78.21,20,80,21.79,80,24L80,86C80,88.21,78.21,90,76,90L22,90L22,20Z" fill="currentColor"/><path d="M80,86C80,88.21,78.21,90,76,90L47,90L69.86,88.42C74.87,88.08,78.85,84.06,79.15,79.05L80,65Z" fill="currentColor"/><path d="M22,20L65,20L27.29,22C25.29,22.1,23.67,23.68,23.52,25.68L22,45Z" fill="currentColor"/><path d="M69.59,48.84C71.95,46.48,71.95,45.53,69.59,43.17C67.15,40.73,66.21,40.73,63.84,43.17L44.71,62.29L38.09,55.67C35.72,53.3,34.78,53.3,32.34,55.67C29.98,58.1,29.98,59.05,32.34,61.42L42.48,71.62C44.11,73.18,45.19,73.24,46.81,71.62Z" fill="currentColor"/><path d="M69.59,44.7C71.95,42.34,71.95,41.39,69.59,39.02C67.15,36.59,66.21,36.59,63.84,39.02L44.71,58.15L38.09,51.53C35.72,49.16,34.78,49.16,32.34,51.53C29.98,53.96,29.98,54.91,32.34,57.27L42.48,67.48C44.11,69.03,45.19,69.1,46.81,67.48Z" fill="currentColor"/></svg>