<svg xmlns="http://www.w3.org/2000/svg" viewBox="0 0 90 90"><path d="M60.61,0.46C63.17,-0.27,65.71,1.65,65.71,4.31L65.71,14.57L11.82,29.9L10,14.98L10,14.97Z" fill="#543426"/><path d="M20.06,23.81L72,8C72,8,67,6,62.34,3.41L11.5,18Z" fill="#E7E6E5"/><path d="M22,22.81L72,8.02L72,45.77L22,58.11Z" fill="#BEBDB9"/><path d="M22,20L22,90C17.49,90,12.91,88.55,10,84.92L10,14.98L10,14.97C12.5,18.5,16.75,20.07,22,20Z" fill="#6A4632"/><path d="M76,20C78.21,20,80,21.79,80,24L80,86C80,88.21,78.21,90,76,90L22,90L22,20Z" fill="#9D6C3E"/><path d="M80,86C80,88.21,78.21,90,76,90L47,90L69.86,88.42C74.87,88.08,78.85,84.06,79.15,79.05L80,65Z" fill="#CA9350"/><path d="M34.47,77.33L34.47,76.57C34.47,70.81,37.21,68.72,40.07,66.54C42.93,64.36,45.89,62.1,46.33,56L41.95,56C41.35,54.89,41.27,53.65,41.27,52.42L45.89,49.6C43.79,47.94,42.72,45.29,42.72,42.9C42.72,38.38,46.4,34.71,51.02,34.67C55.6,34.71,59.28,38.38,59.28,42.9C59.28,45.29,58.21,47.94,56.11,49.6L60.73,52.42C60.73,53.65,60.65,54.89,60.05,56L55.67,56C56.11,62.1,59.07,64.36,61.93,66.54C64.79,68.72,67.53,70.81,67.53,76.57L67.53,77.33Z" fill="#6A4632"/><path d="M34.47,75.33L34.47,74.57C34.47,68.81,37.21,66.72,40.07,64.54C42.93,62.36,45.89,60.1,46.33,54L41.95,54C41.35,52.89,41.27,51.65,41.27,50.42L45.89,47.6C43.79,45.94,42.72,43.29,42.72,40.9C42.72,36.38,46.4,32.71,51.02,32.67C55.6,32.71,59.28,36.38,59.28,40.9C59.28,43.29,58.21,45.94,56.11,47.6L60.73,50.42C60.73,51.65,60.65,52.89,60.05,54L55.67,54C56.11,60.1,59.07,62.36,61.93,64.54C64.79,66.72,67.53,68.81,67.53,74.57L67.53,75.33Z" fill="#FAD541"/><path d="M53.82,33.17C57.01,34.33,59.28,37.35,59.28,40.9C59.28,43.29,58.21,45.94,56.11,47.6L60.73,50.42C60.73,51.65,60.65,52.89,60.05,54L55.67,54C56.11,60.1,59.07,62.36,61.93,64.54C62.87,65.25,63.79,65.95,64.61,66.78C57.7,65.73,53.1,60.81,48.54,55.92C47.94,55.28,47.34,54.63,46.73,54L46.33,54L41.95,54C41.74,53.61,41.6,53.21,41.5,52.8L55.27,52.8C58.58,50.66,55.45,47.85,55.18,47.61C55.17,47.61,55.17,47.6,55.17,47.6L50.47,47.6C50.47,47.6,54.33,46.73,56.32,43.92C58.96,40.17,56.72,34.97,53.82,33.17Z" fill="#E3AA24"/><path d="M43.01,43.09C43.67,36.35,48.01,33.02,50.85,32.68L50.75,32.68C50.72,32.68,50.68,32.68,50.64,32.68C46.2,32.91,42.72,36.5,42.72,40.9C42.72,41.62,42.82,42.36,43.01,43.09Z" fill="#FFF599"/><path d="M41.27,50.42L45.89,47.6L44.88,50.79L41.27,50.8C41.27,50.67,41.27,50.54,41.27,50.42Z" fill="#FFF599"/><path d="M34.47,75.33C35.92,70.54,38.04,69,41.62,66.4C41.88,66.21,42.15,66.02,42.43,65.81C44.71,64.14,45.17,61,45.47,58.18C44.3,61.32,42.15,62.95,40.07,64.54C37.21,66.72,34.47,68.81,34.47,74.57Z" fill="#FFF599"/></svg>