<svg xmlns="http://www.w3.org/2000/svg" viewBox="0 0 90 90"><path d="M88.14,53.82L84.44,57.26L84.12,51.25Z" fill="#9D6C3E"/><path d="M51.83,64.07L86.5,37.45C86.5,37.45,84.63,48.22,86.5,55.08C86.62,55.54,86.54,57.22,86.54,57.22L53.97,83.27Z" fill="#E7E6E5"/><path d="M85.79,44.11C86.01,40.37,86.51,37.45,86.51,37.45L51.84,64.07L52.33,80.08L54.28,81.57C54.3,75.01,56.09,69.11,56.09,69.11L56.08,69.11Z" fill="#BEBDB9"/><path d="M89.23,56.87C90.55,55.54,89.25,54.37,88.14,53.83L88.01,53.83L54.28,81.57C54.01,79.34,53.74,77.12,53.74,74.67C53.74,71.83,54.15,68.81,54.96,65.97L1.77,34.17C0.68,36.8,0,39.85,0,43.29C0,46.11,0.41,49.35,1.63,52.59L55.35,85L55.36,85Z" fill="#9D6C3E"/><path d="M39.58,5.43C38.49,4.83,36.73,4.83,35.91,5.64L1.77,34.17L54.95,65.97L89.09,37.61C90.04,36.8,89.9,35.58,88.82,34.98Z" fill="#CA9350"/><path d="M55.02,84.79L55.36,85L1.07,50.81C1.24,51.4,1.41,52.01,1.64,52.59C1.5,52.93,1.39,53.35,1.26,53.71Z" fill="#543426"/></svg>