<svg xmlns="http://www.w3.org/2000/svg" viewBox="0 0 90 90"><path d="M75,4.09L75,69C75,73.42,71.42,77,67,77L10,77L10,10.02C10,4.49,14.49,0.01,20.02,0.02L71.01,0.09C73.21,0.1,75,1.89,75,4.09Z" fill="currentColor"/><path d="M16,10.56C16,13.01,17.99,15,20.44,15L73,15L69.2,6L20.43,6.12C17.98,6.13,16,8.11,16,10.56Z" fill="currentColor"/><path d="M16.43,15L20,15L20,85L18,85C13.58,85,10,81.42,10,77L10,9C10.23,12.38,13.04,15,16.43,15Z" fill="currentColor"/><path d="M74,15C76.21,15,78,16.79,78,19L78,81C78,83.21,76.21,85,74,85L20,85L20,15Z" fill="currentColor"/><path d="M78,81C78,83.21,76.21,85,74,85L45,85L67.86,83.42C72.87,83.08,76.85,79.06,77.15,74.05L78,60Z" fill="currentColor"/></svg>