<svg xmlns="http://www.w3.org/2000/svg" viewBox="0 0 90 90"><path d="M60.61,0.46C63.17,-0.27,65.71,1.65,65.71,4.31L65.71,14.57L11.82,29.9L10,14.98L10,14.97Z" fill="currentColor"/><path d="M20.06,23.81L72,8C72,8,67,6,62.34,3.41L11.5,18Z" fill="currentColor"/><path d="M22,22.81L72,8.02L72,45.77L22,58.11Z" fill="currentColor"/><path d="M22,20L22,90C17.49,90,12.91,88.55,10,84.92L10,14.98L10,14.97C12.5,18.5,16.75,20.07,22,20Z" fill="currentColor"/><path d="M76,20C78.21,20,80,21.79,80,24L80,86C80,88.21,78.21,90,76,90L22,90L22,20Z" fill="currentColor"/><path d="M80,86C80,88.21,78.21,90,76,90L47,90L69.86,88.42C74.87,88.08,78.85,84.06,79.15,79.05L80,65Z" fill="currentColor"/><path d="M65.97,64.23C64.39,65.68,63.02,67.35,61.93,69.2C65.39,70.13,65.97,72.47,65.97,75.73L65.97,77.33L36.03,77.33L36.03,75.73C36.03,72.57,36.52,70.17,40.11,69.2C39,67.35,37.63,65.68,36.03,64.23C33.56,61.8,31.01,59.24,31.01,55.25C30.91,49.98,35.11,45.43,40.46,45.52C42.88,45.43,45.29,46.03,47.39,47.24L48.25,43.5L44.81,43.5L44.81,38.22L48.34,38.22L48.34,34.67L53.65,34.67L53.65,38.32L57.18,38.32L57.18,43.56L53.74,43.56L54.6,47.3C56.7,46.06,59.1,45.45,61.53,45.52C67.15,45.38,71.12,49.77,71,55.25C71,59.22,68.45,61.77,65.97,64.23Z" fill="currentColor"/><path d="M62.22,56.28C62.67,53.18,59.23,53.06,59.21,53.06C57.32,53.06,54.96,54.75,54.96,54.75L54.96,62.08C55.78,62.11,56.34,62.17,57.28,62.22C57.99,61.32,58.83,60.52,59.62,59.78C60.91,58.55,62.05,57.46,62.22,56.28Z" fill="currentColor"/><path d="M42.76,53.06C42.76,53.06,39.34,53.18,39.75,56.28C39.92,57.46,41.06,58.54,42.35,59.77C43.14,60.52,43.98,61.32,44.69,62.22C45.63,62.16,46.21,62.08,47.01,62.08L47.01,54.75C47.01,54.75,44.66,53.06,42.76,53.06Z" fill="currentColor"/><path d="M65.97,62.23C64.39,63.68,63.02,65.35,61.93,67.2C65.39,68.13,65.97,70.47,65.97,73.73L65.97,75.33L36.03,75.33L36.03,73.73C36.03,70.57,36.52,68.17,40.11,67.2C39,65.35,37.63,63.68,36.03,62.23C33.56,59.8,31.01,57.24,31.01,53.25C30.91,47.98,35.11,43.43,40.46,43.52C42.88,43.43,45.29,44.03,47.39,45.24L48.25,41.5L44.81,41.5L44.81,36.22L48.34,36.22L48.34,32.67L53.65,32.67L53.65,36.32L57.18,36.32L57.18,41.56L53.74,41.56L54.6,45.3C56.7,44.06,59.1,43.45,61.53,43.52C67.15,43.38,71.12,47.77,71,53.25C71,57.22,68.45,59.77,65.97,62.23Z" fill="currentColor"/><path d="M62.22,54.28C62.67,51.18,59.23,51.06,59.21,51.06C57.32,51.06,54.96,52.75,54.96,52.75L54.96,60.08C55.78,60.11,56.34,60.17,57.28,60.22C57.99,59.32,58.83,58.52,59.62,57.78C60.91,56.55,62.05,55.46,62.22,54.28Z" fill="currentColor"/><path d="M42.76,51.06C42.76,51.06,39.34,51.18,39.75,54.28C39.92,55.46,41.06,56.54,42.35,57.77C43.14,58.52,43.98,59.32,44.69,60.22C45.63,60.16,46.21,60.08,47.01,60.08L47.01,52.75C47.01,52.75,44.66,51.06,42.76,51.06Z" fill="currentColor"/><path d="M71,53.25C71.07,50.33,69.97,47.71,68.07,45.93C68.05,45.93,68.04,45.93,68.02,45.93C68.54,47.02,71.43,53.65,67.09,57.99L58.3,66.81L58.38,66.81C59.57,66.81,60.81,66.9,61.93,67.2C62.01,67.22,62.09,67.24,62.17,67.27C62.09,67.24,62.01,67.22,61.93,67.2C63.02,65.35,64.39,63.68,65.97,62.23C68.45,59.77,71,57.22,71,53.25Z" fill="currentColor"/><path d="M53.65,32.75L53.65,32.75L52.85,33.55L49.23,33.55L49.23,37.1L45.7,37.1L45.7,40.7L44.9,41.5L44.81,41.5L44.81,36.22L48.34,36.22L48.34,32.67L53.65,32.67Z" fill="currentColor"/><path d="M52.85,37.1L53.65,36.22L57.18,36.22L57.18,37.1Z" fill="currentColor"/><path d="M41.02,43.52L41.05,43.51L41.05,43.52Z" fill="currentColor"/><path d="M32.46,58.11C31.51,56.67,31.01,54.98,31.01,53.25C30.96,50.65,31.93,48.13,33.72,46.24C34.61,45.36,35.66,44.67,36.81,44.2C37.97,43.73,39.21,43.5,40.46,43.52L41.02,43.52C33.82,44.7,30.31,51.53,32.46,58.11Z" fill="currentColor"/><path d="M40.1,67.21C39.25,67.44,38.45,67.79,37.8,68.31C37.18,68.81,36.78,69.42,36.51,70.13C37.48,69.71,40.74,68.86,50.99,68.86C61.3,68.86,64.53,69.7,65.49,70.13C65.2,69.36,64.74,68.7,64.05,68.18C63.45,67.73,62.73,67.42,61.95,67.21L61.93,67.2C60.81,66.9,59.57,66.81,58.38,66.81L43.66,66.81C42.52,66.81,41.27,66.89,40.11,67.2Z" fill="currentColor"/></svg>