<svg xmlns="http://www.w3.org/2000/svg" viewBox="0 0 90 90"><path d="M8,15C3.58,15,0,18.58,0,23L0,77C0,81.42,3.58,85,8,85L82,85C86.42,85,90,81.42,90,77L90,23C90,18.58,86.42,15,82,15Z" fill="#543426"/><path d="M8,11C3.58,11,0,14.58,0,19L0,73C0,77.42,3.58,81,8,81L82,81C86.42,81,90,77.42,90,73L90,19C90,14.58,86.42,11,82,11Z" fill="#9D6C3E"/><path d="M0,31.59L0.67,19.81C0.9,15.8,4.07,12.58,8.08,12.29L25.72,11L8,11C3.58,11,0,14.58,0,19Z" fill="#CA9350"/><path d="M90,60.41L89.33,72.19C89.1,76.2,85.93,79.42,81.92,79.71L64.28,81L82,81C86.42,81,90,77.42,90,73Z" fill="#CA9350"/><path d="M82,77L8,77C5.79,77,4,75.21,4,73L4,15C4,12.79,5.79,11,8,11L82,11C84.21,11,86,12.79,86,15L86,73C86,75.21,84.21,77,82,77Z" fill="#6A4632"/><path d="M81,73L9,73C6.24,73,4,70.76,4,68L4,12C4,9.24,6.24,7,9,7L81,7C83.76,7,86,9.24,86,12L86,68C86,70.76,83.76,73,81,73Z" fill="#BEBDB9"/><path d="M77.28,70.75L45,73L12.72,70.75C10.63,70.61,9,68.86,9,66.76L9,11C9,8.79,10.79,7,13,7L77,7C79.21,7,81,8.79,81,11L81,66.76C81,68.86,79.37,70.61,77.28,70.75Z" fill="#8B8987"/><path d="M12.13,67.22C9.74,66.8,8,64.72,8,62.3L8,2.39C8,1.07,9.07,0,10.39,0C11.46,0,12.53,0.1,13.59,0.29L45,6L45,73Z" fill="#E7E6E5"/><path d="M77.87,67.22C80.26,66.8,82,64.72,82,62.3L82,2.39C82,1.07,80.93,0,79.61,0C78.54,0,77.47,0.1,76.41,0.29L45,6L45,73Z" fill="#F8F8F8"/><path d="M16,29.42L16,8L37,11.53L37,32.95Z" fill="#10777C"/><path d="M16,18.71L16,8L26.5,9.76L26.5,20.47Z" fill="#26C2A3"/><path d="M26.5,31.19L26.5,20.47L37,22.22L37,32.93Z" fill="#26C2A3"/><path d="M53,33.18L53,26.04L74,22.25L74,29.38Z" fill="#DAD8D6"/><path d="M53,47.45L53,40.31L74,36.5L74,43.63Z" fill="#DAD8D6"/><path d="M53,61.73L53,54.59L74,50.75L74,57.88Z" fill="#DAD8D6"/><path d="M53,18.9L53,11.76L74,8L74,15.13Z" fill="#DAD8D6"/><path d="M59,89.88L58.98,3.1L45,5.5L45,89.88L52,83.16L51.99,83.17Z" fill="#26C2A3"/><path d="M59,90L58.98,73L45,73L45,90L52,83.2L51.99,83.21Z" fill="#10777C"/><path d="M45,69L45,77L59,77L59,69Z" fill="#109888" opacity="0.5"/><path d="M37,47.45L37,40.31L16,36.5L16,43.63Z" fill="#BEBDB9"/><path d="M37,61.73L37,54.59L16,50.75L16,57.88Z" fill="#BEBDB9"/><path d="M59,60.63L59,53.49L61,53.13L61,60.26Z" fill="#8B8987"/><path d="M59,46.36L59,39.22L61,38.86L61,45.99Z" fill="#8B8987"/><path d="M59,32.09L59,24.96L61,24.6L61,31.73Z" fill="#8B8987"/><path d="M59,17.82L59,10.69L61,10.33L61,17.46Z" fill="#8B8987"/></svg>