<svg xmlns="http://www.w3.org/2000/svg" viewBox="0 0 90 90"><path d="M60.61,0.46C63.17,-0.27,65.71,1.65,65.71,4.31L65.71,14.57L11.82,29.9L10,14.98L10,14.97Z" fill="currentColor"/><path d="M20.06,23.81L72,8C72,8,67,6,62.34,3.41L11.5,18Z" fill="currentColor"/><path d="M22,22.81L72,8.02L72,45.77L22,58.11Z" fill="currentColor"/><path d="M22,20L22,90C17.49,90,12.91,88.55,10,84.92L10,14.98L10,14.97C12.5,18.5,16.75,20.07,22,20Z" fill="currentColor"/><path d="M76,90L22,90L22,20L76,20C78.21,20,80,21.79,80,24L80,86C80,88.21,78.21,90,76,90Z" fill="currentColor"/><path d="M64.14,37.5L64.14,46.47L49.18,46.47L49.18,52.9L62.99,52.9L62.99,60.55L49.18,60.55L49.18,67.14L64.25,67.14L64.25,76L38.4,76L38.4,37.5Z" fill="currentColor"/><path d="M64.14,35.5L64.14,44.47L49.18,44.47L49.18,50.9L62.99,50.9L62.99,58.55L49.18,58.55L49.18,65.14L64.25,65.14L64.25,74L38.4,74L38.4,35.5Z" fill="currentColor"/><path d="M38.4,35.5L38.4,74L39,74L39,37.5L63.75,37.5L63.75,44.47L64.14,44.47L64.14,35.5Z" fill="currentColor"/><path d="M48.57,45.64L48.57,53.12L62.49,53.12L62.49,58.55L62.99,58.55L62.99,50.9L49.18,50.9L49.18,45.64Z" fill="currentColor"/><path d="M48.57,60.27L48.57,67.97L63.86,67.97L63.86,74L64.25,74L64.25,65.14L49.18,65.14L49.18,60.27Z" fill="currentColor"/></svg>