<svg width="90" height="90" viewBox="0 0 90 90" fill="none" xmlns="http://www.w3.org/2000/svg">
<path d="M10.0039 14.9704L60.6113 0.462683C63.1673 -0.270059 65.7136 1.64882 65.7136 4.3078V14.5714L11.8219 29.8981L10 14.9799L10.0039 14.9704Z" fill="#543426"/>
<path d="M11.5 17.9999L20.0566 23.8121L72 7.99991C72 7.99991 67 5.99991 62.3407 3.41299L11.5 17.9999Z" fill="#E7E6E5"/>
<path d="M22 58.1141L22.0001 22.8118L72 8.0249V45.7711L22 58.1141Z" fill="#BEBDB9"/>
<path d="M10.0038 14.9704C12.5 18.4999 16.745 20.0712 22 20V89.9995C17.4927 89.9995 12.9117 88.5546 10 84.9162V14.9799L10.0038 14.9704Z" fill="#6A4632"/>
<path d="M22 20H76C78.2091 20 80 21.7909 80 24V86C80 88.2091 78.2091 90 76 90H22V20Z" fill="#9D6C3E"/>
<path d="M80 65V86C80 88.2091 78.2091 90 76 90H47L69.8605 88.4214C74.8736 88.0752 78.8512 84.0626 79.1535 79.0467L80 65Z" fill="#CA9350"/>
<path d="M80 65V86C80 88.2091 78.2091 90 76 90H47L69.8605 88.4214C74.8736 88.0752 78.8512 84.0626 79.1535 79.0467L80 65Z" fill="#CA9350"/>
<path d="M51 63.88L41 73L41.0303 26H61V73L51 63.88Z" fill="#6A4632"/>
<path d="M51 57.88L41 67L41.0303 20H61V67L51 57.88Z" fill="#E2B664"/>
<path d="M51 57.88V20H61V67L51 57.88Z" fill="#CA9350"/>
</svg>
