<svg xmlns="http://www.w3.org/2000/svg" viewBox="0 0 90 90"><path d="M60.61,0.46C63.17,-0.27,65.71,1.65,65.71,4.31L65.71,14.57L11.82,29.9L10,14.98L10,14.97Z" fill="currentColor"/><path d="M20.06,23.81L72,8C72,8,67,6,62.34,3.41L11.5,18Z" fill="currentColor"/><path d="M22,22.81L72,8.02L72,45.77L22,58.11Z" fill="currentColor"/><path d="M22,20L22,90C17.49,90,12.91,88.55,10,84.92L10,14.98L10,14.97C12.5,18.5,16.75,20.07,22,20Z" fill="currentColor"/><path d="M76,20C78.21,20,80,21.79,80,24L80,86C80,88.21,78.21,90,76,90L22,90L22,20Z" fill="currentColor"/><path d="M80,86C80,88.21,78.21,90,76,90L47,90L69.86,88.42C74.87,88.08,78.85,84.06,79.15,79.05L80,65Z" fill="currentColor"/><path d="M67.75,44.19C67.75,37.46,60.65,32,51.88,32C43.11,32,36,37.46,36,44.19C36,50.21,41.68,55.22,49.16,56.21C49.06,56.52,49,56.85,49,57.2L49,69.79L44.51,69.79L44.51,65.67L40.21,65.67L40.21,78.04L44.51,78.04L44.51,73.91L49,73.91L49,78.43C49,80.2,50.43,81.63,52.2,81.63C53.97,81.63,55.4,80.2,55.4,78.43L55.4,57.2C55.4,56.82,55.34,56.46,55.21,56.12C62.38,54.94,67.75,50.05,67.75,44.19Z" fill="currentColor"/><path d="M47.14,49.28C44.28,49.28,41.96,46.96,41.96,44.11C41.96,41.25,44.28,38.93,47.14,38.93C49.27,38.93,51.1,40.22,51.9,42.06C52.71,40.27,54.52,39.02,56.61,39.02C59.47,39.02,61.79,41.33,61.79,44.19C61.79,47.05,59.47,49.37,56.61,49.37C54.48,49.37,52.65,48.08,51.86,46.24C51.05,48.03,49.24,49.28,47.14,49.28Z" fill="currentColor"/><path d="M67.75,42.19C67.75,35.46,60.65,30,51.88,30C43.11,30,36,35.46,36,42.19C36,48.17,41.6,53.15,49,54.19L49,67.79L44.51,67.79L44.51,63.67L40.21,63.67L40.21,76.04L44.51,76.04L44.51,71.91L49,71.91L49,76.43C49,78.2,50.43,79.63,52.2,79.63C53.97,79.63,55.4,78.2,55.4,76.43L55.4,54.08C62.48,52.85,67.75,48,67.75,42.19Z" fill="currentColor"/><path d="M47.14,47.28C44.28,47.28,41.96,44.96,41.96,42.11C41.96,39.25,44.28,36.93,47.14,36.93C49.27,36.93,51.1,38.22,51.9,40.06C52.71,38.27,54.52,37.02,56.61,37.02C59.47,37.02,61.79,39.33,61.79,42.19C61.79,45.05,59.47,47.37,56.61,47.37C54.48,47.37,52.65,46.08,51.86,44.24C51.05,46.03,49.24,47.28,47.14,47.28Z" fill="currentColor"/><path d="M51.5,30.07L48.39,30.75C39.87,32.61,35.94,41.19,38.19,48.38C36.8,46.56,36,44.45,36,42.19C36,35.64,42.74,30.29,51.19,30.01Z" fill="currentColor"/><path d="M55.4,54.08L55.4,76.43C55.4,78.2,53.97,79.63,52.2,79.63C51.61,79.63,51.06,79.47,50.58,79.19C52.06,77.56,52.94,75.41,52.94,73.11L52.94,54L53,54C63.6,54,69.3,42.08,63.53,33.91C66.15,36.08,67.75,38.99,67.75,42.19C67.75,48,62.48,52.85,55.4,54.08Z" fill="currentColor"/></svg>