<svg xmlns="http://www.w3.org/2000/svg" viewBox="0 0 90 90"><path d="M87.65,65.08L83.96,67.43L83.65,63.34Z" fill="#CA9350"/><path d="M87.38,51.06L83.69,53.4L83.38,49.32Z" fill="#CA9350"/><path d="M87.79,36.9L84.1,39.24L83.78,35.16Z" fill="#CA9350"/><path d="M53.39,84.71L51.52,43.86L86.16,25.79C86.16,25.79,84.29,33.1,86.16,37.76C86.28,38.07,86.2,39.21,86.2,39.21C86.2,39.21,83.96,47.8,86.16,51.97C86.5,52.61,86.04,53.21,86.04,53.21C86.04,53.21,84.3,59.91,86.16,65.94L86.17,65.94Z" fill="#E7E6E5"/><path d="M85.45,30.31C85.67,27.77,86.17,25.79,86.17,25.79L51.53,43.86L52.02,54.73L53.97,55.74C53.99,51.29,55.78,47.28,55.78,47.28L55.77,47.28Z" fill="#BEBDB9"/><path d="M85.34,44.29C85.48,42.87,85.7,41.59,85.88,40.67L85.88,39.87L52.15,57.4L52.69,69.23L53.69,69.75C53.71,65.3,55.5,61.29,55.5,61.29L55.5,61.3Z" fill="#BEBDB9"/><path d="M85.33,58.68C85.4,56.83,85.63,55.26,85.81,54.29L52.79,71.51L53.35,83.73L53.97,84.05C53.99,79.6,55.78,75.59,55.78,75.59L55.77,75.59Z" fill="#BEBDB9"/><path d="M54.78,72.09L54.78,72.1C53.29,75.53,53.29,80.48,53.97,84.05L87.66,65.08L88.47,65.49L88.48,65.5C89.7,65.92,89.84,66.74,88.89,67.29L55.06,86.26L1.26,64.4C-1.06,59.59,-1.05,53.54,1.12,50.24C-1.33,45.42,-0.65,39.5,1.39,36.07C0.17,33.87,-0.25,31.67,-0.25,29.75C-0.25,27.42,0.43,25.35,1.52,23.56L54.65,45.15C53.84,47.08,53.43,49.13,53.43,51.06C53.43,52.72,53.7,54.23,53.97,55.74L87.66,36.91L87.79,36.91L88.61,37.18C89.15,37.45,89.56,37.87,89.43,38.14C89.43,38.42,89.29,38.69,88.88,38.97L55.07,58.06L55.07,58.06C53.58,61.5,53.03,66.18,53.71,69.75L87.4,51.05L88.34,51.33C89.43,51.74,89.56,52.56,88.61,53.11Z" fill="#9D6C3E"/><path d="M39.29,4.05C38.2,3.64,36.44,3.64,35.62,4.19L1.52,23.56L54.64,45.15L88.74,25.9C89.69,25.35,89.55,24.52,88.47,24.11Z" fill="#CA9350"/><path d="M1.01,36.83C1.06,36.73,1.11,36.63,1.16,36.53C1.23,36.37,1.3,36.21,1.39,36.07C1.17,35.69,1.01,35.31,0.85,34.93C0.84,34.91,0.83,34.88,0.82,34.86L55.05,58.07L54.71,57.93Z" fill="#6A4632"/><path d="M1.12,50.24C0.95,49.91,0.81,49.56,0.68,49.22C0.65,49.15,0.63,49.08,0.6,49.01L54.78,72.1L0.72,51.01C0.75,50.94,0.79,50.87,0.82,50.8C0.92,50.6,1.01,50.41,1.12,50.24Z" fill="#6A4632"/><path d="M68.49,23.82C64.82,22.41,61.17,22.76,57.61,23.1C54.26,23.44,51.1,23.76,48.06,22.59L46.75,22.09L49.37,20.65C49.06,20.22,48.47,19.87,47.74,19.58L42.5,20.46C42.9,19.22,42.02,18.23,40.35,17.58C37.57,16.52,33.3,16.77,30.82,18.13C28.34,19.5,28.59,21.48,31.37,22.54C33.04,23.18,35.32,23.4,37.97,23.01L36.98,25.52C37.71,25.8,38.59,26,39.54,26.06L42.16,24.62L43.47,25.12C46.51,26.29,46.4,27.77,46.29,29.35C46.2,31.02,46.11,32.73,49.78,34.14Z" fill="#9D6C3E"/><path d="M68.37,22.81C64.7,21.41,61.04,21.76,57.49,22.1C54.13,22.43,50.97,22.76,47.93,21.59L46.62,21.09L49.24,19.64C48.94,19.22,48.35,18.86,47.61,18.58L42.38,19.46C42.77,18.22,41.9,17.23,40.22,16.58C37.44,15.52,33.18,15.77,30.7,17.13C28.22,18.5,28.46,20.47,31.24,21.54C32.92,22.18,35.19,22.4,37.84,22.01L36.85,24.52C37.59,24.8,38.46,25,39.42,25.06L42.04,23.62L43.35,24.12C46.39,25.28,46.27,26.77,46.17,28.35C46.07,30.02,45.99,31.73,49.66,33.14Z" fill="#F7C631"/></svg>