<svg xmlns="http://www.w3.org/2000/svg" viewBox="0 0 90 90"><path d="M60.61,0.46C63.17,-0.27,65.71,1.65,65.71,4.31L65.71,14.57L11.82,29.9L10,14.98L10,14.97Z" fill="currentColor"/><path d="M20.06,23.81L72,8C72,8,67,6,62.34,3.41L11.5,18Z" fill="currentColor"/><path d="M22,22.81L72,8.02L72,45.77L22,58.11Z" fill="currentColor"/><path d="M22,20L22,90C17.49,90,12.91,88.55,10,84.92L10,14.98L10,14.97C12.5,18.5,16.75,20.07,22,20Z" fill="currentColor"/><path d="M76,90L22,90L22,20L76,20C78.21,20,80,21.79,80,24L80,86C80,88.21,78.21,90,76,90Z" fill="currentColor"/><path d="M52.13,37.5C56.86,37.5,60.45,38.47,62.91,40.41C65.37,42.32,66.59,44.87,66.59,48.06C66.59,50.11,66.08,51.91,65.05,53.45C64.06,54.95,62.63,56.13,60.76,56.97C58.89,57.78,56.69,58.18,54.16,58.18L54.66,54.83C57.3,54.83,59.57,55.25,61.48,56.09C63.42,56.93,64.91,58.14,65.93,59.72C66.96,61.26,67.47,63.09,67.47,65.22C67.47,68.52,66.21,71.14,63.68,73.08C61.15,75.03,57.46,76,52.62,76L35.96,76L35.96,37.5Z" fill="currentColor"/><path d="M55.48,66.27C56.33,65.68,56.75,64.82,56.75,63.68C56.75,62.54,56.33,61.72,55.48,61.2C54.68,60.66,53.47,60.38,51.85,60.38L45.97,60.38L45.97,52.9L51.08,52.9C52.62,52.9,53.8,52.64,54.6,52.13C55.41,51.62,55.81,50.81,55.81,49.71C55.81,48.61,55.41,47.78,54.6,47.23C53.8,46.65,52.62,46.35,51.08,46.35L46.74,46.35L46.74,67.09L51.85,67.09C53.43,67.09,54.64,66.81,55.48,66.27Z" fill="currentColor"/><path d="M52.13,35.5C56.86,35.5,60.45,36.47,62.91,38.41C65.37,40.32,66.59,42.87,66.59,46.06C66.59,48.11,66.08,49.91,65.05,51.45C64.06,52.95,62.63,54.13,60.76,54.97C58.89,55.78,56.69,56.18,54.16,56.18L54.66,52.83C57.3,52.83,59.57,53.25,61.48,54.09C63.42,54.93,64.91,56.14,65.93,57.72C66.96,59.26,67.47,61.09,67.47,63.22C67.47,66.52,66.21,69.14,63.68,71.08C61.15,73.03,57.46,74,52.62,74L35.96,74L35.96,35.5Z" fill="currentColor"/><path d="M55.48,64.27C56.33,63.68,56.75,62.82,56.75,61.68C56.75,60.54,56.33,59.72,55.48,59.2C54.68,58.66,53.47,58.38,51.85,58.38L45.97,58.38L45.97,50.9L51.08,50.9C52.62,50.9,53.8,50.64,54.6,50.13C55.41,49.62,55.81,48.81,55.81,47.71C55.81,46.61,55.41,45.78,54.6,45.23C53.8,44.65,52.62,44.35,51.08,44.35L46.74,44.35L46.74,65.09L51.85,65.09C53.43,65.09,54.64,64.81,55.48,64.27Z" fill="currentColor"/><path d="M35.96,35.5L35.96,74L36.61,74L36.61,37.5L51.9,37.5C56.45,37.5,59.93,38.45,62.35,40.36C64.77,42.23,65.98,44.76,65.98,47.95C65.98,48.73,65.91,49.46,65.77,50.16C66.32,48.93,66.59,47.56,66.59,46.06C66.59,42.87,65.37,40.32,62.91,38.41C60.45,36.47,56.86,35.5,52.13,35.5Z" fill="currentColor"/><path d="M63.13,54.96C64.28,55.7,65.22,56.62,65.93,57.72C66.96,59.26,67.47,61.09,67.47,63.22C67.47,64.62,67.25,65.89,66.79,67.05C66.87,66.5,66.92,65.93,66.92,65.33C66.92,63.2,66.42,61.37,65.43,59.83C64.47,58.29,63.1,57.12,61.34,56.32C62,55.92,62.6,55.47,63.13,54.96Z" fill="currentColor"/><path d="M51.85,65.09L46.74,65.09L46.74,60.16L46.18,60.16L46.18,67.86L51.73,67.86C53.53,67.86,54.91,67.55,55.86,66.92C56.81,66.27,57.29,65.28,57.29,63.95C57.29,63.14,57.11,62.46,56.74,61.93C56.68,62.94,56.27,63.72,55.48,64.27C54.64,64.81,53.43,65.09,51.85,65.09Z" fill="currentColor"/><path d="M50.97,53.12C52.73,53.12,54.06,52.83,54.98,52.24C55.9,51.62,56.35,50.68,56.35,49.44C56.35,48.62,56.17,47.94,55.8,47.39C55.81,47.5,55.81,47.6,55.81,47.71C55.81,48.81,55.41,49.62,54.6,50.13C53.8,50.64,52.62,50.9,51.08,50.9L46.74,50.9L46.74,45.59L46.18,45.59L46.18,50.9L46.18,53.12L46.74,53.12Z" fill="currentColor"/></svg>