<svg xmlns="http://www.w3.org/2000/svg" viewBox="0 0 90 90"><path d="M60.61,0.46C63.17,-0.27,65.71,1.65,65.71,4.31L65.71,14.57L11.82,29.9L10,14.98L10,14.97Z" fill="#543426"/><path d="M20.06,23.81L72,8C72,8,67,6,62.34,3.41L11.5,18Z" fill="#E7E6E5"/><path d="M22,22.81L72,8.02L72,45.77L22,58.11Z" fill="#BEBDB9"/><path d="M22,20L22,90C17.49,90,12.91,88.55,10,84.92L10,14.98L10,14.97C12.5,18.5,16.75,20.07,22,20Z" fill="#6A4632"/><path d="M76,20C78.21,20,80,21.79,80,24L80,86C80,88.21,78.21,90,76,90L22,90L22,20Z" fill="#9D6C3E"/><path d="M80,86C80,88.21,78.21,90,76,90L47,90L69.86,88.42C74.87,88.08,78.85,84.06,79.15,79.05L80,65Z" fill="#CA9350"/><path d="M39.58,58.66L39.59,58.67C39.28,58.98,35.67,58.09,34.41,57.02C33.46,56.22,33.34,54.72,34.23,53.63L37.67,48.79C38.75,47.21,39.11,46.15,39.53,44.86C39.71,44.33,39.9,43.76,40.16,43.1C40.17,43.06,40.19,43.02,40.21,42.98C40.45,42.36,40.77,41.53,41.82,40.67C42.94,39.74,43.66,39.01,44.1,37.94L44.53,35.87C44.68,35.24,45.23,34.67,45.77,34.67L49.57,38.46C57,38.97,65.31,44.37,65.31,56.68C65.31,59.04,64.23,62.83,63.5,65.43C63.21,66.44,62.97,67.27,62.87,67.77C62.87,67.77,62.71,68.32,62.61,69.25C68.41,70.22,68.38,74.58,68.38,74.58L68.38,77.33L35.33,77.33L35.33,74.58C35.33,74.58,35.3,69.78,41.99,69.13L42.06,67.77C42.47,63.65,46.19,60.63,48.37,58.86L48.45,58.8C49.8,57.71,51.18,56.47,51.67,54.74C52.21,52.87,50.99,51.19,50.56,50.66L49.43,51.96C48.3,53.15,46.27,55.23,44,55.24C41.92,55.25,41.27,56.27,40.59,57.34C40.29,57.8,40,58.26,39.58,58.66Z" fill="#6A4632"/><path d="M39.58,56.66L39.59,56.67C39.28,56.98,35.67,56.09,34.41,55.02C33.46,54.22,33.34,52.72,34.23,51.63L37.67,46.79C38.75,45.21,39.11,44.15,39.53,42.86C39.71,42.33,39.9,41.76,40.16,41.1C40.17,41.06,40.19,41.02,40.21,40.98C40.45,40.36,40.77,39.53,41.82,38.67C42.94,37.74,43.66,37.01,44.1,35.94L44.53,33.87C44.68,33.24,45.23,32.67,45.77,32.67L49.57,36.46C57,36.97,65.31,42.37,65.31,54.68C65.31,57.04,64.23,60.83,63.5,63.43C63.21,64.44,62.97,65.27,62.87,65.77C62.87,65.77,62.71,66.32,62.61,67.25C68.41,68.22,68.38,72.58,68.38,72.58L68.38,75.33L35.33,75.33L35.33,72.58C35.33,72.58,35.3,67.78,41.99,67.13L42.06,65.77C42.47,61.65,46.19,58.63,48.37,56.86L48.45,56.8C49.8,55.71,51.18,54.47,51.67,52.74C52.21,50.87,50.99,49.19,50.56,48.66L49.43,49.96C48.3,51.15,46.27,53.23,44,53.24C41.92,53.25,41.27,54.27,40.59,55.34C40.29,55.8,40,56.26,39.58,56.66Z" fill="#FAD541"/><path d="M49.4,36.4C49.44,36.4,49.47,36.4,49.51,36.4L49.53,36.42C49.45,36.41,49.4,36.4,49.4,36.4Z" fill="#E3AA24"/><path d="M62.87,65.77C62.97,65.27,63.21,64.44,63.5,63.43C64.23,60.83,65.31,57.04,65.31,54.68C65.31,42.54,57.23,37.12,49.88,36.49C52.17,36.94,61.91,39.47,61.91,50.15C61.91,55.15,59.87,58.38,57.98,61.39C56.81,63.24,55.7,65.01,55.14,67.06C56.54,66.93,62.63,67.25,62.63,67.25C62.72,66.34,62.87,65.77,62.87,65.77Z" fill="#E3AA24"/><path d="M44.81,53.14C44.27,52.87,43.82,52.59,43.42,52.34C41.99,51.45,41.4,51.09,40.62,53.45C40.14,54.89,39.54,55.76,39.16,56.3C39.05,56.45,38.96,56.58,38.9,56.69C39.25,56.73,39.51,56.73,39.58,56.66C40,56.26,40.29,55.79,40.59,55.33C41.27,54.26,41.92,53.24,44,53.23C44.27,53.23,44.54,53.2,44.81,53.14L44.81,53.15L44.81,53.14Z" fill="#E3AA24"/><path d="M52.34,45.58C51.81,46.6,50.49,48.68,50.49,48.68C50.49,48.68,50.48,48.71,50.46,48.77L50.56,48.66C50.98,49.17,52.1,50.75,51.7,52.54C52.49,50.49,53.01,48.19,53,47.37C52.98,46.47,52.88,44.55,52.34,45.58Z" fill="#E3AA24"/><path d="M34.22,51.62L34.22,51.61C33.71,52.23,33.57,52.98,33.68,53.66C34.57,52.57,39.17,46.89,39.82,46.02C40.24,45.46,40.45,44.72,40.67,43.89C41.16,42.12,41.77,39.91,44.85,37.99C47.21,36.52,45.61,32.73,45.61,32.73C45.54,32.73,45.48,32.74,45.41,32.75C45.39,32.76,45.38,32.76,45.36,32.76C44.97,32.95,44.64,33.39,44.53,33.86L44.09,35.93C43.66,37,42.93,37.73,41.81,38.66C40.75,39.53,40.43,40.36,40.19,40.98C40.18,41.02,40.17,41.06,40.15,41.09C39.89,41.75,39.7,42.32,39.53,42.85C39.1,44.14,38.75,45.2,37.66,46.78Z" fill="#FFF599"/><path d="M36.11,70.18C36.65,69.89,39.47,68.86,51.97,68.86C62.93,68.86,66.45,69.65,67.52,70.04C66.55,68.59,64.51,67.06,60.15,67.06L43.57,67.06C39.07,67.06,37.04,68.69,36.11,70.18Z" fill="#FFF599"/></svg>