<svg xmlns="http://www.w3.org/2000/svg" viewBox="0 0 90 90"><path d="M8,15C3.58,15,0,18.58,0,23L0,77C0,81.42,3.58,85,8,85L82,85C86.42,85,90,81.42,90,77L90,23C90,18.58,86.42,15,82,15Z" fill="currentColor"/><path d="M8,11C3.58,11,0,14.58,0,19L0,73C0,77.42,3.58,81,8,81L82,81C86.42,81,90,77.42,90,73L90,19C90,14.58,86.42,11,82,11Z" fill="currentColor"/><path d="M0,31.59L0.67,19.81C0.9,15.8,4.07,12.58,8.08,12.29L25.72,11L8,11C3.58,11,0,14.58,0,19Z" fill="currentColor"/><path d="M90,60.41L89.33,72.19C89.1,76.2,85.93,79.42,81.92,79.71L64.28,81L82,81C86.42,81,90,77.42,90,73Z" fill="currentColor"/><path d="M82,77L8,77C5.79,77,4,75.21,4,73L4,15C4,12.79,5.79,11,8,11L82,11C84.21,11,86,12.79,86,15L86,73C86,75.21,84.21,77,82,77Z" fill="currentColor"/><path d="M81,73L9,73C6.24,73,4,70.76,4,68L4,12C4,9.24,6.24,7,9,7L81,7C83.76,7,86,9.24,86,12L86,68C86,70.76,83.76,73,81,73Z" fill="currentColor"/><path d="M77.28,70.75L45,73L12.72,70.75C10.63,70.61,9,68.86,9,66.76L9,11C9,8.79,10.79,7,13,7L77,7C79.21,7,81,8.79,81,11L81,66.76C81,68.86,79.37,70.61,77.28,70.75Z" fill="currentColor"/><path d="M12.13,67.22C9.74,66.8,8,64.72,8,62.3L8,2.39C8,1.07,9.07,0,10.39,0C11.46,0,12.53,0.1,13.59,0.29L45,6L45,73Z" fill="currentColor"/><path d="M77.87,67.22C80.26,66.8,82,64.72,82,62.3L82,2.39C82,1.07,80.93,0,79.61,0C78.54,0,77.47,0.1,76.41,0.29L45,6L45,73Z" fill="currentColor"/></svg>