<svg xmlns="http://www.w3.org/2000/svg" viewBox="0 0 90 90"><path d="M87.65,65.08L83.96,67.43L83.65,63.34Z" fill="#CA9350"/><path d="M87.65,65.08L83.96,67.43L83.65,63.34Z" fill="#CA9350"/><path d="M87.38,51.06L83.69,53.4L83.38,49.32Z" fill="#CA9350"/><path d="M87.38,51.06L83.69,53.4L83.38,49.32Z" fill="#CA9350"/><path d="M87.79,36.9L84.1,39.24L83.78,35.16Z" fill="#CA9350"/><path d="M87.79,36.9L84.1,39.24L83.78,35.16Z" fill="#CA9350"/><path d="M53.39,84.71L51.52,43.86L86.16,25.79C86.16,25.79,84.29,33.1,86.16,37.76C86.28,38.07,86.2,39.21,86.2,39.21C86.2,39.21,83.96,47.8,86.16,51.97C86.5,52.61,86.04,53.21,86.04,53.21C86.04,53.21,84.3,59.91,86.16,65.94L86.17,65.94Z" fill="#E7E6E5"/><path d="M53.39,84.71L51.52,43.86L86.16,25.79C86.16,25.79,84.29,33.1,86.16,37.76C86.28,38.07,86.2,39.21,86.2,39.21C86.2,39.21,83.96,47.8,86.16,51.97C86.5,52.61,86.04,53.21,86.04,53.21C86.04,53.21,84.3,59.91,86.16,65.94L86.17,65.94Z" fill="#E7E6E5"/><path d="M85.45,30.31C85.67,27.77,86.17,25.79,86.17,25.79L51.53,43.86L52.02,54.73L53.97,55.74C53.99,51.29,55.78,47.28,55.78,47.28L55.77,47.28Z" fill="#BEBDB9"/><path d="M85.45,30.31C85.67,27.77,86.17,25.79,86.17,25.79L51.53,43.86L52.02,54.73L53.97,55.74C53.99,51.29,55.78,47.28,55.78,47.28L55.77,47.28Z" fill="#BEBDB9"/><path d="M85.34,44.29C85.48,42.87,85.7,41.59,85.88,40.67L85.88,39.87L52.15,57.4L52.69,69.23L53.69,69.75C53.71,65.3,55.5,61.29,55.5,61.29L55.5,61.3Z" fill="#BEBDB9"/><path d="M85.34,44.29C85.48,42.87,85.7,41.59,85.88,40.67L85.88,39.87L52.15,57.4L52.69,69.23L53.69,69.75C53.71,65.3,55.5,61.29,55.5,61.29L55.5,61.3Z" fill="#BEBDB9"/><path d="M85.33,58.68C85.4,56.83,85.63,55.26,85.81,54.29L52.79,71.51L53.35,83.73L53.97,84.05C53.99,79.6,55.78,75.59,55.78,75.59L55.77,75.59Z" fill="#BEBDB9"/><path d="M85.33,58.68C85.4,56.83,85.63,55.26,85.81,54.29L52.79,71.51L53.35,83.73L53.97,84.05C53.99,79.6,55.78,75.59,55.78,75.59L55.77,75.59Z" fill="#BEBDB9"/><path d="M54.78,72.09L54.78,72.1C53.29,75.53,53.29,80.48,53.97,84.05L87.66,65.08L88.47,65.49L88.48,65.5C89.7,65.92,89.84,66.74,88.89,67.29L55.06,86.26L1.26,64.4C-1.06,59.59,-1.05,53.54,1.12,50.24C-1.33,45.42,-0.65,39.5,1.39,36.07C0.17,33.87,-0.25,31.67,-0.25,29.75C-0.25,27.42,0.43,25.35,1.52,23.56L54.65,45.15C53.84,47.08,53.43,49.13,53.43,51.06C53.43,52.72,53.7,54.23,53.97,55.74L87.66,36.91L87.79,36.91L88.61,37.18C89.15,37.45,89.56,37.87,89.43,38.14C89.43,38.42,89.29,38.69,88.88,38.97L55.07,58.06L55.07,58.06C53.58,61.5,53.03,66.18,53.71,69.75L87.4,51.05L88.34,51.33C89.43,51.74,89.56,52.56,88.61,53.11Z" fill="#9D6C3E"/><path d="M54.78,72.09L54.78,72.1C53.29,75.53,53.29,80.48,53.97,84.05L87.66,65.08L88.47,65.49L88.48,65.5C89.7,65.92,89.84,66.74,88.89,67.29L55.06,86.26L1.26,64.4C-1.06,59.59,-1.05,53.54,1.12,50.24C-1.33,45.42,-0.65,39.5,1.39,36.07C0.17,33.87,-0.25,31.67,-0.25,29.75C-0.25,27.42,0.43,25.35,1.52,23.56L54.65,45.15C53.84,47.08,53.43,49.13,53.43,51.06C53.43,52.72,53.7,54.23,53.97,55.74L87.66,36.91L87.79,36.91L88.61,37.18C89.15,37.45,89.56,37.87,89.43,38.14C89.43,38.42,89.29,38.69,88.88,38.97L55.07,58.06L55.07,58.06C53.58,61.5,53.03,66.18,53.71,69.75L87.4,51.05L88.34,51.33C89.43,51.74,89.56,52.56,88.61,53.11Z" fill="#9D6C3E"/><path d="M39.29,4.05C38.2,3.64,36.44,3.64,35.62,4.19L1.52,23.56L54.64,45.15L88.74,25.9C89.69,25.35,89.55,24.52,88.47,24.11Z" fill="#CA9350"/><path d="M39.29,4.05C38.2,3.64,36.44,3.64,35.62,4.19L1.52,23.56L54.64,45.15L88.74,25.9C89.69,25.35,89.55,24.52,88.47,24.11Z" fill="#CA9350"/><path d="M1.01,36.83C1.06,36.73,1.11,36.63,1.16,36.53C1.23,36.37,1.3,36.21,1.39,36.07C1.17,35.69,1.01,35.31,0.85,34.93C0.84,34.91,0.83,34.88,0.82,34.86L55.05,58.07L54.71,57.93Z" fill="#6A4632"/><path d="M1.12,50.24C0.95,49.91,0.81,49.56,0.68,49.22C0.65,49.15,0.63,49.08,0.6,49.01L54.78,72.1L0.72,51.01C0.75,50.94,0.79,50.87,0.82,50.8C0.92,50.6,1.01,50.41,1.12,50.24Z" fill="#6A4632"/><path d="M1.01,36.83C1.06,36.73,1.11,36.63,1.16,36.53C1.23,36.37,1.3,36.21,1.39,36.07C1.17,35.69,1.01,35.31,0.85,34.93C0.84,34.91,0.83,34.88,0.82,34.86L55.05,58.07L54.71,57.93Z" fill="#6A4632"/><path d="M1.12,50.24C0.95,49.91,0.81,49.56,0.68,49.22C0.65,49.15,0.63,49.08,0.6,49.01L54.78,72.1L0.72,51.01C0.75,50.94,0.79,50.87,0.82,50.8C0.92,50.6,1.01,50.41,1.12,50.24Z" fill="#6A4632"/><path d="M42.72,25.41L50.4,28.72L47.9,29.99L45.98,29.15C45.6,28.99,43.57,27.95,43.2,28.15L43.2,29.63C43.2,30.04,43.1,30.25,43.48,30.41L49.87,33.15C50.26,33.34,50.76,33.3,51.15,33.13L52.4,32.51C52.72,32.36,52.64,32.06,52.64,31.69L52.64,30.18L52.94,29.83L57.55,31.81C58.67,32.3,60.25,32.29,61.34,31.71C62.1,31.31,62.04,29.99,62.04,28.79L46.44,23.54C47.72,22.68,49.16,21.36,49.21,19.7C49.28,15.04,41.16,15.27,38.22,15.5C33.85,15.84,26.04,17.25,24.89,22.19C23.91,26.65,31.69,27.09,34.66,26.98C37.39,26.88,40.16,26.37,42.72,25.41Z" fill="#9D6C3E"/><path d="M35.62,20.57L35.62,18.96C36.57,18.09,38.95,17.65,39.85,17.62C41.09,17.62,44.48,17.73,44.48,19.62C44.59,21.1,42.03,21.68,40.97,21.81C40.13,21.91,39.3,21.91,38.5,21.81C38.78,22.17,38.85,22.55,38.69,22.95C38.13,24.45,35.69,24.74,34.29,24.76C32.98,24.78,29.71,24.66,29.64,22.74L29.62,22.74C29.62,20.43,33.99,20.35,35.62,20.57Z" fill="#9D6C3E"/><path d="M42.72,24.41L50.4,27.72L47.9,28.99L45.98,28.15C45.6,27.99,45.08,28,44.71,28.19L43.48,28.83C43.14,28.99,43.1,29.25,43.48,29.41L49.87,32.15C50.26,32.34,50.76,32.3,51.15,32.13L52.4,31.51C52.72,31.36,52.72,31.06,52.4,30.91L50.44,30.1L52.94,28.83L57.55,30.81C58.67,31.3,60.25,31.29,61.34,30.71C62.29,30.21,62.27,29.38,61.28,28.95L46.44,22.54C47.72,21.68,49.16,20.36,49.21,18.7C49.28,14.04,41.16,14.27,38.22,14.5C33.85,14.84,26.04,16.25,24.89,21.19C23.91,25.65,31.69,26.09,34.66,25.98C37.39,25.88,40.16,25.37,42.72,24.41Z" fill="#6A4632"/><path d="M35.62,19.57C34.03,17.6,38.51,16.67,39.85,16.62C41.09,16.62,44.48,16.73,44.48,18.62C44.59,20.1,42.03,20.68,40.97,20.81C40.13,20.91,39.3,20.91,38.5,20.81C38.78,21.17,38.85,21.55,38.69,21.95C38.13,23.45,35.69,23.74,34.29,23.76C32.98,23.78,29.71,23.66,29.64,21.74L29.62,21.74C29.62,19.43,33.99,19.35,35.62,19.57Z" fill="#6A4632"/><path d="M42.72,23.41L50.4,26.72L47.9,27.99L45.98,27.15C45.6,26.99,45.08,27,44.71,27.19L43.48,27.83C43.14,27.99,43.1,28.25,43.48,28.41L49.87,31.15C50.26,31.34,50.76,31.3,51.15,31.13L52.4,30.51C52.72,30.36,52.72,30.06,52.4,29.91L50.44,29.1L52.94,27.83L57.55,29.81C58.67,30.3,60.25,30.29,61.34,29.71C62.29,29.21,62.27,28.38,61.28,27.95L46.44,21.54C47.72,20.68,49.16,19.36,49.21,17.7C49.28,13.04,41.16,13.27,38.22,13.5C33.85,13.84,26.04,15.25,24.89,20.19C23.91,24.65,31.69,25.09,34.66,24.98C37.39,24.88,40.16,24.37,42.72,23.41Z" fill="#F7C631"/><path d="M35.62,18.57C34.03,16.6,38.51,15.67,39.85,15.62C41.09,15.62,44.48,15.73,44.48,17.62C44.59,19.1,42.03,19.68,40.97,19.81C40.13,19.91,39.3,19.91,38.5,19.81C38.78,20.17,38.85,20.55,38.69,20.95C38.13,22.45,35.69,22.74,34.29,22.76C32.98,22.78,29.71,22.66,29.64,20.74L29.62,20.74C29.62,18.43,33.99,18.35,35.62,18.57Z" fill="#F7C631"/><path d="M42.72,23.41L50.4,26.72L47.9,27.99L45.98,27.15C45.6,26.99,45.08,27,44.71,27.19L43.48,27.83C43.14,27.99,43.1,28.25,43.48,28.41L49.87,31.15C50.26,31.34,50.76,31.3,51.15,31.13L52.4,30.51C52.72,30.36,52.72,30.06,52.4,29.91L50.44,29.1L52.94,27.83L57.55,29.81C58.67,30.3,60.25,30.29,61.34,29.71C62.29,29.21,62.27,28.38,61.28,27.95L46.44,21.54C47.72,20.68,49.16,19.36,49.21,17.7C49.28,13.04,41.16,13.27,38.22,13.5C33.85,13.84,26.04,15.25,24.89,20.19C23.91,24.65,31.69,25.09,34.66,24.98C37.39,24.88,40.16,24.37,42.72,23.41Z" fill="#F7C631"/><path d="M35.62,18.57C34.03,16.6,38.51,15.67,39.85,15.62C41.09,15.62,44.48,15.73,44.48,17.62C44.59,19.1,42.03,19.68,40.97,19.81C40.13,19.91,39.3,19.91,38.5,19.81C38.78,20.17,38.85,20.55,38.69,20.95C38.13,22.45,35.69,22.74,34.29,22.76C32.98,22.78,29.71,22.66,29.64,20.74L29.62,20.74C29.62,18.43,33.99,18.35,35.62,18.57Z" fill="#F7C631"/></svg>