<svg xmlns="http://www.w3.org/2000/svg" viewBox="0 0 90 90"><path d="M87.92,60.37L84.23,63.11L83.92,58.33Z" fill="#9D6C3E"/><path d="M88.33,43.8L84.64,46.53L84.32,41.76Z" fill="#9D6C3E"/><path d="M52.02,51.94L86.7,30.79C86.7,30.79,84.83,39.35,86.7,44.8C86.82,45.16,86.74,46.5,86.74,46.5C86.74,46.5,84.5,56.55,86.7,61.44L52.96,83.87Z" fill="#E7E6E5"/><path d="M85.99,36.08C86.21,33.11,86.71,30.79,86.71,30.79L52.03,51.94L52.52,64.67L54.48,65.85C54.5,60.64,56.29,55.95,56.29,55.95L56.28,55.95Z" fill="#BEBDB9"/><path d="M85.88,52.45C86.02,50.78,86.24,49.29,86.42,48.21L86.42,47.27L52.65,67.79L53.2,81.64L54.2,82.25C54.22,77.04,56.01,72.35,56.01,72.35L56.01,72.36Z" fill="#BEBDB9"/><path d="M89.15,62.77C90.77,61.68,88.99,60.72,87.94,60.36L54.22,82.25C53.54,78.07,54.09,72.59,55.58,68.56L1.84,42.82C-0.2,46.84,-0.88,53.77,1.57,59.41L55.29,85L55.29,84.99Z" fill="#9D6C3E"/><path d="M89.43,46.22C90.75,45.16,89.45,44.24,88.33,43.81L88.2,43.81L54.48,65.85C54.21,64.08,53.94,62.31,53.94,60.37C53.94,58.11,54.35,55.71,55.16,53.45L1.97,28.18C0.88,30.28,0.2,32.7,0.2,35.43C0.2,37.67,0.61,40.25,1.83,42.82L55.55,68.58L55.56,68.58Z" fill="#9D6C3E"/><path d="M39.78,5.34C38.69,4.86,36.93,4.86,36.11,5.51L1.97,28.18L55.15,53.45L89.28,30.92C90.24,30.28,90.1,29.3,89.01,28.82Z" fill="#CA9350"/><path d="M55.22,68.41L55.56,68.58L1.27,41.41C1.44,41.88,1.61,42.36,1.84,42.82C1.7,43.09,1.59,43.42,1.46,43.71Z" fill="#543426"/></svg>