<svg xmlns="http://www.w3.org/2000/svg" viewBox="0 0 90 90"><path d="M60.61,0.46C63.17,-0.27,65.71,1.65,65.71,4.31L65.71,14.57L11.82,29.9L10,14.98L10,14.97Z" fill="currentColor"/><path d="M20.06,23.81L72,8C72,8,67,6,62.34,3.41L11.5,18Z" fill="currentColor"/><path d="M22,22.81L72,8.02L72,45.77L22,58.11Z" fill="currentColor"/><path d="M22,20L22,90C17.49,90,12.91,88.55,10,84.92L10,14.98L10,14.97C12.5,18.5,16.75,20.07,22,20Z" fill="currentColor"/><path d="M76,20C78.21,20,80,21.79,80,24L80,86C80,88.21,78.21,90,76,90L22,90L22,20Z" fill="currentColor"/><path d="M80,86C80,88.21,78.21,90,76,90L47,90L69.86,88.42C74.87,88.08,78.85,84.06,79.15,79.05L80,65Z" fill="currentColor"/><path d="M57.23,44.17L57.23,44.17C57.23,44.17,57.23,44.17,57.23,44.17Z" fill="currentColor"/><path d="M62.27,57.22C62.27,51.07,59.3,46.69,57.23,44.17L55.29,47.65C54.38,49.42,53.51,51.34,52.98,53.33C52.4,55.16,51.79,59.33,51.79,59.33L48.68,59.35C49,56.51,49.55,53.33,50.74,50.31L54.81,41.93C55.23,41.15,55.5,40.17,55.5,39.27C55.5,36.73,53.39,34.67,50.81,34.67C48.23,34.67,46.12,36.73,46.12,39.27C46.12,40.46,46.61,42.07,46.61,42.07C46.61,42.07,39.62,48.16,39.62,57.19C39.62,63.14,42.44,67.62,43.76,69.28L42.95,69.28C34.97,69.28,35,74.65,35,74.65L35,77.33L66.9,77.33L66.9,74.65C66.9,74.65,66.94,69.28,58.95,69.28L58.16,69.28C59.49,67.6,62.27,63.14,62.27,57.22Z" fill="currentColor"/><path d="M57.23,42.17L57.23,42.17C57.23,42.17,57.23,42.17,57.23,42.17Z" fill="currentColor"/><path d="M62.27,55.22C62.27,49.07,59.3,44.69,57.23,42.17L55.29,45.65C54.38,47.42,53.51,49.34,52.98,51.33C52.4,53.16,51.79,57.33,51.79,57.33L48.68,57.35C49,54.51,49.55,51.33,50.74,48.31L54.81,39.93C55.23,39.15,55.5,38.17,55.5,37.27C55.5,34.73,53.39,32.67,50.81,32.67C48.23,32.67,46.12,34.73,46.12,37.27C46.12,38.46,46.61,40.07,46.61,40.07C46.61,40.07,39.62,46.16,39.62,55.19C39.62,61.14,42.44,65.62,43.76,67.28L42.95,67.28C34.97,67.28,35,72.65,35,72.65L35,75.33L66.9,75.33L66.9,72.65C66.9,72.65,66.94,67.28,58.95,67.28L58.16,67.28C59.49,65.6,62.27,61.14,62.27,55.22Z" fill="currentColor"/><path d="M62.27,55.22C62.27,61.14,59.49,65.6,58.16,67.28L49.73,67.28C51.96,66.24,64.43,59.63,59.13,44.77C60.75,47.33,62.27,50.82,62.27,55.22Z" fill="currentColor"/><path d="M51.43,43.01C53.35,39.44,55.06,36.24,53.84,33.79C53.84,33.78,53.84,33.77,53.84,33.77C54.85,34.61,55.5,35.87,55.5,37.27C55.5,37.66,55.44,38.02,55.35,38.37C55.25,38.89,55.09,39.4,54.81,39.93L54.8,39.93L50.74,48.31C49.55,51.33,49,54.51,48.68,57.35C46.35,52.48,49.04,47.46,51.43,43.01Z" fill="currentColor"/><path d="M50.81,32.67C48.23,32.67,46.12,34.73,46.12,37.27C46.12,37.75,46.2,38.29,46.29,38.77C46.76,35.61,49.29,33.21,51.09,32.67C50.99,32.67,50.9,32.67,50.81,32.67Z" fill="currentColor"/><path d="M39.62,55.19C39.62,57.22,39.97,59.05,40.45,60.68C40.43,55.46,41.57,47.86,47.53,40.4C47.53,40.4,47.13,40.26,46.61,40.07C46.61,40.07,39.62,46.16,39.62,55.19Z" fill="currentColor"/><path d="M42.95,67.28L58.95,67.28C63.16,67.28,65.13,68.77,66.06,70.18C65.03,69.8,61.63,69.03,51.06,69.03C39,69.03,36.27,70.04,35.75,70.31L35.75,70.31C36.65,68.86,38.61,67.28,42.95,67.28Z" fill="currentColor"/></svg>