<svg xmlns="http://www.w3.org/2000/svg" viewBox="0 0 90 90"><path d="M60.61,0.46C63.17,-0.27,65.71,1.65,65.71,4.31L65.71,14.57L11.82,29.9L10,14.98L10,14.97Z" fill="#543426"/><path d="M20.06,23.81L72,8C72,8,67,6,62.34,3.41L11.5,18Z" fill="#E8E6E1"/><path d="M22,22.81L72,8.02L72,45.77L22,58.11Z" fill="#BEBDB9"/><path d="M22,20L22,90C17.49,90,12.91,88.55,10,84.92L10,14.98L10,14.97C12.5,18.5,16.75,20.07,22,20Z" fill="#6A4632"/><path d="M76,90L22,90L22,20L76,20C78.21,20,80,21.79,80,24L80,86C80,88.21,78.21,90,76,90Z" fill="#9D6C3E"/><path d="M44.15,37.5L44.15,51.74L57.85,51.74L57.85,37.5L68.3,37.5L68.3,76L57.85,76L57.85,60.93L44.15,60.93L44.15,76L33.7,76L33.7,37.5Z" fill="#6A4632"/><path d="M44.15,35.5L44.15,49.74L57.85,49.74L57.85,35.5L68.3,35.5L68.3,74L57.85,74L57.85,58.93L44.15,58.93L44.15,74L33.7,74L33.7,35.5Z" fill="#FAD541"/><path d="M33.7,35.5L33.7,74L34.38,74L34.38,37.5L43.68,37.5L43.68,52.3L58.31,52.3L58.31,37.5L67.66,37.5L67.66,74L68.3,74L68.3,35.5L57.85,35.5L57.85,49.74L44.15,49.74L44.15,35.5Z" fill="#FFF599"/><path d="M58.31,60.49L57.85,60.49L57.85,74L58.31,74Z" fill="#FFF599"/><path d="M43.68,60.49L43.68,74L44.15,74L44.15,60.49Z" fill="#FFF599"/></svg>