<svg xmlns="http://www.w3.org/2000/svg" viewBox="0 0 90 90"><path d="M60.61,0.46C63.17,-0.27,65.71,1.65,65.71,4.31L65.71,14.57L11.82,29.9L10,14.98L10,14.97Z" fill="#543426"/><path d="M20.06,23.81L72,8C72,8,67,6,62.34,3.41L11.5,18Z" fill="#E8E6E1"/><path d="M22,22.81L72,8.02L72,45.77L22,58.11Z" fill="#BEBDB9"/><path d="M22,20L22,90C17.49,90,12.91,88.55,10,84.92L10,14.98L10,14.97C12.5,18.5,16.75,20.07,22,20Z" fill="#6A4632"/><path d="M76,90L22,90L22,20L76,20C78.21,20,80,21.79,80,24L80,86C80,88.21,78.21,90,76,90Z" fill="#9D6C3E"/><path d="M48.23,37.5C52.37,37.5,55.99,38.29,59.07,39.87C62.18,41.44,64.58,43.68,66.27,46.58C67.96,49.47,68.8,52.86,68.8,56.75C68.8,60.64,67.96,64.03,66.27,66.92C64.58,69.82,62.18,72.06,59.07,73.64C55.99,75.21,52.37,76,48.23,76L34.54,76L34.54,37.5Z" fill="#6A4632"/><path d="M53.46,65.17C54.92,64.43,56.02,63.37,56.76,61.98C57.53,60.58,57.91,58.84,57.91,56.75C57.91,54.66,57.53,52.92,56.76,51.52C56.02,50.13,54.92,49.09,53.46,48.39C51.99,47.66,50.19,47.29,48.07,47.29L45.43,47.29L45.43,66.21L48.07,66.21C50.19,66.21,51.99,65.86,53.46,65.17Z" fill="#6A4632"/><path d="M48.23,35.5C52.37,35.5,55.99,36.29,59.07,37.87C62.18,39.44,64.58,41.68,66.27,44.58C67.96,47.47,68.8,50.86,68.8,54.75C68.8,58.64,67.96,62.03,66.27,64.92C64.58,67.82,62.18,70.06,59.07,71.64C55.99,73.21,52.37,74,48.23,74L34.54,74L34.54,35.5Z" fill="#FAD541"/><path d="M53.46,63.16C54.92,62.43,56.02,61.37,56.76,59.98C57.53,58.58,57.91,56.84,57.91,54.75C57.91,52.66,57.53,50.92,56.76,49.52C56.02,48.13,54.92,47.09,53.46,46.39C51.99,45.66,50.19,45.29,48.07,45.29L45.43,45.29L45.43,64.21L48.07,64.21C50.19,64.21,51.99,63.86,53.46,63.16Z" fill="#FAD541"/><path d="M34.54,35.5L34.54,74L35.21,74L35.21,37.5L48.08,37.5C52.23,37.5,55.8,38.29,58.81,39.87C61.85,41.44,64.18,43.68,65.79,46.58C67.44,49.47,68.27,52.86,68.27,56.75C68.27,58.39,68.12,59.95,67.83,61.42C68.48,59.38,68.8,57.16,68.8,54.75C68.8,50.86,67.96,47.47,66.27,44.58C64.58,41.68,62.18,39.44,59.07,37.87C55.99,36.29,52.37,35.5,48.23,35.5Z" fill="#FFF599"/><path d="M48.07,64.21L45.43,64.21L45.43,46.24L44.89,46.24L44.89,67.25L47.92,67.25C50.23,67.25,52.17,66.85,53.75,66.05C55.36,65.2,56.55,64.01,57.32,62.47C58.13,60.93,58.53,59.02,58.53,56.75C58.53,54.65,58.19,52.87,57.5,51.39C57.77,52.39,57.91,53.51,57.91,54.75C57.91,56.84,57.53,58.58,56.76,59.98C56.02,61.37,54.92,62.43,53.46,63.16C51.99,63.86,50.19,64.21,48.07,64.21Z" fill="#FFF599"/></svg>