<svg xmlns="http://www.w3.org/2000/svg" viewBox="0 0 90 90"><path d="M60.61,0.46C63.17,-0.27,65.71,1.65,65.71,4.31L65.71,14.57L11.82,29.9L10,14.98L10,14.97Z" fill="currentColor"/><path d="M20.06,23.81L72,8C72,8,67,6,62.34,3.41L11.5,18Z" fill="currentColor"/><path d="M22,22.81L72,8.02L72,45.77L22,58.11Z" fill="currentColor"/><path d="M22,20L22,90C17.49,90,12.91,88.55,10,84.92L10,14.98L10,14.97C12.5,18.5,16.75,20.07,22,20Z" fill="currentColor"/><path d="M76,20C78.21,20,80,21.79,80,24L80,86C80,88.21,78.21,90,76,90L22,90L22,20Z" fill="currentColor"/><path d="M80,86C80,88.21,78.21,90,76,90L47,90L69.86,88.42C74.87,88.08,78.85,84.06,79.15,79.05L80,65Z" fill="currentColor"/><path d="M66.5,76.21C66.5,72.7,66.5,69.7,61.51,68.79L68.52,51.85C70.39,51.61,72.07,49.69,72.07,47.67C72.07,45.42,70.2,43.45,67.8,43.45C65.54,43.45,63.57,45.42,63.57,47.67C63.57,48.54,64,49.35,64.29,49.83L59.49,54.92L58.92,43.11C60.55,42.59,61.75,40.95,61.75,39.08C61.75,36.97,60.12,34.67,57.29,34.67C54.74,34.67,52.82,36.83,52.82,39.08C52.82,40.38,53.45,41.63,54.46,42.44L51,52.47L47.54,42.44C48.55,41.63,49.18,40.38,49.18,39.08C49.18,36.68,47.26,34.67,44.71,34.67C41.88,34.67,40.25,36.87,40.25,39.13C40.25,41,41.45,42.59,43.08,43.11L42.51,54.92L37.71,49.83C38,49.35,38.43,48.54,38.43,47.67C38.43,45.42,36.46,43.45,34.2,43.45C31.85,43.45,29.93,45.37,29.93,47.67C29.93,49.69,31.61,51.61,33.48,51.85L40.54,68.79C35.5,69.7,35.5,72.75,35.5,76.21L35.5,77.33L66.5,77.33Z" fill="currentColor"/><path d="M66.5,74.21C66.5,70.7,66.5,67.7,61.51,66.79L68.52,49.85C70.39,49.61,72.07,47.69,72.07,45.67C72.07,43.42,70.2,41.45,67.8,41.45C65.54,41.45,63.57,43.42,63.57,45.67C63.57,46.54,64,47.35,64.29,47.83L59.49,52.92L58.92,41.11C60.55,40.59,61.75,38.95,61.75,37.08C61.75,34.97,60.12,32.67,57.29,32.67C54.74,32.67,52.82,34.83,52.82,37.08C52.82,38.38,53.45,39.63,54.46,40.44L51,50.47L47.54,40.44C48.55,39.63,49.18,38.38,49.18,37.08C49.18,34.68,47.26,32.67,44.71,32.67C41.88,32.67,40.25,34.87,40.25,37.13C40.25,39,41.45,40.59,43.08,41.11L42.51,52.92L37.71,47.83C38,47.35,38.43,46.54,38.43,45.67C38.43,43.42,36.46,41.45,34.2,41.45C31.85,41.45,29.93,43.37,29.93,45.67C29.93,47.69,31.61,49.61,33.48,49.85L40.54,66.79C35.5,67.7,35.5,70.75,35.5,74.21L35.5,75.33L66.5,75.33Z" fill="currentColor"/><path d="M71.11,43.03C72.07,46.97,68.52,48.22,66.98,49.03C66.98,49.03,63.62,55.8,59.06,60.79C54.22,66.02,51,66.5,51,66.5C56.85,66.5,59.21,66.5,61.51,66.79L68.52,49.85C70.39,49.61,72.07,47.69,72.07,45.67C72.07,44.71,71.73,43.8,71.11,43.03Z" fill="currentColor"/><path d="M68.9,41.59C66.64,41.88,64.24,43.71,64.05,47.4C63.81,46.97,63.57,46.34,63.57,45.67C63.57,43.42,65.54,41.45,67.8,41.45C68.13,41.45,68.66,41.55,68.9,41.59Z" fill="currentColor"/><path d="M40.83,39.24C40.44,38.57,40.25,37.85,40.25,37.13C40.25,34.87,41.88,32.67,44.71,32.67C43.13,33.29,41.21,35.4,40.83,39.24Z" fill="currentColor"/><path d="M53.35,39.15C53.02,38.52,52.82,37.8,52.82,37.08C52.82,34.83,54.74,32.67,57.29,32.67C55.8,33.43,53.59,35.59,53.35,39.15Z" fill="currentColor"/><path d="M32,49.32C30.85,48.5,29.93,47.21,29.93,45.67C29.93,43.37,31.85,41.45,34.2,41.45C31.23,42.94,30.27,46.63,32,49.32Z" fill="currentColor"/><path d="M36.22,69.43C36.84,69.19,37.56,69.05,38.38,68.9C40.25,68.81,45.39,68.66,51.05,68.66C58.1,68.66,60.89,68.66,63.67,68.9C64.53,69.05,65.25,69.19,65.83,69.43C65.2,68.18,63.96,67.22,61.51,66.79C59.21,66.5,56.9,66.5,51.05,66.5C46.35,66.5,42.12,66.69,40.54,66.79C38.14,67.22,36.89,68.18,36.22,69.43Z" fill="currentColor"/></svg>