<svg xmlns="http://www.w3.org/2000/svg" viewBox="0 0 90 90"><path d="M8,15C3.58,15,0,18.58,0,23L0,77C0,81.42,3.58,85,8,85L82,85C86.42,85,90,81.42,90,77L90,23C90,18.58,86.42,15,82,15Z" fill="#543426"/><path d="M8,11C3.58,11,0,14.58,0,19L0,73C0,77.42,3.58,81,8,81L82,81C86.42,81,90,77.42,90,73L90,19C90,14.58,86.42,11,82,11Z" fill="#9D6C3E"/><path d="M0,31.59L0.67,19.81C0.9,15.8,4.07,12.58,8.08,12.29L25.72,11L8,11C3.58,11,0,14.58,0,19Z" fill="#CA9350"/><path d="M90,60.41L89.33,72.19C89.1,76.2,85.93,79.42,81.92,79.71L64.28,81L82,81C86.42,81,90,77.42,90,73Z" fill="#CA9350"/><path d="M82,77L8,77C5.79,77,4,75.21,4,73L4,15C4,12.79,5.79,11,8,11L82,11C84.21,11,86,12.79,86,15L86,73C86,75.21,84.21,77,82,77Z" fill="#6A4632"/><path d="M81,73L9,73C6.24,73,4,70.76,4,68L4,12C4,9.24,6.24,7,9,7L81,7C83.76,7,86,9.24,86,12L86,68C86,70.76,83.76,73,81,73Z" fill="#BEBDB9"/><path d="M77.28,70.75L45,73L12.72,70.75C10.63,70.61,9,68.86,9,66.76L9,11C9,8.79,10.79,7,13,7L77,7C79.21,7,81,8.79,81,11L81,66.76C81,68.86,79.37,70.61,77.28,70.75Z" fill="#8B8987"/><path d="M12.13,67.22C9.74,66.8,8,64.72,8,62.3L8,2.39C8,1.07,9.07,0,10.39,0C11.46,0,12.53,0.1,13.59,0.29L45,6L45,73Z" fill="#E7E6E5"/><path d="M77.87,67.22C80.26,66.8,82,64.72,82,62.3L82,2.39C82,1.07,80.93,0,79.61,0C78.54,0,77.47,0.1,76.41,0.29L45,6L45,73Z" fill="#F8F8F8"/><path d="M32.15,14.31L32.47,16.39C32.78,17.49,33.3,18.28,34.11,19.31C34.91,20.35,35.12,21.24,35.3,21.89C35.94,24.2,35.99,25.38,37.09,27.74L39.57,32.86C40.2,34.03,40.12,35.48,39.44,36.17C38.53,37.08,35.93,37.56,35.71,37.22L35.72,37.22C34.71,35.75,34.66,33.71,32.54,33.38C30.9,33.12,29.45,30.86,28.63,29.57L27.82,28.17C27.5,28.64,26.63,30.16,27.02,32.06C27.14,32.64,27.32,33.17,27.56,33.69C27.99,34.62,28.61,35.48,29.34,36.39C30.9,38.35,33.64,41.75,33.93,45.88L33.98,47.23C38.75,48.58,38.78,53.19,38.78,53.29L38.78,56L15,52.41L15,49.7C15,49.7,14.98,45.43,19.14,45.11C19.07,44.2,18.96,43.62,18.96,43.62C18.7,41.83,17.21,35.69,17.21,32.48C17.21,20.4,23.18,15.99,28.53,16.31L31.26,13C31.65,13.06,32.05,13.68,32.15,14.31Z" fill="#8B8987"/><path d="M53,27L53,17.23L61,16L61,25.77Z" fill="#BEBDB9"/><path d="M53,42L53,32.23L61,31L61,40.76Z" fill="#BEBDB9"/><path d="M53,57L53,46.35L61,45L61,55.66Z" fill="#BEBDB9"/><path d="M66,55L66,44.35L74,43L74,53.66Z" fill="#BEBDB9"/></svg>