<svg xmlns="http://www.w3.org/2000/svg" viewBox="0 0 90 90"><path d="M60.61,0.46C63.17,-0.27,65.71,1.65,65.71,4.31L65.71,14.57L11.82,29.9L10,14.98L10,14.97Z" fill="currentColor"/><path d="M20.06,23.81L72,8C72,8,67,6,62.34,3.41L11.5,18Z" fill="currentColor"/><path d="M22,22.81L72,8.02L72,45.77L22,58.11Z" fill="currentColor"/><path d="M22,20L22,90C17.49,90,12.91,88.55,10,84.92L10,14.98L10,14.97C12.5,18.5,16.75,20.07,22,20Z" fill="currentColor"/><path d="M76,90L22,90L22,20L76,20C78.21,20,80,21.79,80,24L80,86C80,88.21,78.21,90,76,90Z" fill="currentColor"/><path d="M45.05,74.19C41.79,72.46,39.24,70.08,37.41,67.03C35.57,63.99,34.66,60.56,34.66,56.75C34.66,52.94,35.57,49.51,37.41,46.47C39.24,43.42,41.79,41.04,45.05,39.31C48.35,37.59,52.06,36.73,56.16,36.73C57.96,36.73,59.66,36.93,61.28,37.34C62.93,37.7,64.47,38.27,65.9,39.04L65.9,48.83C64.47,48.06,63,47.49,61.5,47.13C60.03,46.72,58.53,46.52,56.99,46.52C54.79,46.52,52.83,46.94,51.1,47.78C49.38,48.59,48.02,49.78,47.03,51.36C46.08,52.9,45.6,54.7,45.6,56.75C45.6,58.8,46.08,60.62,47.03,62.2C48.02,63.73,49.38,64.93,51.1,65.77C52.83,66.58,54.79,66.98,56.99,66.98C58.53,66.98,60.05,66.8,61.55,66.43C63.06,66.03,64.5,65.44,65.9,64.67L65.9,74.46C64.43,75.23,62.87,75.8,61.22,76.17C59.61,76.57,57.92,76.77,56.16,76.77C52.06,76.77,48.35,75.91,45.05,74.19Z" fill="currentColor"/><path d="M45.05,72.19C41.79,70.46,39.24,68.08,37.41,65.03C35.57,61.99,34.66,58.56,34.66,54.75C34.66,50.94,35.57,47.51,37.41,44.47C39.24,41.42,41.79,39.04,45.05,37.31C48.35,35.59,52.06,34.73,56.16,34.73C57.96,34.73,59.66,34.93,61.28,35.34C62.93,35.7,64.47,36.27,65.9,37.04L65.9,46.83C64.47,46.06,63,45.49,61.5,45.13C60.03,44.72,58.53,44.52,56.99,44.52C54.79,44.52,52.83,44.94,51.1,45.78C49.38,46.59,48.02,47.78,47.03,49.36C46.08,50.9,45.6,52.7,45.6,54.75C45.6,56.8,46.08,58.62,47.03,60.2C48.02,61.73,49.38,62.93,51.1,63.77C52.83,64.58,54.79,64.98,56.99,64.98C58.53,64.98,60.05,64.8,61.55,64.43C63.06,64.03,64.5,63.44,65.9,62.67L65.9,72.46C64.43,73.23,62.87,73.8,61.22,74.17C59.61,74.57,57.92,74.77,56.16,74.77C52.06,74.77,48.35,73.91,45.05,72.19Z" fill="currentColor"/><path d="M65.62,65.5C64.26,66.27,62.83,66.87,61.33,67.31C59.82,67.71,58.28,67.92,56.71,67.92C54.43,67.92,52.38,67.46,50.55,66.54C48.75,65.59,47.34,64.27,46.31,62.58C45.32,60.89,44.83,58.95,44.83,56.75C44.83,54.66,45.28,52.8,46.17,51.17C45.79,52.26,45.6,53.45,45.6,54.75C45.6,56.8,46.08,58.62,47.03,60.2C48.02,61.73,49.38,62.93,51.1,63.77C52.83,64.58,54.79,64.98,56.99,64.98C58.53,64.98,60.05,64.8,61.55,64.43C63.06,64.03,64.5,63.44,65.9,62.67L65.9,72.46C65.8,72.51,65.71,72.56,65.62,72.6Z" fill="currentColor"/><path d="M34.66,54.75C34.66,50.94,35.57,47.51,37.41,44.47C39.24,41.42,41.79,39.04,45.05,37.31C48.35,35.59,52.06,34.73,56.16,34.73C57.96,34.73,59.66,34.93,61.28,35.34C62.93,35.7,64.47,36.27,65.9,37.04L65.9,46.83C65.8,46.78,65.71,46.73,65.62,46.68L65.62,39.2C64.22,38.44,62.7,37.85,61.05,37.45C59.44,37.04,57.75,36.84,55.99,36.84C52,36.84,48.4,37.7,45.21,39.42C42.02,41.11,39.53,43.48,37.73,46.52C35.97,49.53,35.09,52.94,35.09,56.75C35.09,57.94,35.18,59.08,35.35,60.2C34.89,58.48,34.66,56.66,34.66,54.75Z" fill="currentColor"/></svg>