<svg xmlns="http://www.w3.org/2000/svg" viewBox="0 0 90 90"><path d="M60.61,0.46C63.17,-0.27,65.71,1.65,65.71,4.31L65.71,14.57L11.82,29.9L10,14.98L10,14.97Z" fill="currentColor"/><path d="M20.06,23.81L72,8C72,8,67,6,62.34,3.41L11.5,18Z" fill="currentColor"/><path d="M22,22.81L72,8.02L72,45.77L22,58.11Z" fill="currentColor"/><path d="M22,20L22,90C17.49,90,12.91,88.55,10,84.92L10,14.98L10,14.97C12.5,18.5,16.75,20.07,22,20Z" fill="currentColor"/><path d="M76,90L22,90L22,20L76,20C78.21,20,80,21.79,80,24L80,86C80,88.21,78.21,90,76,90Z" fill="currentColor"/><path d="M64.66,37.5L64.66,46.41L49.37,46.41L49.37,76L38.48,76L38.48,37.5Z" fill="currentColor"/><path d="M63.56,53.28L63.56,61.81L48.66,61.81L48.66,53.28Z" fill="currentColor"/><path d="M64.66,35.5L64.66,44.41L49.37,44.41L49.37,74L38.48,74L38.48,35.5Z" fill="currentColor"/><path d="M63.56,51.28L63.56,59.81L48.66,59.81L48.66,51.28Z" fill="currentColor"/><path d="M38.48,35.5L38.48,74L39.11,74L39.11,37.5L64.13,37.5L64.13,44.41L64.66,44.41L64.66,35.5Z" fill="currentColor"/><path d="M48.84,45.59L48.84,51.28L48.84,53.51L49.37,53.51L63.09,53.51L63.09,59.81L63.56,59.81L63.56,51.28L49.37,51.28L49.37,45.59Z" fill="currentColor"/><path d="M49.37,74L48.84,74L48.84,61.31L49.37,61.31Z" fill="currentColor"/></svg>