<svg xmlns="http://www.w3.org/2000/svg" viewBox="0 0 90 90"><path d="M60.61,0.46C63.17,-0.27,65.71,1.65,65.71,4.31L65.71,14.57L11.82,29.9L10,14.98L10,14.97Z" fill="#543426"/><path d="M20.06,23.81L72,8C72,8,67,6,62.34,3.41L11.5,18Z" fill="#E8E6E1"/><path d="M22,22.81L72,8.02L72,45.77L22,58.11Z" fill="#BEBDB9"/><path d="M22,20L22,90C17.49,90,12.91,88.55,10,84.92L10,14.98L10,14.97C12.5,18.5,16.75,20.07,22,20Z" fill="#6A4632"/><path d="M76,90L22,90L22,20L76,20C78.21,20,80,21.79,80,24L80,86C80,88.21,78.21,90,76,90Z" fill="#9D6C3E"/><path d="M57.4,37.5L73.13,76L61.8,76L49.75,43.66L51.84,43.66L40.02,76L28.85,76L44.47,37.5Z" fill="#6A4632"/><path d="M60.15,59.77L62.95,68.25L39.03,68.25L41.89,59.77Z" fill="#6A4632"/><path d="M57.4,35.5L73.13,74L61.8,74L49.75,41.66L51.84,41.66L40.02,74L28.85,74L44.47,35.5Z" fill="#FAD541"/><path d="M60.15,57.77L62.95,66.25L39.03,66.25L41.89,57.77Z" fill="#FAD541"/><path d="M44.47,35.5L28.85,74L30.49,74L45.2,37.5L56.69,37.5L71.5,74L73.13,74L57.4,35.5Z" fill="#FFF599"/><path d="M55.36,57.77L56.17,59.94L45.59,59.94L46.38,57.77Z" fill="#FFF599"/></svg>