<svg xmlns="http://www.w3.org/2000/svg" viewBox="0 0 90 90"><path d="M60.61,0.46C63.17,-0.27,65.71,1.65,65.71,4.31L65.71,14.57L11.82,29.9L10,14.98L10,14.97Z" fill="currentColor"/><path d="M20.06,23.81L72,8C72,8,67,6,62.34,3.41L11.5,18Z" fill="currentColor"/><path d="M22,22.81L72,8.02L72,45.77L22,58.11Z" fill="currentColor"/><path d="M22,20L22,90C17.49,90,12.91,88.55,10,84.92L10,14.98L10,14.97C12.5,18.5,16.75,20.07,22,20Z" fill="currentColor"/><path d="M76,20C78.21,20,80,21.79,80,24L80,86C80,88.21,78.21,90,76,90L22,90L22,20Z" fill="currentColor"/><path d="M80,86C80,88.21,78.21,90,76,90L47,90L69.86,88.42C74.87,88.08,78.85,84.06,79.15,79.05L80,65Z" fill="currentColor"/><path d="M33.94,75.61C33.94,75.82,33.94,76.02,33.94,76.23L33.94,77.33L68.06,77.33L68.06,76.23C68.06,76.02,68.06,75.82,68.06,75.61C68.09,72.41,68.1,69.64,62.73,68.83C62.72,68.83,62.71,68.83,62.7,68.83L60.26,48.69C62.9,47.68,64,46.29,64.2,44.08L64.87,37.16C64.2,36.83,63.24,36.54,62.32,36.3C61.17,36.01,60.5,35.87,59.63,35.77L57.76,41.63L55.65,41.63L54.59,35C53.39,34.81,52.14,34.67,50.94,34.67C49.74,34.67,48.49,34.81,47.29,35L46.28,41.63L44.12,41.63L42.24,35.77C40.8,35.77,38.83,36.4,37.1,37.07L37.68,44.08C37.87,46.15,38.64,47.54,41.67,48.69L39.27,68.83C33.9,69.6,33.91,72.41,33.94,75.61Z" fill="currentColor"/><path d="M33.94,73.61C33.94,73.82,33.94,74.02,33.94,74.23L33.94,75.33L68.06,75.33L68.06,74.23C68.06,74.02,68.06,73.82,68.06,73.61C68.09,70.41,68.1,67.64,62.73,66.83C62.72,66.83,62.71,66.83,62.7,66.83L60.26,46.69C62.9,45.68,64,44.29,64.2,42.08L64.87,35.16C64.2,34.83,63.24,34.54,62.32,34.3C61.17,34.01,60.5,33.87,59.63,33.77L57.76,39.63L55.65,39.63L54.59,33C53.39,32.81,52.14,32.67,50.94,32.67C49.74,32.67,48.49,32.81,47.29,33L46.28,39.63L44.12,39.63L42.24,33.77C40.8,33.77,38.83,34.4,37.1,35.07L37.68,42.08C37.87,44.15,38.64,45.54,41.67,46.69L39.27,66.83C33.9,67.6,33.91,70.41,33.94,73.61Z" fill="currentColor"/><path d="M62.71,66.86L62.71,66.87C61.55,66.72,60.4,66.63,59.25,66.58C59.01,65.47,58.79,64.38,58.58,63.33C56.56,53.37,55.11,46.23,43.68,46.41C47.67,45.59,53.58,45.49,56.94,45.97C60.84,45.16,62.04,38.64,62.71,34.4C63.49,34.62,64.27,34.87,64.84,35.15C64.85,35.16,64.86,35.16,64.87,35.16L64.2,42.08C64.2,42.09,64.19,42.09,64.19,42.1C64,44.3,62.89,45.69,60.26,46.69Z" fill="currentColor"/><path d="M46.28,39.63L47.29,33C48.49,32.81,49.74,32.67,50.94,32.67C47.99,33.68,46.63,38.4,46.31,39.51C46.3,39.56,46.29,39.6,46.28,39.63Z" fill="currentColor"/><path d="M39.14,45.28C38.15,44.41,37.8,43.38,37.68,42.09L37.68,42.08L37.1,35.07C38.24,34.63,39.48,34.21,40.6,33.97C38.71,35.22,38.26,41.02,39.14,45.28Z" fill="currentColor"/><path d="M59.63,33.77L57.76,39.63C58.26,38.67,59.93,35.68,61.92,34.2C61.01,33.98,60.41,33.86,59.66,33.77Z" fill="currentColor"/><path d="M67.82,70.29C65.94,69.04,62.67,68.7,50.99,68.7C39.36,68.7,35.9,68.99,34.17,70.24C34.61,68.61,35.9,67.36,39.27,66.83C40.9,66.59,45.95,66.54,50.99,66.54C52.17,66.54,53.23,66.54,54.18,66.54C58.44,66.52,60.68,66.52,62.72,66.83C66.13,67.36,67.38,68.61,67.82,70.29Z" fill="currentColor"/></svg>