<svg xmlns="http://www.w3.org/2000/svg" viewBox="0 0 90 90"><path d="M60.61,0.46C63.17,-0.27,65.71,1.65,65.71,4.31L65.71,14.57L11.82,29.9L10,14.98L10,14.97Z" fill="#543426"/><path d="M20.06,23.81L72,8C72,8,67,6,62.34,3.41L11.5,18Z" fill="#E7E6E5"/><path d="M22,22.81L72,8.02L72,45.77L22,58.11Z" fill="#BEBDB9"/><path d="M22,20L22,90C17.49,90,12.91,88.55,10,84.92L10,14.98L10,14.97C12.5,18.5,16.75,20.07,22,20Z" fill="#6A4632"/><path d="M76,20C78.21,20,80,21.79,80,24L80,86C80,88.21,78.21,90,76,90L22,90L22,20Z" fill="#9D6C3E"/><path d="M80,86C80,88.21,78.21,90,76,90L47,90L69.86,88.42C74.87,88.08,78.85,84.06,79.15,79.05L80,65Z" fill="#CA9350"/></svg>