<svg xmlns="http://www.w3.org/2000/svg" viewBox="0 0 90 90"><path d="M60.61,0.46C63.17,-0.27,65.71,1.65,65.71,4.31L65.71,14.57L11.82,29.9L10,14.98L10,14.97Z" fill="currentColor"/><path d="M20.06,23.81L72,8C72,8,67,6,62.34,3.41L11.5,18Z" fill="currentColor"/><path d="M22,22.81L72,8.02L72,45.77L22,58.11Z" fill="currentColor"/><path d="M22,20L22,90C17.49,90,12.91,88.55,10,84.92L10,14.98L10,14.97C12.5,18.5,16.75,20.07,22,20Z" fill="currentColor"/><path d="M76,90L22,90L22,20L76,20C78.21,20,80,21.79,80,24L80,86C80,88.21,78.21,90,76,90Z" fill="currentColor"/><path d="M40.98,73.91C37.9,72.15,35.52,69.75,33.83,66.7C32.18,63.66,31.35,60.23,31.35,56.42C31.35,52.09,32.36,48.44,34.38,45.47C36.43,42.47,39.07,40.23,42.3,38.76C45.56,37.3,49.01,36.56,52.64,36.56C54.47,36.56,56.29,36.71,58.08,37C59.88,37.3,61.6,37.72,63.25,38.27L63.25,47.34C61.53,46.9,59.86,46.56,58.25,46.3C56.64,46.04,55.15,45.91,53.79,45.91C51.59,45.91,49.58,46.3,47.74,47.07C45.95,47.84,44.48,49.03,43.34,50.64C42.24,52.26,41.69,54.27,41.69,56.69C41.69,58.75,42.13,60.58,43.01,62.19C43.89,63.77,45.1,65,46.64,65.88C48.22,66.76,49.96,67.2,51.87,67.2C53.56,67.2,55.06,66.94,56.38,66.43C57.74,65.88,58.8,65,59.57,63.79C60.38,62.58,60.78,61.02,60.78,59.11C60.78,57.39,60.61,55.61,60.28,53.78L64.74,60.16L49.89,60.16L49.89,52.18L69.8,52.18C70.35,54.49,70.62,56.79,70.62,59.06C70.62,62.47,69.89,65.49,68.42,68.13C66.96,70.77,64.81,72.85,61.99,74.35C59.17,75.82,55.79,76.55,51.87,76.55C47.73,76.55,44.1,75.67,40.98,73.91Z" fill="currentColor"/><path d="M40.98,71.91C37.9,70.15,35.52,67.75,33.83,64.7C32.18,61.66,31.35,58.23,31.35,54.42C31.35,50.09,32.36,46.44,34.38,43.47C36.43,40.47,39.07,38.23,42.3,36.76C45.56,35.3,49.01,34.56,52.64,34.56C54.47,34.56,56.29,34.71,58.08,35C59.88,35.3,61.6,35.72,63.25,36.27L63.25,45.34C61.53,44.9,59.86,44.56,58.25,44.3C56.64,44.04,55.15,43.91,53.79,43.91C51.59,43.91,49.58,44.3,47.74,45.07C45.95,45.84,44.48,47.03,43.34,48.64C42.24,50.26,41.69,52.27,41.69,54.69C41.69,56.75,42.13,58.58,43.01,60.19C43.89,61.77,45.1,63,46.64,63.88C48.22,64.76,49.96,65.2,51.87,65.2C53.56,65.2,55.06,64.94,56.38,64.43C57.74,63.88,58.8,63,59.57,61.79C60.38,60.58,60.78,59.02,60.78,57.11C60.78,55.39,60.61,53.61,60.28,51.78L64.74,58.16L49.89,58.16L49.89,50.18L69.8,50.18C70.35,52.49,70.62,54.79,70.62,57.06C70.62,60.47,69.89,63.49,68.42,66.13C66.96,68.77,64.81,70.85,61.99,72.35C59.17,73.82,55.79,74.55,51.87,74.55C47.73,74.55,44.1,73.67,40.98,71.91Z" fill="currentColor"/><path d="M31.35,54.42C31.35,50.09,32.36,46.44,34.38,43.47C36.43,40.47,39.07,38.23,42.3,36.76C45.56,35.3,49.01,34.56,52.64,34.56C54.47,34.56,56.29,34.71,58.08,35C59.88,35.3,61.6,35.72,63.25,36.27L63.25,45.34C63.21,45.33,63.16,45.32,63.11,45.31L63.11,38.43C61.46,37.85,59.75,37.41,57.99,37.11C56.27,36.82,54.53,36.67,52.77,36.67C49.14,36.67,45.73,37.43,42.54,38.93C39.39,40.4,36.82,42.63,34.84,45.64C32.9,48.61,31.92,52.22,31.92,56.47C31.92,58.22,32.09,59.88,32.43,61.46C31.71,59.28,31.35,56.93,31.35,54.42Z" fill="currentColor"/><path d="M70.09,59.17C70.09,56.93,69.82,54.68,69.27,52.4L60.72,52.4L60.39,52.4L50.18,52.4L50.18,58.16L49.89,58.16L49.89,50.18L69.8,50.18C70.35,52.49,70.62,54.79,70.62,57.06C70.62,59.19,70.34,61.17,69.76,63C69.98,61.78,70.09,60.51,70.09,59.17Z" fill="currentColor"/><path d="M59.57,61.79C58.8,63,57.74,63.88,56.38,64.43C55.06,64.94,53.56,65.2,51.87,65.2C49.96,65.2,48.22,64.76,46.64,63.88C45.1,63,43.89,61.77,43.01,60.19C42.13,58.58,41.69,56.75,41.69,54.69C41.69,53.91,41.75,53.16,41.87,52.45C41.44,53.72,41.22,55.13,41.22,56.69C41.22,58.89,41.68,60.86,42.59,62.58C43.51,64.3,44.78,65.64,46.39,66.59C48,67.51,49.82,67.97,51.83,67.97C53.63,67.97,55.23,67.68,56.62,67.09C58.01,66.47,59.11,65.49,59.92,64.17C60.66,63.01,61.08,61.56,61.17,59.83L60.45,59.83C60.24,60.56,59.95,61.22,59.57,61.79Z" fill="currentColor"/></svg>