<svg xmlns="http://www.w3.org/2000/svg" viewBox="0 0 90 90"><path d="M66.3,15C68.47,14.9,70.58,15.5,72.41,17.02C75.01,19.19,76.38,22.7,76.71,26.14C77.27,31.89,74.84,38.27,69.49,39.24C68.74,44.05,59.79,49.38,52.56,47.39C51.26,48.44,53.54,71.62,51.81,72.08C48.7,72.92,38.81,72.8,35.82,71.74C34.52,71.28,35.26,47.61,34.25,46.79C26.53,49,18.65,44.69,17.81,39.22C16.57,38.98,15.4,38.43,14.38,37.49C10.85,34.24,10.84,28.15,12.35,23.82C14.18,18.55,18.16,15.22,23.07,15.4C24.06,12.75,26.98,10.78,29.81,11.01C36.05,1.61,52.92,1.24,59.39,10.47C62.31,9.88,65.33,11.99,66.3,15Z" fill="#262525"/><path d="M19.48,36.86C8.54,38.43,11.93,13.9,24.95,18.18C23.4,15.95,27.44,11.62,30.55,13.62C35.25,3.22,54.17,2.93,58.86,13.34C61.58,10.91,65.62,14.24,64.6,17.75C77.62,13.47,78.74,38.43,67.8,36.86C68.43,42.85,58.41,49.42,52.59,45.97C51.89,47.01,51.66,64.81,52.04,69.7C48.95,71.23,38.62,70.54,35.26,69.35C35.37,65.45,34.95,49.19,34.69,45.97C28.67,49.07,18.85,42.85,19.48,36.86Z" fill="#F58A1F"/><path d="M19.48,36.86C8.54,38.43,11.93,13.9,24.95,18.18C24.18,17.07,24.79,15.44,25.98,14.33C25.63,17.08,26.22,19.85,28.16,21.11C20.15,17.5,15.92,24.09,16.68,30.23C18.15,27.67,19.21,26.38,21.35,25.39C20.49,30.64,24.57,33.96,28.69,34.65C27.22,31.85,25.76,27.76,28.29,24.38C30.34,32.1,35.76,36.97,42.5,32.51C49.25,36.97,54.67,32.1,56.72,24.38C59.25,27.76,57.78,31.85,56.31,34.65C60.44,33.96,64.51,30.64,63.65,25.39C65.79,26.38,66.86,27.67,68.33,30.23C69.09,24.09,64.86,17.5,56.85,21.11C59.03,19.7,59.5,16.37,58.85,13.31L58.86,13.34C61.58,10.91,65.62,14.24,64.6,17.75C77.62,13.47,78.74,38.43,67.8,36.86C68.43,42.85,58.41,49.42,52.59,45.97C51.89,47.01,51.66,64.81,52.04,69.7C48.95,71.23,38.62,70.54,35.26,69.35C35.37,65.45,34.95,49.19,34.69,45.97C28.67,49.07,18.85,42.85,19.48,36.86Z" fill="#F26E21"/><path d="M29.69,17.04C28.95,15.46,28.89,13.73,29.75,11.77L31.62,11.77C30.45,13.53,29.96,15.28,29.69,17.04Z" fill="#262525"/><path d="M59.95,17.04C60.68,15.46,60.75,13.73,59.88,11.77L58.01,11.77C59.18,13.53,59.67,15.28,59.95,17.04Z" fill="#262525"/><path d="M28.96,36.86C25.3,37.29,21.06,34.14,20.75,30.42C19.51,35.59,24.32,39.24,28.96,36.86Z" fill="#262525"/><path d="M25.31,36.48C24.7,38.1,25.61,39.84,26.37,40.7C24.61,39.95,23.19,37.72,23.39,35.51C24.03,35.83,24.67,36.16,25.31,36.48Z" fill="#262525"/><path d="M56.52,37.35C61.33,37.91,66.92,33.77,67.33,28.87C68.96,35.68,62.62,40.49,56.52,37.35Z" fill="#262525"/><path d="M61.32,36.85C62.12,38.99,60.93,41.27,59.92,42.41C62.24,41.43,64.11,38.48,63.86,35.57C63.01,36,62.17,36.43,61.32,36.85Z" fill="#262525"/><path d="M36.63,37.21L36.63,76.06L34.09,76.06L34.09,35.86Z" fill="#262525"/><path d="M40.47,36.9C34.78,37.92,28.84,33.43,28.87,27.8C27.11,35.11,33.91,40.27,40.47,36.9Z" fill="#262525"/><path d="M44.35,47.63L44.9,72.43L43.8,72.43L42.71,72.43L43.26,47.63L43.8,39.95Z" fill="#262525"/><path d="M40.99,67.35L41.57,71.77L40.4,71.77L39.24,71.77L39.82,67.35L40.4,45.81Z" fill="#262525"/><path d="M47.72,67.35L48.31,71.77L47.14,71.77L45.98,71.77L46.56,67.35L47.14,45.81Z" fill="#262525"/><path d="M50.65,37.78L50.65,76.64L53.18,76.64L53.18,36.42Z" fill="#262525"/><path d="M45.95,37.3C51.63,38.32,57.58,33.83,57.55,28.2C59.3,35.5,52.5,40.66,45.95,37.3Z" fill="#262525"/><path d="M71.57,75.24C71.57,70.72,59.23,67.03,44.09,67.03C28.96,67.03,16.61,70.72,16.61,75.24C16.61,79.76,28.96,83.45,44.09,83.45C59.23,83.45,71.57,79.76,71.57,75.24Z" fill="#262525"/><path d="M70.08,75.26C70.08,71.89,58.5,69.14,44.31,69.14C30.12,69.14,18.54,71.89,18.54,75.26C18.54,78.64,30.12,81.39,44.31,81.39C58.5,81.39,70.08,78.64,70.08,75.26Z" fill="#F58A1F"/><path d="M56.52,74.43L56.52,86.25L30.16,86.25L30.16,74.43Z" fill="white"/><path d="M30.16,84.35C32.81,82.02,34.11,78.91,34.1,75.06C40.46,74.85,46.82,74.64,53.18,74.43C53.18,79.73,54.2,83.27,56.52,84.58C47.73,86.71,38.94,86.97,30.16,84.35Z" fill="#262525"/><path d="M59.18,75.42C59.18,74.09,52.4,73.01,44.09,73.01C35.78,73.01,29,74.09,29,75.42C29,76.74,35.78,77.83,44.09,77.83C52.4,77.83,59.18,76.74,59.18,75.42Z" fill="#262525"/><path d="M44.75,73.94C49.33,74.05,51.52,74.51,51.52,74.51C51.52,74.51,51.62,80.76,52.93,83.52C52.93,83.52,50.45,84.87,42.85,84.87C35.24,84.87,32.81,83.67,32.81,83.67C32.81,83.67,35.49,79.46,36.07,74.77C36.07,74.77,40.17,73.84,44.75,73.94Z" fill="#F26E21"/><path d="M40.99,73.8L39.82,73.8L40.4,79.12Z" fill="#262525"/><path d="M44.35,73.72L43.26,73.72L43.8,81.85Z" fill="#262525"/><path d="M47.72,74.7L47.86,73.64L46.4,73.53L46.56,74.7L47.14,79.12Z" fill="#262525"/><path d="M65.33,75.92C65.33,76.7,63.04,77.42,59.34,77.94C60.54,77.53,61.21,77.07,61.21,76.57C61.21,74.92,53.55,73.57,44.09,73.57C34.64,73.57,26.97,74.92,26.97,76.57C26.97,77.07,27.65,77.53,28.85,77.94C25.14,77.42,22.86,76.7,22.86,75.92C22.86,74.31,32.36,73.01,44.09,73.01C55.82,73.01,65.33,74.31,65.33,75.92Z" fill="#262525"/><path d="M24.04,72.24C20.49,72.87,17.47,75.71,19.47,77.47C19.76,77.76,20.38,78.43,20.67,78.72C18.59,75.94,21.65,72.98,24.04,72.24Z" fill="#262525"/><path d="M64.54,72.24C68.08,72.87,71.1,75.71,69.11,77.47C68.82,77.76,68.2,78.43,67.91,78.72C69.99,75.94,66.92,72.98,64.54,72.24Z" fill="#262525"/><path d="M31.85,49.39L52.81,45.75L52.69,59.28L21.6,63.08L15.78,43.51C15.94,43.51,31.85,49.39,31.85,49.39Z" fill="#262525"/><path d="M37.23,39.27L37.23,71.92L11.25,71.92L11.25,39.27Z" fill="white"/><path d="M27.99,58.7C28.14,59.64,27.41,60.33,26.75,60.56C26.58,59.84,26.39,59.12,26.19,58.4C26.84,57.99,27.6,57.83,27.99,58.7Z" fill="#262525"/><path d="M24.03,52.57C23.75,51.93,23.45,51.29,23.13,50.67C23.61,49.97,24.4,50.06,24.81,50.58C25.09,51.43,24.55,52.14,24.03,52.57Z" fill="#262525"/><path d="M11.25,47.78C11.44,47.97,11.62,48.17,11.81,48.37C11.78,48.38,13.07,49.6,14.41,51.61C15.77,53.61,17.18,56.39,18.06,59.32C18.98,62.24,19.36,65.3,19.38,67.68C19.43,70.05,19.1,71.74,19.27,71.69C19.49,71.72,20.37,71.98,21.82,71.91C26.36,71.73,34.47,68.48,36.55,63.34C37.65,60.75,37.26,58.62,36.5,56.27C35.63,53.58,33.89,51.64,31.73,51.12C32.09,49.96,32.14,48.68,31.86,47.32C31.52,45.63,30.15,42.94,28.61,41.52C25.59,38.67,21.47,38.83,18.24,40.33C14.94,41.84,12.51,44.71,11.41,47.39C11.36,47.52,11.31,47.65,11.25,47.78Z" fill="#262525"/><path d="M22.82,48.14C22.31,48.23,21.98,48.45,21.57,49.26C22.31,50.53,22.95,51.82,23.52,53.14C24.33,52.66,25.13,51.91,25.21,50.73C25.27,49.97,24.75,48.92,24.2,48.52C23.74,48.18,23.26,48.06,22.82,48.14Z" fill="#F1BE4C"/><path d="M26.12,60.87C27.16,60.63,28.21,60.03,28.39,58.59C28.49,57.87,28.13,56.77,27.67,56.32C27.23,55.88,26.74,55.76,26.26,55.9C26.02,55.97,25.35,56.28,24.94,56.66C25.41,58.05,25.79,59.45,26.12,60.87Z" fill="#F1BE4C"/><path d="M20.11,69.39C20.18,61.24,17.92,53.8,11.72,47.41C12.74,44.91,15.01,42.19,18.09,40.71C21.12,39.24,24.94,39.01,27.79,41.62C30.79,44.32,31.65,48.83,29.4,51.32C30.6,51.09,31.9,51.31,33.05,52.14C33.59,52.54,34.09,53.06,34.53,53.69C36.61,56.71,36.69,60.62,34.23,63.59C31.11,67.49,23.86,70.11,20.11,69.39Z" fill="#F1BE4C"/><path d="M34.16,61.88C34.17,61.88,34.17,61.85,34.15,61.86C34.14,61.86,34.15,61.89,34.16,61.88Z" fill="white"/><path d="M37.16,60.08C36.06,59.27,35.87,56.21,36.82,54.1C37.85,51.86,40.02,51.4,40.63,54.62C40.69,55.15,40.36,58.17,39.6,59.21C38.98,60.08,37.94,60.65,37.16,60.08Z" fill="#262525"/><path d="M41.32,43.22C38.47,41.96,35.18,43.4,33.14,46.24C31.04,49.1,30.18,53.35,30.65,58.16C31.01,64.29,33.32,69.22,38.44,68.68C42.44,68.24,45.73,65.17,46.61,59.73C47.39,54.93,46.41,49.8,44.59,46.27C43.94,45.05,42.81,43.87,41.32,43.22Z" fill="#262525"/><path d="M35.63,57.02C35.99,61.83,39.48,61.05,40.56,57.86C41.18,55.91,41.37,53.62,40.4,51.79C40.14,51.25,39.07,50.34,38.27,50.53C36.55,50.93,35.24,53.62,35.63,57.02Z" fill="#F1BE4C"/><path d="M32.42,48.01C34.21,44.31,37.69,42.06,41.1,43.49C42.48,44.08,43.51,45.15,44.1,46.23C46.55,50.99,47.15,57.53,44.35,62.76C41.8,67.32,34.35,68.85,32.18,62.18C30.41,56.94,30.57,51.75,32.42,48.01Z" fill="#F1BE4C"/><path d="M32.73,59.93C32.74,59.93,32.74,59.9,32.73,59.9C32.72,59.91,32.72,59.93,32.73,59.93Z" fill="white"/><path d="M48.43,56.98C47.39,56.28,47.07,53.53,47.94,51.65C48.88,49.63,50.79,49.25,51.34,52.1C51.37,52.58,51.16,55.25,50.56,56.18C50.05,56.95,49.16,57.48,48.43,56.98Z" fill="#262525"/><path d="M52.45,41.96C50.11,40.77,47.08,41.93,45.04,44.47C42.97,47.01,41.88,50.94,42.51,55.32C43.09,60.93,46.1,65.18,50.5,64.51C53.98,63.98,56.37,61.25,56.83,56.51C57.25,52.34,56.45,47.89,55.08,44.74C54.57,43.66,53.68,42.59,52.45,41.96Z" fill="#262525"/><path d="M46.92,54.27C47.46,58.59,50.56,57.79,51.35,54.98C51.82,53.25,51.97,51.24,51.15,49.61C50.93,49.13,50.01,48.3,49.29,48.46C47.76,48.8,46.48,51.22,46.92,54.27Z" fill="#F1BE4C"/><path d="M44.28,46.09C46.12,42.73,49.48,40.85,52.25,42.22C53.39,42.79,54.21,43.76,54.66,44.72C56.48,48.97,57.04,54.6,55.04,59.2C53.24,63.18,46.83,64.87,44.14,58.95C42.02,54.27,42.39,49.44,44.28,46.09Z" fill="#F1BE4C"/><path d="M54.38,46.13C54.01,45.17,53.31,44.26,53.1,43.22C53.06,43.01,52.84,43.02,52.78,43.2C52.48,44.05,52.69,44.75,53.14,45.42C53.74,46.3,54.2,47.03,54.52,48.19C55.21,50.62,55.35,53.06,55.04,55.46C55.03,55.54,55.11,55.58,55.13,55.51C55.63,53.6,55.63,51.21,55.22,49.09C55.02,48.08,54.74,47.06,54.38,46.13Z" fill="white"/><path d="M76.94,33.45L76.94,63.52L52,63.52L52,33.45Z" fill="white"/><path d="M62.36,44.99C61.5,41.59,61,38.09,60.72,34.51C57.84,34.79,54.96,35.11,52.08,35.48C51.69,45.02,52.72,54.34,54.64,63.52C57.2,63.07,59.77,62.59,62.34,62.07C61.6,59.84,60.99,57.59,60.52,55.32C61.25,57.02,62.08,58.69,63.02,60.33C64.13,60.16,65.25,59.98,66.37,59.79C66.14,57.45,66.04,55.11,66.11,52.77C66.74,55.69,67.69,58.55,68.96,61.36L69.26,62.02C71.82,61.39,74.38,60.72,76.94,60.02C72.23,51.75,71.47,42.96,75.79,33.45C72.85,33.45,69.89,33.49,66.91,33.56C64.75,37.4,63.31,41.21,62.36,44.99Z" fill="#262525"/><path d="M75.26,58.27C73.16,58.81,71.06,59.33,68.96,59.82C67.15,55.57,66.09,51.19,65.84,46.69C65.16,50.4,65.03,54.09,65.22,57.78C64.42,57.9,63.62,58.02,62.82,58.14C61.18,55.02,59.9,51.81,58.91,48.52C59.26,52.41,60,56.25,61.08,60.03C58.97,60.42,56.87,60.8,54.77,61.15C53.1,52.83,52.26,44.38,52.71,35.72C55.22,35.42,57.73,35.14,60.24,34.89C60.6,38.96,61.24,42.94,62.37,46.8C63.3,42.52,64.83,38.23,67.32,33.89C69.93,33.83,72.53,33.8,75.11,33.79C71.21,42.49,71.56,50.61,75.26,58.27Z" fill="#F1BE4C"/></svg>