<svg xmlns="http://www.w3.org/2000/svg" viewBox="0 0 90 90"><path d="M51.1,4.29C58.96,-3.08,74.53,5.63,67.32,13.12C78.29,9.23,92.29,25.42,75.67,25.42C75.76,25.54,82.47,30.94,80.92,34.32C79.34,37.74,75.14,39.18,75.14,39.18L69.9,58.29L69.9,58.29C69.4,63.3,69.93,80.78,63.98,83.16C59.92,84.83,53.48,82.48,53.43,82.46C53.41,82.49,48.86,88.91,45.7,89.79C42.13,90.84,37.32,87.79,35.74,85.01C28.45,88.42,22.35,89.91,20.27,87.75C15.85,83.14,15.72,77.51,15.72,77.51C15.72,77.51,9.86,81.31,7.37,77.01C4.88,72.72,15.49,57.12,22.11,54.41C29.16,51.63,26.05,54.45,28.28,46.8C28.45,46.65,28.62,46.51,28.79,46.38C28.78,46.35,28.78,46.33,28.77,46.3C26.65,35.46,26.12,33.74,26.06,31.32C25.98,28.57,36.24,15.41,39.31,12.65C30.77,3.33,36.47,-5.53,51.1,4.29Z" fill="currentColor"/><path d="M75.3,25.41C75.41,25.53,79.87,30.93,78.3,34.32C76.72,37.74,72.53,39.18,72.53,39.18L70.78,54.48C69.75,60.34,68.72,78.54,62.46,81.34C58.52,83.06,52.88,80.84,52.88,80.84C52.88,80.84,48.03,88.19,44.97,89.1C44.72,89.17,44.44,89.21,44.14,89.21C40.88,89.28,35.39,85.45,35.39,85.45C35.39,85.45,35.31,85.5,35.16,85.58C33.65,86.45,24.98,88.7,21.45,87.05C17.58,85.23,16.65,77.7,16.65,77.7C16.65,77.7,16.65,77.7,16.62,77.71C16.2,77.88,10.65,80.07,8.65,76.92C5.29,71.68,16.65,56.5,22.03,54.38C25.57,51.3,26.4,47.02,25.95,43.64C25.5,40.26,23.5,34.06,23.44,31.31C23.36,28.56,35.86,13.96,38.93,11.2C35.77,6.78,32.83,-2.52,51.22,4.62C58.31,0.49,74.51,5.87,67.3,13.36C76.69,11.32,84.96,21.82,82.2,23.74C79.48,25.65,75.42,25.42,75.3,25.41Z" fill="currentColor"/><path d="M52.86,80.83C49.69,70.47,49.69,61.17,50.36,59.79C50.96,58.56,58.39,78.24,63.96,79.62L63.96,79.63C61.87,83.32,56.15,82.12,52.86,80.83Z" fill="currentColor"/><path d="M35.37,85.46C31.83,74.05,35.18,62.22,35.18,62.22C35.18,62.22,38.89,80.45,44.11,89.23L44.13,89.23C40.86,89.29,35.37,85.46,35.37,85.46Z" fill="currentColor"/><path d="M40.2,55.25C46.4,54.63,56.62,54.72,59.62,52.36C62.62,49.99,63.96,34.98,64.09,32.92C64.22,30.85,69.13,29.96,69.93,27.68C70.74,25.4,68.56,22.02,65.81,18.43C62.58,14.2,47.11,6.14,38.52,11.45C35.45,14.2,22.95,28.81,23.03,31.56C23.06,32.52,23.24,33.93,23.48,35.5C23.94,38.43,24.61,41.93,24.9,44.13C25.15,46.04,24.71,48.45,23.74,51.01C22.99,52.99,22.95,52.62,21.62,54.62L21.62,54.63C26.99,57.11,33.49,55.92,40.2,55.25Z" fill="currentColor"/><path d="M44.89,46.69C47.85,47.02,51.35,46.46,51.79,45.82C52.36,44.97,53.23,42.9,51.92,41.36C51.09,40.39,45.34,38.6,43.86,39.56C43.84,39.57,43.81,39.6,43.78,39.61C42.44,40.7,41.31,44.35,42.6,45.9L42.61,45.92C42.95,46.34,43.81,46.57,44.89,46.69Z" fill="currentColor"/><path d="M48.26,57.96C50.42,56.35,51.96,60.18,51.13,61.12C50.96,60.64,50.68,60.21,50.38,59.81C45.8,66.12,36.52,69.74,29.66,64.71C36.71,69,45.07,64.88,48.93,58.42C48.53,58.12,48.26,57.96,48.26,57.96Z" fill="currentColor"/><path d="M47.8,46.01C46.09,46.01,44.7,44.63,44.7,42.92C44.7,41.2,46.09,39.82,47.8,39.82C49.51,39.82,50.89,41.2,50.89,42.92C50.89,44.63,49.51,46.01,47.8,46.01Z" fill="currentColor"/><path d="M51.59,41.1C47.43,38.01,42.52,38.86,42.85,39.66C43.15,40.4,49.93,40.36,51.59,41.1Z" fill="currentColor"/><path d="M45.77,41.99C45.77,41.43,45.31,40.97,44.74,40.97C44.18,40.97,43.72,41.43,43.72,41.99C43.72,42.56,44.18,43.02,44.74,43.02C45.31,43.02,45.77,42.56,45.77,41.99Z" fill="currentColor"/><path d="M30.6,46.18C31.89,46.31,33.23,46.13,33.23,46.13L34.68,41.69C32.81,40.45,31.48,40.02,30.36,39.88C29.83,39.81,29.35,39.81,28.87,39.82C27.36,39.85,27.74,43.48,28.36,45.09L28.35,45.09C28.62,45.8,29.58,46.09,30.6,46.18Z" fill="currentColor"/><path d="M34.68,41.69L33.37,45.69C33.3,45.7,33.23,45.71,33.16,45.71C31.72,45.7,30.56,44.32,30.56,42.61C30.56,41.6,30.96,40.71,31.59,40.15C32.45,40.41,33.45,40.88,34.68,41.69Z" fill="currentColor"/><path d="M30.6,42.7C30.12,42.7,29.73,42.24,29.73,41.68C29.73,41.11,30.12,40.65,30.6,40.65C31.07,40.65,31.46,41.11,31.46,41.68C31.46,42.24,31.07,42.7,30.6,42.7Z" fill="currentColor"/><path d="M27.43,39.89C27.06,39.26,30.06,38.2,34.12,41.34C31.82,39.8,27.81,40.52,27.43,39.89Z" fill="currentColor"/><path d="M29.75,49.64C27.24,55.18,25.99,58.89,30.91,59.17C33.64,59.33,37.16,58.27,39.76,57.3C41.73,56.56,42.7,54.35,41.93,52.4C40.3,48.3,37.89,41.64,38.3,39.27C38.91,35.74,42.66,33.91,42.66,33.91C42.66,33.91,39.91,28.33,35.33,33.47L35.35,33.47C36.93,41.14,32.27,44.1,29.75,49.64Z" fill="currentColor"/><path d="M16.61,77.71C16.19,77.88,18.5,86.02,21.44,87.05C21,82,22.5,67.5,22.77,61.63C21.29,65.63,15.16,67.92,16.63,77.7C16.63,77.7,16.63,77.7,16.61,77.71Z" fill="currentColor"/><path d="M68.79,59.98C68.05,59.79,74.29,47.22,74.29,47.22C78.41,46.3,80.49,49.4,79.71,53.11L79.71,53.1C78.15,65.18,68.79,59.98,68.79,59.98Z" fill="currentColor"/><path d="M69.34,60.31C68.6,60.13,67.8,59.81,66.96,59.38C64.47,58.09,63.87,54.05,64.93,51.47C66.31,48.11,70.3,46.36,73.58,46.31L73.62,46.31C76.9,46.27,80.12,48.36,79.34,51.85L79.34,51.84C78.65,54.97,75.83,61.99,69.34,60.31Z" fill="currentColor"/><path d="M69.34,60.31C74.15,57.35,67.78,55.26,67.78,55.26C67.78,55.26,66.96,49.56,73.58,46.3L73.62,46.3C76.9,46.26,80.12,48.35,79.34,51.84C78.65,54.97,75.83,61.99,69.34,60.31Z" fill="currentColor"/><path d="M58.17,36.74C59.96,37.18,59.89,31.81,59.26,29.23C58.8,27.33,52.94,25.03,48.32,23.95C46.51,23.58,45.43,25.98,45.1,27.65C44.74,24.52,43.84,23.38,43.14,23.52C39.55,25.05,40.15,31.52,41.03,34.48C42.03,35.98,54.01,35.73,58.17,36.74Z" fill="currentColor"/><path d="M35.65,34.98C36.99,32.26,34.46,25.08,30.81,25.08C29.69,25.08,29.41,26.39,30.03,28.89C29.77,27.73,28.02,25.9,26.96,25.58C25.52,25.15,21.79,26.75,21.5,28.19C21.5,29.99,21.78,35.24,23.36,36.43L23.34,36.4C23.87,36.8,30.86,32.79,35.65,34.98Z" fill="currentColor"/><path d="M21.49,28.18C21.34,29.83,21.76,35.23,23.34,36.41C23.34,36.41,22.96,30.98,22.63,29.04C22.33,27.24,25.67,25.74,26.11,25.54L26.11,25.56C24.88,25.78,21.64,26.52,21.49,28.18Z" fill="currentColor"/></svg>