<svg xmlns="http://www.w3.org/2000/svg" viewBox="0 0 90 90"><path d="M85.23,82.38C85.23,77.52,82.33,73.34,78.15,71.47L56.83,61.82C56.83,61.82,56.75,61.79,56.7,61.78C55.98,67.6,50.9,74.36,44.9,74.36C38.9,74.36,34.03,67.59,33.29,61.78C33.24,61.78,33.2,61.8,33.16,61.82L11.84,71.47C7.67,73.33,4.76,77.52,4.76,82.38C4.76,86.19,3.38,90.01,12.34,90.01L77.64,90.01L77.65,90.01C86.61,90.01,85.23,86.2,85.23,82.38Z" fill="currentColor"/><path d="M41.46,74.8C38.11,74.8,32.29,72.93,32.29,69.58L31.79,54.2L58.15,54.2L58.15,65.95C58.15,69.3,45.15,82.63,45.15,82.63L45.16,82.63Z" fill="currentColor"/><path d="M45.15,82.63L33.81,72.29L39.03,70.47L40.19,71.75C40.63,72.23,40.97,72.78,41.23,73.38L41.24,73.39Z" fill="currentColor"/><path d="M26.05,64.86C26.05,64.86,27.43,70.5,31.51,78.51C31.51,78.51,33.72,74.88,36.85,73.66C40.22,72.35,40.86,72.48,40.86,72.48C40.86,72.48,35.86,66.21,31.47,58.14L31.48,58.13Z" fill="currentColor"/><path d="M45.16,82.63L56.5,72.29L51.28,70.47L50.12,71.75C49.68,72.23,49.34,72.78,49.08,73.38L49.07,73.39Z" fill="currentColor"/><path d="M49.46,72.48C49.46,72.48,50.1,72.35,53.47,73.66C56.6,74.87,58.81,78.51,58.81,78.51C62.89,70.49,64.27,64.86,64.27,64.86L58.84,58.13L58.85,58.14C54.46,66.22,49.46,72.48,49.46,72.48Z" fill="currentColor"/><path d="M63.59,19.69C63.55,19.89,63.51,20.11,63.48,20.35C62.91,24.27,62.49,32.96,62.84,35.08C62.93,35.66,60.57,36.09,57,36.41C53.43,36.73,47.91,17.79,43.18,17.93C38.15,18.07,33.93,37.29,30.53,37.31C27.84,37.33,26.13,37.33,26.13,37.33C25.88,32.2,23.65,29.44,23.04,27.94C22.91,27.63,22.9,27.28,22.99,26.9C23.03,26.62,23.13,26.32,23.23,26.02C23.71,24.68,24.56,23.15,24.16,21.93C23.62,20.33,21.65,18.64,22.86,15.53C23,15.19,23.17,14.82,23.39,14.44C23.51,14.23,23.64,14.01,23.8,13.79C26.33,10.01,30.72,9.39,33.67,6.22C34.05,5.82,34.38,5.39,34.7,4.9C35.14,4.23,37.14,1.72,40.25,0.59C41.1,0.28,45.39,1.68,45.26,1.89C45.43,1.73,47.48,-0.14,50.01,0.01C51.28,0.09,51.72,2.09,52.12,3.03L52.12,3.06C52.57,4.15,53.31,5.15,54.92,5.52C56.04,5.77,56.99,6.04,57.76,6.35C58.15,6.51,58.49,6.67,58.79,6.85C60.02,7.56,60.61,8.53,60.61,10.02C60.61,12.65,63.9,15.53,63.78,17.89L63.78,17.92L63.79,17.93C63.77,18.47,63.7,19.06,63.59,19.69Z" fill="currentColor"/><path d="M62.57,44.02C62.65,43.9,62.73,43.75,62.82,43.6C63.84,41.71,65.47,37.45,65.09,35.63C65.02,35.3,64.89,35.02,64.71,34.78C63.86,33.62,61.84,33.57,59.6,33.98L59.83,43.88L59.81,43.88C59.81,43.88,61.57,45.61,62.57,44.02Z" fill="currentColor"/><path d="M26.9,46.37C26.81,46.26,26.72,46.12,26.62,45.97C25.44,44.18,23.45,40.08,23.68,38.23C23.72,37.89,23.83,37.6,23.98,37.35C24.73,36.12,26.74,35.9,29.01,36.1L29.63,45.99C29.63,45.99,28.01,47.87,26.9,46.37Z" fill="currentColor"/><path d="M29.5,51.37C30.49,56.75,39.16,64.01,48.47,61.76C57.77,59.51,61.36,52.62,60.87,44.61C60.37,36.6,59.25,19.58,57.52,16.31C55.79,13.06,46.49,12.43,41.29,13.06C36.09,13.69,28.4,15.81,28.28,23.95L28.26,23.96C28.17,29.85,28.51,45.99,29.5,51.37Z" fill="currentColor"/><path d="M51.33,32.61C54.67,31.97,55.37,34.37,55.51,35.55C55.68,36.92,50.73,40.03,48.49,37.34L48.5,37.35C47.16,35.75,49.43,32.98,51.33,32.61Z" fill="currentColor"/><path d="M51.36,38.29C49.9,38.29,48.73,37.11,48.73,35.64C48.73,34.17,49.9,32.99,51.36,32.99C52.82,32.99,53.99,34.17,53.99,35.64C53.99,37.1,52.82,38.29,51.36,38.29Z" fill="currentColor"/><path d="M53.51,35.26C53.15,35.26,52.84,34.95,52.84,34.58C52.84,34.21,53.15,33.9,53.51,33.9C53.87,33.9,54.18,34.21,54.18,34.58C54.18,34.96,53.87,35.26,53.51,35.26Z" fill="currentColor"/><path d="M36.43,33.09C33.12,33.17,32.75,36.2,32.88,37.37C33.01,38.59,35.21,39.82,37.36,39.57C40.07,39.25,40.96,38.35,41,37.21C41.09,34.49,38.42,33.04,36.43,33.09Z" fill="currentColor"/><path d="M37.51,39.35C36.05,39.35,34.88,38.17,34.88,36.71C34.88,35.25,36.05,34.06,37.51,34.06C38.97,34.06,40.14,35.24,40.14,36.71C40.14,38.17,38.97,39.35,37.51,39.35Z" fill="currentColor"/><path d="M39.64,36.11C39.28,36.11,38.97,35.8,38.97,35.43C38.97,35.06,39.28,34.75,39.64,34.75C40,34.75,40.31,35.06,40.31,35.43C40.31,35.81,40,36.11,39.64,36.11Z" fill="currentColor"/><path d="M44.97,45.93C46.55,45.93,48.69,42.93,48.69,42.93C48.69,42.93,46.27,44.24,44.87,44.52C43.47,44.8,40.88,43.3,40.88,43.3C40.88,43.3,43.39,45.93,44.97,45.93Z" fill="currentColor"/><path d="M52.54,44.33C51.88,45.2,48.78,49.02,44.59,49.68C49.8,49.93,52.58,45.73,53.13,44.8C53.29,45.02,53.38,45.28,53.43,45.52C53.93,44.21,52.88,43.49,51.73,44.21L51.72,44.21C52.05,44.18,52.32,44.23,52.54,44.33Z" fill="currentColor"/><path d="M47.31,28.74C48.44,28.65,55,26.68,56.58,29.68C56.18,27.05,53.03,24.71,51.94,24.66C50.86,24.61,47.9,25.79,47.9,25.79L47.5,28.04L46.81,26.16L46.02,26.25L46.04,26.25L46.03,26.25C46.03,26.25,46.18,28.83,47.31,28.74Z" fill="currentColor"/><path d="M41.52,25.69C41.1,26.3,34.83,25.41,31.76,29.96C31.54,29.58,31.96,27.23,32.32,26.4C33.11,24.54,35.02,23.4,39.66,22.93C39.97,23.9,40.18,25.13,40.18,25.13L40.87,22.83L41.66,22.64C41.66,22.64,41.94,25.08,41.52,25.69Z" fill="currentColor"/></svg>