<svg xmlns="http://www.w3.org/2000/svg" viewBox="0 0 90 90"><path d="M82.11,42.66C78.41,39.55,74.33,36.93,69.98,34.84L69.79,34.21C74.13,29.87,77.36,24.35,78.95,18.08C79.48,15.99,79.17,13.81,78.06,11.95C76.95,10.09,75.19,8.77,73.09,8.24C72.44,8.07,71.77,7.99,71.09,7.99C67.38,7.99,64.16,10.5,63.25,14.1C62.62,16.57,61.53,18.84,60.02,20.83C55.63,17.4,50.45,15.56,45.03,15.56C39.61,15.56,34.41,17.41,30,20.87C28.48,18.87,27.37,16.59,26.74,14.11C25.83,10.51,22.6,8.01,18.89,8.01C18.21,8.01,17.54,8.1,16.88,8.26C14.8,8.79,13.03,10.11,11.92,11.97C10.81,13.83,10.5,16.01,11.03,18.1C12.63,24.39,15.86,29.9,20.21,34.25L20.04,34.84C15.67,36.94,11.59,39.57,7.87,42.68C6.21,44.07,5.2,46.02,5.01,48.18C4.82,50.33,5.48,52.43,6.87,54.09C8.41,55.93,10.67,56.98,13.08,56.98C14.98,56.98,16.83,56.31,18.28,55.09C18.48,54.92,18.68,54.76,18.89,54.59C19.04,55.28,19.21,55.97,19.41,56.65C15.37,60.96,12.5,66.18,11.04,71.94C10.51,74.04,10.82,76.21,11.93,78.07C13.04,79.93,14.8,81.25,16.9,81.78C17.54,81.95,18.22,82.03,18.9,82.03C22.6,82.03,25.83,79.52,26.74,75.93C27.13,74.41,27.7,72.95,28.45,71.58C33.13,75.83,38.92,78.17,45.03,78.17C51.14,78.17,56.89,75.84,61.56,71.62C62.3,72.98,62.87,74.43,63.25,75.93C64.16,79.52,67.39,82.03,71.1,82.03C71.78,82.03,72.45,81.94,73.11,81.78C75.19,81.25,76.96,79.94,78.06,78.08C79.17,76.22,79.48,74.04,78.95,71.95C77.49,66.21,74.64,61.01,70.63,56.71C70.82,56.03,71,55.34,71.15,54.64C71.33,54.79,71.52,54.94,71.7,55.09C73.16,56.31,75,56.98,76.9,56.98C79.3,56.98,81.56,55.93,83.1,54.09C84.49,52.43,85.15,50.33,84.96,48.18L84.97,48.16C84.78,46.01,83.76,44.05,82.11,42.66Z" fill="currentColor"/><path d="M66.08,38.22L65.92,37.68L65.35,38.08C59.37,42.33,52.33,44.58,45,44.58C37.67,44.58,30.68,42.34,24.71,38.11L24.13,37.74L24,38.18C19.26,40.23,14.86,42.94,10.92,46.25C9.48,47.46,9.3,49.6,10.5,51.04C11.15,51.81,12.1,52.26,13.11,52.26C13.91,52.26,14.68,51.98,15.29,51.47C17.61,49.53,20.13,47.8,22.79,46.34C22.79,46.51,22.79,46.68,22.79,46.85C22.79,50.72,23.47,54.45,24.81,57.94C20.28,61.98,17.1,67.21,15.61,73.08C15.39,73.96,15.52,74.87,15.98,75.66C16.44,76.44,17.19,76.99,18.06,77.22C18.34,77.29,18.62,77.33,18.91,77.33C20.46,77.33,21.82,76.28,22.2,74.76C23.21,70.78,25.26,67.13,28.14,64.16C32.38,70.08,38.51,73.45,45.04,73.45C51.57,73.45,57.67,70.09,61.91,64.2C64.77,67.15,66.81,70.79,67.81,74.76C68.19,76.27,69.55,77.32,71.1,77.32C71.38,77.32,71.67,77.28,71.94,77.21C72.82,76.99,73.56,76.43,74.03,75.65C74.49,74.87,74.63,73.95,74.4,73.07C72.91,67.22,69.76,62.01,65.25,57.97C66.6,54.47,67.29,50.73,67.29,46.84C67.29,46.68,67.29,46.53,67.29,46.37C69.93,47.83,72.43,49.54,74.73,51.46C75.34,51.97,76.12,52.25,76.91,52.25C77.92,52.25,78.87,51.81,79.52,51.03C80.73,49.59,80.54,47.45,79.1,46.24L79.09,46.26C75.16,42.97,70.79,40.26,66.08,38.22Z" fill="currentColor"/><path d="M74.4,16.91C74.62,16.03,74.49,15.12,74.03,14.34C73.57,13.56,72.82,13.01,71.95,12.78C71.67,12.71,71.39,12.67,71.11,12.67C69.56,12.67,68.2,13.72,67.82,15.23C66.61,20.01,63.98,24.2,60.22,27.38C56.08,22.76,50.72,20.22,45.05,20.22C39.38,20.22,34,22.77,29.86,27.41C26.07,24.22,23.43,20.01,22.21,15.22C21.83,13.71,20.47,12.66,18.92,12.66C18.64,12.66,18.35,12.7,18.08,12.77C17.2,12.99,16.46,13.55,15.99,14.33C15.53,15.11,15.39,16.02,15.62,16.9C19.04,30.36,31.13,39.77,45.02,39.77L45,39.78C58.89,39.78,70.98,30.38,74.4,16.91Z" fill="currentColor"/></svg>