<svg xmlns="http://www.w3.org/2000/svg" viewBox="0 0 90 90"><path d="M85,45L85,13C85,8.58,81.42,5,77,5L13,5C8.58,5,5,8.58,5,13L5,45Z" fill="currentColor"/><path d="M5,13C5,8.58,8.58,5,13,5L55,5L15.58,5.99C10.64,6.11,6.51,9.82,6.24,14.75C5.88,21.41,6,27.21,5,35Z" fill="currentColor"/><path d="M32,5L33.01,11.08C33.53,14.18,31.14,17,28,17C24.86,17,22.47,14.18,22.99,11.08L24,5Z" fill="currentColor"/><path d="M66,5L67.01,11.08C67.53,14.18,65.14,17,62,17C58.86,17,56.47,14.18,56.99,11.08L58,5Z" fill="currentColor"/><path d="M28,0C25.79,0,24,1.79,24,4L24,9C24,11.21,25.79,13,28,13C30.21,13,32,11.21,32,9L32,4C32,1.79,30.21,0,28,0Z" fill="currentColor"/><path d="M62,0C59.79,0,58,1.79,58,4L58,9C58,11.21,59.79,13,62,13C64.21,13,66,11.21,66,9L66,4C66,1.79,64.21,0,62,0Z" fill="currentColor"/><path d="M85,51L85,77C85,81.42,81.42,85,77,85L13,85C8.58,85,5,81.42,5,77L5,51Z" fill="currentColor"/><path d="M85,75L85,78L5,78L5,75Z" fill="currentColor"/><path d="M85,45L89.92,69.25C89.97,69.51,90,69.78,90,70.04L90,71C90,73.21,88.21,75,86,75L4,75C1.79,75,0,73.21,0,71L0,70.04C0,69.78,0.03,69.51,0.08,69.25L5,45Z" fill="currentColor"/><path d="M72.41,45.98C72.41,42.45,69.5,39.6,65.92,39.6C64.69,39.6,63.54,39.94,62.57,40.52C62.2,40.74,61.74,40.75,61.37,40.54C61,40.33,60.76,39.94,60.76,39.52L60.76,31.92C60.76,30.75,59.76,29.81,58.57,29.81L49.09,29.81C48.67,29.81,48.28,29.59,48.07,29.24C47.86,28.88,47.85,28.44,48.05,28.08C48.57,27.16,48.86,26.11,48.86,24.98C48.86,21.45,45.95,18.59,42.37,18.59C38.79,18.59,35.88,21.45,35.88,24.98C35.88,26.1,36.17,27.16,36.69,28.08C36.89,28.44,36.89,28.88,36.67,29.24C36.46,29.6,36.07,29.81,35.65,29.81L26.17,29.81C24.98,29.81,23.99,30.75,23.99,31.92L23.99,39.34C23.99,39.75,24.21,40.13,24.57,40.34C24.93,40.55,25.38,40.56,25.74,40.37C26.66,39.88,27.71,39.61,28.82,39.61C32.41,39.61,35.31,42.47,35.31,45.99" fill="none" stroke="currentColor" stroke-width="2" stroke-linecap="round" stroke-linejoin="round"/><path d="M72.41,46.26C72.41,49.77,69.5,52.62,65.92,52.62C64.69,52.62,63.54,52.28,62.57,51.7C62.2,51.48,61.74,51.47,61.37,51.68C61,51.89,60.76,52.27,60.76,52.7L62.96,62.9C62.96,64.06,61.96,65.01,60.77,65.01L23.97,65.01C22.78,65.01,21.79,64.06,21.79,62.9L23.99,52.88C23.99,52.47,24.21,52.09,24.57,51.88C24.93,51.67,25.38,51.66,25.74,51.85C26.66,52.34,27.71,52.62,28.82,52.62C32.41,52.62,35.31,49.77,35.31,46.26C35.31,45.83,35.27,45.41,35.18,45L72.27,45L72.28,45C72.36,45.41,72.41,45.83,72.41,46.26Z" fill="currentColor"/></svg>