<svg xmlns="http://www.w3.org/2000/svg" viewBox="0 0 90 90"><path d="M85,22L85,77C85,81.42,81.42,85,77,85L13,85C8.58,85,5,81.42,5,77L5,22Z" fill="currentColor"/><path d="M85,22L85,73C85,77.42,81.42,81,77,81L13,81C8.58,81,5,77.42,5,73L5,22Z" fill="currentColor"/><path d="M85,73C85,77.42,81.42,81,77,81L22,81L73.66,79.12C78.7,78.94,82.83,75.03,83.12,69.99C84,54.68,83.51,42.89,85,26Z" fill="currentColor"/><path d="M85,22L85,13C85,8.58,81.42,5,77,5L13,5C8.58,5,5,8.58,5,13L5,22Z" fill="currentColor"/><path d="M5,22L5,13C5,8.86,8.15,5.45,12.18,5.04C12.45,5.01,12.72,5,13,5L55,5L15.58,5.99C10.64,6.11,6.51,9.82,6.24,14.75C6.13,16.75,6.07,18.67,6,20.6C5.98,21.07,5.97,21.53,5.95,22Z" fill="currentColor"/><path d="M32,5L33.01,11.08C33.53,14.18,31.14,17,28,17C24.86,17,22.47,14.18,22.99,11.08L24,5Z" fill="currentColor"/><path d="M66,5L67.01,11.08C67.53,14.18,65.14,17,62,17C58.86,17,56.47,14.18,56.99,11.08L58,5Z" fill="currentColor"/><path d="M28,0C25.79,0,24,1.79,24,4L24,9C24,11.21,25.79,13,28,13C30.21,13,32,11.21,32,9L32,4C32,1.79,30.21,0,28,0Z" fill="currentColor"/><path d="M28,0C30.21,0,32,1.79,32,4L32,6L31.59,3.94C31.25,2.23,29.74,1,28,1C26.26,1,24.75,2.23,24.41,3.94L24,6L24,4C24,1.79,25.79,0,28,0Z" fill="currentColor"/><path d="M62,0C59.79,0,58,1.79,58,4L58,9C58,11.21,59.79,13,62,13C64.21,13,66,11.21,66,9L66,4C66,1.79,64.21,0,62,0Z" fill="currentColor"/><path d="M62,0C64.21,0,66,1.79,66,4L66,6L65.59,3.94C65.25,2.23,63.74,1,62,1C60.26,1,58.75,2.23,58.41,3.94L58,6L58,4C58,1.79,59.79,0,62,0Z" fill="currentColor"/><path d="M25,46L25,57L14,57L14,46Z" fill="currentColor"/><path d="M42,46L42,57L31,57L31,46Z" fill="currentColor"/><path d="M48,46L48,57L59,57L59,46Z" fill="currentColor"/><path d="M76,46L76,57L65,57L65,46Z" fill="currentColor"/><path d="M25,29L25,40L14,40L14,29Z" fill="currentColor"/><path d="M42,29L42,40L31,40L31,29Z" fill="currentColor"/><path d="M48,29L48,40L59,40L59,29Z" fill="currentColor"/><path d="M76,29L76,40L65,40L65,29Z" fill="currentColor"/><path d="M14,63L14,74L25,74L25,63Z" fill="currentColor"/><path d="M42,63L42,74L31,74L31,63Z" fill="currentColor"/><path d="M48,63L48,74L59,74L59,63Z" fill="currentColor"/><path d="M76,63L76,74L65,74L65,63Z" fill="currentColor"/></svg>