<svg xmlns="http://www.w3.org/2000/svg" viewBox="0 0 90 90"><path d="M47.13,43.57C42.86,43.55,39.07,39.66,36.94,37.43L34.83,34.99C34.01,35.98,31.74,39.13,32.74,42.64C33.05,43.72,33.53,44.68,34.15,45.6C35.28,47.26,36.89,48.72,38.79,50.25C42.86,53.55,49.99,59.25,50.76,67.06L51.04,72.32C51.04,72.32,12.37,76.22,12.37,72.88C12.37,69.54,11.74,67.06,11.74,67.06C11.05,63.71,7.17,52.41,7.17,46.28C7.17,23.2,22.75,13.06,36.68,12.12L43.8,5.01C44.81,5.01,45.85,6.08,46.13,7.26L46.94,11.14C47.76,13.15,49.12,14.51,51.22,16.25C53.32,17.99,53.86,19.63,54.33,20.82C55.99,25.05,56.12,27.29,59,31.48L65.45,40.55C67.11,42.6,66.89,45.41,65.11,46.91C62.75,48.91,55.98,50.58,55.39,50L55.41,49.99C52.8,47.47,52.67,43.6,47.13,43.57Z" fill="currentColor"/><path d="M47.94,69.49C63.45,69.49,63.38,79.83,63.38,79.83L63.38,85L1.41,85L1.41,79.83C1.41,79.83,1.34,69.49,16.85,69.49Z" fill="currentColor"/><path d="M12.2,69.85C12.02,68.15,11.74,67.06,11.74,67.06C11.55,66.12,11.11,64.57,10.57,62.68C9.19,57.81,7.17,50.7,7.17,46.28C7.17,23.52,22.32,13.34,36.1,12.16C31.8,13.01,13.55,17.76,13.55,37.78C13.55,47.16,17.36,53.21,20.92,58.86C23.1,62.33,25.19,65.64,26.24,69.48C26.24,69.48,15.21,68.48,10.24,71C10.24,71,10.16,70.77,10.02,70.34C10.7,70.15,11.42,69.98,12.2,69.85Z" fill="currentColor"/><path d="M37,12.01C36.93,12.01,36.86,12.01,36.8,12L36.75,12.05C36.91,12.02,37,12.01,37,12.01Z" fill="currentColor"/><path d="M59.01,31.46C56.13,27.27,56,25.03,54.34,20.8C53.88,19.61,53.34,17.97,51.23,16.23C49.13,14.49,47.77,13.13,46.95,11.12L46.14,7.24C45.93,6.36,45.3,5.54,44.58,5.18C44.42,5.15,44.27,5.11,44.1,5.11C44.1,5.11,41.1,12.23,45.53,14.98C54.04,20.27,52.49,26.75,54.96,30.04C56.18,31.67,64.8,42.31,66.47,44.37C66.69,43.09,66.42,41.69,65.47,40.52L65.46,40.53Z" fill="currentColor"/><path d="M47.13,43.56C52.67,43.59,52.8,47.46,55.41,49.98C55.55,50.11,56.03,50.12,56.69,50.04C56.15,49.12,54.62,47.44,53.47,43.97C51.59,38.33,50.32,40.98,45.6,43.4L45.6,43.39C46.1,43.5,46.61,43.56,47.13,43.56Z" fill="currentColor"/><path d="M30.25,32.57C30.23,34.11,31.21,38.41,32.68,42.27C31.93,38.91,34.04,35.94,34.83,34.99L35.01,35.19C34.98,35.09,34.96,35.02,34.96,35.02C34.96,35.02,32.48,31.13,31.48,29.21C30.48,27.29,30.28,30.89,30.25,32.57Z" fill="currentColor"/><path d="M47.94,69.49L16.84,69.49C8.66,69.49,4.84,72.36,3.03,75.08C5.03,74.35,11.63,72.86,32.18,72.86C55.61,72.86,60.9,74.8,61.92,75.33C60.18,72.54,56.37,69.49,47.94,69.49Z" fill="currentColor"/><path d="M52.78,55.44L79.22,55.44L79.22,60.11L76.01,85L55.99,85L52.78,60.11Z" fill="currentColor"/><path d="M71.44,53.89L66.89,84.24C66.83,84.68,66.45,85,66.01,85C65.56,85,65.18,84.67,65.12,84.22L61.33,53.89Z" fill="currentColor"/><path d="M52.53,74.89L62.39,83.55L50.44,79.29Z" fill="currentColor"/><path d="M58.1,69.44L61.16,76.01L55.14,72.4Z" fill="currentColor"/><path d="M76.89,69.44L72.98,71.91L75.02,67.58Z" fill="currentColor"/><path d="M83.31,70.78L78.9,72.16L81.99,68.5Z" fill="currentColor"/><path d="M79.83,75.73L69.37,83.47L76.87,72.78Z" fill="currentColor"/><path d="M64.44,67.11L66,85C65.56,85,65.18,84.67,65.13,84.23L62.89,66.33Z" fill="currentColor"/><path d="M71.19,55.6L69.36,67.8C68.25,67.86,67.13,67.89,66,67.89C65.02,67.89,64.04,67.86,63.07,67.82L61.54,55.56C62.99,55.48,64.48,55.44,66,55.44C67.78,55.44,69.52,55.5,71.19,55.6Z" fill="currentColor"/><path d="M44.22,60.11L87.78,60.11C88.64,60.11,89.33,59.41,89.33,58.56L89.33,53.41C89.33,52.76,88.93,52.18,88.32,51.96L78.91,48.44C71.21,46.89,83.11,27.57,84.61,23.01C86.87,16.14,78.83,15,66,15C53.17,15.39,45.13,16.14,47.39,23.01C48.89,27.57,60.79,46.89,53.09,48.44L43.68,51.96C43.07,52.18,42.67,52.76,42.67,53.41L42.67,58.56C42.67,59.41,43.36,60.11,44.22,60.11Z" fill="currentColor"/><path d="M84.9,20L81.48,19.66C71.18,18.63,60.81,18.63,50.52,19.66L47.1,20C48.01,15.89,55.35,15.32,66,15C76.67,15,84.03,15.79,84.9,20Z" fill="currentColor"/><path d="M43.1,52.33C43.26,52.17,43.46,52.04,43.68,51.96L53.09,48.44C54.46,48.17,55.21,47.33,55.5,46.11L61.4,46.11L75.3,52.33Z" fill="currentColor"/><path d="M71.98,15.12C62.72,15.57,56.7,16.74,58.43,23.01C59.69,27.57,69.05,47.67,63.22,49.22L56.11,51.95C55.51,52.18,55.11,52.76,55.11,53.4L55.11,58.56C55.11,59.41,55.81,60.11,56.67,60.11L44.22,60.11C43.36,60.11,42.67,59.41,42.67,58.56L42.67,53.41C42.67,52.76,43.07,52.18,43.68,51.96L53.09,48.44C60.79,46.89,48.89,27.57,47.39,23.01C45.13,16.14,53.17,15.39,66,15C68.14,15,70.14,15.03,71.98,15.12Z" fill="currentColor"/></svg>