<svg xmlns="http://www.w3.org/2000/svg" viewBox="0 0 90 90"><path d="M44.55,29.35C42.84,32.66,41.2,36.26,40.22,39.99C39.12,43.43,37.99,51.25,37.99,51.25L32.15,51.29C32.75,45.96,33.79,39.99,36.02,34.33L43.63,18.61L43.64,18.61C44.17,17.62,44.46,16.66,44.65,15.69C44.82,15.04,44.93,14.36,44.93,13.64C44.93,8.87,40.98,5,36.14,5C31.3,5,27.35,8.87,27.35,13.64C27.35,15.86,28.27,18.89,28.27,18.89C28.27,18.89,15.17,30.3,15.17,47.23C15.17,58.83,20.87,67.45,23.21,70.24L49.65,70.24C52.02,67.38,57.64,58.81,57.64,47.28C57.64,35.75,52.06,27.53,48.18,22.82L48.19,22.82Z" fill="currentColor"/><path d="M51.7,27.74C62.66,58.33,33.49,70.18,33.49,70.18L35.15,70.24L49.66,70.24C52.03,67.38,57.65,58.81,57.65,47.28L57.65,47.29C57.65,39.34,54.76,32.64,51.7,27.74Z" fill="currentColor"/><path d="M36.15,5C31.29,5,27.36,8.87,27.36,13.64C27.36,14.09,27.4,14.58,27.46,15.06C27.54,15.52,27.56,16,27.69,16.44C28.53,10.4,33.29,6,36.69,5.05L36.7,5.05C36.51,5.04,36.34,5,36.15,5Z" fill="currentColor"/><path d="M36.02,34.33L43.63,18.61L43.64,18.61C44.17,17.62,44.46,16.66,44.65,15.69C44.82,15.04,44.93,14.36,44.93,13.64C44.93,11.01,43.7,8.68,41.82,7.1C46.98,17.46,24.28,34.84,32.15,51.29C32.75,45.96,33.79,39.99,36.02,34.33Z" fill="currentColor"/><path d="M15.17,47.23C15.17,51.03,15.81,54.46,16.71,57.52C16.69,47.74,18.82,33.48,29.99,19.5C29.99,19.5,29.24,19.24,28.27,18.89C28.27,18.89,15.17,30.3,15.17,47.23Z" fill="currentColor"/><path d="M21.41,69.9C6.44,69.9,6.5,79.97,6.5,79.97L6.5,85L66.32,85L66.32,79.97C66.32,79.97,66.39,69.9,51.41,69.9L51.42,69.9Z" fill="currentColor"/><path d="M21.4,69.9L51.41,69.9C59.3,69.9,62.99,72.69,64.74,75.34C62.81,74.63,56.44,73.18,36.61,73.18C14,73.18,8.89,75.07,7.91,75.59L7.91,75.58C9.59,72.87,13.27,69.9,21.4,69.9Z" fill="currentColor"/><path d="M50.28,55.44L76.72,55.44L76.72,60.11L73.51,85L53.49,85L50.28,60.11Z" fill="currentColor"/><path d="M68.94,53.89L64.39,84.24C64.33,84.68,63.95,85,63.51,85C63.06,85,62.68,84.67,62.62,84.22L58.83,53.89Z" fill="currentColor"/><path d="M50.03,74.89L59.89,83.55L47.94,79.29Z" fill="currentColor"/><path d="M55.6,69.44L58.66,76.01L52.64,72.4Z" fill="currentColor"/><path d="M74.39,69.44L70.48,71.91L72.52,67.58Z" fill="currentColor"/><path d="M80.81,70.78L76.4,72.16L79.49,68.5Z" fill="currentColor"/><path d="M77.33,75.73L66.87,83.47L74.37,72.78Z" fill="currentColor"/><path d="M61.94,67.11L63.5,85C63.06,85,62.68,84.67,62.63,84.23L60.39,66.33Z" fill="currentColor"/><path d="M68.69,55.6L66.86,67.8C65.75,67.86,64.63,67.89,63.5,67.89C62.52,67.89,61.54,67.86,60.57,67.82L59.04,55.56C60.49,55.48,61.98,55.44,63.5,55.44C65.28,55.44,67.02,55.5,68.69,55.6Z" fill="currentColor"/><path d="M41.72,60.11L85.28,60.11C86.14,60.11,86.83,59.41,86.83,58.56L86.83,53.41C86.83,52.76,86.43,52.18,85.82,51.96L76.41,48.44C68.71,46.89,80.61,27.57,82.11,23.01C84.37,16.14,76.33,15,63.5,15C50.67,15.39,42.63,16.14,44.89,23.01C46.39,27.57,58.29,46.89,50.59,48.44L41.18,51.96C40.57,52.18,40.17,52.76,40.17,53.41L40.17,58.56C40.17,59.41,40.86,60.11,41.72,60.11Z" fill="currentColor"/><path d="M82.4,20L78.98,19.66C68.68,18.63,58.31,18.63,48.02,19.66L44.6,20C45.51,15.89,52.85,15.32,63.5,15C74.17,15,81.53,15.79,82.4,20Z" fill="currentColor"/><path d="M40.6,52.33C40.76,52.17,40.96,52.04,41.18,51.96L50.59,48.44C51.96,48.17,52.71,47.33,53,46.11L58.9,46.11L72.8,52.33Z" fill="currentColor"/><path d="M69.48,15.12C60.22,15.57,54.2,16.74,55.93,23.01C57.19,27.57,66.55,47.67,60.72,49.22L53.61,51.95C53.01,52.18,52.61,52.76,52.61,53.4L52.61,58.56C52.61,59.41,53.31,60.11,54.17,60.11L41.72,60.11C40.86,60.11,40.17,59.41,40.17,58.56L40.17,53.41C40.17,52.76,40.57,52.18,41.18,51.96L50.59,48.44C58.29,46.89,46.39,27.57,44.89,23.01C42.63,16.14,50.67,15.39,63.5,15C65.64,15,67.64,15.03,69.48,15.12Z" fill="currentColor"/></svg>