<svg xmlns="http://www.w3.org/2000/svg" viewBox="0 0 90 90"><path d="M26.37,43.57C30.64,43.55,34.43,39.66,36.56,37.43L38.67,34.99C39.49,35.98,41.76,39.13,40.76,42.64C40.45,43.72,39.97,44.68,39.35,45.6C38.22,47.26,36.61,48.72,34.71,50.25C30.64,53.55,23.51,59.25,22.74,67.06L22.46,72.32C22.46,72.32,61.13,76.22,61.13,72.88C61.13,69.54,61.76,67.06,61.76,67.06C62.45,63.71,66.33,52.41,66.33,46.28C66.33,23.2,50.75,13.06,36.82,12.12L29.7,5.01C28.69,5.01,27.65,6.08,27.37,7.26L26.56,11.14C25.74,13.15,24.38,14.51,22.28,16.25C20.18,17.99,19.64,19.63,19.17,20.82C17.51,25.05,17.38,27.29,14.5,31.48L8.05,40.55C6.39,42.6,6.61,45.41,8.39,46.91C10.75,48.91,17.52,50.58,18.11,50L18.09,49.99C20.7,47.47,20.83,43.6,26.37,43.57Z" fill="currentColor"/><path d="M25.56,69.49C10.05,69.49,10.12,79.83,10.12,79.83L10.12,85L72.09,85L72.09,79.83C72.09,79.83,72.16,69.49,56.65,69.49Z" fill="currentColor"/><path d="M61.3,69.85C61.48,68.15,61.76,67.06,61.76,67.06C61.95,66.12,62.39,64.57,62.93,62.68C64.31,57.81,66.33,50.7,66.33,46.28C66.33,23.52,51.18,13.34,37.4,12.16C41.7,13.01,59.95,17.76,59.95,37.78C59.95,47.16,56.14,53.21,52.58,58.86C50.4,62.33,48.31,65.64,47.26,69.48C47.26,69.48,58.29,68.48,63.26,71C63.26,71,63.34,70.77,63.48,70.34C62.8,70.15,62.08,69.98,61.3,69.85Z" fill="currentColor"/><path d="M36.5,12.01C36.57,12.01,36.64,12.01,36.7,12L36.75,12.05C36.59,12.02,36.5,12.01,36.5,12.01Z" fill="currentColor"/><path d="M14.49,31.46C17.37,27.27,17.5,25.03,19.16,20.8C19.62,19.61,20.16,17.97,22.27,16.23C24.37,14.49,25.73,13.13,26.55,11.12L27.36,7.24C27.57,6.36,28.2,5.54,28.92,5.18C29.08,5.15,29.23,5.11,29.4,5.11C29.4,5.11,32.4,12.23,27.97,14.98C19.46,20.27,21.01,26.75,18.54,30.04C17.32,31.67,8.7,42.31,7.03,44.37C6.81,43.09,7.08,41.69,8.03,40.52L8.04,40.53Z" fill="currentColor"/><path d="M26.37,43.56C20.83,43.59,20.7,47.46,18.09,49.98C17.95,50.11,17.47,50.12,16.81,50.04C17.35,49.12,18.88,47.44,20.03,43.97C21.91,38.33,23.18,40.98,27.9,43.4L27.9,43.39C27.4,43.5,26.89,43.56,26.37,43.56Z" fill="currentColor"/><path d="M43.25,32.57C43.27,34.11,42.29,38.41,40.82,42.27C41.57,38.91,39.46,35.94,38.67,34.99L38.49,35.19C38.52,35.09,38.54,35.02,38.54,35.02C38.54,35.02,41.02,31.13,42.02,29.21C43.02,27.29,43.22,30.89,43.25,32.57Z" fill="currentColor"/><path d="M25.56,69.49L56.66,69.49C64.84,69.49,68.66,72.36,70.47,75.08C68.47,74.35,61.87,72.86,41.32,72.86C17.89,72.86,12.6,74.8,11.58,75.33C13.32,72.54,17.13,69.49,25.56,69.49Z" fill="currentColor"/><path d="M69.5,68L69.5,85L21.5,85L33.5,38L37.5,36C54.37,37.83,34,63.5,69.5,68Z" fill="currentColor"/><path d="M85.83,60.75C82.05,59.8,78.08,60.66,75,63.02L72.38,55.58L72.18,55.02L71.6,54.88C69.85,54.45,67.83,54.39,66.49,54.74L66.44,54.95L66.37,55.25L66.21,55.9L64.86,61.31C61.93,60.29,54.77,57.64,51.12,46.48C49.49,41.49,44.95,37.74,38.68,36.17L37.61,35.9L37.34,36.98L25.72,83.6L25.45,84.67L26.52,85.37C32.79,86.94,38.57,85.32,42.36,81.68C50.8,73.56,58.37,74.57,61.45,75.04L60.11,80.45L59.94,81.1L59.86,81.4L59.81,81.61C60.83,82.55,62.63,83.46,64.38,83.89L64.97,84.03L65.4,83.63L71.2,78.3C72.79,81.82,75.91,84.44,79.69,85.39C86.47,87.08,93.37,82.93,95.07,76.15L95.07,76.13C96.76,69.33,92.61,62.44,85.83,60.75Z" fill="currentColor"/><path d="M73.3,70.07L71.52,77.2C71.41,77.27,65.52,81.05,63.48,75.14L68.62,54.55L68.51,54.55C67.76,54.55,67.06,54.6,66.49,54.75L66.44,54.96L66.36,55.27L66.2,55.91L64.85,61.32C64.85,61.32,64.72,61.28,64.67,61.25L64.48,62C64.48,62,55.43,67.29,48.42,71.79C43.13,75.19,40.12,81.52,39.08,84.05C40.27,83.41,41.37,82.62,42.34,81.68C50.79,73.56,58.36,74.57,61.44,75.04L60.09,80.45L59.93,81.1L59.85,81.4L59.8,81.61C60.82,82.55,62.62,83.46,64.37,83.89L64.93,84.03L65.27,83.74L65.39,83.63L71.19,78.3C72.78,81.82,75.9,84.44,79.68,85.39C84.96,86.71,90.3,84.47,93.21,80.23C93.23,80.18,93.24,80.16,93.24,80.16C89.79,84.18,81.08,85.71,76.28,80.11L76.28,80.09C72.84,76.09,73.3,70.07,73.3,70.07Z" fill="currentColor" opacity="0.5"/><path d="M75.01,63.02L72.39,55.58L72.2,55.02L71.69,54.89L70.24,60.71C72.55,61.65,75.01,63.02,75.05,63.08L75.04,63.09Z" fill="currentColor"/><path d="M82.15,60.41C81.97,60.46,81.88,60.5,81.88,60.5C92.12,63.89,95.58,71.83,95.02,76.29C95.03,76.24,95.06,76.18,95.07,76.14C96.76,69.34,92.61,62.46,85.83,60.76L85.83,60.75C84.61,60.45,83.37,60.35,82.15,60.41Z" fill="currentColor"/><path d="M48.81,51.31C50.74,56.08,59.49,58.84,59.49,58.84C59.6,58.9,59.43,58.7,59.1,58.34C56.25,56.21,53.15,52.65,51.13,46.47C50.07,43.26,47.82,40.56,44.66,38.63C41.19,36.77,37.83,35.84,38.65,36.33C45.73,40.58,45.9,44.12,48.81,51.31Z" fill="currentColor"/></svg>