<svg xmlns="http://www.w3.org/2000/svg" viewBox="0 0 90 90"><path d="M59.86,31.24L60.35,31.05C64.59,29.46,66.73,26.85,67.29,22.57L68.35,9.47C68.35,9.47,62.3,6.99,59.15,6.99L58.72,6.99L55.23,17.99L51.22,17.99L49.28,5.57C49.28,5.57,45.14,4.99,42.44,4.99L42.42,4.99C39.71,4.99,35.58,5.57,35.58,5.57L33.64,17.99L29.63,17.99L26.14,6.99L25.71,6.99C22.56,6.99,16.51,9.47,16.51,9.47L17.57,22.55C18.14,26.83,20.28,29.46,24.51,31.04L25,31.23L20.5,69L64.5,69Z" fill="currentColor"/><path d="M16.5,9.48L17.56,22.56C17.86,24.85,18.64,26.65,19.91,28.09C19.76,27.03,17.95,13.04,22.79,7.43L22.8,7.42C19.8,8.13,16.5,9.48,16.5,9.48Z" fill="currentColor"/><path d="M42.43,5L42.41,5C39.7,5,35.57,5.59,35.57,5.59L33.72,17.4C34.13,15.94,36.87,6.93,43.08,5.01C42.87,5.01,42.64,5,42.43,5Z" fill="currentColor"/><path d="M59.15,7L58.72,7L55.5,17.16C56.36,15.46,59.27,10.12,62.96,7.65C61.59,7.28,60.21,7,59.15,7Z" fill="currentColor"/><path d="M60.03,31.23L60.52,31.04C64.75,29.45,66.9,26.84,67.46,22.56L68.5,9.72C68.49,9.66,68.48,9.63,68.48,9.63L67.75,9.16C66.99,8.87,65.75,8.42,64.39,8C63.32,14.53,61.91,23.92,58.85,26.61C55.94,29.18,54.15,29.78,53.7,29.9C52.85,29.79,51.94,29.69,50.95,29.6C41.96,28.78,28.85,31.35,28.85,31.35C28.85,31.35,42.11,30.54,48.9,39.05C49.54,39.86,50.12,40.9,50.68,41.88C57.64,54.42,59.41,81.06,59.41,81.06L64.44,68.92Z" fill="currentColor"/><path d="M10.52,82.92L10.52,85L74.48,85L74.48,82.92C74.5,76.42,75.2,70.75,64.84,69C60.05,68.51,54.63,68.5,42.51,68.5C32.82,68.5,23.34,68.83,20.16,69C9.8,70.75,10.49,76.42,10.52,82.92Z" fill="currentColor"/><path d="M20.16,69C23.34,68.83,32.82,68.5,42.51,68.5C54.63,68.5,60.05,68.51,64.84,69C70.9,70.02,73.18,72.39,74.02,75.47C72.33,74.37,69.95,73.52,66.58,73.01C61.25,72.52,55.98,72.5,42.5,72.5C31.72,72.5,21.94,72.84,18.4,73.01C15.05,73.52,12.67,74.36,10.99,75.46C11.83,72.38,14.11,70.02,20.16,69Z" fill="currentColor"/><path d="M74.5,68L74.5,85L18.5,85L30.5,38L34.5,36C51.37,37.83,45.5,62.5,74.5,68Z" fill="currentColor"/><path d="M82.83,60.75C79.05,59.8,75.08,60.66,72,63.02L69.38,55.58L69.18,55.02L68.6,54.88C66.85,54.45,64.83,54.39,63.49,54.74L63.44,54.95L63.37,55.25L63.21,55.9L61.86,61.31C58.93,60.29,51.77,57.64,48.12,46.48C46.49,41.49,41.95,37.74,35.68,36.17L34.61,35.9L34.34,36.98L22.72,83.6L22.45,84.67L23.52,85.38C29.79,86.94,35.57,85.32,39.36,81.68C47.8,73.56,55.37,74.57,58.45,75.04L57.11,80.45L56.94,81.1L56.86,81.4L56.81,81.61C57.83,82.55,59.63,83.46,61.38,83.89L61.97,84.03L62.4,83.63L68.2,78.3C69.79,81.82,72.91,84.44,76.69,85.39C83.47,87.08,90.37,82.93,92.07,76.15L92.07,76.13C93.76,69.33,89.61,62.44,82.83,60.75Z" fill="currentColor"/><path d="M70.3,70.07L68.52,77.2C68.41,77.27,62.52,81.05,60.48,75.14L65.62,54.55L65.51,54.55C64.76,54.55,64.06,54.6,63.49,54.75L63.44,54.96L63.36,55.27L63.2,55.91L61.85,61.32C61.85,61.32,61.72,61.28,61.67,61.25L61.48,62C61.48,62,52.43,67.29,45.42,71.79C40.13,75.19,37.12,81.52,36.08,84.05C37.27,83.41,38.37,82.62,39.34,81.68C47.79,73.56,55.36,74.57,58.44,75.04L57.09,80.45L56.93,81.1L56.85,81.4L56.8,81.61C57.82,82.55,59.62,83.46,61.37,83.89L61.93,84.03L62.27,83.74L62.39,83.63L68.19,78.3C69.78,81.82,72.9,84.44,76.68,85.39C81.96,86.71,87.3,84.47,90.21,80.23C90.23,80.18,90.24,80.16,90.24,80.16C86.79,84.18,78.08,85.71,73.28,80.11L73.28,80.09C69.84,76.09,70.3,70.07,70.3,70.07Z" fill="currentColor" opacity="0.5"/><path d="M72.01,63.02L69.39,55.58L69.2,55.02L68.69,54.89L67.24,60.71C69.55,61.65,72.01,63.02,72.05,63.08L72.04,63.09Z" fill="currentColor"/><path d="M79.15,60.41C78.97,60.46,78.88,60.5,78.88,60.5C89.12,63.89,92.58,71.83,92.02,76.29C92.03,76.24,92.06,76.18,92.07,76.14C93.76,69.34,89.61,62.46,82.83,60.76L82.83,60.75C81.61,60.45,80.37,60.35,79.15,60.41Z" fill="currentColor"/><path d="M45.81,51.31C47.74,56.08,56.49,58.84,56.49,58.84C56.6,58.9,56.43,58.7,56.1,58.34C53.25,56.21,50.15,52.65,48.13,46.47C47.07,43.26,44.82,40.56,41.66,38.63C38.19,36.77,34.83,35.84,35.65,36.33C42.73,40.58,42.9,44.12,45.81,51.31Z" fill="currentColor"/></svg>