<svg xmlns="http://www.w3.org/2000/svg" viewBox="0 0 90 90"><path d="M69.57,60.43C66.6,63.15,64.04,66.29,61.99,69.75C68.48,71.49,69.57,75.89,69.57,82L69.57,84.99L13.43,84.99L13.43,82C13.43,76.07,14.34,71.56,21.08,69.76C19.01,66.28,16.43,63.14,13.43,60.43C8.8,55.87,4.01,51.08,4.01,43.59C3.83,33.71,11.7,25.18,21.73,25.35C26.28,25.18,30.79,26.3,34.73,28.58L36.34,21.56L29.9,21.56L29.9,11.67L36.52,11.67L36.52,5L46.46,5L46.46,11.85L53.08,11.85L53.08,21.67L46.64,21.67L48.25,28.69C52.18,26.37,56.69,25.22,61.25,25.35C71.78,25.08,79.23,33.32,79,43.59C79,51.03,74.22,55.81,69.57,60.43Z" fill="currentColor"/><path d="M62.54,45.53C63.38,39.71,56.93,39.49,56.9,39.49C53.35,39.49,48.93,42.65,48.93,42.65L48.93,56.4C50.47,56.46,51.51,56.56,53.28,56.67C54.61,54.98,56.18,53.48,57.65,52.08C60.08,49.78,62.22,47.74,62.54,45.53Z" fill="currentColor"/><path d="M26.05,39.49C26.05,39.49,19.64,39.72,20.41,45.53C20.73,47.73,22.87,49.77,25.29,52.07C26.76,53.47,28.34,54.97,29.67,56.67C31.44,56.55,32.52,56.4,34.02,56.4L34.02,42.65C34.02,42.65,29.61,39.49,26.05,39.49Z" fill="currentColor"/><path d="M55.34,69.01L55.19,69.01L71.67,52.49C79.81,44.34,74.38,31.92,73.41,29.87C73.44,29.87,73.48,29.87,73.51,29.87C77.06,33.21,79.12,38.11,79,43.59C79,51.03,74.22,55.81,69.57,60.43C66.6,63.15,64.04,66.29,61.99,69.75C59.89,69.18,57.56,69.01,55.34,69.01Z" fill="currentColor"/><path d="M62.13,69.79C62.59,69.92,63.03,70.06,63.44,70.22C64.39,70.58,65.26,71.05,66.04,71.64C67.3,72.61,68.12,73.82,68.66,75.25C66.87,74.44,60.8,72.86,41.48,72.86C22.27,72.86,16.16,74.46,14.33,75.24C14.85,73.86,15.66,72.67,16.9,71.71C17.85,70.98,18.96,70.44,20.15,70.04C20.42,69.95,20.69,69.87,20.98,69.79C23.17,69.18,25.57,69.01,27.73,69.01L55.34,69.01C57.61,69.01,59.99,69.19,62.13,69.79Z" fill="currentColor"/><path d="M22.78,25.35C9.28,27.57,2.71,40.37,6.73,52.71C4.96,50,4.01,46.83,4.01,43.59C3.92,38.71,5.75,33.99,9.1,30.45C10.76,28.8,12.73,27.5,14.9,26.62C17.07,25.75,19.39,25.31,21.73,25.35Z" fill="currentColor"/><path d="M22.78,25.35C22.8,25.35,22.82,25.34,22.84,25.34L22.84,25.35Z" fill="currentColor"/><path d="M44.96,6.66L38.18,6.66L38.18,13.31L31.56,13.31L31.56,20.06L30.07,21.56L29.9,21.56L29.9,11.67L36.52,11.67L36.52,5L46.46,5L46.46,5.16Z" fill="currentColor"/><path d="M44.97,13.31L46.47,11.67L53.09,11.67L53.09,13.31Z" fill="currentColor"/><path d="M69.5,85L19.5,85L27.5,54.5C41,64,52.93,64.86,69.5,68Z" fill="currentColor"/><path d="M83.83,60.75C80.05,59.8,76.08,60.66,73,63.02L70.38,55.58L70.18,55.02L69.6,54.88C67.85,54.45,65.83,54.39,64.49,54.74L64.44,54.95L64.37,55.25L64.21,55.9L62.86,61.31C59.93,60.29,52.77,57.64,49.12,46.48C47.49,41.49,42.95,37.74,36.68,36.17L35.61,35.9L35.34,36.98L23.72,83.6L23.45,84.67L24.52,85.38C30.79,86.94,36.57,85.32,40.36,81.68C48.8,73.56,56.37,74.57,59.45,75.04L58.11,80.45L57.94,81.1L57.86,81.4L57.81,81.61C58.83,82.55,60.63,83.46,62.38,83.89L62.97,84.03L63.4,83.63L69.2,78.3C70.79,81.82,73.91,84.44,77.69,85.39C84.47,87.08,91.37,82.93,93.07,76.15L93.07,76.13C94.76,69.33,90.61,62.44,83.83,60.75Z" fill="currentColor"/><path d="M71.3,70.07L69.52,77.2C69.41,77.27,63.52,81.05,61.48,75.14L66.62,54.55L66.51,54.55C65.76,54.55,65.06,54.6,64.49,54.75L64.44,54.96L64.36,55.27L64.2,55.91L62.85,61.32C62.85,61.32,62.72,61.28,62.67,61.25L62.48,62C62.48,62,53.43,67.29,46.42,71.79C41.13,75.19,38.12,81.52,37.08,84.05C38.27,83.41,39.37,82.62,40.34,81.68C48.79,73.56,56.36,74.57,59.44,75.04L58.09,80.45L57.93,81.1L57.85,81.4L57.8,81.61C58.82,82.55,60.62,83.46,62.37,83.89L62.93,84.03L63.27,83.74L63.39,83.63L69.19,78.3C70.78,81.82,73.9,84.44,77.68,85.39C82.96,86.71,88.3,84.47,91.21,80.23C91.23,80.18,91.24,80.16,91.24,80.16C87.79,84.18,79.08,85.71,74.28,80.11L74.28,80.09C70.84,76.09,71.3,70.07,71.3,70.07Z" fill="currentColor" opacity="0.5"/><path d="M73.01,63.02L70.39,55.58L70.2,55.02L69.69,54.89L68.24,60.71C70.55,61.65,73.01,63.02,73.05,63.08L73.04,63.09Z" fill="currentColor"/><path d="M80.15,60.41C79.97,60.46,79.88,60.5,79.88,60.5C90.12,63.89,93.58,71.83,93.02,76.29C93.03,76.24,93.06,76.18,93.07,76.14C94.76,69.34,90.61,62.46,83.83,60.76L83.83,60.75C82.61,60.45,81.37,60.35,80.15,60.41Z" fill="currentColor"/><path d="M46.81,51.31C48.74,56.08,57.49,58.84,57.49,58.84C57.6,58.9,57.43,58.7,57.1,58.34C54.25,56.21,51.15,52.65,49.13,46.47C48.07,43.26,45.82,40.56,42.66,38.63C39.19,36.77,35.83,35.84,36.65,36.33C43.73,40.58,43.9,44.12,46.81,51.31Z" fill="currentColor"/></svg>