<svg xmlns="http://www.w3.org/2000/svg" viewBox="0 0 90 90"><path d="M53.86,31.24L54.35,31.05C58.59,29.46,60.73,26.85,61.29,22.57L62.35,9.47C62.35,9.47,56.3,6.99,53.15,6.99L52.72,6.99L49.23,17.99L45.22,17.99L43.28,5.57C43.28,5.57,39.14,4.99,36.44,4.99L36.42,4.99C33.71,4.99,29.58,5.57,29.58,5.57L27.64,17.99L23.63,17.99L20.14,6.99L19.71,6.99C16.56,6.99,10.51,9.47,10.51,9.47L11.57,22.55C12.14,26.83,14.28,29.46,18.51,31.04L19,31.23L14.5,69L58.5,69Z" fill="currentColor"/><path d="M10.5,9.48L11.56,22.56C11.86,24.85,12.64,26.65,13.91,28.09C13.76,27.03,11.95,13.04,16.79,7.43L16.8,7.42C13.8,8.13,10.5,9.48,10.5,9.48Z" fill="currentColor"/><path d="M36.43,5L36.41,5C33.7,5,29.57,5.59,29.57,5.59L27.72,17.4C28.13,15.94,30.87,6.93,37.08,5.01C36.87,5.01,36.64,5,36.43,5Z" fill="currentColor"/><path d="M53.15,7L52.72,7L49.5,17.16C50.36,15.46,53.27,10.12,56.96,7.65C55.59,7.28,54.21,7,53.15,7Z" fill="currentColor"/><path d="M54.03,31.23L54.52,31.04C58.75,29.45,60.9,26.84,61.46,22.56L62.5,9.72C62.49,9.66,62.48,9.63,62.48,9.63L61.75,9.16C60.99,8.87,59.75,8.42,58.39,8C57.32,14.53,55.91,23.92,52.85,26.61C49.93,29.18,48.15,29.78,47.7,29.9C46.85,29.79,45.94,29.69,44.95,29.6C35.96,28.78,22.85,31.35,22.85,31.35C22.85,31.35,36.11,30.54,42.9,39.05C43.54,39.86,44.12,40.9,44.68,41.88C51.64,54.42,53.41,81.06,53.41,81.06L58.44,68.92Z" fill="currentColor"/><path d="M4.52,82.92L4.52,85L68.48,85L68.48,82.92C68.5,76.42,69.2,70.75,58.84,69C54.05,68.51,48.63,68.5,36.51,68.5C26.82,68.5,17.34,68.83,14.16,69C3.8,70.75,4.49,76.42,4.52,82.92Z" fill="currentColor"/><path d="M14.16,69C17.34,68.83,26.82,68.5,36.51,68.5C48.63,68.5,54.05,68.51,58.84,69C64.9,70.02,67.18,72.39,68.02,75.47C66.33,74.37,63.95,73.52,60.58,73.01C55.25,72.52,49.98,72.5,36.5,72.5C25.72,72.5,15.94,72.84,12.4,73.01C9.05,73.52,6.67,74.36,4.99,75.46C5.83,72.38,8.11,70.02,14.16,69Z" fill="currentColor"/><path d="M50.28,55.44L76.72,55.44L76.72,60.11L73.51,85L53.49,85L50.28,60.11Z" fill="currentColor"/><path d="M68.94,53.89L64.39,84.24C64.33,84.68,63.95,85,63.51,85C63.06,85,62.68,84.67,62.62,84.22L58.83,53.89Z" fill="currentColor"/><path d="M50.03,74.89L59.89,83.55L47.94,79.29Z" fill="currentColor"/><path d="M55.6,69.44L58.66,76.01L52.64,72.4Z" fill="currentColor"/><path d="M74.39,69.44L70.48,71.91L72.52,67.58Z" fill="currentColor"/><path d="M80.81,70.78L76.4,72.16L79.49,68.5Z" fill="currentColor"/><path d="M77.33,75.73L66.87,83.47L74.37,72.78Z" fill="currentColor"/><path d="M61.94,67.11L63.5,85C63.06,85,62.68,84.67,62.63,84.23L60.39,66.33Z" fill="currentColor"/><path d="M68.69,55.6L66.86,67.8C65.75,67.86,64.63,67.89,63.5,67.89C62.52,67.89,61.54,67.86,60.57,67.82L59.04,55.56C60.49,55.48,61.98,55.44,63.5,55.44C65.28,55.44,67.02,55.5,68.69,55.6Z" fill="currentColor"/><path d="M41.72,60.11L85.28,60.11C86.14,60.11,86.83,59.41,86.83,58.56L86.83,53.41C86.83,52.76,86.43,52.18,85.82,51.96L76.41,48.44C68.71,46.89,80.61,27.57,82.11,23.01C84.37,16.14,76.33,15,63.5,15C50.67,15.39,42.63,16.14,44.89,23.01C46.39,27.57,58.29,46.89,50.59,48.44L41.18,51.96C40.57,52.18,40.17,52.76,40.17,53.41L40.17,58.56C40.17,59.41,40.86,60.11,41.72,60.11Z" fill="currentColor"/><path d="M82.4,20L78.98,19.66C68.68,18.63,58.31,18.63,48.02,19.66L44.6,20C45.51,15.89,52.85,15.32,63.5,15C74.17,15,81.53,15.79,82.4,20Z" fill="currentColor"/><path d="M40.6,52.33C40.76,52.17,40.96,52.04,41.18,51.96L50.59,48.44C51.96,48.17,52.71,47.33,53,46.11L58.9,46.11L72.8,52.33Z" fill="currentColor"/><path d="M69.48,15.12C60.22,15.57,54.2,16.74,55.93,23.01C57.19,27.57,66.55,47.67,60.72,49.22L53.61,51.95C53.01,52.18,52.61,52.76,52.61,53.4L52.61,58.56C52.61,59.41,53.31,60.11,54.17,60.11L41.72,60.11C40.86,60.11,40.17,59.41,40.17,58.56L40.17,53.41C40.17,52.76,40.57,52.18,41.18,51.96L50.59,48.44C58.29,46.89,46.39,27.57,44.89,23.01C42.63,16.14,50.67,15.39,63.5,15C65.64,15,67.64,15.03,69.48,15.12Z" fill="currentColor"/></svg>