<svg xmlns="http://www.w3.org/2000/svg" viewBox="0 0 90 90"><path d="M71.56,82.89C71.56,76.32,71.56,70.69,62.2,68.98L75.34,37.22C78.85,36.77,82,33.17,82,29.39C82,25.16,78.49,21.47,73.99,21.47C69.76,21.47,66.07,25.16,66.07,29.39C66.07,31.01,66.88,32.54,67.42,33.44L58.43,42.98L57.35,20.84C60.41,19.85,62.65,16.79,62.65,13.28C62.65,9.32,59.6,5,54.29,5C49.52,5,45.92,9.05,45.92,13.28C45.92,15.71,47.09,18.05,48.98,19.58L42.5,38.39L36.02,19.58C37.91,18.05,39.08,15.71,39.08,13.28C39.08,8.78,35.48,5,30.71,5C25.4,5,22.35,9.14,22.35,13.37C22.35,16.88,24.59,19.85,27.65,20.84L26.57,42.98L17.58,33.44C18.12,32.54,18.93,31.01,18.93,29.39C18.93,25.16,15.24,21.47,11.01,21.47C6.6,21.47,3,25.07,3,29.39C3,33.17,6.15,36.77,9.66,37.22L22.89,68.98C13.44,70.69,13.44,76.41,13.44,82.89L13.44,85L71.56,85Z" fill="currentColor"/><path d="M73.99,21.47C69.76,21.47,66.07,25.16,66.07,29.39C66.07,30.65,66.52,31.82,66.97,32.63C67.33,25.7,71.82,22.28,76.06,21.74C75.61,21.65,74.62,21.47,73.99,21.47Z" fill="currentColor"/><path d="M30.71,5C25.4,5,22.35,9.14,22.35,13.37C22.35,14.72,22.7,16.07,23.42,17.33C24.14,10.13,27.74,6.17,30.71,5Z" fill="currentColor"/><path d="M54.29,5C49.52,5,45.92,9.05,45.92,13.28C45.92,14.63,46.28,15.98,46.91,17.15C47.36,10.49,51.5,6.44,54.29,5Z" fill="currentColor"/><path d="M11.01,21.47C6.6,21.47,3,25.07,3,29.39C3,32.27,4.71,34.7,6.87,36.23C3.63,31.19,5.43,24.26,11.01,21.47Z" fill="currentColor"/><path d="M22.89,68.98C25.85,68.8,33.77,68.44,42.59,68.44C53.57,68.44,57.89,68.44,62.21,68.98C66.79,69.79,69.13,71.59,70.3,73.93C69.22,73.48,67.87,73.21,66.25,72.94C61.04,72.49,55.82,72.49,42.59,72.49C31.97,72.49,22.35,72.76,18.84,72.94C17.31,73.21,15.96,73.48,14.79,73.93C16.05,71.59,18.39,69.79,22.89,68.98Z" fill="currentColor"/><path d="M80.2,24.44C82,31.82,75.34,34.16,72.46,35.69C72.46,35.69,66.16,48.37,57.62,57.73C48.53,67.54,42.5,68.44,42.5,68.44C53.48,68.44,57.89,68.44,62.2,68.98L75.34,37.22C78.85,36.77,82,33.17,82,29.39C82,27.59,81.37,25.88,80.2,24.44Z" fill="currentColor" opacity="0.5"/><path d="M71.5,68L71.5,85L18.5,85L30.5,38L34.5,36C51.37,37.83,42.5,62.5,71.5,68Z" fill="currentColor"/><path d="M82.83,60.75C79.05,59.8,75.08,60.66,72,63.02L69.38,55.58L69.18,55.02L68.6,54.88C66.85,54.45,64.83,54.39,63.49,54.74L63.44,54.95L63.37,55.25L63.21,55.9L61.86,61.31C58.93,60.29,51.77,57.64,48.12,46.48C46.49,41.49,41.95,37.74,35.68,36.17L34.61,35.9L34.34,36.98L22.72,83.6L22.45,84.67L23.52,85.38C29.79,86.94,35.57,85.32,39.36,81.68C47.8,73.56,55.37,74.57,58.45,75.04L57.11,80.45L56.94,81.1L56.86,81.4L56.81,81.61C57.83,82.55,59.63,83.46,61.38,83.89L61.97,84.03L62.4,83.63L68.2,78.3C69.79,81.82,72.91,84.44,76.69,85.39C83.47,87.08,90.37,82.93,92.07,76.15L92.07,76.13C93.76,69.33,89.61,62.44,82.83,60.75Z" fill="currentColor"/><path d="M70.3,70.07L68.52,77.2C68.41,77.27,62.52,81.05,60.48,75.14L65.62,54.55L65.51,54.55C64.76,54.55,64.06,54.6,63.49,54.75L63.44,54.96L63.36,55.27L63.2,55.91L61.85,61.32C61.85,61.32,61.72,61.28,61.67,61.25L61.48,62C61.48,62,52.43,67.29,45.42,71.79C40.13,75.19,37.12,81.52,36.08,84.05C37.27,83.41,38.37,82.62,39.34,81.68C47.79,73.56,55.36,74.57,58.44,75.04L57.09,80.45L56.93,81.1L56.85,81.4L56.8,81.61C57.82,82.55,59.62,83.46,61.37,83.89L61.93,84.03L62.27,83.74L62.39,83.63L68.19,78.3C69.78,81.82,72.9,84.44,76.68,85.39C81.96,86.71,87.3,84.47,90.21,80.23C90.23,80.18,90.24,80.16,90.24,80.16C86.79,84.18,78.08,85.71,73.28,80.11L73.28,80.09C69.84,76.09,70.3,70.07,70.3,70.07Z" fill="currentColor" opacity="0.5"/><path d="M72.01,63.02L69.39,55.58L69.2,55.02L68.69,54.89L67.24,60.71C69.55,61.65,72.01,63.02,72.05,63.08L72.04,63.09Z" fill="currentColor"/><path d="M79.15,60.41C78.97,60.46,78.88,60.5,78.88,60.5C89.12,63.89,92.58,71.83,92.02,76.29C92.03,76.24,92.06,76.18,92.07,76.14C93.76,69.34,89.61,62.46,82.83,60.76L82.83,60.75C81.61,60.45,80.37,60.35,79.15,60.41Z" fill="currentColor"/><path d="M45.81,51.31C47.74,56.08,56.49,58.84,56.49,58.84C56.6,58.9,56.43,58.7,56.1,58.34C53.25,56.21,50.15,52.65,48.13,46.47C47.07,43.26,44.82,40.56,41.66,38.63C38.19,36.77,34.83,35.84,35.65,36.33C42.73,40.58,42.9,44.12,45.81,51.31Z" fill="currentColor"/></svg>