<svg xmlns="http://www.w3.org/2000/svg" viewBox="0 0 90 90"><path d="M3,85L3,83.56C3,72.76,8.15,68.84,13.5,64.76C18.86,60.68,24.43,56.44,25.25,45L17.04,45C15.91,42.92,15.75,40.6,15.75,38.28L24.42,33C20.49,29.88,18.48,24.92,18.48,20.44C18.48,11.96,25.38,5.08,34.04,5C42.62,5.08,49.52,11.96,49.52,20.44C49.52,24.92,47.51,29.88,43.58,33L52.25,38.28C52.25,40.6,52.09,42.92,50.96,45L42.75,45C43.57,56.44,49.14,60.68,54.5,64.76C59.85,68.84,65,72.76,65,83.56L65,85Z" fill="currentColor"/><path d="M42.79,45.53C44.06,60.24,53.35,62.76,59.5,68.96C44.86,66.73,35.75,55.21,26,45L42.75,45Z" fill="currentColor"/><path d="M49.52,20.44C49.52,24.92,47.51,29.88,43.58,33L33,33C33,33,40.25,31.37,43.97,26.11C48.93,19.08,44.72,9.33,39.3,5.95C45.27,8.12,49.52,13.79,49.52,20.44Z" fill="currentColor"/><path d="M17.93,67.15C10.29,72.73,5.92,75.35,3,85L3,83.56C3,72.76,8.15,68.84,13.5,64.76C17.42,61.78,21.43,58.72,23.64,52.83C23.08,58.12,22.21,64.02,17.93,67.15Z" fill="currentColor"/><path d="M52.25,38.28C52.25,40.6,52.09,42.92,50.96,45L17.04,45C16.65,44.28,16.37,43.52,16.18,42.75L42,42.75C48.43,38.59,41.93,33.11,41.81,33L43.59,33Z" fill="currentColor"/><path d="M22.53,38.99L15.76,39C15.76,38.76,15.75,38.52,15.75,38.28L24.41,33Z" fill="currentColor"/><path d="M19.02,24.54C18.66,23.17,18.48,21.79,18.48,20.44C18.48,12.19,25.01,5.45,33.34,5.02C33.41,5.02,33.47,5.02,33.54,5.02L33.73,5.02C28.4,5.67,20.25,11.91,19.02,24.54Z" fill="currentColor"/><path d="M52.78,55.44L79.22,55.44L79.22,60.11L76.01,85L55.99,85L52.78,60.11Z" fill="currentColor"/><path d="M71.44,53.89L66.89,84.24C66.83,84.68,66.45,85,66.01,85C65.56,85,65.18,84.67,65.12,84.22L61.33,53.89Z" fill="currentColor"/><path d="M52.53,74.89L62.39,83.55L50.44,79.29Z" fill="currentColor"/><path d="M58.1,69.44L61.16,76.01L55.14,72.4Z" fill="currentColor"/><path d="M76.89,69.44L72.98,71.91L75.02,67.58Z" fill="currentColor"/><path d="M83.31,70.78L78.9,72.16L81.99,68.5Z" fill="currentColor"/><path d="M79.83,75.73L69.37,83.47L76.87,72.78Z" fill="currentColor"/><path d="M64.44,67.11L66,85C65.56,85,65.18,84.67,65.13,84.23L62.89,66.33Z" fill="currentColor"/><path d="M71.19,55.6L69.36,67.8C68.25,67.86,67.13,67.89,66,67.89C65.02,67.89,64.04,67.86,63.07,67.82L61.54,55.56C62.99,55.48,64.48,55.44,66,55.44C67.78,55.44,69.52,55.5,71.19,55.6Z" fill="currentColor"/><path d="M44.22,60.11L87.78,60.11C88.64,60.11,89.33,59.41,89.33,58.56L89.33,53.41C89.33,52.76,88.93,52.18,88.32,51.96L78.91,48.44C71.21,46.89,83.11,27.57,84.61,23.01C86.87,16.14,78.83,15,66,15C53.17,15.39,45.13,16.14,47.39,23.01C48.89,27.57,60.79,46.89,53.09,48.44L43.68,51.96C43.07,52.18,42.67,52.76,42.67,53.41L42.67,58.56C42.67,59.41,43.36,60.11,44.22,60.11Z" fill="currentColor"/><path d="M84.9,20L81.48,19.66C71.18,18.63,60.81,18.63,50.52,19.66L47.1,20C48.01,15.89,55.35,15.32,66,15C76.67,15,84.03,15.79,84.9,20Z" fill="currentColor"/><path d="M43.1,52.33C43.26,52.17,43.46,52.04,43.68,51.96L53.09,48.44C54.46,48.17,55.21,47.33,55.5,46.11L61.4,46.11L75.3,52.33Z" fill="currentColor"/><path d="M71.98,15.12C62.72,15.57,56.7,16.74,58.43,23.01C59.69,27.57,69.05,47.67,63.22,49.22L56.11,51.95C55.51,52.18,55.11,52.76,55.11,53.4L55.11,58.56C55.11,59.41,55.81,60.11,56.67,60.11L44.22,60.11C43.36,60.11,42.67,59.41,42.67,58.56L42.67,53.41C42.67,52.76,43.07,52.18,43.68,51.96L53.09,48.44C60.79,46.89,48.89,27.57,47.39,23.01C45.13,16.14,53.17,15.39,66,15C68.14,15,70.14,15.03,71.98,15.12Z" fill="currentColor"/></svg>