<svg xmlns="http://www.w3.org/2000/svg" viewBox="0 0 90 90"><path d="M45.55,29.35C43.84,32.66,42.2,36.26,41.22,39.99C40.12,43.43,38.99,51.25,38.99,51.25L33.15,51.29C33.75,45.96,34.79,39.99,37.02,34.33L44.63,18.61L44.64,18.61C45.17,17.62,45.46,16.66,45.65,15.69C45.82,15.04,45.93,14.36,45.93,13.64C45.93,8.87,41.98,5,37.14,5C32.3,5,28.35,8.87,28.35,13.64C28.35,15.86,29.27,18.89,29.27,18.89C29.27,18.89,16.17,30.3,16.17,47.23C16.17,58.83,21.87,67.45,24.21,70.24L50.65,70.24C53.02,67.38,58.64,58.81,58.64,47.28C58.64,35.75,53.06,27.53,49.18,22.82L49.19,22.82Z" fill="currentColor"/><path d="M52.7,27.74C63.66,58.33,34.49,70.18,34.49,70.18L36.15,70.24L50.66,70.24C53.03,67.38,58.65,58.81,58.65,47.28L58.65,47.29C58.65,39.34,55.76,32.64,52.7,27.74Z" fill="currentColor"/><path d="M37.15,5C32.29,5,28.36,8.87,28.36,13.64C28.36,14.09,28.4,14.58,28.46,15.06C28.54,15.52,28.56,16,28.69,16.44C29.53,10.4,34.29,6,37.69,5.05L37.7,5.05C37.51,5.04,37.34,5,37.15,5Z" fill="currentColor"/><path d="M37.02,34.33L44.63,18.61L44.64,18.61C45.17,17.62,45.46,16.66,45.65,15.69C45.82,15.04,45.93,14.36,45.93,13.64C45.93,11.01,44.7,8.68,42.82,7.1C47.98,17.46,25.28,34.84,33.15,51.29C33.75,45.96,34.79,39.99,37.02,34.33Z" fill="currentColor"/><path d="M16.17,47.23C16.17,51.03,16.81,54.46,17.71,57.52C17.69,47.74,19.82,33.48,30.99,19.5C30.99,19.5,30.24,19.24,29.27,18.89C29.27,18.89,16.17,30.3,16.17,47.23Z" fill="currentColor"/><path d="M22.41,69.9C7.44,69.9,7.5,79.97,7.5,79.97L7.5,85L67.32,85L67.32,79.97C67.32,79.97,67.39,69.9,52.41,69.9L52.42,69.9Z" fill="currentColor"/><path d="M22.4,69.9L52.41,69.9C60.3,69.9,63.99,72.69,65.74,75.34C63.81,74.63,57.44,73.18,37.61,73.18C15,73.18,9.89,75.07,8.91,75.59L8.91,75.58C10.59,72.87,14.27,69.9,22.4,69.9Z" fill="currentColor"/><path d="M67.5,68L67.5,85L23.5,85L33,51L37,51C53.87,52.83,38.5,62.5,67.5,68Z" fill="currentColor"/><path d="M87.83,60.75C84.05,59.8,80.08,60.66,77,63.02L74.38,55.58L74.18,55.02L73.6,54.88C71.85,54.45,69.83,54.39,68.49,54.74L68.44,54.95L68.37,55.25L68.21,55.9L66.86,61.31C63.93,60.29,56.77,57.64,53.12,46.48C51.49,41.49,46.95,37.74,40.68,36.17L39.61,35.9L39.34,36.98L27.72,83.6L27.45,84.67L28.52,85.37C34.79,86.94,40.57,85.32,44.36,81.68C52.8,73.56,60.37,74.57,63.45,75.04L62.11,80.45L61.94,81.1L61.86,81.4L61.81,81.61C62.83,82.55,64.63,83.46,66.38,83.89L66.97,84.03L67.4,83.63L73.2,78.3C74.79,81.82,77.91,84.44,81.69,85.39C88.47,87.08,95.37,82.93,97.07,76.15L97.07,76.13C98.76,69.33,94.61,62.44,87.83,60.75Z" fill="currentColor"/><path d="M75.3,70.07L73.52,77.2C73.41,77.27,67.52,81.05,65.48,75.14L70.62,54.55L70.51,54.55C69.76,54.55,69.06,54.6,68.49,54.75L68.44,54.96L68.36,55.27L68.2,55.91L66.85,61.32C66.85,61.32,66.72,61.28,66.67,61.25L66.48,62C66.48,62,57.43,67.29,50.42,71.79C45.13,75.19,42.12,81.52,41.08,84.05C42.27,83.41,43.37,82.62,44.34,81.68C52.79,73.56,60.36,74.57,63.44,75.04L62.09,80.45L61.93,81.1L61.85,81.4L61.8,81.61C62.82,82.55,64.62,83.46,66.37,83.89L66.93,84.03L67.27,83.74L67.39,83.63L73.19,78.3C74.78,81.82,77.9,84.44,81.68,85.39C86.96,86.71,92.3,84.47,95.21,80.23C95.23,80.18,95.24,80.16,95.24,80.16C91.79,84.18,83.08,85.71,78.28,80.11L78.28,80.09C74.84,76.09,75.3,70.07,75.3,70.07Z" fill="currentColor" opacity="0.5"/><path d="M77.01,63.02L74.39,55.58L74.2,55.02L73.69,54.89L72.24,60.71C74.55,61.65,77.01,63.02,77.05,63.08L77.04,63.09Z" fill="currentColor"/><path d="M84.15,60.41C83.97,60.46,83.88,60.5,83.88,60.5C94.12,63.89,97.58,71.83,97.02,76.29C97.03,76.24,97.06,76.18,97.07,76.14C98.76,69.34,94.61,62.46,87.83,60.76L87.83,60.75C86.61,60.45,85.37,60.35,84.15,60.41Z" fill="currentColor"/><path d="M50.81,51.31C52.74,56.08,61.49,58.84,61.49,58.84C61.6,58.9,61.43,58.7,61.1,58.34C58.25,56.21,55.15,52.65,53.13,46.47C52.07,43.26,49.82,40.56,46.66,38.63C43.19,36.77,39.83,35.84,40.65,36.33C47.73,40.58,47.9,44.12,50.81,51.31Z" fill="currentColor"/></svg>