<svg xmlns="http://www.w3.org/2000/svg" viewBox="0 0 90 90"><path d="M52.63,43.57C48.36,43.55,44.57,39.66,42.44,37.43L40.33,34.99C39.51,35.98,37.24,39.13,38.24,42.64C39.17,45.87,41.76,48.21,44.29,50.25C48.36,53.55,55.49,59.25,56.26,67.06L56.54,72.6L17.87,72.6C17.87,69.26,17.24,67.06,17.24,67.06C16.55,63.71,12.67,52.41,12.67,46.28C12.67,23.2,28.25,13.06,42.18,12.12L49.3,5.01C50.31,5.01,51.35,6.08,51.63,7.26L52.44,11.14C53.26,13.15,54.62,14.51,56.72,16.25C58.82,17.99,59.36,19.63,59.83,20.82C61.49,25.05,61.62,27.29,64.5,31.48L70.95,40.55C72.61,42.6,72.39,45.41,70.61,46.91C68.25,48.91,61.48,50.58,60.89,50L60.91,49.99C58.3,47.47,58.17,43.6,52.63,43.57Z" fill="currentColor"/><path d="M53.44,69.49C68.95,69.49,68.88,79.83,68.88,79.83L68.88,85L6.91,85L6.91,79.83C6.91,79.83,6.84,69.49,22.35,69.49Z" fill="currentColor"/><path d="M42.5,12.01C42.43,12.01,42.36,12.01,42.3,12L42.25,12.05C42.41,12.02,42.5,12.01,42.5,12.01Z" fill="currentColor"/><path d="M17.24,67.06C17.05,66.13,16.61,64.57,16.07,62.68C14.69,57.81,12.67,50.7,12.67,46.28C12.67,23.52,27.82,13.34,41.6,12.16C37.3,13.01,19.05,17.76,19.05,37.78C19.05,47.16,22.86,53.21,26.42,58.86C28.6,62.33,30.69,65.64,31.74,69.48C29.12,69.24,17.7,69.85,17.7,69.85C17.52,68.15,17.24,67.06,17.24,67.06Z" fill="currentColor"/><path d="M51.11,43.39L51.1,43.4L51.1,43.39Z" fill="currentColor"/><path d="M53.7,41.89C56.39,40.22,57.49,39.54,58.97,43.97C59.87,46.68,60.99,48.29,61.7,49.31C61.9,49.6,62.07,49.84,62.19,50.04C61.53,50.12,61.05,50.11,60.91,49.98C60.13,49.23,59.57,48.36,59.03,47.5C57.74,45.49,56.52,43.58,52.63,43.56C52.11,43.56,51.61,43.5,51.11,43.39C52.12,42.88,52.97,42.35,53.7,41.89Z" fill="currentColor"/><path d="M36.98,29.21C37.98,31.13,40.46,35.02,40.46,35.02C40.46,35.02,40.48,35.09,40.51,35.19L40.33,34.99C39.54,35.94,37.43,38.91,38.18,42.27C36.71,38.41,35.73,34.11,35.75,32.57C35.78,30.89,35.98,27.29,36.98,29.21Z" fill="currentColor"/><path d="M70.96,40.53L70.97,40.52C71.92,41.69,72.19,43.09,71.97,44.37C70.3,42.31,61.68,31.67,60.46,30.04C59.67,28.99,59.29,27.61,58.86,26.04C57.95,22.72,56.81,18.58,51.03,14.98C46.6,12.23,49.6,5.11,49.6,5.11C49.73,5.11,49.85,5.13,49.98,5.16C50.01,5.17,50.05,5.17,50.08,5.18C50.8,5.54,51.43,6.36,51.64,7.24L52.45,11.12C53.27,13.13,54.63,14.49,56.73,16.23C58.72,17.87,59.31,19.42,59.76,20.59C59.79,20.66,59.81,20.73,59.84,20.8C60.33,22.04,60.68,23.1,61.01,24.1C61.81,26.51,62.47,28.5,64.51,31.46Z" fill="currentColor"/><path d="M67.42,75.33C66.4,74.8,61.11,72.86,37.68,72.86C17.13,72.86,10.53,74.35,8.53,75.08C10.34,72.36,14.16,69.49,22.34,69.49L53.44,69.49C61.87,69.49,65.68,72.54,67.42,75.33Z" fill="currentColor"/><path d="M69.5,68L69.5,85L21.5,85L33.5,38L37.5,36C54.37,37.83,34,63.5,69.5,68Z" fill="currentColor"/><path d="M85.83,60.75C82.05,59.8,78.08,60.66,75,63.02L72.38,55.58L72.18,55.02L71.6,54.88C69.85,54.45,67.83,54.39,66.49,54.74L66.44,54.95L66.37,55.25L66.21,55.9L64.86,61.31C61.93,60.29,54.77,57.64,51.12,46.48C49.49,41.49,44.95,37.74,38.68,36.17L37.61,35.9L37.34,36.98L25.72,83.6L25.45,84.67L26.52,85.37C32.79,86.94,38.57,85.32,42.36,81.68C50.8,73.56,58.37,74.57,61.45,75.04L60.11,80.45L59.94,81.1L59.86,81.4L59.81,81.61C60.83,82.55,62.63,83.46,64.38,83.89L64.97,84.03L65.4,83.63L71.2,78.3C72.79,81.82,75.91,84.44,79.69,85.39C86.47,87.08,93.37,82.93,95.07,76.15L95.07,76.13C96.76,69.33,92.61,62.44,85.83,60.75Z" fill="currentColor"/><path d="M73.3,70.07L71.52,77.2C71.41,77.27,65.52,81.05,63.48,75.14L68.62,54.55L68.51,54.55C67.76,54.55,67.06,54.6,66.49,54.75L66.44,54.96L66.36,55.27L66.2,55.91L64.85,61.32C64.85,61.32,64.72,61.28,64.67,61.25L64.48,62C64.48,62,55.43,67.29,48.42,71.79C43.13,75.19,40.12,81.52,39.08,84.05C40.27,83.41,41.37,82.62,42.34,81.68C50.79,73.56,58.36,74.57,61.44,75.04L60.09,80.45L59.93,81.1L59.85,81.4L59.8,81.61C60.82,82.55,62.62,83.46,64.37,83.89L64.93,84.03L65.27,83.74L65.39,83.63L71.19,78.3C72.78,81.82,75.9,84.44,79.68,85.39C84.96,86.71,90.3,84.47,93.21,80.23C93.23,80.18,93.24,80.16,93.24,80.16C89.79,84.18,81.08,85.71,76.28,80.11L76.28,80.09C72.84,76.09,73.3,70.07,73.3,70.07Z" fill="currentColor"/><path d="M75.01,63.02L72.39,55.58L72.2,55.02L71.69,54.89L70.24,60.71C72.55,61.65,75.01,63.02,75.05,63.08L75.04,63.09Z" fill="currentColor"/><path d="M82.15,60.41C81.97,60.46,81.88,60.5,81.88,60.5C92.12,63.89,95.58,71.83,95.02,76.29C95.03,76.24,95.06,76.18,95.07,76.14C96.76,69.34,92.61,62.46,85.83,60.76L85.83,60.75C84.61,60.45,83.37,60.35,82.15,60.41Z" fill="currentColor"/><path d="M48.81,51.31C50.74,56.08,59.49,58.84,59.49,58.84C59.6,58.9,59.43,58.7,59.1,58.34C56.25,56.21,53.15,52.65,51.13,46.47C50.07,43.26,47.82,40.56,44.66,38.63C41.19,36.77,37.83,35.84,38.65,36.33C45.73,40.58,45.9,44.12,48.81,51.31Z" fill="currentColor"/></svg>