<svg xmlns="http://www.w3.org/2000/svg" viewBox="0 0 90 90"><path d="M49.23,5.63L51.21,18.06L55.17,18.06L58.69,7.07C60.31,7.25,61.57,7.52,63.73,8.06C65.44,8.51,67.24,9.05,68.5,9.68L67.24,22.65C66.88,26.8,64.81,29.41,59.86,31.3L64.44,69.05C64.46,69.05,64.47,69.06,64.49,69.06C75.21,70.68,74.49,76.44,74.49,82.93L74.49,85L10.51,85L10.51,82.93C10.51,76.45,9.79,70.59,20.51,69.06L25,31.3C19.33,29.14,17.89,26.53,17.53,22.65L16.44,9.5C19.69,8.24,23.38,7.07,26.08,7.07L29.59,18.06L33.65,18.06L35.54,5.63C37.79,5.27,40.13,5,42.38,5C44.64,5,46.98,5.27,49.23,5.63Z" fill="currentColor"/><path d="M64.45,69.12L64.45,69.13L64.45,69.13C62.29,68.86,60.13,68.68,57.97,68.59C57.52,66.5,57.11,64.47,56.7,62.49C52.92,43.81,50.21,30.43,28.78,30.76C36.26,29.23,47.34,29.05,53.64,29.95C60.95,28.43,63.19,16.19,64.46,8.26C65.92,8.66,67.38,9.13,68.46,9.66C68.47,9.67,68.49,9.68,68.5,9.68L67.24,22.65C67.24,22.67,67.24,22.68,67.24,22.69C66.87,26.81,64.8,29.41,59.86,31.3Z" fill="currentColor" opacity="0.5"/><path d="M64.48,69.06C70.87,70.05,73.22,72.39,74.03,75.54C70.52,73.2,64.39,72.57,42.49,72.57C20.68,72.57,14.19,73.11,10.95,75.45C11.76,72.39,14.19,70.05,20.5,69.06C23.57,68.61,33.03,68.52,42.49,68.52C54.56,68.52,59.79,68.34,64.48,69.06Z" fill="currentColor"/><path d="M20.26,28.65C18.41,27.02,17.75,25.09,17.53,22.67C17.53,22.66,17.53,22.66,17.53,22.65L16.44,9.5C18.57,8.68,20.89,7.89,23,7.44C19.45,9.78,18.62,20.66,20.26,28.65Z" fill="currentColor"/><path d="M33.65,18.06L35.54,5.63C37.79,5.27,40.13,5,42.38,5C36.62,6.98,34.1,16.53,33.65,18.06Z" fill="currentColor"/><path d="M62.97,7.87C59.24,10.65,56.12,16.25,55.17,18.06L58.69,7.07C58.71,7.07,58.73,7.08,58.74,7.08C60.14,7.24,61.28,7.46,62.97,7.87Z" fill="currentColor"/><path d="M74.5,68L74.5,85L18.5,85L30.5,38L34.5,36C51.37,37.83,45.5,62.5,74.5,68Z" fill="currentColor"/><path d="M82.83,60.75C79.05,59.8,75.08,60.66,72,63.02L69.38,55.58L69.18,55.02L68.6,54.88C66.85,54.45,64.83,54.39,63.49,54.74L63.44,54.95L63.37,55.25L63.21,55.9L61.86,61.31C58.93,60.29,51.77,57.64,48.12,46.48C46.49,41.49,41.95,37.74,35.68,36.17L34.61,35.9L34.34,36.98L22.72,83.6L22.45,84.67L23.52,85.38C29.79,86.94,35.57,85.32,39.36,81.68C47.8,73.56,55.37,74.57,58.45,75.04L57.11,80.45L56.94,81.1L56.86,81.4L56.81,81.61C57.83,82.55,59.63,83.46,61.38,83.89L61.97,84.03L62.4,83.63L68.2,78.3C69.79,81.82,72.91,84.44,76.69,85.39C83.47,87.08,90.37,82.93,92.07,76.15L92.07,76.13C93.76,69.33,89.61,62.44,82.83,60.75Z" fill="currentColor"/><path d="M70.3,70.07L68.52,77.2C68.41,77.27,62.52,81.05,60.48,75.14L65.62,54.55L65.51,54.55C64.76,54.55,64.06,54.6,63.49,54.75L63.44,54.96L63.36,55.27L63.2,55.91L61.85,61.32C61.85,61.32,61.72,61.28,61.67,61.25L61.48,62C61.48,62,52.43,67.29,45.42,71.79C40.13,75.19,37.12,81.52,36.08,84.05C37.27,83.41,38.37,82.62,39.34,81.68C47.79,73.56,55.36,74.57,58.44,75.04L57.09,80.45L56.93,81.1L56.85,81.4L56.8,81.61C57.82,82.55,59.62,83.46,61.37,83.89L61.93,84.03L62.27,83.74L62.39,83.63L68.19,78.3C69.78,81.82,72.9,84.44,76.68,85.39C81.96,86.71,87.3,84.47,90.21,80.23C90.23,80.18,90.24,80.16,90.24,80.16C86.79,84.18,78.08,85.71,73.28,80.11L73.28,80.09C69.84,76.09,70.3,70.07,70.3,70.07Z" fill="currentColor"/><path d="M72.01,63.02L69.39,55.58L69.2,55.02L68.69,54.89L67.24,60.71C69.55,61.65,72.01,63.02,72.05,63.08L72.04,63.09Z" fill="currentColor"/><path d="M79.15,60.41C78.97,60.46,78.88,60.5,78.88,60.5C89.12,63.89,92.58,71.83,92.02,76.29C92.03,76.24,92.06,76.18,92.07,76.14C93.76,69.34,89.61,62.46,82.83,60.76L82.83,60.75C81.61,60.45,80.37,60.35,79.15,60.41Z" fill="currentColor"/><path d="M45.81,51.31C47.74,56.08,56.49,58.84,56.49,58.84C56.6,58.9,56.43,58.7,56.1,58.34C53.25,56.21,50.15,52.65,48.13,46.47C47.07,43.26,44.82,40.56,41.66,38.63C38.19,36.77,34.83,35.84,35.65,36.33C42.73,40.58,42.9,44.12,45.81,51.31Z" fill="currentColor"/></svg>