<svg xmlns="http://www.w3.org/2000/svg" viewBox="0 0 90 90"><path d="M65.56,82.89C65.56,76.32,65.56,70.69,56.2,68.98L69.34,37.22C72.85,36.77,76,33.17,76,29.39C76,25.16,72.49,21.47,67.99,21.47C63.76,21.47,60.07,25.16,60.07,29.39C60.07,31.01,60.88,32.54,61.42,33.44L52.43,42.98L51.35,20.84C54.41,19.85,56.65,16.79,56.65,13.28C56.65,9.32,53.6,5,48.29,5C43.52,5,39.92,9.05,39.92,13.28C39.92,15.71,41.09,18.05,42.98,19.58L36.5,38.39L30.02,19.58C31.91,18.05,33.08,15.71,33.08,13.28C33.08,8.78,29.48,5,24.71,5C19.4,5,16.35,9.14,16.35,13.37C16.35,16.88,18.59,19.85,21.65,20.84L20.57,42.98L11.58,33.44C12.12,32.54,12.93,31.01,12.93,29.39C12.93,25.16,9.24,21.47,5.01,21.47C0.6,21.47,-3,25.07,-3,29.39C-3,33.17,0.15,36.77,3.66,37.22L16.89,68.98C7.44,70.69,7.44,76.41,7.44,82.89L7.44,85L65.56,85Z" fill="currentColor"/><path d="M67.99,21.47C63.76,21.47,60.07,25.16,60.07,29.39C60.07,30.65,60.52,31.82,60.97,32.63C61.33,25.7,65.82,22.28,70.06,21.74C69.61,21.65,68.62,21.47,67.99,21.47Z" fill="currentColor"/><path d="M24.71,5C19.4,5,16.35,9.14,16.35,13.37C16.35,14.72,16.7,16.07,17.42,17.33C18.14,10.13,21.74,6.17,24.71,5Z" fill="currentColor"/><path d="M48.29,5C43.52,5,39.92,9.05,39.92,13.28C39.92,14.63,40.28,15.98,40.91,17.15C41.36,10.49,45.5,6.44,48.29,5Z" fill="currentColor"/><path d="M5.01,21.47C0.6,21.47,-3,25.07,-3,29.39C-3,32.27,-1.29,34.7,0.87,36.23C-2.37,31.19,-0.57,24.26,5.01,21.47Z" fill="currentColor"/><path d="M16.89,68.98C19.85,68.8,27.77,68.44,36.59,68.44C47.57,68.44,51.89,68.44,56.21,68.98C60.79,69.79,63.13,71.59,64.3,73.93C63.22,73.48,61.87,73.21,60.25,72.94C55.04,72.49,49.82,72.49,36.59,72.49C25.97,72.49,16.35,72.76,12.84,72.94C11.31,73.21,9.96,73.48,8.79,73.93C10.05,71.59,12.39,69.79,16.89,68.98Z" fill="currentColor"/><path d="M74.2,24.44C76,31.82,69.34,34.16,66.46,35.69C66.46,35.69,60.16,48.37,51.62,57.73C42.53,67.54,36.5,68.44,36.5,68.44C47.48,68.44,51.89,68.44,56.2,68.98L69.34,37.22C72.85,36.77,76,33.17,76,29.39C76,27.59,75.37,25.88,74.2,24.44Z" fill="currentColor" opacity="0.5"/><path d="M50.28,55.44L76.72,55.44L76.72,60.11L73.51,85L53.49,85L50.28,60.11Z" fill="currentColor"/><path d="M68.94,53.89L64.39,84.24C64.33,84.68,63.95,85,63.51,85C63.06,85,62.68,84.67,62.62,84.22L58.83,53.89Z" fill="currentColor"/><path d="M50.03,74.89L59.89,83.55L47.94,79.29Z" fill="currentColor"/><path d="M55.6,69.44L58.66,76.01L52.64,72.4Z" fill="currentColor"/><path d="M74.39,69.44L70.48,71.91L72.52,67.58Z" fill="currentColor"/><path d="M80.81,70.78L76.4,72.16L79.49,68.5Z" fill="currentColor"/><path d="M77.33,75.73L66.87,83.47L74.37,72.78Z" fill="currentColor"/><path d="M61.94,67.11L63.5,85C63.06,85,62.68,84.67,62.63,84.23L60.39,66.33Z" fill="currentColor"/><path d="M68.69,55.6L66.86,67.8C65.75,67.86,64.63,67.89,63.5,67.89C62.52,67.89,61.54,67.86,60.57,67.82L59.04,55.56C60.49,55.48,61.98,55.44,63.5,55.44C65.28,55.44,67.02,55.5,68.69,55.6Z" fill="currentColor"/><path d="M41.72,60.11L85.28,60.11C86.14,60.11,86.83,59.41,86.83,58.56L86.83,53.41C86.83,52.76,86.43,52.18,85.82,51.96L76.41,48.44C68.71,46.89,80.61,27.57,82.11,23.01C84.37,16.14,76.33,15,63.5,15C50.67,15.39,42.63,16.14,44.89,23.01C46.39,27.57,58.29,46.89,50.59,48.44L41.18,51.96C40.57,52.18,40.17,52.76,40.17,53.41L40.17,58.56C40.17,59.41,40.86,60.11,41.72,60.11Z" fill="currentColor"/><path d="M82.4,20L78.98,19.66C68.68,18.63,58.31,18.63,48.02,19.66L44.6,20C45.51,15.89,52.85,15.32,63.5,15C74.17,15,81.53,15.79,82.4,20Z" fill="currentColor"/><path d="M40.6,52.33C40.76,52.17,40.96,52.04,41.18,51.96L50.59,48.44C51.96,48.17,52.71,47.33,53,46.11L58.9,46.11L72.8,52.33Z" fill="currentColor"/><path d="M69.48,15.12C60.22,15.57,54.2,16.74,55.93,23.01C57.19,27.57,66.55,47.67,60.72,49.22L53.61,51.95C53.01,52.18,52.61,52.76,52.61,53.4L52.61,58.56C52.61,59.41,53.31,60.11,54.17,60.11L41.72,60.11C40.86,60.11,40.17,59.41,40.17,58.56L40.17,53.41C40.17,52.76,40.57,52.18,41.18,51.96L50.59,48.44C58.29,46.89,46.39,27.57,44.89,23.01C42.63,16.14,50.67,15.39,63.5,15C65.64,15,67.64,15.03,69.48,15.12Z" fill="currentColor"/></svg>