<svg xmlns="http://www.w3.org/2000/svg" viewBox="0 0 90 90"><path d="M39.43,82.98C59.42,82.98,75.62,81.39,75.62,79.42C75.62,77.45,59.41,75.87,39.43,75.87C19.45,75.87,3.24,77.46,3.24,79.42C3.24,81.38,19.44,82.98,39.43,82.98Z" fill="currentColor" opacity="0.5"/><path d="M70.82,57.42C69.47,51.4,66.8,47.8,64.94,45.92L71.24,42.91L72.6,48.96L81.93,46.87L80.53,40.65L86.75,39.26L84.65,29.93L78.43,31.31L77.04,25.11L67.71,27.2L69.06,33.25L62.08,33.23C62.96,30.73,63.83,26.34,62.47,20.32C61.42,15.66,58.76,11.8,54.99,9.47C51.2,7.13,46.42,6.44,41.56,7.53C34.51,9.12,31.03,14.63,27.67,19.96C25.61,23.23,23.47,26.62,20.49,29.17C17.03,22.36,12.14,23.45,6.54,24.74L5.71,24.93L4.67,25.16L4.9,26.2L16.27,76.75L16.5,77.79L17.53,77.56L18.37,77.37C23.98,76.13,28.87,75.05,29.08,67.4C32.87,68.44,36.24,70.57,39.51,72.65C44.83,76.02,50.33,79.52,57.38,77.92C62.24,76.83,66.26,74.18,68.69,70.43L68.7,70.43C71.11,66.71,71.86,62.09,70.82,57.42Z" fill="currentColor"/><path d="M39.68,56.57C39.41,54.89,39.27,53.86,39.01,52.43L51.92,49.54C51.92,49.54,55.81,53.01,56.57,56.35C56.57,56.35,57.71,62.48,52.09,62.92L52.1,62.92C48.67,63.2,44.62,58.92,39.68,56.57Z" fill="currentColor"/><path d="M48.79,35.58L35.88,38.47C35.5,37.09,35.19,36.08,34.72,34.45C38.18,30.2,40,24.62,43.23,23.4C48.49,21.41,50.08,27.43,50.08,27.43L50.07,27.43C50.82,30.76,48.79,35.58,48.79,35.58Z" fill="currentColor"/><path d="M78.44,31.31L77.05,25.11L68.84,26.95L70.21,32.84C74.28,33.29,80.8,33.17,85.5,38.45C85.81,38.81,86.14,39.09,86.45,39.33L86.77,39.26L84.67,29.93L84.66,29.93Z" fill="currentColor"/><path d="M41.57,7.53C34.52,9.12,31.04,14.63,27.68,19.96C25.81,22.92,23.85,25.95,21.28,28.39L23.33,33.46C29.71,28.87,35.46,26.44,40.58,25.61C41.39,24.59,42.23,23.78,43.22,23.41C46.66,22.11,48.51,24.21,49.39,25.83C54.27,26.95,58.81,29.49,62.08,33.23L62.68,31.09C63.24,28.51,63.5,24.9,62.47,20.32C61.42,15.66,58.76,11.8,54.99,9.47L55,9.47C51.21,7.13,46.43,6.44,41.57,7.53Z" fill="currentColor"/><path d="M6.55,24.73L5.72,24.92L4.68,25.15L4.91,26.19L6.58,33.6C7.21,33.5,7.63,33.44,7.63,33.44C7.63,33.44,19.63,31.84,24.28,46.08L20.51,29.16C20.32,29.34,20.71,28.99,20.51,29.16L20.5,29.16C17.04,22.35,12.15,23.44,6.55,24.73Z" fill="currentColor"/><path d="M28.64,60.76L29.08,67.39C32.87,68.43,36.24,70.56,39.52,72.64C44.84,76.01,50.34,79.51,57.39,77.91C62.25,76.82,66.27,74.17,68.7,70.42C69.16,69.71,69.51,68.94,69.85,68.16C67.47,70.34,58.3,77.69,47.55,72.67L47.54,72.68Z" fill="currentColor" opacity="0.5"/></svg>