<svg xmlns="http://www.w3.org/2000/svg" viewBox="0 0 90 90"><path d="M5,47C5,69.09,22.91,87,45,87C67.09,87,85,69.09,85,47C85,24.91,67.09,7,45,7C22.91,7,5,24.91,5,47Z" fill="currentColor"/><path d="M5,43C5,65.09,22.91,83,45,83C67.09,83,85,65.09,85,43C85,20.91,67.09,3,45,3C22.91,3,5,20.91,5,43Z" fill="currentColor"/><path d="M16.11,43C16.11,58.95,29.05,71.89,45,71.89C60.95,71.89,73.89,58.95,73.89,43C73.89,27.05,60.95,14.11,45,14.11C29.05,14.11,16.11,27.05,16.11,43Z" fill="currentColor"/><path d="M16.11,43C16.11,58.95,29.05,71.89,45,71.89C60.95,71.89,73.89,58.95,73.89,43C73.89,27.05,60.95,14.11,45,14.11C29.05,14.11,16.11,27.05,16.11,43Z" fill="currentColor" opacity="0.5"/><path d="M16.11,45.86C16.11,61.81,29.05,74.75,45,74.75C60.95,74.75,73.89,61.81,73.89,45.86C73.89,29.9,60.95,16.97,45,16.97C29.05,16.97,16.11,29.9,16.11,45.86Z" fill="currentColor" opacity="0.5"/><path d="M45,3C22.91,3,5,20.91,5,43C8.28,22.42,24.42,6.28,45,3Z" fill="currentColor"/><path d="M85,43C85,65.09,67.09,83,45,83C64.14,79.66,79.5,65.32,84.15,46.45Z" fill="currentColor"/></svg>