<svg xmlns="http://www.w3.org/2000/svg" viewBox="0 0 90 90"><path d="M76.57,60.43C73.6,63.15,71.04,66.29,68.99,69.75C75.48,71.49,76.57,75.89,76.57,82L76.57,84.99L20.43,84.99L20.43,82C20.43,76.07,21.34,71.56,28.08,69.76C26.01,66.28,23.43,63.14,20.43,60.43C15.8,55.87,11.01,51.08,11.01,43.59C10.83,33.71,18.7,25.18,28.73,25.35C33.28,25.18,37.79,26.3,41.73,28.58L43.34,21.56L36.9,21.56L36.9,11.67L43.52,11.67L43.52,5L53.46,5L53.46,11.85L60.08,11.85L60.08,21.67L53.64,21.67L55.25,28.69C59.18,26.37,63.69,25.22,68.25,25.35C78.78,25.08,86.23,33.32,86,43.59C86,51.03,81.22,55.81,76.57,60.43Z" fill="currentColor"/><path d="M69.54,45.53C70.38,39.71,63.93,39.49,63.9,39.49C60.35,39.49,55.93,42.65,55.93,42.65L55.93,56.4C57.47,56.46,58.51,56.56,60.28,56.67C61.61,54.98,63.18,53.48,64.65,52.08C67.08,49.78,69.22,47.74,69.54,45.53Z" fill="currentColor"/><path d="M33.05,39.49C33.05,39.49,26.64,39.72,27.41,45.53C27.73,47.73,29.87,49.77,32.29,52.07C33.76,53.47,35.34,54.97,36.67,56.67C38.44,56.55,39.52,56.4,41.02,56.4L41.02,42.65C41.02,42.65,36.61,39.49,33.05,39.49Z" fill="currentColor"/><path d="M62.34,69.01L62.19,69.01L78.67,52.49C86.81,44.34,81.38,31.92,80.41,29.87C80.44,29.87,80.48,29.87,80.51,29.87C84.06,33.21,86.12,38.11,86,43.59C86,51.03,81.22,55.81,76.57,60.43C73.6,63.15,71.04,66.29,68.99,69.75C66.89,69.18,64.56,69.01,62.34,69.01Z" fill="currentColor" opacity="0.5"/><path d="M69.13,69.79C69.59,69.92,70.03,70.06,70.44,70.22C71.39,70.58,72.26,71.05,73.04,71.64C74.3,72.61,75.12,73.82,75.66,75.25C73.87,74.44,67.8,72.86,48.48,72.86C29.27,72.86,23.16,74.46,21.33,75.24C21.85,73.86,22.66,72.67,23.9,71.71C24.85,70.98,25.96,70.44,27.15,70.04C27.42,69.95,27.69,69.87,27.98,69.79C30.17,69.18,32.57,69.01,34.73,69.01L62.34,69.01C64.62,69.01,66.99,69.19,69.13,69.79Z" fill="currentColor"/><path d="M29.78,25.35C16.28,27.57,9.71,40.37,13.73,52.71C11.96,50,11.01,46.83,11.01,43.59C10.92,38.71,12.75,33.99,16.1,30.45C17.76,28.8,19.73,27.5,21.9,26.62C24.07,25.75,26.39,25.31,28.73,25.35Z" fill="currentColor"/><path d="M29.78,25.35C29.8,25.35,29.82,25.34,29.84,25.34L29.84,25.35Z" fill="currentColor"/><path d="M51.96,6.66L45.18,6.66L45.18,13.31L38.56,13.31L38.56,20.06L37.07,21.56L36.9,21.56L36.9,11.67L43.52,11.67L43.52,5L53.46,5L53.46,5.16Z" fill="currentColor"/><path d="M51.97,13.31L53.47,11.67L60.09,11.67L60.09,13.31Z" fill="currentColor"/><path d="M28.5,34L38.58,34.08C45,34.08,46,35.08,46,41.58C46,47.08,45.27,48.6,41.02,48.92L41.02,42.65C41.02,42.65,36.61,39.49,33.05,39.49C33.05,39.49,26.64,39.72,27.41,45.53C27.58,46.71,28.28,47.85,29.26,49L28.5,49L28.42,59.08C28.42,63.46,27.95,65.32,25.59,66.05C24.05,64.03,22.33,62.14,20.43,60.43C17.9,57.94,15.32,55.37,13.5,52.33L13.5,49L11.92,48.99C11.35,47.34,11.01,45.56,11.01,43.59C10.83,33.79,18.58,25.31,28.5,25.35Z" fill="currentColor"/><path d="M28.5,17.42L28.5,27.5L38.58,27.58C45,27.58,46,28.58,46,35.08C46,41.5,45,42.5,38.58,42.5L28.5,42.5L28.42,52.58C28.42,59,27.42,60,20.92,60C14.5,60,13.5,59,13.5,52.58L13.5,42.5L3.42,42.42C-3,42.42,-4,41.42,-4,34.92C-4,28.5,-3,27.5,3.42,27.5L13.5,27.5L13.58,17.42C13.58,11,14.58,10,21.08,10C27.5,10,28.5,11,28.5,17.42Z" fill="currentColor"/></svg>