<svg xmlns="http://www.w3.org/2000/svg" viewBox="0 0 90 90"><path d="M13,27L35,27L35,85L13,85C8.58,85,5,81.42,5,77L5,35C5,30.58,8.58,27,13,27Z" fill="#312E2B"/><path d="M57,27L35,27L35,85L57,85C61.42,85,65,81.42,65,77L65,35C65,30.58,61.42,27,57,27Z" fill="#312E2B"/><path d="M13,25L35,25L35,53L5,53L5,33C5,28.58,8.58,25,13,25Z" fill="#666564"/><path d="M57,81L35,81L35,53L65,53L65,73C65,77.42,61.42,81,57,81Z" fill="#666564"/><path d="M57,25L35,25L35,53L65,53L65,33C65,28.58,61.42,25,57,25Z" fill="#666564"/><path d="M13,81L35,81L35,53L5,53L5,73C5,77.42,8.58,81,13,81Z" fill="#666564"/><path d="M5,53L5.87,53L6.6,36.11C6.83,30.92,11,26.76,16.19,26.55L35,25.8L35,25L13,25C8.58,25,5,28.58,5,33Z" fill="#8B8987"/><path d="M55,25L35,25L35,25.8Z" fill="#8B8987"/><path d="M5,73C5.6,65.52,5.8,59.18,5.93,53L5,53Z" fill="#8B8987"/><path d="M65,73C65,77.42,61.42,81,57,81L35,81L54.16,79.29C58.93,78.86,62.73,75.11,63.22,70.35L65,53Z" fill="#8B8987"/><path d="M25,25L25,53L35,53L35,25Z" fill="#666564"/><path d="M65,53L65,73C65,77.42,61.42,81,57,81L44,81L35,71L35,53Z" fill="#4B4847"/><path d="M30,53L29.16,53C26.86,53,25,54.86,25,57.16C25,59.07,25.72,60.92,27.01,62.32L35,71L35,58C35,55.24,32.76,53,30,53Z" fill="#4B4847"/><path d="M52.26,43.71C54.76,41.28,54.76,40.31,52.26,37.88C49.83,35.38,48.86,35.38,46.43,37.88L34.07,50.1L34,50.03L34,54L26.19,54L28.17,56L15.87,68.22C13.37,70.65,13.37,71.63,15.81,74.06C18.31,76.56,19.28,76.56,21.71,74.06L34,61.97L34,54L41.97,54Z" fill="#312E2B"/><path d="M39.97,56L51.99,68.29C54.42,70.79,54.42,71.76,51.99,74.19C49.49,76.63,48.51,76.63,46.08,74.13L34.07,61.9L34,61.97L34,54L41.97,54Z" fill="#312E2B"/><path d="M34,54L26.19,54L15.88,43.57C13.44,41.14,13.44,40.17,15.88,37.67C18.38,35.24,19.35,35.24,21.78,37.74L34,50.03Z" fill="#4B4847"/><path d="M34.07,58.9L46.08,71.13C48.51,73.63,49.49,73.63,51.99,71.19C54.42,68.76,54.42,67.79,51.99,65.29L39.97,53L52.26,40.71C54.76,38.28,54.76,37.31,52.26,34.88C49.83,32.38,48.86,32.38,46.43,34.88L34.07,47.1L21.78,34.74C19.35,32.24,18.38,32.24,15.88,34.67C13.44,37.17,13.44,38.14,15.88,40.57L28.17,53L15.88,65.22C13.38,67.65,13.38,68.63,15.81,71.06C18.31,73.56,19.28,73.56,21.71,71.06Z" fill="#666564"/><path d="M34.07,58.9L39.97,53L52.26,40.71C54.76,38.28,54.76,37.31,52.26,34.88C49.83,32.38,48.86,32.38,46.43,34.88L34.07,47.1L21.78,34.74C19.35,32.24,18.38,32.24,15.88,34.67C13.44,37.17,13.44,38.14,15.88,40.57L28.17,53L15.88,65.22C13.38,67.65,13.38,68.63,15.81,71.06C18.31,73.56,19.28,73.56,21.71,71.06Z" fill="white"/><path d="M33,7L55,7L55,65L33,65C28.58,65,25,61.42,25,57L25,15C25,10.58,28.58,7,33,7Z" fill="#305730"/><path d="M77,7L55,7L55,65L77,65C81.42,65,85,61.42,85,57L85,15C85,10.58,81.42,7,77,7Z" fill="#5D9948"/><path d="M33,5L55,5L55,33L25,33L25,13C25,8.58,28.58,5,33,5Z" fill="#81B64C"/><path d="M77,61L55,61L55,33L85,33L85,53C85,57.42,81.42,61,77,61Z" fill="#81B64C"/><path d="M77,5L55,5L55,33L85,33L85,13C85,8.58,81.42,5,77,5Z" fill="#5D9948"/><path d="M33,61L55,61L55,33L25,33L25,53C25,57.42,28.58,61,33,61Z" fill="#5D9948"/><path d="M25,33L25.87,33L26.6,16.11C26.83,10.92,31,6.76,36.19,6.55L55,5.8L55,5L33,5C28.58,5,25,8.58,25,13Z" fill="#B2E068"/><path d="M75,5L55,5L55,5.8Z" fill="#81B64C"/><path d="M25,53C25.6,45.52,25.8,39.18,25.93,33L25,33Z" fill="#81B64C"/><path d="M85,53C85,57.42,81.42,61,77,61L55,61L74.16,59.29C78.93,58.86,82.73,55.11,83.22,50.35L85,33Z" fill="#B2E068"/><path d="M54.61,45.18L54.61,33.44L55.02,33.04L66.75,33.04Z" fill="#5D9948"/><path d="M35.52,33.04C35.62,32.94,35.72,32.83,35.82,32.72C38.32,30.29,39.3,30.29,41.73,32.72L42.05,33.04Z" fill="#5D9948"/><path d="M74.09,25.71C76.52,23.28,76.52,22.31,74.09,19.88C71.59,17.38,70.61,17.38,68.18,19.88L55.02,33.04L66.75,33.04Z" fill="#305730"/><path d="M54.61,45.18L50.68,49.11C49.02,50.78,47.91,50.71,46.24,49.11L35.82,38.63C33.5,36.3,33.4,35.31,35.52,33.04L42.05,33.04L48.53,39.53L54.61,33.44Z" fill="#305730"/><path d="M74.09,22.71C76.52,20.28,76.52,19.31,74.09,16.88C71.59,14.38,70.61,14.38,68.18,16.88L48.53,36.53L41.73,29.72C39.3,27.29,38.32,27.29,35.82,29.72C33.39,32.22,33.39,33.19,35.82,35.63L46.24,46.11C47.91,47.71,49.02,47.78,50.68,46.11Z" fill="white"/></svg>