<svg xmlns="http://www.w3.org/2000/svg" viewBox="0 0 90 90"><path d="M86.25,71.73C86.25,69.64,70.07,67.94,50.12,67.94C30.16,67.94,13.98,69.64,13.98,71.73C13.98,73.83,30.16,75.53,50.12,75.53C70.07,75.53,86.25,73.83,86.25,71.73Z" fill="currentColor" opacity="0.5"/><path d="M16.18,43.98C15.24,46.46,14.61,49.21,14.67,51.85C14.67,51.99,14.67,52.1,14.67,52.23C14.67,52.48,14.67,52.76,14.67,53.01C14.67,53.09,14.67,53.14,14.67,53.23L14.67,53.31C14.97,70.83,32.49,75.83,47.03,70.11C47.15,70.06,47.28,70.03,47.39,69.97L41.73,56.61C33.97,59.6,30.37,56.33,30.09,52.78C29.77,48.6,33.95,44.01,41.26,48.66L48,36.64L48.38,35.95C45.96,34.14,43.19,32.96,40.27,32.35C39.34,32.16,38.37,32.13,37.44,32.27C37.08,32.33,36.72,32.38,36.37,32.44C35.7,32.55,35.07,32.68,34.41,32.85C33.95,32.96,33.45,33.09,32.95,33.2C31.55,33.62,30.23,34.03,28.86,34.61C28.28,34.83,27.7,35.08,27.18,35.35C26.6,35.63,26.08,35.93,25.56,36.17C24.24,36.86,23.05,37.58,21.9,38.43C20.91,39.12,20,39.78,19.12,40.58C18.46,41.15,17.83,41.78,17.2,42.42L17.2,42.39C16.76,42.86,16.4,43.41,16.18,43.98Z" fill="currentColor"/><path d="M37.96,15C37.93,15,37.93,15,37.91,15C36.34,15.11,34.74,15.28,33.2,15.52C32.95,15.58,32.73,15.71,32.57,15.91C32.41,16.13,32.35,16.38,32.41,16.65L33.06,20.34C31.75,20.58,30.45,20.89,29.16,21.21L28.14,17.61C28.03,17.2,27.65,16.9,27.21,16.9C27.13,16.9,27.02,16.9,26.93,16.93C25.42,17.36,23.91,17.89,22.45,18.49C22.2,18.6,22.01,18.77,21.93,19.02C21.82,19.26,21.82,19.54,21.93,19.76L23.36,23.22C22.73,23.5,22.09,23.77,21.46,24.07C20.83,24.38,20.22,24.68,19.59,25.01L17.8,21.71C17.64,21.38,17.31,21.19,16.95,21.19C16.79,21.19,16.62,21.24,16.48,21.3C15.11,22.07,13.76,22.92,12.44,23.8C12.22,23.94,12.08,24.16,12.03,24.43C11.97,24.68,12.03,24.95,12.19,25.18L14.37,28.23C13.29,29,12.22,29.82,11.2,30.7L8.73,27.87C8.53,27.65,8.26,27.54,7.98,27.54C7.74,27.54,7.52,27.62,7.35,27.79C6.17,28.83,5.04,29.96,3.97,31.11C3.8,31.31,3.69,31.55,3.72,31.8C3.72,32.08,3.86,32.3,4.05,32.49L14.31,41.73C14.47,41.9,14.72,41.98,14.97,41.98C15.24,41.98,15.49,41.87,15.69,41.67C16.48,40.82,17.34,40,18.24,39.2C19.09,38.46,20.03,37.72,20.96,37.05C22.18,36.2,23.39,35.46,24.57,34.8C25.09,34.52,25.64,34.25,26.16,33.98C26.68,33.73,27.23,33.48,27.81,33.23C29.08,32.71,30.43,32.24,31.83,31.86C32.93,31.55,34.08,31.28,35.21,31.09C36.39,30.87,37.58,30.73,38.76,30.65C39.28,30.62,39.69,30.15,39.66,29.63L38.95,15.85L38.95,15.94C38.92,15.41,38.48,15,37.96,15Z" fill="currentColor"/><path d="M64.75,60.13L64.8,71.27L51.08,71.95L49.45,32.44L64.55,31.64L64.64,44.73L73.16,31.97L85.75,39.23L74.86,51.02L85.75,61.56L74.07,71.81L74.04,71.81Z" fill="currentColor"/></svg>