<svg xmlns="http://www.w3.org/2000/svg" viewBox="0 0 90 90"><path d="M87,48C87,24.8,68.2,6,45,6C21.8,6,3,24.8,3,48C3,71.2,21.8,90,45,90C68.2,90,87,71.2,87,48Z" fill="currentColor"/><path d="M87,45C87,21.8,68.2,3,45,3C21.8,3,3,21.8,3,45C3,68.2,21.8,87,45,87C68.2,87,87,68.2,87,45Z" fill="currentColor"/><path d="M45,87C68.2,87,87,68.2,87,45C87,38.69,85.61,32.71,83.12,27.35C74.44,54.01,52.84,74.77,25.63,82.28C31.43,85.29,38.02,87,45,87Z" fill="currentColor" opacity="0.2"/><path d="M3.79,36.87C7.42,18.34,23.24,4.18,42.55,3.07C24.36,6.79,9.79,19.8,3.79,36.87Z" fill="currentColor"/><path d="M86.99,44.13C87,44.42,87,44.71,87,45C87,68.2,68.2,87,45,87C67.24,84.26,84.8,66.43,86.99,44.13Z" fill="currentColor"/><path d="M43.39,77.26C40.43,77.26,39.28,76.11,39.28,73.15L39.28,46.92C39.28,43.96,40.43,42.82,43.39,42.82L46.64,42.82C49.6,42.82,50.74,43.96,50.74,46.92L50.74,73.15C50.74,76.11,49.6,77.26,46.64,77.26Z" fill="currentColor"/><path d="M38.22,25.64C38.22,21.7,41.09,18.66,44.91,18.66C48.85,18.66,51.81,21.73,51.81,25.64C51.81,29.57,48.85,32.45,44.91,32.45C41.09,32.45,38.22,29.57,38.22,25.64Z" fill="currentColor"/><path d="M43.39,74.19C40.43,74.19,39.28,73.04,39.28,70.08L39.28,43.86C39.28,40.9,40.43,39.75,43.39,39.75L46.64,39.75C49.6,39.75,50.74,40.9,50.74,43.86L50.74,70.08C50.74,73.04,49.6,74.19,46.64,74.19Z" fill="currentColor"/><path d="M38.22,22.58C38.22,18.64,41.09,15.6,44.91,15.6C48.85,15.6,51.81,18.67,51.81,22.58C51.81,26.51,48.85,29.38,44.91,29.38C41.09,29.38,38.22,26.51,38.22,22.58Z" fill="currentColor"/></svg>