<svg xmlns="http://www.w3.org/2000/svg" viewBox="0 0 90 90"><path d="M87,48C87,24.8,68.2,6,45,6C21.8,6,3,24.8,3,48C3,71.2,21.8,90,45,90C68.2,90,87,71.2,87,48Z" fill="currentColor"/><path d="M87,45C87,21.8,68.2,3,45,3C21.8,3,3,21.8,3,45C3,68.2,21.8,87,45,87C68.2,87,87,68.2,87,45Z" fill="currentColor"/><path d="M45,87C68.2,87,87,68.2,87,45C87,38.69,85.61,32.71,83.12,27.35C74.44,54.01,52.84,74.77,25.63,82.28C31.43,85.29,38.02,87,45,87Z" fill="currentColor" opacity="0.2"/><path d="M3.79,36.87C7.42,18.34,23.24,4.18,42.55,3.07C24.36,6.79,9.79,19.8,3.79,36.87Z" fill="currentColor"/><path d="M86.99,44.13C87,44.42,87,44.71,87,45C87,68.2,68.2,87,45,87C67.24,84.26,84.8,66.43,86.99,44.13Z" fill="currentColor"/><path d="M45.08,57.61L57.42,70.11C61.08,73.86,62.42,73.86,66.17,70.19C69.92,66.53,69.92,65.11,66.25,61.44L53.92,48.78L66.42,36.28C70.17,32.53,70.17,31.19,66.42,27.44C62.75,23.78,61.33,23.78,57.67,27.44L45.08,39.86L32.58,27.36C28.83,23.61,27.5,23.61,23.75,27.36C20.08,31.03,20.08,32.44,23.75,36.11L36.17,48.78L23.67,61.19C19.92,64.94,19.92,66.28,23.67,70.03C27.33,73.69,28.67,73.69,32.42,70.03Z" fill="currentColor"/><path d="M45.08,54.06L57.42,66.56C61.08,70.31,62.42,70.31,66.17,66.64C69.92,62.97,69.92,61.56,66.25,57.89L53.92,45.22L66.42,32.72C70.17,28.97,70.17,27.64,66.42,23.89C62.75,20.22,61.33,20.22,57.67,23.89L45.08,36.31L32.58,23.81C28.83,20.06,27.5,20.06,23.75,23.81C20.08,27.47,20.08,28.89,23.75,32.56L36.17,45.22L23.67,57.64C19.92,61.39,19.92,62.72,23.67,66.47C27.33,70.14,28.67,70.14,32.42,66.47Z" fill="currentColor"/></svg>