<svg xmlns="http://www.w3.org/2000/svg" viewBox="0 0 90 90"><path d="M87,48C87,24.8,68.2,6,45,6C21.8,6,3,24.8,3,48C3,71.2,21.8,90,45,90C68.2,90,87,71.2,87,48Z" fill="currentColor"/><path d="M87,45C87,21.8,68.2,3,45,3C21.8,3,3,21.8,3,45C3,68.2,21.8,87,45,87C68.2,87,87,68.2,87,45Z" fill="currentColor"/><path d="M45,87C68.2,87,87,68.2,87,45C87,38.69,85.61,32.71,83.12,27.35C74.44,54.01,52.84,74.77,25.63,82.28C31.43,85.29,38.02,87,45,87Z" fill="currentColor" opacity="0.2"/><path d="M3.79,36.87C7.42,18.34,23.24,4.18,42.55,3.07C24.36,6.79,9.79,19.8,3.79,36.87Z" fill="currentColor"/><path d="M86.99,44.13C87,44.42,87,44.71,87,45C87,68.2,68.2,87,45,87C67.24,84.26,84.8,66.43,86.99,44.13Z" fill="currentColor"/><path d="M69.06,38.37C72.12,35.3,72.12,34.08,69.06,31.02C65.91,27.87,64.69,27.87,61.62,31.02L36.86,55.78L28.29,47.2C25.22,44.14,24,44.14,20.85,47.2C17.79,50.35,17.79,51.58,20.85,54.64L33.97,67.85C36.07,69.87,37.47,69.95,39.57,67.85Z" fill="currentColor"/><path d="M69.06,34.63C72.12,31.57,72.12,30.35,69.06,27.28C65.91,24.13,64.69,24.13,61.62,27.28L36.86,52.05L28.29,43.47C25.22,40.41,24,40.41,20.85,43.47C17.79,46.62,17.79,47.85,20.85,50.91L33.97,64.12C36.07,66.13,37.47,66.22,39.57,64.12Z" fill="currentColor"/></svg>