<svg xmlns="http://www.w3.org/2000/svg" viewBox="0 0 90 90"><path d="M87,48C87,24.8,68.2,6,45,6C21.8,6,3,24.8,3,48C3,71.2,21.8,90,45,90C68.2,90,87,71.2,87,48Z" fill="currentColor"/><path d="M87,45C87,21.8,68.2,3,45,3C21.8,3,3,21.8,3,45C3,68.2,21.8,87,45,87C68.2,87,87,68.2,87,45Z" fill="currentColor"/><path d="M45,87C68.2,87,87,68.2,87,45C87,38.69,85.61,32.71,83.12,27.35C74.44,54.01,52.84,74.77,25.63,82.28C31.43,85.29,38.02,87,45,87Z" fill="currentColor" opacity="0.2"/><path d="M3.79,36.87C7.42,18.34,23.24,4.18,42.55,3.07C24.36,6.79,9.79,19.8,3.79,36.87Z" fill="currentColor"/><path d="M86.99,44.13C87,44.42,87,44.71,87,45C87,68.2,68.2,87,45,87C67.24,84.26,84.8,66.43,86.99,44.13Z" fill="currentColor"/><path d="M47.89,56.74C49.64,56.74,50.51,55.87,50.6,54.12L51.91,25.24C52,23.49,51.13,22.62,49.46,22.62L40.63,22.62C38.88,22.62,38,23.49,38.09,25.15L39.49,54.12C39.58,55.87,40.45,56.74,42.2,56.74Z" fill="currentColor"/><path d="M51.04,69.17C51.04,63.22,51.04,63.22,45,63.22C39.05,63.22,39.05,63.22,39.05,69.17C39.05,75.2,39.05,75.2,45,75.2C51.04,75.2,51.04,75.2,51.04,69.17Z" fill="currentColor"/><path d="M47.89,53.01C49.64,53.01,50.51,52.13,50.6,50.38L51.91,21.51C52,19.76,51.13,18.88,49.46,18.88L40.63,18.88C38.88,18.88,38,19.76,38.09,21.42L39.49,50.38C39.58,52.13,40.45,53.01,42.2,53.01Z" fill="currentColor"/><path d="M51.04,65.43C51.04,59.48,51.04,59.48,45,59.48C39.05,59.48,39.05,59.48,39.05,65.43C39.05,71.47,39.05,71.47,45,71.47C51.04,71.47,51.04,71.47,51.04,65.43Z" fill="currentColor"/></svg>