<svg xmlns="http://www.w3.org/2000/svg" viewBox="0 0 90 90"><path d="M87,48C87,24.8,68.2,6,45,6C21.8,6,3,24.8,3,48C3,71.2,21.8,90,45,90C68.2,90,87,71.2,87,48Z" fill="currentColor"/><path d="M87,45C87,21.8,68.2,3,45,3C21.8,3,3,21.8,3,45C3,68.2,21.8,87,45,87C68.2,87,87,68.2,87,45Z" fill="currentColor"/><path d="M45,87C68.2,87,87,68.2,87,45C87,38.69,85.61,32.71,83.12,27.35C74.44,54.01,52.84,74.77,25.63,82.28C31.43,85.29,38.02,87,45,87Z" fill="currentColor" opacity="0.2"/><path d="M3.79,36.87C7.42,18.34,23.24,4.18,42.55,3.07C24.36,6.79,9.79,19.8,3.79,36.87Z" fill="currentColor"/><path d="M86.99,44.13C87,44.42,87,44.71,87,45C87,68.2,68.2,87,45,87C67.24,84.26,84.8,66.43,86.99,44.13Z" fill="currentColor"/><path d="M46.31,75.12C49.2,75.12,50.25,74.15,50.25,71.44L50.25,54.12L67.58,54.12C70.29,54.12,71.25,53.07,71.25,50.18L71.25,47.55C71.25,44.67,70.29,43.62,67.58,43.62L50.25,43.62L50.25,26.29C50.25,23.58,49.2,22.62,46.31,22.62L43.69,22.62C40.8,22.62,39.75,23.58,39.75,26.29L39.75,43.62L22.43,43.62C19.71,43.62,18.75,44.67,18.75,47.55L18.75,50.18C18.75,53.07,19.71,54.12,22.43,54.12L39.75,54.12L39.75,71.18C39.75,74.07,40.71,75.12,43.42,75.12Z" fill="currentColor"/><path d="M46.31,71.38C49.2,71.38,50.25,70.42,50.25,67.71L50.25,50.38L67.58,50.38C70.29,50.38,71.25,49.33,71.25,46.45L71.25,43.82C71.25,40.93,70.29,39.88,67.58,39.88L50.25,39.88L50.25,22.56C50.25,19.85,49.2,18.88,46.31,18.88L43.69,18.88C40.8,18.88,39.75,19.85,39.75,22.56L39.75,39.88L22.43,39.88C19.71,39.88,18.75,40.93,18.75,43.82L18.75,46.45C18.75,49.33,19.71,50.38,22.43,50.38L39.75,50.38L39.75,67.45C39.75,70.33,40.71,71.38,43.42,71.38Z" fill="currentColor"/></svg>