<svg xmlns="http://www.w3.org/2000/svg" viewBox="0 0 90 90"><path d="M87,48C87,24.8,68.2,6,45,6C21.8,6,3,24.8,3,48C3,71.2,21.8,90,45,90C68.2,90,87,71.2,87,48Z" fill="currentColor"/><path d="M87,45C87,21.8,68.2,3,45,3C21.8,3,3,21.8,3,45C3,68.2,21.8,87,45,87C68.2,87,87,68.2,87,45Z" fill="currentColor"/><path d="M3.79,36.87C7.42,18.34,23.24,4.18,42.55,3.07C24.36,6.79,9.79,19.8,3.79,36.87Z" fill="currentColor"/><path d="M86.99,44.13C87,44.42,87,44.71,87,45C87,68.2,68.2,87,45,87C67.24,84.26,84.8,66.43,86.99,44.13Z" fill="currentColor"/><path d="M47.36,57.35C49.11,57.35,49.99,56.48,49.99,54.73C50.07,50.88,50.77,50.44,54.54,47.64C57.16,45.63,61.62,42.83,61.62,35.65C61.62,26.9,54.71,21.74,45.87,21.74C41.32,21.74,37.21,23.05,32.49,26.82C31.17,27.95,31.09,29.35,32.31,31.02L34.67,34.25C35.72,35.65,37.04,35.74,38.61,34.52C41.59,32.42,44.04,31.54,46.14,31.54C49.2,31.54,51.74,33.2,51.74,35.92C51.74,38.02,50.25,39.42,47.01,41.69C40.8,45.98,40.27,46.15,40.19,54.73C40.19,56.48,41.06,57.35,42.81,57.35Z" fill="currentColor"/><path d="M50.16,70.13C50.16,65.05,49.99,64.97,45.09,64.97C40.1,64.97,39.92,65.14,39.92,70.04C39.92,75.2,40.1,75.2,45.09,75.2C49.99,75.2,50.16,75.03,50.16,70.13Z" fill="currentColor"/><path d="M47.36,53.62C49.11,53.62,49.99,52.75,49.99,51C50.07,47.15,50.77,46.71,54.54,43.91C57.16,41.9,61.62,39.1,61.62,31.92C61.62,23.17,54.71,18.01,45.87,18.01C41.32,18.01,37.21,19.32,32.49,23.08C31.17,24.22,31.09,25.62,32.31,27.28L34.67,30.52C35.72,31.92,37.04,32.01,38.61,30.78C41.59,28.68,44.04,27.81,46.14,27.81C49.2,27.81,51.74,29.47,51.74,32.18C51.74,34.28,50.25,35.68,47.01,37.96C40.8,42.25,40.27,42.42,40.19,51C40.19,52.75,41.06,53.62,42.81,53.62Z" fill="currentColor"/><path d="M50.16,66.4C50.16,61.32,49.99,61.23,45.09,61.23C40.1,61.23,39.92,61.41,39.92,66.31C39.92,71.47,40.1,71.47,45.09,71.47C49.99,71.47,50.16,71.3,50.16,66.4Z" fill="currentColor"/></svg>