<svg xmlns="http://www.w3.org/2000/svg" viewBox="0 0 90 90"><path d="M0,0L0,90L90,90L90,0Z" fill="currentColor"/><path d="M76.05,72.86C80.54,68.89,82.9,63.03,82.78,57.06L82.78,55.91C82.78,55.12,82.66,53.15,82.48,50.6C76.2,77.05,61.82,80.29,43.71,80.84C39.98,80.96,36.64,80.66,33.64,79.99C40.5,81.84,44.35,81.81,51.54,81.2C58.85,80.6,68.8,79.29,76.05,72.86Z" fill="currentColor"/><path d="M29.48,79.38L33.79,79.38C36.79,80.05,40.13,80.33,43.71,80.23C60.85,79.72,75.56,77.11,81.93,50.48L82.84,46.62L83.11,50.57C83.24,52.48,83.42,54.97,83.42,55.91C83.42,56.24,83.42,56.63,83.45,57.06C83.6,63.37,81.05,69.31,76.5,73.32C69.4,79.57,59.94,81.11,51.63,81.81C48.9,82.05,46.65,82.18,44.56,82.18C41.04,82.18,33.85,80.57,29.48,79.38Z" fill="currentColor"/><path d="M59.64,79.57C65.34,78.51,71.04,76.5,75.65,72.41C79.93,68.62,82.33,63.04,82.17,57.09C82.17,56.67,82.14,56.27,82.14,55.94C82.17,55.63,82.14,55.12,82.11,54.42C77.47,70.47,69.43,76.9,59.64,79.57Z" fill="currentColor"/><path d="M21.78,76.14C24.81,77.23,27.39,78.11,29.67,78.81C16.29,73.83,11.01,60.21,9.22,43.41C8.98,50.17,9.07,58.15,9.07,58.15L8.61,61.73C8.61,61.73,8.71,60.58,8.61,61.52C9.22,65.8,11.5,72.5,21.78,76.14Z" fill="currentColor"/><path d="M21.57,76.75C13.62,73.92,9.07,68.86,8.01,61.7L8.01,61.64L8.01,61.52C8.01,61.52,8.01,61.31,8.01,61.22C8.01,61.22,8.01,61.09,8.07,61L8.43,58.18C8.43,58.18,8.37,50.17,8.58,43.47L9.8,43.47C11.86,62.91,22.14,75.17,33.76,79.48L29.45,79.42L29.48,79.42C27.33,78.75,24.81,77.9,21.57,76.75Z" fill="currentColor"/><path d="M21.96,75.59C22.3,75.71,22.6,75.84,22.93,75.93C16.23,71.01,11.89,62.85,9.68,50.87C9.68,54.91,9.68,58.15,9.68,58.18L9.22,61.61C10.22,68.25,14.5,72.95,21.96,75.59Z" fill="currentColor"/><path d="M85.66,10.89C88.64,9.01,89.64,9.01,89.79,10.1C89.94,11.19,90.88,21.36,87.51,24.48C84.15,27.61,80.41,27.45,80.41,27.45L76.65,20.75L73.71,17.99C73.71,17.99,82.69,12.74,85.66,10.89Z" fill="currentColor"/><path d="M87.45,11.47C89.18,9.98,89.09,11.62,89.09,12.47C89.09,13.32,89,20.05,86.91,22.84C84.78,25.66,81.75,26.09,80.75,26.12L78.62,22.27L75.05,19.2L75.53,18.63C75.53,18.63,85.72,12.95,87.45,11.47Z" fill="currentColor"/><path d="M82.99,17.26C85.03,15.62,87.45,13.05,87.45,13.05C87.45,13.05,88,16.29,84.78,18.54C84.78,18.54,85.57,24.45,80.41,25.63L78.62,22.33L77.11,20.3C77.11,20.3,80.96,18.9,82.99,17.26Z" fill="currentColor"/><path d="M1.49,23.21C-0.85,17.11,0.24,13.2,0.39,12.04C0.55,10.86,1.7,10.65,2.73,11.35C3.73,12.04,8.28,14.77,10.22,15.87C12.16,16.96,16.71,19.35,16.71,19.35L10.22,29.21C10.22,29.21,3.82,29.3,1.49,23.21Z" fill="currentColor"/><path d="M3.43,24.21C1.64,20.72,0.94,14.62,1.15,13.74C1.4,12.89,2.34,12.5,3.09,13.05C3.88,13.59,7.34,15.87,9.13,16.87C10.92,17.9,15.29,20.08,15.29,20.08L10.31,27.88C10.31,27.88,5.25,27.73,3.43,24.21Z" fill="currentColor"/><path d="M7.25,18.54C5.46,17.11,3.03,14.38,3.03,14.38C3.03,14.38,2.49,18.66,5.85,20.36C5.85,20.36,4.22,26.03,10.92,27.42L13.26,22.02C13.26,22.02,9.04,19.96,7.25,18.54Z" fill="currentColor"/><path d="M51.54,81.21C61.91,80.36,77.53,79.51,83.39,63.31C83.54,62.88,83.66,62.43,83.78,62C83.96,61.15,84.27,58.27,84.24,57.39C84.12,52.9,83.84,42.8,83.6,40.41C83.3,37.28,83.51,26.54,75.89,18.96C68.28,11.35,52.2,10.8,46.08,10.86C41.28,10.89,39.25,10.59,28.85,12.53C18.47,14.5,11.16,20.72,9.28,29.06C7.4,37.4,7.25,57.73,7.25,57.73C7.25,57.79,7.25,57.82,7.25,57.88C7.25,57.88,5.88,70.53,21.78,76.14L21.75,76.14C37.64,81.78,41.04,82.05,51.54,81.21Z" fill="currentColor"/><path d="M21.78,76.14C37.67,81.78,41.07,82.05,51.57,81.21C61.73,80.39,76.96,78.14,83.05,62.79C82.93,60.31,82.81,57.54,82.81,55.91C82.81,53.33,81.57,37.55,80.87,31.94C80.17,26.33,76.2,20.3,69.71,16.56C63.22,12.8,48.62,12.53,44.65,12.44C40.53,12.35,27.66,12.8,20.05,17.84C12.44,22.84,10.83,30.58,9.89,35.4C8.95,40.25,9.1,58.21,9.1,58.21L8.61,61.73C8.61,61.73,8.71,60.58,8.61,61.52C9.22,65.8,11.5,72.5,21.78,76.14Z" fill="currentColor"/><path d="M83.02,62.79C82.9,60.31,82.78,57.54,82.78,55.91C82.78,55.12,82.66,53.15,82.48,50.6C76.2,77.05,61.82,80.3,43.71,80.84C39.98,80.96,36.64,80.66,33.64,79.99C40.5,81.84,44.35,81.81,51.54,81.21C61.7,80.39,76.93,78.14,83.02,62.79Z" fill="currentColor"/><path d="M21.78,76.14C24.81,77.23,27.39,78.11,29.67,78.81C16.29,73.83,11.01,60.21,9.22,43.41C8.98,50.17,9.07,58.15,9.07,58.15L8.61,61.73C8.61,61.73,8.71,60.58,8.61,61.52C9.22,65.8,11.5,72.5,21.78,76.14Z" fill="currentColor"/><path d="M69.65,16.56C72.71,18.32,59.51,14.77,45.14,15.11C28.7,15.5,29.85,15.75,19.99,17.81C27.6,12.8,40.47,12.35,44.59,12.44C48.56,12.53,63.19,12.83,69.65,16.56Z" fill="currentColor"/><path d="M53.9,16.78C55.69,16.44,58.24,15.65,58.24,15.65C58.24,15.65,50.2,16.56,45.26,16.56C39.65,16.56,36.37,15.53,33.79,15.71C33.79,15.71,34.25,16.08,36.58,16.99C38.19,17.6,40.22,19.08,45.83,19.08C49.96,19.08,51.72,17.2,53.9,16.78Z" fill="currentColor"/><path d="M64.46,41.62C56.06,41.62,52.17,34.79,52.17,27.88C52.17,20.96,57.3,16.56,64.46,16.56C71.65,16.56,77.72,22.18,77.47,29.09C77.11,39.19,72.41,41.62,64.46,41.62Z" fill="currentColor"/><path d="M64.67,40.38C58.21,40.53,52.99,35.31,52.99,29.09C52.99,21.24,58.21,17.81,64.67,17.81C71.13,17.81,76.74,22.87,76.74,29.09C76.74,35.86,72.19,40.19,64.67,40.38Z" fill="currentColor"/><path d="M64.7,35.77C60.67,35.77,58.24,32.79,58.24,29.09C58.24,25.39,61.58,23.03,64.7,23.03C67.83,23.06,71.07,25.09,71.07,29.21C71.07,32.91,68.74,35.77,64.7,35.77Z" fill="currentColor"/><path d="M27.42,42.65C17.9,42.65,14.74,37.34,14.74,30.18C14.74,23.03,20.38,17.29,27.85,16.96C37.16,16.56,41.31,21.81,40.92,29.67C40.4,40.13,35.64,42.65,27.42,42.65Z" fill="currentColor"/><path d="M28.03,41.65C21.26,41.65,15.77,38.98,15.77,29.73C15.77,22.51,21.26,18.23,28.03,17.81C35.61,17.35,40.28,22.57,40.28,29.73C40.28,36.31,38.65,41.65,28.03,41.65Z" fill="currentColor"/><path d="M28.21,36.25C24.18,36.25,21.75,33.28,21.75,29.58C21.75,25.88,25.09,23.54,28.21,23.54C31.36,23.51,34.58,25.54,34.58,29.7C34.58,33.4,32.24,36.25,28.21,36.25Z" fill="currentColor"/><path d="M53.57,29.67C54.36,30.85,61.21,41.13,61.21,43.11C61.21,45.08,61.12,46.87,57.15,47.17C53.17,47.47,37.55,47.63,35.67,47.17C33.79,46.72,31.85,45.84,33,43.11C34.19,40.38,40.98,29.46,42.53,27.42C44.11,25.39,44.98,24.94,47.08,24.75C50.66,24.48,52.78,28.52,53.57,29.67Z" fill="currentColor"/><path d="M60.12,44.77C61.21,42.41,53.11,29.03,53.57,29.7C53.72,29.91,54.05,30.43,54.54,31.15C56.63,34.37,61.21,41.53,61.21,43.14C61.21,45.08,61.12,46.9,57.15,47.2C53.17,47.5,37.55,47.66,35.67,47.2C33.79,46.75,31.85,45.87,33,43.14C33.79,41.29,37.16,35.7,39.71,31.67C40.95,29.73,33.12,42.5,33.76,44.71C34.37,46.75,45.32,46.14,46.96,46.14C49.23,46.14,59.36,46.38,60.12,44.77Z" fill="currentColor"/><path d="M53.42,40.07C53.42,43.96,51.78,44.68,50.44,42.95C49.11,41.26,49.9,31.73,49.9,31.73C50.6,31.64,53.42,36.19,53.42,40.07Z" fill="currentColor"/><path d="M43.89,43.2C42.16,43.74,40.92,43.5,40.62,41.8C40.28,40.07,42.07,33.19,44.35,31.73C44.89,31.37,45.59,42.65,43.89,43.2Z" fill="currentColor"/><path d="M19.11,45.71C21.72,46.17,39.49,47.44,45.2,47.35C50.9,47.26,59.09,46.9,65.73,45.62C72.38,44.38,76.53,42.74,77.44,43.14C78.38,43.53,79.32,44.87,79.63,47.35C79.93,49.84,79.26,59.43,76.11,64.67C72.68,70.38,69.22,72.89,67.77,74.2C66.31,75.5,56.85,80.3,52.14,80.75C49.35,81.02,39.01,80.66,36.13,80.11C33.25,79.57,26.3,77.84,22.3,73.96C18.32,70.04,14.32,64.73,13.23,60.52C12.13,56.3,12.22,48.32,12.59,47.08C13.04,45.87,13.2,45.87,13.8,45.32C14.62,44.59,17.14,45.38,19.11,45.71Z" fill="currentColor"/><path d="M27.82,74.29C32.76,76.9,36.64,77.63,43.41,77.6C51.75,77.6,58.94,76.29,62.82,72.32C67.61,67.46,65.07,54,68.07,52.3C70.98,50.66,76.5,62.46,75.5,65.61C72.29,70.62,69.13,72.92,67.77,74.14C66.31,75.44,56.85,80.23,52.14,80.69C49.35,80.96,39.01,80.6,36.13,80.05C33.25,79.51,26.3,77.78,22.3,73.89C19.69,71.35,17.08,68.19,15.29,65.13C14.98,59.67,19.75,49.6,24.66,51.08C26.85,51.75,24.69,72.65,27.82,74.29Z" fill="currentColor"/><path d="M45.2,47.35C50.9,47.26,59.09,46.9,65.73,45.62C67.25,45.35,68.65,45.02,69.89,44.74C68.46,48.44,57.45,50.72,45.8,50.72C31.79,50.69,24.45,49.2,21.54,45.99C27.27,46.53,40.47,47.41,45.2,47.35Z" fill="currentColor"/><path d="M58.24,58.27C58.97,61.25,58.03,66.86,47.47,67.01C36.92,67.16,34.97,62.09,36.16,59.27C37.34,56.45,41.86,54.27,44.14,55.76C46.41,57.24,43.68,60.31,43.68,61C43.68,61.7,44.5,63.64,46.99,63.58C49.47,63.49,50.75,62.13,50.72,61C50.6,59.06,46.02,58.42,49.05,55.15C50.14,53.94,57.54,55.3,58.24,58.27Z" fill="currentColor"/><path d="M76.35,73.2C76.35,73.2,83.87,69.59,83.57,59.06L82.75,55.12C82.75,55.12,83.51,66.04,76.35,73.2Z" fill="currentColor"/><path d="M21.75,76.14C21.75,76.14,8.95,72.92,8.13,60.46L9.01,57.42C9.01,57.42,8.13,71.13,21.75,76.14Z" fill="currentColor"/></svg>