<svg xmlns="http://www.w3.org/2000/svg" viewBox="0 0 90 90"><path d="M0,0L0,90L90,90L90,0Z" fill="white"/><path d="M18.78,60.39C18.48,59.31,18.45,58.56,18.51,58.11C18.36,58.2,18.18,58.29,18.03,58.32L18.03,58.38C18.03,58.38,17.88,58.38,17.67,58.38C16.71,58.32,14.1,58.44,12.63,61.02C10.74,64.2,13.59,70.29,13.59,70.29L14.67,71.43L17.73,74.58C19.08,74.25,20.31,73.77,20.49,73.02L20.49,72.99C20.94,71.16,19.35,62.37,18.78,60.39Z" fill="#F6DBDA"/><path d="M74.58,61.17L65.67,64.44L22.68,59.01L21.39,58.83C21.63,58.65,21.87,58.47,22.11,58.23C22.2,58.14,22.32,58.08,22.44,58.02L21.42,55.44L20.49,56.19C20.49,56.19,19.5,57.57,18.51,58.14C18.45,58.62,18.45,59.34,18.78,60.42C19.35,62.4,20.94,71.19,20.49,73.02C20.31,73.77,19.08,74.28,17.7,74.58L18.66,75.54L20.04,82.44C20.04,82.44,25.08,83.82,28.11,85.2C29.97,86.58,33.24,87.69,33.24,87.69C35.91,89.16,40.92,89.7,46.74,90.03C52.5,90.36,60.63,88.2,60.63,88.2C66.63,87.03,69.09,85.41,69.09,85.41L70.83,84.87C71.55,84.63,72.12,84.15,72.48,83.49L75.84,77.13L75.72,71.85L75.84,70.71L76.5,61.65L76.5,61.59C74.85,61.53,74.58,61.17,74.58,61.17Z" fill="#F6DBDA"/><path d="M75.81,70.65L75.69,71.79L76.08,71.7C76.2,72.15,76.38,72.57,76.5,72.63C76.77,72.75,79.56,72.75,79.56,72.75L79.95,71.94C78.75,71.19,77.76,70.68,77.7,70.65Z" fill="black"/><path d="M18.66,75.51L14.64,71.4L13.56,70.26C13.56,70.26,7.65,73.56,7.5,74.43C7.35,75.3,11.34,80.61,16.77,84.27C22.2,87.96,33.24,87.66,33.24,87.66C33.24,87.66,29.94,86.55,28.11,85.17C25.08,83.79,20.04,82.38,20.04,82.38L20.04,82.41Z" fill="black"/><path d="M21.42,55.41L22.44,57.99C27.3,55.83,65.7,64.41,65.7,64.41L74.61,61.14C74.61,61.14,74.88,61.5,76.53,61.56L78.18,55.41L78.72,56.19C80.01,49.77,80.28,40.35,80.13,35.91C79.92,29.82,75.09,26.25,70.05,23.79C65.43,21.54,47.67,20.58,42.93,21.09C36.42,21.78,27.45,23.91,21.87,27.96C16.32,32.07,15.78,36.27,15.48,43.35C15.21,50.1,17.82,57.54,18.09,58.26C19.17,57.99,20.55,56.1,20.55,56.1L20.49,56.16Z" fill="black"/><path d="M79.53,72.72C79.53,72.72,76.77,72.72,76.47,72.6C76.2,72.48,75.78,70.65,75.78,70.65L75.66,71.79L75.78,77.07L71.88,83.07L69.03,85.35C69.03,85.35,66.57,86.97,60.57,88.14C76.59,88.77,83.49,77.34,83.7,75.6C83.88,74.55,81.66,72.99,79.89,71.88L79.92,71.91Z" fill="black"/><path d="M22.14,58.2C21.87,58.44,21.66,58.62,21.42,58.8L22.71,58.95L22.83,58.89L22.47,57.99C22.47,57.99,22.23,58.11,22.14,58.2Z" fill="#F6DBDA"/><path d="M80.37,64.92C81.42,60.87,78.24,58.23,78.24,58.23L78.15,60.33C78.15,60.33,78.15,61.71,76.5,61.65L75.81,70.71L77.7,70.71L77.7,70.65C77.7,70.65,79.32,68.94,80.37,64.92Z" fill="#F6DBDA"/><path d="M29.1,9.99C28.5,6.39,28.74,4.77,29.1,4.62C29.52,4.47,39.12,12.84,39.12,12.84C39.15,12.84,45.84,0,47.52,0C49.17,0,54.6,11.64,54.6,11.64C54.6,11.64,63.27,3.48,64.41,4.29C65.52,5.1,64.23,18.9,62.94,22.5L49.11,21.48L48.51,21.48L32.34,24.18L32.37,24.18C32.37,24.18,29.67,13.59,29.1,9.99Z" fill="#B77C1D"/><path d="M30.99,7.92C31.32,7.56,38.43,16.32,39.54,16.02C40.65,15.72,46.47,3.36,47.1,3.3C47.73,3.24,53.07,14.55,54.42,14.85C55.77,15.15,61.62,7.05,62.19,7.5C62.73,7.95,60.63,21.75,60.63,21.75L47.76,22.08L33.69,23.01L33.72,22.98C33.72,22.98,30.69,8.25,30.99,7.92Z" fill="#EDA928"/><path d="M47.1,3.27C47.43,5.4,48.12,21.48,48.12,21.48L39.06,21.93C39.06,21.93,39.54,17.76,39.57,15.99C40.68,15.69,46.47,3.33,47.1,3.27Z" fill="#E8D22D"/><path d="M47.1,3.3C49.02,6.21,44.64,10.68,45.57,5.7C46.35,4.29,46.92,3.3,47.1,3.3Z" fill="white"/><path d="M34.29,47.7C37.32,50.97,43.26,56.76,46.38,57.09C49.53,57.42,50.28,55.44,49.23,53.22C49.23,53.22,54.87,56.28,57.39,57.24C59.91,58.2,62.52,58.14,62.52,58.14L69.3,59.73C69.3,59.73,71.16,60.57,71.82,60.63C72.45,60.69,74.34,60.48,74.34,60.48L74.61,61.23C74.61,61.23,73.92,72.27,73.53,74.49C73.14,76.71,71.16,82.86,66.42,84.6C61.23,86.49,56.34,87.75,48.18,87.84C39.15,87.93,27.09,85.11,24.96,79.2C23.13,74.16,20.73,61.86,20.61,60C20.49,58.14,20.49,56.22,20.49,56.22C20.49,56.22,23.61,47.97,23.91,46.8C24.21,45.63,25.32,39.81,25.38,38.46C25.44,37.08,25.53,36.15,25.83,36C26.1,35.79,26.4,36,26.4,36L26.4,35.97C26.91,36.96,31.26,44.43,34.29,47.7Z" fill="#F6CCCA"/><path d="M59.1,83.7C73.05,81.51,72.57,60.54,73.05,60.51C73.71,60.45,74.31,60.39,74.31,60.39L74.58,61.14C74.58,61.14,73.89,72.18,73.5,74.4C73.11,76.62,71.13,82.77,66.39,84.51C61.2,86.4,56.31,87.66,48.15,87.75C39.12,87.84,27.06,85.02,24.93,79.11C23.1,74.07,20.7,61.77,20.58,59.91C20.46,58.05,20.46,56.13,20.46,56.13C20.46,56.13,23.58,47.88,23.88,46.71C23.64,52.65,24.99,74.07,28.47,78.15L28.44,78.15C35.55,86.46,44.61,85.98,59.1,83.7Z" fill="#F6CCCA"/><path d="M76.5,61.59C76.5,61.59,76.23,64.8,76.14,66.21C76.02,67.59,75.81,70.32,75.81,70.32C75.81,70.32,78.54,69.24,78.99,65.76C79.41,62.22,78.84,61.86,77.91,60.42L77.91,60.39C77.91,60.39,77.19,62.04,76.5,61.59Z" fill="#F6CCCA"/><path d="M76.11,66.21C76.11,66.63,76.02,67.2,75.99,67.74C77.43,67.2,78.03,65.97,78.12,65.13C78.33,63.42,76.98,62.4,76.44,62.25C76.35,63.27,76.2,65.22,76.11,66.21Z" fill="#D47484"/><path d="M19.65,64.98C20.04,67.53,20.61,71.52,20.61,71.52C20.61,71.52,15,72.12,13.83,66.57C12.66,61.02,16.05,59.13,18.78,60.42L18.78,60.39C18.78,60.39,19.29,62.46,19.65,64.98Z" fill="#F6CCCA"/><path d="M19.68,65.01C19.92,66.63,20.25,68.82,20.43,70.2C18.24,70.02,16.47,69.15,15.75,66.09C15.24,63.87,17.1,62.43,19.2,62.31L19.2,62.34C19.35,63.09,19.53,64.02,19.68,65.01Z" fill="#D47484"/><path d="M78.15,60.27L78.24,58.17C78.39,57.54,78.54,56.88,78.69,56.19L78.15,55.41L76.5,61.56L76.5,61.59C78.15,61.65,78.15,60.27,78.15,60.27Z" fill="black"/><path d="M20.49,72.96C20.49,72.96,21.51,79.59,22.86,81.21C24.21,82.83,27.9,85.17,27.9,85.17C27.9,85.17,19.59,84.6,15.99,81.63C11.55,77.94,10.2,75.21,10.17,74.49C10.11,73.77,14.67,71.4,14.67,71.4C14.67,71.4,16.17,73.65,20.49,72.96Z" fill="#6C4D23"/><path d="M22.86,81.21C24.21,82.83,27.9,85.17,27.9,85.17C27.9,85.17,19.59,84.6,15.99,81.63C12.36,78.99,12.9,76.98,13.23,76.35C13.83,75.15,20.52,73.38,20.64,74.01L20.67,74.01C21.03,75.96,21.84,79.98,22.86,81.21Z" fill="#372614"/><path d="M81.48,75.66C81.54,76.77,77.64,83.22,69.09,85.38C69.09,85.38,73.89,82.38,74.7,77.67C75.48,72.99,75.66,71.82,75.66,71.82L75.69,71.79C75.69,71.79,81.42,74.55,81.48,75.66Z" fill="#6C4D23"/><path d="M69.09,85.41C69.09,85.41,73.89,82.41,74.7,77.7C74.79,77.1,74.79,75.99,75.36,75.99C77.73,75.99,79.92,78.93,77.7,80.91L77.7,80.88C75.69,82.68,72.81,84.45,69.09,85.41Z" fill="#372614"/><path d="M52.17,70.29C52.02,72.21,50.79,74.04,47.25,74.25C44.16,74.43,41.37,72.3,41.94,69.87C42.51,67.47,44.52,65.07,46.86,64.89C49.98,64.65,52.29,68.46,52.17,70.29Z" fill="#D47484"/><path d="M50.16,71.4C49.32,71.64,48.66,70.86,48.42,70.26C48.06,69.24,48.42,68.43,49.26,68.28C50.13,68.16,50.79,68.85,50.88,69.9C50.88,70.47,50.7,71.22,50.16,71.4Z" fill="white"/><path d="M51.21,72.39C51.72,71.67,51.84,71.25,51.42,71.07C51.09,70.95,48.69,73.08,47.13,73.05C45.72,73.05,44.43,72.63,43.71,72C42.99,71.37,42.39,70.47,41.97,70.77C41.58,71.1,41.88,74.37,46.89,74.28L46.92,74.28C49.23,74.28,50.85,72.9,51.21,72.39Z" fill="#8E3548"/><path d="M67.35,24.51C73.35,26.61,76.02,29.94,76.92,32.64C77.82,35.34,78.63,45.6,78.15,49.38C77.7,53.19,76.35,58.71,76.02,59.19C75.69,59.67,75.3,59.13,75.3,59.13C75.3,59.13,75.09,49.68,70.38,41.49C65.67,33.3,62.01,30.57,60.9,30.51C60.9,30.51,67.2,38.88,69.39,43.68C71.58,48.51,74.49,58.59,74.49,58.59C74.49,58.59,74.58,58.92,73.95,59.01C73.32,59.1,71.01,58.77,71.01,58.77C71.01,58.77,71.91,58.26,71.91,56.37C71.91,54.48,67.02,46.14,61.05,40.29C55.08,34.44,48.45,28.71,44.01,27.54C44.01,27.54,55.56,37.68,58.83,40.92C62.16,44.19,66.72,49.47,68.13,51.51C69.54,53.55,71.07,56.43,70.29,57.45C69.51,58.53,68.91,59.31,65.94,58.32C62.97,57.36,53.04,53.61,45.99,48.6C45.99,48.6,48.9,54.42,47.67,55.11C46.44,55.77,40.83,52.74,35.46,46.14C30.12,39.54,26.13,32.55,25.95,32.25C25.77,31.95,25.5,31.83,25.29,31.86C25.08,31.86,24.81,31.86,24.6,32.7C24.39,33.51,21.75,44.19,21.27,46.02C20.79,47.85,19.35,53.46,19.05,54.09C18.75,54.69,18.66,54.03,18.45,53.07C18.24,52.11,17.13,41.22,17.85,36.9C18.57,32.55,20.4,30.54,22.41,29.25C24.45,27.93,32.7,23.91,40.89,22.83L40.98,22.83C43.77,22.47,61.38,22.41,67.35,24.51Z" fill="#372614"/><path d="M58.86,40.98C62.19,44.25,66.75,49.53,68.16,51.57C69.57,53.61,71.1,56.49,70.32,57.51C68.7,57.93,67.14,55.56,65.22,54.21C62.64,52.41,43.26,31.65,43.68,31.17L43.68,31.2C46.98,32.28,55.35,37.68,58.86,40.98Z" fill="#6C4D23"/><path d="M67.35,24.51C73.35,26.61,75.9,30,76.92,32.64C78.09,35.67,78.69,42.87,78.15,49.38C77.85,53.19,76.35,58.71,76.02,59.19C75.69,59.67,75.3,59.13,75.3,59.13C75.3,59.13,79.68,39,73.32,32.34C66.84,25.5,47.52,24.75,36.27,23.73C37.83,23.34,39.39,23.04,40.98,22.83C43.77,22.47,61.38,22.41,67.35,24.51Z" fill="#6C4D23"/><path d="M42.21,41.52C45.42,46.41,48.39,53.16,47.61,53.82C46.83,54.48,40.02,45.03,38.16,42.3C36.3,39.57,31.59,32.67,31.59,32.67C31.59,32.67,38.97,36.66,42.21,41.52Z" fill="#6C4D23"/><path d="M75.72,71.43C76.41,71.61,77.7,70.65,77.7,70.65L75.81,70.65Z" fill="#F6DBDA"/><path d="M26.49,66.9C26.37,67.14,26.01,67.14,25.89,66.9L24.3,63.96C24.3,63.96,24.24,63.66,24.36,63.54C25.68,62.25,33.93,54.69,40.23,63.96C40.38,64.17,40.17,64.47,39.9,64.35L39.93,64.35C37.41,63.18,30.09,60.51,26.49,66.9Z" fill="black"/><path d="M67.83,66.9C67.95,67.14,68.31,67.14,68.43,66.9L70.02,63.96C70.02,63.96,70.08,63.66,69.96,63.54C68.64,62.25,60.39,54.69,54.09,63.96C53.94,64.17,54.15,64.47,54.42,64.35L54.39,64.35C56.91,63.18,64.23,60.51,67.83,66.9Z" fill="black"/></svg>