<svg xmlns="http://www.w3.org/2000/svg" viewBox="0 0 90 90"><path d="M0,0L0,90L90,90L90,0Z" fill="white"/><path d="M26.67,7.77L35.25,1.89L36.33,9.93L39.54,9.39L39.54,0L50.25,0.81L50.25,9.36L52.38,9.93L55.08,1.35L63.63,5.64L56.91,22.44L33.09,22.26Z" fill="#F7AD02"/><path d="M39.54,0L39.54,9.39L39,9.48L39,21.36L45.24,21.81L45.72,0.48Z" fill="#F7D702"/><path d="M33.09,22.2C33.09,22.2,46.23,17.37,56.82,22.2C62.43,32.37,70.59,46.17,70.59,46.17L57.78,53.67L24.03,51.78L22.92,42.57Z" fill="#EB98A0"/><path d="M7.8,67.17C7.41,67.8,7.41,68.61,7.8,69.24C9.21,71.28,13.02,75.93,21.06,80.37C31.77,86.25,34.44,87.87,42.48,89.49C50.52,91.11,55.35,88.41,55.35,88.41C55.35,88.41,63.93,85.2,69.27,80.91C74.64,76.62,81.6,68.04,81.6,68.04C81.6,68.04,84.81,65.4,81.6,61.35C78.39,57.3,72.93,48.66,72.93,48.66L53.19,51.78L19.77,48L18.36,50.34Z" fill="#0B0404"/><path d="M78.15,59.94C78.63,60.66,78.6,61.59,78.09,62.28C71.49,70.98,57.51,78.21,48.93,80.82C47.82,81.15,46.65,81.36,45.51,81.15C29.97,78.33,14.04,66.39,13.02,65.34C11.94,64.26,12.48,63.72,12.48,63.72L19.59,52.35L56.4,53.01L71.91,50.88L71.94,50.88Z" fill="#220B0B"/><path d="M20.25,59.7C21.27,61.74,24,67.74,35.79,69.87C47.58,72,56.16,70.41,60.45,68.25C64.74,66.12,70.62,61.83,70.62,58.62C70.62,55.41,70.62,53.79,69,52.2C67.38,50.61,20.28,53.82,20.28,53.82L20.25,53.82C20.25,53.82,19.17,57.57,20.25,59.7Z" fill="white"/><path d="M20.28,53.85C20.28,53.85,19.86,55.32,19.8,56.94C21.18,58.08,25.62,59.91,40.08,60.27C55.47,60.66,65.88,57.45,70.53,55.62C70.41,54.21,70.02,53.22,69.03,52.23L69,52.23C67.38,50.61,20.28,53.85,20.28,53.85Z" fill="#BFC9D9"/><path d="M20.25,59.7C21.27,61.74,24,67.74,35.79,69.87C47.58,72,56.16,70.41,60.45,68.25C64.74,66.12,70.62,61.83,70.62,58.62C70.62,55.41,70.62,53.79,69,52.2C67.38,50.61,20.28,53.82,20.28,53.82L20.25,53.82C20.25,53.82,19.17,57.57,20.25,59.7Z" fill="white"/><path d="M31.77,54.33L33,69.84L31.92,69.93L30.69,54.42Z" fill="#345D76"/><path d="M20.25,59.7C21.27,61.74,24,67.74,35.79,69.87C47.58,72,56.16,70.41,60.45,68.25C64.74,66.12,70.62,61.83,70.62,58.62C70.62,55.41,70.62,53.79,69,52.2C67.38,50.61,20.28,53.82,20.28,53.82L20.25,53.82C20.25,53.82,19.17,57.57,20.25,59.7Z" fill="white"/><path d="M46.62,54.9L47.34,71.49L46.26,71.52L45.54,54.93Z" fill="#345D76"/><path d="M20.25,59.7C21.27,61.74,24,67.74,35.79,69.87C47.58,72,56.16,70.41,60.45,68.25C64.74,66.12,70.62,61.83,70.62,58.62C70.62,55.41,70.62,53.79,69,52.2C67.38,50.61,20.28,53.82,20.28,53.82L20.25,53.82C20.25,53.82,19.17,57.57,20.25,59.7Z" fill="white"/><path d="M60.51,53.28L61.59,53.31L61.2,68.85L60.12,68.82Z" fill="#345D76"/><path d="M21.84,54.9C21.84,54.9,17.55,53.82,17.55,50.61C17.55,47.4,16.47,44.73,18.63,43.11C20.76,41.49,22.92,41.49,22.92,41.49C22.92,41.49,25.59,40.95,25.59,44.16C25.59,44.16,25.59,46.83,28.26,46.83L33.63,46.83L57.75,46.29L62.04,46.29C62.04,46.29,64.17,46.29,64.17,43.62C64.17,40.95,65.25,40.41,66.3,40.41L70.59,40.41C70.59,40.41,73.8,40.41,73.8,44.16L73.8,48.45C73.8,48.45,73.8,52.2,70.59,52.74C67.38,53.28,54.51,54.87,54.51,54.87C54.51,54.87,48.09,55.44,46.5,55.44C46.5,55.44,26.13,55.98,21.84,54.9Z" fill="#220B0B"/><path d="M63.12,51.15C57.24,52.23,27.75,51.69,22.98,51.15C19.44,50.76,18.78,45.75,18.69,43.11C16.56,44.73,17.61,47.4,17.61,50.61C17.61,53.82,21.9,54.9,21.9,54.9C26.19,55.98,46.56,55.44,46.56,55.44C48.18,55.44,54.6,54.9,54.6,54.9C54.6,54.9,67.47,53.28,70.68,52.77C73.89,52.23,73.89,48.48,73.89,48.48C73.89,48.48,73.89,48.39,73.89,48.15L73.83,48.15C71.28,49.77,67.92,50.28,63.12,51.15Z" fill="black" opacity="0.65"/><path d="M35.88,45.09C35.13,45.54,34.44,46.14,34.35,46.86C34.17,48.48,35.79,50.1,40.08,50.1C44.37,50.1,52.41,49.56,52.41,49.56C52.41,49.56,57.24,49.02,57.78,46.35C58.32,43.68,54.03,43.14,50.82,43.68C50.82,41.55,48.69,21.72,48.69,21.72L40.11,21.72L41.19,43.68L38.94,44.01C37.86,44.19,36.81,44.52,35.88,45.09Z" fill="url(#paint0_linear_119_7701)"/><path d="M43.29,3.24C43.29,1.62,42.56,0.3,41.67,0.3C40.78,0.3,40.05,1.62,40.05,3.24C40.05,4.86,40.78,6.18,41.67,6.18C42.56,6.18,43.29,4.86,43.29,3.24Z" fill="white"/><path d="M37.92,30.3C35.76,31.59,28.65,35.31,25.05,33.51C20.76,31.38,23.97,25.47,23.97,25.47C23.97,25.47,23.97,24.39,26.1,24.39C28.23,24.39,29.31,24.39,28.77,25.47L28.29,26.52C28.29,26.52,27.75,28.14,29.34,27.6C30.57,27.18,34.08,26.13,35.58,25.68C35.97,25.56,36.33,25.44,36.72,25.29C37.47,24.99,38.97,24.6,38.97,26.01L38.97,28.68L39,28.68C39,29.76,38.34,30.03,37.92,30.3Z" fill="black"/><path d="M49.89,25.23C49.65,26.67,49.47,29.49,51.84,30.27C55.05,31.35,63.09,34.02,64.71,31.89C66.33,29.76,65.79,25.47,65.25,24.39C64.71,23.31,62.25,22.98,61.08,23.16C59.91,23.34,59.91,23.34,59.91,24.93C59.91,26.52,58.8,26.16,58.29,26.01C57.03,25.59,52.71,24.84,50.88,24.51C50.4,24.42,49.98,24.75,49.89,25.23Z" fill="black"/><path d="M56.82,22.26C49.05,20.07,40.89,20.19,33.09,22.26C40.41,18.75,49.53,18.6,56.82,22.26Z" fill="#BF4B8E"/><path d="M63.24,39.27C63.24,39.27,59.31,26.37,53.67,40.41C53.67,40.41,59.85,35.91,63.24,39.27Z" fill="black"/><path d="M27.24,39.3C29.49,33.66,33.99,31.98,36.24,42.12C36.24,42.12,30.6,36.48,27.24,39.3Z" fill="black"/></svg>