<svg xmlns="http://www.w3.org/2000/svg" viewBox="0 0 90 90"><path d="M39.54,0.51C40.92,0.42,42.63,-0.18,42.75,1.32C42.84,2.79,43.38,6.81,43.56,8.64C43.74,10.47,43.56,12.33,43.56,12.33C43.56,12.33,44.94,1.53,45.09,0.96C45.21,0.36,45.15,0.06,45.96,0.06C46.77,0.06,49.29,-0.33,49.29,1.08C49.29,2.49,49.05,9.72,49.05,9.72C49.05,9.72,50.67,1.65,50.91,1.11C51.12,0.57,51,0.09,52.35,0.21C53.67,0.33,55.83,0.75,56.19,1.02C56.55,1.32,56.49,1.95,56.22,3.09C55.95,4.23,51.99,20.76,51.99,20.76L38.76,21C38.76,21,36.42,4.65,36.36,3.51C36.27,2.4,36.15,1.86,36.42,1.62L36.39,1.65C37.2,0.96,38.16,0.6,39.54,0.51Z" fill="#28150A"/><path d="M52.26,0.24C53.58,0.36,55.74,0.78,56.1,1.05C56.46,1.35,56.4,1.98,56.13,3.12C55.26,1.95,51.99,1.62,50.82,1.14C51.03,0.6,50.91,0.12,52.26,0.24Z" fill="#3B1E0D"/><path d="M45.9,0.06C46.71,0.06,49.23,-0.33,49.23,1.08C48.96,1.59,44.91,1.5,45.03,0.96C45.15,0.36,45.09,0.06,45.9,0.06Z" fill="#3B1E0D"/><path d="M39.54,0.51C40.92,0.42,42.63,-0.18,42.75,1.32C41.01,1.38,36.33,3.33,36.33,3.21C36.24,2.31,36.18,1.89,36.42,1.65L36.39,1.65C37.2,0.96,38.16,0.6,39.54,0.51Z" fill="#3B1E0D"/><path d="M11.46,54.27L8.07,62.1L7.32,63.75C5.55,66.81,4.26,69.99,3.84,71.25C3.42,72.51,4.14,74.04,5.25,74.73C6.33,75.42,8.13,74.79,9.39,73.44C10.62,72.06,13.26,65.07,13.26,65.07C13.26,65.07,14.13,62.01,13.92,61.68L13.92,61.65C13.71,61.35,11.46,54.27,11.46,54.27Z" fill="#C99114"/><path d="M15.18,50.52L12.93,59.94C12.93,59.94,11.76,59.43,10.44,59.79C9.15,60.12,8.07,62.07,8.07,62.07C8.07,62.07,4.65,60.21,4.98,55.74C5.28,51.27,6.9,49.32,8.82,48.21C10.71,47.13,12.99,47.58,13.71,47.55L13.74,47.52Z" fill="#C1763F"/><path d="M15.18,50.55L15.18,60.42L13.23,60.27C13.23,60.27,12.33,59.49,10.89,59.7C10.74,59.73,8.91,57.93,9.48,54.36C10.11,50.64,13.56,50.37,13.56,50.37Z" fill="#995424"/><path d="M11.73,60.66C13.83,61.32,12.69,64.65,11.67,66.81C10.65,68.97,8.49,72.51,7.41,72.99C6.33,73.47,5.16,73.29,5.25,71.88C5.31,70.44,6.06,68.37,6.99,66.39L6.99,66.36C7.65,64.98,9.63,60,11.73,60.66Z" fill="#F4BF35"/><path d="M6.39,72.12C6.78,72.24,7.32,71.7,7.53,70.89C7.74,70.08,7.59,69.36,7.2,69.24C6.78,69.12,6.27,69.66,6.06,70.47C5.85,71.28,6,72,6.39,72.12Z" fill="white"/><path d="M78.42,65.31L78.36,62.28C78.12,50.55,77.49,43.44,77.49,43.44C77.49,43.44,77.01,36.48,76.8,33.24C76.59,30,76.53,25.14,72.18,21.12C67.83,17.13,53.58,15.78,53.58,15.78L38.46,16.14C38.46,16.14,30.18,17.13,24.51,18.9C18.87,20.67,16.05,25.14,15.33,28.05C14.61,30.96,13.77,45.81,13.77,45.81L13.23,64.98C13.14,65.97,13.02,74.7,13.02,77.13C13.05,79.59,14.94,81.75,14.94,81.75L16.38,83.43C17.46,84.69,18.78,85.74,20.25,86.46C21.93,87.3,24.24,88.26,26.85,88.77C31.83,89.67,54.75,90.87,63.27,89.01C71.79,87.18,77.7,83.16,78.15,78.93C78.39,76.65,78.54,74.43,78.66,72.84C78.75,71.46,78.75,70.11,78.66,68.7L78.66,68.73Z" fill="#28150A"/><path d="M39.09,19.77C39.09,19.77,42.93,19.77,44.97,19.8C46.98,19.83,51.69,20.01,51.99,19.95C52.29,19.86,52.59,19.38,52.68,18.99C52.77,18.63,52.8,17.88,52.8,17.88C52.8,17.88,60.18,18.27,63.45,19.35C66.72,20.37,71.7,22.41,72.96,25.53C74.16,28.62,75.06,36.3,75.3,38.31C75.54,40.32,76.26,56.31,76.35,59.82C76.47,63.33,76.68,72.66,74.97,76.23C73.26,79.8,70.77,82.26,66.78,83.31C62.79,84.33,47.82,84.39,42.87,84.42C37.92,84.48,25.2,83.22,21.72,81.78C18.24,80.34,15.21,77.43,15.12,73.23C15,69.03,15.33,55.92,15.3,53.52C15.3,51.12,16.11,38.31,16.38,35.1C16.65,31.89,18.03,26.16,19.26,24.39C20.52,22.62,27.78,19.44,30.81,18.78C33.87,18.09,38.67,18.09,38.67,18.09L38.67,18.12Z" fill="#28150A"/><path d="M39.09,19.77C39.09,19.77,42.93,19.77,44.97,19.8C46.98,19.83,51.69,20.01,51.99,19.95C52.29,19.86,52.59,19.38,52.68,18.99C52.77,18.63,52.8,17.88,52.8,17.88C52.8,17.88,60.18,18.27,63.45,19.35C66.72,20.37,71.7,22.41,72.96,25.53C74.16,28.62,74.58,36.45,74.73,38.52C75.06,43.71,76.11,52.5,73.23,55.56C71.97,56.94,67.41,58.29,58.89,56.7C48.84,54.84,36.54,54.72,27.57,57.03C21.72,58.56,17.94,57.78,16.68,55.59C15.36,53.25,16.2,38.34,16.5,35.13C16.77,31.92,18.15,26.19,19.38,24.42C20.64,22.65,27.9,19.47,30.93,18.81C33.9,18.12,38.7,18.12,38.7,18.12L38.67,18.12Z" fill="#C1763F"/><path d="M39.09,19.77C39.09,19.77,42.93,19.77,44.97,19.8C46.98,19.83,51.69,20.01,51.99,19.95C52.29,19.86,52.59,19.38,52.68,18.99C52.77,18.63,52.8,17.88,52.8,17.88C52.8,17.88,60.18,18.27,63.45,19.35C66.72,20.37,71.7,22.41,72.96,25.53C73.53,26.97,60.99,21.39,48.48,21.09C33.72,20.73,18.69,25.38,19.35,24.42C20.61,22.65,27.87,19.47,30.9,18.81C33.9,18.15,38.7,18.15,38.7,18.15L38.67,18.12Z" fill="#DF935E"/><path d="M78.18,60.72C78.18,60.72,82.41,60.72,83.91,59.79C85.41,58.86,87.45,56.49,87.24,53.01C87,49.53,86.07,47.28,84.06,46.02C82.08,44.76,79.41,44.22,77.46,44.58L77.46,44.61Z" fill="#C1763F"/><path d="M78.03,57.93C78.03,57.93,83.04,57.63,83.04,52.95C83.07,47.61,77.58,47.07,77.58,47.07L77.55,47.1Z" fill="#995424"/><path d="M49.53,39.09C49.98,42.96,49.95,51.18,49.95,51.18C49.95,51.18,56.58,51.81,56.79,53.46C57.03,55.77,56.79,56.43,47.67,56.88C38.55,57.3,35.94,56.97,34.74,56.1C33.51,55.2,34.35,53.76,35.01,53.22C35.67,52.68,38.61,51.66,41.07,51.39C41.07,51.39,41.22,38.73,41.46,37.17C41.67,35.61,41.67,34.77,44.46,34.29L44.46,34.26C46.77,33.87,49.08,35.22,49.53,39.09Z" fill="url(#paint0_linear_119_7703)"/><path d="M67.74,27.54C70.38,28.71,71.49,29.97,72.42,31.02C73.32,32.07,73.68,33.36,73.71,34.38C73.74,35.4,72.39,37.59,71.37,37.59C70.35,37.59,66.87,36.18,65.01,36.3C63.15,36.39,59.13,37.23,57.33,37.95C55.5,38.7,52.86,39.6,51.69,37.08C50.52,34.56,50.31,32.67,50.49,31.53C50.61,30.36,51.81,28.86,54.69,28.26L54.69,28.23C56.73,27.84,65.25,26.43,67.74,27.54Z" fill="#28150A"/><path d="M59.1,28.53C61.53,28.32,65.34,28.41,67.32,29.25C69.3,30.09,71.7,31.56,72.12,32.7C72.54,33.84,72.15,36.24,71.31,36.21C70.47,36.18,66.78,34.83,63.81,35.28C60.84,35.67,56.61,36.87,55.65,37.35C54.69,37.86,53.19,37.98,52.8,36.63C52.38,35.34,51.3,32.49,52.2,30.6C52.62,29.7,56.64,28.77,59.1,28.53Z" fill="#28150A"/><path d="M41.01,31.65C40.86,33.84,40.71,37.14,40.26,37.71C39.84,38.25,39.09,39.84,36.42,38.97C33.75,38.1,29.46,36.93,27.03,37.2C24.6,37.47,21.12,38.7,20.25,38.94C19.38,39.18,18.54,38.85,18.3,37.89C18.06,36.96,17.1,33.57,17.64,32.64C18.21,31.71,20.67,29.55,23.04,28.86C25.41,28.17,31.05,27.33,33.57,27.75C36.06,28.11,36.51,28.26,38.55,28.68C39.6,28.92,41.16,29.49,41.01,31.65Z" fill="#28150A"/><path d="M32.73,28.8C37.11,29.28,39.72,29.94,39.72,30.78C39.72,31.62,39.36,35.28,39.06,36.24C38.79,37.23,38.19,37.95,36.6,37.68C34.98,37.41,30.42,35.37,26.58,35.91C22.74,36.45,21.33,37.02,20.88,37.29C20.43,37.56,19.5,37.8,19.32,36.81C19.14,35.88,18.9,33.87,19.29,32.97C19.71,32.1,20.97,31.44,21.72,31.02L21.72,30.99C23.61,29.97,28.35,28.32,32.73,28.8Z" fill="#28150A"/><path d="M60.96,63.18C62.94,64.44,63.69,65.16,63.87,67.59C64.08,70.02,64.17,76.23,62.19,78.24C60.21,80.25,55.98,80.31,54.09,79.98C52.17,79.65,47.79,78,45.39,73.53C45.39,73.53,42,79.2,37.59,80.28C33.18,81.36,29.34,82.89,27.06,79.08C25.77,76.92,25.77,74.88,25.8,72C25.83,68.37,27.39,66.87,27.39,66.87L31.17,64.14L34.77,61.89C34.77,61.89,38.25,60.15,45.18,60.27C47.79,60.33,58.98,61.92,60.96,63.18Z" fill="#C1763F"/><path d="M36.18,46.56C36.18,42.27,32.7,38.79,28.41,38.79C24.12,38.79,20.64,42.27,20.64,46.56C20.64,50.85,24.12,54.33,28.41,54.33C32.7,54.33,36.18,50.85,36.18,46.56Z" fill="white"/><path d="M70.35,46.56C70.35,42.27,66.87,38.79,62.58,38.79C58.29,38.79,54.81,42.27,54.81,46.56C54.81,50.85,58.29,54.33,62.58,54.33C66.87,54.33,70.35,50.85,70.35,46.56Z" fill="white"/><path d="M33.06,46.56C33.06,43.99,30.98,41.91,28.41,41.91C25.84,41.91,23.76,43.99,23.76,46.56C23.76,49.13,25.84,51.21,28.41,51.21C30.98,51.21,33.06,49.13,33.06,46.56Z" fill="#28150A"/><path d="M67.23,46.56C67.23,43.99,65.15,41.91,62.58,41.91C60.01,41.91,57.93,43.99,57.93,46.56C57.93,49.13,60.01,51.21,62.58,51.21C65.15,51.21,67.23,49.13,67.23,46.56Z" fill="#28150A"/></svg>