<svg xmlns="http://www.w3.org/2000/svg" viewBox="0 0 90 90"><path d="M85,13C85,8.58,81.42,5,77,5L13,5C8.58,5,5,8.58,5,13L5,85L85,85Z" fill="#81B64C"/><path d="M45,5L45,42L85,42L85,77L45,77L45,42L5,42L5,13C5,8.58,8.58,5,13,5Z" fill="#E7E6E5"/><path d="M60,25C57.79,25,56,26.79,56,29L65.18,42L73.32,42Z" fill="#45753C"/><path d="M65.18,42L85,70.05L85,56.91L73.32,42Z" fill="#BEBDB9"/><path d="M13,5L45,5L45,6.34L15.25,7.68C11.14,7.86,7.83,11.14,7.62,15.25L6.21,42L5,42L5,13C5,8.6,8.55,5.03,12.95,5C12.97,5,12.98,5,13,5Z" fill="#F8F8F8"/><path d="M45,5L45,6.34L75,5Z" fill="#B2E068"/><path d="M5,42L5,65L6.21,42Z" fill="#B2E068"/><path d="M56,25L56,25.25L90,62L90,45.77L60,21C57.79,21,56,22.79,56,25Z" fill="#F1F1F1"/><path d="M59.63,22.03L90,49.79L90,45.77L60,21Z" fill="white"/><path d="M85,77L90,86L0,86L5,77Z" fill="#E2B664"/><path d="M3,84L87,84L85,77L90,86L0,86L5,77Z" fill="#F9D983"/><path d="M90,86L90,88C90,89.1,89.1,90,88,90L2,90C0.9,90,0,89.1,0,88L0,86Z" fill="#6A4632"/></svg>