<svg xmlns="http://www.w3.org/2000/svg" viewBox="0 0 90 90"><path d="M68.65,50.06C70.55,52.87,71.13,58.42,71.51,62.3C71.76,64.72,72.03,67.8,72.2,69.75C73.57,68.54,75.03,66.64,76.74,62.24C76.63,59.66,76.38,56.38,76.19,53.99C76.21,54.21,76.21,54.46,76.24,54.71C73.22,53.55,72.69,48.25,72.75,46.27C72.75,46.32,72.78,46.37,72.78,46.4C72.31,44.59,71.92,42.06,71.87,40.46C71.81,38.29,71.87,33.2,71.51,31.88C71.32,31.11,70.88,30.34,70.3,29.71C70.33,29.85,71.1,32.6,68.87,35.71C66.59,38.87,62.19,39.61,59.49,39.77C56.8,39.94,53.14,38.92,50.67,36.67C48.19,34.44,48.08,30.04,48.08,30.04L48.08,33.01C48.33,33.26,48.58,33.62,48.55,34.11C48.47,35.07,48.8,41.15,48.8,41.15C48.8,41.15,51.1,40.55,52.67,40.79C54.21,41.04,55.95,42.94,56.47,45.3C56.66,45.96,56.74,46.54,56.72,47.06L56.72,47.09C59.16,46.95,66.89,47.42,68.65,50.06Z" fill="#EBA097"/><path d="M70.49,35.27C70.6,36.31,70.22,37.55,68.68,38.98C67.11,40.38,63.65,40.08,63.65,40.08L63.65,40.1C68.1,39.31,70.49,35.27,70.49,35.27Z" fill="#EBA097"/><path d="M72.22,50.06L73.3,45.49L81.25,46.29L77.5,50.67Z" fill="#EBA097"/><path d="M15.69,50.09L16.07,46.1L11.78,47.2L12.49,50.66Z" fill="#EBA097"/><path d="M86.22,43.35C86.25,46.46,85.07,49.13,83.17,50.31C81.38,51.46,77.45,50.69,77.45,50.69C77.45,50.69,77.31,47.72,77.12,45.03C77.2,46.05,77.26,47.12,77.31,48.05C80.45,47.94,82.98,46.43,82.7,42.17C82.48,38.84,78.8,38.56,76.54,39.36C76.35,37.74,76.21,36.42,76.21,36.42C76.21,36.42,82.04,33.86,84.05,36.45C86.5,39.61,86.22,41.12,86.22,43.35Z" fill="#EBA097"/><path d="M77.34,48.05C77.29,47.12,77.23,46.04,77.15,45.03C77.15,44.97,77.15,44.89,77.12,44.84C77.12,44.67,77.09,44.51,77.09,44.31C77.09,44.23,77.06,44.12,77.06,44.04C77.06,43.87,77.04,43.73,77.04,43.57C77.04,43.46,77.01,43.38,77.01,43.27C77.01,43.13,76.98,42.99,76.98,42.85C76.98,42.74,76.96,42.66,76.96,42.55C76.96,42.44,76.93,42.33,76.93,42.25C76.9,42.06,76.87,41.87,76.87,41.7C76.82,41.34,76.79,40.96,76.73,40.6C76.73,40.55,76.73,40.49,76.71,40.43C76.68,40.1,76.63,39.8,76.6,39.47C76.6,39.44,76.6,39.39,76.57,39.36C78.77,38.59,82.48,38.87,82.73,42.2L82.73,42.17C83,46.4,80.5,47.94,77.34,48.05Z" fill="#DB7E7C"/><path d="M15.69,37.71L16.51,51.33L38.7,54.74L74.51,51.55L75.66,42.47L71.92,23.19L34.25,24.35L18.82,23.19Z" fill="#EBA097"/><path d="M74.45,36.53C74.45,36.53,72.17,44.2,72.72,46.29C73.27,48.35,73.27,50.75,73.27,50.75L75.83,50.75L75.83,50.77Z" fill="#EBA097"/><path d="M14.14,44.81L16.51,42.44C16.51,42.44,16.73,43.32,17.23,46.43C17.69,49.54,15.33,50.75,15.33,50.75L14.14,50.75L14.14,50.77Z" fill="#EBA097"/><path d="M73.3,70.88L70,49.4L57.9,44.84L55.56,41.26L50.42,39.03L48.44,32.98L46.73,32.24L42.55,31.8L41.29,33.31L40.33,39L35.43,41.26L19.04,48.49L16.51,66.12L17.69,70.88L28.34,76.79L57.9,79.16L69.75,73.22Z" fill="#EBA097"/><path d="M69.75,74.4L69.75,72.03L72.22,69.81L72.39,71.79Z" fill="#EBA097"/><path d="M27.15,79.16L26.68,74.84L29.52,75.58L29.52,79.16L27.95,80.23Z" fill="#EBA097"/><path d="M63.84,77.97L62.66,74.4L60.29,76.79L61.47,80.34L62.05,80.23Z" fill="#EBA097"/><path d="M27.15,75.58L27.15,57.84L50.83,55.48L62.66,57.84L63.84,74.4L61.06,77.23L56.72,82.68L36.61,82.68L29.52,79.16L28.94,77.23Z" fill="#EBA097"/><path d="M20.06,74.4L18.88,70.88L17.78,69.81L17.61,71.79Z" fill="#EBA097"/><path d="M37.27,40.85C38.81,40.6,41.15,41.2,41.15,41.2C41.15,41.2,41.51,35.13,41.4,34.16C41.34,33.67,41.62,33.31,41.87,33.06L41.87,30.09C41.87,30.09,41.76,34.47,39.28,36.72C36.8,38.95,33.15,39.99,30.45,39.83C27.76,39.66,23.39,38.92,21.07,35.76C18.85,32.68,19.59,29.9,19.64,29.76C19.07,30.4,18.66,31.17,18.43,31.94C18.08,33.26,18.16,38.34,18.08,40.52C18.02,42.11,17.64,44.61,17.17,46.46C17.17,46.4,17.2,46.35,17.2,46.32C17.25,48.3,16.73,53.61,13.71,54.76C13.73,54.51,13.73,54.27,13.76,54.05C13.54,56.44,13.32,59.71,13.21,62.3C14.89,66.72,16.34,68.62,17.75,69.8C17.91,67.85,18.19,64.77,18.43,62.35C18.85,58.45,19.4,52.92,21.29,50.12C23.05,47.48,30.78,47.01,33.23,47.15C33.26,46.59,33.34,46.02,33.48,45.38L33.48,45.36C34,43.05,35.71,41.15,37.27,40.85Z" fill="#EBA097"/><path d="M19.51,35.29C19.51,35.29,21.9,39.31,26.36,40.13C26.36,40.13,22.92,40.43,21.32,39.03L21.32,39C19.78,37.6,19.4,36.34,19.51,35.29Z" fill="#EBA097"/><path d="M13.21,62.82L13.21,65.6C13.21,65.6,13.21,65.74,13.24,65.79L13.24,65.9C13.24,65.9,13.27,66.07,13.27,66.15C13.68,68.16,17.58,71.79,17.58,71.79L17.58,71.73C17.61,71.56,17.66,70.85,17.75,69.81C16.4,68.59,14.94,66.7,13.24,62.27C13.24,62.46,13.21,62.66,13.21,62.82Z" fill="#EBA097"/><path d="M17.23,46.43C17.2,46.48,17.2,46.57,17.17,46.62C17.09,46.9,17.03,47.12,16.95,47.34C16.92,47.39,16.92,47.42,16.89,47.48C16.81,47.69,16.73,47.89,16.68,48.08C15.99,49.59,14.14,50.8,14.14,50.8C14.14,50.83,14.12,50.89,14.12,50.94L14.12,51.02C14.12,51.02,14.12,51.1,14.09,51.16C14.09,51.22,14.09,51.24,14.06,51.3C14.06,51.35,14.06,51.41,14.04,51.46C14.04,51.57,14.01,51.68,14.01,51.82L14.01,51.96C14.01,51.96,13.98,52.15,13.98,52.26C13.98,52.31,13.98,52.37,13.95,52.42C13.93,52.62,13.93,52.84,13.9,53.06L13.9,53.2C13.9,53.2,13.87,53.36,13.87,53.44C13.87,53.58,13.84,53.74,13.84,53.91L13.84,54.02C13.81,54.24,13.81,54.49,13.79,54.73C16.81,53.55,17.31,48.25,17.25,46.27L17.25,46.29C17.25,46.29,17.23,46.4,17.23,46.43Z" fill="#EBA097"/><path d="M38.81,30.1C38.51,30.1,38.23,30.07,37.93,30.07C37.79,30.07,37.69,30.07,37.58,30.04C37.24,30.01,36.94,30.01,36.61,29.98L36.7,29.98C36.53,32.9,35.92,36.72,29.66,35.98C26.82,35.62,22.89,33.23,24.7,28.45C23.25,28.28,21.87,28.39,21.05,28.72C19.51,29.96,20.11,32.16,21.32,34.25C22.75,36.67,26.27,39.01,28.47,39.01C38.7,39.01,39.97,33.97,40.6,30.12L39.2,30.12L39.2,30.1Z" fill="#EBA097"/><path d="M36.7,29.98L36.34,29.98C35.92,29.96,35.54,29.93,35.16,29.9L35.1,29.9C35.1,29.9,34.96,29.9,34.91,29.87C34.6,29.85,34.3,29.82,34.03,29.82C33.92,29.82,33.78,29.79,33.67,29.79C33.56,29.79,33.48,29.77,33.37,29.77C33.2,29.77,33.07,29.74,32.9,29.71C32.76,29.71,32.63,29.68,32.49,29.68C32.35,29.68,32.21,29.66,32.1,29.66C31.99,29.66,31.91,29.63,31.8,29.63C31.69,29.63,31.55,29.6,31.44,29.6C31.22,29.57,31,29.54,30.81,29.52C30.73,29.52,30.64,29.49,30.54,29.49L30.45,29.49C30.12,29.41,29.82,29.38,29.55,29.35C29.49,29.35,29.46,29.35,29.41,29.32C29.32,29.32,29.24,29.3,29.16,29.3C29.02,29.27,28.89,29.24,28.75,29.21C28.66,29.19,28.56,29.19,28.47,29.16L28.39,29.16C28.39,29.16,28.28,29.13,28.23,29.13C28.14,29.13,28.09,29.11,28,29.11C27.95,29.11,27.87,29.08,27.79,29.05C27.68,29.05,27.59,29.02,27.51,29.02C27.46,29.02,27.4,29,27.34,29C27.29,29,27.26,28.97,27.21,28.97C27.04,28.91,26.91,28.88,26.8,28.83C26.49,28.75,26.16,28.66,25.86,28.61C25.78,28.58,25.67,28.58,25.59,28.55C25.36,28.53,25.15,28.47,24.93,28.45C24.87,28.45,24.82,28.45,24.76,28.42C22.95,33.23,26.85,35.62,29.71,35.98L29.66,35.98C35.92,36.72,36.53,32.93,36.7,29.98Z" fill="#EBA097"/><path d="M69.39,57.18C68.62,52.62,67.94,51.3,65.27,49.9C63.15,48.77,56.08,48.82,56.08,48.82C53.22,48.41,36.67,48.82,34,48.82C34,48.82,26.93,48.8,24.82,49.9C22.15,51.3,21.46,52.59,20.69,57.18C19.92,61.78,18.38,73.33,18.19,75.91C18.02,78.5,18.21,81.63,20.2,81.88C23.96,80.83,25.78,79.6,26.44,77.2C27.68,72.72,24.95,61.86,29.16,57.7C31.64,55.26,39.36,54.57,45.08,54.43C50.8,54.6,58.53,55.26,61.01,57.7C65.21,61.86,62.52,72.75,63.73,77.2C64.39,79.57,66.18,80.81,69.97,81.88C71.87,81.6,72.09,78.52,71.92,75.91L71.89,75.91C71.73,73.33,70.16,61.75,69.39,57.18Z" fill="#FFC200"/><path d="M60.92,57.73C58.78,55.61,52.62,54.82,47.26,54.54C47.26,54.54,45.8,54.43,45,54.46C44.2,54.43,42.75,54.54,42.75,54.54C37.41,54.82,31.28,55.59,29.08,57.73C24.87,61.88,27.57,72.77,26.36,77.23C25.7,79.6,23.91,80.83,20.11,81.91C22.07,82.15,26.74,80.86,27.34,78.71C27.95,76.57,27.79,64.36,28.2,62.3C28.64,60.23,30.73,58.15,34.36,57.76C36.23,57.57,40.96,57.43,45,57.35C49.04,57.46,53.77,57.59,55.64,57.76C59.22,58.12,61.36,60.21,61.8,62.3C62.24,64.39,62.05,76.57,62.66,78.71C63.26,80.86,67.94,82.15,69.89,81.91C66.12,80.86,64.31,79.62,63.65,77.23C62.41,72.75,65.13,61.88,60.92,57.73Z" fill="#CE8F11"/><path d="M51.19,30.1C51.49,30.1,51.77,30.07,52.07,30.07C52.21,30.07,52.31,30.07,52.42,30.04C52.76,30.01,53.06,30.01,53.39,29.98L53.3,29.98C53.47,32.9,54.08,36.72,60.34,35.98C63.18,35.62,67.11,33.23,65.3,28.45C66.75,28.28,68.13,28.39,68.95,28.72C70.49,29.96,69.89,32.16,68.68,34.25C67.25,36.67,63.73,39.01,61.53,39.01C51.3,39.01,50.03,33.97,49.4,30.12L50.8,30.12L50.8,30.1Z" fill="#EBA097"/><path d="M53.3,29.98L53.66,29.98C54.08,29.96,54.46,29.93,54.85,29.9L54.9,29.9C54.9,29.9,55.04,29.9,55.09,29.87C55.4,29.85,55.7,29.82,55.97,29.82C56.08,29.82,56.22,29.79,56.33,29.79C56.44,29.79,56.52,29.76,56.63,29.76C56.8,29.76,56.93,29.74,57.1,29.71C57.24,29.71,57.38,29.68,57.51,29.68C57.65,29.68,57.79,29.66,57.9,29.66C58.01,29.66,58.09,29.63,58.2,29.63C58.31,29.63,58.45,29.6,58.56,29.6C58.78,29.57,59,29.54,59.19,29.52C59.27,29.52,59.35,29.49,59.47,29.49L59.55,29.49C59.85,29.46,60.15,29.41,60.43,29.38C60.48,29.38,60.51,29.38,60.56,29.35C60.65,29.35,60.73,29.32,60.81,29.32C60.98,29.3,61.12,29.27,61.25,29.27C61.34,29.24,61.45,29.24,61.53,29.21L61.61,29.21C61.61,29.21,61.72,29.19,61.78,29.19C61.86,29.19,61.91,29.16,61.99,29.16C62.08,29.13,62.16,29.13,62.24,29.1C62.33,29.08,62.44,29.08,62.52,29.05C62.57,29.05,62.63,29.02,62.68,29.02C62.74,29.02,62.77,29,62.82,29C62.98,28.97,63.12,28.91,63.26,28.88C63.56,28.8,63.86,28.72,64.19,28.66C64.28,28.64,64.39,28.64,64.47,28.61C64.69,28.58,64.91,28.53,65.1,28.5C65.16,28.5,65.21,28.5,65.27,28.47C67.06,33.23,63.15,35.62,60.29,35.98L60.34,35.98C54.08,36.72,53.47,32.93,53.3,29.98Z" fill="#EBA097"/><path d="M60.48,62.24C60.04,60.95,58.58,59.85,56.74,59.49C55.56,59.27,50.25,59.11,45.03,59.05C39.77,59.13,34.49,59.27,33.31,59.49C31.47,59.85,29.98,60.95,29.57,62.24C29.13,63.53,29.13,71.56,29.13,75.14C29.13,75.99,29.08,76.71,28.97,77.34C28.97,77.31,28.97,77.28,29,77.23C30.04,78.11,31.42,79.62,34.03,79.87C36.04,80.09,39.42,80.17,42.8,80.2L47.34,80.2C50.75,80.17,54.1,80.09,56.11,79.87C58.67,79.59,60.07,78.11,61.14,77.23C61.14,77.26,61.14,77.28,61.17,77.34C61.06,76.71,61.01,75.96,61.01,75.14L60.92,75.14C60.92,71.62,60.92,63.56,60.48,62.24Z" fill="#EBA097"/><path d="M40,67.11C39.31,67.11,37.66,65.98,38.76,64.52C39.83,63.07,42.85,62.85,44.97,62.6C45.8,62.49,45.41,62.52,46.16,62.6C48.25,62.85,50.28,63.07,51.38,64.52C52.4,65.98,50.77,67.11,50.09,67.11L50.06,67.11Z" fill="#EBA097"/><path d="M61.97,80.12C61.94,80.09,61.91,80.03,61.88,79.98C61.86,79.95,61.86,79.93,61.83,79.9C61.8,79.81,61.75,79.73,61.69,79.62C61.66,79.6,61.66,79.57,61.64,79.51C61.58,79.37,61.53,79.21,61.45,79.02C61.42,78.96,61.42,78.91,61.39,78.85C61.34,78.71,61.31,78.55,61.25,78.38C61.22,78.3,61.2,78.22,61.2,78.14C61.17,77.97,61.12,77.78,61.09,77.62C61.06,77.5,61.06,77.42,61.03,77.31C61.03,77.29,61.03,77.26,61.01,77.2C59.96,78.08,58.58,79.6,55.97,79.84C53.53,80.09,49.04,80.17,44.92,80.17C40.79,80.17,36.34,80.09,33.86,79.84C31.3,79.57,29.9,78.08,28.83,77.2C28.83,77.23,28.83,77.26,28.8,77.31C28.78,77.42,28.78,77.5,28.75,77.62C28.72,77.81,28.66,77.97,28.64,78.14C28.61,78.22,28.61,78.3,28.58,78.38C28.53,78.55,28.5,78.71,28.45,78.85C28.42,78.91,28.42,78.96,28.39,79.02C28.34,79.21,28.25,79.37,28.2,79.51C28.31,79.57,28.31,79.6,28.28,79.65C28.22,79.76,28.2,79.84,28.14,79.93C28.12,79.95,28.12,79.98,28.09,80.01C28.06,80.06,28.03,80.12,28,80.14C28,80.17,27.98,80.17,27.98,80.2C27.95,80.23,27.95,80.26,27.95,80.26C27.95,80.26,29.77,82.24,30.67,83.01C31.61,83.78,33.97,84.9,35.98,85.07C36.89,85.15,40.9,85.15,44.97,85.15C49.04,85.18,53.06,85.15,53.96,85.07C55.94,84.9,58.34,83.78,59.27,83.01C60.21,82.24,61.99,80.26,61.99,80.26C61.99,80.26,62.02,80.23,61.99,80.17C61.99,80.17,61.97,80.14,61.97,80.12Z" fill="#EBA097"/><path d="M46.13,62.13C45.74,62.08,45.33,62.08,44.92,62.08C44.51,62.08,44.09,62.08,43.71,62.13C41.62,62.38,38.62,63.26,37.55,64.72C36.47,66.18,38.1,67.3,38.78,67.3L51.02,67.3C51.71,67.3,53.33,66.18,52.26,64.72L52.29,64.72C51.22,63.26,48.22,62.41,46.13,62.13Z" fill="#EBA097"/><path d="M3.75,43.35C3.72,46.46,4.91,49.13,6.8,50.31C8.59,51.46,12.52,50.69,12.52,50.69C12.52,50.69,12.66,47.72,12.85,45.03C12.77,46.05,12.71,47.12,12.66,48.05C9.53,47.94,7,46.43,7.27,42.17C7.49,38.84,11.18,38.56,13.43,39.36C13.62,37.74,13.76,36.42,13.76,36.42C13.76,36.42,7.93,33.86,5.95,36.45C3.48,39.58,3.78,41.1,3.75,43.35Z" fill="#EBA097"/><path d="M12.63,48.05C12.69,47.12,12.74,46.04,12.82,45.03C12.82,44.97,12.82,44.89,12.85,44.84C12.85,44.67,12.88,44.51,12.88,44.31C12.88,44.23,12.91,44.12,12.91,44.04C12.91,43.87,12.94,43.73,12.94,43.57C12.94,43.46,12.96,43.38,12.96,43.27C12.96,43.13,12.99,42.99,12.99,42.85C12.99,42.74,13.02,42.66,13.02,42.55C13.02,42.44,13.04,42.33,13.04,42.25C13.07,42.06,13.1,41.87,13.1,41.7C13.15,41.34,13.18,40.96,13.24,40.6C13.24,40.55,13.24,40.49,13.27,40.43C13.29,40.1,13.35,39.8,13.38,39.47C13.38,39.44,13.38,39.39,13.4,39.36C11.2,38.59,7.49,38.87,7.24,42.2L7.24,42.17C6.97,46.4,9.47,47.94,12.63,48.05Z" fill="#DB7E7C"/><path d="M42.36,32.76L42.36,42.85C42.36,42.85,38.51,41.65,36.31,43.13C34.82,44.12,34.19,45.55,34.22,46.7C37.99,48.55,45.27,48.08,46.02,48.08C46.43,48.08,46.84,48.05,47.25,48.05L47.25,29.9C46.35,29.93,45.27,29.98,44.31,30.01L44.17,30.01C43.57,30.04,42.94,30.07,42.28,30.07L41.87,30.07C41.87,30.07,41.87,31.36,41.87,33.07L41.87,33.09C42.11,32.87,42.36,32.76,42.36,32.76Z" fill="#EBA097"/><path d="M46.16,48.99C45.99,48.99,45.61,49.01,45,49.01C44.42,48.99,44.01,48.99,43.84,48.99C43.38,48.99,42.47,49.04,42.47,49.04C39.55,49.01,35.54,48.71,33.01,47.45C33.01,47.67,33.04,47.86,33.09,48.05C33.17,48.41,33.31,48.74,33.53,48.99C33.81,49.32,34.47,49.67,35.38,50C37.03,50.61,39.55,51.16,42.47,51.38C42.77,51.41,43.1,51.44,43.4,51.44C43.73,51.46,44.06,51.46,44.39,51.46L45.61,51.46C45.94,51.46,46.27,51.46,46.6,51.44C46.9,51.41,47.2,51.41,47.53,51.38C50.42,51.16,52.97,50.64,54.62,50C55.53,49.67,56.19,49.32,56.47,48.99C56.69,48.74,56.83,48.41,56.91,48.05C56.96,47.86,56.96,47.67,56.99,47.45C54.43,48.71,50.45,49.01,47.53,49.04C47.53,49.04,46.62,48.99,46.16,48.99Z" fill="#DC3F32"/><path d="M47.92,43.19C47.92,43.19,52.23,41.84,54.65,43.49C56.3,44.61,57.02,46.18,56.99,47.45C53.58,49.13,47.56,49.1,45,49.01C42.44,49.1,36.42,49.13,33.01,47.45C32.98,46.18,33.7,44.59,35.35,43.49C37.77,41.84,42.08,43.19,42.08,43.19L42.08,28.28L47.94,28.28L47.92,28.28Z" fill="url(#paint0_linear_119_7705)"/><path d="M76.79,62.82L76.79,65.6C76.79,65.6,76.79,65.74,76.76,65.79L76.76,65.9C76.76,65.9,76.73,66.07,76.73,66.15C76.32,68.16,72.42,71.79,72.42,71.79L72.42,71.73C72.39,71.56,72.34,70.85,72.25,69.81C73.6,68.59,75.06,66.7,76.76,62.27C76.76,62.46,76.79,62.66,76.79,62.82Z" fill="#EBA097"/><path d="M72.77,46.43C72.8,46.48,72.8,46.57,72.83,46.62C72.89,46.87,72.97,47.09,73.02,47.31C73.05,47.36,73.05,47.39,73.08,47.45C73.16,47.67,73.24,47.86,73.3,48.05C73.99,49.57,75.83,50.77,75.83,50.77C75.83,50.8,75.86,50.86,75.86,50.91L75.86,51C75.86,51,75.86,51.08,75.88,51.13C75.88,51.19,75.88,51.22,75.91,51.27C75.91,51.33,75.91,51.38,75.94,51.44C75.94,51.55,75.97,51.65,75.97,51.79L75.97,51.93C75.97,51.93,75.99,52.12,75.99,52.23C75.99,52.29,75.99,52.34,76.02,52.4C76.05,52.59,76.05,52.81,76.07,53.03L76.07,53.17C76.07,53.17,76.1,53.33,76.1,53.41C76.1,53.55,76.13,53.72,76.13,53.88L76.13,53.99C76.16,54.21,76.16,54.46,76.19,54.71C73.19,53.55,72.69,48.25,72.75,46.27L72.75,46.29C72.75,46.29,72.77,46.4,72.77,46.43Z" fill="#EBA097"/><path d="M21.32,39C22.86,40.41,26.36,40.1,26.36,40.1C21.9,39.31,19.51,35.27,19.51,35.27L19.51,35.29C19.4,36.34,19.78,37.58,21.32,39Z" fill="#EBA097"/><path d="M68.68,39C70.22,37.6,70.6,36.34,70.49,35.29C70.49,35.29,68.1,39.31,63.65,40.13L63.65,40.1C63.65,40.1,67.08,40.41,68.68,39Z" fill="#EBA097"/><path d="M40.6,30.1L36.7,29.98L37.13,28.25L40.74,28.8Z" fill="white"/><path d="M53.3,29.98L53.2,28.28L49.24,28.83L49.37,30.09Z" fill="white"/><path d="M20.63,20.83C25.06,21.6,35.68,21.27,37.46,20.25C39.28,19.23,38.59,15.55,38.59,15.55C38.59,15.55,38.15,17.03,34.16,18.74L34.19,18.77C31.58,19.89,20.63,20.83,20.63,20.83Z" fill="#FFC200"/><path d="M37.27,32.85C37.27,28.65,33.87,25.26,29.68,25.26C25.49,25.26,22.09,28.65,22.09,32.85C22.09,37.04,25.49,40.44,29.68,40.44C33.87,40.44,37.27,37.04,37.27,32.85Z" fill="white"/><path d="M67.63,32.85C67.63,28.65,64.23,25.26,60.04,25.26C55.85,25.26,52.45,28.65,52.45,32.85C52.45,37.04,55.85,40.44,60.04,40.44C64.23,40.44,67.63,37.04,67.63,32.85Z" fill="white"/><path d="M34.25,32.84C34.25,30.32,32.2,28.28,29.68,28.28C27.16,28.28,25.12,30.32,25.12,32.84C25.12,35.37,27.16,37.41,29.68,37.41C32.2,37.41,34.25,35.37,34.25,32.84Z" fill="#223E74"/><path d="M64.61,32.84C64.61,30.32,62.56,28.28,60.04,28.28C57.52,28.28,55.48,30.32,55.48,32.84C55.48,35.37,57.52,37.41,60.04,37.41C62.56,37.41,64.61,35.37,64.61,32.84Z" fill="#223E74"/><path d="M74.59,23.58C74.23,20.06,73.55,12.88,72.01,10.43C71.23,9.22,69.97,8.1,68.4,7.16C70.79,10.87,57.24,7.22,46.6,7.08L45.03,7.08C44.48,7.08,43.96,7.05,43.46,7.08C32.84,7.22,19.29,10.87,21.65,7.16C20.09,8.12,18.82,9.25,18.05,10.46C16.51,12.85,15.82,20.03,15.46,23.58C15.11,27.1,13.57,38.51,13.24,41.29C12.91,44.04,12.03,48.99,13.24,49.32C14.45,49.68,14.86,48.55,15.99,46.38C17.11,44.23,17.28,39.94,17.36,36.78C17.45,33.59,17.45,31.17,19.95,29.35C21.71,28.06,32.82,29.88,39.61,31C42.88,31.55,46.24,31.55,49.48,31C56.25,29.88,68.27,28.06,70.05,29.35C72.56,31.17,72.56,33.56,72.64,36.78C72.72,39.97,72.89,44.23,74.01,46.38C75.14,48.52,75.55,49.65,76.76,49.32C77.97,48.96,77.12,44.04,76.79,41.29L76.82,41.29C76.46,38.54,74.92,27.13,74.59,23.58Z" fill="#FFC200"/><path d="M20.61,20.83C20.61,20.83,31.52,19.89,34.16,18.77C38.12,17.03,38.59,15.58,38.59,15.58C38.59,15.58,39.28,19.26,37.46,20.28L37.44,20.25C35.62,21.27,25.01,21.6,20.61,20.83Z" fill="#FFC200"/><path d="M51.41,15.55C51.41,15.55,51.85,17.01,55.84,18.74C58.45,19.87,69.39,20.8,69.39,20.8C64.99,21.57,54.38,21.24,52.56,20.22L52.54,20.25C50.72,19.23,51.41,15.55,51.41,15.55Z" fill="#FFC200"/><path d="M18.82,27.73L18.82,13.24L28.23,5.95L63.98,5.95L71.21,13.24L71.21,27.73Z" fill="#FFC200"/><path d="M67.14,6.53C67,6.47,66.86,6.42,66.73,6.36C66.45,6.2,66.15,6.06,65.84,5.95C65.65,5.87,65.46,5.81,65.27,5.76C64.99,5.68,64.72,5.57,64.44,5.48C63.98,5.35,63.48,5.24,63.01,5.12C59.14,4.36,49.87,3.75,47.97,3.75L42,3.75C40.1,3.75,30.86,4.36,26.96,5.12C26.52,5.21,26.05,5.35,25.58,5.48C25.31,5.57,25.04,5.68,24.76,5.76C24.57,5.81,24.38,5.87,24.21,5.95C23.88,6.06,23.58,6.2,23.27,6.34C23.17,6.39,23.03,6.44,22.89,6.5C22.45,6.72,22.07,6.94,21.65,7.16C19.31,10.79,32.24,7.38,42.74,7.1L42.74,7.16C43.52,7.13,44.26,7.1,45,7.1C45.74,7.1,46.48,7.13,47.26,7.16L47.26,7.1C57.76,7.41,70.71,10.79,68.35,7.19L68.38,7.19C67.99,6.94,67.58,6.72,67.14,6.53Z" fill="#F7DF7E"/><path d="M69.36,20.83C64.94,21.6,54.32,21.27,52.53,20.25C50.72,19.23,51.41,15.55,51.41,15.55C51.41,15.55,51.85,17.03,55.83,18.74L55.81,18.77C58.42,19.89,69.36,20.83,69.36,20.83Z" fill="#FFC200"/><path d="M16.1,44.45C17.5,39.56,15.08,33.86,18.44,29.46C20.77,26.74,25.06,27.51,27.9,28.25C33.59,29.57,39.5,30.12,45.33,30.15C49.21,30.18,53.11,29.88,56.85,29.02C60.34,28.36,64.66,26.02,69.15,27.87C73.49,29.77,74.04,35.35,72.89,39.34C71.92,43.19,73.16,47.28,76.74,49.32C72.72,47.83,70.91,43.19,71.54,39.14C72.2,35.82,71.84,31.17,68.32,29.82C64.72,28.64,61.12,30.7,57.43,31.55C49.45,33.45,41.2,33.12,33.2,31.88C28.5,31.77,20.69,26.41,18.57,32.98C17.2,38.13,18.77,46.27,13.1,49.29L13.18,49.32C14.97,48.36,15.63,46.29,16.1,44.45Z" fill="#CE8F11"/><path d="M21.84,56.3C21.02,61.83,20.03,67.33,18.43,72.69C18.43,67.05,19.01,61.58,19.78,56.08C20.14,48.96,27.87,47.2,33.53,48.99L33.5,48.99C28.47,49.04,21.98,50.22,21.84,56.3Z" fill="#CE8F11"/><path d="M71.04,64.61C71.21,67.36,71.15,70.19,71.18,72.97C70.33,70.3,69.86,67.52,69.45,64.77C68.57,56.08,67.36,47.97,56.47,48.99C67.88,45.11,71.29,55.29,71.04,64.61Z" fill="#CE8F11"/></svg>