<svg xmlns="http://www.w3.org/2000/svg" viewBox="0 0 90 90"><path d="M0,0L0,90L90,90L90,0Z" fill="white"/><path d="M59.34,80.02L58.2,82.03L39.9,69.34L31.17,52.56L31.17,33.47L43.2,30.31L48.06,28.66L59.82,26.62L59.34,28.15Z" fill="#D6B28F"/><path d="M59.34,28.15L71.1,28.66L75.51,32.87L87.3,34.1L87.48,53.61L75.54,75.13L60.15,82.36L59.34,80.02Z" fill="#C52107"/><path d="M86.91,35.24L86.4,42.23L85.89,55.29L79.2,67.39L64.59,78.82L59.46,81.07L59.34,83.17L62.73,82.36L73.47,75.79L80.43,68.59L85.2,62.58L88.8,54.21L88.8,34.4L87.3,34.91Z" fill="#A7551B"/><path d="M59.4,83.62L52.92,80.56L39.75,70.99L32.55,60.21L30.36,51.72L30.36,38.24L31.68,33.86L33.48,35.24L32.55,39.83L32.94,51.72L34.95,60.21L41.22,70.24L59.4,82.06Z" fill="#FCA84A"/><path d="M33.15,35.24L35.19,33.71L45.69,32.65L48.12,30.28L49.32,29.08L57.69,29.08L68.46,29.08L70.83,30.28L73.26,32.14L84.99,34.1L86.91,35.24L87.6,34.82L86.34,32.14L74.46,30.28L72.03,27.85L63.81,26.8L51.66,26.8L46.68,28.15L45.48,31L35.94,31.6L31.17,33.17L32.28,34.31Z" fill="#FCDF89"/><path d="M83.43,67.14C87.21,62.49,89.37,57.27,89.61,51.33C89.82,46.31,89.85,41.3,90,36.32C90.03,35.54,89.88,34.79,89.58,34.16L87.33,34.97C87.78,35.72,88.02,36.56,87.99,37.55C87.84,42.23,87.81,46.91,87.63,51.57C87.42,57.12,85.41,62.01,81.9,66.36C75.99,73.57,68.76,78.94,60.15,82.39C60,82.45,59.79,82.48,59.58,82.48L59.4,82.48L59.49,84.41L59.64,84.41C59.82,84.41,60.06,84.38,60.21,84.31L60.18,84.28C69.42,80.56,77.13,74.86,83.43,67.14Z" fill="#A7551B"/><path d="M85.35,51.78C85.26,54.93,84.21,57.78,82.8,60.51C80.37,65.16,76.86,68.92,72.72,72.07C68.91,74.95,64.8,77.38,60.54,79.45C60.24,79.6,59.94,79.69,59.58,79.69C59.49,79.69,59.43,79.69,59.34,79.66L59.4,82.03L59.58,82.03C59.76,82.06,59.97,82,60.12,81.94C68.61,78.52,75.75,73.27,81.54,66.15C85.02,61.86,87,57.09,87.21,51.57C87.39,46.94,87.42,42.32,87.57,37.73C87.6,36.74,87.36,35.93,86.91,35.18L85.38,35.72C85.65,36.23,85.8,36.86,85.77,37.52L85.8,37.55C85.65,42.29,85.47,47.03,85.35,51.78Z" fill="#FCA84A"/><path d="M86.07,31.12C84.33,30.88,82.56,30.67,80.82,30.43C78.84,30.16,76.83,29.92,74.82,29.65C74.64,29.62,74.43,29.47,74.34,29.32C73.62,27.67,72.3,26.68,70.56,26.35C69.18,26.11,67.77,25.96,66.36,25.84C64.11,25.6,55.05,25.6,52.8,25.84C51.39,25.99,50.01,26.11,48.6,26.35C46.86,26.65,45.54,27.64,44.82,29.32C44.76,29.47,44.52,29.62,44.34,29.65C42.36,29.92,40.35,30.16,38.34,30.43C36.6,30.67,34.83,30.88,33.09,31.12C32.19,31.24,31.44,31.66,30.84,32.32C30.69,32.5,30.54,32.65,30.39,32.83L32.31,34.28C32.43,34.13,32.58,33.95,32.73,33.8C33.3,33.2,34.02,32.8,34.83,32.68C36.48,32.44,38.1,32.26,39.75,32.05C41.61,31.81,43.47,31.57,45.33,31.33C45.48,31.3,45.72,31.18,45.78,31.03C46.47,29.47,47.7,28.57,49.32,28.27C50.61,28.03,51.93,27.91,53.22,27.79C55.32,27.58,63.78,27.58,65.91,27.79C67.23,27.94,68.55,28.06,69.81,28.27C71.46,28.57,72.66,29.5,73.35,31.03C73.41,31.18,73.62,31.3,73.8,31.33C75.66,31.6,77.52,31.81,79.38,32.05C81.03,32.26,82.68,32.47,84.3,32.68C85.11,32.8,85.83,33.2,86.4,33.8C86.73,34.16,87.03,34.52,87.3,34.91L89.55,34.1C89.25,33.5,88.83,32.89,88.26,32.35L88.32,32.32C87.72,31.69,86.94,31.24,86.07,31.12Z" fill="#FCDF89"/><path d="M79.11,32.38C77.28,32.14,75.45,31.9,73.62,31.66C73.47,31.63,73.26,31.51,73.2,31.36C72.51,29.83,71.31,28.96,69.69,28.63C68.4,28.39,67.11,28.27,65.85,28.15C63.78,27.94,55.44,27.94,53.37,28.15C52.08,28.27,50.79,28.42,49.53,28.63C47.91,28.93,46.71,29.83,46.02,31.36C45.96,31.51,45.75,31.63,45.6,31.66C43.77,31.9,41.94,32.14,40.11,32.38C38.49,32.59,36.87,32.77,35.25,33.02C34.44,33.13,33.75,33.53,33.18,34.13C33.03,34.28,32.88,34.43,32.76,34.61L34.02,35.57C34.47,34.94,35.22,34.49,36.12,34.37C39.54,33.89,42.96,33.41,46.35,32.89C46.59,32.86,46.83,32.68,46.98,32.5C47.28,32.14,47.52,31.75,47.79,31.33C48.45,30.43,49.35,29.86,50.49,29.8C51.96,29.68,54.12,29.56,55.98,29.44C58.41,29.29,60.87,29.29,63.27,29.44C65.13,29.56,67.29,29.71,68.76,29.8C69.87,29.89,70.77,30.43,71.46,31.33C71.73,31.69,71.97,32.11,72.27,32.5C72.42,32.68,72.69,32.86,72.9,32.89C76.32,33.38,79.74,33.89,83.13,34.37C84.15,34.52,84.93,35.03,85.38,35.81L86.91,35.27C86.67,34.88,86.4,34.52,86.04,34.16C85.5,33.53,84.78,33.13,83.97,33.02C82.35,32.8,80.73,32.59,79.11,32.38Z" fill="#FCDF89"/><path d="M37.26,66.33C33.72,61.98,31.74,57.09,31.53,51.54C31.35,46.85,31.32,42.17,31.17,37.52C31.14,36.26,31.56,35.24,32.31,34.31L30.39,32.87C29.61,33.86,29.13,34.94,29.19,36.29C29.34,41.3,29.37,46.31,29.58,51.3C29.82,57.27,31.95,62.49,35.76,67.11C42.06,74.83,49.77,80.53,58.98,84.25L59.46,84.34L59.4,82.42C59.4,82.42,59.13,82.39,59.04,82.33L59.01,82.36C50.4,78.88,43.17,73.57,37.26,66.33Z" fill="#FCA84A"/><path d="M31.92,51.6C32.13,57.09,34.11,61.89,37.59,66.18C43.38,73.3,50.52,78.55,59.01,81.97C59.13,82,59.25,82.03,59.37,82.06L59.31,79.69C59.1,79.66,58.86,79.6,58.62,79.48C54.33,77.38,50.25,74.95,46.44,72.1C42.24,68.95,38.76,65.19,36.36,60.54C34.92,57.78,33.93,54.96,33.81,51.81C33.66,47.06,33.51,42.32,33.36,37.58C33.33,36.83,33.54,36.11,33.93,35.6L32.67,34.64C31.95,35.51,31.5,36.5,31.53,37.76L31.56,37.76C31.71,42.38,31.74,47,31.92,51.6Z" fill="#FCA84A"/><path d="M64.38,51.72C64.38,51.72,61.41,52.5,59.37,51.39C58.26,50.21,55.86,47.84,55.86,47.84L58.08,48.56L59.19,50.06C59.19,50.06,59.91,50.61,60.3,50.43C60.69,50.25,59.97,48.89,59.97,48.89L63.66,49.64L63.66,49.67Z" fill="#D87A18"/><path d="M55.86,47.81L58.11,48.59L57.33,47.45L56.07,47.27Z" fill="#FAF28D"/><path d="M63.66,49.67L64.41,51.71L64.59,51.35L64.02,49.31Z" fill="#521801"/><path d="M64.02,49.31L63.66,49.67L59.97,48.92L60.51,48.2C60.51,48.2,60.18,48.2,61.56,48.59C62.94,48.95,64.02,49.31,64.02,49.31Z" fill="#722C04"/><path d="M41.76,10.26C42.3,11.37,43.8,13.98,43.8,13.98L39.33,16.21L44.52,15.27L46.38,17.5L44.52,19L41.22,20.11L36.48,12.81L36.51,12.84C36.51,12.84,41.58,10.47,41.76,10.26Z" fill="#E60D03"/><path d="M36.51,12.87L35.94,11.97C35.94,11.97,36.45,11.4,36.51,11.01C36.81,11.4,37.11,11.76,37.11,11.76L37.11,11.79Z" fill="#271209"/><path d="M41.76,10.32L43.8,14.01L44.37,13.08L42.12,9.36Z" fill="#400000"/><path d="M45.09,14.37L44.55,15.33L39.36,16.23L41.34,15.24Z" fill="#70130C"/><path d="M46.95,16.59L45.09,14.37L44.55,15.33L46.41,17.55Z" fill="#400000"/><path d="M35.94,10.38L34.56,10.71L33.9,11.7L33.99,11.97C33.99,11.97,34.77,12.69,35.94,11.97C36.39,11.61,36.51,11.01,36.51,11.01Z" fill="#7C5544"/><path d="M37.11,11.76C36.75,12.48,36.51,12.84,36.51,12.84L41.76,10.26L42.12,9.33L42.12,9.36C42.12,9.36,38.4,11.4,37.11,11.76Z" fill="#ED251C"/><path d="M33.87,11.7L33.96,11.97L25.59,8.07L26.16,7.5L34.17,11.25Z" fill="#ED251C"/><path d="M30.6,15.69L25.59,8.07L33.96,11.97L39.03,19.66Z" fill="#E60D03"/><path d="M59.97,48.92L60.51,48.2C60.51,48.2,60.87,48.38,61.56,48.56" fill="none" stroke="#722C04" stroke-width="2" stroke-linecap="round" stroke-linejoin="round"/><path d="M41.22,20.17L59.88,48.77L59.97,48.95L60.51,48.17L41.94,19.75Z" fill="#271209"/><path d="M58.08,48.53L57.36,47.42L33.96,11.97C33.96,11.97,35.13,12.51,35.91,11.97C36.72,13.29,59.43,47.81,59.43,47.81L59.94,48.92C59.94,48.92,60.66,50.24,60.27,50.43C59.88,50.61,59.34,50.24,59.16,50.06L59.19,50.03Z" fill="#5B3A26"/><path d="M0,23.2L5.37,26.26L7.08,27.58L16.68,27.94L9.69,23.65Z" fill="#D90000"/><path d="M47.88,42.98L48.27,43.55L45.27,44.63L44.55,43.34Z" fill="#722C04"/><path d="M44.16,44.66L41.94,44.63L41.7,44.24L42.69,43.76Z" fill="#FAF28D"/><path d="M48.45,44.48L45.84,45.23L43.68,45.23L41.94,44.63L43.77,44.63L45.27,44.63L48.27,43.55Z" fill="#D87A18"/><path d="M9.63,23.68L10.74,22.75L44.55,43.34L45.27,44.63L44.16,44.66Z" fill="#5B3A26"/><path d="M10.74,22.75L11.52,23.2L11.52,22.18L10.56,21.82Z" fill="#271209"/><path d="M10.56,21.82L10.74,22.75L9.69,23.65L8.85,23.2L8.85,22.33L9.84,21.43Z" fill="#7C5544"/><path d="M14.46,19.39L14.28,18.28L11.52,22.18L11.52,23.2Z" fill="#ED251C"/><path d="M14.46,19.39L14.28,18.28L17.82,20.74L17.61,21.43Z" fill="#AB0000"/><path d="M18.87,22.54L21.24,23.65L21.36,22.75L18.87,21.43Z" fill="#AB0000"/><path d="M17.61,21.43L14.85,25.27L11.52,23.2L14.46,19.39Z" fill="#DA0000"/><path d="M18.87,22.54L14.85,25.27L16.05,23.62L18.87,21.43Z" fill="#F00000"/><path d="M20.4,25.54L19.29,26.62L18.33,27.37L14.85,25.27L18.87,22.54L21.24,23.65Z" fill="#DA0000"/><path d="M8.85,23.11L9.69,23.65L0,23.2L0,22.33L8.85,22.63Z" fill="#F00001"/><path d="M45.27,44.63L44.37,43.55L18.33,27.37L19.08,26.8L45.48,43.25Z" fill="#271209"/></svg>