<svg xmlns="http://www.w3.org/2000/svg" viewBox="0 0 90 90"><path d="M28.42,40.72L28.42,70.56L60.48,70.56L60.48,40.72Z" fill="#EB9333"/><path d="M45.03,57.39L29.54,57.39L45.03,42.56Z" fill="#FFD566"/><path d="M45.03,57.38L29.54,57.38L45.3,71.19Z" fill="#A87538"/><path d="M45,43.55L59.11,57.41L45.03,57.39Z" fill="#ECB859"/><path d="M45.03,57.38L45.3,71.19L59.11,57.41Z" fill="#EB9333"/><path d="M18.49,31.54L15.19,17.43L12.22,15.56L6.33,15.15L5.23,16.6L10.65,35.22Z" fill="#C17A33"/><path d="M71.68,30.74C71.68,30.74,82.29,30.79,82.29,30.74C82.29,30.68,84.52,15.67,84.52,15.67L83.66,15.15L75.22,15.67Z" fill="#C17A33"/><path d="M45.77,53.37C45.77,53.37,45.27,52.93,45,52.93C44.72,52.93,44.23,53.4,44.23,53.4L40.9,56.73C40.9,56.73,40.52,57.14,40.52,57.41C40.52,57.69,40.88,58.07,40.88,58.07L44.15,61.35C44.15,61.35,44.61,61.9,45.08,61.9C45.41,61.9,45.88,61.37,45.88,61.37L49.1,58.16C49.1,58.16,49.62,57.74,49.62,57.41C49.62,57.08,49.01,56.62,49.01,56.62Z" fill="#DF822A"/><path d="M12.22,53.62L44.94,44.98L78.08,53.62L80.61,40.64L34.22,31.54L8.56,42.29Z" fill="#C17A33"/><path d="M13.93,42.81C16.23,41.79,18.16,41.22,21.6,40.12C30.7,38.44,36.61,37.75,45.03,37.75C53.44,37.75,60.89,38.8,67.66,40.42C71.76,41.41,74.42,42.37,76.24,43.14C78.19,43.97,79.07,44.1,78.96,46.27C78.91,47.13,78.74,47.87,78.52,48.31L80.78,48.97C81.55,48.48,82.4,47.73,83.28,46.58C83.36,46.47,83.42,46.36,83.47,46.25C83.78,45.89,84.27,45.37,84.35,44.76C84.96,38.66,86.25,20.07,86.25,17.37L86.25,16.93C86.2,16.63,85.95,16.25,85.67,15.89C85.12,15.09,84.38,14.29,84.16,14.29C84.13,14.29,84.11,14.29,84.11,14.29C84.11,14.29,76.27,14.93,75.86,15.12C75.44,15.31,74.45,16.52,74.34,16.93C74.23,17.32,71.95,26.23,71.4,29.14C69.83,28.81,68.46,28.59,68.15,28.51C67.58,28.35,67.52,28.07,67.14,27.71C66.75,27.36,66.12,25.6,66.12,25.6C66.12,25.6,62.13,15.89,60.23,10.94C59.55,9.15,59.52,8.85,59.11,8.6C58.37,8.13,57.35,7.97,52.81,7.61C49.43,7.36,45,7.53,45,7.53C45,7.53,40.6,7.36,37.19,7.64C32.65,7.97,31.64,8.16,30.89,8.63C30.48,8.9,30.45,9.18,29.77,10.96C27.87,15.92,23.88,25.62,23.88,25.62C23.88,25.62,23.22,27.36,22.86,27.71C22.48,28.1,22.42,28.37,21.85,28.54C21.57,28.59,20.17,28.81,18.57,29.09C18.02,26.09,15.77,17.32,15.69,16.93C15.57,16.55,13.98,15.34,13.57,15.12C13.15,14.93,5.92,14.27,5.92,14.27C5.92,14.27,5.65,14.51,5.32,14.87C4.66,15.42,3.89,16.33,3.75,16.93C3.75,16.99,3.75,17.15,3.75,17.37C3.75,20.04,5.04,38.66,5.65,44.82C5.7,45.45,6.28,46,6.55,46.36C6.61,46.44,6.67,46.55,6.72,46.63C7.43,47.62,8.26,48.34,9.06,48.86L11.15,48.23C10.98,47.71,10.85,46.83,10.71,45.86C10.46,44.27,11.86,43.72,13.93,42.81Z" fill="#EB9333"/><path d="M75.44,17.35C75.61,17.1,76.07,16.52,76.32,16.3C77.17,16.16,80.5,15.86,83.64,15.59C83.44,16.57,83.2,17.98,82.98,18.86C82.13,22.49,80.86,25.84,80.17,27.46C79.48,29.06,79.02,30.6,78.61,30.74C78.28,30.88,76.3,30.38,74.15,29.83C73.63,29.69,73.08,29.56,72.53,29.45C72.91,27.74,73.93,23.45,75.44,17.48Z" fill="#EB9333"/><path d="M6.34,15.59C9.28,15.83,12.38,16.14,13.07,16.27C13.43,16.49,14.26,17.13,14.53,17.43C15.24,20.26,16.89,26.86,17.36,29.31C16.59,29.47,15.82,29.64,15.16,29.83C13.04,30.38,11.67,30.88,11.31,30.74C10.9,30.57,10.43,29.06,9.74,27.44C9.06,25.84,7.79,22.49,6.97,18.83L7,18.83C6.77,17.98,6.53,16.55,6.34,15.59Z" fill="#EB9333"/><path d="M67.55,72.15C61.42,71.11,54.46,70.12,45.3,70.12C37.79,70.12,30.53,70.78,22.48,72.15C12.28,73.91,11.15,78.45,11.12,80.32L11.12,80.79L11.45,81.12C11.92,81.58,12.36,81.97,12.77,82.27L13.02,82.44L13.21,82.49C13.65,82.6,14.45,82.66,15.33,82.66C16.45,82.66,17.28,82.55,17.69,82.46L18.05,82.38L18.3,82.08C18.3,82.08,18.46,81.86,18.57,81.78C18.66,81.7,18.74,81.61,18.79,81.5L19.21,80.87L18.88,80.24C18.13,78.83,18.66,78.59,18.98,78.4C20.09,77.79,26.49,74.82,45.33,74.79C63.12,74.82,69.53,77.54,71.07,78.4C71.4,78.59,71.89,78.83,71.18,80.24L70.82,80.98L71.26,81.53C71.26,81.53,71.43,81.72,71.51,81.83C71.59,81.92,71.68,82.03,71.76,82.11L72.01,82.41L72.36,82.49C72.77,82.58,73.6,82.69,74.73,82.69C75.61,82.69,76.38,82.63,76.84,82.52L77.12,82.41L77.29,82.3C77.67,82.03,78.11,81.56,78.61,80.84L78.83,80.54L78.83,80.1L78.8,80.1C78.71,77.35,76.68,73.72,67.55,72.15Z" fill="#1C9EC6"/><path d="M6.36,52.27C6.31,54.44,8.12,70.17,9.33,78.15C9.53,79.36,11.53,81.47,12.71,82.33C12.88,82.6,14.09,82.74,15.33,82.74C16.68,82.74,18.05,82.6,18.24,82.33C18.6,81.8,19.15,81.42,19.26,80.9C19.37,80.4,17.94,79.08,19.07,78.48C21.27,77.27,28.97,74.9,45.36,74.9C61.72,74.93,68.84,77.3,71.04,78.48C72.14,79.08,70.74,80.4,70.85,80.9C70.96,81.39,71.51,81.8,71.87,82.33C72.06,82.6,73.44,82.74,74.78,82.74C76.02,82.74,77.2,82.6,77.4,82.33C78.58,81.47,80.59,78.15,80.78,76.94C81.99,68.96,83.78,54.39,83.75,52.27L83.75,52C83.64,50.92,82.51,49.91,80.89,49.03L78.63,48.37C75.31,47.13,68.87,45.64,66.42,45.28C60.04,44.38,54.3,43.58,45.14,43.58C35.98,43.58,30.21,44.41,23.85,45.28C20.69,45.73,14.39,47.13,11.31,48.28L9.22,48.91C7.52,49.77,6.5,50.78,6.36,52Z" fill="#15BBFB"/><path d="M44.29,46.03C44.29,46.03,44.75,45.62,45,45.62C45.22,45.62,45.66,46,45.66,46L56.36,56.7C56.36,56.7,56.88,57.16,56.88,57.41C56.88,57.66,56.36,58.13,56.36,58.13L45.77,68.72C45.77,68.72,45.19,69.21,44.97,69.21C44.75,69.21,44.17,68.72,44.17,68.72L33.62,58.16C33.62,58.16,33.15,57.66,33.15,57.41C33.18,57.14,33.56,56.75,33.56,56.75Z" fill="#15BBFB"/><path d="M45.28,71.22C53.69,71.22,60.32,72.04,67.33,73.22C75.44,74.63,77.59,77.63,77.67,80.13C77.29,80.68,76.9,81.14,76.6,81.34L76.54,81.39C76.3,81.45,75.66,81.53,74.7,81.53C73.74,81.53,72.94,81.45,72.58,81.37C72.47,81.23,72.36,81.12,72.28,81.01C72.22,80.95,72.14,80.87,72.09,80.79C72.09,80.76,72.12,80.76,72.12,80.73C72.94,79.16,72.75,78.04,71.56,77.41C69.97,76.52,63.34,73.69,45.3,73.67C26.22,73.69,19.56,76.77,18.43,77.41C17.25,78.04,17.06,79.16,17.89,80.73C17.89,80.76,17.91,80.76,17.91,80.79C17.86,80.87,17.77,80.95,17.72,81.01C17.64,81.12,17.53,81.23,17.42,81.37C17.09,81.45,16.29,81.53,15.3,81.53C14.31,81.53,13.71,81.45,13.46,81.39L13.4,81.34C13.02,81.06,12.61,80.71,12.22,80.32C12.25,77.87,14.5,74.63,22.64,73.22C29.66,72.02,36.86,71.22,45.28,71.22Z" fill="#15BBFB"/></svg>