<svg xmlns="http://www.w3.org/2000/svg" viewBox="0 0 90 90"><path d="M13,10L45,10L45,90L13,90C8.58,90,5,86.42,5,82L5,18C5,13.58,8.58,10,13,10Z" fill="#543426"/><path d="M77,10L45,10L45,90L77,90C81.42,90,85,86.42,85,82L85,18C85,13.58,81.42,10,77,10Z" fill="#543426"/><path d="M5,18L5,48L45,48L45,86L77,86C81.42,86,85,82.42,85,78L85,48L45,48L45,10L13,10C8.58,10,5,13.58,5,18Z" fill="#9D6C3E"/><path d="M85,18L85,48L45,48L45,10L77,10C81.42,10,85,13.58,85,18Z" fill="#9D6C3E"/><path d="M5,48L5,78C5,82.42,8.58,86,13,86L45,86L45,48Z" fill="#9D6C3E"/><path d="M13,10L45,10L45,11.34L15.25,12.68C11.14,12.86,7.83,16.14,7.62,20.25L6.16,48L5,48L5,18C5,13.6,8.55,10.03,12.95,10C12.97,10,12.98,10,13,10Z" fill="#CA9350"/><path d="M45,10L45,11.34L75,10Z" fill="#CA9350"/><path d="M5,48L5,70L6.16,48Z" fill="#CA9350"/><path d="M82.71,76.13C82.39,80.08,79.22,83.2,75.27,83.46L45,85.5L45,86L77,86C81.42,86,85,82.42,85,78L85,48Z" fill="#CA9350"/><path d="M45,86L45,85.5L37.5,86Z" fill="#CA9350"/><path d="M15,18C13.9,18,13,18.9,13,20L13,76C13,77.1,13.9,78,15,78L75,78C76.1,78,77,77.1,77,76L77,20C77,18.9,76.1,18,75,18Z" fill="#F1F1F1"/><path d="M45,14L25,14L25,18.67L25.26,18.73C31.73,20.24,38.36,21,45,21Z" fill="#DAD8D6"/><path d="M65,18.67L65,14L45,14L45,21C51.64,21,58.27,20.24,64.74,18.73Z" fill="#DAD8D6"/><path d="M37.5,7.5L37.5,10L25,10L25,18L37.5,18L52.5,18L65,18L65,10L52.5,10L52.5,7.5C52.5,3.36,48.75,0,44.61,0C40.47,0,37.5,3.36,37.5,7.5Z" fill="#BEBDB9"/><path d="M47.5,7.5C47.5,6.12,46.38,5,45,5C43.62,5,42.5,6.12,42.5,7.5C42.5,8.88,43.62,10,45,10C46.38,10,47.5,8.88,47.5,7.5Z" fill="#BEBDB9"/><path d="M21,29L21,37L36.6,37L36.6,29Z" fill="#BEBDB9"/><path d="M21,45L21,53L36.6,53L36.6,45Z" fill="#BEBDB9"/><path d="M21,61L21,69L69,69L69,61Z" fill="#BEBDB9"/><path d="M45,29L45,53L69,53L69,29Z" fill="#45753C"/><path d="M45,29L45,41L57,41L57,29Z" fill="#81B64C"/><path d="M57,41L57,53L69,53L69,41Z" fill="#81B64C"/></svg>