<svg xmlns="http://www.w3.org/2000/svg" viewBox="0 0 90 90"><path d="M74.19,17.06L13.41,17.06C12.25,17.06,11.34,16.08,11.41,14.93L12.13,4.15C12.21,3.04,13.17,2.2,14.28,2.29L74.96,6.97C76.08,7.06,76.91,8.05,76.79,9.17L76.18,15.26C76.08,16.28,75.22,17.06,74.19,17.06Z" fill="currentColor"/><path d="M13.16,5.8L11.27,17.06L12.13,4.15C12.21,3.04,13.17,2.2,14.28,2.29L63.5,6.09L15.21,4.13C14.21,4.09,13.33,4.8,13.16,5.8Z" fill="currentColor"/><path d="M45,13.93C41.69,13.93,39,11.24,39,7.93L39,7C39,3.69,41.69,1,45,1C48.31,1,51,3.69,51,7L51,7.93C51,11.24,48.31,13.93,45,13.93Z" fill="currentColor"/><path d="M13,10C8.58,10,5,13.58,5,18L5,77C5,81.42,8.58,85,13,85L77,85C81.42,85,85,81.42,85,77L85,18C85,13.58,81.42,10,77,10Z" fill="currentColor"/><path d="M5,18C5,13.58,8.58,10,13,10L55,10L16.85,11.48C12.05,11.66,8.06,15.24,7.35,19.99L5,35.66Z" fill="currentColor"/><path d="M85,77C85,81.42,81.42,85,77,85L48,85L74.09,84C78.89,83.82,82.88,80.25,83.6,75.51L85,66.25Z" fill="currentColor"/><path d="M16,20C14.9,20,14,20.9,14,22L14,54C14,55.1,14.9,56,16,56L74,56C75.1,56,76,55.1,76,54L76,22C76,20.9,75.1,20,74,20Z" fill="currentColor"/><path d="M76,54C76,55.1,75.1,56,74,56L18,56L73.11,55.03C74.17,55.01,75.03,54.17,75.07,53.11L76,28Z" fill="currentColor"/><path d="M22.67,56L36,20L16,20C14.9,20,14,20.9,14,22L14,54C14,55.1,14.9,56,16,56Z" fill="currentColor"/><path d="M32.99,30L32.99,46C32.99,48.21,31.19,50,28.99,50L23,50C21.89,50,21,49.1,21,48C21,46.89,21.89,46,23,46L28.99,46L28.99,40L23,40C21.9,40,21,39.11,21,38C21,36.9,21.9,36,23,36L28.99,36L28.99,30L23,30C21.9,30,21,29.11,21,28C21,26.9,21.9,26,23,26L28.99,26C31.19,26,32.99,27.79,32.99,30Z" fill="currentColor"/><path d="M43,30L43,46C43,48.21,44.79,50,47,50L51,50C53.21,50,55,48.21,55,46L55,30C55,27.79,53.21,26,51,26L47,26C44.79,26,43,27.79,43,30Z" fill="currentColor"/><path d="M47,46L47,30L51,30L51,46Z" fill="currentColor"/><path d="M58,30L58,46C58,48.21,59.79,50,62,50L66,50C68.21,50,70,48.21,70,46L70,30C70,27.79,68.21,26,66,26L62,26C59.79,26,58,27.79,58,30Z" fill="currentColor"/><path d="M62,46L62,30L66,30L66,46Z" fill="currentColor"/><path d="M36,31L36,35L40,35L40,31Z" fill="currentColor"/><path d="M40,41L40,45L36,45L36,41Z" fill="currentColor"/><path d="M29,26L23,26C21.9,26,21,26.9,21,28C21,29.11,21.9,30,23,30L29,30L29,36L23,36C21.9,36,21,36.9,21,38C21,39.11,21.9,40,23,40L28.59,40L32.78,28.69C32.24,27.12,30.75,26,29,26Z" fill="currentColor"/><path d="M24.89,50L23,50C21.89,50,21,49.1,21,48C21,46.89,21.89,46,23,46L26.37,46Z" fill="currentColor"/><path d="M16,64C14.9,64,14,64.9,14,66L14,75C14,76.1,14.9,77,16,77L74,77C75.1,77,76,76.1,76,75L76,66C76,64.9,75.1,64,74,64Z" fill="currentColor"/><path d="M16,62C14.9,62,14,62.9,14,64L14,73C14,74.1,14.9,75,16,75L74,75C75.1,75,76,74.1,76,73L76,64C76,62.9,75.1,62,74,62Z" fill="currentColor"/><path d="M16,62L74,62C75.1,62,76,62.9,76,64L14,64C14,62.9,14.9,62,16,62Z" fill="currentColor"/><path d="M14,64L72,64L16.63,64.73C15.68,64.74,14.87,65.42,14.69,66.35L14,70Z" fill="currentColor"/><path d="M76,73C76,74.1,75.1,75,74,75L18,75L73.3,74.03C74.28,74.01,75.1,73.28,75.24,72.31L76,67Z" fill="currentColor"/><path d="M34,62L34,75L36,75L36,62Z" fill="currentColor"/><path d="M54,62L54,75L56,75L56,62Z" fill="currentColor"/><path d="M25.83,64.51L25.83,73.59L23.17,73.59L23.17,64.51Z" fill="currentColor"/><path d="M29.2,67.8L29.2,70.3L19.8,70.3L19.8,67.8Z" fill="currentColor"/><path d="M62.27,72.95L62.27,65.49L69.72,69.22Z" fill="currentColor"/><path d="M25.83,63.76L25.83,72.84L23.17,72.84L23.17,63.76Z" fill="currentColor"/><path d="M29.2,67.05L29.2,69.55L19.8,69.55L19.8,67.05Z" fill="currentColor"/><path d="M62.27,72.2L62.27,64.74L69.72,68.47Z" fill="currentColor"/><path d="M49.7,67.8L49.7,70.3L40.3,70.3L40.3,67.8Z" fill="currentColor"/><path d="M49.7,67.05L49.7,69.55L40.3,69.55L40.3,67.05Z" fill="currentColor"/></svg>