<svg xmlns="http://www.w3.org/2000/svg" viewBox="0 0 90 90"><path d="M13,7.5L77,7.5C81.42,7.5,85,11.08,85,15.5L85,79.5C85,83.92,81.42,87.5,77,87.5L13,87.5C8.58,87.5,5,83.92,5,79.5L5,15.5C5,11.08,8.58,7.5,13,7.5Z" fill="currentColor"/><path d="M13,5L77,5C81.42,5,85,8.58,85,13L85,77C85,81.42,81.42,85,77,85L13,85C8.58,85,5,81.42,5,77L5,13C5,8.58,8.58,5,13,5Z" fill="currentColor"/><path d="M5,55L5,13C5,8.58,8.58,5,13,5L55,5Z" fill="currentColor"/><path d="M5,13C5,8.58,8.58,5,13,5L55,5L16.86,6.5C12.05,6.68,8.06,10.27,7.36,15.03L5,31Z" fill="currentColor"/><path d="M85,55L85,77C85,81.42,81.42,85,77,85L55,85Z" fill="currentColor"/><path d="M85,77C85,81.42,81.42,85,77,85L60,85L73.54,83.85C78.16,83.46,81.91,79.94,82.59,75.35L85,59Z" fill="currentColor"/><path d="M14,12L76,12C77.1,12,78,12.9,78,14L78,76C78,77.1,77.1,78,76,78L14,78C12.9,78,12,77.1,12,76L12,14C12,12.9,12.9,12,14,12Z" fill="currentColor"/><path d="M60,15L15,60L15,15Z" fill="currentColor"/><path d="M25.71,70.18C25.71,71.28,26.61,72.18,27.71,72.18L62.29,72.18C63.39,72.18,64.29,71.28,64.29,70.18L64.29,68.96C64.29,64.71,60.99,62.54,54.64,62.54L35.28,62.54C28.93,62.54,25.71,64.71,25.71,68.96Z" fill="currentColor"/><path d="M65.01,27.74C62.84,27.74,60.99,29.75,60.99,31.92C60.99,32.3,61.04,32.66,61.14,32.99C61.42,33.91,61.54,34.96,60.96,35.72L57.96,39.65C56.84,41.12,54.5,40.41,54.38,38.56L53.86,30.67C53.8,29.75,54.41,28.96,55.16,28.43C56.19,27.7,56.65,26.61,56.65,25.09C56.65,22.68,54.8,20.75,52.39,20.75C49.98,20.75,48.13,22.84,48.13,25.09C48.13,26.04,48.38,26.89,48.86,27.61C49.34,28.31,49.65,29.16,49.38,29.96L46.88,37.54C46.28,39.36,43.7,39.37,43.09,37.55L40.55,29.96C40.28,29.16,40.59,28.3,41.05,27.59C41.5,26.87,41.71,26.03,41.71,25.09C41.71,22.68,39.94,20.75,37.53,20.75C35.12,20.75,33.27,22.68,33.27,25.09C33.27,26.61,33.74,27.71,34.77,28.44C35.51,28.97,36.12,29.75,36.07,30.66L35.6,38.56C35.49,40.41,33.14,41.13,32.02,39.66L28.98,35.72C28.39,34.96,28.5,33.9,28.73,32.96C28.81,32.64,28.85,32.29,28.85,31.92C28.85,29.59,27,27.74,24.91,27.74C22.66,27.74,20.89,29.67,20.89,31.84C20.89,33.51,21.87,34.98,23.34,35.67C24.02,35.98,24.66,36.47,24.89,37.18L31.77,57.95C32.04,58.77,32.81,59.32,33.67,59.32L56.33,59.32C57.19,59.32,57.96,58.77,58.23,57.94L65.03,37.19C65.26,36.47,65.9,35.98,66.59,35.66C68.11,34.93,69.11,33.33,69.11,31.84C69.11,29.99,67.5,27.74,65.01,27.74Z" fill="currentColor"/><path d="M25.71,70.04L64.29,70.04L64.29,66.82C64.29,62.56,60.99,60.39,54.64,60.39L35.28,60.39C28.93,60.39,25.71,62.56,25.71,66.82Z" fill="currentColor"/><path d="M65.01,25.6C62.84,25.6,60.99,27.61,60.99,29.78C60.99,30.74,61.31,31.54,61.96,32.27L54.72,41.75L53.76,26.96C55.77,26.32,56.65,25.04,56.65,22.95C56.65,20.54,54.8,18.61,52.39,18.61C49.98,18.61,48.13,20.7,48.13,22.95C48.13,24.39,48.7,25.6,49.82,26.48L45,41.11L40.1,26.48C41.22,25.6,41.71,24.39,41.71,22.95C41.71,20.54,39.94,18.61,37.53,18.61C35.12,18.61,33.27,20.54,33.27,22.95C33.27,25.04,34.15,26.32,36.16,26.96L35.28,41.75L27.96,32.27C28.61,31.54,28.85,30.74,28.85,29.78C28.85,27.45,27,25.6,24.91,25.6C22.66,25.6,20.89,27.53,20.89,29.7C20.89,31.79,22.42,33.55,24.51,33.88L32.22,57.18L57.78,57.18L65.41,33.88C67.58,33.55,69.11,31.54,69.11,29.7C69.11,27.85,67.5,25.6,65.01,25.6Z" fill="currentColor"/><path d="M25.71,70.02L25.71,66.82C25.71,62.56,28.93,60.39,35.28,60.39L39.72,60.39C35.3,63.94,30.62,67.16,25.71,70.02Z" fill="currentColor"/><path d="M65.09,31.98C59.13,41.43,51.86,49.9,43.56,57.18L32.22,57.18L24.51,33.88C22.42,33.55,20.89,31.79,20.89,29.7C20.89,27.53,22.66,25.6,24.91,25.6C27,25.6,28.85,27.45,28.85,29.78C28.85,30.74,28.61,31.54,27.96,32.27L35.28,41.75L36.16,26.96C34.15,26.32,33.27,25.04,33.27,22.95C33.27,20.54,35.12,18.61,37.53,18.61C39.94,18.61,41.71,20.54,41.71,22.95C41.71,24.39,41.22,25.6,40.1,26.48L45,41.11L49.82,26.48C48.7,25.6,48.13,24.39,48.13,22.95C48.13,20.7,49.98,18.61,52.39,18.61C54.8,18.61,56.65,20.54,56.65,22.95C56.65,25.04,55.77,26.32,53.76,26.96L54.72,41.75L61.96,32.27C61.31,31.54,60.99,30.74,60.99,29.78C60.99,27.61,62.84,25.6,65.01,25.6C66.35,25.6,67.43,26.25,68.15,27.14Z" fill="currentColor"/><path d="M25.71,66.82C25.71,62.56,28.93,60.39,35.28,60.39L54.64,60.39C60.99,60.39,64.29,62.56,64.29,66.82L64.29,67.82C64.29,63.56,60.99,61.39,54.64,61.39L35.28,61.39C28.93,61.39,25.71,63.56,25.71,67.82Z" fill="currentColor"/><path d="M69.11,29.7C69.11,29.86,69.09,30.03,69.07,30.2C68.82,28.47,67.28,26.6,65.01,26.6C63,26.6,61.27,28.31,61.02,30.28C61,30.12,60.99,29.95,60.99,29.78C60.99,27.61,62.84,25.6,65.01,25.6C67.5,25.6,69.11,27.85,69.11,29.7Z" fill="currentColor"/><path d="M54.72,41.75L53.82,27.94C53.8,27.95,53.78,27.96,53.76,27.96L54.72,42.75L61.96,33.27C61.81,33.11,61.68,32.94,61.57,32.77Z" fill="currentColor"/><path d="M20.89,29.7C20.89,27.53,22.66,25.6,24.91,25.6C27,25.6,28.85,27.45,28.85,29.78C28.85,29.96,28.84,30.13,28.82,30.3C28.59,28.2,26.85,26.6,24.91,26.6C22.83,26.6,21.17,28.24,20.92,30.2C20.9,30.04,20.89,29.87,20.89,29.7Z" fill="currentColor"/><path d="M27.96,33.27L35.28,42.75L36.16,27.96C36.14,27.96,36.12,27.95,36.1,27.95L35.28,41.75L28.34,32.76C28.24,32.93,28.11,33.1,27.96,33.27Z" fill="currentColor"/><path d="M56.63,23.49C56.42,21.3,54.65,19.61,52.39,19.61C50.15,19.61,48.39,21.42,48.16,23.48C48.14,23.31,48.13,23.13,48.13,22.95C48.13,20.7,49.98,18.61,52.39,18.61C54.8,18.61,56.65,20.54,56.65,22.95C56.65,23.14,56.64,23.32,56.63,23.49Z" fill="currentColor"/><path d="M49.56,27.26C49.65,27.34,49.73,27.41,49.82,27.48L45,42.11L40.1,27.48C40.19,27.41,40.28,27.34,40.36,27.26L45,41.11Z" fill="currentColor"/><path d="M41.68,23.48C41.47,21.29,39.78,19.61,37.53,19.61C35.27,19.61,33.5,21.3,33.29,23.49C33.27,23.32,33.27,23.14,33.27,22.95C33.27,20.54,35.12,18.61,37.53,18.61C39.94,18.61,41.71,20.54,41.71,22.95C41.71,23.13,41.7,23.3,41.68,23.48Z" fill="currentColor"/></svg>