<svg xmlns="http://www.w3.org/2000/svg" viewBox="0 0 90 90"><path d="M3.93,3C5.08,3,6,4.34,6,5.98L6,18.61C6,20.25,5.07,21.59,3.92,21.59L0,21.59L0,3Z" fill="currentColor"/><path d="M3.6,3C4.44,3,5.11,4.13,5.11,5.54L5.11,13.93C5.11,15.33,4.44,16.47,3.6,16.47L0,16.47L0,3Z" fill="currentColor"/><path d="M86.08,21.59C84.93,21.59,84,20.25,84,18.61L84,5.98C84,4.34,84.93,3,86.08,3L90,3L90,21.59Z" fill="currentColor"/><path d="M86.4,16.47C85.57,16.47,84.9,15.33,84.9,13.93L84.9,5.54C84.9,4.13,85.57,3,86.4,3L90,3L90,16.47Z" fill="currentColor"/><path d="M6,8L6,12L84,12L84,8Z" fill="currentColor"/><path d="M6,12L6,16L84,16L84,12Z" fill="currentColor"/><path d="M68.27,8C69.51,10.52,69.51,13.48,68.27,16L72.56,16L72.56,8Z" fill="currentColor"/><path d="M21.74,8C20.5,10.52,20.5,13.48,21.74,16L17.45,16L17.45,8Z" fill="currentColor"/><path d="M9,8L9,82.81C9,85.96,11.87,88.32,14.96,87.72L45,81.87L45,21.04L19,19.16L19,8C19,6.34,17.66,5,16,5L12,5C10.34,5,9,6.34,9,8Z" fill="currentColor"/><path d="M75.04,87.72C78.13,88.32,81,85.96,81,82.81L81,8C81,6.34,79.66,5,78,5L74,5C72.34,5,71,6.34,71,8L71,19.16L45,21.04L45,81.87Z" fill="currentColor"/><path d="M45.08,23.83L19,22L19,77.16L45.08,72.86L71,77.16L71,22Z" fill="currentColor"/><path d="M45,23.83L45,72.86L71,77.16L71,22Z" fill="currentColor"/><path d="M59,66L59,65.35C59,60.49,56.68,58.73,54.26,56.89C51.84,55.06,49.32,53.15,48.95,48L52.66,48C53.17,47.06,53.24,46.02,53.24,44.98L49.33,42.6C51.1,41.2,52.01,38.96,52.01,36.95C52.01,33.13,48.89,30.04,45.02,30C45.01,30,45.01,30,45,30L45,66Z" fill="currentColor"/><path d="M45.12,66L31,66L31,65.35C31,60.49,33.32,58.73,35.74,56.89C38.16,55.06,40.68,53.15,41.05,48L37.34,48C36.83,47.06,36.76,46.02,36.76,44.98L40.67,42.6C38.9,41.2,37.99,38.96,37.99,36.95C37.99,33.13,41.11,30.04,45.02,30C45.05,30,45.08,30,45.12,30Z" fill="currentColor"/><path d="M9,82.84C9,85.97,11.85,88.34,14.94,87.75L45,82.03L45,80.34L14.44,86.32C12.16,86.77,9.98,85.18,9.7,82.87L9,77Z" fill="currentColor"/><path d="M81,82.84C81,85.97,78.15,88.34,75.06,87.75L45,82.03L45,80.34L75.56,86.32C77.84,86.77,80.02,85.18,80.3,82.87L81,77Z" fill="currentColor"/><path d="M12,5L14.73,5C12.35,6.3,10.82,8.75,10.7,11.46L9,50.79L9,8C9,6.34,10.34,5,12,5Z" fill="currentColor"/><path d="M78,5L76.27,5C78.15,6.78,79.25,9.24,79.32,11.83L81,70.79L81,8C81,6.34,79.66,5,78,5Z" fill="currentColor"/></svg>