<svg xmlns="http://www.w3.org/2000/svg" viewBox="0 0 90 90"><path d="M13,7.5L77,7.5C81.42,7.5,85,11.08,85,15.5L85,79.5C85,83.92,81.42,87.5,77,87.5L13,87.5C8.58,87.5,5,83.92,5,79.5L5,15.5C5,11.08,8.58,7.5,13,7.5Z" fill="#3B0E0E"/><path d="M13,5L77,5C81.42,5,85,8.58,85,13L85,77C85,81.42,81.42,85,77,85L13,85C8.58,85,5,81.42,5,77L5,13C5,8.58,8.58,5,13,5Z" fill="#9B3232"/><path d="M5,55L5,13C5,8.58,8.58,5,13,5L55,5Z" fill="#B23838"/><path d="M5,13C5,8.58,8.58,5,13,5L55,5L16.86,6.5C12.05,6.68,8.06,10.27,7.36,15.03L5,31Z" fill="#C93F3F"/><path d="M85,55L85,77C85,81.42,81.42,85,77,85L55,85Z" fill="#B23838"/><path d="M85,77C85,81.42,81.42,85,77,85L60,85L73.54,83.85C78.16,83.46,81.91,79.94,82.59,75.35L85,59Z" fill="#C93F3F"/><path d="M14,12L76,12C77.1,12,78,12.9,78,14L78,76C78,77.1,77.1,78,76,78L14,78C12.9,78,12,77.1,12,76L12,14C12,12.9,12.9,12,14,12Z" fill="#7C2929"/><path d="M60,15L15,60L15,15Z" fill="#9B3232"/><path d="M70.62,33.23L70.63,33.23C70.68,33.27,70.69,33.36,70.66,33.48L63.77,56.85C63.57,57.51,62.96,57.96,62.27,57.96L28.42,57.96C27.73,57.96,27.12,57.51,26.93,56.85L20.02,33.48C19.99,33.36,20,33.28,20.04,33.25L20.02,33.23C21.69,31.6,24.4,31.6,26.07,33.23C27.39,34.54,27.66,36.48,26.88,38.04L34.1,42.94C34.33,43.1,34.62,43.05,34.77,42.81L40.62,33.3C38.98,32.89,37.78,31.45,37.78,29.72C37.78,27.68,39.46,26.03,41.55,26.03L41.57,26.03C41.55,25.92,41.55,25.8,41.55,25.69C41.55,23.65,43.23,22,45.32,22C47.4,22,49.08,23.65,49.08,25.69C49.08,25.8,49.08,25.92,49.06,26.03L49.08,26.03C51.17,26.03,52.85,27.68,52.85,29.72C52.85,31.43,51.67,32.86,50.06,33.28L55.91,42.81C56.06,43.04,56.36,43.1,56.58,42.94L63.7,38.1C62.9,36.52,63.18,34.54,64.52,33.23C66.2,31.57,68.94,31.57,70.62,33.23Z" fill="#3B0E0E"/><path d="M26.95,63.6L26.95,68.67C26.95,69.53,27.64,70.22,28.5,70.22L62.17,70.22C63.03,70.22,63.73,69.53,63.73,68.67L63.73,63.6C63.73,62.75,63.03,62.05,62.17,62.05L28.5,62.05C27.64,62.05,26.95,62.75,26.95,63.6Z" fill="#3B0E0E"/><path d="M28.5,60.05L62.17,60.05C63.03,60.05,63.73,60.75,63.73,61.6L63.73,66.67C63.73,67.53,63.03,68.22,62.17,68.22L28.5,68.22C27.64,68.22,26.95,67.53,26.95,66.67L26.95,61.6C26.95,60.75,27.64,60.05,28.5,60.05Z" fill="#BEBDB9"/><path d="M64.52,31.23C63.18,32.54,62.9,34.52,63.7,36.1L56.58,40.94C56.36,41.1,56.06,41.04,55.91,40.81L50.06,31.28C51.67,30.86,52.85,29.43,52.85,27.72C52.85,25.68,51.17,24.03,49.08,24.03C49.08,24.03,49.07,24.03,49.06,24.03C49.08,23.92,49.08,23.8,49.08,23.69C49.08,21.65,47.4,20,45.32,20C43.23,20,41.55,21.65,41.55,23.69C41.55,23.8,41.55,23.92,41.57,24.03C41.57,24.03,41.55,24.03,41.55,24.03C39.46,24.03,37.78,25.68,37.78,27.72C37.78,29.45,38.98,30.89,40.62,31.3L34.77,40.81C34.62,41.05,34.33,41.1,34.1,40.94L26.88,36.04C27.66,34.48,27.39,32.54,26.07,31.23C24.4,29.6,21.69,29.6,20.02,31.23L20.04,31.25C20,31.28,19.99,31.36,20.02,31.48L26.93,54.85C27.12,55.51,27.73,55.96,28.42,55.96L62.27,55.96C62.96,55.96,63.57,55.51,63.77,54.85L70.66,31.48C70.69,31.36,70.68,31.27,70.63,31.23L70.63,31.23C68.94,29.57,66.2,29.57,64.52,31.23Z" fill="#BEBDB9"/><path d="M63.73,66.67C63.73,67.53,63.03,68.22,62.17,68.22L28.58,68.22L61.59,67.44C62.35,67.42,62.99,66.85,63.1,66.1L63.73,61.68Z" fill="#DAD8D6"/><path d="M63.65,54.85C63.45,55.51,62.85,55.96,62.16,55.96L45.34,55.96L61.45,55.2C62.08,55.17,62.64,54.75,62.84,54.15L70.67,31.44Z" fill="#DAD8D6"/><path d="M28.04,68.01C27.39,67.67,26.95,67,26.95,66.22L26.95,62.05C26.95,60.94,27.84,60.05,28.95,60.05L39.15,60.05C35.61,62.92,31.9,65.57,28.04,68.01Z" fill="#DAD8D6"/><path d="M64.52,31.23C63.99,31.74,63.63,32.36,63.43,33.01C63.66,32.67,63.88,32.33,64.09,31.98L64.64,31.11C64.6,31.15,64.56,31.19,64.52,31.23Z" fill="#DAD8D6"/><path d="M43.92,55.96L28.42,55.96C27.73,55.96,27.12,55.51,26.93,54.85L20.02,31.48C19.99,31.36,20,31.28,20.04,31.25L20.02,31.23C21.69,29.6,24.4,29.6,26.07,31.23C27.39,32.54,27.66,34.48,26.88,36.04L34.1,40.94C34.33,41.1,34.62,41.05,34.77,40.81L40.62,31.3C38.98,30.89,37.78,29.45,37.78,27.72C37.78,25.68,39.46,24.03,41.55,24.03L41.57,24.03C41.55,23.92,41.55,23.8,41.55,23.69C41.55,21.65,43.23,20,45.32,20C47.4,20,49.08,21.65,49.08,23.69C49.08,23.8,49.08,23.92,49.06,24.03L49.08,24.03C51.17,24.03,52.85,25.68,52.85,27.72C52.85,29.43,51.67,30.86,50.06,31.28L55.91,40.81C56.06,41.04,56.36,41.1,56.58,40.94L59.15,39.19C54.62,45.29,49.52,50.9,43.92,55.96Z" fill="#DAD8D6"/><path d="M70.63,31.23L70.63,31.23C70.68,31.27,70.69,31.36,70.66,31.48L70.58,31.75C68.89,30.17,66.19,30.19,64.52,31.79C63.74,32.53,63.32,33.49,63.26,34.47C63.19,33.3,63.61,32.12,64.52,31.23C66.2,29.57,68.94,29.57,70.63,31.23Z" fill="#DAD8D6"/><path d="M56.58,40.94C56.36,41.1,56.06,41.04,55.91,40.81L50.35,31.76C50.26,31.79,50.16,31.82,50.06,31.84L55.91,41.15C56.06,41.38,56.36,41.43,56.58,41.28L63.7,36.55C63.64,36.44,63.59,36.32,63.54,36.21Z" fill="#DAD8D6"/><path d="M52.85,27.72C52.85,25.68,51.17,24.03,49.08,24.03L49.06,24.03C49.08,23.92,49.08,23.8,49.08,23.69C49.08,21.65,47.4,20,45.32,20C43.23,20,41.55,21.65,41.55,23.69C41.55,23.8,41.55,23.92,41.57,24.03L41.55,24.03C39.46,24.03,37.78,25.68,37.78,27.72C37.78,27.83,37.78,27.94,37.79,28.04C37.96,26.2,39.57,24.75,41.55,24.75L41.57,24.75C41.55,24.64,41.55,24.54,41.55,24.43C41.55,22.43,43.23,20.82,45.31,20.82C47.4,20.82,49.08,22.43,49.08,24.43C49.08,24.54,49.08,24.64,49.06,24.75L49.08,24.75C51.06,24.75,52.67,26.2,52.84,28.05C52.85,27.94,52.85,27.83,52.85,27.72Z" fill="#DAD8D6"/><path d="M34.77,40.81C34.62,41.05,34.33,41.1,34.1,40.94L27.03,36.15C26.99,36.27,26.94,36.38,26.88,36.5L34.1,41.28C34.33,41.44,34.62,41.39,34.77,41.16L40.62,31.86C40.52,31.83,40.42,31.8,40.32,31.77Z" fill="#DAD8D6"/><path d="M26.07,31.23C24.4,29.6,21.69,29.6,20.02,31.23L20.04,31.25C20,31.28,19.99,31.36,20.02,31.48L20.09,31.73C21.76,30.2,24.42,30.22,26.07,31.8C26.83,32.53,27.25,33.48,27.31,34.45C27.38,33.29,26.96,32.12,26.07,31.23Z" fill="#DAD8D6"/><path d="M28.42,55.96L62.27,55.96C62.28,55.96,62.29,55.96,62.3,55.96C62.29,55.96,62.29,55.96,62.28,55.96L28.41,55.96C28.41,55.96,28.4,55.96,28.39,55.96C28.4,55.96,28.41,55.96,28.42,55.96Z" fill="#DAD8D6"/><path d="M27.02,54.85C27.22,55.51,27.83,55.96,28.51,55.96L45.34,55.96L29.23,55.2C28.59,55.16,28.04,54.75,27.83,54.15L20,31.44Z" fill="white"/><path d="M26.95,61.6C26.95,60.75,27.64,60.05,28.5,60.05L62.09,60.05L29.08,60.84C28.32,60.85,27.69,61.42,27.58,62.17L26.95,66.59Z" fill="white"/><path d="M63.73,66.67C63.73,67.53,63.03,68.22,62.17,68.22L28.58,68.22L61.59,67.44C62.35,67.42,62.99,66.85,63.1,66.1L63.73,61.68Z" fill="#DAD8D6"/></svg>