<svg xmlns="http://www.w3.org/2000/svg" viewBox="0 0 90 90"><path d="M78.9,46.83C79.86,46.47,80.49,45.56,80.49,44.55L80.49,18.74L45.23,18.74L45.23,44.55C45.23,45.56,45.86,46.47,46.81,46.83C57.16,50.69,68.56,50.69,78.9,46.83Z" fill="#CA9350"/><path d="M50.96,37.06L76.38,37.06C77.74,37.06,78.94,36.21,79.38,34.93L80.69,31.13C81.64,28.38,79.6,25.52,76.69,25.52L50.65,25.52C47.74,25.52,45.7,28.38,46.65,31.13L47.96,34.93C48.4,36.21,49.6,37.06,50.96,37.06Z" fill="#E3C29C"/><path d="M44.5,54.63L52.16,52.21L55.59,50.58C57.01,49.91,58.56,49.57,60.12,49.57L63.55,49.57L66.98,49.57C68.55,49.57,70.1,49.91,71.51,50.58L74.94,52.21L82.61,54.63C87.01,56.02,90,60.11,90,64.72L90,69.71C90,72.63,87.63,75,84.71,75L42.4,75C39.48,75,37.11,72.63,37.11,69.71L37.11,64.72C37.11,60.11,40.1,56.02,44.5,54.63Z" fill="#4B4847"/><path d="M37.11,69.71L37.11,65.56L90,65.56L90,69.71C90,69.92,89.98,70.12,89.96,70.32L37.14,70.32C37.12,70.12,37.11,69.92,37.11,69.71Z" fill="#312E2B" opacity="0.5"/><path d="M89.24,60.8L37.86,60.8C38.63,58.88,39.94,57.22,41.64,56.04L85.47,56.04C87.17,57.22,88.48,58.88,89.24,60.8Z" fill="#312E2B" opacity="0.5"/><path d="M44.21,54.72L52.16,52.21L55.59,50.58C57.01,49.91,58.56,49.57,60.12,49.57L63.55,49.57L66.98,49.57C68.55,49.57,70.1,49.91,71.51,50.58L74.94,52.21L82.89,54.72C87.12,56.06,90,59.99,90,64.42L89.87,63.93C88.97,60.3,86.21,57.42,82.63,56.35L63.55,50.67L44.48,56.33C40.85,57.41,38.07,60.35,37.2,64.04L37.11,64.42C37.11,59.99,39.98,56.06,44.21,54.72Z" fill="#666564"/><path d="M57.32,61.49L49.01,54.9C49.17,52.88,50.72,51.25,52.73,50.99L62.18,49.75C63.09,49.63,64.02,49.63,64.93,49.75L74.38,50.99C76.39,51.25,77.94,52.88,78.1,54.9L69.79,61.49C67.25,63.49,65.78,66.55,65.78,69.78L65.78,75L61.33,75L61.33,69.78C61.33,66.55,59.85,63.49,57.32,61.49Z" fill="#4B4847"/><path d="M57.44,60.14L49.01,53.27L50.1,52.1C51.63,50.45,53.65,49.34,55.86,48.92L61.57,47.83C62.88,47.58,64.23,47.58,65.53,47.83L71.25,48.92C73.46,49.34,75.48,50.45,77.01,52.1L78.1,53.27L69.67,60.14C67.21,62.15,65.78,65.16,65.78,68.34L65.78,75L61.33,75L61.33,68.34C61.33,65.16,59.9,62.15,57.44,60.14Z" fill="#666564"/><path d="M58.06,57.41C62.7,61.12,63.55,64.37,63.55,64.37C63.55,64.37,64.4,61.12,69.02,57.41C70.42,56.29,71.36,54.65,71.36,52.86L71.36,38.77L55.73,38.77L55.73,52.86C55.73,54.66,56.66,56.3,58.06,57.41Z" fill="#4B4847" opacity="0.5"/><path d="M57.51,54.89C61.44,57.63,65.75,57.74,69.67,54.88C70.82,54.04,71.36,52.64,71.36,51.22L71.36,39.83L55.73,39.83L55.73,51.14C55.73,52.6,56.31,54.05,57.51,54.89Z" fill="#D5A47D"/><path d="M58.67,49.71C61.58,51.81,65.52,51.81,68.44,49.71C70.61,48.14,71.89,45.62,71.89,42.94L71.89,30.81L55.21,30.81L55.21,42.94C55.21,45.62,56.5,48.14,58.67,49.71Z" fill="#8D694B" opacity="0.5"/><path d="M55.11,44.87L57.61,47C59.14,48.29,61.08,49.01,63.08,49.01L64.02,49.01C66.03,49.01,67.97,48.29,69.5,47L72,44.87C74.28,42.94,75.63,40.14,75.73,37.15L76.55,11.77L50.56,11.77L51.38,37.15C51.47,40.14,52.83,42.94,55.11,44.87Z" fill="#E3C29C"/><path d="M52.87,9.75L54.71,9.45L59.26,7.06C64.81,4.14,71.59,4.93,76.33,9.06C82.21,14.18,83.27,22.93,78.77,29.31L77.45,31.17L77.03,45.25C77.02,45.8,76.56,46.24,76.01,46.24C75.44,46.24,74.98,45.77,74.99,45.19L75.4,31.54C75.49,28.59,73.12,26.15,70.16,26.15L62.28,26.15C60.02,26.15,57.81,25.49,55.92,24.25L51.94,21.65L50.55,34.54L45.23,18.74C45.23,14.28,48.46,10.47,52.87,9.75Z" fill="#CA9350"/><path d="M52.87,9.75L54.71,9.45L59.26,7.06C64.81,4.14,71.59,4.93,76.33,9.06C82.21,14.18,83.27,22.93,78.77,29.31L77.45,31.17L78.66,29.07C82.28,22.76,80.73,14.74,75.01,10.23C70.46,6.64,64.21,6.07,59.08,8.77L54.71,11.07L52.7,11.28C48.75,11.68,45.63,14.8,45.23,18.74C45.23,14.28,48.46,10.47,52.87,9.75Z" fill="#E2B664"/><path d="M7.11,63.72L10.21,62.64C13.5,61.5,16.67,60.04,19.66,58.27L21.55,57.16C23.16,56.21,24.99,55.71,26.86,55.71L29.25,55.71L31.64,55.71C33.51,55.71,35.34,56.21,36.95,57.16L38.84,58.27C41.83,60.04,45,61.5,48.29,62.64L51.39,63.72C55.6,65.18,58.42,69.14,58.42,73.59L58.42,79.78C58.42,82.66,56.08,85,53.19,85L5.31,85C2.42,85,0.08,82.66,0.08,79.78L0.08,73.59C0.08,69.14,2.9,65.18,7.11,63.72Z" fill="#008CD1"/><path d="M15.68,63.23C15.25,61.59,15.94,59.86,17.39,58.97L22.94,55.55C23.34,55.3,23.8,55.17,24.27,55.17L29.25,55.17L34.23,55.17C34.7,55.17,35.16,55.3,35.56,55.55L41.11,58.97C42.56,59.86,43.25,61.59,42.83,63.23C42.64,63.93,42.22,64.54,41.63,64.96L35.06,69.59C31.57,72.04,26.93,72.04,23.44,69.59L16.87,64.96C16.28,64.54,15.86,63.93,15.68,63.23Z" fill="#0B548C" opacity="0.5"/><path d="M49.17,64.08C54.1,65.36,57.75,69.5,58.42,74.56L58.42,73.59C58.42,69.14,55.6,65.17,51.39,63.72L48.29,62.64C46.25,61.94,44.26,61.11,42.33,60.16C42.77,60.83,42.99,61.64,42.95,62.46Z" fill="#4DC3EA"/><path d="M10.21,62.64L7.11,63.72C2.9,65.17,0.08,69.14,0.08,73.59L0.08,74.56C0.75,69.5,4.4,65.36,9.33,64.08L15.55,62.46C15.51,61.64,15.73,60.83,16.17,60.16C14.24,61.11,12.25,61.94,10.21,62.64Z" fill="#4DC3EA"/><path d="M25.98,69.46L25.98,85L23.91,85L23.91,69.46Z" fill="#4DC3EA"/><path d="M34.28,69.46L34.28,85L32.21,85L32.21,69.46Z" fill="#4DC3EA"/><path d="M18.29,64.52C15.99,60.81,17.15,55.94,20.87,53.66L22.19,52.85C22.49,52.67,22.83,52.57,23.18,52.57L29.25,52.57L35.32,52.57C35.67,52.57,36.01,52.67,36.31,52.85L37.63,53.66C41.35,55.94,42.51,60.81,40.21,64.52C39.97,64.91,39.67,65.26,39.33,65.56L34.78,69.6C31.62,72.4,26.87,72.4,23.72,69.6L19.17,65.56C18.83,65.26,18.53,64.91,18.29,64.52Z" fill="#4DC3EA"/><path d="M21.15,53.39L22.24,52.79C22.51,52.65,22.8,52.57,23.1,52.57L29.25,52.57L35.4,52.57C35.7,52.57,35.99,52.65,36.25,52.79L37.35,53.39C41.59,55.71,42.78,61.26,39.84,65.11C41.87,61.03,40.3,56.08,36.3,53.9L35.85,53.66L22.65,53.66L22.33,53.84C18.38,56.08,16.78,60.97,18.65,65.11C15.72,61.26,16.9,55.71,21.15,53.39Z" fill="#83DEFC"/><path d="M15.62,46.69L42.88,46.69C43.67,46.69,44.4,46.31,44.87,45.68C48.01,41.36,44.92,35.29,39.58,35.29L18.92,35.29C13.58,35.29,10.49,41.36,13.64,45.68C14.1,46.31,14.83,46.69,15.62,46.69Z" fill="#6B4D3A"/><path d="M22.84,63.15C25.62,65.44,29.25,68.25,29.25,68.25C29.25,68.25,32.97,65.45,35.75,63.12C36.86,62.19,37.47,60.79,37.47,59.33L37.47,48.18L21.03,48.18L21.03,59.25C21.03,60.76,21.68,62.19,22.84,63.15Z" fill="#6B4D3A"/><path d="M24.14,59.84C27.14,62.21,31.36,62.21,34.35,59.84C36.32,58.28,37.47,55.91,37.47,53.4L37.47,39.65L21.03,39.65L21.03,53.4C21.03,55.91,22.18,58.28,24.14,59.84Z" fill="#543F34"/><path d="M19.18,53.87L22.6,56.72C24.1,57.97,25.99,58.66,27.95,58.66L29.25,58.66L30.55,58.66C32.51,58.66,34.4,57.97,35.9,56.72L39.32,53.87C41.07,52.41,42.14,50.3,42.3,48.03L44.13,21.89L14.37,21.89L16.2,48.03C16.36,50.3,17.43,52.41,19.18,53.87Z" fill="#8D694B"/><path d="M45.36,38.98C44.8,39.54,44.07,39.88,43.29,40.06L42.65,40.2L42.23,33.89C42.11,32.03,40.78,30.47,38.94,30.23C33.13,29.44,25.42,29.48,19.6,30.24C17.74,30.48,16.39,32.05,16.26,33.92L15.85,40.2L15.52,40.13C14.55,39.91,13.64,39.42,13.03,38.63C6.36,29.94,7.61,10.09,29.49,10C52.05,9.91,52.94,31.27,45.36,38.98Z" fill="#312E2B"/><path d="M44.47,39.79C50.84,32.29,51.92,12.28,29.49,12.28C7.05,12.28,8.16,32.51,14.03,39.79C6.29,31.87,6.57,10.1,29.49,10C52.9,9.9,52.98,31.98,44.47,39.79Z" fill="#4B4847"/></svg>