<svg xmlns="http://www.w3.org/2000/svg" viewBox="0 0 90 90"><path d="M19.41,55.61C18.9,55.54,18.5,55.15,18.4,54.64C18.36,54.41,18.38,54.17,18.47,53.96C18.11,53.55,17.65,52.99,17.58,52.2C17.52,51.58,17.7,51.04,17.84,50.61C17.9,50.44,17.99,50.16,17.98,50.07C17.94,49.87,17.56,49.41,17.34,49.14C16.98,48.7,16.61,48.25,16.38,47.71C16.21,47.32,16.17,46.63,16.17,46.43C16.15,46.01,16.17,45.66,16.25,45.35C15.95,45.03,15.68,44.67,15.45,44.29C14.89,43.33,14.7,42.36,14.91,41.56C15.05,41,15.38,40.54,15.86,40.23C15.89,40.21,15.91,40.2,15.94,40.18C15.89,40.04,15.86,39.92,15.83,39.83C15.68,39.28,15.48,38.21,15.85,37.29C15.91,37.15,15.98,37.01,16.06,36.88C15.77,36.57,15.48,36.22,15.2,35.86C14.08,34.4,13.69,33.29,13.96,32.36C14.03,32.11,14.16,31.88,14.32,31.69C14.23,31.35,14.22,30.98,14.28,30.6C14.37,30.03,14.63,29.48,15.01,29.05C14.31,27.95,14.11,26.63,14.38,25.06C14.39,25,14.4,24.92,14.41,24.84C14.49,24.34,14.6,23.58,14.93,22.91C15.11,22.52,15.35,22.2,15.63,21.95C15.51,21.72,15.4,21.47,15.32,21.21C15.08,20.45,15.09,19.67,15.35,18.83C15.52,18.29,15.74,17.65,16.13,17.08C16.3,16.82,16.49,16.61,16.67,16.44C16.65,16.13,16.69,15.79,16.79,15.42C16.95,14.87,17.19,14.43,17.26,14.31C17.66,13.64,18.16,13.28,18.56,12.99C18.72,12.88,18.87,12.77,19.01,12.65C19.12,12.56,19.21,12.48,19.28,12.41C19.3,12.39,19.33,12.37,19.35,12.35C19.37,12.23,19.4,12.06,19.45,11.85C19.59,11.17,19.79,10.39,20.28,9.76C20.69,9.22,21.25,8.86,21.95,8.68C22.06,8.47,22.19,8.23,22.36,7.95C23.06,6.79,23.37,6.58,23.48,6.5C24.06,6.1,24.7,5.89,25.33,5.89C25.56,5.89,25.8,5.92,26.02,5.98C26.12,5.81,26.22,5.64,26.32,5.48C26.76,4.81,27.47,3.92,28.46,3.88C28.46,3.88,28.47,3.86,28.48,3.85C28.85,3.41,29.36,3.16,29.91,3.16C30.25,3.16,30.58,3.25,30.88,3.4C30.91,3.34,30.95,3.28,30.98,3.22C31.46,2.42,32.15,1.86,32.92,1.62C33.25,1.52,33.57,1.47,33.88,1.47C34.86,1.47,35.55,1.95,36.05,2.49C36.21,2.3,36.37,2.13,36.54,1.97C37.3,1.25,38.1,0.87,38.86,0.87C39.25,0.87,39.99,0.98,40.57,1.69C40.57,1.69,40.58,1.69,40.59,1.69C40.85,1.69,41.11,1.75,41.36,1.87C41.54,1.8,41.74,1.76,41.94,1.76C42.2,1.76,42.45,1.82,42.68,1.92C42.84,1.5,43.08,1.08,43.41,0.74C43.88,0.26,44.48,0.01,45.14,0.01C45.15,0.01,45.17,0.01,45.18,0.01C46.01,0.03,46.8,0.43,47.42,1.15C47.55,1.31,47.68,1.47,47.78,1.65C48.18,1.46,48.6,1.37,49.02,1.37C49.66,1.37,50.24,1.59,50.68,2C51.1,1.75,51.57,1.61,52.05,1.61C52.72,1.61,53.35,1.88,53.84,2.37C53.92,2.45,54,2.54,54.08,2.65C54.8,2.09,55.65,1.81,56.6,1.81C56.63,1.81,56.66,1.81,56.69,1.81C57.58,1.83,58.82,2.17,59.63,3.08C59.76,3.23,59.88,3.38,59.97,3.54C60.64,3.67,61.23,4.06,61.41,4.2C61.87,4.53,62.19,4.91,62.41,5.29C62.57,5.25,62.73,5.23,62.89,5.23C63.68,5.23,64.39,5.68,64.98,6.56C65.11,6.75,65.22,6.94,65.33,7.15C65.4,7.15,65.48,7.14,65.56,7.14C66.21,7.14,66.95,7.4,67.77,7.93C68.35,8.3,68.93,8.78,69.28,9.18C69.95,9.95,70.31,10.75,70.4,11.61C70.47,12.26,70.37,12.85,70.25,13.38C70.99,13.68,71.6,14.19,72.04,14.87C72.75,15.97,72.9,17.38,72.75,18.61C73.36,18.9,73.7,19.3,73.9,19.66C74.3,20.38,74.33,21.25,74,22.33C73.88,22.73,73.72,23.11,73.56,23.47C73.73,23.6,73.87,23.75,73.99,23.93C74.58,24.82,74.23,25.84,73.99,26.52C73.96,26.61,73.92,26.71,73.89,26.81C74.1,27.14,74.38,27.7,74.19,28.39C74.1,28.7,73.96,28.94,73.79,29.15C74.41,29.87,74.78,30.75,74.85,31.73C74.92,32.67,74.72,33.67,74.26,34.61C74.04,35.07,73.76,35.51,73.43,35.91C73.47,35.99,73.5,36.06,73.53,36.13C73.99,37.3,73.2,38.53,72.56,39.52C72.5,39.61,72.43,39.73,72.36,39.84C72.63,40.02,72.87,40.23,73.03,40.53C73.32,41.08,73.39,41.66,73.24,42.25C73.18,42.46,73.1,42.66,73.01,42.85C73.2,43.21,73.29,43.63,73.26,44.07C73.22,44.75,72.91,45.5,72.39,46.18C72.37,46.21,72.34,46.24,72.32,46.27C72.33,46.28,72.34,46.3,72.35,46.31C73.06,47.11,72.87,48.12,72.67,48.8C72.35,49.87,71.71,50.73,71.09,51.56C71.02,51.65,70.96,51.73,70.9,51.82C71.3,52.06,71.65,52.39,71.86,52.85C72.03,53.22,72.22,53.96,71.66,54.86C71.47,55.15,71.17,55.35,70.83,55.41C66.44,56.09,61.98,56.61,57.58,56.95C53.19,57.29,48.73,57.46,44.33,57.46L44.38,57.43C36.09,57.43,27.69,56.82,19.41,55.61Z" fill="#6E4A3C"/><path d="M17.59,42.03C14.62,41.83,16,45.27,17.85,46.29C16.95,45.8,17.22,48.08,17.33,48.31C17.7,49.17,18.83,50.04,19.01,50.92C19.16,51.66,18.55,52.4,18.63,53.19C18.71,54.04,19.71,54.51,19.93,55.33C19.75,55.38,19.59,55.45,19.44,55.53C36.57,58.03,53.69,57.95,70.82,55.3C71.5,54.21,70.22,53.67,69.23,53.52C69.96,52.13,71.26,50.98,71.7,49.51C72.11,48.12,71.55,47.92,70.35,47.54C71.65,46.95,73.01,44.79,71.73,44.02C72.15,43.28,72.51,42.78,72.15,42.1C72.01,41.84,71.11,41.45,71.08,41.27C70.93,40.4,74.11,37.59,71.82,37C74.04,35.23,74.87,31.7,72.1,30.1C72.47,29.72,73.07,29.52,73.21,29.01C73.34,28.55,72.8,28.17,72.81,27.91C72.85,26.99,74.25,25.21,72.06,25.07C72.66,23.8,74.57,20.65,71.5,20.36C72.08,18.68,71.96,15.41,69.02,15.13C69.2,13.64,69.95,12.47,68.52,10.81C67.83,10.02,65.46,8.32,64.92,9.69C64.29,8.13,63.3,6.11,61.85,8.07C61.79,7.26,61.58,6.55,60.81,6C60.28,5.62,59.27,5.19,59.22,5.96C59.4,4.62,57.9,3.85,56.74,3.83C55.2,3.8,54.39,4.72,53.64,5.88C53.67,3.17,51.17,2.84,50.27,5.28C50.68,2.89,48.03,2.86,47.2,4.73C47.34,3.67,46.41,2.06,45.17,2.03C43.86,2.01,43.5,3.86,43.51,4.85C42.97,4.41,41.6,2.95,41.47,4.47C41.03,3.7,40.18,3.24,40.1,4.5C39.53,1.41,37.02,3.38,36.1,5.37C35.35,4.54,34.79,3.11,33.21,3.6C32.18,3.92,31.42,5.27,31.51,6.3C30.69,5.51,29.4,4.26,28.95,6.36C28.22,4.82,26.7,7.77,26.46,8.46C25.83,7.86,24.94,7.73,24.05,8.34C23.77,8.53,22.46,10.63,22.78,10.62C21.09,10.68,20.75,11.75,20.49,12.98C20.27,14.03,20.49,13.72,19.66,14.45C19.09,14.95,18.55,15.15,18.16,15.82C17.89,16.29,17.24,17.82,18.37,17.83C17.11,17.83,16.6,19.3,16.35,20.12C15.91,21.56,16.5,22.32,17.24,23.47C15.72,23.41,15.56,25.37,15.41,26.22C15.14,27.74,15.34,29.13,16.68,30.3C15.35,30.46,14.73,32.56,15.93,33.12C13.13,33.33,16.95,37.42,17.84,38.09L17.83,38.09C15.96,38.1,16.76,41.22,17.59,42.03Z" fill="#432D25"/><path d="M73.44,32.24C65.5,36.63,54.94,37.59,43.36,37.59C32.7,37.59,23.05,36.63,15.36,32.84C13.38,33.97,16.95,37.46,17.76,38.07C15.89,38.08,16.69,41.2,17.52,42.01C14.55,41.81,15.93,45.25,17.78,46.27C16.88,45.78,17.15,48.06,17.26,48.29C17.63,49.15,18.76,50.02,18.94,50.9C19.09,51.64,18.48,52.38,18.56,53.17C18.64,54.02,19.64,54.49,19.86,55.31C19.68,55.36,19.52,55.43,19.37,55.51C36.5,58.01,53.62,57.93,70.75,55.28C71.43,54.19,70.15,53.65,69.16,53.5C69.89,52.11,71.19,50.96,71.63,49.49C72.04,48.1,71.48,47.9,70.28,47.52C71.58,46.93,73.19,44.97,71.91,44.2C72.33,43.46,72.8,42.54,72.44,41.86C72.3,41.6,71.51,41.22,71.47,41.04C71.32,40.17,74.41,37.56,72.12,36.96C73.58,35.79,74.31,33.55,73.93,31.92L73.95,31.93Z" fill="#583B30"/><path d="M76.24,47.31C77.31,52.13,73.36,71.42,67.45,65.61C66.39,52.56,69.06,47.35,69.06,47.35C69.35,47.36,74.3,40.09,76.24,47.31Z" fill="#8C5547"/><path d="M76.09,46.35C77.16,51.17,73.21,70.46,67.3,64.65C66.24,51.6,68.91,46.39,68.91,46.39C69.2,46.4,74.15,39.13,76.09,46.35Z" fill="#8C5547"/><path d="M13.76,46.41C12.69,51.29,16.65,70.85,22.56,64.96C23.62,51.73,20.94,46.45,20.94,46.45C20.65,46.46,15.7,39.09,13.76,46.41Z" fill="#8C5547"/><path d="M14.38,47.05C13.31,51.93,17.27,71.49,23.18,65.6C24.24,52.37,21.56,47.09,21.56,47.09C21.27,47.1,16.32,39.73,14.38,47.05Z" fill="#8C5547"/><path d="M63.28,17.58C59.77,15.6,52.44,14.72,45.24,14.74C38.05,14.73,30.71,15.61,27.2,17.58C22.99,19.96,27.13,29.14,22.33,32.33C20.82,47.27,20.5,68.49,28.05,79.16C28.73,80.11,29.4,81.07,30.04,82.04C31.63,84.46,33.3,86.8,35.73,88.29C37.87,89.42,41.5,89.99,45.13,89.99C45.2,89.99,45.28,89.99,45.35,89.99C48.98,89.99,52.61,89.42,54.75,88.29C57.18,86.8,58.85,84.46,60.44,82.04C61.08,81.06,61.75,80.11,62.43,79.16C69.98,68.5,69.66,47.28,68.15,32.33C63.35,29.13,67.48,19.95,63.28,17.58Z" fill="#A06952"/><path d="M40.07,77.87C42.91,79.61,45.28,79.22,45.27,79.25C52.32,79.18,56.63,71.15,58.5,65.11C49.78,68.04,40.69,68.04,31.97,65.11C33.91,72.37,37.23,76.18,40.07,77.87Z" fill="#8C5547"/><path d="M40.07,75.38C42.91,76.8,45.28,76.49,45.27,76.51C52.32,76.45,56.63,69.88,58.5,64.94C49.78,67.34,40.69,67.34,31.97,64.94L31.97,64.93C33.91,70.87,37.23,73.99,40.07,75.38Z" fill="#BC745E"/><path d="M40.37,70.13C43.04,70.78,45.27,70.64,45.27,70.64C51.9,70.61,55.96,67.62,57.72,65.36C49.51,66.45,40.95,66.45,32.75,65.36C34.57,68.07,37.7,69.5,40.37,70.13Z" fill="white"/><path d="M45.27,67.66C52.62,67.66,56.59,66.34,58.5,64.93L31.97,64.93C35.67,68,45.27,67.66,45.27,67.66Z" fill="#784232"/><path d="M52.1,53.87C47.63,50.61,48.81,41.03,48.97,35.63L41.32,35.63C41.31,40.98,42.24,50.65,38.19,53.55C37.55,54.02,37.02,54.67,36.79,55.54C36.7,55.91,36.65,56.33,36.68,56.78C36.64,63.47,56.79,62.98,53.44,55.4C53.14,54.78,52.65,54.27,52.1,53.87Z" fill="#A06952"/><path d="M21.89,55.16L21.6,42.61L19.66,42.59L19.85,44.63L21.7,55.16Z" fill="#432D25"/><path d="M68.59,55.16L68.88,42.61L70.82,42.59L70.63,44.63L68.78,55.16Z" fill="#432D25"/><path d="M66.78,43.29C66.68,40.31,65.43,37.48,63.3,35.38L62.61,34.7L49.09,37.62C48.58,40.24,48.49,43.76,48.56,46.91L66.8,46.91L66.81,46.91C66.84,45.76,66.82,44.52,66.78,43.29Z" fill="#925B47"/><path d="M41.43,37.56L30.36,34.19L28.75,35.3C25.65,37.43,23.76,40.92,23.68,44.68C23.66,45.45,23.66,46.2,23.68,46.92L41.98,46.92L41.97,46.91C42.05,43.73,41.97,40.18,41.43,37.56Z" fill="#925B47"/><path d="M53.72,55.4C53.77,55.46,53.81,55.53,53.86,55.6C54.17,56.09,54.39,56.64,54.41,57.24C54.44,58.9,52.84,59.88,51.44,60.35C50.86,60.55,50.27,60.69,49.67,60.8L50.02,60.62C49.41,61.24,48.59,61.56,47.79,61.81C46.64,62.15,45.41,62.28,44.21,62.09C43.21,61.93,42.22,61.66,41.34,61.12C41.15,61,40.97,60.87,40.79,60.69L41.15,60.87C39.33,60.59,36.55,59.82,36.1,57.76C35.96,57.09,36.15,56.4,36.48,55.82C36.56,55.68,36.64,55.54,36.74,55.41C36.9,55.2,37.1,55.02,37.31,54.87C37.56,54.69,37.83,54.54,38.11,54.42C37.8,54.67,37.51,54.94,37.28,55.26C37.18,55.39,37.09,55.53,37.02,55.68C36.97,55.78,36.93,55.9,36.89,56.01C36.8,56.27,36.74,56.55,36.72,56.82C36.68,57.33,36.85,57.82,37.2,58.19C38.14,59.17,39.99,59.46,41.3,59.61L41.49,59.63C41.65,59.78,41.8,59.91,42,60.02C42.72,60.42,43.57,60.62,44.39,60.74C45.41,60.9,46.42,60.79,47.41,60.53C48,60.37,48.67,60.15,49.11,59.75L49.28,59.59L49.46,59.57C50.19,59.48,50.91,59.35,51.61,59.13C52.52,58.83,53.57,58.29,53.7,57.23C53.76,56.82,53.66,56.35,53.51,55.94C53.46,55.81,53.42,55.69,53.35,55.57C53.1,55.11,52.72,54.74,52.31,54.42L52.34,54.39C52.86,54.61,53.36,54.95,53.72,55.4Z" fill="#784232"/><path d="M24.87,13.38C25.26,13.38,25.62,13.48,25.93,13.65C25.55,12.96,24.82,12.49,23.98,12.49C22.75,12.49,21.76,13.48,21.76,14.71C21.76,15.55,22.23,16.28,22.92,16.66C22.75,16.34,22.65,15.98,22.65,15.6C22.65,14.37,23.64,13.38,24.87,13.38Z" fill="#6E4A3C"/><path d="M26.46,10.46C26.75,10.46,27.02,10.53,27.26,10.66C26.98,10.14,26.43,9.79,25.8,9.79C24.88,9.79,24.14,10.53,24.14,11.45C24.14,12.08,24.49,12.63,25.01,12.91C24.88,12.67,24.81,12.4,24.81,12.11L24.8,12.12C24.8,11.2,25.54,10.46,26.46,10.46Z" fill="#6E4A3C"/><path d="M22.12,16.54C22.51,16.54,22.87,16.64,23.18,16.81C22.8,16.12,22.07,15.65,21.23,15.65C20,15.65,19.01,16.64,19.01,17.87C19.01,18.71,19.48,19.44,20.17,19.82C20,19.5,19.9,19.14,19.9,18.76C19.9,17.53,20.89,16.54,22.12,16.54Z" fill="#6E4A3C"/><path d="M33.67,11.47C34.06,11.47,34.42,11.57,34.73,11.74C34.35,11.05,33.62,10.58,32.78,10.58C31.55,10.58,30.56,11.57,30.56,12.8C30.56,13.64,31.03,14.37,31.72,14.75C31.55,14.43,31.45,14.07,31.45,13.69C31.45,12.46,32.44,11.47,33.67,11.47Z" fill="#6E4A3C"/><path d="M71.17,26.09C71.17,25.7,71.07,25.34,70.9,25.03C71.59,25.41,72.06,26.14,72.06,26.98C72.06,28.21,71.07,29.2,69.84,29.2C69,29.2,68.27,28.73,67.89,28.04C68.21,28.21,68.57,28.31,68.95,28.31C70.18,28.31,71.17,27.32,71.17,26.09Z" fill="#6E4A3C"/><path d="M70.64,28.81C70.64,28.49,70.56,28.18,70.41,27.92C70.99,28.24,71.38,28.85,71.38,29.55C71.38,30.58,70.55,31.41,69.52,31.41C68.82,31.41,68.2,31.02,67.89,30.44C68.15,30.58,68.46,30.67,68.78,30.67C69.81,30.67,70.64,29.84,70.64,28.81Z" fill="#6E4A3C"/><path d="M70.85,25.77C70.85,25.38,70.75,25.02,70.58,24.71C71.27,25.09,71.74,25.82,71.74,26.66C71.74,27.89,70.75,28.88,69.52,28.88C68.68,28.88,67.95,28.41,67.57,27.72C67.89,27.89,68.25,27.99,68.63,27.99C69.86,27.99,70.85,27,70.85,25.77Z" fill="#6E4A3C"/><path d="M70.32,28.5C70.32,28.18,70.24,27.87,70.09,27.61C70.67,27.93,71.06,28.54,71.06,29.24C71.06,30.27,70.23,31.1,69.2,31.1C68.5,31.1,67.88,30.71,67.57,30.13C67.83,30.27,68.14,30.36,68.46,30.36C69.49,30.36,70.32,29.53,70.32,28.5Z" fill="#6E4A3C"/><path d="M24.72,16.43C25.05,16.43,25.37,16.52,25.64,16.67C25.31,16.07,24.68,15.67,23.95,15.67C22.89,15.67,22.03,16.53,22.03,17.59C22.03,18.32,22.43,18.95,23.03,19.28C22.88,19.01,22.79,18.69,22.79,18.36L22.8,18.35C22.8,17.29,23.66,16.43,24.72,16.43Z" fill="#6E4A3C"/><path d="M25.24,13.76C25.63,13.76,25.99,13.86,26.3,14.03C25.92,13.34,25.19,12.87,24.35,12.87C23.12,12.87,22.13,13.86,22.13,15.09C22.13,15.93,22.6,16.66,23.29,17.04C23.12,16.72,23.02,16.36,23.02,15.98C23.02,14.75,24.01,13.76,25.24,13.76Z" fill="#6E4A3C"/><path d="M26.83,10.83C27.12,10.83,27.39,10.9,27.63,11.03C27.35,10.51,26.8,10.16,26.17,10.16C25.25,10.16,24.51,10.9,24.51,11.82C24.51,12.45,24.86,13,25.38,13.28C25.25,13.04,25.18,12.77,25.18,12.48L25.17,12.49C25.17,11.57,25.91,10.83,26.83,10.83Z" fill="#6E4A3C"/><path d="M22.5,16.92C22.89,16.92,23.25,17.02,23.56,17.19C23.18,16.5,22.45,16.03,21.61,16.03C20.38,16.03,19.39,17.02,19.39,18.25C19.39,19.09,19.86,19.82,20.55,20.2C20.38,19.88,20.28,19.52,20.28,19.14C20.28,17.91,21.27,16.92,22.5,16.92Z" fill="#6E4A3C"/><path d="M34.05,11.84C34.44,11.84,34.8,11.94,35.11,12.11C34.73,11.42,34,10.95,33.16,10.95C31.93,10.95,30.94,11.94,30.94,13.17C30.94,14.01,31.41,14.74,32.1,15.12C31.93,14.8,31.83,14.44,31.83,14.06C31.83,12.83,32.82,11.84,34.05,11.84Z" fill="#6E4A3C"/><path d="M25.09,16.8C25.42,16.8,25.74,16.89,26.01,17.04C25.68,16.44,25.05,16.04,24.32,16.04C23.26,16.04,22.4,16.9,22.4,17.96C22.4,18.69,22.8,19.32,23.4,19.65C23.25,19.38,23.16,19.06,23.16,18.73L23.17,18.72C23.17,17.66,24.03,16.8,25.09,16.8Z" fill="#6E4A3C"/><path d="M64.52,35.67C63.24,34.23,61.6,33.61,60.84,33.58C58.74,33.5,54.53,35.47,49.76,35.3C48.33,38.97,49.07,39.41,49.07,39.41C49.07,39.41,63.07,38.28,66.3,40.95C66.36,39.08,65.87,37.63,65.16,36.52L65.16,36.51Z" fill="#432D25"/><path d="M25.96,35.67C27.24,34.23,28.88,33.61,29.64,33.58C31.74,33.5,35.95,35.47,40.72,35.3C42.15,38.97,41.41,39.41,41.41,39.41C41.41,39.41,27.41,38.28,24.18,40.95C24.12,39.08,24.61,37.63,25.32,36.52L25.32,36.51Z" fill="#432D25"/><path d="M53.32,42.19C55.05,41.42,62.24,40.38,62.35,45.51L61.91,46.46L51.66,46.84C51.66,46.84,51.58,42.97,53.32,42.19Z" fill="#432D25"/><path d="M52.89,44.92C51.91,45.63,51.52,47.15,51.52,47.15C51.52,47.15,60.12,48.15,62.08,46.32L62.09,46.33C61.31,43.48,55.96,42.72,52.89,44.92Z" fill="#F4F4F4"/><path d="M59.31,45.31C59.31,43.88,58.15,42.72,56.72,42.72C55.29,42.72,54.13,43.88,54.13,45.31C54.13,46.74,55.29,47.9,56.72,47.9C58.15,47.9,59.31,46.74,59.31,45.31Z" fill="#432D25"/><path d="M37.16,42.19C35.42,41.41,28.24,40.38,28.13,45.51L28.57,46.46L38.82,46.84C38.82,46.84,38.9,42.97,37.16,42.19Z" fill="#432D25"/><path d="M37.59,44.92C38.57,45.63,38.96,47.15,38.96,47.15C38.96,47.15,30.36,48.15,28.4,46.32L28.39,46.33C29.17,43.48,34.52,42.72,37.59,44.92Z" fill="#F4F4F4"/><path d="M31.17,45.31C31.17,43.88,32.33,42.72,33.76,42.72C35.19,42.72,36.35,43.88,36.35,45.31C36.35,46.74,35.19,47.9,33.76,47.9C32.33,47.9,31.17,46.74,31.17,45.31Z" fill="#432D25"/><path d="M37.84,59.85L52.64,59.85L46.81,62.95C45.83,63.47,44.65,63.47,43.67,62.95Z" fill="#784232"/><path d="M37.84,59.51L52.64,59.51L47.13,62.44C45.95,63.07,44.53,63.07,43.35,62.44Z" fill="#784232"/></svg>