<svg xmlns="http://www.w3.org/2000/svg" viewBox="0 0 90 90"><path d="M18.78,58.67C16.59,58.67,16.68,54.08,15.29,47.58C13.9,41.08,15.55,37.69,18.39,37.69C20.08,37.41,21.11,42.28,21.11,47.93C21.11,53.59,21.62,58.67,18.78,58.67Z" fill="#E79A7C"/><path d="M70.47,14.74C55,-5.57,34.6,1.04,32.57,1C32.57,1,30.32,5.52,25.43,8.31C23.88,9.19,15.59,16.18,16.55,25.54C16.49,27.8,18.25,34.01,18.57,37.46C19.26,40.99,18.92,45.14,18.91,45.17L71.51,45.99C71.05,38.03,72.02,40.27,71.84,37.73L71.83,37.74C74.67,29.95,74.61,19.41,70.47,14.74Z" fill="#B6B1AF"/><path d="M18.82,58.63C16.63,58.63,17.38,54.89,15.99,48.39C14.62,41.96,15.97,38.15,18.82,38.15C20.51,37.87,21.54,42.74,21.54,48.39C21.54,54.05,21.67,58.63,18.82,58.63Z" fill="#E79A7C"/><path d="M18.8,38.1C17.12,38.1,15.97,39.47,15.6,41.94C15.99,41.2,16.7,40.5,17.95,40.74C19.08,40.96,20.4,45.42,21.49,50.16C21.49,49.57,21.49,48.96,21.49,48.33L21.48,48.34C21.48,42.68,21.15,38.14,18.8,38.1Z" fill="#E79A7C"/><path d="M72.26,58.77C74.45,58.77,74.18,54.27,74.67,47.99C76.04,41.56,74.58,40.38,71.74,40.38C70.05,40.1,69.54,42.86,69.54,48.52L69.54,48.53C69.54,54.19,69.41,58.77,72.26,58.77Z" fill="#E79A7C"/><path d="M71.84,58.21C74.03,58.21,73.28,54.47,74.67,47.97C76.04,41.54,74.69,37.73,71.84,37.73C70.15,37.45,69.12,42.32,69.12,47.97C69.12,53.63,68.99,58.21,71.84,58.21Z" fill="#E79A7C"/><path d="M71.9,37.68C73.58,37.68,74.73,39.05,75.1,41.52C74.71,40.78,74,40.08,72.75,40.32C71.62,40.54,70.3,45,69.21,49.74C69.21,49.15,69.21,48.54,69.21,47.91L69.22,47.92C69.22,42.26,69.55,37.72,71.9,37.68Z" fill="#E79A7C"/><path d="M71.16,19.54C70.98,19.18,70.77,18.82,70.55,18.46L69.78,17.29C67.97,14.72,65.73,12.48,65.73,12.48C60.7,7.05,54.19,4.26,53.65,4.14C49.98,2.71,45.23,1.36,35.11,2.49C35.11,2.49,32.42,6.92,25.36,11.49C19.97,15.11,17.75,22.25,17.92,27.35C17.86,29.61,18.01,32.32,18.33,35.77C18.15,38.31,19.63,38.15,19.36,45.62L71.96,46.44C71.5,38.48,72.56,38.31,72.38,35.77L72.37,35.78C73.15,27.37,72.92,23.35,71.16,19.54Z" fill="#7C7776"/><path d="M69.72,20.75C66.69,15.29,61.97,11.07,55.3,7.14C52.35,5.41,49,4.48,45.58,4.45C45.53,4.45,45.47,4.45,45.42,4.45C41.9,4.43,38.44,5.36,35.41,7.14C28.74,11.07,22.54,16.68,20.99,20.75C19.35,24.45,21.57,31.47,20.65,37.81C20.41,41.63,19.2,46.81,19.2,47.76C19.2,68.38,31.51,84.38,44.89,84.93L45.82,84.93C59.2,84.38,71.32,68.38,71.32,47.76C71.32,46.81,70.3,41.62,70.06,37.81C69.14,31.47,71.36,24.44,69.72,20.75Z" fill="#FCCEAB"/><path d="M62.89,29.66C61.31,28.73,59.68,28.5,59.68,28.5C54.36,27.85,52.34,30.68,52.15,31.64C51.98,32.02,51.99,32.74,51.99,33.09C51.99,33.09,56.07,33.09,56.98,32.85C60.28,31.98,64.18,31.63,67.13,34.14C67.14,34.14,66.96,33.31,66.82,33.12C66.35,32.37,65.41,31.31,62.89,29.66Z" fill="#969190"/><path d="M62.89,30.65C61.31,29.72,59.68,29.49,59.68,29.49C54.36,28.84,52.34,31.67,52.15,32.63C51.98,33.01,51.99,33.73,51.99,34.08C51.99,34.08,56.07,34.08,56.98,33.84C60.28,32.97,64.18,32.62,67.13,35.13C67.14,35.13,66.96,34.3,66.82,34.11C66.35,33.36,65.41,32.3,62.89,30.65Z" fill="#969190"/><path d="M27.64,29.39C29.22,28.46,30.85,28.23,30.85,28.23C36.11,28.08,38.3,28.41,38.55,30.08C38.72,30.46,38.53,32.47,38.53,32.83C38.53,32.83,34.45,32.83,33.54,32.59C30.24,31.72,26.34,31.37,23.39,33.88C23.38,33.88,23.56,33.05,23.7,32.86L23.71,32.85C24.18,32.1,25.12,31.04,27.64,29.39Z" fill="#969190"/><path d="M27.64,30.38C29.22,29.45,30.85,29.22,30.85,29.22C36.11,29.07,38.3,29.4,38.55,31.07C38.72,31.45,38.53,33.46,38.53,33.82C38.53,33.82,34.45,33.82,33.54,33.58C30.24,32.71,26.34,32.36,23.39,34.87C23.38,34.87,23.56,34.04,23.7,33.85L23.71,33.84C24.18,33.09,25.12,32.03,27.64,30.38Z" fill="#969190"/><path d="M21.4,42.69L20.22,39.2C19.79,37.82,18.89,37.36,18.49,37.22L18.17,34.27L20.94,34.21L20.96,34.21C25.07,33.45,28.12,33.11,30.84,33.11C32.28,33.11,33.53,33.21,34.56,33.3C38.19,33.63,40.12,34.28,40.2,34.3C40.26,34.32,40.78,34.49,41.59,34.71C43.15,35.13,44.22,35.3,45.27,35.3C46.32,35.3,47.39,35.13,48.95,34.71C49.76,34.49,50.28,34.32,50.34,34.3C50.42,34.27,52.35,33.63,55.98,33.29C57.01,33.2,58.26,33.1,59.7,33.1C62.42,33.1,65.46,33.44,69.58,34.2L69.59,34.2L72.25,34.4L72.04,37.22C71.63,37.36,70.74,37.82,70.31,39.2L69.13,42.58C68.4,45.36,65.82,47.29,62.87,47.29L53.37,47.29C51.87,47.29,50.54,46.31,50.14,44.92C50.14,44.92,50.02,44.47,49.85,43.8L47.97,37.9C47.74,37.06,46.96,36.47,46.06,36.47L44.48,36.47C43.59,36.47,42.8,37.06,42.57,37.9L40.69,43.89C40.55,44.45,40.44,44.85,40.4,45C40,46.41,38.67,47.39,37.17,47.39L27.67,47.39L27.66,47.39C24.71,47.39,22.14,45.46,21.4,42.69Z" fill="#E79A7C"/><path d="M60.28,56.57C56.62,51.81,52.03,45.94,50.46,48.06C49.98,48.71,47.67,49.05,45.25,49.09C42.83,49.05,40.52,48.71,40.04,48.06C38.48,45.94,33.88,51.81,30.22,56.57C29.31,57.75,29.21,59.37,29.97,60.66C32.39,64.77,39.28,71.68,45.21,72.24C45.21,72.24,45.23,72.24,45.24,72.24C45.24,72.24,45.26,72.24,45.27,72.24C51.2,71.68,58.09,64.76,60.51,60.66L60.53,60.66C61.29,59.37,61.19,57.76,60.28,56.57Z" fill="#E79A7C"/><path d="M39.07,40.09C39.07,40.09,36.1,37.58,31.95,38.48C28.64,39.2,28.56,40.17,28.56,40.17C33.91,43.02,39.07,40.09,39.07,40.09Z" fill="#FCCEAB"/><path d="M33.8,42.2C32.56,42.2,31.55,41.23,31.56,40.04C31.57,38.85,32.57,37.89,33.81,37.9C35.05,37.9,36.06,38.87,36.05,40.06C36.05,41.25,35.04,42.21,33.8,42.2Z" fill="url(#paint0_linear_8728_1193)"/><path d="M45.21,90C45.21,90,69.34,86.01,71.47,58.69L46.01,76.38L19.12,58.64C20.55,84.85,45.21,89.99,45.21,90Z" fill="#969190"/><path d="M60.67,61.6C60.67,61.6,63.68,57.4,57.51,53.51C57.51,53.51,53.49,54.61,50.12,53.73C47.07,52.93,45.52,53.04,45.26,53.06C45,53.03,43.45,52.93,40.4,53.73C37.03,54.61,33.01,53.51,33.01,53.51C26.84,57.41,29.85,61.6,29.85,61.6C18.46,56.99,19.4,42.75,19.4,42.75C18.2,44.96,18.51,52.04,18.66,54.56C18.72,55.51,18.76,56.45,18.79,57.4C23.02,83.1,45.22,88.09,45.22,88.1C45.22,88.1,67.02,82.1,71.73,57.4C71.76,56.45,71.8,55.51,71.86,54.56C72.01,52.04,72.32,44.96,71.12,42.75C71.12,42.75,72.07,56.98,60.67,61.6Z" fill="#7C7776"/><path d="M45.25,67.53C42.72,67.42,37.82,66.14,35.56,64.55C32.21,62.19,29.58,58.16,38.11,58.89C42.72,59.28,44.47,58.59,45.25,58.26C46.95,59.22,51.68,58.95,52.39,58.89C60.92,58.17,58.29,62.2,54.94,64.55C52.68,66.14,47.78,67.42,45.25,67.53Z" fill="#FAC2A0"/><path d="M50.12,47.53L48.25,35.46L42.29,35.46L40.42,47.53C39.22,48.27,37.21,48.1,36.81,50.66C36.6,51.98,37.25,53.44,38.92,53.49C40.79,53.54,42.29,54.65,42.94,55.53C43.36,56.09,44.46,56.15,45.12,56.18L45.12,56.2C45.12,56.2,45.22,56.2,45.28,56.2C45.34,56.2,45.39,56.2,45.44,56.2L45.44,56.18C46.1,56.15,47.21,56.09,47.62,55.53C48.27,54.65,49.77,53.54,51.64,53.49C53.31,53.45,53.96,51.99,53.75,50.66L53.73,50.66C53.33,48.1,51.32,48.28,50.12,47.53Z" fill="#FCCEAB"/><path d="M37.32,49.68C37.19,49.99,37.12,50.32,37.08,50.65C37.07,50.76,37.06,50.87,37.06,50.98C37.06,51.95,37.56,52.89,38.59,53.02C38.72,53.04,38.88,53.04,39.01,53.04C39.18,53.04,39.36,53.05,39.53,53.08C40.92,53.25,42.24,53.94,43.17,55C43.23,55.07,43.29,55.14,43.35,55.22C43.37,55.24,43.38,55.25,43.41,55.27C43.71,55.46,44.15,55.53,44.51,55.57C44.81,55.61,45.12,55.62,45.43,55.63L45.38,55.63C45.44,55.63,45.53,55.62,45.59,55.61C46.03,55.57,46.82,55.47,47.16,55.21C47.48,54.8,47.87,54.43,48.3,54.13C49.06,53.59,49.95,53.22,50.88,53.08C51.09,53.05,51.3,53.03,51.52,53.03C51.69,53.03,51.87,53.03,52.03,53C53.02,52.84,53.49,51.89,53.48,50.95C53.47,50.52,53.39,50.08,53.22,49.68C52.86,48.78,52.04,48.37,51.2,47.99C51.5,48.06,51.81,48.14,52.11,48.25C53.12,48.61,53.72,49.37,53.98,50.41C54.43,52.11,53.55,53.82,51.68,53.93C50.27,54.01,48.86,54.76,48.02,55.89C47.52,56.5,46.32,56.65,45.58,56.72C45.53,56.72,45.46,56.73,45.41,56.72C45.09,56.71,44.75,56.69,44.4,56.64C43.74,56.55,42.94,56.41,42.5,55.84C41.76,54.88,40.61,54.2,39.42,53.99C39.26,53.96,39.1,53.94,38.93,53.93C38.77,53.93,38.61,53.9,38.45,53.87C36.94,53.58,36.23,52.1,36.51,50.67C36.69,49.72,37.15,48.87,38.03,48.42C38.46,48.19,38.94,48.07,39.41,47.96L39.41,47.97C38.55,48.36,37.69,48.76,37.32,49.68Z" fill="#E79A7C"/><path d="M51.25,40.09C51.25,40.09,54.22,37.58,58.37,38.48C61.68,39.2,61.76,40.17,61.76,40.17C56.41,43.02,51.25,40.09,51.25,40.09Z" fill="#FCCEAB"/><path d="M56.52,42.2C57.76,42.2,58.77,41.23,58.76,40.04C58.76,38.85,57.75,37.89,56.51,37.9C55.27,37.9,54.26,38.87,54.27,40.06C54.27,41.25,55.28,42.21,56.52,42.2Z" fill="url(#paint1_linear_8728_1193)"/><path d="M51.24,40.1C51.24,40.1,52.33,37.86,53.33,37.14C54.25,36.47,55.07,36.37,56.71,36.4C59.02,36.44,61.68,38.17,61.93,39.47C61.98,39.71,62.01,39.97,62.03,40.24C62.03,40.24,57.03,37.29,51.24,40.1Z" fill="#974E32"/><path d="M39.21,40.1C39.21,40.1,38.12,37.86,37.12,37.14C36.2,36.47,35.38,36.37,33.74,36.4C31.43,36.44,28.77,38.17,28.52,39.47C28.47,39.71,28.44,39.97,28.42,40.24C28.42,40.24,33.42,37.29,39.21,40.1Z" fill="#974E32"/><path d="M33.66,59.82C36.34,63.43,40.8,64.93,45.26,64.95C49.72,64.92,54.18,63.43,56.86,59.82C56.83,59.74,49.2,60.22,45.25,60.34C41.3,60.22,33.69,59.74,33.66,59.82Z" fill="#FC9A96"/><path d="M33.38,59.79C36.48,61.18,40.98,61.83,45.4,61.92C49.83,61.98,54.19,61.48,57.14,59.79C57.14,59.72,49.38,59.27,45.25,59.38C41.12,59.27,33.38,59.72,33.38,59.79Z" fill="#E47C78"/><path d="M67.24,34.5C67.79,34.59,68.23,35.23,68.34,35.74C68.5,36.49,68.56,37.25,68.5,38.02C68.5,38.02,67.19,41.74,67.14,41.99C65.78,46.71,58.9,45.26,55.26,45.46C54.16,45.46,53.14,44.89,52.56,43.96C51.35,42.01,49.37,38.76,49.07,37.99L48.59,37.99L50.02,43.11C50.35,44.03,50.63,46.64,52.61,46.96C60.73,46.45,67.71,49.69,69.65,39.11C69.9,38.34,70.12,37.63,70.47,37.39L70.47,34.45L70.48,34.47C70.48,34.47,67.17,34.49,67.24,34.5Z" fill="#E79A7C"/><path d="M23.16,34.5C22.61,34.59,22.17,35.23,22.06,35.74C21.9,36.49,21.84,37.25,21.9,38.02C21.9,38.02,23.21,41.74,23.26,41.99C24.62,46.71,31.5,45.26,35.14,45.46C36.24,45.46,37.26,44.89,37.84,43.96C39.05,42.01,41.03,38.76,41.33,37.99L41.81,37.99L40.38,43.11C40.05,44.03,39.77,46.64,37.79,46.96C29.67,46.45,22.69,49.69,20.75,39.11C20.5,38.34,20.28,37.63,19.93,37.39L19.93,34.45L19.92,34.47C19.92,34.47,23.23,34.49,23.16,34.5Z" fill="#E79A7C"/><path d="M55.95,33.03C52.29,33.37,50.33,34.02,50.25,34.05C50.19,34.07,49.67,34.24,48.88,34.46C46,35.24,44.54,35.24,41.66,34.46C40.87,34.25,40.35,34.08,40.29,34.06C40.21,34.03,38.25,33.38,34.59,33.04C31.25,32.73,28.01,32.64,20.92,33.95L17.87,34.02L18.25,37.45C18.25,37.45,19.47,37.67,19.98,39.3L21.15,42.77C21.92,45.66,24.6,47.67,27.67,47.67L37.17,47.67C38.79,47.67,40.23,46.61,40.66,45.1C40.66,45.1,40.78,44.64,40.95,43.98L42.83,37.99C43.03,37.26,43.7,36.76,44.48,36.76L46.06,36.76C46.83,36.76,47.51,37.27,47.71,37.99L49.59,43.88C49.76,44.54,49.88,44.98,49.88,44.99C50.31,46.52,51.75,47.57,53.37,47.57L62.87,47.57C65.95,47.57,68.63,45.55,69.39,42.67L70.56,39.29C71.06,37.66,72.24,37.44,72.29,37.44L72.54,34.16L69.62,33.95L69.62,33.94C62.53,32.63,59.29,32.73,55.95,33.03Z" fill="#625E5B"/><path d="M41.27,38.24C41.23,38.86,40.54,40.77,39.8,43.64C39.7,44.02,39.6,44.41,39.5,44.78C39.21,45.79,38.25,46.49,37.17,46.49L27.67,46.49C25.25,46.49,23.13,44.97,22.4,42.76C22.35,42.49,22.02,41.86,21.13,38.97L20.98,38.4C20.92,37.57,20.98,36.75,21.15,35.95C21.27,35.4,21.72,34.97,22.3,34.88C33.62,32.99,38.35,34.71,39.66,35.08L40.86,35.67C41.41,35.94,41.69,36.54,41.55,37.12L41.54,37.13Z" fill="#625E5B"/><path d="M69.4,38.98C68.51,41.87,68.18,42.41,68.13,42.68C67.4,44.89,65.28,46.41,62.86,46.41L53.36,46.41C52.28,46.41,51.32,45.71,51.03,44.7C50.93,44.32,50.83,43.94,50.73,43.56C49.99,40.69,49.3,38.87,49.26,38.25L48.99,37.14C48.85,36.56,49.13,35.96,49.68,35.69L50.88,35.1C52.19,34.73,56.92,33.01,68.24,34.9C68.81,35,69.27,35.42,69.39,35.97C69.56,36.77,69.61,37.6,69.56,38.42L69.55,38.41Z" fill="#625E5B"/><path d="M50.93,66.92C49.06,65.97,46.7,65.66,45.31,65.66C43.92,65.66,41.63,65.99,39.79,66.92L37.18,69.53L45.41,69.53L53.53,69.53L53.54,69.53Z" fill="#7C7776"/><path d="M34.49,4.18L34.87,7.12C34.87,7.12,47.87,9.01,48.81,9.21C48.81,9.21,49.11,8.74,50,8.35L50.97,8.03C52.32,7.72,54.42,7.68,57.62,8.58L56.51,6.43L49.92,3.51L49.93,3.5Z" fill="#7C7776"/><path d="M37.3,53.08L53.23,53.08L47.05,56.71C46.02,57.32,44.74,57.32,43.71,56.73Z" fill="#E79A7C"/><path d="M48.95,50.41C48.95,48.37,47.3,46.72,45.26,46.72C43.22,46.72,41.57,48.37,41.57,50.41C41.57,52.45,43.22,54.1,45.26,54.1C47.3,54.1,48.95,52.45,48.95,50.41Z" fill="#FCCEAB"/><path d="M48.94,3.73C46.63,-0.07,34.9,1.97,34.9,1.97L32.4,4.36L32.4,4.37C32.4,4.37,51.25,7.53,48.94,3.73Z" fill="#B6B1AF"/></svg>