<svg xmlns="http://www.w3.org/2000/svg" viewBox="0 0 90 90"><path d="M58.94,6.25C53.56,0.61,44.15,0,44.15,0L44.15,0.02C36.94,7.38,32.07,-0.27,25.28,11.66C20.36,13.78,9.45,21.64,19.01,48.08L70.51,48.08C81.97,16.37,64,11.38,62.22,10.97L62.21,10.97C61.43,9.23,60.33,7.63,58.94,6.25Z" fill="#624D41"/><path d="M27.44,13.97C27.44,13.97,6.95,17.68,19,50.24L70.5,50.24C82.55,17.68,62.06,13.97,62.06,13.97L62.07,13.97Z" fill="#45372F"/><path d="M15.5,48.59C13.77,50.4,17.69,54.57,17.69,57.84C17.69,61.11,16.65,65.1,19.41,66.91C22.18,68.73,24.6,66.55,24.6,66.55L23.8,51.86L23.81,51.86C23.81,51.86,17.23,46.78,15.5,48.59Z" fill="#C17258"/><path d="M74.46,48.59C76.19,50.41,72.72,54.57,72.72,57.84C72.72,61.11,73.76,65.1,71,66.91C68.24,68.72,65.81,66.55,65.81,66.55L66.16,51.86L66.15,51.86C66.15,51.86,72.73,46.78,74.46,48.59Z" fill="#C17258"/><path d="M70.61,47.82L19.35,47.82C19.31,49.26,19.2,50.75,18.97,52.21C18.83,53.06,18.74,53.9,18.68,54.74C18.36,60.46,19.91,65.28,20.83,69.87C21.76,74.46,23.97,78.76,28.04,82.02C28.65,82.5,29.29,82.94,29.96,83.34C35.27,86.49,35.99,89.65,40.59,90C40.58,89.97,49.39,89.97,49.39,90C53.99,89.65,54.7,86.5,60.02,83.34C60.7,82.94,61.34,82.49,61.94,82.02C67.52,77.85,69.12,69.87,69.12,69.87C70.05,65.28,71.59,60.46,71.27,54.74C71.21,53.9,71.12,53.06,70.98,52.21L70.99,52.21C70.76,50.75,70.64,49.26,70.61,47.82Z" fill="#624D41"/><path d="M70.75,53.87C70.69,53.06,70.6,52.24,70.47,51.41C69.43,44.94,70.82,37.8,70.82,37.8C71,32.62,69.59,29.68,69.59,29.68L69.63,29.68C66.57,19.21,58.68,16.01,58.68,16.01C55.32,13.82,48.37,13.61,45.78,13.62L44.19,13.62C41.61,13.62,34.65,13.82,31.29,16.01C31.29,16.01,23.41,19.2,20.34,29.68L20.38,29.68L20.32,29.75C20.28,29.9,19.77,30.84,19.43,33.18C19.12,35.34,19.15,37.52,19.43,39.68C19.77,42.23,20.2,46.98,19.48,51.41C19.35,52.23,19.26,53.06,19.2,53.87C18.89,59.43,20.4,64.11,21.31,68.57C22.22,73.03,24.39,77.21,28.37,80.38C28.96,80.85,29.59,81.27,30.26,81.66C35.47,84.72,36.16,87.79,40.68,88.13C42.18,88.24,47.8,88.24,49.3,88.13C53.81,87.79,54.51,84.73,59.72,81.66C60.38,81.27,61.01,80.84,61.61,80.38C67.08,76.33,68.65,68.57,68.65,68.57L68.64,68.57C69.55,64.11,71.06,59.43,70.75,53.87Z" fill="#F5B39C"/><path d="M58.71,75.59L55.59,79.74L53.22,78.71C53.48,78.1,54.66,74.44,52.54,70.26C51.85,70.29,51.04,70.32,50.14,70.33L44.82,70.38C42.05,70.38,39.31,70.34,37.47,70.26C35.35,74.44,36.53,78.1,36.79,78.71L34.42,79.74L31.3,75.59C30.2,74.13,28.86,72.87,27.32,71.88C24.83,70.28,22.3,68.85,20.28,63.87C21.29,70.98,23.75,78.2,30.23,81.76C37.68,86.59,35.74,88.44,44.81,88.41L46.79,88.41L46.79,88.39C54.03,88.18,52.78,86.27,59.75,81.76C66.23,78.2,68.69,70.98,69.7,63.87C67.68,68.85,65.15,70.28,62.66,71.88L62.69,71.88C61.15,72.87,59.81,74.13,58.71,75.59Z" fill="#C08572"/><path d="M57.27,69.23L61.16,70.88C61.32,68.48,60.58,66.23,58.25,66.01C55.11,65.71,51.19,62.13,51.19,62.13L38.81,62.13C38.81,62.13,34.89,65.71,31.75,66.01C29.4,66.24,28.66,68.54,28.85,70.97L32.74,69.24L45.01,68.91L45,68.9Z" fill="#C08572"/><path d="M47.2,48.17L42.8,48.17L39.73,57.39C36.56,59.08,37.22,61.03,37.22,61.03C38.09,62.82,45,63.14,45,63.14C45,63.14,51.91,62.82,52.78,61.03C52.78,61.03,53.45,59.08,50.27,57.39Z" fill="#F5B39C"/><path d="M51.8,50.68L64.74,49.58C66.67,49.42,67.82,47.32,66.88,45.62C65.83,43.71,63.72,41.82,59.49,42.07C58.22,41.94,53.75,41.56,51.62,42.46C50.07,43.1,48.99,43.79,48.34,44.73C47.48,45.99,47.75,47.67,48.86,48.72C49.48,49.3,50.41,49.98,51.8,50.68Z" fill="#E09B84"/><path d="M40.69,48.72C41.8,47.68,42.07,46,41.21,44.74C40.56,43.8,39.48,43.11,37.93,42.47C35.8,41.57,31.33,41.95,30.06,42.08C25.86,41.83,23.75,43.69,22.69,45.59C21.73,47.3,22.86,49.43,24.81,49.59L37.75,50.69C39.14,49.98,40.07,49.3,40.69,48.72Z" fill="#E09B84"/><path d="M50.68,42.79C50.77,41.36,51.79,40.15,53.19,39.85C54.21,39.63,55.39,39.43,56.34,39.41C59.61,39.39,62.24,39.89,62.24,39.89C62.24,39.89,65.83,41.77,66.67,45.2C66.67,45.2,64.47,43.43,59.64,42.86C57.55,42.61,55.42,42.74,53.36,43.15L50.61,43.69L50.62,43.69Z" fill="#5C4841"/><path d="M33.7,38.92C30.43,38.9,27.8,39.4,27.8,39.4C27.8,39.4,24.21,41.28,23.37,44.71C23.37,44.71,26.77,41.98,34.37,42.21C34.37,42.21,37.49,42.6,39.42,43.21L39.42,43.2C39.42,43.2,40.67,39.04,33.7,38.92Z" fill="#5C4841"/><path d="M44.15,3.28L44.15,3.3C36.79,10.64,31.87,2.7,24.84,15.44L29.55,16.83C29.55,16.83,35.22,15.15,41.65,20.32C41.65,20.32,43.07,21.4,45.36,21.27C47.95,21.13,49.43,19.64,49.43,19.64C55.86,14.48,63.54,19.04,63.54,19.04C63.23,15.43,61.64,12,58.94,9.4L58.94,9.39C53.56,3.88,44.15,3.28,44.15,3.28Z" fill="#45372F"/><path d="M44.79,66.89C44.78,66.89,44.76,66.89,44.75,66.89C44.74,66.89,44.72,66.89,44.71,66.89C44.35,66.81,42.92,66.25,42.54,66.28C35.63,67.81,28.5,71,28.5,71L31.85,70.27C31.85,70.27,33.55,70.33,34.13,70.36C36.75,72.27,38.23,73.01,44.72,73.01C44.73,73.01,44.74,73.01,44.76,73.01C44.78,73.01,44.78,73.01,44.8,73.01C51.29,73.01,52.77,72.27,55.39,70.36C55.97,70.34,57.67,70.27,57.67,70.27L61.6,71C61.6,71,53.88,67.82,46.97,66.28L46.96,66.28C46.58,66.25,45.15,66.81,44.79,66.89Z" fill="#F5B39C"/><path d="M45.1,72.05C50.76,72.05,53.42,71.38,56.09,69.2L34.1,69.2L34.11,69.2C36.78,71.38,39.44,72.05,45.1,72.05Z" fill="#E98D91"/><path d="M48.31,67.52C48.14,67.49,47.24,67.16,46.69,67.43C46.17,67.65,45.44,67.92,44.84,67.92C44.24,67.92,43.59,67.67,42.99,67.43C42.44,67.16,41.54,67.49,41.37,67.52C37.75,68.41,32.05,68.8,32.04,68.8L32.34,69.33C36.49,69.49,40.66,69.65,44.82,69.68C48.99,69.65,53.16,69.49,57.3,69.33C57.3,69.33,57.41,68.8,57.4,68.8L57.44,68.8C57.5,68.79,51.94,68.41,48.31,67.52Z" fill="#D07175"/><path d="M37.51,61.91L44.26,63.71C44.75,63.84,45.26,63.84,45.75,63.71L52.5,61.89L45,60.38Z" fill="#F5B39C"/><path d="M28.83,9.6C40.39,16.69,46.97,12.65,51.22,9.61C42.1,11.72,37.02,8.98,37.46,4.81C35.56,5.15,30.85,6.63,28.83,9.6Z" fill="#624D41"/><path d="M43.23,62.33C41.38,61.93,39.31,61.51,39.01,61.47C38.82,61.47,38.64,61.36,38.55,61.18C38.45,60.95,38.53,60.69,38.74,60.55C39.31,60.19,39.91,60.01,40.59,60.01C41.49,60.01,42.37,60.32,43.21,60.62C43.74,60.81,44.23,60.98,44.72,61.08C44.82,61.1,44.91,61.11,45.01,61.11C45.11,61.11,45.2,61.11,45.3,61.08C45.78,60.98,46.28,60.81,46.81,60.62C47.66,60.32,48.53,60.01,49.43,60.01C50.11,60.01,50.72,60.19,51.28,60.55C51.49,60.68,51.57,60.95,51.47,61.18C51.39,61.36,51.21,61.47,51.01,61.47L50.99,61.47C50.74,61.5,48.66,61.93,46.78,62.33C46.27,62.6,45.66,62.75,45.01,62.75L45,62.75C44.35,62.75,43.74,62.6,43.23,62.33Z" fill="#D98B71"/><path d="M44.62,61.58C42.78,61.21,40.85,59.8,39.01,60.97C39.12,60.94,43.41,61.86,43.41,61.86C43.88,62.12,44.44,62.25,45.01,62.25C45.58,62.25,46.15,62.12,46.61,61.86C46.61,61.86,50.9,60.94,51.01,60.97C49.17,59.8,47.23,61.21,45.4,61.58L45.39,61.58C45.13,61.63,44.87,61.63,44.62,61.58Z" fill="#D98B71"/><path d="M54.38,44.74C54.38,44.74,61.59,43.36,63.12,48.33L51.82,47.87Z" fill="#5C4841"/><path d="M52.65,46.99C53.71,46.08,55.53,45.96,57.02,46.04C58.83,46.15,60.41,46.28,61.91,48.37C61.91,48.37,58.45,48.67,53.09,48.2L51.67,48.06L51.67,48.07Z" fill="white"/><path d="M59.31,47.33C59.31,46,58.23,44.93,56.9,44.93C55.57,44.93,54.49,46,54.49,47.33C54.49,48.66,55.57,49.73,56.9,49.73C58.23,49.73,59.31,48.66,59.31,47.33Z" fill="#5C4841"/><path d="M35.62,44.74C35.62,44.74,28.41,43.36,26.88,48.33L38.18,47.87Z" fill="#5C4841"/><path d="M37.35,46.99C36.29,46.08,34.47,45.96,32.98,46.04C31.17,46.15,29.59,46.28,28.09,48.37C28.09,48.37,31.55,48.67,36.91,48.2L38.33,48.06L38.33,48.07Z" fill="white"/><path d="M35.51,47.33C35.51,46,34.43,44.93,33.1,44.93C31.77,44.93,30.69,46,30.69,47.33C30.69,48.66,31.77,49.73,33.1,49.73C34.43,49.73,35.51,48.66,35.51,47.33Z" fill="#5C4841"/></svg>