<svg xmlns="http://www.w3.org/2000/svg" viewBox="0 0 90 90"><path d="M7.91,74.92C5.21,65.44,-0.07,66.83,0,58.61C0.26,52.58,5.03,50.63,5.44,44.1C6.11,32.92,4.73,23.93,18.23,17.02C19.73,16.24,21.04,15.11,21.94,13.69C23.55,11.21,25.16,8.1,26.7,6.26C31.76,-0.26,40.46,2.25,47.66,2.47C52.95,2.44,59.44,0.6,64.31,2.92C71.06,6.04,73.35,14.36,79.61,18.34C84,21.75,88.43,25.65,88.16,31.65C88.24,35.29,86.81,39.94,87.56,43.2C91.73,56.7,89.25,72.26,72.19,74.4C62.1,76.76,49.46,75,39.11,75.49C32.1,88.13,19.58,88.54,6.94,87.6C6.94,87.6,9.08,79.05,7.91,74.92Z" fill="currentColor"/><path d="M86.29,28.65C83.89,23.77,78.3,21.11,74.81,17.32C71.14,13.39,68.74,7.69,63.9,5.51C59.25,3.41,53.4,5.29,47.74,5.29C42.08,5.29,36.23,3.41,31.58,5.51C26.74,7.69,26.06,12.75,22.39,16.65C18.9,20.4,12.79,22.01,10.39,26.89C8.1,31.5,8.14,40.91,7.2,46.2C6,52.84,2.36,54.64,2.1,59.92C2.1,64.46,6.75,66.86,8.36,71.1C10.43,76.5,10.35,81.26,6.98,87.6C14.74,89.4,30.38,88.24,36.79,72.11C51.49,73.69,82.09,82.2,88.24,62.77C90.11,56.92,88.05,51.19,86.55,45.56C85.31,40.35,88.54,33.26,86.29,28.65Z" fill="currentColor"/><path d="M21.9,22.8C10.91,31.2,24.34,50.81,8.48,53.06C18.15,44.66,4.09,26.06,21.9,22.8Z" fill="currentColor"/><path d="M27.49,71.74C30.45,78.3,22.76,86.55,16.09,82.84C17.78,82.2,26.25,77.59,27.49,71.74Z" fill="currentColor"/><path d="M43.2,12.49C45.15,29.66,23.74,25.35,21,39.98C18.15,22.5,38.33,25.46,43.2,12.49Z" fill="currentColor"/><path d="M44.21,9.04C33.9,13.88,27.26,19.99,27.26,19.99C29.89,4.65,44.21,9.04,44.21,9.04Z" fill="currentColor"/><path d="M76.46,55.54L83.66,48.75C83.66,48.75,86.33,58.01,76.46,55.54Z" fill="currentColor"/><path d="M85.31,56.1C88.05,64.61,78.41,74.55,69.94,69.83C72.19,69,83.33,61.2,85.31,56.1Z" fill="currentColor"/><path d="M74.36,49.84C75.41,46.13,73.05,42.45,70.35,45L68.81,59.51C71.25,62.21,73.13,59.29,73.65,54.52C73.8,53.14,74.1,51.19,74.36,49.84Z" fill="currentColor"/><path d="M21.04,49.84C19.99,46.13,22.35,42.45,25.05,45L26.59,59.51C24.15,62.21,22.28,59.29,21.75,54.52C21.6,53.14,21.3,51.19,21.04,49.84Z" fill="currentColor"/><path d="M47.18,18C42.23,36.94,25.76,29.55,25.09,41.36C25.46,47.14,22.91,53.29,25.76,58.88C29.51,68.78,36.9,82.28,46.5,82.28L48.94,82.28C58.54,82.28,65.89,68.74,69.64,58.88C72,53.21,70.35,47.29,70.35,41.4L70.35,41.36C71.66,26.4,61.05,17.36,47.18,18Z" fill="currentColor"/><path d="M58.28,65.7C55.88,69.6,52.65,74.17,47.7,74.14C42.53,74.25,39.86,69.45,37.13,65.7C37.73,65.59,43.31,64.24,45.08,64.24C46.84,64.24,46.76,64.65,47.66,64.65C48.56,64.65,48.41,64.24,50.25,64.24C52.05,64.24,58.28,65.7,58.28,65.7Z" fill="currentColor"/><path d="M56.48,66.64C54.04,68.92,51.3,70.24,47.7,70.24C44.06,70.24,41.7,68.89,39.15,66.79C39.08,66.75,39.04,66.67,38.96,66.64C40.76,67.09,54.71,67.09,56.48,66.64Z" fill="currentColor"/><path d="M32.25,49.39C32.25,49.39,26.96,46.27,26.96,42C26.96,34.42,42.49,37.95,45.04,41.63C45.83,42.49,45.45,46.27,45.34,47.7C45.26,49.05,33.98,49.84,32.25,49.39Z" fill="currentColor"/><path d="M43.5,39.49C43.2,38.85,40.65,38.51,37.31,37.8C35.66,37.42,33.49,37.46,32.18,37.69C28.84,38.25,27.56,41.63,27.56,41.63C27.56,41.63,30.11,39.86,32.89,40.27C35.1,40.61,39.64,41.1,44.03,42.56L43.99,42.6C43.99,42.6,43.73,40.01,43.5,39.49Z" fill="currentColor"/><path d="M31.69,46.88C31.69,46.88,31.91,45.67,32.63,45.11C38.14,42.08,41.25,46.42,41.66,47.51C40.91,47.85,35.21,49.13,31.69,46.88Z" fill="currentColor"/><path d="M33.68,46.42C33.68,45.56,34.09,44.77,34.73,44.25C36.34,43.84,37.69,44.1,38.74,44.59C39.19,45.08,39.45,45.71,39.45,46.39C39.45,46.99,39.23,47.59,38.89,48.04C37.58,48.26,35.25,48.19,34.09,47.81L34.09,47.85C33.83,47.44,33.68,46.95,33.68,46.42Z" fill="currentColor"/><path d="M45.64,61.54C46.84,62.74,48.75,62.74,49.95,61.54L52.73,58.76L42.86,58.76Z" fill="currentColor"/><path d="M36.11,44.59C33.23,44.59,30.56,48.08,28.5,45.34C30.79,46.5,32.51,42.86,35.78,42.86C38.48,42.86,41.36,44.33,41.1,46.61L41.14,46.61C40.16,45.23,37.76,44.59,36.11,44.59Z" fill="currentColor"/><path d="M63.23,49.31C63.23,49.31,68.51,46.2,68.51,41.92C68.51,34.35,52.99,37.88,50.44,41.55C49.65,42.41,50.03,46.2,50.14,47.63C50.21,48.98,61.5,49.76,63.23,49.31Z" fill="currentColor"/><path d="M51.94,39.38C52.24,38.74,54.79,38.4,58.13,37.69C59.78,37.31,61.95,37.35,63.26,37.58C66.6,38.14,67.88,41.51,67.88,41.51C67.88,41.51,65.33,39.75,62.55,40.16C60.34,40.5,55.8,40.99,51.41,42.45L51.45,42.49C51.45,42.49,51.71,39.9,51.94,39.38Z" fill="currentColor"/><path d="M63.71,46.88C63.71,46.88,63.49,45.67,62.78,45.11C57.26,42.08,54.15,46.42,53.74,47.51C54.49,47.85,60.19,49.13,63.71,46.88Z" fill="currentColor"/><path d="M61.35,47.85C61.61,47.44,61.76,46.95,61.76,46.42C61.76,45.56,61.35,44.77,60.71,44.25C59.06,43.84,57.71,44.1,56.66,44.63C56.25,45.11,55.99,45.75,55.99,46.42C55.99,47.02,56.18,47.63,56.55,48.08L56.51,48.08C57.71,48.3,60,48.26,61.35,47.85Z" fill="currentColor"/><path d="M59.29,44.59C62.18,44.59,64.84,48.08,66.9,45.34C64.61,46.5,62.89,42.86,59.63,42.86C56.93,42.86,54.04,44.33,54.3,46.61L54.26,46.61C55.24,45.23,57.64,44.59,59.29,44.59Z" fill="currentColor"/></svg>