<svg xmlns="http://www.w3.org/2000/svg" viewBox="0 0 90 90"><path d="M76.57,33.34C76.55,32.91,76.52,32.52,76.47,32.14L13.93,32.14C13.88,32.52,13.85,32.91,13.83,33.34C13.81,33.56,13.78,33.79,13.76,34.01C13.77,35.21,15.92,39.21,15.59,43.93L17.47,43.93L75.24,43.93C74.96,39.2,76.63,35.21,76.64,34.01C76.62,33.78,76.6,33.56,76.57,33.34Z" fill="#162921"/><path d="M78.35,44.9C77.76,41.71,76.11,39.55,71.73,43.62C71.73,43.62,63.25,41.56,67.01,57.13C67.17,57.85,67.36,58.62,67.57,59.43C69.26,58.63,71.33,59.2,72.29,60.69C73.71,62.91,76.43,60.25,77.07,58.01C77.07,58.01,79.05,52.5,78.83,48.28L78.84,48.28C78.78,47.1,78.64,45.9,78.35,44.9Z" fill="#86533E"/><path d="M18.21,43.78C17.45,43.16,16.78,42.75,16.19,42.5C12.15,39.79,11.15,43.78,10.96,47.52C10.75,51.73,12.72,57.25,12.72,57.25C13.06,58.45,14,59.77,15.01,60.4C16.08,61.5,17.44,61.98,18.32,60.61C19.28,59.11,21.35,58.55,23.04,59.35C25.85,48.89,23.66,45.66,21.55,44.72L21.56,44.72C20.34,43.69,18.88,43.71,18.21,43.78Z" fill="#86533E"/><path d="M58.89,80.35C62.03,78.75,64.73,76.51,66.83,73.73L64.33,48.67L28.83,48.63L26.38,73.18C28.52,76.22,31.37,78.65,34.7,80.35L34.71,80.35C37.61,80.3,56.13,80.3,58.89,80.35Z" fill="#95634E"/><path d="M22.32,69.4C22.8,72.34,24.09,75.37,25.89,78.22L26.39,73.18C24.39,70.35,23,66.98,22.41,63.2C22.28,66.54,22.27,69.1,22.32,69.4Z" fill="#86533E"/><path d="M18.43,35.3C18.46,38.33,17.45,61.22,17.6,62.22C19.54,75.41,34.94,89.25,45.17,89.25C45.17,89.25,45.19,89.25,45.2,89.25C45.2,89.25,45.22,89.25,45.23,89.25C55.88,89.25,70.87,75.41,72.8,62.22C72.95,61.22,72.22,38.33,72.24,35.3C72.22,35.1,72.48,9.32,45.2,9.32C17.92,9.32,18.45,35.1,18.43,35.3Z" fill="#A9745D"/><path d="M45.11,9.77C17.25,9.77,17.98,29.07,18.34,39.35C21.91,38.08,33.75,33.81,45.38,33.81C57.01,33.81,68.75,38.16,72.32,39.43C72.83,24.47,72.97,9.77,45.11,9.77Z" fill="#86533E"/><path d="M45.4,78.45C45.4,78.45,45.35,78.45,45.33,78.45C45.3,78.45,45.26,78.45,45.23,78.45L45.22,78.45C45.22,78.45,45.15,78.45,45.12,78.45C45.1,78.45,45.07,78.45,45.05,78.45C31.21,78.38,19.9,69.63,17.76,55.96C17.62,59.72,17.61,62.61,17.66,62.95C19.72,75.47,34.63,89.25,45.06,89.4C45.06,89.4,45.15,89.4,45.2,89.4C45.2,89.4,45.21,89.4,45.22,89.4C45.22,89.4,45.23,89.4,45.24,89.4C45.24,89.4,45.25,89.4,45.26,89.4C45.26,89.4,45.27,89.4,45.28,89.4C45.33,89.4,45.37,89.4,45.42,89.4C55.84,89.24,70.76,75.47,72.82,62.95C72.87,62.61,72.9,59.73,72.76,55.96L72.73,55.96C70.59,69.63,59.24,78.38,45.4,78.45Z" fill="#86533E"/><path d="M31.16,75.3C34.27,87.86,36.06,89.83,44.51,89.99C44.51,89.99,45.64,90,45.87,90C54.32,89.82,56.11,87.86,59.22,75.3L59.23,75.3C59.25,75.22,31.14,75.22,31.16,75.3Z" fill="#484542"/><path d="M31.28,74.31C34.39,86.87,36.18,88.84,44.63,89C44.63,89,45.76,89.01,45.99,89.01C54.44,88.83,56.23,86.87,59.34,74.31L59.35,74.31C59.37,74.23,31.26,74.23,31.28,74.31Z" fill="#252321"/><path d="M26.85,60.58C26.86,62.36,29.85,73,30.09,73.54C35.62,86,36.46,87.48,44.94,87.48C54.09,87.48,55.36,85.09,60.11,73.54C60.32,73.02,63.54,62.39,63.55,60.6C63.64,50.73,54.08,42.85,45.2,42.85C36.33,42.85,26.77,50.72,26.85,60.58Z" fill="#A9745D"/><path d="M32.67,34.13C34.08,34.16,41.59,40.77,41.59,42.27C41.59,43.51,40.81,44.59,39.69,44.93C36.52,45.88,33.37,46.88,31.26,46.89C26.98,46.91,21.67,44.78,21.41,42.61C21.15,40.43,21.38,36.2,25.94,34.81L25.95,34.81C27.28,34.4,30.25,34.07,32.67,34.13Z" fill="#955C45"/><path d="M47.71,58L45.12,57.98L45.05,57.98L44.98,57.98L42.39,58L31.04,59.35C30.79,59.38,30.56,59.51,30.37,59.74L30.13,60.03C29.57,60.69,29.52,63.64,30.04,64.37L31.82,65.17L58.32,65.17L60.1,64.37C60.61,63.63,60.57,60.68,60.01,60.03L59.77,59.74C59.58,59.52,59.34,59.38,59.1,59.35L59.06,59.35Z" fill="#86533E"/><path d="M27.85,33.63C25.17,35.24,21.37,38.23,21.37,40.78C23.13,37.39,24.24,37.39,26.68,36.4C29.36,35.98,31.58,35.95,33.42,36.14C34.48,36.25,35.55,36.32,36.62,36.33L36.62,35.78C36.62,34.91,36.21,34.12,35.56,33.62L35.56,33.63Z" fill="#633D2E"/><path d="M48.78,79.88C50.76,78.29,52.28,75.9,53.13,74.39L36.74,74.39C38.11,76.99,39.47,78.76,40.79,79.88Z" fill="#86533E"/><path d="M36.85,75.43C35.66,74.61,34.77,73.49,34.34,72.28L30.77,64.23C30.67,64,30.68,63.72,30.8,63.5C30.91,63.3,31.09,63.18,31.29,63.18C31.31,63.18,31.33,63.18,31.35,63.18L45.24,64.81L59.06,63.18C59.06,63.18,59.1,63.18,59.12,63.18C59.32,63.18,59.5,63.3,59.61,63.5C59.73,63.72,59.74,64,59.63,64.24L55.86,72.45C55.31,73.95,54.2,74.93,53.36,75.49C52.37,76.15,51.23,76.56,50.38,76.56L39.87,76.56L39.87,76.55C39.01,76.55,37.85,76.12,36.85,75.43Z" fill="#A9745D"/><path d="M57.73,34.13C56.32,34.16,48.81,40.77,48.81,42.27C48.81,43.51,49.59,44.59,50.71,44.93C53.88,45.88,57.03,46.88,59.14,46.89C63.42,46.91,68.73,44.78,68.99,42.61C69.25,40.43,69.02,36.2,64.46,34.81L64.45,34.81C63.12,34.4,60.15,34.07,57.73,34.13Z" fill="#955C45"/><path d="M29.13,61.43C29.05,61.74,29.01,62.06,29.01,62.37L29.01,62.32C29.11,63.08,29.29,63.88,29.49,64.67C30.08,67.08,30.8,69.49,31.07,71.98C30.38,70.45,29.75,68.92,29.19,67.34C28.64,65.71,28.1,64.12,27.94,62.37C28.02,59.27,31.31,56.98,33.93,55.97C32.08,57.33,29.77,59.16,29.13,61.43Z" fill="#815340"/><path d="M62.18,62.37C62.02,64.12,61.48,65.71,60.93,67.34C60.37,68.92,59.75,70.45,59.05,71.98C59.32,69.5,60.04,67.09,60.63,64.67C60.83,63.88,61.01,63.08,61.11,62.32L61.11,62.37C61.11,62.06,61.07,61.74,60.99,61.43C60.35,59.17,58.04,57.33,56.19,55.97C58.81,56.97,62.1,59.27,62.18,62.37Z" fill="#815340"/><path d="M36.38,75.26C35.06,74.41,34.06,73.24,33.58,71.97L30.02,64.44C29.8,63.98,29.85,63.44,30.15,63.03C30.41,62.66,30.84,62.44,31.29,62.44C31.34,62.44,31.39,62.44,31.44,62.44L45.24,63.96L58.96,62.44C59.01,62.44,59.06,62.44,59.11,62.44C59.56,62.44,59.99,62.66,60.25,63.03C60.54,63.45,60.59,63.99,60.36,64.45L56.6,72.12C56.11,73.35,55.12,74.48,53.8,75.3C52.67,76.01,51.38,76.43,50.37,76.43L39.86,76.43L39.87,76.44C38.84,76.44,37.53,76,36.38,75.26Z" fill="#A9745D"/><path d="M36.76,74.68C35.55,73.9,34.65,72.84,34.23,71.7L30.66,64.15C30.55,63.92,30.58,63.65,30.72,63.45C30.85,63.27,31.06,63.16,31.29,63.16C31.32,63.16,31.34,63.16,31.37,63.16L45.25,64.69L59.05,63.16C59.05,63.16,59.1,63.16,59.13,63.16C59.36,63.16,59.57,63.27,59.7,63.46C59.85,63.67,59.87,63.94,59.76,64.17L55.99,71.87C55.56,72.97,54.66,73.99,53.46,74.74C52.43,75.38,51.29,75.77,50.4,75.77L39.89,75.77L39.87,75.75C38.96,75.75,37.8,75.35,36.76,74.68Z" fill="#A9745D"/><path d="M35.64,71.7C36.41,73.8,38.93,75.05,40.27,75.05L50,75.05C51.31,75.05,53.8,73.85,54.58,71.83L58.08,64.68L45.24,66.1L32.33,64.68L32.32,64.68Z" fill="#A36064"/><path d="M50.37,71.42C50.37,71.42,50.37,71.42,50.36,71.42L39.85,71.42C38.62,71.42,37.46,70.86,36.68,69.87C36.1,69.18,33.19,65.81,32.51,65.05C32.36,64.89,32.33,64.65,32.44,64.46C32.54,64.28,32.73,64.17,32.94,64.17C32.96,64.17,32.97,64.17,32.99,64.17L45.28,66.1L57.4,64.16C57.4,64.16,57.43,64.16,57.45,64.16C57.66,64.16,57.85,64.27,57.95,64.45C58.05,64.64,58.03,64.87,57.88,65.04L54.27,69.03C53.28,70.27,52.14,71.41,50.5,71.41L50.51,71.42C50.51,71.42,50.42,71.42,50.37,71.42Z" fill="white"/><path d="M47.11,43.59C46.02,42.31,43.85,42.36,42.82,43.68C41.02,45.99,39.26,49.36,38.94,52.37C36.58,52.45,36.26,54.63,36.39,56.17C38.8,57.13,42.49,60.53,43.18,60.53L46.99,60.53C47.76,60.54,51.61,57.14,54.02,56.18C54.15,54.64,53.83,52.45,51.47,52.38L51.46,52.38C51.13,49.33,49.09,45.9,47.11,43.59Z" fill="#A9745D"/><path d="M64.28,4.29C62.7,3.86,45.63,0,45.63,0C45.63,0,28.42,3.86,26.85,4.29C18.88,6.47,14.59,12.33,14.59,19.7L14.59,33.37C14.59,33.37,26.93,26.54,45.57,26.53C64.21,26.54,76.55,33.37,76.55,33.37L76.55,19.7L76.54,19.7C76.54,12.33,72.25,6.47,64.28,4.29Z" fill="#939E70"/><path d="M74.96,19.89C74.42,13.67,70.4,8.79,63.36,6.89C61.86,6.49,45.62,2.87,45.62,2.87C45.62,2.87,29.26,6.49,27.76,6.89C20.79,8.77,16.78,13.57,16.18,19.71C15.87,22.88,15.48,26.04,15.06,29.2L14.72,31.76C14.72,31.76,27.83,27.76,45.56,27.75C63.29,27.76,76.09,31.54,76.09,31.54L75.65,27.35L75.66,27.35C75.4,24.87,75.18,22.38,74.96,19.89Z" fill="#6A7838"/><path d="M45.68,26.53C63.14,26.53,74.09,32.4,74.09,32.4L72.48,35.75C72.48,35.75,60.65,30.61,45.67,30.61C30.69,30.61,18.24,36.21,18.24,36.21L16.45,32.85L16.45,32.84C16.45,32.84,28.22,26.53,45.68,26.53Z" fill="#303834"/><path d="M26.8,43.15C26.8,43.15,27.21,38.96,32.4,38.96C35.46,38.96,37.38,40.84,38.41,43.07L38.42,43.07C38.42,43.07,29.15,42.98,26.8,43.15Z" fill="#724735"/><path d="M63.29,43.15C63.29,43.15,62.88,38.96,57.69,38.96C54.63,38.96,52.71,40.84,51.68,43.07L51.67,43.07C51.67,43.07,60.94,42.98,63.29,43.15Z" fill="#724735"/><path d="M63.29,43.7C63.29,43.7,62.25,42.21,57.69,41.94C54.63,41.94,52.71,42.67,51.68,43.7L51.67,43.7C51.67,43.7,56.94,45.9,63.29,43.7Z" fill="white"/><path d="M59.73,43.01C59.73,41.74,58.66,40.71,57.34,40.71C56.02,40.71,54.95,41.74,54.95,43.01C54.95,44.28,56.02,45.31,57.34,45.31C58.66,45.31,59.73,44.28,59.73,43.01Z" fill="#252321"/><path d="M26.8,43.15C26.8,43.15,27.21,38.96,32.4,38.96C35.46,38.96,37.38,40.84,38.41,43.07L38.42,43.07C38.42,43.07,29.15,42.98,26.8,43.15Z" fill="#724735"/><path d="M26.8,43.7C26.8,43.7,27.84,42.21,32.4,41.94C35.46,41.94,37.38,42.67,38.41,43.7L38.42,43.7C38.42,43.7,33.15,45.9,26.8,43.7Z" fill="white"/><path d="M35.14,43.01C35.14,41.74,34.07,40.71,32.75,40.71C31.43,40.71,30.36,41.74,30.36,43.01C30.36,44.28,31.43,45.31,32.75,45.31C34.07,45.31,35.14,44.28,35.14,43.01Z" fill="#252321"/><path d="M45.28,64.55C45.25,64.57,45.22,64.59,45.19,64.61C45.16,64.59,45.13,64.57,45.1,64.55C42.59,62.78,31.36,62.98,31.36,62.98C30.8,62.98,30.48,63.12,30.82,63.9L45.14,66.82L45.19,66.82L45.24,66.82L59.56,63.9C59.9,63.12,59.58,62.98,59.02,62.98C59.02,62.98,47.79,62.78,45.28,64.55Z" fill="#A9745D"/><path d="M36.56,60.63L36.56,54.45L43.4,59.06C44.4,59.73,45.69,59.75,46.71,59.11L54.05,54.46L54.05,60.64L54.05,60.63Z" fill="#86533E"/><path d="M54.57,33.95C54.41,33.95,54.25,33.95,54.1,33.93C53.63,34.42,53.35,35.08,53.35,35.79L53.35,36.34C54.45,36.33,55.55,36.26,56.64,36.15C58.53,35.96,60.81,35.99,63.57,36.41C66.09,37.4,67.23,37.41,69.04,40.79C69.04,38.4,65.61,35.63,62.91,33.96L62.91,33.95Z" fill="#633D2E"/><path d="M46.41,26.25C54.34,26.25,62.2,28.09,69.95,31.76L76.8,31.76C71.62,28.59,67.02,26.2,61.75,24.65C56.29,23.04,50.71,22.29,45.17,22.42C39.7,22.55,34.12,23.53,28.6,25.35C23.96,26.88,20.09,29.03,15.41,31.75L22.41,31.75L22.42,31.76C30.47,28.09,38.48,26.25,46.41,26.25Z" fill="#939E70"/><path d="M11.45,34.68C11.15,34,11.45,33.2,12.14,32.9C17.61,30.48,23.15,28.22,28.6,26.95C34.12,25.67,39.7,24.97,45.17,24.88C50.71,24.79,56.29,25.32,61.75,26.45C67.28,27.6,72.83,29.78,78.24,32.18C78.92,32.48,79.23,33.28,78.93,33.96C78.63,34.64,77.83,34.95,77.15,34.65C67.08,30.19,56.81,27.96,46.41,27.96C35.47,27.96,24.38,30.43,13.24,35.37C13.06,35.45,12.88,35.49,12.69,35.49L12.69,35.48C12.17,35.48,11.68,35.18,11.45,34.68Z" fill="#305730"/></svg>