<svg xmlns="http://www.w3.org/2000/svg" viewBox="0 0 90 90"><path d="M30.38,40.39C30.38,40.25,30.39,40.11,30.4,39.97C30.74,34.01,32.43,34.06,32.54,28.09C32.65,22.11,31.47,22.09,31.75,16.12C32.7,13.15,30.34,14.75,29.17,14.16C28.69,13.82,28.95,12.34,28.33,12.01C27.79,11.72,26.55,12.66,25.91,12.41C24.38,11.81,22.84,10.64,19.84,11.27C16.37,11.99,15.9,15.76,14.24,17.63C12.84,19.2,10.16,19.53,9.08,21.62C8.11,23.49,8.71,25.69,7.23,28.38C5.79,30.03,2.03,33.7,4.53,38.71C4.94,39.69,8.51,44.72,8.42,45.41L8.44,45.41Z" fill="#494749"/><path d="M55.35,35.99C53.38,41.3,56.71,42.2,57.96,46.75C57.96,48.51,56.23,50.14,55.85,51.87C55.86,58.9,56.81,56.38,52.26,61.71C50.93,63.52,50.98,65.3,51.47,67.06L80.93,67.06C81.08,66.74,81.26,66.4,81.46,66.05C89.05,64.14,83.95,55.42,84.19,55.1C87.39,50.73,85.38,46.81,82.22,43.94C82.2,43.94,80.47,44.51,79.42,42.83C83.15,35.82,80.09,28.86,76.12,26.15C74.96,25.45,74.2,24.23,74.41,22.89C74.87,20.22,73.5,17.28,70.69,16.41C68.87,13.56,66.03,11.53,62.63,11.09C59.85,5.16,56.73,6.94,51.63,5.09C49.38,3.98,46.43,-0.82,37.94,0.12C36.52,0.28,33.84,1.37,32.51,1.88C27.85,3.69,20.08,4.16,18.1,8.43C17.34,9.73,17.57,13.15,21.85,14.3C21.52,15.21,20.45,19.07,20.28,29.4C22.35,29.07,23.93,27.33,23.93,25.23C23.93,24.6,22.02,19.38,27.18,16.73C30,23.2,36.61,27.73,44.32,27.73C44.32,27.73,46.86,32.7,53.25,33.37L53.28,33.38C53.53,34.51,54.44,35.18,55.35,35.99Z" fill="#494749"/><path d="M28.66,67.28C27.21,63.28,29.89,60.27,30.15,54.98C30.49,48.9,29.03,48.83,29.36,42.75C29.7,36.67,31.39,36.73,31.5,30.64C31.61,24.55,30.43,24.52,30.71,18.44C31.66,15.41,29.3,17.04,28.13,16.45C27.65,16.1,27.91,14.59,27.29,14.25C26.75,13.95,25.51,14.91,24.87,14.66C23.34,14.05,20.79,13.42,18.17,15.03C16.44,16.09,15.6,18.63,13.94,20.53C12.54,22.13,10.27,22.63,9.19,24.76C8.22,26.67,9.17,28.94,5.22,32C3.47,33.36,3.15,37.06,4.94,40.69C6.57,44.61,3.16,45.48,3.73,49.16C4.26,52.57,5.71,52.27,5.38,54.99C4.58,58.29,6.38,62.7,11.6,66.16C20.72,73.67,23.88,70.38,26.49,69.42L26.5,69.42C27.22,68.71,27.94,67.99,28.66,67.28Z" fill="#494749"/><path d="M31.75,70.95C31.85,70.81,31.94,70.67,32.04,70.52C27.12,64.65,31.23,61.59,31.55,54.97C31.89,48.89,30.43,48.82,30.76,42.74C31.1,36.66,32.79,36.72,32.9,30.63C33.01,24.54,31.83,24.51,32.11,18.43C33.06,15.4,30.7,17.03,29.53,16.44C29.05,16.09,29.31,14.58,28.69,14.24C28.15,13.94,26.91,14.9,26.27,14.65C24.74,14.04,22.19,13.41,19.56,15.02C17.83,16.08,16.99,18.62,15.33,20.52C13.93,22.12,11.66,22.62,10.58,24.75C9.61,26.66,10.56,28.93,6.61,31.99C4.86,33.35,4.54,37.05,6.33,40.68C7.96,44.6,4.55,45.47,5.12,49.15C5.65,52.56,7.1,52.26,6.77,54.98C5.97,58.28,7.77,62.69,12.99,66.15L13.01,66.15C26.38,77.17,26.94,64.93,31.75,70.95Z" fill="#373437"/><path d="M30.6,56.5C30.38,56.84,30.12,57.13,29.83,57.36C29.85,57.6,29.86,57.85,29.86,58.1C29.86,63.8,25.24,68.41,19.55,68.41C17.33,68.41,15.27,67.71,13.59,66.51C15.43,69.35,18.62,71.23,22.26,71.23C27.96,71.23,32.57,66.61,32.57,60.92C32.57,58.96,32.02,57.12,31.07,55.56L31.06,55.57C30.93,55.89,30.79,56.21,30.6,56.5Z" fill="#494749"/><path d="M56.56,23.42C54.38,17.63,50.25,16.03,40.67,16.03C40.17,16.03,39.67,16.03,39.17,16.05C38.67,16.04,38.17,16.03,37.67,16.03C28.08,16.03,24.74,19.35,22.56,25.14C21.28,35.93,17.74,40.21,17.66,41.12C17.46,43.71,17.95,46.18,18.58,48.62C20.98,58,20.99,61.09,23.06,63.55C27.08,68.33,28.55,69.55,33.67,72.48C35.46,73.51,37.39,73.33,39.07,73.32C39.11,73.32,39.14,73.32,39.18,73.32C39.18,73.32,39.26,73.32,39.3,73.32C40.98,73.33,42.9,73.51,44.7,72.48C49.82,69.55,51.29,68.32,55.31,63.55C57.38,61.09,57.39,58.01,59.79,48.62C60.41,46.18,60.9,43.71,60.71,41.12L60.68,41.13C60.6,40.22,57.84,34.21,56.56,23.42Z" fill="#D8A287"/><path d="M36.28,42.46C36.28,40.08,35.18,39.33,34.45,38.63C33.34,37.85,33.41,37.65,26.15,36.74C25.06,36.94,20.51,37.16,20.51,40.55C20.51,40.93,20.58,41.29,20.7,41.64L36.23,42.82C36.26,42.7,36.28,42.58,36.28,42.46Z" fill="#B77967"/><path d="M42.31,42.46C42.31,40.08,43.41,39.33,44.14,38.63C45.25,37.85,45.18,37.65,52.44,36.74C53.53,36.94,58.08,37.16,58.08,40.55C58.08,40.93,58.01,41.29,57.89,41.64L42.36,42.82C42.33,42.7,42.31,42.58,42.31,42.46Z" fill="#B77967"/><path d="M45.95,36.11C46.42,36.04,46.96,35.95,47.6,35.81C49.21,35.46,51.85,34.61,53.12,34.6C55.81,34.97,57.24,38.92,57.24,38.92C57.24,38.92,56.17,37.75,52.72,37.45C49.49,37.85,46.26,38.52,43.26,39.05L43.26,39.06C43.26,37.5,44.41,36.34,45.95,36.11Z" fill="#373437"/><path d="M34.13,53.26C34.42,53.49,34.85,53.62,35.31,53.75C32.63,54.78,31.79,50.71,34.47,50.21C33.5,51.2,33.18,52.39,34.13,53.26Z" fill="#AF7E64"/><path d="M43.02,53.75C43.48,53.62,43.92,53.49,44.2,53.26C45.15,52.39,44.83,51.19,43.86,50.21C46.54,50.71,45.7,54.78,43.02,53.75Z" fill="#AF7E64"/><path d="M39.57,55.57C38.12,55.71,36.79,54.44,35.98,53.37L37.52,54.19C38.03,54.45,38.53,54.69,39.03,54.83C38.78,54.8,39.33,54.81,39.57,54.82C40.03,54.66,41.64,53.9,42.52,53.37C41.8,54.38,40.79,55.24,39.57,55.57Z" fill="#AF7E64"/><path d="M38.2,55.81C38.79,56.12,39.54,56.12,40.14,55.81L44.87,53.35L33.47,53.35Z" fill="#AF7E64"/><path d="M38.25,56.06C38.81,56.35,39.52,56.35,40.08,56.06L44.56,53.73L33.77,53.73Z" fill="#AF7E64"/><path d="M38.96,65.11L39.54,65.11C45.77,65.11,48.24,59.11,48.41,58.67L30.08,58.67L30.09,58.67C30.27,59.12,32.74,65.11,38.96,65.11Z" fill="#9A4043"/><path d="M38.97,61.89L39.54,61.89C43.97,61.89,46.48,59.9,47.61,58.67L30.91,58.67L30.9,58.67C32.03,59.9,34.54,61.89,38.97,61.89Z" fill="white"/><path d="M42.71,57.56C41.74,57.38,40.74,57.4,39.77,57.62L39.25,57.74L38.73,57.62C37.76,57.4,36.77,57.38,35.79,57.56C34.33,57.83,32,58.17,30.26,57.94C28.45,57.7,29.83,58.65,29.83,58.65C29.83,58.65,35.15,59.27,38.35,59.02L39.36,59.13L40.14,59.02C43.34,59.27,48.66,58.65,48.66,58.65C48.66,58.65,50.04,57.7,48.23,57.94L48.24,57.94C46.5,58.17,44.18,57.84,42.71,57.56Z" fill="#9A4043"/><path d="M31.83,36.11C31.36,36.04,30.82,35.95,30.18,35.81C28.57,35.46,25.93,34.61,24.66,34.6C21.97,34.97,20.54,38.92,20.54,38.92C20.54,38.92,21.61,37.75,25.06,37.45C28.29,37.85,31.52,38.52,34.52,39.05L34.52,39.06C34.52,37.5,33.37,36.34,31.83,36.11Z" fill="#373437"/><path d="M33.63,42.25C29.66,43.41,26.95,43.98,24.14,41.37C24.14,41.37,24.79,40.77,25.75,40.39C28.63,39.24,29.68,39.25,32.39,40.62L32.38,40.62C33.25,41.44,34.21,41.99,33.63,42.25Z" fill="white"/><path d="M31.28,41.43C31.28,40.32,30.26,39.41,29,39.41C27.74,39.41,26.72,40.32,26.72,41.43C26.72,42.55,27.74,43.45,29,43.45C30.26,43.45,31.28,42.55,31.28,41.43Z" fill="#373437"/><path d="M44.88,42.25C48.85,43.41,51.56,43.98,54.37,41.37C54.37,41.37,53.69,40.77,52.72,40.39C49.84,39.24,48.47,39.56,46.12,40.62L46.13,40.62C45.26,41.44,44.3,41.99,44.88,42.25Z" fill="white"/><path d="M51.79,41.43C51.79,40.32,50.77,39.41,49.51,39.41C48.25,39.41,47.23,40.32,47.23,41.43C47.23,42.55,48.25,43.45,49.51,43.45C50.77,43.45,51.79,42.55,51.79,41.43Z" fill="#373437"/><path d="M23.95,41.15L23.91,41.19C23.55,41.5,22.98,41.57,22.5,41.59C23,41.73,23.52,41.84,24.03,41.7C24.38,42.16,25.45,43.27,27.83,43.62C28.24,43.68,28.63,43.71,29,43.71C29.84,43.71,30.64,43.55,31.63,43.22C33.2,42.69,34.04,42.63,34.05,42.63L34.57,42.6L34.27,42.18C34.21,42.09,32.68,39.97,29.79,39.54L29.78,39.53C26.19,39.11,24.04,41.07,23.95,41.15Z" fill="#373437"/><path d="M27.9,43.05C25.85,42.75,24.87,41.82,24.53,41.41C25.12,40.97,26.97,39.79,29.7,40.1C31.61,40.39,32.9,41.52,33.46,42.13C33.03,42.21,32.35,42.36,31.44,42.68L31.44,42.67C30.07,43.13,29.15,43.23,27.9,43.05Z" fill="#373437"/><path d="M54.68,41.25L54.56,41.15C54.47,41.07,52.25,39.11,48.66,39.53C45.78,39.96,44.25,42.09,44.18,42.18L43.88,42.61L44.4,42.64C44.4,42.64,45.31,42.7,46.89,43.23C47.89,43.57,48.69,43.72,49.52,43.72C49.9,43.72,50.28,43.69,50.69,43.63C53.06,43.28,54.13,42.17,54.48,41.71C54.99,41.85,55.51,41.74,56,41.6L56.01,41.59C55.57,41.57,55.04,41.5,54.68,41.25Z" fill="#373437"/><path d="M47.07,42.67C46.13,42.35,45.42,42.2,44.98,42.12C45.54,41.52,46.83,40.39,48.74,40.1C51.47,39.78,53.37,40.97,53.98,41.41C53.64,41.82,52.66,42.74,50.62,43.04L50.61,43.05C49.37,43.24,48.44,43.14,47.07,42.67Z" fill="#373437"/><path d="M56.8,65.5C53.51,70.14,59.96,72.22,53.11,77.75C51.37,80.95,49.61,85.33,55.72,90C55.72,90,56.28,86.58,61.67,85.63C67.47,84.6,67.62,79.11,71.96,79.71C77.44,79.98,78.37,77.82,79.52,74.72C80.25,72.75,81.42,70.96,82.96,69.53C86.02,66.69,87.49,61.81,84.2,55.11L55.85,60.17L55.85,60.16C55.85,62.13,59.85,61.8,56.8,65.5Z" fill="#494749"/><path d="M81.87,44.78C81.35,41.79,79.82,43.11,78.79,41.45C81.48,36.96,79.19,31.19,75.35,28.5C74.23,27.81,73.5,26.6,73.7,25.27C74.14,22.62,72.82,19.72,70.11,18.85C68.35,16.03,65.07,14.09,61.78,13.66C59.09,7.78,56.64,10.17,51.71,8.34C49.3,7.12,45.59,1.78,35.23,4.23C30.86,6.54,22.82,6.04,20.74,10.65C20.01,11.94,20.71,13.14,20.51,14.25C20.19,15.15,21.55,21.49,21.39,31.73C23.39,31.4,24.92,29.68,24.92,27.6C24.92,26.98,23.08,21.81,28.06,19.18C30.78,25.59,37.18,30.08,44.63,30.08C44.63,30.08,47.08,35.01,53.26,35.66C53.5,36.78,54.38,37.44,55.26,38.25C53.36,43.51,57.78,49.87,57.78,49.87C57.78,49.87,56.37,52.57,56.01,54.29C56.01,56.18,58.37,59.81,58.37,59.81C58.37,59.81,57.39,59.74,52.28,63.74C48.99,68.34,54.45,72.67,53.24,77.27C52.21,79.15,50.37,82.75,55.27,86.91C55.27,86.91,55.81,83.73,61.2,82.79C67,81.77,65,75.82,70.78,76.8C78.35,77.17,76.86,75.3,79.63,70.38C86.16,63.58,83.43,55.76,83.58,55.39L83.59,55.38C85.07,51.61,84.93,47.62,81.87,44.78Z" fill="#373437"/><path d="M22.12,14.62C22.12,14.62,19.61,13.68,17.84,16.55C16.07,19.42,14.63,18.5,14.63,18.5L17.45,14.62L21.24,9.74C21.24,9.74,20.13,11.71,22.12,14.62Z" fill="#494749"/><path d="M78.22,72.06C78.8,70.65,78.93,69.16,78.67,67.77C79.95,69.79,80.26,72.38,79.28,74.76C77.67,78.66,73.21,80.52,69.31,78.92C66.82,77.9,65.16,75.71,64.7,73.24C65.52,74.53,66.73,75.6,68.25,76.22C72.15,77.83,76.62,75.96,78.22,72.06Z" fill="#494749"/><path d="M60.28,60.53C60.45,60.17,60.63,59.82,60.81,59.47C60.04,59.2,59.2,59.05,58.34,59.05C54.23,59.05,50.9,62.38,50.9,66.49C50.9,69.73,52.97,72.48,55.85,73.5C54.33,72.14,53.37,70.16,53.37,67.95C53.37,64.02,56.42,60.8,60.28,60.53Z" fill="#494749"/><path d="M27.14,13.71C27.26,11.52,28.49,9.59,30.39,8.51C31.05,8.13,31.76,7.84,32.48,7.63C33.6,7.29,34.81,7.25,35.96,7.55C40.3,8.71,42.84,13.8,45.03,17.32C46.19,19.17,47.42,21.36,49.22,22.52C49.92,22.93,50.76,23.26,51.56,23.42C53.26,23.78,55,23.4,56.45,22.38C58.04,21.27,59.19,19.57,59.78,17.66C59.89,18.71,59.75,19.8,59.4,20.85C57.99,25.08,53.71,27.29,49.41,26.17C48.2,25.88,46.98,25.34,46.02,24.58C44.41,23.34,43.2,21.71,42.11,20.08C41.13,18.59,40.2,16.97,39.27,15.49C38.34,14.02,37.25,12.33,35.91,11.32C35.06,10.68,34.13,10.43,33.11,10.57C31.75,10.72,30.42,11.19,29.5,12.24C28.23,13.7,27.9,15.77,27.91,17.67L27.91,17.68C27.32,16.46,27.06,15.07,27.14,13.71Z" fill="#494749"/><path d="M58.07,56.26C61.29,59.9,68.45,57.93,64.15,49C59.85,40.08,60.13,32.27,66.63,30.89C66.63,30.89,60.91,35.92,65.18,42.86C69.45,49.8,72.33,58.32,64.52,61.38C56.71,64.45,50.76,52.88,60.21,47.81L60.22,47.81C60.22,47.81,54.86,52.62,58.07,56.26Z" fill="#494749"/><path d="M78.89,54.43C75.71,57.79,75.98,62.31,77.1,65.84C77.2,65.8,77.17,59.91,83.57,55.29C92.7,46.79,76.36,38.49,74.03,38.85L74.04,38.85C74.04,38.85,86.44,46.46,78.89,54.43Z" fill="#494749"/><path d="M21.2,32.31C12.47,35.97,7.22,39.22,13.65,44.78C13.65,44.78,6.34,42.24,9.57,35.01C13.91,27.16,26.12,32.8,24.03,18.56L24.02,18.56C24.02,18.56,29.93,28.65,21.2,32.31Z" fill="#494749"/></svg>