<svg xmlns="http://www.w3.org/2000/svg" viewBox="0 0 90 90"><path d="M73.88,42.52C70.84,40.01,68.63,45,67.46,51C66.3,57,62.66,62.51,70.46,64.61C74.03,65.59,72.56,61.16,73.76,55.16L73.76,55.2C74.93,49.2,75.68,44.02,73.88,42.52Z" fill="#D88F71"/><path d="M15.98,42.37C19.2,40.12,20.85,45.26,21.56,51.34C22.28,57.41,25.5,63.19,17.55,64.69C13.95,65.4,15.86,61.05,15.15,54.97L15.15,55.01C14.44,48.94,14.1,43.69,15.98,42.37Z" fill="#D88F71"/><path d="M33.08,0.26C21.68,0.94,22.46,9.45,22.46,9.45L22.58,9.45C14.78,9.45,9.9,31.2,15.79,39.71C15.86,41.74,72.98,41.47,73.24,41.66C82.28,26.51,71.36,12.34,71.36,12.34C60.98,-0.94,43.05,-0.34,33.08,0.26Z" fill="#625E5B"/><path d="M34.2,2.63C22.8,3.26,23.59,11.18,23.59,11.18L23.7,11.18C15.9,11.18,11.44,32.02,15.79,39.86C16.13,46.42,17.89,50.74,18.56,50.92L71.03,51.52C72.79,51.49,70.2,50.7,73.09,42C80.06,24.82,69.11,12.68,69.11,12.68L69.11,12.75C59.81,1.73,47.02,1.88,34.2,2.63Z" fill="#2E2C29"/><path d="M68.55,33.71C68.55,33.71,69.08,19.42,62.25,18.64C56.14,16.84,49.69,19.39,44.25,19.39C38.81,19.39,29.44,18.22,29.44,18.22C18.86,18.6,21.38,33.07,21.38,33.07L18.15,40.99L19.35,63.86C19.35,78.26,31.2,85.95,36.71,88.76C38.33,89.59,40.13,90.04,41.93,90L47.48,90C49.31,90,51.08,89.55,52.69,88.76C58.2,85.95,70.05,78.26,70.05,63.86L70.91,41.74L70.88,41.7Z" fill="#F5C1A7"/><path d="M49.73,76.95C46.95,79.54,42.15,79.35,39.3,76.95C42.86,77.85,46.24,78,49.73,76.95Z" fill="#D88F71"/><path d="M39.23,1.99C32.21,7.43,35.36,15.64,37.05,18.98C38.21,19.09,39.41,19.16,40.58,19.24C36.86,13.01,37.8,8.59,40.13,5.55C39.53,10.13,41.7,15.53,43.8,19.39L44.29,19.39C45.68,19.39,47.14,19.24,48.64,18.98C46.2,13.88,46.91,7.28,49.01,2.29L49.05,2.29C45.83,1.91,42.56,1.88,39.23,1.99Z" fill="#625E5B"/><path d="M48.23,66.37C47.77,66.22,44.7,67.27,44.7,67.27C44.7,67.27,42.08,66.34,41.63,66.49C39.41,67.09,31.95,68.89,32.14,69C32.29,69.07,33.23,69.49,34.2,70.05C35.06,71.59,36.98,74.55,39.71,75.82C40.76,76.16,48.38,76.27,49.65,75.75C52.73,73.76,54.26,70.99,54.83,69.79C55.54,69.41,56.51,69,56.66,68.92L56.66,68.89C56.66,68.89,50.48,67.05,48.23,66.37Z" fill="#DC847B"/><path d="M34.09,69.11C34.95,69.6,36.9,70.72,39.11,71.62C42.79,73.09,47.18,72.9,49.73,71.47C51.98,70.39,53.85,69.52,54.71,69.07C51.79,68.96,47.29,67.99,44.7,69.34C42.64,68.06,37.05,69,34.09,69.11Z" fill="white"/><path d="M61.73,47.77C61.73,47.77,56.44,51.37,51.79,47.85C49.39,46.24,48.3,43.2,48.3,43.2C57.64,40.87,66.98,43.91,66.98,43.91L66.94,43.87C66.94,43.87,61.73,47.74,61.73,47.77Z" fill="#E79779"/><path d="M51.04,46.54C51.04,46.54,53.7,46.99,56.4,46.99C59.1,46.99,61.01,46.39,61.01,46.39C61.01,46.39,59.59,44.4,56.03,44.4L56.03,44.44C54.41,44.44,51.04,46.54,51.04,46.54Z" fill="white"/><path d="M50.63,39.86C48.26,40.42,48.26,43.09,48.26,43.09C48.26,43.09,62.29,39.22,67.28,44.4C67.99,43.46,65.48,37.27,60.6,37.99C60.6,37.99,52.84,39.41,50.63,39.86Z" fill="#9E7E6D"/><path d="M61.69,46.16L61.61,46.16C62.06,46.39,62.59,46.61,63.11,46.73C63.64,46.84,64.24,46.88,64.8,46.8C64.01,47.25,63,47.33,62.1,47.14C61.76,47.06,61.43,46.99,61.13,46.8C58.16,44.55,53.14,44.29,50.51,47.33L50.55,47.29C52.39,42.98,58.8,43.09,61.69,46.16Z" fill="#523215"/><path d="M56.03,43.99C57.19,43.99,58.13,44.85,58.13,45.9C58.13,46.95,57.19,47.81,56.03,47.81C54.86,47.81,53.93,46.95,53.93,45.9C53.93,44.85,54.86,43.99,56.03,43.99Z" fill="#523215"/><path d="M27,47.77C27,47.77,32.29,51.37,36.94,47.85C39.34,46.24,40.43,43.2,40.43,43.2C31.09,40.87,21.75,43.91,21.75,43.91L21.79,43.87C21.79,43.87,27,47.74,27,47.77Z" fill="#E79779"/><path d="M38.18,39.86C40.54,40.42,40.54,43.09,40.54,43.09C40.54,43.09,26.51,39.22,21.53,44.4C20.81,43.46,23.33,37.27,28.2,37.99C28.2,37.99,35.96,39.41,38.18,39.86Z" fill="#9E7E6D"/><path d="M37.69,46.54C37.69,46.54,35.18,46.99,32.51,46.99C29.85,46.99,27.79,46.46,27.79,46.46C27.79,46.46,28.88,44.4,32.85,44.4L32.85,44.44C36,44.44,37.69,46.54,37.69,46.54Z" fill="white"/><path d="M27.68,46.76C27.38,46.95,27,47.03,26.7,47.1C25.8,47.29,24.79,47.21,24,46.76C24.6,46.84,25.16,46.84,25.69,46.69C26.21,46.58,26.74,46.35,27.19,46.09L27.11,46.09C30.04,43.05,36.45,42.98,38.25,47.29L38.29,47.29C35.7,44.25,30.64,44.51,27.68,46.76Z" fill="#523215"/><path d="M32.85,43.99C31.69,43.99,30.75,44.85,30.75,45.9C30.75,46.95,31.69,47.81,32.85,47.81C34.01,47.81,34.95,46.95,34.95,45.9C34.95,44.85,34.01,43.99,32.85,43.99Z" fill="#523215"/><path d="M48.68,52.05C47.66,49.99,47.03,48,46.73,46.2C46.28,45.34,45.23,45.22,44.78,45.22C43.8,45.22,42.94,45.67,42.83,46.2C42.53,48,41.85,49.99,40.88,52.05C39.94,53.92,37.54,54.97,33.53,55.27C32.4,55.31,29.36,55.65,25.16,54.97C23.85,54.86,22.13,53.96,21.68,51.86C21.53,51.07,20.7,46.87,20.66,45.49C20.66,44.06,21.53,42.82,22.8,42.49C29.85,40.24,38.74,42.04,40.8,42.67C40.95,42.67,42.64,42.75,44.85,42.75C47.06,42.75,48.75,42.75,48.9,42.67C50.96,42.04,57.49,40.05,66.9,42.49C68.18,42.86,69.08,44.1,69.04,45.49C69.04,46.91,68.18,51.11,68.03,51.86C67.54,53.96,65.85,54.86,64.54,54.97C59.44,55.65,57.26,55.31,56.14,55.27L56.03,55.27C51.98,55.01,49.58,53.96,48.68,52.05Z" fill="#1E1E1E"/><path d="M48.11,45.97C48.3,47.1,48.75,49.01,49.95,51.41C50.59,52.76,52.73,53.59,56.14,53.81C56.85,53.85,59.96,54.11,64.31,53.55C64.91,53.47,66.38,52.84,66.56,51.56C67.35,47.81,67.54,46.16,67.54,45.45C67.54,44.7,67.09,44.06,66.45,43.87C59.18,41.85,52.05,43.2,49.24,44.06L49.2,44.06C48.41,44.29,47.96,45.11,48.11,45.97Z" fill="#1E1E1E"/><path d="M21.98,45.45C21.98,46.16,22.16,47.81,22.95,51.56C23.14,52.84,24.6,53.51,25.16,53.55C27.64,53.92,30,53.92,33.34,53.85C36.75,53.62,38.85,52.8,39.53,51.45C40.69,49.05,41.18,47.14,41.36,46.01C41.51,45.15,41.03,44.32,40.28,44.1C37.43,43.24,29.14,42.15,23.06,43.91L23.06,43.87C22.43,44.06,21.98,44.7,21.98,45.45Z" fill="#1E1E1E"/><path d="M48.71,86.59L40.8,86.59C38.21,86.59,35.66,85.99,33.34,84.79C31.2,83.7,28.39,82.09,25.43,79.91C29.21,84.37,33.86,87.22,36.79,88.72C38.4,89.55,40.2,90,42,89.96L47.55,89.96C49.39,89.96,51.15,89.51,52.76,88.72C55.69,87.22,60.38,84.37,64.13,79.91C61.16,82.09,58.35,83.7,56.21,84.79L56.17,84.79C53.85,85.95,51.3,86.59,48.71,86.59Z" fill="#E79779"/><path d="M51.9,62.44C51.9,62.44,51.97,62.44,51.97,62.4C51.94,62.4,44.77,63.11,44.74,63.11C44.66,63.11,37.42,62.4,37.39,62.44C35.4,63.83,33.04,65.48,31.95,66.15C29.66,67.99,31.54,69.79,33.19,69.49C32.62,69.23,32.21,69.04,32.14,68.96C32.62,69.08,41.25,64.58,42.94,65.29C43.65,65.7,44.74,66.26,44.74,66.15C44.74,66.15,46.05,65.7,46.91,65.25C48.41,64.39,56.14,69.19,56.66,68.93C56.47,69,55.99,69.23,55.42,69.49C57.26,69.79,60.22,68.66,56.29,65.7L56.32,65.66C55.05,64.91,53.4,63.64,51.9,62.44Z" fill="#E3AD99"/><path d="M52.01,62.4C53.44,62.02,54.19,60.52,53.62,58.72C53.17,56.89,51.22,56.44,50.66,56.55C50.66,55.76,50.21,55.01,49.5,54.67C49.72,55.42,49.87,56.1,49.99,56.74C50.02,56.74,52.54,56.74,52.8,59.4C52.8,60.86,51.6,62.06,50.14,62.06C49.46,62.06,48.41,61.42,48.41,61.42L44.74,62.66L41.06,61.42C41.06,61.42,40.01,62.06,39.34,62.06C37.87,62.06,36.67,60.86,36.67,59.4C36.75,57.19,39.45,56.74,39.52,56.74C39.64,56.14,39.79,55.42,40.01,54.67C39.3,55.01,38.85,55.8,38.85,56.55C38.29,56.44,36.22,57.07,35.77,59.02C35.29,61.42,37.42,62.4,37.42,62.44L44.77,63.56L44.77,63.52Z" fill="#E79779"/></svg>