<svg xmlns="http://www.w3.org/2000/svg" viewBox="0 0 90 90"><path d="M62.03,3.82C53.66,0,45.13,0.02,45.13,0.02C38.99,-0.2,32.44,1.31,25.67,5.21C21.77,7.45,18.66,10.88,16.88,15.02C12.44,25.34,15.89,38.11,16.88,48.35L45.18,48.35L73.42,48.36C74.27,39.59,76.92,28.96,74.87,19.6L74.88,19.6C73.35,12.61,68.55,6.79,62.03,3.82Z" fill="currentColor"/><path d="M65.92,8.51C56.74,2.43,45.14,2.45,45.14,2.45C38.76,2.23,31.94,3.91,24.88,8.26C23.63,9.03,22.5,9.97,21.52,11.06C12.16,21.49,16.75,36.66,17.89,48.36L45.19,48.36L72.44,48.37C73.62,36.33,78.44,20.62,67.96,10.17C67.34,9.55,66.65,9,65.92,8.51Z" fill="currentColor"/><path d="M42.7,2.5C42.65,2.5,42.61,2.48,42.56,2.46C42.36,2.43,42.16,2.42,41.95,2.42C40.46,2.42,39.16,3.17,38.46,4.29C37.93,3.66,37.19,3.2,36.34,2.99C36.24,2.98,36.14,2.96,36.04,2.94C35.99,2.94,35.95,2.92,35.9,2.9C35.7,2.87,35.5,2.86,35.29,2.86C33.05,2.86,31.23,4.78,31.23,6.88C31.23,6.93,31.23,6.98,31.23,7.04C29.24,7.29,27.71,8.88,27.71,10.82C27.71,10.88,27.71,10.94,27.71,11C27.68,11,27.64,10.98,27.61,10.97C27.51,10.96,27.41,10.94,27.31,10.92C27.26,10.92,27.22,10.9,27.17,10.88C26.97,10.85,26.77,10.84,26.56,10.84C24.32,10.84,22.5,12.55,22.5,14.65C22.5,15.6,22.87,16.48,23.49,17.14C23.36,16.77,23.29,16.37,23.29,15.96C23.29,13.86,25.11,12.15,27.35,12.15C27.57,12.15,27.78,12.17,27.98,12.2C27.98,12.2,27.98,12.21,27.98,12.22C28.16,12.22,28.33,12.26,28.49,12.33C28.49,12.33,28.49,12.32,28.49,12.31C29.24,12.52,29.9,12.93,30.4,13.47C30.09,12.57,29.42,11.82,28.56,11.35C28.86,9.97,29.96,8.87,31.38,8.47C31.58,8.37,31.8,8.31,32.02,8.31C32.09,8.31,32.15,8.31,32.21,8.32C32.32,8.32,32.42,8.31,32.53,8.31C33.75,8.31,34.85,8.82,35.6,9.62C35.18,8.4,34.12,7.46,32.79,7.12C32.69,7.11,32.59,7.09,32.49,7.07C32.44,7.07,32.4,7.05,32.35,7.03C32.3,7.03,32.24,7.02,32.18,7.01C32.7,5.48,34.24,4.16,36.04,4.16C36.82,4.16,37.56,4.37,38.18,4.73C37.97,5.19,37.86,5.9,37.86,6.43C37.86,7.38,38.23,8.26,38.85,8.92C38.72,8.55,38.65,8.15,38.65,7.74C38.65,5.64,40.47,3.72,42.71,3.72C43.93,3.72,45.03,4.23,45.78,5.03C45.36,3.81,44.3,2.87,42.97,2.53L43,2.55C42.9,2.54,42.8,2.52,42.7,2.5Z" fill="currentColor"/><path d="M76.1,43.66C75.81,42.33,75.37,41.4,74.82,40.92C73.32,39.6,71.08,41.67,69.39,48.19C69.39,48.19,67.13,53.22,69.29,60.89C69.43,61.4,69.59,61.82,69.76,62.15C71.15,65.37,73.21,63.62,74.75,59.93C74.75,59.93,74.75,59.93,74.75,59.92C76.22,56.39,76.91,51.2,76.57,46.38L76.58,46.38C76.51,45.35,76.34,44.43,76.1,43.66Z" fill="currentColor"/><path d="M21.06,48.46C20.67,46.94,20.26,45.66,19.83,44.6C19.36,43.13,18.67,42.05,17.92,41.37C17.68,41.13,17.43,40.95,17.2,40.83C16.35,40.34,15.51,40.34,14.97,40.83C14.16,41.55,13.57,43.28,13.39,45.84C13.06,50.75,14.14,56.03,15.61,59.63C15.61,59.63,15.61,59.63,15.61,59.64C16.5,61.82,17.73,63.37,18.85,63.65C19.68,64.06,20.46,63.55,21.03,61.76C21.07,61.64,21.11,61.52,21.14,61.39C21.14,61.39,21.14,61.37,21.14,61.36L21.16,61.36C23.31,53.57,21.06,48.46,21.06,48.46Z" fill="currentColor"/><path d="M16.86,23C16.88,23.08,16.89,23.16,16.9,23.24C17.07,23.93,17.46,24.53,17.97,24.96C17.42,25.55,17.08,26.36,17.08,27.26C17.08,27.43,17.09,27.59,17.12,27.75C17.13,27.79,17.14,27.82,17.15,27.86C17.17,27.94,17.18,28.02,17.19,28.1C17.46,29.17,18.23,30.02,19.21,30.36C18.56,29.76,18.15,28.88,18.14,27.89C18.14,26.09,19.52,24.62,21.22,24.62C21.55,24.62,21.88,24.68,22.18,24.78C21.64,24.28,20.93,23.98,20.16,23.98C19.45,23.98,18.79,24.24,18.27,24.67C18,24.19,17.85,23.63,17.85,23.03C17.85,21.23,19.23,19.76,20.93,19.76C21.26,19.76,21.59,19.82,21.89,19.92C21.35,19.42,20.64,19.12,19.87,19.12C18.17,19.12,16.79,20.59,16.79,22.39C16.79,22.56,16.8,22.72,16.83,22.88L16.83,22.89C16.83,22.89,16.85,22.96,16.86,23Z" fill="currentColor"/><path d="M42.98,2.78C42.93,2.78,42.89,2.76,42.84,2.74C42.64,2.71,42.44,2.7,42.23,2.7C40.74,2.7,39.44,3.45,38.74,4.57C38.21,3.94,37.47,3.48,36.62,3.27C36.52,3.26,36.42,3.24,36.32,3.22C36.27,3.22,36.23,3.2,36.18,3.18C35.98,3.15,35.78,3.14,35.57,3.14C33.33,3.14,31.51,5.06,31.51,7.16C31.51,7.21,31.51,7.26,31.51,7.32C29.52,7.57,27.99,9.16,27.99,11.1C27.99,11.16,27.99,11.22,27.99,11.28C27.96,11.28,27.92,11.26,27.89,11.25C27.79,11.24,27.69,11.22,27.59,11.2C27.54,11.2,27.5,11.18,27.45,11.16C27.25,11.13,27.05,11.12,26.84,11.12C24.6,11.12,22.78,12.83,22.78,14.93C22.78,15.88,23.15,16.76,23.77,17.42C23.64,17.05,23.57,16.65,23.57,16.24C23.57,14.14,25.39,12.43,27.63,12.43C27.85,12.43,28.06,12.45,28.26,12.48C28.26,12.48,28.26,12.49,28.26,12.5C28.44,12.5,28.61,12.54,28.77,12.61C28.77,12.61,28.77,12.6,28.77,12.59C29.52,12.8,30.18,13.21,30.68,13.75C30.37,12.85,29.7,12.1,28.84,11.63C29.14,10.25,30.24,9.15,31.66,8.75C31.86,8.65,32.08,8.59,32.3,8.59C32.37,8.59,32.43,8.59,32.49,8.6C32.6,8.6,32.7,8.59,32.81,8.59C34.03,8.59,35.13,9.1,35.88,9.9C35.46,8.68,34.4,7.74,33.07,7.4C32.97,7.39,32.87,7.37,32.77,7.35C32.72,7.35,32.68,7.33,32.63,7.31C32.58,7.31,32.52,7.3,32.46,7.29C32.98,5.76,34.52,4.44,36.32,4.44C37.1,4.44,37.84,4.65,38.46,5.01C38.25,5.47,38.14,6.18,38.14,6.71C38.14,7.66,38.51,8.54,39.13,9.2C39,8.83,38.93,8.43,38.93,8.02C38.93,5.92,40.75,4,42.99,4C44.21,4,45.31,4.51,46.06,5.31C45.64,4.09,44.58,3.15,43.25,2.81L43.28,2.83C43.18,2.82,43.08,2.8,42.98,2.78Z" fill="currentColor"/><path d="M43.36,3.55C43.31,3.55,43.27,3.53,43.22,3.51C43.02,3.48,42.82,3.47,42.61,3.47C41.12,3.47,39.82,4.22,39.12,5.34C38.59,4.71,37.85,4.25,37,4.04C36.9,4.03,36.8,4.01,36.7,3.99C36.65,3.99,36.61,3.97,36.56,3.95C36.36,3.92,36.16,3.91,35.95,3.91C33.71,3.91,31.89,5.83,31.89,7.93C31.89,7.98,31.89,8.03,31.89,8.09C29.9,8.34,28.37,9.93,28.37,11.87C28.37,11.93,28.37,11.99,28.37,12.05C28.34,12.05,28.3,12.03,28.27,12.02C28.17,12.01,28.07,11.99,27.97,11.97C27.92,11.97,27.88,11.95,27.83,11.93C27.63,11.9,27.43,11.89,27.22,11.89C24.98,11.89,23.16,13.6,23.16,15.7C23.16,16.65,23.53,17.53,24.15,18.19C24.02,17.82,23.95,17.42,23.95,17.01C23.95,14.91,25.77,13.2,28.01,13.2C28.23,13.2,28.44,13.22,28.64,13.25C28.64,13.25,28.64,13.26,28.64,13.27C28.82,13.27,28.99,13.31,29.15,13.38C29.15,13.38,29.15,13.37,29.15,13.36C29.9,13.57,30.56,13.98,31.06,14.52C30.75,13.62,30.08,12.87,29.22,12.4C29.52,11.02,30.62,9.92,32.04,9.52C32.24,9.42,32.46,9.36,32.68,9.36C32.75,9.36,32.81,9.36,32.87,9.37C32.98,9.37,33.08,9.36,33.19,9.36C34.41,9.36,35.51,9.87,36.26,10.67C35.84,9.45,34.78,8.51,33.45,8.17C33.35,8.16,33.25,8.14,33.15,8.12C33.1,8.12,33.06,8.1,33.01,8.08C32.96,8.08,32.9,8.07,32.84,8.06C33.36,6.53,34.9,5.21,36.7,5.21C37.48,5.21,38.22,5.42,38.84,5.78C38.63,6.24,38.52,6.95,38.52,7.48C38.52,8.43,38.89,9.31,39.51,9.97C39.38,9.6,39.31,9.2,39.31,8.79C39.31,6.69,41.13,4.77,43.37,4.77C44.59,4.77,45.69,5.28,46.44,6.08C46.02,4.86,44.96,3.92,43.63,3.58L43.66,3.6C43.56,3.59,43.46,3.57,43.36,3.55Z" fill="currentColor"/><path d="M17.14,23.28C17.16,23.36,17.17,23.44,17.18,23.52C17.35,24.21,17.74,24.81,18.25,25.24C17.7,25.83,17.36,26.64,17.36,27.54C17.36,27.71,17.37,27.87,17.4,28.03C17.41,28.07,17.42,28.1,17.43,28.14C17.45,28.22,17.46,28.3,17.47,28.38C17.74,29.45,18.51,30.3,19.49,30.64C18.84,30.04,18.43,29.16,18.42,28.17C18.42,26.37,19.8,24.9,21.5,24.9C21.83,24.9,22.16,24.96,22.46,25.06C21.92,24.56,21.21,24.26,20.44,24.26C19.73,24.26,19.07,24.52,18.55,24.95C18.28,24.47,18.13,23.91,18.13,23.31C18.13,21.51,19.51,20.04,21.21,20.04C21.54,20.04,21.87,20.1,22.17,20.2C21.63,19.7,20.92,19.4,20.15,19.4C18.45,19.4,17.07,20.87,17.07,22.67C17.07,22.84,17.08,23,17.11,23.16L17.11,23.17C17.11,23.17,17.13,23.24,17.14,23.28Z" fill="currentColor"/><path d="M20.65,32.6L19.29,39.78L19.33,49.83C19.33,50.54,19.91,51.11,20.62,51.11L69.83,51.11C70.54,51.11,71.12,50.53,71.12,49.82L71.09,38.89L70.04,32.59L70.03,32.6Z" fill="currentColor"/><path d="M68.63,41.12L68.77,33.28C68.62,23.33,66.72,19.67,57.69,17.86C54.83,17.38,51.93,16.91,49.22,17.02C46.52,17.14,43.82,17.14,41.12,17.02C38.42,16.9,35.51,17.37,32.65,17.86C24.3,19.53,21.58,24.03,21.52,32.82L21.93,41.13L20.75,47.02C20.58,47.89,20.49,48.77,20.49,49.65C20.49,51.2,20.49,53.68,20.49,54.85C20.37,71.77,27.99,80.26,36.67,87.46C39.06,89.49,42.21,90.01,45.17,90C48.13,90.02,51.29,89.49,53.67,87.46C62.35,80.26,69.97,71.77,69.85,54.85C69.85,53.63,69.87,50.62,69.89,48.84C69.89,47.92,69.81,47,69.63,46.09L69.62,46.09Z" fill="currentColor"/><path d="M48.19,44.87C48.19,44.67,48.19,44.47,48.19,44.26C48.19,41.75,47.34,39.69,45.42,39.47L45.42,39.43C45.42,39.43,45.41,39.43,45.4,39.43C45.38,39.43,45.37,39.43,45.35,39.43C45.24,39.43,45.12,39.43,45.02,39.45C43.09,39.67,42.25,41.73,42.25,44.24C42.25,44.45,42.25,44.65,42.25,44.85C42.3,48.6,40.78,53.65,40.78,53.65C38.16,54,37.92,58.4,39.91,59.25C40.56,59.52,41.55,59.71,42.69,59.83C43.33,60.51,44.22,60.93,45.22,60.93C46.22,60.93,47.1,60.52,47.73,59.85C48.88,59.74,49.88,59.55,50.53,59.27C52.52,58.42,52.28,54.02,49.66,53.67C49.66,53.67,48.15,48.62,48.19,44.87Z" fill="currentColor"/><path d="M45.08,74.3C45.08,74.3,45.09,74.3,45.1,74.3C45.14,74.3,45.18,74.3,45.22,74.3C45.26,74.3,45.3,74.3,45.34,74.3C45.34,74.3,45.35,74.3,45.36,74.3C50.67,74.23,52.47,72.01,56.52,66.26L45.39,69.89L33.92,66.26C37.97,72.01,39.77,74.24,45.08,74.3Z" fill="currentColor"/><path d="M45.07,71.04C45.07,71.04,45.08,71.04,45.09,71.04C45.13,71.04,45.17,71.04,45.22,71.04C45.26,71.04,45.3,71.04,45.35,71.04C45.35,71.04,45.36,71.04,45.37,71.04C50.25,70.99,52.36,69.64,55.6,66.26L34.84,66.26C38.08,69.64,40.19,70.99,45.07,71.04Z" fill="currentColor"/><path d="M71.5,23.69C71.5,21.61,69.89,19.93,67.9,19.93C65.91,19.93,64.3,21.61,64.3,23.69C64.3,25.77,65.91,27.45,67.9,27.45C69.89,27.45,71.5,25.77,71.5,23.69Z" fill="currentColor"/><path d="M74.16,27.06C74.16,24.98,72.55,23.3,70.56,23.3C68.57,23.3,66.96,24.98,66.96,27.06C66.96,29.14,68.57,30.82,70.56,30.82C72.55,30.82,74.16,29.14,74.16,27.06Z" fill="currentColor"/><path d="M60.71,14.45C60.71,12.37,59.1,10.69,57.11,10.69C55.12,10.69,53.51,12.37,53.51,14.45C53.51,16.53,55.12,18.21,57.11,18.21C59.1,18.21,60.71,16.53,60.71,14.45Z" fill="currentColor"/><path d="M57.75,13.89C57.75,11.81,56.14,10.13,54.15,10.13C52.16,10.13,50.55,11.81,50.55,13.89C50.55,15.97,52.16,17.65,54.15,17.65C56.14,17.65,57.75,15.97,57.75,13.89Z" fill="currentColor"/><path d="M43.23,14.13C43.23,12.05,41.62,10.37,39.63,10.37C37.64,10.37,36.03,12.05,36.03,14.13C36.03,16.21,37.64,17.89,39.63,17.89C41.62,17.89,43.23,16.21,43.23,14.13Z" fill="currentColor"/><path d="M37.95,14.45C37.95,12.37,36.34,10.69,34.35,10.69C32.36,10.69,30.75,12.37,30.75,14.45C30.75,16.53,32.36,18.21,34.35,18.21C36.34,18.21,37.95,16.53,37.95,14.45Z" fill="currentColor"/><path d="M30.74,17.21C30.74,15.13,29.13,13.45,27.14,13.45C25.15,13.45,23.54,15.13,23.54,17.21C23.54,19.29,25.15,20.97,27.14,20.97C29.13,20.97,30.74,19.29,30.74,17.21Z" fill="currentColor"/><path d="M42.27,41.71C41.33,38.8,38.76,36.84,35.86,36.85L28.37,36.85C27.64,37.18,27.07,37.6,26.75,38.12C24.94,41.14,25.2,45.69,27.21,46.73C29.21,47.77,37.8,52.75,41.07,46.46L42.74,43.2C42.74,43.2,42.55,42.58,42.27,41.71Z" fill="currentColor"/><path d="M48.18,41.71C49.12,38.8,51.69,36.84,54.59,36.85L62.08,36.85C62.81,37.18,63.38,37.6,63.7,38.12C65.51,41.14,65.25,45.69,63.24,46.73C61.24,47.77,52.65,52.75,49.38,46.46L47.71,43.2C47.71,43.2,47.9,42.58,48.18,41.71Z" fill="currentColor"/><path d="M54.18,42.9C56.47,41.94,59.53,41.93,62.37,45.06C61.36,45.16,56.25,46.98,51.24,44.92L51.23,44.92C51.23,44.92,52.3,43.68,54.18,42.9Z" fill="currentColor"/><path d="M54.18,42.64C56.43,41.68,59.25,41.45,62.37,44.98C61.77,45.02,56.21,47.11,51.24,44.84L51.23,44.84C51.15,45.2,52.2,43.49,54.18,42.64Z" fill="currentColor"/><path d="M59.01,44.09C59.01,42.74,57.96,41.64,56.67,41.64C55.38,41.64,54.33,42.74,54.33,44.09C54.33,45.44,55.38,46.54,56.67,46.54C57.96,46.54,59.01,45.44,59.01,44.09Z" fill="currentColor"/><path d="M56.84,41.48C61.51,41.48,64.03,45.1,64.03,45.1L62.34,45.14L62.3,45.14L62.22,45.09C61.37,44.49,60.56,43.89,59.64,43.5C58.76,43.02,57.78,42.9,56.83,42.84C54.89,42.78,52.98,43.63,51.23,44.79L51.24,44.8C52.49,43.1,54.57,41.5,56.84,41.48Z" fill="currentColor"/><path d="M25.67,39.89C27.4,39.18,29.97,38.27,29.95,38.29C36.22,37.86,36.1,38.44,40.77,39.54C40.77,39.54,40.71,38.12,40.39,37.4C39.91,36.32,38.86,35.56,37.72,35.51C35.28,35.38,32.86,35.4,30.48,35.55C27.17,36.26,26.29,38.4,25.67,39.89Z" fill="currentColor"/><path d="M51.74,35.73C51.01,36.04,50.39,36.64,50.06,37.39C49.74,38.11,49.68,39.53,49.68,39.53C54.35,38.43,54.23,37.85,60.5,38.28C60.48,38.26,63.05,39.17,64.78,39.88C64.16,38.39,63.28,36.25,59.97,35.54L59.97,35.55C55.37,35.1,51.74,35.73,51.74,35.73Z" fill="currentColor"/><path d="M36.76,42.9C34.47,41.94,31.41,41.93,28.57,45.06C29.58,45.16,34.69,46.98,39.7,44.92L39.71,44.92C39.71,44.92,38.64,43.68,36.76,42.9Z" fill="currentColor"/><path d="M36.75,42.64C34.5,41.68,31.68,41.45,28.56,44.98C29.16,45.02,34.72,47.11,39.69,44.84L39.7,44.84C39.78,45.2,38.73,43.49,36.75,42.64Z" fill="currentColor"/><path d="M36.61,44.09C36.61,42.74,35.56,41.64,34.27,41.64C32.98,41.64,31.93,42.74,31.93,44.09C31.93,45.44,32.98,46.54,34.27,46.54C35.56,46.54,36.61,45.44,36.61,44.09Z" fill="currentColor"/><path d="M57.83,64.1C55.95,65.02,52.53,64.8,49.3,63.91C48.79,63.76,48.27,63.78,47.81,63.94C47.01,64.23,46.14,64.51,45.2,64.73C44.27,64.52,43.39,64.26,42.59,64C42.13,63.85,41.62,63.86,41.1,64C37.88,64.88,34.47,64.97,32.57,64.23C32.56,64.23,32.54,64.27,32.53,64.33C32.34,65.15,32.95,65.93,33.77,65.93L56.63,65.93C57.41,65.93,58,65.22,57.89,64.43L57.91,64.44C57.88,64.25,57.86,64.12,57.83,64.1Z" fill="currentColor"/><path d="M49.3,64.68C48.79,64.53,48.27,64.55,47.81,64.71C47.01,65,46.14,65.28,45.2,65.5C44.27,65.29,43.39,65.03,42.59,64.77C42.13,64.62,41.62,64.63,41.1,64.77C37.88,65.65,34.47,65.74,32.57,65C32.46,65.06,32.35,65.12,32.24,65.17C33.75,66.57,38.51,67.23,41.06,67.47C42.63,67.65,44.09,67.68,45.2,67.66C46.31,67.71,47.77,67.71,49.34,67.57C51.89,67.38,56.66,66.82,58.14,65.09C58.03,65.02,57.92,64.94,57.8,64.87L57.83,64.87C55.95,65.79,52.53,65.57,49.3,64.68Z" fill="currentColor"/><path d="M74.64,31.67C74.63,31.61,74.62,31.55,74.61,31.48C74.47,30.94,74.18,30.48,73.78,30.14C74.21,29.68,74.47,29.05,74.47,28.35C74.47,28.22,74.47,28.09,74.44,27.97C74.44,27.94,74.42,27.91,74.42,27.88C74.41,27.82,74.4,27.76,74.39,27.69C74.18,26.86,73.58,26.19,72.82,25.93C73.33,26.4,73.65,27.09,73.65,27.85C73.65,29.26,72.58,30.39,71.25,30.39C70.99,30.39,70.74,30.35,70.5,30.26C70.92,30.65,71.47,30.88,72.07,30.88C72.62,30.88,73.13,30.68,73.54,30.35C73.75,30.73,73.87,31.16,73.87,31.63C73.87,33.04,72.8,34.17,71.47,34.17C71.21,34.17,70.96,34.13,70.72,34.04C71.14,34.43,71.69,34.66,72.29,34.66C73.62,34.66,74.69,33.52,74.69,32.12C74.69,31.99,74.69,31.86,74.66,31.74L74.66,31.76C74.66,31.76,74.64,31.7,74.64,31.67Z" fill="currentColor"/><path d="M74.92,31.95C74.91,31.89,74.9,31.83,74.89,31.76C74.75,31.22,74.46,30.76,74.06,30.42C74.49,29.96,74.75,29.33,74.75,28.63C74.75,28.5,74.75,28.37,74.72,28.25C74.72,28.22,74.7,28.19,74.7,28.16C74.69,28.1,74.68,28.04,74.67,27.97C74.46,27.14,73.86,26.47,73.1,26.21C73.61,26.68,73.93,27.37,73.93,28.13C73.93,29.54,72.86,30.67,71.53,30.67C71.27,30.67,71.02,30.63,70.78,30.54C71.2,30.93,71.75,31.16,72.35,31.16C72.9,31.16,73.41,30.96,73.82,30.63C74.03,31.01,74.15,31.44,74.15,31.91C74.15,33.32,73.08,34.45,71.75,34.45C71.49,34.45,71.24,34.41,71,34.32C71.42,34.71,71.97,34.94,72.57,34.94C73.9,34.94,74.97,33.8,74.97,32.4C74.97,32.27,74.97,32.14,74.94,32.02L74.94,32.04C74.94,32.04,74.92,31.98,74.92,31.95Z" fill="currentColor"/><path d="M74.34,31.38C74.33,31.32,74.32,31.26,74.31,31.19C74.17,30.65,73.88,30.19,73.48,29.85C73.91,29.39,74.17,28.76,74.17,28.06C74.17,27.93,74.17,27.8,74.14,27.68C74.14,27.65,74.12,27.62,74.12,27.59C74.11,27.53,74.1,27.47,74.09,27.4C73.88,26.57,73.28,25.9,72.52,25.64C73.03,26.11,73.35,26.8,73.35,27.56C73.35,28.97,72.28,30.1,70.95,30.1C70.69,30.1,70.44,30.06,70.2,29.97C70.62,30.36,71.17,30.59,71.77,30.59C72.32,30.59,72.83,30.39,73.24,30.06C73.45,30.44,73.57,30.87,73.57,31.34C73.57,32.75,72.5,33.88,71.17,33.88C70.91,33.88,70.66,33.84,70.42,33.75C70.84,34.14,71.39,34.37,71.99,34.37C73.32,34.37,74.39,33.23,74.39,31.83C74.39,31.7,74.39,31.57,74.36,31.45L74.36,31.47C74.36,31.47,74.34,31.41,74.34,31.38Z" fill="currentColor"/><path d="M43.95,61.98C44.73,62.44,45.71,62.44,46.49,61.98L52.09,58.67L38.35,58.67Z" fill="currentColor"/><path d="M34.05,41.48C29.38,41.48,26.86,45.1,26.86,45.1L28.55,45.14L28.59,45.14L28.67,45.09C29.52,44.49,30.33,43.89,31.25,43.5C32.13,43.02,33.11,42.9,34.06,42.84C36,42.78,37.91,43.63,39.66,44.79L39.65,44.8C38.4,43.1,36.32,41.5,34.05,41.48Z" fill="currentColor"/><path d="M73.91,29.49L73.91,31.56L75.01,31.56L75.01,29.49Z" fill="currentColor"/><path d="M36.87,1.96L36.87,4.29L40.79,4.29L40.79,1.96Z" fill="currentColor"/><path d="M40.12,58.84C40.65,59.02,41.27,58.93,41.64,58.94C42.72,58.99,43.68,59.6,44.46,60.23C44.51,60.26,44.74,60.49,44.8,60.49C44.83,60.51,44.97,60.51,45.06,60.49C45.19,60.49,45.43,60.48,45.55,60.49C45.71,60.5,45.72,60.5,45.82,60.44C46.68,59.7,47.7,58.99,48.91,58.92C48.99,58.92,49.14,58.92,49.23,58.93C49.3,58.93,49.1,58.93,49.16,58.93L49.31,58.93C50.5,59.02,51.52,58.56,51.66,57.19C51.73,56.39,51.56,55.36,50.71,54.82C52.4,55.12,53.09,57.42,52.39,58.89C51.91,60.05,50.5,60.64,49.35,60.67C48.98,60.7,49.01,60.67,48.83,60.74C48.3,60.94,47.82,61.3,47.36,61.71C46.86,62.26,46,62.59,45.29,62.47L45.42,62.47L45.13,62.47L45.26,62.47C43.78,62.77,42.95,61.16,41.72,60.74C41.55,60.68,41.57,60.7,41.2,60.67C40.05,60.64,38.65,60.05,38.17,58.89C37.47,57.42,38.16,55.12,39.85,54.82L39.85,54.84C38.44,55.74,38.56,58.41,40.12,58.84Z" fill="currentColor"/></svg>