<svg xmlns="http://www.w3.org/2000/svg" viewBox="0 0 90 90"><path d="M69.58,54.67L76.45,53.81L78.17,52.95L78.16,52.95C78.16,52.95,71.29,48.66,69.58,54.67Z" fill="#E69D7C"/><path d="M23.67,0.82C18.99,2.31,9.71,7.51,4.67,16.82C2.04,21.07,-1.45,30.1,0.63,39.75C4.23,52.05,12.04,51.48,15.98,59.62C26.37,41.33,52.28,40.62,52.28,40.62C52.35,40,55.03,12.38,45.9,12.51C47.06,-0.04,30.27,-1.27,23.67,0.82Z" fill="#755950"/><path d="M24.38,3.04C19.7,4.54,8.87,10.31,4.37,21.7C4.37,21.7,0.01,32.32,4.91,43.72C7.67,50.65,10.51,50.68,16.86,56.43C27.25,38.02,51.69,42.62,51.69,42.62C51.76,41.99,53.32,14.65,44.2,14.78C45.36,2.16,30.98,0.93,24.38,3.04Z" fill="#403836"/><path d="M46.91,28.4C45.38,29.84,42.39,29.04,42.35,34.57C42.31,40.1,43.31,39.76,43.31,39.76C43.47,41.98,47,43.03,47.85,38.83C47.88,38.67,47.94,38.51,47.98,38.34C48.81,35.07,49.15,30.91,48.45,29.05C48.2,28.38,47.59,27.77,46.91,28.4Z" fill="#F3AB90"/><path d="M44.98,33.84L49.88,27.83C49.88,27.83,51,17.34,44.76,20.66Z" fill="#403836"/><path d="M29.22,12.69C29.19,12.69,29.16,12.69,29.13,12.69L29.13,12.67C29.13,12.67,29.05,12.67,29.01,12.67C28.97,12.67,28.93,12.67,28.89,12.67L28.89,12.69C28.89,12.69,28.83,12.69,28.8,12.69C13.34,11.68,13.83,19.88,12.58,30.1C12.44,31.25,12.41,32.41,12.51,33.57C12.67,35.56,12.91,37.6,12.88,39.65C13.34,48.58,18.39,50.8,23.41,55.7C24.06,56.33,24.7,56.87,25.38,57.29C26.39,58,27.74,58.35,29.08,58.33C30.42,58.35,31.78,58,32.78,57.28C33.46,56.86,34.1,56.32,34.75,55.69C39.75,50.77,44.8,48.53,45.22,39.6C45.19,37.55,45.42,35.51,45.57,33.52C45.66,32.36,45.63,31.2,45.48,30.05L45.49,30.05C44.21,19.83,44.67,11.63,29.22,12.69Z" fill="#FBCDAA"/><path d="M32.18,31.98L40.98,31.73C40.98,31.73,43.98,31.12,43.6,29.67C43.22,28.22,40.8,25.97,40.8,25.97L32.19,27.77L32.18,27.76Z" fill="#F4AF8A"/><path d="M26.37,31.98L17.57,31.73C17.57,31.73,14.57,31.12,14.95,29.67C15.33,28.22,17.75,25.97,17.75,25.97L26.36,27.77L26.37,27.76Z" fill="#F4AF8A"/><path d="M35.57,30.01C36.54,29.78,38.73,29.5,40.16,30.78C40.35,31.01,40.81,31.41,40.81,31.41C40.81,31.41,38.54,33.26,34.86,32.19C34.48,32.08,34.08,32.03,33.68,32.04L32.86,32.04L32.85,32.04C32.85,32.04,33.89,30.4,35.57,30.01Z" fill="white"/><path d="M36.98,29.37C36.11,29.28,35.34,29.89,35.26,30.73C35.17,31.57,35.8,32.33,36.67,32.42C37.54,32.5,38.31,31.89,38.4,31.05C38.48,30.21,37.85,29.46,36.98,29.37Z" fill="#403836"/><path d="M41.22,31.73C40.75,31.78,40.23,31.51,39.93,31.36C37.95,30.43,35.26,29.64,33.46,31.35C34.86,29.13,38.39,29.26,40.35,30.66L40.61,30.84C41.09,31.32,41.72,31.37,42.38,31.13L42.38,31.14C42.11,31.45,41.7,31.69,41.22,31.73Z" fill="#403836"/><path d="M40.64,24.93C40.39,24.85,34.26,26.11,32.17,26.59L32.17,28.49C33.27,28.28,36.5,27.65,37.72,27.49C39.93,27.18,41.18,27.16,41.73,27.55C42.28,27.93,43.58,29.68,43.58,29.68C43.58,29.68,43.4,28.5,42.75,27.05L42.75,27.04C42.14,25.67,41.18,25.1,40.64,24.93Z" fill="#816A62"/><path d="M17.88,24.93C18.13,24.85,24.26,26.11,26.35,26.59L26.35,28.49C25.25,28.28,22.02,27.65,20.8,27.49C18.59,27.18,17.34,27.16,16.79,27.55C16.24,27.93,14.94,29.68,14.94,29.68C14.94,29.68,15.12,28.5,15.77,27.05L15.77,27.04C16.38,25.67,17.34,25.1,17.88,24.93Z" fill="#816A62"/><path d="M22.51,30.02C21.54,29.79,19.35,29.52,17.92,30.8C17.73,31.03,17.28,31.44,17.28,31.44C17.28,31.44,19.56,33.28,23.23,32.2C23.61,32.09,24.01,32.04,24.41,32.05L25.23,32.05C25.23,32.05,24.18,30.42,22.51,30.02Z" fill="white"/><path d="M22.84,30.75C22.75,29.91,21.97,29.3,21.1,29.39C20.24,29.48,19.6,30.24,19.69,31.08C19.78,31.92,20.56,32.53,21.42,32.44C22.29,32.34,22.92,31.59,22.84,30.75Z" fill="#403836"/><path d="M17.47,30.89L17.73,30.71C19.68,29.3,23.22,29.15,24.62,31.37C22.81,29.66,20.13,30.46,18.15,31.4C17.85,31.55,17.33,31.82,16.86,31.77C16.38,31.73,15.97,31.5,15.7,31.19C16.36,31.43,16.99,31.37,17.47,30.89Z" fill="#403836"/><path d="M24.04,14.56C18.56,13.91,15.66,20.78,15.7,29.41C15.74,37.44,11.33,42.43,20.61,52.69C21.67,54.2,23.87,56.76,24.12,60C24.53,65.4,20.8,66.98,18.17,68.17C18.17,68.17,18.66,59.76,9.86,51.45C2.38,44.85,3.64,19.4,13.86,11.38C24.08,3.36,32.83,5.05,36.26,12.5L36.26,12.51C36.26,12.51,31.1,15.8,24.04,14.56Z" fill="#755950"/><path d="M23.74,15.67C18.26,15.02,16.56,21.6,17.81,32.53C18.72,40.51,13.64,43.27,18.03,49.52C19.09,51.03,21.81,54.79,21.87,58.04C21.91,60.63,22.08,63.33,19.23,66.23C19.23,66.23,19.65,59.27,9.36,50.88C6.24,48.16,3.94,44.62,2.79,40.64C-0.58,28.99,5.33,16.15,12.78,10.3C23,2.28,35.5,5.91,38.93,13.37L38.94,13.37C38.94,13.37,30.8,16.91,23.74,15.67Z" fill="#403836"/><path d="M31.6,40.6C31.44,40.54,31.11,40.44,30.84,40.5C29.71,40.9,29.21,41.71,27.99,40.81C27.59,40.49,26.94,40.39,26.52,40.61C25.54,40.94,25.01,40.35,24.93,39.39C24.66,40.51,25.3,41.62,26.63,41.3C27.12,41.18,27.27,41.22,27.67,41.53C28.05,41.78,28.5,42.05,29.06,42.07C29.65,42.05,30.07,41.77,30.46,41.54C30.88,41.23,31.01,41.19,31.5,41.3C32.84,41.57,33.43,40.63,33.19,39.39L33.18,39.37C33.1,40.34,32.59,40.92,31.6,40.6Z" fill="#E69D7C"/><path d="M29.09,51.2C33.12,51.2,33.55,48.94,37.21,44.93L20.94,44.96L20.95,44.96C24.12,49.06,25.06,51.21,29.09,51.2Z" fill="#D8686C"/><path d="M29.15,48.91C32.78,48.91,33.44,47.54,36.3,45.09L21.87,45.11C24.44,47.61,25.51,48.91,29.15,48.91Z" fill="white"/><path d="M29.08,44.63C27.17,43.71,22.76,44.45,21.03,44.8C20.89,44.83,20.9,45.03,21.03,45.05C25.47,45.68,28.28,45.94,29,46C29,46,29.04,46,29.08,46C29.12,46,29.14,46,29.16,46C29.88,45.92,32.69,45.66,37.13,45.01C37.27,44.99,37.28,44.78,37.13,44.76L37.14,44.77C35.41,44.43,30.99,43.71,29.08,44.63Z" fill="#D8686C"/><path d="M44.19,20.93C50.67,23.62,44.21,14.76,44.21,14.76L39.63,12.19L37.31,13.1C37.31,13.1,37.71,18.24,44.19,20.93Z" fill="#403836"/><path d="M28.32,42.45C28.76,42.72,29.31,42.72,29.76,42.45L33.12,40.38L24.96,40.38Z" fill="#E69D7C"/><path d="M18.2,13.81C12.55,20.73,19.67,34.01,14.21,40.92C10.64,45.44,6.1,45.68,6.1,45.68C6.1,45.68,15.35,40.85,11.92,32.23C8.49,23.62,10.8,7.28,23.84,6.2C36.27,4.57,34.62,15.96,29.09,11.93L29.08,11.93C29.08,11.93,23.85,6.88,18.2,13.81Z" fill="#755950"/><path d="M44.19,75.13C49.5,80.84,51.73,81.15,53.64,89.98L54.77,79.43L53.1,49.22L46.53,44.24L44.72,48.06L44.73,48.06C44.73,48.06,38.67,67.95,44.19,75.13Z" fill="#5B514E"/><path d="M86.87,66.14C87.69,63.44,88.8,63.35,89.55,59.59C92.01,45.41,83.82,32.72,79.24,28.88C75.32,25.59,68.7,23.66,65.37,26C60.56,22.25,43.97,29.08,45.22,48.68C45.2,48.68,46.26,53.87,43.16,65.93Z" fill="#5B514E"/><path d="M66.6,29.19C62.54,24.82,45.07,31.43,46.28,50.91C46.26,50.91,41.29,68.5,49.1,77.04C55.13,82.65,52.4,87.49,53.71,90C53.37,88.02,62.96,83.76,53.77,72.17C53.77,72.17,75.58,71.9,75.58,72.17C75.58,72.17,75.58,74.96,75.58,74.94L75.02,71.34C73.58,75.67,76.28,77.49,77.67,77.43C78.68,77.39,79.62,76.94,80.42,76.33C89.33,69.67,89.71,58.5,89.84,56.32C90.61,43.91,83.24,35.27,79.4,31.48C75.77,27.89,69.81,26.86,66.6,29.19Z" fill="#5B514E"/><path d="M65.37,28.74C61.67,25.01,42.97,30.02,44.22,49.66C44.2,49.66,39.3,68.22,47.42,76.82C52.28,81.21,53.23,85.26,53.34,87.97C53.37,88.65,53.89,86.53,54.05,85.87C54.76,83.02,56.75,79.03,50.17,67.94C50.17,67.94,74.66,70.8,74.66,71.07C74.66,71.07,74.66,73.88,74.66,73.86C74.61,75.76,75.8,75.09,78.44,73.81C87.69,67.1,88.16,56.32,88.3,54.12C89.1,41.61,82.63,34.86,78.64,31.04L78.63,31.05C74.86,27.44,68.7,26.39,65.37,28.74Z" fill="#37302E"/><path d="M63.78,34.72C49.57,34.37,45.36,47.95,48.78,61.56C49.98,66.51,50.31,70.31,54.91,74.02C56.14,75.03,59.56,78.33,60.31,78.75C60.83,79.07,62.47,79.88,64.43,79.81C66.39,79.9,68.04,79.12,68.57,78.81C69.33,78.4,72.8,75.15,74.04,74.16C78.69,70.52,79.08,66.72,80.36,61.79C83.99,48.23,79.97,34.59,65.77,34.73C65.77,34.73,63.81,34.72,63.78,34.72Z" fill="#FBCDAA"/><path d="M67.53,50.58L72.8,47.9L76.43,48.1L79.51,49.74C79.51,49.74,79.61,52.67,77.12,53.12C74.64,53.57,67.53,54.01,67.53,54.01Z" fill="#F4AF8A"/><path d="M61.72,50.58L56.45,47.9L52.82,48.1L49.72,49.51C49.72,49.51,49.64,52.67,52.13,53.12C54.62,53.57,61.72,54.01,61.72,54.01Z" fill="#F4AF8A"/><path d="M60.87,48.25C61.39,48.38,61.76,48.88,61.76,49.46L61.76,50.54C60.73,50.32,55.92,48.84,54.46,48.38C54.18,48.29,53.88,48.29,53.6,48.38L49.83,49.52C49.83,49.52,51.5,47.31,53.82,46.52L53.81,46.51C53.93,46.27,58.03,47.54,60.87,48.25Z" fill="#816A62"/><path d="M64.51,65.74C61.82,65.72,58.38,65.8,56.82,66.52C56.69,66.57,59.32,72.94,64.45,72.98C69.58,73.02,72.31,66.69,72.18,66.64L72.19,66.64C70.65,65.9,67.21,65.77,64.51,65.74Z" fill="#D8686C"/><path d="M57.15,66.82C56.97,66.9,60.69,70.61,64.48,70.64C68.27,70.67,72.05,67.02,71.89,66.93C67.76,66.93,64.5,67.39,64.5,67.39C64.5,67.39,61.27,66.89,57.15,66.82Z" fill="white"/><path d="M68.53,48.3C68,48.42,67.63,48.92,67.62,49.5L67.62,50.58C68.64,50.38,73.47,48.96,74.94,48.53C75.22,48.45,75.52,48.45,75.8,48.54L79.56,49.73C79.56,49.73,77.92,47.5,75.61,46.67C75.49,46.43,71.37,47.64,68.53,48.3Z" fill="#816A62"/><path d="M71.65,51.79C72.59,51.5,74.07,51.46,75.56,52.65C75.76,52.87,76.37,52.88,76.37,52.88C76.37,52.88,73.71,55.19,70.58,54.02C70.2,53.93,69.11,53.98,69.11,53.98L69.11,53.99C69.11,53.99,70.04,52.29,71.65,51.79Z" fill="white"/><path d="M72.91,51.68C72.08,51.49,71.25,52,71.06,52.83C70.87,53.65,71.39,54.47,72.23,54.67C73.06,54.86,73.89,54.34,74.08,53.52C74.27,52.7,73.75,51.87,72.91,51.68Z" fill="#6A4632"/><path d="M75.25,53.33C74.68,53.14,74.17,52.79,73.63,52.55C72.1,51.94,70.47,52.65,69.31,53.77C70.23,51.9,72.31,51.11,74.22,51.69C74.57,51.8,74.9,51.97,75.21,52.17C76.44,52.95,77.28,52.97,78.35,52.21L78.36,52.21C77.97,53.44,76.36,53.82,75.25,53.33Z" fill="#37302E"/><path d="M57.58,51.79C56.64,51.5,55.16,51.46,53.67,52.65C53.47,52.87,52.86,52.88,52.86,52.88C52.86,52.88,55.52,55.19,58.65,54.02C59.03,53.93,60.12,53.98,60.12,53.98L60.12,53.99C60.12,53.99,59.19,52.29,57.58,51.79Z" fill="white"/><path d="M58.18,52.83C57.99,52.01,57.16,51.49,56.33,51.68C55.49,51.88,54.97,52.7,55.16,53.52C55.35,54.35,56.18,54.86,57.01,54.67C57.85,54.48,58.37,53.65,58.18,52.83Z" fill="#6A4632"/><path d="M53.98,53.33C54.55,53.14,55.06,52.79,55.6,52.55C57.13,51.94,58.76,52.65,59.92,53.77C59,51.9,56.92,51.11,55.01,51.69C54.66,51.8,54.33,51.97,54.02,52.17C52.79,52.95,51.95,52.97,50.88,52.21L50.87,52.21C51.26,53.44,52.87,53.82,53.98,53.33Z" fill="#37302E"/><path d="M65.52,62.62C65.08,62.96,64.84,63.21,64.53,63.21C64.22,63.21,63.98,62.96,63.54,62.62C62.08,61.71,60.79,63.36,60.5,60.82C60.47,61.11,60.45,61.35,60.46,61.56C60.38,63.61,61.86,62.76,63.19,63.44C63.45,63.63,63.89,64.16,64.53,64.16C65.17,64.16,65.61,63.63,65.87,63.44C67.2,62.76,68.68,63.6,68.6,61.56C68.6,61.35,68.6,61.11,68.56,60.82C68.26,63.37,66.98,61.71,65.52,62.62Z" fill="#E69D7C"/><path d="M63.91,64.44C64.33,64.72,64.85,64.72,65.27,64.44L68.44,62.3L60.75,62.3L60.74,62.3Z" fill="#E69D7C"/><path d="M81.12,61.36C81.12,61.36,90.01,30.18,64.53,34.73C64.53,34.73,80.48,35.28,81.12,61.36Z" fill="#37302E"/><path d="M47.95,61.12C47.95,61.12,39.53,29.81,64.94,34.74C64.94,34.74,48.98,35.05,47.95,61.12Z" fill="#37302E"/><path d="M80.51,74.87C81.07,74.54,81.6,74.18,82.1,73.76C83.34,72.7,84.25,71.33,85.1,69.96C85.7,68.99,86.25,67.99,86.77,66.96C88.37,58.63,87.21,49.11,82.59,42.27C75.3,31.47,66,31.79,66,31.79C66,31.79,86.48,37.34,83.31,66.19L83.3,66.19C83.3,66.19,83.13,69.39,80.51,74.87Z" fill="#5B514E"/><path d="M42.28,70.45C40.68,62.12,43.06,48.84,47.68,42C54.97,31.2,64.93,31.79,64.93,31.79C64.93,31.79,35.28,37.14,49.1,79.01C49.1,79.01,43.97,76.48,42.28,70.45Z" fill="#5B514E"/></svg>