<svg xmlns="http://www.w3.org/2000/svg" viewBox="0 0 90 90"><path d="M20.86,50.42C20.16,47.98,19.32,46.11,18.43,44.79C16.87,41.98,15.11,40.96,13.69,41.56C12.56,42.03,14.52,49.85,14.11,52.25C13.33,56.86,14.4,60.43,14.41,60.43C15.31,62.44,16.14,63.85,16.95,64.43C18.04,65.62,19.09,65.43,20.22,63.2C30.49,63.15,29,58.93,26,55.43C24.29,53.21,21.8,51.16,20.86,50.42Z" fill="#B46754"/><path d="M76.66,43.16C76.69,42.28,76.62,41.66,76.31,41.55C74.21,40.72,71.35,43.2,69.52,49.62C69.52,49.62,61.1,55.53,62.44,59C61.99,61.23,63.69,63.06,70.39,63.12C72.22,66.7,73.79,65.08,75.69,60.88C75.69,60.88,76.5,58.17,76.16,54.43C76.14,53.56,76.07,52.62,75.89,51.62L75.89,51.63C75.96,49.18,76.8,44.99,76.66,43.16Z" fill="#B46754"/><path d="M45.5,55.9C25.14,55.9,13.33,45.39,13.33,27.73C13.21,16.18,26.16,0,46.52,0C54.42,0,61.65,6.7,67.16,9.64C72.62,10.06,76.54,17.73,76.54,26.92L76.55,26.92C76.55,45.74,65.86,55.9,45.5,55.9Z" fill="#414141"/><path d="M45.5,58.7C25.14,58.7,13.33,48.13,13.33,30.4C13.21,18.8,26.16,2.54,46.52,2.54C54.42,2.54,61.65,9.27,67.16,12.22C72.62,12.64,76.54,20.34,76.54,29.58L76.55,29.59C76.55,48.49,65.86,58.7,45.5,58.7Z" fill="#2C2C2C"/><path d="M72.21,50.39C72.07,47.19,71.46,44.02,70.36,41.01C68.9,37.04,67.41,34.03,67.41,23.4C58.36,22.17,42.67,21.65,37.18,23.51C36.51,23.74,35.89,24.09,35.36,24.56C32.46,27.09,30.13,27.42,27.91,27.71C24.51,28.15,21.78,30.73,21.16,34.1C20.81,36.03,20.25,38.51,19.46,41.54C18.96,43.45,18.63,45.4,18.49,47.36C18.14,52.28,19.7,60.72,19.64,62.71C19.49,68.47,22.53,70.57,27.24,76.7C28.44,78.26,29.54,79.64,30.58,80.87C34.33,86.23,37.31,90,44.88,90C44.99,90,45.42,90,45.53,90C54.76,90,57.57,83.91,62.79,77.29C67.74,71.03,71.01,68.66,70.86,62.71L70.87,62.7C70.83,61.28,72.37,54.16,72.21,50.39Z" fill="#C88064"/><path d="M51.39,42.45C51.19,42.72,50.99,42.98,50.78,43.25C50.05,44.21,49.32,45.16,48.6,46.12L49.4,49.86C50.04,52.85,52.4,54.95,55.11,54.95L62.2,54.95C65.5,54.95,68.17,51.92,68.17,48.19L68.17,43.98C68.17,43.44,68.08,42.93,67.92,42.46L67.93,42.45Z" fill="#A6604D"/><path d="M22.66,42.45C22.5,42.92,22.41,43.44,22.41,43.97L22.41,48.18C22.41,51.92,25.08,54.94,28.38,54.94L35.47,54.94C38.18,54.94,40.54,52.84,41.18,49.85L42.07,45.7L39.59,42.44L39.59,42.45Z" fill="#A6604D"/><path d="M58.87,60.75C58.87,60.74,58.85,60.72,58.85,60.71C57.67,58.84,54.94,58.35,52.74,55.9L45.17,61.17L37.71,55.9C35.51,58.35,32.77,58.85,31.6,60.71C31.6,60.72,31.58,60.74,31.58,60.75C30.99,61.68,30.76,64.48,30.74,66.4L45.4,67.89L59.72,66.4L59.71,66.4C59.69,64.48,59.46,61.68,58.87,60.75Z" fill="#BB6E59"/><path d="M36.99,73.81C38.55,77.64,40.65,81.38,45.36,81.38C50.07,81.38,51.95,77.64,53.51,73.81C53.92,72.81,54.25,71.82,54.54,70.89L45.25,72.41L35.95,70.89L35.96,70.89C36.25,71.83,36.58,72.81,36.99,73.81Z" fill="#854434"/><path d="M34.54,69.16C36.57,74.21,39.29,79.13,45.4,79.13C51.51,79.13,53.95,74.21,55.97,69.16C56.32,68.29,56.63,67.42,56.9,66.59L45.54,68.77L33.6,66.59C33.88,67.44,34.18,68.29,34.54,69.16Z" fill="#E19075"/><path d="M35.22,68.5C37.12,71.48,39.66,74.37,45.39,74.37C51.12,74.37,53.39,71.47,55.29,68.5C55.62,68,55.91,67.49,56.17,66.99L45.53,68.63L34.34,66.99C34.6,67.49,34.89,68,35.22,68.5Z" fill="white"/><path d="M40.46,43.07C40.48,43.11,37.15,42.3,33.27,42.26C29.4,42.12,24.97,42.75,22.98,43.49C21.74,40.22,26.27,38.16,31,38.13C35.76,37.93,40.71,39.75,40.96,40.21L40.97,40.2C41.74,41.08,41.22,41.77,40.46,43.07Z" fill="#2C2C2C"/><path d="M50.19,43.07C50.17,43.11,53.5,42.3,57.38,42.26C61.25,42.12,65.68,42.75,67.67,43.49C68.91,40.22,64.38,38.16,59.65,38.13C54.89,37.93,49.94,39.75,49.69,40.21L49.68,40.2C48.91,41.08,49.43,41.77,50.19,43.07Z" fill="#2C2C2C"/><path d="M46.55,66.87C46.13,67,45.7,67.08,45.26,67.11C44.82,67.08,44.39,67,43.97,66.87C40.39,65.74,34.89,66.48,31.88,66.03C32.31,66.36,33.23,67.08,34.86,67.78C36.83,68.64,39.16,69.47,44.7,69.57C44.7,69.57,44.73,69.57,44.74,69.57C44.92,69.57,45.09,69.57,45.26,69.57C45.43,69.57,45.6,69.57,45.78,69.57C45.8,69.57,45.81,69.57,45.82,69.57C51.35,69.46,53.69,68.63,55.66,67.77C57.29,67.06,58.21,66.35,58.64,66.02L58.64,66.03C55.63,66.48,50.13,65.74,46.55,66.87Z" fill="#974D3B"/><path d="M27.3,46.23C27.3,46.23,33.09,49.95,38.56,46.23C38.56,46.23,32.77,42.29,27.3,46.23Z" fill="white"/><path d="M35.68,46.25C35.68,44.87,34.45,43.76,32.93,43.76C31.41,43.76,30.18,44.87,30.18,46.25C30.18,47.62,31.41,48.74,32.93,48.74C34.45,48.74,35.68,47.62,35.68,46.25Z" fill="#2C2C2C"/><path d="M38.56,46.23C34.81,44.98,31.12,45.1,27.3,46.23C30.34,43.52,35.56,43.39,38.56,46.23Z" fill="#2C2C2C"/><path d="M63.21,46.23C63.21,46.23,57.42,49.95,51.95,46.23C51.95,46.23,57.74,42.29,63.21,46.23Z" fill="white"/><path d="M60.33,46.25C60.33,44.87,59.1,43.76,57.58,43.76C56.06,43.76,54.83,44.87,54.83,46.25C54.83,47.62,56.06,48.74,57.58,48.74C59.1,48.74,60.33,47.62,60.33,46.25Z" fill="#2C2C2C"/><path d="M63.21,46.23C59.46,44.98,55.77,45.1,51.95,46.23C54.99,43.52,60.21,43.39,63.21,46.23Z" fill="#2C2C2C"/><path d="M49.58,55.37L49.26,55.37L47.89,45.55L42.62,45.55L41.25,55.37L40.93,55.37C40.93,55.37,40.74,53.24,39.18,53.54C37.62,53.84,34.73,59.35,39.65,60.55C39.65,60.55,41.26,60.79,42.39,63.37C43.05,64.4,47.46,64.4,48.12,63.37C49.25,60.79,50.86,60.55,50.86,60.55C55.78,59.36,52.89,53.84,51.33,53.54C49.77,53.24,49.58,55.37,49.58,55.37Z" fill="#C88064"/><path d="M64.42,42.13L52.17,42.13C51.16,42.13,50.22,42.58,49.66,43.35L48.45,44.99C48.09,45.47,47.92,46.05,47.95,46.62L42.83,46.62C42.86,46.05,42.68,45.47,42.33,44.99L41.12,43.35C40.56,42.59,39.62,42.13,38.61,42.13L26.36,42.13C24.46,42.13,22.85,43.27,22.32,44.83L22.15,45.67C22.15,45.76,22.14,49.27,22.14,49.27C22.14,52.46,25.02,55.05,28.56,55.05L35.65,55.05C38.58,55.05,41.1,53.26,41.79,50.7L42.67,47.46L48.13,47.46L49.01,50.7C49.7,53.26,52.23,55.05,55.15,55.05L62.24,55.05C65.78,55.05,68.66,52.46,68.66,49.27L68.66,45.94C68.66,45.85,68.66,45.76,68.65,45.68L68.48,44.84L68.46,44.83C67.93,43.27,66.32,42.13,64.42,42.13Z" fill="#E5E3E2"/><path d="M40.92,50.49C40.33,52.68,38.16,54.2,35.64,54.2L28.55,54.2C25.5,54.2,23.02,51.99,23.02,49.27L23.02,45.94C23.02,44.31,24.51,42.98,26.35,42.98L38.6,42.98C39.32,42.98,39.98,43.3,40.38,43.83L41.59,45.47C41.91,45.9,42.01,46.44,41.88,46.94L41.88,46.93Z" fill="#E5E3E2"/><path d="M62.23,54.2L55.14,54.2C52.62,54.2,50.45,52.67,49.86,50.49L48.9,46.93C48.77,46.43,48.87,45.89,49.19,45.46L50.4,43.82C50.79,43.28,51.46,42.97,52.18,42.97L64.43,42.97C66.27,42.97,67.76,44.3,67.76,45.93L67.76,49.26L67.75,49.27C67.75,51.99,65.27,54.2,62.23,54.2Z" fill="#E5E3E2"/><path d="M67.95,22.96C66.45,22.46,50.56,20.94,39.84,14.25C32.09,9.4,38.87,2.62,43.72,1.65C38.87,1.65,28.21,5.53,21.43,11.34C16.58,18.12,37.41,23.11,37.91,22.96L37.9,22.96C38.2,22.87,66.79,23.5,67.95,22.96Z" fill="#484542"/><path d="M51.88,55.06C52.29,55.55,52.6,56.22,52.75,56.71C53.48,58.66,52.43,60.25,50.62,60.58C49.3,60.84,48.48,62,47.82,62.87C47.17,63.59,46.22,64.01,45.26,64C44.3,64.01,43.35,63.59,42.7,62.87C42.1,62.02,41.05,60.76,39.95,60.59C37.99,60.24,37.08,58.57,37.77,56.71C37.95,56.07,38.28,55.48,38.65,55.06L37.99,55.06C37.64,55.46,37.34,55.95,37.16,56.48C36.76,57.43,36.62,58.59,37.1,59.64C37.58,60.72,38.7,61.29,39.7,61.56C40.06,61.63,40.52,61.94,40.86,62.3C41.22,62.64,41.42,63.08,41.87,63.6C43.56,65.61,46.94,65.61,48.63,63.6C49.32,62.74,49.79,61.85,50.76,61.57C51.78,61.31,52.92,60.74,53.41,59.64C54.04,58.1,53.6,56.26,52.5,55.05L52.51,55.06Z" fill="#974D3B"/></svg>