<svg xmlns="http://www.w3.org/2000/svg" viewBox="0 0 90 90"><path d="M24.39,13.77C22.99,17.82,23.75,21.6,23.92,22.48C23.93,22.53,23.94,22.57,23.94,22.6C24.05,23.19,24.31,24.12,24.65,25.28C25.37,27.81,26.42,31.43,26.75,35L26.81,35C26.93,41.81,27.09,48.19,27.24,48.66C28.16,51.52,33.91,56.37,39.6,59.82C40.22,60.2,50.02,60.13,50.64,59.75C56.34,56.29,61.77,51.51,62.68,48.65C62.84,48.18,62.99,41.81,63.11,35L63.19,35L63.33,35C63.67,32.03,64.38,29.89,64.96,28.13C65.35,26.95,65.68,25.94,65.81,24.96C65.82,24.91,65.84,24.83,65.86,24.72C66.21,22.85,68.15,12.43,59.45,6.99C59.58,5.99,59.4,5.03,58.98,4.39C58.5,3.66,50.77,0.08,40.85,0.81C36.22,1.14,31.67,2.44,27.2,6.67C25.81,7.97,21.51,12.03,21.51,12.03C22.38,12.73,23.34,13.3,24.39,13.77Z" fill="currentColor"/><path d="M60.77,58.54L63.78,64.8L65.25,72.44L52.08,72.44L52.08,63.01L58.5,57.72Z" fill="currentColor"/><path d="M28.74,58.78L26.63,64.72L24.92,72.44L38.09,72.44L38.09,63.01L31.67,57.72Z" fill="currentColor"/><path d="M28.34,69.43L28.34,79.92L62.81,79.92L62.81,69.43Z" fill="currentColor"/><path d="M59.8,58.78L58.25,63.82L56.63,56.18Z" fill="currentColor"/><path d="M30.21,58.78L31.75,63.82L33.38,56.18Z" fill="currentColor"/><path d="M45,39.02L32.4,37.72L30.69,67.48C30.69,67.48,35.73,74.55,45,74.55C54.27,74.55,59.31,67.48,59.31,67.48L57.6,37.72Z" fill="currentColor"/><path d="M1.51,78.05L1.51,77.97L0.73,84.31C0.36,87.29,2.69,89.92,5.69,89.92L84.31,89.92C87.31,89.92,89.64,87.29,89.27,84.31L88.5,77.97L88.5,78.05C85.96,70.78,71.72,66.28,63.97,63.83C62.54,63.38,61.32,63,60.45,62.68L54.03,71.22C54.03,71.22,54.92,73.33,51.67,76.83C51.67,76.83,47.76,77.81,45,78.05C42.24,77.81,38.33,76.83,38.33,76.83C35.08,73.33,35.98,71.22,35.98,71.22L29.55,62.68C28.68,63,27.47,63.38,26.03,63.83C18.28,66.28,4.04,70.78,1.51,78.05Z" fill="currentColor"/><path d="M59.88,62.76L53.46,71.3C53.46,71.3,54.35,73.41,51.1,76.91C51.1,76.91,48.58,78.21,45,78.21C41.42,78.21,38.9,76.91,38.9,76.91C35.73,73.41,36.55,71.3,36.55,71.3L30.12,62.76C24.51,64.8,6.22,70.41,2.97,78.13L1.54,83.77C0.74,86.93,3.13,90,6.39,90L83.54,90C86.8,90,89.18,86.93,88.38,83.77L86.95,78.13L87.03,78.13C83.86,70.41,65.57,64.8,59.88,62.76Z" fill="currentColor"/><path d="M53.21,68.45L61.59,65.85L51.1,76.91Z" fill="currentColor"/><path d="M61.34,74.39L63.78,64.31L59.8,58.78L53.21,68.46Z" fill="currentColor"/><path d="M36.71,68.45L28.42,65.85L38.82,76.91Z" fill="currentColor"/><path d="M28.66,74.39L26.22,64.31L30.2,58.78L36.71,68.46Z" fill="currentColor"/><path d="M40.2,62.52C41.1,62.93,42.89,63.17,44.76,63.17C46.79,63.17,48.82,63.17,49.72,62.68C50.86,62.11,54.84,58.21,58.17,54.47L31.83,54.47C35.08,58.13,39.07,61.95,40.2,62.52Z" fill="currentColor"/><path d="M32.4,37.72L31.34,56.18C34.03,58.78,39.72,63.66,41.02,64.15C41.75,64.39,43.29,64.55,44.92,64.55C46.63,64.55,48.33,64.55,49.15,64.23C50.45,63.74,55.9,58.78,58.66,56.18L57.77,37.72L45.16,39.11L45,39.11Z" fill="currentColor"/><path d="M65.08,40.81C65.49,40.41,65.9,39.11,65.98,38.7C66.22,37.64,67.77,30.49,66.95,28.7C66.79,28.37,66.63,28.05,66.38,27.8C65.41,26.67,63,27.48,63,27.48L63,41.54C63,41.54,64.19,41.63,65.08,40.81Z" fill="currentColor"/><path d="M65.08,39.84C65.49,39.43,65.9,38.13,65.98,37.8C66.22,36.75,67.77,29.76,66.95,27.97C66.79,27.64,66.63,27.32,66.38,27.07C65.41,25.93,63,26.75,63,26.75L63,40.57C63,40.57,64.19,40.65,65.08,39.84Z" fill="currentColor"/><path d="M65.65,35.85C65.9,34.88,67.36,30.73,66.55,29.11C66.38,28.78,65.98,28.05,65.33,28.78C64.03,30.57,64.19,33.9,64.19,33.9C64.19,33.9,66.06,34.15,64.76,38.29L64.68,38.37C65.08,37.97,65.57,36.18,65.65,35.85Z" fill="currentColor"/><path d="M24.84,40.41C24.43,40,24.03,38.7,23.94,38.29C23.62,37.24,21.91,30,22.64,28.13C22.81,27.81,22.97,27.48,23.21,27.24C24.19,26.02,26.06,26.83,26.06,26.83L26.95,41.06L26.87,41.06C26.87,41.06,25.73,41.22,24.84,40.41Z" fill="currentColor"/><path d="M25.08,40.89C24.68,40.49,24.27,39.11,24.19,38.78C23.94,37.72,22.4,30.41,23.21,28.62C23.38,28.29,23.54,27.97,23.78,27.72C24.76,26.58,26.63,27.4,26.63,27.4L27.03,41.63L27.12,41.63C27.12,41.63,25.98,41.71,25.08,40.89Z" fill="currentColor"/><path d="M23.38,29.76C22.56,31.46,24.03,35.77,24.27,36.75C24.34,37.03,24.73,38.51,25.09,39.14C23.92,35.11,25.73,34.8,25.73,34.8C25.73,34.8,25.89,31.3,24.59,29.43L24.6,29.43C23.94,28.7,23.54,29.43,23.38,29.76Z" fill="currentColor"/><path d="M25.25,23.66C25.81,27.48,27.85,46.34,27.93,47.24C28.17,49.02,29.47,50.98,30.45,52.44C31.99,54.55,39.31,60,40.86,60.57C41.59,60.81,43.13,60.98,44.76,60.98C46.47,60.98,48.17,60.98,48.99,60.65C50.53,60.16,57.93,54.55,59.47,52.44C60.53,50.98,61.83,49.02,61.99,47.24C62.16,46.26,64.11,27.48,64.68,23.66C64.84,22.36,69.96,2.28,44.92,2.28L45,2.28C19.96,2.28,25.08,22.36,25.25,23.66Z" fill="currentColor"/><path d="M45.67,36.25L58.59,36.41C58.59,36.41,61.77,28.45,60.63,25.68C59.49,22.84,50.38,24.63,47.7,25.93C46.16,30.07,45.67,36.25,45.67,36.25Z" fill="currentColor"/><path d="M31.25,36.42L44.17,36.26C44.17,36.26,43.68,30.08,42.14,25.93C39.46,24.63,30.35,22.84,29.21,25.69C28.07,28.45,31.25,36.42,31.25,36.42Z" fill="currentColor"/><path d="M60.6,26.3C60.35,25.87,52.47,25.79,47.98,26.02C47.15,26.07,47.37,29.74,47.71,30.57C49.63,35.49,56.75,34.07,58.88,30.54C59.43,29.63,60.83,26.61,60.6,26.3Z" fill="currentColor"/><path d="M29.3,26.34C29.55,25.92,37.29,24.88,41.78,25.11C42.61,25.15,42.5,29.74,42.16,30.57C40.24,35.49,33.12,34.07,30.99,30.54C30.44,29.63,29.06,26.65,29.3,26.34Z" fill="currentColor"/><path d="M44.93,27.15L43.06,27.15C43.55,33.58,40.94,38.7,40.94,39.51C40.94,40.33,42.98,41.3,44.85,41.3C44.87,41.3,44.9,41.3,44.92,41.3C44.92,41.3,44.98,41.3,45,41.31C46.87,41.31,48.9,40.33,48.9,39.52C48.9,38.71,46.3,33.59,46.79,27.16L46.79,27.15Z" fill="currentColor"/><path d="M47.81,40.75C47.07,41.07,46.51,41.8,45.69,41.72C44.64,41.72,43.5,41.88,42.6,41.07C42.44,40.91,42.2,40.83,42.03,40.75C42.09,40.75,41.29,40.7,41.06,40.58C39.76,40.26,39.69,38.31,40.42,37.42C40.34,37.75,40.5,38.03,40.42,38.36C40.34,39.41,41.15,39.7,42.12,39.62C42.69,39.7,43.1,40.02,43.59,40.27C43.91,40.43,44.4,40.35,44.89,40.35C45.38,40.35,45.86,40.35,46.19,40.27C46.68,40.02,47.08,39.7,47.65,39.62C49.28,39.78,49.51,39.06,49.36,37.5L49.36,37.42C50.74,39.21,49.19,40.75,47.81,40.75Z" fill="currentColor"/><path d="M44.88,48.94C50.63,48.94,52.89,43.82,52.89,43.82C52.89,43.82,49.33,45.53,44.8,45.53C40.27,45.53,36.71,43.82,36.71,43.82L36.79,43.82C36.79,43.82,39.13,48.94,44.88,48.94Z" fill="currentColor"/><path d="M44.62,46.75C50.55,46.75,52.89,43.82,52.89,43.82C52.89,43.82,49.21,44.8,44.54,44.8C42.04,44.8,39.67,44.48,37.66,44.15C38.03,44.77,39.61,46.75,44.62,46.75Z" fill="currentColor"/><path d="M44.89,46.75C51.75,46.75,50.96,44.35,50.96,44.35C50.96,44.35,50.2,44.8,44.79,44.8C41.91,44.8,40.99,44.49,38.66,44.16C39.09,44.78,39.09,46.75,44.89,46.75Z" fill="currentColor"/><path d="M44.88,43.63C50.63,43.63,52.89,43.82,52.89,43.82C52.89,43.82,48.85,45.28,44.8,45.28C40.75,45.28,36.71,43.82,36.71,43.82L36.79,43.82C36.79,43.82,39.13,43.63,44.88,43.63Z" fill="currentColor"/><path d="M55.51,29.32C57.05,29.72,57.52,30.41,57.68,30.57C56.3,32.03,54.35,32.28,51.75,32.03C49.96,31.87,48.99,30.89,48.99,30.89C49.7,29.11,52.9,28.67,55.51,29.32Z" fill="currentColor"/><path d="M53.05,33.01C51.83,32.93,50.86,31.87,50.94,30.73C51.02,29.51,52.07,28.62,53.38,28.7C54.59,28.78,55.57,29.84,55.49,30.98C55.41,32.2,54.35,33.09,53.05,33.01Z" fill="currentColor"/><path d="M52.07,30.65C52.07,30.29,51.75,30,51.34,30C50.94,30,50.61,30.29,50.61,30.65C50.61,31.01,50.94,31.3,51.34,31.3C51.75,31.3,52.07,31.01,52.07,30.65Z" fill="currentColor"/><path d="M34.27,29.35C33.33,29.67,32.4,30.41,32.24,30.57C33.62,32.03,35.57,32.28,38.17,32.03C40.77,31.79,40.94,30.89,40.94,30.89C39.39,28.78,36.87,28.7,34.27,29.35Z" fill="currentColor"/><path d="M36.87,33.01C38.17,32.93,39.07,31.87,38.99,30.73C38.9,29.51,37.85,28.62,36.55,28.7C35.33,28.78,34.35,29.84,34.43,30.98C34.51,32.2,35.57,33.09,36.87,33.01Z" fill="currentColor"/><path d="M32.17,30.55C34.5,29.45,36.9,29.18,39.32,29.89C39.66,29.97,39.99,30.11,40.42,30.19C40.16,29.89,39.91,29.67,39.57,29.46L39.57,29.45C37.39,27.94,33.64,28.42,32.17,30.55Z" fill="currentColor"/><path d="M57.68,30.55C55.36,29.45,52.95,29.18,50.54,29.89C50.2,29.97,49.86,30.11,49.44,30.19C49.69,29.89,49.95,29.67,50.29,29.46L50.29,29.45C52.47,27.94,56.21,28.42,57.68,30.55Z" fill="currentColor"/><path d="M47.68,28.98L47.57,28.96C47.48,29.48,47.4,30.46,47.37,31.47C47.35,32.47,47.37,33.51,47.51,34.12C47.59,34.47,47.88,34.74,48.24,34.78C50.22,35.04,52.05,35.13,53.61,35.13C56.39,35.13,58.39,34.85,59.13,34.73L59.14,34.73C59.5,34.66,59.81,34.41,59.93,34.05C60.23,33.18,60.34,32.08,60.34,31.13C60.34,30.66,60.32,30.22,60.28,29.86C60.24,29.51,60.18,29.22,60.11,29.06C60.08,28.98,60.02,28.91,59.94,28.86C59.87,28.81,59.77,28.76,59.65,28.71C59.42,28.63,59.1,28.55,58.72,28.49C57.96,28.36,56.93,28.27,55.77,28.21C53.43,28.11,50.55,28.17,48.19,28.39" fill="none" stroke="currentColor" stroke-width="2" stroke-linecap="round" stroke-linejoin="round"/><path d="M47.68,28.98L47.57,28.96C47.62,28.66,47.87,28.42,48.19,28.39" fill="none" stroke="currentColor" stroke-width="2" stroke-linecap="round" stroke-linejoin="round"/><path d="M48.2,28.51L47.68,28.98C47.73,28.73,47.94,28.54,48.2,28.51Z" fill="currentColor"/><path d="M47.68,28.98C47.51,29.99,47.36,32.91,47.63,34.1C47.69,34.4,47.94,34.63,48.25,34.67L48.2,28.51" fill="none" stroke="currentColor" stroke-width="2" stroke-linecap="round" stroke-linejoin="round"/><path d="M48.2,28.51L48.19,28.39Z" fill="currentColor"/><path d="M48.2,28.51L48.19,28.39Z" fill="currentColor"/><path d="M48.28,29.11C51.02,28.85,53.7,28.84,55.76,28.93C56.79,28.98,57.67,29.06,58.32,29.14C58.65,29.19,58.91,29.23,59.11,29.28C59.21,29.3,59.3,29.32,59.36,29.34C59.4,29.36,59.43,29.37,59.46,29.38C59.49,29.5,59.53,29.72,59.56,30.01C59.6,30.33,59.62,30.72,59.61,31.15C59.61,32.02,59.51,33.02,59.24,33.82C59.2,33.92,59.12,34,59.01,34.01C57.88,34.2,53.74,34.75,48.33,34.07C48.27,34.06,48.23,34.02,48.22,33.97C48.1,33.43,48.07,32.46,48.09,31.49C48.12,30.54,48.19,29.6,48.28,29.11Z" fill="currentColor"/><path d="M47.68,28.98L47.57,28.96" fill="none" stroke="currentColor" stroke-width="0.23745" stroke-linecap="round" stroke-linejoin="round"/><path d="M47.68,28.98C47.73,28.73,47.94,28.54,48.2,28.51" fill="none" stroke="currentColor" stroke-width="0.23745" stroke-linecap="round" stroke-linejoin="round"/><path d="M47.68,28.98C47.51,29.99,47.36,32.91,47.63,34.1C47.69,34.4,47.94,34.63,48.25,34.67L48.2,28.51" fill="none" stroke="currentColor" stroke-width="0.23745" stroke-linecap="round" stroke-linejoin="round"/><path d="M47.57,28.96C47.48,29.48,47.4,30.46,47.37,31.47C47.35,32.47,47.37,33.51,47.51,34.12C47.59,34.47,47.88,34.74,48.24,34.78C50.22,35.04,52.05,35.13,53.61,35.13C56.39,35.13,58.39,34.85,59.13,34.73L59.14,34.73C59.5,34.66,59.81,34.41,59.93,34.05C60.23,33.18,60.34,32.08,60.34,31.13C60.34,30.66,60.32,30.22,60.28,29.86C60.24,29.51,60.18,29.22,60.11,29.06C60.08,28.98,60.02,28.91,59.94,28.86C59.87,28.81,59.77,28.76,59.65,28.71C59.42,28.63,59.1,28.55,58.72,28.49C57.96,28.36,56.93,28.27,55.77,28.21C53.43,28.11,50.55,28.17,48.19,28.39" fill="none" stroke="currentColor" stroke-width="0.23745" stroke-linecap="round" stroke-linejoin="round"/><path d="M47.57,28.96C47.62,28.66,47.87,28.42,48.19,28.39" fill="none" stroke="currentColor" stroke-width="0.23745" stroke-linecap="round" stroke-linejoin="round"/><path d="M48.19,28.39L48.2,28.51" fill="none" stroke="currentColor" stroke-width="0.23745" stroke-linecap="round" stroke-linejoin="round"/><path d="M48.28,29.11C51.02,28.85,53.7,28.84,55.76,28.93C56.79,28.98,57.67,29.06,58.32,29.14C58.65,29.19,58.91,29.23,59.11,29.28C59.21,29.3,59.3,29.32,59.36,29.34C59.4,29.36,59.43,29.37,59.46,29.38C59.49,29.5,59.53,29.72,59.56,30.01C59.6,30.33,59.62,30.72,59.61,31.15C59.61,32.02,59.51,33.02,59.24,33.82C59.2,33.92,59.12,34,59.01,34.01C57.88,34.2,53.74,34.75,48.33,34.07C48.27,34.06,48.23,34.02,48.22,33.97C48.1,33.43,48.07,32.46,48.09,31.49C48.12,30.54,48.19,29.6,48.28,29.11Z" fill="currentColor"/><path d="M36.35,35.13L36.35,35.12C37.89,35.11,39.66,35.02,41.6,34.78C41.96,34.73,42.25,34.47,42.33,34.12C42.47,33.51,42.5,32.47,42.47,31.46C42.45,30.46,42.36,29.47,42.27,28.96C42.22,28.65,41.97,28.42,41.66,28.39C39.3,28.16,36.41,28.1,34.08,28.2C32.91,28.25,31.88,28.34,31.12,28.47C30.74,28.54,30.43,28.61,30.2,28.7C30.08,28.74,29.98,28.79,29.9,28.84C29.83,28.89,29.77,28.96,29.74,29.04C29.67,29.2,29.61,29.49,29.57,29.84C29.53,30.21,29.51,30.65,29.51,31.13C29.51,32.08,29.62,33.18,29.91,34.05C30.03,34.41,30.34,34.66,30.71,34.73L30.71,34.73C31.45,34.85,33.45,35.13,36.23,35.13Z" fill="currentColor"/><path d="M30.48,29.36C30.54,29.34,30.63,29.32,30.73,29.29C30.93,29.25,31.2,29.2,31.52,29.16C32.17,29.07,33.05,28.99,34.08,28.95C36.14,28.85,38.82,28.86,41.56,29.12C41.65,29.61,41.73,30.55,41.75,31.5C41.77,32.47,41.74,33.44,41.63,33.97C41.61,34.03,41.57,34.07,41.51,34.08C36.1,34.76,31.97,34.21,30.83,34.02C30.72,34,30.64,33.93,30.6,33.83C30.33,33.04,30.23,32.05,30.23,31.19C30.23,30.76,30.25,30.36,30.28,30.04C30.31,29.75,30.35,29.53,30.39,29.39C30.41,29.38,30.44,29.37,30.48,29.36Z" fill="currentColor"/><path d="M47.44,31.58L47.5,31.58L47.51,31.58L47.55,31.58L47.58,31.55L47.96,31.24L48.06,31.15L47.96,31.06C47.96,31.06,47.96,31.06,47.96,31.06C47.96,31.06,47.96,31.06,47.96,31.06L47.95,31.04C47.93,31.03,47.92,31.02,47.9,31C47.86,30.96,47.81,30.91,47.74,30.85C47.6,30.73,47.41,30.57,47.15,30.42C46.64,30.11,45.89,29.81,44.93,29.81C43,29.81,41.94,31.01,41.89,31.07L41.81,31.16L41.9,31.24L42.27,31.55L42.38,31.65L42.44,31.53C42.45,31.52,42.46,31.51,42.47,31.5C42.5,31.47,42.54,31.43,42.6,31.38C42.71,31.28,42.87,31.16,43.08,31.03C43.5,30.78,44.13,30.52,44.92,30.52C45.72,30.52,46.34,30.78,46.76,31.04C46.98,31.16,47.14,31.29,47.25,31.39C47.3,31.44,47.34,31.47,47.37,31.5C47.38,31.52,47.39,31.53,47.4,31.53L47.41,31.54L47.41,31.54Z" fill="currentColor"/><path d="M48.06,31.15L47.96,31.24L47.58,31.55L47.55,31.58L47.51,31.58L47.5,31.58L47.44,31.58L47.41,31.54L47.41,31.54L47.4,31.53C47.39,31.53,47.38,31.52,47.37,31.5C47.34,31.47,47.3,31.44,47.25,31.39C47.14,31.29,46.98,31.16,46.76,31.04C46.34,30.78,45.72,30.52,44.92,30.52C44.13,30.52,43.5,30.78,43.08,31.03C42.87,31.16,42.71,31.28,42.6,31.38C42.54,31.43,42.5,31.47,42.47,31.5C42.46,31.51,42.45,31.52,42.44,31.53L42.38,31.65L42.27,31.55L41.9,31.24L41.81,31.16L41.89,31.07C41.94,31.01,43,29.81,44.93,29.81C45.89,29.81,46.64,30.11,47.15,30.42C47.41,30.57,47.6,30.73,47.74,30.85C47.81,30.91,47.86,30.96,47.9,31C47.92,31.02,47.93,31.03,47.95,31.04L47.96,31.06C47.96,31.06,47.96,31.06,47.96,31.06Z" fill="currentColor"/><path d="M35.41,30.73C35.41,30.37,35.08,30.08,34.68,30.08C34.27,30.08,33.94,30.37,33.94,30.73C33.94,31.09,34.27,31.38,34.68,31.38C35.08,31.38,35.41,31.09,35.41,30.73Z" fill="currentColor"/><path d="M44.96,2.28C68.63,2.3,65.3,20.29,64.74,23.3C64.71,23.47,64.69,23.59,64.68,23.66C64.32,26.04,63.43,34.21,62.77,40.28C62.37,43.96,62.05,46.87,61.99,47.24C61.83,49.02,60.53,50.98,59.47,52.44C57.93,54.55,50.53,60.16,48.99,60.65C48.17,60.98,46.47,60.98,44.76,60.98C43.13,60.98,41.59,60.81,40.86,60.57C39.31,60,31.99,54.55,30.45,52.44C29.47,50.98,28.17,49.02,27.93,47.24C27.85,46.34,25.81,27.48,25.25,23.66C25.24,23.59,25.21,23.47,25.18,23.3C24.63,20.29,21.29,2.3,44.96,2.28Z" fill="currentColor"/><path d="M45,2.28L44.92,2.28C44.93,2.28,44.95,2.28,44.96,2.28C44.97,2.28,44.99,2.28,45,2.28Z" fill="currentColor"/><path d="M56.54,10.16C63.2,14.15,62.55,22.76,62.55,22.76C61.98,48.04,55.8,47.23,55.8,47.23C56.21,39.44,49.66,40.44,46.26,40.96C45.73,41.04,45.28,41.11,44.94,41.13C44.6,41.11,44.13,41.04,43.57,40.96C40.17,40.44,33.64,39.45,34.05,47.24C34.05,47.24,27.87,48.05,27.3,22.76C27.3,22.76,26.65,14.15,33.32,10.16L33.16,10.16C35.58,8.68,37.84,8.71,42.1,8.76C42.95,8.77,43.88,8.78,44.9,8.78C45.95,8.78,46.89,8.77,47.75,8.76C52.01,8.71,54.26,8.68,56.69,10.16Z" fill="currentColor"/><path d="M43.97,44.02C39.38,43.5,36.82,43.2,37.2,49.02C37.2,49.02,39.22,51.06,41.64,51.22L41.89,51.22C42.29,50.16,43.51,49.35,44.88,49.35C46.25,49.35,47.63,50.16,48.03,51.22L48.2,51.22C50.78,51.22,52.89,49.02,52.89,49.02C53.19,43.21,50.7,43.5,46.13,44.02C45.78,44.06,45.42,44.11,45.04,44.15C44.67,44.11,44.31,44.06,43.97,44.02Z" fill="currentColor"/><path d="M23.62,11.38C23.62,11.38,27.52,7.89,28.82,6.59C33.21,2.36,37.77,1.06,42.32,0.73C52.16,0,59.72,3.58,60.12,4.31C61.18,5.93,60.69,9.59,57.68,10.73C49.23,13.98,31.1,16.42,23.62,11.38Z" fill="currentColor"/><path d="M34.1,5.13L40.21,4.16L34.29,7.23L41.91,6.48L36.88,9.16L43.9,8.02L41.06,9.86L49.48,10.21C44.87,10.75,31.72,12.04,27.59,9.51C28.82,7.67,33.85,3.18,38.2,2.34Z" fill="currentColor"/><path d="M51.08,10C51.09,10,51.1,10,51.1,10C51.1,10,51.09,9.99,51.07,9.98Z" fill="currentColor"/><path d="M42.32,26.42C42.08,24.96,41.91,23.82,40.94,22.68L38.66,22.68C35.73,22.28,32.89,22.03,31.91,22.68C31.02,23.25,29.64,24.23,29.23,25.28C28.99,25.93,29.23,26.75,29.47,27.15C31.75,25.12,42.32,26.42,42.32,26.42Z" fill="currentColor"/><path d="M57.93,22.68C57.03,22.11,54.68,22.28,52.07,22.52L50.69,24.15L50.69,22.68L48.9,22.68C48.01,23.9,47.77,25.04,47.52,26.5C47.52,26.5,58.09,25.2,60.37,27.24C60.61,26.83,60.86,26.02,60.61,25.37L60.61,25.28C60.2,24.23,58.82,23.25,57.93,22.68Z" fill="currentColor"/><path d="M44.92,38.6C43.78,38.6,42.89,38.56,42.89,37.51C42.89,36.46,43.78,32.11,44.92,32.11C46.06,32.11,46.95,36.53,46.95,37.51C46.95,38.56,46.06,38.6,44.92,38.6Z" fill="currentColor"/></svg>