<svg xmlns="http://www.w3.org/2000/svg" viewBox="0 0 90 90"><path d="M17.64,90C17.64,90,19.42,88.04,30.67,81.98C40.93,76.45,41.03,46.11,41.03,46.11C41.03,46.11,12.88,38.48,12.65,47.18C12.85,59.8,16.7,63.38,13.37,69.51L13.36,69.49C6.83,82.46,17.64,90,17.64,90Z" fill="currentColor"/><path d="M17.67,88.36C17.67,88.36,19.83,83.46,25.62,81.02C35.16,77,37.93,56.31,37.9,52.63C33.56,43.93,20.27,54.86,20.27,54.86C20.27,54.86,14.04,48.32,15.01,56.97C18.52,74.39,17.05,70.96,15.3,76.63L15.3,76.62C13.18,83.51,17.67,88.36,17.67,88.36Z" fill="currentColor"/><path d="M47.15,0C18.09,0,12.09,23.39,12.12,41.53C12.12,44.68,12.48,51.24,13.7,57.09C14,58.54,31.17,50.92,38.94,56.5C40.62,58.28,38.83,73.94,39.36,75.19L63.45,75.19C71.37,75.19,77.3,68.9,77.52,60.98C77.56,59.56,78.61,45.82,78.7,42.62C79.16,26.3,76.12,0.61,47.15,0Z" fill="currentColor"/><path d="M76.88,59.2C77.01,57.19,77.22,44.88,77.07,41.8C76.2,23.17,69.41,3.03,47.31,3.01L47.27,3.01L43.62,3.01C22.4,4.44,15.05,23.17,14.17,41.8C14.02,44.88,14.43,53.75,14.59,55.27C15.28,61.65,59.6,71.05,59.6,71.05C67.32,71.05,76.39,66.74,76.88,59.2Z" fill="currentColor"/><path d="M68.07,52.73C60.93,38.98,33.57,55.09,33.57,55.09C33.57,55.09,40.4,64.87,43.36,73.12L53.5,73.12C63.91,73.12,71.38,62.99,68.19,53.08C68.15,52.96,68.11,52.85,68.07,52.73Z" fill="currentColor"/><path d="M73.1,39.99C71.2,39.75,69.38,49.65,69.38,49.65L64.92,48.59L67.04,52.41C68.54,52.81,68,56.81,70.66,56.37C73.14,56.08,75.08,43.63,75.06,42.58L75.06,42.59C75.05,41.54,74.89,40.14,73.1,39.99Z" fill="currentColor"/><path d="M21.87,49.65L26.33,48.59L24.21,52.41C23,52.86,23.08,55.67,21.03,55.19C18.38,54.57,16.69,45.66,16.17,42.53C16.07,41.91,16.36,40.14,18.15,39.99C20.05,39.75,21.87,49.65,21.87,49.65Z" fill="currentColor"/><path d="M19.66,51.15C19.66,51.15,21.43,51.68,20.07,50.12C18.71,48.56,20.16,48.15,20.07,46.95C19.79,43.16,17.93,41.1,16.7,43.58L16.7,43.57C16.7,43.57,17.87,50.66,19.66,51.15Z" fill="currentColor"/><path d="M45.63,7.58C45.63,7.58,45.63,7.58,45.62,7.58C45.61,7.58,45.62,7.58,45.61,7.58C28.29,7.6,23.5,22.74,22.81,36.74C22.69,39.06,22.72,41.34,22.85,43.52C22.92,44.61,22.11,45.73,22.23,46.86C23.91,61.78,34.96,78.18,45.62,78.18L45.63,78.18C56.29,78.16,67.32,61.77,69,46.86C69.13,45.72,68.32,44.6,68.38,43.52C68.51,41.34,68.53,39.06,68.42,36.74L68.43,36.74C67.74,22.74,62.95,7.6,45.63,7.58Z" fill="currentColor"/><path d="M45.7,60.88L54.96,61.07C54.96,61.07,50.59,67.97,45.65,67.97C40.71,67.97,36.28,61.07,36.28,61.07Z" fill="currentColor"/><path d="M45.71,60.54L54.66,61.08C54.66,61.08,50.44,64.25,45.66,64.25C40.88,64.25,36.6,61.08,36.6,61.08L36.59,61.08Z" fill="currentColor"/><path d="M61.26,41.04C61.3,41.04,64.61,41.37,65.08,38.5C65.08,38.48,65.08,38.45,65.09,38.43C66.24,33.83,60.63,33.97,59.52,33.76C57.32,33.33,53.22,33.97,51.86,35.49C51.78,35.58,51.72,35.68,51.68,35.79C50.99,37.7,50.24,40.06,49.78,42.34L54.03,42.34C55.68,41.4,57.99,40.81,61.26,41.04Z" fill="currentColor"/><path d="M55.69,32.4C54.22,32.48,52.93,33.26,52.27,34.44L51.74,35.39C62.28,33.24,65.24,36.3,65.24,36.3C65.24,36.3,64.21,34.78,62.49,33.61C60.93,32.54,57.92,32.27,55.69,32.4Z" fill="currentColor"/><path d="M61.79,41.99C61.79,41.99,61.26,38.18,56.04,38.24C52.44,38.72,52.15,42.65,52.15,42.65L52.16,42.65Z" fill="currentColor"/><path d="M61.79,41.99C61.79,41.99,61.26,38.18,56.04,38.24C52.44,38.72,52.15,42.65,52.15,42.65L52.16,42.65Z" fill="currentColor"/><path d="M61.79,41.99C61.79,41.99,61.26,38.18,56.04,38.24C52.44,38.72,52.15,42.65,52.15,42.65L52.16,42.65Z" fill="currentColor"/><path d="M59.65,41.09C59.65,39.56,58.38,38.32,56.81,38.32C55.24,38.32,53.97,39.56,53.97,41.09C53.97,42.62,55.24,43.86,56.81,43.86C58.38,43.86,59.65,42.62,59.65,41.09Z" fill="currentColor"/><path d="M60.89,40.46C58.77,39.63,57.36,38.77,55.3,39.53C53.33,40.07,52.03,41.82,51.94,43.94C51.05,39.87,55.81,36.84,59.46,38.27C60.71,38.65,61.69,39.56,62.95,39.26C63.51,39.13,64.1,38.75,64.76,38.39L64.74,38.39C64.3,40.07,62.54,41.12,60.89,40.46Z" fill="currentColor"/><path d="M39.2,35.79C39.16,35.68,39.1,35.58,39.02,35.49C37.65,33.97,33.56,33.33,31.36,33.76C30.25,33.98,24.64,33.83,25.79,38.43C25.79,38.45,25.8,38.48,25.8,38.5C26.27,41.37,29.57,41.04,29.62,41.04C32.89,40.81,35.2,41.4,36.85,42.34L41.1,42.34C40.64,40.06,39.88,37.69,39.2,35.79Z" fill="currentColor"/><path d="M35.18,32.4C36.65,32.48,37.94,33.26,38.6,34.44L39.13,35.39C28.59,33.24,25.63,36.3,25.63,36.3C25.63,36.3,26.66,34.78,28.38,33.61C29.94,32.54,32.95,32.27,35.18,32.4Z" fill="currentColor"/><path d="M29.08,41.99C29.08,41.99,29.61,38.18,34.83,38.24C38.43,38.72,38.72,42.65,38.72,42.65L38.71,42.65Z" fill="currentColor"/><path d="M29.08,41.99C29.08,41.99,29.61,38.18,34.83,38.24C38.43,38.72,38.72,42.65,38.72,42.65L38.71,42.65Z" fill="currentColor"/><path d="M29.08,41.99C29.08,41.99,29.61,38.18,34.83,38.24C38.43,38.72,38.72,42.65,38.72,42.65L38.71,42.65Z" fill="currentColor"/><path d="M36.73,41.09C36.73,39.56,35.46,38.32,33.89,38.32C32.32,38.32,31.05,39.56,31.05,41.09C31.05,42.62,32.32,43.86,33.89,43.86C35.46,43.86,36.73,42.62,36.73,41.09Z" fill="currentColor"/><path d="M27.93,39.26C29.18,39.57,30.16,38.67,31.41,38.29C35,36.85,39.84,39.92,38.93,43.93C38.84,41.81,37.52,40.09,35.55,39.55C33.48,38.79,32.08,39.66,29.96,40.47C28.31,41.12,26.55,40.05,26.12,38.38L26.13,38.39C26.79,38.75,27.38,39.13,27.93,39.26Z" fill="currentColor"/><path d="M36.1,60.99C36.1,60.99,39.44,61.82,45.62,61.88C51.8,61.82,55.14,60.99,55.14,60.99C55.14,60.99,47.5,58.33,45.62,59.58C43.74,58.33,36.1,60.99,36.1,60.99Z" fill="currentColor"/><path d="M53.18,17.1C58.44,24.43,66.78,33.74,69.42,39.62L74.36,38.02C74.36,38.02,72.77,1.71,47.16,6.25C47.16,6.25,48.8,11,53.18,17.1Z" fill="currentColor"/><path d="M24.53,40.22C24.53,40.22,35.12,28.36,42.96,22.72C41.51,28.44,36.12,38.11,36.12,38.11C37.77,38.11,40.73,37.44,40.73,37.44C52.03,26.89,56.26,8.68,56.26,8.68C12.9,-6.5,20.14,40.96,20.14,40.96Z" fill="currentColor"/><path d="M40.73,37.43L33.7,39.45C33.7,39.45,52.62,19.51,54.96,13.13L54.96,13.14C54.96,13.14,49.86,29.17,40.73,37.43Z" fill="currentColor"/><path d="M54.97,13.14C54.97,13.14,63.98,27.96,68.51,37.99L53.28,17.75Z" fill="currentColor"/><path d="M45.85,13.63L23.07,36.41C20.58,38.3,19.7,47.59,23.34,43.04C23.34,43.04,24.61,40.62,25.58,39.67L43,22.72Z" fill="currentColor"/><path d="M16.74,62.89C20.82,71.18,23.61,64.44,23.61,64.44L23.34,34.85L15.13,39.99C15.13,39.99,12.66,54.61,16.74,62.89Z" fill="currentColor"/><path d="M40.54,54.16L50.71,54.16L47.91,56.11C46.57,57.04,44.63,57.04,43.3,56.11L43.3,56.1Z" fill="currentColor"/><path d="M64.08,71.34C64.08,71.34,78.47,71.24,74.31,55.35C74.31,55.35,73.19,65.27,64.08,71.34Z" fill="currentColor"/><path d="M17.66,41.5C17.66,41.5,28.51,16.52,49.16,5.46C49.16,5.46,19.12,2.22,17.66,41.5Z" fill="currentColor"/></svg>