<svg xmlns="http://www.w3.org/2000/svg" viewBox="0 0 90 90"><path d="M63.66,6.47C63.64,6.33,63.6,6.2,63.56,6.07C63.57,6.07,63.59,6.07,63.6,6.06C63.42,4.25,61.3,2.6,59.78,3.42C59.06,1.82,56.55,0.99,54.79,2.56C53.73,0.83,51.65,1.03,50.67,1.74C49.45,-0.65,45.88,-0.42,44.46,1.57C42.98,0.49,41.21,1.24,40.23,2.26C39.39,2.43,33.9,4.29,30.88,5.32C28.47,6.14,26.94,8.25,27.11,10.53C27.11,10.56,27.11,10.59,27.11,10.62C18,12.7,17.93,47.72,20.7,53.86L69.22,53.86C72.14,42.48,72.54,34.72,68.53,22.22L68.53,22.21C65.24,14.36,69.54,12.05,63.66,6.47Z" fill="#625555"/><path d="M62.92,9.1C62.9,8.96,62.87,8.82,62.82,8.68C62.83,8.68,62.85,8.68,62.86,8.67C62.33,7.33,60.91,6.29,59.29,6.6C58.32,5.09,55.76,4.83,54.48,6.14C53.74,4.77,51.69,4.17,50.25,4.98C49.41,2.55,45.6,2.36,44.5,4.69C42.91,2.72,41.08,4.83,31.7,8.11C28.42,9.45,28.55,14.06,28.55,14.06C19.76,16.21,18.91,52.27,21.58,58.59L68.41,58.59C71.23,46.85,71.62,38.86,67.74,25.97L67.73,25.97C64.56,17.88,68.59,14.85,62.92,9.1Z" fill="#3C3636"/><path d="M33.84,13.34C34.6,15.15,33.53,17.29,31.31,17.09C29.09,16.88,25.91,19.89,31.73,25.65C31.73,25.65,29.36,19.09,34.77,19.41C43.97,19.95,32.98,10.28,44.5,12.78C50.13,13.38,53.7,8.72,55.84,4.21C55.41,4.17,54.88,4.45,54.54,4.8C53.8,3.4,51.78,2.82,50.34,3.66C49.54,1.28,45.59,0.99,44.45,3.5C44.77,5.62,45.4,10.66,39.78,9.29L39.8,9.29C35.08,8.45,33.08,11.53,33.84,13.34Z" fill="#625555"/><path d="M21.58,53.76C22.24,56.76,25.1,59.68,25.26,61.76C25.47,64.49,22.79,65.95,22.08,66.07C21.36,66.16,20.41,64.62,19.45,62C18.72,60.01,17.97,57.39,17.32,54.39C16.3,49.74,15.45,46.1,17.63,45.76L17.62,45.77C19.81,45.46,20.56,49.11,21.58,53.76Z" fill="#DCA289"/><path d="M68.42,53.76C67.76,56.76,64.9,59.68,64.74,61.76C64.53,64.49,67.21,65.95,67.92,66.07C68.64,66.16,69.59,64.62,70.55,62C71.28,60.01,72.03,57.39,72.68,54.39C73.7,49.74,74.55,46.1,72.37,45.76L72.38,45.77C70.19,45.46,69.44,49.11,68.42,53.76Z" fill="#DCA289"/><path d="M45.04,20.7C45.04,20.7,45.02,20.7,45,20.7C44.98,20.7,44.98,20.7,44.96,20.7C38.77,20.73,32.88,20.38,29.42,21.75C23.42,25.6,20.4,43.3,20.4,51.85C20.4,60.96,24.89,74.47,25.99,76.96C27.08,79.16,38.27,87.08,45.03,87.08C51.79,87.08,62.91,79.16,64,76.96C65.1,74.48,69.36,58.75,69.59,51.85C69.59,43.3,66.57,25.6,60.57,21.75L60.58,21.75C57.12,20.38,51.23,20.73,45.04,20.7Z" fill="#DCA289"/><path d="M45.04,18.18C45.04,18.18,45.02,18.18,45.01,18.18C45,18.18,44.99,18.18,44.98,18.18C38.97,18.21,33.25,17.86,29.88,19.23C24.05,23.08,21.12,40.77,21.12,49.31C21.12,58.41,25.48,71.92,26.55,74.39C27.6,76.59,38.48,84.51,45.05,84.51C51.62,84.51,62.43,76.59,63.48,74.39C64.55,71.91,68.69,56.19,68.91,49.31C68.91,40.77,65.98,23.08,60.15,19.23L60.14,19.23C56.78,17.86,51.05,18.21,45.04,18.18Z" fill="#FCD9C0"/><path d="M51.01,56.44C51.41,58.28,50.26,59.41,48.39,59.77C46.71,60.51,48.22,60.79,45.01,60.79C41.8,60.79,42.72,60.31,41.05,59.57C39.19,59.21,37.89,58.19,38.99,56.44C33.19,58.33,32.29,60.33,31.65,65.94C31.65,65.99,36.63,62.75,44.91,62.75C53.19,62.75,58.35,65.99,58.35,65.94C58.35,65.35,57.45,60.52,56.82,59.85C55.54,58.36,53,57.01,51.01,56.44Z" fill="#EAB39C"/><path d="M44.88,61.07C43.45,61.07,42.09,60.52,41.4,60.2C37.9,60.53,31.7,61.72,32.65,66.08C32.65,66.08,37.1,63.67,45.01,63.45C52.92,63.67,57.37,66.08,57.37,66.08C58.32,61.72,52.11,60.52,48.61,60.2C48.38,60.3,46.31,61.07,44.88,61.07Z" fill="#5E4D4D"/><path d="M51.67,39.33C49.97,39.65,48.55,40.81,47.87,42.41L49.96,43.49C49.96,43.49,63.84,39.72,65.99,45.2C65.99,45.2,67.05,42.53,62.76,40.25C60.64,39.12,56.91,38.5,51.67,39.33Z" fill="#7F6968"/><path d="M38.34,39.33C40.04,39.65,41.46,40.81,42.14,42.41L40.05,43.49C40.05,43.49,26.17,39.72,24.02,45.2C24.02,45.2,22.96,42.53,27.25,40.25C29.37,39.12,33.1,38.5,38.34,39.33Z" fill="#7F6968"/><path d="M47.58,47.73C47.73,49.03,48.75,55.63,54.56,56.35C60.49,56.98,63.89,57.75,64.78,47.63C64.96,43.02,61.84,42.22,57.24,42.06L57.25,42.06C53.92,42.17,47.37,42,47.58,47.73Z" fill="#EAB39C"/><path d="M35.85,56.36C42.05,55.64,43.15,49.04,43.3,47.74C43.52,42.01,36.54,42.18,32.98,42.07C28.08,42.23,24.75,43.03,24.94,47.64C25.89,57.76,29.52,56.99,35.85,56.36Z" fill="#EAB39C"/><path d="M34.01,43.95C38.3,43.95,39.29,47.56,39.29,47.56C39.29,47.56,36.67,45.93,34.15,45.87C32.45,45.83,29.35,47.37,29.35,47.37L27.76,47.27L27.77,47.26C27.6,47.25,29.72,43.95,34.01,43.95Z" fill="#9D6D62"/><path d="M39.3,47.55C36.41,48.54,32.21,48.82,29.36,47.34C31.28,45.11,36.82,44.78,39.3,47.55Z" fill="white"/><path d="M34.92,48.71C33.79,49.14,32.53,48.61,32.11,47.52C31.69,46.43,32.28,45.19,33.41,44.76C34.54,44.33,35.8,44.86,36.22,45.95C36.64,47.04,36.05,48.28,34.92,48.71Z" fill="#6D96A9"/><path d="M56.27,43.95C51.98,43.95,50.99,47.56,50.99,47.56C50.99,47.56,53.61,45.93,56.13,45.87C57.83,45.83,60.93,47.37,60.93,47.37L62.52,47.27L62.51,47.26C62.68,47.25,60.56,43.95,56.27,43.95Z" fill="#9D6D62"/><path d="M50.99,47.55C53.88,48.54,58.08,48.82,60.93,47.34C59.01,45.09,53.47,44.8,50.99,47.55Z" fill="white"/><path d="M55.37,48.71C56.5,49.14,57.76,48.61,58.18,47.52C58.6,46.43,58.01,45.19,56.88,44.76C55.75,44.33,54.49,44.86,54.07,45.95C53.65,47.04,54.24,48.28,55.37,48.71Z" fill="#6D96A9"/><path d="M42.51,74.48L42.51,81.4L47.5,81.4L47.5,74.48Z" fill="#625555"/><path d="M55.66,66.04C55.66,66.04,46.08,80.06,34.62,66.04Z" fill="#F19C84"/><path d="M54.16,66C54.16,66,46.01,74.99,36.36,66.04Z" fill="white"/><path d="M46.93,48.93C46.43,47.07,43.58,47.07,43.08,48.93C41.99,51.97,40.43,54.54,35.55,55.23C32.11,55.5,28.83,56.1,26.49,53.79C25.58,52.83,24.92,51.35,24.61,49.71C24.38,48.31,23.64,46.65,22.83,46.51L22.83,42.76L22.97,42.71C23.03,42.69,23.14,42.65,27.23,42.35C27.79,42.31,28.38,42.22,28.97,42.1C32.71,41.63,40.88,41.01,42.88,44.98L47.16,44.98C49.15,41.02,57.34,41.63,61.07,42.1C63.48,42.53,67.16,42.62,67.07,42.71L67.21,42.76L67.21,46.51C66.39,46.66,65.66,48.31,65.43,49.72C64.82,53.29,62.56,55.7,58.45,55.49L58.43,55.49C52.58,55.7,48.18,53.71,46.93,48.93Z" fill="white"/><path d="M47.58,47.31C47.73,48.36,48.75,53.7,54.56,54.29C60.49,54.8,63.89,55.42,64.78,47.23C64.96,43.5,61.84,42.85,57.24,42.72L57.25,42.72C53.92,42.81,47.37,42.67,47.58,47.31Z" fill="white"/><path d="M25.22,47.23C26.12,55.42,29.51,54.8,35.44,54.29C41.84,53.65,42.44,47.17,42.45,47.1C42.37,42.65,36.01,42.81,32.76,42.72C28.17,42.85,25.05,43.5,25.22,47.23Z" fill="white"/><path d="M45.15,64.88C44.4,64.62,40.85,63.66,34.6,66.03L45.15,66.19L55.7,66.03C49.44,63.66,45.9,64.62,45.15,64.88Z" fill="#F19C84"/><path d="M55.17,76.44C55.05,76.85,54.96,77.18,54.9,77.34C54.33,78.92,48.53,81.9,44.99,81.92C41.45,81.89,35.65,78.92,35.08,77.34C35.03,77.17,34.93,76.85,34.81,76.44L34.37,76.44C34.32,76.6,34.27,76.77,34.19,76.92C34.04,77.38,33.79,77.78,33.42,78.11C33.14,78.41,32.8,78.63,32.43,78.78C32.42,79.64,32.41,80.43,32.43,81.1C32.49,82.62,33.26,84.02,34.53,84.92C37.22,86.83,42.41,89.9,44.9,89.99L44.91,89.99C44.92,89.99,44.94,89.99,44.96,89.99C44.98,89.99,44.99,89.99,45.01,89.99C47.5,89.9,52.7,86.82,55.4,84.91C56.67,84.01,57.44,82.61,57.5,81.09C57.55,79.86,57.5,78.23,57.47,76.43L57.51,76.44Z" fill="#736868"/><path d="M56.48,69.79C56.48,69.79,55.19,74.54,54.91,75.39C54.34,76.97,48.54,79.95,45,79.97C41.46,79.94,35.66,76.97,35.09,75.39C34.82,74.54,33.52,69.79,33.52,69.79L32.33,68.68C32.67,72.57,32.36,76.66,32.45,79.14C32.51,80.66,33.28,82.06,34.55,82.96C37.24,84.87,42.43,87.94,44.92,88.03L44.93,88.03C44.94,88.03,44.96,88.03,44.98,88.03C45,88.03,45.01,88.03,45.03,88.03C47.52,87.94,52.72,84.86,55.42,82.95C56.69,82.05,57.46,80.65,57.52,79.13C57.61,76.65,57.3,72.56,57.64,68.67L57.67,68.68Z" fill="#625555"/><path d="M62.42,47.98L62.42,50.92L50.65,50.92L50.65,47.98Z" fill="#EAB39C"/><path d="M38.89,47.98L38.89,50.92L27.12,50.92L27.12,47.98Z" fill="#EAB39C"/><path d="M39.17,56.82C38.76,57.83,39.43,58.78,40.43,58.88C41.59,59.02,42.56,59.81,43.68,59.99C44.51,60.08,45.48,60.08,46.31,59.99C47.21,59.89,47.95,59.26,48.85,59.05C49.26,58.91,49.74,58.88,50.13,58.71C50.81,58.44,51.14,57.57,50.82,56.82C50.56,55.92,49.23,55.74,49.02,54.86C49.21,55.31,49.73,55.38,50.14,55.6C50.57,55.8,51.03,56.08,51.32,56.55C51.93,57.52,51.58,58.95,50.55,59.49C49.69,59.93,48.79,60.01,47.97,60.56C46.64,61.33,45,61.25,43.51,61.08C42.51,60.98,41.74,60.29,40.84,59.99C40.37,59.82,39.9,59.75,39.45,59.48C37.81,58.6,38.18,56.15,39.86,55.59C40.27,55.37,40.79,55.29,40.98,54.85L40.97,54.87C40.76,55.75,39.43,55.93,39.17,56.82Z" fill="#ECA595"/></svg>