<svg xmlns="http://www.w3.org/2000/svg" viewBox="0 0 90 90"><path d="M85.32,76.36C85.32,71.49,82.41,67.3,78.23,65.43L56.87,55.76C56.87,55.76,56.79,55.73,56.74,55.72C56.01,61.55,50.93,63.32,44.91,63.32C38.89,63.32,34.01,61.55,33.28,55.72C33.23,55.73,33.19,55.74,33.15,55.76L11.79,65.43C7.61,67.3,4.7,71.49,4.7,76.36C4.7,80.18,3.32,90,12.3,90L77.73,90L77.72,90C86.7,90,85.32,80.18,85.32,76.36Z" fill="currentColor"/><path d="M25.36,43.64C25.36,43.64,28.06,46.89,36,46.89C43.94,46.89,26.02,35.44,26.02,35.44L25.37,37.15L25.36,37.15Z" fill="currentColor"/><path d="M64.63,43.64C64.63,43.64,61.93,46.89,53.99,46.89C46.06,46.89,63.97,35.44,63.97,35.44L64.62,37.15L64.63,37.15Z" fill="currentColor"/><path d="M31.46,52.06L31.46,61.57L58.54,61.57L58.54,52.06Z" fill="currentColor"/><path d="M33.09,49.04L33.09,64.29L56.91,64.29L56.91,49.04Z" fill="currentColor"/><path d="M44.99,57.56C35.04,57.56,26.98,46.38,26.98,32.59C26.98,18.8,35.05,7.61,45,7.61C54.95,7.61,63.02,18.79,63.02,32.59L63.01,32.59C63.01,46.38,54.94,57.56,44.99,57.56Z" fill="currentColor"/><path d="M26.99,28.57L26.99,18.39L45.53,13.77L63.01,18.39L63.01,28.57Z" fill="currentColor"/><path d="M45,2.95C54.95,2.95,63.01,9.89,63.01,18.46L60.21,18.46L45.31,14.05L29.87,18.46L26.99,18.46C26.99,9.89,35.05,2.95,45,2.95Z" fill="currentColor"/><path d="M63.01,31.63C61.35,31.63,60.01,30.29,60.01,28.62C60.01,26.95,61.35,25.62,63.01,25.62C64.67,25.62,66.01,26.96,66.01,28.62C66.01,30.28,64.67,31.63,63.01,31.63Z" fill="currentColor"/><path d="M63.01,37.63C61.35,37.63,60.01,36.29,60.01,34.63C60.01,32.97,61.35,31.63,63.01,31.63C64.67,31.63,66.01,32.97,66.01,34.63C66.01,36.28,64.67,37.63,63.01,37.63Z" fill="currentColor"/><path d="M60.01,28.62L60.01,34.63L66.01,34.63L66.01,28.62Z" fill="currentColor"/><path d="M23.98,28.62L23.98,34.63L29.99,34.63L29.99,28.62Z" fill="currentColor"/><path d="M26.99,31.63C25.34,31.63,23.98,30.29,23.98,28.62C23.98,26.95,25.32,25.62,26.99,25.62C28.66,25.62,29.99,26.96,29.99,28.62C29.99,30.28,28.64,31.63,26.99,31.63Z" fill="currentColor"/><path d="M26.99,37.63C25.34,37.63,23.98,36.29,23.98,34.63C23.98,32.97,25.32,31.63,26.99,31.63C28.66,31.63,29.99,32.97,29.99,34.63C29.99,36.28,28.64,37.63,26.99,37.63Z" fill="currentColor"/><path d="M63.98,58.8L53.19,72.48L47.75,64.82L45,66.44L45,64.3C45,64.3,54.14,60.17,58.54,52.07L58.54,52.06Z" fill="currentColor"/><path d="M26.02,58.8L36.81,72.48L42.25,64.82L45,66.44L45,64.3C45,64.3,35.86,60.17,31.46,52.07L31.46,52.06Z" fill="currentColor"/><path d="M56.4,27.77C52.38,27.77,47.73,29.07,46.59,29.21C45.84,29.3,45.39,29.32,45.16,29.32L44.84,29.32C44.62,29.32,44.16,29.3,43.39,29.21C42.26,29.07,37.6,27.77,33.59,27.77C29.58,27.77,27.09,28.39,26.38,28.53C25.68,28.67,25.73,29.07,25.73,29.07L25.85,30.88C25.87,31.24,26.05,31.32,26.42,31.39C26.79,31.46,26.95,31.83,27.02,32.07C27.1,32.32,27.6,34.23,27.99,35.7C28.38,37.18,29.07,38.31,29.91,38.87C30.75,39.43,33,39.72,35.57,39.45C38.15,39.19,39.95,38.2,41.11,36.88C42.27,35.56,42.66,34.28,43.22,32.72C43.67,31.47,44.52,31.32,44.85,31.31L45.11,31.31C45.44,31.31,46.29,31.46,46.74,32.72C47.3,34.28,47.69,35.56,48.85,36.88C50.01,38.2,51.81,39.18,54.39,39.45C56.97,39.72,59.21,39.43,60.06,38.87C60.91,38.31,61.59,37.17,61.98,35.7C62.37,34.22,62.87,32.31,62.95,32.07C63.03,31.82,63.19,31.45,63.56,31.39C63.93,31.32,64.11,31.24,64.13,30.88L64.25,29.07C64.25,29.07,64.31,28.68,63.6,28.53L63.61,28.53C62.91,28.39,60.42,27.77,56.4,27.77Z" fill="currentColor"/><path d="M40.18,35.88C39.35,36.96,38.24,37.78,36.56,38.05C34.88,38.33,33.13,38.44,31.65,38.05C30.18,37.67,29.65,36.65,29.39,34.96C29.13,33.27,29.05,31.53,29.39,30.82C29.39,30.82,29.92,29.24,32.84,29.14C35.76,29.03,38.64,29.31,39.77,29.86C40.87,30.4,41.22,30.97,41.16,31.99L41.16,32C41.09,33.02,41.01,34.79,40.18,35.88Z" fill="currentColor"/><path d="M58.33,38.05C56.86,38.44,55.11,38.33,53.42,38.05C51.74,37.78,50.63,36.96,49.8,35.88C48.97,34.79,48.89,33.02,48.82,32C48.76,30.98,49.11,30.41,50.21,29.87C51.33,29.31,54.22,29.04,57.14,29.15C60.06,29.25,60.59,30.83,60.59,30.83C60.93,31.53,60.85,33.28,60.59,34.97L60.59,34.96C60.34,36.64,59.8,37.66,58.33,38.05Z" fill="currentColor"/><path d="M47.53,17.21C31.86,15.05,29.99,4.83,29.99,4.83C29.99,4.83,36.69,-2.62,53.13,0.98C66.91,3.99,65.35,14.82,65.35,26.77C65.35,26.77,63.05,26.35,62.67,27.78L62.67,27.77C62.67,27.77,63.2,19.36,47.53,17.21Z" fill="currentColor"/><path d="M24.87,26.5C24.87,26.5,40.02,21.9,29.99,4.83C29.99,4.83,22.73,10.44,24.87,26.5Z" fill="currentColor"/><path d="M27.32,27.78C27.32,27.78,27.43,26.1,29.48,23.86C31.53,21.62,26.99,21.18,26.99,21.18L24.87,26.51L24.87,26.5C24.87,26.5,27.32,26.25,27.32,27.78Z" fill="currentColor"/></svg>