<svg xmlns="http://www.w3.org/2000/svg" viewBox="0 0 90 90"><path d="M73.73,39.17C77.11,33.85,82.84,6.51,58.09,5.46L58.09,57.67L72.72,57.67L72.6,57.67Z" fill="currentColor"/><path d="M71.88,61.34C74.47,61.53,75.76,59.38,76.2,57.14C76.5,55.85,78.12,48.35,77.98,44.33C78.08,41.1,76.31,37.9,72.6,39.51Z" fill="currentColor"/><path d="M18.12,61.34C15.53,61.53,14.24,59.38,13.8,57.14C13.5,55.85,11.88,48.35,12.02,44.33C11.92,41.1,13.69,37.9,17.4,39.51Z" fill="currentColor"/><path d="M39.5,3.52C7.96,5.81,13.57,30.69,14.2,33.39C17.1,45.83,18.98,66.18,18.98,66.18L39.5,66.18C41.05,49.4,39.5,3.52,39.5,3.52Z" fill="currentColor"/><path d="M12.01,17.81C12.01,17.81,17.13,11.81,19.23,9.89C26.03,3.65,33.81,0.6,40.85,0.12C55.91,-0.96,68.5,5.31,69.24,6.39C70.85,8.79,70.87,15.04,66.18,16.72L66.18,16.73C53.22,21.53,24.98,27.88,12.01,17.81Z" fill="currentColor"/><path d="M17.94,71.79C19.34,76.02,28.12,83.19,36.8,88.3C37.76,88.86,52.7,88.76,53.66,88.19C62.34,83.08,70.63,76.01,72.03,71.78C72.54,70.24,71.95,50.8,71.95,50.8L18.22,50.1L18.21,50.11C18.21,50.11,17.43,70.25,17.94,71.79Z" fill="currentColor"/><path d="M16.12,34.95C16.96,40.59,19.96,68.41,20.08,69.73C20.44,72.37,22.36,75.25,23.8,77.41C26.08,80.53,36.87,88.56,39.15,89.4C40.23,89.76,42.51,90,44.91,90C47.43,90,49.95,90,51.15,89.52C53.43,88.8,64.34,80.53,66.62,77.41C68.18,75.25,70.1,72.37,70.34,69.73C70.58,68.29,73.46,40.59,74.3,34.95C74.54,33.03,82.1,3.41,45.16,3.41L45.28,3.41L45.26,3.41C8.32,3.41,15.88,33.03,16.12,34.95Z" fill="currentColor"/><path d="M62.5,15.05C58.2,12.42,54.26,13.01,45.1,13.01C36,13.01,32.06,12.43,27.78,15.05L28.02,15.05C18.19,20.93,19.15,33.64,19.15,33.64C19.99,70.94,29.1,69.74,29.1,69.74C28.4,56.38,41.56,60.54,45.18,60.74C48.89,60.49,61.88,56.46,61.19,69.74C61.19,69.74,70.3,70.94,71.14,33.64C71.14,33.64,72.1,20.93,62.27,15.05L62.26,15.05Z" fill="currentColor"/><path d="M47.81,41.75L50.24,50.46L67.12,50.54L67.42,45.1C67.42,45.1,69.16,39.13,68.31,37.49C66.63,34.14,53.2,36.25,49.24,37.78C48.67,39,48.2,40.38,47.81,41.75Z" fill="currentColor"/><path d="M22.85,45.11C23.89,48.08,23.98,50.46,23.98,50.46L40.85,50.66C40.85,50.66,40.85,50.46,42.45,41.76C42.43,41.71,42.42,41.65,42.4,41.6C41.67,39.07,39.16,37.1,35.99,36.52C30.51,35.52,23.16,35.09,21.95,37.51L21.96,37.5C21.11,39.14,21.88,42.34,22.85,45.11Z" fill="currentColor"/><path d="M33.75,72.38C33.75,72.38,36.75,75.38,40.35,75.62L40.71,75.62C41.31,74.06,43.11,72.86,45.15,72.86C47.19,72.86,48.99,74.06,49.59,75.62L49.95,75.62C53.79,75.62,56.91,72.38,56.91,72.38C57.39,63.15,53.07,64.34,45.28,65.18L45.4,65.18L45.38,65.18C37.58,64.34,33.15,63.14,33.75,72.38Z" fill="currentColor"/><path d="M14.03,17.19C14.03,17.19,19.75,12.45,21.66,10.69C28.1,4.96,34.77,3.2,41.45,2.76C55.88,1.77,66.96,6.62,67.56,7.61C69.11,9.81,68.39,14.77,63.98,16.31L63.99,16.31C51.59,20.72,25,24.02,14.03,17.19Z" fill="currentColor"/><path d="M12.01,17.8C14.89,20.2,15.88,19.96,20.19,19.6C15.51,18.4,13.59,16.6,13.59,16.6L13.71,16.6L13.72,16.6Z" fill="currentColor"/><path d="M34.02,3.41C27.02,4.07,21.79,9.41,17.11,14.09C24.55,18.65,52.49,14.81,52.49,14.81L52.49,14.8C52.49,14.8,22.15,12.16,34.02,3.41Z" fill="currentColor"/><path d="M41.3,39.03C40.94,36.87,40.7,35.19,39.26,33.51L35.9,33.51C31.58,32.91,27.39,32.55,25.95,33.51C24.63,34.35,22.59,35.79,21.99,37.35C21.63,38.31,21.99,39.51,22.35,40.11C25.71,37.11,41.3,39.03,41.3,39.03Z" fill="currentColor"/><path d="M60.75,43.31C63.03,43.91,63.72,44.92,63.96,45.16C61.92,47.32,59.04,47.68,55.21,47.32C52.57,47.08,51.13,45.64,51.13,45.64L51.13,45.63C52.19,43.01,56.91,42.35,60.75,43.31Z" fill="currentColor"/><path d="M57.13,48.75C55.33,48.63,53.89,47.07,54.01,45.39C54.13,43.59,55.69,42.27,57.61,42.39C59.41,42.51,60.85,44.07,60.73,45.75C60.61,47.55,59.05,48.87,57.13,48.75Z" fill="currentColor"/><path d="M29.43,43.35C28.04,43.81,26.67,44.91,26.43,45.15C28.47,47.31,31.35,47.67,35.18,47.31C39.02,46.95,39.26,45.63,39.26,45.63C36.98,42.51,33.26,42.39,29.43,43.35Z" fill="currentColor"/><path d="M33.27,48.75C35.19,48.63,36.51,47.07,36.39,45.39C36.27,43.59,34.71,42.27,32.79,42.39C30.99,42.51,29.55,44.07,29.67,45.75C29.79,47.55,31.35,48.87,33.27,48.75Z" fill="currentColor"/><path d="M26.33,45.13C29.76,43.49,33.32,43.1,36.87,44.15C37.37,44.26,37.87,44.47,38.49,44.58C38.12,44.15,37.74,43.83,37.24,43.51L37.25,43.51C34.04,41.28,28.51,41.99,26.33,45.13Z" fill="currentColor"/><path d="M63.97,45.13C60.54,43.49,56.98,43.1,53.43,44.15C52.93,44.26,52.43,44.47,51.81,44.58C52.18,44.15,52.56,43.83,53.06,43.51L53.05,43.51C56.26,41.28,61.79,41.99,63.97,45.13Z" fill="currentColor"/><path d="M50.01,51.44C49.46,51.37,49,50.96,48.88,50.41C48.48,48.63,48.7,44.27,48.96,42.77C49.04,42.29,49.44,41.92,49.93,41.87C53.65,41.52,57.9,41.42,61.58,41.62C63.16,41.7,64.52,41.83,65.53,42C66.04,42.08,66.45,42.17,66.75,42.27C67.09,42.38,67.45,42.54,67.58,42.89C68,43.91,68.18,47.8,67.32,50.32C67.13,50.86,66.67,51.26,66.1,51.35C65,51.53,62.05,51.94,57.94,51.94L57.95,51.94C55.63,51.94,52.95,51.81,50.01,51.44Z" fill="currentColor"/><path d="M50.06,50.14C50.07,50.19,50.12,50.23,50.17,50.24C58.15,51.25,64.24,50.43,65.92,50.16C66.05,50.14,66.16,50.05,66.2,49.93C66.55,48.91,66.74,47.51,66.75,45.98C66.75,44.76,66.63,43.83,66.53,43.46C66.37,43.4,65.94,43.26,64.88,43.12C63.84,42.98,62.51,42.87,61.02,42.8C58.98,42.71,54.86,42.62,50.15,43.06L50.14,43.06C49.9,44.54,49.72,48.62,50.06,50.14Z" fill="currentColor"/><path d="M24.16,51.35C23.59,51.26,23.12,50.86,22.94,50.32C22.08,47.79,22.26,43.91,22.68,42.89C22.81,42.54,23.17,42.38,23.51,42.27C23.81,42.18,24.22,42.09,24.73,42C25.74,41.84,27.11,41.71,28.68,41.62C32.36,41.42,36.61,41.52,40.33,41.87C40.82,41.92,41.22,42.29,41.3,42.77C41.56,44.27,41.78,48.63,41.38,50.41C41.26,50.95,40.8,51.37,40.25,51.44C37.32,51.81,34.63,51.94,32.31,51.94L32.32,51.94C28.21,51.94,25.26,51.53,24.16,51.35Z" fill="currentColor"/><path d="M23.53,45.98C23.53,47.51,24.08,49.93,24.08,49.93C24.08,49.93,24.23,50.14,24.36,50.16C26.04,50.43,32.13,51.25,40.11,50.24C40.17,50.24,40.21,50.19,40.22,50.14C40.56,48.61,40.38,44.54,40.14,43.06C35.43,42.62,31.31,42.7,29.27,42.8C27.78,42.87,26.44,42.98,25.41,43.12C24.35,43.26,23.92,43.4,23.76,43.46L23.75,43.46C23.65,43.83,23.53,44.76,23.53,45.98Z" fill="currentColor"/><path d="M47.81,45.97C47,45.49,46.1,45.24,45.13,45.24C42.79,45.24,41.52,46.69,41.51,46.71L40.6,45.93C40.67,45.85,42.25,44.04,45.13,44.04C48.01,44.04,49.6,45.85,49.66,45.93L48.75,46.71L48.76,46.71C48.76,46.71,48.43,46.33,47.81,45.97Z" fill="currentColor"/><path d="M45.08,72.26C53.55,72.26,56.89,64.7,56.89,64.7C56.89,64.7,51.64,67.22,44.96,67.22C38.28,67.22,33.03,64.7,33.03,64.7L33.15,64.7C33.15,64.7,36.61,72.26,45.08,72.26Z" fill="currentColor"/><path d="M45.08,69.02C53.55,69.02,56.89,64.7,56.89,64.7C56.89,64.7,51.64,66.14,44.96,66.14C38.28,66.14,33.03,64.7,33.03,64.7L33.15,64.7C33.15,64.7,36.61,69.02,45.08,69.02Z" fill="currentColor"/><path d="M45.08,64.42C53.55,64.42,56.89,64.7,56.89,64.7C56.89,64.7,50.93,66.86,44.96,66.86C38.99,66.86,33.03,64.7,33.03,64.7L33.15,64.7C33.15,64.7,36.61,64.42,45.08,64.42Z" fill="currentColor"/><path d="M64.32,33.51C63,32.67,51.01,33.51,51.01,33.51C49.69,35.31,49.33,36.99,48.97,39.15C48.97,39.15,64.56,37.23,67.92,40.23C68.28,39.63,68.64,38.43,68.28,37.47L68.28,37.35C67.68,35.79,65.64,34.35,64.32,33.51Z" fill="currentColor"/><path d="M52.49,57.7L52.49,58.58C52.49,59.45,51.78,60.16,50.91,60.16L39.35,60.16C38.48,60.16,37.77,59.45,37.77,58.58L37.77,57.7L37.78,57.7Z" fill="currentColor"/><path d="M51.31,57.43L51.31,58.4C51.31,58.78,51,59.09,50.62,59.09L39.65,59.09C39.27,59.09,38.96,58.78,38.96,58.4L38.96,57.43Z" fill="currentColor"/><path d="M39.19,59.85L51.08,59.85L45.14,62.47Z" fill="currentColor"/></svg>