<svg xmlns="http://www.w3.org/2000/svg" viewBox="0 0 90 90"><path d="M76.19,41.51C76.15,41.31,76.1,41.13,76.04,40.96C74.84,37.4,71.81,41.25,71.81,41.25L67.48,42.12L67.48,56.5L67.84,56.5L67.84,57.79L70.1,57.79C71.99,60.94,72.69,60.39,74.01,59.1C75.67,57.48,77.36,47.49,76.4,42.26L76.4,42.25C76.35,41.96,76.28,41.72,76.19,41.51Z" fill="#CD8A6D"/><path d="M22.28,42.2L17.95,41.33C17.95,41.33,14.91,37.48,13.72,41.04C12.54,44.56,14.16,55.7,16.62,58.49C16.76,58.75,16.9,58.96,17.04,59.1C18.36,60.39,19.06,60.94,20.95,57.79L23.21,57.79L23.21,43.41L22.28,43.22L22.28,43.23Z" fill="#CD8A6D"/><path d="M72.01,17.89C71.47,12.97,68.5,8.87,59.39,4.39C59.39,4.39,46.18,-7.52,26.05,7.94C17.93,14.62,13.84,19.12,13.66,25.09C13.48,31.06,14.71,37.06,14.71,37.06L17.51,40.36L19.53,55.82L20.1,56.6L44.27,30.19L45.33,28.37L45.96,30.19L70.28,55.82L70.85,55.82L72.49,39.98L75.3,36.68C75.3,36.68,76.44,32.23,76.26,26.26L76.27,26.26C76.16,22.64,75.44,22.07,72.01,17.89Z" fill="#585551"/><path d="M72.01,20.61C71.47,15.66,67.99,9.66,59.26,7.65C59.26,7.65,46.19,-4.98,26.06,10.59C17.94,17.31,13.85,21.85,13.67,27.87C13.49,33.89,14.72,39.93,14.72,39.93L17.52,43.25L19.54,58.82L20.11,59.61L44.28,33.01L45.34,31.18L45.97,33.01L70.29,58.83L70.86,58.83L72.5,42.88L75.31,39.56C75.31,39.56,76.45,35.08,76.27,29.07L76.27,29.04C76.16,25.39,75.44,24.82,72.01,20.61Z" fill="#413E3B"/><path d="M24.75,11.67C19.59,15.05,17.67,18.52,17.08,19.19C32.6,8.75,47.89,8.55,43.87,12.31C39.66,16.25,34.02,16.4,37.48,19.93C40.94,23.46,43.87,18.11,43.87,18.11C43.87,18.11,53.01,13.47,50.59,8.83L50.6,8.82C48.19,4.18,40.2,5.82,24.75,11.67Z" fill="#585551"/><path d="M68.21,36.57C68.01,35.71,67.61,34.92,67.05,34.24C66.6,33.7,66.05,33.03,65.55,32.43C64.75,31.47,64.31,30.27,64.29,29.02C64.27,27.89,64.22,26.49,64.06,25.56C62.86,21.74,60.49,16.59,44.95,16.06C29.41,16.6,27.04,21.75,25.84,25.56C25.68,26.5,25.63,27.89,25.61,29.02C25.59,30.27,25.15,31.47,24.35,32.43C23.86,33.03,23.3,33.69,22.85,34.24C22.29,34.92,21.9,35.71,21.69,36.57C21.35,37.98,20.81,40.29,20.39,42.05C20.01,43.65,19.79,45.28,19.71,46.92C19.39,53.69,19.03,70.24,25.71,76.42C25.71,76.42,35.51,85.66,44.93,85.73C54.35,85.66,64.15,76.42,64.15,76.42C70.83,70.24,70.47,53.69,70.15,46.92C70.07,45.28,69.85,43.65,69.47,42.05L69.51,42.05C69.1,40.29,68.55,37.98,68.21,36.57Z" fill="#FBCDAA"/><path d="M60.76,62.51C60.76,62.51,55.05,77.73,45.05,77.73C35.05,77.73,29.31,62.49,29.31,62.49C23.32,70.46,19.59,53.35,19.59,53.35C19.59,76.15,30.3,82.68,44.94,82.73L44.94,82.75C44.94,82.75,44.98,82.75,45,82.75C59.75,82.75,71.22,74.62,70.48,53.37C70.48,53.37,66.75,70.48,60.76,62.51Z" fill="#907A6B"/><path d="M64.45,69.96C64.11,70.26,63.71,70.5,63.29,70.67C61.22,71.51,61.16,71.83,61.29,66.21C61.43,60.34,59.01,59.88,55.42,58.95C53.49,58.45,52.3,57.05,51.61,55.86C51.18,56.54,50.46,57.05,49.64,57.24C48.82,57.43,47.95,57.34,47.11,57.38C46.47,57.74,45.74,57.92,45.01,57.93C44.27,57.93,43.52,57.74,42.87,57.38C42.03,57.34,41.17,57.43,40.34,57.24C39.52,57.05,38.81,56.54,38.37,55.86C37.68,57.05,36.49,58.45,34.56,58.95C30.97,59.88,28.55,60.34,28.69,66.21C28.82,71.84,28.76,71.51,26.69,70.67C26.27,70.5,25.87,70.26,25.53,69.96C21.31,66.19,19.64,51.41,19.64,51.41L18.54,51.41L19.06,56.98C19.06,57.05,19.07,57.12,19.08,57.19C19.68,63.58,21.04,70.77,24.05,75.22C24.37,75.69,25.51,77.4,25.79,77.74C25.79,77.74,35.55,89.83,44.96,89.97C54.38,89.87,64.17,77.74,64.17,77.74C64.45,77.4,65.59,75.69,65.91,75.22C68.92,70.77,70.28,63.58,70.88,57.19C70.88,57.12,70.89,57.05,70.9,56.98L71.42,51.41L70.32,51.41L70.34,51.41C70.34,51.41,68.67,66.18,64.45,69.96Z" fill="#585551"/><path d="M45.02,78.62C41.98,78.62,38.94,78.62,38.94,78.62C32.14,78.62,32.45,72.03,32.45,72.03L32.13,64.1C35.33,64.17,40.15,64.2,44.98,64.2C49.82,64.2,54.65,64.17,57.87,64.1L57.55,72.03C57.55,72.03,57.87,78.62,51.06,78.62C51.06,78.62,48.05,78.62,45.02,78.62Z" fill="#585551"/><path d="M60.6,80.11C65.1,75.65,67.64,69.97,69.16,63.83C70.18,59.77,70.91,55.6,71.56,51.4C71.48,59.9,70.5,68.77,65.88,76.19C61.33,82.52,53.31,90.15,45.06,89.96L45.06,89.97C51.4,89.16,56.33,84.51,60.6,80.11Z" fill="#65615E"/><path d="M25.64,75.29C29.17,80.33,33.81,84.9,39.16,88C40.97,89.02,42.96,89.75,45.08,89.97C42.94,90.13,40.8,89.54,38.81,88.73C32.91,86.02,27.99,81.47,24.26,76.19C19.64,68.78,18.6,59.91,18.51,51.41C19.86,59.6,21.17,68.22,25.64,75.29Z" fill="#65615E"/><path d="M48.04,45.28L42.23,45.28C42.33,47.44,41.65,51.13,41.32,51.88C39.57,51.91,38.17,53.04,38.17,54.43C38.17,55.82,38.91,56.98,40.69,56.98C40.69,56.98,43.17,57.63,45.1,57.63C47.03,57.63,49.51,56.98,49.51,56.98C51.29,56.98,51.99,55.84,51.99,54.43C51.99,53.02,50.65,51.98,48.97,51.89L48.96,51.89C48.61,51.1,47.91,47.53,48.04,45.28Z" fill="#FBCDAA"/><path d="M44.89,65.56C40.57,65.56,36.62,68.01,36.62,68.01C36.62,68.01,39.61,76.41,44.9,76.41C50.19,76.41,53.32,68.01,53.32,68.01C53.32,68.01,49.21,65.56,44.89,65.56Z" fill="#585551"/><path d="M57.44,64.18C55.91,63.55,50.5,61.48,44.85,61.48C39.2,61.48,33.96,63.54,32.49,64.18C32.26,64.28,32.17,64.54,32.29,64.76C33.28,66.54,37.71,73.64,44.87,73.64C52.03,73.64,56.58,66.58,57.64,64.77L57.63,64.78C57.76,64.56,57.67,64.28,57.44,64.18Z" fill="#FBCDAA"/><path d="M41.94,60.73L42.3,60.66L44.97,61.28L47.64,60.66L48,60.73C51.62,61.4,57.25,64.1,57.49,64.22L32.45,64.22C32.69,64.11,38.32,61.41,41.94,60.73Z" fill="#FBCDAA"/><path d="M45.1,62.05L42.5,61.52C39.19,62.06,33.57,64.43,33.57,64.43C33.57,64.43,37.93,72.43,45.02,72.43C52.11,72.43,56.65,64.43,56.65,64.43C56.65,64.43,51.02,62.06,47.72,61.52L47.7,61.52Z" fill="#E89C84"/><path d="M45.1,63.74C39.3,63.74,34.04,64.45,34.04,64.45C35.66,66.24,39.27,68.36,41.91,68.9C43.96,69.32,46.08,69.32,48.14,68.91C50.83,68.37,54.54,66.26,56.18,64.45L56.16,64.45C56.16,64.45,50.9,63.74,45.1,63.74Z" fill="white"/><path d="M39.34,44.53C39.34,44.53,35.15,48.65,27.87,44.87C27.88,44.87,24.75,44.87,24.75,44.87C25.37,36.24,42.62,33.37,42.62,44.5L42.61,44.5Z" fill="#EDB08D"/><path d="M50.85,44.53C50.85,44.53,55.04,48.65,62.32,44.87C62.31,44.87,65.44,44.87,65.44,44.87C64.82,36.24,47.57,33.37,47.57,44.5L47.58,44.5Z" fill="#EDB08D"/><path d="M38.96,43.89L28.58,43.93C28.58,43.93,34.43,37.87,38.96,43.89Z" fill="white"/><path d="M36.48,42.82C36.48,41.74,35.5,40.86,34.28,40.86C33.06,40.86,32.08,41.74,32.08,42.82C32.08,43.9,33.06,44.78,34.28,44.78C35.5,44.78,36.48,43.9,36.48,42.82Z" fill="url(#paint0_linear_8728_1186)"/><path d="M51.23,43.9L61.61,43.93C61.61,43.93,55.76,38.58,51.23,43.9Z" fill="white"/><path d="M58.11,42.82C58.11,41.74,57.13,40.86,55.91,40.86C54.7,40.86,53.71,41.74,53.71,42.82C53.71,43.9,54.7,44.78,55.91,44.78C57.13,44.78,58.11,43.9,58.11,42.82Z" fill="url(#paint1_linear_8728_1186)"/><path d="M50.93,44.17L51.32,44.17C53.51,41.02,58.46,41.21,60.67,44.04C60.65,44.04,63.32,44.12,63.32,44.12C63.32,44.12,60.8,40.95,55.96,40.95L55.96,40.94C53.7,40.9,51.61,41.95,50.93,44.17Z" fill="#7A5545"/><path d="M39.33,44.15L38.94,44.15C36.75,41,31.8,41.19,29.59,44.02C29.61,44.02,26.94,44.1,26.94,44.1C26.94,44.1,29.46,40.93,34.3,40.93L34.3,40.92C36.56,40.88,38.65,41.93,39.33,44.15Z" fill="#7A5545"/><path d="M59.69,35.55C59.69,35.55,54.91,34.03,50.59,37.01C48.36,38.62,47.57,40.17,47.57,40.17L48.51,41.17C48.51,41.17,52.97,37.17,58.99,38.67C60.6,39.07,62.24,40.01,63.82,41.18C64.09,41.38,64.44,41.08,64.31,40.76L64.31,40.74C63.09,37.69,61.34,36.26,59.69,35.55Z" fill="#484542"/><path d="M30.64,35.55C30.64,35.55,35.42,34.03,39.74,37.01C41.97,38.62,42.76,40.17,42.76,40.17L41.82,41.17C41.82,41.17,37.36,37.17,31.34,38.67C29.73,39.07,28.09,40.01,26.51,41.18C26.24,41.38,25.89,41.08,26.02,40.76L26.02,40.74C27.24,37.69,28.99,36.26,30.64,35.55Z" fill="#484542"/><path d="M38.85,53.69C38.61,54.24,38.64,54.9,38.92,55.42C38.99,55.56,39.09,55.69,39.18,55.81C39.25,55.89,39.34,55.98,39.42,56.05C39.72,56.32,40.11,56.5,40.5,56.6C40.68,56.64,40.86,56.67,41.04,56.67C41.11,56.67,41.74,56.67,41.83,56.67C42.27,56.66,42.7,56.66,43.14,56.65L43.28,56.65C43.83,56.98,44.47,57.17,45.12,57.17C45.72,57.17,46.31,57.01,46.83,56.73L46.97,56.65L47.11,56.65C47.64,56.65,48.19,56.67,48.72,56.68C49,56.68,49.29,56.7,49.57,56.64C50.28,56.51,50.93,56.08,51.27,55.45C51.84,54.37,51.36,53.18,50.35,52.54C50,52.32,49.61,52.17,49.18,52.1C49.61,52.08,50.06,52.15,50.47,52.32C51.33,52.66,52.01,53.45,52.15,54.36C52.39,55.85,51.26,57.23,49.78,57.57C49.43,57.66,49.07,57.68,48.71,57.68C48.18,57.69,47.63,57.7,47.1,57.71L47.38,57.64C47.04,57.84,46.68,58,46.3,58.1C45.15,58.42,43.88,58.25,42.86,57.64L43.14,57.71C42.51,57.71,41.81,57.69,41.17,57.68C39.57,57.65,38.05,56.46,38.01,54.84C37.95,53.19,39.49,51.94,41.13,52.09L41.13,52.08C40.15,52.21,39.22,52.79,38.85,53.69Z" fill="#CD8A6D"/><path d="M38.63,56.18L50.97,56.18L44.76,58.24Z" fill="#CD8A6D"/><path d="M34.47,48.08L34.47,54.08L58.46,54.08L58.46,48.08Z" fill="#FBCDAA"/></svg>