<svg xmlns="http://www.w3.org/2000/svg" viewBox="0 0 90 90"><path d="M70.92,47.53L70.94,47.32C74.16,46.73,77.08,46.89,78.36,48.88C78.62,49.29,78.82,49.76,78.94,50.32C79.57,53.41,78.41,57.64,75.21,64.31C74.76,65.19,73.97,65.5,73.11,65.51C72.39,65.62,71.58,65.5,70.84,65.31L42.55,57.11L70.84,47.54L70.83,47.54C70.83,47.54,70.89,47.54,70.92,47.53Z" fill="#D9927A"/><path d="M23.42,47.53L23.4,47.32C20.18,46.73,17.26,46.89,15.98,48.88C15.72,49.29,15.52,49.76,15.4,50.32C14.77,53.41,15.93,57.64,19.13,64.31C19.58,65.19,20.37,65.5,21.23,65.51C21.95,65.62,22.76,65.5,23.5,65.31L51.79,57.11L23.5,47.54L23.51,47.54C23.51,47.54,23.45,47.54,23.42,47.53Z" fill="#D9927A"/><path d="M80.28,31.86C80.28,23.78,74.76,18.15,69.1,18.15C69.07,18.15,69.05,18.15,69.02,18.15C68.06,12.07,66.21,1.75,54.59,2.64C53.12,2.75,51.82,3.42,50.56,3.88C46.92,0.98,39.41,-2.66,32.91,2.9C25.95,9.74,24.5,8.63,22.75,8.07C21.23,7.59,19.96,6.74,19.03,5.65C18.19,7.96,17.63,10.46,19.34,12.52C11.34,11.48,5.54,22.03,13.54,29.22C13.08,32.82,14.4,35.81,16.05,37.95C15.33,40.58,15,43.59,16.06,47.83C16.06,47.83,21.23,56.48,21.66,57.29L71.61,57.29C71.61,57.29,77.1,50.14,77.37,47.94C77.54,48.02,78.28,40.35,78.37,40.35L78.37,40.38C79.57,37.98,80.28,35.04,80.28,31.86Z" fill="#896453"/><path d="M78.1,33.5C78.1,25.68,74.19,19.51,68.88,19.51C68.86,19.51,67.63,19.86,67.6,19.86C67.72,11.97,62.48,3.06,54.01,5.25C52.67,5.6,51.41,6,50.23,6.45C46.82,3.64,38.6,1.05,34.76,4.9C29.13,9.96,23.86,12.56,20.67,9.22C19.88,11.45,20.24,12.96,21.85,14.95C21.33,14.84,20.8,14.79,20.25,14.79C16.05,14.79,12.64,18.05,12.64,22.07C12.64,24.61,14.01,26.85,16.07,28.16C15.65,29.39,15.42,30.71,15.42,32.08C15.42,34.82,16.33,37.36,17.87,39.43C17.2,41.97,16.89,44.88,17.88,48.99C17.88,48.99,21.22,56.57,21.62,57.35L71.57,57.35C71.57,57.35,76.72,50.43,76.97,48.31C77.13,48.39,76.23,45.16,76.28,41.75L76.31,41.74C77.44,39.42,78.1,36.57,78.1,33.5Z" fill="#654638"/><path d="M68.29,42.4C68.29,42.4,69.56,28.33,63.55,23.23L48.53,28.09C47.46,28.44,46.31,28.43,45.24,28.09L34.57,24.58C31.64,23.62,28.44,25.11,27.37,27.98C26.12,31.33,25.8,35.31,25.77,38.24C25.8,38.32,25.81,38.36,25.8,38.37C25.79,38.39,25.78,38.42,25.76,38.44C25.75,40.78,25.92,42.4,25.92,42.4L23.02,49.8C23.02,51.01,23.08,52.8,23.08,52.8C23.14,57.41,23.25,59.19,23.17,63.07C23.13,64.79,23.23,66.46,23.46,68.08C23.98,71.66,25.59,75.01,28.04,77.68C31.05,80.97,36.17,87.24,40.76,88.99C41.31,89.13,41.85,89.27,42.43,89.38C44,89.69,45.54,89.79,47.05,89.76C48.56,89.79,50.11,89.68,51.67,89.38C52.25,89.27,52.79,89.12,53.34,88.99C57.93,87.24,63.05,80.97,66.06,77.68C68.51,75,70.13,71.66,70.64,68.08C70.87,66.46,70.97,64.79,70.93,63.07C70.85,59.38,70.93,53.83,70.96,49.47L70.98,49.48Z" fill="#EEC1AF"/><path d="M51.76,57.65L49.9,48.83L43.84,48.83L41.83,57.57C41.83,57.57,40.63,58.67,40.41,59.54C40.07,60.91,39.96,62.58,42.38,62.65C44.26,62.7,44.38,61.98,45.46,62.44C45.92,62.64,46.41,62.79,46.91,62.8L46.96,62.8C47.48,62.82,47.98,62.68,48.47,62.51C49.67,62.07,50.08,62.91,51.59,62.76C54.23,62.5,53.9,60.85,53.4,59.51L53.42,59.52C53.1,58.66,51.76,57.65,51.76,57.65Z" fill="#EEC1AF"/><path d="M61.53,79.33L63.28,69.06C63.68,67.21,62.99,66.08,62.99,66.08C62.99,66.08,61.18,65.37,58.17,63.86C55.92,62.73,54.66,60.64,54.16,59.64L53.82,59.64C54.06,60.26,54.12,60.96,53.99,61.65C53.46,63.45,51.04,63.35,49.6,62.95C49.13,62.83,49.04,62.85,48.51,63.08C47.55,63.54,46.22,63.48,45.27,63.06C44.9,62.92,44.63,62.95,44.16,63.09C43.16,63.43,41.95,63.39,40.95,62.9C39.6,62.17,39.66,60.81,40.29,59.64L39.97,59.64C39.47,60.64,38.21,62.73,35.96,63.86C32.94,65.37,31.14,66.08,31.14,66.08C31.14,66.08,30.45,67.2,30.85,69.06L32.6,79.33L26.53,71.48L23.33,67.31C23.37,67.65,23.41,67.99,23.46,68.32C23.98,71.9,25.59,75.25,28.04,77.92C31.05,81.21,36.17,87.48,40.76,89.23C41.3,89.36,43.57,89.98,47.18,90.01C47.18,90.01,47.22,90.01,47.24,90.01C47.26,90.01,47.28,90.01,47.3,90.01C50.91,89.98,52.78,89.37,53.32,89.23C57.91,87.48,63.03,81.21,66.04,77.92C68.49,75.24,70.11,71.9,70.62,68.32C70.67,67.98,70.71,67.65,70.75,67.31L67.55,71.48L67.6,71.48Z" fill="url(#paint0_linear_8728_1185)"/><path d="M55.45,46.1C54.31,45.97,53.35,45.44,53.35,45.44C53.35,45.44,50.42,48.7,50.35,49.37L52.23,50.68C52.23,50.68,53.33,52.28,57.54,52.28C61.75,52.28,64.78,50.68,64.78,50.68L64.78,50.69C62.94,48.15,57.28,46.32,55.45,46.1Z" fill="#E2A18B"/><path d="M49.89,48.93L52.69,45.79L57.54,52.29L50.45,51.86C50.18,51.4,50.01,49.42,49.89,48.93Z" fill="#E2A18B"/><path d="M38.56,46.1C39.7,45.97,40.66,45.44,40.66,45.44C40.66,45.44,43.59,48.7,43.66,49.37L41.78,50.68C41.78,50.68,40.68,52.28,36.47,52.28C32.26,52.28,29.23,50.68,29.23,50.68L29.23,50.69C31.07,48.15,36.73,46.32,38.56,46.1Z" fill="#E2A18B"/><path d="M44.11,48.93L41.31,45.79L36.46,52.29L43.55,51.86C43.82,51.4,43.99,49.42,44.11,48.93Z" fill="#E2A18B"/><path d="M62.27,50.27C62.27,50.27,61.99,49.54,60.6,49.06C58.33,48.29,56.96,47.65,56.96,47.65C56.96,47.65,53.84,47.36,52.92,50.08C56.04,50.39,62.27,50.27,62.27,50.27Z" fill="white"/><path d="M59.88,49.11C59.88,48,58.86,47.11,57.6,47.11C56.34,47.11,55.32,48,55.32,49.11C55.32,50.21,56.34,51.11,57.6,51.11C58.86,51.11,59.88,50.21,59.88,49.11Z" fill="#644537"/><path d="M55.74,48.04L55.85,48.02C55.39,48.18,54.93,48.37,54.48,48.57C54.04,48.79,53.59,49.01,53.25,49.39C53.48,48.93,53.91,48.61,54.32,48.3C54.74,48,55.18,47.75,55.64,47.52L55.67,47.5L55.75,47.5C57.11,47.43,58.5,47.68,59.76,48.22C61.02,48.74,62.19,49.51,63.06,50.56L63.08,50.56C60.71,49.3,58.33,48.4,55.74,48.04Z" fill="#644537"/><path d="M31.73,50.27C31.73,50.27,32.01,49.54,33.4,49.06C35.67,48.29,37.04,47.65,37.04,47.65C37.04,47.65,40.16,47.36,41.08,50.08C37.96,50.39,31.73,50.27,31.73,50.27Z" fill="white"/><path d="M38.83,49.17C38.83,47.99,37.74,47.04,36.4,47.04C35.06,47.04,33.97,47.99,33.97,49.17C33.97,50.34,35.06,51.3,36.4,51.3C37.74,51.3,38.83,50.34,38.83,49.17Z" fill="#644537"/><path d="M34.23,48.22C35.49,47.69,36.88,47.44,38.24,47.5L38.32,47.5L38.35,47.52C38.82,47.75,39.26,48,39.67,48.3C40.08,48.6,40.51,48.92,40.74,49.39C40.4,49.01,39.96,48.79,39.51,48.57C39.06,48.37,38.6,48.17,38.14,48.02L38.25,48.04C35.66,48.39,33.29,49.3,30.91,50.56L30.93,50.56C31.8,49.52,32.97,48.74,34.23,48.22Z" fill="#644537"/><path d="M29.9,28.68C28,31.7,26.35,30.8,26.35,30.8C26.35,30.8,24.87,25.9,26.68,24.68C28.49,23.46,30.23,22.48,30.88,22.48C31.53,22.48,33.85,22.64,33.85,22.64L36.98,24.03L38.13,25.83L38.14,25.82C38.14,25.82,31.79,25.66,29.9,28.68Z" fill="#654638"/><path d="M59.47,68.04C57.82,68.04,56.27,67.53,54.63,66.98C52.97,66.43,51.26,65.86,49.42,65.86C48.58,65.86,47.79,65.97,47,66.21C46.21,65.97,45.41,65.86,44.58,65.86C42.74,65.86,41.03,66.43,39.37,66.98C37.73,67.52,36.18,68.04,34.53,68.04C34.36,68.04,32.52,67.92,32.52,67.92C32.52,67.92,37.89,78.35,42.52,80.92C43.33,80.45,44.21,80.11,45.16,79.91L45.16,75.71L48.93,75.71L48.93,79.91C49.86,80.11,50.74,80.45,51.54,80.91C56.25,78.29,61.48,67.92,61.48,67.92C61.48,67.92,59.65,68.04,59.47,68.04Z" fill="#F2CCBA"/><path d="M38.95,73.72C41.49,75.91,44.27,77.01,47.21,77.01C50.15,77.01,52.93,75.92,55.46,73.77C55.97,73.33,56.44,72.89,56.86,72.45L37.62,72.45C38.02,72.87,38.46,73.3,38.95,73.72Z" fill="#F2CCBA"/><path d="M60.03,68.73C55.48,69.04,51.74,65.44,47.04,66.94L46.95,66.94C42.25,65.43,38.51,69.04,33.96,68.73C33.96,68.73,33.97,68.75,34,68.79L34.04,68.79C34.73,69.68,39.22,76.28,46.95,76.28C54.68,76.28,59.24,69.68,59.95,68.79L59.99,68.79Z" fill="#DF978B"/><path d="M34.32,68.79C34.32,68.79,34.3,68.79,34.29,68.79L36.78,68.79L36.77,68.79Z" fill="#DF978B"/><path d="M47.06,68.37C42.89,67.61,39.51,69.42,35.57,69.54L35.57,69.73C37.48,70.79,42,72.76,47.06,72.76C52.12,72.76,56.41,70.92,58.44,69.83L58.44,69.53C54.58,69.37,51.25,67.62,47.15,68.37L47.14,68.37Z" fill="white"/><path d="M43.14,20.86C36.08,16.81,7.26,25.21,22.69,30.08C23.51,30.34,24.29,30.55,25.05,30.74C24.64,31.68,24.41,32.71,24.41,33.81C24.41,38.01,27.82,41.42,32.02,41.42C30.14,38.47,30.55,34.71,32.78,32.24C35.42,35.15,39.89,35.59,43.05,33.15C44.08,32.36,44.84,31.36,45.34,30.26C47.04,31.78,47.95,33.24,46.77,36.44C45.38,40.19,48.74,42.88,48.74,42.88C48.74,42.88,47.89,41.76,50.32,38.07C54.02,32.43,46.55,26.18,46.55,26.18L46.55,26.16C46.88,21.92,44.97,20.62,43.14,20.86Z" fill="#654638"/><path d="M66.24,19.12C63.75,19.45,61.48,21.01,60.34,23.45C58.57,27.26,60.22,31.79,64.03,33.56C67.84,35.33,72.37,33.68,74.14,29.87C69.97,30.42,66.15,27.49,65.6,23.33C65.4,21.84,65.65,20.39,66.24,19.12Z" fill="#654638"/><path d="M40.74,60.05C40.25,61.67,41.1,62.34,42.65,62.35C43.65,62.39,44.6,61.59,45.69,62.05C46.15,62.21,46.55,62.32,46.96,62.32C47.71,62.37,48.23,61.97,49.02,61.83C49.87,61.77,50.48,62.23,51.27,62.22C52.82,62.37,53.73,61.78,53.47,60.12C53.47,59.17,52.82,58.39,52.22,57.62C52.62,57.92,52.99,58.25,53.31,58.64C53.99,59.46,54.27,60.55,54.06,61.64C53.53,63.44,51.11,63.34,49.67,62.94C49.2,62.82,49.11,62.84,48.58,63.07C47.62,63.53,46.29,63.47,45.34,63.05C44.97,62.91,44.7,62.94,44.23,63.08C43.23,63.42,42.02,63.38,41.02,62.89C38.71,61.64,40.52,58.55,42.29,57.7L42.28,57.7C41.61,58.41,40.87,59.12,40.74,60.05Z" fill="#CA8075"/><path d="M43.63,48.77L43.63,49.82L50.89,49.82L50.89,48.77Z" fill="#E2A18B"/><path d="M53.34,43.46C53.34,43.46,59.16,41.65,64.12,43.68L66.9,47.57L63.89,47.57L61.76,46.71C61.08,46.44,60.35,46.3,59.61,46.32L51.98,46.47Z" fill="#654638"/><path d="M40.65,43.46C40.65,43.46,34.83,41.65,29.87,43.68L27.09,47.57L30.1,47.57L32.23,46.71C32.91,46.44,33.64,46.3,34.38,46.32L42.01,46.47Z" fill="#654638"/><path d="M47.02,64.52L53.83,61.72L40.21,61.72Z" fill="#CA8075"/><path d="M47.02,64.77L52.28,63.06L41.75,63.06Z" fill="#CA8075"/><path d="M36.08,15.43C36.42,16.56,37.04,17.62,37.95,18.5C40.8,21.27,45.35,21.2,48.12,18.35C50.11,16.3,50.63,13.38,49.71,10.86C49.26,11.72,48.68,12.54,47.97,13.27L47.96,13.28C44.78,16.55,39.99,17.27,36.08,15.43Z" fill="#7A594A"/><path d="M31.14,23.34C31.48,24.47,32.1,25.53,33.01,26.41C35.86,29.18,40.41,29.11,43.18,26.26C45.17,24.21,45.69,21.29,44.77,18.77C44.32,19.63,43.74,20.45,43.03,21.18L43.02,21.19C39.84,24.46,35.05,25.18,31.14,23.34Z" fill="#7A594A"/><path d="M27.21,18.36C26.73,17.98,26.18,17.68,25.57,17.48C22.79,16.58,19.8,18.1,18.9,20.89C18.18,23.13,19.02,25.5,20.83,26.81C20.8,25.87,20.93,24.91,21.23,23.97L21.23,23.96C22.16,21.08,24.48,19.06,27.21,18.36Z" fill="#7A594A"/><path d="M28.85,24.67C27.93,23.37,26.39,22.55,24.69,22.63C22.03,22.75,19.97,25.01,20.09,27.67C20.21,30.33,22.47,32.39,25.13,32.27C23.6,30.09,24.12,27.08,26.3,25.55L26.29,25.54C27.07,24.99,27.96,24.71,28.85,24.67Z" fill="#7A594A"/></svg>