<svg xmlns="http://www.w3.org/2000/svg" viewBox="0 0 90 90"><path d="M88,47.93C88,24.72,68.75,5.91,45,5.91C21.25,5.91,2,24.72,2,47.93C2,71.14,21.25,89.95,45,89.95C68.75,89.95,88,71.14,88,47.93Z" fill="#CF8D1B"/><path d="M88,45C88,21.25,68.75,2,45,2C21.25,2,2,21.25,2,45C2,68.75,21.25,88,45,88C68.75,88,88,68.75,88,45Z" fill="#FAD541"/><path d="M40.7,9.84C40.7,33.13,26.42,53.57,5.48,61.97C3.24,56.77,2,51.03,2,45C2,22.7,18.97,4.37,40.7,2.21Z" fill="#FCE26A"/><path d="M80.18,45C80.18,25.57,64.43,9.82,45,9.82C25.57,9.82,9.82,25.57,9.82,45C9.82,64.43,25.57,80.18,45,80.18C64.43,80.18,80.18,64.43,80.18,45Z" fill="#E3AA24"/><path d="M75.62,45C75.62,28.09,61.91,14.38,45,14.38C28.09,14.38,14.38,28.09,14.38,45C14.38,61.91,28.09,75.62,45,75.62C61.91,75.62,75.62,61.91,75.62,45Z" fill="#F7C631"/><path d="M16.45,56.08C15.11,52.64,14.38,48.91,14.38,45C14.38,29.62,25.72,16.89,40.49,14.71C39.03,31.69,29.97,46.73,16.45,56.08Z" fill="#FCE26A"/><path d="M75.62,45C75.62,42.78,75.39,40.61,74.94,38.52C71.79,51.45,65.55,63.36,56.84,73.25C67.88,68.62,75.62,57.71,75.62,45Z" fill="#FAD541"/><path d="M2.31,39.85C4.76,19.31,21.68,3.22,42.59,2.07C23.37,6.97,8.29,21.39,2.31,39.85Z" fill="#FFFFC7"/><path d="M86.74,55.38C82.69,71.73,69.27,84.39,52.51,87.35C68.09,82.02,80.47,70.29,86.74,55.38Z" fill="#FFFFC7"/></svg>