<svg xmlns="http://www.w3.org/2000/svg" viewBox="0 0 90 90"><path d="M88,47.93C88,24.72,68.75,5.91,45,5.91C21.25,5.91,2,24.72,2,47.93C2,71.14,21.25,89.95,45,89.95C68.75,89.95,88,71.14,88,47.93Z" fill="#CF8D1B"/><path d="M88,45C88,21.25,68.75,2,45,2C21.25,2,2,21.25,2,45C2,68.75,21.25,88,45,88C68.75,88,88,68.75,88,45Z" fill="#FAD541"/><path d="M40.7,9.84C40.7,33.13,26.42,53.57,5.48,61.97C3.24,56.77,2,51.03,2,45C2,22.7,18.97,4.37,40.7,2.21Z" fill="#FCE26A"/><path d="M80.18,45C80.18,25.57,64.43,9.82,45,9.82C25.57,9.82,9.82,25.57,9.82,45C9.82,64.43,25.57,80.18,45,80.18C64.43,80.18,80.18,64.43,80.18,45Z" fill="#E3AA24"/><path d="M75.62,45C75.62,28.09,61.91,14.38,45,14.38C28.09,14.38,14.38,28.09,14.38,45C14.38,61.91,28.09,75.62,45,75.62C61.91,75.62,75.62,61.91,75.62,45Z" fill="#F7C631"/><path d="M16.45,56.08C15.11,52.64,14.38,48.91,14.38,45C14.38,29.62,25.72,16.89,40.49,14.71C39.03,31.69,29.97,46.73,16.45,56.08Z" fill="#FCE26A"/><path d="M75.62,45C75.62,42.78,75.39,40.61,74.94,38.52C71.79,51.45,65.55,63.36,56.84,73.25C67.88,68.62,75.62,57.71,75.62,45Z" fill="#FAD541"/><path d="M2.31,39.85C4.76,19.31,21.68,3.22,42.59,2.07C23.37,6.97,8.29,21.39,2.31,39.85Z" fill="#FFFFC7"/><path d="M86.74,55.38C82.69,71.73,69.27,84.39,52.51,87.35C68.09,82.02,80.47,70.29,86.74,55.38Z" fill="#FFFFC7"/><path d="M46.86,21.84L51.43,35.8C51.83,37.01,52.95,37.82,54.22,37.82L69.06,37.82C70.95,37.82,71.74,40.24,70.21,41.36L58.19,50.14C57.17,50.89,56.74,52.21,57.14,53.41L61.71,67.45C62.29,69.25,60.23,70.75,58.7,69.64L46.72,60.96C45.7,60.21,44.31,60.21,43.28,60.96L31.3,69.64C29.77,70.75,27.71,69.25,28.3,67.45L32.87,53.41C33.26,52.21,32.83,50.89,31.81,50.14L19.79,41.36C18.27,40.24,19.05,37.82,20.94,37.82L35.78,37.82C37.05,37.82,38.18,37.01,38.57,35.8L43.14,21.84C43.73,20.05,46.27,20.05,46.86,21.84Z" fill="#CF8D1B"/><path d="M46.86,18.91L51.65,33.55C51.92,34.35,52.66,34.89,53.51,34.89L69.06,34.89C70.95,34.89,71.74,37.31,70.21,38.42L57.62,47.63C56.94,48.12,56.65,49.01,56.92,49.81L61.71,64.52C62.29,66.32,60.23,67.81,58.7,66.7L46.15,57.61C45.46,57.11,44.54,57.11,43.85,57.61L31.3,66.7C29.77,67.81,27.71,66.32,28.3,64.52L33.09,49.81C33.35,49.01,33.06,48.12,32.38,47.63L19.79,38.42C18.27,37.31,19.05,34.89,20.94,34.89L36.49,34.89C37.34,34.89,38.09,34.35,38.35,33.55L43.14,18.91C43.73,17.12,46.27,17.12,46.86,18.91Z" fill="#FFF599"/></svg>