<svg xmlns="http://www.w3.org/2000/svg" viewBox="0 0 90 90"><path d="M3.67,26.64L40.67,2.79C43.31,1.09,46.69,1.09,49.33,2.79L86.33,26.64C88.62,28.11,90,30.64,90,33.36L90,78C90,82.42,86.42,86,82,86L8,86C3.58,86,0,82.42,0,78L0,33.36C0,30.64,1.38,28.11,3.67,26.64Z" fill="#749BBF"/><path d="M14,8C11.79,8,10,9.79,10,12L10,84C10,86.21,11.79,88,14,88L76,88C78.21,88,80,86.21,80,84L80,12C80,9.79,78.21,8,76,8Z" fill="#FAFFFF"/><path d="M10,12C10,9.79,11.79,8,14,8L60,8L15.43,9.11C13.46,9.16,11.81,10.64,11.61,12.61C10.49,23.46,10,38,10,38Z" fill="white"/><path d="M45,58L80,32L80,70L10,70L10,32Z" fill="#E5F6FF"/><path d="M65,73C65,59.1,51.2,61.2,50.1,47.4L49.9,45L55.5,45C56.2,43.8,56.5,42.4,56.5,41L49.9,36.9C53.5,34.5,54.6,32,54.6,28.6C54.6,23.3,50.3,19,45,19C39.7,19,35.4,23.3,35.4,28.6C35.4,31.8,36.8,34.8,40.1,37L33.5,41C33.5,42.4,33.8,43.8,34.5,45L40.1,45L39.9,47.4C38.8,61.2,25,59.1,25,73Z" fill="#81B64C"/><path d="M65,73L25,73C25,65.92,28.58,62.99,32.24,60C34.57,58.09,36.93,56.16,38.42,53.11L41.42,55.34C43.55,56.92,46.45,56.92,48.58,55.34L51.58,53.11C53.07,56.16,55.43,58.09,57.76,60C61.42,62.99,65,65.92,65,73Z" fill="#5D9948"/><path d="M8,65C3.58,65,0,68.58,0,73L0,82C0,86.42,3.58,90,8,90L82,90C86.42,90,90,86.42,90,82L90,73C90,68.58,86.42,65,82,65Z" fill="#749BBF"/><path d="M3.23,31.51L40.09,60.18C42.98,62.43,47.02,62.43,49.91,60.18L86.77,31.51C88.09,30.49,90,31.43,90,33.09L90,78C90,82.42,86.42,86,82,86L8,86C3.58,86,0,82.42,0,78L0,33.09C0,31.43,1.91,30.49,3.23,31.51Z" fill="#AED0F0"/><path d="M82,86C83.99,86,85.81,85.28,87.21,84.08L51.13,59.23L49.91,60.18C47.02,62.43,42.98,62.43,40.09,60.18L38.86,59.23L2.79,84.07C4.19,85.28,6.01,86,8,86Z" fill="#D0E6FB"/><path d="M0,33.1C0,31.43,1.92,30.5,3.23,31.52L50,68L4.74,34.25C3.52,33.33,1.77,34.08,1.6,35.6C0.49,46.12,0,59,0,59Z" fill="#D0E6FB"/><path d="M90,33.1C90,31.43,88.08,30.5,86.77,31.52L40,68L85.26,34.25C86.48,33.33,88.23,34.08,88.4,35.6C89.51,46.12,90,59,90,59Z" fill="#D0E6FB"/><path d="M90,78C90,82.42,86.42,86,82,86L27,86L78.66,84.12C83.7,83.94,87.83,80.03,88.12,74.99C89,59.68,88.51,47.89,90,31Z" fill="#F2FCFF"/></svg>