<svg xmlns="http://www.w3.org/2000/svg" viewBox="0 0 90 90"><path d="M90,45L90,41L0,41L0,45C0,55.83,5.1,65.63,13.32,72.7C11.11,77.69,7.1,81.64,3,85L3,89C12.63,89.4,22.51,86.85,30.35,81.89C34.94,83.26,39.87,84,45,84C69.85,84,90,66.54,90,45Z" fill="#749BBF"/><path d="M90,41C90,19.46,69.85,2,45,2C20.15,2,0,19.46,0,41C0,52.21,5.45,62.31,14.19,69.42C12.29,75.63,7.73,81.14,3,85C12.63,85.4,22.51,82.85,30.35,77.89C34.94,79.26,39.87,80,45,80C69.85,80,90,62.54,90,41Z" fill="#D0E6FB"/><path d="M64.5,74.78C61.47,76.53,58.34,77.93,55.18,79C75.13,75,90,59.5,90,41C90,36.99,89.3,33.12,88,29.48C91.05,46.09,82.02,64.66,64.5,74.78Z" fill="#FAFFFF"/><path d="M0,41C0,22.5,14.87,7,34.82,3C31.66,4.07,28.53,5.47,25.5,7.22C7.99,17.34,-1.05,35.9,2,52.52C0.7,48.88,0,45.01,0,41Z" fill="#FAFFFF"/><path d="M28.82,51.22C39.72,56.4,50.41,56.35,61.17,51.23C63.11,50.31,65.49,51,66.45,52.92C67.33,54.7,66.68,56.88,64.9,57.75C51.74,64.16,38.4,64.22,25.11,57.74C23.32,56.87,22.67,54.7,23.55,52.92C24.51,51,26.89,50.3,28.82,51.22Z" fill="#AED0F0"/><path d="M37.5,33.42C37.5,37.57,34.43,40.92,30.83,40.92C27.05,40.92,24,37.57,24,33.42C24,29.27,27.07,25.92,30.83,25.92C34.43,25.78,37.5,29.27,37.5,33.42Z" fill="#AED0F0"/><path d="M66,33.42C66,37.57,62.93,40.92,59.17,40.92C55.41,40.92,52.5,37.57,52.5,33.42C52.5,29.27,55.57,25.92,59.17,25.92C62.95,25.78,66,29.27,66,33.42Z" fill="#AED0F0"/><path d="M28.82,48.22C39.72,53.4,50.41,53.35,61.17,48.23C63.11,47.31,65.49,48,66.45,49.92C67.33,51.7,66.68,53.88,64.9,54.75C51.74,61.16,38.4,61.22,25.11,54.74C23.32,53.87,22.67,51.7,23.55,49.92C24.51,48,26.89,47.3,28.82,48.22Z" fill="#486688"/><path d="M37.5,30.42C37.5,34.57,34.43,37.92,30.83,37.92C27.05,37.92,24,34.57,24,30.42C24,26.27,27.07,22.92,30.83,22.92C34.43,22.78,37.5,26.27,37.5,30.42Z" fill="#486688"/><path d="M66,30.42C66,34.57,62.93,37.92,59.17,37.92C55.41,37.92,52.5,34.57,52.5,30.42C52.5,26.27,55.57,22.92,59.17,22.92C62.95,22.78,66,26.27,66,30.42Z" fill="#486688"/></svg>