<svg xmlns="http://www.w3.org/2000/svg" viewBox="0 0 90 90"><path d="M13,5C8.58,5,5,8.58,5,13L5,77C5,81.42,8.58,85,13,85L77,85C81.42,85,85,81.42,85,77L85,13C85,8.58,81.42,5,77,5Z" fill="#324660"/><path d="M13,5C8.58,5,5,8.58,5,13L5,73C5,77.42,8.58,81,13,81L77,81C81.42,81,85,77.42,85,73L85,13C85,8.58,81.42,5,77,5Z" fill="#D0E6FB"/><path d="M82.63,28.06L85,12L85,73C85,77.42,81.42,81,77,81L14,81L30.95,78.81C57.6,75.37,78.71,54.64,82.63,28.06Z" fill="#FAFFFF" opacity="0.1"/><path d="M5,13C5,8.58,8.58,5,13,5L75,5L16.31,6.73C11.06,6.88,6.83,11.06,6.61,16.31L5,55Z" fill="#E5F6FF"/><path d="M85,73C85,77.42,81.42,81,77,81L54,81L73.3,78.86C77.83,78.35,81.45,74.85,82.1,70.33L85,50Z" fill="#E5F6FF"/><path d="M85,73C85,77.42,81.42,81,77,81L54,81L73.3,78.86C77.83,78.35,81.45,74.85,82.1,70.33L85,50Z" fill="#AED0F0"/><path d="M70.27,67.56C76.07,69.13,80.18,74.24,80.53,80.18C79.46,80.7,78.27,81,77,81L13,81C11.73,81,10.54,80.7,9.47,80.18C9.82,74.24,13.93,69.13,19.73,67.56L34.97,63.44L55.03,63.44Z" fill="#486688"/><path d="M63.6,64.48C62.29,60.44,58.53,57.7,54.28,57.7L35.71,57.7C31.46,57.7,27.71,60.43,26.4,64.47C26.07,65.52,26.33,66.67,27.09,67.47L40,81L50.24,81L62.93,67.47C63.68,66.67,63.94,65.53,63.6,64.48Z" fill="#749BBF"/><path d="M34.33,46.15L34.33,62.67C34.33,65.02,35.27,67.28,36.94,68.95L45,77.01L53.06,68.95C54.73,67.28,55.67,65.02,55.67,62.67L55.67,46.15Z" fill="#AED0F0"/><path d="M34.33,41.7L34.33,61.01L38.71,65.4C42.19,68.87,47.81,68.87,51.29,65.4L55.67,61.01L55.67,41.7Z" fill="#749BBF"/><path d="M28.36,37.67C26.8,37.67,25.57,39.01,25.71,40.57L26.11,45.02C26.24,46.39,27.39,47.44,28.77,47.44L29.25,47.44C30.62,56.51,37.44,63.49,45,63.49C52.56,63.49,59.38,56.51,60.75,47.44L61.23,47.44C62.61,47.44,63.76,46.39,63.89,45.02L64.29,40.57C64.43,39.01,63.2,37.67,61.64,37.67L61.01,37.67C61.01,31.32,61,22.56,61,22.56L29,22.56L29,37.67Z" fill="#AED0F0"/><path d="M44.99,11C34.71,11,26.38,18.03,26.33,26.72L26.33,32.44C26.33,36.39,27.72,40.22,30.25,43.25L30.78,43.89L30.78,33.71C30.78,31.42,32.52,29.5,34.8,29.28L44.44,28.37C47.67,28.06,50.7,26.63,53,24.33L55.59,26.93C56.23,27.57,56.94,28.14,57.69,28.64C58.65,29.28,59.22,30.36,59.22,31.51L59.22,43.89L59.75,43.25C62.28,40.22,63.67,36.39,63.67,32.44L63.67,26.72L63.64,26.72C63.6,18.03,55.27,11,44.99,11Z" fill="#749BBF"/><path d="M73.3,78.86C75.75,78.58,77.93,77.44,79.52,75.73C80.09,77.12,80.44,78.62,80.53,80.18C79.48,80.7,78.29,80.99,77.04,81L54,81Z" fill="#749BBF"/></svg>