<svg xmlns="http://www.w3.org/2000/svg" viewBox="0 0 90 90"><path d="M41.26,87.46L83.54,45.19C84.47,44.25,85,42.98,85,41.66L85,10C85,7.24,82.76,5,80,5L48.34,5C47.02,5,45.75,5.53,44.81,6.46L2.54,48.74C0.58,50.69,0.58,53.86,2.54,55.81L34.19,87.46C36.14,89.42,39.31,89.42,41.26,87.46Z" fill="currentColor"/><path d="M76,20C76,16.69,73.31,14,70,14C66.69,14,64,16.69,64,20C64,23.31,66.69,26,70,26C73.31,26,76,23.31,76,20Z" fill="currentColor"/><path d="M12.08,60.42C20.78,64.42,31.09,61.04,35.74,52.67C38.51,47.68,39.66,41.95,39.03,36.28L36.63,14.65L44.81,6.46C45.75,5.53,47.02,5,48.34,5L80,5C81.12,5,82.16,5.37,83,6L66.66,7.61C58.18,8.44,51.17,14.55,49.17,22.84L41.86,53.28C39.63,62.56,50.42,69.39,57.85,63.4L79.66,45.84C81.72,44.18,83.04,41.78,83.33,39.15L85,24.03L85,41.66C85,42.98,84.47,44.25,83.54,45.19L41.26,87.46C39.31,89.42,36.14,89.42,34.19,87.46L2.97,56.24Z" fill="currentColor"/><path d="M79,20C79,15.03,74.97,11,70,11C65.03,11,61,15.03,61,20C61,24.97,65.03,29,70,29C74.97,29,79,24.97,79,20Z" fill="currentColor"/><path d="M76,20C76,16.69,73.31,14,70,14C66.69,14,64,16.69,64,20C64,23.31,66.69,26,70,26C73.31,26,76,23.31,76,20Z" fill="currentColor"/><path d="M70,11C65.03,11,61,15.03,61,20C61,22.54,62.05,24.83,63.74,26.47C64.69,26,65.6,25.45,66.45,24.84C64.97,23.75,64,21.99,64,20C64,16.69,66.69,14,70,14C71.39,14,72.67,14.47,73.69,15.27C74.04,14.29,74.32,13.26,74.51,12.21C73.19,11.44,71.64,11,70,11Z" fill="currentColor"/><path d="M2.54,55.81C0.58,53.86,0.58,50.69,2.54,48.74L44.81,6.46C45.75,5.53,47.02,5,48.35,5L80,5C82.76,5,85,7.24,85,10L85,25.73L83.26,12.62C82.93,10.14,80.81,8.28,78.3,8.28L50.57,8.28C49.27,8.28,48.03,8.79,47.09,9.69L6.57,49.01C4.68,50.84,4.54,53.84,6.25,55.84L27.73,81Z" fill="currentColor"/><path d="M65.14,47.24L23.51,55.22L19.22,50.93L60.86,42.96Z" fill="currentColor"/><path d="M31.2,34.42C31.22,32.12,32.18,30.03,34.07,28.14C35.96,26.25,38.03,25.31,40.3,25.31C42.59,25.29,44.65,26.18,46.47,28C48.29,29.82,49.2,31.86,49.2,34.13C49.2,36.4,48.24,38.49,46.33,40.41C44.41,42.32,42.32,43.28,40.05,43.28C37.79,43.28,35.74,42.37,33.92,40.55C32.13,38.75,31.22,36.71,31.2,34.42Z" fill="currentColor"/><path d="M39.7,38.67C40.74,38.57,41.79,38,42.85,36.93C43.92,35.87,44.5,34.82,44.59,33.78C44.69,32.74,44.32,31.81,43.49,30.98C42.69,30.18,41.77,29.82,40.73,29.92C39.69,30.01,38.64,30.59,37.57,31.65C36.51,32.72,35.93,33.77,35.84,34.81C35.74,35.85,36.1,36.77,36.9,37.57C37.73,38.4,38.66,38.76,39.7,38.67Z" fill="currentColor"/><path d="M35.16,64.04C35.19,61.75,36.14,59.66,38.03,57.77C39.92,55.88,42,54.93,44.27,54.93C46.56,54.91,48.62,55.81,50.44,57.63C52.26,59.45,53.15,61.5,53.13,63.79C53.13,66.06,52.19,68.14,50.3,70.03C48.41,71.92,46.32,72.88,44.02,72.9C41.76,72.9,39.71,71.99,37.89,70.17C36.1,68.38,35.19,66.33,35.16,64.04Z" fill="currentColor"/><path d="M43.63,68.26C44.7,68.19,45.76,67.62,46.82,66.56C47.89,65.5,48.45,64.43,48.52,63.37C48.62,62.33,48.26,61.41,47.46,60.6C46.66,59.8,45.74,59.45,44.7,59.54C43.66,59.64,42.61,60.22,41.54,61.28C40.48,62.34,39.9,63.39,39.81,64.43C39.71,65.47,40.07,66.39,40.87,67.2C41.67,68,42.59,68.35,43.63,68.26Z" fill="currentColor"/></svg>