<svg xmlns="http://www.w3.org/2000/svg" viewBox="0 0 90 90"><path d="M90,45L90,41L0,41L0,45C0,55.83,5.1,65.63,13.32,72.7C11.11,77.69,7.1,81.64,3,85L3,89C12.63,89.4,22.51,86.85,30.35,81.89C34.94,83.26,39.87,84,45,84C69.85,84,90,66.54,90,45Z" fill="currentColor"/><path d="M90,41C90,19.46,69.85,2,45,2C20.15,2,0,19.46,0,41C0,52.21,5.45,62.31,14.19,69.42C12.29,75.63,7.73,81.14,3,85C12.63,85.4,22.51,82.85,30.35,77.89C34.94,79.26,39.87,80,45,80C69.85,80,90,62.54,90,41Z" fill="currentColor"/><path d="M64.5,74.78C61.47,76.53,58.34,77.93,55.18,79C75.13,75,90,59.5,90,41C90,36.99,89.3,33.12,88,29.48C91.05,46.09,82.02,64.66,64.5,74.78Z" fill="currentColor"/><path d="M0,41C0,22.5,14.87,7,34.82,3C31.66,4.07,28.53,5.47,25.5,7.22C7.99,17.34,-1.05,35.9,2,52.52C0.7,48.88,0,45.01,0,41Z" fill="currentColor"/><path d="M60.67,51.28C62.33,51.28,63.17,50.44,63.17,48.78C63.25,45.78,63.75,45.36,66.33,43.44C68.5,41.78,73.33,39.03,73.33,31.53C73.33,22.94,66.75,17.94,58.17,17.94C54.42,17.94,51.02,18.81,47.34,21.26C49.74,24.35,51.08,28.25,50.88,32.43C51.32,32.31,51.78,32.06,52.25,31.7C54.67,30.03,56.83,29.2,58.5,29.2C60.75,29.2,62.08,30.45,62.08,32.03C62.08,33.53,61,34.61,57.67,37.03C52.42,40.78,52,40.78,51.92,48.78C51.92,50.45,52.75,51.28,54.42,51.28Z" fill="currentColor"/><path d="M63.25,63.19C63.25,57.36,63.25,57.44,57.5,57.44C51.83,57.44,51.83,57.44,51.83,63.11C51.83,68.94,51.83,68.86,57.5,68.86C63.25,68.86,63.25,68.86,63.25,63.19Z" fill="currentColor"/><path d="M35.67,51.28C37.33,51.28,38.17,50.44,38.17,48.78C38.25,45.78,38.75,45.36,41.33,43.44C43.5,41.78,48.33,39.03,48.33,31.53C48.33,22.94,41.75,17.94,33.17,17.94C28.67,17.94,24.67,19.19,20.08,22.94C18.83,24.03,18.75,25.28,19.75,26.61L23.42,31.53C24.42,32.78,25.75,32.86,27.25,31.69C29.67,30.03,31.83,29.19,33.5,29.19C35.75,29.19,37.08,30.44,37.08,32.03C37.08,33.53,36,34.61,32.67,37.03C27.42,40.78,27,40.78,26.92,48.78C26.92,50.44,27.75,51.28,29.42,51.28Z" fill="currentColor"/><path d="M38.25,63.19C38.25,57.36,38.25,57.44,32.5,57.44C26.83,57.44,26.83,57.44,26.83,63.11C26.83,68.94,26.83,68.86,32.5,68.86C38.25,68.86,38.25,68.86,38.25,63.19Z" fill="currentColor"/><path d="M60.67,47.72C62.33,47.72,63.17,46.89,63.17,45.22C63.25,42.22,63.75,41.81,66.33,39.89C68.5,38.22,73.33,35.47,73.33,27.97C73.33,19.39,66.75,14.39,58.17,14.39C54.42,14.39,51.02,15.25,47.34,17.71C49.74,20.79,51.08,24.69,50.88,28.87C51.32,28.75,51.78,28.51,52.25,28.14C54.67,26.47,56.83,25.64,58.5,25.64C60.75,25.64,62.08,26.89,62.08,28.47C62.08,29.97,61,31.06,57.67,33.47C52.42,37.22,52,37.22,51.92,45.22C51.92,46.89,52.75,47.72,54.42,47.72Z" fill="currentColor"/><path d="M63.25,59.64C63.25,53.81,63.25,53.89,57.5,53.89C51.83,53.89,51.83,53.89,51.83,59.56C51.83,65.39,51.83,65.31,57.5,65.31C63.25,65.31,63.25,65.31,63.25,59.64Z" fill="currentColor"/><path d="M35.67,47.72C37.33,47.72,38.17,46.89,38.17,45.22C38.25,42.22,38.75,41.81,41.33,39.89C43.5,38.22,48.33,35.47,48.33,27.97C48.33,19.39,41.75,14.39,33.17,14.39C28.67,14.39,24.67,15.64,20.08,19.39C18.83,20.47,18.75,21.72,19.75,23.06L23.42,27.97C24.42,29.22,25.75,29.31,27.25,28.14C29.67,26.47,31.83,25.64,33.5,25.64C35.75,25.64,37.08,26.89,37.08,28.47C37.08,29.97,36,31.06,32.67,33.47C27.42,37.22,27,37.22,26.92,45.22C26.92,46.89,27.75,47.72,29.42,47.72Z" fill="currentColor"/><path d="M38.25,59.64C38.25,53.81,38.25,53.89,32.5,53.89C26.83,53.89,26.83,53.89,26.83,59.56C26.83,65.39,26.83,65.31,32.5,65.31C38.25,65.31,38.25,65.31,38.25,59.64Z" fill="currentColor"/></svg>