<svg width="90" height="90" viewBox="0 0 90 90" fill="none" xmlns="http://www.w3.org/2000/svg">
<path fill-rule="evenodd" clip-rule="evenodd" d="M45 84C69.8528 84 90 66.5391 90 45V41H0V45C0 55.8332 5.09647 65.6347 13.3248 72.702C11.1072 77.6862 7.10041 81.6447 3 85V89C12.6318 89.4013 22.5134 86.8535 30.3462 81.8855C34.9397 83.2559 39.8696 84 45 84Z" fill="#749BBF"/>
<path fill-rule="evenodd" clip-rule="evenodd" d="M45 80C69.8528 80 90 62.5391 90 41C90 19.4609 69.8528 2 45 2C20.1472 2 0 19.4609 0 41C0 52.2071 5.45439 62.3101 14.188 69.424C12.2908 75.6253 7.73296 81.1447 3 85C12.6318 85.4013 22.5135 82.8535 30.3462 77.8855C34.9397 79.2559 39.8696 80 45 80Z" fill="#D0E6FB"/>
<path fill-rule="evenodd" clip-rule="evenodd" d="M88.0032 29.4763C91.0499 46.0939 82.0151 64.6625 64.4998 74.775C61.4672 76.5259 58.3422 77.9298 55.1808 78.9977C75.1298 74.9991 90 59.5046 90 41C90 36.9885 89.3012 33.1184 88.0032 29.4763ZM1.99609 52.5219C0.698598 48.8803 0 45.0109 0 41C0 22.4958 14.8696 7.00156 34.818 3.00256C31.6569 4.0704 28.5322 5.47427 25.4998 7.225C7.98518 17.3371 -1.04955 35.9047 1.99609 52.5219Z" fill="#FAFFFF"/>
<path d="M23.5546 52.9224C24.514 51.0035 26.8861 50.304 28.8241 51.2241C39.717 56.3973 50.41 56.3464 61.1747 51.228C63.113 50.3064 65.4862 51.0048 66.4462 52.9243C67.3341 54.7002 66.68 56.8753 64.8954 57.7456C51.7357 64.1634 38.3989 64.2192 25.1083 57.7446C23.3224 56.8746 22.6662 54.6993 23.5546 52.9224ZM30.8329 25.9204C34.428 25.7786 37.4997 29.2709 37.4999 33.4185C37.4999 37.5663 34.4281 40.9165 30.8329 40.9165C27.0473 40.9163 23.9999 37.5661 23.9999 33.4185C24.0001 29.271 27.0713 25.9206 30.8329 25.9204ZM59.1669 25.9204C62.9523 25.7789 65.9997 29.271 65.9999 33.4185C65.9999 37.5661 62.9286 40.9163 59.1669 40.9165C55.405 40.9165 52.4999 37.5663 52.4999 33.4185C52.5001 29.2709 55.5718 25.9204 59.1669 25.9204Z" fill="#AED0F0"/>
<path d="M23.5546 49.9224C24.514 48.0035 26.8861 47.304 28.8241 48.2241C39.717 53.3973 50.41 53.3464 61.1747 48.2281C63.113 47.3064 65.4862 48.0048 66.4462 49.9243C67.3341 51.7002 66.68 53.8753 64.8954 54.7456C51.7357 61.1634 38.3989 61.2192 25.1083 54.7447C23.3224 53.8746 22.6662 51.6993 23.5546 49.9224ZM30.8329 22.9214C34.428 22.7796 37.4997 26.2709 37.4999 30.4185C37.4999 34.5663 34.4281 37.9165 30.8329 37.9165C27.0473 37.9163 23.9999 34.5661 23.9999 30.4185C24.0001 26.271 27.0713 22.9216 30.8329 22.9214ZM59.1669 22.9214C62.9523 22.7798 65.9997 26.271 65.9999 30.4185C65.9999 34.5661 62.9286 37.9163 59.1669 37.9165C55.405 37.9165 52.4999 34.5663 52.4999 30.4185C52.5001 26.2709 55.5718 22.9214 59.1669 22.9214Z" fill="#486688"/>
</svg>
