<svg xmlns="http://www.w3.org/2000/svg" viewBox="0 0 90 90"><path d="M21.89,9.74L36,85L43.81,85L41,70L79,70L81.81,85L90,85L75.61,8.26C75.26,6.37,73.61,5,71.68,5L25.82,5C23.32,5,21.43,7.28,21.89,9.74Z" fill="currentColor"/><path d="M17.89,9.74L32,85L39.81,85L37,70L75,70L77.81,85L86,85L71.61,8.26C71.26,6.37,69.61,5,67.68,5L21.82,5C19.32,5,17.43,7.28,17.89,9.74Z" fill="currentColor"/><path d="M13,7L10,70.09L69,70.09L72,7Z" fill="currentColor"/><path d="M72.11,9.74L58,85L50.19,85L53,70L15,70L12.19,85L4,85L18.39,8.26C18.74,6.37,20.39,5,22.32,5L68.18,5C70.68,5,72.57,7.28,72.11,9.74Z" fill="currentColor"/><path d="M68.11,9.74L54,85L46.19,85L49,70L11,70L8.19,85L0,85L14.39,8.26C14.74,6.37,16.39,5,18.32,5L64.18,5C66.68,5,68.57,7.28,68.11,9.74Z" fill="currentColor"/><path d="M25.27,7.78C20.7,7.91,16.8,11.12,15.8,15.59L0.22,85L0,85L14.39,8.26C14.74,6.37,16.4,5,18.32,5L64.18,5C65.5,5,66.64,5.63,67.37,6.58Z" fill="currentColor"/><path d="M27.5,5L27.82,7.68L61.44,6.8C63.94,6.74,65.88,8.95,65.5,11.42L54,85L68.39,8.26C68.74,6.37,70.39,5,72.32,5Z" fill="currentColor"/><path d="M48.29,59.94C49.36,54.14,46.46,51.31,43.63,48.58C40.94,46.01,38.4,43.6,39.28,38.79L39.66,36.71L44.45,36.71C45.23,35.72,45.7,34.56,45.91,33.39L40.9,29.99C43.95,28.25,45.69,25.76,46.18,23.11C46.99,18.71,43.97,15.14,39.44,15.14C34.91,15.14,30.59,18.71,29.78,23.11C29.29,25.76,30.11,28.25,32.51,30.08L26.26,33.39C26.05,34.56,26.09,35.72,26.51,36.71L31.29,36.71L30.91,38.79C30.02,43.6,26.59,46.01,22.96,48.58C19.12,51.31,15.19,54.14,14.12,59.94Z" fill="currentColor"/></svg>