<svg xmlns="http://www.w3.org/2000/svg" viewBox="0 0 90 90"><path d="M88,46.95C88,23.21,68.75,3.95,45,3.95C21.25,3.95,2,23.21,2,46.95C2,70.7,21.25,89.95,45,89.95C68.75,89.95,88,70.7,88,46.95Z" fill="currentColor"/><path d="M88,45C88,21.25,68.75,2,45,2C21.25,2,2,21.25,2,45C2,68.75,21.25,88,45,88C68.75,88,88,68.75,88,45Z" fill="currentColor"/><path d="M80.18,45C80.18,25.57,64.43,9.82,45,9.82C25.57,9.82,9.82,25.57,9.82,45C9.82,64.43,25.57,80.18,45,80.18C64.43,80.18,80.18,64.43,80.18,45Z" fill="currentColor"/><path d="M45.48,12.75C27.43,12.75,12.75,27.31,12.75,45.19C12.75,57.23,19.43,67.75,29.29,73.34C45.48,60.08,57.41,32.94,59.66,16C55.36,13.94,50.57,12.75,45.48,12.75Z" fill="currentColor"/><path d="M2.81,36.67C6.53,17.7,22.72,3.21,42.49,2.07C23.87,5.88,8.95,19.2,2.81,36.67Z" fill="currentColor"/><path d="M45,88C68.75,88,88,68.75,88,45C88,44.7,88,44.41,87.99,44.12C85.75,66.94,67.77,85.19,45,88Z" fill="currentColor"/><path d="M88,48C88,24.8,68.75,6,45,6C21.25,6,2,24.8,2,48C2,71.2,21.25,90,45,90C68.75,90,88,71.2,88,48Z" fill="currentColor"/><path d="M88,45C88,21.25,68.75,2,45,2C21.25,2,2,21.25,2,45C2,68.75,21.25,88,45,88C68.75,88,88,68.75,88,45Z" fill="currentColor"/><path d="M60.7,13.79C60.7,41.33,43.48,65.78,17.47,78.03C8.01,70.14,2,58.27,2,45C2,21.25,21.25,2,45,2C50.54,2,55.84,3.05,60.7,4.96Z" fill="currentColor"/><path d="M82,45C82,24.57,65.43,8,45,8C24.57,8,8,24.57,8,45C8,65.43,24.57,82,45,82C65.43,82,82,65.43,82,45Z" fill="currentColor"/><path d="M78,45C78,26.77,63.23,12,45,12C26.77,12,12,26.77,12,45C12,63.23,26.77,78,45,78C63.23,78,78,63.23,78,45Z" fill="currentColor"/><path d="M45,2C21.25,2,2,21.25,2,45C2,50,2.85,54.79,4.42,59.25C3.49,55.66,3,51.89,3,48C3,23.15,23.15,3,48,3C51.89,3,55.66,3.49,59.25,4.42C54.79,2.85,50,2,45,2Z" fill="currentColor"/><path d="M45,88C68.75,88,88,68.75,88,45C88,40,87.15,35.21,85.58,30.75C86.51,34.34,87,38.11,87,42C87,66.85,66.85,87,42,87C38.11,87,34.34,86.51,30.75,85.58C35.21,87.15,40,88,45,88Z" fill="currentColor"/><path d="M78,44.5C78,44.66,78,44.83,78,45C78,62.34,64.63,76.55,47.64,77.9C62.88,73.06,74.6,60.32,78,44.5Z" fill="currentColor"/><path d="M57.05,24L32.95,24C32.3,24,31.67,24.26,31.22,24.73L19.54,36.84C18.71,37.71,18.64,39.07,19.4,40.01L43.13,69.66C44.09,70.86,45.92,70.86,46.88,69.66L70.6,40.01C71.36,39.07,71.29,37.71,70.46,36.84L58.78,24.73C58.33,24.26,57.7,24,57.05,24Z" fill="currentColor"/><path d="M57.05,24L32.95,24C32.3,24,31.67,24.26,31.22,24.73L19.54,36.84C19.54,36.84,19.54,36.84,19.54,36.84C18.71,37.71,18.64,39.07,19.4,40.01C19.4,40.01,19.4,40.01,19.4,40.01L43.13,69.66C43.13,69.66,43.13,69.66,43.13,69.66C43.76,70.44,44.75,70.71,45.63,70.48L57.34,42.04L71.13,38.56C71.14,37.94,70.92,37.32,70.46,36.84L58.78,24.73C58.78,24.73,58.78,24.73,58.78,24.73C58.32,24.26,57.7,24,57.05,24Z" fill="currentColor"/><path d="M58.78,24.73L70.46,36.84C70.92,37.32,71.14,37.95,71.13,38.57L69.53,39L65.17,33.62C60.99,28.44,54.84,25.24,48.19,24.77L37.22,24L57.05,24C57.7,24,58.33,24.26,58.78,24.73Z" fill="currentColor"/><path d="M57.34,42.04L32.67,42.04L44.38,70.48C43.91,70.35,43.47,70.08,43.14,69.66L43.13,69.66L19.4,40.01L19.4,40.01C18.64,39.07,18.71,37.71,19.54,36.84L19.54,36.84L31.22,24.73L31.22,24.73C31.68,24.26,32.3,24,32.95,24L37.14,24L52.86,24Z" fill="currentColor"/><path d="M57.34,42.04L52.49,26.83C52.12,25.66,51.08,24.84,49.87,24.74L40.21,24L52.86,24Z" fill="currentColor"/><path d="M19.18,39.69C19.24,39.8,19.31,39.91,19.4,40.01L43.13,69.66C43.57,70.21,44.19,70.5,44.83,70.55Z" fill="currentColor"/><path d="M32.67,42.04L18.87,38.56C18.86,37.94,19.08,37.32,19.54,36.84L31.22,24.73C31.67,24.26,32.3,24,32.95,24L37.14,24Z" fill="currentColor"/><path d="M31.22,24.73L19.54,36.84C19.08,37.32,18.85,37.95,18.87,38.57L20.47,39L27.49,30.01C29.91,26.91,33.36,24.77,37.22,24L32.95,24C32.3,24,31.67,24.26,31.22,24.73Z" fill="currentColor"/><path d="M45.01,70.5L20.47,38.96L18.87,38.56C18.88,39.07,19.06,39.58,19.4,40.01L43.13,69.66C43.61,70.26,44.31,70.56,45.01,70.56Z" fill="currentColor"/><path d="M69.53,38.96L44.99,70.5L44.99,70.56C45.63,70.56,46.27,70.32,46.74,69.82L70.62,39.98C70.95,39.56,71.12,39.06,71.13,38.56Z" fill="currentColor"/></svg>