<svg xmlns="http://www.w3.org/2000/svg" viewBox="0 0 90 90"><path d="M38.26,56.26L39.06,56.04L38.82,56.94C37.59,61.43,38.03,66.21,40.04,70.41C40.56,71.5,39.97,72.81,38.79,73.12L36.09,73.84C33.61,74.51,31.11,72.84,30.77,70.3L28.97,56.92C32.08,57.29,35.23,57.07,38.26,56.26Z" fill="currentColor"/><path d="M35.04,56.95L36.38,57.37C35.55,61.15,35.89,65.1,37.34,68.68L37.72,69.6C38.22,70.84,37.52,72.24,36.23,72.59L35.41,72.81C33.71,73.27,31.99,72.16,31.7,70.43L29.5,57.39C31.23,56.54,33.21,56.38,35.04,56.95Z" fill="currentColor"/><path d="M38.26,56.26L39.06,56.04L38.82,56.94C38.49,58.13,38.28,59.35,38.19,60.57L37.44,60.13C34.86,58.65,31.76,58.85,29.45,60.44L28.97,56.92C32.08,57.29,35.23,57.07,38.26,56.26Z" fill="currentColor"/><path d="M50.5,17.14C47.98,17.82,45.75,19.33,44.19,21.43L40.35,26.59C36.61,31.63,31.27,35.25,25.21,36.88L23.87,37.23C22.76,37.53,21.82,38.27,21.27,39.28C17.7,45.83,19.9,54.03,26.27,57.92C27.25,58.52,28.43,58.69,29.54,58.39L30.88,58.03C36.94,56.41,43.37,56.88,49.13,59.37L55.03,61.92C57.44,62.96,60.12,63.15,62.65,62.47Z" fill="currentColor"/><path d="M51.11,19.41C48.56,20.09,46.28,21.55,44.59,23.59L40.95,27.97C36.91,32.84,31.46,36.34,25.34,37.97L23.62,38.43C22.73,38.67,21.96,39.25,21.47,40.04C17.77,46,19.87,53.85,26.06,57.17C26.87,57.6,27.83,57.71,28.73,57.47L30.45,57.01C36.56,55.38,43.03,55.68,48.96,57.87L54.3,59.85C56.78,60.77,59.49,60.89,62.04,60.21Z" fill="currentColor"/><path d="M66.78,37.07C63.42,24.56,56.14,15.63,50.51,17.14C44.87,18.65,43.02,30.02,46.38,42.54C49.73,55.06,57.02,63.98,62.65,62.47C68.29,60.96,70.13,49.59,66.78,37.07Z" fill="currentColor"/><path d="M47.51,42.24C50.05,51.71,54.61,59.25,59.07,62.17C54.23,60.22,49.05,52.52,46.38,42.54C43.7,32.56,44.34,23.3,47.56,19.2C45.15,23.95,44.97,32.76,47.51,42.24Z" fill="currentColor"/><path d="M63.38,37.99C60.7,27.97,55.6,20.63,52,21.6C48.4,22.56,47.66,31.46,50.35,41.48C53.03,51.49,58.12,58.83,61.72,57.87C65.32,56.9,66.06,48,63.38,37.99Z" fill="currentColor"/><path d="M54.53,51.96C52.92,49.16,51.43,45.54,50.35,41.48C50.24,41.07,50.14,40.67,50.04,40.27L55.81,35.15L58.24,44.22Z" fill="currentColor"/><path d="M55.19,22.54L48.79,28.48C49.05,24.7,50.15,22.09,52,21.6C52.98,21.34,54.07,21.69,55.19,22.54Z" fill="currentColor"/><path d="M58.24,44.22L52.36,47.38C51.6,45.57,50.91,43.59,50.35,41.48C49.78,39.37,49.38,37.3,49.14,35.36L55.81,35.15Z" fill="currentColor"/><path d="M59.98,38.9C59.31,36.39,57.06,34.82,55.65,35.2C54.24,35.58,54.21,37.76,54.88,40.26C55.55,42.77,56.67,44.64,58.08,44.26C59.49,43.89,60.65,41.4,59.98,38.9Z" fill="currentColor"/><path d="M28.01,42C27.51,45.23,28.39,48.52,30.44,51.06L26.22,52.19C24.16,49.65,23.28,46.36,23.79,43.13Z" fill="currentColor" opacity="0.2"/><path d="M25.18,42.75C24.67,45.98,25.55,49.28,27.61,51.82L26.22,52.19C24.16,49.65,23.28,46.36,23.79,43.13Z" fill="currentColor"/><path d="M28.58,41.84C28.07,45.07,28.95,48.37,31.01,50.91L29.62,51.28C27.56,48.74,26.68,45.45,27.19,42.22Z" fill="currentColor"/><path d="M38.64,57.63L30.2,66.07L29.37,59.84L32.11,57.09C34.18,57.07,36.25,56.79,38.26,56.26L39.06,56.04L38.82,56.94C38.75,57.17,38.7,57.4,38.64,57.63Z" fill="currentColor"/><path d="M64.89,31.38L39.17,57.1C36.53,57,33.87,57.27,31.27,57.93L62.63,26.57C63.45,28.04,64.2,29.66,64.89,31.38Z" fill="currentColor"/><path d="M87,45C87,68.2,68.19,87,45,87C21.8,87,3,68.2,3,45C3,21.8,21.8,3,45,3C68.19,3,87,21.8,87,45Z" fill="currentColor"/><path d="M45,82C65.43,82,82,65.43,82,45C82,35.62,78.5,27.05,72.75,20.53L20.53,72.75C27.05,78.5,35.62,82,45,82Z" fill="currentColor"/><path d="M8,45C8,54.25,11.39,62.71,17.01,69.2L69.2,17.01C62.71,11.4,54.25,8,45,8C24.56,8,8,24.57,8,45Z" fill="currentColor"/><path d="M87,45C87,68.2,68.2,87,45,87C67.4,85.18,85.18,67.4,87,45Z" fill="currentColor"/><path d="M3,45C3,21.8,21.8,3,45,3C22.6,4.82,4.82,22.6,3,45Z" fill="currentColor"/></svg>