<svg xmlns="http://www.w3.org/2000/svg" viewBox="0 0 90 90"><path d="M65.11,5L23.69,5C22.57,5,21.5,5.46,20.73,6.26L0.66,27.07C-0.78,28.56,-0.89,30.89,0.4,32.51L41.19,83.47C42.85,85.53,45.98,85.53,47.63,83.47L88.4,32.51C89.7,30.89,89.59,28.56,88.15,27.07L68.08,6.26C67.3,5.46,66.23,5,65.11,5Z" fill="currentColor"/><path d="M65.11,5L23.69,5C22.58,5,21.5,5.45,20.73,6.26L20.73,6.26L0.66,27.07C-0.78,28.56,-0.89,30.89,0.4,32.51L41.19,83.47L41.2,83.47C42.27,84.81,43.98,85.28,45.49,84.87L65.61,36L89.31,30.02C89.33,28.96,88.94,27.89,88.15,27.07L88.15,27.07L68.08,6.26C67.3,5.46,66.23,5,65.11,5Z" fill="currentColor"/><path d="M68.08,6.26L88.15,27.07C88.95,27.89,89.33,28.97,89.31,30.04L86.56,30.78L79.07,21.53C71.88,12.63,61.31,7.12,49.89,6.32L31.04,5L65.11,5C66.23,5,67.3,5.46,68.08,6.26Z" fill="currentColor"/><path d="M65.61,36L23.21,36L43.34,84.87C42.53,84.65,41.77,84.19,41.2,83.47C41.2,83.47,41.2,83.47,41.19,83.47L0.4,32.51C0.4,32.51,0.4,32.51,0.4,32.51C-0.89,30.89,-0.78,28.56,0.66,27.07C0.66,27.07,0.66,27.07,0.66,27.07L20.73,6.26C20.73,6.26,20.73,6.26,20.73,6.26C21.51,5.45,22.58,5,23.69,5L30.9,5L57.91,5Z" fill="currentColor"/><path d="M52.77,6.28C54.86,6.44,56.64,7.86,57.28,9.85L65.61,36L57.91,5L36.18,5Z" fill="currentColor"/><path d="M0.03,31.96C0.14,32.15,0.26,32.33,0.41,32.51L41.19,83.47C41.95,84.41,43.01,84.92,44.11,85Z" fill="currentColor"/><path d="M23.21,36L-0.5,30.02C-0.52,28.96,-0.13,27.89,0.66,27.07L20.73,6.26C21.5,5.46,22.58,5,23.69,5L30.9,5Z" fill="currentColor"/><path d="M20.73,6.26L0.66,27.07C-0.14,27.89,-0.53,28.97,-0.5,30.04L2.25,30.78L14.31,15.33C18.47,10,24.4,6.33,31.04,5L23.69,5C22.58,5,21.5,5.46,20.73,6.26Z" fill="currentColor"/><path d="M44.41,84.91L2.25,30.71L-0.5,30.02C-0.48,30.9,-0.18,31.78,0.4,32.51L41.19,83.47C42.02,84.5,43.22,85.01,44.41,85.01Z" fill="currentColor"/><path d="M86.56,30.71L44.39,84.91L44.39,85.01C45.48,85.02,46.58,84.6,47.39,83.74L88.45,32.46C89,31.74,89.29,30.88,89.31,30.02Z" fill="currentColor"/></svg>