<svg xmlns="http://www.w3.org/2000/svg" viewBox="0 0 90 90"><path d="M90,45L90,41L0,41L0,45C0,55.83,5.1,65.63,13.32,72.7C11.11,77.69,7.1,81.64,3,85L3,89C12.63,89.4,22.51,86.85,30.35,81.89C34.94,83.26,39.87,84,45,84C69.85,84,90,66.54,90,45Z" fill="#749BBF"/><path d="M90,41C90,19.46,69.85,2,45,2C20.15,2,0,19.46,0,41C0,52.21,5.45,62.31,14.19,69.42C12.29,75.63,7.73,81.14,3,85C12.63,85.4,22.51,82.85,30.35,77.89C34.94,79.26,39.87,80,45,80C69.85,80,90,62.54,90,41Z" fill="#D0E6FB"/><path d="M64.5,74.78C61.47,76.53,58.34,77.93,55.18,79C75.13,75,90,59.5,90,41C90,36.99,89.3,33.12,88,29.48C91.05,46.09,82.02,64.66,64.5,74.78Z" fill="#FAFFFF"/><path d="M0,41C0,22.5,14.87,7,34.82,3C31.66,4.07,28.53,5.47,25.5,7.22C7.99,17.34,-1.05,35.9,2,52.52C0.7,48.88,0,45.01,0,41Z" fill="#FAFFFF"/><path d="M48.17,51.28C49.83,51.28,50.67,50.44,50.67,48.78C50.75,45.78,51.25,45.36,53.83,43.44C56,41.78,60.83,39.03,60.83,31.53C60.83,22.94,54.25,17.94,45.67,17.94C41.17,17.94,37.17,19.19,32.58,22.94C31.33,24.03,31.25,25.28,32.25,26.61L35.92,31.53C36.92,32.78,38.25,32.86,39.75,31.69C42.17,30.03,44.33,29.19,46,29.19C48.25,29.19,49.58,30.44,49.58,32.03C49.58,33.53,48.5,34.61,45.17,37.03C39.92,40.78,39.5,40.78,39.42,48.78C39.42,50.44,40.25,51.28,41.92,51.28Z" fill="#AED0F0"/><path d="M50.75,63.19C50.75,57.36,50.75,57.44,45,57.44C39.33,57.44,39.33,57.44,39.33,63.11C39.33,68.94,39.33,68.86,45,68.86C50.75,68.86,50.75,68.86,50.75,63.19Z" fill="#AED0F0"/><path d="M48.17,47.72C49.83,47.72,50.67,46.89,50.67,45.22C50.75,42.22,51.25,41.81,53.83,39.89C56,38.22,60.83,35.47,60.83,27.97C60.83,19.39,54.25,14.39,45.67,14.39C41.17,14.39,37.17,15.64,32.58,19.39C31.33,20.47,31.25,21.72,32.25,23.06L35.92,27.97C36.92,29.22,38.25,29.31,39.75,28.14C42.17,26.47,44.33,25.64,46,25.64C48.25,25.64,49.58,26.89,49.58,28.47C49.58,29.97,48.5,31.06,45.17,33.47C39.92,37.22,39.5,37.22,39.42,45.22C39.42,46.89,40.25,47.72,41.92,47.72Z" fill="#486688"/><path d="M50.75,59.64C50.75,53.81,50.75,53.89,45,53.89C39.33,53.89,39.33,53.89,39.33,59.56C39.33,65.39,39.33,65.31,45,65.31C50.75,65.31,50.75,65.31,50.75,59.64Z" fill="#486688"/></svg>