<svg xmlns="http://www.w3.org/2000/svg" viewBox="0 0 90 90"><path d="M16,53.78C16,56.34,17.07,58.78,18.95,60.51L19.34,60.88C34.03,74.44,56.73,74.26,71.2,60.46C72.99,58.76,74,56.4,74,53.93L74,35.05L69.77,1.21C69.69,0.52,69.1,0,68.41,0C67.87,0,67.38,0.32,67.15,0.81L45.47,48.92L23.79,0.82C23.56,0.32,23.06,0,22.51,0C21.82,0,21.23,0.51,21.13,1.19L16,35.78Z" fill="currentColor"/><path d="M45.47,48.92L33.42,22.19L27.45,37.49L18.08,21.73L16,35.78L16,53.78C16,56.34,17.07,58.78,18.95,60.51L19.34,60.88C34.03,74.44,56.73,74.26,71.2,60.46C72.99,58.76,74,56.4,74,53.93L74,35.05L72.26,21.14L62.55,37.49L57.01,23.3Z" fill="currentColor"/><path d="M27.45,47.49L5.35,10.29C5.13,9.93,4.74,9.71,4.31,9.71C3.61,9.71,3.05,10.31,3.12,11.01L8.61,72.36C8.82,74.72,10.08,76.87,12.2,77.94C17.38,80.55,28.63,85,45,85C61.37,85,72.62,80.55,77.8,77.94C79.92,76.87,81.18,74.72,81.39,72.36L86.88,11.01C86.95,10.31,86.39,9.71,85.69,9.71C85.26,9.71,84.87,9.93,84.65,10.29L62.55,47.49L46.33,5.91C46.12,5.36,45.59,5,45,5C44.41,5,43.88,5.36,43.67,5.91Z" fill="currentColor"/><path d="M71.5,80.62C65.39,82.82,56.45,85,45,85C33.55,85,24.61,82.82,18.5,80.62L12.52,22.36L27.45,47.49L43.67,5.91C43.88,5.36,44.41,5,45,5C45.59,5,46.12,5.36,46.33,5.91L62.55,47.49L77.48,22.36Z" fill="currentColor"/><path d="M9.43,62.78C18.11,67.1,30.08,71,45,71C60.45,71,72.73,66.82,81.48,62.32C81.91,60.8,82.37,59.36,82.52,57.78C73.71,62.48,61.07,67,45,67C28.93,67,16.29,62.48,7.48,57.78C7.66,59.65,8.62,61.14,9.43,62.78Z" fill="currentColor" opacity="0.9"/><path d="M12.2,77.94C13.4,78.54,14.93,79.25,16.78,79.97C24.47,82.85,33.92,85,45,85C56.09,85,65.55,82.85,73.24,79.97C75.08,79.24,76.6,78.54,77.8,77.94C79.92,76.87,81.17,74.73,81.39,72.37C72.64,76.85,60.39,81,45,81C29.61,81,17.36,76.85,8.61,72.37C8.83,74.73,10.08,76.87,12.2,77.94Z" fill="currentColor" opacity="0.9"/></svg>