<svg xmlns="http://www.w3.org/2000/svg" viewBox="0 0 90 90"><path d="M30.58,61L32,61L31.2,62.37C27.2,69.23,25.8,77.29,27.27,85.09C27.65,87.12,26.09,89,24.02,89L19.25,89C14.88,89,11.5,85.15,12.06,80.81L15,58C19.95,59.98,25.24,61,30.58,61Z" fill="currentColor"/><path d="M24.98,60.72L27,62C23.96,67.86,22.77,74.51,23.59,81.06L23.8,82.73C24.08,85,22.31,87,20.03,87L18.58,87C15.59,87,13.25,84.42,13.53,81.44L15.67,59C18.88,58.36,22.21,58.97,24.98,60.72Z" fill="currentColor"/><path d="M30.58,61L32,61L31.2,62.37C30.14,64.2,29.26,66.1,28.57,68.07L27.51,67.01C23.94,63.44,18.73,62.41,14.22,64L15,58C19.95,59.98,25.24,61,30.58,61Z" fill="currentColor"/><path d="M68,2C63.54,2,59.2,3.51,55.7,6.28L47.11,13.08C38.73,19.72,28.34,23.33,17.64,23.33L15.28,23.33C13.32,23.33,11.45,24.14,10.1,25.55C1.33,34.76,1.33,49.24,10.1,58.45C11.45,59.86,13.32,60.67,15.28,60.67L17.64,60.67C28.34,60.67,38.73,64.28,47.11,70.92L55.7,77.72C59.2,80.49,63.54,82,68,82Z" fill="currentColor"/><path d="M68,6C63.49,6,59.09,7.4,55.41,10.01L47.49,15.62C38.69,21.85,28.17,25.2,17.38,25.2L14.35,25.2C12.76,25.2,11.24,25.8,10.09,26.89C1.37,35.08,1.37,48.92,10.09,57.11C11.24,58.2,12.76,58.8,14.35,58.8L17.38,58.8C28.17,58.8,38.69,62.15,47.49,68.38L55.41,73.99C59.09,76.6,63.49,78,68,78Z" fill="currentColor"/><path d="M86,42C86,19.91,77.94,2,68,2C58.06,2,50,19.91,50,42C50,64.09,58.06,82,68,82C77.94,82,86,64.09,86,42Z" fill="currentColor"/><path d="M52,42C52,58.72,56.19,73.15,62.25,79.91C55.13,74.58,50,59.62,50,42C50,24.38,55.13,9.42,62.25,4.09C56.19,10.85,52,25.28,52,42Z" fill="currentColor"/><path d="M80,42C80,24.33,74.85,10,68.5,10C62.15,10,57,24.33,57,42C57,59.67,62.15,74,68.5,74C74.85,74,80,59.67,80,42Z" fill="currentColor"/><path d="M59.27,61.11C57.84,55.78,57,49.16,57,42C57,41.29,57.01,40.58,57.03,39.88L68.8,34L68.8,50Z" fill="currentColor"/><path d="M73.33,12.95L60.18,19.91C62.27,13.81,65.23,10,68.5,10C70.23,10,71.86,11.06,73.33,12.95Z" fill="currentColor"/><path d="M68.8,50L57.72,52.61C57.25,49.3,57,45.73,57,42C57,38.27,57.25,34.7,57.72,31.39L68.8,34Z" fill="currentColor"/><path d="M74,42C74,37.58,70.99,34,68.5,34C66.01,34,65,37.58,65,42C65,46.42,66.01,50,68.5,50C70.99,50,74,46.42,74,42Z" fill="currentColor"/><path d="M20,33C17.74,38.09,17.74,43.91,20,49L12.55,49C10.29,43.91,10.29,38.09,12.55,33Z" fill="currentColor" opacity="0.2"/><path d="M15,33C12.74,38.09,12.74,43.91,15,49L12.55,49C10.29,43.91,10.29,38.09,12.55,33Z" fill="currentColor"/><path d="M21,33C18.74,38.09,18.74,43.91,21,49L18.55,49C16.29,43.91,16.29,38.09,18.55,33Z" fill="currentColor"/></svg>