<svg xmlns="http://www.w3.org/2000/svg" viewBox="0 0 90 90"><path d="M2.67,89.5L2.67,85.5C7.08,81.44,11.37,76.49,12.87,69.9L27.7,81.85C20.63,87.17,11.53,89.92,2.67,89.5Z" fill="#CF8D1B"/><path d="M88,44.5C88,20.75,68.75,1.5,45,1.5C21.25,1.5,2,20.75,2,44.5C2,68.25,21.25,87.5,45,87.5C68.75,87.5,88,68.25,88,44.5Z" fill="#F7C631"/><path d="M88,44.5C88,68.25,68.75,87.5,45,87.5C35.3,87.5,26.35,84.29,19.16,78.87C23.78,80.57,28.78,81.5,34,81.5C57.75,81.5,77,62.25,77,38.5C77,24.45,70.26,11.98,59.84,4.13C76.28,10.18,88,25.97,88,44.5Z" fill="#CF8D1B" opacity="0.5"/><path d="M88,44.5C88,68.25,68.75,87.5,45,87.5C44.5,87.5,44,87.49,43.5,87.47C66.55,86.68,85,67.75,85,44.5C85,21.25,66.55,2.32,43.5,1.53C44,1.51,44.5,1.5,45,1.5C68.75,1.5,88,20.75,88,44.5Z" fill="#FAD541"/><path d="M2.31,39.34C4.77,18.81,21.69,2.72,42.59,1.57C23.37,6.47,8.3,20.88,2.31,39.34Z" fill="#FFFFC7"/><path d="M37.07,34.51C36.77,37.94,33.5,34.2,29.1,33.82C24.71,33.43,20.83,36.54,21.13,33.12C21.43,29.7,25.25,27.24,29.64,27.63C34.04,28.01,37.37,31.09,37.07,34.51Z" fill="#312E2B"/><path d="M53.55,34.47C53.25,31.04,56.58,27.96,60.98,27.58C65.37,27.19,69.19,29.65,69.49,33.07C69.79,36.5,65.92,33.39,61.52,33.77C57.12,34.15,53.85,37.89,53.55,34.47Z" fill="#312E2B"/><path d="M16.21,50.68C17.6,64.03,27.51,75.06,44.97,75.06C62.41,75.06,72.34,63.99,73.78,50.69C73.97,48.9,72.5,47.43,70.7,47.43L19.29,47.43C17.5,47.43,16.02,48.89,16.21,50.68Z" fill="#FCE26A"/><path d="M15.35,50.98C21.71,79.62,68.15,79.53,74.63,50.99C75.06,49.11,73.54,47.43,71.62,47.43L18.37,47.43C16.45,47.43,14.94,49.1,15.35,50.98Z" fill="#312E2B"/><path d="M33.6,58.16L56.4,58.16C63.93,58.16,68.05,55.95,68.05,50.43L21.95,50.43C21.95,55.95,26.07,58.16,33.6,58.16Z" fill="#F8F8F8"/><path d="M15.65,58.73C12.99,61.39,8.67,61.39,6,58.73C3.33,56.06,3.33,51.74,6,49.07C8.67,46.4,19.97,44.76,19.97,44.76C19.96,44.83,18.31,56.07,15.65,58.73Z" fill="#CF8D1B"/><path d="M2.38,53.38C-0.79,50.2,-0.79,45.07,2.38,41.89C5.56,38.72,19,36.76,19,36.76C19,36.76,17.04,50.2,13.87,53.38C10.69,56.55,5.56,56.55,2.38,53.38Z" fill="#009FD9"/><path d="M18.73,38.4C13.71,40.3,8.38,42.6,6.65,44.32C3.7,47.28,3.21,51.76,5.2,55.21C4.17,54.82,3.21,54.21,2.38,53.38C-0.79,50.2,-0.79,45.07,2.38,41.89C5.56,38.72,19,36.76,19,36.76C19,36.76,18.91,37.39,18.73,38.4Z" fill="#4DC3EA"/><path d="M13.87,53.38C11.54,55.71,8.15,56.32,5.26,55.23C5.26,55.23,5.25,55.23,5.25,55.23L6.52,54.96C10.13,54.22,13.2,51.84,14.81,48.52L18.08,41.79C17.21,45.96,15.76,51.49,13.87,53.38Z" fill="#83DEFC"/><path d="M74.35,58.73C77.02,61.39,81.33,61.39,84,58.73C86.67,56.06,86.67,51.74,84,49.07C81.33,46.4,70.03,44.76,70.03,44.76C70.04,44.83,71.69,56.07,74.35,58.73Z" fill="#CF8D1B"/><path d="M87.62,53.38C90.79,50.2,90.79,45.07,87.62,41.89C84.44,38.72,71,36.76,71,36.76C71,36.76,72.96,50.2,76.13,53.38C79.31,56.55,84.44,56.55,87.62,53.38Z" fill="#009FD9"/><path d="M71.27,38.4C76.29,40.3,81.62,42.6,83.35,44.32C86.3,47.28,86.79,51.76,84.8,55.21C85.83,54.82,86.79,54.21,87.62,53.38C90.79,50.2,90.79,45.07,87.62,41.89C84.44,38.72,71,36.76,71,36.76C71,36.76,71.09,37.39,71.27,38.4Z" fill="#4DC3EA"/><path d="M76.13,53.38C78.46,55.71,81.85,56.32,84.74,55.23C84.74,55.23,84.75,55.23,84.75,55.23L83.48,54.96C79.87,54.22,76.8,51.84,75.19,48.52L71.92,41.79C72.79,45.96,74.24,51.49,76.13,53.38Z" fill="#83DEFC"/><path d="M12.87,68.9L27.7,77.85C20.63,83.17,11.53,85.92,2.67,85.5C7.1,81.43,11.37,75.52,12.87,68.9Z" fill="#F7C631"/></svg>