<svg xmlns="http://www.w3.org/2000/svg" viewBox="0 0 90 90"><path d="M40,31C43.6,30.97,62.39,31,62.39,31C70.26,26.78,73.05,20,73,15C72.94,9.04,68.38,4,61,4C45.58,4,40,20.77,40,31Z" fill="currentColor"/><path d="M50,28.55C65.66,23,67.19,12.38,60.29,12.38C53.39,12.38,50,19.81,50,28.55Z" fill="currentColor"/><path d="M62.39,31C62.46,30.96,62.54,30.92,62.61,30.88L62.01,30.81C58.93,30.44,56.53,28.65,55.2,26.28C53.68,27.09,51.95,27.86,50,28.55C50,26.96,50.11,25.42,50.34,23.95C49.5,26.18,49.14,28.57,49.29,30.99C55.52,30.99,62.39,31,62.39,31Z" fill="currentColor"/><path d="M61,4C68.38,4,72.94,9.04,73,15C73.03,18.2,71.9,22.13,69.03,25.64C73.07,17.35,70.74,8,63.55,8C57.52,8,53.71,12.91,51.72,18.87C50.57,21.59,50,24.96,50,28.55C50.01,28.55,50.01,28.55,50.02,28.55C50.01,28.94,50,29.34,50,29.73L50,30.99C45.67,30.98,41.51,30.99,40,31C40,20.77,45.58,4,61,4Z" fill="currentColor"/><path d="M50,31C46.4,30.97,27.61,31,27.61,31C19.74,26.78,16.95,20,17,15C17.06,9.04,21.62,4,29,4C44.42,4,50,20.77,50,31Z" fill="currentColor"/><path d="M40,28.55C24.34,23,22.81,12.38,29.71,12.38C36.61,12.38,40,19.81,40,28.55Z" fill="currentColor"/><path d="M27.61,31C27.54,30.96,27.46,30.92,27.39,30.88L27.99,30.81C31.07,30.44,33.47,28.65,34.8,26.28C36.32,27.09,38.05,27.86,40,28.55C40,26.96,39.89,25.42,39.66,23.95C40.5,26.18,40.86,28.57,40.71,30.99C34.48,30.99,27.61,31,27.61,31Z" fill="currentColor"/><path d="M29,4C21.62,4,17.06,9.04,17,15C16.97,18.2,18.1,22.13,20.97,25.64C16.93,17.35,19.25,8,26.45,8C32.48,8,36.29,12.91,38.28,18.87C39.43,21.59,40,24.96,40,28.55C39.99,28.55,39.98,28.55,39.98,28.55C39.99,28.94,40,29.34,40,29.73L40,30.99C44.33,30.98,48.49,30.99,50,31C50,20.77,44.42,4,29,4Z" fill="currentColor"/><path d="M80,45L80,77C80,81.42,76.42,85,72,85L18,85C13.58,85,10,81.42,10,77L10,45Z" fill="currentColor"/><path d="M10,53L11.46,75.83C11.72,79.91,15.02,83.13,19.1,83.31L58,85L18,85C13.58,85,10,81.42,10,77Z" fill="currentColor"/><path d="M80,72L79.17,77.09C78.59,80.59,75.78,83.3,72.25,83.73L62,85L72,85C76.42,85,80,81.42,80,77Z" fill="currentColor"/><path d="M80,45L80,49L10,49L10,45Z" fill="currentColor"/><path d="M9,30L81,30C83.21,30,85,31.79,85,34L85,41C85,43.21,83.21,45,81,45L9,45C6.79,45,5,43.21,5,41L5,34C5,31.79,6.79,30,9,30Z" fill="currentColor"/><path d="M5,41L6.33,35.02C6.72,33.24,8.27,31.96,10.1,31.89L65,30L80.16,31.68C81.86,31.87,83.25,33.12,83.62,34.79L85,41L85,34C85,31.79,83.21,30,81,30L65,30L9,30C6.79,30,5,31.79,5,34Z" fill="currentColor" opacity="0.5"/><path d="M53,45L51,30L49,30L49,45Z" fill="currentColor"/><path d="M54,45L52,85L42,85L44,45Z" fill="currentColor"/><path d="M50,30L50,85L40,85L40,30Z" fill="currentColor"/><path d="M50,30L50,32L40,32L40,30Z" fill="currentColor"/></svg>