<svg xmlns="http://www.w3.org/2000/svg" viewBox="0 0 90 90"><path d="M10,22L10,81C10,83.21,11.79,85,14,85L76,85C78.21,85,80,83.21,80,81L80,22C80,19.79,78.21,18,76,18L14,18C11.79,18,10,19.79,10,22Z" fill="currentColor"/><path d="M42,70L42,75L44,79L75,79L72,70Z" fill="currentColor"/><path d="M36,47L20,47C18.9,47,18,47.9,18,49L18,85L38,85L38,49C38,47.9,37.1,47,36,47Z" fill="currentColor"/><path d="M70,47L44,47C42.9,47,42,47.9,42,49L42,70L72,70L72,49C72,47.9,71.1,47,70,47Z" fill="currentColor"/><path d="M38,85L38,49C38,48.33,37.67,47.74,37.16,47.37L20,85Z" fill="currentColor" opacity="0.5"/><path d="M42,49L42,70L61.51,70L71.62,47.83C71.26,47.33,70.67,47,70,47L44,47C42.9,47,42,47.9,42,49Z" fill="currentColor" opacity="0.5"/><path d="M42,70L42,74L72,74L72,70Z" fill="currentColor"/><path d="M20,47L36,47C37.1,47,38,47.9,38,49L38,83L36.12,52.88C36.05,51.82,35.18,51,34.12,51L21.88,51C20.82,51,19.95,51.82,19.88,52.88L18,83L18,49C18,47.9,18.9,47,20,47Z" fill="currentColor"/><path d="M70,47L44,47C42.9,47,42,47.9,42,49L42,70L43.81,52.79C43.92,51.77,44.78,51,45.8,51L68.2,51C69.22,51,70.08,51.77,70.19,52.79L72,70L72,49C72,47.9,71.1,47,70,47Z" fill="currentColor"/><path d="M10,20.18L80,20.18L80,44.99C77.62,45.43,75.1,44.93,73,43.5L67.5,39.73C61.13,45.55,51.37,45.55,45,39.73C38.63,45.55,28.87,45.55,22.5,39.73L17,43.5C14.9,44.93,12.38,45.43,10,44.99Z" fill="currentColor"/><path d="M23,34L26,5L15.11,5C12.29,5,9.77,6.79,8.85,9.47L2.48,27.94C1.21,31.62,2.24,35.71,5.1,38.35C9.26,42.19,15.75,41.92,19.58,37.74Z" fill="currentColor"/><path d="M67,34L64,5L45,5L45,34L45.46,34.6C51,41.73,61.87,41.42,67,34Z" fill="currentColor"/><path d="M67,34L64,5L74.89,5C77.71,5,80.23,6.79,81.15,9.47L87.52,27.94C88.79,31.62,87.76,35.71,84.9,38.35C80.74,42.19,74.25,41.92,70.42,37.74Z" fill="currentColor"/><path d="M23,34L26,5L45,5L45,34L44.54,34.6C39,41.73,28.13,41.42,23,34Z" fill="currentColor"/><path d="M15.17,7C13.12,7,11.28,8.25,10.52,10.15L1.95,31.6C1.9,30.38,2.07,29.14,2.48,27.94L8.85,9.47C9.77,6.79,12.29,5,15.11,5L26,5L25.79,7Z" fill="currentColor"/><path d="M45,7L45,5L64,5L64.21,7Z" fill="currentColor"/><path d="M26,5L45,5L45,7L25.79,7Z" fill="currentColor"/><path d="M64,5L74.89,5C77.71,5,80.23,6.79,81.15,9.47L87.52,27.94C87.93,29.14,88.1,30.38,88.05,31.6L79.48,10.15C78.72,8.25,76.88,7,74.83,7L64.21,7Z" fill="currentColor"/></svg>