<svg xmlns="http://www.w3.org/2000/svg" viewBox="0 0 90 90"><path d="M90,45L90,41L0,41L0,45C0,55.83,5.1,65.63,13.32,72.7C11.11,77.69,7.1,81.64,3,85L3,89C12.63,89.4,22.51,86.85,30.35,81.89C34.94,83.26,39.87,84,45,84C69.85,84,90,66.54,90,45Z" fill="currentColor"/><path d="M90,41C90,19.46,69.85,2,45,2C20.15,2,0,19.46,0,41C0,52.21,5.45,62.31,14.19,69.42C12.29,75.63,7.73,81.14,3,85C12.63,85.4,22.51,82.85,30.35,77.89C34.94,79.26,39.87,80,45,80C69.85,80,90,62.54,90,41Z" fill="currentColor"/><path d="M64.5,74.78C61.47,76.53,58.34,77.93,55.18,79C75.13,75,90,59.5,90,41C90,36.99,89.3,33.12,88,29.48C91.05,46.09,82.02,64.66,64.5,74.78Z" fill="currentColor"/><path d="M0,41C0,22.5,14.87,7,34.82,3C31.66,4.07,28.53,5.47,25.5,7.22C7.99,17.34,-1.05,35.9,2,52.52C0.7,48.88,0,45.01,0,41Z" fill="currentColor"/></svg>