<svg xmlns="http://www.w3.org/2000/svg" viewBox="0 0 90 90"><path d="M59,84.97C61.78,84.97,64.47,84.67,67.04,84.09C72.94,87.85,80.36,90.28,87.6,89.97L87.6,86C84.75,83.67,81.96,81.17,80.23,77.92C85.97,73.39,89.66,67.04,89.98,59.97L90,59.97L90,58.97L90,55.97L89.8,55.97C88.02,43.03,74.91,32.97,59,32.97C43.09,32.97,29.98,43.03,28.2,55.97L28,55.97L28,58.97L28,59.97L28.02,59.97C28.65,73.87,42.28,84.97,59,84.97Z" fill="currentColor"/><path d="M28,54.97C28,40.61,41.88,28.97,59,28.97C76.12,28.97,90,40.61,90,54.97C90,62.77,85.91,69.76,79.44,74.52C81.01,78.95,84.25,83.24,87.6,85.97C80.36,86.28,72.94,83.85,67.04,80.09C64.47,80.67,61.78,80.97,59,80.97C41.88,80.97,28,69.33,28,54.97Z" fill="currentColor"/><path d="M28,54.97C28,40.61,41.88,28.97,59,28.97C76.12,28.97,90,40.61,90,54.97C90,55.33,89.99,55.69,89.97,56.04C87.99,48.11,82.35,40.52,73.93,35.65C59.1,27.09,41.26,30.23,34.08,42.67C27.78,53.58,31.79,68.03,42.88,77.19C33.96,72.62,28,64.38,28,54.97Z" fill="currentColor"/><path d="M75,36.47C75,35.16,74.93,33.87,74.79,32.59C70.16,30.29,64.77,28.97,59,28.97C41.88,28.97,28,40.61,28,54.97C28,62.43,31.74,69.15,37.73,73.89C58.55,72.57,75,56.32,75,36.47Z" fill="currentColor"/><path d="M36,66C32.05,66,28.25,65.45,24.69,64.44C18.36,68.59,10.28,70.73,2.4,70.4L2.4,66.4L2.41,66.4C5.74,63.67,9,61,10.75,57.1C4.11,51.47,0,43.65,0,35L0,31L0.3,31C2.58,15.77,17.69,4,36,4C54.31,4,69.42,15.77,71.7,31L72,31L72,35C72,52.12,55.88,66,36,66Z" fill="currentColor"/><path d="M72,31C72,13.88,55.88,0,36,0C16.12,0,0,13.88,0,31C0,39.94,4.4,48,11.43,53.66C9.97,58.73,6.26,63.26,2.4,66.4C10.28,66.73,18.36,64.59,24.69,60.44C28.25,61.45,32.05,62,36,62C55.88,62,72,48.12,72,31Z" fill="currentColor"/><path d="M51.6,58.22C50.06,59.11,48.49,59.88,46.91,60.55C61.46,56.57,72,44.85,72,31C72,27.75,71.42,24.63,70.35,21.69C72.95,35.06,65.72,50.07,51.6,58.22Z" fill="currentColor"/><path d="M0,31C0,16.28,11.91,3.96,27.89,0.79C25.35,1.65,22.84,2.77,20.4,4.18C6.57,12.17,-0.65,26.75,1.51,39.91C0.53,37.09,0,34.1,0,31Z" fill="currentColor"/></svg>