<svg xmlns="http://www.w3.org/2000/svg" viewBox="0 0 90 90"><path d="M3.67,26.64L40.67,2.79C43.31,1.09,46.69,1.09,49.33,2.79L86.33,26.64C88.62,28.11,90,30.64,90,33.36L90,78C90,82.42,86.42,86,82,86L8,86C3.58,86,0,82.42,0,78L0,33.36C0,30.64,1.38,28.11,3.67,26.64Z" fill="currentColor"/><path d="M14,11C11.79,11,10,12.79,10,15L10,77C10,79.21,11.79,81,14,81L76,81C78.21,81,80,79.21,80,77L80,15C80,12.79,78.21,11,76,11Z" fill="currentColor"/><path d="M10,15C10,12.79,11.79,11,14,11L60,11L15.43,12.11C13.46,12.16,11.81,13.64,11.61,15.61C10.49,26.46,10,41,10,41Z" fill="currentColor"/><path d="M45,58L80,32L80,70L10,70L10,32Z" fill="currentColor"/><path d="M8,65C3.58,65,0,68.58,0,73L0,82C0,86.42,3.58,90,8,90L82,90C86.42,90,90,86.42,90,82L90,73C90,68.58,86.42,65,82,65Z" fill="currentColor"/><path d="M3.23,31.51L40.09,60.18C42.98,62.43,47.02,62.43,49.91,60.18L86.77,31.51C88.09,30.49,90,31.43,90,33.09L90,78C90,82.42,86.42,86,82,86L8,86C3.58,86,0,82.42,0,78L0,33.09C0,31.43,1.91,30.49,3.23,31.51Z" fill="currentColor"/><path d="M82,86C83.99,86,85.81,85.28,87.21,84.08L51.13,59.23L49.91,60.18C47.02,62.43,42.98,62.43,40.09,60.18L38.86,59.23L2.79,84.07C4.19,85.28,6.01,86,8,86Z" fill="currentColor"/><path d="M0,33.1C0,31.43,1.92,30.5,3.23,31.52L50,68L4.74,34.25C3.52,33.33,1.77,34.08,1.6,35.6C0.49,46.12,0,59,0,59Z" fill="currentColor"/><path d="M90,33.1C90,31.43,88.08,30.5,86.77,31.52L40,68L85.26,34.25C86.48,33.33,88.23,34.08,88.4,35.6C89.51,46.12,90,59,90,59Z" fill="currentColor"/><path d="M90,78C90,82.42,86.42,86,82,86L27,86L78.66,84.12C83.7,83.94,87.83,80.03,88.12,74.99C89,59.68,88.51,47.89,90,31Z" fill="currentColor"/></svg>