<svg xmlns="http://www.w3.org/2000/svg" viewBox="0 0 90 90"><path d="M73,5L62.5,5L62.5,74.74L73,74.74C76.87,74.74,80,71.61,80,67.74L80,12C80,8.13,76.87,5,73,5Z" fill="currentColor"/><path d="M27.5,5L27.5,74.74L45,74.74L45,5Z" fill="currentColor"/><path d="M17,5L27.5,5L27.5,74.74L17,74.74C13.13,74.74,10,71.61,10,67.74L10,12C10,8.13,13.13,5,17,5Z" fill="currentColor"/><path d="M62.5,5L62.5,74.74L45,74.74L45,5Z" fill="currentColor"/><path d="M17,7.99L73,7.99C76.87,7.99,80,11.12,80,14.99L80,44.24L10,44.24L10,14.99C10,11.12,13.13,7.99,17,7.99Z" fill="currentColor"/><path d="M10,14.99L10,24.55L27.5,24.55L27.5,41.12L45,41.12L45,24.55L27.5,24.55L27.5,7.99L17,7.99C13.13,7.99,10,11.12,10,14.99Z" fill="currentColor"/><path d="M62.5,7.99L62.5,24.55L45,24.55L45,7.99Z" fill="currentColor"/><path d="M80,41.12L80,24.55L62.5,24.55L62.5,41.12Z" fill="currentColor"/><path d="M45,7.99L45,24.55L62.5,24.55L62.5,41.12L45,41.12L45,24.55L27.5,24.55L27.5,7.99Z" fill="currentColor"/><path d="M10,41.12L10,24.55L27.5,24.55L27.5,41.12Z" fill="currentColor"/><path d="M73,7.99L62.5,7.99L62.5,24.55L80,24.55L80,14.99C80,11.12,76.87,7.99,73,7.99Z" fill="currentColor"/><path d="M27.5,42L27.5,36L10,36L10,42Z" fill="currentColor"/><path d="M27.5,42L27.5,36L45,36L45,42Z" fill="currentColor"/><path d="M62.5,42L62.5,36L45,36L45,42Z" fill="currentColor"/><path d="M62.5,42L62.5,36L80,36L80,42Z" fill="currentColor"/><path d="M12,43L78,43L88,37L85.59,75.62C85.26,80.89,80.89,85,75.61,85L14.39,85C9.11,85,4.74,80.89,4.41,75.62L2,37Z" fill="currentColor"/><path d="M78.61,42.8C71.47,64.92,50.88,79.91,27.64,79.91L17,79.91C11.29,79.91,6.33,76.48,4.16,71.5L2.01,37.23L11.13,42.8L11.67,42.8L12,43L78,43L78.33,42.8Z" fill="currentColor"/><path d="M3.65,41.28L5.3,78.91L3.56,61.95L2.05,37.84C3.01,38.73,3.59,39.96,3.65,41.28Z" fill="currentColor"/><path d="M87.83,39.76C87.66,40.16,87.55,40.58,87.49,41.02L82.8,76.66C82.27,80.7,79.36,83.95,75.54,85L75.61,85C80.11,85,83.95,82.01,85.19,77.86L85.7,73.75Z" fill="currentColor"/><path d="M28.5,60.33C29.8,67.8,36.29,73.26,43.88,73.26L45.09,73.26C52.89,73.26,59.67,67.91,61.5,60.33L61.5,64.97C61.5,74.08,54.11,81.47,45,81.47C35.89,81.47,28.5,74.08,28.5,64.97Z" fill="currentColor"/><path d="M31,57C33.21,57,35,55.21,35,53C35,50.79,33.21,49,31,49C28.79,49,27,50.79,27,53C27,55.21,28.79,57,31,57Z" fill="currentColor"/><path d="M59,57C61.21,57,63,55.21,63,53C63,50.79,61.21,49,59,49C56.79,49,55,50.79,55,53C55,55.21,56.79,57,59,57Z" fill="currentColor"/><path d="M33.5,53L33.5,61C33.5,67.35,38.65,72.5,45,72.5C51.35,72.5,56.5,67.35,56.5,61L56.5,53C56.5,51.62,57.62,50.5,59,50.5C60.38,50.5,61.5,51.62,61.5,53L61.5,61C61.5,70.11,54.11,77.5,45,77.5C35.89,77.5,28.5,70.11,28.5,61L28.5,53C28.5,51.62,29.62,50.5,31,50.5C32.38,50.5,33.5,51.62,33.5,53Z" fill="currentColor"/><path d="M10,43L80,43C84.87,43,88,40.87,88,37C88,33.13,84.87,31,80,31L80,40L10,40L10,31C5.13,31,2,33.13,2,37C2,40.87,5.13,43,10,43Z" fill="currentColor"/><path d="M10,40L10,33C7.23,33,4.96,34.02,4.96,36.32C4.96,39.21,7.23,40,10,40Z" fill="currentColor"/><path d="M79.96,40L79.96,33C82.73,33,85,34.02,85,36.32C85,39.21,82.73,40,79.96,40Z" fill="currentColor"/></svg>