<svg xmlns="http://www.w3.org/2000/svg" viewBox="0 0 90 90"><path d="M69.44,31.16C69.44,17.97,58.5,7.27,45,7.27C31.5,7.27,20.56,17.97,20.56,31.16C20.56,44.35,31.5,55.05,45,55.05C58.5,55.05,69.44,44.35,69.44,31.16Z" fill="currentColor"/><path d="M69.44,29.49C69.44,15.99,58.5,5.05,45,5.05C31.5,5.05,20.56,15.99,20.56,29.49C20.56,42.99,31.5,53.94,45,53.94C58.5,53.94,69.44,42.99,69.44,29.49Z" fill="currentColor"/><path d="M69.44,29.49C69.44,15.99,58.5,5.05,45,5.05C31.5,5.05,20.56,15.99,20.56,29.49C20.56,42.99,31.5,53.94,45,53.94C58.5,53.94,69.44,42.99,69.44,29.49Z" fill="currentColor"/><path d="M42.56,9.51C42.56,22.74,34.44,34.36,22.53,39.14C21.26,36.18,20.56,32.92,20.56,29.49C20.56,16.82,30.2,6.39,42.56,5.17Z" fill="currentColor"/><path d="M65,29.49C65,18.45,56.05,9.49,45,9.49C33.95,9.49,25,18.45,25,29.49C25,40.54,33.95,49.49,45,49.49C56.05,49.49,65,40.54,65,29.49Z" fill="currentColor"/><path d="M62.41,29.49C62.41,19.88,54.61,12.08,45,12.08C35.39,12.08,27.59,19.88,27.59,29.49C27.59,39.11,35.39,46.9,45,46.9C54.61,46.9,62.41,39.11,62.41,29.49Z" fill="currentColor"/><path d="M27.59,29.49C27.59,31.71,28.01,33.84,28.77,35.79C36.45,30.48,41.6,21.92,42.44,12.27C34.04,13.51,27.59,20.75,27.59,29.49Z" fill="currentColor"/><path d="M20.73,26.56C22.12,14.89,31.74,5.74,43.63,5.09C32.7,7.87,24.13,16.07,20.73,26.56Z" fill="currentColor"/><path d="M68.73,35.39C66.43,44.69,58.8,51.89,49.27,53.57C58.13,50.54,65.17,43.86,68.73,35.39Z" fill="currentColor"/><path d="M35.08,45.95L35.09,45.94L35.33,47.09C35.64,48.24,36.32,49.96,37.72,50.83C38.42,51.28,40.82,52.95,43.48,55C43.98,55.03,44.49,55.05,45,55.05C51.31,55.05,57.06,52.71,61.4,48.87L46.77,41.79C44.7,40.82,42.78,40.15,40.45,40.15C35.08,40.17,35.06,45.38,35.08,45.95Z" fill="currentColor"/><path d="M44.63,33.63L58.56,41.12L83,50.72C91.98,54.89,92.34,79.47,83.98,81.11C70.58,83.71,54.83,84.86,40.91,85C38.94,85.02,36.99,84.77,35.15,84.11C26.8,81.1,13.24,73.88,8.86,68.44C6.04,64.95,2.13,54.57,1.06,49.69C0.8,48.51,1.45,47.36,2.58,46.94C13.71,42.87,18.02,58.56,18.35,60.64C23.39,61.62,28.27,63.25,32.89,65.48L33.53,65.79C38.18,64.65,43.03,64.63,47.68,65.74L47.97,65.81L53.31,61.48C54.36,60.63,54.39,59.05,53.38,58.15L46.28,51.88L37.28,45.37C34.07,43.06,33.44,38.53,35.9,35.43C37.99,32.79,41.67,32.03,44.63,33.63Z" fill="currentColor"/><path d="M35.9,35.43C35.87,35.47,35.85,35.5,35.82,35.54L35.57,36.46C38.01,34.46,41.43,34.18,44.16,35.76L58.38,43.96L77.59,52.45C83.9,55.23,88.46,60.81,90,67.44C89.95,60.4,87.61,52.86,83,50.71L58.56,41.12L44.63,33.63C41.67,32.03,37.99,32.79,35.9,35.43Z" fill="currentColor"/><path d="M1.01,49.36C2.27,48.52,3.77,48.11,5.29,48.19L6.02,48.23L6.82,50.06C10.59,50.06,13.84,52.7,14.62,56.38L16.22,63.99L18.12,64.25C23.07,64.93,27.8,66.75,31.95,69.55L33.59,70.66L36.44,69.77C40.78,68.41,45.35,67.97,49.87,68.49L53.87,68.94L55.2,65.19C56.09,62.67,55.36,59.86,53.35,58.1L49.61,54.83L53.38,58.15C54.39,59.04,54.36,60.63,53.31,61.47L47.97,65.81L47.68,65.74C43.03,64.63,38.18,64.65,33.53,65.79L32.89,65.48C28.27,63.25,23.39,61.62,18.35,60.64C18.02,58.56,13.71,42.87,2.58,46.94C1.55,47.32,0.92,48.3,1.01,49.36Z" fill="currentColor"/><path d="M9.91,68.43L10.9,69.18C18.29,74.76,26.37,79.36,34.94,82.86C36.91,83.66,39.02,84.04,41.15,83.96L53.48,83.53C65.83,83.09,77.94,80.13,89.08,74.85C88.13,78.18,86.43,80.63,83.98,81.11C70.58,83.71,54.83,84.86,40.9,85C38.94,85.02,36.99,84.77,35.15,84.11C26.8,81.1,13.24,73.88,8.86,68.44C7.4,66.63,5.64,62.97,4.14,59.17C4.68,59.06,5.2,58.87,5.69,58.61L6.62,58.11Z" fill="currentColor" opacity="0.5"/></svg>