<svg xmlns="http://www.w3.org/2000/svg" viewBox="0 0 90 90"><path d="M67.71,84.57C71.84,84.57,73.34,83.06,73.34,79.03L71.34,36.08L74.14,40.18C76.76,43.33,78.89,43.45,82.02,40.68L87.52,35.64C90.65,32.87,90.77,30.73,88.15,27.58L79.97,17.56C74.47,11.14,69.72,7,61.34,7L58.82,7C51.57,16.32,38.56,16.32,31.3,7L28.68,7C20.3,7,15.54,11.14,10.04,17.56L1.87,27.58C-0.76,30.73,-0.63,32.87,2.37,35.64L8,40.68C11,43.45,13.12,43.33,15.88,40.18L18.92,36.08L16.92,78.9C16.92,83.06,18.42,84.57,22.42,84.57L22.31,84.57Z" fill="currentColor"/><path d="M65.5,24.5C64.79,53.02,44.06,76.28,17.15,81.29C16.99,80.62,16.92,79.82,16.92,78.9L18.92,36.1L22,29.5L17.62,32.11C12.24,35.32,6.09,35.68,0.74,33.8C-0.55,31.83,-0.15,30,1.87,27.58L10.04,17.56C14.94,11.85,19.24,7.94,26.03,7.15C32.7,24.1,57.32,23.45,63.66,7.11C70.64,7.82,75,11.76,79.97,17.56L88.15,27.58C89.65,29.39,90.25,30.86,89.9,32.31C81.57,33.29,72.73,30.96,65.5,24.5Z" fill="currentColor"/><path d="M16.1,14.63C18.8,11.34,22.84,9.42,27.1,9.42L26.07,7.14C19.25,7.93,14.95,11.84,10.04,17.56L1.87,27.58C-0.07,29.9,-0.51,31.67,0.59,33.55Z" fill="currentColor"/><path d="M79.97,17.56L88.15,27.58C89.87,29.65,90.41,31.28,89.69,32.94L73.43,14.35C70.7,11.22,66.74,9.42,62.58,9.42L63.81,7.13C70.7,7.88,75.03,11.8,79.97,17.56Z" fill="currentColor"/><path d="M22.42,84.57C20.14,84.57,18.67,84.08,17.83,82.89L17.83,82.73L65.38,82.73C67.46,82.73,69.2,81.13,69.36,79.05L71.88,47.73L73.34,79.03C73.34,83.06,71.84,84.57,67.71,84.57Z" fill="currentColor"/><path d="M73.85,39.76L71.91,36.91L75.74,39.97C77.29,41.21,79.43,41.41,81.19,40.48L83.64,39.19L82.02,40.68C79.06,43.3,77,43.33,74.56,40.67Z" fill="currentColor"/><path d="M71.37,36.59L71.12,36.28L71.36,36.47Z" fill="currentColor"/><path d="M14.23,39.97C12.67,41.21,10.53,41.41,8.77,40.48L6.35,39.21L8,40.68C10.78,43.25,12.81,43.33,15.28,40.82L17.48,38.02L18.67,36.42Z" fill="currentColor"/><path d="M61.87,71.3C61.87,59.58,50.23,61.35,49.3,49.71L49.13,47.69L53.85,47.69C54.44,46.67,54.7,45.49,54.7,44.31L49.13,40.86C52.17,38.83,53.1,36.72,53.1,33.86C53.1,29.39,49.47,25.76,45,25.76C40.53,25.76,36.91,29.39,36.91,33.86C36.91,36.56,38.09,39.09,40.87,40.94L35.3,44.31C35.3,45.49,35.56,46.67,36.15,47.69L40.87,47.69L40.7,49.71C39.77,61.35,28.14,59.58,28.14,71.3Z" fill="currentColor"/><path d="M41.2,71.3L28.13,71.3C28.13,65.33,31.15,62.86,34.24,60.33C37.21,57.9,40.24,55.42,40.7,49.71L40.87,47.69L36.15,47.69C35.56,46.67,35.3,45.49,35.3,44.31L40.87,40.94C38.09,39.09,36.9,36.56,36.9,33.86C36.9,29.39,40.53,25.76,45,25.76C49.47,25.76,53.1,29.39,53.1,33.86C53.1,36.72,52.17,38.83,49.13,40.86L54.7,44.31C54.7,45.49,54.44,46.67,53.85,47.69L49.13,47.69L49.3,49.71C49.65,54.15,51.57,56.64,53.8,58.67C50.25,63.48,46,67.74,41.2,71.3Z" fill="currentColor"/></svg>