<svg xmlns="http://www.w3.org/2000/svg" viewBox="0 0 90 90"><path d="M8,14C3.58,14,0,17.58,0,22L0,70C0,74.42,3.58,78,8,78L82,78C86.42,78,90,74.42,90,70L90,22C90,17.58,86.42,14,82,14Z" fill="currentColor"/><path d="M8,12C3.58,12,0,15.58,0,20L0,68C0,72.42,3.58,76,8,76L82,76C86.42,76,90,72.42,90,68L90,20C90,15.58,86.42,12,82,12Z" fill="currentColor"/><path d="M12,61L26,61C28.21,61,30,62.79,30,65C30,67.21,28.21,69,26,69L12,69C9.79,69,8,67.21,8,65C8,62.79,9.79,61,12,61Z" fill="currentColor"/><path d="M38,61L52,61C54.21,61,56,62.79,56,65C56,67.21,54.21,69,52,69L38,69C35.79,69,34,67.21,34,65C34,62.79,35.79,61,38,61Z" fill="currentColor"/><path d="M60,65C60,67.21,61.79,69,64,69L78,69C80.21,69,82,67.21,82,65C82,62.79,80.21,61,78,61L64,61C61.79,61,60,62.79,60,65Z" fill="currentColor"/><path d="M0,42C0.7,36.55,1.1,32.33,1.5,28.1C1.67,26.33,1.84,24.56,2.03,22.7C2.53,17.8,6.63,14.1,11.55,13.96L80,12L8,12C3.58,12,0,15.58,0,20Z" fill="currentColor"/><path d="M90,21C89.12,30.99,88.93,39.19,88.74,47.4C88.61,53.07,88.48,58.74,88.12,64.99C87.83,70.03,83.7,73.94,78.66,74.12L27,76L82,76C86.42,76,90,72.42,90,68Z" fill="currentColor"/><path d="M0,26L0,40L90,40L90,26Z" fill="currentColor"/><path d="M0,26L0,40L0.24,40C0.74,35.43,0.87,31.52,1,27.6C1.02,27.07,1.04,26.53,1.05,26Z" fill="currentColor"/><path d="M90,26L89.6,26C89.25,30.99,89.06,35.57,88.93,40L90,40Z" fill="currentColor"/></svg>