<svg xmlns="http://www.w3.org/2000/svg" viewBox="0 0 90 90"><path d="M6.57,14.81C27.83,-4.94,62.17,-4.94,83.43,14.81C85.45,16.69,85.57,19.85,83.69,21.87C81.81,23.9,78.65,24.02,76.62,22.14C59.2,5.95,30.8,5.95,13.38,22.14C11.35,24.02,8.19,23.9,6.31,21.87C4.43,19.85,4.55,16.69,6.57,14.81Z" fill="currentColor"/><path d="M23.86,29.05C35.58,18.32,54.42,18.32,66.14,29.05C68.18,30.91,68.32,34.08,66.45,36.11C64.59,38.15,61.42,38.29,59.39,36.42C51.49,29.19,38.51,29.19,30.61,36.42C28.58,38.29,25.41,38.15,23.55,36.11C21.68,34.08,21.82,30.91,23.86,29.05Z" fill="currentColor"/><path d="M6.57,14.81C27.83,-4.94,62.17,-4.94,83.43,14.81C84.18,15.5,84.66,16.37,84.88,17.3C84.74,17.13,84.59,16.96,84.43,16.81C63.17,-2.94,28.83,-2.94,7.57,16.81C6.2,18.08,5.7,19.95,6.11,21.65C4.44,19.62,4.62,16.62,6.57,14.81Z" fill="currentColor"/><path d="M23.86,29.05C35.58,18.32,54.42,18.32,66.14,29.05C66.9,29.75,67.4,30.62,67.62,31.56C67.47,31.38,67.31,31.21,67.14,31.05C55.42,20.32,36.58,20.32,24.86,31.05C23.47,32.32,22.96,34.2,23.38,35.92C21.69,33.88,21.89,30.85,23.86,29.05Z" fill="currentColor"/><path d="M2.84,85.04L2.84,84.33C2.84,79.05,5.36,77.14,7.98,75.14C10.6,73.15,13.32,71.07,13.72,65.48L9.71,65.48C9.16,64.46,9.08,63.33,9.08,62.19L13.31,59.61C11.39,58.09,10.41,55.66,10.41,53.47C10.41,49.33,13.78,45.96,18.02,45.92C22.22,45.96,25.59,49.33,25.59,53.47C25.59,55.66,24.61,58.09,22.69,59.61L26.92,62.19C26.92,63.33,26.84,64.46,26.29,65.48L22.28,65.48C22.68,71.07,25.4,73.15,28.02,75.14C30.64,77.14,33.16,79.05,33.16,84.33L33.16,85.04Z" fill="currentColor"/><path d="M26.29,65.48L22.28,65.48L22.32,65.99C23.03,72.96,27.49,74.2,30.47,77.19C23.31,76.1,18.85,70.47,14.09,65.48L9.71,65.48C9.52,65.13,9.38,64.76,9.29,64.38L21.91,64.38C25.05,62.35,21.88,59.67,21.82,59.61L17.51,59.61C17.55,59.6,21.07,58.8,22.87,56.24C25.3,52.8,23.24,48.04,20.58,46.39C23.51,47.45,25.59,50.22,25.59,53.47C25.59,55.66,24.61,58.09,22.69,59.61L26.92,62.19C26.92,63.33,26.84,64.46,26.29,65.48Z" fill="currentColor"/><path d="M10.14,76.31C6.41,79.04,4.27,80.32,2.84,85.04L2.84,84.33C2.84,79.05,5.36,77.14,7.98,75.14C9.89,73.69,11.85,72.19,12.93,69.32C12.65,71.9,12.23,74.78,10.14,76.31Z" fill="currentColor"/><path d="M9.08,62.55C9.08,62.43,9.08,62.31,9.08,62.19L13.31,59.61L12.39,62.54Z" fill="currentColor"/><path d="M10.68,55.48C10.5,54.81,10.41,54.13,10.41,53.47C10.41,49.46,13.57,46.19,17.6,45.94C17.66,45.94,17.72,45.93,17.77,45.93L17.87,45.93C15.26,46.25,11.28,49.3,10.68,55.48Z" fill="currentColor"/><path d="M56.84,85.04L56.84,84.33C56.84,79.05,59.36,77.14,61.98,75.14C64.6,73.15,67.32,71.07,67.72,65.48L63.71,65.48C63.16,64.46,63.08,63.33,63.08,62.19L67.31,59.61C65.39,58.09,64.41,55.66,64.41,53.47C64.41,49.33,67.78,45.96,72.02,45.92C76.22,45.96,79.59,49.33,79.59,53.47C79.59,55.66,78.61,58.09,76.69,59.61L80.92,62.19C80.92,63.33,80.84,64.46,80.29,65.48L76.28,65.48C76.68,71.07,79.4,73.15,82.02,75.14C84.64,77.14,87.16,79.05,87.16,84.33L87.16,85.04Z" fill="currentColor"/><path d="M80.29,65.48L76.28,65.48L76.32,65.99C77.03,72.96,81.49,74.2,84.47,77.19C77.31,76.1,72.85,70.47,68.09,65.48L63.71,65.48C63.52,65.13,63.38,64.76,63.29,64.38L75.91,64.38C79.05,62.35,75.88,59.67,75.82,59.61L71.51,59.61C71.55,59.6,75.07,58.8,76.87,56.24C79.3,52.8,77.24,48.04,74.58,46.39C77.51,47.45,79.59,50.22,79.59,53.47C79.59,55.66,78.61,58.09,76.69,59.61L80.92,62.19C80.92,63.33,80.84,64.46,80.29,65.48Z" fill="currentColor"/><path d="M64.14,76.31C60.41,79.04,58.27,80.32,56.84,85.04L56.84,84.33C56.84,79.05,59.36,77.14,61.98,75.14C63.89,73.69,65.85,72.19,66.93,69.32C66.66,71.9,66.23,74.78,64.14,76.31Z" fill="currentColor"/><path d="M63.08,62.55C63.08,62.43,63.08,62.31,63.08,62.19L67.31,59.61L66.39,62.54Z" fill="currentColor"/><path d="M64.68,55.48C64.5,54.81,64.41,54.13,64.41,53.47C64.41,49.46,67.57,46.19,71.6,45.94C71.66,45.94,71.72,45.93,71.77,45.93L71.87,45.93C69.26,46.25,65.28,49.3,64.68,55.48Z" fill="currentColor"/><path d="M65.95,84.25L65.95,85.04L56.84,85.04L56.84,84.33C56.84,79.37,59.07,77.38,61.51,75.5C64,77.36,65.95,79.73,65.95,84.25Z" fill="currentColor"/><path d="M33.15,84.33L33.15,85.04L24.06,85.04L24.06,84.25C24.06,79.73,26,77.36,28.48,75.5C30.93,77.38,33.15,79.37,33.15,84.33Z" fill="currentColor"/><path d="M27.58,85.04L27.58,84.23C27.58,78.15,30.47,75.94,33.48,73.65C36.49,71.35,39.62,68.97,40.08,62.52L35.47,62.52C34.83,61.35,34.74,60.05,34.74,58.74L39.61,55.77C37.4,54.02,36.28,51.22,36.28,48.7C36.28,43.93,40.15,40.06,45.02,40.01C49.85,40.06,53.72,43.93,53.72,48.7C53.72,51.22,52.6,54.02,50.39,55.77L55.26,58.74C55.26,60.05,55.17,61.35,54.53,62.52L49.92,62.52C50.38,68.97,53.51,71.35,56.52,73.65C59.53,75.94,62.42,78.15,62.42,84.23L62.42,85.04Z" fill="currentColor"/><path d="M53.72,48.7C53.72,51.22,52.6,54.02,50.39,55.77L55.26,58.74C55.26,60.05,55.17,61.35,54.53,62.52L49.92,62.52L49.97,63.12C50.78,71.13,55.92,72.56,59.33,76.01C51.1,74.76,45.98,68.27,40.5,62.52L35.47,62.52C35.25,62.12,35.09,61.69,34.98,61.26L49.5,61.26C53.1,58.93,49.48,55.85,49.39,55.77L44.44,55.77C44.44,55.77,48.51,54.85,50.6,51.89C53.39,47.93,51.02,42.44,47.97,40.54C51.33,41.76,53.72,44.95,53.72,48.7Z" fill="currentColor"/><path d="M35.97,74.99C31.67,78.13,29.22,79.61,27.58,85.04L27.58,84.23C27.58,78.15,30.47,75.94,33.48,73.65C35.68,71.97,37.93,70.25,39.17,66.94C38.86,69.91,38.37,73.23,35.97,74.99Z" fill="currentColor"/><path d="M34.75,59.15C34.75,59.01,34.74,58.88,34.74,58.74L39.61,55.77L38.55,59.14Z" fill="currentColor"/><path d="M36.58,51.01C36.38,50.24,36.28,49.46,36.28,48.7C36.28,44.08,39.91,40.31,44.56,40.03C44.62,40.03,44.68,40.03,44.74,40.03L44.85,40.03C41.85,40.39,37.27,43.9,36.58,51.01Z" fill="currentColor"/></svg>