<svg xmlns="http://www.w3.org/2000/svg" viewBox="0 0 90 90"><path d="M90,45L90,41L0,41L0,45C0,55.83,5.1,65.63,13.32,72.7C11.11,77.69,7.1,81.64,3,85L3,89C12.63,89.4,22.51,86.85,30.35,81.89C34.94,83.26,39.87,84,45,84C69.85,84,90,66.54,90,45Z" fill="#749BBF"/><path d="M90,41C90,19.46,69.85,2,45,2C20.15,2,0,19.46,0,41C0,52.21,5.45,62.31,14.19,69.42C12.29,75.63,7.73,81.14,3,85C12.63,85.4,22.51,82.85,30.35,77.89C34.94,79.26,39.87,80,45,80C69.85,80,90,62.54,90,41Z" fill="#D0E6FB"/><path d="M64.5,74.78C61.47,76.53,58.34,77.93,55.18,79C75.13,75,90,59.5,90,41C90,36.99,89.3,33.12,88,29.48C91.05,46.09,82.02,64.66,64.5,74.78Z" fill="#FAFFFF"/><path d="M0,41C0,22.5,14.87,7,34.82,3C31.66,4.07,28.53,5.47,25.5,7.22C7.99,17.34,-1.05,35.9,2,52.52C0.7,48.88,0,45.01,0,41Z" fill="#FAFFFF"/><path d="M37.75,51.28C39.42,51.28,40.25,50.44,40.33,48.78L41.58,21.28C41.67,19.61,40.83,18.78,39.25,18.78L30.83,18.78C29.17,18.78,28.33,19.61,28.42,21.19L29.75,48.78C29.83,50.44,30.67,51.28,32.33,51.28Z" fill="#AED0F0"/><path d="M40.75,63.11C40.75,57.44,40.75,57.44,35,57.44C29.33,57.44,29.33,57.44,29.33,63.11C29.33,68.86,29.33,68.86,35,68.86C40.75,68.86,40.75,68.86,40.75,63.11Z" fill="#AED0F0"/><path d="M57.75,51.28C59.42,51.28,60.25,50.44,60.33,48.78L61.58,21.28C61.67,19.61,60.83,18.78,59.25,18.78L50.83,18.78C49.17,18.78,48.33,19.61,48.42,21.19L49.75,48.78C49.83,50.44,50.67,51.28,52.33,51.28Z" fill="#AED0F0"/><path d="M60.75,63.11C60.75,57.44,60.75,57.44,55,57.44C49.33,57.44,49.33,57.44,49.33,63.11C49.33,68.86,49.33,68.86,55,68.86C60.75,68.86,60.75,68.86,60.75,63.11Z" fill="#AED0F0"/><path d="M37.75,47.72C39.42,47.72,40.25,46.89,40.33,45.22L41.58,17.72C41.67,16.06,40.83,15.22,39.25,15.22L30.83,15.22C29.17,15.22,28.33,16.06,28.42,17.64L29.75,45.22C29.83,46.89,30.67,47.72,32.33,47.72Z" fill="#486688"/><path d="M40.75,59.56C40.75,53.89,40.75,53.89,35,53.89C29.33,53.89,29.33,53.89,29.33,59.56C29.33,65.31,29.33,65.31,35,65.31C40.75,65.31,40.75,65.31,40.75,59.56Z" fill="#486688"/><path d="M57.75,47.72C59.42,47.72,60.25,46.89,60.33,45.22L61.58,17.72C61.67,16.06,60.83,15.22,59.25,15.22L50.83,15.22C49.17,15.22,48.33,16.06,48.42,17.64L49.75,45.22C49.83,46.89,50.67,47.72,52.33,47.72Z" fill="#486688"/><path d="M60.75,59.56C60.75,53.89,60.75,53.89,55,53.89C49.33,53.89,49.33,53.89,49.33,59.56C49.33,65.31,49.33,65.31,55,65.31C60.75,65.31,60.75,65.31,60.75,59.56Z" fill="#486688"/></svg>