<svg xmlns="http://www.w3.org/2000/svg" viewBox="0 0 90 90"><path d="M10.82,47.68L10.82,32.71L4.65,32.71L4.65,47.68Z" fill="currentColor"/><path d="M55.5,23.99L55.5,9.03L61.67,9.03L61.67,23.99Z" fill="currentColor"/><path d="M63.4,31.89L63.4,16.92L69.57,16.93L69.57,31.89Z" fill="currentColor"/><path d="M77.47,39.79L77.47,24.82L71.29,24.82L71.29,39.79Z" fill="currentColor"/><path d="M79.19,47.69L79.19,32.72L85.36,32.72L85.36,47.69Z" fill="currentColor"/><path d="M12.54,39.78L12.54,24.82L18.71,24.82L18.71,39.78Z" fill="currentColor"/><path d="M26.61,31.89L26.61,16.92L20.43,16.92L20.43,31.89Z" fill="currentColor"/><path d="M34.5,24L34.5,9.03L28.33,9.03L28.33,24Z" fill="currentColor"/><path d="M32.71,13.42L37.1,9.03L32.71,4.64L28.33,9.03Z" fill="currentColor"/><path d="M30.52,11.22L34.91,6.83L37.1,9.03L32.71,13.42Z" fill="currentColor"/><path d="M20.43,16.92L24.82,12.54L29.2,16.93L24.82,21.31Z" fill="currentColor"/><path d="M22.62,19.12L27.01,14.73L29.2,16.93L24.82,21.31Z" fill="currentColor"/><path d="M12.53,24.82L16.92,20.43L21.31,24.82L16.92,29.21Z" fill="currentColor"/><path d="M14.73,27.01L19.11,22.63L21.31,24.82L16.92,29.21Z" fill="currentColor"/><path d="M9.02,37.11L13.41,32.72L9.02,28.33L4.63,32.72Z" fill="currentColor"/><path d="M6.83,34.91L11.22,30.52L13.41,32.72L9.02,37.11Z" fill="currentColor"/><path d="M80.98,37.11L85.36,32.72L80.98,28.33L76.59,32.72Z" fill="currentColor"/><path d="M78.78,30.53L83.17,34.91L80.97,37.11L76.59,32.72Z" fill="currentColor"/><path d="M73.08,20.44L77.47,24.82L73.08,29.21L68.69,24.82Z" fill="currentColor"/><path d="M70.88,22.63L75.27,27.02L73.08,29.21L68.69,24.82Z" fill="currentColor"/><path d="M65.18,12.54L69.57,16.92L65.18,21.31L60.79,16.93Z" fill="currentColor"/><path d="M62.99,14.73L67.37,19.12L65.18,21.31L60.79,16.93Z" fill="currentColor"/><path d="M57.28,13.42L61.67,9.03L57.28,4.64L52.9,9.03Z" fill="currentColor"/><path d="M55.09,6.83L59.48,11.22L57.28,13.41L52.9,9.03Z" fill="currentColor"/><path d="M85.35,42.32L85.35,57.29L79.18,57.29L79.18,42.32Z" fill="currentColor"/><path d="M34.5,66L34.5,80.97L28.33,80.97L28.33,66.01Z" fill="currentColor"/><path d="M26.6,58.11L26.6,73.08L20.43,73.08L20.43,58.11Z" fill="currentColor"/><path d="M18.71,50.21L18.71,65.18L12.53,65.18L12.53,50.21Z" fill="currentColor"/><path d="M10.81,42.31L10.81,57.28L4.64,57.28L4.63,42.31Z" fill="currentColor"/><path d="M77.46,50.22L77.46,65.18L71.29,65.18L71.29,50.22Z" fill="currentColor"/><path d="M86.25,86.25L86.25,3.75L3.75,3.75L3.75,86.25Z" fill="currentColor"/><path d="M69.57,73.08L69.57,58.11L63.39,58.11L63.39,73.08Z" fill="currentColor"/><path d="M61.67,66L61.67,80.97L55.5,80.97L55.5,66Z" fill="currentColor"/><path d="M57.29,85.36L61.67,80.97L57.29,76.58L52.9,80.97Z" fill="currentColor"/><path d="M59.48,78.78L55.09,83.17L52.9,80.97L57.28,76.58Z" fill="currentColor"/><path d="M69.57,73.08L65.18,77.46L60.8,73.07L65.18,68.69Z" fill="currentColor"/><path d="M67.38,70.88L62.99,75.27L60.8,73.07L65.18,68.69Z" fill="currentColor"/><path d="M77.47,65.18L73.08,69.56L68.69,65.18L73.08,60.79Z" fill="currentColor"/><path d="M75.27,62.99L70.89,67.37L68.69,65.18L73.08,60.79Z" fill="currentColor"/><path d="M80.98,61.67L85.36,57.28L80.98,52.89L76.59,57.28Z" fill="currentColor"/><path d="M83.17,55.09L78.78,59.47L76.59,57.28L80.98,52.89Z" fill="currentColor"/><path d="M9.02,61.67L13.41,57.28L9.02,52.89L4.64,57.28Z" fill="currentColor"/><path d="M11.22,59.47L6.83,55.09L9.02,52.89L13.41,57.28Z" fill="currentColor"/><path d="M16.92,69.56L12.53,65.18L16.92,60.79L21.31,65.18Z" fill="currentColor"/><path d="M19.11,67.37L14.73,62.98L16.92,60.79L21.31,65.18Z" fill="currentColor"/><path d="M24.82,77.46L20.43,73.08L24.82,68.69L29.21,73.07Z" fill="currentColor"/><path d="M27.01,75.27L22.63,70.88L24.82,68.69L29.21,73.07Z" fill="currentColor"/><path d="M32.72,85.36L37.1,80.97L32.72,76.59L28.33,80.97Z" fill="currentColor"/><path d="M34.91,83.17L30.52,78.78L32.72,76.59L37.1,80.97Z" fill="currentColor"/><path d="M86.25,3.75L86.25,86.25L3.75,86.25L3.75,3.75Z" fill="currentColor"/><path d="M40.62,84.44L5.56,49.38C3.15,46.96,3.15,43.04,5.57,40.62L40.62,5.57C43.04,3.15,46.96,3.14,49.38,5.56L84.43,40.62C86.86,43.04,86.85,46.96,84.43,49.38L49.38,84.43C46.96,86.86,43.04,86.86,40.62,84.44Z" fill="currentColor"/><path d="M7.76,42.81C6.55,44.02,6.55,45.98,7.76,47.19L42.81,82.24C44.02,83.45,45.98,83.45,47.19,82.24L82.24,47.19C83.45,45.98,83.45,44.02,82.24,42.81L47.19,7.76C46.59,7.15,45.79,6.85,45,6.85C44.21,6.85,43.41,7.15,42.81,7.76Z" fill="currentColor"/><path d="M45,64.72L35.14,74.58L45,84.44L54.86,74.58Z" fill="currentColor"/><path d="M7.76,42.81C6.55,44.02,6.55,45.98,7.76,47.19L42.81,82.24C44.02,83.45,45.98,83.45,47.19,82.24L82.24,47.19C83.45,45.98,83.45,44.02,82.24,42.81L47.19,7.76C46.59,7.15,45.79,6.85,45,6.85C44.21,6.85,43.41,7.15,42.81,7.76Z" fill="currentColor"/><path d="M64.72,45L54.86,54.86L64.72,64.72L74.58,54.86Z" fill="currentColor"/><path d="M7.76,42.81C6.55,44.02,6.55,45.98,7.76,47.19L42.81,82.24C44.02,83.45,45.98,83.45,47.19,82.24L82.24,47.19C83.45,45.98,83.45,44.02,82.24,42.81L47.19,7.76C46.59,7.15,45.79,6.85,45,6.85C44.21,6.85,43.41,7.15,42.81,7.76Z" fill="currentColor"/><path d="M45,45L35.14,54.86L45,64.72L54.86,54.86Z" fill="currentColor"/><path d="M7.76,42.81C6.55,44.02,6.55,45.98,7.76,47.19L42.81,82.24C44.02,83.45,45.98,83.45,47.19,82.24L82.24,47.19C83.45,45.98,83.45,44.02,82.24,42.81L47.19,7.76C46.59,7.15,45.79,6.85,45,6.85C44.21,6.85,43.41,7.15,42.81,7.76Z" fill="currentColor"/><path d="M64.72,25.28L54.86,35.14L64.72,45L74.58,35.14Z" fill="currentColor"/><path d="M7.76,42.81C6.55,44.02,6.55,45.98,7.76,47.19L42.81,82.24C44.02,83.45,45.98,83.45,47.19,82.24L82.24,47.19C83.45,45.98,83.45,44.02,82.24,42.81L47.19,7.76C46.59,7.15,45.79,6.85,45,6.85C44.21,6.85,43.41,7.15,42.81,7.76Z" fill="currentColor"/><path d="M25.28,45L15.42,54.86L25.28,64.72L35.14,54.86Z" fill="currentColor"/><path d="M7.76,42.81C6.55,44.02,6.55,45.98,7.76,47.19L42.81,82.24C44.02,83.45,45.98,83.45,47.19,82.24L82.24,47.19C83.45,45.98,83.45,44.02,82.24,42.81L47.19,7.76C46.59,7.15,45.79,6.85,45,6.85C44.21,6.85,43.41,7.15,42.81,7.76Z" fill="currentColor"/><path d="M45,25.28L35.14,35.14L45,45L54.86,35.14Z" fill="currentColor"/><path d="M7.76,42.81C6.55,44.02,6.55,45.98,7.76,47.19L42.81,82.24C44.02,83.45,45.98,83.45,47.19,82.24L82.24,47.19C83.45,45.98,83.45,44.02,82.24,42.81L47.19,7.76C46.59,7.15,45.79,6.85,45,6.85C44.21,6.85,43.41,7.15,42.81,7.76Z" fill="currentColor"/><path d="M25.28,25.28L15.42,35.14L25.28,45L35.14,35.14Z" fill="currentColor"/><path d="M7.76,42.81C6.55,44.02,6.55,45.98,7.76,47.19L42.81,82.24C44.02,83.45,45.98,83.45,47.19,82.24L82.24,47.19C83.45,45.98,83.45,44.02,82.24,42.81L47.19,7.76C46.59,7.15,45.79,6.85,45,6.85C44.21,6.85,43.41,7.15,42.81,7.76Z" fill="currentColor"/><path d="M45,5.57L35.14,15.42L45,25.28L54.86,15.42Z" fill="currentColor"/></svg>