<svg xmlns="http://www.w3.org/2000/svg" viewBox="0 0 90 90"><path d="M11,50.81L11,39.19L19.8,39.19C25.02,39.19,29.96,41.53,33.27,45.56L45.38,60.31C46.49,61.65,48.13,62.43,49.87,62.43L70.33,62.43L70.33,74.05L49.87,74.05C44.66,74.05,39.71,71.71,36.4,67.68L24.29,52.93C23.19,51.59,21.54,50.81,19.8,50.81Z" fill="currentColor"/><path d="M11.81,39.19L19.8,39.19C25.02,39.19,29.96,41.53,33.27,45.56L35.04,47.71C32.28,50.64,28.75,52.7,24.9,53.67L24.29,52.93C23.19,51.59,21.54,50.81,19.8,50.81L11.81,50.81Z" fill="currentColor"/><path d="M64.42,36.02C64.42,38.18,65.5,38.62,67.2,37.23L83.25,24.27C85.58,22.45,85.58,21.07,83.25,19.26L67.2,6.29C65.5,4.91,64.42,5.34,64.42,7.5Z" fill="currentColor"/><path d="M64.42,7.5C64.42,5.34,65.49,4.91,67.2,6.29L83.25,19.26C85.58,21.07,85.58,22.45,83.25,24.27L67.2,37.23C65.49,38.62,64.42,38.18,64.42,36.02L64.42,27.57L49.87,27.57C48.13,27.57,46.49,28.35,45.38,29.7L33.27,44.44C29.96,48.47,25.02,50.81,19.8,50.81L8,50.81C6.34,50.81,5,49.47,5,47.81L5,42.19C5,40.53,6.34,39.19,8,39.19L19.8,39.19C21.54,39.19,23.19,38.41,24.29,37.07L36.4,22.32C39.71,18.29,44.66,15.95,49.87,15.95L64.42,15.95Z" fill="currentColor"/><path d="M39.25,22.65C41.53,19.81,44.97,18.16,48.61,18.16L63.92,18.16C65.58,18.16,66.92,16.82,66.92,15.16L66.92,8.54L84.26,20.17C84,19.88,83.66,19.57,83.25,19.26L67.2,6.29C65.49,4.91,64.42,5.34,64.42,7.5L64.42,15.95L49.87,15.95C44.66,15.95,39.71,18.29,36.4,22.32L24.29,37.07C23.19,38.41,21.54,39.19,19.8,39.19L8,39.19C6.34,39.19,5,40.53,5,42.19L5,47.81C5,48.22,5.08,48.6,5.23,48.96L6.24,43.64C6.51,42.22,7.75,41.2,9.19,41.2L19.58,41.2C22.61,41.2,25.48,39.82,27.38,37.46Z" fill="currentColor"/><path d="M64.42,82.5C64.42,84.66,65.5,85.09,67.2,83.71L83.25,70.74C85.58,68.93,85.58,67.55,83.25,65.73L67.2,52.77C65.5,51.38,64.42,51.82,64.42,53.98Z" fill="currentColor"/></svg>