<svg xmlns="http://www.w3.org/2000/svg" viewBox="0 0 90 90"><path d="M8,4L52,4C56.42,4,60,7.58,60,12L60,56C60,60.42,56.42,64,52,64L8,64C3.58,64,0,60.42,0,56L0,12C0,7.58,3.58,4,8,4Z" fill="currentColor"/><path d="M8,4L52,4C56.42,4,60,7.58,60,12L60,52C60,56.42,56.42,60,52,60L8,60C3.58,60,0,56.42,0,52L0,12C0,7.58,3.58,4,8,4Z" fill="currentColor"/><path d="M0,12C0,7.58,3.58,4,8,4L40,4L8.59,4.97C4.4,5.1,1.01,8.45,0.85,12.65L0,34Z" fill="currentColor"/><path d="M60,52C60,56.42,56.42,60,52,60L10,60L51.12,58.65C55.32,58.51,58.69,55.15,58.85,50.95L60,20Z" fill="currentColor"/><path d="M10,14L10,22L50,22L50,14Z" fill="currentColor"/><path d="M50,28L50,36L10,36L10,28Z" fill="currentColor"/><path d="M50,42L50,50L10,50L10,42Z" fill="currentColor"/><path d="M30,60L21,60L30,32Z" fill="currentColor"/><path d="M33,60L33,64L21,64L21,60Z" fill="currentColor"/><path d="M38,22L82,22C86.42,22,90,25.58,90,30L90,74C90,78.42,86.42,82,82,82L38,82C33.58,82,30,78.42,30,74L30,30C30,25.58,33.58,22,38,22Z" fill="currentColor"/><path d="M82,22C86.42,22,90,25.58,90,30L90,74C90,78.42,86.42,82,82,82L60,82L60,22Z" fill="currentColor"/><path d="M38,22L82,22C86.42,22,90,25.58,90,30L90,70C90,74.42,86.42,78,82,78L38,78C33.58,78,30,74.42,30,70L30,30C30,25.58,33.58,22,38,22Z" fill="currentColor"/><path d="M38,22C33.58,22,30,25.58,30,30L30,70C30,74.42,33.58,78,38,78L82,78C86.42,78,90,74.42,90,70L90,30C90,25.58,86.42,22,82,22Z" fill="currentColor"/><path d="M38,22C33.58,22,30,25.58,30,30L30,50L60,50L60,22Z" fill="currentColor"/><path d="M60,50L60,78L82,78C86.42,78,90,74.42,90,70L90,50Z" fill="currentColor"/><path d="M30,30C30,25.58,33.58,22,38,22L60,22L38.51,22.83C34.35,23,31.01,26.33,30.83,30.49L30,50Z" fill="currentColor"/><path d="M90,70C90,74.42,86.42,78,82,78L60,78L81.42,76.8C85.49,76.57,88.74,73.32,88.96,69.25L90,50Z" fill="currentColor"/><path d="M60.15,65.87C60.11,65.87,60.06,65.87,60.01,65.87L60.01,60.04C60.06,60.04,60.11,60.04,60.15,60.04C63.68,60.04,66.52,57.25,66.52,53.73C66.52,52.33,66.08,51.04,65.32,49.99L76.73,49.99C77.31,50.63,77.87,51.29,78.42,51.96C79.39,53.24,79.39,54.22,78.42,55.49C73.67,61.36,67.55,65.87,60.15,65.87Z" fill="currentColor"/><path d="M60.01,60.04C56.55,59.97,53.79,57.2,53.79,53.73C53.79,52.33,54.23,51.04,54.98,49.99L43.58,49.99C43,50.63,42.44,51.29,41.89,51.96C40.91,53.24,40.91,54.22,41.89,55.49C46.61,61.33,52.68,65.81,60.01,65.87Z" fill="currentColor"/><path d="M78.42,51.68C79.4,50.41,79.4,49.43,78.42,48.16C73.67,42.23,67.55,37.63,60.15,37.63C52.76,37.63,46.64,42.23,41.89,48.16C40.91,49.43,40.91,50.41,41.89,51.68C46.64,57.56,52.76,62.06,60.15,62.06C67.55,62.06,73.67,57.56,78.42,51.68Z" fill="currentColor"/><path d="M53.79,49.92C53.79,46.39,56.63,43.5,60.15,43.5C63.68,43.5,66.52,46.39,66.52,49.92C66.52,53.44,63.68,56.23,60.15,56.23C56.63,56.23,53.79,53.44,53.79,49.92Z" fill="currentColor"/><path d="M60.15,57.31C56.03,57.31,52.69,53.97,52.69,49.84C52.69,45.72,56.03,42.38,60.15,42.38C64.28,42.38,67.62,45.72,67.62,49.84C67.62,53.97,64.28,57.31,60.15,57.31Z" fill="currentColor"/><path d="M60.15,53.03C58.4,53.03,56.97,51.6,56.97,49.84C56.97,48.09,58.4,46.66,60.15,46.66C61.91,46.66,63.34,48.09,63.34,49.84C63.34,51.6,61.91,53.03,60.15,53.03Z" fill="currentColor"/><path d="M55.48,48.03C53.67,48.03,52.21,46.57,52.21,44.76C52.21,42.96,53.67,41.49,55.48,41.49C57.29,41.49,58.75,42.96,58.75,44.76C58.75,46.57,57.29,48.03,55.48,48.03Z" fill="currentColor"/></svg>