<svg xmlns="http://www.w3.org/2000/svg" viewBox="0 0 90 90"><path d="M45.07,59.67L65.47,80.34C71.53,86.54,73.73,86.54,79.94,80.48C86.14,74.41,86.14,72.07,80.07,66.01L59.68,45.06L80.35,24.39C86.55,18.19,86.55,15.98,80.35,9.78C74.29,3.72,71.94,3.72,65.88,9.78L45.07,30.31L24.4,9.64C18.2,3.44,15.99,3.44,9.79,9.64C3.73,15.71,3.73,18.05,9.79,24.11L30.32,45.06L9.65,65.59C3.45,71.8,3.45,74,9.65,80.2C15.71,86.27,17.92,86.27,24.12,80.2Z" fill="currentColor"/><path d="M84.25,74.98C83.63,73.43,82.24,71.73,80.07,69.56L59.68,48.62L61.43,46.86L80.07,66.01C83.93,69.87,85.33,72.22,84.25,74.98Z" fill="currentColor"/><path d="M9.65,69.15C7.41,71.39,5.98,73.1,5.36,74.68C4.26,71.89,5.69,69.56,9.65,65.59L28.56,46.81L30.32,48.62Z" fill="currentColor"/><path d="M24.4,9.64L45.07,30.31L65.88,9.78C71.94,3.72,74.29,3.72,80.35,9.78C84.31,13.74,85.74,16.08,84.64,18.86C84.01,17.29,82.59,15.57,80.35,13.34C74.29,7.27,71.94,7.27,65.88,13.34L45.07,33.87L24.4,13.2C18.2,7,15.99,7,9.79,13.2C7.6,15.38,6.2,17.09,5.59,18.65C4.51,15.88,5.91,13.52,9.79,9.64C15.99,3.44,18.2,3.44,24.4,9.64Z" fill="currentColor"/></svg>