<svg xmlns="http://www.w3.org/2000/svg" viewBox="0 0 90 90"><path d="M8.99,65.52C10.06,74.12,25.65,79.49,45,79.49C64.35,79.49,79.94,74.12,81.01,65.52C81.92,58.28,86.25,29.92,87.6,21.11C87.74,20.16,86.65,19.51,85.88,20.1L63.27,37.3L45.91,9.47C45.49,8.79,44.51,8.79,44.09,9.47L26.73,37.3L4.12,20.1C3.35,19.51,2.26,20.16,2.4,21.11C3.75,29.92,8.08,58.28,8.99,65.52Z" fill="currentColor"/><path d="M8.45,61.76C9.53,70.36,21.67,75.19,45,75.19C68.33,75.19,80.47,70.36,81.55,61.76C82.45,54.59,86.32,29.34,87.6,21.11C87.74,20.15,86.65,19.52,85.88,20.1L63.27,37.3L45.91,9.47C45.49,8.79,44.51,8.79,44.09,9.47L26.73,37.3L4.12,20.1C3.35,19.52,2.26,20.15,2.4,21.11C3.68,29.34,7.55,54.59,8.45,61.76Z" fill="currentColor"/><path d="M55.21,71.43C63.91,71.43,72.01,69.73,78.81,67.33C74.12,72.22,63.52,74.98,46.98,75.18C46.97,75.18,46.96,75.18,46.95,75.18C46.31,75.19,45.66,75.19,45,75.19L45,75.19L45,75.19L45,75.19C21.66,75.19,9.52,70.36,8.45,61.76C8.32,60.73,8.13,59.32,7.89,57.64L7.89,57.64C6.49,47.68,3.49,28.16,2.41,21.11C2.26,20.15,3.35,19.52,4.12,20.1L26.73,37.3L44.09,9.47C44.27,9.18,44.56,9.01,44.86,8.97L48.63,71.11C50.77,71.32,52.97,71.43,55.21,71.43Z" fill="currentColor"/><path d="M87.6,21.11C86.32,29.34,82.45,54.59,81.55,61.76C81.01,66.08,77.68,69.44,71.54,71.73L76.91,26.92L85.88,20.1C86.65,19.52,87.74,20.15,87.6,21.11Z" fill="currentColor"/><path d="M45.91,9.47L63.27,37.3L85.88,20.1C86.65,19.52,87.74,20.15,87.6,21.11C86.32,29.34,82.45,54.59,81.55,61.76C81.38,63.15,80.91,64.44,80.15,65.63C81.44,54.7,84.4,31.84,85.46,23.67C85.59,22.66,84.39,22.07,83.65,22.77L66.37,39.12C64.88,40.54,62.45,40.21,61.39,38.43L45.92,12.51C45.51,11.81,44.49,11.81,44.08,12.51L28.61,38.43C27.55,40.21,25.13,40.54,23.63,39.12L6.35,22.77C5.61,22.07,4.41,22.66,4.54,23.67C5.6,31.84,8.56,54.7,9.85,65.63C9.09,64.44,8.62,63.15,8.45,61.76C7.55,54.59,3.68,29.34,2.4,21.11C2.26,20.15,3.35,19.52,4.12,20.1L26.73,37.3L44.09,9.47C44.51,8.79,45.49,8.79,45.91,9.47Z" fill="currentColor"/><path d="M4.12,20.1L6.16,21.65L12.12,63.05C15.26,66.65,23.06,71.55,33.39,74.72C23.65,73.85,16.77,71.79,12.72,68.69L12.72,68.7C12.71,68.69,12.71,68.69,12.7,68.68C10.2,66.76,8.78,64.44,8.45,61.76C8.37,61.17,8.28,60.47,8.17,59.66L8.17,59.66C6.94,50.58,3.57,28.67,2.4,21.11C2.26,20.15,3.35,19.52,4.12,20.1Z" fill="currentColor"/></svg>