<svg xmlns="http://www.w3.org/2000/svg" viewBox="0 0 90 90"><path d="M38.06,61.03C37.95,68.63,32.64,75,25,75C23.9,75,23,75.9,23,77L23,83C23,84.1,23.9,85,25,85L65,85C66.1,85,67,84.1,67,83L67,77C67,75.9,66.1,75,65,75C57.32,75,51.8,68.53,51.8,60.85L51.8,52.7L38.06,52.66Z" fill="#B27314"/><path d="M51.8,58.35C49.68,58.77,47.39,59,45,59C42.56,59,40.22,58.76,38.06,58.32L38.06,52.66L51.8,52.7Z" fill="#7A4414"/><path d="M24.14,75L65.71,75C51.45,75,42,66,38.06,61.03C37.95,68.63,31.78,75,24.14,75Z" fill="#CA9350"/><path d="M7.83,16.52C7.83,25.25,14.91,32.34,23.65,32.34L24.98,32.34L24.98,39.82C11.74,39.82,1,29.08,1,15.84L1,13.98C1,11.78,2.78,10,4.98,10L24.98,10L24.98,16.52Z" fill="#B27314"/><path d="M82.17,16.52C82.17,25.25,75.09,32.34,66.35,32.34L65.02,32.34L65.02,39.82C78.26,39.82,89,29.08,89,15.84L89,13.98C89,11.78,87.22,10,85.02,10L65.02,10L65.02,16.52Z" fill="#B27314"/><path d="M21.42,5L68.58,5C69.37,5,70,5.63,70,6.42L70,31C70,44.81,58.81,56,45,56C31.19,56,20,44.81,20,31L20,6.42C20,5.63,20.63,5,21.42,5Z" fill="#B27314"/><path d="M25.36,46.47C22,42.21,20,36.84,20,31L20,6.42C20,5.63,20.63,5,21.42,5L36,5L36,26C36,34.46,31.79,41.94,25.36,46.47Z" fill="#CA9350"/><path d="M70,6.42L70,31C70,43.43,60.93,53.74,49.04,55.67C55.64,52.33,60,45.51,60,37.83L60,5L68.58,5C69.37,5,70,5.63,70,6.42Z" fill="#CA9350"/><path d="M24.14,44.78C24.11,44.74,24.08,44.69,24.05,44.64C22.57,42.38,21.45,39.87,20.77,37.18C20.68,36.83,20.6,36.46,20.52,36.1C20.34,35.23,20.21,34.35,20.12,33.46C20.08,33.09,20.06,32.73,20.04,32.36C20.02,32.09,20.01,31.81,20.01,31.54C20,31.36,20,31.18,20,31L20,6.42C20,5.63,20.63,5,21.42,5L24,5L24,42C24,42.94,24.05,43.87,24.14,44.78Z" fill="#E2B664"/></svg>