<svg xmlns="http://www.w3.org/2000/svg" viewBox="0 0 90 90"><path d="M38.06,61.03C37.95,68.63,32.64,75,25,75C23.9,75,23,75.9,23,77L23,83C23,84.1,23.9,85,25,85L65,85C66.1,85,67,84.1,67,83L67,77C67,75.9,66.1,75,65,75C57.32,75,51.8,68.53,51.8,60.85L51.8,52.7L38.06,52.66Z" fill="#E3AA24"/><path d="M45,59C42.56,59,40.22,58.76,38.06,58.32L38.06,52.66L51.8,52.7L51.8,58.35C49.68,58.77,47.39,59,45,59Z" fill="#CF8D1B"/><path d="M24.14,75L65.71,75C51.45,75,42,66,38.06,61.03C37.95,68.63,31.78,75,24.14,75Z" fill="#F7C631"/><path d="M1,13.98L1,15.84C1,29.08,11.74,39.82,24.98,39.82L24.98,32.34L23.65,32.34C14.91,32.34,7.83,25.25,7.83,16.52L24.98,16.52L24.98,10L4.98,10C2.78,10,1,11.78,1,13.98Z" fill="#E3AA24"/><path d="M89,13.98L89,15.84C89,29.08,78.26,39.82,65.02,39.82L65.02,32.34L66.35,32.34C75.09,32.34,82.17,25.25,82.17,16.52L65.02,16.52L65.02,10L85.02,10C87.22,10,89,11.78,89,13.98Z" fill="#E3AA24"/><path d="M21.42,5L68.58,5C69.37,5,70,5.63,70,6.42L70,31C70,44.81,58.81,56,45,56C31.19,56,20,44.81,20,31L20,6.42C20,5.63,20.63,5,21.42,5Z" fill="#F7C631"/><path d="M36,26C36,34.46,31.79,41.94,25.36,46.47C22,42.21,20,36.84,20,31L20,6.42C20,5.63,20.63,5,21.42,5L36,5Z" fill="#FCE26A"/><path d="M60,37.83C60,45.51,55.63,52.34,49.04,55.68C60.93,53.75,70,43.43,70,31L70,6.42C70,5.63,69.37,5,68.58,5L60,5Z" fill="#FAD541"/><path d="M21.42,5C20.63,5,20,5.63,20,6.42L20,31C20,40.24,25.01,48.3,32.46,52.63C27.84,47.79,25,41.22,25,34L25,5Z" fill="#FFF599"/></svg>