<svg xmlns="http://www.w3.org/2000/svg" viewBox="0 0 90 90"><path d="M51.26,4.82L52.95,15.45L56.34,15.45L59.35,6.05C60.74,6.2,61.81,6.44,63.66,6.9C65.13,7.28,66.67,7.75,67.75,8.28L66.67,19.38C66.36,22.93,64.59,25.16,60.35,26.78L64.27,59.08C64.28,59.08,64.3,59.08,64.31,59.08C73.49,60.47,72.87,65.4,72.87,70.95L72.87,72.72L18.13,72.72L18.13,70.95C18.13,65.4,17.51,60.39,26.68,59.08L30.53,26.78C25.67,24.93,24.44,22.69,24.13,19.38L23.21,8.13C25.98,7.05,29.14,6.05,31.45,6.05L34.46,15.45L37.93,15.45L39.54,4.82C41.47,4.51,43.47,4.28,45.4,4.28C47.33,4.28,49.33,4.51,51.26,4.82Z" fill="currentColor"/><path d="M64.28,59.14L64.28,59.14L64.28,59.14C62.43,58.91,60.58,58.76,58.73,58.68C58.35,56.9,58,55.16,57.65,53.47C54.41,37.48,52.09,26.04,33.76,26.32C40.16,25.01,49.64,24.85,55.03,25.62C61.28,24.33,63.2,13.86,64.29,7.07C65.53,7.41,66.78,7.81,67.71,8.26C67.72,8.27,67.73,8.28,67.75,8.28L66.67,19.38C66.67,19.39,66.67,19.4,66.67,19.41C66.35,22.94,64.58,25.17,60.35,26.78Z" fill="currentColor" opacity="0.5"/><path d="M64.3,59.08C69.78,59.93,71.78,61.93,72.47,64.63C69.47,62.63,64.23,62.09,45.49,62.09C26.83,62.09,21.28,62.55,18.51,64.55C19.2,61.93,21.28,59.93,26.68,59.08C29.3,58.7,37.4,58.62,45.49,58.62C55.82,58.62,60.29,58.47,64.3,59.08Z" fill="currentColor"/><path d="M26.47,24.52C24.89,23.12,24.33,21.47,24.13,19.4C24.13,19.39,24.13,19.39,24.13,19.38L23.21,8.13C25.03,7.42,27.01,6.75,28.82,6.37C25.78,8.37,25.07,17.67,26.47,24.52Z" fill="currentColor"/><path d="M63.01,6.74C59.82,9.11,57.15,13.91,56.34,15.45L59.35,6.05C59.36,6.05,59.38,6.05,59.4,6.06C60.59,6.19,61.56,6.38,63.01,6.74Z" fill="currentColor"/><path d="M37.93,15.45L39.54,4.82C41.47,4.51,43.47,4.28,45.4,4.28C40.47,5.97,38.31,14.14,37.93,15.45Z" fill="currentColor"/><path d="M40.41,72.77L49.35,72.77L45.85,88.14C45.27,90.62,44.59,90.62,44.05,88.14Z" fill="currentColor"/><path d="M32.05,84.92L28.99,72.72L37.05,72.72L33.99,84.92C33.41,87.4,32.73,87.4,32.05,84.92Z" fill="currentColor"/><path d="M55.94,84.92L52.78,72.72L61.04,72.72L57.98,84.92C57.3,87.4,56.62,87.53,55.94,84.92Z" fill="currentColor"/><path d="M37.05,72.72L28.99,72.72L30.19,77.49L35.85,77.49Z" fill="currentColor"/><path d="M61.04,72.72L52.78,72.72L54.01,77.49L59.84,77.49Z" fill="currentColor"/><path d="M49.35,72.77L40.41,72.77L41.53,77.49L48.27,77.49Z" fill="currentColor"/></svg>