<svg xmlns="http://www.w3.org/2000/svg" viewBox="0 0 90 90"><path d="M70.36,70.91C70.36,65.29,70.36,60.48,62.36,59.02L73.6,31.84C76.6,31.46,79.29,28.38,79.29,25.14C79.29,21.52,76.29,18.37,72.44,18.37C68.83,18.37,65.67,21.52,65.67,25.14C65.67,26.53,66.36,27.84,66.82,28.61L59.13,36.77L58.2,17.83C60.82,16.98,62.74,14.36,62.74,11.36C62.74,7.97,60.13,4.28,55.58,4.28C51.5,4.28,48.43,7.74,48.43,11.36C48.43,13.44,49.43,15.44,51.04,16.75L45.5,32.84L39.96,16.75C41.57,15.44,42.57,13.44,42.57,11.36C42.57,7.51,39.5,4.28,35.42,4.28C30.87,4.28,28.26,7.82,28.26,11.44C28.26,14.44,30.18,16.98,32.8,17.83L31.87,36.77L24.18,28.61C24.64,27.84,25.33,26.53,25.33,25.14C25.33,21.52,22.17,18.37,18.56,18.37C14.78,18.37,11.71,21.45,11.71,25.14C11.71,28.38,14.4,31.46,17.4,31.84L28.72,59.02C20.64,60.48,20.64,65.37,20.64,70.91L20.64,72.72L70.36,72.72Z" fill="currentColor"/><path d="M77.75,20.91C79.29,27.22,73.6,29.22,71.13,30.53C71.13,30.53,65.75,41.39,58.43,49.39C50.66,57.79,45.5,58.56,45.5,58.56C54.89,58.56,58.66,58.56,62.36,59.02L73.6,31.84C76.6,31.46,79.29,28.38,79.29,25.14C79.29,23.6,78.76,22.14,77.75,20.91Z" fill="currentColor" opacity="0.5"/><path d="M62.36,59.02C66.28,59.71,68.29,61.25,69.29,63.25C68.36,62.87,67.21,62.64,65.82,62.41C61.36,62.02,56.89,62.02,45.58,62.02C36.49,62.02,28.26,62.25,25.25,62.41C23.95,62.64,22.79,62.87,21.79,63.25C22.87,61.25,24.87,59.71,28.72,59.02C31.26,58.86,38.03,58.56,45.58,58.56C54.97,58.56,58.66,58.56,62.36,59.02Z" fill="currentColor"/><path d="M15.02,30.99C13.17,29.68,11.71,27.61,11.71,25.14C11.71,21.45,14.78,18.37,18.56,18.37C13.78,20.75,12.24,26.68,15.02,30.99Z" fill="currentColor"/><path d="M74.21,18.6C70.59,19.06,66.75,21.99,66.44,27.91C66.05,27.22,65.67,26.22,65.67,25.14C65.67,21.52,68.83,18.37,72.44,18.37C72.98,18.37,73.83,18.52,74.21,18.6Z" fill="currentColor"/><path d="M29.18,14.83C28.56,13.75,28.26,12.59,28.26,11.44C28.26,7.82,30.87,4.28,35.42,4.28C32.88,5.28,29.8,8.67,29.18,14.83Z" fill="currentColor"/><path d="M49.27,14.67C48.73,13.67,48.42,12.52,48.42,11.36C48.42,7.74,51.5,4.28,55.58,4.28C53.2,5.51,49.66,8.97,49.27,14.67Z" fill="currentColor"/><path d="M40.41,72.77L49.35,72.77L45.85,88.14C45.27,90.62,44.59,90.62,44.05,88.14Z" fill="currentColor"/><path d="M32.05,84.92L28.99,72.72L37.05,72.72L33.99,84.92C33.41,87.4,32.73,87.4,32.05,84.92Z" fill="currentColor"/><path d="M55.94,84.92L52.78,72.72L61.04,72.72L57.98,84.92C57.3,87.4,56.62,87.53,55.94,84.92Z" fill="currentColor"/><path d="M37.05,72.72L28.99,72.72L30.19,77.49L35.85,77.49Z" fill="currentColor"/><path d="M61.04,72.72L52.78,72.72L54.01,77.49L59.84,77.49Z" fill="currentColor"/><path d="M49.35,72.77L40.41,72.77L41.53,77.49L48.27,77.49Z" fill="currentColor"/></svg>