<svg xmlns="http://www.w3.org/2000/svg" viewBox="0 0 90 90"><path d="M34.27,37.28C37.92,37.26,41.16,33.93,42.98,32.02L44.79,29.94C45.49,30.78,47.43,33.48,46.58,36.48C45.78,39.25,43.57,41.25,41.4,42.99C37.92,45.81,31.82,50.69,31.16,57.37L30.92,62.11L64.01,62.11C64.01,59.26,64.54,57.37,64.54,57.37C65.14,54.51,68.45,44.84,68.45,39.6C68.45,19.85,55.13,11.17,43.21,10.37L37.12,4.29C36.25,4.29,35.36,5.2,35.12,6.21L34.43,9.53C33.73,11.25,32.56,12.41,30.77,13.9C28.97,15.39,28.51,16.79,28.11,17.81C26.69,21.43,26.58,23.35,24.11,26.93L18.59,34.69C17.17,36.45,17.36,38.85,18.88,40.13C20.9,41.85,26.69,43.27,27.2,42.78L27.18,42.77C29.42,40.61,29.53,37.3,34.27,37.28Z" fill="currentColor"/><path d="M33.57,59.45C20.3,59.45,20.36,68.3,20.36,68.3L20.36,72.72L73.38,72.72L73.38,68.3C73.38,68.3,73.44,59.45,60.17,59.45Z" fill="currentColor"/><path d="M42.93,10.27C42.99,10.27,43.05,10.27,43.11,10.27L43.14,10.31C43.01,10.28,42.93,10.27,42.93,10.27Z" fill="currentColor"/><path d="M64.54,57.37C64.71,56.57,65.09,55.24,65.55,53.63C66.73,49.46,68.45,43.38,68.45,39.59C68.45,20.12,55.49,11.42,43.7,10.41C47.38,11.13,62.99,15.2,62.99,32.33C62.99,40.34,59.73,45.52,56.69,50.36C54.82,53.32,53.04,56.16,52.14,59.44C54.38,59.24,64.15,59.76,64.15,59.76C64.31,58.3,64.54,57.37,64.54,57.37Z" fill="currentColor"/><path d="M35.56,37.13L35.58,37.13L35.58,37.12Z" fill="currentColor"/><path d="M33.35,35.84C31.05,34.41,30.11,33.83,28.84,37.62C28.08,39.93,27.11,41.32,26.5,42.19C26.33,42.43,26.19,42.64,26.09,42.81C26.65,42.88,27.06,42.87,27.18,42.76C27.85,42.12,28.33,41.37,28.79,40.64C29.89,38.92,30.94,37.29,34.27,37.27C34.71,37.27,35.14,37.22,35.56,37.13C34.7,36.68,33.97,36.23,33.35,35.84Z" fill="currentColor"/><path d="M47.66,24.99C46.8,26.63,44.68,29.96,44.68,29.96C44.68,29.96,44.66,30.02,44.64,30.11L44.79,29.94C45.47,30.75,47.27,33.29,46.63,36.16C47.89,32.86,48.73,29.18,48.71,27.87C48.68,26.43,48.51,23.35,47.66,24.99Z" fill="currentColor"/><path d="M18.58,34.68L18.58,34.67C17.76,35.67,17.53,36.87,17.72,37.96C19.15,36.2,26.52,27.1,27.57,25.7C28.24,24.8,28.57,23.62,28.94,22.28C29.71,19.44,30.69,15.89,35.64,12.82C39.43,10.46,36.86,4.37,36.86,4.37C36.74,4.37,36.64,4.39,36.54,4.41C36.51,4.42,36.48,4.43,36.45,4.43C35.83,4.74,35.29,5.44,35.11,6.19L34.42,9.51C33.72,11.23,32.56,12.4,30.76,13.89C29.06,15.29,28.55,16.62,28.17,17.62C28.14,17.68,28.12,17.74,28.1,17.8C27.68,18.85,27.38,19.77,27.1,20.62C26.41,22.68,25.85,24.38,24.1,26.92Z" fill="currentColor"/><path d="M21.61,64.45C22.49,64,27.01,62.34,47.06,62.34C64.64,62.34,70.29,63.61,72,64.24C70.45,61.91,67.18,59.45,60.18,59.45L33.57,59.45C26.36,59.45,23.1,62.06,21.61,64.45Z" fill="currentColor"/><path d="M40.41,72.77L49.35,72.77L45.85,88.14C45.27,90.62,44.59,90.62,44.05,88.14Z" fill="currentColor"/><path d="M32.05,84.92L28.99,72.72L37.05,72.72L33.99,84.92C33.41,87.4,32.73,87.4,32.05,84.92Z" fill="currentColor"/><path d="M55.94,84.92L52.78,72.72L61.04,72.72L57.98,84.92C57.3,87.4,56.62,87.53,55.94,84.92Z" fill="currentColor"/><path d="M37.05,72.72L28.99,72.72L30.19,77.49L35.85,77.49Z" fill="currentColor"/><path d="M61.04,72.72L52.78,72.72L54.01,77.49L59.84,77.49Z" fill="currentColor"/><path d="M49.35,72.77L40.41,72.77L41.53,77.49L48.27,77.49Z" fill="currentColor"/></svg>