<svg xmlns="http://www.w3.org/2000/svg" viewBox="0 0 90 90"><path d="M52.71,11.67C52.71,13.1,52.28,14.67,51.61,15.92L45.09,29.37C43.18,34.21,42.29,39.32,41.78,43.88L46.77,43.85C46.77,43.85,47.74,37.16,48.68,34.21C49.52,31.02,50.92,27.94,52.39,25.11L55.5,19.53C58.82,23.56,63.59,30.59,63.59,40.45C63.59,49.95,59.12,57.1,56.98,59.8L58.26,59.8C71.07,59.8,71.01,68.42,71.01,68.42L71.01,72.72L19.83,72.72L19.83,68.42C19.83,68.42,19.78,59.8,32.59,59.8L33.9,59.8C31.77,57.15,27.25,49.96,27.25,40.41C27.25,25.92,38.46,16.16,38.46,16.16C38.45,16.13,37.67,13.56,37.67,11.67C37.67,7.59,41.05,4.28,45.19,4.28C49.33,4.28,52.71,7.59,52.71,11.67Z" fill="currentColor"/><path d="M55.49,19.52L55.5,19.52L55.5,19.53C55.5,19.53,55.49,19.52,55.49,19.52Z" fill="currentColor"/><path d="M63.59,40.45C63.59,49.95,59.13,57.1,56.99,59.8L43.46,59.8C47.03,58.13,67.04,47.53,58.54,23.7C61.15,27.79,63.59,33.4,63.59,40.45Z" fill="currentColor"/><path d="M46.19,20.87C49.26,15.15,52.02,10.02,50.05,6.07C50.05,6.06,50.06,6.05,50.06,6.04C51.68,7.4,52.71,9.42,52.71,11.67C52.71,12.29,52.62,12.87,52.47,13.42C52.31,14.25,52.06,15.07,51.61,15.92L51.6,15.92L45.09,29.37C43.18,34.21,42.29,39.32,41.78,43.88C38.04,36.07,42.36,28.01,46.19,20.87Z" fill="currentColor"/><path d="M45.19,4.28C41.05,4.28,37.67,7.59,37.67,11.67C37.67,12.43,37.8,13.29,37.95,14.06C38.7,8.99,42.75,5.15,45.64,4.29C45.49,4.28,45.34,4.28,45.19,4.28Z" fill="currentColor"/><path d="M27.25,40.41C27.25,43.66,27.8,46.59,28.57,49.21C28.55,40.84,30.37,28.64,39.93,16.68C39.93,16.68,39.29,16.46,38.46,16.16C38.46,16.16,27.25,25.92,27.25,40.41Z" fill="currentColor"/><path d="M32.58,59.8L58.26,59.8C65.01,59.8,68.16,62.19,69.66,64.46C68.01,63.85,62.56,62.61,45.59,62.61C26.25,62.61,21.88,64.23,21.04,64.67L21.04,64.66C22.48,62.34,25.63,59.8,32.58,59.8Z" fill="currentColor"/><path d="M40.41,72.77L49.35,72.77L45.85,88.14C45.27,90.62,44.59,90.62,44.05,88.14Z" fill="currentColor"/><path d="M32.05,84.92L28.99,72.72L37.05,72.72L33.99,84.92C33.41,87.4,32.73,87.4,32.05,84.92Z" fill="currentColor"/><path d="M55.94,84.92L52.78,72.72L61.04,72.72L57.98,84.92C57.3,87.4,56.62,87.53,55.94,84.92Z" fill="currentColor"/><path d="M37.05,72.72L28.99,72.72L30.19,77.49L35.85,77.49Z" fill="currentColor"/><path d="M61.04,72.72L52.78,72.72L54.01,77.49L59.84,77.49Z" fill="currentColor"/><path d="M49.35,72.77L40.41,72.77L41.53,77.49L48.27,77.49Z" fill="currentColor"/></svg>