<svg xmlns="http://www.w3.org/2000/svg" viewBox="0 0 90 90"><path d="M69.52,51.7C66.97,54.02,64.79,56.71,63.03,59.67C68.58,61.16,69.52,64.92,69.52,70.16L69.52,72.71L21.48,72.71L21.48,70.16C21.48,65.08,22.26,61.23,28.03,59.68C26.26,56.71,24.05,54.02,21.48,51.7C17.52,47.8,13.43,43.7,13.43,37.29C13.27,28.84,20,21.54,28.59,21.69C32.48,21.54,36.34,22.5,39.71,24.45L41.09,18.45L35.58,18.45L35.58,9.98L41.24,9.98L41.24,4.28L49.74,4.28L49.74,10.14L55.41,10.14L55.41,18.54L49.9,18.54L51.27,24.55C54.64,22.56,58.5,21.58,62.4,21.69C71.4,21.46,77.78,28.51,77.58,37.29C77.58,43.66,73.49,47.75,69.52,51.7Z" fill="currentColor"/><path d="M63.5,38.95C64.22,33.97,58.7,33.79,58.68,33.79C55.64,33.79,51.86,36.49,51.86,36.49L51.86,48.25C53.17,48.3,54.06,48.39,55.58,48.48C56.71,47.04,58.06,45.76,59.32,44.56C61.39,42.59,63.23,40.84,63.5,38.95Z" fill="currentColor"/><path d="M32.28,33.79C32.28,33.79,26.8,33.98,27.46,38.95C27.73,40.84,29.56,42.58,31.63,44.55C32.89,45.75,34.24,47.03,35.38,48.48C36.89,48.38,37.82,48.25,39.1,48.25L39.1,36.49C39.1,36.49,35.33,33.79,32.28,33.79Z" fill="currentColor"/><path d="M57.34,59.04L57.21,59.04L71.31,44.91C78.28,37.94,73.63,27.31,72.8,25.56C72.83,25.56,72.86,25.56,72.88,25.56C75.92,28.41,77.69,32.61,77.58,37.29C77.58,43.66,73.49,47.75,69.52,51.7C66.97,54.02,64.79,56.71,63.03,59.67C61.23,59.19,59.24,59.04,57.34,59.04Z" fill="currentColor" opacity="0.5"/><path d="M63.07,59.68C63.49,59.8,63.89,59.93,64.27,60.07C64.99,60.35,65.67,60.7,66.28,61.13C67.48,61.99,68.25,63.08,68.74,64.38C67.2,63.69,62.01,62.34,45.48,62.34C29.05,62.34,23.82,63.71,22.25,64.37C22.7,63.2,23.39,62.18,24.44,61.36C25.26,60.73,26.22,60.26,27.25,59.92C27.46,59.85,27.69,59.78,27.92,59.71C29.8,59.19,31.87,59.04,33.72,59.04L57.34,59.04C59.26,59.04,61.26,59.19,63.07,59.68Z" fill="currentColor"/><path d="M29.49,21.69C17.94,23.58,12.31,34.54,15.75,45.1C14.24,42.78,13.43,40.07,13.43,37.29C13.35,33.12,14.91,29.08,17.78,26.05C19.2,24.64,20.89,23.53,22.74,22.77C24.6,22.03,26.58,21.65,28.59,21.69Z" fill="currentColor"/><path d="M29.49,21.69C29.51,21.69,29.52,21.68,29.54,21.68L29.54,21.69Z" fill="currentColor"/><path d="M48.46,5.7L42.66,5.7L42.66,11.39L37,11.39L37,17.16L35.72,18.45L35.58,18.45L35.58,9.98L41.24,9.98L41.24,4.28L49.74,4.28L49.74,4.41Z" fill="currentColor"/><path d="M48.47,11.39L49.75,9.98L55.42,9.98L55.42,11.39Z" fill="currentColor"/><path d="M40.41,72.77L49.35,72.77L45.85,88.14C45.27,90.62,44.59,90.62,44.05,88.14Z" fill="currentColor"/><path d="M32.05,84.92L28.99,72.72L37.05,72.72L33.99,84.92C33.41,87.4,32.73,87.4,32.05,84.92Z" fill="currentColor"/><path d="M55.94,84.92L52.78,72.72L61.04,72.72L57.98,84.92C57.3,87.4,56.62,87.53,55.94,84.92Z" fill="currentColor"/><path d="M37.05,72.72L28.99,72.72L30.19,77.49L35.85,77.49Z" fill="currentColor"/><path d="M61.04,72.72L52.78,72.72L54.01,77.49L59.84,77.49Z" fill="currentColor"/><path d="M49.35,72.77L40.41,72.77L41.53,77.49L48.27,77.49Z" fill="currentColor"/></svg>