<svg xmlns="http://www.w3.org/2000/svg" viewBox="0 0 90 90"><path d="M72.02,72.72L72.02,71.49C72.02,53.01,54.4,58.08,52.99,38.5L60.01,38.5C60.97,36.72,61.11,34.74,61.11,32.75L53.7,28.23C57.06,25.56,58.78,21.32,58.78,17.49C58.78,10.23,52.88,4.35,45.53,4.28C38.12,4.35,32.22,10.23,32.22,17.49C32.22,21.32,33.94,25.56,37.3,28.23L29.89,32.75C29.89,34.74,30.03,36.72,30.99,38.5L38.01,38.5C36.6,58.08,18.98,53.01,18.98,71.49L18.98,72.72Z" fill="currentColor"/><path d="M58.78,17.49C58.78,21.32,57.06,25.56,53.7,28.23L61.11,32.75C61.11,34.5,61,36.25,60.32,37.86L60.32,37.86C60.3,37.9,60.29,37.94,60.27,37.98C60.24,38.04,60.21,38.11,60.18,38.18C60.13,38.29,60.07,38.39,60.01,38.5L52.99,38.5C53.92,51.49,61.99,53.63,67.32,59C55.57,57.21,47.99,48.43,40.21,40.15L38.66,38.5L30.99,38.5C30.65,37.88,30.42,37.24,30.26,36.58L52.34,36.58C56.91,33.62,53.85,29.89,52.62,28.65L44.64,28.23C44.67,28.23,50.85,26.83,54.03,22.34C58.27,16.32,54.67,7.98,50.03,5.09C55.14,6.95,58.78,11.79,58.78,17.49Z" fill="currentColor" opacity="0.5"/><path d="M31.75,57.45C25.21,62.23,21.48,64.47,18.98,72.72L18.98,71.49C18.98,55.5,32.16,57.14,36.64,45.2C36.15,49.72,35.41,54.77,31.75,57.45Z" fill="currentColor"/><path d="M29.9,33.37C29.89,33.16,29.89,32.96,29.89,32.75L37.3,28.23L35.69,33.36Z" fill="currentColor"/><path d="M32.69,21C32.38,19.83,32.22,18.64,32.22,17.49C32.22,10.43,37.8,4.67,44.93,4.3C44.99,4.3,45.04,4.29,45.1,4.29L45.27,4.29C40.71,4.85,33.74,10.19,32.69,21Z" fill="currentColor"/><path d="M40.41,72.77L49.35,72.77L45.85,88.14C45.27,90.62,44.59,90.62,44.05,88.14Z" fill="currentColor"/><path d="M32.05,84.92L28.99,72.72L37.05,72.72L33.99,84.92C33.41,87.4,32.73,87.4,32.05,84.92Z" fill="currentColor"/><path d="M55.94,84.92L52.78,72.72L61.04,72.72L57.98,84.92C57.3,87.4,56.62,87.53,55.94,84.92Z" fill="currentColor"/><path d="M37.05,72.72L28.99,72.72L30.19,77.49L35.85,77.49Z" fill="currentColor"/><path d="M61.04,72.72L52.78,72.72L54.01,77.49L59.84,77.49Z" fill="currentColor"/><path d="M49.35,72.77L40.41,72.77L41.53,77.49L48.27,77.49Z" fill="currentColor"/></svg>