<svg xmlns="http://www.w3.org/2000/svg" viewBox="0 0 90 90"><path d="M13,5C8.58,5,5,8.58,5,13L5,77C5,81.42,8.58,85,13,85L77,85C81.42,85,85,81.42,85,77L85,13C85,8.58,81.42,5,77,5Z" fill="currentColor"/><path d="M13,5C8.58,5,5,8.58,5,13L5,73C5,77.42,8.58,81,13,81L77,81C81.42,81,85,77.42,85,73L85,13C85,8.58,81.42,5,77,5Z" fill="currentColor"/><path d="M79.31,50.53L85,12L85,73C85,77.42,81.42,81,77,81L14,81L53.48,75.91C66.8,74.19,77.35,63.82,79.31,50.53Z" fill="currentColor" opacity="0.2"/><path d="M5,13C5,8.58,8.58,5,13,5L75,5L16.31,6.73C11.06,6.88,6.83,11.06,6.61,16.31L5,55Z" fill="currentColor"/><path d="M85,73C85,77.42,81.42,81,77,81L54,81L73.3,78.86C77.83,78.35,81.45,74.85,82.1,70.33L85,50Z" fill="currentColor"/><path d="M26.76,37C21.37,37,17,32.97,17,28C17,23.03,21.37,19,26.76,19L62,19L62,37Z" fill="currentColor"/><path d="M17.24,30C18.23,25.99,22.12,23,26.76,23L62,23L62,19L26.76,19C21.37,19,17,23.03,17,28C17,28.69,17.08,29.36,17.24,30Z" fill="currentColor"/><path d="M62.98,43C69.07,43,74,38.07,74,31.98L74,24.71L67.1,24.71L67.1,37L53.17,37C54.99,40.56,58.7,43,62.98,43Z" fill="currentColor"/><path d="M67.1,37L53.17,37C52.39,35.49,51.96,33.79,51.96,31.98L51.96,24.71L67.1,24.71Z" fill="currentColor"/><path d="M63,13C56.92,13,52,17.92,52,24L52,27C52,33.08,56.92,38,63,38C69.08,38,74,33.08,74,27L74,24C74,17.92,69.08,13,63,13Z" fill="currentColor"/><path d="M74,24C74,17.92,69.08,13,63,13C56.92,13,52,17.92,52,24C52,30.08,56.92,35,63,35C69.08,35,74,30.08,74,24Z" fill="currentColor"/><path d="M53.1,25.1C53.1,19.02,58.02,14.1,64.1,14.1C66.86,14.1,69.38,15.12,71.31,16.79C69.29,14.47,66.32,13,63,13C56.92,13,52,17.92,52,24C52,27.32,53.47,30.29,55.79,32.31C54.11,30.38,53.1,27.86,53.1,25.1Z" fill="currentColor"/><path d="M63.94,68C69.5,68,74,63.97,74,59C74,54.03,69.5,50,63.94,50L30,50L30,68Z" fill="currentColor"/><path d="M73.75,61C72.73,56.99,68.73,54,63.94,54L30,54L30,50L63.94,50C69.5,50,74,54.03,74,59C74,59.69,73.91,60.36,73.75,61Z" fill="currentColor"/><path d="M27.02,74C20.93,74,16,69.07,16,62.98L16,55.71L22.9,55.71L22.9,68L36.83,68C35.01,71.56,31.3,74,27.02,74Z" fill="currentColor"/><path d="M27,44C20.93,44,16,48.92,16,55L16,58C16,64.08,20.93,69,27,69C33.08,69,38,64.08,38,58L38,55C38,48.92,33.08,44,27,44Z" fill="currentColor"/><path d="M38,55C38,48.92,33.08,44,27,44C20.93,44,16,48.92,16,55C16,61.08,20.93,66,27,66C33.08,66,38,61.08,38,55Z" fill="currentColor"/><path d="M17.1,56.1C17.1,50.02,22.02,45.1,28.1,45.1C30.86,45.1,33.38,46.12,35.31,47.79C33.29,45.47,30.32,44,27,44C20.93,44,16,48.92,16,55C16,58.32,17.47,61.29,19.79,63.31C18.11,61.38,17.1,58.86,17.1,56.1Z" fill="currentColor"/></svg>