<svg xmlns="http://www.w3.org/2000/svg" viewBox="0 0 90 90"><path d="M38,62L38,78L52,78L52,62Z" fill="#324660"/><path d="M38.56,75.42C42.8,74.48,47.2,74.48,51.44,75.42L52,75.54L52,82L38,82L38,75.54Z" fill="#486688"/><path d="M6,23C2.69,23,0,25.69,0,29L0,45C0,48.31,2.69,51,6,51L84,51C87.31,51,90,48.31,90,45L90,29C90,25.69,87.31,23,84,23Z" fill="#324660"/><path d="M2,49.47C0.77,48.37,0,46.77,0,45L0,29C0,26.03,2.16,23.56,5,23.08L5,39.04C5,42.75,3.95,46.36,2,49.47Z" fill="#486688"/><path d="M90,29L90,45C90,46.77,89.23,48.37,88,49.47C86.05,46.36,85,42.75,85,39.04L85,23.08C87.84,23.56,90,26.03,90,29Z" fill="#486688"/><path d="M0,29C0,25.69,2.69,23,6,23L7,23C3.74,23.66,1.32,26.4,1.06,29.72L0,43.16Z" fill="#749BBF"/><path d="M90,29C90,25.69,87.31,23,84,23L83,23C86.59,24,89.14,27.18,89.34,30.9L90,43.16Z" fill="#749BBF"/><path d="M28.6,81.11C39.49,79.71,50.51,79.71,61.4,81.11C64.59,81.52,67.51,83.11,69.58,85.56L71,87.23L70.72,87.29C62.26,89.09,53.64,90,45,90C36.36,90,27.74,89.09,19.28,87.29L19,87.23L20.42,85.56C22.49,83.11,25.41,81.52,28.6,81.11Z" fill="#DAD8D6"/><path d="M28.6,81.11C39.49,79.71,50.51,79.71,61.4,81.11C64.59,81.52,67.51,83.11,69.58,85.56L71,87.23L67.66,84.79C65.59,83.28,63.16,82.32,60.61,82.01L57.03,81.58C49.04,80.61,40.96,80.61,32.97,81.58L29.39,82.01C26.84,82.32,24.41,83.28,22.34,84.79L19,87.23L20.42,85.56C22.49,83.11,25.41,81.52,28.6,81.11Z" fill="#F1F1F1"/><path d="M17,5C11.48,5,7,9.48,7,15L7,62.5C7,68.02,11.48,72.5,17,72.5L73,72.5C78.52,72.5,83,68.02,83,62.5L83,15C83,9.48,78.52,5,73,5Z" fill="#E7E6E5"/><path d="M7,15C7,9.48,11.48,5,17,5L59,5L18.19,6.05C13.03,6.18,8.81,10.22,8.46,15.37L7,37Z" fill="#F8F8F8"/><path d="M83,62.5C83,68.02,78.52,72.5,73,72.5L31,72.5L71.81,71.45C76.97,71.32,81.19,67.28,81.54,62.13L83,40.5Z" fill="#F8F8F8"/><path d="M19,13C16.79,13,15,14.79,15,17L15,60.5C15,62.71,16.79,64.5,19,64.5L71,64.5C73.21,64.5,75,62.71,75,60.5L75,17C75,14.79,73.21,13,71,13Z" fill="#749BBF"/><path d="M20.33,16.16C19.23,16.16,18.33,17.05,18.33,18.16L18.33,59.34C18.33,60.45,19.23,61.34,20.33,61.34L69.67,61.34C70.77,61.34,71.67,60.45,71.67,59.34L71.67,18.16C71.67,17.05,70.77,16.16,69.67,16.16Z" fill="#AED0F0"/><path d="M18.33,18.16C18.33,17.05,19.23,16.16,20.33,16.16L68.68,16.16L30.18,18.43C25.27,18.71,21.3,22.53,20.82,27.42L18.33,52.55Z" fill="#D0E6FB" opacity="0.5"/><path d="M33.11,44.54C41.12,48.58,48.98,48.54,56.89,44.54C58.33,43.82,60.12,44.32,60.84,45.75C61.48,47.03,61.03,48.6,59.76,49.26C50,54.33,40.1,54.37,30.25,49.26C28.97,48.6,28.52,47.03,29.16,45.75C29.88,44.31,31.67,43.81,33.11,44.54Z" fill="#486688"/><path d="M39.63,31.79C39.63,34.76,37.54,37.16,35.09,37.16C32.52,37.16,30.45,34.76,30.45,31.79C30.45,28.82,32.54,26.42,35.09,26.42C37.54,26.32,39.63,28.82,39.63,31.79Z" fill="#486688"/><path d="M59.07,31.79C59.07,34.76,56.98,37.16,54.42,37.16C51.86,37.16,49.89,34.76,49.89,31.79C49.89,28.82,51.97,26.42,54.42,26.42C56.99,26.32,59.07,28.82,59.07,31.79Z" fill="#486688"/></svg>