<svg xmlns="http://www.w3.org/2000/svg" viewBox="0 0 90 90"><path d="M8,17C8,15.34,9.34,14,11,14L15,14C16.66,14,18,15.34,18,17L18,42L8,42Z" fill="#0069AB"/><path d="M11,14L15,14C15.96,14,16.81,14.45,17.36,15.15C16.16,16.21,14.6,16.81,12.97,16.81L8.01,16.81C8.11,15.24,9.41,14,11,14Z" fill="#008CD1"/><path d="M11,14C9.34,14,8,15.34,8,17L8,19.07L8.36,16.89C8.58,15.57,9.66,14.55,11,14.4L14.79,14Z" fill="#009FD9"/><path d="M62.72,8.55L65.82,16.03C66.44,17.53,67.9,18.5,69.52,18.5L80,18.5C84.42,18.5,88,22.08,88,26.5L88,72.5C88,76.92,84.42,80.5,80,80.5L10,80.5C5.58,80.5,2,76.92,2,72.5L2,26.5C2,22.08,5.58,18.5,10,18.5L20.48,18.5C22.1,18.5,23.56,17.53,24.18,16.03L27.28,8.55C27.81,7.27,28.82,6.26,30.1,5.74C39.64,1.79,50.36,1.79,59.9,5.74C61.18,6.26,62.19,7.27,62.72,8.55Z" fill="#8B8987"/><path d="M59.9,5.74C61.18,6.26,62.19,7.28,62.72,8.55L65.82,16.03C66.44,17.53,67.9,18.5,69.52,18.5L80,18.5C84.42,18.5,88,22.08,88,26.5L88,66.74L86.75,28.74C86.61,24.42,83.07,21,78.76,21L69.1,21C67.44,21,65.95,19.98,65.36,18.43L62.14,10.01C61.66,8.76,60.7,7.76,59.47,7.24C50.23,3.3,39.77,3.3,30.53,7.24C29.3,7.76,28.34,8.76,27.86,10.01L24.64,18.43C24.05,19.98,22.56,21,20.9,21L11.24,21C6.93,21,3.39,24.42,3.25,28.74L2,66.74L2,26.5C2,22.08,5.58,18.5,10,18.5L20.48,18.5C22.1,18.5,23.56,17.53,24.18,16.03L27.28,8.55C27.81,7.28,28.82,6.26,30.1,5.74C39.64,1.79,50.36,1.79,59.9,5.74Z" fill="#BEBDB9"/><path d="M35.3,9.95L37.6,9.61C42.51,8.87,47.49,8.87,52.4,9.61L54.7,9.95C55.41,10.06,56.01,10.54,56.27,11.21L58.55,17.14L31.45,17.14L33.73,11.21C33.99,10.54,34.59,10.06,35.3,9.95Z" fill="#4DC3EA"/><path d="M52.4,9.61L54.7,9.95C55.41,10.06,56.01,10.54,56.27,11.21L57.99,15.68L56.32,12.52C56.02,11.96,55.48,11.57,54.85,11.47L52.4,11.11C47.49,10.37,42.51,10.37,37.6,11.11L35.15,11.47C34.52,11.57,33.98,11.96,33.68,12.52L32.01,15.68L33.73,11.21C33.99,10.54,34.59,10.06,35.3,9.95L37.6,9.61C42.51,8.87,47.49,8.87,52.4,9.61Z" fill="#83DEFC"/><path d="M74.33,49.5C74.33,33.3,61.2,20.17,45,20.17C28.8,20.17,15.67,33.3,15.67,49.5C15.67,65.7,28.8,78.83,45,78.83C61.2,78.83,74.33,65.7,74.33,49.5Z" fill="#4B4847" opacity="0.3"/><path d="M88,72.5C88,76.92,84.42,80.5,80,80.5L24.11,80.5L78.24,79.37C82.33,79.28,85.7,76.12,86.04,72.04L88,48.5Z" fill="#BEBDB9"/><path d="M70,53.5C70,39.14,58.81,27.5,45,27.5C31.19,27.5,20,39.14,20,53.5C20,67.86,31.19,79.5,45,79.5C58.81,79.5,70,67.86,70,53.5Z" fill="#4B4847"/><path d="M71,49.5C71,35.14,59.36,23.5,45,23.5C30.64,23.5,19,35.14,19,49.5C19,63.86,30.64,75.5,45,75.5C59.36,75.5,71,63.86,71,49.5Z" fill="#BEBDB9"/><path d="M70.15,42.88C66.65,32.55,56.71,25.1,45,25.1C33.29,25.1,23.35,32.55,19.85,42.88C22.78,31.73,32.93,23.5,45,23.5C57.07,23.5,67.22,31.73,70.15,42.88Z" fill="#F1F1F1"/><path d="M64,49.5C64,39.01,55.49,30.5,45,30.5C34.51,30.5,26,39.01,26,49.5C26,59.99,34.51,68.5,45,68.5C55.49,68.5,64,59.99,64,49.5Z" fill="#4DC3EA"/><path d="M64,49.5C64,49.77,63.99,50.04,63.98,50.31C62.31,42.05,54.45,35.79,45,35.79C35.55,35.79,27.69,42.04,26.02,50.31C26.01,50.04,26,49.77,26,49.5C26,39.01,34.51,30.5,45,30.5C55.49,30.5,64,39.01,64,49.5Z" fill="#009FD9" opacity="0.9"/><path d="M45,68.5C34.94,68.5,26.71,60.68,26.04,50.79C28.71,58.3,36.19,63.71,45,63.71C53.81,63.71,61.29,58.3,63.96,50.79C63.29,60.68,55.06,68.5,45,68.5Z" fill="#83DEFC" opacity="0.9"/><path d="M64,49.5C64,59.99,55.49,68.5,45,68.5C34.51,68.5,26,59.99,26,49.5C26,43.34,28.93,37.87,33.47,34.4C29.81,37.65,27.5,42.43,27.5,47.75C27.5,57.55,35.34,65.5,45,65.5C54.66,65.5,62.5,57.55,62.5,47.75C62.5,42.43,60.19,37.65,56.53,34.4C61.07,37.87,64,43.34,64,49.5Z" fill="#666564"/><path d="M78.45,33.5C75.97,33.5,74.05,31.49,74.05,29C74.05,26.51,76.08,24.5,78.45,24.5C80.94,24.42,82.95,26.51,82.95,29C82.95,31.49,80.92,33.5,78.45,33.5Z" fill="#4B4847"/><path d="M78.45,32C76.22,32,74.5,30.21,74.5,28C74.5,25.79,76.32,24,78.45,24C80.69,23.93,82.5,25.79,82.5,28C82.5,30.21,80.68,32,78.45,32Z" fill="#F7C631"/><path d="M82.5,28C82.5,28.14,82.49,28.28,82.48,28.41C82.27,26.77,80.55,25.44,78.45,25.5C76.45,25.5,74.73,26.78,74.52,28.42C74.51,28.28,74.5,28.14,74.5,28C74.5,25.79,76.32,24,78.45,24C80.69,23.93,82.5,25.79,82.5,28Z" fill="#FAD541"/></svg>