<svg xmlns="http://www.w3.org/2000/svg" viewBox="0 0 90 90"><path d="M26,0C21.03,0,17,4.03,17,9L17,81C17,85.97,21.03,90,26,90L68,90C72.97,90,77,85.97,77,81L77,9C77,4.03,72.97,0,68,0Z" fill="#4B4847"/><path d="M26,0L47,0L26.98,1.43C22.43,1.76,18.84,5.43,18.63,9.99L17,45L17,9C17,4.03,21.03,0,26,0Z" fill="#666564"/><path d="M68,90L47,90L67.02,88.57C71.57,88.24,75.16,84.57,75.37,80.01L77,45L77,81C77,85.97,72.97,90,68,90Z" fill="#666564"/><path d="M26,6C24.34,6,23,7.34,23,9L23,81C23,82.66,24.34,84,26,84L68,84C69.66,84,71,82.66,71,81L71,9C71,7.34,69.66,6,68,6Z" fill="#312E2B"/><path d="M26,6C24.34,6,23,7.34,23,9L23,81C23,82.66,24.34,84,26,84L68,84C69.66,84,71,82.66,71,81L71,9C71,7.34,69.66,6,68,6Z" fill="#312E2B"/><path d="M57.73,6C57.73,9.05,55.26,11.53,52.21,11.53L41.79,11.53C38.74,11.53,36.27,9.05,36.27,6Z" fill="#262421"/><path d="M38.5,10L49.5,10C50.33,10,51,10.67,51,11.5C51,12.33,50.33,13,49.5,13L38.5,13C37.67,13,37,12.33,37,11.5C37,10.67,37.67,10,38.5,10Z" fill="#666564"/><path d="M38.5,14L44.5,14C45.33,14,46,14.67,46,15.5C46,16.33,45.33,17,44.5,17L38.5,17C37.67,17,37,16.33,37,15.5C37,14.67,37.67,14,38.5,14Z" fill="#4B4847"/><path d="M38.5,73L55.5,73C56.33,73,57,73.67,57,74.5C57,75.33,56.33,76,55.5,76L38.5,76C37.67,76,37,75.33,37,74.5C37,73.67,37.67,73,38.5,73Z" fill="#666564"/><path d="M38.5,77L50.5,77C51.33,77,52,77.67,52,78.5C52,79.33,51.33,80,50.5,80L38.5,80C37.67,80,37,79.33,37,78.5C37,77.67,37.67,77,38.5,77Z" fill="#4B4847"/><path d="M28,10L33,10C33.55,10,34,10.45,34,11L34,16C34,16.55,33.55,17,33,17L28,17C27.45,17,27,16.55,27,16L27,11C27,10.45,27.45,10,28,10Z" fill="#8B8987"/><path d="M29,73L34,73C34.55,73,35,73.45,35,74L35,79C35,79.55,34.55,80,34,80L29,80C28.45,80,28,79.55,28,79L28,74C28,73.45,28.45,73,29,73Z" fill="#8B8987"/><path d="M59,21L59,33L47,33L47,21Z" fill="#FBEBC1"/><path d="M23,21L23,33L35,33L35,45L23,45L23,57L35,57L35,69L47,69L47,57L59,57L59,45L47,45L47,33L35,33L35,21Z" fill="#FBEBC1"/><path d="M47,57L35,57L35,45L47,45Z" fill="#FBEBC1"/><path d="M71,45L71,33L59,33L59,45Z" fill="#FBEBC1"/><path d="M71,69L71,57L59,57L59,69Z" fill="#FBEBC1"/><path d="M47,21L47,33L59,33L59,45L47,45L47,33L35,33L35,45L47,45L47,57L59,57L59,69L47,69L47,57L35,57L35,69L23,69L23,57L35,57L35,45L23,45L23,33L35,33L35,21Z" fill="#81B64C"/><path d="M59,21L59,33L71,33L71,21Z" fill="#81B64C"/><path d="M59,45L59,57L71,57L71,45Z" fill="#81B64C"/></svg>