<svg xmlns="http://www.w3.org/2000/svg" viewBox="0 0 90 90"><path d="M13,9C8.58,9,5,12.58,5,17L5,77C5,81.42,8.58,85,13,85L77,85C81.42,85,85,81.42,85,77L85,17C85,12.58,81.42,9,77,9Z" fill="#666564"/><path d="M42,80.66L42,85L36,85L36,80.66Z" fill="#312E2B"/><path d="M30,80.66L30,85L24,85L24,80.66Z" fill="#312E2B"/><path d="M54,80.66L54,85L48,85L48,80.66Z" fill="#312E2B"/><path d="M66,80.66L66,85L60,85L60,80.66Z" fill="#312E2B"/><path d="M13,5C8.58,5,5,8.58,5,13L5,73C5,77.42,8.58,81,13,81L77,81C81.42,81,85,77.42,85,73L85,13C85,8.58,81.42,5,77,5Z" fill="#DAD8D6"/><path d="M13,5L75,5L5,75L5,13C5,8.58,8.58,5,13,5Z" fill="#E7E6E5"/><path d="M5,55C5.93,45.92,6.14,38.46,6.34,31C6.47,26.06,6.61,21.13,6.95,15.72C7.27,10.72,11.42,6.88,16.42,6.73L72,5L13,5C8.58,5,5,8.58,5,13Z" fill="white"/><path d="M85,39C84.26,46.63,84.1,52.89,83.94,59.16C83.82,63.93,83.7,68.7,83.32,74.07C83.11,77.07,80.63,79.39,77.61,79.49L32,81L77,81C81.42,81,85,77.42,85,73Z" fill="white"/><path d="M30,5L30,12L36,12L36,5L42,5L42,12L48,12L48,5L54,5L54,12L60,12L60,5L66,5L66,12L76,12C77.1,12,78,12.9,78,14L78,22L85,22L85,28L78,28L78,34L85,34L85,40L78,40L78,46L85,46L85,52L78,52L78,58L85,58L85,64L78,64L78,72C78,73.1,77.1,74,76,74L66,74L66,81L60,81L60,74L54,74L54,81L48,81L48,74L42,74L42,81L36,81L36,74L30,74L30,81L24,81L24,74L14,74C12.9,74,12,73.1,12,72L12,64L5,64L5,58L12,58L12,52L5,52L5,46L12,46L12,40L5,40L5,34L12,34L12,28L5,28L5,22L12,22L12,14C12,12.9,12.9,12,14,12L24,12L24,5Z" fill="#4B4847"/><path d="M27,21C24.79,21,23,22.79,23,25L23,61C23,63.21,24.79,65,27,65L63,65C65.21,65,67,63.21,67,61L67,25C67,22.79,65.21,21,63,21Z" fill="#DAD8D6"/><path d="M45,26L45,43L62,43L62,26Z" fill="#666564"/><path d="M28,43L28,60L45,60L45,43Z" fill="#666564"/><path d="M23,51C23.52,45.55,23.76,41.28,24,37C24.19,33.66,24.38,30.32,24.7,26.42C24.86,24.46,26.46,22.92,28.43,22.8L60,21L27,21C24.79,21,23,22.79,23,25Z" fill="white"/><path d="M67,35C66.48,40.45,66.24,44.72,66,49C65.81,52.34,65.62,55.68,65.3,59.58C65.14,61.54,63.54,63.08,61.57,63.2L30,65L63,65C65.21,65,67,63.21,67,61Z" fill="white"/></svg>