<svg xmlns="http://www.w3.org/2000/svg" viewBox="0 0 90 90"><path d="M84,63L89.82,80.47C89.94,80.82,90,81.19,90,81.56C90,83.46,88.46,85,86.56,85L3.44,85C1.54,85,0,83.46,0,81.56C0,81.19,0.06,80.82,0.18,80.47L6,63Z" fill="currentColor"/><path d="M38.4,79L51.6,79C53.01,79,54.31,79.77,55,81L35,81C35.69,79.77,36.99,79,38.4,79Z" fill="currentColor"/><path d="M11,65L79,65C79.47,65,79.88,65.33,79.98,65.79L81.73,73.79C81.87,74.41,81.4,75,80.76,75L44.51,75L9.24,75C8.6,75,8.13,74.41,8.27,73.79L10.02,65.79C10.12,65.33,10.53,65,11,65Z" fill="currentColor"/><path d="M12,5L78,5C81.31,5,84,7.69,84,11L84,63L6,63L6,11C6,7.69,8.69,5,12,5Z" fill="currentColor"/><path d="M6,11C6,7.69,8.69,5,12,5L65,5L17.02,6.32C12.05,6.46,7.91,10.23,7.6,15.19C7,24.93,7.29,32.92,6,44Z" fill="currentColor"/><path d="M45,85L45,81L8.07,81C4.85,81,2.47,77.99,3.21,74.85L6,63L0.18,80.47C0.06,80.82,0,81.19,0,81.56C0,83.46,1.54,85,3.44,85Z" fill="currentColor"/><path d="M45,85L45,81L81.93,81C85.15,81,87.53,77.99,86.79,74.85L84,63L89.82,80.47C89.94,80.82,90,81.19,90,81.56C90,83.46,88.46,85,86.56,85Z" fill="currentColor"/><path d="M37,83L53,83C54.1,83,55,82.1,55,81L35,81C35,82.1,35.9,83,37,83Z" fill="currentColor"/><path d="M13,11C12.45,11,12,11.45,12,12L12,56C12,56.55,12.45,57,13,57L77,57C77.55,57,78,56.55,78,56L78,12C78,11.45,77.55,11,77,11Z" fill="currentColor"/><path d="M12,12C12,11.45,12.45,11,13,11L60.51,11C37.48,13.65,18.38,30.03,12.24,52.38L12,53.25Z" fill="currentColor" opacity="0.5"/><path d="M50.33,42.07L55.84,42.07C56.49,40.87,56.81,39.76,56.81,38.37L50.57,34.24C52.73,32.66,54.15,30.09,54.15,27.2C54.15,23.55,51.91,20.43,48.74,19.14C47.74,18.73,40.66,42.07,40.66,42.07C40.64,42.61,40.63,43.31,40.63,44.15C40.63,46.47,46.31,46.12,46.01,48.17C45.55,51.23,45.46,53.56,42.83,60.91C41.06,65.88,29.24,60.91,28.4,63.35C27.81,65.05,27.5,66.95,27.5,69C27.5,69.21,27.97,72.5,45.5,72.5C63.03,72.5,63.5,69.21,63.5,69C63.5,64.01,61.65,59.89,58.48,57.47L58.48,57.47C49.44,50.55,50.45,44.54,50.33,42.07Z" fill="currentColor"/><path d="M47.55,48.54C48.2,44.99,42.84,44.35,40.64,44.03C40.54,47.06,39.7,51.98,32.52,57.48C30.58,58.95,29.14,61.08,28.31,63.64C30.24,64.59,32.83,65.16,36.82,65.16C39.37,65.16,44.11,65.47,45.18,60.59L45.18,60.58C46.15,56.13,47.02,51.38,47.55,48.54Z" fill="currentColor"/><path d="M49.68,38.37L46.15,34.24C49.91,32.62,52.17,29.59,52.17,26.06C52.17,23.24,50.84,20.73,48.77,19.14C47.76,18.73,46.66,18.5,45.5,18.5C40.72,18.5,36.85,22.39,36.85,27.19C36.85,30.09,38.27,32.65,40.43,34.23L34.19,38.37C34.19,39.75,34.51,40.87,35.16,42.07L48.94,42.07L48.94,42.07C49.8,39.86,49.68,38.37,49.68,38.37Z" fill="currentColor"/><path d="M40.41,26.6C38.22,26.34,40.33,19.55,45.01,20.28C50,21.06,42.71,26.88,40.41,26.6Z" fill="currentColor"/></svg>