<svg xmlns="http://www.w3.org/2000/svg" viewBox="0 0 90 90"><path d="M16.75,0C13.02,0,10,3.02,10,6.75L10,83.25C10,86.98,13.02,90,16.75,90L73.25,90C76.98,90,80,86.98,80,83.25L80,6.75C80,3.02,76.98,0,73.25,0Z" fill="currentColor"/><path d="M10,6.75C10,3.02,13.02,0,16.75,0L34.84,0L20.98,0.58C15.28,0.81,10.66,5.27,10.54,10.97C10.44,15.32,10.41,19.49,10,24.75Z" fill="currentColor"/><path d="M19.23,7C18,7,17,8,17,9.23L17,80.77C17,82,18,83,19.23,83L70.77,83C72,83,73,82,73,80.77L73,9.23C73,8,72,7,70.77,7Z" fill="currentColor"/><path d="M17,9.23C17,8,18,7,19.23,7L49.31,7C34.01,10.73,22.59,23.5,20.57,39.11L17,66.71Z" fill="currentColor" opacity="0.5"/></svg>