<svg xmlns="http://www.w3.org/2000/svg" viewBox="0 0 90 90"><path d="M84,63L89.82,80.47C89.94,80.82,90,81.19,90,81.56C90,83.46,88.46,85,86.56,85L3.44,85C1.54,85,0,83.46,0,81.56C0,81.19,0.06,80.82,0.18,80.47L6,63Z" fill="#666564"/><path d="M38.4,79L51.6,79C53.01,79,54.31,79.77,55,81L35,81C35.69,79.77,36.99,79,38.4,79Z" fill="#4B4847"/><path d="M11,65L79,65C79.47,65,79.88,65.33,79.98,65.79L81.73,73.79C81.87,74.41,81.4,75,80.76,75L44.51,75L9.24,75C8.6,75,8.13,74.41,8.27,73.79L10.02,65.79C10.12,65.33,10.53,65,11,65Z" fill="#4B4847"/><path d="M12,5L78,5C81.31,5,84,7.69,84,11L84,63L6,63L6,11C6,7.69,8.69,5,12,5Z" fill="#4B4847"/><path d="M6,11C6,7.69,8.69,5,12,5L65,5L17.02,6.32C12.05,6.46,7.91,10.23,7.6,15.19C7,24.93,7.29,32.92,6,44Z" fill="#666564"/><path d="M45,85L45,81L8.07,81C4.85,81,2.47,77.99,3.21,74.85L6,63L0.18,80.47C0.06,80.82,0,81.19,0,81.56C0,83.46,1.54,85,3.44,85Z" fill="#8B8987"/><path d="M45,85L45,81L81.93,81C85.15,81,87.53,77.99,86.79,74.85L84,63L89.82,80.47C89.94,80.82,90,81.19,90,81.56C90,83.46,88.46,85,86.56,85Z" fill="#8B8987"/><path d="M37,83L53,83C54.1,83,55,82.1,55,81L35,81C35,82.1,35.9,83,37,83Z" fill="#666564"/><path d="M13,11C12.45,11,12,11.45,12,12L12,56C12,56.55,12.45,57,13,57L77,57C77.55,57,78,56.55,78,56L78,12C78,11.45,77.55,11,77,11Z" fill="#312E2B"/><path d="M12,12C12,11.45,12.45,11,13,11L60.51,11C37.48,13.65,18.38,30.03,12.24,52.38L12,53.25Z" fill="#4B4847" opacity="0.5"/><path d="M45,14L45,24L35,24L35,34L25,34L25,44L35,44L35,34L45,34L45,44L35,44L35,54L25,54L25,44L15,44L15,34L25,34L25,24L15,24L15,14L25,14L25,24L35,24L35,14Z" fill="#FBEBC1"/><path d="M55,34L55,24L45,24L45,34Z" fill="#FBEBC1"/><path d="M55,54L55,44L45,44L45,54Z" fill="#FBEBC1"/><path d="M35,14L35,24L45,24L45,34L35,34L35,24L25,24L25,34L35,34L35,44L45,44L45,54L35,54L35,44L25,44L25,54L15,54L15,44L25,44L25,34L15,34L15,24L25,24L25,14Z" fill="#81B64C"/><path d="M45,14L45,24L55,24L55,14Z" fill="#81B64C"/><path d="M45,34L45,44L55,44L55,34Z" fill="#81B64C"/><path d="M67.5,14L74.5,14C75.33,14,76,14.67,76,15.5C76,16.33,75.33,17,74.5,17L67.5,17C66.67,17,66,16.33,66,15.5C66,14.67,66.67,14,67.5,14Z" fill="#666564"/><path d="M67.5,18L73.5,18C74.33,18,75,18.67,75,19.5C75,20.33,74.33,21,73.5,21L67.5,21C66.67,21,66,20.33,66,19.5C66,18.67,66.67,18,67.5,18Z" fill="#4B4847"/><path d="M59,14L64,14C64.55,14,65,14.45,65,15L65,20C65,20.55,64.55,21,64,21L59,21C58.45,21,58,20.55,58,20L58,15C58,14.45,58.45,14,59,14Z" fill="#8B8987"/><path d="M59.5,51L63.5,51C64.33,51,65,51.67,65,52.5C65,53.33,64.33,54,63.5,54L59.5,54C58.67,54,58,53.33,58,52.5C58,51.67,58.67,51,59.5,51Z" fill="#8B8987"/><path d="M74,51C74.83,51,75.5,51.67,75.5,52.5C75.5,53.33,74.83,54,74,54C73.17,54,72.5,53.33,72.5,52.5C72.5,51.67,73.17,51,74,51Z" fill="#8B8987" opacity="0.5"/><path d="M59,49L74,49C74.55,49,75,48.55,75,48L75,44.5C75,43.95,74.55,43.5,74,43.5L59,43.5C58.45,43.5,58,43.95,58,44.5L58,48C58,48.55,58.45,49,59,49Z" fill="#81B64C"/></svg>