<svg xmlns="http://www.w3.org/2000/svg" viewBox="0 0 90 90"><path d="M11,5C7.69,5,5,7.69,5,11L5,57C5,60.31,7.69,63,11,63L79,63C82.31,63,85,60.31,85,57L85,11C85,7.69,82.31,5,79,5Z" fill="currentColor"/><path d="M11,8C7.69,8,5,10.69,5,14L5,60C5,63.31,7.69,66,11,66L79,66C82.31,66,85,63.31,85,60L85,14C85,10.69,82.31,8,79,8Z" fill="currentColor"/><path d="M11,5C7.69,5,5,7.69,5,11L5,57C5,60.31,7.69,63,11,63L79,63C82.31,63,85,60.31,85,57L85,11C85,7.69,82.31,5,79,5Z" fill="currentColor"/><path d="M85,57C85,60.31,82.31,63,79,63L54,63L73.3,60.86C77.83,60.35,81.45,56.85,82.1,52.33L85,32Z" fill="currentColor"/><path d="M5,11C5,7.69,7.69,5,11,5L64.37,5L59.48,5.29C30.63,7.03,7.43,29.67,5,58.47Z" fill="currentColor" opacity="0.5"/><path d="M5,11C5,7.69,7.69,5,11,5L18,5L14.41,5.16C9.34,5.39,5.35,9.38,5.21,14.46C5.18,15.86,5.12,17.33,5,19Z" fill="currentColor"/><path d="M41.71,63C43.86,60.51,45.5,57.37,45.88,52.66L46.12,49.81L39.4,49.81C38.56,48.39,38.2,46.73,38.2,45.07L46.12,40.33C42.16,37.73,40.48,34.17,40.48,30.38C40.48,24.1,45.64,19,52,19C58.36,19,63.52,24.1,63.52,30.38C63.52,34.41,62.2,37.37,57.88,40.21L65.8,45.07C65.8,46.73,65.44,48.39,64.6,49.81L57.88,49.81L58.12,52.66C58.5,57.37,60.14,60.51,62.29,63Z" fill="currentColor"/><path d="M51.21,47.74L58.86,47.74C59.76,46.07,60.21,44.53,60.21,42.6L51.54,36.86C54.55,34.66,56.52,31.1,56.52,27.08C56.52,22.02,53.41,17.67,49,15.89C47.61,15.32,37.78,47.74,37.78,47.74C37.75,48.48,37.74,49.46,37.74,50.62C37.74,53.85,45.62,53.36,45.2,56.2C44.57,60.46,44.44,63.69,40.79,73.9C38.33,80.8,21.92,73.9,20.75,77.29C19.94,79.65,19.5,82.29,19.5,85.13C19.5,85.43,20.16,90,44.5,90C68.84,90,69.5,85.43,69.5,85.13C69.5,78.2,66.92,72.49,62.53,69.12L62.52,69.12C49.98,59.51,51.37,51.17,51.21,47.74Z" fill="currentColor"/><path d="M47.34,56.72C48.25,51.79,40.8,50.9,37.75,50.46C37.61,54.66,36.44,61.5,26.47,69.13C23.78,71.19,21.78,74.14,20.62,77.7C23.31,79.01,26.9,79.8,32.44,79.8C35.99,79.8,42.57,80.23,44.05,73.46L44.05,73.44C45.41,67.26,46.61,60.66,47.34,56.72Z" fill="currentColor"/><path d="M50.31,42.6L45.4,36.86C50.63,34.61,53.77,30.41,53.77,25.5C53.77,21.59,51.91,18.1,49.04,15.89C47.63,15.32,46.11,15,44.5,15C37.86,15,32.48,20.41,32.48,27.07C32.48,31.1,34.45,34.65,37.46,36.85L28.79,42.59C28.79,44.52,29.24,46.06,30.14,47.73L49.28,47.73L49.28,47.74C50.47,44.66,50.31,42.6,50.31,42.6Z" fill="currentColor"/><path d="M37.43,26.25C34.39,25.89,37.32,16.45,43.82,17.47C50.75,18.55,40.62,26.63,37.43,26.25Z" fill="currentColor"/></svg>