<svg xmlns="http://www.w3.org/2000/svg" viewBox="0 0 90 90"><path d="M84,63L89.82,80.47C89.94,80.82,90,81.19,90,81.56C90,83.46,88.46,85,86.56,85L3.44,85C1.54,85,0,83.46,0,81.56C0,81.19,0.06,80.82,0.18,80.47L6,63Z" fill="currentColor"/><path d="M38.4,79L51.6,79C53.01,79,54.31,79.77,55,81L35,81C35.69,79.77,36.99,79,38.4,79Z" fill="currentColor"/><path d="M11,65L79,65C79.47,65,79.88,65.33,79.98,65.79L81.73,73.79C81.87,74.41,81.4,75,80.76,75L44.51,75L9.24,75C8.6,75,8.13,74.41,8.27,73.79L10.02,65.79C10.12,65.33,10.53,65,11,65Z" fill="currentColor"/><path d="M12,5L78,5C81.31,5,84,7.69,84,11L84,63L6,63L6,11C6,7.69,8.69,5,12,5Z" fill="currentColor"/><path d="M6,11C6,7.69,8.69,5,12,5L65,5L17.02,6.32C12.05,6.46,7.91,10.23,7.6,15.19C7,24.93,7.29,32.92,6,44Z" fill="currentColor"/><path d="M45,85L45,81L8.07,81C4.85,81,2.47,77.99,3.21,74.85L6,63L0.18,80.47C0.06,80.82,0,81.19,0,81.56C0,83.46,1.54,85,3.44,85Z" fill="currentColor"/><path d="M45,85L45,81L81.93,81C85.15,81,87.53,77.99,86.79,74.85L84,63L89.82,80.47C89.94,80.82,90,81.19,90,81.56C90,83.46,88.46,85,86.56,85Z" fill="currentColor"/><path d="M37,83L53,83C54.1,83,55,82.1,55,81L35,81C35,82.1,35.9,83,37,83Z" fill="currentColor"/><path d="M13,11C12.45,11,12,11.45,12,12L12,56C12,56.55,12.45,57,13,57L77,57C77.55,57,78,56.55,78,56L78,12C78,11.45,77.55,11,77,11Z" fill="currentColor"/><path d="M12,12C12,11.45,12.45,11,13,11L60.51,11C37.48,13.65,18.38,30.03,12.24,52.38L12,53.25Z" fill="currentColor" opacity="0.5"/></svg>