<svg xmlns="http://www.w3.org/2000/svg" viewBox="0 0 90 90"><path d="M23.31,0L66.69,0C71.28,0,75,3.72,75,8.31L75,81.69C75,86.28,71.28,90,66.69,90L23.31,90C18.72,90,15,86.28,15,81.69L15,8.31C15,3.72,18.72,0,23.31,0Z" fill="currentColor"/><path d="M75,81.69C75,86.28,71.28,90,66.69,90L42,90L61.43,89.25C68.42,88.98,74.12,83.54,74.29,76.54C74.42,71.17,74.46,66.03,75,59.54Z" fill="currentColor"/><path d="M15,8.31C15,3.72,18.72,0,23.31,0L48,0L28.57,0.75C21.58,1.02,15.88,6.46,15.71,13.46C15.58,18.83,15.54,23.97,15,30.46Z" fill="currentColor"/><path d="M24,7L66,7C67.1,7,68,7.9,68,9L68,81C68,82.1,67.1,83,66,83L24,83C22.9,83,22,82.1,22,81L22,9C22,7.9,22.9,7,24,7Z" fill="currentColor"/><path d="M68,80.23C68,81.76,66.76,83,65.23,83L34.27,83L54.41,82.24C61.4,81.98,67.1,76.55,67.27,69.56C67.4,64.2,67.45,59.08,68,52.6Z" fill="currentColor" opacity="0.5"/><path d="M22,9.77C22,8.24,23.24,7,24.77,7L55.5,7C24.77,19.5,26.23,50.07,22,80.24Z" fill="currentColor" opacity="0.5"/><path d="M55.73,7C55.73,10.05,53.26,12.53,50.21,12.53L39.79,12.53C36.74,12.53,34.27,10.05,34.27,7Z" fill="currentColor"/><path d="M33.95,34C31.72,34,30,32.21,30,30C30,27.79,31.82,26,33.95,26C36.19,25.93,38,27.79,38,30C38,32.21,36.18,34,33.95,34Z" fill="currentColor"/><path d="M44.95,34C42.72,34,41,32.21,41,30C41,27.79,42.82,26,44.95,26C47.19,25.93,49,27.79,49,30C49,32.21,47.18,34,44.95,34Z" fill="currentColor"/><path d="M55.95,34C53.72,34,52,32.21,52,30C52,27.79,53.82,26,55.95,26C58.19,25.93,60,27.79,60,30C60,32.21,58.18,34,55.95,34Z" fill="currentColor"/><path d="M33.95,45C31.72,45,30,43.21,30,41C30,38.79,31.82,37,33.95,37C36.19,36.93,38,38.79,38,41C38,43.21,36.18,45,33.95,45Z" fill="currentColor"/><path d="M44.95,45C42.72,45,41,43.21,41,41C41,38.79,42.82,37,44.95,37C47.19,36.93,49,38.79,49,41C49,43.21,47.18,45,44.95,45Z" fill="currentColor"/><path d="M55.95,45C53.72,45,52,43.21,52,41C52,38.79,53.82,37,55.95,37C58.19,36.93,60,38.79,60,41C60,43.21,58.18,45,55.95,45Z" fill="currentColor"/><path d="M33.95,56C31.72,56,30,54.21,30,52C30,49.79,31.82,48,33.95,48C36.19,47.93,38,49.79,38,52C38,54.21,36.18,56,33.95,56Z" fill="currentColor"/><path d="M44.95,56C42.72,56,41,54.21,41,52C41,49.79,42.82,48,44.95,48C47.19,47.93,49,49.79,49,52C49,54.21,47.18,56,44.95,56Z" fill="currentColor"/><path d="M55.95,56C53.72,56,52,54.21,52,52C52,49.79,53.82,48,55.95,48C58.19,47.93,60,49.79,60,52C60,54.21,58.18,56,55.95,56Z" fill="currentColor"/><path d="M44.95,67C42.72,67,41,65.21,41,63C41,60.79,42.82,59,44.95,59C47.19,58.93,49,60.79,49,63C49,65.21,47.18,67,44.95,67Z" fill="currentColor"/></svg>