<svg xmlns="http://www.w3.org/2000/svg" viewBox="0 0 90 90"><path d="M12,22C8.13,22,5,25.13,5,29L5,65C5,68.87,8.13,72,12,72C15.87,72,19,68.87,19,65L19,29C19,25.13,15.87,22,12,22Z" fill="#305730"/><path d="M34,22C30.13,22,27,25.13,27,29L27,65C27,68.87,30.13,72,34,72C37.87,72,41,68.87,41,65L41,29C41,25.13,37.87,22,34,22Z" fill="#305730"/><path d="M56,22C52.13,22,49,25.13,49,29L49,65C49,68.87,52.13,72,56,72C59.87,72,63,68.87,63,65L63,29C63,25.13,59.87,22,56,22Z" fill="#666564"/><path d="M78,22C74.13,22,71,25.13,71,29L71,65C71,68.87,74.13,72,78,72C81.87,72,85,68.87,85,65L85,29C85,25.13,81.87,22,78,22Z" fill="#666564"/><path d="M12,20C8.13,20,5,23.13,5,27L5,63C5,66.87,8.13,70,12,70C15.87,70,19,66.87,19,63L19,27C19,23.13,15.87,20,12,20Z" fill="#81B64C"/><path d="M5,27C5,23.13,8.13,20,12,20C8.65,21.37,6.41,24.58,6.27,28.19L5,61Z" fill="#B2E068"/><path d="M34,20C30.13,20,27,23.13,27,27L27,63C27,66.87,30.13,70,34,70C37.87,70,41,66.87,41,63L41,27C41,23.13,37.87,20,34,20Z" fill="#81B64C"/><path d="M27,27C27,23.13,30.13,20,34,20C30.65,21.37,28.41,24.58,28.27,28.19L27,61Z" fill="#B2E068"/><path d="M27,27C27,23.13,30.13,20,34,20C30.65,21.37,28.41,24.58,28.27,28.19L27,61Z" fill="#B2E068"/><path d="M56,20C52.13,20,49,23.13,49,27L49,63C49,66.87,52.13,70,56,70C59.87,70,63,66.87,63,63L63,27C63,23.13,59.87,20,56,20Z" fill="#DAD8D6"/><path d="M49,27C49,23.13,52.13,20,56,20C52.65,21.37,50.41,24.58,50.27,28.19L49,61Z" fill="#F1F1F1"/><path d="M78,20C74.13,20,71,23.13,71,27L71,63C71,66.87,74.13,70,78,70C81.87,70,85,66.87,85,63L85,27C85,23.13,81.87,20,78,20Z" fill="#DAD8D6"/><path d="M71,27C71,23.13,74.13,20,78,20C74.65,21.37,72.41,24.58,72.27,28.19L71,61Z" fill="#F1F1F1"/></svg>