<svg xmlns="http://www.w3.org/2000/svg" viewBox="0 0 90 90"><path d="M11,5C7.69,5,5,7.69,5,11L5,79C5,82.31,7.69,85,11,85L61,85C64.31,85,67,82.31,67,79L67,11C67,7.69,64.31,5,61,5Z" fill="currentColor"/><path d="M5,11C5,7.69,7.69,5,11,5L27,5L14.75,5.51C9.69,5.72,5.59,9.69,5.48,14.75C5.39,18.62,5.36,22.32,5,27Z" fill="currentColor"/><path d="M12,10C10.9,10,10,10.9,10,12L10,78C10,79.1,10.9,80,12,80L60,80C61.1,80,62,79.1,62,78L62,12C62,10.9,61.1,10,60,10Z" fill="currentColor"/><path d="M60,80C60,66.1,46.2,68.2,45.1,54.4L44.9,52L50.5,52C51.2,50.8,51.5,49.4,51.5,48L44.9,43.9C48.5,41.5,49.6,39,49.6,35.6C49.6,30.3,45.3,26,40,26C34.7,26,30.4,30.3,30.4,35.6C30.4,38.8,31.8,41.8,35.1,44L28.5,48C28.5,49.4,28.8,50.8,29.5,52L35.1,52L34.9,54.4C33.8,68.2,20,66.1,20,80Z" fill="currentColor"/><path d="M10,12C10,10.9,10.9,10,12,10L40,10C25.8,13.44,15.18,25.27,13.29,39.76L10,65Z" fill="currentColor" opacity="0.5"/><path d="M51,20C47.69,20,45,22.69,45,26L45,79C45,82.31,47.69,85,51,85L79,85C82.31,85,85,82.31,85,79L85,26C85,22.69,82.31,20,79,20Z" fill="currentColor"/><path d="M85,79C85,82.31,82.31,85,79,85L63,85L75.25,84.49C80.31,84.28,84.41,80.31,84.52,75.25C84.61,71.38,84.64,67.68,85,63Z" fill="currentColor"/><path d="M45,26C45,22.69,47.69,20,51,20L67,20L54.75,20.51C49.69,20.72,45.59,24.69,45.48,29.75C45.39,33.62,45.36,37.32,45,42Z" fill="currentColor"/><path d="M52,25C50.9,25,50,25.9,50,27L50,78C50,79.1,50.9,80,52,80L78,80C79.1,80,80,79.1,80,78L80,27C80,25.9,79.1,25,78,25Z" fill="currentColor"/><path d="M53,28L53,77L77,77L77,28Z" fill="currentColor"/><path d="M80,78C80,79.1,79.1,80,78,80L58,80L70.25,79.49C75.31,79.28,79.41,75.31,79.52,70.25C79.61,66.38,79.64,62.68,80,58Z" fill="currentColor" opacity="0.5"/><path d="M53,28L69,28L55.43,30.65L53,69Z" fill="currentColor" opacity="0.5"/><path d="M72,26C72,28.21,70.21,30,68,30L62,30C59.79,30,58,28.21,58,26Z" fill="currentColor"/></svg>