<svg xmlns="http://www.w3.org/2000/svg" viewBox="0 0 90 90"><path d="M13,9C8.58,9,5,12.58,5,17L5,77C5,81.42,8.58,85,13,85L77,85C81.42,85,85,81.42,85,77L85,17C85,12.58,81.42,9,77,9Z" fill="currentColor"/><path d="M42,80.66L42,85L36,85L36,80.66Z" fill="currentColor"/><path d="M30,80.66L30,85L24,85L24,80.66Z" fill="currentColor"/><path d="M54,80.66L54,85L48,85L48,80.66Z" fill="currentColor"/><path d="M66,80.66L66,85L60,85L60,80.66Z" fill="currentColor"/><path d="M13,5C8.58,5,5,8.58,5,13L5,73C5,77.42,8.58,81,13,81L77,81C81.42,81,85,77.42,85,73L85,13C85,8.58,81.42,5,77,5Z" fill="currentColor"/><path d="M13,5L75,5L5,75L5,13C5,8.58,8.58,5,13,5Z" fill="currentColor"/><path d="M5,55C5.93,45.92,6.14,38.46,6.34,31C6.47,26.06,6.61,21.13,6.95,15.72C7.27,10.72,11.42,6.88,16.42,6.73L72,5L13,5C8.58,5,5,8.58,5,13Z" fill="currentColor"/><path d="M85,39C84.26,46.63,84.1,52.89,83.94,59.16C83.82,63.93,83.7,68.7,83.32,74.07C83.11,77.07,80.63,79.39,77.61,79.49L32,81L77,81C81.42,81,85,77.42,85,73Z" fill="currentColor"/><path d="M30,5L30,12L36,12L36,5L42,5L42,12L48,12L48,5L54,5L54,12L60,12L60,5L66,5L66,12L76,12C77.1,12,78,12.9,78,14L78,22L85,22L85,28L78,28L78,34L85,34L85,40L78,40L78,46L85,46L85,52L78,52L78,58L85,58L85,64L78,64L78,72C78,73.1,77.1,74,76,74L66,74L66,81L60,81L60,74L54,74L54,81L48,81L48,74L42,74L42,81L36,81L36,74L30,74L30,81L24,81L24,74L14,74C12.9,74,12,73.1,12,72L12,64L5,64L5,58L12,58L12,52L5,52L5,46L12,46L12,40L5,40L5,34L12,34L12,28L5,28L5,22L12,22L12,14C12,12.9,12.9,12,14,12L24,12L24,5Z" fill="currentColor"/><path d="M41.23,52.14C41.17,56.22,37.86,59.63,33.76,59.63L33.15,59.63L33.15,65L56.76,65L56.76,59.63L56.06,59.63C51.94,59.63,48.6,56.16,48.6,52.04L48.6,47.67L41.23,47.65Z" fill="currentColor"/><path d="M33.76,59.63L56.06,59.63C48.41,59.63,43.34,54.8,41.23,52.14C41.17,56.22,37.86,59.63,33.76,59.63Z" fill="currentColor"/><path d="M24.61,27.44C25.08,31.88,27.85,35.96,32.69,36.02L57.19,36.02C62.03,35.96,64.8,31.88,65.27,27.44Z" fill="currentColor"/><path d="M69.07,26.91C69.17,25.07,67.57,23.68,65.72,23.68L24.16,23.68C22.31,23.68,20.71,25.07,20.81,26.91C21.15,33.57,25.19,39.69,32.67,39.78L57.21,39.78C64.69,39.69,68.73,33.57,69.07,26.91Z" fill="currentColor"/><path d="M57.21,39.78L32.67,39.78C31.68,39.77,30.76,39.65,29.9,39.44C29.57,38.18,29.39,36.85,29.39,35.49L29.39,35.25C30.35,35.73,31.46,36.01,32.69,36.02L57.19,36.02C58.43,36.01,59.54,35.72,60.51,35.24L60.51,35.49C60.51,36.85,60.34,38.18,60.01,39.44C59.14,39.65,58.2,39.77,57.21,39.78Z" fill="currentColor"/><path d="M29.39,23.68L29.39,27.44L60.51,27.44L60.51,23.68Z" fill="currentColor"/><path d="M44.95,21L58.37,21L58.37,34.95C58.37,42.36,52.36,48.37,44.95,48.37C37.54,48.37,31.54,42.36,31.54,34.95L31.54,21Z" fill="currentColor"/><path d="M41.73,32.27C41.73,37.25,39.01,41.6,34.97,43.92C32.83,41.54,31.53,38.4,31.53,34.95L31.53,21L41.73,21Z" fill="currentColor"/><path d="M53,33.29C53,40.21,48.17,46.18,41.41,47.63L40.89,47.74C42.17,48.15,43.53,48.37,44.95,48.37C52.36,48.37,58.36,42.36,58.36,34.95L58.36,22.16L58.34,21L53,21Z" fill="currentColor"/></svg>