<svg xmlns="http://www.w3.org/2000/svg" viewBox="0 0 90 90"><path d="M58.63,68.9L54.17,31.2L54.67,31.01C58.95,29.42,61.12,26.81,61.69,22.53L62.76,9.43C62.76,9.43,56.64,6.95,53.45,6.95L53.02,6.95L49.49,17.95L45.43,17.95L43.47,5.53C43.47,5.53,39.28,4.95,36.55,4.95L36.53,4.95C33.79,4.95,29.61,5.53,29.61,5.53L27.65,17.95L23.59,17.95L20.06,6.95L19.63,6.95C16.44,6.95,10.32,9.43,10.32,9.43L11.39,22.51C11.97,26.79,14.13,29.42,18.41,31L18.91,31.19L14.45,68.89L14.14,68.91C7.2,68.91,5.03,78.07,5.05,84.95L68.05,84.95C68.07,78.06,66.05,69,59.11,69L59.09,69.01Z" fill="currentColor"/><path d="M58.63,68.9L54.17,31.2L54.67,31.01C58.95,29.42,61.12,26.81,61.69,22.53L62.74,9.69C62.73,9.63,62.72,9.6,62.72,9.6L61.97,9.13C61.2,8.84,59.95,8.39,58.57,7.97C57.49,14.5,56.06,23.88,52.97,26.57C50.01,29.14,48.21,29.74,47.76,29.86C46.9,29.75,45.98,29.65,44.98,29.56C35.88,28.74,22.63,31.31,22.63,31.31L30.71,32.44L16.76,84.95L68.04,84.95C68.06,78.06,66.04,69,59.1,69L59.09,69.01Z" fill="currentColor" opacity="0.5"/><path d="M66.52,75.32C65.86,73.54,64.96,71.99,63.75,70.86C62.41,70.07,60.84,69.47,59.29,69.03C59.22,69.03,59.15,69.01,59.08,69.01L58.62,68.9L58.62,68.84C55.16,67.94,51.94,67.76,51.64,67.75L14.42,68.9L14.11,68.92C10.38,68.92,8.04,71.58,6.66,75.09C12.16,73.32,18.97,73.1,19.42,73.08L54.38,73.08C54.85,73.1,61.23,73.41,66.52,75.32Z" fill="currentColor"/><path d="M65.99,74.06C65.98,74.04,65.97,74.01,65.96,73.99C65.77,73.6,65.57,73.22,65.36,72.87C65.36,72.85,65.34,72.84,65.33,72.83C65.11,72.46,64.87,72.12,64.61,71.79C64.35,71.46,64.06,71.15,63.76,70.87C62.42,70.08,60.85,69.48,59.3,69.04C59.27,69.04,59.24,69.04,59.21,69.04C59.17,69.04,59.14,69.04,59.1,69.04L58.87,68.99L58.64,68.94L58.64,68.88C55.18,67.98,51.96,67.8,51.66,67.79L21.08,68.73L19.91,73.12L54.39,73.12C54.86,73.14,61.24,73.45,66.53,75.36L66.52,75.32C66.36,74.88,66.18,74.46,65.99,74.06Z" fill="currentColor"/><path d="M10.3,9.44L11.37,22.52C11.68,24.81,12.46,26.61,13.75,28.05C13.6,26.99,11.77,13,16.66,7.39L16.67,7.38C13.64,8.09,10.3,9.44,10.3,9.44Z" fill="currentColor"/><path d="M36.54,4.96L36.52,4.96C33.78,4.96,29.6,5.55,29.6,5.55L27.73,17.36C28.14,15.9,30.92,6.89,37.2,4.97C36.98,4.97,36.75,4.96,36.54,4.96Z" fill="currentColor"/><path d="M53.44,6.96L53.01,6.96L49.75,17.12C50.62,15.42,53.56,10.08,57.3,7.61C55.91,7.24,54.51,6.96,53.44,6.96Z" fill="currentColor"/><path d="M31.31,39.87C31.31,43.2,32.85,46.32,35.45,48.37L29.83,52.09L29.4,52.37L29.4,52.88C29.4,54.42,29.78,56.1,30.36,57.15L30.54,57.15L30.81,57.15L31.37,57.15L36.14,57.14C35.91,59.79,35.2,66.27,26.71,71.63C22.91,74.02,20.74,78.57,20.75,84.1L20.75,85.04L21.7,85.04L62.79,84.96L64.09,84.96L64.09,83.92C64.09,78.39,61.53,73.95,57.73,71.56C49.24,66.25,48.49,59.76,48.25,57.11L53.02,57.11L53.58,57.1L53.85,57.1L54.03,57.1C54.6,56.06,54.97,54.38,54.97,52.83L54.97,52.32L54.54,52.04L48.9,48.34C51.49,46.28,53.01,43.15,53,39.82C52.99,33.84,48.11,28.98,42.13,28.99L42.14,29C36.16,29.01,31.3,33.89,31.31,39.87Z" fill="currentColor"/><path d="M41.65,48.32L47.93,48.32C48.01,48.38,52.37,52.48,47.89,55.4L29.74,55.43L29.74,55.52C29.91,56.14,30.11,56.71,30.35,57.15L30.53,57.15L30.8,57.15L31.36,57.15L36.13,57.14C36.13,57.19,36.12,57.25,36.11,57.31L36.77,57.31C36.77,57.31,43.04,63.71,48.23,68.59C52.16,72.28,58.03,73.45,60.35,73.79C59.56,72.93,58.68,72.19,57.71,71.58C49.22,66.27,48.47,59.78,48.23,57.13L53,57.13L53.56,57.12L53.83,57.12L54.01,57.12C54.58,56.08,54.95,54.4,54.95,52.85L54.95,52.36L54.63,52.14L54.52,52.07L48.88,48.37C51.47,46.31,52.99,43.18,52.98,39.85C52.98,35.2,50.01,31.24,45.88,29.71C45.84,29.71,45.81,29.7,45.81,29.7C49.87,31.72,52.95,38.63,49.31,43.79L49.34,43.76C46.74,47.44,41.65,48.32,41.65,48.32Z" fill="currentColor"/><path d="M35.44,48.37L29.82,52.09L29.39,52.37L29.39,52.81L34.53,52.81C34.83,50.7,35.44,48.38,35.49,48.34L35.5,48.33Z" fill="currentColor"/><path d="M31.79,42.99C31.87,43.12,31.92,43.2,31.92,43.2C32.6,34,38.46,29.47,42.27,29.01C42.22,29.01,42.18,29.01,42.13,29.01C36.15,29.02,31.29,33.9,31.3,39.88L31.31,39.87C31.31,40.94,31.49,41.99,31.79,42.99Z" fill="currentColor"/><path d="M31.21,72.54C34.77,69.94,35.23,62.12,35.23,62.12C35.25,62.01,35.13,62.19,34.9,62.55C33.73,65.36,31.42,68.67,26.72,71.64C24.27,73.18,22.51,75.62,21.56,78.64C20.74,81.91,20.68,84.89,20.91,84.11L20.9,84.09C22.95,77.33,25.85,76.45,31.21,72.54Z" fill="currentColor"/><path d="M52.19,39.87C52.19,43.2,53.73,46.32,56.33,48.37L50.71,52.09L50.28,52.37L50.28,52.88C50.28,54.42,50.66,56.1,51.24,57.15L51.42,57.15L51.69,57.15L52.25,57.15L57.02,57.14C56.79,59.79,56.08,66.27,47.59,71.63C43.79,74.02,41.62,78.57,41.63,84.1L41.63,85.04L42.58,85.04L83.67,84.96L84.97,84.96L84.97,83.92C84.97,78.39,82.41,73.95,78.61,71.56C70.12,66.25,69.37,59.76,69.13,57.11L73.9,57.11L74.46,57.1L74.73,57.1L74.91,57.1C75.48,56.06,75.85,54.38,75.85,52.83L75.85,52.32L75.42,52.04L69.78,48.34C72.37,46.28,73.89,43.15,73.88,39.82C73.87,33.84,68.99,28.98,63.01,28.99L63.02,29C57.04,29.01,52.18,33.89,52.19,39.87Z" fill="currentColor"/><path d="M62.53,48.32L68.81,48.32C68.89,48.38,73.25,52.48,68.77,55.4L50.62,55.43L50.62,55.52C50.79,56.14,50.99,56.71,51.23,57.15L51.41,57.15L51.68,57.15L52.24,57.15L57.01,57.14C57.01,57.19,57,57.25,56.99,57.31L57.65,57.31C57.65,57.31,63.92,63.71,69.11,68.59C73.04,72.28,78.91,73.45,81.23,73.79C80.44,72.93,79.56,72.19,78.59,71.58C70.1,66.27,69.35,59.78,69.11,57.13L73.88,57.13L74.44,57.12L74.71,57.12L74.89,57.12C75.46,56.08,75.83,54.4,75.83,52.85L75.83,52.36L75.51,52.14L75.4,52.07L69.76,48.37C72.35,46.31,73.87,43.18,73.86,39.85C73.86,35.2,70.89,31.24,66.76,29.71C66.72,29.71,66.69,29.7,66.69,29.7C70.75,31.72,73.83,38.63,70.19,43.79L70.22,43.76C67.62,47.44,62.53,48.32,62.53,48.32Z" fill="currentColor"/><path d="M56.32,48.37L50.7,52.09L50.27,52.37L50.27,52.81L55.41,52.81C55.71,50.7,56.32,48.38,56.37,48.34L56.38,48.33Z" fill="currentColor"/><path d="M52.67,42.99C52.75,43.12,52.8,43.2,52.8,43.2C53.48,34,59.34,29.47,63.15,29.01C63.1,29.01,63.06,29.01,63.01,29.01C57.03,29.02,52.17,33.9,52.18,39.88L52.19,39.87C52.19,40.94,52.37,41.99,52.67,42.99Z" fill="currentColor"/><path d="M52.09,72.54C55.65,69.94,56.11,62.12,56.11,62.12C56.13,62.01,56.01,62.19,55.78,62.55C54.61,65.36,52.3,68.67,47.6,71.64C45.15,73.18,43.39,75.62,42.44,78.64C41.62,81.91,41.56,84.89,41.79,84.11L41.78,84.09C43.83,77.33,46.73,76.45,52.09,72.54Z" fill="currentColor"/></svg>