<svg xmlns="http://www.w3.org/2000/svg" viewBox="0 0 90 90"><path d="M90,45.14C90,30.14,68.2,3.14,45,3.14C21.8,3.14,0,28.09,0,45.14C0,62.19,21.8,87.14,45,87.14C68.2,87.14,90,60.14,90,45.14Z" fill="currentColor"/><path d="M79,45C79,26.22,63.78,11,45,11C26.22,11,11,26.22,11,45C11,63.78,26.22,79,45,79C63.78,79,79,63.78,79,45Z" fill="currentColor"/><path d="M48.8,29.58L63.36,10.02L55.53,33.11L77.51,22.56L59.85,39.37L84.22,40.24L60.77,46.91L81.94,59.01L58.07,54.02L71.2,74.57L52.38,59.06L54.45,83.36L45,60.88L35.55,83.36L37.62,59.06L18.8,74.57L31.93,54.02L8.06,59.01L29.23,46.91L5.78,40.24L30.15,39.37L12.49,22.56L34.47,33.11L26.64,10.02L41.2,29.58L45,5.5Z" fill="currentColor"/><path d="M72,45C72,30.09,59.91,18,45,18C30.09,18,18,30.09,18,45C18,59.91,30.09,72,45,72C59.91,72,72,59.91,72,45Z" fill="currentColor"/><path d="M64,45C64,34.51,55.49,26,45,26C34.51,26,26,34.51,26,45C26,55.49,34.51,64,45,64C55.49,64,64,55.49,64,45Z" fill="currentColor"/><path d="M31.09,45.14C31.09,67.6,45.16,85.81,45.16,85.81C45.24,85.71,59.24,67.54,59.24,45.14C59.24,22.68,45.16,4.47,45.16,4.47C45.16,4.47,31.09,22.68,31.09,45.14Z" fill="currentColor"/><path d="M38.59,45.14C38.59,59.8,45.16,71.68,45.16,71.68C45.19,71.63,51.74,59.76,51.74,45.14C51.74,30.53,45.2,18.67,45.16,18.6C45.16,18.6,38.59,30.48,38.59,45.14Z" fill="currentColor"/><path d="M88,45C88,56.81,75.11,75.88,58.61,84.06C76.05,76.66,90,57,90,45C90,33,76.05,13.34,58.61,5.94C75.11,14.12,88,33.19,88,45Z" fill="currentColor"/><path d="M0,45C0,50.92,2.63,57.79,7.03,64.23C3.23,58.05,1,51.62,1,46C1,32.2,14.45,13.46,31.63,5.65C14.07,12.51,0,31.3,0,45Z" fill="currentColor"/></svg>