<svg xmlns="http://www.w3.org/2000/svg" viewBox="0 0 90 90"><path d="M76.17,25.18C78.06,21.65,83.06,19.74,87.56,19.35C81.37,11.28,66.98,12.1,59.68,19C62.25,13.15,65.55,8.49,73.2,5.27C63.24,0,53,4.85,46.52,14.28C46.5,8.82,48.74,5.78,52.89,0C42.35,1.42,32.16,9.79,30.17,24.43C28.26,20.52,28.3,15.31,29.97,10.93C22.28,16.94,17.79,27.11,16.32,35.19C15.53,32.46,15.55,30.51,15.74,27.78C11.68,33.1,13.6,38.25,11.48,44.03C9.67,48.95,4.27,49.05,0,49.16C0.14,52.74,2.66,55.92,5.86,57.08L6.11,55.45L8.01,56.68L8.26,55.07L9.96,56.44L10.54,54.87L11.85,56.14C12.81,51.51,15.82,50.33,19.89,49.86C17.97,48.25,19.85,47.21,21.48,47.37C23.17,47.52,23.91,49.3,25.74,49.14C25.32,51.38,23.86,53.26,23.34,55.46C23.04,56.65,23.7,58.89,21.78,57.42C21.43,59.52,21.86,61.68,22,63.79C21.68,63.65,21.2,63.65,20.86,63.5C20.99,64.88,20.53,66.02,19.22,65.41C19.83,66.94,21.66,69.5,23.51,68.82C25.15,68.22,24.73,65.77,26.83,65.43C26.31,63.06,27.38,61.09,29.07,59.63C28.1,59.59,27.45,59.08,26.68,58.69C28.93,56.92,31.87,56.8,34.55,56.8C34.55,55.46,33.98,54.11,32.44,53.23C34.38,52.41,40.08,50.4,40.08,50.4L35.63,47.99C42.46,46.75,47.06,50.81,46.35,57.86C44.81,73.14,17.66,85.25,0,81.05C12.26,91.61,32.28,93.04,50.29,73.13C50.29,79.87,42.23,87.29,35.91,90C49.6,90,61.74,86.55,63.43,68.82C66.09,72.04,64,81.03,60.43,85.45C73.97,82.07,79.34,64.97,72.26,55.65C78.3,58.51,79.68,65.42,80.48,69.87C86.44,62.13,88.46,47.23,78.06,40.63C82.16,39.57,85.3,41.56,90,44.35C90,33.74,83.83,27.4,76.17,25.18Z" fill="#FA412D"/><path d="M20.47,41.75C18.94,36.55,26.9,32.14,26.9,32.14C26.9,32.14,24.66,38.62,22.24,40.1C21.48,40.56,20.9,41.08,20.47,41.75Z" fill="#FA412D"/><path d="M76.17,25.18C78.06,21.65,83.06,19.74,87.56,19.35C81.37,11.28,66.98,12.1,59.68,19C62.25,13.15,65.55,8.49,73.2,5.27C63.24,0,53,4.85,46.52,14.28C46.5,8.82,48.74,5.78,52.89,0C42.35,1.42,32.16,9.79,30.17,24.43C28.26,20.52,28.3,15.31,29.97,10.93C22.28,16.94,17.79,27.11,16.32,35.19C15.53,32.46,15.55,30.51,15.74,27.78C11.68,33.1,13.6,38.25,11.48,44.03C9.67,48.95,4.27,49.05,0,49.16C0.14,52.74,2.66,55.92,5.86,57.08L6.11,55.45L8.01,56.68L8.26,55.07L9.96,56.44L10.54,54.87L11.85,56.14C12.81,51.51,15.82,50.33,19.89,49.86C17.97,48.25,19.85,47.21,21.48,47.37C23.17,47.52,23.91,49.3,25.74,49.14C25.32,51.38,23.86,53.26,23.34,55.46C23.04,56.65,23.7,58.89,21.78,57.42C21.43,59.52,21.86,61.68,22,63.79C21.68,63.65,21.2,63.65,20.86,63.5C20.99,64.88,20.53,66.02,19.22,65.41C19.83,66.94,21.66,69.5,23.51,68.82C25.15,68.22,24.73,65.77,26.83,65.43C26.31,63.06,27.38,61.09,29.07,59.63C28.1,59.59,27.45,59.08,26.68,58.69C28.93,56.92,31.87,56.8,34.55,56.8C34.55,55.46,33.98,54.11,32.44,53.23C34.38,52.41,40.08,50.4,40.08,50.4L35.63,47.99C42.46,46.75,47.06,50.81,46.35,57.86C44.81,73.14,17.66,85.25,0,81.05C12.26,91.61,32.28,93.04,50.29,73.13C50.29,79.87,42.23,87.29,35.91,90C49.6,90,61.74,86.55,63.43,68.82C66.09,72.04,64,81.03,60.43,85.45C73.97,82.07,79.34,64.97,72.26,55.65C78.3,58.51,79.68,65.42,80.48,69.87C86.44,62.13,88.46,47.23,78.06,40.63C82.16,39.57,85.3,41.56,90,44.35C90,33.74,83.83,27.4,76.17,25.18Z" fill="#FA412D"/><path d="M20.47,41.75C18.94,36.55,26.9,32.14,26.9,32.14C26.9,32.14,24.66,38.62,22.24,40.1C21.48,40.56,20.9,41.08,20.47,41.75Z" fill="#FA412D"/><path d="M90,-35.63L61.07,-22.44C40.04,-12.84,15.2,-18.21,0,-35.63L0,90L90,90Z" fill="#E02828"/><path d="M84.02,4.16L76.64,16.18C69.24,28.23,54.52,33.57,41.12,29.08L40.5,28.87C30.61,25.55,20.01,31.51,17.71,41.7C16.39,47.57,10.83,51.49,4.85,50.78L0,50.19L0,90L90,90Z" fill="#E02828"/><path d="M87.78,22.89L76.18,25.18L75.66,27.1C70.65,45.54,55.08,59.17,36.14,61.71L24.15,63.88C17.68,65.05,12.43,58.7,14.78,52.57C9.94,51.83,4.99,52.37,0.42,54.15L0,54.31L0,90L90,90Z" fill="#FA412D" opacity="0.5"/><path d="M90,20.63L77.26,25.14L79.8,27.82C83.93,32.18,86.13,38.01,85.91,44.01C85.7,49.95,83.13,55.56,78.78,59.61L70.33,67.45C64.32,73.02,56.97,76.95,49,78.83C32.12,82.83,14.4,77.29,2.81,64.38L0,61.26L0,90L90,90Z" fill="#FA742C" opacity="0.5"/><path d="M90,43.78C86.17,69.64,63.82,88.7,37.68,88.4L22.06,88.22C13.07,88.12,4.74,83.43,0,75.78L0,90L90,90Z" fill="#F7C631"/><path d="M0,44.22L11.57,43.38L16.39,27.02L16.3,35.18L20.6,24.35C22.64,19.22,26.42,14.96,31.27,12.33L30.16,24.39L32.92,18.05C36.47,9.91,43.85,4.09,52.59,2.54L46.5,14.46L50.51,11.34C56.85,6.41,65.2,4.88,72.88,7.23L59.89,18.48C70.72,13.5,83.63,16.54,91.03,25.88L90,0L0,0Z" fill="#FA742C"/><path d="M27.86,28.51C20.73,30.31,16.6,37.74,18.83,44.74L21.6,39.44C22.78,37.16,24.26,35.04,25.98,33.14L30.87,27.76Z" fill="#AD1F24"/></svg>