<svg xmlns="http://www.w3.org/2000/svg" viewBox="0 0 90 90"><path d="M15.24,30.31L21.99,32L29.82,30.27C30.44,30.13,31.04,30.61,31.04,31.25L31.04,36.19L14,36.19L14,31.28C14,30.63,14.61,30.15,15.24,30.31Z" fill="#881822"/><path d="M48.89,20.74L48.89,33.94L41.85,33.94L41.85,20.74Z" fill="#E02828"/><path d="M60.22,31.27L68.05,33L74.79,31.31C75.42,31.15,76.04,31.63,76.04,32.28L76.04,37.19L59,37.19L59,32.25C59,31.61,59.59,31.13,60.22,31.27Z" fill="#881822"/><path d="M10,34L78,34C79.1,34,80,34.9,80,36L80,42C80,43.1,79.1,44,78,44L10,44C8.9,44,8,43.1,8,42L8,36C8,34.9,8.9,34,10,34Z" fill="#AD1F24"/><path d="M29,13L24.14,83.14C24.07,84.19,23.2,85,22.15,85L16.14,85C14.98,85,14.07,84.02,14.15,82.86L18.99,13Z" fill="#E02828"/><path d="M27,13L20.56,14.7L15.65,82.69L22.02,85L16.14,85C14.98,85,14.07,84.02,14.15,82.86L18.99,13Z" fill="#FA412D"/><path d="M61,13L65.86,83.14C65.93,84.19,66.8,85,67.85,85L73.86,85C75.02,85,75.93,84.02,75.85,82.86L71.01,13Z" fill="#E02828"/><path d="M63,13L69.44,14.7L74.35,82.69L67.98,85L73.86,85C75.02,85,75.93,84.02,75.85,82.86L71.01,13Z" fill="#FA412D"/><path d="M81.5,13L81.5,21C81.5,22.1,80.6,23,79.5,23L8.5,23C7.4,23,6.5,22.1,6.5,21L6.5,13Z" fill="#E02828"/><path d="M81.5,12.74L81.5,14.74L6.5,14.74L6.5,12.74Z" fill="#AD1F24"/><path d="M2.26,0.3L18.57,2.48C36.11,4.81,53.89,4.81,71.43,2.48L87.74,0.3C88.93,0.14,90,1.07,90,2.28L90,11.19C90,12.3,89.1,13.19,88,13.19L2,13.19C0.9,13.19,0,12.3,0,11.19L0,2.28C0,1.07,1.07,0.14,2.26,0.3Z" fill="#E02828"/><path d="M18.02,27L18.3,23L28.31,23L28.03,27Z" fill="#AD1F24"/><path d="M41.85,27L41.85,23L48.89,23L48.89,27Z" fill="#AD1F24"/><path d="M61.97,27L61.69,23L71.7,23L71.98,27Z" fill="#AD1F24"/><path d="M2.26,0.3L18.57,2.48C36.11,4.81,53.89,4.81,71.43,2.48L87.74,0.3C88.93,0.14,90,1.07,90,2.28L90,11.19L88.35,2.58L68.81,5.05C52.99,7.05,36.99,7.15,21.15,5.35L2.23,3.19L0,11.19L0,2.28C0,1.07,1.07,0.14,2.26,0.3Z" fill="#FA412D"/></svg>