<svg xmlns="http://www.w3.org/2000/svg" viewBox="0 0 90 90"><path d="M87,48C87,71.2,68.2,90,45,90C21.8,90,3,71.2,3,48C3,24.8,21.8,6,45,6C68.2,6,87,24.8,87,48Z" fill="currentColor"/><path d="M15,45C15,61.57,28.43,75,45,75C61.57,75,75,61.57,75,45C75,28.43,61.57,15,45,15C28.43,15,15,28.43,15,45Z" fill="currentColor"/><path d="M87,45C87,68.2,68.2,87,45,87C38.02,87,31.43,85.29,25.63,82.28C31.97,80.53,38,78.06,43.64,74.97C44.09,74.99,44.54,75,45,75C61.57,75,75,61.57,75,45L75,45C78.35,39.5,81.09,33.58,83.12,27.35C85.61,32.71,87,38.69,87,45Z" fill="currentColor" opacity="0.2"/><path d="M3.79,36.87C7.42,18.34,23.24,4.18,42.55,3.07C24.36,6.79,9.79,19.8,3.79,36.87Z" fill="currentColor"/><path d="M86.99,44.13C87,44.42,87,44.71,87,45C87,68.2,68.2,87,45,87C67.24,84.26,84.8,66.43,86.99,44.13Z" fill="currentColor"/><path d="M87,45C87,68.2,68.2,87,45,87C21.8,87,3,68.2,3,45C3,21.8,21.8,3,45,3C68.2,3,87,21.8,87,45Z" fill="currentColor"/><path d="M15,45C15,61.57,28.43,75,45,75C61.57,75,75,61.57,75,45C75,28.43,61.57,15,45,15C28.43,15,15,28.43,15,45Z" fill="currentColor"/><path d="M85.97,35.75L74.95,46.78C74.98,46.19,75,45.6,75,45C75,37.28,72.08,30.24,67.29,24.92L75.78,16.43C80.74,21.77,84.32,28.39,85.97,35.75Z" fill="currentColor"/><path d="M86.35,28.31C91.22,23.55,91.22,21.71,86.35,16.84C81.47,12.07,79.63,12.07,74.87,16.84L48.45,43.36L38.7,33.51C33.83,28.75,31.99,28.64,27.23,33.51C22.36,38.28,22.36,40.12,27.12,44.99L44.98,62.96C47.58,65.45,49.32,65.45,51.91,62.96Z" fill="currentColor"/><path d="M86.34,16.84C89.38,19.88,90.53,21.74,89.77,23.86C89.32,22.57,88.18,21.17,86.35,19.34C81.47,14.57,79.63,14.57,74.87,19.34L48.45,45.86L38.7,36.01C33.83,31.25,31.99,31.14,27.23,36.01C25.38,37.82,24.24,39.2,23.78,40.49C23.03,38.34,24.17,36.5,27.23,33.51C31.99,28.64,33.83,28.75,38.7,33.51L48.45,43.36L74.87,16.84C79.63,12.07,81.47,12.07,86.34,16.84Z" fill="currentColor"/></svg>