<svg xmlns="http://www.w3.org/2000/svg" viewBox="0 0 90 90"><path d="M22.5,0C10.07,0,0,9.87,0,22.04L0,67.96C0,80.13,10.07,90,22.5,90L67.5,90C79.93,90,90,80.13,90,67.96L90,22.04C90,9.87,79.93,0,67.5,0Z" fill="currentColor"/><path d="M66.73,22.66C76.47,22.66,84.38,30.4,84.38,39.95L84.38,48.15C84.38,57.7,76.47,65.44,66.73,65.44C56.98,65.44,49.08,57.7,49.08,48.15L49.08,39.95C49.08,30.4,56.98,22.66,66.73,22.66Z" fill="currentColor"/><path d="M23.27,22.66C33.02,22.66,40.92,30.4,40.92,39.95L40.92,48.15C40.92,57.7,33.02,65.44,23.27,65.44C13.53,65.44,5.63,57.7,5.63,48.15L5.63,39.95C5.63,30.4,13.53,22.66,23.27,22.66Z" fill="currentColor"/><path d="M36.73,32.85C32,35.16,26.27,34.11,22.55,30.24C18.83,26.38,17.99,20.58,20.45,15.93C21.19,14.52,22.8,14.27,23.9,15.41L37.38,29.12C38.48,30.27,38.15,32.16,36.73,32.85Z" fill="currentColor"/><path d="M54.09,27.61C59.33,22.83,53.31,55.41,53.31,55.33C53.31,55.3,50.51,55.28,44.9,55.3C43.4,55.3,40.69,55.31,36.78,55.33C33.01,33.66,32.7,24.43,35.84,27.61C40.55,32.38,48.85,32.38,54.09,27.61Z" fill="currentColor"/><path d="M29.41,34.66C30.48,35.85,30.08,37.73,28.64,38.37C23.84,40.5,18.15,39.26,14.56,35.27C10.98,31.28,10.34,25.45,12.96,20.88C13.74,19.51,15.64,19.31,16.7,20.5Z" fill="currentColor"/><path d="M53.28,32.85C58,35.16,63.74,34.11,67.46,30.24C71.17,26.38,72.02,20.59,69.56,15.93C68.81,14.53,67.2,14.28,66.1,15.42L52.63,29.12C51.53,30.27,51.85,32.16,53.28,32.85Z" fill="currentColor"/><path d="M60.6,34.67C59.54,35.85,59.93,37.73,61.37,38.37C66.17,40.51,71.87,39.26,75.45,35.27C79.04,31.27,79.67,25.45,77.05,20.88C76.27,19.51,74.37,19.32,73.3,20.5Z" fill="currentColor"/><path d="M23.22,22.64C16.29,22.64,10.34,26.83,7.73,32.82L7.73,55.16C10.34,61.15,16.3,65.34,23.22,65.34L23.96,65.34C33.29,65.34,40.85,57.75,40.85,48.37L40.85,39.62C40.85,30.24,33.29,22.64,23.96,22.64Z" fill="currentColor"/><path d="M66.64,22.64L66.05,22.64C66.01,22.64,65.97,22.64,65.92,22.64C56.59,22.71,49.09,30.37,49.16,39.74L49.22,48.49C49.3,57.82,56.84,65.34,66.12,65.34L66.64,65.34C73.7,65.34,79.74,60.99,82.27,54.81L82.27,33.16C79.74,26.99,73.7,22.64,66.64,22.64Z" fill="currentColor"/><path d="M62.12,38.66C62.12,36.67,60.5,35.06,58.51,35.06C56.52,35.06,54.91,36.67,54.91,38.66C54.91,40.65,56.52,42.27,58.51,42.27C60.5,42.27,62.12,40.65,62.12,38.66Z" fill="currentColor"/><path d="M52.13,57.5C52.13,61.51,48.96,64.7,44.96,64.7C40.96,64.7,37.79,61.51,37.79,57.5C37.79,53.48,41.1,50.3,44.96,50.3C48.96,50.3,52.13,53.48,52.13,57.5Z" fill="currentColor"/><path d="M45.1,48.32C49.09,48.32,52.82,51.37,53.51,55.38L53.51,57.32C52.4,55.66,50.89,54.97,48.96,55.38C47.17,55.8,45.65,57.04,44.82,59.12L36.14,57.32L36.14,55.38C36.83,51.37,40.55,48.32,45.1,48.32Z" fill="currentColor"/><path d="M79.32,40.5L79.32,47.49C79.32,54.02,74.06,59.31,67.56,59.31C61.06,59.31,55.79,54.03,55.79,47.49L55.79,40.5C55.79,33.97,61.06,28.68,67.56,28.68C74.05,28.68,79.32,33.97,79.32,40.5Z" fill="currentColor"/><path d="M69.36,41.08L69.36,47.06C69.36,50.16,66.86,52.67,63.78,52.67C60.7,52.67,58.19,50.17,58.19,47.06L58.19,41.08C58.2,37.98,60.7,35.47,63.78,35.47C66.85,35.47,69.36,37.98,69.36,41.08Z" fill="currentColor"/><path d="M74.98,60.37C73.74,60.9,72.53,61.48,71.34,62.09C67.68,64.01,62.96,63.18,60.75,59.73C66.66,55.41,73.32,52.38,80.59,50.3C81.6,54.49,79.01,58.65,74.98,60.37Z" fill="currentColor"/><path d="M79.33,30.32C81.01,27.72,78.2,26.37,75.53,27.92L47.55,44.14C49.45,47.44,58.33,45.86,67.4,40.6C72.92,37.4,77.24,33.57,79.33,30.32Z" fill="currentColor"/><path d="M76.5,30.52L67.64,24.58L53.86,31.51L51.89,41.4Z" fill="currentColor"/><path d="M10.7,40.5L10.7,47.49C10.7,54.02,15.96,59.31,22.46,59.31C28.95,59.31,34.22,54.03,34.22,47.49L34.22,40.5C34.22,33.97,28.96,28.68,22.46,28.68C15.97,28.68,10.7,33.97,10.7,40.5Z" fill="currentColor"/><path d="M20.66,41.08L20.66,47.06C20.66,50.16,23.15,52.67,26.24,52.67C29.32,52.67,31.82,50.17,31.82,47.06L31.82,41.08C31.81,37.98,29.32,35.47,26.24,35.47C23.16,35.47,20.66,37.98,20.66,41.08Z" fill="currentColor"/><path d="M15.04,60.37C16.27,60.9,17.48,61.48,18.67,62.09C22.34,64.01,27.06,63.18,29.26,59.73C23.36,55.41,16.69,52.38,9.43,50.3C8.41,54.49,11,58.65,15.04,60.37Z" fill="currentColor"/><path d="M10.68,30.32C9,27.72,11.81,26.37,14.48,27.92L42.46,44.14C40.56,47.44,31.68,45.86,22.62,40.6C17.09,37.4,12.78,33.57,10.68,30.32Z" fill="currentColor"/><path d="M13.51,30.52L22.37,24.58L36.15,31.51L38.12,41.4Z" fill="currentColor"/></svg>