<svg xmlns="http://www.w3.org/2000/svg" viewBox="0 0 90 90"><path d="M68.06,0C80.06,0,90,9.94,90,22.13L90,68.06C90,80.06,80.06,90,67.88,90L22.13,90C9.94,90,0,80.06,0,67.88L0,22.13C0,9.94,9.94,0,22.13,0Z" fill="currentColor"/><path d="M66.75,22.69C76.5,22.69,84.56,30.56,84.56,40.5L84.56,47.81C84.56,57.56,76.69,65.63,66.75,65.63C57,65.63,48.94,57.75,48.94,47.81L48.94,40.5C48.94,30.75,56.81,22.69,66.75,22.69Z" fill="currentColor"/><path d="M23.63,22.69C33.38,22.69,41.44,30.56,41.44,40.5L41.44,47.81C41.44,57.56,33.56,65.63,23.63,65.63C13.88,65.63,5.81,57.75,5.81,47.81L5.81,40.5C5.81,30.75,13.69,22.69,23.63,22.69Z" fill="currentColor"/><path d="M36.94,33C32.25,35.25,26.44,34.31,22.69,30.38C18.94,26.44,18,20.63,20.63,15.94C21.38,14.44,23.06,14.25,24.19,15.38L37.5,29.25C38.63,30.38,38.25,32.25,36.94,33Z" fill="currentColor"/><path d="M54.19,27.56C59.44,22.69,53.44,55.5,53.44,55.31C53.44,55.31,50.63,55.31,45,55.31C43.5,55.31,40.69,55.31,36.75,55.31C33,33.75,32.63,24.38,35.81,27.56C40.5,32.44,48.94,32.44,54.19,27.56Z" fill="currentColor"/><path d="M29.25,34.69C30.38,35.81,30,37.69,28.5,38.44C23.63,40.5,18,39.38,14.25,35.25C10.69,31.31,9.94,25.31,12.56,20.81C13.69,19.5,15.56,19.31,16.5,20.44Z" fill="currentColor"/><path d="M53.44,33C58.13,35.25,63.94,34.31,67.69,30.38C71.44,26.44,72.19,20.63,69.75,15.94C69,14.44,67.31,14.25,66.19,15.38L52.88,29.25C51.75,30.38,52.13,32.25,53.44,33Z" fill="currentColor"/><path d="M60.94,34.69C59.81,35.81,60.19,37.69,61.69,38.44C66.56,40.5,72.19,39.38,75.94,35.25C79.5,31.31,80.25,25.31,77.63,20.81C76.69,19.5,74.63,19.31,73.69,20.44Z" fill="currentColor"/><path d="M23.06,22.69C16.13,22.69,10.13,26.81,7.5,32.81L7.5,55.31C10.13,61.31,16.13,65.63,23.06,65.63L23.81,65.63C33.19,65.63,40.88,57.94,40.88,48.56L40.88,39.75C40.88,30.38,33.38,22.69,23.81,22.69Z" fill="currentColor"/><path d="M66.94,22.69L66.38,22.69C66.38,22.69,66.38,22.69,66.19,22.69C56.81,22.69,49.13,30.38,49.31,39.94L49.31,48.75C49.31,58.13,57,65.63,66.38,65.63L66.94,65.63C74.06,65.63,80.06,61.31,82.69,55.13L82.69,33.19C80.06,27,74.06,22.69,66.94,22.69Z" fill="currentColor"/><path d="M88.5,42.19L88.5,51.38C88.5,61.5,80.25,69.75,70.13,69.75L20.25,69.75C10.13,69.75,1.88,61.5,1.88,51.38L1.88,42.19Z" fill="currentColor"/><path d="M51.56,55.5L51.56,57.75C51.56,61.31,48.75,64.13,45.19,64.13C41.63,64.13,38.81,61.31,38.81,57.75L38.81,55.5C38.63,52.13,41.63,49.13,45.19,49.13C48.75,49.13,51.56,51.94,51.56,55.5Z" fill="currentColor"/><path d="M45.38,49.13C49.5,49.13,53.25,52.13,54,56.25L54,56.63C54,56.81,54,57,53.63,57L45.38,58.5C45.19,58.5,45.19,58.5,44.81,58.5L36.56,57C36.38,57,36.19,57,36.19,56.63L36.19,56.25C36.94,52.13,40.69,49.13,45.38,49.13Z" fill="currentColor"/><path d="M41.25,42.19L41.25,50.06L53.06,50.06L53.06,42.19Z" fill="currentColor"/><path d="M10.88,34.31L37.13,34.31C39.94,34.31,42.19,36.56,42.19,39.56L42.19,47.06C42.19,57.19,33.94,65.44,24,65.44C13.88,65.44,5.81,57.19,5.81,47.06L5.81,39.56C5.81,36.75,8.06,34.31,10.88,34.31Z" fill="currentColor"/><path d="M26.81,34.31L37.31,34.31C39.19,34.31,40.88,35.25,41.81,36.75L15.56,63C11.63,61.13,8.81,57.94,7.13,54Z" fill="currentColor"/><path d="M10.88,38.63C10.31,38.63,9.94,39,9.94,39.56L9.94,47.06C9.94,54.94,16.31,61.13,24,61.13C31.69,61.13,38.06,54.75,38.06,47.06L38.06,39.56C38.06,39,37.69,38.63,37.13,38.63Z" fill="currentColor"/><path d="M5.81,39.56L5.81,47.06C5.81,57.19,14.06,65.44,24,65.44C34.13,65.44,42.19,57.19,42.19,47.06L42.19,39.56C42.19,36.75,39.94,34.31,37.13,34.31L10.88,34.31C8.06,34.31,5.81,36.56,5.81,39.56Z" fill="currentColor"/><path d="M53.06,34.31L79.31,34.31C82.13,34.31,84.38,36.56,84.38,39.56L84.38,47.06C84.38,57.19,76.13,65.44,66.19,65.44C56.25,65.44,48,57.19,48,47.06L48,39.56C48,36.75,50.25,34.31,53.06,34.31Z" fill="currentColor"/><path d="M69,34.31L79.5,34.31C81.38,34.31,83.06,35.25,84,36.75L57.75,63C53.81,61.13,51,57.94,49.31,54Z" fill="currentColor"/><path d="M53.06,38.63C52.5,38.63,52.13,39,52.13,39.56L52.13,47.06C52.13,54.94,58.5,61.13,66.19,61.13C73.88,61.13,80.25,54.75,80.25,47.06L80.25,39.56C80.25,39,79.88,38.63,79.31,38.63Z" fill="currentColor"/><path d="M48,39.56L48,47.06C48,57.19,56.25,65.44,66.19,65.44C76.13,65.44,84.38,57.19,84.38,47.06L84.38,39.56C84.38,36.75,82.13,34.31,79.31,34.31L53.06,34.31C50.25,34.31,48,36.56,48,39.56Z" fill="currentColor"/><path d="M39.56,39.94L39.56,48.38L42.38,48.38C42.38,46.88,43.69,45.56,45.19,45.56C46.69,45.56,48,46.88,48,48.38L50.81,48.38L50.81,39.94Z" fill="currentColor"/></svg>