<svg xmlns="http://www.w3.org/2000/svg" viewBox="0 0 90 90"><path d="M68.06,0C80.06,0,90,9.94,90,22.13L90,68.06C90,80.06,80.06,90,67.88,90L22.13,90C9.94,90,0,80.06,0,67.88L0,22.13C0,9.94,9.94,0,22.13,0Z" fill="currentColor"/><path d="M67.31,23.06C77.44,23.06,85.69,31.31,85.69,41.44L85.69,48.94C85.69,59.06,77.44,67.31,67.31,67.31C57.19,67.31,48.94,59.06,48.94,48.94L48.94,41.44C48.94,31.31,57.19,23.06,67.31,23.06Z" fill="currentColor"/><path d="M22.13,23.06C32.25,23.06,40.5,31.31,40.5,41.44L40.5,48.94C40.5,59.06,32.25,67.31,22.13,67.31C12,67.31,3.75,59.06,3.75,48.94L3.75,41.44C3.75,31.31,12,23.06,22.13,23.06Z" fill="currentColor"/><path d="M36,33.56C31.13,36,25.13,34.88,21.19,30.94C17.25,27,16.5,21,18.94,16.13C19.69,14.63,21.38,14.44,22.5,15.56L36.75,29.63C37.88,30.75,37.5,32.81,36,33.56Z" fill="currentColor"/><path d="M54.19,28.13C59.63,23.25,53.44,57,53.44,56.81C53.44,56.81,50.44,56.81,44.63,56.81C43.13,56.81,40.31,56.81,36.19,56.81C32.25,34.31,31.88,24.75,35.25,28.13C40.13,33,48.75,33,54.19,28.13Z" fill="currentColor"/><path d="M28.5,35.25C29.63,36.56,29.25,38.44,27.75,39.19C22.69,41.44,16.88,40.13,13.13,36C9.37,31.88,8.81,25.88,11.44,21C12.19,19.69,14.06,19.5,15.19,20.63Z" fill="currentColor"/><path d="M53.44,33.56C58.31,36,64.31,34.88,68.25,30.94C72.19,27,72.94,21,70.5,16.13C69.75,14.63,68.06,14.44,66.94,15.56L52.69,29.63C51.56,30.75,51.94,32.81,53.44,33.56Z" fill="currentColor"/><path d="M60.94,35.25C59.81,36.56,60.19,38.44,61.69,39.19C66.75,41.44,72.56,40.13,76.31,36C80.06,31.88,80.63,25.88,78,21C77.25,19.69,75.38,19.5,74.25,20.63Z" fill="currentColor"/><path d="M21.94,22.88C14.63,22.88,8.44,27.19,5.81,33.38L5.81,56.63C8.63,62.81,14.81,67.13,21.94,67.13L22.69,67.13C32.44,67.13,40.31,59.25,40.31,49.5L40.31,40.5C40.31,30.75,32.44,22.88,22.69,22.88Z" fill="currentColor"/><path d="M67.31,23.06L66.75,23.06C66.75,23.06,66.75,23.06,66.56,23.06C56.81,23.06,48.94,31.13,49.13,40.88L49.13,49.88C49.13,59.63,57,67.31,66.75,67.31L67.31,67.31C74.63,67.31,81,62.81,83.63,56.44L83.63,33.94C81,27.56,74.63,23.06,67.31,23.06Z" fill="currentColor"/><path d="M35.25,41.44L35.25,48.75C35.25,55.5,29.81,60.94,23.06,60.94C16.31,60.94,10.88,55.5,10.88,48.75L10.88,41.44C10.88,34.69,16.31,29.25,23.06,29.25C29.81,29.25,35.25,34.69,35.25,41.44Z" fill="currentColor"/><path d="M78.38,41.44L78.38,48.75C78.38,55.5,72.94,60.94,66.19,60.94C59.44,60.94,54,55.5,54,48.75L54,41.44C53.81,34.69,59.44,29.25,66.19,29.25C72.94,29.25,78.38,34.69,78.38,41.44Z" fill="currentColor"/><path d="M30.75,42L30.75,48.19C30.75,51.38,28.13,54,24.94,54C21.75,54,19.13,51.38,19.13,48.19L19.13,42C19.13,38.81,21.75,36.19,24.94,36.19C28.13,36.19,30.75,38.81,30.75,42Z" fill="currentColor"/><path d="M51.38,57L51.38,59.25C51.38,63,48.38,66,44.63,66C40.88,66,37.88,63,37.88,59.25L37.88,57C38.06,53.25,41.06,50.25,44.63,50.25C48.38,50.25,51.38,53.25,51.38,57Z" fill="currentColor"/><path d="M44.81,50.25C49.13,50.25,53.06,53.44,53.81,57.56L53.81,57.94C53.81,58.13,53.81,58.31,53.44,58.31L45,59.81C44.81,59.81,44.81,59.81,44.44,59.81L35.81,58.31C35.63,58.31,35.44,58.31,35.44,57.94L35.44,57.56C36.19,53.25,40.13,50.25,44.81,50.25Z" fill="currentColor"/><path d="M70.13,42L70.13,48.19C70.13,51.38,67.5,54,64.31,54C61.13,54,58.5,51.38,58.5,48.19L58.5,42C58.5,38.81,61.13,36.19,64.31,36.19C67.5,36.19,70.13,38.81,70.13,42Z" fill="currentColor"/><path d="M23.81,39.56C23.81,37.5,22.13,35.81,20.06,35.81C18,35.81,16.31,37.5,16.31,39.56C16.31,41.63,18,43.31,20.06,43.31C22.13,43.31,23.81,41.63,23.81,39.56Z" fill="currentColor"/><path d="M62.63,39.56C62.63,37.5,60.94,35.81,58.88,35.81C56.81,35.81,55.13,37.5,55.13,39.56C54.94,41.63,56.63,43.31,58.88,43.31C60.94,43.31,62.63,41.63,62.63,39.56Z" fill="currentColor"/></svg>