<svg xmlns="http://www.w3.org/2000/svg" viewBox="0 0 90 90"><path d="M14.5,54.71C9.01,54.71,4.56,50.26,4.56,44.77C4.56,39.28,9.01,34.83,14.5,34.83C19.99,34.83,24.44,39.28,24.44,44.77C24.44,50.26,19.99,54.71,14.5,54.71Z" fill="currentColor"/><path d="M44.95,54.71C39.45,54.71,35,50.26,35,44.77C35,39.28,39.45,34.83,44.95,34.83C50.43,34.83,54.89,39.28,54.89,44.77C54.89,50.26,50.43,54.71,44.95,54.71Z" fill="currentColor"/><path d="M75.39,54.71C69.89,54.71,65.44,50.26,65.44,44.77C65.44,39.28,69.89,34.83,75.39,34.83C80.88,34.83,85.33,39.28,85.33,44.77C85.33,50.26,80.88,54.71,75.39,54.71Z" fill="currentColor"/></svg>