<svg xmlns="http://www.w3.org/2000/svg" viewBox="0 0 90 90"><path d="M10.26,29.06L36.67,44.31C37.87,45,39.4,44.59,40.09,43.4C40.78,42.2,40.37,40.67,39.17,39.98L17.96,27.73C16.04,26.63,15.39,24.18,16.49,22.27C17.6,20.36,20.04,19.7,21.96,20.81L52.19,38.26C53.73,39.15,55.58,37.74,55.12,36.02L51.61,22.84C50.66,18.51,55.57,14.53,59.2,17.26C61.6,26.07,68.43,35.09,71.39,41.02C75.51,50.62,77.31,56.9,78.07,60.13C78.46,61.81,78.11,63.54,77.25,65.04L66.49,83.67C65.01,86.24,62.23,87.78,59.28,87.51C52.29,86.86,39.24,85.05,31.02,80.31L3.65,64.51C1.74,63.41,1.09,60.96,2.19,59.05C3.3,57.13,5.74,56.48,7.65,57.58L24.54,67.33C25.74,68.02,27.27,67.61,27.96,66.42C28.65,65.22,28.24,63.69,27.04,63L1.49,48.25C-0.42,47.15,-1.08,44.7,0.03,42.79C1.13,40.87,3.58,40.22,5.49,41.32L29.31,55.07C30.5,55.76,32.03,55.35,32.72,54.16C33.41,52.96,33,51.43,31.81,50.74L6.26,35.99C4.35,34.89,3.69,32.44,4.8,30.53C5.9,28.62,8.35,27.96,10.26,29.06Z" fill="currentColor"/><path d="M22.74,66.28L8.83,59.24C7.38,58.51,5.6,59.04,4.79,60.45C3.98,61.85,4.4,63.64,5.74,64.54L18.74,73.21L3.66,64.5C1.75,63.4,1.09,60.95,2.19,59.04C3.3,57.12,5.75,56.47,7.66,57.57Z" fill="currentColor"/><path d="M20.57,50.03L6.66,43C5.21,42.26,3.44,42.79,2.62,44.2C1.81,45.6,2.23,47.39,3.58,48.29L16.57,56.96L1.49,48.25C-0.42,47.15,-1.08,44.7,0.03,42.79C1.13,40.87,3.58,40.22,5.49,41.32Z" fill="currentColor"/><path d="M25.34,37.77L11.43,30.74C9.98,30,8.2,30.53,7.39,31.94C6.58,33.34,7,35.13,8.34,36.03L21.34,44.7L6.26,35.99C4.35,34.89,3.69,32.44,4.8,30.53C5.9,28.62,8.35,27.96,10.26,29.06Z" fill="currentColor"/><path d="M37.03,29.51L23.13,22.48C21.67,21.74,19.9,22.27,19.08,23.68C18.28,25.08,18.69,26.87,20.04,27.77L33.03,36.44L17.96,27.73C16.04,26.63,15.39,24.18,16.49,22.27C17.6,20.36,20.04,19.7,21.96,20.81Z" fill="currentColor"/><path d="M62.51,74.94C78.12,55.83,58.52,29.81,59.45,18.13C62.04,26.67,68.53,35.29,71.39,41.02C75.51,50.62,77.31,56.9,78.07,60.13C78.46,61.81,78.11,63.54,77.25,65.04L66.49,83.67C65.01,86.24,62.23,87.78,59.28,87.51C52.29,86.86,39.24,85.05,31.02,80.31L18.06,72.83C44.87,88.31,54.37,84.9,62.51,74.94Z" fill="currentColor"/><path d="M24.54,67.33C25.74,68.02,27.27,67.61,27.96,66.42C28.65,65.22,28.24,63.69,27.04,63L26.36,62.61C29.61,64.48,32.62,66.75,35.33,69.35L38.77,72.66L34.18,71.33C30.57,70.29,27.11,68.81,23.86,66.94Z" fill="currentColor"/><path d="M29.31,55.07C30.5,55.76,32.03,55.35,32.72,54.16C33.41,52.96,33,51.43,31.81,50.74L31.13,50.35L34.2,52.12C37.14,53.82,39.89,55.81,42.43,58.06L47.87,62.9L40.96,60.61C37.74,59.54,34.64,58.15,31.7,56.45L28.63,54.68Z" fill="currentColor"/><path d="M36.67,44.31C37.87,45,39.4,44.59,40.09,43.4C40.78,42.2,40.37,40.67,39.17,39.98L38.49,39.59C42.31,41.8,45.82,44.51,48.93,47.64L50.91,49.64L48.19,48.93C43.92,47.81,39.81,46.13,35.99,43.92Z" fill="currentColor"/><path d="M58.45,16.8C55.28,17.24,52.6,20.16,53.16,23.85L54.8,34.77L54.78,34.74L51.61,22.84C50.73,18.8,54.94,15.07,58.45,16.8Z" fill="currentColor"/><path d="M68.58,36.06C69.67,37.87,70.65,39.54,71.39,41.02C75.51,50.62,77.31,56.9,78.07,60.13C78.46,61.81,78.11,63.54,77.25,65.04L66.49,83.67C65.01,86.24,62.23,87.78,59.28,87.51C53.67,86.98,44.17,85.72,36.38,82.79C31.02,78.45,27.05,73.29,25.6,67.66C26.53,67.72,27.46,67.27,27.96,66.42C28.65,65.22,28.24,63.69,27.04,63L25.04,61.84C25.2,59.25,25.91,56.6,27.28,53.9L29.31,55.07C30.5,55.76,32.03,55.35,32.72,54.16C33.41,52.96,33,51.43,31.81,50.74L29.95,49.67C31.58,47.54,33.54,45.56,35.74,43.77L36.67,44.31C37.87,45,39.4,44.59,40.09,43.4C40.58,42.54,40.51,41.52,39.99,40.75C42.84,38.98,45.94,37.53,49.12,36.49L52.19,38.26C53.73,39.15,55.58,37.74,55.12,36.02L54.87,35.08C59.61,34.32,64.34,34.55,68.58,36.06Z" fill="currentColor"/><path d="M30.47,20.56L52.04,42.13C53.01,43.1,54.6,43.1,55.57,42.13C56.55,41.15,56.55,39.57,55.57,38.59L38.25,21.27C36.69,19.7,36.69,17.17,38.25,15.61C39.81,14.05,42.34,14.05,43.91,15.61L68.59,40.3C69.85,41.55,72,40.66,72.01,38.88L72.03,25.25C72.23,20.82,78,18.24,80.8,21.82C80.83,30.96,85.1,41.44,86.43,47.93C87.92,58.27,88.03,64.8,87.93,68.11C87.87,69.84,87.09,71.42,85.86,72.65L70.65,87.86C68.55,89.96,65.47,90.72,62.69,89.7C56.11,87.26,43.97,82.14,37.26,75.43L14.92,53.09C13.35,51.52,13.35,48.99,14.92,47.43C16.48,45.87,19.01,45.87,20.57,47.43L34.36,61.22C35.34,62.19,36.92,62.19,37.9,61.22C38.87,60.24,38.87,58.66,37.9,57.68L17.04,36.82C15.47,35.26,15.47,32.73,17.04,31.17C18.6,29.6,21.13,29.6,22.69,31.17L42.14,50.61C43.12,51.59,44.7,51.59,45.67,50.61C46.65,49.63,46.65,48.05,45.67,47.08L24.81,26.22C23.25,24.65,23.25,22.12,24.81,20.56C26.38,19,28.91,19,30.47,20.56Z" fill="currentColor"/><path d="M32.89,59.73L21.28,49.34C20.06,48.25,18.21,48.31,17.06,49.46C15.92,50.6,15.86,52.44,16.92,53.65L27.23,65.39L14.92,53.08C13.36,51.52,13.36,48.98,14.92,47.42C16.48,45.86,19.02,45.86,20.58,47.42Z" fill="currentColor"/><path d="M35,43.48L23.39,33.08C22.18,32,20.33,32.05,19.17,33.2C18.03,34.34,17.97,36.18,19.04,37.4L29.35,49.13L17.04,36.82C15.47,35.26,15.47,32.73,17.04,31.17C18.6,29.6,21.13,29.6,22.69,31.17Z" fill="currentColor"/><path d="M42.78,32.87L31.17,22.48C29.96,21.39,28.1,21.44,26.95,22.59C25.81,23.74,25.75,25.57,26.82,26.79L37.13,38.53L24.81,26.22C23.25,24.65,23.25,22.12,24.81,20.56C26.38,19,28.91,19,30.47,20.56Z" fill="currentColor"/><path d="M56.22,27.92L44.6,17.53C43.39,16.44,41.54,16.49,40.39,17.64C39.24,18.79,39.18,20.62,40.25,21.84L50.56,33.58L38.25,21.27C36.69,19.7,36.69,17.17,38.25,15.61C39.81,14.05,42.34,14.05,43.91,15.61Z" fill="currentColor"/><path d="M69.07,78.39C89.09,63.97,76.89,33.77,80.82,22.73C81.11,31.64,85.14,41.65,86.43,47.93C87.92,58.27,88.03,64.8,87.93,68.11C87.87,69.84,87.09,71.42,85.86,72.65L70.65,87.86C68.55,89.96,65.47,90.72,62.69,89.7C56.11,87.26,43.97,82.14,37.26,75.43L26.68,64.85C48.57,86.74,58.63,85.91,69.07,78.39Z" fill="currentColor"/><path d="M34.36,61.22C35.34,62.19,36.92,62.19,37.9,61.22C38.87,60.24,38.87,58.66,37.9,57.68L37.34,57.12C39.99,59.78,42.32,62.74,44.26,65.96L46.73,70.05L42.64,67.58C39.42,65.64,36.46,63.31,33.8,60.66Z" fill="currentColor"/><path d="M42.14,50.61C43.12,51.59,44.7,51.59,45.67,50.61C46.65,49.63,46.65,48.05,45.67,47.08L45.12,46.52L47.63,49.03C50.03,51.43,52.17,54.06,54.04,56.89L58.04,62.98L51.96,58.97C49.13,57.11,46.49,54.96,44.09,52.56L41.58,50.05Z" fill="currentColor"/><path d="M52.04,42.13C53.01,43.1,54.6,43.1,55.57,42.13C56.55,41.15,56.55,39.57,55.57,38.59L55.02,38.03C58.14,41.15,60.83,44.68,63.01,48.51L64.41,50.96L61.96,49.56C58.13,47.38,54.6,44.69,51.48,41.57Z" fill="currentColor"/><path d="M80.2,21.18C77.02,20.78,73.68,22.91,73.26,26.62L72.02,37.6L72.01,37.56L72.03,25.25C72.22,21.12,77.25,18.6,80.2,21.18Z" fill="currentColor"/><path d="M0,23L0.08,16L12,19.66Z" fill="currentColor"/><path d="M16,0L23,0L19.49,12Z" fill="currentColor"/><path d="M2,6.23L6.95,1.28L12.95,12.25Z" fill="currentColor"/><path d="M51,0L44,0L47.51,12Z" fill="currentColor"/><path d="M65,6.23L60.05,1.28L54.05,12.25Z" fill="currentColor"/></svg>