<svg xmlns="http://www.w3.org/2000/svg" viewBox="0 0 90 90" fill="currentColor"><path d="M75.86,64.86C75.34,64.86,74.88,64.78,74.38,64.73C75.18,66.43,75.64,68.3,75.64,70.31C75.64,77.62,69.7,83.56,62.36,83.56C59.83,83.56,57.47,82.82,55.46,81.58C54.33,84.91,51.23,87.3,47.51,87.3C44.6,87.3,42.04,85.85,40.53,83.62C39.15,84.64,37.48,85.24,35.66,85.24C31.54,85.24,28.15,82.22,27.52,78.28L25.73,80.26L22.24,84.11L20.64,85.87C19.79,86.81,18.66,87.33,17.43,87.33C15.94,87.33,14.51,86.56,13.71,85.3C12.92,84.06,12.84,82.52,13.44,81.17L15.59,76.52L18.2,70.83L18.36,70.47C17.62,69.32,17.18,67.94,17.18,66.46C17.18,64.97,17.62,63.63,18.36,62.44C15.94,59.89,13.38,57.08,10.8,54.22C9.62,52.9,8.79,51.97,8.52,51.72C4.28,47.95,3.57,41.63,6.87,37.01C9.59,33.18,14.54,32.77,16.55,32.77C17.84,32.77,19.05,32.91,19.96,33.18C21.58,33.57,22.98,34.01,24.3,34.42C25.98,34.97,27.41,35.55,28.65,36.04C30.08,36.62,31.54,37.2,32,37.31C32.52,36.1,28.23,31.34,25.68,28.48L23.61,26.17C22.38,24.77,21.11,23.56,19.93,22.38C15.7,18.25,11.71,14.32,11.93,6.7L12.04,4.78L65.42,4.78C63.24,9.56,65.19,15.72,65.28,15.97C69.35,16.19,72.92,18.28,75.07,21.47C76.47,19.82,78.78,18.72,81.39,18.72C80.24,20.34,79.52,22.24,79.52,24.25C79.52,26.5,80.4,28.56,81.83,30.32C83.98,31.92,85.41,34.48,85.41,37.36C85.41,40.06,84.17,42.45,82.25,44.05C85.27,46.08,87.28,49.55,87.28,53.45L87.25,53.53C87.25,59.8,82.16,64.86,75.86,64.86ZM15.83,82.33C15.04,84.09,17.34,85.57,18.64,84.14L20.23,82.38L21.3,81.2L23.73,78.53L25.43,76.63C25.43,76.63,26.25,75.7,27.19,74.65C28.07,73.66,29.06,72.59,29.55,72.07C32.09,69.57,25.7,62.69,23.48,65.69C23.39,65.91,23.31,66.07,23.23,66.29C22.24,68.69,21.3,70.45,21.3,70.45L20.59,71.99L18.36,76.83L17.98,77.68L17.98,77.65ZM20.2,82.35L18.61,84.11C17.32,85.54,15.01,84.06,15.8,82.3L17.95,77.65ZM20.59,71.96L23.7,78.5L21.28,81.17L20.2,82.35L17.98,77.65L18.36,76.8ZM20.2,82.35L17.95,77.65L17.98,77.65ZM21.3,70.42C21.3,70.42,22.21,68.69,23.23,66.27L27.19,74.6C26.25,75.64,25.43,76.58,25.43,76.58L23.73,78.48L20.62,71.93L20.59,71.96ZM23.7,78.5L20.59,71.96ZM23.45,65.66C25.7,62.66,32.06,69.54,29.53,72.04C29,72.54,28.04,73.64,27.16,74.63L23.2,66.27C23.29,66.05,23.37,65.88,23.45,65.66ZM27.19,74.63L23.2,66.27ZM67.04,39.29C67.04,39.81,66.95,40.33,66.87,40.83L66.93,40.83C66.16,46.16,63.93,52.19,59.01,58.37C55.49,62.77,52.16,65.74,49.11,67.78C51.09,70.97,51.5,74.68,50.54,78.06C46.83,77.73,43.28,75.86,41.02,72.56C40.42,71.68,39.95,70.75,39.59,69.79C38.41,69.13,37.06,68.74,35.6,68.74C34.56,68.74,33.54,68.96,32.64,69.32C32.55,68.91,32.44,68.47,32.28,68.05C31.43,65.96,29.53,63.87,27.38,62.86C26.59,62.5,25.76,62.25,24.93,62.25C24.05,62.25,23.26,62.55,22.57,63.02C16.91,57.27,10.69,50.1,9.98,49.46C6.79,46.63,6.26,41.87,8.74,38.44C11.05,35.19,16.41,35,18.94,35.71C20.48,36.07,21.8,36.48,23.04,36.9C24.77,37.47,26.23,38.05,27.46,38.55C27.46,38.57,27.46,38.63,27.49,38.66C31.18,40.11,33.08,40.88,34.48,38.52C35.94,35.27,30.13,29.97,24.71,23.86C19.41,17.84,14.6,15.36,14.65,7.31L55.41,7.31L61.43,7.31C61.43,7.31,60.71,12.28,62.14,16.24L61.98,16.24C61.98,16.24,61.98,16.24,62.01,16.24C56.28,17.43,51.97,22.46,51.97,28.54C51.97,28.56,51.97,28.59,51.97,28.62C53.12,28.23,54.33,27.96,55.63,27.96L55.68,27.96C61.95,27.96,67.04,33.02,67.04,39.29ZM14.68,7.28L34.97,7.28C44.57,29.28,24.93,23.89,24.74,23.83C19.43,17.81,14.62,15.34,14.68,7.28ZM27.38,62.83C26.59,62.47,25.76,62.22,24.93,62.22C24.05,62.22,23.26,62.53,22.57,62.99C16.91,57.25,10.69,50.07,9.98,49.44C6.79,46.6,6.26,41.85,8.74,38.41C11.05,35.16,16.41,34.97,18.94,35.69C20.48,36.04,21.8,36.46,23.04,36.87C24.77,37.45,26.23,38.02,27.46,38.52C27.46,38.55,27.46,38.6,27.49,38.63C27.52,38.71,27.57,38.79,27.57,38.9C29.89,49.49,19.96,49.13,19.96,49.13L20.01,49.11ZM20.4,41.6C20.95,42.2,20.92,43.14,20.32,43.72C19.71,44.27,17.68,42.07,18.28,41.52C18.89,40.97,19.85,40.99,20.4,41.6ZM36.84,58.54C36.65,58.68,36.43,58.76,36.21,58.87C35.44,59.17,34.59,59.23,33.76,59.01C33.68,59.01,33.6,58.95,33.52,58.92C31.54,58.21,30.52,56.04,31.23,54.08C31.95,52.1,34.12,51.09,36.1,51.8C37.75,52.41,38.74,54,38.6,55.68C38.69,55.68,38.77,55.73,38.85,55.76C40.58,56.37,41.49,58.1,41.24,59.86C40.8,59.28,40.28,58.79,39.56,58.54L39.54,58.48C38.63,58.15,37.67,58.21,36.84,58.54ZM46.8,68.6C48.06,70.47,48.34,72.7,47.76,74.74C45.67,74.54,40.86,67.53,41.41,65.5L41.44,65.5C43.52,65.69,45.53,66.73,46.8,68.6ZM32.69,55.46C32.69,56.09,33.21,56.61,33.84,56.61C34.48,56.61,35,56.09,35,55.46C35,54.83,34.48,54.3,33.84,54.3C33.21,54.3,32.69,54.83,32.69,55.46ZM32.33,73.14L36.84,82.66C30.63,83.32,29.42,77.27,29.42,77.27C29.42,77.27,30.96,74.63,32.33,73.14ZM39.65,81.97C38.63,82.33,37.7,82.52,36.87,82.63L32.36,73.11C32.55,72.89,32.77,72.7,32.97,72.54C34.06,71.63,36.24,72.04,37.2,72.32L41.79,81.97C41.38,81.5,41.13,81.14,41.13,81.14L41.1,81.12ZM41.77,81.97L37.17,72.32C37.17,72.32,37.17,72.32,37.2,72.32C37.48,72.4,37.67,72.45,37.67,72.45C38.52,74.16,40.64,76.47,40.64,76.47C42.48,78.37,44.38,79.47,46.08,80.13L48.23,84.64C45.12,85.19,42.87,83.26,41.79,82.02L41.82,82.02ZM48.28,84.64C48.28,84.64,48.28,84.64,48.26,84.64L46.11,80.13C46.11,80.13,46.11,80.13,46.14,80.13C48.72,81.12,50.87,81.06,51.75,80.98L52.19,81.91C51.42,83.1,50.34,84.14,48.78,84.55L48.8,84.55C48.61,84.61,48.45,84.58,48.28,84.64ZM52.22,81.91L51.77,80.98C51.77,80.98,51.77,80.98,51.8,80.98C52.05,80.95,52.24,80.92,52.24,80.92C53.65,78.97,54.09,76.74,54.06,74.74L55.3,77.38C54.55,76.83,54.11,76.39,54.11,76.39L54.11,76.41C54.11,76.41,53.81,79.49,52.22,81.91ZM55.3,77.4L54.06,74.76C54.06,74.76,54.06,74.71,54.06,74.68C54,71.41,52.77,68.71,52.77,68.71C53.51,68.22,54.41,67.48,55.41,66.57L61.9,80.26C59.12,79.93,56.7,78.45,55.35,77.43C55.35,77.43,55.32,77.43,55.3,77.4ZM61.95,80.26C61.95,80.26,61.95,80.26,61.92,80.26L55.43,66.57C56.53,65.58,57.74,64.4,58.98,63.05L66.76,79.44C66.76,79.44,66.68,79.49,66.63,79.52L66.63,79.49C65.03,80.26,63.44,80.43,61.95,80.26ZM58.98,63.02C60.11,61.78,61.21,60.44,62.28,58.98L70.53,76.39C69.62,77.6,68.41,78.61,66.76,79.44L66.76,79.41ZM62.31,58.92C63.41,57.44,64.42,55.87,65.31,54.22L72.45,69.32C72.56,71.96,72.02,74.35,70.56,76.3L70.56,76.33ZM56.06,23.72L56.78,25.24C55.68,25.29,54.97,25.48,54.97,25.48C55.3,24.8,55.68,24.27,56.06,23.72ZM71.44,63.68C72.04,65.61,72.37,67.5,72.45,69.26L72.45,69.32L65.31,54.22C65.31,54.22,65.31,54.22,65.31,54.19C65.66,53.51,66.05,52.82,66.35,52.13C66.9,50.92,67.37,49.71,67.83,48.53L74.27,62.11C72.4,62.06,70.92,61.76,70.92,61.76L70.92,61.78ZM56.06,23.7C57.14,22.18,58.4,21.11,59.7,20.37L62.77,26.86C60.44,25.43,58.27,25.18,56.81,25.24ZM56.06,23.72L56.06,23.7L56.81,25.24L56.78,25.24ZM74.27,62.14L67.83,48.56C67.83,48.56,67.83,48.56,67.83,48.53C68.74,46.14,69.46,43.83,69.73,41.52L79.22,61.54C77.73,62.09,75.89,62.22,74.3,62.17L74.3,62.14C74.3,62.14,74.3,62.14,74.27,62.14ZM59.7,20.37L62.77,26.89C62.77,26.89,62.77,26.89,62.75,26.89L62.77,26.86ZM79.25,61.51L69.76,41.49C69.76,41.49,69.76,41.46,69.76,41.43C70.14,37.97,69.51,34.59,67.15,31.09C65.77,29.09,64.29,27.74,62.86,26.86L59.78,20.34C61.45,19.41,63.08,19.02,64.29,18.86L82.99,58.29C82.27,59.36,81.42,60.33,80.35,61.01L80.29,61.01C79.99,61.21,79.63,61.37,79.25,61.51ZM64.26,18.83C64.26,18.83,64.26,18.83,64.29,18.83C65.36,18.69,66.13,18.72,66.13,18.72C67.64,18.77,68.94,19.27,70.03,19.96L80.62,42.29C79.44,43.47,78.26,44.27,78.26,44.27L80.16,45.67C80.16,45.67,83.4,48.39,84.36,51.75C84.97,53.92,84.31,56.28,82.99,58.26L82.96,58.26ZM80.59,42.26L70.01,19.93L70.03,19.93C73.36,22.05,74.79,26.06,74.79,26.06C75.48,25.21,77.3,24.16,77.3,24.16C76.77,27.77,79.08,30.98,80.29,32.25C81.36,33.38,82.74,34.45,82.91,37.69L82.91,37.78C82.99,39.43,81.81,41.05,80.59,42.26ZM24.3,67.42C24.3,67.42,25.73,67.06,26.86,68.25C26.86,68.25,15.5,85.71,17.37,81.36L17.34,81.36ZM54.11,76.36C54.11,76.36,54,77.4,53.62,78.75C53.53,78.75,53.45,78.75,53.34,78.75C55.16,73.97,52.74,68.63,52.74,68.63C53.37,68.22,54.11,67.59,54.94,66.9C55.49,68.33,56.97,73,55.08,77.16L55.08,77.18C54.47,76.72,54.11,76.36,54.11,76.36ZM71.25,59.53L70.72,57.63C70.72,57.63,76.99,58.84,80.1,56.86C80.35,56.7,80.54,56.45,80.79,56.26C80.07,57.36,79.19,58.35,78.09,59.06C76.31,60.19,73.5,60.27,71.41,60.13C71.36,59.91,71.33,59.72,71.25,59.53ZM68.44,74.87C69.18,74.52,69.84,74.1,70.42,73.66C69.57,74.96,68.36,76.06,66.63,76.88C62.42,78.89,58.24,76.44,56.31,74.98C56.86,73.42,57,72.01,57,72.01L56.97,72.04C56.97,72.04,62.69,77.62,68.44,74.87ZM41.44,78.59C41.44,78.59,43.8,82.46,48.37,80.51C48.8,80.32,49.22,80.21,49.58,79.96C48.97,80.95,48.12,81.83,46.85,82.16C43.28,83.12,41.05,79.58,41.05,79.58L39.95,80.24C33.41,82.57,32.25,76.66,32.25,76.66C32.25,76.66,33.82,73.99,34.92,73.09C34.95,73.06,35,73.09,35.05,73.03C34.37,73.99,33.79,74.98,33.79,74.98L33.73,75.01C33.73,75.01,34.89,80.9,41.44,78.59ZM72.1,28.43C76.83,35.38,74.6,42.07,71.33,49.46C69.32,54.03,65.91,58.37,62.8,61.59C65.28,58.7,67.72,55.27,69.32,51.66C72.59,44.27,74.82,37.58,70.09,30.63C64.78,22.87,57.94,24.99,57.94,24.99C58.79,23.2,59.91,21.88,61.1,20.92C60.69,21.5,60.27,22.07,59.94,22.79C59.94,22.79,66.79,20.64,72.1,28.43Z"/></svg>