<svg xmlns="http://www.w3.org/2000/svg" viewBox="0 0 90 90"><path d="M88,45C88,21.25,68.75,2,45,2C21.25,2,2,21.25,2,45C2,68.75,21.25,88,45,88C68.75,88,88,68.75,88,45Z" fill="#F7C631"/><path d="M88,45C88,68.75,68.75,88,45,88C35.3,88,26.35,84.79,19.16,79.37C23.78,81.07,28.78,82,34,82C57.75,82,77,62.75,77,39C77,24.95,70.26,12.48,59.84,4.63C76.28,10.68,88,26.47,88,45Z" fill="#CF8D1B" opacity="0.5"/><path d="M88,45C88,68.75,68.75,88,45,88C44.5,88,44,87.99,43.5,87.97C66.55,87.18,85,68.25,85,45C85,21.75,66.55,2.82,43.5,2.03C44,2.01,44.5,2,45,2C68.75,2,88,21.25,88,45Z" fill="#FAD541"/><path d="M2.31,39.84C4.77,19.31,21.69,3.22,42.59,2.07C23.37,6.97,8.3,21.38,2.31,39.84Z" fill="#FFFFC7"/><path d="M36.06,40.05C36.06,43.49,32.6,40.05,28.34,40.05C24.07,40.05,20.61,43.49,20.61,40.05C20.61,36.61,24.07,33.84,28.34,33.84C32.6,33.84,36.06,36.61,36.06,40.05Z" fill="#312E2B"/><path d="M54.13,40.05C54.13,36.61,57.59,33.84,61.86,33.84C66.12,33.84,69.58,36.61,69.58,40.05C69.58,43.49,66.12,40.05,61.86,40.05C57.59,40.05,54.13,43.49,54.13,40.05Z" fill="#312E2B"/><path d="M47.44,66.89L60.28,60.64L65.61,77.45L56.8,81.22C56.8,74.26,53.7,67.54,47.44,66.89Z" fill="#E3A926"/><path d="M45,65.5C33.58,65.5,22.94,62.8,16.23,55.33C15.69,54.72,15.78,53.78,16.41,53.26C16.94,52.81,17.7,52.78,18.27,53.17C27.07,59.11,36.11,60.8,45.03,60.8C53.94,60.8,62.99,59.11,71.79,53.17C72.36,52.78,73.12,52.81,73.65,53.26C74.27,53.78,74.37,54.72,73.82,55.33C67.09,62.8,56.47,65.5,45.05,65.5" fill="none" stroke="#FCE26A" stroke-width="2" stroke-linecap="round" stroke-linejoin="round"/><path d="M45,69.33C33.13,69.33,22.07,63.39,15.14,54.81C14.63,54.18,14.69,53.27,15.24,52.68C15.87,52,16.92,51.96,17.62,52.56C26.64,60.21,35.9,62.39,45.03,62.39C54.16,62.39,63.42,60.21,72.43,52.56C73.13,51.96,74.19,52,74.81,52.68C75.37,53.27,75.42,54.18,74.91,54.81C67.96,63.39,56.92,69.33,45.05,69.33" fill="none" stroke="#312E2B" stroke-width="2" stroke-linecap="round" stroke-linejoin="round"/><path d="M57.62,72.78L54.57,66.19C57.62,62.58,63.11,60,67.9,60.24L70.91,65.27C72.97,68.95,71.67,73.6,68.02,75.66C64.33,77.72,59.69,76.43,57.62,72.78Z" fill="#FF788A"/><path d="M62.1,63.63C60.61,64.39,57.83,62.88,54.58,66.21L52.55,61.83C57.04,61.13,61.54,59.68,66.01,57.1L67.9,60.27C63.59,60.88,63.58,62.87,62.1,63.63Z" fill="#AD1F24"/><path d="M79.58,54.16C84.29,49.67,77.23,42.24,70.26,45.64C76.61,45.71,79.58,49.06,79.58,54.16Z" fill="#CF8D1B"/><path d="M10.42,54.16C5.71,49.67,12.77,42.24,19.74,45.64C13.39,45.71,10.42,49.06,10.42,54.16Z" fill="#CF8D1B"/></svg>