<svg xmlns="http://www.w3.org/2000/svg" viewBox="0 0 90 90"><path d="M88,45C88,21.25,68.75,2,45,2C21.25,2,2,21.25,2,45C2,68.75,21.25,88,45,88C68.75,88,88,68.75,88,45Z" fill="#F7C631"/><path d="M88,45C88,68.75,68.75,88,45,88C35.3,88,26.35,84.79,19.16,79.37C23.78,81.07,28.78,82,34,82C57.75,82,77,62.75,77,39C77,24.95,70.26,12.48,59.84,4.63C76.28,10.68,88,26.47,88,45Z" fill="#CF8D1B" opacity="0.5"/><path d="M88,45C88,68.75,68.75,88,45,88C44.5,88,44,87.99,43.5,87.97C66.55,87.18,85,68.25,85,45C85,21.75,66.55,2.82,43.5,2.03C44,2.01,44.5,2,45,2C68.75,2,88,21.25,88,45Z" fill="#FAD541"/><path d="M2.31,39.84C4.77,19.31,21.69,3.22,42.59,2.07C23.37,6.97,8.3,21.38,2.31,39.84Z" fill="#FFFFC7"/><path d="M30.65,72.67C24.88,72.67,20.23,68.05,20.23,62.35C20.23,56.66,24.91,52.04,30.65,52.04L59.35,52.04C65.12,52.04,69.77,56.66,69.77,62.35C69.77,68.05,65.09,72.67,59.35,72.67Z" fill="#FCE26A"/><path d="M30.07,69.67C24.07,69.67,19.23,65.05,19.23,59.35C19.23,53.66,24.1,49.04,30.07,49.04L59.93,49.04C65.93,49.04,70.77,53.66,70.77,59.35C70.77,65.05,65.9,69.67,59.93,69.67Z" fill="#312E2B"/><path d="M36.06,34.74C36.06,38.18,32.6,34.74,28.34,34.74C24.07,34.74,20.61,38.18,20.61,34.74C20.61,31.31,24.07,28.53,28.34,28.53C32.6,28.53,36.06,31.31,36.06,34.74Z" fill="#312E2B"/><path d="M53.94,34.74C53.94,31.31,57.4,28.53,61.66,28.53C65.93,28.53,69.39,31.31,69.39,34.74C69.39,38.18,65.93,34.74,61.66,34.74C57.4,34.74,53.94,38.18,53.94,34.74Z" fill="#312E2B"/><path d="M32.1,56.77L57.9,56.77C60.73,56.77,63.01,54.46,63.04,51.63L26.96,51.63C26.96,54.49,29.27,56.77,32.1,56.77Z" fill="#F8F8F8"/><path d="M57.9,61.94L32.1,61.94C29.27,61.94,26.99,64.25,26.96,67.08L63.04,67.08C63.04,64.22,60.73,61.94,57.9,61.94Z" fill="#F8F8F8"/></svg>