<svg xmlns="http://www.w3.org/2000/svg" viewBox="0 0 90 90" fill="currentColor"><path d="M71.55,76.72C64.4,82.68,55.32,85.98,46.05,85.98C43.74,85.98,41.41,85.79,39.1,85.38C17.4,81.56,2.83,60.79,6.62,39.1C7.42,34.53,8.98,30.19,11.27,26.17C11.27,25.92,11.27,25.7,11.27,25.48C11.27,18.97,16.49,13.58,22.98,13.33C29.77,8.54,37.7,6.01,45.97,6.01C48.28,6.01,50.62,6.21,52.9,6.62C63.41,8.46,72.59,14.29,78.72,23.04C84.86,31.78,87.22,42.37,85.38,52.9L85.35,52.9C83.73,62.22,78.81,70.67,71.55,76.72ZM72.37,77.71C64.97,83.87,55.6,87.25,46.03,87.25C43.63,87.25,41.22,87.03,38.85,86.62C16.46,82.69,1.45,61.29,5.38,38.88C6.21,34.15,7.83,29.66,10.17,25.54C10.17,25.29,10.17,25.05,10.17,24.83C10.17,18.09,15.56,12.53,22.27,12.28C29.28,7.33,37.45,4.75,45.97,4.75C48.37,4.75,50.76,4.97,53.15,5.38C64.01,7.28,73.47,13.3,79.8,22.32C86.12,31.34,88.57,42.29,86.67,53.12L86.62,53.12C84.94,62.75,79.88,71.47,72.37,77.71ZM23.09,14.05L22.84,14.21L22.54,14.21C16.74,14.29,12.04,19.05,12.04,24.85C12.04,25.13,12.04,25.4,12.06,25.7L12.06,26.01L11.93,26.25C9.62,30.24,8.02,34.62,7.22,39.21C3.51,60.58,17.84,81.01,39.21,84.75C41.46,85.13,43.77,85.35,46.05,85.35C65.17,85.35,81.45,71.66,84.75,52.79C86.56,42.45,84.22,32,78.2,23.42C72.18,14.81,63.13,9.09,52.79,7.28C50.54,6.89,48.23,6.67,45.95,6.67C37.72,6.67,29.83,9.23,23.09,14.05ZM23.53,56.7C23.7,56.7,23.86,56.7,24.03,56.7C25.27,56.83,26.36,57.44,27.16,58.4C28.23,59.75,29.86,60.52,31.59,60.52C32.88,60.52,34.12,60.08,35.14,59.28C35.96,58.62,37.01,58.26,38.05,58.26C39.48,58.26,40.8,58.9,41.68,60C42.45,60.96,42.81,62.17,42.67,63.41C42.53,64.64,41.93,65.74,40.97,66.54C40.8,66.68,40.64,66.79,40.47,66.93C38.02,68.74,35.11,69.73,32.06,69.84C31.89,69.84,31.75,69.84,31.59,69.84C27.02,69.84,22.76,67.81,19.9,64.26C18.28,62.25,18.61,59.31,20.62,57.71C21.44,57.05,22.49,56.7,23.53,56.7ZM31.59,67.94C31.64,67.94,31.73,67.94,31.78,67.94C31.73,67.61,31.73,67.28,31.78,66.95C32.03,64.67,34.09,63.02,36.38,63.27C37.72,63.41,38.85,64.2,39.51,65.3C39.59,65.25,39.7,65.17,39.78,65.11C40.36,64.64,40.72,63.98,40.8,63.27C40.88,62.53,40.66,61.81,40.23,61.26C39.7,60.6,38.93,60.24,38.08,60.24C37.45,60.24,36.84,60.46,36.35,60.85C35,61.92,33.32,62.53,31.62,62.53C29.31,62.53,27.16,61.51,25.7,59.69C25.24,59.12,24.58,58.76,23.86,58.68C23.15,58.59,22.41,58.81,21.86,59.25C20.67,60.22,20.48,61.95,21.44,63.13L21.39,63.08C23.89,66.18,27.6,67.94,31.59,67.94ZM58.18,60.14C59.23,61.04,60.55,61.56,61.92,61.56C63.55,61.56,65.08,60.88,66.16,59.67C66.98,58.73,68.11,58.18,69.38,58.1C69.46,58.1,69.57,58.1,69.65,58.1C70.78,58.1,71.88,58.51,72.73,59.28C73.67,60.11,74.22,61.23,74.3,62.5C74.38,63.74,73.97,64.95,73.14,65.88C72.54,66.54,71.88,67.17,71.16,67.75C68.83,69.59,66.02,70.67,63.02,70.89C62.66,70.89,62.28,70.91,61.92,70.91C58.27,70.91,54.74,69.59,51.99,67.17C51.06,66.35,50.51,65.22,50.43,63.96C50.34,62.72,50.76,61.51,51.58,60.58C52.46,59.59,53.73,59.01,55.08,59.01L55.1,58.95C56.23,58.95,57.33,59.36,58.18,60.14ZM61.95,68.94C62.14,68.94,62.34,68.94,62.53,68.94C62.42,68.61,62.34,68.25,62.31,67.86C62.17,65.55,63.9,63.6,66.21,63.46C68,63.35,69.59,64.4,70.28,65.97C70.81,65.53,71.3,65.06,71.71,64.59C72.21,64.04,72.45,63.33,72.4,62.61C72.34,61.87,72.02,61.21,71.47,60.71C70.97,60.27,70.31,60.02,69.65,60.02C69.59,60.02,69.54,60.02,69.48,60.02C68.74,60.08,68.08,60.41,67.59,60.96C66.16,62.58,64.09,63.52,61.92,63.52C60.08,63.52,58.29,62.83,56.92,61.62C56.42,61.18,55.76,60.93,55.1,60.93C54.3,60.93,53.56,61.26,53.04,61.87C52.55,62.42,52.3,63.13,52.35,63.85C52.41,64.59,52.74,65.25,53.29,65.75L53.29,65.66C55.68,67.78,58.73,68.94,61.95,68.94ZM69.9,50.26L69.95,50.26C70.47,50.29,70.89,50.76,70.83,51.28C70.78,52.19,71.05,53.07,71.66,53.76C72.26,54.44,73.09,54.85,74,54.91C75.86,55.05,77.52,53.62,77.65,51.75C77.68,51.23,78.15,50.84,78.67,50.87C79.19,50.9,79.61,51.36,79.55,51.88C79.36,54.83,76.8,57.03,73.86,56.84C70.92,56.64,68.72,54.09,68.91,51.14L68.94,51.14C68.96,50.65,69.4,50.26,69.9,50.26ZM20.48,48.89C20.51,48.37,20.98,47.98,21.5,48.01C22.02,48.04,22.43,48.5,22.38,49.03C22.18,51.97,19.63,54.17,16.69,53.98C15.26,53.87,13.96,53.23,13.03,52.16C12.09,51.09,11.63,49.71,11.73,48.28C11.76,47.79,12.2,47.4,12.7,47.4L12.75,47.4C13.28,47.43,13.69,47.9,13.63,48.42C13.49,50.29,14.93,51.94,16.8,52.08L16.82,52.05C18.69,52.19,20.34,50.76,20.48,48.89ZM40.01,46.85C39.02,46.36,38.3,45.48,37.97,44.43C37.64,43.39,37.72,42.26,38.24,41.27C38.96,39.9,40.36,39.04,41.93,39.04C42.59,39.04,43.25,39.21,43.8,39.51C44.16,39.65,45.64,39.51,46.36,39.45C46.91,39.4,47.38,39.37,47.73,39.37C49.91,39.37,51.66,41.13,51.66,43.3C51.66,43.74,51.55,44.65,51.36,46.05C51.28,46.58,50.81,46.94,50.29,46.88C50.21,46.88,50.13,46.85,50.07,46.83C49.69,46.66,49.41,46.25,49.47,45.81C49.71,43.99,49.74,43.44,49.74,43.33C49.74,42.23,48.83,41.33,47.73,41.33C47.46,41.33,47.02,41.35,46.52,41.41C44.82,41.55,43.63,41.63,42.95,41.27C42.62,41.1,42.29,41.02,41.93,41.02C41.1,41.02,40.34,41.49,39.95,42.23C39.67,42.76,39.62,43.36,39.81,43.94C40.01,44.52,40.39,44.95,40.91,45.23C45.2,47.46,43.77,52.93,43.58,53.53C43.22,54.72,43.88,55.95,45.06,56.31C45.31,56.4,45.56,56.42,45.84,56.4C45.97,56.4,46.11,56.4,46.25,56.45C46.58,56.59,46.83,56.92,46.85,57.3C46.85,57.83,46.47,58.27,45.95,58.29C45.48,58.29,44.98,58.27,44.52,58.13C42.34,57.47,41.1,55.16,41.77,52.98L41.71,52.93C41.85,52.46,42.95,48.37,40.01,46.85ZM75.78,51.44C75.7,51.55,75.62,51.64,75.53,51.72C75.2,51.94,74.82,52.05,74.41,52.05C73.72,52.05,73.11,51.72,72.76,51.14C72.07,50.12,71.33,49.13,70.5,48.2C70.36,48.06,70.25,47.9,70.12,47.76C70.06,47.7,70.03,47.65,69.98,47.57C69.92,47.51,69.84,47.48,69.79,47.43C67.7,45.2,65.19,43.3,62.39,41.74C62.39,41.74,62.36,41.74,62.34,41.71C62.23,41.65,62.14,41.54,62.06,41.46C61.92,41.46,61.76,41.43,61.62,41.35C59.12,40.06,56.34,39.01,53.37,38.3C53.31,38.3,53.23,38.27,53.18,38.22C53.12,38.22,53.09,38.16,53.04,38.13C52.98,38.13,52.96,38.13,52.9,38.13C52.82,38.13,52.77,38.13,52.68,38.13C50.07,37.53,47.29,37.14,44.43,37.01C41.3,36.84,38.24,37.01,35.49,37.45C32.52,37.94,29.86,38.79,27.36,40.06C27.25,40.11,27.14,40.14,27.02,40.14C27,40.17,26.97,40.22,26.91,40.25C26.86,40.31,26.8,40.33,26.75,40.36C26.75,40.36,26.72,40.36,26.7,40.39C25.48,41.05,24.3,41.79,23.18,42.64C21.52,43.94,19.93,45.45,18.39,47.18C18,47.62,17.48,47.87,16.91,47.87C15.8,47.87,14.9,47.02,14.9,45.89C14.87,43.22,14.62,40.64,14.38,38.13C13.71,31.09,13.16,25.04,17.21,20.59C17.95,19.79,18.8,19.08,19.82,18.42C23.61,16,29.45,14.59,37.7,14.13C39.76,14.02,41.93,13.96,44.3,13.96C45.15,13.96,46,13.99,46.85,14.07C57.33,14.95,66.41,21.3,71.77,30.46C74.98,35.99,76.86,42.56,76.86,49.57L76.97,49.63C76.97,50.45,76.5,51.14,75.78,51.44ZM16.38,37.97C16.63,40.5,16.85,43.14,16.91,45.86C16.91,45.89,16.91,45.92,16.93,45.92L16.93,41.87C16.93,40.17,17.76,38.52,19.11,37.5L19.19,37.45C20.15,36.73,21.28,36.35,22.46,36.35C23.78,36.35,25.07,36.84,26.04,37.67L26.04,36.62C26.04,34.48,27.41,32.52,29.42,31.81L29.5,31.81C30.05,31.59,30.66,31.48,31.23,31.48C32.61,31.48,33.87,32.03,34.78,32.94C35.47,31.23,37.09,29.99,39.02,29.91C39.54,29.91,40.09,29.88,40.64,29.88L40.66,29.88C42.53,29.88,44.16,30.96,44.95,32.55C45.89,31.56,47.21,30.93,48.7,30.93C49.11,30.93,49.55,30.98,49.96,31.09L50.04,31.09C52.19,31.64,53.7,33.51,53.87,35.69C54.85,34.83,56.12,34.34,57.47,34.34C58.38,34.34,59.23,34.56,60.02,34.97L60.11,35.03C61.73,35.88,62.8,37.5,62.97,39.29C63.08,39.34,63.16,39.4,63.27,39.45C63.85,39.15,64.48,38.99,65.14,38.99C66.02,38.99,66.84,39.26,67.56,39.81C68.36,40.42,69.18,41.08,69.95,41.74C70.86,42.51,71.38,43.63,71.38,44.84L71.38,45.5C71.74,45.37,72.13,45.28,72.51,45.28C73.33,45.28,74.11,45.61,74.68,46.22L74.68,46.27C74.68,46.27,74.77,46.33,74.79,46.38C74.38,41.82,73.14,37.5,71.25,33.65C70.36,34.48,69.21,34.97,67.97,34.97C66.93,34.97,65.94,34.61,65.11,33.98C64.87,33.79,64.59,33.57,64.34,33.38C63.05,32.39,62.34,30.85,62.45,29.25L62.53,28.18C61.62,28.87,60.49,29.25,59.28,29.25C58.43,29.25,57.6,29.06,56.84,28.67L56.75,28.62C55.19,27.85,54.11,26.42,53.81,24.77C52.96,25.43,51.86,25.84,50.7,25.84C50.26,25.84,49.8,25.79,49.35,25.65L49.27,25.65C47.87,25.26,46.74,24.3,46.08,23.09C45.15,24.08,43.77,24.66,42.29,24.55L42.34,23.59L42.23,24.55C41.82,24.52,41.38,24.49,40.97,24.49C39.67,24.47,38.47,23.92,37.59,22.95C37.53,22.9,37.48,22.84,37.45,22.76C36.73,23.92,35.52,24.77,34.12,25.04L34.04,25.04C32.41,25.37,30.71,24.88,29.5,23.75C29.17,25.4,28.04,26.83,26.48,27.57L26.36,27.63C25.62,27.99,24.82,28.18,24,28.18C22.49,28.18,21.06,27.55,20.01,26.45C19,25.35,18.47,23.92,18.58,22.4L18.58,21.88L18.72,21.88C15.23,25.7,15.75,31.4,16.38,37.97ZM21.99,41.21C22.95,40.5,23.95,39.84,24.96,39.23C24.96,39.23,24.91,39.21,24.91,39.18C24.25,38.57,23.39,38.24,22.49,38.24C21.72,38.24,21,38.49,20.37,38.96L20.29,39.01C19.41,39.67,18.86,40.75,18.86,41.87L18.86,43.91L18.83,43.91C19.88,42.92,20.92,42.01,21.99,41.21ZM59.26,36.65L59.17,36.59C58.65,36.32,58.07,36.18,57.49,36.18C57,36.18,56.53,36.29,56.06,36.48C55.82,36.59,55.6,36.7,55.41,36.87C57.36,37.42,59.26,38.13,61.02,38.93C60.96,38.66,60.85,38.41,60.71,38.16L60.74,38.16C60.41,37.53,59.91,37.01,59.26,36.65ZM51.97,35.52C51.77,34.26,50.87,33.24,49.6,32.91L49.52,32.91C49.24,32.83,48.97,32.8,48.72,32.8C47.4,32.8,46.25,33.6,45.75,34.75C45.7,34.89,45.64,35.05,45.59,35.19C47.79,35.33,49.93,35.63,51.99,36.04L51.99,36.02C51.99,35.85,51.99,35.69,51.97,35.52ZM36.38,35.44C38.63,35.14,41.08,35.03,43.58,35.11L43.58,34.72C43.58,34.72,43.58,34.7,43.58,34.67C43.58,33.07,42.26,31.78,40.69,31.78L40.66,31.78C40.14,31.78,39.65,31.78,39.13,31.81C37.59,31.89,36.38,33.18,36.38,34.75L36.38,35.08ZM27.96,37.72C29.97,36.84,32.09,36.21,34.34,35.74C34.34,35.63,34.28,35.55,34.23,35.44C33.76,34.23,32.61,33.35,31.23,33.35C30.88,33.35,30.49,33.4,30.16,33.54L30.08,33.54C28.81,34.04,27.96,35.25,27.96,36.59L27.96,37.53L27.96,37.56ZM66.52,41.32C66.49,41.32,66.43,41.27,66.41,41.24C66.35,41.21,66.32,41.19,66.27,41.16C65.8,40.88,65.25,40.8,64.73,40.91C66.46,41.98,68.08,43.19,69.54,44.51C69.48,43.99,69.21,43.5,68.8,43.14L68.8,43.17C68.06,42.53,67.28,41.9,66.52,41.32ZM73.42,47.54C73.42,47.54,73.2,47.35,73.09,47.29C72.92,47.21,72.76,47.18,72.62,47.18C72.48,47.18,72.32,47.21,72.18,47.26C72.81,47.98,73.39,48.75,73.94,49.52C73.89,49.05,73.83,48.61,73.78,48.17L73.78,48.12C73.72,47.92,73.64,47.73,73.5,47.59L74.19,46.93L74.16,46.91ZM28.18,17.59C25.1,18.22,22.68,19.1,20.78,20.26L20.62,22.54C20.56,23.53,20.86,24.44,21.52,25.15C22.18,25.87,23.15,26.28,24.11,26.28C24.63,26.28,25.16,26.17,25.65,25.92L25.79,25.87C26.97,25.32,27.74,24.19,27.82,22.93L28.04,19.74L28.04,19.71ZM36.68,16.55C34.28,16.68,32.09,16.93,30.11,17.26L29.94,19.85C29.89,20.73,30.19,21.58,30.79,22.24C31.56,23.04,32.69,23.42,33.79,23.2L33.87,23.2C35.27,22.9,36.32,21.72,36.43,20.26L36.54,18.61ZM49.88,23.75L49.96,23.75C50.23,23.86,50.51,23.89,50.78,23.89C52.46,23.89,53.87,22.57,53.98,20.89L54.06,19.76L54.17,18.28C52.1,17.45,49.96,16.9,47.76,16.6L47.54,20.12L47.54,20.45L47.48,20.45C47.38,21.96,48.39,23.37,49.88,23.75ZM57.69,26.89L57.77,26.94C58.29,27.19,58.81,27.33,59.37,27.33C60.99,27.33,62.75,26.09,62.88,24.05L62.88,23.7C60.8,21.83,58.46,20.31,55.98,19.13L55.87,20.95L55.87,21.06L55.71,23.5L55.71,23.48C55.63,24.91,56.4,26.23,57.69,26.89ZM66.41,32.44C66.9,32.83,67.48,33.02,68.08,33.02C68.74,33.02,69.4,32.77,69.92,32.33C68.47,29.75,66.73,27.41,64.73,25.37L64.45,29.33C64.4,30.3,64.81,31.2,65.61,31.81C65.88,32,66.16,32.22,66.41,32.44ZM45.59,20.01L45.84,16.44C45.17,16.38,44.49,16.35,43.85,16.35C42.04,16.35,40.28,16.38,38.6,16.46L38.44,19.1L38.44,19.57C38.35,20.34,38.63,21.11,39.15,21.69C39.67,22.27,40.39,22.6,41.16,22.62C41.6,22.62,42.07,22.65,42.51,22.68L42.53,22.68L42.51,22.65C44.1,22.76,45.48,21.55,45.59,20.01Z"/></svg>