<svg xmlns="http://www.w3.org/2000/svg" viewBox="0 0 90 90"><path d="M88,45C88,21.25,68.75,2,45,2C21.25,2,2,21.25,2,45C2,68.75,21.25,88,45,88C68.75,88,88,68.75,88,45Z" fill="currentColor"/><path d="M88,45C88,68.75,68.75,88,45,88C35.3,88,26.35,84.79,19.16,79.37C23.78,81.07,28.78,82,34,82C57.75,82,77,62.75,77,39C77,24.95,70.26,12.48,59.84,4.63C76.28,10.68,88,26.47,88,45Z" fill="currentColor" opacity="0.5"/><path d="M88,45C88,68.75,68.75,88,45,88C44.5,88,44,87.99,43.5,87.97C66.55,87.18,85,68.25,85,45C85,21.75,66.55,2.82,43.5,2.03C44,2.01,44.5,2,45,2C68.75,2,88,21.25,88,45Z" fill="currentColor"/><path d="M2.31,39.84C4.77,19.31,21.69,3.22,42.59,2.07C23.37,6.97,8.3,21.38,2.31,39.84Z" fill="currentColor"/><path d="M44.97,60.04C47.8,60.04,50.12,62.35,50.12,65.21C50.12,68.07,47.8,70.36,44.97,70.36C42.14,70.36,39.83,68.05,39.83,65.21C39.83,62.38,42.14,60.04,44.97,60.04Z" fill="currentColor"/><path d="M30.44,50.08C26.91,50.08,24,47.24,24,43.23C24,38.02,26.88,33.77,30.44,33.77C34.01,33.77,36.85,38.02,36.85,43.23C36.85,47.24,33.97,50.08,30.44,50.08Z" fill="currentColor"/><path d="M59.44,50.08C55.91,50.08,53,47.24,53,43.23C53,38.02,55.88,33.77,59.44,33.77C63.01,33.77,65.85,38.02,65.85,43.23C65.85,47.24,62.97,50.08,59.44,50.08Z" fill="currentColor"/><path d="M30.44,48.08C27.46,48.08,25,43.84,25,39.85C25,35.86,27.43,32.62,30.44,32.62C33.45,32.62,35.85,35.86,35.85,39.85C35.85,43.84,33.42,48.08,30.44,48.08Z" fill="currentColor"/><path d="M59.59,48.08C56.61,48.08,54.18,43.84,54.18,39.85C54.18,35.86,56.61,32.62,59.59,32.62C62.57,32.62,65,35.86,65,39.85C65,43.84,62.57,48.08,59.59,48.08Z" fill="currentColor"/><path d="M38.13,25.34C38.13,25.53,38.1,25.83,38.04,26.16C37.99,26.52,37.91,26.93,37.8,27.43C37.66,27.89,37.52,28.44,37.27,28.99C37.05,29.57,36.78,30.15,36.45,30.75C36.12,31.36,35.7,31.96,35.24,32.54C34.77,33.12,34.22,33.7,33.64,34.19C33.04,34.69,32.41,35.15,31.72,35.51C31.03,35.9,30.34,36.2,29.6,36.42C28.89,36.64,28.17,36.78,27.48,36.83C26.8,36.89,26.14,36.89,25.5,36.83C25.2,36.83,24.9,36.78,24.59,36.72C24.32,36.67,24.02,36.64,23.77,36.56C22.73,36.28,21.9,35.95,21.35,35.68C20.8,35.4,20.5,35.21,20.5,35.21C20.17,35.02,20.03,34.55,20.2,34.16C20.3,33.89,20.55,33.75,20.77,33.75L20.83,33.75C20.83,33.75,21.16,33.75,21.71,33.75C21.98,33.75,22.31,33.75,22.7,33.75C23.08,33.75,23.5,33.72,23.96,33.7C24.18,33.7,24.43,33.64,24.68,33.61C24.93,33.61,25.17,33.56,25.42,33.5C25.91,33.42,26.44,33.31,26.96,33.17C27.48,33.04,28,32.84,28.53,32.62C28.77,32.51,29.05,32.4,29.3,32.27C29.55,32.16,29.79,31.99,30.04,31.85C31.99,30.64,33.62,28.8,34.83,27.29C35.13,26.9,35.4,26.55,35.65,26.22C35.9,25.89,36.12,25.58,36.28,25.34C36.45,25.09,36.59,24.9,36.7,24.76C36.78,24.62,36.83,24.57,36.83,24.57C36.94,24.15,37.33,23.93,37.69,24.07C38.04,24.21,38.23,24.62,38.13,25.03C38.13,25.03,38.13,25.14,38.13,25.34Z" fill="currentColor"/><path d="M51.88,25.03C51.88,25.03,51.88,25.14,51.88,25.34C51.88,25.53,51.9,25.83,51.96,26.16C52.01,26.52,52.09,26.93,52.2,27.43C52.34,27.89,52.48,28.44,52.73,28.99C52.95,29.57,53.22,30.15,53.55,30.75C53.88,31.36,54.3,31.96,54.76,32.54C55.23,33.12,55.78,33.7,56.36,34.19C56.96,34.69,57.59,35.15,58.28,35.51C58.97,35.9,59.66,36.2,60.37,36.42C61.09,36.64,61.8,36.78,62.49,36.83C63.18,36.89,63.84,36.89,64.47,36.83C64.77,36.83,65.08,36.78,65.38,36.72C65.65,36.67,65.95,36.64,66.2,36.56C67.25,36.28,68.07,35.95,68.62,35.68C69.17,35.4,69.47,35.21,69.47,35.21C69.81,35.02,69.94,34.55,69.78,34.16C69.67,33.89,69.42,33.75,69.2,33.75L69.14,33.75C69.14,33.75,68.81,33.75,68.27,33.75C67.99,33.75,67.66,33.75,67.28,33.75C66.89,33.75,66.48,33.72,66.01,33.7C65.79,33.7,65.54,33.64,65.3,33.61C65.05,33.61,64.8,33.56,64.55,33.5C64.06,33.42,63.53,33.31,63.01,33.17C62.49,33.04,61.97,32.84,61.45,32.62C61.2,32.51,60.92,32.4,60.67,32.27C60.43,32.16,60.18,31.99,59.93,31.85C57.98,30.64,56.36,28.8,55.15,27.29C54.84,26.9,54.57,26.55,54.32,26.22C54.08,25.89,53.85,25.58,53.69,25.34C53.52,25.09,53.39,24.9,53.28,24.76C53.2,24.62,53.14,24.57,53.14,24.57C53.03,24.15,52.65,23.93,52.29,24.07C51.93,24.21,51.74,24.62,51.85,25.03" fill="none" stroke="currentColor" stroke-width="2" stroke-linecap="round" stroke-linejoin="round"/></svg>