<svg xmlns="http://www.w3.org/2000/svg" viewBox="0 0 90 90"><path d="M74.86,26.24C74.34,26.24,73.88,26.33,73.38,26.38C74.18,24.68,74.64,22.81,74.64,20.8C74.64,13.48,68.7,7.54,61.36,7.54C58.83,7.54,56.47,8.29,54.46,9.52C53.33,6.2,50.23,3.8,46.51,3.8C43.6,3.8,41.04,5.26,39.53,7.49C38.15,6.47,36.48,5.87,34.66,5.87C30.54,5.87,27.15,8.89,26.52,12.82L24.73,10.84L21.24,6.99L19.64,5.23C18.79,4.3,17.66,3.78,16.43,3.78C14.94,3.78,13.51,4.55,12.71,5.81C11.92,7.05,11.84,8.59,12.44,9.94L14.59,14.58L17.2,20.28L17.36,20.63C16.62,21.79,16.18,23.16,16.18,24.65C16.18,26.13,16.62,27.48,17.36,28.66C14.94,31.22,12.38,34.03,9.8,36.89C8.62,38.21,7.79,39.14,7.52,39.39C3.28,43.16,2.57,49.48,5.87,54.1C8.59,57.92,13.54,58.34,15.55,58.34C16.84,58.34,18.05,58.2,18.96,57.92C20.58,57.54,21.98,57.1,23.3,56.69C24.98,56.14,26.41,55.56,27.65,55.06C29.08,54.49,30.54,53.91,31,53.8C31.52,55.01,27.23,59.77,24.68,62.63L22.61,64.94C21.38,66.34,20.11,67.55,18.93,68.73C14.7,72.86,10.71,76.79,10.93,84.41L11.04,86.33L64.42,86.33C62.24,81.55,64.19,75.39,64.28,75.14C68.35,74.92,71.92,72.83,74.07,69.64C75.47,71.29,77.78,72.39,80.39,72.39C79.24,70.77,78.52,68.87,78.52,66.86C78.52,64.61,79.4,62.54,80.83,60.78C82.98,59.19,84.41,56.63,84.41,53.74C84.41,51.05,83.17,48.66,81.25,47.06C84.27,45.03,86.28,41.56,86.28,37.66L86.25,37.57C86.25,31.3,81.16,26.24,74.86,26.24Z" fill="currentColor"/><path d="M14.83,8.78C14.04,7.02,16.34,5.54,17.64,6.97L19.23,8.73L20.3,9.91L22.73,12.58L24.43,14.47C24.43,14.47,25.25,15.41,26.19,16.45C27.07,17.44,28.06,18.52,28.55,19.04C31.09,21.54,24.7,28.42,22.48,25.42C22.39,25.2,22.31,25.03,22.23,24.81C21.24,22.42,20.3,20.66,20.3,20.66L19.59,19.12L17.36,14.28L16.98,13.43L16.98,13.46Z" fill="currentColor"/><path d="M19.2,8.75L17.61,6.99C16.32,5.56,14.01,7.05,14.8,8.81L16.95,13.46Z" fill="currentColor"/><path d="M19.59,19.15L22.7,12.6L20.28,9.94L19.2,8.75L16.98,13.46L17.36,14.31Z" fill="currentColor"/><path d="M19.2,8.75L16.95,13.46L16.98,13.46Z" fill="currentColor"/><path d="M20.3,20.69C20.3,20.69,21.21,22.42,22.23,24.84L26.19,16.51C25.25,15.46,24.43,14.53,24.43,14.53L22.73,12.63L19.62,19.18L19.59,19.15Z" fill="currentColor"/><path d="M22.7,12.61L19.59,19.15Z" fill="currentColor"/><path d="M22.45,25.45C24.7,28.44,31.06,21.57,28.53,19.07C28,18.57,27.04,17.47,26.16,16.48L22.2,24.84C22.29,25.06,22.37,25.23,22.45,25.45Z" fill="currentColor"/><path d="M26.19,16.48L22.2,24.84Z" fill="currentColor"/><path d="M66.04,51.82C66.04,51.3,65.95,50.77,65.87,50.28L65.93,50.28C65.16,44.94,62.93,38.92,58.01,32.73C54.49,28.33,51.16,25.36,48.11,23.33C50.09,20.14,50.5,16.43,49.54,13.04C45.83,13.37,42.28,15.24,40.02,18.54C39.42,19.42,38.95,20.36,38.59,21.32C37.41,21.98,36.06,22.37,34.6,22.37C33.56,22.37,32.54,22.15,31.64,21.79C31.55,22.2,31.44,22.64,31.28,23.05C30.43,25.14,28.53,27.23,26.38,28.25C25.59,28.61,24.76,28.86,23.93,28.86C23.05,28.86,22.26,28.55,21.57,28.09C15.9,33.83,9.69,41.01,8.98,41.64C5.79,44.48,5.26,49.23,7.74,52.67C10.05,55.92,15.41,56.11,17.94,55.39C19.48,55.04,20.8,54.62,22.04,54.21C23.77,53.63,25.23,53.06,26.46,52.56C26.46,52.53,26.46,52.48,26.49,52.45C30.18,50.99,32.08,50.22,33.48,52.59C34.94,55.83,29.13,61.14,23.71,67.25C18.41,73.27,13.6,75.74,13.65,83.8L54.41,83.8L60.43,83.8C60.43,83.8,59.71,78.82,61.14,74.86L60.98,74.86C60.98,74.86,60.98,74.86,61.01,74.86C55.28,73.68,50.97,68.65,50.97,62.57C50.97,62.54,50.97,62.52,50.97,62.49C52.12,62.87,53.33,63.15,54.63,63.15L54.68,63.15C60.95,63.15,66.04,58.09,66.04,51.82Z" fill="currentColor"/><path d="M13.68,83.83L33.97,83.83C43.57,61.83,23.93,67.22,23.74,67.28C18.43,73.3,13.62,75.77,13.68,83.83Z" fill="currentColor"/><path d="M26.38,28.28C25.59,28.64,24.76,28.89,23.93,28.89C23.05,28.89,22.26,28.58,21.57,28.12C15.9,33.86,9.69,41.04,8.98,41.67C5.79,44.51,5.26,49.26,7.74,52.7C10.05,55.95,15.41,56.14,17.94,55.42C19.48,55.07,20.8,54.65,22.04,54.24C23.77,53.66,25.23,53.09,26.46,52.59C26.46,52.56,26.46,52.51,26.49,52.48C26.52,52.4,26.57,52.32,26.57,52.21C28.89,41.62,18.96,41.98,18.96,41.98L19.01,42Z" fill="currentColor"/><path d="M19.4,49.51C19.95,48.91,19.92,47.97,19.32,47.39C18.71,46.84,16.68,49.04,17.28,49.59C17.89,50.14,18.85,50.12,19.4,49.51Z" fill="currentColor"/><path d="M35.84,32.57C35.65,32.43,35.43,32.35,35.21,32.24C34.44,31.94,33.59,31.88,32.76,32.1C32.68,32.1,32.6,32.16,32.52,32.19C30.54,32.9,29.52,35.07,30.23,37.02C30.95,39.01,33.12,40.02,35.1,39.31C36.75,38.7,37.74,37.11,37.6,35.43C37.69,35.43,37.77,35.38,37.85,35.35C39.58,34.74,40.49,33.01,40.24,31.25C39.8,31.83,39.28,32.32,38.56,32.57L38.54,32.63C37.63,32.95,36.67,32.9,35.84,32.57Z" fill="currentColor"/><path d="M45.8,22.51C47.06,20.64,47.34,18.41,46.76,16.37C44.67,16.57,39.86,23.58,40.41,25.61L40.44,25.61C42.52,25.42,44.53,24.38,45.8,22.51Z" fill="currentColor"/><path d="M31.69,35.65C31.69,35.02,32.21,34.5,32.84,34.5C33.48,34.5,34,35.02,34,35.65C34,36.28,33.48,36.81,32.84,36.81C32.21,36.81,31.69,36.28,31.69,35.65Z" fill="currentColor"/><path d="M31.33,17.97L35.84,8.45C29.63,7.79,28.42,13.84,28.42,13.84C28.42,13.84,29.96,16.48,31.33,17.97Z" fill="currentColor"/><path d="M38.65,9.14C37.63,8.78,36.7,8.59,35.87,8.48L31.36,18C31.55,18.21,31.77,18.41,31.96,18.57C33.06,19.48,35.24,19.07,36.2,18.79L40.79,9.14C40.38,9.61,40.13,9.96,40.13,9.96L40.1,9.99Z" fill="currentColor"/><path d="M40.77,9.14L36.17,18.79C36.17,18.79,36.17,18.79,36.2,18.79C36.48,18.71,36.67,18.66,36.67,18.66C37.52,16.95,39.64,14.64,39.64,14.64C41.48,12.74,43.38,11.64,45.08,10.98L47.23,6.47C44.12,5.92,41.87,7.85,40.79,9.09L40.82,9.09Z" fill="currentColor"/><path d="M47.28,6.47C47.28,6.47,47.28,6.47,47.26,6.47L45.11,10.98C45.11,10.98,45.11,10.98,45.14,10.98C47.72,9.99,49.87,10.05,50.75,10.13L51.19,9.2C50.42,8.01,49.34,6.97,47.78,6.56L47.8,6.56C47.61,6.5,47.45,6.53,47.28,6.47Z" fill="currentColor"/><path d="M51.22,9.19L50.77,10.13C50.77,10.13,50.77,10.13,50.8,10.13C51.05,10.16,51.24,10.18,51.24,10.18C52.65,12.14,53.09,14.36,53.06,16.37L54.3,13.73C53.55,14.28,53.11,14.72,53.11,14.72L53.11,14.69C53.11,14.69,52.81,11.61,51.22,9.19Z" fill="currentColor"/><path d="M54.3,13.71L53.06,16.35C53.06,16.35,53.06,16.4,53.06,16.43C53,19.7,51.77,22.4,51.77,22.4C52.51,22.89,53.41,23.63,54.41,24.54L60.9,10.85C58.12,11.18,55.7,12.66,54.35,13.68C54.35,13.68,54.32,13.68,54.3,13.71Z" fill="currentColor"/><path d="M60.95,10.84C60.95,10.84,60.95,10.84,60.92,10.84L54.43,24.54C55.53,25.53,56.74,26.71,57.98,28.06L65.76,11.67C65.76,11.67,65.68,11.61,65.63,11.59L65.63,11.61C64.03,10.84,62.44,10.68,60.95,10.84Z" fill="currentColor"/><path d="M57.98,28.09C59.11,29.32,60.21,30.67,61.28,32.13L69.53,14.72C68.62,13.51,67.41,12.49,65.76,11.67L65.76,11.7Z" fill="currentColor"/><path d="M61.31,32.18C62.41,33.67,63.42,35.24,64.31,36.89L71.45,21.79C71.56,19.15,71.02,16.76,69.56,14.8L69.56,14.78Z" fill="currentColor"/><path d="M55.06,67.39L55.78,65.87C54.68,65.82,53.97,65.63,53.97,65.63C54.3,66.31,54.68,66.83,55.06,67.39Z" fill="currentColor"/><path d="M70.44,27.43C71.04,25.5,71.37,23.61,71.45,21.84L71.45,21.79L64.31,36.89C64.31,36.89,64.31,36.89,64.31,36.91C64.66,37.6,65.05,38.29,65.35,38.98C65.9,40.19,66.37,41.4,66.83,42.58L73.27,29C71.4,29.05,69.92,29.35,69.92,29.35L69.92,29.32Z" fill="currentColor"/><path d="M55.06,67.41C56.14,68.92,57.4,70,58.7,70.74L61.77,64.25C59.44,65.68,57.27,65.93,55.81,65.87Z" fill="currentColor"/><path d="M55.06,67.39L55.06,67.41L55.81,65.87L55.78,65.87Z" fill="currentColor"/><path d="M73.27,28.97L66.83,42.55C66.83,42.55,66.83,42.55,66.83,42.58C67.74,44.97,68.46,47.28,68.73,49.59L78.22,29.57C76.73,29.02,74.89,28.88,73.3,28.94L73.3,28.97C73.3,28.97,73.3,28.97,73.27,28.97Z" fill="currentColor"/><path d="M58.7,70.74L61.77,64.22C61.77,64.22,61.77,64.22,61.75,64.22L61.77,64.25Z" fill="currentColor"/><path d="M78.25,29.6L68.76,49.62C68.76,49.62,68.76,49.65,68.76,49.68C69.14,53.14,68.51,56.52,66.15,60.02C64.77,62.02,63.29,63.37,61.86,64.25L58.78,70.77C60.45,71.7,62.08,72.09,63.29,72.25L81.99,32.82C81.27,31.75,80.42,30.78,79.35,30.1L79.29,30.1C78.99,29.9,78.63,29.74,78.25,29.6Z" fill="currentColor"/><path d="M63.26,72.28C63.26,72.28,63.26,72.28,63.29,72.28C64.36,72.42,65.13,72.39,65.13,72.39C66.64,72.34,67.94,71.84,69.03,71.15L79.62,48.82C78.44,47.64,77.26,46.84,77.26,46.84L79.16,45.44C79.16,45.44,82.4,42.72,83.36,39.36C83.97,37.19,83.31,34.83,81.99,32.85L81.96,32.85Z" fill="currentColor"/><path d="M79.59,48.85L69.01,71.18L69.03,71.18C72.36,69.06,73.79,65.05,73.79,65.05C74.48,65.9,76.3,66.95,76.3,66.95C75.77,63.34,78.08,60.13,79.29,58.86C80.36,57.73,81.74,56.66,81.91,53.42L81.91,53.33C81.99,51.68,80.81,50.06,79.59,48.85Z" fill="currentColor"/><path d="M23.3,23.69C23.3,23.69,24.73,24.04,25.86,22.86C25.86,22.86,14.5,5.4,16.37,9.74L16.34,9.74Z" fill="currentColor"/><path d="M53.11,14.75C53.11,14.75,53,13.7,52.62,12.36C52.53,12.36,52.45,12.36,52.34,12.36C54.16,17.14,51.74,22.48,51.74,22.48C52.37,22.89,53.11,23.52,53.94,24.21C54.49,22.78,55.97,18.1,54.08,13.95L54.08,13.92C53.47,14.39,53.11,14.75,53.11,14.75Z" fill="currentColor"/><path d="M70.25,31.58L69.72,33.48C69.72,33.48,75.99,32.27,79.1,34.25C79.35,34.41,79.54,34.66,79.79,34.85C79.07,33.75,78.19,32.76,77.09,32.05C75.31,30.92,72.5,30.84,70.41,30.97C70.36,31.19,70.33,31.39,70.25,31.58Z" fill="currentColor"/><path d="M67.44,16.24C68.18,16.59,68.84,17.01,69.42,17.45C68.57,16.15,67.36,15.05,65.63,14.23C61.42,12.22,57.24,14.67,55.31,16.13C55.86,17.69,56,19.1,56,19.1L55.97,19.07C55.97,19.07,61.69,13.49,67.44,16.24Z" fill="currentColor"/><path d="M40.44,12.52C40.44,12.52,42.8,8.64,47.37,10.6C47.8,10.79,48.22,10.9,48.58,11.15C47.97,10.16,47.12,9.28,45.85,8.95C42.28,7.98,40.05,11.53,40.05,11.53L38.95,10.87C32.41,8.53,31.25,14.45,31.25,14.45C31.25,14.45,32.82,17.11,33.92,18.02C33.95,18.05,34,18.02,34.05,18.08C33.37,17.11,32.79,16.12,32.79,16.12L32.73,16.1C32.73,16.1,33.89,10.21,40.44,12.52Z" fill="currentColor"/><path d="M71.1,62.68C75.83,55.73,73.6,49.04,70.33,41.65C68.32,37.08,64.91,32.74,61.8,29.52C64.28,32.41,66.72,35.84,68.32,39.45C71.59,46.84,73.82,53.53,69.09,60.48C63.78,68.24,56.94,66.12,56.94,66.12C57.79,67.91,58.91,69.23,60.1,70.19C59.69,69.61,59.27,69.04,58.94,68.32C58.94,68.32,65.79,70.47,71.1,62.68Z" fill="currentColor"/></svg>