<svg xmlns="http://www.w3.org/2000/svg" viewBox="0 0 90 90"><path d="M89,46C89,69.75,69.75,89,46,89C22.25,89,3,69.75,3,46C3,22.25,22.25,3,46,3C69.75,3,89,22.25,89,46Z" fill="currentColor"/><path d="M89,46C89,22.25,69.75,3,46,3C36.3,3,27.35,6.21,20.16,11.63C24.78,9.93,29.78,9,35,9C58.75,9,78,28.25,78,52C78,66.05,71.26,78.52,60.84,86.37C77.28,80.33,89,64.53,89,46Z" fill="currentColor" opacity="0.5"/><path d="M89,46C89,22.25,69.75,3,46,3C45.5,3,45,3.01,44.5,3.03C67.55,3.82,86,22.75,86,46C86,69.25,67.55,88.18,44.5,88.97C45,88.99,45.5,89,46,89C69.75,89,89,69.75,89,46Z" fill="currentColor"/><path d="M3.31,51.16C5.77,71.69,22.69,87.78,43.59,88.93C24.37,84.03,9.3,69.62,3.31,51.16Z" fill="currentColor"/><path d="M60.52,42.92C56.99,42.92,54.07,45.76,54.07,49.77C54.07,54.98,56.95,59.23,60.52,59.23C64.08,59.23,66.93,54.98,66.93,49.77C66.93,45.76,64.05,42.92,60.52,42.92Z" fill="currentColor"/><path d="M60.66,44.92C57.68,44.92,55.25,49.16,55.25,53.15C55.25,57.14,57.68,60.38,60.66,60.38C63.65,60.38,66.08,57.14,66.08,53.15C66.08,49.16,63.65,44.92,60.66,44.92Z" fill="currentColor"/><path d="M42.4,53.01C42.4,49.58,37.78,53.01,32.09,53.01C26.39,53.01,21.77,49.58,21.77,53.01C21.77,56.45,26.39,59.23,32.09,59.23C37.78,59.23,42.4,56.45,42.4,53.01Z" fill="currentColor"/><path d="M60.6,24.3C60.6,24.3,60.47,24.22,60.24,24.05C60,23.92,59.67,23.67,59.17,23.39C58.68,23.12,58.07,22.82,57.36,22.51C57,22.38,56.62,22.21,56.2,22.05C55.79,21.91,55.35,21.74,54.91,21.61C54,21.33,52.98,21.08,51.88,20.92C50.81,20.73,49.63,20.62,48.45,20.59C48.15,20.59,47.84,20.59,47.54,20.59C47.24,20.59,46.94,20.59,46.6,20.62C45.97,20.62,45.37,20.7,44.73,20.78C43.47,20.95,42.2,21.19,40.97,21.52L40.06,21.8C39.78,21.88,39.48,21.99,39.15,22.1C38.52,22.32,37.91,22.57,37.34,22.82C36.76,23.09,36.18,23.34,35.63,23.64C35.36,23.78,35.08,23.94,34.81,24.08C34.53,24.25,34.28,24.41,34.04,24.58C33.02,25.24,32.06,25.92,31.2,26.64C30.35,27.35,29.61,28.1,28.95,28.81C28.62,29.17,28.32,29.53,28.04,29.86C27.77,30.21,27.52,30.54,27.27,30.85C26.8,31.48,26.42,32.06,26.14,32.55C25.84,33.02,25.65,33.43,25.51,33.68C25.38,33.95,25.29,34.09,25.29,34.09C24.96,34.72,25.21,35.55,25.82,35.88C26.31,36.15,26.89,36.04,27.27,35.69L27.33,35.63C27.33,35.63,27.74,35.25,28.48,34.56C28.84,34.2,29.31,33.82,29.83,33.38C30.11,33.16,30.38,32.94,30.68,32.69C30.98,32.47,31.32,32.22,31.64,31.97C32.33,31.48,33.05,30.96,33.84,30.46C34.64,29.97,35.49,29.47,36.4,29C37.31,28.54,38.27,28.12,39.26,27.71C39.76,27.52,40.28,27.35,40.75,27.19C40.99,27.11,41.22,27.02,41.52,26.94L42.31,26.72C43.36,26.45,44.41,26.2,45.45,26.03C46.49,25.87,47.54,25.73,48.53,25.68C49.55,25.62,50.51,25.59,51.45,25.62C52.38,25.62,53.26,25.7,54.09,25.79C54.5,25.84,54.88,25.87,55.27,25.92C55.65,25.98,56.01,26.03,56.34,26.09C57,26.23,57.6,26.31,58.07,26.42C58.54,26.5,58.95,26.61,59.23,26.67C59.5,26.72,59.64,26.75,59.64,26.75C60.33,26.91,61.02,26.45,61.18,25.73C61.29,25.18,61.04,24.63,60.6,24.33" fill="currentColor"/><path d="M20.43,32.84C16.54,37.33,22.38,44.76,28.13,41.36C22.89,41.29,20.43,37.94,20.43,32.84Z" fill="currentColor"/></svg>