<svg xmlns="http://www.w3.org/2000/svg" viewBox="0 0 90 90"><path d="M88,45C88,21.25,68.75,2,45,2C21.25,2,2,21.25,2,45C2,68.75,21.25,88,45,88C68.75,88,88,68.75,88,45Z" fill="currentColor"/><path d="M88,45C88,68.75,68.75,88,45,88C35.3,88,26.35,84.79,19.16,79.37C23.78,81.07,28.78,82,34,82C57.75,82,77,62.75,77,39C77,24.95,70.26,12.48,59.84,4.63C76.28,10.68,88,26.47,88,45Z" fill="currentColor" opacity="0.5"/><path d="M88,45C88,68.75,68.75,88,45,88C44.5,88,44,87.99,43.5,87.97C66.55,87.18,85,68.25,85,45C85,21.75,66.55,2.82,43.5,2.03C44,2.01,44.5,2,45,2C68.75,2,88,21.25,88,45Z" fill="currentColor"/><path d="M2.31,39.84C4.77,19.31,21.69,3.22,42.59,2.07C23.37,6.97,8.3,21.38,2.31,39.84Z" fill="currentColor"/><path d="M88,45C88,21.25,68.75,2,45,2C21.25,2,2,21.25,2,45C2,68.75,21.25,88,45,88C68.75,88,88,68.75,88,45Z" fill="currentColor"/><path d="M88,45C88,68.75,68.75,88,45,88C35.3,88,26.35,84.79,19.16,79.37C23.78,81.07,28.78,82,34,82C57.75,82,77,62.75,77,39C77,24.95,70.26,12.48,59.84,4.63C76.28,10.68,88,26.47,88,45Z" fill="currentColor" opacity="0.5"/><path d="M88,45C88,68.75,68.75,88,45,88C44.5,88,44,87.99,43.5,87.97C66.55,87.18,85,68.25,85,45C85,21.75,66.55,2.82,43.5,2.03C44,2.01,44.5,2,45,2C68.75,2,88,21.25,88,45Z" fill="currentColor"/><path d="M2.31,39.84C4.77,19.31,21.69,3.22,42.59,2.07C23.37,6.97,8.3,21.38,2.31,39.84Z" fill="currentColor"/><path d="M21,80.68L21,40.21L31,40.21L31,85.67C27.43,84.44,24.07,82.76,21,80.68Z" fill="currentColor"/><path d="M59,85.67L59,40.21L69,40.21L69,80.68C65.93,82.76,62.57,84.44,59,85.67Z" fill="currentColor"/><path d="M31,81.9L31,85.67C27.43,84.44,24.07,82.75,21,80.68L21,80C24.19,81.01,27.54,81.66,31,81.9Z" fill="currentColor"/><path d="M59,85.67L59,73.99C62.86,71.23,66.24,67.84,69,63.98L69,80.68C65.93,82.76,62.57,84.44,59,85.67Z" fill="currentColor"/><path d="M36.13,40.21C36.13,43.2,31.77,40.21,26.4,40.21C21.03,40.21,16.67,43.2,16.67,40.21C16.67,37.22,21.03,34.8,26.4,34.8C31.77,34.8,36.13,37.22,36.13,40.21Z" fill="currentColor"/><path d="M53.87,40.21C53.87,37.22,58.23,34.8,63.6,34.8C68.97,34.8,73.33,37.22,73.33,40.21C73.33,43.2,68.97,40.21,63.6,40.21C58.23,40.21,53.87,43.2,53.87,40.21Z" fill="currentColor"/><path d="M15.11,31.07C15.08,30.91,15.03,30.69,15,30.41C14.97,30.14,14.94,29.78,14.97,29.37C14.97,28.98,15.03,28.52,15.11,28.02C15.19,27.52,15.33,27,15.52,26.45C15.71,25.9,15.99,25.35,16.29,24.77C16.62,24.23,17,23.65,17.47,23.13C17.94,22.6,18.46,22.11,19.04,21.67C19.62,21.23,20.22,20.82,20.88,20.48C21.52,20.16,22.18,19.88,22.84,19.66C23.5,19.47,24.13,19.3,24.73,19.19C25.04,19.14,25.34,19.11,25.61,19.08C25.89,19.08,26.19,19.03,26.44,19.03C27.51,19,28.36,19.05,28.97,19.16C29.57,19.25,29.9,19.33,29.9,19.33C30.26,19.41,30.51,19.74,30.43,20.07C30.37,20.29,30.18,20.48,29.96,20.54L29.9,20.54C29.9,20.54,29.57,20.65,29.05,20.76C28.77,20.82,28.45,20.9,28.09,21.01C27.7,21.09,27.32,21.23,26.88,21.34C26.66,21.39,26.44,21.48,26.22,21.56C26,21.64,25.75,21.7,25.53,21.8C25.06,21.97,24.59,22.19,24.1,22.41C23.63,22.66,23.16,22.91,22.73,23.21C22.5,23.34,22.29,23.51,22.07,23.68C21.84,23.84,21.65,24,21.43,24.17C19.81,25.55,18.66,27.33,17.83,28.82C17.61,29.18,17.45,29.53,17.28,29.84C17.11,30.14,16.98,30.44,16.87,30.66C16.76,30.88,16.65,31.07,16.59,31.18C16.54,31.29,16.51,31.35,16.51,31.38C16.51,31.7,16.18,31.98,15.79,31.95C15.44,31.95,15.13,31.65,15.16,31.32C15.16,31.32,15.16,31.24,15.11,31.07Z" fill="currentColor"/><path d="M74.84,31.32C74.84,31.32,74.84,31.24,74.89,31.07C74.92,30.91,74.97,30.69,75,30.41C75.03,30.14,75.06,29.78,75.03,29.37C75.03,28.98,74.97,28.52,74.89,28.02C74.81,27.52,74.67,27,74.48,26.45C74.29,25.9,74.01,25.35,73.71,24.77C73.38,24.23,73,23.65,72.53,23.13C72.06,22.6,71.54,22.11,70.96,21.67C70.38,21.23,69.78,20.82,69.12,20.48C68.48,20.16,67.83,19.88,67.17,19.66C66.5,19.47,65.87,19.3,65.27,19.19C64.97,19.14,64.66,19.11,64.39,19.08C64.11,19.08,63.81,19.03,63.56,19.03C62.49,19,61.64,19.05,61.03,19.16C60.43,19.25,60.1,19.33,60.1,19.33C59.74,19.41,59.49,19.74,59.58,20.07C59.63,20.29,59.82,20.48,60.04,20.54L60.1,20.54C60.1,20.54,60.43,20.65,60.95,20.76C61.23,20.82,61.55,20.9,61.91,21.01C62.3,21.09,62.68,21.23,63.12,21.34C63.34,21.39,63.56,21.48,63.78,21.56C64,21.64,64.25,21.7,64.47,21.8C64.94,21.97,65.41,22.19,65.87,22.41C66.34,22.66,66.81,22.91,67.25,23.21C67.47,23.34,67.69,23.51,67.91,23.68C68.13,23.84,68.32,24,68.54,24.17C70.16,25.55,71.32,27.33,72.14,28.82C72.36,29.18,72.53,29.53,72.69,29.84C72.86,30.14,73,30.44,73.11,30.66C73.22,30.88,73.33,31.07,73.38,31.18C73.44,31.29,73.46,31.35,73.46,31.38C73.46,31.7,73.79,31.98,74.18,31.95C74.53,31.95,74.84,31.65,74.81,31.32" fill="none" stroke="currentColor" stroke-width="2" stroke-linecap="round" stroke-linejoin="round"/><path d="M55,62C55,56.48,50.52,52,45,52C39.48,52,35,56.48,35,62C35,67.52,39.48,72,45,72C50.52,72,55,67.52,55,62Z" fill="currentColor"/><path d="M55,59C55,53.48,50.52,49,45,49C39.48,49,35,53.48,35,59C35,64.52,39.48,69,45,69C50.52,69,55,64.52,55,59Z" fill="currentColor"/><path d="M40.5,53.38C40.5,56.33,41.72,57.84,44.84,57.88C47.95,57.92,49.5,56.43,49.5,53.38C49.5,53.38,49.5,53.36,49.5,53.34C47.62,51.72,42.4,51.74,40.52,53.34L40.5,53.34C40.5,53.34,40.5,53.36,40.5,53.38Z" fill="currentColor"/></svg>