<svg xmlns="http://www.w3.org/2000/svg" viewBox="0 0 90 90"><path d="M86.06,52.89C86.06,52.89,86.03,52.81,86,52.78C85.92,52.62,85.81,52.48,85.7,52.34C83.89,49.73,74.97,38.29,57.54,38.29C40.1,38.29,34.66,48.41,33.12,51.55C33.04,51.1,32.95,50.69,32.87,50.25C32.65,49.26,31.75,43.84,34.77,32.63C35.4,30.89,37.47,30.43,38.73,30.34C39.91,30.26,41.56,30.18,43.95,29.6C45.25,29.27,46.18,28.83,46.92,28.5C47.72,28.11,48.08,27.95,48.96,27.95L49.1,27.95C49.1,27.95,49.54,27.95,49.59,27.95C50.01,28.03,50.45,28.09,51.08,28.09C51.22,28.09,51.38,28.09,51.55,28.09C52.18,28,52.62,27.81,53,27.68C53.36,27.54,53.66,27.32,53.91,27.04C56.11,25.67,56.41,23.27,56.47,22.39C56.58,20.72,56.08,19.26,55.06,18.24C55.06,18.08,55.06,17.91,55.06,17.77C55.06,14.86,53.33,12.41,51.57,10.43L50.53,8.48C49.78,6.53,47.86,5.24,45.74,5.24C45.69,5.24,45.63,5.24,45.58,5.24C44.64,4.36,43.41,3.83,42.03,3.83C41.07,3.83,40.1,4.11,39.75,4.58C39.61,4.58,39.09,4.52,38.95,4.52C37.69,4.52,36.48,4.99,35.51,5.81C33.78,5.84,32.19,6.75,31.28,8.18C30.92,8.45,30.62,8.76,30.4,9.03C19.15,20.39,19.15,22.59,19.18,23.25C18.77,25.06,12.85,36.91,7.38,47.31C7.21,47.64,3.09,55.53,4.08,63.89C4.19,64.88,4.36,65.71,4.6,66.42C4.68,67.11,4.74,67.83,4.74,68.57C4.74,70.25,4.49,71.89,3.97,73.49C3.34,75.44,3.69,77.92,4.85,79.54C7.82,83.75,12.66,86.25,17.83,86.25C18.19,86.25,83.58,86.33,83.58,86.33C84.27,86.33,84.93,86.06,85.4,85.59C85.89,85.09,86.14,84.46,86.14,83.78L86.14,53.94C86.14,53.61,86.03,53.3,85.92,53.03L86.03,52.89Z" fill="currentColor"/><path d="M48.47,43.87C43.1,47.06,39.69,52.62,38.15,56.8C35.32,64.36,29.98,67.72,29.98,67.69C25.42,70.82,19.32,71.81,19.32,71.81C19.2,71.87,19.04,71.95,19.04,71.95C19.09,71.92,19.12,71.87,19.18,71.84C18.96,71.89,18.79,71.95,18.79,71.95C18.96,71.89,19.18,71.81,19.37,71.7C23.08,69.09,23.25,64.97,27.29,61.45C31.47,57.79,30.51,47.7,30.51,47.7C30.4,44.62,30.73,39.66,32.68,32.41C32.68,32.3,32.73,32.16,32.76,32.05C33.01,30.67,32.1,30.51,31.69,30.56C24.13,32.19,20.17,45.72,20.17,45.72C20.66,40.74,23.08,34.6,24.93,30.45C25.17,29.3,25.67,26.68,24.35,25.09C24.35,25.09,25.28,26.05,26.6,26.46C26.6,26.46,26.63,26.46,26.66,26.46C27.59,26.74,28.75,26.74,29.88,25.89C31.91,23.96,28.14,23.05,33.7,18.08C33.78,18,33.81,17.97,33.89,17.89L33.95,18.08C33.95,18.08,34.14,18.21,34.25,18.3C35.76,20.91,37.47,23.88,41.67,22.42C41.87,22.23,41.95,21.76,41.2,20.44C41.2,20.44,42.63,22.53,44.06,22.89C46.73,22.84,46.84,21.41,46.84,21.41C48.66,21.46,49.26,20.86,49.76,20.36C50.25,19.86,49.51,18.11,49.51,18.11L50.12,19.07C51.49,19.18,52.34,18.74,52.95,18.24C52.95,18.27,52.95,18.3,52.95,18.32C52.89,18.9,52.76,19.59,52.78,19.48C52.78,19.48,50.42,21.16,50.12,23.16C49.81,25.17,52.62,25.09,52.62,25.09L52.62,25.14C53.99,24.65,54.35,23.61,54.46,22.15C54.57,20.61,53.83,19.73,52.87,19.4C52.84,19.54,53.09,18.27,53.09,17.69C53.09,15.49,51.55,13.48,50.06,11.84L48.74,9.33C48.38,8.4,47.45,7.74,46.38,7.74C45.91,7.74,45.47,7.87,45.08,8.09C44.75,7.08,43.79,6.33,42.66,6.33C42.17,6.33,41.7,6.47,41.29,6.72C40.9,6.97,40.44,7.1,39.97,7.02C39.83,7.02,39.72,6.99,39.58,6.99C38.84,6.99,38.15,7.32,37.69,7.82C37.38,8.15,36.91,8.34,36.48,8.29C36.39,8.29,36.34,8.29,36.26,8.29C35.21,8.29,34.33,8.92,33.92,9.8C33.53,10.1,33.17,10.4,32.84,10.76C32.84,10.76,22.34,21.38,22.34,23.44C22.34,25.5,10.27,48.41,10.27,48.41C10.27,48.41,6.36,55.84,7.24,63.48C7.35,64.44,7.52,65.16,7.71,65.71C7.85,66.61,7.93,67.52,7.93,68.46C7.93,70.44,7.63,72.36,7.05,74.18C6.69,75.31,6.88,76.98,7.57,77.94C9.96,81.33,13.95,83.56,18.43,83.56C18.6,83.56,29.9,83.56,43.08,83.56C63.67,81.41,69.61,74.2,74.73,75.47C78.61,76.43,81.66,79.62,83.17,81.82L83.17,53.52C82.87,52.51,81.3,50.83,80.39,49.9C76.13,46.21,68.35,41.26,57.43,41.23L57.43,41.31C55.73,41.48,52.23,42.11,48.47,43.87Z" fill="currentColor"/></svg>