<svg xmlns="http://www.w3.org/2000/svg" viewBox="0 0 90 90"><path d="M88,45C88,21.25,68.75,2,45,2C21.25,2,2,21.25,2,45C2,68.75,21.25,88,45,88C68.75,88,88,68.75,88,45Z" fill="currentColor"/><path d="M88,45C88,68.75,68.75,88,45,88C35.3,88,26.35,84.79,19.16,79.37C23.78,81.07,28.78,82,34,82C57.75,82,77,62.75,77,39C77,24.95,70.26,12.48,59.84,4.63C76.28,10.68,88,26.47,88,45Z" fill="currentColor" opacity="0.5"/><path d="M88,45C88,68.75,68.75,88,45,88C44.5,88,44,87.99,43.5,87.97C66.55,87.18,85,68.25,85,45C85,21.75,66.55,2.82,43.5,2.03C44,2.01,44.5,2,45,2C68.75,2,88,21.25,88,45Z" fill="currentColor"/><path d="M2.31,39.84C4.77,19.31,21.69,3.22,42.59,2.07C23.37,6.97,8.3,21.38,2.31,39.84Z" fill="currentColor"/><path d="M37.06,40.29C37.06,44.12,33.15,40.29,28.34,40.29C23.52,40.29,19.61,44.12,19.61,40.29C19.61,36.46,23.52,32.25,28.34,32.25C33.15,32.25,37.06,36.46,37.06,40.29Z" fill="currentColor"/><path d="M53.13,40.29C53.13,36.46,57.04,32.25,61.86,32.25C66.67,32.25,70.58,36.46,70.58,40.29C70.58,44.12,66.67,40.29,61.86,40.29C57.04,40.29,53.13,44.12,53.13,40.29Z" fill="currentColor"/><path d="M44.97,60.33C34.22,60.33,24.17,57.96,17.67,53.98C16.94,53.53,16.91,52.51,17.57,51.97C17.96,51.66,18.5,51.6,18.95,51.81C27.51,55.77,36.32,56.89,45,56.89C53.68,56.89,62.49,55.77,71.05,51.81C71.51,51.6,72.04,51.66,72.42,51.97C73.09,52.51,73.05,53.53,72.33,53.97C65.81,57.96,55.78,60.33,45.03,60.33" fill="none" stroke="currentColor" stroke-width="2" stroke-linecap="round" stroke-linejoin="round"/><path d="M44.97,66.33C33.15,66.33,22.12,61.57,15.19,53.6C14.62,52.94,14.6,51.98,15.09,51.26C15.76,50.3,17.12,50.13,18.04,50.85C26.92,57.79,36.02,59.78,45,59.78C53.98,59.78,63.08,57.79,71.96,50.85C72.88,50.13,74.24,50.3,74.91,51.26C75.4,51.98,75.38,52.94,74.8,53.6C67.85,61.57,56.85,66.33,45.03,66.33" fill="none" stroke="currentColor" stroke-width="2" stroke-linecap="round" stroke-linejoin="round"/><path d="M79.58,54.16C84.29,49.67,77.23,42.24,70.26,45.64C76.61,45.71,79.58,49.06,79.58,54.16Z" fill="currentColor"/><path d="M10.42,54.16C5.71,49.67,12.77,42.24,19.74,45.64C13.39,45.71,10.42,49.06,10.42,54.16Z" fill="currentColor"/></svg>