<svg xmlns="http://www.w3.org/2000/svg" viewBox="0 0 90 90"><path d="M14.6,85C14.76,46.18,46.18,14.73,85,14.63L85,1.03C38.69,1.16,1.19,38.66,1,85Z" fill="#009FD9"/><path d="M85,1.03C38.69,1.16,1.19,38.66,1,85C2.7,52.93,27.88,6.42,85,1.03Z" fill="#83DEFC"/><path d="M27.35,85C27.51,53.22,53.22,27.51,85,27.42L85,14.63C46.18,14.76,14.76,46.18,14.6,85Z" fill="#81B64C"/><path d="M40.46,85C40.59,60.45,60.46,40.56,85,40.46L85,27.42C53.25,27.55,27.55,53.25,27.35,85Z" fill="#F7C631"/><path d="M54.38,85C54.48,68.14,68.11,54.48,84.97,54.38L84.97,40.43C60.42,40.56,40.56,60.42,40.43,84.97L40.47,85Z" fill="#FA742C"/><path d="M68.01,85C68.56,75.83,75.83,68.53,85,68.01L85,54.38C68.14,54.48,54.51,68.11,54.42,85Z" fill="#FA412D"/></svg>