<svg xmlns="http://www.w3.org/2000/svg" viewBox="0 0 90 90" fill="currentColor"><path d="M60.98,51.79C55.75,51.79,50.86,57.04,47.7,60.45C40.94,67.21,38.69,70.88,36.79,80.39C36.42,82.11,35.24,83.44,33.35,83.44C26.97,83.44,22.63,77.54,22.63,71.53C22.63,65.87,26.55,61.77,27.71,56.52C23.44,55.66,18.91,56.52,14.6,56.52C9.57,56.52,3.29,55.08,3.29,48.98C3.29,46.84,3.99,44.91,4.97,43.04C2.53,39.56,3.15,35.04,5.96,31.91C4.61,28.26,5.85,23.51,8.96,21.1C8.96,13.72,15.12,9.66,21.8,8.89C34.17,7.47,47.87,13.92,60.98,13.92ZM35.43,81.29L37.76,70.45C38.1,68.88,38.81,67.42,39.83,66.18L46.45,58.18C46.99,57.53,47.4,56.79,47.67,56C49.18,51.5,53.57,48.62,58.3,49.02L60.98,49.24L60.98,51.79C55.75,51.79,50.86,57.04,47.71,60.45C40.94,67.21,38.69,70.88,36.79,80.39C36.49,81.8,35.64,82.95,34.3,83.32C34.86,82.78,35.26,82.08,35.43,81.29ZM27.47,57.46L27.89,57.47L27.05,58.75C27.2,58.33,27.35,57.9,27.47,57.46ZM3.29,48.98C3.29,46.84,3.99,44.92,4.97,43.04C2.53,39.56,3.15,35.04,5.96,31.91C4.61,28.26,5.85,23.51,8.96,21.1C8.96,13.72,15.12,9.66,21.8,8.89C34.17,7.47,47.87,13.92,60.98,13.92L60.98,19.34C58.45,19.3,55.94,18.88,53.52,18.08L32.06,11.01C28.59,9.87,24.9,9.52,21.27,9.98L18.56,10.33C13.74,10.95,10.91,16.07,12.94,20.48C8.69,22.71,7.65,28.32,10.82,31.93L11.1,32.24L10.66,32.42C5.58,34.49,5.22,41.55,10.07,44.12C5.61,46.58,5.45,52.94,9.79,55.62L10.75,56.21C6.85,55.52,3.29,53.57,3.29,48.98ZM12.38,56.42L17.5,56.42C16.53,56.48,15.56,56.52,14.6,56.52C13.88,56.52,13.13,56.49,12.38,56.42ZM22.62,71.53C22.62,65.87,26.55,61.77,27.71,56.52C27.53,56.48,27.34,56.45,27.16,56.42L30.31,56.42L24.76,69.05C23.3,72.35,23.74,76.19,25.91,79.08L28,81.86C24.66,79.71,22.62,75.64,22.62,71.53ZM16.21,45.37C17.01,45.53,17.79,44.99,17.92,44.18C18.05,43.28,17.34,42.48,16.43,42.52L4.97,43.05ZM16.49,33.37C17.28,33.48,17.99,32.91,18.05,32.11C18.12,31.25,17.38,30.54,16.52,30.64L5.98,31.9ZM15.96,21.95C16.81,22.05,17.52,21.35,17.44,20.5C17.36,19.7,16.58,19.15,15.79,19.35L8.93,21.11ZM66.79,55.94C62.47,55.94,58.98,52.45,58.98,48.13L58.98,17.88C58.98,13.57,62.47,10.07,66.79,10.07L79.44,10.07C83.76,10.07,87.25,13.57,87.25,17.88L87.25,48.13C87.25,52.45,83.76,55.94,79.44,55.94ZM68.19,19.43C69.4,19.43,70.39,19.81,71.16,20.58C71.93,21.33,72.29,22.32,72.29,23.53C72.29,24.65,71.91,25.64,71.16,26.47C70.39,27.27,69.4,27.68,68.19,27.68C67.06,27.68,66.08,27.27,65.28,26.47C64.45,25.64,64.07,24.68,64.07,23.53C64.07,22.37,64.48,21.38,65.28,20.61C66.08,19.84,67.06,19.43,68.19,19.43ZM68.19,16.43C69.4,16.43,70.39,16.81,71.16,17.58C71.93,18.33,72.29,19.32,72.29,20.53C72.29,21.65,71.91,22.64,71.16,23.47C70.39,24.27,69.4,24.68,68.19,24.68C67.06,24.68,66.08,24.27,65.28,23.47C64.45,22.64,64.07,21.68,64.07,20.53C64.07,19.37,64.48,18.38,65.28,17.61C66.08,16.84,67.06,16.43,68.19,16.43Z"/></svg>