<svg xmlns="http://www.w3.org/2000/svg" viewBox="0 0 90 90"><path d="M84.73,37.38C86.4,37.93,87.83,39.12,88.05,40.86C88.92,47.68,85.25,60.76,80.82,68.08C79.55,70.18,76.99,70.9,74.63,70.26L72.48,69.69C66.08,67.97,51.45,72.1,39.8,68.98L23.59,64.64C17.24,62.94,16.92,57.17,19.46,52.38C13.67,45.8,15.94,40.07,19.86,37.17C14.55,33.55,16.69,23.3,23.55,23.4C23.31,16.82,27.24,12.11,34.19,13.97L42.41,16.18L44.81,13.76C47.12,11.43,50.6,10.69,53.66,11.89L61.42,14.94C64.46,16.13,67.07,18.2,68.93,20.88L79.1,35.53Z" fill="currentColor"/><path d="M63.86,31.77C60.34,31.87,59.37,31.42,57.1,30.82C54.75,37.36,53.08,44.24,61.45,48.76L61.32,49.27C51.93,46.75,48.93,51.17,47.87,55.27C44.3,69.05,64.8,69.08,71.08,57.31L70.53,63.66L73.96,64.58C78.03,65.67,82.26,63.52,83.77,59.59L87.39,50.15C86.16,56.39,83.65,63.41,80.82,68.08C79.55,70.18,76.99,70.9,74.63,70.26L72.48,69.69C66.08,67.97,51.45,72.1,39.8,68.98L23.59,64.64C20.52,63.81,18.86,62.04,18.25,59.88L18.95,57.9L19.59,51.79L17.64,48.79C15.62,45.69,15.91,41.63,18.35,38.86L19.79,37.23C19.81,37.21,19.84,37.19,19.86,37.17C19.85,37.17,19.85,37.17,19.85,37.16L20.12,36.85L19.72,36.15C17.33,32.09,18.84,26.85,23.02,24.68L23.27,24.55C24.08,24.13,25.02,24.03,25.9,24.26L41.21,28.28C43.73,28.95,46.42,28.37,48.45,26.74L54.17,22.14C54.83,26.01,57.15,29.05,63.86,31.77Z" fill="currentColor" opacity="0.75"/><path d="M24.37,38.05C22.13,37.52,19.78,38.2,18.17,39.83L18.05,39.96C16.15,41.88,15.68,44.8,16.88,47.23C17.88,49.26,19.9,50.59,22.16,50.74L37.85,51.73C43.36,52.17,46.05,43.33,40.5,41.84Z" fill="currentColor"/><path d="M23.58,51.64C21.31,51.38,19.17,52.77,18.49,54.95C18.18,55.95,18.2,57.02,18.56,58C19.25,59.93,21.09,61.21,23.14,61.18L27.26,61.12L34.79,61.02C39.4,61.19,40.79,54.05,36.08,53.07Z" fill="currentColor"/><path d="M43.62,30.89C36.91,28.71,31.57,27.05,25.13,24.97C23.74,24.52,22.23,24.6,20.9,25.2C17.81,26.6,16.55,30.33,18.16,33.32L18.32,33.63C19.22,35.3,20.85,36.47,22.72,36.79L40.57,39.87C46.07,41.35,49.12,32.78,43.62,30.89Z" fill="currentColor"/><path d="M43.81,30.18C37.11,28,31.63,26.92,25.18,24.96C23.75,24.53,22.21,24.61,20.85,25.23C17.78,26.62,16.46,30.3,17.98,33.31C18.81,34.96,20.37,36.13,22.18,36.46L40.57,39.87C46.07,41.35,49.31,32.07,43.81,30.18Z" fill="currentColor"/><path d="M36.01,25.76L40.13,31.06L45.11,26.92L41.22,20.45Z" fill="currentColor"/><path d="M39.04,48.94L38.09,49.9C37.78,50.22,37.33,50.34,36.9,50.22L35.51,49.85L36.21,49.34C38.38,47.77,39.02,44.82,37.7,42.49L39.01,42.85C39.22,42.9,39.39,43.02,39.51,43.2C40.77,44.97,40.57,47.39,39.04,48.94Z" fill="currentColor"/><path d="M35.51,58.89L34.73,59.54C34.48,59.75,34.14,59.82,33.82,59.74L32.64,59.42L33.04,59.19C35.14,57.99,35.84,55.29,34.59,53.21L35.7,53.32C35.94,53.34,36.15,53.47,36.28,53.67C37.4,55.35,37.07,57.61,35.51,58.89Z" fill="currentColor"/><path d="M41.49,38.7C41.24,38.85,40.93,38.87,40.67,38.75L39.36,38.15C41.72,37.06,42.63,34.16,41.29,31.93L40.93,31.33L42.04,31.62C42.22,31.67,42.39,31.77,42.51,31.92L42.62,32.05C44.37,34.14,43.84,37.31,41.49,38.7Z" fill="currentColor"/><path d="M44.79,14.14L36.8,23.03C33.99,26.16,34.8,31.09,38.46,33.16C40.22,34.16,42.37,34.33,44.22,33.49C47.19,32.14,49.73,30.58,50.85,27.8C53.39,25.39,55.87,24.48,57,20.27Z" fill="currentColor"/><path d="M45.84,12.9L36.15,23.38C35.31,24.29,34.75,25.52,35.12,26.71C36.92,32.59,46.83,34.2,49.25,25.16C52.55,24.65,55,22.81,57.45,19.93Z" fill="currentColor"/><path d="M41.18,28.8C41.12,29.35,40.63,29.74,40.09,29.68L38.35,29.46C36.85,29.27,35.61,28.23,35.14,26.78L35.13,26.75C34.98,26.28,35.09,25.77,35.41,25.4C36.42,27.15,38.15,28.33,40.13,28.64Z" fill="currentColor"/><path d="M68.93,20.88L79.1,35.53L84.73,37.38C86.4,37.93,87.83,39.12,88.05,40.86C88.29,42.73,88.19,45.06,87.82,47.62L87.36,42.84C87.23,41.47,86.26,40.33,84.94,39.98L79.39,38.49L68.65,21.58C67.77,20.19,66.5,19.1,64.99,18.44L58.94,15.81C55.75,14.42,52.03,15.19,49.65,17.73L45.3,22.39C44.35,20.9,42.88,19.83,41.18,19.38L40.18,19.11L42.08,16.74L34.59,14.94C30.71,14.01,26.78,16.32,25.72,20.18L24.77,23.65L31.17,26.63L22.53,25.21C18.91,27.37,18.04,32.22,20.68,35.5L21.36,36.35L29.49,39.28L21.32,38.32L20.64,39.07C17.96,42.06,17.83,46.54,20.33,49.68L21.02,50.55L29.14,52.41L21.21,52.23C18.07,55.59,18.31,60.87,21.73,63.94C17.21,61.69,17.2,56.65,19.46,52.38C13.67,45.8,15.94,40.07,19.86,37.17C14.55,33.55,16.69,23.3,23.55,23.4C23.31,16.82,27.24,12.11,34.19,13.97L42.41,16.18L44.81,13.76C46.65,11.89,49.25,11.05,51.78,11.4L53.76,11.93L61.42,14.94C64.46,16.13,67.07,18.2,68.93,20.88Z" fill="currentColor"/><path d="M9.68,49.69L8.98,56.81C8.49,61.86,9.03,66.96,10.56,71.79L12.72,78.61C1.09,73.23,-0.58,57.38,9.68,49.69Z" fill="currentColor" opacity="0.77"/><path d="M17.46,71.22L19.67,72.93C24.44,76.62,30.03,79.11,35.97,80.19L38.71,80.68C30.44,87.49,17.94,81.93,17.46,71.22Z" fill="currentColor" opacity="0.77"/></svg>