<svg xmlns="http://www.w3.org/2000/svg" viewBox="0 0 90 90" fill="currentColor"><path d="M31.02,40.21C36.25,40.21,41.14,34.96,44.3,31.55C51.06,24.79,53.31,21.12,55.21,11.61C55.58,9.89,56.76,8.56,58.65,8.56C65.03,8.56,69.38,14.46,69.38,20.47C69.38,26.13,65.45,30.23,64.29,35.48C68.56,36.34,73.09,35.48,77.41,35.48C82.43,35.48,88.71,36.92,88.71,43.02C88.71,45.16,88.01,47.08,87.03,48.96C89.47,52.44,88.85,56.96,86.04,60.09C87.39,63.74,86.15,68.49,83.04,70.9C83.04,78.28,76.88,82.34,70.2,83.11C57.83,84.52,44.13,78.08,31.02,78.08ZM56.57,10.71L54.24,21.55C53.9,23.12,53.19,24.58,52.17,25.82L45.55,33.82C45.01,34.47,44.6,35.21,44.33,36C42.82,40.5,38.43,43.38,33.7,42.98L31.02,42.76L31.02,40.21C36.25,40.21,41.14,34.96,44.29,31.55C51.06,24.79,53.31,21.12,55.21,11.61C55.51,10.2,56.36,9.05,57.7,8.68C57.14,9.22,56.74,9.92,56.57,10.71ZM64.53,34.54L64.11,34.53L64.95,33.25C64.8,33.67,64.65,34.1,64.53,34.54ZM88.71,43.02C88.71,45.16,88.01,47.08,87.03,48.96C89.47,52.44,88.85,56.96,86.04,60.09C87.39,63.74,86.15,68.49,83.04,70.9C83.04,78.28,76.88,82.34,70.2,83.11C57.83,84.53,44.13,78.08,31.02,78.08L31.02,72.17L42.89,72.17L44.69,73.64C48.97,77.15,53.94,79.7,59.29,81.13L60.35,81.42C63.57,82.28,66.92,82.51,70.22,82.08L73.44,81.67C78.26,81.05,81.09,75.93,79.06,71.52C83.31,69.29,84.35,63.68,81.18,60.07L80.9,59.76L81.34,59.58C86.42,57.51,86.78,50.45,81.93,47.88C86.39,45.42,86.55,39.06,82.21,36.38L81.25,35.79C85.15,36.48,88.71,38.43,88.71,43.02ZM79.62,35.58L74.5,35.58C75.47,35.52,76.44,35.48,77.4,35.48C78.12,35.48,78.87,35.51,79.62,35.58ZM69.38,20.47C69.38,26.13,65.45,30.23,64.29,35.48C64.47,35.52,64.66,35.55,64.84,35.58L61.69,35.58L62.21,34.43C63.4,31.82,64.02,28.99,64.02,26.13L64.02,25.37L65.31,23.56C67.86,20.01,67.81,15.22,65.19,11.73L64,10.14C67.34,12.29,69.38,16.36,69.38,20.47ZM77.32,45.39C75.93,45.17,74.63,46.13,74.43,47.52C74.16,49.37,75.93,50.85,77.7,50.27L87.68,47.02ZM75.72,58.35C74.33,58.13,73.04,59.09,72.84,60.48C72.57,62.33,74.33,63.81,76.11,63.24L86.09,59.99ZM73.71,70.43C72.33,70.19,71.04,71.15,70.85,72.53C70.61,74.36,72.39,75.79,74.12,75.17L82.93,72.02ZM14,36C9.58,36,6,39.58,6,44L6,73.87C6,78.29,9.58,81.87,14,81.87L26.27,81.87C30.69,81.87,34.27,78.29,34.27,73.87L34.27,44C34.27,39.58,30.69,36,26.27,36ZM14,36L26.27,36C30.69,36,34.27,39.58,34.27,44L34.27,63.09L32.28,47.99C31.63,43.01,27.38,39.3,22.37,39.3L17.86,39.3C12.83,39.3,8.59,43.03,7.94,48.02L6,63.09L6,44C6,39.58,9.58,36,14,36ZM23.81,78.57C22.6,78.57,21.61,78.19,20.84,77.42C20.07,76.67,19.71,75.68,19.71,74.47C19.71,73.35,20.09,72.36,20.84,71.53C21.61,70.73,22.6,70.32,23.81,70.32C24.93,70.32,25.93,70.73,26.72,71.53C27.55,72.36,27.93,73.32,27.93,74.47C27.93,75.63,27.52,76.62,26.72,77.39C25.93,78.16,24.93,78.57,23.81,78.57ZM23.81,74.57C22.6,74.57,21.61,74.19,20.84,73.42C20.07,72.67,19.71,71.68,19.71,70.47C19.71,69.35,20.09,68.36,20.84,67.53C21.61,66.73,22.6,66.32,23.81,66.32C24.93,66.32,25.93,66.73,26.72,67.53C27.55,68.36,27.93,69.32,27.93,70.47C27.93,71.63,27.52,72.62,26.72,73.39C25.93,74.16,24.93,74.57,23.81,74.57Z"/></svg>