<svg xmlns="http://www.w3.org/2000/svg" viewBox="0 0 90 90"><path d="M89.63,64.61C89.63,52.24,69.56,42.21,44.81,42.21C20.06,42.21,0,52.24,0,64.61C0,76.97,20.06,87,44.81,87C69.56,87,89.63,76.97,89.63,64.61Z" fill="currentColor"/><path d="M89.63,62.48C89.63,51,69.56,41.7,44.81,41.7C20.06,41.7,0,51,0,62.48C0,73.95,20.06,83.25,44.81,83.25C69.56,83.25,89.63,73.95,89.63,62.48Z" fill="currentColor"/><path d="M4.02,62.48C4.02,70.77,13.55,77.97,27.58,81.65C11.38,78.52,0,71.12,0,62.48C0,53.84,11.38,46.43,27.58,43.3C13.55,46.98,4.02,54.19,4.02,62.48Z" fill="currentColor"/><path d="M18.85,61.24C15.08,77.28,59.9,87.85,89,64.37C65.63,50.11,54.97,50.83,17.6,50.11C21.36,54.88,21.6,55,18.85,61.24Z" fill="currentColor"/><path d="M39.47,42C12.22,57.85,25.31,67.94,25.31,67.94C25.31,67.94,38.45,80.88,60.98,70.19C60.98,70.19,79.35,61.82,89.03,64.7C89.36,63.74,89.57,62.78,89.57,61.79C89.57,50.8,69.49,41.85,44.75,41.85C42.96,41.85,41.2,41.91,39.47,42Z" fill="currentColor"/><path d="M73.67,23.29L73.67,42.91C73.67,59.42,60.33,72.82,43.89,72.82L43.73,72.82C27.3,72.82,13.96,59.42,13.96,42.91L13.96,23.29Z" fill="currentColor"/><path d="M24.48,65.72C18.05,60.23,13.96,52.04,13.96,42.91L13.96,23.29L16.97,23.29L16.97,43.74C16.97,52.17,19.81,59.87,24.48,65.72Z" fill="currentColor"/><path d="M73.57,36.47C72.09,39.57,71.01,42.81,70.02,46.11C69.63,47.43,68.74,48.16,67.72,48.49C67.72,51.09,67.69,53.7,67.03,56.28C65.72,61.66,62.46,65.99,58.35,69.32C67.65,64.27,73.96,54.53,73.96,43.24L73.96,34.25C73.96,34.25,73.9,34.32,73.87,34.39L73.9,34.35C73.96,35.01,73.93,35.74,73.57,36.47Z" fill="currentColor"/><path d="M73.67,23.33C73.67,17.07,60.31,12,43.83,12C27.35,12,13.99,17.07,13.99,23.33C13.99,29.58,27.35,34.65,43.83,34.65C60.31,34.65,73.67,29.58,73.67,23.33Z" fill="currentColor"/><path d="M67.92,25.77C67.92,20.72,57.13,16.62,43.83,16.62C30.52,16.62,19.74,20.72,19.74,25.77C19.74,30.82,30.52,34.92,43.83,34.92C57.13,34.92,67.92,30.82,67.92,25.77Z" fill="currentColor"/><path d="M43.8,24.58C34.23,24.58,26.08,26.69,22.17,29.73C26.08,32.77,34.23,34.88,43.8,34.88C53.36,34.88,61.51,32.77,65.42,29.73C61.51,26.69,53.36,24.58,43.8,24.58Z" fill="currentColor"/><path d="M74.19,37.44C58.65,37.44,71.29,65.74,81.14,51.3C74.26,51.78,71.72,41.95,74.19,37.44Z" fill="currentColor"/><path d="M65.93,48.83C66.81,54.59,72.08,58.84,77.73,58.82C94.22,58.78,94.1,30.89,77.28,30.89C66.83,30.89,64.67,40.5,65.93,48.83Z" fill="currentColor"/><path d="M76.12,54.35C66.79,55,64.96,37.59,74.12,37.44C82.95,37.29,85.08,53.72,76.12,54.35Z" fill="currentColor"/><path d="M85.26,56.23C90.08,48.63,88.52,35.55,80.54,31.27C91.32,33.95,92.88,49.89,85.26,56.23Z" fill="currentColor"/><path d="M39.19,11.66C36.7,10.54,37.14,6.88,39.82,6.38L43.35,5.73C45.61,5.31,46.7,2.72,45.44,0.8C48.32,2.3,48.43,6.39,45.64,8.05L44.64,8.64C44.25,8.87,44.36,9.46,44.81,9.53L51.18,10.54C56.02,11.3,56.99,17.84,52.59,19.98L43.86,24.22C43.34,24.46,43.3,25.18,43.78,25.49C46.21,27.06,45.94,30.68,43.31,31.88L42.08,32.44C43.82,30.59,43.15,27.57,40.79,26.63L37.69,25.39C34.89,24.27,35.4,20.15,38.39,19.74L49.32,18.26C50.32,18.12,50.52,16.77,49.6,16.35Z" fill="currentColor"/></svg>