<svg xmlns="http://www.w3.org/2000/svg" viewBox="0 0 90 90"><path d="M89,46C89,69.75,69.75,89,46,89C22.25,89,3,69.75,3,46C3,22.25,22.25,3,46,3C69.75,3,89,22.25,89,46Z" fill="currentColor"/><path d="M89,46C89,22.25,69.75,3,46,3C36.3,3,27.35,6.21,20.16,11.63C24.78,9.93,29.78,9,35,9C58.75,9,78,28.25,78,52C78,66.05,71.26,78.52,60.84,86.37C77.28,80.33,89,64.53,89,46Z" fill="currentColor" opacity="0.5"/><path d="M89,46C89,22.25,69.75,3,46,3C45.5,3,45,3.01,44.5,3.03C67.55,3.82,86,22.75,86,46C86,69.25,67.55,88.18,44.5,88.97C45,88.99,45.5,89,46,89C69.75,89,89,69.75,89,46Z" fill="currentColor"/><path d="M3.31,51.16C5.77,71.69,22.69,87.78,43.59,88.93C24.37,84.03,9.3,69.62,3.31,51.16Z" fill="currentColor"/><path d="M31.44,41.92C27.91,41.92,25,44.76,25,48.77C25,53.98,27.88,58.23,31.44,58.23C35.01,58.23,37.85,53.98,37.85,48.77C37.85,44.76,34.97,41.92,31.44,41.92Z" fill="currentColor"/><path d="M60.44,41.92C56.91,41.92,54,44.76,54,48.77C54,53.98,56.88,58.23,60.44,58.23C64.01,58.23,66.85,53.98,66.85,48.77C66.85,44.76,63.97,41.92,60.44,41.92Z" fill="currentColor"/><path d="M31.44,43.92C28.46,43.92,26,48.16,26,52.15C26,56.14,28.43,59.38,31.44,59.38C34.45,59.38,36.85,56.14,36.85,52.15C36.85,48.16,34.42,43.92,31.44,43.92Z" fill="currentColor"/><path d="M60.59,43.92C57.61,43.92,55.18,48.16,55.18,52.15C55.18,56.14,57.61,59.38,60.59,59.38C63.57,59.38,66,56.14,66,52.15C66,48.16,63.57,43.92,60.59,43.92Z" fill="currentColor"/><path d="M28.29,26.48C28.29,26.48,28.4,26.59,28.57,26.81C28.76,27.03,29,27.33,29.42,27.74C29.83,28.15,30.32,28.62,30.9,29.12C31.2,29.36,31.54,29.61,31.86,29.89C32.22,30.13,32.58,30.41,32.97,30.66C33.76,31.18,34.64,31.7,35.6,32.17C36.57,32.64,37.64,33.08,38.74,33.43C39.02,33.52,39.32,33.6,39.59,33.68C39.87,33.76,40.17,33.82,40.47,33.9C41.05,34.04,41.66,34.15,42.26,34.26C43.47,34.45,44.73,34.53,45.97,34.56L46.88,34.56C47.16,34.53,47.48,34.51,47.81,34.48C48.48,34.45,49.08,34.34,49.69,34.26C50.29,34.15,50.9,34.07,51.47,33.9C51.77,33.82,52.05,33.76,52.35,33.68C52.63,33.6,52.93,33.52,53.2,33.43C54.33,33.08,55.38,32.66,56.34,32.17C57.3,31.7,58.18,31.18,58.98,30.66C59.37,30.38,59.75,30.13,60.08,29.89C60.41,29.61,60.74,29.36,61.04,29.12C61.62,28.62,62.12,28.15,62.5,27.77C62.91,27.38,63.19,27.05,63.38,26.83C63.57,26.61,63.68,26.48,63.68,26.48C64.15,25.93,64.12,25.07,63.63,24.58C63.24,24.19,62.66,24.11,62.23,24.36L62.17,24.36C62.17,24.36,61.67,24.66,60.82,25.13C60.41,25.38,59.86,25.62,59.28,25.93C58.98,26.06,58.65,26.23,58.32,26.37C57.99,26.5,57.63,26.67,57.25,26.83C56.51,27.14,55.68,27.44,54.83,27.71C53.95,27.99,53.04,28.24,52.08,28.46C51.12,28.68,50.13,28.81,49.11,28.95C48.59,29.01,48.09,29.03,47.59,29.06C47.35,29.06,47.13,29.09,46.8,29.09L46,29.09C44.95,29.09,43.91,29.03,42.89,28.92C41.88,28.79,40.88,28.68,39.92,28.46C38.96,28.24,38.02,28.02,37.17,27.71C36.29,27.44,35.49,27.14,34.75,26.83C34.37,26.67,34.01,26.53,33.68,26.37C33.35,26.2,33.02,26.06,32.72,25.93C32.11,25.62,31.59,25.38,31.18,25.13C30.77,24.91,30.41,24.69,30.16,24.58C29.91,24.44,29.77,24.36,29.77,24.36C29.17,24.03,28.4,24.28,28.1,24.94C27.85,25.46,27.96,26.06,28.29,26.45" fill="currentColor"/></svg>