<svg xmlns="http://www.w3.org/2000/svg" viewBox="0 0 90 90"><path d="M33,18.25C33,9.27,26.06,2,17.5,2C8.94,2,2,9.27,2,18.25C2,27.22,8.94,38,17.5,38C26.06,38,33,27.22,33,18.25Z" fill="#4B4847"/><path d="M31.86,12.13C29.1,7.27,23.93,4,18,4C9.49,4,2.53,10.75,2.03,19.26C2.01,18.92,2,18.58,2,18.25C2,9.27,8.94,2,17.5,2C24,2,29.56,6.19,31.86,12.13Z" fill="#666564"/><path d="M24.4,18.33C24.4,14.46,21.2,11.33,17.24,11.33C13.29,11.33,10.09,14.46,10.09,18.33C10.09,22.19,13.29,28.17,17.24,28.17C21.2,28.17,24.4,22.19,24.4,18.33Z" fill="#666564"/><path d="M57,18.25C57,9.27,63.94,2,72.5,2C81.06,2,88,9.27,88,18.25C88,27.22,81.06,38,72.5,38C63.94,38,57,27.22,57,18.25Z" fill="#4B4847"/><path d="M58.14,12.13C60.9,7.27,66.07,4,72,4C80.51,4,87.47,10.75,87.97,19.26C87.99,18.92,88,18.58,88,18.25C88,9.27,81.06,2,72.5,2C66,2,60.44,6.19,58.14,12.13Z" fill="#666564"/><path d="M65.6,18.33C65.6,14.46,68.8,11.33,72.76,11.33C76.71,11.33,79.91,14.46,79.91,18.33C79.91,22.19,76.71,28.17,72.76,28.17C68.8,28.17,65.6,22.19,65.6,18.33Z" fill="#666564"/><path d="M4,54.16C4,76.88,15.21,87.16,45,87.16C74.79,87.16,86,76.6,86,54.16C86,31.16,66.77,13,45,13C23.23,13,4,31.43,4,54.16Z" fill="white"/><path d="M9.99,33.32L18,81.36L13.59,84.06L8.81,74.16L5.56,74.78L4.81,63.66L0.69,62.91L3.29,52.25L0,49.68Z" fill="white"/><path d="M80.01,33.32L72,81.36L76.41,84.06L81.19,74.16L84.44,74.78L85.19,63.66L89.31,62.91L86.71,52.25L90,49.68Z" fill="white"/><path d="M45,15.51L45,85.06C36.06,85.06,26.49,81.87,22,74.91L13.83,81.23L13.83,68.34L7.47,72.07L10.28,58.75L2,62.1L8.93,48.33L2,49.47C16.37,25.94,25.61,15.51,45,15.51Z" fill="#E7E6E5"/><path d="M45,15.51L45,85.06C53.94,85.06,63.51,81.87,68,74.91L76.17,81.23L76.17,68.34L82.53,72.07L79.72,58.75L88,62.1L81.07,48.33L88,49.47C73.63,25.94,64.39,15.51,45,15.51Z" fill="#E7E6E5"/><path d="M40.06,26.56C35.08,21.57,25.7,25.97,19.13,32.55C12.55,39.14,11.26,45.41,16.24,50.4C21.22,55.38,30.36,56.88,37.17,47.51C42.64,39.98,45.04,31.54,40.06,26.56Z" fill="#666564"/><path d="M49.93,26.56C54.91,21.57,64.28,25.97,70.86,32.55C77.44,39.14,78.73,45.41,73.75,50.4C68.76,55.38,59.63,56.88,52.81,47.51C47.34,39.98,44.95,31.54,49.93,26.56Z" fill="#666564"/><path d="M29.06,53.24C25.19,53.24,22,50.4,22,46.39C22,41.17,25.15,36.93,29.06,36.93C32.96,36.93,36.08,41.17,36.08,46.39C36.08,50.4,32.93,53.24,29.06,53.24Z" fill="#8B8987"/><path d="M60.83,53.24C56.96,53.24,53.77,50.4,53.77,46.39C53.77,41.17,56.92,36.93,60.83,36.93C64.74,36.93,67.85,41.17,67.85,46.39C67.85,50.4,64.7,53.24,60.83,53.24Z" fill="#8B8987"/><path d="M29.06,51.24C25.79,51.24,23.09,46.99,23.09,43.01C23.09,39.02,25.76,35.78,29.06,35.78C32.35,35.78,34.99,39.02,34.99,43.01C34.99,46.99,32.32,51.24,29.06,51.24Z" fill="#312E2B"/><path d="M60.99,51.24C57.72,51.24,55.06,46.99,55.06,43.01C55.06,39.02,57.72,35.78,60.99,35.78C64.26,35.78,66.92,39.02,66.92,43.01C66.92,46.99,64.26,51.24,60.99,51.24Z" fill="#312E2B"/><path d="M37.43,49.06C41.98,45.92,48.01,45.92,52.55,49.05C53.46,49.68,54.04,50.72,53.86,51.8C52.28,61.38,37.71,61.41,36.14,51.79C35.96,50.72,36.54,49.68,37.43,49.06Z" fill="#4B4847"/><path d="M32.3,73.7C32.02,74.08,32.06,74.62,32.41,74.93C32.69,75.19,33.1,75.23,33.44,75.06C36.78,73.41,41.81,73.27,45,73.27C48.19,73.27,53.22,73.41,56.56,75.06C56.9,75.23,57.31,75.19,57.59,74.93C57.94,74.62,57.98,74.08,57.7,73.7C55.5,70.69,52.27,64.22,45.01,64.22C37.76,64.22,34.5,70.69,32.3,73.7Z" fill="white"/><path d="M31.41,73.37C31.15,73.76,31.15,74.26,31.38,74.66C31.79,75.35,32.72,75.49,33.36,75.01C37.35,71.96,41.76,71.18,45,71.18C48.24,71.18,52.65,71.96,56.64,75.01C57.28,75.49,58.21,75.35,58.62,74.66C58.85,74.26,58.85,73.76,58.59,73.37C55.43,68.64,50.41,66,45.01,66C39.61,66,34.56,68.64,31.41,73.37Z" fill="#4B4847"/></svg>