<svg xmlns="http://www.w3.org/2000/svg" viewBox="0 0 90 90"><path d="M89,46C89,69.75,69.75,89,46,89C22.25,89,3,69.75,3,46C3,22.25,22.25,3,46,3C69.75,3,89,22.25,89,46Z" fill="currentColor"/><path d="M89,46C89,22.25,69.75,3,46,3C36.3,3,27.35,6.21,20.16,11.63C24.78,9.93,29.78,9,35,9C58.75,9,78,28.25,78,52C78,66.05,71.26,78.52,60.84,86.37C77.28,80.33,89,64.53,89,46Z" fill="currentColor" opacity="0.5"/><path d="M89,46C89,22.25,69.75,3,46,3C45.5,3,45,3.01,44.5,3.03C67.55,3.82,86,22.75,86,46C86,69.25,67.55,88.18,44.5,88.97C45,88.99,45.5,89,46,89C69.75,89,89,69.75,89,46Z" fill="currentColor"/><path d="M3.31,51.16C5.77,71.69,22.69,87.78,43.59,88.93C24.37,84.03,9.3,69.62,3.31,51.16Z" fill="currentColor"/><path d="M31.44,40.92C27.91,40.92,25,43.76,25,47.77C25,52.98,27.88,57.23,31.44,57.23C35.01,57.23,37.85,52.98,37.85,47.77C37.85,43.76,34.97,40.92,31.44,40.92Z" fill="currentColor"/><path d="M60.44,40.92C56.91,40.92,54,43.76,54,47.77C54,52.98,56.88,57.23,60.44,57.23C64.01,57.23,66.85,52.98,66.85,47.77C66.85,43.76,63.97,40.92,60.44,40.92Z" fill="currentColor"/><path d="M31.44,42.92C28.46,42.92,26,47.16,26,51.15C26,55.14,28.43,58.38,31.44,58.38C34.45,58.38,36.85,55.14,36.85,51.15C36.85,47.16,34.42,42.92,31.44,42.92Z" fill="currentColor"/><path d="M60.59,42.92C57.61,42.92,55.18,47.16,55.18,51.15C55.18,55.14,57.61,58.38,60.59,58.38C63.57,58.38,66,55.14,66,51.15C66,47.16,63.57,42.92,60.59,42.92Z" fill="currentColor"/><path d="M39.13,65.86C39.13,65.86,39.13,65.75,39.13,65.55C39.13,65.36,39.1,65.06,39.04,64.73C38.99,64.37,38.91,63.93,38.8,63.46C38.66,63,38.52,62.45,38.27,61.9C38.05,61.32,37.78,60.74,37.45,60.14C37.12,59.53,36.7,58.93,36.24,58.35C35.77,57.77,35.22,57.19,34.64,56.7C34.04,56.2,33.41,55.74,32.72,55.38C32.03,54.99,31.32,54.69,30.6,54.47C29.89,54.25,29.17,54.11,28.48,54.03C27.8,53.98,27.14,53.98,26.5,54.03C26.2,54.03,25.9,54.09,25.59,54.14C25.32,54.2,25.02,54.22,24.77,54.31C23.73,54.58,22.9,54.91,22.35,55.19C21.8,55.46,21.5,55.65,21.5,55.65C21.17,55.85,21.03,56.31,21.2,56.7C21.3,56.95,21.55,57.11,21.77,57.11L21.83,57.11C21.83,57.11,22.16,57.11,22.71,57.11C22.98,57.11,23.31,57.11,23.7,57.11C24.08,57.11,24.5,57.14,24.96,57.17C25.18,57.17,25.43,57.22,25.68,57.25C25.93,57.25,26.17,57.3,26.42,57.36C26.91,57.44,27.44,57.55,27.96,57.69C28.48,57.85,29,58.02,29.53,58.24C29.77,58.35,30.05,58.46,30.3,58.6C30.55,58.71,30.79,58.87,31.04,59.01C32.99,60.22,34.62,62.06,35.83,63.57C36.13,63.96,36.4,64.32,36.65,64.65C36.9,64.98,37.12,65.28,37.28,65.53C37.45,65.77,37.59,65.97,37.7,66.1C37.78,66.24,37.83,66.3,37.83,66.3C37.94,66.71,38.33,66.93,38.69,66.79C39.04,66.65,39.23,66.24,39.13,65.83" fill="currentColor"/><path d="M52.88,65.86C52.88,65.86,52.88,65.75,52.88,65.55C52.88,65.36,52.9,65.06,52.96,64.73C53.01,64.37,53.09,63.93,53.2,63.46C53.34,63,53.48,62.45,53.73,61.9C53.95,61.32,54.22,60.74,54.55,60.14C54.88,59.53,55.3,58.93,55.76,58.35C56.23,57.77,56.78,57.19,57.36,56.7C57.96,56.2,58.59,55.74,59.28,55.38C59.97,54.99,60.66,54.69,61.37,54.47C62.09,54.25,62.8,54.11,63.49,54.03C64.18,53.98,64.84,53.98,65.47,54.03C65.77,54.03,66.08,54.09,66.38,54.14C66.65,54.2,66.95,54.22,67.2,54.31C68.25,54.58,69.07,54.91,69.62,55.19C70.17,55.46,70.47,55.65,70.47,55.65C70.81,55.85,70.94,56.31,70.78,56.7C70.67,56.95,70.42,57.11,70.2,57.11L70.14,57.11C70.14,57.11,69.81,57.11,69.27,57.11C68.99,57.11,68.66,57.11,68.28,57.11C67.89,57.11,67.48,57.14,67.01,57.17C66.79,57.17,66.54,57.22,66.3,57.25C66.05,57.25,65.8,57.3,65.55,57.36C65.06,57.44,64.53,57.55,64.01,57.69C63.49,57.85,62.97,58.02,62.45,58.24C62.2,58.35,61.92,58.46,61.67,58.6C61.43,58.71,61.18,58.87,60.93,59.01C58.98,60.22,57.36,62.06,56.15,63.57C55.84,63.96,55.57,64.32,55.32,64.65C55.08,64.98,54.85,65.28,54.69,65.53C54.52,65.77,54.39,65.97,54.28,66.1C54.2,66.24,54.14,66.3,54.14,66.3C54.03,66.71,53.65,66.93,53.29,66.79C52.93,66.65,52.74,66.24,52.85,65.83" fill="currentColor"/><path d="M29.77,26.65C29.38,26.19,29.43,25.47,29.91,25.09C30.22,24.86,30.64,24.82,30.99,24.97C35.28,26.85,41.85,27,46,27C50.15,27,56.72,26.85,61.01,24.97C61.37,24.82,61.78,24.86,62.09,25.09C62.57,25.47,62.62,26.18,62.22,26.65C59.4,30.01,55.23,36.96,46.02,36.96C36.8,36.96,32.6,30.01,29.77,26.65Z" fill="currentColor"/><path d="M28.63,27.03C28.24,26.53,28.24,25.84,28.6,25.32C29.09,24.6,30.08,24.45,30.8,24.94C35.99,28.42,41.77,29.31,46,29.31C50.23,29.31,56.01,28.42,61.2,24.93C61.92,24.45,62.91,24.6,63.4,25.32C63.76,25.84,63.76,26.53,63.36,27.03C59.29,32.15,52.89,35,46.02,35C39.14,35,32.7,32.15,28.63,27.03Z" fill="currentColor"/></svg>