<svg xmlns="http://www.w3.org/2000/svg" viewBox="0 0 90 90"><path d="M84.56,1.63C88.7,9.27,87.5,19.1,81.47,25.52L68.25,14.77C74.87,13.08,80.4,8.21,82.75,1.86C83.05,1.05,84.15,0.87,84.56,1.63Z" fill="currentColor"/><path d="M84.56,1.63C88.7,9.27,87.5,19.1,81.47,25.52C83.09,23.56,87.88,15.09,84.4,4.07C79.91,12.62,75.73,12.96,68.25,14.77C74.87,13.08,80.4,8.21,82.75,1.86C83.05,1.05,84.15,0.87,84.56,1.63Z" fill="currentColor"/><path d="M5.44,1.63C1.3,9.27,2.5,19.1,8.53,25.52L21.75,14.77C15.13,13.08,9.6,8.21,7.25,1.86C6.95,1.05,5.85,0.87,5.44,1.63Z" fill="currentColor"/><path d="M5.44,1.63C1.3,9.27,2.5,19.1,8.53,25.52C6.91,23.56,2.12,15.09,5.6,4.07C10.09,12.62,14.27,12.96,21.75,14.77C15.13,13.08,9.6,8.21,7.25,1.86C6.95,1.05,5.85,0.87,5.44,1.63Z" fill="currentColor"/><path d="M88,45C88,21.25,68.75,2,45,2C21.25,2,2,21.25,2,45C2,68.75,21.25,88,45,88C68.75,88,88,68.75,88,45Z" fill="currentColor"/><path d="M88,45C88,68.75,68.75,88,45,88C35.3,88,26.35,84.79,19.16,79.37C23.78,81.07,28.78,82,34,82C57.75,82,77,62.75,77,39C77,24.95,70.26,12.48,59.84,4.63C76.28,10.68,88,26.47,88,45Z" fill="currentColor" opacity="0.5"/><path d="M88,45C88,68.75,68.75,88,45,88C44.5,88,44,87.99,43.5,87.97C66.55,87.18,85,68.25,85,45C85,21.75,66.55,2.82,43.5,2.03C44,2.01,44.5,2,45,2C68.75,2,88,21.25,88,45Z" fill="currentColor"/><path d="M2.31,39.84C4.77,19.31,21.69,3.22,42.59,2.07C23.37,6.97,8.3,21.38,2.31,39.84Z" fill="currentColor"/><path d="M33.92,72.44C37.22,74.18,41.01,75.17,45.03,75.17C49.04,75.17,52.84,74.18,56.14,72.44C58.12,71.4,59.93,70.08,61.53,68.54C65.3,64.88,67.74,59.99,68.27,54.54L21.84,54.54C22.56,62.27,27.21,68.92,33.92,72.44Z" fill="currentColor"/><path d="M31.22,45.91C28.39,45.91,26.08,42.44,26.08,38.18C26.08,33.92,28.39,30.45,31.22,30.45C34.05,30.45,36.37,33.92,36.37,38.18C36.37,42.44,34.05,45.91,31.22,45.91Z" fill="currentColor"/><path d="M58.89,45.91C56.05,45.91,53.74,42.44,53.74,38.18C53.74,33.92,56.05,30.45,58.89,30.45C61.72,30.45,64.03,33.92,64.03,38.18C64.03,42.44,61.72,45.91,58.89,45.91Z" fill="currentColor"/><path d="M67.06,22.48C67.06,22.48,67.06,22.59,67.06,22.78C67.06,22.97,67.03,23.27,66.97,23.61C66.92,23.96,66.83,24.38,66.72,24.87C66.59,25.34,66.45,25.89,66.2,26.44C65.98,27.02,65.71,27.59,65.38,28.2C65.05,28.8,64.64,29.41,64.17,29.98C63.7,30.56,63.15,31.14,62.57,31.64C61.97,32.13,61.34,32.6,60.65,32.95C59.96,33.34,59.27,33.64,58.53,33.86C57.81,34.08,57.1,34.22,56.41,34.27C55.73,34.33,55.06,34.33,54.43,34.27C54.13,34.27,53.83,34.22,53.52,34.16C53.25,34.11,52.95,34.08,52.7,34C51.66,33.73,50.83,33.4,50.28,33.12C49.73,32.84,49.43,32.65,49.43,32.65C49.1,32.46,48.96,31.99,49.13,31.61C49.23,31.33,49.45,31.2,49.7,31.2L49.76,31.2C49.76,31.2,50.09,31.2,50.64,31.2C50.91,31.2,51.27,31.2,51.63,31.2C52.01,31.2,52.42,31.17,52.89,31.14C53.14,31.14,53.36,31.09,53.61,31.06C53.85,31.06,54.1,31,54.35,30.95C54.84,30.86,55.37,30.75,55.89,30.62C56.41,30.48,56.94,30.29,57.46,30.07C57.7,29.96,57.98,29.85,58.23,29.71C58.48,29.6,58.72,29.43,58.97,29.3C60.92,28.09,62.55,26.25,63.78,24.73C64.08,24.35,64.36,23.99,64.61,23.66C64.86,23.33,65.08,23.03,65.24,22.78C65.41,22.53,65.57,22.34,65.65,22.2C65.73,22.07,65.79,22.01,65.79,22.01C65.9,21.6,66.28,21.38,66.64,21.52C67,21.65,67.19,22.07,67.08,22.48" fill="none" stroke="currentColor" stroke-width="2" stroke-linecap="round" stroke-linejoin="round"/><path d="M23.03,22.48C23.03,22.48,23.03,22.59,23.03,22.78C23.03,22.97,23.05,23.27,23.11,23.61C23.16,23.96,23.25,24.38,23.36,24.87C23.47,25.34,23.63,25.89,23.85,26.44C24.07,27.02,24.35,27.59,24.68,28.2C25.01,28.8,25.42,29.41,25.89,29.98C26.36,30.56,26.91,31.14,27.48,31.64C28.09,32.13,28.72,32.6,29.41,32.95C30.09,33.34,30.81,33.64,31.52,33.86C32.24,34.08,32.95,34.22,33.64,34.27C34.33,34.33,34.99,34.33,35.62,34.27C35.92,34.27,36.23,34.22,36.53,34.16C36.8,34.11,37.11,34.08,37.35,34C38.4,33.73,39.23,33.4,39.77,33.12C40.33,32.84,40.63,32.65,40.63,32.65C40.96,32.46,41.09,31.99,40.93,31.61C40.82,31.33,40.6,31.2,40.35,31.2L40.3,31.2C40.3,31.2,39.97,31.2,39.42,31.2C39.14,31.2,38.81,31.2,38.43,31.2C38.04,31.2,37.63,31.17,37.16,31.14C36.94,31.14,36.7,31.09,36.45,31.06C36.2,31.06,35.95,31,35.7,30.95C35.21,30.86,34.69,30.75,34.16,30.62C33.64,30.48,33.12,30.29,32.6,30.07C32.35,29.96,32.08,29.85,31.83,29.71C31.58,29.6,31.33,29.43,31.09,29.3C29.13,28.09,27.51,26.25,26.27,24.73C25.97,24.35,25.7,23.99,25.45,23.66C25.2,23.33,24.98,23.03,24.82,22.78C24.65,22.53,24.51,22.34,24.4,22.2C24.32,22.07,24.27,22.01,24.27,22.01C24.16,21.6,23.77,21.38,23.41,21.52C23.05,21.65,22.86,22.07,22.97,22.48" fill="none" stroke="currentColor" stroke-width="2" stroke-linecap="round" stroke-linejoin="round"/><path d="M26.99,57.18C26.99,61.42,30.45,64.85,34.74,64.85L55.34,64.85C59.63,64.85,63.09,61.42,63.09,57.18C63.09,57.18,63.09,57.15,63.09,57.13L27.02,57.13L26.99,57.13C26.99,57.13,26.99,57.15,26.99,57.18Z" fill="currentColor"/></svg>