<svg xmlns="http://www.w3.org/2000/svg" viewBox="0 0 90 90"><path d="M88,45C88,21.25,68.75,2,45,2C21.25,2,2,21.25,2,45C2,68.75,21.25,88,45,88C68.75,88,88,68.75,88,45Z" fill="currentColor"/><path d="M88,45C88,68.75,68.75,88,45,88C35.3,88,26.35,84.79,19.16,79.37C23.78,81.07,28.78,82,34,82C57.75,82,77,62.75,77,39C77,24.95,70.26,12.48,59.84,4.63C76.28,10.68,88,26.47,88,45Z" fill="currentColor" opacity="0.5"/><path d="M88,45C88,68.75,68.75,88,45,88C44.5,88,44,87.99,43.5,87.97C66.55,87.18,85,68.25,85,45C85,21.75,66.55,2.82,43.5,2.03C44,2.01,44.5,2,45,2C68.75,2,88,21.25,88,45Z" fill="currentColor"/><path d="M2.31,39.84C4.77,19.31,21.69,3.22,42.59,2.07C23.37,6.97,8.3,21.38,2.31,39.84Z" fill="currentColor"/><path d="M36.42,34.3C36.42,37.74,32.95,34.3,28.69,34.3C24.43,34.3,20.96,37.74,20.96,34.3C20.96,30.86,24.43,28.09,28.69,28.09C32.95,28.09,36.42,30.86,36.42,34.3Z" fill="currentColor"/><path d="M55.97,34.3C55.97,30.86,59.44,28.09,63.7,28.09C67.96,28.09,71.43,30.86,71.43,34.3C71.43,37.74,67.96,34.3,63.7,34.3C59.44,34.3,55.97,37.74,55.97,34.3Z" fill="currentColor"/><path d="M15.65,59.22C12.98,61.89,8.67,61.89,6,59.22C3.33,56.56,3.33,52.24,6,49.57C8.66,46.91,19.89,45.27,19.97,45.26C19.96,45.29,18.32,56.56,15.65,59.22Z" fill="currentColor"/><path d="M2.38,53.88C-0.79,50.7,-0.79,45.57,2.38,42.39C5.56,39.22,19,37.26,19,37.26C19,37.26,17.04,50.7,13.87,53.88C10.69,57.05,5.56,57.05,2.38,53.88Z" fill="currentColor"/><path d="M18.73,38.9C13.71,40.8,8.38,43.1,6.65,44.82C3.7,47.78,3.21,52.26,5.2,55.71C4.17,55.32,3.21,54.71,2.38,53.88C-0.79,50.7,-0.79,45.57,2.38,42.39C5.56,39.22,19,37.26,19,37.26C19,37.26,18.91,37.89,18.73,38.9Z" fill="currentColor"/><path d="M13.87,53.88C11.54,56.21,8.15,56.82,5.26,55.73C5.26,55.73,5.25,55.73,5.25,55.73L6.95,55.38C10.29,54.68,13.13,52.48,14.62,49.41L18.08,42.29C17.21,46.45,15.76,51.99,13.87,53.88Z" fill="currentColor"/><path d="M74.35,59.22C77.02,61.89,81.33,61.89,84,59.22C86.67,56.56,86.67,52.24,84,49.57C81.34,46.91,70.11,45.27,70.03,45.26C70.04,45.29,71.68,56.56,74.35,59.22Z" fill="currentColor"/><path d="M87.62,53.88C90.79,50.7,90.79,45.57,87.62,42.39C84.44,39.22,71,37.26,71,37.26C71,37.26,72.96,50.7,76.13,53.88C79.31,57.05,84.44,57.05,87.62,53.88Z" fill="currentColor"/><path d="M71.27,38.9C76.29,40.8,81.62,43.1,83.35,44.82C86.3,47.78,86.79,52.26,84.8,55.71C85.83,55.32,86.79,54.71,87.62,53.88C90.79,50.7,90.79,45.57,87.62,42.39C84.44,39.22,71,37.26,71,37.26C71,37.26,71.09,37.89,71.27,38.9Z" fill="currentColor"/><path d="M76.13,53.88C78.46,56.21,81.85,56.82,84.74,55.73C84.74,55.73,84.75,55.73,84.75,55.73L83.05,55.38C79.71,54.68,76.87,52.48,75.38,49.41L71.92,42.29C72.79,46.45,74.24,51.99,76.13,53.88Z" fill="currentColor"/><path d="M30.65,72.41C24.88,72.41,20.23,67.79,20.23,62.09C20.23,56.4,24.91,51.78,30.65,51.78L59.35,51.78C65.12,51.78,69.77,56.4,69.77,62.09C69.77,67.79,65.09,72.41,59.35,72.41Z" fill="currentColor"/><path d="M30.07,69.63C24.07,69.63,19.23,65,19.23,59.31C19.23,53.62,24.1,49,30.07,49L59.93,49C65.93,49,70.77,53.62,70.77,59.31C70.77,65,65.9,69.63,59.93,69.63Z" fill="currentColor"/><path d="M26.96,51.61C26.96,55.85,30.43,59.29,34.72,59.29L55.31,59.29C59.6,59.29,63.07,55.85,63.07,51.61C63.07,51.61,63.07,51.59,63.07,51.56L26.99,51.56L26.96,51.56C26.96,51.56,26.96,51.59,26.96,51.61Z" fill="currentColor"/></svg>