<svg xmlns="http://www.w3.org/2000/svg" viewBox="0 0 90 90"><path d="M88,45C88,21.25,68.75,2,45,2C21.25,2,2,21.25,2,45C2,68.75,21.25,88,45,88C68.75,88,88,68.75,88,45Z" fill="#FA412D"/><path d="M88,45C88,68.75,68.75,88,45,88C35.3,88,26.35,84.79,19.16,79.37C23.78,81.07,28.78,82,34,82C57.75,82,77,62.75,77,39C77,24.95,70.26,12.48,59.84,4.63C76.28,10.68,88,26.47,88,45Z" fill="#AD1F24" opacity="0.5"/><path d="M88,45C88,68.75,68.75,88,45,88C44.5,88,44,87.99,43.5,87.97C66.55,87.18,85,68.25,85,45C85,21.75,66.55,2.82,43.5,2.03C44,2.01,44.5,2,45,2C68.75,2,88,21.25,88,45Z" fill="#FF6352"/><path d="M2.31,39.84C4.77,19.31,21.69,3.22,42.59,2.07C23.37,6.97,8.3,21.38,2.31,39.84Z" fill="#FF8A75"/><path d="M28.34,48.49C25.5,48.49,23.19,45.03,23.19,40.77C23.19,36.5,25.5,33.04,28.34,33.04C31.17,33.04,33.48,36.5,33.48,40.77C33.48,45.03,31.17,48.49,28.34,48.49Z" fill="#312E2B"/><path d="M61.69,48.16C58.86,48.16,56.55,44.83,56.55,40.76C56.55,36.69,58.86,33.37,61.69,33.37C64.53,33.37,66.83,36.67,66.83,40.76C66.83,44.86,64.53,48.16,61.69,48.16Z" fill="#312E2B"/><path d="M51.88,41.45C51.88,41.45,51.88,41.34,51.88,41.15C51.88,40.96,51.9,40.65,51.96,40.32C52.01,39.97,52.09,39.53,52.2,39.06C52.34,38.59,52.51,38.04,52.73,37.49C52.95,36.91,53.22,36.34,53.55,35.73C53.88,35.13,54.3,34.52,54.76,33.94C55.23,33.37,55.78,32.79,56.36,32.29C56.96,31.8,57.59,31.33,58.28,30.97C58.97,30.59,59.69,30.29,60.4,30.07C61.12,29.85,61.83,29.71,62.52,29.63C63.2,29.57,63.87,29.57,64.5,29.63C64.8,29.63,65.1,29.68,65.41,29.74C65.68,29.79,65.98,29.82,66.23,29.9C67.28,30.18,68.1,30.51,68.65,30.78C69.2,31.06,69.5,31.25,69.5,31.25C69.83,31.44,69.97,31.94,69.81,32.29C69.69,32.57,69.47,32.71,69.23,32.71L69.17,32.71C69.17,32.71,68.84,32.71,68.27,32.71C67.99,32.71,67.63,32.71,67.28,32.71C66.89,32.71,66.48,32.73,66.01,32.76C65.79,32.76,65.54,32.82,65.3,32.84C65.05,32.84,64.8,32.9,64.55,32.95C64.06,33.04,63.53,33.15,63.01,33.28C62.49,33.45,61.97,33.61,61.45,33.83C61.2,33.94,60.92,34.05,60.67,34.19C60.43,34.3,60.18,34.47,59.93,34.6C57.98,35.81,56.36,37.66,55.12,39.17C54.82,39.55,54.54,39.91,54.3,40.24C54.05,40.57,53.83,40.87,53.66,41.12C53.5,41.37,53.33,41.56,53.25,41.7C53.17,41.84,53.11,41.89,53.11,41.89C53,42.3,52.62,42.52,52.26,42.39C51.9,42.25,51.71,41.84,51.82,41.42" fill="none" stroke="#312E2B" stroke-width="2" stroke-linecap="round" stroke-linejoin="round"/><path d="M38.13,41.45C38.13,41.45,38.13,41.34,38.13,41.15C38.13,40.96,38.1,40.65,38.04,40.32C37.99,39.97,37.91,39.53,37.8,39.06C37.69,38.59,37.52,38.04,37.3,37.49C37.08,36.91,36.8,36.34,36.48,35.73C36.15,35.13,35.73,34.52,35.27,33.94C34.8,33.37,34.25,32.79,33.67,32.29C33.06,31.8,32.43,31.33,31.75,30.97C31.06,30.59,30.34,30.29,29.63,30.07C28.91,29.85,28.2,29.71,27.51,29.63C26.82,29.57,26.16,29.57,25.53,29.63C25.23,29.63,24.93,29.68,24.62,29.74C24.35,29.79,24.05,29.82,23.8,29.9C22.75,30.18,21.93,30.51,21.38,30.78C20.83,31.06,20.52,31.25,20.52,31.25C20.2,31.44,20.06,31.94,20.22,32.29C20.33,32.57,20.58,32.71,20.8,32.71L20.86,32.71C20.86,32.71,21.18,32.71,21.73,32.71C22.01,32.71,22.34,32.71,22.73,32.71C23.11,32.71,23.52,32.73,23.99,32.76C24.21,32.76,24.46,32.82,24.7,32.84C24.95,32.84,25.2,32.9,25.45,32.95C25.94,33.04,26.46,33.15,26.99,33.28C27.51,33.45,28.03,33.61,28.55,33.83C28.8,33.94,29.08,34.05,29.32,34.19C29.57,34.3,29.82,34.47,30.07,34.6C32.02,35.81,33.64,37.66,34.85,39.17C35.16,39.55,35.43,39.91,35.68,40.24C35.92,40.57,36.15,40.87,36.31,41.12C36.5,41.37,36.61,41.56,36.72,41.7C36.8,41.84,36.86,41.89,36.86,41.89C36.97,42.3,37.35,42.52,37.71,42.39C38.07,42.25,38.26,41.84,38.15,41.42" fill="none" stroke="#312E2B" stroke-width="2" stroke-linecap="round" stroke-linejoin="round"/><path d="M28.17,64.66C28.17,64.66,28.28,64.55,28.45,64.33C28.64,64.11,28.89,63.81,29.3,63.4C29.71,62.98,30.18,62.52,30.78,62.02C31.09,61.77,31.41,61.53,31.75,61.25C32.1,61,32.46,60.73,32.84,60.48C33.64,59.96,34.52,59.44,35.48,58.97C36.45,58.5,37.52,58.06,38.62,57.7C38.9,57.62,39.2,57.54,39.47,57.46C39.77,57.37,40.05,57.32,40.35,57.24C40.93,57.1,41.53,56.99,42.14,56.88C43.35,56.69,44.62,56.6,45.85,56.58L46.76,56.58C47.03,56.6,47.37,56.63,47.7,56.66C48.35,56.69,48.96,56.8,49.56,56.88C50.17,56.99,50.77,57.07,51.35,57.24C51.66,57.32,51.93,57.37,52.23,57.46C52.51,57.54,52.81,57.62,53.09,57.7C54.21,58.06,55.26,58.47,56.25,58.97C57.21,59.44,58.09,59.96,58.89,60.48C59.27,60.76,59.66,61,59.99,61.25C60.32,61.53,60.65,61.77,60.95,62.02C61.53,62.52,62.02,62.98,62.41,63.37C62.79,63.75,63.09,64.08,63.29,64.3C63.48,64.52,63.59,64.66,63.59,64.66C64.06,65.21,64.03,66.06,63.53,66.56C63.15,66.94,62.57,67.03,62.13,66.78L62.08,66.78C62.08,66.78,61.58,66.48,60.73,66.01C60.32,65.76,59.77,65.51,59.19,65.21C58.89,65.07,58.56,64.91,58.23,64.77C57.87,64.63,57.54,64.47,57.16,64.3C56.41,64,55.59,63.7,54.73,63.42C53.85,63.15,52.95,62.9,51.98,62.68C51.02,62.46,50.03,62.32,49.02,62.19C48.49,62.13,47.97,62.1,47.5,62.08C47.26,62.08,47.01,62.05,46.7,62.05L45.91,62.05C44.86,62.05,43.82,62.1,42.8,62.21C41.78,62.35,40.79,62.46,39.83,62.68C38.87,62.9,37.93,63.12,37.08,63.42C36.2,63.7,35.4,64,34.63,64.3C34.25,64.47,33.89,64.61,33.56,64.77C33.23,64.94,32.9,65.07,32.6,65.21C31.99,65.51,31.47,65.76,31.06,66.01C30.64,66.23,30.29,66.45,30.04,66.56C29.79,66.7,29.68,66.78,29.68,66.78C29.08,67.11,28.31,66.86,28,66.2C27.76,65.68,27.87,65.07,28.2,64.69" fill="none" stroke="#312E2B" stroke-width="2" stroke-linecap="round" stroke-linejoin="round"/></svg>