<svg xmlns="http://www.w3.org/2000/svg" viewBox="0 0 90 90"><path d="M29.97,89.2L1.76,67.56C1.76,67.56,7.59,89.2,29.97,89.2Z" fill="currentColor"/><path d="M29.14,77.21L5.83,57.12C5.83,57.12,12.37,77.3,29.14,77.21Z" fill="currentColor"/><path d="M61.76,19.1L39.94,0.63C39.94,0.63,59.86,0.72,61.76,19.1Z" fill="currentColor"/><path d="M22.53,12.14L45.41,35.01C46.44,36.05,48.12,36.05,49.15,35.01C50.19,33.98,50.19,32.3,49.16,31.26L30.78,12.89C29.12,11.23,29.12,8.55,30.78,6.89C32.44,5.23,35.12,5.23,36.78,6.89L62.96,33.07C64.3,34.41,66.58,33.47,66.59,31.58L66.61,17.11C66.82,12.42,72.94,9.68,75.91,13.48C75.95,23.17,80.47,34.29,81.88,41.17C83.46,52.14,83.58,59.06,83.47,62.58C83.41,64.41,82.58,66.09,81.28,67.39L65.15,83.52C62.92,85.75,59.66,86.56,56.71,85.47C49.72,82.88,36.85,77.46,29.73,70.34L6.03,46.64C4.37,44.98,4.37,42.3,6.03,40.64C7.69,38.98,10.37,38.98,12.03,40.64L26.66,55.26C27.69,56.3,29.37,56.3,30.4,55.26C31.44,54.23,31.44,52.55,30.4,51.51L8.28,29.39C6.62,27.73,6.62,25.05,8.28,23.39C9.94,21.73,12.62,21.73,14.28,23.39L34.9,44.01C35.94,45.05,37.62,45.05,38.66,44.01C39.69,42.98,39.69,41.3,38.66,40.26L16.53,18.14C14.87,16.48,14.87,13.8,16.53,12.14C18.19,10.48,20.87,10.48,22.53,12.14Z" fill="currentColor"/><path d="M25.1,53.69L12.78,42.67C11.49,41.51,9.53,41.57,8.31,42.79C7.09,44,7.03,45.95,8.16,47.24L19.1,59.69L6.04,46.63C4.38,44.98,4.38,42.29,6.04,40.63C7.69,38.98,10.38,38.98,12.04,40.63Z" fill="currentColor"/><path d="M27.34,36.45L15.02,25.42C13.73,24.27,11.77,24.33,10.55,25.55C9.33,26.76,9.27,28.71,10.4,30L21.34,42.45L8.28,29.39C6.62,27.73,6.62,25.05,8.28,23.39C9.94,21.73,12.62,21.73,14.28,23.39Z" fill="currentColor"/><path d="M35.59,25.2L23.27,14.17C21.98,13.02,20.02,13.08,18.8,14.3C17.58,15.51,17.52,17.46,18.65,18.75L29.59,31.2L16.53,18.14C14.87,16.48,14.87,13.8,16.53,12.14C18.19,10.48,20.87,10.48,22.53,12.14Z" fill="currentColor"/><path d="M49.84,19.95L37.52,8.92C36.23,7.77,34.27,7.83,33.05,9.05C31.83,10.26,31.77,12.21,32.9,13.5L43.84,25.95L30.78,12.89C29.12,11.23,29.12,8.55,30.78,6.89C32.44,5.23,35.12,5.23,36.78,6.89Z" fill="currentColor"/><path d="M63.47,73.48C84.71,58.19,71.76,26.15,75.93,14.44C76.24,23.9,80.52,34.51,81.88,41.17C83.46,52.14,83.58,59.06,83.47,62.58C83.41,64.41,82.58,66.09,81.28,67.39L65.15,83.52C62.92,85.75,59.66,86.56,56.71,85.47C49.72,82.88,36.85,77.46,29.73,70.34L18.51,59.12C41.73,82.34,52.4,81.45,63.47,73.48Z" fill="currentColor"/><path d="M75.27,12.8C71.9,12.38,68.36,14.64,67.91,18.57L66.6,30.22L66.59,30.17L66.61,17.11C66.81,12.74,72.14,10.06,75.27,12.8Z" fill="currentColor"/><path d="M49.39,53.87C47.92,44.53,53.24,35.44,62.1,32.15C63.91,33.6,66.59,32.31,66.59,30L66.59,33.73C66.59,35.35,65.52,36.78,63.97,37.24C56.45,39.46,51.18,46.22,50.87,54.06L50.59,61.46Z" fill="currentColor"/></svg>