<svg xmlns="http://www.w3.org/2000/svg" viewBox="0 0 90 90"><path d="M88,45C88,21.25,68.75,2,45,2C21.25,2,2,21.25,2,45C2,68.75,21.25,88,45,88C68.75,88,88,68.75,88,45Z" fill="currentColor"/><path d="M88,45C88,68.75,68.75,88,45,88C35.3,88,26.35,84.79,19.16,79.37C23.78,81.07,28.78,82,34,82C57.75,82,77,62.75,77,39C77,24.95,70.26,12.48,59.84,4.63C76.28,10.68,88,26.47,88,45Z" fill="currentColor" opacity="0.5"/><path d="M88,45C88,68.75,68.75,88,45,88C44.5,88,44,87.99,43.5,87.97C66.55,87.18,85,68.25,85,45C85,21.75,66.55,2.82,43.5,2.03C44,2.01,44.5,2,45,2C68.75,2,88,21.25,88,45Z" fill="currentColor"/><path d="M2.31,39.84C4.77,19.31,21.69,3.22,42.59,2.07C23.37,6.97,8.3,21.38,2.31,39.84Z" fill="currentColor"/><path d="M26,59.94L26,83.58C12.9,77.12,3.56,64.17,2.18,48.93C14.11,41.55,26,50.64,26,59.94Z" fill="currentColor"/><path d="M87.81,49.08C86.38,64.26,77.06,77.14,64,83.58L64,59.94C64,50.64,75.89,42.44,87.81,49.08Z" fill="currentColor"/><path d="M0,90L20,90L20,60.44C20,51.72,0,47.5,0,53.33Z" fill="currentColor"/><path d="M90,90L70,90L70,60.44C70,51.72,90,47.5,90,53.33Z" fill="currentColor"/><path d="M31.44,46.08C27.91,46.08,25,43.24,25,39.23C25,34.02,27.88,29.77,31.44,29.77C35.01,29.77,37.85,34.02,37.85,39.23C37.85,43.24,34.97,46.08,31.44,46.08Z" fill="currentColor"/><path d="M60.44,46.08C56.91,46.08,54,43.24,54,39.23C54,34.02,56.88,29.77,60.44,29.77C64.01,29.77,66.85,34.02,66.85,39.23C66.85,43.24,63.97,46.08,60.44,46.08Z" fill="currentColor"/><path d="M31.44,44.08C28.46,44.08,26,39.84,26,35.85C26,31.86,28.43,28.62,31.44,28.62C34.45,28.62,36.85,31.86,36.85,35.85C36.85,39.84,34.42,44.08,31.44,44.08Z" fill="currentColor"/><path d="M60.59,44.08C57.61,44.08,55.18,39.84,55.18,35.85C55.18,31.86,57.61,28.62,60.59,28.62C63.57,28.62,66,31.86,66,35.85C66,39.84,63.57,44.08,60.59,44.08Z" fill="currentColor"/><path d="M45.38,50.31C37.65,50.31,34.8,61.02,33.81,65.63C31.78,74.81,36.47,76.08,45.38,76.08C54.35,76.11,59,74.82,56.96,65.6C55.94,60.91,53.16,50.31,45.38,50.31Z" fill="currentColor"/><path d="M45.39,47.31C38.94,47.31,36.56,58.02,35.73,62.63C34.04,71.81,37.95,73.08,45.39,73.08C52.86,73.11,56.74,71.82,55.04,62.6C54.19,57.91,51.87,47.31,45.39,47.31Z" fill="currentColor"/><path d="M16.29,29.08C16.29,29.08,16.26,29,16.24,28.83C16.21,28.67,16.15,28.45,16.13,28.17C16.1,27.9,16.07,27.54,16.1,27.13C16.1,26.74,16.15,26.27,16.24,25.81C16.32,25.31,16.46,24.79,16.65,24.24C16.84,23.69,17.12,23.14,17.42,22.56C17.75,22.01,18.13,21.43,18.6,20.91C19.07,20.39,19.59,19.89,20.17,19.43C20.75,18.99,21.35,18.57,22.01,18.24C22.64,17.91,23.3,17.64,23.96,17.42C24.62,17.2,25.26,17.06,25.86,16.95C26.16,16.9,26.47,16.87,26.74,16.84C27.02,16.81,27.29,16.79,27.57,16.79C28.64,16.76,29.49,16.81,30.1,16.92C30.7,17.01,31.03,17.09,31.03,17.09C31.39,17.17,31.64,17.5,31.55,17.83C31.5,18.05,31.31,18.22,31.09,18.3L31.03,18.3C31.03,18.3,30.73,18.41,30.18,18.52C29.9,18.57,29.57,18.66,29.22,18.77C28.86,18.85,28.45,18.99,28.01,19.1C27.79,19.15,27.57,19.23,27.35,19.32C27.13,19.4,26.88,19.45,26.66,19.56C26.19,19.73,25.72,19.95,25.26,20.17C24.79,20.42,24.32,20.66,23.88,20.97C23.66,21.1,23.44,21.27,23.22,21.43C23,21.57,22.81,21.76,22.59,21.93C20.97,23.3,19.81,25.09,18.99,26.58C18.77,26.93,18.6,27.29,18.44,27.59C18.27,27.9,18.13,28.17,18.02,28.42C17.91,28.64,17.83,28.83,17.75,28.94C17.69,29.08,17.64,29.11,17.67,29.13C17.67,29.46,17.34,29.74,16.95,29.71C16.59,29.71,16.29,29.41,16.32,29.05" fill="none" stroke="currentColor" stroke-width="2" stroke-linecap="round" stroke-linejoin="round"/><path d="M75.94,29.08C75.94,29.08,75.97,29,75.99,28.83C76.02,28.67,76.08,28.45,76.1,28.17C76.13,27.87,76.16,27.54,76.13,27.13C76.13,26.74,76.08,26.27,75.99,25.81C75.91,25.31,75.77,24.79,75.58,24.27C75.39,23.72,75.11,23.17,74.81,22.59C74.48,22.04,74.1,21.46,73.63,20.94C73.16,20.42,72.64,19.92,72.06,19.45C71.48,19.01,70.88,18.6,70.22,18.27C69.59,17.94,68.93,17.67,68.27,17.45C67.61,17.25,66.97,17.09,66.37,16.98C66.07,16.92,65.76,16.9,65.49,16.87C65.21,16.84,64.94,16.81,64.66,16.81C63.59,16.79,62.74,16.84,62.13,16.92C61.53,17.01,61.2,17.09,61.2,17.09C60.84,17.17,60.59,17.5,60.68,17.83C60.73,18.05,60.92,18.22,61.14,18.3L61.2,18.3C61.2,18.3,61.5,18.41,62.05,18.52C62.33,18.57,62.66,18.66,63.01,18.77C63.37,18.85,63.78,18.99,64.22,19.1C64.44,19.15,64.66,19.23,64.88,19.32C65.1,19.4,65.35,19.45,65.57,19.56C66.04,19.73,66.51,19.95,67,20.17C67.47,20.42,67.94,20.66,68.38,20.97C68.6,21.1,68.82,21.27,69.04,21.43C69.26,21.57,69.45,21.76,69.67,21.93C71.26,23.3,72.45,25.09,73.27,26.58C73.49,26.93,73.66,27.29,73.82,27.59C73.99,27.9,74.12,28.17,74.23,28.42C74.34,28.64,74.43,28.83,74.51,28.94C74.56,29.08,74.62,29.11,74.59,29.13C74.59,29.46,74.92,29.74,75.31,29.71C75.66,29.71,75.97,29.41,75.94,29.05" fill="none" stroke="currentColor" stroke-width="2" stroke-linecap="round" stroke-linejoin="round"/></svg>