<svg xmlns="http://www.w3.org/2000/svg" viewBox="0 0 90 90"><path d="M89,46C89,69.75,69.75,89,46,89C22.25,89,3,69.75,3,46C3,22.25,22.25,3,46,3C69.75,3,89,22.25,89,46Z" fill="currentColor"/><path d="M89,46C89,22.25,69.75,3,46,3C36.3,3,27.35,6.21,20.16,11.63C24.78,9.93,29.78,9,35,9C58.75,9,78,28.25,78,52C78,66.05,71.26,78.52,60.84,86.37C77.28,80.33,89,64.53,89,46Z" fill="currentColor" opacity="0.5"/><path d="M89,46C89,22.25,69.75,3,46,3C45.5,3,45,3.01,44.5,3.03C67.55,3.82,86,22.75,86,46C86,69.25,67.55,88.18,44.5,88.97C45,88.99,45.5,89,46,89C69.75,89,89,69.75,89,46Z" fill="currentColor"/><path d="M3.31,51.16C5.77,71.69,22.69,87.78,43.59,88.93C24.37,84.03,9.3,69.62,3.31,51.16Z" fill="currentColor"/><path d="M37.42,56.7C37.42,53.26,33.95,56.7,29.69,56.7C25.43,56.7,21.96,53.26,21.96,56.7C21.96,60.14,25.43,62.91,29.69,62.91C33.95,62.91,37.42,60.14,37.42,56.7Z" fill="currentColor"/><path d="M56.97,56.7C56.97,60.14,60.44,62.91,64.7,62.91C68.96,62.91,72.43,60.14,72.43,56.7C72.43,53.26,68.96,56.7,64.7,56.7C60.44,56.7,56.97,53.26,56.97,56.7Z" fill="currentColor"/><path d="M16.65,31.78C13.98,29.11,9.67,29.11,7,31.78C4.33,34.44,4.33,38.76,7,41.43C9.66,44.09,20.89,45.73,20.97,45.74C20.96,45.71,19.32,34.44,16.65,31.78Z" fill="currentColor"/><path d="M3.38,37.12C0.21,40.3,0.21,45.43,3.38,48.61C6.56,51.78,20,53.74,20,53.74C20,53.74,18.04,40.3,14.87,37.12C11.69,33.95,6.56,33.95,3.38,37.12Z" fill="currentColor"/><path d="M19.73,52.1C14.71,50.2,9.38,47.9,7.65,46.18C4.7,43.22,4.21,38.74,6.2,35.29C5.17,35.68,4.21,36.29,3.38,37.12C0.21,40.3,0.21,45.43,3.38,48.61C6.56,51.78,20,53.74,20,53.74C20,53.74,19.91,53.11,19.73,52.1Z" fill="currentColor"/><path d="M14.87,37.12C12.54,34.79,9.15,34.18,6.26,35.27C6.26,35.27,6.25,35.27,6.25,35.27L7.95,35.63C11.29,36.32,14.13,38.52,15.62,41.59L19.08,48.71C18.21,44.55,16.76,39.01,14.87,37.12Z" fill="currentColor"/><path d="M75.35,31.78C78.02,29.11,82.33,29.11,85,31.78C87.67,34.44,87.67,38.76,85,41.43C82.34,44.09,71.11,45.73,71.03,45.74C71.04,45.71,72.68,34.44,75.35,31.78Z" fill="currentColor"/><path d="M88.62,37.12C91.79,40.3,91.79,45.43,88.62,48.61C85.44,51.78,72,53.74,72,53.74C72,53.74,73.96,40.3,77.13,37.12C80.31,33.95,85.44,33.95,88.62,37.12Z" fill="currentColor"/><path d="M72.27,52.1C77.29,50.2,82.62,47.9,84.35,46.18C87.3,43.22,87.79,38.74,85.8,35.29C86.83,35.68,87.79,36.29,88.62,37.12C91.79,40.3,91.79,45.43,88.62,48.61C85.44,51.78,72,53.74,72,53.74C72,53.74,72.09,53.11,72.27,52.1Z" fill="currentColor"/><path d="M77.13,37.12C79.46,34.79,82.85,34.18,85.74,35.27C85.74,35.27,85.75,35.27,85.75,35.27L84.05,35.63C80.71,36.32,77.87,38.52,76.38,41.59L72.92,48.71C73.79,44.55,75.24,39.01,77.13,37.12Z" fill="currentColor"/><path d="M31.65,18.59C25.88,18.59,21.23,23.21,21.23,28.91C21.23,34.6,25.91,39.22,31.65,39.22L60.35,39.22C66.12,39.22,70.77,34.6,70.77,28.91C70.77,23.21,66.09,18.59,60.35,18.59Z" fill="currentColor"/><path d="M31.07,21.38C25.07,21.38,20.23,26,20.23,31.69C20.23,37.38,25.1,42,31.07,42L60.93,42C66.93,42,71.77,37.38,71.77,31.69C71.77,26,66.9,21.38,60.93,21.38Z" fill="currentColor"/><path d="M27.96,39.39C27.96,35.15,31.43,31.71,35.72,31.71L56.31,31.71C60.6,31.71,64.07,35.15,64.07,39.39C64.07,39.39,64.07,39.41,64.07,39.44L27.99,39.44L27.96,39.44C27.96,39.44,27.96,39.41,27.96,39.39Z" fill="currentColor"/></svg>