<svg xmlns="http://www.w3.org/2000/svg" viewBox="0 0 90 90"><path d="M88,45C88,21.25,68.75,2,45,2C21.25,2,2,21.25,2,45C2,68.75,21.25,88,45,88C68.75,88,88,68.75,88,45Z" fill="currentColor"/><path d="M88,45C88,68.75,68.75,88,45,88C35.3,88,26.35,84.79,19.16,79.37C23.78,81.07,28.78,82,34,82C57.75,82,77,62.75,77,39C77,24.95,70.26,12.48,59.84,4.63C76.28,10.68,88,26.47,88,45Z" fill="currentColor" opacity="0.5"/><path d="M88,45C88,68.75,68.75,88,45,88C44.5,88,44,87.99,43.5,87.97C66.55,87.18,85,68.25,85,45C85,21.75,66.55,2.82,43.5,2.03C44,2.01,44.5,2,45,2C68.75,2,88,21.25,88,45Z" fill="currentColor"/><path d="M2.31,39.84C4.77,19.31,21.69,3.22,42.59,2.07C23.37,6.97,8.3,21.38,2.31,39.84Z" fill="currentColor"/><path d="M30.32,18.12C36.94,19.11,39.76,25.19,38.81,32.03C38.12,36.97,32.23,47.49,28.98,52.95C27.79,54.93,25.36,55.58,23.42,54.43C18.02,51.28,7.92,44.99,5.03,41.01C4.05,39.67,3.29,38.25,2.78,36.82C3.7,32.03,5.42,27.53,7.78,23.45C11.59,21.54,15.76,22.48,19.11,25.29C21.02,20.52,25.06,17.33,30.32,18.12Z" fill="currentColor"/><path d="M70.88,25.29C74.23,22.48,78.41,21.53,82.22,23.46C84.58,27.53,86.29,32.03,87.22,36.8C86.7,38.24,85.94,39.66,84.96,41.01C82.07,44.99,71.97,51.27,66.58,54.43C64.63,55.58,62.2,54.93,61.02,52.95C57.76,47.49,51.87,36.97,51.18,32.03C50.23,25.19,53.06,19.11,59.67,18.12C64.93,17.33,68.98,20.52,70.88,25.29Z" fill="currentColor"/><path d="M20.23,53C21.47,64.86,29.99,74.63,44.97,74.63C59.94,74.63,68.48,64.82,69.76,53.01C69.94,51.36,68.57,50,66.91,50L23.08,50C21.42,50,20.06,51.35,20.23,53Z" fill="currentColor"/><path d="M19.51,53.27C25.06,78.65,64.82,78.58,70.48,53.28C70.86,51.55,69.46,50,67.69,50L22.3,50C20.53,50,19.13,51.54,19.51,53.27Z" fill="currentColor"/><path d="M44.56,61.22C40.33,61.22,36.56,62.01,34.25,65.06C37.3,66.89,41,67.73,44.53,67.73C48.26,67.73,51.56,66.68,54.85,65.04L54.87,65.04C52.54,61.98,48.8,61.22,44.56,61.22Z" fill="currentColor"/><path d="M51.01,25.31C51.01,32.63,60.82,41.62,66.99,47.46C67.75,48.19,69.03,48.57,70.01,48.59C70.94,48.57,72.06,48.19,72.79,47.46C78.66,41.62,88,32.63,88,25.31C88,14.69,76.51,9.18,70.01,18.28C63.31,9.35,51.01,14.3,51.01,25.31Z" fill="currentColor"/><path d="M51.01,25.31C51.01,32.62,60.82,41.62,66.99,47.46C67.75,48.19,69.03,48.57,70.01,48.59C70.94,48.57,72.06,48.19,72.79,47.46C77.66,42.61,84.93,35.58,87.26,29.15L72.72,43.19C71.41,44.46,69.25,44.29,68,42.96C63.2,37.84,55.26,31.28,55.06,24.33C54.9,18.97,57.36,15.14,60.75,13.69C55.63,14.09,51.01,18.56,51.01,25.31Z" fill="currentColor"/><path d="M77.14,13.73C76.88,13.76,76.62,13.79,76.36,13.85C76.12,13.89,75.89,13.95,75.66,14.02C75.14,14.16,74.62,14.37,74.11,14.62C72.65,15.36,71.26,16.54,70.04,18.24C70.08,19.34,70.28,20.6,70.65,22.05C71.86,17.31,75.89,13.32,81.52,14.43C80.6,14.04,79.64,13.79,78.65,13.71C78.52,13.7,78.38,13.69,78.25,13.69C77.88,13.68,77.51,13.69,77.14,13.73Z" fill="currentColor"/><path d="M38.99,25.31C38.99,32.63,29.18,41.62,23.01,47.46C22.25,48.19,20.97,48.57,19.99,48.59C19.06,48.57,17.94,48.19,17.21,47.46C11.34,41.62,2,32.63,2,25.31C2,14.69,13.49,9.18,19.99,18.28C26.69,9.35,38.99,14.3,38.99,25.31Z" fill="currentColor"/><path d="M38.99,25.31C38.99,32.63,29.18,41.62,23.01,47.46C22.25,48.19,20.97,48.57,19.99,48.59C19.06,48.57,17.94,48.19,17.21,47.46C12.34,42.61,5.07,35.58,2.74,29.15L17.28,43.19C18.59,44.46,20.75,44.29,22,42.97C26.8,37.84,34.74,31.28,34.94,24.33C35.1,18.97,32.64,15.14,29.25,13.7C34.37,14.09,38.99,18.56,38.99,25.31Z" fill="currentColor"/><path d="M12.86,13.73C13.12,13.76,13.38,13.79,13.64,13.85C13.88,13.89,14.11,13.95,14.34,14.02C14.36,14.02,14.37,14.03,14.39,14.03C14.61,14.09,14.83,14.17,15.04,14.25C15.32,14.36,15.6,14.48,15.88,14.62C16.32,14.84,16.76,15.11,17.19,15.42C17.23,15.45,17.28,15.48,17.32,15.51C17.52,15.66,17.72,15.82,17.91,15.98C17.95,16.02,17.99,16.04,18.02,16.08C18.7,16.67,19.35,17.39,19.96,18.24C19.92,19.34,19.72,20.6,19.35,22.05C18.14,17.31,14.11,13.32,8.48,14.43C9.04,14.19,9.62,14,10.21,13.88C10.23,13.87,10.26,13.87,10.28,13.86C10.63,13.79,10.99,13.74,11.35,13.71C11.48,13.7,11.62,13.69,11.75,13.69C12.12,13.68,12.49,13.69,12.86,13.73Z" fill="currentColor"/></svg>