<svg xmlns="http://www.w3.org/2000/svg" viewBox="0 0 90 90"><path d="M88,45C88,21.25,68.75,2,45,2C21.25,2,2,21.25,2,45C2,68.75,21.25,88,45,88C68.75,88,88,68.75,88,45Z" fill="currentColor"/><path d="M88,45C88,68.75,68.75,88,45,88C35.3,88,26.35,84.79,19.16,79.37C23.78,81.07,28.78,82,34,82C57.75,82,77,62.75,77,39C77,24.95,70.26,12.48,59.84,4.63C76.28,10.68,88,26.47,88,45Z" fill="currentColor" opacity="0.5"/><path d="M88,45C88,68.75,68.75,88,45,88C44.5,88,44,87.99,43.5,87.97C66.55,87.18,85,68.25,85,45C85,21.75,66.55,2.82,43.5,2.03C44,2.01,44.5,2,45,2C68.75,2,88,21.25,88,45Z" fill="currentColor"/><path d="M2.31,39.84C4.77,19.31,21.69,3.22,42.59,2.07C23.37,6.97,8.3,21.38,2.31,39.84Z" fill="currentColor"/><path d="M30.44,49.08C26.91,49.08,24,46.24,24,42.23C24,37.02,26.88,32.77,30.44,32.77C34.01,32.77,36.85,37.02,36.85,42.23C36.85,46.24,33.97,49.08,30.44,49.08Z" fill="currentColor"/><path d="M59.44,49.08C55.91,49.08,53,46.24,53,42.23C53,37.02,55.88,32.77,59.44,32.77C63.01,32.77,65.85,37.02,65.85,42.23C65.85,46.24,62.97,49.08,59.44,49.08Z" fill="currentColor"/><path d="M30.44,47.08C27.46,47.08,25,42.84,25,38.85C25,34.86,27.43,31.62,30.44,31.62C33.45,31.62,35.85,34.86,35.85,38.85C35.85,42.84,33.42,47.08,30.44,47.08Z" fill="currentColor"/><path d="M59.59,47.08C56.61,47.08,54.18,42.84,54.18,38.85C54.18,34.86,56.61,31.62,59.59,31.62C62.57,31.62,65,34.86,65,38.85C65,42.84,62.57,47.08,59.59,47.08Z" fill="currentColor"/><path d="M27.29,64.52C27.29,64.52,27.4,64.41,27.57,64.19C27.76,63.97,28,63.67,28.42,63.26C28.83,62.85,29.32,62.38,29.9,61.88C30.2,61.64,30.54,61.39,30.86,61.11C31.22,60.87,31.58,60.59,31.96,60.34C32.76,59.82,33.64,59.3,34.6,58.83C35.57,58.36,36.64,57.92,37.74,57.57C38.02,57.48,38.32,57.4,38.59,57.32C38.87,57.24,39.17,57.18,39.47,57.1C40.05,56.96,40.66,56.85,41.26,56.74C42.47,56.55,43.73,56.47,44.97,56.44L45.88,56.44C46.16,56.47,46.48,56.49,46.81,56.52C47.48,56.55,48.08,56.66,48.69,56.74C49.29,56.85,49.9,56.93,50.47,57.1C50.77,57.18,51.05,57.24,51.35,57.32C51.63,57.4,51.93,57.48,52.2,57.57C53.33,57.92,54.38,58.34,55.34,58.83C56.3,59.3,57.18,59.82,57.98,60.34C58.37,60.62,58.75,60.87,59.08,61.11C59.41,61.39,59.74,61.64,60.04,61.88C60.62,62.38,61.12,62.85,61.5,63.23C61.91,63.62,62.19,63.95,62.38,64.17C62.57,64.39,62.68,64.52,62.68,64.52C63.15,65.07,63.12,65.93,62.63,66.42C62.24,66.81,61.66,66.89,61.23,66.64L61.17,66.64C61.17,66.64,60.67,66.34,59.82,65.87C59.41,65.62,58.86,65.38,58.28,65.07C57.98,64.94,57.65,64.77,57.32,64.63C56.99,64.5,56.63,64.33,56.25,64.17C55.51,63.86,54.68,63.56,53.83,63.29C52.95,63.01,52.04,62.76,51.08,62.54C50.12,62.32,49.13,62.19,48.11,62.05C47.59,61.99,47.09,61.97,46.59,61.94C46.35,61.94,46.13,61.91,45.8,61.91L45,61.91C43.95,61.91,42.91,61.97,41.89,62.08C40.88,62.21,39.88,62.32,38.92,62.54C37.96,62.76,37.02,62.98,36.17,63.29C35.29,63.56,34.49,63.86,33.75,64.17C33.37,64.33,33.01,64.47,32.68,64.63C32.35,64.8,32.02,64.94,31.72,65.07C31.11,65.38,30.59,65.62,30.18,65.87C29.77,66.09,29.41,66.31,29.16,66.42C28.91,66.56,28.77,66.64,28.77,66.64C28.17,66.97,27.4,66.72,27.1,66.06C26.85,65.54,26.96,64.94,27.29,64.55" fill="none" stroke="currentColor" stroke-width="2" stroke-linecap="round" stroke-linejoin="round"/></svg>