<svg xmlns="http://www.w3.org/2000/svg" viewBox="0 0 90 90" fill="currentColor"><path d="M34,71.91C34,80.88,27.06,88.16,18.5,88.16C9.94,88.16,3,80.88,3,71.91C3,62.94,9.94,52.16,18.5,52.16C27.06,52.16,34,62.94,34,71.91ZM32.86,78.03C30.1,82.89,24.93,86.16,19,86.16C10.49,86.16,3.53,79.41,3.03,70.9C3.01,71.24,3,71.57,3,71.91C3,80.88,9.94,88.16,18.5,88.16C25,88.16,30.56,83.97,32.86,78.03ZM25.4,71.83C25.4,75.69,22.2,78.82,18.24,78.82C14.29,78.82,11.09,75.69,11.09,71.83C11.09,67.97,14.29,61.99,18.24,61.99C22.2,61.99,25.4,67.97,25.4,71.83ZM58,71.91C58,80.88,64.94,88.16,73.5,88.16C82.06,88.16,89,80.88,89,71.91C89,62.94,82.06,52.16,73.5,52.16C64.94,52.16,58,62.94,58,71.91ZM59.14,78.03C61.9,82.89,67.07,86.16,73,86.16C81.51,86.16,88.47,79.41,88.97,70.9C88.99,71.24,89,71.57,89,71.91C89,80.88,82.06,88.16,73.5,88.16C67,88.16,61.44,83.97,59.14,78.03ZM66.6,71.83C66.6,75.69,69.8,78.82,73.76,78.82C77.71,78.82,80.91,75.69,80.91,71.83C80.91,67.97,77.71,61.99,73.76,61.99C69.8,61.99,66.6,67.97,66.6,71.83ZM5,36C5,13.28,16.21,3,46,3C75.79,3,87,13.55,87,36C87,59,67.77,77.16,46,77.16C24.23,77.16,5,58.72,5,36ZM10.99,56.84L19,8.8L14.59,6.09L9.81,16L6.56,15.38L5.81,26.5L1.69,27.25L4.29,37.91L1,40.48ZM81.01,56.84L73,8.8L77.41,6.09L82.19,16L85.44,15.38L86.19,26.5L90.31,27.25L87.71,37.91L91,40.48ZM46,74.65L46,5.1C37.06,5.1,27.49,8.29,23,15.25L14.83,8.93L14.83,21.82L8.47,18.09L11.28,31.41L3,28.06L9.93,41.83L3,40.69C17.37,64.22,26.61,74.65,46,74.65ZM46,74.65L46,5.1C54.94,5.1,64.51,8.29,69,15.25L77.17,8.93L77.17,21.82L83.53,18.09L80.72,31.41L89,28.06L82.07,41.83L89,40.69C74.63,64.22,65.39,74.65,46,74.65ZM41.06,63.6C36.08,68.59,26.7,64.19,20.13,57.61C13.55,51.02,12.26,44.75,17.24,39.76C22.22,34.77,31.36,33.28,38.17,42.65C43.64,50.18,46.04,58.61,41.06,63.6ZM50.93,63.6C55.91,68.59,65.28,64.19,71.86,57.61C78.44,51.02,79.73,44.75,74.75,39.76C69.76,34.77,60.63,33.28,53.81,42.65C48.34,50.18,45.95,58.61,50.93,63.6ZM30.06,36.92C26.19,36.92,23,39.76,23,43.76C23,48.98,26.15,53.23,30.06,53.23C33.96,53.23,37.08,48.98,37.08,43.76C37.08,39.76,33.93,36.92,30.06,36.92ZM61.83,36.92C57.96,36.92,54.77,39.76,54.77,43.76C54.77,48.98,57.92,53.23,61.83,53.23C65.74,53.23,68.85,48.98,68.85,43.76C68.85,39.76,65.7,36.92,61.83,36.92ZM30.06,38.92C26.79,38.92,24.09,43.16,24.09,47.15C24.09,51.14,26.76,54.38,30.06,54.38C33.35,54.38,35.99,51.14,35.99,47.15C35.99,43.16,33.32,38.92,30.06,38.92ZM61.99,38.92C58.72,38.92,56.06,43.16,56.06,47.15C56.06,51.14,58.72,54.38,61.99,54.38C65.26,54.38,67.92,51.14,67.92,47.15C67.92,43.16,65.26,38.92,61.99,38.92ZM38.43,41.1C42.98,44.24,49.01,44.24,53.55,41.1C54.46,40.48,55.04,39.44,54.86,38.36C53.28,28.78,38.71,28.75,37.14,38.36C36.96,39.44,37.54,40.48,38.43,41.1ZM33.3,16.46C33.02,16.08,33.06,15.54,33.41,15.23C33.69,14.97,34.1,14.93,34.44,15.1C37.78,16.75,42.81,16.89,46,16.89C49.19,16.89,54.22,16.75,57.56,15.1C57.9,14.93,58.31,14.97,58.59,15.22C58.94,15.54,58.98,16.08,58.7,16.46C56.5,19.47,53.27,25.94,46.01,25.94C38.76,25.94,35.5,19.47,33.3,16.46ZM32.41,16.78C32.15,16.4,32.15,15.9,32.38,15.5C32.79,14.81,33.72,14.66,34.36,15.15C38.35,18.2,42.76,18.98,46,18.98C49.24,18.98,53.65,18.2,57.64,15.15C58.28,14.66,59.21,14.81,59.62,15.5C59.85,15.9,59.85,16.4,59.59,16.78C56.43,21.51,51.41,24.16,46.01,24.16C40.61,24.16,35.56,21.51,32.41,16.78Z"/></svg>