<svg xmlns="http://www.w3.org/2000/svg" viewBox="0 0 90 90"><path d="M88,45C88,21.25,68.75,2,45,2C21.25,2,2,21.25,2,45C2,68.75,21.25,88,45,88C68.75,88,88,68.75,88,45Z" fill="#F7C631"/><path d="M88,45C88,68.75,68.75,88,45,88C35.3,88,26.35,84.79,19.16,79.37C23.78,81.07,28.78,82,34,82C57.75,82,77,62.75,77,39C77,24.95,70.26,12.48,59.84,4.63C76.28,10.68,88,26.47,88,45Z" fill="#CF8D1B" opacity="0.5"/><path d="M88,45C88,68.75,68.75,88,45,88C44.5,88,44,87.99,43.5,87.97C66.55,87.18,85,68.25,85,45C85,21.75,66.55,2.82,43.5,2.03C44,2.01,44.5,2,45,2C68.75,2,88,21.25,88,45Z" fill="#FAD541"/><path d="M2.31,39.84C4.77,19.31,21.69,3.22,42.59,2.07C23.37,6.97,8.3,21.38,2.31,39.84Z" fill="#FFFFC7"/><path d="M30.44,43.45C26.91,43.45,24,40.62,24,36.61C24,31.39,26.88,27.15,30.44,27.15C34.01,27.15,36.85,31.39,36.85,36.61C36.85,40.62,33.97,43.45,30.44,43.45Z" fill="#FCE26A"/><path d="M59.44,43.45C55.91,43.45,53,40.62,53,36.61C53,31.39,55.88,27.15,59.44,27.15C63.01,27.15,65.85,31.39,65.85,36.61C65.85,40.62,62.97,43.45,59.44,43.45Z" fill="#FCE26A"/><path d="M30.44,41.45C27.46,41.45,25,37.21,25,33.23C25,29.24,27.43,26,30.44,26C33.45,26,35.85,29.24,35.85,33.23C35.85,37.21,33.42,41.45,30.44,41.45Z" fill="#312E2B"/><path d="M59.59,41.45C56.61,41.45,54.18,37.21,54.18,33.23C54.18,29.24,56.61,26,59.59,26C62.57,26,65,29.24,65,33.23C65,37.21,62.57,41.45,59.59,41.45Z" fill="#312E2B"/><path d="M20.21,53C21.42,64.86,29.78,74.63,44.47,74.63C59.15,74.63,67.53,64.82,68.78,53.01C68.96,51.36,67.59,50,65.93,50L23.06,50C21.4,50,20.04,51.35,20.21,53Z" fill="#FCE26A"/><path d="M19.5,53.27C24.94,78.66,63.94,78.58,69.49,53.27C69.87,51.54,68.47,50,66.69,50L22.29,50C20.53,50,19.13,51.54,19.5,53.27Z" fill="#312E2B"/><path d="M32.26,70.24L32.26,59.52L45,57.52L57.74,59.52L57.74,70.47C57.65,77.33,51.77,82.82,44.8,82.75C37.8,82.66,32.19,77.06,32.26,70.24Z" fill="#FF788A"/><path d="M32.26,70.24L32.26,61.92L32.79,68.22C33.32,74.57,38.63,79.45,45,79.45C51.37,79.45,56.68,74.57,57.21,68.22L57.74,61.92L57.74,70.47C57.65,77.33,51.77,82.82,44.8,82.75C37.8,82.66,32.19,77.06,32.26,70.24Z" fill="#AD1F24"/><path d="M52.95,58.71C47.39,58.68,47.13,61.03,45.06,60.99C43.08,60.95,42.96,58.68,37.64,58.68C36.08,58.66,34.31,60.03,32.26,61.15L32.26,57.12C32.26,56.41,32.59,55.74,33.15,55.31C36.44,52.72,40.99,52.48,44.54,54.71L45,55L45.46,54.71C49.01,52.48,53.57,52.72,56.86,55.31C57.41,55.74,57.74,56.41,57.74,57.12L57.74,61.15C55.91,60.14,54.34,58.75,52.95,58.71Z" fill="#AD1F24"/></svg>