<svg xmlns="http://www.w3.org/2000/svg" viewBox="0 0 90 90"><path d="M88,45C88,21.25,68.75,2,45,2C21.25,2,2,21.25,2,45C2,68.75,21.25,88,45,88C68.75,88,88,68.75,88,45Z" fill="currentColor"/><path d="M88,45C88,68.75,68.75,88,45,88C35.3,88,26.35,84.79,19.16,79.37C23.78,81.07,28.78,82,34,82C57.75,82,77,62.75,77,39C77,24.95,70.26,12.48,59.84,4.63C76.28,10.68,88,26.47,88,45Z" fill="currentColor" opacity="0.5"/><path d="M88,45C88,68.75,68.75,88,45,88C44.5,88,44,87.99,43.5,87.97C66.55,87.18,85,68.25,85,45C85,21.75,66.55,2.82,43.5,2.03C44,2.01,44.5,2,45,2C68.75,2,88,21.25,88,45Z" fill="currentColor"/><path d="M2.31,39.84C4.77,19.31,21.69,3.22,42.59,2.07C23.37,6.97,8.3,21.38,2.31,39.84Z" fill="currentColor"/><path d="M22.92,55C24.11,65.78,31.7,74.63,44.97,74.63C58.24,74.63,65.85,65.75,67.07,55.01C67.26,53.36,65.9,52,64.24,52L25.76,52C24.1,52,22.73,53.35,22.92,55Z" fill="currentColor"/><path d="M22.3,55.26C27.45,78.24,62.45,78.17,67.69,55.27C68.08,53.55,66.68,52,64.91,52L25.08,52C23.31,52,21.91,53.54,22.3,55.26Z" fill="currentColor"/><path d="M36.24,60.79L53.76,60.79C59.55,60.79,62.71,58.98,62.71,54.46L27.29,54.46C27.29,58.98,30.45,60.79,36.24,60.79Z" fill="currentColor"/><path d="M30.44,46.08C26.91,46.08,24,43.24,24,39.23C24,34.02,26.88,29.77,30.44,29.77C34.01,29.77,36.85,34.02,36.85,39.23C36.85,43.24,33.97,46.08,30.44,46.08Z" fill="currentColor"/><path d="M59.44,46.08C55.91,46.08,53,43.24,53,39.23C53,34.02,55.88,29.77,59.44,29.77C63.01,29.77,65.85,34.02,65.85,39.23C65.85,43.24,62.97,46.08,59.44,46.08Z" fill="currentColor"/><path d="M30.44,44.08C27.46,44.08,25,39.84,25,35.85C25,31.86,27.43,28.62,30.44,28.62C33.45,28.62,35.85,31.86,35.85,35.85C35.85,39.84,33.42,44.08,30.44,44.08Z" fill="currentColor"/><path d="M59.59,44.08C56.61,44.08,54.18,39.84,54.18,35.85C54.18,31.86,56.61,28.62,59.59,28.62C62.57,28.62,65,31.86,65,35.85C65,39.84,62.57,44.08,59.59,44.08Z" fill="currentColor"/><path d="M67.03,21.15C67.03,21.15,67.03,21.26,67.03,21.45C67.03,21.64,67,21.95,66.94,22.27C66.89,22.63,66.81,23.05,66.7,23.54C66.56,24.01,66.42,24.56,66.17,25.11C65.95,25.68,65.68,26.26,65.35,26.87C65.02,27.47,64.61,28.08,64.14,28.66C63.67,29.23,63.12,29.81,62.55,30.3C61.94,30.8,61.31,31.27,60.62,31.63C59.93,32.01,59.24,32.31,58.5,32.53C57.79,32.75,57.07,32.89,56.38,32.95C55.7,33,55.04,33,54.41,32.95C54.1,32.95,53.8,32.89,53.5,32.84C53.22,32.78,52.92,32.75,52.67,32.67C51.63,32.4,50.8,32.06,50.25,31.79C49.7,31.52,49.4,31.32,49.4,31.32C49.07,31.13,48.93,30.66,49.1,30.28C49.21,30,49.43,29.86,49.67,29.86L49.73,29.86C49.73,29.86,50.06,29.86,50.61,29.86C50.88,29.86,51.24,29.86,51.6,29.86C51.98,29.86,52.4,29.84,52.87,29.81C53.11,29.81,53.33,29.75,53.58,29.73C53.83,29.73,54.08,29.67,54.32,29.62C54.82,29.54,55.34,29.43,55.86,29.29C56.38,29.15,56.91,28.96,57.43,28.74C57.68,28.63,57.95,28.52,58.2,28.38C58.45,28.27,58.7,28.11,58.94,27.97C60.9,26.76,62.52,24.91,63.76,23.4C64.06,23.02,64.33,22.66,64.58,22.33C64.83,22,65.05,21.7,65.21,21.45C65.41,21.2,65.54,21.01,65.63,20.87C65.71,20.73,65.76,20.68,65.76,20.68C65.87,20.27,66.26,20.05,66.61,20.18C66.97,20.32,67.17,20.73,67.06,21.15" fill="none" stroke="currentColor" stroke-width="2" stroke-linecap="round" stroke-linejoin="round"/><path d="M22.97,21.15C22.97,21.15,22.97,21.26,22.97,21.45C22.97,21.64,23,21.95,23.05,22.27C23.11,22.63,23.19,23.05,23.3,23.54C23.41,24.01,23.58,24.56,23.8,25.11C24.02,25.68,24.29,26.26,24.62,26.87C24.95,27.47,25.36,28.08,25.83,28.66C26.3,29.23,26.85,29.81,27.43,30.3C28.03,30.8,28.66,31.27,29.35,31.63C30.04,32.01,30.75,32.31,31.47,32.53C32.19,32.75,32.9,32.89,33.59,32.95C34.27,33,34.94,33,35.57,32.95C35.87,32.95,36.17,32.89,36.48,32.84C36.75,32.78,37.05,32.75,37.3,32.67C38.34,32.4,39.17,32.06,39.72,31.79C40.27,31.52,40.57,31.32,40.57,31.32C40.9,31.13,41.04,30.66,40.88,30.28C40.77,30,40.55,29.86,40.3,29.86L40.24,29.86C40.24,29.86,39.91,29.86,39.34,29.86C39.06,29.86,38.73,29.86,38.34,29.86C37.96,29.86,37.55,29.84,37.08,29.81C36.86,29.81,36.61,29.75,36.37,29.73C36.12,29.73,35.87,29.67,35.62,29.62C35.13,29.54,34.6,29.43,34.08,29.29C33.56,29.15,33.04,28.96,32.52,28.74C32.27,28.63,31.99,28.52,31.75,28.38C31.5,28.27,31.25,28.11,31,27.97C29.05,26.76,27.43,24.91,26.19,23.4C25.89,23.02,25.61,22.66,25.36,22.33C25.12,22,24.9,21.7,24.73,21.45C24.57,21.2,24.43,21.01,24.32,20.87C24.24,20.73,24.18,20.68,24.18,20.68C24.07,20.27,23.69,20.05,23.33,20.18C22.97,20.32,22.78,20.73,22.89,21.15" fill="none" stroke="currentColor" stroke-width="2" stroke-linecap="round" stroke-linejoin="round"/></svg>