<svg xmlns="http://www.w3.org/2000/svg" viewBox="0 0 90 90"><path d="M88,45C88,21.25,68.75,2,45,2C21.25,2,2,21.25,2,45C2,68.75,21.25,88,45,88C68.75,88,88,68.75,88,45Z" fill="currentColor"/><path d="M88,45C88,68.75,68.75,88,45,88C35.3,88,26.35,84.79,19.16,79.37C23.78,81.07,28.78,82,34,82C57.75,82,77,62.75,77,39C77,24.95,70.26,12.48,59.84,4.63C76.28,10.68,88,26.47,88,45Z" fill="currentColor" opacity="0.5"/><path d="M88,45C88,68.75,68.75,88,45,88C44.5,88,44,87.99,43.5,87.97C66.55,87.18,85,68.25,85,45C85,21.75,66.55,2.82,43.5,2.03C44,2.01,44.5,2,45,2C68.75,2,88,21.25,88,45Z" fill="currentColor"/><path d="M2.31,39.84C4.77,19.31,21.69,3.22,42.59,2.07C23.37,6.97,8.3,21.38,2.31,39.84Z" fill="currentColor"/><path d="M35.81,45.6L30.01,39.77L24.18,45.58C23.69,46.07,23.03,46.35,22.34,46.35C21.65,46.35,20.96,46.07,20.47,45.58C19.98,45.08,19.7,44.42,19.7,43.73C19.7,43.05,19.98,42.39,20.47,41.89L26.3,36.09L20.5,30.26C19.48,29.24,19.48,27.57,20.5,26.55C20.99,26.05,21.65,25.78,22.34,25.78C23.03,25.78,23.69,26.05,24.18,26.55L29.98,32.38L35.81,26.57C36.31,26.08,36.97,25.8,37.66,25.8C38.34,25.8,39.03,26.08,39.53,26.57C40.02,27.07,40.3,27.73,40.3,28.42C40.3,29.11,40.02,29.77,39.53,30.26L33.7,36.06L39.5,41.89C40.52,42.91,40.52,44.59,39.5,45.6C39.01,46.1,38.34,46.38,37.66,46.38C36.97,46.38,36.31,46.1,35.81,45.6Z" fill="currentColor"/><path d="M65.82,45.6L60.02,39.77L54.19,45.58C53.69,46.07,53.03,46.35,52.34,46.35C51.66,46.35,50.99,46.07,50.47,45.58C49.98,45.08,49.7,44.42,49.7,43.73C49.7,43.05,49.98,42.39,50.47,41.89L56.3,36.09L50.5,30.26C49.48,29.24,49.48,27.57,50.5,26.55C50.99,26.05,51.66,25.78,52.34,25.78C53.03,25.78,53.69,26.05,54.19,26.55L59.99,32.38L65.82,26.57C66.31,26.08,66.97,25.8,67.66,25.8C68.35,25.8,69.01,26.08,69.53,26.57C70.03,27.07,70.3,27.73,70.3,28.42C70.3,29.11,70.03,29.77,69.53,30.26L63.7,36.06L69.5,41.89C70.52,42.91,70.52,44.59,69.5,45.6C69.01,46.1,68.35,46.38,67.66,46.38C66.97,46.38,66.31,46.1,65.82,45.6Z" fill="currentColor"/><path d="M25.85,64.26C26.23,65.32,27.32,65.94,28.42,65.77C38.12,64.26,51.88,64.26,61.58,65.77C62.69,65.94,63.77,65.32,64.15,64.27C64.54,63.18,64.06,61.96,62.97,61.55C53.85,58.18,36.14,58.16,27.02,61.55C25.94,61.95,25.45,63.17,25.85,64.26Z" fill="currentColor"/></svg>