<svg xmlns="http://www.w3.org/2000/svg" viewBox="0 0 90 90"><path d="M30.02,39.21C35.25,39.21,40.14,33.96,43.3,30.55C50.06,23.79,52.31,20.12,54.21,10.61C54.58,8.89,55.76,7.56,57.65,7.56C64.03,7.56,68.38,13.46,68.38,19.47C68.38,25.13,64.45,29.23,63.29,34.48C67.56,35.34,72.09,34.48,76.41,34.48C81.43,34.48,87.71,35.92,87.71,42.02C87.71,44.16,87.01,46.08,86.03,47.96C88.47,51.44,87.85,55.96,85.04,59.09C86.39,62.74,85.15,67.49,82.04,69.9C82.04,77.28,75.88,81.34,69.2,82.11C56.83,83.52,43.13,77.08,30.02,77.08Z" fill="#F7C631"/><path d="M55.57,9.71L53.24,20.55C52.9,22.12,52.19,23.58,51.17,24.82L44.55,32.82C44.01,33.47,43.6,34.21,43.33,35C41.82,39.5,37.43,42.38,32.7,41.98L30.02,41.76L30.02,39.21C35.25,39.21,40.14,33.96,43.29,30.55C50.06,23.79,52.31,20.12,54.21,10.61C54.51,9.2,55.36,8.05,56.7,7.68C56.14,8.22,55.74,8.92,55.57,9.71Z" fill="#FFF599"/><path d="M63.53,33.54L63.11,33.53L63.95,32.25C63.8,32.67,63.65,33.1,63.53,33.54Z" fill="#FFF599"/><path d="M87.71,42.02C87.71,44.16,87.01,46.08,86.03,47.96C88.47,51.44,87.85,55.96,85.04,59.09C86.39,62.74,85.15,67.49,82.04,69.9C82.04,77.28,75.88,81.34,69.2,82.11C56.83,83.53,43.13,77.08,30.02,77.08L30.02,71.17L41.89,71.17L43.69,72.64C47.97,76.15,52.94,78.7,58.29,80.13L59.35,80.42C62.57,81.28,65.92,81.51,69.22,81.08L72.44,80.67C77.26,80.05,80.09,74.93,78.06,70.52C82.31,68.29,83.35,62.68,80.18,59.07L79.9,58.76L80.34,58.58C85.42,56.51,85.78,49.45,80.93,46.88C85.39,44.42,85.55,38.06,81.21,35.38L80.25,34.79C84.15,35.48,87.71,37.43,87.71,42.02Z" fill="#CF8D1B"/><path d="M78.62,34.58L73.5,34.58C74.47,34.52,75.44,34.48,76.4,34.48C77.12,34.48,77.87,34.51,78.62,34.58Z" fill="#CF8D1B"/><path d="M68.38,19.47C68.38,25.13,64.45,29.23,63.29,34.48C63.47,34.52,63.66,34.55,63.84,34.58L60.69,34.58L61.21,33.43C62.4,30.82,63.02,27.99,63.02,25.13L63.02,24.37L64.31,22.56C66.86,19.01,66.81,14.22,64.19,10.73L63,9.14C66.34,11.29,68.38,15.36,68.38,19.47Z" fill="#CF8D1B"/><path d="M76.32,44.39C74.93,44.17,73.63,45.13,73.43,46.52C73.16,48.37,74.93,49.85,76.7,49.27L86.68,46.02Z" fill="#CF8D1B"/><path d="M74.72,57.35C73.33,57.13,72.04,58.09,71.84,59.48C71.57,61.33,73.33,62.81,75.11,62.24L85.09,58.99Z" fill="#CF8D1B"/><path d="M72.71,69.43C71.33,69.19,70.04,70.15,69.85,71.53C69.61,73.36,71.39,74.79,73.12,74.17L81.93,71.02Z" fill="#CF8D1B"/><path d="M13,35C8.58,35,5,38.58,5,43L5,72.87C5,77.29,8.58,80.87,13,80.87L25.27,80.87C29.69,80.87,33.27,77.29,33.27,72.87L33.27,43C33.27,38.58,29.69,35,25.27,35Z" fill="#009FD9"/><path d="M13,35L25.27,35C29.69,35,33.27,38.58,33.27,43L33.27,62.09L31.28,46.99C30.63,42.01,26.38,38.3,21.37,38.3L16.86,38.3C11.83,38.3,7.59,42.03,6.94,47.02L5,62.09L5,43C5,38.58,8.58,35,13,35Z" fill="#4DC3EA"/><path d="M22.81,77.57C21.6,77.57,20.61,77.19,19.84,76.42C19.07,75.67,18.71,74.68,18.71,73.47C18.71,72.35,19.09,71.36,19.84,70.53C20.61,69.73,21.6,69.32,22.81,69.32C23.93,69.32,24.93,69.73,25.72,70.53C26.55,71.36,26.93,72.32,26.93,73.47C26.93,74.63,26.52,75.62,25.72,76.39C24.93,77.16,23.93,77.57,22.81,77.57Z" fill="#0B548C"/><path d="M22.81,73.57C21.6,73.57,20.61,73.19,19.84,72.42C19.07,71.67,18.71,70.68,18.71,69.47C18.71,68.35,19.09,67.36,19.84,66.53C20.61,65.73,21.6,65.32,22.81,65.32C23.93,65.32,24.93,65.73,25.72,66.53C26.55,67.36,26.93,68.32,26.93,69.47C26.93,70.63,26.52,71.62,25.72,72.39C24.93,73.16,23.93,73.57,22.81,73.57Z" fill="white"/></svg>