<svg xmlns="http://www.w3.org/2000/svg" viewBox="0 0 90 90"><path d="M89,46C89,69.75,69.75,89,46,89C22.25,89,3,69.75,3,46C3,22.25,22.25,3,46,3C69.75,3,89,22.25,89,46Z" fill="currentColor"/><path d="M89,46C89,22.25,69.75,3,46,3C36.3,3,27.35,6.21,20.16,11.63C24.78,9.93,29.78,9,35,9C58.75,9,78,28.25,78,52C78,66.05,71.26,78.52,60.84,86.37C77.28,80.33,89,64.53,89,46Z" fill="currentColor" opacity="0.5"/><path d="M89,46C89,22.25,69.75,3,46,3C45.5,3,45,3.01,44.5,3.03C67.55,3.82,86,22.75,86,46C86,69.25,67.55,88.18,44.5,88.97C45,88.99,45.5,89,46,89C69.75,89,89,69.75,89,46Z" fill="currentColor"/><path d="M3.31,51.16C5.77,71.69,22.69,87.78,43.59,88.93C24.37,84.03,9.3,69.62,3.31,51.16Z" fill="currentColor"/><path d="M29.93,40C26.13,40,23,42.44,23,45.88C23,50.37,26.1,54.01,29.93,54.01C33.76,54.01,36.82,50.37,36.82,45.88C36.82,42.44,33.73,40,29.93,40Z" fill="currentColor"/><path d="M61.11,40C57.31,40,54.18,42.44,54.18,45.88C54.18,50.37,57.28,54.01,61.11,54.01C64.94,54.01,68,50.37,68,45.88C68,42.44,64.9,40,61.11,40Z" fill="currentColor"/><path d="M29.93,41.72C26.72,41.72,24.08,45.36,24.08,48.79C24.08,52.22,26.69,55,29.93,55C33.16,55,35.75,52.22,35.75,48.79C35.75,45.36,33.13,41.72,29.93,41.72Z" fill="currentColor"/><path d="M61.27,41.72C58.06,41.72,55.45,45.36,55.45,48.79C55.45,52.22,58.06,55,61.27,55C64.47,55,67.09,52.22,67.09,48.79C67.09,45.36,64.47,41.72,61.27,41.72Z" fill="currentColor"/><path d="M85.66,59.37L85.66,38.97C84.92,49.42,76.27,57.54,65.8,57.63L57.04,57.7L57.04,59.37Z" fill="currentColor"/><path d="M6.04,59.37L6.04,38.97C6.78,49.42,15.43,57.54,25.91,57.63L34.66,57.7L34.66,59.37Z" fill="currentColor"/><path d="M70.52,28.46C78.33,28.46,85.08,33.01,88.54,39.68C88.1,36.7,87.35,33.81,86.33,31.06C82.58,26.42,76.9,23.46,70.52,23.46C59.52,23.46,50.6,32.27,50.06,43.31L41.97,43.31C41.43,32.27,32.51,23.46,21.51,23.46C15.1,23.46,9.39,26.45,5.64,31.13C4.63,33.88,3.89,36.77,3.46,39.75C6.9,33.04,13.67,28.46,21.51,28.46C32.89,28.46,42,38.11,42,49.92L42,51.1L50.03,51.1L50.03,49.92C50.03,38.11,59.14,28.46,70.52,28.46Z" fill="currentColor"/><path d="M70.01,35.84C70.17,35.83,70.34,35.82,70.5,35.82C76.85,35.82,82,41.07,82,48.65L82,59.39L79.94,59.39L79.94,48.73C79.94,42.54,75.72,37.34,70.01,35.84Z" fill="currentColor" opacity="0.5"/><path d="M21.99,35.84C21.83,35.83,21.66,35.82,21.5,35.82C15.15,35.82,10,41.07,10,48.65L10,59.39L12.06,59.39L12.06,48.73C12.06,42.54,16.28,37.34,21.99,35.84Z" fill="currentColor" opacity="0.5"/><path d="M3.16,61.25C3.16,63.95,5.35,66.14,8.05,66.14L33.72,66.14L10.4,65.23C7.46,65.12,5.03,62.94,4.59,60.03L3.16,50.45Z" fill="currentColor"/><path d="M88.87,61.25C88.87,63.95,86.68,66.14,83.98,66.14L58.31,66.14L81.63,65.23C84.56,65.12,87,62.94,87.44,60.03L88.87,50.45Z" fill="currentColor"/><path d="M41.96,60.59L41.96,60.28L49.99,60.28L49.99,60.59C49.99,64.32,52.88,67.43,56.55,67.43L85.1,67.43C88.4,67.43,91.01,64.64,91.01,61.27L91.01,48.92C91.01,37.11,81.9,27.46,70.52,27.46C59.14,27.46,50.03,37.11,50.03,48.92L50.03,50.1L42,50.1L42,48.92C42,37.11,32.89,27.46,21.5,27.46C10.12,27.46,1.01,37.11,1.01,48.92L1.01,61.27C1.01,64.64,3.63,67.43,6.93,67.43L35.39,67.43C39.06,67.43,41.96,64.32,41.96,60.59Z" fill="currentColor"/><path d="M10,48.65C10,41.07,15.15,35.82,21.5,35.82C27.85,35.82,33,41.07,33,48.65L33,59.39L10,59.39Z" fill="currentColor"/><path d="M59,48.65C59,41.07,64.15,35.82,70.5,35.82C76.85,35.82,82,41.07,82,48.65L82,59.39L59,59.39Z" fill="currentColor"/><path d="M1.01,61.93C1.01,64.97,3.48,67.43,6.52,67.43L35.4,67.43L9.16,66.42C5.86,66.29,3.12,63.83,2.63,60.56L1.01,49.78Z" fill="currentColor"/><path d="M91.01,61.93C91.01,64.97,88.55,67.43,85.51,67.43L56.63,67.43L82.87,66.42C86.17,66.29,88.91,63.83,89.4,60.56L91.01,49.78Z" fill="currentColor"/><path d="M57.4,24.31C57.4,29.62,52.33,24.31,46.09,24.31C39.84,24.31,34.77,29.62,34.77,24.31C34.77,19,39.84,14.48,46.09,14.48C52.33,14.48,57.4,19,57.4,24.31Z" fill="currentColor"/><path d="M57.4,24.7C57.4,29.14,52.33,24.7,46.09,24.7C39.84,24.7,34.77,29.14,34.77,24.7C34.77,20.26,39.84,16.48,46.09,16.48C52.33,16.48,57.4,20.26,57.4,24.7Z" fill="currentColor"/><path d="M45.88,21.12C42.04,21.16,40.53,22.67,40.53,25.62L40.53,25.64C42.17,25.16,44.07,24.7,46.09,24.7C48.1,24.7,50,25.16,51.64,25.64L51.64,25.62C51.64,22.57,49.73,21.08,45.88,21.12Z" fill="currentColor"/></svg>