<svg xmlns="http://www.w3.org/2000/svg" viewBox="0 0 90 90"><path d="M88,45C88,21.25,68.75,2,45,2C21.25,2,2,21.25,2,45C2,68.75,21.25,88,45,88C68.75,88,88,68.75,88,45Z" fill="currentColor"/><path d="M88,45C88,68.75,68.75,88,45,88C35.3,88,26.35,84.79,19.16,79.37C23.78,81.07,28.78,82,34,82C57.75,82,77,62.75,77,39C77,24.95,70.26,12.48,59.84,4.63C76.28,10.68,88,26.47,88,45Z" fill="currentColor" opacity="0.5"/><path d="M88,45C88,68.75,68.75,88,45,88C44.5,88,44,87.99,43.5,87.97C66.55,87.18,85,68.25,85,45C85,21.75,66.55,2.82,43.5,2.03C44,2.01,44.5,2,45,2C68.75,2,88,21.25,88,45Z" fill="currentColor"/><path d="M2.31,39.84C4.77,19.31,21.69,3.22,42.59,2.07C23.37,6.97,8.3,21.38,2.31,39.84Z" fill="currentColor"/><path d="M44.99,73C38.77,73,32.16,68.8,29.3,63.01C29.1,62.61,29.13,62.14,29.35,61.75C29.83,60.9,31.02,60.78,31.74,61.44C35.76,65.08,41.37,66.83,45,66.83C48.63,66.83,54.24,65.08,58.26,61.44C58.98,60.78,60.17,60.9,60.65,61.75C60.87,62.14,60.9,62.61,60.7,63.01C57.83,68.8,51.23,73,45.01,73" fill="none" stroke="currentColor" stroke-width="2" stroke-linecap="round" stroke-linejoin="round"/><path d="M44.98,70C38.11,70,31.7,67.15,27.63,62.03C27.24,61.53,27.24,60.84,27.6,60.32C28.09,59.6,29.08,59.45,29.8,59.94C34.99,63.42,40.77,64.31,45,64.31C49.23,64.31,55.01,63.42,60.2,59.93C60.92,59.45,61.91,59.6,62.4,60.32C62.76,60.84,62.76,61.53,62.36,62.03C58.29,67.15,51.89,70,45.02,70" fill="none" stroke="currentColor" stroke-width="2" stroke-linecap="round" stroke-linejoin="round"/><path d="M30.44,46.08C26.91,46.08,24,43.24,24,39.23C24,34.02,26.88,29.77,30.44,29.77C34.01,29.77,36.85,34.02,36.85,39.23C36.85,43.24,33.97,46.08,30.44,46.08Z" fill="currentColor"/><path d="M59.44,46.08C55.91,46.08,53,43.24,53,39.23C53,34.02,55.88,29.77,59.44,29.77C63.01,29.77,65.85,34.02,65.85,39.23C65.85,43.24,62.97,46.08,59.44,46.08Z" fill="currentColor"/><path d="M30.44,44.08C27.46,44.08,25,39.84,25,35.85C25,31.86,27.43,28.62,30.44,28.62C33.45,28.62,35.85,31.86,35.85,35.85C35.85,39.84,33.42,44.08,30.44,44.08Z" fill="currentColor"/><path d="M59.59,44.08C56.61,44.08,54.18,39.84,54.18,35.85C54.18,31.86,56.61,28.62,59.59,28.62C62.57,28.62,65,31.86,65,35.85C65,39.84,62.57,44.08,59.59,44.08Z" fill="currentColor"/></svg>