<svg xmlns="http://www.w3.org/2000/svg" viewBox="0 0 90 90"><path d="M89,46C89,69.75,69.75,89,46,89C22.25,89,3,69.75,3,46C3,22.25,22.25,3,46,3C69.75,3,89,22.25,89,46Z" fill="currentColor"/><path d="M89,46C89,22.25,69.75,3,46,3C36.3,3,27.35,6.21,20.16,11.63C24.78,9.93,29.78,9,35,9C58.75,9,78,28.25,78,52C78,66.05,71.26,78.52,60.84,86.37C77.28,80.33,89,64.53,89,46Z" fill="currentColor" opacity="0.5"/><path d="M89,46C89,22.25,69.75,3,46,3C45.5,3,45,3.01,44.5,3.03C67.55,3.82,86,22.75,86,46C86,69.25,67.55,88.18,44.5,88.97C45,88.99,45.5,89,46,89C69.75,89,89,69.75,89,46Z" fill="currentColor"/><path d="M3.31,51.16C5.77,71.69,22.69,87.78,43.59,88.93C24.37,84.03,9.3,69.62,3.31,51.16Z" fill="currentColor"/><path d="M28.75,42.92C24.54,42.92,21.07,45.76,21.07,49.77C21.07,54.98,24.5,59.23,28.75,59.23C33,59.23,36.38,54.98,36.38,49.77C36.38,45.76,32.96,42.92,28.75,42.92Z" fill="currentColor"/><path d="M63.29,42.92C59.09,42.92,55.62,45.76,55.62,49.77C55.62,54.98,59.05,59.23,63.29,59.23C67.54,59.23,70.93,54.98,70.93,49.77C70.93,45.76,67.5,42.92,63.29,42.92Z" fill="currentColor"/><path d="M28.75,44.92C25.19,44.92,22.26,49.16,22.26,53.15C22.26,57.14,25.16,60.38,28.75,60.38C32.33,60.38,35.19,57.14,35.19,53.15C35.19,49.16,32.3,44.92,28.75,44.92Z" fill="currentColor"/><path d="M63.47,44.92C59.92,44.92,57.02,49.16,57.02,53.15C57.02,57.14,59.92,60.38,63.47,60.38C67.02,60.38,69.92,57.14,69.92,53.15C69.92,49.16,67.02,44.92,63.47,44.92Z" fill="currentColor"/><path d="M67.58,30.55C66.39,33.43,64.74,36.07,62.71,38.27C61.1,40.03,59.26,41.52,57.26,42.73C53.92,44.71,50.08,45.84,46,45.84C41.92,45.84,38.08,44.71,34.74,42.73C30.16,40.01,26.5,35.72,24.37,30.52C22.37,25.6,25.71,20.07,30.63,20.07L61.31,20.07L61.34,20.04C66.29,20.04,69.6,25.62,67.58,30.55Z" fill="currentColor"/><path d="M68.55,27.55C67.31,30.43,65.58,33.07,63.46,35.27C61.78,37.03,59.86,38.52,57.77,39.73C54.28,41.71,50.26,42.84,46,42.84C41.74,42.84,37.72,41.71,34.23,39.73C29.45,37.01,25.62,32.72,23.39,27.52C21.3,22.6,24.8,17.07,29.94,17.07L62.01,17.07L62.03,17.04C67.2,17.04,70.67,22.62,68.55,27.55Z" fill="currentColor"/><path d="M16.19,59.64C16.19,59.64,16.16,59.72,16.13,59.89C16.11,60.05,16.05,60.27,16.02,60.55C16,60.82,15.97,61.18,16,61.59C16,61.98,16.05,62.44,16.13,62.91C16.22,63.41,16.36,63.93,16.55,64.48C16.74,65.03,17.02,65.58,17.32,66.16C17.65,66.71,18.03,67.28,18.5,67.81C18.97,68.33,19.49,68.82,20.07,69.29C20.64,69.73,21.25,70.14,21.91,70.47C22.54,70.8,23.2,71.08,23.86,71.3C24.52,71.52,25.16,71.66,25.76,71.77C26.06,71.82,26.36,71.85,26.64,71.88C26.91,71.9,27.19,71.93,27.46,71.93C28.54,71.96,29.39,71.9,30,71.79C30.6,71.71,30.93,71.63,30.93,71.63C31.29,71.55,31.54,71.22,31.45,70.89C31.4,70.67,31.2,70.5,30.98,70.42L30.93,70.42C30.93,70.42,30.63,70.31,30.08,70.2C29.8,70.14,29.47,70.06,29.11,69.95C28.76,69.87,28.34,69.73,27.91,69.62C27.68,69.57,27.46,69.48,27.25,69.4C27.02,69.32,26.78,69.26,26.56,69.15C26.09,68.99,25.62,68.77,25.16,68.55C24.69,68.3,24.22,68.05,23.78,67.75C23.56,67.61,23.34,67.45,23.12,67.28C22.9,67.15,22.71,66.95,22.49,66.79C20.86,65.41,19.71,63.63,18.89,62.14C18.66,61.78,18.5,61.43,18.34,61.12C18.17,60.82,18.03,60.55,17.92,60.3C17.81,60.08,17.73,59.89,17.65,59.78C17.59,59.64,17.54,59.61,17.57,59.58C17.57,59.25,17.23,58.98,16.85,59.01C16.49,59.01,16.19,59.31,16.22,59.67" fill="currentColor"/><path d="M75.81,59.64C75.81,59.64,75.84,59.72,75.86,59.89C75.89,60.05,75.95,60.27,75.97,60.55C76,60.85,76.03,61.18,76,61.59C76,61.98,75.95,62.45,75.86,62.91C75.78,63.41,75.64,63.93,75.45,64.45C75.26,65,74.98,65.55,74.68,66.13C74.35,66.68,73.97,67.26,73.5,67.78C73.03,68.3,72.51,68.8,71.93,69.27C71.36,69.7,70.75,70.12,70.09,70.45C69.46,70.78,68.8,71.05,68.14,71.27C67.48,71.47,66.84,71.63,66.24,71.74C65.94,71.8,65.64,71.82,65.36,71.85C65.08,71.88,64.81,71.91,64.53,71.91C63.46,71.93,62.61,71.88,62.01,71.8C61.4,71.71,61.07,71.63,61.07,71.63C60.71,71.55,60.47,71.22,60.55,70.89C60.6,70.67,60.8,70.5,61.02,70.42L61.07,70.42C61.07,70.42,61.37,70.31,61.92,70.2C62.2,70.14,62.53,70.06,62.88,69.95C63.24,69.87,63.66,69.73,64.09,69.62C64.31,69.57,64.53,69.48,64.75,69.4C64.97,69.32,65.22,69.27,65.44,69.16C65.91,68.99,66.38,68.77,66.87,68.55C67.34,68.3,67.81,68.06,68.25,67.75C68.47,67.61,68.69,67.45,68.91,67.28C69.13,67.15,69.32,66.95,69.54,66.79C71.14,65.41,72.32,63.63,73.14,62.14C73.36,61.78,73.53,61.43,73.69,61.13C73.86,60.82,74,60.55,74.11,60.3C74.22,60.08,74.3,59.89,74.38,59.78C74.44,59.64,74.49,59.61,74.46,59.59C74.46,59.25,74.79,58.98,75.18,59.01C75.53,59.01,75.84,59.31,75.81,59.67" fill="currentColor"/></svg>