<svg xmlns="http://www.w3.org/2000/svg" viewBox="0 0 90 90"><path d="M70.55,14.28C63.4,8.32,54.32,5.02,45.05,5.02C42.74,5.02,40.41,5.21,38.1,5.62C16.4,9.44,1.82,30.21,5.62,51.9C6.42,56.47,7.99,60.81,10.27,64.83C10.27,65.08,10.27,65.3,10.27,65.52C10.27,72.03,15.49,77.42,21.98,77.67C28.77,82.46,36.7,84.99,44.97,84.99C47.28,84.99,49.62,84.79,51.9,84.38C62.41,82.54,71.59,76.71,77.72,67.96C83.86,59.22,86.22,48.63,84.38,38.1L84.35,38.1C82.73,28.78,77.81,20.33,70.55,14.28Z" fill="currentColor"/><path d="M71.37,13.29C63.98,7.13,54.6,3.75,45.03,3.75C42.63,3.75,40.22,3.97,37.85,4.38C15.46,8.31,0.45,29.71,4.38,52.12C5.21,56.85,6.83,61.34,9.17,65.46C9.17,65.71,9.17,65.95,9.17,66.17C9.17,72.91,14.56,78.47,21.27,78.72C28.28,83.67,36.45,86.25,44.97,86.25C47.37,86.25,49.76,86.03,52.15,85.62C63.01,83.72,72.47,77.7,78.8,68.68C85.12,59.66,87.57,48.71,85.67,37.88L85.62,37.88C83.94,28.25,78.88,19.54,71.37,13.29Z" fill="currentColor"/><path d="M22.09,76.95L21.84,76.79L21.54,76.79C15.74,76.71,11.04,71.95,11.04,66.15C11.04,65.87,11.04,65.6,11.06,65.3L11.06,64.99L10.93,64.75C8.62,60.76,7.02,56.38,6.22,51.79C2.51,30.43,16.84,9.99,38.21,6.25C40.46,5.87,42.77,5.65,45.05,5.65C64.17,5.65,80.45,19.34,83.75,38.21C85.56,48.55,83.22,59,77.2,67.58C71.18,76.19,62.13,81.91,51.79,83.72C49.54,84.11,47.23,84.33,44.95,84.33C36.72,84.33,28.83,81.77,22.09,76.95Z" fill="currentColor"/><path d="M22.53,34.3C22.7,34.3,22.86,34.3,23.03,34.3C24.27,34.17,25.36,33.56,26.16,32.6C27.23,31.25,28.86,30.48,30.59,30.48C31.88,30.48,33.12,30.92,34.14,31.72C34.96,32.38,36.01,32.74,37.05,32.74C38.48,32.74,39.8,32.1,40.68,31C41.45,30.04,41.81,28.83,41.67,27.59C41.53,26.36,40.93,25.26,39.97,24.46C39.8,24.32,39.64,24.21,39.47,24.07C37.02,22.26,34.11,21.27,31.06,21.16C30.89,21.16,30.75,21.16,30.59,21.16C26.02,21.16,21.76,23.19,18.9,26.74C17.28,28.75,17.61,31.69,19.62,33.29C20.44,33.95,21.49,34.3,22.53,34.3Z" fill="currentColor"/><path d="M30.59,23.06C30.64,23.06,30.73,23.06,30.78,23.06C30.73,23.39,30.73,23.72,30.78,24.05C31.03,26.33,33.09,27.98,35.38,27.73C36.72,27.59,37.85,26.8,38.51,25.7C38.59,25.75,38.7,25.83,38.78,25.89C39.36,26.36,39.72,27.02,39.8,27.73C39.88,28.47,39.66,29.19,39.23,29.74C38.7,30.4,37.93,30.76,37.08,30.76C36.45,30.76,35.84,30.54,35.35,30.15C34,29.08,32.32,28.47,30.62,28.47C28.31,28.47,26.16,29.49,24.7,31.31C24.24,31.88,23.58,32.24,22.86,32.32C22.15,32.41,21.41,32.19,20.86,31.75C19.67,30.78,19.48,29.05,20.44,27.87L20.39,27.92C22.89,24.82,26.6,23.06,30.59,23.06Z" fill="currentColor"/><path d="M57.18,30.86C58.23,29.96,59.55,29.43,60.92,29.43C62.55,29.43,64.08,30.12,65.16,31.33C65.98,32.27,67.11,32.82,68.38,32.9C68.46,32.9,68.57,32.9,68.65,32.9C69.78,32.9,70.88,32.49,71.73,31.72C72.67,30.89,73.22,29.77,73.3,28.5C73.38,27.26,72.97,26.05,72.14,25.12C71.54,24.46,70.88,23.82,70.16,23.25C67.83,21.41,65.02,20.33,62.02,20.11C61.66,20.11,61.28,20.09,60.92,20.09C57.27,20.09,53.74,21.41,50.99,23.82C50.06,24.65,49.51,25.78,49.43,27.04C49.34,28.28,49.76,29.49,50.58,30.43C51.46,31.41,52.73,31.99,54.08,31.99L54.1,32.05C55.23,32.05,56.33,31.64,57.18,30.86Z" fill="currentColor"/><path d="M60.95,22.07C61.14,22.07,61.34,22.07,61.53,22.07C61.42,22.39,61.34,22.75,61.31,23.14C61.17,25.45,62.9,27.4,65.21,27.54C67,27.65,68.59,26.6,69.28,25.04C69.81,25.48,70.3,25.94,70.71,26.41C71.21,26.96,71.45,27.68,71.4,28.39C71.34,29.13,71.02,29.79,70.47,30.29C69.97,30.73,69.31,30.98,68.65,30.98C68.59,30.98,68.54,30.98,68.48,30.98C67.74,30.92,67.08,30.59,66.59,30.04C65.16,28.42,63.09,27.48,60.92,27.48C59.08,27.48,57.29,28.17,55.92,29.38C55.42,29.82,54.76,30.07,54.1,30.07C53.3,30.07,52.56,29.74,52.04,29.13C51.55,28.58,51.3,27.87,51.35,27.15C51.41,26.41,51.74,25.75,52.29,25.25L52.29,25.34C54.68,23.22,57.73,22.07,60.95,22.07Z" fill="currentColor"/><path d="M68.9,40.74L68.95,40.74C69.47,40.71,69.89,40.24,69.83,39.72C69.78,38.81,70.05,37.93,70.66,37.24C71.26,36.56,72.09,36.15,73,36.09C74.86,35.95,76.52,37.38,76.65,39.25C76.68,39.77,77.15,40.16,77.67,40.13C78.19,40.1,78.61,39.64,78.55,39.12C78.36,36.17,75.8,33.97,72.86,34.16C69.92,34.36,67.72,36.91,67.91,39.86L67.94,39.86C67.96,40.35,68.4,40.74,68.9,40.74Z" fill="currentColor"/><path d="M19.48,42.11C19.51,42.63,19.98,43.02,20.5,42.99C21.02,42.96,21.43,42.5,21.38,41.97C21.18,39.03,18.63,36.83,15.69,37.02C14.26,37.13,12.96,37.77,12.03,38.84C11.09,39.91,10.63,41.29,10.73,42.72C10.76,43.21,11.2,43.6,11.7,43.6L11.75,43.6C12.28,43.57,12.69,43.1,12.63,42.58C12.49,40.71,13.93,39.06,15.79,38.92L15.82,38.95C17.69,38.81,19.34,40.24,19.48,42.11Z" fill="currentColor"/><path d="M39.01,44.15C38.02,44.64,37.3,45.52,36.97,46.57C36.64,47.61,36.72,48.74,37.24,49.73C37.96,51.1,39.36,51.96,40.93,51.96C41.59,51.96,42.25,51.79,42.8,51.49C43.16,51.35,44.64,51.49,45.36,51.55C45.91,51.6,46.38,51.63,46.73,51.63C48.91,51.63,50.66,49.87,50.66,47.7C50.66,47.26,50.55,46.35,50.36,44.95C50.28,44.42,49.81,44.06,49.29,44.12C49.21,44.12,49.13,44.15,49.07,44.17C48.69,44.34,48.41,44.75,48.47,45.19C48.71,47.01,48.74,47.56,48.74,47.67C48.74,48.77,47.83,49.67,46.73,49.67C46.46,49.67,46.02,49.65,45.52,49.59C43.82,49.45,42.63,49.37,41.95,49.73C41.62,49.9,41.29,49.98,40.93,49.98C40.1,49.98,39.34,49.51,38.95,48.77C38.67,48.24,38.62,47.64,38.81,47.06C39.01,46.48,39.39,46.05,39.91,45.77C44.2,43.54,42.77,38.07,42.58,37.47C42.22,36.28,42.88,35.05,44.06,34.69C44.31,34.6,44.56,34.58,44.84,34.6C44.97,34.6,45.11,34.6,45.25,34.55C45.58,34.41,45.83,34.08,45.85,33.7C45.85,33.17,45.47,32.73,44.95,32.71C44.48,32.71,43.98,32.73,43.52,32.87C41.34,33.53,40.1,35.84,40.77,38.02L40.71,38.07C40.85,38.54,41.95,42.63,39.01,44.15Z" fill="currentColor"/><path d="M74.78,39.56C74.7,39.45,74.62,39.36,74.53,39.28C74.2,39.06,73.82,38.95,73.41,38.95C72.72,38.95,72.11,39.28,71.76,39.86C71.07,40.88,70.33,41.87,69.5,42.8C69.36,42.94,69.25,43.1,69.12,43.24C69.06,43.3,69.03,43.35,68.98,43.43C68.92,43.49,68.84,43.52,68.79,43.57C66.7,45.8,64.19,47.7,61.39,49.26C61.39,49.26,61.36,49.26,61.34,49.29C61.23,49.35,61.14,49.46,61.06,49.54C60.92,49.54,60.76,49.57,60.62,49.65C58.12,50.94,55.34,51.99,52.37,52.7C52.31,52.7,52.23,52.73,52.18,52.78C52.12,52.78,52.09,52.84,52.04,52.87C51.98,52.87,51.96,52.87,51.9,52.87C51.82,52.87,51.77,52.87,51.68,52.87C49.07,53.47,46.29,53.86,43.43,53.99C40.3,54.16,37.24,53.99,34.49,53.55C31.52,53.06,28.86,52.21,26.36,50.94C26.25,50.89,26.14,50.86,26.02,50.86C26,50.83,25.97,50.78,25.91,50.75C25.86,50.69,25.8,50.67,25.75,50.64C25.75,50.64,25.72,50.64,25.7,50.61C24.48,49.95,23.3,49.21,22.18,48.36C20.52,47.06,18.93,45.55,17.39,43.82C17,43.38,16.48,43.13,15.9,43.13C14.8,43.13,13.9,43.98,13.9,45.11C13.87,47.78,13.62,50.36,13.38,52.87C12.71,59.91,12.16,65.96,16.21,70.41C16.95,71.21,17.8,71.92,18.82,72.58C22.61,75,28.45,76.41,36.7,76.87C38.76,76.98,40.93,77.04,43.3,77.04C44.15,77.04,45,77.01,45.85,76.93C56.33,76.05,65.41,69.7,70.77,60.54C73.98,55.01,75.86,48.44,75.86,41.43L75.97,41.37C75.97,40.55,75.5,39.86,74.78,39.56Z" fill="currentColor"/><path d="M15.38,53.03C15.63,50.5,15.85,47.86,15.9,45.14C15.9,45.11,15.9,45.08,15.93,45.08L15.93,49.13C15.93,50.83,16.76,52.48,18.11,53.5L18.19,53.55C19.15,54.27,20.28,54.65,21.46,54.65C22.78,54.65,24.07,54.16,25.04,53.33L25.04,54.38C25.04,56.52,26.41,58.48,28.42,59.19L28.5,59.19C29.05,59.41,29.66,59.52,30.23,59.52C31.61,59.52,32.87,58.97,33.78,58.06C34.47,59.77,36.09,61.01,38.02,61.09C38.54,61.09,39.09,61.12,39.64,61.12L39.66,61.12C41.53,61.12,43.16,60.04,43.95,58.45C44.89,59.44,46.21,60.07,47.7,60.07C48.11,60.07,48.55,60.02,48.96,59.91L49.04,59.91C51.19,59.36,52.7,57.49,52.87,55.31C53.85,56.17,55.12,56.66,56.47,56.66C57.38,56.66,58.23,56.44,59.02,56.03L59.11,55.97C60.73,55.12,61.8,53.5,61.97,51.71C62.08,51.66,62.16,51.6,62.27,51.55C62.85,51.85,63.48,52.01,64.14,52.01C65.02,52.01,65.84,51.74,66.56,51.19C67.36,50.58,68.18,49.92,68.95,49.26C69.86,48.49,70.38,47.37,70.38,46.16L70.38,45.5C70.74,45.63,71.13,45.72,71.51,45.72C72.33,45.72,73.11,45.39,73.68,44.78L73.68,44.73C73.68,44.73,73.77,44.67,73.79,44.62C73.38,49.18,72.14,53.5,70.25,57.35C69.36,56.52,68.21,56.03,66.97,56.03C65.93,56.03,64.94,56.39,64.11,57.02C63.87,57.21,63.59,57.43,63.34,57.62C62.05,58.61,61.34,60.15,61.45,61.75L61.53,62.82C60.62,62.13,59.49,61.75,58.28,61.75C57.43,61.75,56.6,61.94,55.84,62.33L55.75,62.38C54.19,63.15,53.11,64.58,52.81,66.23C51.96,65.57,50.86,65.16,49.7,65.16C49.26,65.16,48.8,65.21,48.35,65.35L48.27,65.35C46.87,65.74,45.74,66.7,45.08,67.91C44.15,66.92,42.77,66.34,41.29,66.45L41.34,67.41L41.23,66.45C40.82,66.48,40.38,66.51,39.97,66.51C38.67,66.53,37.47,67.08,36.59,68.05C36.53,68.1,36.48,68.16,36.45,68.24C35.73,67.08,34.52,66.23,33.12,65.96L33.04,65.96C31.41,65.63,29.71,66.12,28.5,67.25C28.17,65.6,27.04,64.17,25.48,63.43L25.36,63.37C24.62,63.01,23.82,62.82,23,62.82C21.49,62.82,20.06,63.45,19.01,64.55C18,65.65,17.47,67.08,17.58,68.6L17.58,69.12L17.72,69.12C14.23,65.3,14.75,59.6,15.38,53.03Z" fill="currentColor"/><path d="M20.99,49.79C21.95,50.5,22.95,51.16,23.96,51.77C23.96,51.77,23.91,51.79,23.91,51.82C23.25,52.43,22.39,52.76,21.49,52.76C20.72,52.76,20,52.51,19.37,52.04L19.29,51.99C18.41,51.33,17.86,50.25,17.86,49.13L17.86,47.09L17.83,47.09C18.88,48.08,19.92,48.99,20.99,49.79Z" fill="currentColor"/><path d="M58.26,54.35L58.17,54.41C57.65,54.68,57.07,54.82,56.49,54.82C56,54.82,55.53,54.71,55.06,54.52C54.82,54.41,54.6,54.3,54.41,54.13C56.36,53.58,58.26,52.87,60.02,52.07C59.96,52.34,59.85,52.59,59.71,52.84L59.74,52.84C59.41,53.47,58.91,53.99,58.26,54.35Z" fill="currentColor"/><path d="M50.97,55.48C50.77,56.74,49.87,57.76,48.6,58.09L48.52,58.09C48.24,58.17,47.97,58.2,47.72,58.2C46.4,58.2,45.25,57.4,44.75,56.25C44.7,56.11,44.64,55.95,44.59,55.81C46.79,55.67,48.93,55.37,50.99,54.96L50.99,54.98C50.99,55.15,50.99,55.31,50.97,55.48Z" fill="currentColor"/><path d="M35.38,55.56C37.63,55.86,40.08,55.97,42.58,55.89L42.58,56.28C42.58,56.28,42.58,56.3,42.58,56.33C42.58,57.93,41.26,59.22,39.69,59.22L39.66,59.22C39.14,59.22,38.65,59.22,38.13,59.19C36.59,59.11,35.38,57.82,35.38,56.25L35.38,55.92Z" fill="currentColor"/><path d="M26.96,53.28C28.97,54.16,31.09,54.79,33.34,55.26C33.34,55.37,33.28,55.45,33.23,55.56C32.76,56.77,31.61,57.65,30.23,57.65C29.88,57.65,29.49,57.6,29.16,57.46L29.08,57.46C27.81,56.96,26.96,55.75,26.96,54.41L26.96,53.47L26.96,53.44Z" fill="currentColor"/><path d="M65.52,49.68C65.49,49.68,65.43,49.73,65.41,49.76C65.35,49.79,65.32,49.81,65.27,49.84C64.8,50.12,64.25,50.2,63.73,50.09C65.46,49.02,67.08,47.81,68.54,46.49C68.48,47.01,68.21,47.5,67.8,47.86L67.8,47.83C67.06,48.47,66.28,49.1,65.52,49.68Z" fill="currentColor"/><path d="M72.42,43.46C72.42,43.46,72.2,43.65,72.09,43.71C71.92,43.79,71.76,43.82,71.62,43.82C71.48,43.82,71.32,43.79,71.18,43.74C71.81,43.02,72.39,42.25,72.94,41.48C72.89,41.95,72.83,42.39,72.78,42.83L72.78,42.88C72.72,43.08,72.64,43.27,72.5,43.41L73.19,44.07L73.16,44.09Z" fill="currentColor"/><path d="M27.18,73.41C24.1,72.78,21.68,71.9,19.78,70.74L19.62,68.46C19.56,67.47,19.86,66.56,20.52,65.85C21.18,65.13,22.15,64.72,23.11,64.72C23.63,64.72,24.16,64.83,24.65,65.08L24.79,65.13C25.97,65.68,26.74,66.81,26.82,68.07L27.04,71.26L27.04,71.29Z" fill="currentColor"/><path d="M35.68,74.45C33.28,74.32,31.09,74.07,29.11,73.74L28.94,71.15C28.89,70.27,29.19,69.42,29.79,68.76C30.56,67.96,31.69,67.58,32.79,67.8L32.87,67.8C34.27,68.1,35.32,69.28,35.43,70.74L35.54,72.39Z" fill="currentColor"/><path d="M48.88,67.25L48.96,67.25C49.23,67.14,49.51,67.11,49.78,67.11C51.46,67.11,52.87,68.43,52.98,70.11L53.06,71.24L53.17,72.72C51.1,73.55,48.96,74.1,46.76,74.4L46.54,70.88L46.54,70.55L46.48,70.55C46.38,69.04,47.39,67.63,48.88,67.25Z" fill="currentColor"/><path d="M56.69,64.11L56.77,64.06C57.29,63.81,57.81,63.67,58.37,63.67C59.99,63.67,61.75,64.91,61.88,66.95L61.88,67.3C59.8,69.17,57.46,70.69,54.98,71.87L54.87,70.05L54.87,69.94L54.71,67.5L54.71,67.52C54.63,66.09,55.4,64.77,56.69,64.11Z" fill="currentColor"/><path d="M65.41,58.56C65.9,58.17,66.48,57.98,67.08,57.98C67.74,57.98,68.4,58.23,68.92,58.67C67.47,61.25,65.73,63.59,63.73,65.63L63.45,61.67C63.4,60.7,63.81,59.8,64.61,59.19C64.88,59,65.16,58.78,65.41,58.56Z" fill="currentColor"/><path d="M44.59,70.99L44.84,74.56C44.17,74.62,43.49,74.65,42.85,74.65C41.04,74.65,39.28,74.62,37.6,74.54L37.44,71.9L37.44,71.43C37.35,70.66,37.63,69.89,38.15,69.31C38.67,68.73,39.39,68.4,40.16,68.38C40.6,68.38,41.07,68.35,41.51,68.32L41.53,68.32L41.51,68.35C43.1,68.24,44.48,69.45,44.59,70.99Z" fill="currentColor"/></svg>