<svg xmlns="http://www.w3.org/2000/svg" viewBox="0 0 90 90"><path d="M35.83,50.03C29.02,41.6,27.68,30.52,31.38,21.1C33.15,16.58,36.09,12.44,40.12,9.17C41.59,7.99,43.15,6.96,44.76,6.1C45.72,10.3,47.61,14.34,50.51,17.91C52.38,20.22,54.54,22.17,56.87,23.75C57.14,23.93,57.42,24.11,57.71,24.28C57.72,24.28,57.74,24.31,57.75,24.32C69.17,32.06,73.37,46.59,68.46,59.01L68.46,58.99C57.11,63.19,43.87,59.95,35.83,50.03Z" fill="currentColor"/><path d="M35.81,50.04C29,41.62,27.65,30.54,31.36,21.11C33.15,16.6,36.06,12.45,40.1,9.17C41.56,7.99,43.13,6.95,44.75,6.09C45.72,10.3,47.61,14.34,50.5,17.89C52.37,20.2,54.52,22.15,56.85,23.72C57.13,23.91,57.4,24.08,57.68,24.27C57.68,24.27,57.7,24.27,57.73,24.3C69.14,32.05,73.35,46.57,68.43,58.98L68.46,59C57.1,63.21,43.87,59.97,35.81,50.04Z" fill="currentColor"/><path d="M84.13,43.6C83.72,43.52,83.47,43.11,83.56,42.69C86.94,28.26,77.94,13.76,63.51,10.38C63.09,10.3,62.85,9.89,62.93,9.47C63.01,9.06,63.42,8.81,63.84,8.9C79.1,12.47,88.59,27.76,85.01,43.02C84.93,43.41,84.57,43.66,84.19,43.6L84.22,43.6C84.22,43.6,84.16,43.6,84.13,43.6Z" fill="currentColor"/><path d="M85.07,32.6L82.65,30.18L81.49,29.03L80.23,27.76C76.65,24.19,70.88,24.19,67.3,27.76L41.76,53.31C35.07,59.99,27.57,65.85,19.48,70.72L10.02,76.41C9.41,76.71,9.09,77.43,9.36,78.03C9.53,78.44,9.91,78.78,10.43,78.83C10.54,78.83,10.65,78.83,10.73,78.89L31.77,85.38C32.27,85.38,32.71,84.99,32.73,84.5L33.34,78.53C33.42,77.62,34.27,77.02,35.16,77.21C37.58,77.7,40.05,77.95,42.61,77.95C63.23,77.95,79.95,61.23,79.95,40.6C79.95,40.27,79.95,39.97,79.95,39.64C79.92,38.49,80.34,37.36,81.16,36.53C82.32,35.38,83.86,34.75,85.48,34.75L85.59,34.75C86.17,34.75,86.47,34.03,86.06,33.62L86.06,33.59Z" fill="currentColor"/><path d="M75.39,30.51C75.39,30,74.97,29.58,74.45,29.58C73.94,29.58,73.52,30,73.52,30.51C73.52,31.03,73.94,31.45,74.45,31.45C74.97,31.45,75.39,31.03,75.39,30.51Z" fill="currentColor"/><path d="M24.43,57.85C13.18,53.5,5.76,43.58,4.11,32.47C3.31,27.13,3.86,21.52,5.92,16.13C6.69,14.18,7.6,12.31,8.67,10.6C11.92,14.12,15.99,16.95,20.75,18.8C23.82,19.98,26.99,20.67,30.09,20.89C30.45,20.89,30.84,20.94,31.2,20.94C31.2,20.94,31.25,20.94,31.28,20.94C46.57,22.07,58.64,33.73,60.78,48.41L60.81,48.41C52.2,58.76,37.66,62.96,24.43,57.85Z" fill="currentColor"/><path d="M6.39,27.9C5.62,22.76,6.03,17.39,7.76,12.17C7.08,13.43,6.45,14.75,5.92,16.13C3.83,21.52,3.31,27.13,4.11,32.46C5.76,43.57,13.18,53.5,24.4,57.85C35.46,62.11,47.42,59.88,56.08,53.01C47.67,57.49,37.41,58.42,27.81,54.71L27.84,54.71C15.99,50.12,8.12,39.64,6.39,27.9Z" fill="currentColor"/><path d="M80.92,17.01C80.14,18.82,80.47,20.8,81.6,22.26C83.42,22.02,85.07,20.86,85.84,19.05C86.61,17.23,86.28,15.25,85.15,13.79C83.33,14.04,81.69,15.2,80.92,17.01Z" fill="currentColor"/><path d="M71.78,10.36C71.89,12.34,73.05,13.98,74.67,14.81C76.21,13.82,77.2,12.06,77.09,10.08C76.98,8.13,75.83,6.45,74.2,5.63C72.67,6.62,71.67,8.38,71.78,10.36Z" fill="currentColor"/><path d="M74.45,23.03C76.41,23.03,78.14,21.96,79.05,20.36C78.14,18.77,76.41,17.7,74.45,17.7C72.5,17.7,70.77,18.77,69.86,20.36C70.77,21.96,72.5,23.03,74.45,23.03Z" fill="currentColor"/><path d="M66.83,17.01C68.48,15.91,69.28,14.07,69.14,12.22C67.5,11.43,65.49,11.51,63.84,12.61C62.19,13.71,61.39,15.55,61.53,17.39C63.18,18.19,65.19,18.11,66.83,17.01Z" fill="currentColor"/><path d="M19.45,70.69L9.99,76.38C9.39,76.68,9.06,77.4,9.33,78C9.5,78.42,9.88,78.75,10.4,78.8C10.52,78.8,10.63,78.8,10.71,78.86L31.75,85.35C32.24,85.35,32.68,84.96,32.71,84.47L33.31,78.5C33.4,77.59,34.25,76.99,35.13,77.18C37.55,77.67,40.02,77.92,42.58,77.92C60.04,77.92,74.7,65.93,78.8,49.76C78.8,49.76,53.83,81.52,25.97,66.48L26,66.45C23.88,67.94,21.68,69.34,19.45,70.69Z" fill="currentColor"/><path d="M9.58,27.46C8.34,26.66,7.08,25.75,6.12,24.63C5.95,24.19,5.65,23.86,5.26,23.64C5.21,25.23,5.04,26.8,5.02,28.39C7.55,29.91,10.46,30.87,13.32,31.39C14.59,31.61,15.88,31.72,17.14,31.8C17.86,31.8,18.98,31.83,19.7,31.8C20.91,31.75,22.26,31.59,23.47,31.42C21.02,31.31,18.49,31.01,16.15,30.35C13.84,29.71,11.59,28.73,9.58,27.46Z" fill="currentColor"/><path d="M11.97,38.46C14.34,39.45,16.92,39.97,19.51,40.25C20.66,40.36,22.31,40.44,23.5,40.44C20.86,41.05,18.13,41.48,15.41,41.48C12.49,41.48,9.39,41.21,6.78,39.75C4.85,38.16,7.05,35.27,9.09,36.76C9.83,37.5,10.98,38.02,11.97,38.46Z" fill="currentColor"/><path d="M33.45,49.05L34.38,48.55L33.59,49.24L33.17,49.6L32.73,49.9C32.24,50.28,31.44,50.75,30.89,51.08C26.91,53.23,22.26,54.08,17.75,53.78C14.94,53.37,15.82,49.27,18.57,50.06C23.41,51.41,28.91,51.38,33.45,49.05Z" fill="currentColor"/></svg>