<svg xmlns="http://www.w3.org/2000/svg" viewBox="0 0 90 90"><path d="M88,45C88,21.25,68.75,2,45,2C21.25,2,2,21.25,2,45C2,68.75,21.25,88,45,88C68.75,88,88,68.75,88,45Z" fill="currentColor"/><path d="M88,45C88,68.75,68.75,88,45,88C35.3,88,26.35,84.79,19.16,79.37C23.78,81.07,28.78,82,34,82C57.75,82,77,62.75,77,39C77,24.95,70.26,12.48,59.84,4.63C76.28,10.68,88,26.47,88,45Z" fill="currentColor" opacity="0.5"/><path d="M88,45C88,68.75,68.75,88,45,88C44.5,88,44,87.99,43.5,87.97C66.55,87.18,85,68.25,85,45C85,21.75,66.55,2.82,43.5,2.03C44,2.01,44.5,2,45,2C68.75,2,88,21.25,88,45Z" fill="currentColor"/><path d="M2.31,39.84C4.77,19.31,21.69,3.22,42.59,2.07C23.37,6.97,8.3,21.38,2.31,39.84Z" fill="currentColor"/><path d="M30.44,46.08C26.91,46.08,24,43.24,24,39.23C24,34.02,26.88,29.77,30.44,29.77C34.01,29.77,36.85,34.02,36.85,39.23C36.85,43.24,33.97,46.08,30.44,46.08Z" fill="currentColor"/><path d="M59.44,46.08C55.91,46.08,53,43.24,53,39.23C53,34.02,55.88,29.77,59.44,29.77C63.01,29.77,65.85,34.02,65.85,39.23C65.85,43.24,62.97,46.08,59.44,46.08Z" fill="currentColor"/><path d="M30.44,44.08C27.46,44.08,25,39.84,25,35.85C25,31.86,27.43,28.62,30.44,28.62C33.45,28.62,35.85,31.86,35.85,35.85C35.85,39.84,33.42,44.08,30.44,44.08Z" fill="currentColor"/><path d="M59.59,44.08C56.61,44.08,54.18,39.84,54.18,35.85C54.18,31.86,56.61,28.62,59.59,28.62C62.57,28.62,65,31.86,65,35.85C65,39.84,62.57,44.08,59.59,44.08Z" fill="currentColor"/><path d="M61.21,61.37C60.92,60.41,60.05,59.76,59.05,59.75C50.84,59.71,39.21,59.71,31,59.75C30.01,59.76,29.13,60.41,28.84,61.36C28.48,62.55,29.13,63.81,30.35,64.08C38.05,65.75,52.02,65.77,59.71,64.08C60.93,63.81,61.58,62.55,61.21,61.37Z" fill="currentColor"/><path d="M64.05,61.83C63.73,62.71,62.9,63.3,61.96,63.31C52.13,63.35,37.92,63.35,28.09,63.31C27.15,63.3,26.32,62.71,26.01,61.83C25.56,60.61,26.26,59.27,27.54,59.03C36.63,57.3,53.44,57.28,62.52,59.02C63.8,59.27,64.49,60.6,64.05,61.83Z" fill="currentColor"/></svg>