<svg xmlns="http://www.w3.org/2000/svg" viewBox="0 0 90 90"><path d="M88,45C88,21.25,68.75,2,45,2C21.25,2,2,21.25,2,45C2,68.75,21.25,88,45,88C68.75,88,88,68.75,88,45Z" fill="currentColor"/><path d="M88,45C88,68.75,68.75,88,45,88C35.3,88,26.35,84.79,19.16,79.37C23.78,81.07,28.78,82,34,82C57.75,82,77,62.75,77,39C77,24.95,70.26,12.48,59.84,4.63C76.28,10.68,88,26.47,88,45Z" fill="currentColor" opacity="0.5"/><path d="M88,45C88,68.75,68.75,88,45,88C44.5,88,44,87.99,43.5,87.97C66.55,87.18,85,68.25,85,45C85,21.75,66.55,2.82,43.5,2.03C44,2.01,44.5,2,45,2C68.75,2,88,21.25,88,45Z" fill="currentColor"/><path d="M2.31,39.84C4.77,19.31,21.69,3.22,42.59,2.07C23.37,6.97,8.3,21.38,2.31,39.84Z" fill="currentColor"/><path d="M30.07,46L59.93,46C65.93,46,70.77,50.46,70.77,55.96C70.77,70.86,19.23,70.86,19.23,55.96C19.23,50.46,24.1,46,30.07,46Z" fill="currentColor"/><path d="M30.07,69.63C24.07,69.63,19.23,65,19.23,59.31C19.23,53.62,24.1,49,30.07,49L59.93,49C65.93,49,70.77,53.62,70.77,59.31C70.77,65,65.9,69.63,59.93,69.63Z" fill="currentColor"/><path d="M32.1,56.7L57.9,56.7C60.73,56.7,63.01,54.39,63.04,51.56L26.96,51.56C26.96,54.42,29.27,56.7,32.1,56.7Z" fill="currentColor"/><path d="M57.9,61.9L32.1,61.9C29.27,61.9,26.99,64.21,26.96,67.04L63.04,67.04C63.04,64.18,60.73,61.9,57.9,61.9Z" fill="currentColor"/><path d="M30.44,43.08C26.91,43.08,24,40.24,24,36.23C24,31.02,26.88,26.77,30.44,26.77C34.01,26.77,36.85,31.02,36.85,36.23C36.85,40.24,33.97,43.08,30.44,43.08Z" fill="currentColor"/><path d="M59.44,43.08C55.91,43.08,53,40.24,53,36.23C53,31.02,55.88,26.77,59.44,26.77C63.01,26.77,65.85,31.02,65.85,36.23C65.85,40.24,62.97,43.08,59.44,43.08Z" fill="currentColor"/><path d="M30.44,41.08C27.46,41.08,25,36.84,25,32.85C25,28.86,27.43,25.62,30.44,25.62C33.45,25.62,35.85,28.86,35.85,32.85C35.85,36.84,33.42,41.08,30.44,41.08Z" fill="currentColor"/><path d="M59.59,41.08C56.61,41.08,54.18,36.84,54.18,32.85C54.18,28.86,56.61,25.62,59.59,25.62C62.57,25.62,65,28.86,65,32.85C65,36.84,62.57,41.08,59.59,41.08Z" fill="currentColor"/></svg>