<svg xmlns="http://www.w3.org/2000/svg" viewBox="0 0 90 90" fill="currentColor"><path d="M15.6,2.03C15.76,40.85,47.18,72.31,86,72.4L86,86C39.69,85.87,2.19,48.38,2,2.03ZM86,86C39.69,85.87,2.19,48.38,2,2.03C3.7,34.1,28.88,80.61,86,86ZM28.35,2.03C28.51,33.81,54.22,59.52,86,59.62L86,72.4C47.18,72.27,15.76,40.85,15.6,2.03ZM41.46,2.03C41.59,26.58,61.46,46.47,86,46.57L86,59.62C54.25,59.49,28.55,33.78,28.35,2.03ZM55.38,2.03C55.48,18.89,69.11,32.55,85.97,32.65L85.97,46.6C61.42,46.47,41.56,26.61,41.43,2.07L41.47,2.03ZM69.01,2.03C69.56,11.2,76.83,18.5,86,19.02L86,32.65C69.14,32.55,55.51,18.92,55.42,2.03Z"/></svg>