<svg xmlns="http://www.w3.org/2000/svg" viewBox="0 0 90 90"><path d="M88,45C88,21.25,68.75,2,45,2C21.25,2,2,21.25,2,45C2,68.75,21.25,88,45,88C68.75,88,88,68.75,88,45Z" fill="#F7C631"/><path d="M88,45C88,68.75,68.75,88,45,88C35.3,88,26.35,84.79,19.16,79.37C23.78,81.07,28.78,82,34,82C57.75,82,77,62.75,77,39C77,24.95,70.26,12.48,59.84,4.63C76.28,10.68,88,26.47,88,45Z" fill="#CF8D1B" opacity="0.5"/><path d="M88,45C88,68.75,68.75,88,45,88C44.5,88,44,87.99,43.5,87.97C66.55,87.18,85,68.25,85,45C85,21.75,66.55,2.82,43.5,2.03C44,2.01,44.5,2,45,2C68.75,2,88,21.25,88,45Z" fill="#FAD541"/><path d="M2.31,39.84C4.77,19.31,21.69,3.22,42.59,2.07C23.37,6.97,8.3,21.38,2.31,39.84Z" fill="#FFFFC7"/><path d="M40.94,32.68L40.94,34.06L49,34.06L49,32.68C49,29.48,51.47,26.89,54.51,26.89L81.28,26.89C84.98,32.69,87.33,39.44,87.88,46.69C86.78,56.9,78.55,64.83,68.52,64.83C57.75,64.83,49.04,55.68,49.04,44.38L49.04,43.2L40.98,43.2L40.98,44.38C40.98,55.68,32.28,64.83,21.51,64.83C11.43,64.83,3.16,56.83,2.14,46.55C2.7,39.35,5.05,32.65,8.72,26.89L35.44,26.89C38.47,26.89,40.94,29.48,40.94,32.68Z" fill="#CF8D1B"/><path d="M54.95,20C51.78,20,49.19,22.71,49.19,26.06L49.19,27.5L40.75,27.5L40.75,26.06C40.75,22.71,38.17,20,34.99,20L5.1,20C2.3,20,0.01,22.37,0.01,25.34C0.01,31.62,0.01,30.06,0.01,38.31C0.01,50.14,9.13,59.72,20.4,59.72C31.68,59.72,40.8,50.14,40.8,38.31L40.8,37.07L49.23,37.07L49.23,38.31C49.23,50.14,58.35,59.72,69.62,59.72C80.9,59.72,90.01,50.14,90.01,38.31C90.01,30.06,90.01,31.62,90.01,25.34C90.01,22.37,87.72,20,84.93,20L84.88,20Z" fill="#312E2B"/><path d="M0.01,25.14C0.01,22.3,2.31,20,5.15,20L32.11,20L7.62,20.95C4.54,21.07,1.98,23.36,1.52,26.41L0.01,36.47Z" fill="#666564"/><path d="M90.01,25.14C90.01,22.3,87.71,20,84.88,20L57.92,20L82.41,20.95C85.49,21.07,88.05,23.36,88.51,26.41L90.01,36.47Z" fill="#666564"/><path d="M20.02,52.79C12.35,52.79,6.12,47.05,6.12,38.74L6.12,26.98L33.93,26.98L33.93,38.74C33.93,47.05,27.7,52.79,20.02,52.79Z" fill="#4A4743"/><path d="M83.87,38.74C83.87,47.05,77.64,52.79,69.96,52.79C62.29,52.79,56.06,47.05,56.06,38.74L56.06,26.98L83.87,26.98Z" fill="#4A4743"/><path d="M20.02,52.79C12.35,52.79,6.12,47.05,6.12,38.74L6.12,26.98L8.89,26.98L8.89,38.28C8.89,44.79,13.33,50.26,19.34,51.83L23.9,26.98L33.93,26.98L33.93,38.74C33.93,47.05,27.7,52.79,20.02,52.79Z" fill="#666564"/><path d="M69.96,52.79C62.29,52.79,56.06,47.05,56.06,38.74L56.06,26.98L58.89,26.98L58.89,38.28C58.89,44.77,63.3,50.22,69.28,51.81L73.84,26.98L83.87,26.98L83.87,38.74C83.87,47.05,77.64,52.79,69.96,52.79Z" fill="#666564"/><path d="M44.99,75C38.77,75,32.16,70.8,29.3,65.01C29.1,64.61,29.13,64.14,29.35,63.75C29.83,62.9,31.02,62.78,31.74,63.44C35.76,67.08,41.37,68.83,45,68.83C48.63,68.83,54.24,67.08,58.26,63.44C58.98,62.78,60.17,62.9,60.65,63.75C60.87,64.14,60.9,64.61,60.7,65.01C57.83,70.8,51.23,75,45.01,75" fill="none" stroke="#FCE26A" stroke-width="2" stroke-linecap="round" stroke-linejoin="round"/><path d="M44.98,72C38.11,72,31.7,69.15,27.63,64.03C27.24,63.53,27.24,62.84,27.6,62.32C28.09,61.6,29.08,61.45,29.8,61.94C34.99,65.42,40.77,66.31,45,66.31C49.23,66.31,55.01,65.42,60.2,61.93C60.92,61.45,61.91,61.6,62.4,62.32C62.76,62.84,62.76,63.53,62.36,64.03C58.29,69.15,51.89,72,45.02,72" fill="none" stroke="#312E2B" stroke-width="2" stroke-linecap="round" stroke-linejoin="round"/></svg>