<svg xmlns="http://www.w3.org/2000/svg" viewBox="0 0 90 90"><path d="M79.31,50.94C77.89,49.74,76.45,49.02,74.47,49.02C76.28,48.66,77.81,47.76,78.97,46.5C77.53,45.54,75.83,45.03,74,45.15C75.92,44.64,77.42,43.47,78.5,41.97C77.08,41.25,75.47,40.98,73.81,41.19C75.11,40.29,76.16,39.15,76.75,37.74C75.11,37.29,73.31,37.35,71.59,38.04C71.66,38.01,71.75,38.01,71.81,37.95C73.48,36.84,74.53,35.16,75.05,33.33C73.31,33.09,71.53,33.42,69.92,34.35C69.89,34.29,69.86,34.23,69.8,34.17C69.89,34.08,70,34.05,70.09,33.96C71.53,32.52,72.22,30.66,72.34,28.8C71,28.89,69.7,29.4,68.5,30.18C69.53,28.86,70.13,27.36,70.25,25.8C68.42,25.92,66.61,26.61,65.2,27.99C66.38,26.61,67.03,24.99,67.16,23.28C65.42,23.4,63.7,24.09,62.3,25.32C63.44,23.97,64.09,22.35,64.22,20.67C62.33,20.79,60.49,21.51,59.05,22.92C59.05,22.92,59.05,22.95,59.02,22.98L60.67,17.04C61.84,12,62.09,7.68,62.12,5.4C62.12,4.14,61.48,2.52,60.62,1.65C59.63,0.66,58.27,0.06,56.87,0.06C55.55,0.06,53.84,0.81,52.97,1.8C49.97,5.1,47.45,8.94,45.47,13.17C45.47,13.17,45.47,13.17,45.44,13.17C44.9,14.28,44.35,15.51,43.88,16.74C43.34,15.66,42.77,14.85,42.77,14.85C42.26,15.36,41.92,15.9,41.72,16.47C39.91,13.47,36.83,8.13,34.88,4.77C33.49,2.1,32.3,1.71,31.91,1.65C30.91,1.71,29.93,2.04,29.14,2.67C28.16,3.45,27.34,4.98,27.25,6.21C27.16,7.41,27.2,8.61,27.2,9.84C27.23,11.46,27.38,13.08,27.61,14.73C27.95,16.47,29.11,21.09,31.18,23.73C31.18,23.73,27.5,25.71,27.16,29.55L19.16,38.43C19.16,38.43,16.09,38.16,14.63,38.97C14.38,39.06,14.14,39.18,13.85,39.36C13.7,39.45,13.57,39.54,13.43,39.63C13.34,39.69,13.28,39.72,13.19,39.81C13.1,39.9,13.04,39.99,12.95,40.05C10.52,42.51,10.9,44.82,10.9,44.82C10.76,45.21,10.57,45.6,10.43,46.02L10.04,47.04C8.92,49.86,9.34,53.88,10.39,55.95C11.89,58.95,15.11,62.52,21.95,62.52C26.75,62.52,29.59,60.24,32.45,57.6L32.98,57.12C33.77,56.43,34.3,55.98,35.27,55.95C35.51,55.98,35.63,56.04,35.72,56.13C36.08,56.79,36.38,58.53,36.28,60.87C36.05,63.12,35.3,65.52,34.03,68.19C17.48,77.49,17.27,86.58,17.3,87.6C17.3,87.6,17.05,90,19,90L69.34,90C71.3,90,70.84,88.32,70.84,88.32C68.83,81.72,72.11,72.93,74.06,64.41C75.67,64.2,76.03,63.36,77.27,62.28C76.25,61.41,75.77,60.93,74.75,60.69C74.75,60.63,74.75,60.57,74.75,60.54L74.75,60.66C76.52,60.48,76.84,59.61,78.11,58.5C76.91,57.48,76.48,57,75.02,56.82C76.78,56.64,77.08,55.77,78.34,54.66C77.06,53.55,76.72,53.07,74.92,52.95L74.95,52.98C76.75,52.83,78.02,52.05,79.31,50.94Z" fill="#383532"/><path d="M44.2,24.24C42.8,24.09,41.23,24,39.67,24.06C41.23,24.03,42.77,24.09,44.2,24.24Z" fill="#666564"/><path d="M37.45,54.03L37.45,54.06L37.48,54.06Z" fill="#666564"/><path d="M37.48,54.06C37.48,54.06,37.42,54.06,37.42,54.03C37.45,54.06,37.45,54.06,37.52,54.09L37.48,54.09Z" fill="#666564"/><path d="M35.9,69.72C35.9,69.72,35.84,69.72,35.8,69.75C19.45,78.72,19.73,87.27,19.73,87.27L41.53,87.27C41.53,87.27,48.05,80.55,45.85,75.93L45.85,75.96C42.7,69.39,35.9,69.72,35.9,69.72Z" fill="#BDBCB8"/><path d="M19.75,87.3C19.75,87.3,19.48,78.75,35.84,69.78C35.87,69.78,35.9,69.72,35.92,69.69C37.63,66.24,38.38,63.51,38.69,61.26C38.77,60.03,38.92,55.38,37.24,53.94C36.83,53.67,36.41,53.43,35.92,53.31C33.26,52.86,31.75,54.69,30.91,55.41C27.89,58.2,25.7,59.79,21.98,59.79C17.98,59.79,14.56,58.41,12.64,54.57C11.87,53.01,11.56,49.77,12.4,47.67C12.53,47.37,12.64,47.07,12.73,46.77C12.73,46.59,12.73,46.41,12.73,46.05C12.73,43.02,15.2,40.56,18.23,40.56C18.98,40.56,19.52,40.65,19.96,40.83C20,40.8,20.05,40.8,20.11,40.74L28.84,31.17C29.11,28.74,30.14,27.63,30.77,27.12C31.18,26.82,31.61,26.52,32.05,26.28C32.9,25.83,33.73,25.47,34.58,25.17L57.62,42.03L56.02,87.3L55.91,87.3Z" fill="#B3ACA8"/><path d="M68.86,47.46C66.17,39.33,61.97,34.41,61.97,34.41C59.87,32.34,57.88,30.33,55.94,28.83C55.58,28.59,55.22,28.32,54.83,28.11C54.52,27.9,54.2,27.66,53.9,27.51C58.76,19.05,59.53,9.21,59.59,5.1C59.59,4.5,59.2,3.51,58.78,3.09C58.27,2.55,57.52,2.25,56.8,2.25C56.17,2.25,55.16,2.7,54.73,3.18C47.84,10.83,45.2,19.44,44.2,24.3C42.77,24.15,41.23,24.06,39.67,24.12C38.15,24.21,36.34,24.57,34.48,25.23C34.48,25.23,33.13,25.71,31.79,27.39C29.98,29.64,30.2,32.61,30.2,32.61L28.55,35.73C27.8,37.11,27.61,38.7,28.09,40.2C28.55,41.67,29.57,42.9,30.95,43.59C34.42,45.39,38.38,48.48,37.7,53.16C37.63,53.46,37.58,53.79,37.48,54.09L37.48,54.12L39.16,55.8C39.16,55.8,42.47,59.94,42.41,59.94C42.28,59.94,41.56,60.15,41.41,60.15C40.63,60.3,40.37,61.86,38.63,61.59C38.63,61.59,38.63,61.47,38.63,61.29C38.33,63.51,37.58,66.24,35.87,69.72C35.84,69.72,35.8,69.78,35.77,69.81C35.77,69.81,35.84,69.81,35.87,69.78C35.87,69.78,42.67,69.45,45.83,76.02C48.02,80.61,41.51,87.36,41.51,87.36L68.2,87.36C66.86,81.63,68.59,75.33,68.59,75.33C69.17,73.71,69.58,72.12,69.94,70.56C70.06,70.02,70.16,69.51,70.25,69C70.42,68.01,70.61,67.02,70.72,66.03C70.81,65.34,70.88,64.68,70.91,64.02C70.97,63.3,71,62.61,71.03,61.92C71.03,61.74,71.03,61.59,71.03,61.41C71.03,61.35,71.03,61.32,71.03,61.26L71.06,61.23C71.33,53.43,68.86,47.46,68.86,47.46Z" fill="#807B76"/><path d="M42.65,61.68C42.67,61.68,42.7,61.68,42.73,61.68C50.2,60.72,52.03,53.1,52.03,53.1C45.13,58.68,38.92,55.11,37.45,54.12C37.4,54.09,37.4,54.09,37.37,54.06C37.24,53.97,37.13,53.88,37.13,53.88C37.16,53.88,37.19,53.94,37.22,53.97C38.9,55.38,38.74,60.06,38.66,61.29C38.66,61.47,38.66,61.59,38.66,61.59C40.01,61.83,41.2,61.86,42.31,61.77L42.28,61.74C42.28,61.74,42.52,61.68,42.65,61.68Z" fill="#4A4743"/><path d="M35.41,22.2C35.05,21.54,34.88,20.58,35.27,19.17C35.27,19.17,37.06,19.89,38.38,21.15C37.55,20.01,36.85,18.48,37.34,16.59C37.34,16.59,38.45,17.04,39.55,17.82L32.84,5.7C32.17,4.32,31.55,4.11,31.21,4.08C31,4.14,30.77,4.17,30.59,4.32C30.14,4.65,29.68,5.55,29.63,6.09C29.41,9,29.63,11.73,29.98,14.25C30.23,15.51,31.3,20.01,33.88,22.44C34.42,22.32,34.91,22.26,35.41,22.2Z" fill="#4A4743"/><path d="M45.88,28.41L46.88,29.25C47.92,30.15,49.55,29.97,50.35,28.83C55.99,20.88,56.69,10.41,56.77,6.66C56.77,6.15,56.15,5.91,55.81,6.27L55.78,6.27C46.78,16.23,45.88,28.41,45.88,28.41Z" fill="#FF949D"/><path d="M24.23,51.96C24.8,51.33,24.77,50.34,24.14,49.77C23.5,49.2,21.41,51.45,22.04,52.05C22.66,52.62,23.66,52.59,24.23,51.96Z" fill="#383532"/><path d="M17.71,50.49C17.71,52.35,18.7,53.94,20.14,54.93C19.55,54.03,19.09,53.04,19.09,51.87C19.09,48.84,21.55,46.38,24.59,46.38C25.75,46.38,26.77,46.83,27.64,47.43C26.66,45.99,25.09,45,23.2,45C20.18,45,17.71,47.46,17.71,50.49Z" fill="#807B76"/><path d="M35.87,36.72C35.87,34.56,37.6,32.82,39.77,32.82C41.92,32.82,43.66,34.56,43.66,36.72C43.66,38.88,41.92,40.62,39.77,40.62C37.6,40.62,35.87,38.88,35.87,36.72Z" fill="#383532"/></svg>