<svg xmlns="http://www.w3.org/2000/svg" viewBox="0 0 90 90"><path d="M59.98,50.79C54.75,50.79,49.86,56.04,46.7,59.45C39.94,66.21,37.69,69.88,35.79,79.39C35.42,81.11,34.24,82.44,32.35,82.44C25.97,82.44,21.63,76.54,21.63,70.53C21.63,64.87,25.55,60.77,26.71,55.52C22.44,54.66,17.91,55.52,13.6,55.52C8.57,55.52,2.29,54.08,2.29,47.98C2.29,45.84,2.99,43.91,3.97,42.04C1.53,38.56,2.15,34.04,4.96,30.91C3.61,27.26,4.85,22.51,7.96,20.1C7.96,12.72,14.12,8.66,20.8,7.89C33.17,6.47,46.87,12.92,59.98,12.92Z" fill="currentColor"/><path d="M34.43,80.29L36.76,69.45C37.1,67.88,37.81,66.42,38.83,65.18L45.45,57.18C45.99,56.53,46.4,55.79,46.67,55C48.18,50.5,52.57,47.62,57.3,48.02L59.98,48.24L59.98,50.79C54.75,50.79,49.86,56.04,46.71,59.45C39.94,66.21,37.69,69.88,35.79,79.39C35.49,80.8,34.64,81.95,33.3,82.32C33.86,81.78,34.26,81.08,34.43,80.29Z" fill="currentColor"/><path d="M26.47,56.46L26.89,56.47L26.05,57.75C26.2,57.33,26.35,56.9,26.47,56.46Z" fill="currentColor"/><path d="M2.29,47.98C2.29,45.84,2.99,43.92,3.97,42.04C1.53,38.56,2.15,34.04,4.96,30.91C3.61,27.26,4.85,22.51,7.96,20.1C7.96,12.72,14.12,8.66,20.8,7.89C33.17,6.47,46.87,12.92,59.98,12.92L59.98,18.34C57.45,18.3,54.94,17.88,52.52,17.08L31.06,10.01C27.59,8.87,23.9,8.52,20.27,8.98L17.56,9.33C12.74,9.95,9.91,15.07,11.94,19.48C7.69,21.71,6.65,27.32,9.82,30.93L10.1,31.24L9.66,31.42C4.58,33.49,4.22,40.55,9.07,43.12C4.61,45.58,4.45,51.94,8.79,54.62L9.75,55.21C5.85,54.52,2.29,52.57,2.29,47.98Z" fill="currentColor"/><path d="M11.38,55.42L16.5,55.42C15.53,55.48,14.56,55.52,13.6,55.52C12.88,55.52,12.13,55.49,11.38,55.42Z" fill="currentColor"/><path d="M21.62,70.53C21.62,64.87,25.55,60.77,26.71,55.52C26.53,55.48,26.34,55.45,26.16,55.42L29.31,55.42L23.76,68.05C22.3,71.35,22.74,75.19,24.91,78.08L27,80.86C23.66,78.71,21.62,74.64,21.62,70.53Z" fill="currentColor"/><path d="M15.21,44.37C16.01,44.53,16.79,43.99,16.92,43.18C17.05,42.28,16.34,41.48,15.43,41.52L3.97,42.05Z" fill="currentColor"/><path d="M15.49,32.37C16.28,32.48,16.99,31.91,17.05,31.11C17.12,30.25,16.38,29.54,15.52,29.64L4.98,30.9Z" fill="currentColor"/><path d="M14.96,20.95C15.81,21.05,16.52,20.35,16.44,19.5C16.36,18.7,15.58,18.15,14.79,18.35L7.93,20.11Z" fill="currentColor"/><path d="M65.79,54.94C61.47,54.94,57.98,51.45,57.98,47.13L57.98,16.88C57.98,12.57,61.47,9.07,65.79,9.07L78.44,9.07C82.76,9.07,86.25,12.57,86.25,16.88L86.25,47.13C86.25,51.45,82.76,54.94,78.44,54.94Z" fill="currentColor"/><path d="M67.19,18.43C68.4,18.43,69.39,18.81,70.16,19.58C70.93,20.33,71.29,21.32,71.29,22.53C71.29,23.65,70.91,24.64,70.16,25.47C69.39,26.27,68.4,26.68,67.19,26.68C66.06,26.68,65.08,26.27,64.28,25.47C63.45,24.64,63.07,23.68,63.07,22.53C63.07,21.37,63.48,20.38,64.28,19.61C65.08,18.84,66.06,18.43,67.19,18.43Z" fill="currentColor"/><path d="M67.19,15.43C68.4,15.43,69.39,15.81,70.16,16.58C70.93,17.33,71.29,18.32,71.29,19.53C71.29,20.65,70.91,21.64,70.16,22.47C69.39,23.27,68.4,23.68,67.19,23.68C66.06,23.68,65.08,23.27,64.28,22.47C63.45,21.64,63.07,20.68,63.07,19.53C63.07,18.37,63.48,17.38,64.28,16.61C65.08,15.84,66.06,15.43,67.19,15.43Z" fill="currentColor"/></svg>