<svg xmlns="http://www.w3.org/2000/svg" viewBox="0 0 90 90"><path d="M88,45C88,21.25,68.75,2,45,2C21.25,2,2,21.25,2,45C2,68.75,21.25,88,45,88C68.75,88,88,68.75,88,45Z" fill="#F7C631"/><path d="M88,45C88,68.75,68.75,88,45,88C35.3,88,26.35,84.79,19.16,79.37C23.78,81.07,28.78,82,34,82C57.75,82,77,62.75,77,39C77,24.95,70.26,12.48,59.84,4.63C76.28,10.68,88,26.47,88,45Z" fill="#CF8D1B" opacity="0.5"/><path d="M88,45C88,68.75,68.75,88,45,88C44.5,88,44,87.99,43.5,87.97C66.55,87.18,85,68.25,85,45C85,21.75,66.55,2.82,43.5,2.03C44,2.01,44.5,2,45,2C68.75,2,88,21.25,88,45Z" fill="#FAD541"/><path d="M2.31,39.84C4.77,19.31,21.69,3.22,42.59,2.07C23.37,6.97,8.3,21.38,2.31,39.84Z" fill="#FFFFC7"/><path d="M30.44,49.08C26.91,49.08,24,46.24,24,42.23C24,37.02,26.88,32.77,30.44,32.77C34.01,32.77,36.85,37.02,36.85,42.23C36.85,46.24,33.97,49.08,30.44,49.08Z" fill="#FCE26A"/><path d="M59.44,49.08C55.91,49.08,53,46.24,53,42.23C53,37.02,55.88,32.77,59.44,32.77C63.01,32.77,65.85,37.02,65.85,42.23C65.85,46.24,62.97,49.08,59.44,49.08Z" fill="#FCE26A"/><path d="M30.44,47.08C27.46,47.08,25,42.84,25,38.85C25,34.86,27.43,31.62,30.44,31.62C33.45,31.62,35.85,34.86,35.85,38.85C35.85,42.84,33.42,47.08,30.44,47.08Z" fill="#312E2B"/><path d="M59.59,47.08C56.61,47.08,54.18,42.84,54.18,38.85C54.18,34.86,56.61,31.62,59.59,31.62C62.57,31.62,65,34.86,65,38.85C65,42.84,62.57,47.08,59.59,47.08Z" fill="#312E2B"/><path d="M49.88,41.45C49.88,41.45,49.88,41.34,49.88,41.15C49.88,40.96,49.91,40.66,49.97,40.33C50.03,39.97,50.12,39.53,50.24,39.06C50.37,38.59,50.55,38.04,50.83,37.49C51.07,36.91,51.38,36.34,51.74,35.73C52.11,35.13,52.57,34.52,53.09,33.95C53.61,33.37,54.22,32.79,54.86,32.3C55.53,31.8,56.23,31.33,57,30.98C57.76,30.59,58.52,30.29,59.35,30.07C60.14,29.85,60.94,29.71,61.7,29.63C62.47,29.57,63.2,29.57,63.9,29.63C64.24,29.63,64.57,29.68,64.91,29.74C65.21,29.79,65.55,29.82,65.83,29.9C66.99,30.18,67.9,30.51,68.51,30.78C69.13,31.06,69.46,31.25,69.46,31.25C69.83,31.44,69.98,31.94,69.8,32.3C69.67,32.57,69.4,32.71,69.16,32.71L69.09,32.71C69.09,32.71,68.73,32.71,68.12,32.71C67.81,32.71,67.44,32.71,67.02,32.71C66.59,32.71,66.13,32.73,65.61,32.76C65.37,32.76,65.09,32.82,64.82,32.84C64.54,32.84,64.27,32.9,63.99,32.95C63.44,33.04,62.86,33.15,62.28,33.28C61.7,33.45,61.12,33.62,60.54,33.84C60.27,33.95,59.96,34.05,59.69,34.19C59.41,34.3,59.14,34.47,58.86,34.6C56.69,35.81,54.89,37.66,53.54,39.17C53.21,39.55,52.9,39.91,52.63,40.24C52.35,40.57,52.11,40.88,51.93,41.12C51.74,41.37,51.59,41.56,51.47,41.7C51.38,41.84,51.31,41.89,51.31,41.89C51.19,42.3,50.76,42.52,50.37,42.39C49.97,42.25,49.76,41.84,49.88,41.42" fill="none" stroke="#312E2B" stroke-width="2" stroke-linecap="round" stroke-linejoin="round"/><path d="M40.12,41.45C40.12,41.45,40.12,41.34,40.12,41.15C40.12,40.96,40.09,40.66,40.03,40.33C39.97,39.97,39.87,39.53,39.75,39.06C39.6,38.59,39.45,38.04,39.17,37.49C38.93,36.91,38.62,36.34,38.26,35.73C37.89,35.13,37.43,34.52,36.91,33.95C36.39,33.37,35.78,32.79,35.14,32.3C34.47,31.8,33.76,31.33,33,30.98C32.24,30.59,31.47,30.29,30.68,30.07C29.88,29.85,29.09,29.71,28.33,29.63C27.56,29.57,26.83,29.57,26.13,29.63C25.79,29.63,25.45,29.68,25.12,29.74C24.81,29.79,24.48,29.82,24.2,29.9C23.04,30.18,22.12,30.51,21.51,30.78C20.9,31.06,20.57,31.25,20.57,31.25C20.2,31.44,20.05,31.94,20.23,32.3C20.35,32.57,20.63,32.71,20.87,32.71L20.93,32.71C20.93,32.71,21.3,32.71,21.91,32.71C22.22,32.71,22.58,32.71,23.01,32.71C23.44,32.71,23.9,32.73,24.42,32.76C24.66,32.76,24.93,32.82,25.21,32.84C25.48,32.84,25.76,32.9,26.03,32.95C26.58,33.04,27.17,33.15,27.75,33.28C28.33,33.45,28.91,33.62,29.49,33.84C29.76,33.95,30.07,34.05,30.34,34.19C30.62,34.3,30.89,34.47,31.17,34.6C33.34,35.81,35.14,37.66,36.48,39.17C36.82,39.55,37.12,39.91,37.4,40.24C37.67,40.57,37.92,40.88,38.1,41.12C38.29,41.37,38.44,41.56,38.56,41.7C38.65,41.84,38.71,41.89,38.71,41.89C38.84,42.3,39.26,42.52,39.66,42.39C40.06,42.25,40.27,41.84,40.15,41.42" fill="none" stroke="#312E2B" stroke-width="2" stroke-linecap="round" stroke-linejoin="round"/><path d="M28.77,64.35C28.38,64.81,28.43,65.53,28.91,65.91C29.22,66.14,29.64,66.18,29.99,66.03C34.28,64.15,40.85,64,45,64C49.15,64,55.72,64.15,60.01,66.03C60.37,66.18,60.78,66.14,61.09,65.91C61.57,65.53,61.62,64.82,61.22,64.35C58.4,60.99,54.23,54.04,45.02,54.04C35.8,54.04,31.6,60.99,28.77,64.35Z" fill="#FCE26A"/><path d="M27.63,63.97C27.24,64.47,27.24,65.16,27.6,65.68C28.09,66.4,29.08,66.55,29.8,66.06C34.99,62.58,40.77,61.69,45,61.69C49.23,61.69,55.01,62.58,60.2,66.07C60.92,66.55,61.91,66.4,62.4,65.68C62.76,65.16,62.76,64.47,62.36,63.97C58.29,58.85,51.89,56,45.02,56C38.14,56,31.7,58.85,27.63,63.97Z" fill="#312E2B"/></svg>