<svg xmlns="http://www.w3.org/2000/svg" viewBox="0 0 90 90"><path d="M83.73,36.38C85.4,36.93,86.83,38.12,87.05,39.86C87.92,46.68,84.25,59.76,79.82,67.08C78.55,69.18,75.99,69.9,73.63,69.26L71.48,68.69C65.08,66.97,50.45,71.1,38.8,67.98L22.59,63.64C16.24,61.94,15.92,56.17,18.46,51.38C12.67,44.8,14.94,39.07,18.86,36.17C13.55,32.55,15.69,22.3,22.55,22.4C22.31,15.82,26.24,11.11,33.19,12.97L41.41,15.18L43.81,12.76C46.12,10.43,49.6,9.69,52.66,10.89L60.42,13.94C63.46,15.13,66.07,17.2,67.93,19.88L78.1,34.53Z" fill="#F7C631"/><path d="M62.86,30.77C59.34,30.87,58.37,30.42,56.1,29.82C53.75,36.36,52.08,43.24,60.45,47.76L60.32,48.27C50.93,45.75,47.93,50.17,46.87,54.27C43.3,68.05,63.8,68.08,70.08,56.31L69.53,62.66L72.96,63.58C77.03,64.67,81.26,62.52,82.77,58.59L86.39,49.15C85.16,55.39,82.65,62.41,79.82,67.08C78.55,69.18,75.99,69.9,73.63,69.26L71.48,68.69C65.08,66.97,50.45,71.1,38.8,67.98L22.59,63.64C19.52,62.81,17.86,61.04,17.25,58.88L17.95,56.9L18.59,50.79L16.64,47.79C14.62,44.69,14.91,40.63,17.35,37.86L18.79,36.23C18.81,36.21,18.84,36.19,18.86,36.17C18.85,36.17,18.85,36.17,18.85,36.16L19.12,35.85L18.72,35.15C16.33,31.09,17.84,25.85,22.02,23.68L22.27,23.55C23.08,23.13,24.02,23.03,24.9,23.26L40.21,27.28C42.73,27.95,45.42,27.37,47.45,25.74L53.17,21.14C53.83,25.01,56.15,28.05,62.86,30.77Z" fill="#CF8D1B" opacity="0.75"/><path d="M23.37,37.05C21.13,36.52,18.78,37.2,17.17,38.83L17.05,38.96C15.15,40.88,14.68,43.8,15.88,46.23C16.88,48.26,18.9,49.59,21.16,49.74L36.85,50.73C42.36,51.17,45.05,42.33,39.5,40.84Z" fill="#F7C631"/><path d="M22.58,50.64C20.31,50.38,18.17,51.77,17.49,53.95C17.18,54.95,17.2,56.02,17.56,57C18.25,58.93,20.09,60.21,22.14,60.18L26.26,60.12L33.79,60.02C38.4,60.19,39.79,53.05,35.08,52.07Z" fill="#F7C631"/><path d="M42.62,29.89C35.91,27.71,30.57,26.05,24.13,23.97C22.74,23.52,21.23,23.6,19.9,24.2C16.81,25.6,15.55,29.33,17.16,32.32L17.32,32.63C18.22,34.3,19.85,35.47,21.72,35.79L39.57,38.87C45.07,40.35,48.12,31.78,42.62,29.89Z" fill="#F7C631"/><path d="M42.81,29.18C36.11,27,30.63,25.92,24.18,23.96C22.75,23.53,21.21,23.61,19.85,24.23C16.78,25.62,15.46,29.3,16.98,32.31C17.81,33.96,19.37,35.13,21.18,35.46L39.57,38.87C45.07,40.35,48.31,31.07,42.81,29.18Z" fill="#F7C631"/><path d="M35.01,24.76L39.13,30.06L44.11,25.92L40.22,19.45Z" fill="#F7C631"/><path d="M38.04,47.94L37.09,48.9C36.78,49.22,36.33,49.34,35.9,49.22L34.51,48.85L35.21,48.34C37.38,46.77,38.02,43.82,36.7,41.49L38.01,41.85C38.22,41.9,38.39,42.02,38.51,42.2C39.77,43.97,39.57,46.39,38.04,47.94Z" fill="#FAD541"/><path d="M34.51,57.89L33.73,58.54C33.48,58.75,33.14,58.82,32.82,58.74L31.64,58.42L32.04,58.19C34.14,56.99,34.84,54.29,33.59,52.21L34.7,52.32C34.94,52.34,35.15,52.47,35.28,52.67C36.4,54.35,36.07,56.61,34.51,57.89Z" fill="#FAD541"/><path d="M40.49,37.7C40.24,37.85,39.93,37.87,39.67,37.75L38.36,37.15C40.72,36.06,41.63,33.16,40.29,30.93L39.93,30.33L41.04,30.62C41.22,30.67,41.39,30.77,41.51,30.92L41.62,31.05C43.37,33.14,42.84,36.31,40.49,37.7Z" fill="#FAD541"/><path d="M43.79,13.14L35.8,22.03C32.99,25.16,33.8,30.09,37.46,32.16C39.22,33.16,41.37,33.33,43.22,32.49C46.19,31.14,48.73,29.58,49.85,26.8C52.39,24.39,54.87,23.48,56,19.27Z" fill="#D99B21"/><path d="M44.84,11.9L35.15,22.38C34.31,23.29,33.75,24.52,34.12,25.71C35.92,31.59,45.83,33.2,48.25,24.16C51.55,23.65,54,21.81,56.45,18.93Z" fill="#F7C631"/><path d="M40.18,27.8C40.12,28.35,39.63,28.74,39.09,28.68L37.35,28.46C35.85,28.27,34.61,27.23,34.14,25.78L34.13,25.75C33.98,25.28,34.09,24.77,34.41,24.4C35.42,26.15,37.15,27.33,39.13,27.64Z" fill="#FAD541"/><path d="M67.93,19.88L78.1,34.53L83.73,36.38C85.4,36.93,86.83,38.12,87.05,39.86C87.29,41.73,87.19,44.06,86.82,46.62L86.36,41.84C86.23,40.47,85.26,39.33,83.94,38.98L78.39,37.49L67.65,20.58C66.77,19.19,65.5,18.1,63.99,17.44L57.94,14.81C54.75,13.42,51.03,14.19,48.65,16.73L44.3,21.39C43.35,19.9,41.88,18.83,40.18,18.38L39.18,18.11L41.08,15.74L33.59,13.94C29.71,13.01,25.78,15.32,24.72,19.18L23.77,22.65L30.17,25.63L21.53,24.21C17.91,26.37,17.04,31.22,19.68,34.5L20.36,35.35L28.49,38.28L20.32,37.32L19.64,38.07C16.96,41.06,16.83,45.54,19.33,48.68L20.02,49.55L28.14,51.41L20.21,51.23C17.07,54.59,17.31,59.87,20.73,62.94C16.21,60.69,16.2,55.65,18.46,51.38C12.67,44.8,14.94,39.07,18.86,36.17C13.55,32.55,15.69,22.3,22.55,22.4C22.31,15.82,26.24,11.11,33.19,12.97L41.41,15.18L43.81,12.76C45.65,10.89,48.25,10.05,50.78,10.4L52.76,10.93L60.42,13.94C63.46,15.13,66.07,17.2,67.93,19.88Z" fill="#FAD541"/><path d="M8.68,48.69L7.98,55.81C7.49,60.86,8.03,65.96,9.56,70.79L11.72,77.61C0.09,72.23,-1.58,56.38,8.68,48.69Z" fill="#009FD9" opacity="0.77"/><path d="M16.46,70.22L18.67,71.93C23.44,75.62,29.03,78.11,34.97,79.19L37.71,79.68C29.44,86.49,16.94,80.93,16.46,70.22Z" fill="#009FD9" opacity="0.77"/></svg>