<svg xmlns="http://www.w3.org/2000/svg" viewBox="0 0 90 90"><path d="M88,45C88,21.25,68.75,2,45,2C21.25,2,2,21.25,2,45C2,68.75,21.25,88,45,88C68.75,88,88,68.75,88,45Z" fill="#F7C631"/><path d="M88,45C88,68.75,68.75,88,45,88C35.3,88,26.35,84.79,19.16,79.37C23.78,81.07,28.78,82,34,82C57.75,82,77,62.75,77,39C77,24.95,70.26,12.48,59.84,4.63C76.28,10.68,88,26.47,88,45Z" fill="#CF8D1B" opacity="0.5"/><path d="M88,45C88,68.75,68.75,88,45,88C44.5,88,44,87.99,43.5,87.97C66.55,87.18,85,68.25,85,45C85,21.75,66.55,2.82,43.5,2.03C44,2.01,44.5,2,45,2C68.75,2,88,21.25,88,45Z" fill="#FAD541"/><path d="M2.31,39.84C4.77,19.31,21.69,3.22,42.59,2.07C23.37,6.97,8.3,21.38,2.31,39.84Z" fill="#FFFFC7"/><path d="M30.44,41.08C26.91,41.08,24,38.24,24,34.23C24,29.02,26.88,24.77,30.44,24.77C34.01,24.77,36.85,29.02,36.85,34.23C36.85,38.24,33.97,41.08,30.44,41.08Z" fill="#FCE26A"/><path d="M59.44,41.08C55.91,41.08,53,38.24,53,34.23C53,29.02,55.88,24.77,59.44,24.77C63.01,24.77,65.85,29.02,65.85,34.23C65.85,38.24,62.97,41.08,59.44,41.08Z" fill="#FCE26A"/><path d="M30.44,39.08C27.46,39.08,25,34.84,25,30.85C25,26.86,27.43,23.62,30.44,23.62C33.45,23.62,35.85,26.86,35.85,30.85C35.85,34.84,33.42,39.08,30.44,39.08Z" fill="#312E2B"/><path d="M59.59,39.08C56.61,39.08,54.18,34.84,54.18,30.85C54.18,26.86,56.61,23.62,59.59,23.62C62.57,23.62,65,26.86,65,30.85C65,34.84,62.57,39.08,59.59,39.08Z" fill="#312E2B"/><path d="M30.65,72.41C24.88,72.41,20.23,67.78,20.23,62.09C20.23,56.4,24.91,51.78,30.65,51.78L59.35,51.78C65.12,51.78,69.77,56.4,69.77,62.09C69.77,67.78,65.09,72.41,59.35,72.41Z" fill="#FCE26A"/><path d="M30.07,69.63C24.07,69.63,19.23,65,19.23,59.31C19.23,53.62,24.1,49,30.07,49L59.93,49C65.93,49,70.77,53.62,70.77,59.31C70.77,65,65.9,69.63,59.93,69.63Z" fill="#312E2B"/><path d="M26.96,51.61C26.96,55.85,30.43,59.29,34.72,59.29L55.31,59.29C59.6,59.29,63.07,55.85,63.07,51.61C63.07,51.61,63.07,51.59,63.07,51.56L26.99,51.56L26.96,51.56C26.96,51.56,26.96,51.59,26.96,51.61Z" fill="#F8F8F8"/></svg>