<svg xmlns="http://www.w3.org/2000/svg" viewBox="0 0 90 90"><path d="M89,46C89,69.75,69.75,89,46,89C22.25,89,3,69.75,3,46C3,22.25,22.25,3,46,3C69.75,3,89,22.25,89,46Z" fill="currentColor"/><path d="M89,46C89,22.25,69.75,3,46,3C36.3,3,27.35,6.21,20.16,11.63C24.78,9.93,29.78,9,35,9C58.75,9,78,28.25,78,52C78,66.05,71.26,78.52,60.84,86.37C77.28,80.33,89,64.53,89,46Z" fill="currentColor" opacity="0.5"/><path d="M89,46C89,22.25,69.75,3,46,3C45.5,3,45,3.01,44.5,3.03C67.55,3.82,86,22.75,86,46C86,69.25,67.55,88.18,44.5,88.97C45,88.99,45.5,89,46,89C69.75,89,89,69.75,89,46Z" fill="currentColor"/><path d="M3.31,51.16C5.77,71.69,22.69,87.78,43.59,88.93C24.37,84.03,9.3,69.62,3.31,51.16Z" fill="currentColor"/><path d="M31.44,47.55C27.91,47.55,25,50.38,25,54.39C25,59.61,27.88,63.85,31.44,63.85C35.01,63.85,37.85,59.61,37.85,54.39C37.85,50.38,34.97,47.55,31.44,47.55Z" fill="currentColor"/><path d="M60.44,47.55C56.91,47.55,54,50.38,54,54.39C54,59.61,56.88,63.85,60.44,63.85C64.01,63.85,66.85,59.61,66.85,54.39C66.85,50.38,63.97,47.55,60.44,47.55Z" fill="currentColor"/><path d="M31.44,49.55C28.46,49.55,26,53.79,26,57.77C26,61.76,28.43,65,31.44,65C34.45,65,36.85,61.76,36.85,57.77C36.85,53.79,34.42,49.55,31.44,49.55Z" fill="currentColor"/><path d="M60.59,49.55C57.61,49.55,55.18,53.79,55.18,57.77C55.18,61.76,57.61,65,60.59,65C63.57,65,66,61.76,66,57.77C66,53.79,63.57,49.55,60.59,49.55Z" fill="currentColor"/><path d="M21.21,38C22.42,26.14,30.78,16.38,45.47,16.38C60.15,16.38,68.53,26.18,69.78,37.99C69.96,39.64,68.59,41,66.93,41L24.06,41C22.4,41,21.04,39.65,21.21,38Z" fill="currentColor"/><path d="M20.5,37.73C25.94,12.34,64.94,12.42,70.49,37.73C70.87,39.46,69.47,41,67.69,41L23.29,41C21.53,41,20.13,39.46,20.5,37.73Z" fill="currentColor"/><path d="M33.26,20.76L33.26,31.48L46,33.48L58.74,31.48L58.74,20.53C58.65,13.67,52.77,8.18,45.8,8.25C38.8,8.34,33.19,13.94,33.26,20.76Z" fill="currentColor"/><path d="M33.26,20.76L33.26,29.08L33.79,22.78C34.32,16.43,39.63,11.55,46,11.55C52.37,11.55,57.68,16.43,58.21,22.78L58.74,29.08L58.74,20.53C58.65,13.67,52.77,8.18,45.8,8.25C38.8,8.34,33.19,13.94,33.26,20.76Z" fill="currentColor"/><path d="M53.95,32.29C48.39,32.32,48.13,29.97,46.06,30.01C44.08,30.05,43.96,32.32,38.64,32.32C37.08,32.34,35.31,30.97,33.26,29.85L33.26,33.88C33.26,34.59,33.59,35.26,34.15,35.69C37.44,38.28,41.99,38.52,45.54,36.29L46,36L46.46,36.29C50.01,38.52,54.57,38.28,57.86,35.69C58.41,35.26,58.74,34.59,58.74,33.88L58.74,29.85C56.91,30.86,55.34,32.25,53.95,32.29Z" fill="currentColor"/></svg>