<svg xmlns="http://www.w3.org/2000/svg" viewBox="0 0 90 90"><path d="M88,45C88,21.25,68.75,2,45,2C21.25,2,2,21.25,2,45C2,68.75,21.25,88,45,88C68.75,88,88,68.75,88,45Z" fill="currentColor"/><path d="M88,45C88,68.75,68.75,88,45,88C35.3,88,26.35,84.79,19.16,79.37C23.78,81.07,28.78,82,34,82C57.75,82,77,62.75,77,39C77,24.95,70.26,12.48,59.84,4.63C76.28,10.68,88,26.47,88,45Z" fill="currentColor" opacity="0.5"/><path d="M88,45C88,68.75,68.75,88,45,88C44.5,88,44,87.99,43.5,87.97C66.55,87.18,85,68.25,85,45C85,21.75,66.55,2.82,43.5,2.03C44,2.01,44.5,2,45,2C68.75,2,88,21.25,88,45Z" fill="currentColor"/><path d="M2.31,39.84C4.77,19.31,21.69,3.22,42.59,2.07C23.37,6.97,8.3,21.38,2.31,39.84Z" fill="currentColor"/><path d="M53.94,43.62C53.94,40.19,57.4,43.62,61.66,43.62C65.93,43.62,69.39,40.19,69.39,43.62C69.39,47.06,65.93,49.84,61.66,49.84C57.4,49.84,53.94,47.06,53.94,43.62Z" fill="currentColor"/><path d="M36.06,43.62C36.06,47.06,32.6,49.84,28.34,49.84C24.07,49.84,20.61,47.06,20.61,43.62C20.61,40.19,24.07,43.62,28.34,43.62C32.6,43.62,36.06,40.19,36.06,43.62Z" fill="currentColor"/><path d="M44.97,61.16C47.81,61.16,50.12,63.47,50.12,66.33C50.12,69.19,47.81,71.48,44.97,71.48C42.14,71.48,39.83,69.17,39.83,66.33C39.83,63.47,42.14,61.16,44.97,61.16Z" fill="currentColor"/><path d="M44.97,59.16C47.81,59.16,50.12,61.47,50.12,64.33C50.12,67.19,47.81,69.48,44.97,69.48C42.14,69.48,39.83,67.17,39.83,64.33C39.83,61.47,42.14,59.16,44.97,59.16Z" fill="currentColor"/><path d="M83.9,26.66L75.36,36.34L87.13,36.34C87.57,38.5,87.85,40.72,87.95,42.98L65.16,42.98L65.16,36.41L78.64,21.03L66.19,21L66.19,14.42L75.23,14.42C78.79,17.94,81.74,22.08,83.9,26.66Z" fill="currentColor"/><path d="M39.42,26.9L46.05,26.9L46.05,29.9L34.83,29.9L34.83,26.93L40.91,19.97L35.27,19.97L35.27,17L45.67,17L45.67,19.8Z" fill="currentColor"/><path d="M63.27,6.06L63.27,6.93L54.52,16.86L63.79,16.86L63.79,21.07L48.09,21.07L48.09,16.91L56.61,7.18L48.72,7.18L48.72,3L54.24,3C57.39,3.69,60.42,4.72,63.27,6.06Z" fill="currentColor"/><path d="M75.36,33.34L90,33.34L90,39.98L65.16,39.98L65.16,33.41L78.64,18.03L66.19,18L66.19,11.42L89.21,11.42L89.21,17.63Z" fill="currentColor"/><path d="M39.42,23.9L46.05,23.9L46.05,26.9L34.83,26.9L34.83,23.93L40.91,16.97L35.27,16.97L35.27,14L45.67,14L45.67,16.8Z" fill="currentColor"/><path d="M54.52,13.86L63.79,13.86L63.79,18.07L48.09,18.07L48.09,13.91L56.61,4.18L48.72,4.18L48.72,0L63.27,0L63.27,3.93Z" fill="currentColor"/></svg>