<svg xmlns="http://www.w3.org/2000/svg" viewBox="0 0 90 90"><path d="M89,46C89,69.75,69.75,89,46,89C22.25,89,3,69.75,3,46C3,22.25,22.25,3,46,3C69.75,3,89,22.25,89,46Z" fill="currentColor"/><path d="M89,46C89,22.25,69.75,3,46,3C36.3,3,27.35,6.21,20.16,11.63C24.78,9.93,29.78,9,35,9C58.75,9,78,28.25,78,52C78,66.05,71.26,78.52,60.84,86.37C77.28,80.33,89,64.53,89,46Z" fill="currentColor" opacity="0.5"/><path d="M89,46C89,22.25,69.75,3,46,3C45.5,3,45,3.01,44.5,3.03C67.55,3.82,86,22.75,86,46C86,69.25,67.55,88.18,44.5,88.97C45,88.99,45.5,89,46,89C69.75,89,89,69.75,89,46Z" fill="currentColor"/><path d="M3.31,51.16C5.77,71.69,22.69,87.78,43.59,88.93C24.37,84.03,9.3,69.62,3.31,51.16Z" fill="currentColor"/><path d="M18.17,29.8L23.19,32.99L28.7,28L34.59,32.99L40.23,26.8L46,32.99L51.77,26.8L57.41,32.99L63.3,28L68.81,32.99L73.83,29.8" fill="currentColor"/><path d="M18.17,29.8L23.19,32.99L28.7,28L34.59,32.99L40.23,26.8L46,32.99L51.77,26.8L57.41,32.99L63.3,28L68.81,32.99L73.83,29.8" fill="none" stroke="currentColor" stroke-width="4" stroke-linecap="round" stroke-linejoin="round"/><path d="M18.17,25.73L23.19,31.06L28.7,22.73L34.59,31.06L40.23,20.73L46,31.06L51.77,20.73L57.41,31.06L63.3,22.73L68.81,31.06L73.83,25.73" fill="currentColor"/><path d="M18.17,25.73L23.19,31.06L28.7,22.73L34.59,31.06L40.23,20.73L46,31.06L51.77,20.73L57.41,31.06L63.3,22.73L68.81,31.06L73.83,25.73" fill="none" stroke="currentColor" stroke-width="4" stroke-linecap="round" stroke-linejoin="round"/><path d="M29.11,60.69C28.29,61.59,26.91,61.59,26.09,60.69C25.27,59.78,25.27,58.32,26.09,57.44L30.82,52.35L26.09,47.27C25.27,46.36,25.27,44.9,26.09,43.99C26.94,43.09,28.29,43.09,29.11,43.99L35.16,50.51C35.63,51.01,35.8,51.69,35.74,52.35C35.8,53.01,35.63,53.67,35.16,54.17Z" fill="currentColor"/><path d="M60.47,60.69C61.29,61.59,62.66,61.59,63.49,60.69C64.31,59.78,64.31,58.32,63.49,57.44L58.76,52.35L63.49,47.27C64.31,46.36,64.31,44.9,63.49,43.99C62.66,43.09,61.29,43.09,60.47,43.99L54.41,50.51C53.95,51.01,53.78,51.69,53.84,52.35C53.78,53.01,53.98,53.67,54.41,54.17Z" fill="currentColor"/></svg>