<svg xmlns="http://www.w3.org/2000/svg" viewBox="0 0 90 90"><path d="M88,45C88,21.25,68.75,2,45,2C21.25,2,2,21.25,2,45C2,68.75,21.25,88,45,88C68.75,88,88,68.75,88,45Z" fill="currentColor"/><path d="M88,45C88,68.75,68.75,88,45,88C35.3,88,26.35,84.79,19.16,79.37C23.78,81.07,28.78,82,34,82C57.75,82,77,62.75,77,39C77,24.95,70.26,12.48,59.84,4.63C76.28,10.68,88,26.47,88,45Z" fill="currentColor" opacity="0.5"/><path d="M88,45C88,68.75,68.75,88,45,88C44.5,88,44,87.99,43.5,87.97C66.55,87.18,85,68.25,85,45C85,21.75,66.55,2.82,43.5,2.03C44,2.01,44.5,2,45,2C68.75,2,88,21.25,88,45Z" fill="currentColor"/><path d="M2.31,39.84C4.77,19.31,21.69,3.22,42.59,2.07C23.37,6.97,8.3,21.38,2.31,39.84Z" fill="currentColor"/><path d="M28.93,51C25.13,51,22,48.56,22,45.12C22,40.63,25.1,36.99,28.93,36.99C32.76,36.99,35.82,40.63,35.82,45.12C35.82,48.56,32.73,51,28.93,51Z" fill="currentColor"/><path d="M60.11,51C56.31,51,53.18,48.56,53.18,45.12C53.18,40.63,56.28,36.99,60.11,36.99C63.94,36.99,67,40.63,67,45.12C67,48.56,63.9,51,60.11,51Z" fill="currentColor"/><path d="M28.93,49.28C25.72,49.28,23.08,45.64,23.08,42.21C23.08,38.78,25.69,36,28.93,36C32.16,36,34.75,38.78,34.75,42.21C34.75,45.64,32.13,49.28,28.93,49.28Z" fill="currentColor"/><path d="M60.27,49.28C57.06,49.28,54.45,45.64,54.45,42.21C54.45,38.78,57.06,36,60.27,36C63.47,36,66.09,38.78,66.09,42.21C66.09,45.64,63.47,49.28,60.27,49.28Z" fill="currentColor"/><path d="M84.66,31.63L84.66,52.03C83.92,41.58,75.27,33.46,64.8,33.37L56.04,33.3L56.04,31.63Z" fill="currentColor"/><path d="M5.04,31.63L5.04,52.03C5.78,41.58,14.43,33.46,24.91,33.37L33.66,33.3L33.66,31.63Z" fill="currentColor"/><path d="M69.52,62.54C77.33,62.54,84.08,57.99,87.54,51.32C87.1,54.3,86.35,57.19,85.33,59.94C81.58,64.58,75.9,67.54,69.52,67.54C58.52,67.54,49.6,58.73,49.06,47.69L40.97,47.69C40.43,58.73,31.51,67.54,20.51,67.54C14.1,67.54,8.39,64.55,4.64,59.87C3.63,57.12,2.89,54.23,2.46,51.25C5.9,57.96,12.67,62.54,20.51,62.54C31.89,62.54,41,52.89,41,41.08L41,39.9L49.03,39.9L49.03,41.08C49.03,52.89,58.14,62.54,69.52,62.54Z" fill="currentColor"/><path d="M69.01,55.16C69.17,55.17,69.34,55.18,69.5,55.18C75.85,55.18,81,49.93,81,42.35L81,31.61L78.94,31.61L78.94,42.27C78.94,48.46,74.72,53.66,69.01,55.16Z" fill="currentColor" opacity="0.5"/><path d="M20.99,55.16C20.83,55.17,20.66,55.18,20.5,55.18C14.15,55.18,9,49.93,9,42.35L9,31.61L11.06,31.61L11.06,42.27C11.06,48.46,15.28,53.66,20.99,55.16Z" fill="currentColor" opacity="0.5"/><path d="M2.16,29.75C2.16,27.05,4.35,24.86,7.05,24.86L32.72,24.86L9.4,25.77C6.46,25.88,4.03,28.06,3.59,30.97L2.16,40.55Z" fill="currentColor"/><path d="M87.87,29.75C87.87,27.05,85.68,24.86,82.98,24.86L57.31,24.86L80.63,25.77C83.56,25.88,86,28.06,86.44,30.97L87.87,40.55Z" fill="currentColor"/><path d="M40.96,30.41L40.96,30.72L48.99,30.72L48.99,30.41C48.99,26.68,51.88,23.57,55.55,23.57L84.1,23.57C87.4,23.57,90.01,26.36,90.01,29.73L90.01,42.08C90.01,53.89,80.9,63.54,69.52,63.54C58.14,63.54,49.03,53.89,49.03,42.08L49.03,40.9L41,40.9L41,42.08C41,53.89,31.89,63.54,20.5,63.54C9.12,63.54,0.01,53.89,0.01,42.08L0.01,29.73C0.01,26.36,2.63,23.57,5.93,23.57L34.39,23.57C38.06,23.57,40.96,26.68,40.96,30.41Z" fill="currentColor"/><path d="M9,42.35C9,49.93,14.15,55.18,20.5,55.18C26.85,55.18,32,49.93,32,42.35L32,31.61L9,31.61Z" fill="currentColor"/><path d="M58,42.35C58,49.93,63.15,55.18,69.5,55.18C75.85,55.18,81,49.93,81,42.35L81,31.61L58,31.61Z" fill="currentColor"/><path d="M0.01,29.07C0.01,26.03,2.48,23.57,5.52,23.57L34.4,23.57L8.16,24.58C4.86,24.71,2.12,27.17,1.63,30.44L0.01,41.22Z" fill="currentColor"/><path d="M90.01,29.07C90.01,26.03,87.55,23.57,84.51,23.57L55.63,23.57L81.87,24.58C85.17,24.71,87.91,27.17,88.4,30.44L90.01,41.22Z" fill="currentColor"/><path d="M56.4,66.69C56.4,61.38,51.33,66.69,45.09,66.69C38.84,66.69,33.77,61.38,33.77,66.69C33.77,72,38.84,76.52,45.09,76.52C51.33,76.52,56.4,72,56.4,66.69Z" fill="currentColor"/><path d="M56.4,66.3C56.4,61.86,51.33,66.3,45.09,66.3C38.84,66.3,33.77,61.86,33.77,66.3C33.77,70.74,38.84,74.52,45.09,74.52C51.33,74.52,56.4,70.74,56.4,66.3Z" fill="currentColor"/><path d="M44.88,69.88C41.04,69.84,39.53,68.33,39.53,65.38L39.53,65.36C41.17,65.84,43.07,66.3,45.09,66.3C47.1,66.3,49,65.84,50.64,65.36L50.64,65.38C50.64,68.43,48.73,69.92,44.88,69.88Z" fill="currentColor"/></svg>