<svg xmlns="http://www.w3.org/2000/svg" viewBox="0 0 90 90"><path d="M88,45C88,21.25,68.75,2,45,2C21.25,2,2,21.25,2,45C2,68.75,21.25,88,45,88C68.75,88,88,68.75,88,45Z" fill="#F7C631"/><path d="M88,45C88,68.75,68.75,88,45,88C35.3,88,26.35,84.79,19.16,79.37C23.78,81.07,28.78,82,34,82C57.75,82,77,62.75,77,39C77,24.95,70.26,12.48,59.84,4.63C76.28,10.68,88,26.47,88,45Z" fill="#CF8D1B" opacity="0.5"/><path d="M88,45C88,68.75,68.75,88,45,88C44.5,88,44,87.99,43.5,87.97C66.55,87.18,85,68.25,85,45C85,21.75,66.55,2.82,43.5,2.03C44,2.01,44.5,2,45,2C68.75,2,88,21.25,88,45Z" fill="#FAD541"/><path d="M2.31,39.84C4.77,19.31,21.69,3.22,42.59,2.07C23.37,6.97,8.3,21.38,2.31,39.84Z" fill="#FFFFC7"/><path d="M30.44,41.08C26.91,41.08,24,38.24,24,34.23C24,29.02,26.88,24.77,30.44,24.77C34.01,24.77,36.85,29.02,36.85,34.23C36.85,38.24,33.97,41.08,30.44,41.08Z" fill="#FCE26A"/><path d="M59.44,41.08C55.91,41.08,53,38.24,53,34.23C53,29.02,55.88,24.77,59.44,24.77C63.01,24.77,65.85,29.02,65.85,34.23C65.85,38.24,62.97,41.08,59.44,41.08Z" fill="#FCE26A"/><path d="M30.44,39.08C27.46,39.08,25,34.84,25,30.85C25,26.86,27.43,23.62,30.44,23.62C33.45,23.62,35.85,26.86,35.85,30.85C35.85,34.84,33.42,39.08,30.44,39.08Z" fill="#312E2B"/><path d="M59.59,39.08C56.61,39.08,54.18,34.84,54.18,30.85C54.18,26.86,56.61,23.62,59.59,23.62C62.57,23.62,65,26.86,65,30.85C65,34.84,62.57,39.08,59.59,39.08Z" fill="#312E2B"/><path d="M20.23,53C21.47,64.86,29.99,74.63,44.97,74.63C59.94,74.63,68.48,64.82,69.76,53.01C69.94,51.36,68.57,50,66.91,50L23.08,50C21.42,50,20.06,51.35,20.23,53Z" fill="#FCE26A"/><path d="M19.51,53.27C25.06,78.65,64.82,78.58,70.48,53.28C70.86,51.55,69.46,50,67.69,50L22.3,50C20.53,50,19.13,51.54,19.51,53.27Z" fill="#312E2B"/><path d="M44.56,61.22C40.33,61.22,36.56,62.01,34.25,65.06C37.3,66.89,41,67.73,44.53,67.73C48.26,67.73,51.56,66.68,54.85,65.04L54.87,65.04C52.54,61.98,48.8,61.22,44.56,61.22Z" fill="#FF788A"/><path d="M73.57,53.16C77.46,48.67,71.62,41.24,65.87,44.64C71.11,44.71,73.57,48.06,73.57,53.16Z" fill="#CF8D1B"/><path d="M16.43,53.16C12.54,48.67,18.38,41.24,24.13,44.64C18.89,44.71,16.43,48.06,16.43,53.16Z" fill="#CF8D1B"/></svg>