<svg xmlns="http://www.w3.org/2000/svg" viewBox="0 0 90 90"><path d="M88,45C88,21.25,68.75,2,45,2C21.25,2,2,21.25,2,45C2,68.75,21.25,88,45,88C68.75,88,88,68.75,88,45Z" fill="#F7C631"/><path d="M88,45C88,68.75,68.75,88,45,88C35.3,88,26.35,84.79,19.16,79.37C23.78,81.07,28.78,82,34,82C57.75,82,77,62.75,77,39C77,24.95,70.26,12.48,59.84,4.63C76.28,10.68,88,26.47,88,45Z" fill="#CF8D1B" opacity="0.5"/><path d="M88,45C88,68.75,68.75,88,45,88C44.5,88,44,87.99,43.5,87.97C66.55,87.18,85,68.25,85,45C85,21.75,66.55,2.82,43.5,2.03C44,2.01,44.5,2,45,2C68.75,2,88,21.25,88,45Z" fill="#FAD541"/><path d="M2.31,39.84C4.77,19.31,21.69,3.22,42.59,2.07C23.37,6.97,8.3,21.38,2.31,39.84Z" fill="#FFFFC7"/><path d="M39.28,37.99C39.28,41.42,34.66,37.99,28.97,37.99C23.27,37.99,18.66,41.42,18.66,37.99C18.66,34.55,23.27,31.77,28.97,31.77C34.66,31.77,39.28,34.55,39.28,37.99Z" fill="#312E2B"/><path d="M71.34,37.99C71.34,41.42,66.72,37.99,61.03,37.99C55.34,37.99,50.72,41.42,50.72,37.99C50.72,34.55,55.34,31.77,61.03,31.77C66.72,31.77,71.34,34.55,71.34,37.99Z" fill="#312E2B"/><path d="M48.11,59.16C48.71,58.86,49.26,58.39,49.62,57.87C49.98,57.32,50.17,56.74,50.2,56.08C50.2,55.39,50.01,54.82,49.65,54.29C49.29,53.77,48.71,53.33,47.97,53C47.23,52.67,46.38,52.48,45.47,52.37C45.25,52.37,45,52.34,44.78,52.31L43.98,52.31L42.36,52.23L40.9,52.12C39.94,52.09,39.2,51.3,39.23,50.33C39.25,49.43,39.99,48.68,40.9,48.66L42.36,48.55L43.98,48.49L44.81,48.49C45.11,48.46,45.41,48.49,45.72,48.49C46.95,48.55,48.22,48.74,49.48,49.21C50.75,49.67,52.01,50.47,52.98,51.65C53.94,52.84,54.49,54.38,54.6,55.83C54.71,57.32,54.32,58.91,53.58,60.21C52.09,62.82,49.26,64.5,46.21,64.58L46.16,64.58C44.75,64.61,43.6,63.51,43.57,62.13C43.54,60.73,44.64,59.57,46.02,59.55C46.07,59.55,46.16,59.55,46.21,59.55L46.21,59.57C46.84,59.6,47.5,59.46,48.11,59.16Z" fill="#312E2B"/><path d="M48.11,64.91C48.71,65.21,49.26,65.68,49.62,66.2C49.98,66.75,50.17,67.33,50.2,67.99C50.2,68.68,50.01,69.25,49.65,69.78C49.29,70.3,48.71,70.74,47.97,71.07C47.23,71.4,46.38,71.59,45.47,71.7C45.25,71.7,45,71.73,44.78,71.76L43.98,71.76L42.36,71.84L40.9,71.95C39.94,71.98,39.2,72.77,39.23,73.74C39.25,74.64,39.99,75.39,40.9,75.41L42.36,75.53L43.98,75.58L44.81,75.58C45.11,75.61,45.41,75.58,45.72,75.58C46.95,75.53,48.22,75.33,49.48,74.86C50.75,74.4,52.01,73.6,52.98,72.42C53.94,71.23,54.49,69.69,54.6,68.24C54.71,66.75,54.32,65.16,53.58,63.86C52.09,61.25,49.26,59.57,46.21,59.49L46.16,59.49C44.75,59.46,43.6,60.56,43.57,61.94C43.54,63.34,44.64,64.5,46.02,64.52C46.07,64.52,46.16,64.52,46.21,64.52L46.21,64.5C46.84,64.47,47.5,64.61,48.11,64.91Z" fill="#312E2B"/><path d="M90,67.88C90,74.2,81.51,81.98,76.18,87.03C75.6,87.59,74.68,87.9,73.89,87.99L73.56,88.01L73.25,87.99C72.52,87.9,71.71,87.59,71.16,87.03C66.08,81.98,58,74.2,58,67.88C58,58.7,67.94,53.93,73.56,61.79C79.36,54.08,90,58.35,90,67.88Z" fill="#ED2456"/><path d="M90,67.88C90,74.2,81.51,81.98,76.18,87.03C75.6,87.59,74.68,87.9,73.89,87.99L73.56,88.01L73.25,87.99C72.52,87.9,71.71,87.59,71.16,87.03C66.94,82.84,60.65,76.76,58.64,71.2L71.22,83.34C72.36,84.44,74.22,84.29,75.3,83.14C79.46,78.72,86.33,73.04,86.5,67.03C86.63,62.39,84.5,59.08,81.57,57.83C86,58.17,90,62.04,90,67.88Z" fill="#940C45"/><path d="M67.74,57.91C67.94,57.94,68.14,57.98,68.34,58.02C68.68,58.1,69.02,58.21,69.36,58.34C70.86,58.93,72.3,60.04,73.54,61.76C73.5,62.71,73.33,63.81,73.01,65.06C71.96,60.95,68.48,57.51,63.61,58.47C63.7,58.43,63.79,58.4,63.88,58.36C63.99,58.32,64.1,58.27,64.22,58.23C64.41,58.17,64.59,58.12,64.78,58.07C65.22,57.95,65.67,57.88,66.12,57.84C66.43,57.82,66.74,57.82,67.05,57.84C67.28,57.85,67.51,57.87,67.74,57.91Z" fill="#940C45"/></svg>