<svg xmlns="http://www.w3.org/2000/svg" viewBox="0 0 90 90"><path d="M89,46C89,69.75,69.75,89,46,89C22.25,89,3,69.75,3,46C3,22.25,22.25,3,46,3C69.75,3,89,22.25,89,46Z" fill="currentColor"/><path d="M89,46C89,22.25,69.75,3,46,3C36.3,3,27.35,6.21,20.16,11.63C24.78,9.93,29.78,9,35,9C58.75,9,78,28.25,78,52C78,66.05,71.26,78.52,60.84,86.37C77.28,80.33,89,64.53,89,46Z" fill="currentColor" opacity="0.5"/><path d="M89,46C89,22.25,69.75,3,46,3C45.5,3,45,3.01,44.5,3.03C67.55,3.82,86,22.75,86,46C86,69.25,67.55,88.18,44.5,88.97C45,88.99,45.5,89,46,89C69.75,89,89,69.75,89,46Z" fill="currentColor"/><path d="M3.31,51.16C5.77,71.69,22.69,87.78,43.59,88.93C24.37,84.03,9.3,69.62,3.31,51.16Z" fill="currentColor"/><path d="M89,46C89,69.75,69.75,89,46,89C22.25,89,3,69.75,3,46C3,22.25,22.25,3,46,3C69.75,3,89,22.25,89,46Z" fill="currentColor"/><path d="M89,46C89,22.25,69.75,3,46,3C36.3,3,27.35,6.21,20.16,11.63C24.78,9.93,29.78,9,35,9C58.75,9,78,28.25,78,52C78,66.05,71.26,78.52,60.84,86.37C77.28,80.33,89,64.53,89,46Z" fill="currentColor" opacity="0.5"/><path d="M89,46C89,22.25,69.75,3,46,3C45.5,3,45,3.01,44.5,3.03C67.55,3.82,86,22.75,86,46C86,69.25,67.55,88.18,44.5,88.97C45,88.99,45.5,89,46,89C69.75,89,89,69.75,89,46Z" fill="currentColor"/><path d="M3.31,51.16C5.77,71.69,22.69,87.78,43.59,88.93C24.37,84.03,9.3,69.62,3.31,51.16Z" fill="currentColor"/><path d="M22,10.32L22,50.79L32,50.79L32,5.33C28.43,6.56,25.07,8.24,22,10.32Z" fill="currentColor"/><path d="M60,5.33L60,50.79L70,50.79L70,10.32C66.93,8.24,63.57,6.56,60,5.33Z" fill="currentColor"/><path d="M32,9.1L32,5.33C28.43,6.56,25.07,8.25,22,10.32L22,11C25.19,9.99,28.54,9.34,32,9.1Z" fill="currentColor"/><path d="M60,5.33L60,17.01C63.86,19.77,67.24,23.16,70,27.02L70,10.32C66.93,8.24,63.57,6.56,60,5.33Z" fill="currentColor"/><path d="M37.13,50.79C37.13,47.8,32.77,50.79,27.4,50.79C22.03,50.79,17.67,47.8,17.67,50.79C17.67,53.78,22.03,56.2,27.4,56.2C32.77,56.2,37.13,53.78,37.13,50.79Z" fill="currentColor"/><path d="M54.87,50.79C54.87,53.78,59.23,56.2,64.6,56.2C69.97,56.2,74.33,53.78,74.33,50.79C74.33,47.8,69.97,50.79,64.6,50.79C59.23,50.79,54.87,47.8,54.87,50.79Z" fill="currentColor"/><path d="M16.11,59.93C16.08,60.09,16.02,60.31,16,60.59C15.97,60.86,15.94,61.22,15.97,61.63C15.97,62.02,16.02,62.48,16.11,62.98C16.19,63.48,16.33,64,16.52,64.55C16.71,65.1,16.99,65.65,17.29,66.22C17.62,66.78,18,67.35,18.47,67.88C18.94,68.4,19.46,68.89,20.04,69.33C20.62,69.77,21.22,70.19,21.88,70.52C22.52,70.84,23.18,71.12,23.84,71.34C24.5,71.53,25.13,71.7,25.73,71.81C26.04,71.86,26.34,71.89,26.61,71.92C26.89,71.92,27.19,71.97,27.44,71.97C28.51,72,29.36,71.94,29.97,71.84C30.57,71.75,30.9,71.67,30.9,71.67C31.26,71.59,31.51,71.26,31.43,70.93C31.37,70.71,31.18,70.52,30.96,70.46L30.9,70.46C30.9,70.46,30.57,70.35,30.05,70.24C29.77,70.19,29.45,70.1,29.09,69.99C28.7,69.91,28.32,69.77,27.88,69.66C27.66,69.61,27.44,69.53,27.22,69.44C27,69.36,26.75,69.31,26.53,69.19C26.06,69.03,25.59,68.81,25.1,68.59C24.63,68.34,24.16,68.09,23.73,67.79C23.5,67.66,23.29,67.49,23.07,67.33C22.84,67.16,22.65,67,22.43,66.83C20.81,65.45,19.66,63.67,18.83,62.18C18.61,61.83,18.45,61.47,18.28,61.16C18.11,60.86,17.98,60.56,17.87,60.34C17.76,60.12,17.65,59.93,17.59,59.82C17.54,59.71,17.51,59.65,17.51,59.63C17.51,59.3,17.18,59.02,16.8,59.05C16.44,59.05,16.13,59.35,16.16,59.68C16.16,59.68,16.16,59.76,16.11,59.93Z" fill="currentColor"/><path d="M75.84,59.68C75.84,59.68,75.84,59.76,75.89,59.93C75.92,60.09,75.97,60.31,76,60.59C76.03,60.86,76.06,61.22,76.03,61.63C76.03,62.02,75.97,62.48,75.89,62.98C75.81,63.48,75.67,64,75.48,64.55C75.29,65.1,75.01,65.65,74.71,66.22C74.38,66.78,74,67.35,73.53,67.88C73.06,68.4,72.54,68.89,71.96,69.33C71.38,69.77,70.78,70.19,70.12,70.52C69.48,70.84,68.83,71.12,68.17,71.34C67.5,71.53,66.87,71.7,66.27,71.81C65.97,71.86,65.66,71.89,65.39,71.92C65.11,71.92,64.81,71.97,64.56,71.97C63.49,72,62.64,71.94,62.03,71.84C61.43,71.75,61.1,71.67,61.1,71.67C60.74,71.59,60.49,71.26,60.58,70.93C60.63,70.71,60.82,70.52,61.04,70.46L61.1,70.46C61.1,70.46,61.43,70.35,61.95,70.24C62.23,70.19,62.55,70.1,62.91,69.99C63.3,69.91,63.68,69.77,64.12,69.66C64.34,69.61,64.56,69.53,64.78,69.44C65,69.36,65.25,69.31,65.47,69.19C65.94,69.03,66.41,68.81,66.87,68.59C67.34,68.34,67.81,68.09,68.25,67.79C68.47,67.66,68.69,67.49,68.91,67.33C69.13,67.16,69.32,67,69.54,66.83C71.16,65.45,72.32,63.67,73.14,62.18C73.36,61.83,73.53,61.47,73.69,61.16C73.86,60.86,74,60.56,74.11,60.34C74.22,60.12,74.33,59.93,74.38,59.82C74.44,59.71,74.46,59.65,74.46,59.63C74.46,59.3,74.79,59.02,75.18,59.05C75.53,59.05,75.84,59.35,75.81,59.68" fill="currentColor"/><path d="M56,29C56,34.52,51.52,39,46,39C40.48,39,36,34.52,36,29C36,23.48,40.48,19,46,19C51.52,19,56,23.48,56,29Z" fill="currentColor"/><path d="M56,32C56,37.52,51.52,42,46,42C40.48,42,36,37.52,36,32C36,26.48,40.48,22,46,22C51.52,22,56,26.48,56,32Z" fill="currentColor"/><path d="M41.5,37.62C41.5,34.67,42.72,33.16,45.84,33.12C48.95,33.08,50.5,34.57,50.5,37.62C50.5,37.62,50.5,37.64,50.5,37.66C48.62,39.28,43.4,39.26,41.52,37.66L41.5,37.66C41.5,37.66,41.5,37.64,41.5,37.62Z" fill="currentColor"/></svg>