<svg xmlns="http://www.w3.org/2000/svg" viewBox="0 0 90 90"><path d="M88,45C88,21.25,68.75,2,45,2C21.25,2,2,21.25,2,45C2,68.75,21.25,88,45,88C68.75,88,88,68.75,88,45Z" fill="#F7C631"/><path d="M88,45C88,68.75,68.75,88,45,88C35.3,88,26.35,84.79,19.16,79.37C23.78,81.07,28.78,82,34,82C57.75,82,77,62.75,77,39C77,24.95,70.26,12.48,59.84,4.63C76.28,10.68,88,26.47,88,45Z" fill="#CF8D1B" opacity="0.5"/><path d="M88,45C88,68.75,68.75,88,45,88C44.5,88,44,87.99,43.5,87.97C66.55,87.18,85,68.25,85,45C85,21.75,66.55,2.82,43.5,2.03C44,2.01,44.5,2,45,2C68.75,2,88,21.25,88,45Z" fill="#FAD541"/><path d="M2.31,39.84C4.77,19.31,21.69,3.22,42.59,2.07C23.37,6.97,8.3,21.38,2.31,39.84Z" fill="#FFFFC7"/><path d="M36.06,37.52C36.06,40.96,32.6,37.52,28.34,37.52C24.07,37.52,20.61,40.96,20.61,37.52C20.61,34.08,24.07,31.3,28.34,31.3C32.6,31.3,36.06,34.08,36.06,37.52Z" fill="#312E2B"/><path d="M53.94,37.52C53.94,34.08,57.4,31.3,61.66,31.3C65.93,31.3,69.39,34.08,69.39,37.52C69.39,40.96,65.93,37.52,61.66,37.52C57.4,37.52,53.94,40.96,53.94,37.52Z" fill="#312E2B"/><path d="M72.5,44.5C77.19,44.5,81,48.31,81,53C81,57.69,77.19,61.5,72.5,61.5C67.81,61.5,64,57.69,64,53C64,48.31,67.81,44.5,72.5,44.5Z" fill="#FF788A"/><path d="M17.5,44.5C22.19,44.5,26,48.31,26,53C26,57.69,22.19,61.5,17.5,61.5C12.81,61.5,9,57.69,9,53C9,48.31,12.81,44.5,17.5,44.5Z" fill="#FF788A"/><path d="M44.99,72C39.43,72,33.51,67.75,31,61.9C30.85,61.57,30.87,61.18,31.04,60.85C31.46,60,32.65,59.88,33.33,60.55C36.89,64.11,41.81,65.83,45,65.83C48.19,65.83,53.11,64.11,56.67,60.55C57.35,59.88,58.53,60,58.96,60.85C59.13,61.18,59.15,61.57,59,61.9C56.47,67.75,50.57,72,45.01,72" fill="none" stroke="#FCE26A" stroke-width="2" stroke-linecap="round" stroke-linejoin="round"/><path d="M44.99,69C38.83,69,33.09,66.11,29.49,60.92C29.18,60.48,29.18,59.9,29.46,59.44C29.92,58.69,30.94,58.53,31.64,59.05C36.22,62.44,41.28,63.31,45,63.31C48.72,63.31,53.78,62.44,58.36,59.05C59.06,58.53,60.08,58.68,60.54,59.44C60.82,59.9,60.82,60.48,60.51,60.92C56.89,66.11,51.17,69,45.01,69" fill="none" stroke="#312E2B" stroke-width="2" stroke-linecap="round" stroke-linejoin="round"/></svg>