<svg xmlns="http://www.w3.org/2000/svg" viewBox="0 0 90 90"><path d="M88,45C88,21.25,68.75,2,45,2C21.25,2,2,21.25,2,45C2,68.75,21.25,88,45,88C68.75,88,88,68.75,88,45Z" fill="currentColor"/><path d="M88,45C88,68.75,68.75,88,45,88C35.3,88,26.35,84.79,19.16,79.37C23.78,81.07,28.78,82,34,82C57.75,82,77,62.75,77,39C77,24.95,70.26,12.48,59.84,4.63C76.28,10.68,88,26.47,88,45Z" fill="currentColor" opacity="0.5"/><path d="M88,45C88,68.75,68.75,88,45,88C44.5,88,44,87.99,43.5,87.97C66.55,87.18,85,68.25,85,45C85,21.75,66.55,2.82,43.5,2.03C44,2.01,44.5,2,45,2C68.75,2,88,21.25,88,45Z" fill="currentColor"/><path d="M2.31,39.84C4.77,19.31,21.69,3.22,42.59,2.07C23.37,6.97,8.3,21.38,2.31,39.84Z" fill="currentColor"/><path d="M16.19,50.93C17.48,64.4,27.4,75.55,44.97,75.55C62.52,75.55,72.46,64.35,73.8,50.94C73.97,49.29,72.61,47.93,70.95,47.93L19.05,47.93C17.39,47.93,16.03,49.28,16.19,50.93Z" fill="currentColor"/><path d="M15.29,51.21C21.44,80.21,68.43,80.12,74.69,51.22C75.07,49.48,73.66,47.93,71.89,47.93L18.1,47.93C16.33,47.93,14.93,49.47,15.29,51.21Z" fill="currentColor"/><path d="M33.6,58.66L56.4,58.66C63.93,58.66,68.05,56.45,68.05,50.93L21.95,50.93C21.95,56.45,26.07,58.66,33.6,58.66Z" fill="currentColor"/><path d="M37.42,14.78C39.59,14.3,41.2,16.78,39.88,18.57L32.99,27.88L38.87,37.86C40,39.78,38.14,42.07,36.02,41.37L25.04,37.69L17.37,46.36C15.89,48.03,13.13,46.98,13.15,44.75L13.25,33.17L4.87,29.52C5.86,26.98,7.07,24.55,8.5,22.26L13.91,20.56L14.48,14.71C16.36,12.82,18.41,11.1,20.61,9.58L26.11,17.29Z" fill="currentColor"/><path d="M13.81,4.97L12.7,16.49L1.66,19.97C-0.47,20.65,-0.62,23.6,1.42,24.49L12.04,29.1L11.94,40.68C11.92,42.91,14.68,43.97,16.16,42.3L23.83,33.63L34.81,37.3C36.93,38.01,38.79,35.71,37.66,33.79L31.78,23.82L38.67,14.51C39.99,12.71,38.38,10.24,36.21,10.72L24.9,13.22L18.18,3.8C16.88,1.98,14.03,2.75,13.81,4.97Z" fill="currentColor"/><path d="M13.81,4.97L12.7,16.49L1.66,19.98C-0.47,20.65,-0.62,23.6,1.42,24.49L12.04,29.1L11.94,40.68C11.92,42.91,14.68,43.97,16.16,42.3L23.83,33.63L34.81,37.3C36.93,38.01,38.79,35.71,37.66,33.79L31.78,23.82L38.67,14.51C39.99,12.71,38.38,10.24,36.21,10.72L24.9,13.22L18.18,3.8C16.88,1.98,14.03,2.75,13.81,4.97Z" fill="currentColor"/><path d="M23.83,33.63L40.93,39.35L24.48,31.81C23.73,31.46,22.84,31.7,22.36,32.37L11.89,47.13Z" fill="currentColor"/><path d="M12.79,15.37C12.72,16.05,12.25,16.63,11.59,16.84L-2.01,21.13C-2.88,21.4,-2.94,22.61,-2.1,22.97L10.97,28.66C11.6,28.93,12.01,29.56,12.01,30.25L11.86,47.14L13.84,28.86C13.93,28.03,13.42,27.26,12.62,27.02L-4.32,21.94L13,17.89C13.78,17.71,14.33,17.02,14.33,16.22L14.4,-1.45Z" fill="currentColor"/><path d="M24.24,12.3C24.64,12.86,25.34,13.13,26.01,12.98L39.93,9.89C40.82,9.7,41.48,10.71,40.94,11.44L32.46,22.9C32.05,23.45,32.01,24.2,32.36,24.8L40.93,39.35L30.07,24.51C29.58,23.84,29.64,22.92,30.21,22.31L42.34,9.44L25.31,14.6C24.55,14.83,23.73,14.5,23.33,13.81L14.43,-1.45Z" fill="currentColor"/><path d="M52.58,14.78C50.4,14.3,48.8,16.78,50.12,18.57L57.01,27.88L51.13,37.86C50,39.78,51.86,42.07,53.98,41.37L64.96,37.69L72.63,46.36C74.11,48.03,76.87,46.98,76.85,44.75L76.75,33.17L85.13,29.52C84.14,26.98,82.93,24.55,81.5,22.26L76.09,20.56L75.52,14.71C73.64,12.82,71.59,11.1,69.38,9.58L63.89,17.29Z" fill="currentColor"/><path d="M76.19,4.97L77.3,16.49L88.34,19.97C90.47,20.65,90.62,23.6,88.58,24.49L77.96,29.1L78.06,40.68C78.08,42.91,75.32,43.97,73.84,42.3L66.17,33.63L55.19,37.3C53.07,38.01,51.21,35.71,52.34,33.79L58.22,23.82L51.33,14.51C50.01,12.71,51.62,10.24,53.79,10.72L65.1,13.22L71.82,3.8C73.12,1.98,75.97,2.75,76.19,4.97Z" fill="currentColor"/><path d="M76.19,4.97L77.3,16.49L88.34,19.98C90.47,20.65,90.62,23.6,88.58,24.49L77.96,29.1L78.06,40.68C78.08,42.91,75.32,43.97,73.84,42.3L66.17,33.63L55.19,37.3C53.07,38.01,51.21,35.71,52.34,33.79L58.22,23.82L51.33,14.51C50.01,12.71,51.62,10.24,53.79,10.72L65.1,13.22L71.82,3.8C73.12,1.98,75.97,2.75,76.19,4.97Z" fill="currentColor"/><path d="M66.17,33.63L49.07,39.35L65.52,31.81C66.27,31.46,67.16,31.7,67.64,32.37L78.11,47.13Z" fill="currentColor"/><path d="M77.21,15.37C77.28,16.05,77.75,16.63,78.41,16.84L92.01,21.13C92.88,21.4,92.94,22.61,92.1,22.97L79.03,28.66C78.4,28.93,77.99,29.56,77.99,30.25L78.14,47.14L76.16,28.86C76.07,28.03,76.58,27.26,77.38,27.02L94.32,21.94L77,17.89C76.22,17.71,75.67,17.02,75.67,16.22L75.6,-1.45Z" fill="currentColor"/><path d="M65.76,12.3C65.36,12.86,64.66,13.13,63.99,12.98L50.07,9.89C49.18,9.7,48.52,10.71,49.06,11.44L57.54,22.9C57.95,23.45,57.99,24.2,57.64,24.8L49.07,39.35L59.93,24.51C60.42,23.84,60.36,22.92,59.79,22.31L47.66,9.44L64.69,14.6C65.45,14.83,66.27,14.5,66.67,13.81L75.57,-1.45Z" fill="currentColor"/></svg>