<svg xmlns="http://www.w3.org/2000/svg" viewBox="0 0 90 90"><path d="M2.01,44.96C2.01,68.69,21.28,87.91,45.01,87.91C68.74,87.91,88,68.69,88,44.96C88,21.24,68.74,2.01,45.01,2.01C21.28,2.01,2.01,21.24,2.01,44.96Z" fill="#FFA459"/><path d="M30.73,44.96C30.73,37.08,37.13,30.7,45.01,30.7C52.89,30.7,59.28,37.08,59.28,44.96C59.28,52.84,52.89,59.23,45.01,59.23C37.13,59.23,30.73,52.84,30.73,44.96Z" fill="#FFA459"/><path d="M83.96,41.07C83.96,64.79,64.7,84.02,40.97,84.02C30.1,84.02,20.21,79.95,12.65,73.33C20.53,82.3,32.05,88,44.95,88C68.68,88,87.94,68.77,87.94,45.05C87.94,32.19,82.24,20.67,73.27,12.79L73.27,12.76C79.92,20.32,83.96,30.21,83.96,41.07Z" fill="#FA742C"/><path d="M71.26,29.84C69.86,27.4,71.15,22.82,69.17,20.84C67.19,18.86,62.61,20.18,60.17,18.75C57.76,17.34,56.62,12.73,53.86,11.99C51.2,11.27,47.9,14.71,45.01,14.71C42.11,14.71,38.82,11.3,36.15,11.99C33.4,12.73,32.25,17.34,29.85,18.75C27.41,20.15,22.82,18.86,20.85,20.84C18.87,22.82,20.19,27.4,18.75,29.84C17.35,32.24,12.73,33.39,11.99,36.14C11.27,38.8,14.71,42.1,14.71,44.99C14.71,47.89,11.3,51.18,11.99,53.85C12.73,56.6,17.35,57.74,18.75,60.15C20.16,62.59,18.87,67.17,20.85,69.15C22.82,71.12,27.41,69.81,29.85,71.24C32.25,72.64,33.4,77.26,36.15,78C38.82,78.72,42.11,75.28,45.01,75.28C47.9,75.28,51.2,78.69,53.86,78C56.62,77.26,57.76,72.64,60.17,71.24C62.61,69.83,67.19,71.12,69.17,69.15C71.15,67.17,69.83,62.59,71.26,60.15C72.67,57.74,77.28,56.6,78.03,53.85C78.74,51.18,75.3,47.89,75.3,44.99C75.3,42.1,78.71,38.8,78.03,36.14C77.28,33.39,72.67,32.24,71.26,29.84Z" fill="#FA466A"/><path d="M30.73,44.96C30.73,37.08,37.13,30.7,45.01,30.7C52.89,30.7,59.28,37.08,59.28,44.96C59.28,52.84,52.89,59.23,45.01,59.23C37.13,59.23,30.73,52.84,30.73,44.96Z" fill="#FA466A"/><path d="M73.01,41.24C73.01,39.25,71.39,37.63,69.4,37.63C67.4,37.63,65.79,39.25,65.79,41.24C65.79,43.23,67.4,44.85,69.4,44.85C71.39,44.85,73.01,43.23,73.01,41.24Z" fill="#FAD541"/><path d="M64.98,73.47C64.98,71.48,63.37,69.86,61.37,69.86C59.38,69.86,57.76,71.48,57.76,73.47C57.76,75.47,59.38,77.08,61.37,77.08C63.37,77.08,64.98,75.47,64.98,73.47Z" fill="#009FD9"/><path d="M28.33,28.37C28.33,26.38,26.71,24.76,24.71,24.76C22.72,24.76,21.1,26.38,21.1,28.37C21.1,30.37,22.72,31.98,24.71,31.98C26.71,31.98,28.33,30.37,28.33,28.37Z" fill="white"/><path d="M32.25,72.64C32.25,70.65,30.64,69.03,28.64,69.03C26.65,69.03,25.03,70.65,25.03,72.64C25.03,74.64,26.65,76.25,28.64,76.25C30.64,76.25,32.25,74.64,32.25,72.64Z" fill="#6A4632"/><path d="M30.36,13.93C30.36,11.94,28.74,10.32,26.75,10.32C24.76,10.32,23.14,11.94,23.14,13.93C23.14,15.93,24.76,17.54,26.75,17.54C28.74,17.54,30.36,15.93,30.36,13.93Z" fill="#009FD9"/><path d="M59.28,20.95C59.28,18.96,57.66,17.34,55.67,17.34C53.67,17.34,52.06,18.96,52.06,20.95C52.06,22.95,53.67,24.56,55.67,24.56C57.66,24.56,59.28,22.95,59.28,20.95Z" fill="#FFAF95"/><path d="M25.37,51.35C25.37,49.36,23.76,47.74,21.76,47.74C19.77,47.74,18.15,49.36,18.15,51.35C18.15,53.35,19.77,54.96,21.76,54.96C23.76,54.96,25.37,53.35,25.37,51.35Z" fill="#81B64C"/><path d="M30.82,45.14C30.82,37.26,37.21,30.87,45.09,30.87C48.02,30.87,50.74,31.76,53,33.27C50.45,29.43,46.1,26.91,41.14,26.91C33.26,26.91,26.86,33.3,26.86,41.18C26.86,46.14,29.39,50.49,33.23,53.04C31.71,50.78,30.82,48.06,30.82,45.14Z" fill="#ED2456"/><path d="M4.1,44.99C4.1,68.39,22.79,87.42,46.06,87.97C45.71,87.98,45.36,87.99,45.01,87.99C21.25,87.99,2,68.74,2,44.99C2,21.25,21.25,2,45.01,2C45.36,2,45.71,2,46.06,2.01C22.79,2.57,4.1,21.6,4.1,44.99Z" fill="#FFD591"/></svg>