<svg xmlns="http://www.w3.org/2000/svg" viewBox="0 0 90 90"><path d="M7.77,19.66C7.18,20.12,7.29,21.04,7.98,21.34C18.77,26,24.73,37.67,22.18,49.14L19.4,61.62C19.08,63.04,20.69,64.11,21.88,63.27L27.44,59.34C35.76,53.46,46.11,51.19,56.13,53.03L60.04,53.75C70.42,55.67,81.06,52.1,88.19,44.32C88.81,43.64,89,42.67,88.68,41.81L82.99,26.47C81.89,23.5,81.06,20.44,80.5,17.33L77.73,1.74C77.43,0.05,75.35,-0.59,74.15,0.64C68.03,6.9,59.19,9.71,50.58,8.13L44.61,7.03C34.09,5.09,23.25,7.72,14.78,14.25Z" fill="currentColor"/><path d="M57.55,10.55L58.38,14.6C61.03,27.46,70.02,38.09,82.27,42.82C84.08,43.52,85.89,41.82,85.31,39.97L81.19,26.75L75.13,2.6C70.39,7.36,64.11,10.14,57.55,10.55Z" fill="currentColor"/><path d="M26.92,57.48L22.75,60.5C21.62,61.32,20.11,60.17,20.6,58.86L23.93,49.97C28.16,38.67,23.47,25.99,12.91,20.16C12.3,19.83,12.23,18.97,12.78,18.54L15.02,16.82C19.73,16.7,24.27,19.07,26.83,23.21L43.82,50.67C37.78,51.53,31.97,53.84,26.92,57.48Z" fill="currentColor"/><path d="M77.73,1.74L80.5,17.33C80.84,19.24,81.29,21.13,81.83,22.99L78.14,25.48C70.04,30.94,60.12,33.01,50.51,31.25C40.89,29.49,30.96,31.56,22.85,37.04L21.96,37.64C20.11,30.53,15.09,24.41,7.98,21.34C7.29,21.04,7.18,20.12,7.77,19.66L14.78,14.25C23.25,7.72,34.09,5.09,44.61,7.03L50.58,8.13C59.19,9.71,68.03,6.9,74.15,0.64C75.35,-0.59,77.43,0.05,77.73,1.74Z" fill="currentColor"/><path d="M26.83,23.21L32.5,32.38C29.83,33.22,27.25,34.37,24.81,35.81C23.26,29.34,19.09,23.58,12.91,20.16C12.3,19.83,12.23,18.97,12.78,18.54L15.02,16.82C19.73,16.7,24.27,19.07,26.83,23.21Z" fill="currentColor" opacity="0.5"/><path d="M78.14,25.48C74.4,28,70.27,29.8,65.97,30.83C62.26,26.16,59.62,20.63,58.38,14.6L57.55,10.55C64.11,10.14,70.39,7.36,75.13,2.6L80.47,23.91Z" fill="currentColor" opacity="0.5"/><path d="M3.55,16.31C5.8,15.7,8.12,17.04,8.73,19.3L26.24,84.67C26.85,86.93,25.51,89.25,23.25,89.85C21,90.46,18.68,89.12,18.07,86.86L0.55,21.49C-0.05,19.23,1.29,16.91,3.55,16.31Z" fill="currentColor"/><path d="M0.55,21.49L18.07,86.86C18.68,89.12,21,90.46,23.25,89.85C25.51,89.25,26.85,86.93,26.24,84.67L8.73,19.3C8.12,17.04,5.8,15.7,3.55,16.31C1.29,16.91,-0.05,19.23,0.55,21.49Z" fill="currentColor"/><path d="M2.26,19.96L20.32,87.37C20.7,88.78,22.15,89.62,23.56,89.24C24.97,88.87,25.81,87.42,25.43,86.01L7.37,18.59C6.99,17.18,5.54,16.34,4.13,16.72C2.72,17.1,1.88,18.55,2.26,19.96Z" fill="currentColor"/><path d="M1.79,26.1C1.8,26.08,1.82,26.06,1.83,26.04C3.51,23.3,6.91,22.22,9.83,23.42L8.88,19.88C5.96,19.42,2.96,20.32,0.78,22.35Z" fill="currentColor"/><path d="M13.01,67.96C13.02,67.93,13.04,67.91,13.05,67.89C14.73,65.15,18.13,64.07,21.05,65.27L20.1,61.73C17.18,61.27,14.18,62.18,12,64.2Z" fill="currentColor"/><path d="M-0.29,21.32C-1.01,22.76,-0.11,24.27,1.36,24.44C2.61,21.92,7.01,20.42,9.45,21.97C10.88,21.61,11.29,19.61,9.65,18.68C6.19,16.73,1.26,18.21,-0.29,21.32Z" fill="currentColor"/><path d="M10.93,63.18C10.21,64.62,11.11,66.12,12.58,66.29C13.83,63.78,18.23,62.27,20.67,63.83C22.09,63.46,22.51,61.46,20.87,60.54C17.41,58.59,12.48,60.06,10.93,63.18Z" fill="currentColor"/></svg>