<svg xmlns="http://www.w3.org/2000/svg" viewBox="0 0 90 90"><path d="M27.56,49.39C27.62,49.34,27.67,49.28,27.73,49.22L6.71,49.39C3.13,49.45,0.11,46.55,0,42.75C-0.07,37.9,4.19,36.04,8.3,36.04C20.91,36.04,33.53,35.7,46.14,35.7C44.33,28.8,44.05,19.89,46.99,13.26C48.47,9.96,52.28,8.48,55.6,9.93C58.9,11.41,60.37,15.22,58.93,18.54C54.49,28.89,62.69,33.6,68.19,40.3C91.12,39.67,85.55,73.93,73.22,74.1C73.22,74.1,46.34,77.04,39.46,77.1C30.96,77.2,25.12,61.7,25.12,54.62C25.09,52.6,25.97,50.7,27.56,49.39Z" fill="#F7C631"/></svg>