<svg xmlns="http://www.w3.org/2000/svg" viewBox="0 0 90 90"><path d="M88,45C88,21.25,68.75,2,45,2C21.25,2,2,21.25,2,45C2,68.75,21.25,88,45,88C68.75,88,88,68.75,88,45Z" fill="currentColor"/><path d="M88,45C88,68.75,68.75,88,45,88C35.3,88,26.35,84.79,19.16,79.37C23.78,81.07,28.78,82,34,82C57.75,82,77,62.75,77,39C77,24.95,70.26,12.48,59.84,4.63C76.28,10.68,88,26.47,88,45Z" fill="currentColor" opacity="0.5"/><path d="M88,45C88,68.75,68.75,88,45,88C44.5,88,44,87.99,43.5,87.97C66.55,87.18,85,68.25,85,45C85,21.75,66.55,2.82,43.5,2.03C44,2.01,44.5,2,45,2C68.75,2,88,21.25,88,45Z" fill="currentColor"/><path d="M2.31,39.84C4.77,19.31,21.69,3.22,42.59,2.07C23.37,6.97,8.3,21.38,2.31,39.84Z" fill="currentColor"/><path d="M17.17,61.2L22.19,58.01L27.7,63L33.59,58.01L39.23,64.2L45,58.01L50.77,64.2L56.41,58.01L62.3,63L67.81,58.01L72.83,61.2" fill="none" stroke="currentColor" stroke-width="2" stroke-linecap="round" stroke-linejoin="round"/><path d="M17.17,61.2L22.19,58.01L27.7,63L33.59,58.01L39.23,64.2L45,58.01L50.77,64.2L56.41,58.01L62.3,63L67.81,58.01L72.83,61.2" fill="none" stroke="currentColor" stroke-width="4" stroke-linecap="round" stroke-linejoin="round"/><path d="M17.17,65.27L22.19,59.94L27.7,68.27L33.59,59.94L39.23,70.27L45,59.94L50.77,70.27L56.41,59.94L62.3,68.27L67.81,59.94L72.83,65.27" fill="none" stroke="currentColor" stroke-width="2" stroke-linecap="round" stroke-linejoin="round"/><path d="M17.17,65.27L22.19,59.94L27.7,68.27L33.59,59.94L39.23,70.27L45,59.94L50.77,70.27L56.41,59.94L62.3,68.27L67.81,59.94L72.83,65.27" fill="none" stroke="currentColor" stroke-width="4" stroke-linecap="round" stroke-linejoin="round"/><path d="M28.11,30.31C27.29,29.41,25.91,29.41,25.09,30.31C24.27,31.22,24.27,32.68,25.09,33.56L29.82,38.65L25.09,43.73C24.27,44.64,24.27,46.1,25.09,47.01C25.94,47.91,27.29,47.91,28.11,47.01L34.16,40.49C34.63,39.99,34.8,39.31,34.74,38.65C34.8,37.99,34.63,37.33,34.16,36.83Z" fill="currentColor"/><path d="M59.47,30.31C60.29,29.41,61.66,29.41,62.49,30.31C63.31,31.22,63.31,32.68,62.49,33.56L57.76,38.65L62.49,43.73C63.31,44.64,63.31,46.1,62.49,47.01C61.66,47.91,60.29,47.91,59.47,47.01L53.41,40.49C52.95,39.99,52.78,39.31,52.84,38.65C52.78,37.99,52.98,37.33,53.41,36.83Z" fill="currentColor"/></svg>