<svg xmlns="http://www.w3.org/2000/svg" viewBox="0 0 90 90"><path d="M88,45C88,21.25,68.75,2,45,2C21.25,2,2,21.25,2,45C2,68.75,21.25,88,45,88C68.75,88,88,68.75,88,45Z" fill="currentColor"/><path d="M88,45C88,68.75,68.75,88,45,88C35.3,88,26.35,84.79,19.16,79.37C23.78,81.07,28.78,82,34,82C57.75,82,77,62.75,77,39C77,24.95,70.26,12.48,59.84,4.63C76.28,10.68,88,26.47,88,45Z" fill="currentColor" opacity="0.5"/><path d="M88,45C88,68.75,68.75,88,45,88C44.5,88,44,87.99,43.5,87.97C66.55,87.18,85,68.25,85,45C85,21.75,66.55,2.82,43.5,2.03C44,2.01,44.5,2,45,2C68.75,2,88,21.25,88,45Z" fill="currentColor"/><path d="M2.31,39.84C4.77,19.31,21.69,3.22,42.59,2.07C23.37,6.97,8.3,21.38,2.31,39.84Z" fill="currentColor"/><path d="M27.75,48.08C23.54,48.08,20.07,45.24,20.07,41.23C20.07,36.02,23.5,31.77,27.75,31.77C32,31.77,35.38,36.02,35.38,41.23C35.38,45.24,31.96,48.08,27.75,48.08Z" fill="currentColor"/><path d="M62.29,48.08C58.09,48.08,54.62,45.24,54.62,41.23C54.62,36.02,58.05,31.77,62.29,31.77C66.54,31.77,69.93,36.02,69.93,41.23C69.93,45.24,66.5,48.08,62.29,48.08Z" fill="currentColor"/><path d="M27.75,46.08C24.19,46.08,21.26,41.84,21.26,37.85C21.26,33.86,24.16,30.62,27.75,30.62C31.33,30.62,34.19,33.86,34.19,37.85C34.19,41.84,31.3,46.08,27.75,46.08Z" fill="currentColor"/><path d="M62.47,46.08C58.92,46.08,56.02,41.84,56.02,37.85C56.02,33.86,58.92,30.62,62.47,30.62C66.02,30.62,68.92,33.86,68.92,37.85C68.92,41.84,66.02,46.08,62.47,46.08Z" fill="currentColor"/><path d="M66.58,60.45C65.39,57.57,63.74,54.93,61.71,52.73C60.1,50.97,58.26,49.48,56.26,48.27C52.92,46.29,49.08,45.16,45,45.16C40.92,45.16,37.08,46.29,33.74,48.27C29.16,50.99,25.5,55.28,23.37,60.48C21.37,65.4,24.71,70.93,29.63,70.93L60.31,70.93L60.34,70.96C65.29,70.96,68.6,65.38,66.58,60.45Z" fill="currentColor"/><path d="M67.55,63.45C66.31,60.57,64.58,57.93,62.46,55.73C60.78,53.97,58.86,52.48,56.77,51.27C53.28,49.29,49.26,48.16,45,48.16C40.74,48.16,36.72,49.29,33.23,51.27C28.45,53.99,24.62,58.28,22.39,63.48C20.3,68.4,23.8,73.93,28.94,73.93L61.01,73.93L61.03,73.96C66.2,73.96,69.67,68.38,67.55,63.45Z" fill="currentColor"/><path d="M15.19,31.36C15.19,31.36,15.16,31.28,15.13,31.11C15.11,30.95,15.05,30.73,15.03,30.45C15,30.18,14.97,29.82,15,29.41C15,29.02,15.05,28.56,15.13,28.09C15.22,27.59,15.36,27.07,15.55,26.52C15.74,25.97,16.02,25.42,16.32,24.84C16.65,24.29,17.03,23.72,17.5,23.19C17.97,22.67,18.49,22.18,19.07,21.71C19.64,21.27,20.25,20.86,20.91,20.53C21.54,20.2,22.2,19.92,22.86,19.7C23.52,19.48,24.16,19.34,24.76,19.23C25.06,19.18,25.36,19.15,25.64,19.12C25.91,19.1,26.19,19.07,26.46,19.07C27.54,19.04,28.39,19.1,29,19.21C29.6,19.29,29.93,19.37,29.93,19.37C30.29,19.45,30.54,19.78,30.45,20.11C30.4,20.33,30.2,20.5,29.98,20.58L29.93,20.58C29.93,20.58,29.63,20.69,29.08,20.8C28.8,20.86,28.47,20.94,28.11,21.05C27.76,21.13,27.34,21.27,26.91,21.38C26.68,21.43,26.46,21.52,26.25,21.6C26.02,21.68,25.78,21.74,25.56,21.85C25.09,22.01,24.62,22.23,24.16,22.45C23.69,22.7,23.22,22.95,22.78,23.25C22.56,23.39,22.34,23.55,22.12,23.72C21.9,23.85,21.71,24.05,21.49,24.21C19.86,25.59,18.71,27.37,17.89,28.86C17.66,29.22,17.5,29.57,17.34,29.88C17.17,30.18,17.03,30.45,16.92,30.7C16.81,30.92,16.73,31.11,16.65,31.22C16.59,31.36,16.54,31.39,16.57,31.42C16.57,31.75,16.23,32.02,15.85,31.99C15.49,31.99,15.19,31.69,15.22,31.33" fill="none" stroke="currentColor" stroke-width="2" stroke-linecap="round" stroke-linejoin="round"/><path d="M74.81,31.36C74.81,31.36,74.84,31.28,74.86,31.11C74.89,30.95,74.95,30.73,74.97,30.45C75,30.15,75.03,29.82,75,29.41C75,29.02,74.95,28.55,74.86,28.09C74.78,27.59,74.64,27.07,74.45,26.55C74.26,26,73.98,25.45,73.68,24.87C73.35,24.32,72.97,23.74,72.5,23.22C72.03,22.7,71.51,22.2,70.93,21.73C70.36,21.3,69.75,20.88,69.09,20.55C68.46,20.22,67.8,19.95,67.14,19.73C66.48,19.54,65.84,19.37,65.24,19.26C64.94,19.2,64.64,19.18,64.36,19.15C64.08,19.12,63.81,19.09,63.53,19.09C62.46,19.07,61.61,19.12,61.01,19.2C60.4,19.29,60.07,19.37,60.07,19.37C59.71,19.45,59.47,19.78,59.55,20.11C59.6,20.33,59.8,20.5,60.02,20.58L60.07,20.58C60.07,20.58,60.37,20.69,60.92,20.8C61.2,20.86,61.53,20.94,61.88,21.05C62.24,21.13,62.66,21.27,63.09,21.38C63.31,21.43,63.53,21.52,63.76,21.6C63.98,21.68,64.22,21.73,64.44,21.84C64.91,22.01,65.38,22.23,65.87,22.45C66.34,22.7,66.81,22.95,67.25,23.25C67.47,23.39,67.69,23.55,67.91,23.71C68.13,23.85,68.32,24.05,68.54,24.21C70.14,25.59,71.32,27.37,72.14,28.86C72.36,29.21,72.53,29.57,72.69,29.88C72.86,30.18,73,30.45,73.11,30.7C73.22,30.92,73.3,31.11,73.38,31.22C73.44,31.36,73.49,31.39,73.46,31.41C73.46,31.75,73.79,32.02,74.18,31.99C74.53,31.99,74.84,31.69,74.81,31.33" fill="none" stroke="currentColor" stroke-width="2" stroke-linecap="round" stroke-linejoin="round"/></svg>