<svg xmlns="http://www.w3.org/2000/svg" viewBox="0 0 90 90"><path d="M88,45C88,21.25,68.75,2,45,2C21.25,2,2,21.25,2,45C2,68.75,21.25,88,45,88C68.75,88,88,68.75,88,45Z" fill="#F7C631"/><path d="M88,45C88,68.75,68.75,88,45,88C35.3,88,26.35,84.79,19.16,79.37C23.78,81.07,28.78,82,34,82C57.75,82,77,62.75,77,39C77,24.95,70.26,12.48,59.84,4.63C76.28,10.68,88,26.47,88,45Z" fill="#CF8D1B" opacity="0.5"/><path d="M88,45C88,68.75,68.75,88,45,88C44.5,88,44,87.99,43.5,87.97C66.55,87.18,85,68.25,85,45C85,21.75,66.55,2.82,43.5,2.03C44,2.01,44.5,2,45,2C68.75,2,88,21.25,88,45Z" fill="#FAD541"/><path d="M2.31,39.84C4.77,19.31,21.69,3.22,42.59,2.07C23.37,6.97,8.3,21.38,2.31,39.84Z" fill="#FFFFC7"/><path d="M86.57,56.02C85.14,61.45,82.67,66.45,79.39,70.81C68.84,78.76,51.14,79.39,44.99,69.6C38.85,79.38,21.18,78.76,10.63,70.84C7.34,66.47,4.87,61.46,3.43,56.03C20.67,65.15,19.29,49.74,35.16,49.74C39.06,49.74,42.75,51.72,44.99,54.78C47.23,51.72,50.93,49.74,54.82,49.74C70.7,49.74,69.31,65.17,86.57,56.02Z" fill="#CF8D1B"/><path d="M35.77,45.74C20.61,45.74,22.25,61.77,5.05,51.47C5.05,75.14,47.04,82.04,47.04,57.37C47.04,50.84,41.65,45.74,35.77,45.74Z" fill="#312E2B"/><path d="M25.41,53.62C28.89,49.98,34.07,48.53,38.93,49.82L34.51,51.09C31.94,51.83,29.49,52.92,27.22,54.33L21.07,58.15Z" fill="#4B4847"/><path d="M27.82,57.72C31.29,55.44,35.21,53.94,39.31,53.3L42.34,52.84L35.19,56.55L20.13,62.76Z" fill="#4B4847"/><path d="M35.11,60.02L44.61,55.7L42.15,57.86C38.62,60.95,34.39,63.14,29.82,64.24L20.76,66.43Z" fill="#4B4847"/><path d="M33.47,65.84C35.83,64.87,38.04,63.6,40.07,62.05L43.27,59.6C41.39,65.19,35.91,68.76,30.03,68.23L28.1,68.05Z" fill="#4B4847"/><path d="M54.21,45.74C69.38,45.74,67.74,61.77,84.93,51.47C84.93,75.14,42.94,82.04,42.94,57.37C42.94,50.84,48.34,45.74,54.21,45.74Z" fill="#312E2B"/><path d="M64.58,53.62C61.1,49.98,55.92,48.53,51.05,49.82L55.48,51.09C58.04,51.83,60.5,52.92,62.77,54.33L68.92,58.15Z" fill="#4B4847"/><path d="M62.17,57.72C58.7,55.44,54.78,53.94,50.68,53.3L47.65,52.84L54.79,56.55L69.86,62.76Z" fill="#4B4847"/><path d="M54.87,60.02L45.38,55.7L47.84,57.86C51.37,60.95,55.6,63.14,60.16,64.24L69.23,66.43Z" fill="#4B4847"/><path d="M56.51,65.84C54.16,64.87,51.94,63.6,49.92,62.05L46.71,59.6C48.6,65.19,54.08,68.76,59.95,68.23L61.88,68.05Z" fill="#4B4847"/><path d="M30.44,44.08C26.91,44.08,24,41.24,24,37.23C24,32.02,26.88,27.77,30.44,27.77C34.01,27.77,36.85,32.02,36.85,37.23C36.85,41.24,33.97,44.08,30.44,44.08Z" fill="#FCE26A"/><path d="M59.44,44.08C55.91,44.08,53,41.24,53,37.23C53,32.02,55.88,27.77,59.44,27.77C63.01,27.77,65.85,32.02,65.85,37.23C65.85,41.24,62.97,44.08,59.44,44.08Z" fill="#FCE26A"/><path d="M30.44,42.08C27.46,42.08,25,37.84,25,33.85C25,29.86,27.43,26.62,30.44,26.62C33.45,26.62,35.85,29.86,35.85,33.85C35.85,37.84,33.42,42.08,30.44,42.08Z" fill="#312E2B"/><path d="M59.59,42.08C56.61,42.08,54.18,37.84,54.18,33.85C54.18,29.86,56.61,26.62,59.59,26.62C62.57,26.62,65,29.86,65,33.85C65,37.84,62.57,42.08,59.59,42.08Z" fill="#312E2B"/></svg>