<svg xmlns="http://www.w3.org/2000/svg" viewBox="0 0 90 90"><path d="M89,46C89,22.25,69.75,3,46,3C22.25,3,3,22.25,3,46C3,69.75,22.25,89,46,89C69.75,89,89,69.75,89,46Z" fill="currentColor"/><path d="M89,46C89,69.75,69.75,89,46,89C36.3,89,27.35,85.79,20.16,80.37C24.78,82.07,29.78,83,35,83C58.75,83,78,63.75,78,40C78,25.95,71.26,13.48,60.84,5.63C77.28,11.68,89,27.47,89,46Z" fill="currentColor" opacity="0.5"/><path d="M89,46C89,69.75,69.75,89,46,89C45.5,89,45,88.99,44.5,88.97C67.55,88.18,86,69.25,86,46C86,22.75,67.55,3.82,44.5,3.03C45,3.01,45.5,3,46,3C69.75,3,89,22.25,89,46Z" fill="currentColor"/><path d="M3.31,40.84C5.77,20.31,22.69,4.22,43.59,3.07C24.37,7.97,9.3,22.38,3.31,40.84Z" fill="currentColor"/><path d="M89,46C89,48.43,88.8,50.8,88.41,53.12L83.91,48.12C63.65,25.61,28.35,25.61,8.09,48.12L3.59,53.12C3.2,50.8,3,48.43,3,46C3,22.25,22.25,3,46,3C69.75,3,89,22.25,89,46Z" fill="currentColor"/><path d="M89,46C89,48.43,88.8,50.8,88.41,53.12L83.91,48.12C82.04,46.04,80.03,44.15,77.93,42.46C77.97,41.64,78,40.82,78,40C78,25.95,71.26,13.48,60.84,5.63C77.28,11.68,89,27.47,89,46Z" fill="currentColor" opacity="0.5"/><path d="M89,46C89,48.43,88.8,50.8,88.41,53.12L85.79,50.22C85.93,48.83,86,47.42,86,46C86,22.75,67.55,3.82,44.5,3.03C45,3.01,45.5,3,46,3C69.75,3,89,22.25,89,46Z" fill="currentColor"/><path d="M3.31,40.84C5.77,20.31,22.69,4.22,43.59,3.07C24.37,7.97,9.3,22.38,3.31,40.84Z" fill="currentColor"/><path d="M56.31,69.13L56.31,58.62C56.31,52.99,51.69,48.42,46,48.42C40.31,48.42,35.69,52.99,35.69,58.62L35.69,69.13C35.69,74.77,40.31,79.33,46,79.33C51.69,79.33,56.31,74.77,56.31,69.13Z" fill="currentColor"/><path d="M56.31,66.13L56.31,55.62C56.31,49.99,51.69,45.42,46,45.42C40.31,45.42,35.69,49.99,35.69,55.62L35.69,66.13C35.69,71.77,40.31,76.33,46,76.33C51.69,76.33,56.31,71.77,56.31,66.13Z" fill="currentColor"/><path d="M31.64,18.98C36.27,19.6,38.97,24.72,37.64,30.44C36.3,36.14,31.49,40.26,26.86,39.64C22.23,39.02,19.53,33.87,20.87,28.18C22.2,22.48,27.02,18.36,31.64,18.98Z" fill="currentColor"/><path d="M71.13,28.18C72.47,33.87,69.77,39.02,65.14,39.64C60.51,40.26,55.7,36.13,54.36,30.44C53.03,24.72,55.73,19.6,60.36,18.98C64.98,18.36,69.8,22.48,71.13,28.18Z" fill="currentColor"/><path d="M31.37,21.99C35.47,22.76,37.86,29.12,36.68,36.21C35.49,43.28,31.23,48.39,27.14,47.62C23.04,46.85,20.64,40.47,21.83,33.4C23.01,26.34,27.27,21.22,31.37,21.99Z" fill="currentColor"/><path d="M70.17,33.4C71.35,40.47,68.96,46.85,64.86,47.62C60.77,48.39,56.51,43.28,55.32,36.21C54.14,29.12,56.53,22.76,60.63,21.99C64.73,21.22,68.99,26.34,70.17,33.4Z" fill="currentColor"/><path d="M27,60.94L27,84.58C13.9,78.12,4.56,65.17,3.18,49.93C15.1,42.54,27,51.64,27,60.94Z" fill="currentColor"/><path d="M88.81,50.08C87.38,65.26,78.06,78.14,65,84.58L65,60.94C65,51.64,76.89,43.44,88.81,50.08Z" fill="currentColor"/><path d="M21,61.44L21,91L1,91L1,54.34C1,48.5,21,52.72,21,61.44Z" fill="currentColor"/><path d="M91,54.34L91,91L71,91L71,61.44C71,52.72,91,48.5,91,54.34Z" fill="currentColor"/></svg>