<svg xmlns="http://www.w3.org/2000/svg" viewBox="0 0 90 90"><path d="M88,45C88,21.25,68.75,2,45,2C21.25,2,2,21.25,2,45C2,68.75,21.25,88,45,88C68.75,88,88,68.75,88,45Z" fill="currentColor"/><path d="M88,45C88,68.75,68.75,88,45,88C35.3,88,26.35,84.79,19.16,79.37C23.78,81.07,28.78,82,34,82C57.75,82,77,62.75,77,39C77,24.95,70.26,12.48,59.84,4.63C76.28,10.68,88,26.47,88,45Z" fill="currentColor" opacity="0.5"/><path d="M88,45C88,68.75,68.75,88,45,88C44.5,88,44,87.99,43.5,87.97C66.55,87.18,85,68.25,85,45C85,21.75,66.55,2.82,43.5,2.03C44,2.01,44.5,2,45,2C68.75,2,88,21.25,88,45Z" fill="currentColor"/><path d="M2.31,39.84C4.77,19.31,21.69,3.22,42.59,2.07C23.37,6.97,8.3,21.38,2.31,39.84Z" fill="currentColor"/><path d="M59.52,48.08C55.99,48.08,53.07,45.24,53.07,41.23C53.07,36.02,55.95,31.77,59.52,31.77C63.08,31.77,65.93,36.02,65.93,41.23C65.93,45.24,63.05,48.08,59.52,48.08Z" fill="currentColor"/><path d="M59.66,46.08C56.68,46.08,54.25,41.84,54.25,37.85C54.25,33.86,56.68,30.62,59.66,30.62C62.65,30.62,65.08,33.86,65.08,37.85C65.08,41.84,62.65,46.08,59.66,46.08Z" fill="currentColor"/><path d="M41.4,37.99C41.4,41.42,36.78,37.99,31.09,37.99C25.39,37.99,20.77,41.42,20.77,37.99C20.77,34.55,25.39,31.77,31.09,31.77C36.78,31.77,41.4,34.55,41.4,37.99Z" fill="currentColor"/><path d="M59.6,66.7C59.6,66.7,59.47,66.78,59.24,66.95C59,67.08,58.67,67.33,58.17,67.61C57.68,67.88,57.07,68.18,56.36,68.49C56,68.62,55.62,68.79,55.2,68.95C54.79,69.09,54.35,69.26,53.91,69.39C53,69.67,51.98,69.92,50.88,70.08C49.81,70.27,48.63,70.38,47.45,70.41C47.15,70.41,46.84,70.41,46.54,70.41C46.24,70.41,45.94,70.41,45.6,70.38C44.97,70.38,44.37,70.3,43.73,70.22C42.47,70.05,41.2,69.81,39.97,69.48L39.06,69.2C38.78,69.12,38.48,69.01,38.15,68.9C37.52,68.68,36.91,68.43,36.34,68.18C35.76,67.91,35.18,67.66,34.63,67.36C34.36,67.22,34.08,67.06,33.81,66.92C33.53,66.75,33.28,66.59,33.04,66.42C32.02,65.76,31.06,65.08,30.2,64.36C29.35,63.65,28.61,62.9,27.95,62.19C27.62,61.83,27.32,61.47,27.04,61.14C26.77,60.79,26.52,60.46,26.27,60.15C25.8,59.52,25.42,58.94,25.14,58.45C24.84,57.98,24.65,57.57,24.51,57.32C24.38,57.05,24.29,56.91,24.29,56.91C23.96,56.28,24.21,55.45,24.82,55.12C25.31,54.85,25.89,54.96,26.27,55.31L26.33,55.37C26.33,55.37,26.74,55.75,27.48,56.44C27.84,56.8,28.31,57.18,28.83,57.62C29.11,57.84,29.38,58.06,29.68,58.31C29.98,58.53,30.32,58.78,30.64,59.03C31.33,59.52,32.05,60.04,32.84,60.54C33.64,61.03,34.49,61.53,35.4,62C36.31,62.46,37.27,62.88,38.26,63.29C38.76,63.48,39.28,63.65,39.75,63.81C39.99,63.89,40.22,63.98,40.52,64.06L41.31,64.28C42.36,64.55,43.41,64.8,44.45,64.97C45.49,65.13,46.54,65.27,47.53,65.32C48.55,65.38,49.51,65.41,50.45,65.38C51.38,65.38,52.26,65.3,53.09,65.21C53.5,65.16,53.88,65.13,54.27,65.08C54.65,65.02,55.01,64.97,55.34,64.91C56,64.77,56.6,64.69,57.07,64.58C57.54,64.5,57.95,64.39,58.23,64.33C58.5,64.28,58.64,64.25,58.64,64.25C59.33,64.09,60.02,64.55,60.18,65.27C60.29,65.82,60.04,66.37,59.6,66.67" fill="none" stroke="currentColor" stroke-width="2" stroke-linecap="round" stroke-linejoin="round"/><path d="M19.43,58.16C15.54,53.67,21.38,46.24,27.13,49.64C21.89,49.71,19.43,53.06,19.43,58.16Z" fill="currentColor"/></svg>