<svg xmlns="http://www.w3.org/2000/svg" viewBox="0 0 90 90"><path d="M82.06,53.67C82.06,53.58,82.06,53.49,82.06,53.37C82.58,35.25,67.52,23.94,63.13,19.74C57.85,14.67,54.16,7.98,52.84,0.48C52.37,-0.18,51.49,0.06,51.49,0.06C51.49,0.06,42.41,10.17,35.98,24.57C33.65,21.48,32.02,17.82,31.34,13.83C30.86,12.87,29.84,14.01,29.84,14.01C29.84,14.01,9.38,32.4,9.38,53.1C9.38,53.22,9.38,53.34,9.38,53.46C9.38,53.52,9.38,53.58,9.38,53.67C9.38,73.74,25.64,90,45.7,90C61.06,90,74.2,80.46,79.52,66.99C80.75,64.11,81.53,61.02,81.8,57.78L81.83,57.78C81.97,56.43,82.06,55.05,82.06,53.67Z" fill="currentColor"/><path d="M56.87,26.25C54.2,23.67,51.88,20.82,49.97,17.76C45.91,24.36,41.59,33.03,39.77,42.27C33.44,39.06,29.54,31.05,28.34,29.4C23.71,35.58,19.16,43.59,18.52,51.3C17.98,54.84,19.7,61.68,19.79,62.04C23.32,72.99,33.62,80.94,45.73,80.94C57.85,80.94,67.94,73.17,71.56,62.55C72.41,60.27,72.89,57.84,72.89,55.26L72.89,54.48C74.03,41.73,64.13,32.85,58.81,28.05C58.03,27.36,57.38,26.76,56.87,26.25Z" fill="currentColor"/><path d="M40.52,71.13L50.92,71.13C49.24,71.64,47.51,71.88,45.7,71.88C43.91,71.88,42.16,71.61,40.52,71.13Z" fill="currentColor"/><path d="M27.5,53.1C27.5,50.49,28.36,47.34,30.02,43.86C31.52,44.97,32.33,45.6,32.87,46.47C33.65,47.76,34.06,50.04,34.06,53.1C34.06,54.9,32.59,56.4,30.77,56.4L30.8,56.4C29,56.4,27.5,54.93,27.5,53.1Z" fill="currentColor"/><path d="M27.55,54.96C26.95,51.33,28.45,47.1,30.16,43.8C30.82,44.46,31.55,45.06,32.33,45.57C32.72,45.84,33.23,46.11,33.83,46.41C35.63,47.31,37.63,48.36,38.45,53.1C38.95,56.1,36.91,58.95,33.91,59.46L33.91,59.49C30.91,60,28.07,57.96,27.55,54.96Z" fill="currentColor"/><path d="M55.6,38.55C54.41,37.35,53.33,36.03,52.42,34.65C53.09,42.96,53.17,58.53,44.87,61.47C37.16,64.17,30.82,57.45,27.52,52.74C27.43,54.69,27.52,57.78,28.73,60.06C31.3,66.96,37.97,71.91,45.8,71.91C53.63,71.91,60.83,66.57,63.16,59.31C63.83,57.9,64.22,56.31,64.25,54.66L64.25,54.24C65,47.22,59.63,42.24,56.74,39.57L56.66,39.54C56.23,39.15,55.88,38.82,55.6,38.55Z" fill="currentColor"/></svg>