<svg xmlns="http://www.w3.org/2000/svg" viewBox="0 0 90 90"><path d="M78.8,10.99C96.01,4.95,91.11,30.98,77.9,21.19L54.56,44.54L54.74,44.72L54.46,45L54.74,45.28L54.56,45.46L77.9,68.81C91.11,59.02,96.01,85.05,78.8,79.01C85.71,95.26,59.43,91.13,68.6,78.08L45,54.46L21.4,78.08C30.57,91.13,4.29,95.26,11.2,79.01C-6.01,85.05,-1.11,59.02,12.1,68.81L35.44,45.46L35.26,45.28L35.54,45L35.26,44.72L35.44,44.54L12.1,21.19C-1.11,30.98,-6.01,4.95,11.2,10.99C4.29,-5.26,30.57,-1.13,21.4,11.92L45,35.54L68.6,11.92C59.43,-1.13,85.71,-5.26,78.8,10.99Z" fill="currentColor"/><path d="M75.95,23.14L54.56,44.54L54.74,44.72L54.46,45L54.74,45.28L54.56,45.46L75.14,66.05C72.94,69.81,68.55,71.24,62.3,71.78L45,54.46L27.69,71.79C21.45,71.26,17.06,69.83,14.86,66.06L35.44,45.46L35.26,45.28L35.54,45L35.26,44.72L35.44,44.54L14.06,23.15C16.6,19.84,19.96,16.85,23.92,14.45L45,35.54L66.09,14.43C70.05,16.83,73.41,19.82,75.95,23.14Z" fill="currentColor"/><path d="M45,11.25C45,11.25,44.97,11.25,44.94,11.25C26.76,11.58,12.12,24.22,12.12,36.71L16.19,55.51C16.19,64.71,18.48,66.69,28.66,67.08L28.66,71.82C28.66,73.39,29.35,74.88,30.53,75.91C31.88,77.08,33.79,77.35,35.4,76.59L36.83,75.93L36.94,76.14C38.63,79.4,43.27,79.43,45,76.2C46.73,79.43,51.37,79.4,53.06,76.14L53.17,75.93L54.6,76.59C56.21,77.35,58.12,77.08,59.47,75.91C60.65,74.88,61.34,73.39,61.34,71.82L61.34,67.08C71.55,66.66,73.81,64.68,73.81,55.51L77.88,36.71C77.88,24.19,63.24,11.55,45.06,11.25C45.06,11.25,45.03,11.25,45,11.25Z" fill="currentColor"/><path d="M28.29,60.48C24.33,60.48,21.07,57.24,21.07,52.64C21.07,46.67,24.3,41.8,28.29,41.8C32.28,41.8,35.46,46.67,35.46,52.64C35.46,57.24,32.24,60.48,28.29,60.48Z" fill="currentColor"/><path d="M60.75,60.48C56.8,60.48,53.54,57.24,53.54,52.64C53.54,46.67,56.76,41.8,60.75,41.8C64.74,41.8,67.93,46.67,67.93,52.64C67.93,57.24,64.71,60.48,60.75,60.48Z" fill="currentColor"/><path d="M28.28,58.19C24.95,58.19,22.19,53.33,22.19,48.77C22.19,44.2,24.91,40.48,28.28,40.48C31.65,40.48,34.34,44.2,34.34,48.77C34.34,53.33,31.62,58.19,28.28,58.19Z" fill="currentColor"/><path d="M60.92,58.19C57.58,58.19,54.86,53.33,54.86,48.77C54.86,44.2,57.58,40.48,60.92,40.48C64.25,40.48,66.98,44.2,66.98,48.77C66.98,53.33,64.25,58.19,60.92,58.19Z" fill="currentColor"/><path d="M48.15,58.7L51.3,66.45L45,66.45L38.7,66.45L41.85,58.7L45,50.99Z" fill="currentColor"/><path d="M73.69,55.93L77.67,37.55C67.64,37.64,70.79,48.27,70.79,48.27L70.76,48.24Z" fill="currentColor"/><path d="M16.13,55.93L12.15,37.55C22.18,37.64,19.03,48.27,19.03,48.27L19.06,48.24Z" fill="currentColor"/><path d="M77.01,31.35C71.55,22.73,59.33,15.83,45.06,15.61L44.94,15.61C30.67,15.85,18.44,22.76,12.98,31.37C16.38,20.85,29.36,11.53,44.94,11.25L45.06,11.25C60.63,11.51,73.61,20.81,77.01,31.35Z" fill="currentColor"/><path d="M49.37,11.56L47.9,19.12L53.9,24.75L41.28,38.37L45.28,24.75L39.28,19.12L40.75,11.55C42.12,11.38,43.52,11.28,44.94,11.25L45.06,11.25C46.52,11.27,47.96,11.38,49.37,11.56Z" fill="currentColor"/></svg>