<svg xmlns="http://www.w3.org/2000/svg" viewBox="0 0 90 90"><path d="M88,45C88,21.25,68.75,2,45,2C21.25,2,2,21.25,2,45C2,68.75,21.25,88,45,88C68.75,88,88,68.75,88,45Z" fill="currentColor"/><path d="M88,45C88,68.75,68.75,88,45,88C35.3,88,26.35,84.79,19.16,79.37C23.78,81.07,28.78,82,34,82C57.75,82,77,62.75,77,39C77,24.95,70.26,12.48,59.84,4.63C76.28,10.68,88,26.47,88,45Z" fill="currentColor" opacity="0.5"/><path d="M88,45C88,68.75,68.75,88,45,88C44.5,88,44,87.99,43.5,87.97C66.55,87.18,85,68.25,85,45C85,21.75,66.55,2.82,43.5,2.03C44,2.01,44.5,2,45,2C68.75,2,88,21.25,88,45Z" fill="currentColor"/><path d="M2.31,39.84C4.77,19.31,21.69,3.22,42.59,2.07C23.37,6.97,8.3,21.38,2.31,39.84Z" fill="currentColor"/><path d="M30.44,50.08C26.91,50.08,24,47.24,24,43.23C24,38.02,26.88,33.77,30.44,33.77C34.01,33.77,36.85,38.02,36.85,43.23C36.85,47.24,33.97,50.08,30.44,50.08Z" fill="currentColor"/><path d="M59.44,50.08C55.91,50.08,53,47.24,53,43.23C53,38.02,55.88,33.77,59.44,33.77C63.01,33.77,65.85,38.02,65.85,43.23C65.85,47.24,62.97,50.08,59.44,50.08Z" fill="currentColor"/><path d="M30.44,48.08C27.46,48.08,25,43.84,25,39.85C25,35.86,27.43,32.62,30.44,32.62C33.45,32.62,35.85,35.86,35.85,39.85C35.85,43.84,33.42,48.08,30.44,48.08Z" fill="currentColor"/><path d="M59.59,48.08C56.61,48.08,54.18,43.84,54.18,39.85C54.18,35.86,56.61,32.62,59.59,32.62C62.57,32.62,65,35.86,65,39.85C65,43.84,62.57,48.08,59.59,48.08Z" fill="currentColor"/><path d="M38.13,25.14C38.13,25.14,38.13,25.25,38.13,25.45C38.13,25.64,38.1,25.94,38.04,26.27C37.99,26.63,37.91,27.07,37.8,27.54C37.66,28,37.52,28.55,37.27,29.1C37.05,29.68,36.78,30.26,36.45,30.86C36.12,31.47,35.7,32.07,35.24,32.65C34.77,33.23,34.22,33.81,33.64,34.3C33.04,34.8,32.41,35.26,31.72,35.62C31.03,36.01,30.32,36.31,29.6,36.53C28.89,36.75,28.17,36.89,27.48,36.97C26.8,37.02,26.14,37.02,25.5,36.97C25.2,36.97,24.9,36.91,24.59,36.86C24.32,36.8,24.02,36.78,23.77,36.69C22.73,36.42,21.9,36.09,21.35,35.81C20.8,35.54,20.5,35.35,20.5,35.35C20.17,35.15,20.03,34.69,20.2,34.3C20.3,34.05,20.55,33.89,20.77,33.89L20.83,33.89C20.83,33.89,21.16,33.89,21.71,33.89C21.98,33.89,22.31,33.89,22.7,33.89C23.08,33.89,23.5,33.86,23.96,33.83C24.18,33.83,24.43,33.78,24.68,33.75C24.93,33.75,25.17,33.7,25.42,33.64C25.91,33.56,26.44,33.45,26.96,33.31C27.48,33.15,28,32.98,28.53,32.76C28.77,32.65,29.05,32.54,29.3,32.4C29.55,32.29,29.79,32.13,30.04,31.99C31.99,30.78,33.62,28.94,34.83,27.43C35.13,27.04,35.4,26.68,35.65,26.35C35.9,26.02,36.12,25.72,36.28,25.47C36.45,25.23,36.59,25.03,36.7,24.9C36.78,24.76,36.83,24.7,36.83,24.7C36.94,24.29,37.33,24.07,37.69,24.21C38.04,24.35,38.23,24.76,38.13,25.17" fill="none" stroke="currentColor" stroke-width="2" stroke-linecap="round" stroke-linejoin="round"/><path d="M51.88,25.14C51.88,25.14,51.88,25.25,51.88,25.45C51.88,25.64,51.9,25.94,51.96,26.27C52.01,26.63,52.09,27.07,52.2,27.54C52.34,28,52.48,28.55,52.73,29.1C52.95,29.68,53.22,30.26,53.55,30.86C53.88,31.47,54.3,32.07,54.76,32.65C55.23,33.23,55.78,33.81,56.36,34.3C56.96,34.8,57.59,35.26,58.28,35.62C58.97,36.01,59.66,36.31,60.37,36.53C61.09,36.75,61.8,36.89,62.49,36.97C63.18,37.02,63.84,37.02,64.47,36.97C64.77,36.97,65.08,36.91,65.38,36.86C65.65,36.8,65.95,36.78,66.2,36.69C67.25,36.42,68.07,36.09,68.62,35.81C69.17,35.54,69.47,35.35,69.47,35.35C69.81,35.15,69.94,34.69,69.78,34.3C69.67,34.05,69.42,33.89,69.2,33.89L69.14,33.89C69.14,33.89,68.81,33.89,68.27,33.89C67.99,33.89,67.66,33.89,67.28,33.89C66.89,33.89,66.48,33.86,66.01,33.83C65.79,33.83,65.54,33.78,65.3,33.75C65.05,33.75,64.8,33.7,64.55,33.64C64.06,33.56,63.53,33.45,63.01,33.31C62.49,33.15,61.97,32.98,61.45,32.76C61.2,32.65,60.92,32.54,60.67,32.4C60.43,32.29,60.18,32.13,59.93,31.99C57.98,30.78,56.36,28.94,55.15,27.43C54.84,27.04,54.57,26.68,54.32,26.35C54.08,26.02,53.85,25.72,53.69,25.47C53.52,25.23,53.39,25.03,53.28,24.9C53.2,24.76,53.14,24.7,53.14,24.7C53.03,24.29,52.65,24.07,52.29,24.21C51.93,24.35,51.74,24.76,51.85,25.17" fill="none" stroke="currentColor" stroke-width="2" stroke-linecap="round" stroke-linejoin="round"/><path d="M28.77,64.35C28.38,64.81,28.43,65.53,28.91,65.91C29.22,66.14,29.64,66.18,29.99,66.03C34.28,64.15,40.85,64,45,64C49.15,64,55.72,64.15,60.01,66.03C60.37,66.18,60.78,66.14,61.09,65.91C61.57,65.53,61.62,64.82,61.22,64.35C58.4,60.99,54.23,54.04,45.02,54.04C35.8,54.04,31.6,60.99,28.77,64.35Z" fill="currentColor"/><path d="M27.63,63.97C27.24,64.47,27.24,65.16,27.6,65.68C28.09,66.4,29.08,66.55,29.8,66.06C34.99,62.58,40.77,61.69,45,61.69C49.23,61.69,55.01,62.58,60.2,66.07C60.92,66.55,61.91,66.4,62.4,65.68C62.76,65.16,62.76,64.47,62.36,63.97C58.29,58.85,51.89,56,45.02,56C38.14,56,31.7,58.85,27.63,63.97Z" fill="currentColor"/></svg>