<svg xmlns="http://www.w3.org/2000/svg" viewBox="0 0 90 90"><path d="M89,44C89,67.75,69.75,87,46,87C22.25,87,3,67.75,3,44C3,20.25,22.25,1,46,1C69.75,1,89,20.25,89,44Z" fill="currentColor"/><path d="M89,44C89,20.25,69.75,1,46,1C36.3,1,27.35,4.21,20.16,9.63C24.78,7.93,29.78,7,35,7C58.75,7,78,26.25,78,50C78,64.05,71.26,76.52,60.84,84.37C77.28,78.33,89,62.53,89,44Z" fill="currentColor" opacity="0.5"/><path d="M89,44C89,20.25,69.75,1,46,1C45.5,1,45,1.01,44.5,1.03C67.55,1.82,86,20.75,86,44C86,67.25,67.55,86.18,44.5,86.97C45,86.99,45.5,87,46,87C69.75,87,89,67.75,89,44Z" fill="currentColor"/><path d="M3.31,49.16C5.77,69.69,22.69,85.78,43.59,86.93C24.37,82.03,9.3,67.62,3.31,49.16Z" fill="currentColor"/><path d="M54.94,45.38C54.94,48.81,58.4,45.38,62.66,45.38C66.93,45.38,70.39,48.81,70.39,45.38C70.39,41.94,66.93,39.16,62.66,39.16C58.4,39.16,54.94,41.94,54.94,45.38Z" fill="currentColor"/><path d="M37.06,45.38C37.06,41.94,33.6,39.16,29.34,39.16C25.07,39.16,21.61,41.94,21.61,45.38C21.61,48.81,25.07,45.38,29.34,45.38C33.6,45.38,37.06,48.81,37.06,45.38Z" fill="currentColor"/><path d="M45.97,27.84C48.81,27.84,51.12,25.53,51.12,22.67C51.12,19.81,48.81,17.52,45.97,17.52C43.14,17.52,40.83,19.83,40.83,22.67C40.83,25.53,43.14,27.84,45.97,27.84Z" fill="currentColor"/><path d="M45.97,29.84C48.81,29.84,51.12,27.53,51.12,24.67C51.12,21.81,48.81,19.52,45.97,19.52C43.14,19.52,40.83,21.83,40.83,24.67C40.83,27.53,43.14,29.84,45.97,29.84Z" fill="currentColor"/><path d="M84.9,62.34L76.36,52.66L88.13,52.66C88.57,50.5,88.85,48.28,88.95,46.02L66.16,46.02L66.16,52.59L79.64,67.97L67.19,68L67.19,74.58L76.23,74.58C79.79,71.06,82.74,66.92,84.9,62.34Z" fill="currentColor"/><path d="M40.42,62.1L47.05,62.1L47.05,59.1L35.83,59.1L35.83,62.07L41.91,69.03L36.27,69.03L36.27,72L46.67,72L46.67,69.2Z" fill="currentColor"/><path d="M64.27,82.94L64.27,82.07L55.52,72.14L64.79,72.14L64.79,67.93L49.09,67.93L49.09,72.09L57.61,81.82L49.72,81.82L49.72,86L55.24,86C58.39,85.31,61.42,84.28,64.27,82.94Z" fill="currentColor"/><path d="M76.36,55.66L91,55.66L91,49.02L66.16,49.02L66.16,55.59L79.64,70.97L67.19,71L67.19,77.58L90.21,77.58L90.21,71.37Z" fill="currentColor"/><path d="M40.42,65.1L47.05,65.1L47.05,62.1L35.83,62.1L35.83,65.07L41.91,72.03L36.27,72.03L36.27,75L46.67,75L46.67,72.2Z" fill="currentColor"/><path d="M55.52,75.14L64.79,75.14L64.79,70.93L49.09,70.93L49.09,75.09L57.61,84.82L49.72,84.82L49.72,89L64.27,89L64.27,85.07Z" fill="currentColor"/></svg>