<svg xmlns="http://www.w3.org/2000/svg" viewBox="0 0 90 90"><path d="M89,46C89,69.75,69.75,89,46,89C22.25,89,3,69.75,3,46C3,22.25,22.25,3,46,3C69.75,3,89,22.25,89,46Z" fill="currentColor"/><path d="M89,46C89,22.25,69.75,3,46,3C36.3,3,27.35,6.21,20.16,11.63C24.78,9.93,29.78,9,35,9C58.75,9,78,28.25,78,52C78,66.05,71.26,78.52,60.84,86.37C77.28,80.33,89,64.53,89,46Z" fill="currentColor" opacity="0.5"/><path d="M89,46C89,22.25,69.75,3,46,3C45.5,3,45,3.01,44.5,3.03C67.55,3.82,86,22.75,86,46C86,69.25,67.55,88.18,44.5,88.97C45,88.99,45.5,89,46,89C69.75,89,89,69.75,89,46Z" fill="currentColor"/><path d="M3.31,51.16C5.77,71.69,22.69,87.78,43.59,88.93C24.37,84.03,9.3,69.62,3.31,51.16Z" fill="currentColor"/><path d="M45.99,18C39.77,18,33.16,22.2,30.3,27.99C30.1,28.39,30.13,28.86,30.35,29.25C30.83,30.1,32.02,30.22,32.74,29.56C36.76,25.92,42.37,24.17,46,24.17C49.63,24.17,55.24,25.92,59.26,29.56C59.98,30.22,61.17,30.1,61.65,29.25C61.87,28.86,61.9,28.39,61.7,27.99C58.83,22.2,52.23,18,46.01,18" fill="currentColor"/><path d="M45.98,21C39.11,21,32.7,23.85,28.63,28.97C28.24,29.47,28.24,30.16,28.6,30.68C29.09,31.4,30.08,31.55,30.8,31.06C35.99,27.58,41.77,26.69,46,26.69C50.23,26.69,56.01,27.58,61.2,31.07C61.92,31.55,62.91,31.4,63.4,30.68C63.76,30.16,63.76,29.47,63.36,28.97C59.29,23.85,52.89,21,46.02,21" fill="currentColor"/><path d="M31.44,44.92C27.91,44.92,25,47.76,25,51.77C25,56.98,27.88,61.23,31.44,61.23C35.01,61.23,37.85,56.98,37.85,51.77C37.85,47.76,34.97,44.92,31.44,44.92Z" fill="currentColor"/><path d="M60.44,44.92C56.91,44.92,54,47.76,54,51.77C54,56.98,56.88,61.23,60.44,61.23C64.01,61.23,66.85,56.98,66.85,51.77C66.85,47.76,63.97,44.92,60.44,44.92Z" fill="currentColor"/><path d="M31.44,46.92C28.46,46.92,26,51.16,26,55.15C26,59.14,28.43,62.38,31.44,62.38C34.45,62.38,36.85,59.14,36.85,55.15C36.85,51.16,34.42,46.92,31.44,46.92Z" fill="currentColor"/><path d="M60.59,46.92C57.61,46.92,55.18,51.16,55.18,55.15C55.18,59.14,57.61,62.38,60.59,62.38C63.57,62.38,66,59.14,66,55.15C66,51.16,63.57,46.92,60.59,46.92Z" fill="currentColor"/></svg>