<svg xmlns="http://www.w3.org/2000/svg" viewBox="0 0 90 90"><path d="M89,42.55C89,66.3,69.75,85.55,46,85.55C22.25,85.55,3,66.3,3,42.55C3,18.8,22.25,-0.45,46,-0.45C69.75,-0.45,89,18.8,89,42.55Z" fill="currentColor"/><path d="M89,42.55C89,18.8,69.75,-0.45,46,-0.45C36.3,-0.45,27.35,2.76,20.16,8.18C24.78,6.48,29.78,5.55,35,5.55C58.75,5.55,78,24.8,78,48.55C78,62.6,71.26,75.07,60.84,82.92C77.28,76.87,89,61.08,89,42.55Z" fill="currentColor" opacity="0.5"/><path d="M89,42.55C89,18.8,69.75,-0.45,46,-0.45C45.5,-0.45,45,-0.44,44.5,-0.42C67.55,0.37,86,19.3,86,42.55C86,65.79,67.55,84.73,44.5,85.52C45,85.54,45.5,85.55,46,85.55C69.75,85.55,89,66.3,89,42.55Z" fill="currentColor"/><path d="M3.31,47.71C5.77,68.24,22.69,84.32,43.59,85.48C24.37,80.58,9.3,66.17,3.31,47.71Z" fill="currentColor"/><path d="M17.19,36.62C18.48,23.15,28.4,11.99,45.97,11.99C63.52,11.99,73.46,23.19,74.8,36.61C74.97,38.26,73.61,39.62,71.95,39.62L20.05,39.62C18.39,39.62,17.03,38.27,17.19,36.62Z" fill="currentColor"/><path d="M16.29,36.34C22.44,7.34,69.43,7.43,75.69,36.33C76.07,38.07,74.66,39.62,72.89,39.62L19.1,39.62C17.33,39.62,15.93,38.08,16.29,36.34Z" fill="currentColor"/><path d="M34.6,28.89L57.4,28.89C64.93,28.89,69.05,31.1,69.05,36.62L22.95,36.62C22.95,31.1,27.07,28.89,34.6,28.89Z" fill="currentColor"/><path d="M38.42,72.77C40.59,73.25,42.2,70.77,40.88,68.98L33.99,59.67L39.87,49.69C41,47.77,39.14,45.47,37.02,46.18L26.04,49.85L18.37,41.18C16.89,39.51,14.13,40.57,14.15,42.8L14.25,54.38L5.87,58.03C6.86,60.57,8.07,63,9.5,65.29L14.91,66.99L15.48,72.83C17.36,74.73,19.41,76.45,21.61,77.97L27.11,70.26Z" fill="currentColor"/><path d="M14.81,82.58L13.7,71.06L2.66,67.57C0.53,66.9,0.38,63.95,2.42,63.06L13.04,58.44L12.94,46.86C12.92,44.63,15.68,43.58,17.16,45.25L24.83,53.92L35.81,50.24C37.93,49.54,39.79,51.83,38.66,53.75L32.78,63.73L39.67,73.04C40.99,74.83,39.38,77.31,37.21,76.83L25.9,74.32L19.18,83.75C17.88,85.57,15.03,84.8,14.81,82.58Z" fill="currentColor"/><path d="M24.83,53.92L41.93,48.2L25.48,55.74C24.73,56.09,23.84,55.85,23.36,55.17L12.89,40.42Z" fill="currentColor"/><path d="M13.79,72.18C13.72,71.49,13.25,70.91,12.59,70.71L-1.01,66.42C-1.88,66.14,-1.94,64.94,-1.1,64.58L11.97,58.89C12.6,58.62,13.01,57.99,13.01,57.3L12.86,40.41L14.84,58.69C14.93,59.51,14.42,60.29,13.62,60.52L-3.32,65.61L14,69.65C14.78,69.83,15.33,70.53,15.33,71.32L15.4,88.99Z" fill="currentColor"/><path d="M25.24,75.25C25.64,74.69,26.34,74.42,27.01,74.57L40.93,77.66C41.82,77.85,42.48,76.84,41.94,76.11L33.46,64.65C33.05,64.09,33.01,63.35,33.36,62.75L41.93,48.2L31.07,63.04C30.58,63.71,30.64,64.63,31.21,65.24L43.34,78.11L26.31,72.95C25.55,72.72,24.73,73.04,24.33,73.73L15.43,89Z" fill="currentColor"/><path d="M53.58,72.77C51.4,73.25,49.8,70.77,51.12,68.98L58.01,59.67L52.13,49.69C51,47.77,52.86,45.47,54.98,46.18L65.96,49.85L73.63,41.18C75.11,39.51,77.87,40.57,77.85,42.8L77.75,54.38L86.13,58.03C85.14,60.57,83.93,63,82.5,65.29L77.09,66.99L76.52,72.83C74.64,74.73,72.59,76.45,70.38,77.97L64.89,70.26Z" fill="currentColor"/><path d="M77.19,82.58L78.3,71.06L89.34,67.57C91.47,66.9,91.62,63.95,89.58,63.06L78.96,58.44L79.06,46.86C79.08,44.63,76.32,43.58,74.84,45.25L67.17,53.92L56.19,50.24C54.07,49.54,52.21,51.83,53.34,53.75L59.22,63.73L52.33,73.04C51.01,74.83,52.62,77.31,54.79,76.83L66.1,74.32L72.82,83.75C74.12,85.57,76.97,84.8,77.19,82.58Z" fill="currentColor"/><path d="M67.17,53.92L50.07,48.2L66.52,55.74C67.27,56.09,68.16,55.85,68.64,55.17L79.11,40.42Z" fill="currentColor"/><path d="M78.21,72.18C78.28,71.49,78.75,70.91,79.41,70.71L93.01,66.42C93.88,66.14,93.94,64.94,93.1,64.58L80.03,58.89C79.4,58.62,78.99,57.99,78.99,57.3L79.14,40.41L77.16,58.69C77.07,59.51,77.58,60.29,78.38,60.52L95.32,65.61L78,69.65C77.22,69.83,76.67,70.53,76.67,71.32L76.6,88.99Z" fill="currentColor"/><path d="M66.76,75.25C66.36,74.69,65.66,74.42,64.99,74.57L51.07,77.66C50.18,77.85,49.52,76.84,50.06,76.11L58.54,64.65C58.95,64.09,58.99,63.35,58.64,62.75L50.07,48.2L60.93,63.04C61.42,63.71,61.36,64.63,60.79,65.24L48.66,78.11L65.69,72.95C66.45,72.72,67.27,73.04,67.67,73.73L76.57,89Z" fill="currentColor"/></svg>