<svg xmlns="http://www.w3.org/2000/svg" viewBox="0 0 90 90"><path d="M78.49,23.6L72.01,18.79C67.42,15.38,62.18,12.94,56.62,11.61L48.77,9.74C60.73,1.62,77.02,9.22,78.49,23.6Z" fill="currentColor" opacity="0.77"/><path d="M67.76,31.87L67.09,31.35C62.1,27.5,56.32,24.8,50.16,23.46L49.33,23.28C56.55,16.61,68.23,22.05,67.76,31.87Z" fill="currentColor"/><path d="M57.77,38.32C58.67,36.4,57.84,34.11,55.92,33.21C53.99,32.31,51.71,33.15,50.81,35.07C49.91,36.99,50.74,39.28,52.67,40.18C54.59,41.07,56.88,40.24,57.77,38.32Z" fill="currentColor"/><path d="M41.23,9.74L33.38,11.61C27.82,12.94,22.58,15.38,17.99,18.79L11.51,23.6C12.98,9.22,29.27,1.62,41.23,9.74Z" fill="currentColor" opacity="0.77"/><path d="M40.67,23.28L39.84,23.46C33.68,24.8,27.9,27.5,22.91,31.35L22.24,31.87C21.77,22.05,33.45,16.61,40.67,23.28Z" fill="currentColor"/><path d="M39.19,35.07C38.29,33.15,36.01,32.31,34.08,33.21C32.16,34.11,31.33,36.39,32.23,38.32C33.12,40.24,35.41,41.07,37.33,40.18C39.26,39.28,40.09,36.99,39.19,35.07Z" fill="currentColor"/><path d="M17.64,43.86L22.17,60.76C22.37,61.52,23.16,61.98,23.92,61.77C24.69,61.57,25.14,60.78,24.94,60.02L21.3,46.45C20.97,45.22,21.7,43.96,22.92,43.64C24.15,43.31,25.4,44.03,25.73,45.26L30.77,64.06C31.09,65.25,32.68,65.46,33.29,64.4L36.94,58.11C38.3,55.97,41.91,56.34,42.27,58.92C39.67,63.47,38.78,69.9,37.58,73.5C35.47,78.78,33.73,82,32.7,83.7C32.08,84.71,31.07,85.39,29.92,85.7L18.83,88.67C16.86,89.19,14.76,88.59,13.47,87.01C10.85,83.81,6.62,78.09,5.28,73.06L0.59,55.56C0.26,54.34,0.99,53.08,2.21,52.75C3.43,52.42,4.69,53.15,5.02,54.37L7.91,65.17C8.12,65.94,8.9,66.39,9.67,66.19C10.43,65.98,10.89,65.19,10.68,64.43L6.3,48.09C5.98,46.87,6.7,45.61,7.93,45.28C9.15,44.95,10.41,45.68,10.74,46.9L14.82,62.14C15.02,62.9,15.81,63.35,16.57,63.15C17.34,62.94,17.79,62.16,17.59,61.39L13.21,45.05C12.88,43.83,13.61,42.57,14.83,42.24C16.05,41.91,17.31,42.64,17.64,43.86Z" fill="currentColor"/><path d="M7.61,64.01L4.82,55.52C4.53,54.63,3.6,54.13,2.69,54.37C1.8,54.61,1.24,55.51,1.42,56.42L3.18,65.2L0.59,55.56C0.27,54.33,0.99,53.07,2.22,52.75C3.44,52.42,4.7,53.15,5.02,54.37Z" fill="currentColor"/><path d="M13.32,56.55L10.53,48.05C10.24,47.17,9.31,46.66,8.4,46.9C7.51,47.14,6.95,48.04,7.13,48.95L8.89,57.73L6.3,48.09C5.98,46.87,6.7,45.61,7.93,45.28C9.15,44.95,10.41,45.68,10.74,46.9Z" fill="currentColor"/><path d="M20.22,53.51L17.44,45.02C17.14,44.13,16.21,43.62,15.31,43.87C14.41,44.11,13.86,45,14.04,45.91L15.79,54.7L13.21,45.05C12.88,43.83,13.61,42.57,14.83,42.24C16.05,41.91,17.31,42.64,17.64,43.86Z" fill="currentColor"/><path d="M28.32,54.9L25.53,46.41C25.24,45.52,24.3,45.02,23.4,45.26C22.5,45.5,21.95,46.39,22.13,47.3L23.88,56.09L21.3,46.45C20.97,45.22,21.7,43.96,22.92,43.64C24.15,43.31,25.4,44.03,25.73,45.26Z" fill="currentColor"/><path d="M20.23,83.65C34.31,82.23,36.91,63.73,42.02,59.38C39.61,63.89,38.74,70.02,37.58,73.5C35.47,78.78,33.73,82,32.7,83.7C32.08,84.71,31.07,85.39,29.92,85.69L18.83,88.67C16.86,89.19,14.76,88.59,13.47,87.01C10.85,83.81,6.62,78.09,5.28,73.06L3.06,64.77C7.65,81.92,12.89,84.39,20.23,83.65Z" fill="currentColor"/><path d="M7.91,65.17C8.12,65.94,8.9,66.39,9.67,66.19C10.43,65.98,10.89,65.19,10.68,64.43L10.57,63.99C11.12,66.07,11.43,68.21,11.47,70.36L11.52,73.1L10.2,70.7C9.16,68.82,8.35,66.81,7.8,64.73Z" fill="currentColor"/><path d="M14.82,62.13C15.02,62.9,15.81,63.35,16.57,63.15C17.34,62.94,17.79,62.16,17.59,61.39L17.47,60.96L17.85,62.36C18.45,64.61,18.82,66.92,18.96,69.25L19.17,72.84L17.56,69.63C16.51,67.54,15.68,65.35,15.08,63.1L14.7,61.7Z" fill="currentColor"/><path d="M22.17,60.76C22.37,61.52,23.16,61.98,23.92,61.77C24.69,61.57,25.14,60.78,24.94,60.02L24.82,59.58C25.47,62.02,25.8,64.55,25.79,67.08L25.78,68.69L24.96,67.3C23.68,65.11,22.71,62.77,22.05,60.32Z" fill="currentColor"/><path d="M72.4,44L67.58,60.82C67.36,61.58,66.57,62.02,65.81,61.8C65.05,61.58,64.61,60.79,64.82,60.03L68.7,46.52C69.05,45.3,68.34,44.03,67.13,43.68C65.91,43.33,64.64,44.04,64.29,45.26L58.92,63.97C58.58,65.15,56.99,65.33,56.4,64.26L52.86,57.91C51.53,55.75,47.92,56.06,47.51,58.63C50.03,63.22,50.81,69.67,51.95,73.29C53.96,78.61,55.65,81.86,56.65,83.57C57.25,84.59,58.25,85.29,59.39,85.62L70.43,88.78C72.39,89.34,74.5,88.78,75.82,87.22C78.49,84.06,82.82,78.41,84.25,73.41L89.25,56C89.6,54.78,88.89,53.51,87.67,53.16C86.46,52.81,85.19,53.51,84.84,54.73L81.76,65.48C81.54,66.24,80.74,66.68,79.98,66.46C79.22,66.24,78.78,65.45,79,64.69L83.66,48.43C84.01,47.21,83.31,45.94,82.09,45.59C80.87,45.24,79.6,45.94,79.25,47.16L74.91,62.32C74.69,63.08,73.89,63.52,73.13,63.3C72.37,63.09,71.93,62.29,72.15,61.53L76.81,45.27C77.16,44.05,76.46,42.78,75.24,42.43C74.02,42.08,72.75,42.79,72.4,44Z" fill="currentColor"/><path d="M82.08,64.33L85.02,55.88C85.32,55,86.27,54.51,87.16,54.77C88.06,55.03,88.6,55.93,88.4,56.84L86.49,65.59L89.24,55.99C89.59,54.77,88.89,53.5,87.67,53.15C86.45,52.81,85.18,53.51,84.83,54.73Z" fill="currentColor"/><path d="M76.5,56.76L79.44,48.32C79.74,47.44,80.69,46.95,81.58,47.2C82.48,47.46,83.02,48.36,82.82,49.27L80.91,58.02L83.66,48.43C84.01,47.21,83.31,45.94,82.09,45.59C80.87,45.24,79.6,45.94,79.25,47.16Z" fill="currentColor"/><path d="M69.65,53.6L72.59,45.16C72.89,44.28,73.84,43.79,74.73,44.05C75.63,44.3,76.17,45.21,75.97,46.11L74.06,54.87L76.81,45.27C77.16,44.05,76.46,42.78,75.24,42.43C74.02,42.08,72.75,42.79,72.4,44Z" fill="currentColor"/><path d="M61.54,54.85L64.47,46.41C64.78,45.53,65.72,45.04,66.62,45.3C67.51,45.56,68.05,46.46,67.85,47.37L65.95,56.12L68.7,46.52C69.05,45.3,68.34,44.03,67.12,43.68C65.91,43.34,64.64,44.04,64.29,45.26Z" fill="currentColor"/><path d="M69.12,83.74C55.07,82.08,52.79,63.53,47.75,59.09C50.08,63.64,50.84,69.79,51.95,73.29C53.96,78.61,55.65,81.86,56.65,83.57C57.25,84.59,58.25,85.29,59.39,85.62L70.43,88.78C72.39,89.34,74.5,88.78,75.82,87.22C78.49,84.06,82.82,78.41,84.25,73.41L86.62,65.17C81.72,82.23,76.45,84.61,69.12,83.74Z" fill="currentColor"/><path d="M81.76,65.48C81.54,66.24,80.74,66.68,79.98,66.46C79.22,66.24,78.78,65.45,79,64.69L79.12,64.25C78.53,66.32,78.19,68.46,78.11,70.61L78.01,73.35L79.37,70.97C80.45,69.1,81.29,67.11,81.88,65.04Z" fill="currentColor"/><path d="M74.91,62.32C74.69,63.08,73.89,63.52,73.13,63.3C72.37,63.09,71.93,62.29,72.15,61.53L72.27,61.1L71.87,62.49C71.23,64.73,70.82,67.04,70.64,69.36L70.37,72.95L72.03,69.76C73.12,67.7,73.99,65.53,74.63,63.28L75.03,61.89Z" fill="currentColor"/><path d="M67.58,60.82C67.36,61.58,66.57,62.02,65.81,61.8C65.05,61.58,64.61,60.79,64.82,60.03L64.95,59.59C64.25,62.03,63.88,64.54,63.85,67.07L63.83,68.69L64.67,67.31C65.99,65.14,67.01,62.82,67.71,60.38Z" fill="currentColor"/></svg>