<svg xmlns="http://www.w3.org/2000/svg" viewBox="0 0 90 90"><path d="M88,45C88,21.25,68.75,2,45,2C21.25,2,2,21.25,2,45C2,68.75,21.25,88,45,88C68.75,88,88,68.75,88,45Z" fill="#F7C631"/><path d="M88,45C88,68.75,68.75,88,45,88C35.3,88,26.35,84.79,19.16,79.37C23.78,81.07,28.78,82,34,82C57.75,82,77,62.75,77,39C77,24.95,70.26,12.48,59.84,4.63C76.28,10.68,88,26.47,88,45Z" fill="#CF8D1B" opacity="0.5"/><path d="M88,45C88,68.75,68.75,88,45,88C44.5,88,44,87.99,43.5,87.97C66.55,87.18,85,68.25,85,45C85,21.75,66.55,2.82,43.5,2.03C44,2.01,44.5,2,45,2C68.75,2,88,21.25,88,45Z" fill="#FAD541"/><path d="M2.31,39.84C4.77,19.31,21.69,3.22,42.59,2.07C23.37,6.97,8.3,21.38,2.31,39.84Z" fill="#FFFFC7"/><path d="M88,45C88,47.43,87.8,49.8,87.41,52.12L82.91,47.12C62.65,24.61,27.35,24.61,7.09,47.12L2.59,52.12C2.2,49.8,2,47.43,2,45C2,21.25,21.25,2,45,2C68.75,2,88,21.25,88,45Z" fill="#9881F2"/><path d="M88,45C88,47.43,87.8,49.8,87.41,52.12L82.91,47.12C81.04,45.04,79.03,43.15,76.93,41.46C76.97,40.64,77,39.82,77,39C77,24.95,70.26,12.48,59.84,4.63C76.28,10.68,88,26.47,88,45Z" fill="#5E53D9" opacity="0.5"/><path d="M88,45C88,47.43,87.8,49.8,87.41,52.12L84.79,49.22C84.93,47.83,85,46.42,85,45C85,21.75,66.55,2.82,43.5,2.03C44,2.01,44.5,2,45,2C68.75,2,88,21.25,88,45Z" fill="#9881F2"/><path d="M2.31,39.84C4.77,19.31,21.69,3.22,42.59,2.07C23.37,6.97,8.3,21.38,2.31,39.84Z" fill="#C9ACFF"/><path d="M55.31,68.13L55.31,57.62C55.31,51.99,50.69,47.42,45,47.42C39.31,47.42,34.69,51.99,34.69,57.62L34.69,68.13C34.69,73.77,39.31,78.33,45,78.33C50.69,78.33,55.31,73.77,55.31,68.13Z" fill="#FCE26A"/><path d="M55.31,65.13L55.31,54.62C55.31,48.99,50.69,44.42,45,44.42C39.31,44.42,34.69,48.99,34.69,54.62L34.69,65.13C34.69,70.77,39.31,75.33,45,75.33C50.69,75.33,55.31,70.77,55.31,65.13Z" fill="#312E2B"/><path d="M30.64,17.98C35.27,18.6,37.97,23.72,36.64,29.44C35.3,35.14,30.49,39.26,25.86,38.64C21.23,38.02,18.53,32.87,19.87,27.18C21.2,21.48,26.02,17.36,30.64,17.98Z" fill="#7A66F4"/><path d="M70.13,27.18C71.47,32.87,68.77,38.02,64.14,38.64C59.51,39.26,54.7,35.13,53.36,29.44C52.03,23.72,54.73,18.6,59.36,17.98C63.98,17.36,68.8,21.48,70.13,27.18Z" fill="#7A66F4"/><path d="M30.37,20.99C34.47,21.76,36.86,28.12,35.68,35.21C34.49,42.28,30.23,47.39,26.14,46.62C22.04,45.85,19.64,39.47,20.83,32.4C22.01,25.34,26.27,20.22,30.37,20.99Z" fill="white"/><path d="M69.17,32.4C70.35,39.47,67.96,45.85,63.86,46.62C59.77,47.39,55.51,42.28,54.32,35.21C53.14,28.12,55.53,21.76,59.63,20.99C63.73,20.22,67.99,25.34,69.17,32.4Z" fill="white"/><path d="M26,59.94L26,83.58C12.9,77.12,3.56,64.17,2.18,48.93C14.1,41.54,26,50.64,26,59.94Z" fill="#B27314"/><path d="M87.81,49.08C86.38,64.26,77.06,77.14,64,83.58L64,59.94C64,50.64,75.89,42.44,87.81,49.08Z" fill="#B27314"/><path d="M20,60.44L20,90L0,90L0,53.34C0,47.5,20,51.72,20,60.44Z" fill="#CF8D1B"/><path d="M90,53.34L90,90L70,90L70,60.44C70,51.72,90,47.5,90,53.34Z" fill="#CF8D1B"/></svg>