<svg xmlns="http://www.w3.org/2000/svg" viewBox="0 0 90 90"><path d="M88,45C88,21.25,68.75,2,45,2C21.25,2,2,21.25,2,45C2,68.75,21.25,88,45,88C68.75,88,88,68.75,88,45Z" fill="#F7C631"/><path d="M88,45C88,68.75,68.75,88,45,88C35.3,88,26.35,84.79,19.16,79.37C23.78,81.07,28.78,82,34,82C57.75,82,77,62.75,77,39C77,24.95,70.26,12.48,59.84,4.63C76.28,10.68,88,26.47,88,45Z" fill="#CF8D1B" opacity="0.5"/><path d="M88,45C88,68.75,68.75,88,45,88C44.5,88,44,87.99,43.5,87.97C66.55,87.18,85,68.25,85,45C85,21.75,66.55,2.82,43.5,2.03C44,2.01,44.5,2,45,2C68.75,2,88,21.25,88,45Z" fill="#FAD541"/><path d="M2.31,39.84C4.77,19.31,21.69,3.22,42.59,2.07C23.37,6.97,8.3,21.38,2.31,39.84Z" fill="#FFFFC7"/><path d="M36.06,40.85C36.06,44.29,32.6,40.85,28.34,40.85C24.07,40.85,20.61,44.29,20.61,40.85C20.61,37.41,24.07,34.63,28.34,34.63C32.6,34.63,36.06,37.41,36.06,40.85Z" fill="#312E2B"/><path d="M53.94,40.85C53.94,37.41,57.4,34.63,61.66,34.63C65.93,34.63,69.39,37.41,69.39,40.85C69.39,44.29,65.93,40.85,61.66,40.85C57.4,40.85,53.94,44.29,53.94,40.85Z" fill="#312E2B"/><path d="M15.16,35.18C15.16,35.18,15.16,35.1,15.11,34.93C15.08,34.77,15.03,34.55,15,34.27C14.97,34,14.94,33.64,14.97,33.26C14.97,32.84,15.03,32.4,15.11,31.91C15.19,31.41,15.33,30.89,15.52,30.37C15.71,29.82,15.99,29.27,16.29,28.69C16.62,28.14,17,27.56,17.47,27.04C17.94,26.52,18.46,26.02,19.04,25.58C19.62,25.14,20.22,24.73,20.88,24.4C21.52,24.07,22.18,23.8,22.84,23.58C23.5,23.36,24.13,23.22,24.73,23.11C25.04,23.05,25.34,23.03,25.61,23C25.89,23,26.19,22.94,26.44,22.94C27.51,22.92,28.36,22.97,28.97,23.05C29.57,23.14,29.9,23.22,29.9,23.22C30.26,23.3,30.51,23.63,30.43,23.96C30.37,24.18,30.18,24.37,29.96,24.43L29.9,24.43C29.9,24.43,29.57,24.54,29.05,24.65C28.77,24.7,28.45,24.79,28.09,24.9C27.73,24.98,27.32,25.12,26.88,25.23C26.66,25.28,26.44,25.36,26.22,25.45C26,25.53,25.75,25.58,25.53,25.69C25.06,25.86,24.59,26.08,24.13,26.3C23.66,26.55,23.19,26.79,22.75,27.1C22.53,27.23,22.31,27.4,22.09,27.56C21.87,27.73,21.68,27.89,21.46,28.06C19.84,29.43,18.68,31.22,17.86,32.71C17.64,33.06,17.47,33.42,17.31,33.72C17.14,34.03,17,34.33,16.89,34.55C16.79,34.77,16.68,34.96,16.62,35.1C16.57,35.21,16.54,35.26,16.54,35.29C16.54,35.62,16.21,35.9,15.82,35.87C15.46,35.87,15.16,35.57,15.19,35.24" fill="none" stroke="#312E2B" stroke-width="2" stroke-linecap="round" stroke-linejoin="round"/><path d="M74.81,35.18C74.81,35.18,74.84,35.1,74.86,34.93C74.89,34.77,74.95,34.55,74.97,34.27C75,34,75.03,33.64,75,33.26C75,32.84,74.95,32.4,74.86,31.91C74.78,31.41,74.64,30.89,74.45,30.37C74.26,29.82,73.98,29.27,73.68,28.69C73.35,28.14,72.97,27.56,72.5,27.04C72.03,26.52,71.51,26.02,70.93,25.58C70.36,25.14,69.75,24.73,69.09,24.4C68.46,24.07,67.8,23.8,67.14,23.58C66.48,23.36,65.84,23.22,65.24,23.11C64.94,23.05,64.64,23.03,64.36,23C64.06,23,63.78,22.94,63.53,22.94C62.46,22.92,61.61,22.97,61.01,23.05C60.4,23.14,60.07,23.22,60.07,23.22C59.71,23.3,59.47,23.63,59.55,23.96C59.6,24.18,59.8,24.37,60.02,24.43L60.07,24.43C60.07,24.43,60.4,24.54,60.92,24.65C61.2,24.7,61.53,24.79,61.88,24.9C62.24,24.98,62.66,25.12,63.09,25.23C63.31,25.28,63.53,25.36,63.76,25.45C63.98,25.53,64.22,25.58,64.44,25.69C64.91,25.86,65.38,26.08,65.87,26.3C66.34,26.55,66.81,26.79,67.25,27.1C67.47,27.23,67.69,27.4,67.91,27.56C68.13,27.73,68.32,27.89,68.54,28.06C70.16,29.43,71.32,31.22,72.14,32.71C72.36,33.06,72.53,33.42,72.69,33.72C72.86,34.03,73,34.33,73.11,34.55C73.22,34.77,73.33,34.96,73.38,35.1C73.44,35.21,73.46,35.26,73.46,35.29C73.46,35.62,73.79,35.9,74.18,35.87C74.53,35.87,74.84,35.57,74.81,35.24" fill="none" stroke="#312E2B" stroke-width="2" stroke-linecap="round" stroke-linejoin="round"/><path d="M22.92,55C24.11,65.78,31.7,74.63,44.97,74.63C58.24,74.63,65.85,65.75,67.07,55.01C67.26,53.36,65.9,52,64.24,52L25.76,52C24.1,52,22.73,53.35,22.92,55Z" fill="#FCE26A"/><path d="M22.3,55.26C27.45,78.24,62.45,78.17,67.69,55.27C68.08,53.55,66.68,52,64.91,52L25.08,52C23.31,52,21.91,53.54,22.3,55.26Z" fill="#312E2B"/><path d="M36.24,60.79L53.76,60.79C59.55,60.79,62.71,58.98,62.71,54.46L27.29,54.46C27.29,58.98,30.45,60.79,36.24,60.79Z" fill="#F8F8F8"/></svg>