<svg xmlns="http://www.w3.org/2000/svg" viewBox="0 0 90 90"><path d="M88,45C88,21.25,68.75,2,45,2C21.25,2,2,21.25,2,45C2,68.75,21.25,88,45,88C68.75,88,88,68.75,88,45Z" fill="currentColor"/><path d="M88,45C88,68.75,68.75,88,45,88C35.3,88,26.35,84.79,19.16,79.37C23.78,81.07,28.78,82,34,82C57.75,82,77,62.75,77,39C77,24.95,70.26,12.48,59.84,4.63C76.28,10.68,88,26.47,88,45Z" fill="currentColor" opacity="0.5"/><path d="M88,45C88,68.75,68.75,88,45,88C44.5,88,44,87.99,43.5,87.97C66.55,87.18,85,68.25,85,45C85,21.75,66.55,2.82,43.5,2.03C44,2.01,44.5,2,45,2C68.75,2,88,21.25,88,45Z" fill="currentColor"/><path d="M2.31,39.84C4.77,19.31,21.69,3.22,42.59,2.07C23.37,6.97,8.3,21.38,2.31,39.84Z" fill="currentColor"/><path d="M30.44,46.08C26.91,46.08,24,43.24,24,39.23C24,34.02,26.88,29.77,30.44,29.77C34.01,29.77,36.85,34.02,36.85,39.23C36.85,43.24,33.97,46.08,30.44,46.08Z" fill="currentColor"/><path d="M59.44,46.08C55.91,46.08,53,43.24,53,39.23C53,34.02,55.88,29.77,59.44,29.77C63.01,29.77,65.85,34.02,65.85,39.23C65.85,43.24,62.97,46.08,59.44,46.08Z" fill="currentColor"/><path d="M30.44,44.08C27.46,44.08,25,39.84,25,35.85C25,31.86,27.43,28.62,30.44,28.62C33.45,28.62,35.85,31.86,35.85,35.85C35.85,39.84,33.42,44.08,30.44,44.08Z" fill="currentColor"/><path d="M59.59,44.08C56.61,44.08,54.18,39.84,54.18,35.85C54.18,31.86,56.61,28.62,59.59,28.62C62.57,28.62,65,31.86,65,35.85C65,39.84,62.57,44.08,59.59,44.08Z" fill="currentColor"/><path d="M63.65,66.28C63.59,65.98,63.48,65.62,63.26,65.24C63.26,65.24,63.26,65.21,63.23,65.18C63.07,64.91,62.88,64.63,62.57,64.36C61.66,63.59,60.21,63.48,58.7,62.96C57.16,62.52,55.42,62.02,53.55,61.44C49.81,60.26,45.44,58.91,40.77,57.46C38.43,56.71,36.01,55.97,33.53,55.28L31.66,54.76C31.33,54.68,31.09,54.6,30.67,54.51C30.2,54.4,29.74,54.35,29.27,54.4C28.34,54.49,27.4,54.82,26.66,55.39C25.97,55.86,25.25,57.1,25.14,57.54C24.59,59.6,25.39,61.39,27.04,62.52C27.26,62.65,27.54,62.82,27.73,62.87L28.2,63.04C28.77,63.23,28.91,63.23,29.27,63.31L31.17,63.75C33.67,64.33,36.17,64.85,38.56,65.35C43.38,66.34,47.86,67.25,51.74,68.04C53.66,68.43,55.42,68.84,56.96,69.2C58.53,69.47,59.85,70.08,61.03,69.86C61.42,69.78,61.75,69.64,62.02,69.47C62.02,69.47,62.05,69.47,62.08,69.45C62.46,69.23,62.74,68.98,62.93,68.73C62.93,68.73,62.96,68.68,62.98,68.65C63.04,68.57,63.09,68.51,63.15,68.43C63.48,67.93,63.51,67.6,63.53,67.6C63.53,67.6,63.45,67.93,63.15,68.43C63.15,68.46,63.09,68.48,63.07,68.54C63.26,68.26,63.45,67.96,63.53,67.63C63.62,67.3,63.62,66.94,63.59,66.61C63.59,66.64,63.59,66.7,63.59,66.75C63.59,67.33,63.48,67.66,63.51,67.66C63.48,67.66,63.62,67.36,63.62,66.75C63.62,66.67,63.62,66.59,63.59,66.48L63.65,66.37C63.65,66.37,63.65,66.31,63.65,66.28Z" fill="currentColor"/><path d="M62.88,68.73C62.74,68.9,62.55,69.03,62.33,69.2C62.52,69.06,62.71,68.92,62.88,68.73Z" fill="currentColor"/></svg>