<svg xmlns="http://www.w3.org/2000/svg" viewBox="0 0 90 90"><path d="M21.46,50.17C25.33,55.81,29.22,60.99,35.73,63.84C37.22,64.5,51.1,72.78,55.86,75.36C60.62,78.01,69,75.36,71.18,66.97L80.64,65.19C84.42,64.3,86.93,60.52,86.14,56.69L83.97,30.56C84,27.5,82.12,26.12,80.58,24.87C79.16,20.6,76.08,17.2,71.26,17.03C71.26,17.03,30.81,15.93,18.88,15.6C16.94,15.36,15,15.03,13.04,15.03C9.94,15.03,6.82,15.68,3.75,16.07L3.75,52.21C9.5,49.96,15.41,50.17,21.46,50.17Z" fill="currentColor"/><path d="M18.88,15.61C30.79,15.93,71.14,17.03,71.26,17.03C76.08,17.2,79.16,20.6,80.59,24.87C82.12,26.12,84,27.5,83.97,30.56L86.14,56.69C86.59,58.85,85.98,61,84.68,62.62C76.26,66.53,57.23,60.53,57.29,52C57.3,49.93,59.9,47.86,62.19,47.91C67.58,48.01,69.64,56.8,75.69,56.44C72,55.5,67,48,73.44,45.69C67.25,44.45,63.18,40.47,68.87,35.35C68.78,35.37,53.81,38.17,48.11,44.56C48.11,44.56,53.36,59.91,61.44,64.33C64,69,59.23,72.91,55.04,71.29C49.13,67.72,39.83,62.25,36.94,60.98C28.5,57.28,25.5,42,16.69,36.34C16.71,36.38,19.14,41.32,19.07,44.12L18.98,43.98C16.08,42.72,11.32,41.87,3.75,43.28L3.75,16.07C6.82,15.68,9.94,15.03,13.05,15.03C15,15.03,16.94,15.36,18.88,15.61Z" fill="currentColor"/><path d="M18.88,15.6C30.81,15.93,71.26,17.04,71.26,17.04C76.08,17.2,79.16,20.6,80.58,24.87C82.12,26.12,84,27.5,83.97,30.56L86.14,56.69C86.49,58.39,86.19,60.09,85.41,61.52L80.37,34.65C79.01,27.37,72.54,22.18,65.14,22.42L17,24L15.5,20.5L3.75,23.44L3.75,16.07C6.82,15.68,9.94,15.03,13.04,15.03C15,15.03,16.94,15.36,18.88,15.6Z" fill="currentColor"/></svg>