<svg xmlns="http://www.w3.org/2000/svg" viewBox="0 0 90 90" fill="currentColor"><path d="M79.8,11.99C97.01,5.95,92.11,31.98,78.9,22.19L55.56,45.54L55.74,45.72L55.46,46L55.74,46.28L55.56,46.46L78.9,69.81C92.11,60.02,97.01,86.05,79.8,80.01C86.71,96.26,60.43,92.13,69.6,79.08L46,55.46L22.4,79.08C31.57,92.13,5.29,96.26,12.2,80.01C-5.01,86.05,-0.11,60.02,13.1,69.81L36.44,46.46L36.26,46.28L36.54,46L36.26,45.72L36.44,45.54L13.1,22.19C-0.11,31.98,-5.01,5.95,12.2,11.99C5.29,-4.26,31.57,-0.13,22.4,12.92L46,36.54L69.6,12.92C60.43,-0.13,86.71,-4.26,79.8,11.99ZM76.95,24.14L55.56,45.54L55.74,45.72L55.46,46L55.74,46.28L55.56,46.46L76.14,67.05C73.94,70.81,69.55,72.24,63.3,72.78L46,55.46L28.69,72.79C22.45,72.26,18.06,70.83,15.86,67.06L36.44,46.46L36.26,46.28L36.54,46L36.26,45.72L36.44,45.54L15.06,24.15C17.6,20.84,20.96,17.85,24.92,15.45L46,36.54L67.09,15.43C71.05,17.83,74.41,20.82,76.95,24.14ZM46,12.25C46,12.25,45.97,12.25,45.94,12.25C27.76,12.58,13.12,25.22,13.12,37.71L17.19,56.51C17.19,65.71,19.48,67.69,29.66,68.08L29.66,72.82C29.66,74.39,30.35,75.88,31.53,76.91C32.88,78.08,34.79,78.35,36.4,77.59L37.83,76.93L37.94,77.14C39.63,80.4,44.27,80.43,46,77.2C47.73,80.43,52.37,80.4,54.06,77.14L54.17,76.93L55.6,77.59C57.21,78.35,59.12,78.08,60.47,76.91C61.65,75.88,62.34,74.39,62.34,72.82L62.34,68.08C72.55,67.66,74.81,65.68,74.81,56.51L78.88,37.71C78.88,25.19,64.24,12.55,46.06,12.25C46.06,12.25,46.03,12.25,46,12.25ZM29.29,61.48C25.33,61.48,22.07,58.24,22.07,53.64C22.07,47.67,25.3,42.8,29.29,42.8C33.28,42.8,36.46,47.67,36.46,53.64C36.46,58.24,33.24,61.48,29.29,61.48ZM61.75,61.48C57.8,61.48,54.54,58.24,54.54,53.64C54.54,47.67,57.76,42.8,61.75,42.8C65.74,42.8,68.93,47.67,68.93,53.64C68.93,58.24,65.71,61.48,61.75,61.48ZM29.28,59.19C25.95,59.19,23.19,54.33,23.19,49.77C23.19,45.2,25.91,41.48,29.28,41.48C32.65,41.48,35.34,45.2,35.34,49.77C35.34,54.33,32.62,59.19,29.28,59.19ZM61.92,59.19C58.58,59.19,55.86,54.33,55.86,49.77C55.86,45.2,58.58,41.48,61.92,41.48C65.25,41.48,67.98,45.2,67.98,49.77C67.98,54.33,65.25,59.19,61.92,59.19ZM49.15,59.7L52.3,67.45L46,67.45L39.7,67.45L42.85,59.7L46,51.99ZM74.69,56.93L78.67,38.55C68.64,38.64,71.79,49.27,71.79,49.27L71.76,49.24ZM17.13,56.93L13.15,38.55C23.18,38.64,20.03,49.27,20.03,49.27L20.06,49.24ZM78.01,32.35C72.55,23.73,60.33,16.83,46.06,16.61L45.94,16.61C31.67,16.85,19.44,23.76,13.98,32.37C17.38,21.85,30.36,12.53,45.94,12.25L46.06,12.25C61.63,12.51,74.61,21.81,78.01,32.35ZM50.37,12.56L48.9,20.12L54.9,25.75L42.28,39.37L46.28,25.75L40.28,20.12L41.75,12.55C43.12,12.38,44.52,12.28,45.94,12.25L46.06,12.25C47.52,12.27,48.96,12.38,50.37,12.56Z"/></svg>