<svg xmlns="http://www.w3.org/2000/svg" viewBox="0 0 90 90"><path d="M88,47.93C88,24.72,68.75,5.91,45,5.91C21.25,5.91,2,24.72,2,47.93C2,71.14,21.25,89.95,45,89.95C68.75,89.95,88,71.14,88,47.93Z" fill="#CF8D1B"/><path d="M88,45C88,21.25,68.75,2,45,2C21.25,2,2,21.25,2,45C2,68.75,21.25,88,45,88C68.75,88,88,68.75,88,45Z" fill="#FAD541"/><path d="M5.48,61.97C3.24,56.76,2,51.03,2,45C2,22.7,18.97,4.37,40.7,2.21L40.7,9.85C40.7,33.13,26.42,53.57,5.48,61.97Z" fill="#FCE26A"/><path d="M80.18,45C80.18,25.57,64.43,9.82,45,9.82C25.57,9.82,9.82,25.57,9.82,45C9.82,64.43,25.57,80.18,45,80.18C64.43,80.18,80.18,64.43,80.18,45Z" fill="#E3AA24"/><path d="M75.62,45C75.62,28.09,61.91,14.38,45,14.38C28.09,14.38,14.38,28.09,14.38,45C14.38,61.91,28.09,75.62,45,75.62C61.91,75.62,75.62,61.91,75.62,45Z" fill="#F7C631"/><path d="M16.45,56.08C15.11,52.64,14.38,48.91,14.38,45C14.38,29.62,25.72,16.89,40.49,14.71C39.03,31.69,29.97,46.73,16.45,56.08Z" fill="#FCE26A"/><path d="M75.62,45C75.62,57.71,67.87,68.62,56.84,73.25C65.55,63.36,71.79,51.45,74.93,38.52C75.38,40.61,75.62,42.78,75.62,45Z" fill="#FAD541"/><path d="M52.5,87.35C68.08,82.02,80.47,70.29,86.73,55.38C82.68,71.74,69.26,84.4,52.5,87.35Z" fill="#FFFFC7"/><path d="M2.31,39.84C4.77,19.31,21.69,3.22,42.59,2.07C23.37,6.97,8.3,21.38,2.31,39.84Z" fill="#FFFFC7"/><path d="M42.62,79.64L35.99,79.64L35.99,66.97L42.62,66.97Z" fill="#99580E"/><path d="M55.94,79.64L49.31,79.64L49.31,66.97L55.94,66.97Z" fill="#99580E"/><path d="M35.99,11.96L42.62,11.96L42.62,24.56L35.99,24.56Z" fill="#99580E"/><path d="M49.31,11.96L55.94,11.96L55.94,24.63L49.31,24.63Z" fill="#99580E"/><path d="M46.79,20.6C52.65,20.6,57.16,21.82,60.33,24.27C63.55,26.67,65.15,29.96,65.15,34.14C65.15,36.78,64.53,39.08,63.28,41.05C62.03,43.02,60.28,44.53,58.03,45.58C55.82,46.64,53.27,47.17,50.39,47.17L51.11,43.71C54.19,43.71,56.9,44.26,59.25,45.37C61.6,46.42,63.43,47.96,64.72,49.98C66.02,51.99,66.67,54.39,66.67,57.18C66.67,61.5,65.01,64.88,61.7,67.33C58.43,69.78,53.71,71,47.51,71L26.49,71L26.49,20.6Z" fill="#99580E"/><path d="M53.63,60.34C55.27,59.34,56.08,57.8,56.08,55.74C56.08,53.67,55.29,52.18,53.71,51.27C52.12,50.36,49.79,49.9,46.72,49.9L36.28,49.9L36.28,41.41L45.64,41.41C48.52,41.41,50.73,40.95,52.27,40.04C53.8,39.08,54.57,37.62,54.57,35.65C54.57,33.68,53.8,32.22,52.27,31.26C50.73,30.25,48.55,29.74,45.71,29.74L37.07,29.74L37.07,61.86L46.79,61.86C49.77,61.86,52.05,61.35,53.63,60.34Z" fill="#99580E"/></svg>