<svg xmlns="http://www.w3.org/2000/svg" viewBox="0 0 90 90" fill="currentColor"><path d="M58.76,40.61C58.76,40.61,63.55,46.47,63.76,46.75C67.65,51.81,69.61,58.79,69.61,66.5C69.61,82.79,54.87,90.19,47.35,90.84C47.35,90.84,47.35,90.84,47.34,90.85C44.7,91.15,41.75,91.15,40.55,91.13C40.25,91.13,40,90.88,40,90.58L40,85.26C39.98,85.26,29.08,75.67,24.57,71.14C24.25,70.83,24.21,70.34,24.45,69.97L28.82,63.4C29.1,62.99,29.66,62.86,30.09,63.13C34.07,65.57,38.71,67.44,45.23,66.87C45.38,66.86,45.69,66.82,45.95,66.78C46.05,66.76,46.15,66.69,46.21,66.6C46.26,66.5,46.27,66.39,46.24,66.29C46.15,66.01,46.02,65.65,45.93,65.45C44.33,62.21,39.87,60.11,36.78,56.78C31.91,51.54,31.58,45.88,32.42,42.3L32.43,42.29C32.43,42.27,32.45,42.19,32.46,42.17C33.03,39.69,33.5,38.31,32.39,36.4C30.43,33.51,28.78,32.32,28.78,32.32L28.8,32.32C27.47,31.29,26.6,29.69,26.6,27.89L26.6,25.49C26.6,25.34,26.62,25.19,26.63,25.05C26.62,24.97,26.6,24.9,26.6,24.83L26.6,21.76C26.6,20.73,27.44,19.89,28.47,19.89L32.2,19.89L60.46,19.89L64.19,19.89C65.21,19.89,66.05,20.73,66.05,21.76L66.05,24.83C66.05,24.9,66.03,24.97,66.03,25.05C66.04,25.19,66.05,25.34,66.05,25.49L66.05,27.89C66.05,29.69,65.62,30.72,63.86,32.32C59.53,36.23,58.23,39.33,58.76,40.61ZM39.34,45.11C37.85,39.92,44.53,30.72,44.97,26.57C45.42,22.42,44.53,20.34,44.53,20.34L65.59,20.05C65.59,20.05,61.58,28.5,56.99,30.87C52.39,33.24,47.5,44.07,46.6,48.08C45.71,52.08,52.24,52.38,54.61,56.83C56.99,61.27,51.05,61.72,43.34,62.32L35.18,54.75C43.64,54.75,40.82,50.3,39.34,45.11ZM42.16,36.66C38.74,43.03,40.97,46.15,40.97,46.15C40.97,46.15,42,37.25,48.98,32.21C55.95,27.17,56.99,19.9,56.99,19.9L47.2,20.34C47.05,25.09,45.57,30.28,42.16,36.66ZM52.69,68.1C56.69,61.42,62.47,62.16,61.29,56.97C60.1,51.78,55.36,43.18,57.87,39.77C57.87,39.77,59.95,43.03,61.44,44.22C62.92,45.41,69.74,55.2,69.74,64.98C69.74,82.78,58.91,85.75,58.91,85.75C58.17,78.33,48.68,74.77,52.69,68.1ZM50.46,84.41C51.05,80.56,47.94,74.62,40.23,74.92C32.51,75.22,28.51,75.07,28.51,75.07L40.08,85.74L40.23,91.23C43.19,91.23,49.86,88.27,50.46,84.41ZM58.78,39.85C66.03,39.85,71.86,39.94,71.86,40.06C71.86,40.17,66.03,40.26,58.78,40.26C58.78,44.98,58.69,48.78,58.58,48.78C58.46,48.78,58.37,44.98,58.37,40.26C51.13,40.26,45.28,40.17,45.28,40.06C45.28,39.94,51.13,39.85,58.37,39.85C58.37,35.13,58.46,31.33,58.58,31.33C58.69,31.33,58.78,35.13,58.78,39.85ZM65.49,28.61C65.37,28.61,65.28,24.82,65.28,20.1C58.04,20.1,52.2,20,52.2,19.89C52.2,19.78,58.04,19.69,65.28,19.68C65.28,14.96,65.37,11.17,65.49,11.17C65.6,11.17,65.69,14.96,65.69,19.68C72.93,19.69,78.78,19.78,78.78,19.89C78.78,20,72.93,20.1,65.69,20.1C65.69,24.82,65.6,28.61,65.49,28.61ZM66.84,69.3C66.96,69.3,67.05,73.09,67.05,77.81C74.29,77.81,80.13,77.91,80.13,78.01C80.13,78.13,74.29,78.22,67.05,78.22C67.05,82.94,66.96,86.74,66.84,86.74C66.73,86.74,66.64,82.94,66.64,78.22C59.4,78.22,53.55,78.13,53.55,78.01C53.55,77.91,59.4,77.81,66.64,77.81C66.64,73.09,66.73,69.3,66.84,69.3ZM31.85,47.04C24.6,47.04,18.76,46.95,18.76,46.83C18.76,46.72,24.6,46.63,31.85,46.63C31.85,41.91,31.94,38.11,32.05,38.11C32.16,38.11,32.26,41.91,32.26,46.63C39.5,46.63,45.34,46.72,45.34,46.83C45.34,46.95,39.5,47.04,32.26,47.04C32.26,51.76,32.16,55.55,32.05,55.55C31.94,55.55,31.85,51.76,31.85,47.04ZM20.58,55.16C20.63,55.11,24.24,58.62,28.67,63.05C28.68,57.19,28.74,52.49,28.82,52.49C28.91,52.49,28.97,57.32,28.97,63.29C37.74,63.29,44.83,63.34,44.83,63.4C44.83,63.46,37.83,63.51,29.13,63.51C33.58,67.97,37.12,71.59,37.07,71.65C37.02,71.7,33.41,68.19,28.97,63.75C28.97,69.61,28.91,74.31,28.82,74.31C28.74,74.31,28.67,69.48,28.67,63.51C19.9,63.51,12.82,63.46,12.82,63.4C12.82,63.34,19.82,63.29,28.52,63.29C24.06,58.84,20.52,55.21,20.58,55.16ZM34.85,28.2C34.8,28.24,31.2,24.73,26.76,20.3C26.76,26.16,26.7,30.86,26.61,30.86C26.53,30.86,26.46,26.03,26.46,20.06C17.69,20.06,10.61,20.01,10.61,19.95C10.61,19.89,17.61,19.84,26.31,19.84C21.85,15.38,18.31,11.76,18.37,11.71C18.42,11.65,22.02,15.17,26.46,19.6C26.46,13.74,26.53,9.04,26.61,9.04C26.7,9.04,26.76,13.87,26.76,19.84C35.53,19.84,42.62,19.89,42.62,19.95C42.62,20.01,35.61,20.06,26.92,20.06C31.37,24.51,34.91,28.14,34.85,28.2ZM32.54,70.21C32.59,70.15,36.2,73.68,40.65,78.11C40.65,71.84,40.71,66.79,40.79,66.79C40.86,66.79,40.92,71.84,40.93,78.11C42.89,76.16,44.67,74.39,46.07,73.02C46.03,71.47,46,69.27,46,66.81C38.76,66.8,32.91,66.71,32.91,66.6C32.91,66.49,38.76,66.4,46,66.39C46,61.67,46.09,57.88,46.21,57.88C46.32,57.88,46.41,61.67,46.41,66.39C53.66,66.4,59.49,66.49,59.49,66.6C59.49,66.71,53.66,66.8,46.41,66.81C46.41,69.12,46.39,71.21,46.35,72.74C47.96,71.16,49,70.18,49.03,70.21C49.06,70.23,48.01,71.34,46.34,73.04C46.31,74.45,46.26,75.32,46.21,75.32C46.15,75.32,46.11,74.55,46.08,73.32C44.72,74.69,43.02,76.42,41.13,78.31C47.41,78.31,52.44,78.37,52.44,78.45C52.44,78.53,47.41,78.59,41.13,78.59C45.56,83.03,49.08,86.64,49.03,86.7C48.97,86.75,45.37,83.23,40.93,78.79C40.92,85.07,40.86,90.11,40.79,90.11C40.71,90.11,40.65,85.07,40.65,78.79C36.2,83.23,32.59,86.75,32.54,86.7C32.49,86.64,36.01,83.03,40.45,78.59C34.17,78.59,29.12,78.53,29.12,78.45C29.12,78.37,34.17,78.31,40.45,78.31C36.01,73.87,32.49,70.26,32.54,70.21ZM29.27,31.71C28.07,30.78,27.38,29.38,27.38,27.89L27.38,25.49C27.38,25.36,27.39,25.24,27.4,25.11C27.4,25.05,27.4,24.94,27.39,24.88L27.38,21.75C27.38,21.16,27.87,20.67,28.47,20.67L64.18,20.67C64.79,20.67,65.28,21.16,65.28,21.75L65.28,24.82C65.27,24.88,65.25,25.05,65.26,25.1C65.27,25.28,65.28,25.38,65.28,25.49L65.28,27.89C65.28,29.37,65.01,30.24,63.34,31.75C59.33,35.37,57.24,38.97,58.04,40.91C58.06,40.98,58.1,41.05,58.15,41.1C58.15,41.1,62.94,46.94,63.15,47.22C66.87,52.07,68.84,58.73,68.84,66.49C68.84,82.74,54.03,89.48,47.28,90.07C44.89,90.35,42.26,90.38,40.77,90.37L40.77,85.27C40.77,85.02,40.65,84.8,40.48,84.66C39.99,84.24,29.5,74.99,25.11,70.6C25.06,70.55,25.05,70.47,25.09,70.4L29.47,63.83C29.51,63.77,29.6,63.75,29.68,63.78C33.14,65.91,38.05,68.25,45.3,67.64C45.46,67.63,45.79,67.58,46.06,67.54C46.38,67.5,46.68,67.3,46.87,67C47.04,66.71,47.08,66.36,46.98,66.05C46.87,65.73,46.73,65.33,46.62,65.12C45.59,63.01,43.55,61.43,41.39,59.76C40,58.68,38.56,57.56,37.35,56.26C32,50.51,32.65,44.7,33.17,42.47L33.34,41.77C33.86,39.6,34.24,38.04,33.06,36.01C31.27,33.37,29.74,32.08,29.34,31.77C29.32,31.75,29.29,31.73,29.27,31.71ZM28.47,19.12C27.02,19.12,25.83,20.3,25.83,21.75L25.83,24.82C25.83,24.87,25.85,25.07,25.86,25.11C25.85,25.15,25.83,25.32,25.83,25.49L25.83,27.89C25.83,29.84,26.71,31.64,28.24,32.86C28.27,32.89,28.3,32.92,28.33,32.95C28.34,32.96,29.91,34.12,31.75,36.83C32.59,38.28,32.34,39.33,31.84,41.41L31.7,42C31.09,44.59,30.36,51.02,36.22,57.31C37.51,58.7,39,59.86,40.45,60.98C42.46,62.55,44.36,64.01,45.23,65.8C45.27,65.87,45.31,65.97,45.35,66.08C45.27,66.09,45.2,66.11,45.16,66.11C38.36,66.71,33.75,64.47,30.49,62.47C29.71,61.98,28.68,62.21,28.18,62.99L23.81,69.54C23.36,70.2,23.44,71.11,24.02,71.69C24.15,71.81,36,82.99,39.23,85.53L39.23,90.57C39.23,91.29,39.81,91.89,40.54,91.91C42.02,91.94,44.87,91.91,47.43,91.61C54.61,90.99,70.38,83.8,70.38,66.49C70.38,58.38,68.3,51.39,64.38,46.28C64.18,46.02,60.1,41.04,59.44,40.23C59.24,39.4,60.16,36.71,64.38,32.89C66.23,31.22,66.82,30,66.82,27.89L66.82,25.49C66.82,25.35,66.81,25.21,66.8,25.08C66.81,25.02,66.82,24.93,66.82,24.82L66.82,21.75C66.82,20.3,65.64,19.12,64.18,19.12ZM58.71,59.14C58.15,59.14,57.69,59.59,57.69,60.15C57.69,60.71,58.15,61.17,58.71,61.17C59.27,61.17,59.72,60.71,59.72,60.15C59.72,59.59,59.27,59.14,58.71,59.14ZM47.17,29.9C46.78,29.9,46.47,30.21,46.47,30.6C46.47,30.98,46.78,31.29,47.17,31.29C47.55,31.29,47.86,30.98,47.86,30.6C47.86,30.21,47.55,29.9,47.17,29.9ZM45.04,49.91C44.66,49.91,44.34,50.22,44.34,50.6C44.34,50.98,44.66,51.29,45.04,51.29C45.42,51.29,45.73,50.98,45.73,50.6C45.73,50.22,45.42,49.91,45.04,49.91ZM40.79,77.76C40.4,77.76,40.09,78.07,40.09,78.45C40.09,78.84,40.4,79.15,40.79,79.15C41.17,79.15,41.48,78.84,41.48,78.45C41.48,78.07,41.17,77.76,40.79,77.76ZM49.63,42.43C49.4,42.43,49.21,42.62,49.21,42.84C49.21,43.07,49.4,43.26,49.63,43.26C49.85,43.26,50.04,43.07,50.04,42.84C50.04,42.62,49.85,42.43,49.63,42.43ZM48.61,87.02C48.38,87.02,48.2,87.21,48.2,87.44C48.2,87.67,48.38,87.85,48.61,87.85C48.84,87.85,49.03,87.67,49.03,87.44C49.03,87.21,48.84,87.02,48.61,87.02Z"/></svg>