<svg xmlns="http://www.w3.org/2000/svg" viewBox="0 0 90 90"><path d="M57.76,59.38C57.76,59.38,62.55,53.51,62.76,53.24C66.65,48.18,68.61,41.2,68.61,33.49C68.61,17.19,53.87,9.79,46.35,9.14C46.35,9.14,46.35,9.14,46.34,9.14C43.7,8.84,40.75,8.84,39.55,8.85C39.25,8.86,39,9.1,39,9.41L39,14.72C38.98,14.72,28.08,24.32,23.57,28.84C23.25,29.16,23.21,29.65,23.45,30.02L27.82,36.58C28.1,37,28.66,37.12,29.09,36.86C33.07,34.41,37.71,32.55,44.23,33.11C44.38,33.12,44.69,33.17,44.95,33.21C45.05,33.23,45.15,33.29,45.21,33.39C45.26,33.48,45.27,33.59,45.24,33.7C45.15,33.98,45.02,34.34,44.93,34.53C43.33,37.78,38.87,39.87,35.78,43.2C30.91,48.44,30.58,54.1,31.42,57.69L31.43,57.7C31.43,57.72,31.45,57.79,31.46,57.81C32.03,60.3,32.5,61.68,31.39,63.59C29.43,66.47,27.78,67.67,27.78,67.67L27.8,67.67C26.47,68.69,25.6,70.29,25.6,72.09L25.6,74.5C25.6,74.65,25.62,74.79,25.63,74.94C25.62,75.01,25.6,75.08,25.6,75.16L25.6,78.23C25.6,79.25,26.44,80.09,27.47,80.09L31.2,80.09L59.46,80.09L63.19,80.09C64.21,80.09,65.05,79.25,65.05,78.23L65.05,75.16C65.05,75.08,65.03,75.01,65.03,74.94C65.04,74.79,65.05,74.65,65.05,74.5L65.05,72.09C65.05,70.29,64.62,69.26,62.86,67.67C58.53,63.75,57.23,60.66,57.76,59.38Z" fill="#2D293E"/><path d="M38.34,54.88C36.85,60.06,43.53,69.26,43.97,73.41C44.42,77.57,43.53,79.64,43.53,79.64L64.59,79.94C64.59,79.94,60.58,71.49,55.99,69.11C51.39,66.74,46.5,55.92,45.6,51.91C44.71,47.9,51.24,47.61,53.61,43.16C55.99,38.71,50.05,38.27,42.34,37.67L34.18,45.23C42.64,45.23,39.82,49.68,38.34,54.88Z" fill="#333A63"/><path d="M41.16,63.33C37.74,56.95,39.97,53.84,39.97,53.84C39.97,53.84,41,62.74,47.98,67.78C54.95,72.82,55.99,80.09,55.99,80.09L46.2,79.64C46.05,74.9,44.57,69.7,41.16,63.33Z" fill="#364E83"/><path d="M51.69,31.89C55.69,38.56,61.47,37.82,60.29,43.01C59.1,48.2,54.36,56.8,56.87,60.22C56.87,60.22,58.95,56.95,60.44,55.77C61.92,54.58,68.74,44.79,68.74,35C68.74,17.2,57.91,14.24,57.91,14.24C57.17,21.65,47.68,25.21,51.69,31.89Z" fill="#333A63"/><path d="M49.46,15.57C50.05,19.43,46.94,25.36,39.23,25.06C31.51,24.77,27.51,24.92,27.51,24.92L39.08,14.24L39.23,8.75C42.19,8.75,48.86,11.72,49.46,15.57Z" fill="#333A63"/><path d="M39,9.41L39,14.73C38.98,14.73,28.09,24.32,23.56,28.84C23.25,29.15,23.2,29.65,23.45,30.02L27.82,36.58C28.1,37,28.66,37.12,29.09,36.86C33.08,34.41,37.71,32.55,44.23,33.11C44.38,33.12,44.69,33.17,44.95,33.21C45.05,33.23,45.15,33.29,45.2,33.39C45.26,33.48,45.28,33.59,45.24,33.7C45.15,33.98,45.02,34.34,44.93,34.53C43.33,37.78,38.88,39.87,35.78,43.2C30.91,48.44,30.58,54.1,31.43,57.69L31.43,57.7C31.43,57.71,31.45,57.8,31.45,57.82C32.04,60.29,32.5,61.67,31.39,63.59C29.43,66.47,27.79,67.67,27.79,67.67L27.8,67.67C26.47,68.69,25.61,70.29,25.61,72.09L25.61,74.5C25.61,74.65,25.62,74.79,25.63,74.94C25.62,75.01,25.61,75.09,25.61,75.16L25.61,78.23C25.61,79.25,26.44,80.09,27.47,80.09L31.19,80.09L59.46,80.09L63.18,80.09C64.21,80.09,65.05,79.25,65.05,78.23L65.05,75.16C65.05,75.09,65.04,75.01,65.03,74.94C65.04,74.79,65.05,74.65,65.05,74.5L65.05,72.09C65.05,70.29,64.62,69.26,62.86,67.67C58.53,63.76,57.22,60.65,57.75,59.37C57.75,59.37,62.55,53.51,62.77,53.23C66.65,48.18,68.61,41.2,68.61,33.49C68.61,17.19,53.87,9.8,46.35,9.14C46.35,9.14,46.34,9.14,46.34,9.14C44.21,8.89,41.88,8.85,40.43,8.85C40.08,8.85,39.78,8.85,39.55,8.85C39.24,8.85,39,9.1,39,9.41Z" fill="white"/><path d="M57.78,60.14C65.03,60.13,70.86,60.04,70.86,59.93C70.86,59.82,65.03,59.73,57.78,59.72C57.78,55,57.69,51.21,57.58,51.21C57.46,51.21,57.37,55,57.37,59.72C50.13,59.73,44.28,59.82,44.28,59.93C44.28,60.04,50.13,60.13,57.37,60.14C57.37,64.86,57.46,68.65,57.58,68.65C57.69,68.65,57.78,64.86,57.78,60.14Z" fill="white"/><path d="M39,9.41L39,14.73C38.98,14.73,28.09,24.32,23.56,28.84C23.25,29.15,23.2,29.65,23.45,30.02L27.82,36.58C28.1,37,28.66,37.12,29.09,36.86C33.08,34.41,37.71,32.55,44.23,33.11C44.38,33.12,44.69,33.17,44.95,33.21C45.05,33.23,45.15,33.29,45.2,33.39C45.26,33.48,45.28,33.59,45.24,33.7C45.15,33.98,45.02,34.34,44.93,34.53C43.33,37.78,38.88,39.87,35.78,43.2C30.91,48.44,30.58,54.1,31.43,57.69L31.43,57.7C31.43,57.71,31.45,57.8,31.45,57.82C32.04,60.29,32.5,61.67,31.39,63.59C29.43,66.47,27.79,67.67,27.79,67.67L27.8,67.67C26.47,68.69,25.61,70.29,25.61,72.09L25.61,74.5C25.61,74.65,25.62,74.79,25.63,74.94C25.62,75.01,25.61,75.09,25.61,75.16L25.61,78.23C25.61,79.25,26.44,80.09,27.47,80.09L31.19,80.09L59.46,80.09L63.18,80.09C64.21,80.09,65.05,79.25,65.05,78.23L65.05,75.16C65.05,75.09,65.04,75.01,65.03,74.94C65.04,74.79,65.05,74.65,65.05,74.5L65.05,72.09C65.05,70.29,64.62,69.26,62.86,67.67C58.53,63.76,57.22,60.65,57.75,59.37C57.75,59.37,62.55,53.51,62.77,53.23C66.65,48.18,68.61,41.2,68.61,33.49C68.61,17.19,53.87,9.8,46.35,9.14C46.35,9.14,46.34,9.14,46.34,9.14C44.21,8.89,41.88,8.85,40.43,8.85C40.08,8.85,39.78,8.85,39.55,8.85C39.24,8.85,39,9.1,39,9.41Z" fill="white"/><path d="M64.49,71.37C64.37,71.37,64.28,75.17,64.28,79.89C57.04,79.89,51.2,79.98,51.2,80.09C51.2,80.21,57.04,80.3,64.28,80.3C64.28,85.02,64.37,88.81,64.49,88.81C64.6,88.81,64.69,85.02,64.69,80.3C71.93,80.3,77.78,80.21,77.78,80.09C77.78,79.98,71.93,79.89,64.69,79.89C64.69,75.17,64.6,71.37,64.49,71.37Z" fill="white"/><path d="M39,9.41L39,14.73C38.98,14.73,28.09,24.32,23.56,28.84C23.25,29.15,23.2,29.65,23.45,30.02L27.82,36.58C28.1,37,28.66,37.12,29.09,36.86C33.08,34.41,37.71,32.55,44.23,33.11C44.38,33.12,44.69,33.17,44.95,33.21C45.05,33.23,45.15,33.29,45.2,33.39C45.26,33.48,45.28,33.59,45.24,33.7C45.15,33.98,45.02,34.34,44.93,34.53C43.33,37.78,38.88,39.87,35.78,43.2C30.91,48.44,30.58,54.1,31.43,57.69L31.43,57.7C31.43,57.71,31.45,57.8,31.45,57.82C32.04,60.29,32.5,61.67,31.39,63.59C29.43,66.47,27.79,67.67,27.79,67.67L27.8,67.67C26.47,68.69,25.61,70.29,25.61,72.09L25.61,74.5C25.61,74.65,25.62,74.79,25.63,74.94C25.62,75.01,25.61,75.09,25.61,75.16L25.61,78.23C25.61,79.25,26.44,80.09,27.47,80.09L31.19,80.09L59.46,80.09L63.18,80.09C64.21,80.09,65.05,79.25,65.05,78.23L65.05,75.16C65.05,75.09,65.04,75.01,65.03,74.94C65.04,74.79,65.05,74.65,65.05,74.5L65.05,72.09C65.05,70.29,64.62,69.26,62.86,67.67C58.53,63.76,57.22,60.65,57.75,59.37C57.75,59.37,62.55,53.51,62.77,53.23C66.65,48.18,68.61,41.2,68.61,33.49C68.61,17.19,53.87,9.8,46.35,9.14C46.35,9.14,46.34,9.14,46.34,9.14C44.21,8.89,41.88,8.85,40.43,8.85C40.08,8.85,39.78,8.85,39.55,8.85C39.24,8.85,39,9.1,39,9.41Z" fill="white"/><path d="M65.84,30.69C65.96,30.69,66.05,26.89,66.05,22.18C73.29,22.18,79.13,22.08,79.13,21.97C79.13,21.85,73.29,21.76,66.05,21.76C66.05,17.04,65.96,13.25,65.84,13.25C65.73,13.25,65.64,17.04,65.64,21.76C58.4,21.76,52.55,21.85,52.55,21.97C52.55,22.08,58.4,22.18,65.64,22.18C65.64,26.89,65.73,30.69,65.84,30.69Z" fill="white"/><path d="M39,9.41L39,14.73C38.98,14.73,28.09,24.32,23.56,28.84C23.25,29.15,23.2,29.65,23.45,30.02L27.82,36.58C28.1,37,28.66,37.12,29.09,36.86C33.08,34.41,37.71,32.55,44.23,33.11C44.38,33.12,44.69,33.17,44.95,33.21C45.05,33.23,45.15,33.29,45.2,33.39C45.26,33.48,45.28,33.59,45.24,33.7C45.15,33.98,45.02,34.34,44.93,34.53C43.33,37.78,38.88,39.87,35.78,43.2C30.91,48.44,30.58,54.1,31.43,57.69L31.43,57.7C31.43,57.71,31.45,57.8,31.45,57.82C32.04,60.29,32.5,61.67,31.39,63.59C29.43,66.47,27.79,67.67,27.79,67.67L27.8,67.67C26.47,68.69,25.61,70.29,25.61,72.09L25.61,74.5C25.61,74.65,25.62,74.79,25.63,74.94C25.62,75.01,25.61,75.09,25.61,75.16L25.61,78.23C25.61,79.25,26.44,80.09,27.47,80.09L31.19,80.09L59.46,80.09L63.18,80.09C64.21,80.09,65.05,79.25,65.05,78.23L65.05,75.16C65.05,75.09,65.04,75.01,65.03,74.94C65.04,74.79,65.05,74.65,65.05,74.5L65.05,72.09C65.05,70.29,64.62,69.26,62.86,67.67C58.53,63.76,57.22,60.65,57.75,59.37C57.75,59.37,62.55,53.51,62.77,53.23C66.65,48.18,68.61,41.2,68.61,33.49C68.61,17.19,53.87,9.8,46.35,9.14C46.35,9.14,46.34,9.14,46.34,9.14C44.21,8.89,41.88,8.85,40.43,8.85C40.08,8.85,39.78,8.85,39.55,8.85C39.24,8.85,39,9.1,39,9.41Z" fill="white"/><path d="M30.85,52.94C23.6,52.95,17.76,53.03,17.76,53.15C17.76,53.26,23.6,53.35,30.85,53.36C30.85,58.08,30.94,61.87,31.05,61.87C31.16,61.87,31.26,58.08,31.26,53.36C38.5,53.35,44.34,53.26,44.34,53.15C44.34,53.03,38.5,52.95,31.26,52.94C31.26,48.23,31.16,44.43,31.05,44.43C30.94,44.43,30.85,48.23,30.85,52.94Z" fill="white"/><path d="M39,9.41L39,14.73C38.98,14.73,28.09,24.32,23.56,28.84C23.25,29.15,23.2,29.65,23.45,30.02L27.82,36.58C28.1,37,28.66,37.12,29.09,36.86C33.08,34.41,37.71,32.55,44.23,33.11C44.38,33.12,44.69,33.17,44.95,33.21C45.05,33.23,45.15,33.29,45.2,33.39C45.26,33.48,45.28,33.59,45.24,33.7C45.15,33.98,45.02,34.34,44.93,34.53C43.33,37.78,38.88,39.87,35.78,43.2C30.91,48.44,30.58,54.1,31.43,57.69L31.43,57.7C31.43,57.71,31.45,57.8,31.45,57.82C32.04,60.29,32.5,61.67,31.39,63.59C29.43,66.47,27.79,67.67,27.79,67.67L27.8,67.67C26.47,68.69,25.61,70.29,25.61,72.09L25.61,74.5C25.61,74.65,25.62,74.79,25.63,74.94C25.62,75.01,25.61,75.09,25.61,75.16L25.61,78.23C25.61,79.25,26.44,80.09,27.47,80.09L31.19,80.09L59.46,80.09L63.18,80.09C64.21,80.09,65.05,79.25,65.05,78.23L65.05,75.16C65.05,75.09,65.04,75.01,65.03,74.94C65.04,74.79,65.05,74.65,65.05,74.5L65.05,72.09C65.05,70.29,64.62,69.26,62.86,67.67C58.53,63.76,57.22,60.65,57.75,59.37C57.75,59.37,62.55,53.51,62.77,53.23C66.65,48.18,68.61,41.2,68.61,33.49C68.61,17.19,53.87,9.8,46.35,9.14C46.35,9.14,46.34,9.14,46.34,9.14C44.21,8.89,41.88,8.85,40.43,8.85C40.08,8.85,39.78,8.85,39.55,8.85C39.24,8.85,39,9.1,39,9.41Z" fill="white"/><path d="M19.58,44.82C19.63,44.88,23.24,41.36,27.67,36.93C27.68,42.79,27.74,47.49,27.82,47.49C27.91,47.49,27.97,42.66,27.97,36.69C36.74,36.69,43.83,36.64,43.83,36.58C43.83,36.52,36.83,36.48,28.13,36.48C32.58,32.02,36.12,28.39,36.07,28.34C36.02,28.29,32.41,31.8,27.97,36.23C27.97,30.37,27.91,25.67,27.82,25.67C27.74,25.67,27.67,30.5,27.67,36.47C18.9,36.48,11.82,36.52,11.82,36.58C11.82,36.64,18.82,36.69,27.52,36.69C23.06,41.15,19.52,44.77,19.58,44.82Z" fill="white"/><path d="M39,9.41L39,14.73C38.98,14.73,28.09,24.32,23.56,28.84C23.25,29.15,23.2,29.65,23.45,30.02L27.82,36.58C28.1,37,28.66,37.12,29.09,36.86C33.08,34.41,37.71,32.55,44.23,33.11C44.38,33.12,44.69,33.17,44.95,33.21C45.05,33.23,45.15,33.29,45.2,33.39C45.26,33.48,45.28,33.59,45.24,33.7C45.15,33.98,45.02,34.34,44.93,34.53C43.33,37.78,38.88,39.87,35.78,43.2C30.91,48.44,30.58,54.1,31.43,57.69L31.43,57.7C31.43,57.71,31.45,57.8,31.45,57.82C32.04,60.29,32.5,61.67,31.39,63.59C29.43,66.47,27.79,67.67,27.79,67.67L27.8,67.67C26.47,68.69,25.61,70.29,25.61,72.09L25.61,74.5C25.61,74.65,25.62,74.79,25.63,74.94C25.62,75.01,25.61,75.09,25.61,75.16L25.61,78.23C25.61,79.25,26.44,80.09,27.47,80.09L31.19,80.09L59.46,80.09L63.18,80.09C64.21,80.09,65.05,79.25,65.05,78.23L65.05,75.16C65.05,75.09,65.04,75.01,65.03,74.94C65.04,74.79,65.05,74.65,65.05,74.5L65.05,72.09C65.05,70.29,64.62,69.26,62.86,67.67C58.53,63.76,57.22,60.65,57.75,59.37C57.75,59.37,62.55,53.51,62.77,53.23C66.65,48.18,68.61,41.2,68.61,33.49C68.61,17.19,53.87,9.8,46.35,9.14C46.35,9.14,46.34,9.14,46.34,9.14C44.21,8.89,41.88,8.85,40.43,8.85C40.08,8.85,39.78,8.85,39.55,8.85C39.24,8.85,39,9.1,39,9.41Z" fill="white"/><path d="M33.85,71.79C33.8,71.74,30.2,75.25,25.76,79.68C25.76,73.83,25.7,69.12,25.61,69.12C25.53,69.12,25.46,73.95,25.46,79.93C16.69,79.93,9.61,79.98,9.61,80.03C9.61,80.09,16.61,80.14,25.31,80.14C20.85,84.6,17.31,88.23,17.37,88.28C17.42,88.33,21.02,84.82,25.46,80.38C25.46,86.25,25.53,90.94,25.61,90.94C25.7,90.94,25.76,86.11,25.76,80.14C34.53,80.14,41.62,80.09,41.62,80.03C41.62,79.98,34.61,79.93,25.92,79.93C30.37,75.47,33.91,71.84,33.85,71.79Z" fill="white"/><path d="M39,9.41L39,14.73C38.98,14.73,28.09,24.32,23.56,28.84C23.25,29.15,23.2,29.65,23.45,30.02L27.82,36.58C28.1,37,28.66,37.12,29.09,36.86C33.08,34.41,37.71,32.55,44.23,33.11C44.38,33.12,44.69,33.17,44.95,33.21C45.05,33.23,45.15,33.29,45.2,33.39C45.26,33.48,45.28,33.59,45.24,33.7C45.15,33.98,45.02,34.34,44.93,34.53C43.33,37.78,38.88,39.87,35.78,43.2C30.91,48.44,30.58,54.1,31.43,57.69L31.43,57.7C31.43,57.71,31.45,57.8,31.45,57.82C32.04,60.29,32.5,61.67,31.39,63.59C29.43,66.47,27.79,67.67,27.79,67.67L27.8,67.67C26.47,68.69,25.61,70.29,25.61,72.09L25.61,74.5C25.61,74.65,25.62,74.79,25.63,74.94C25.62,75.01,25.61,75.09,25.61,75.16L25.61,78.23C25.61,79.25,26.44,80.09,27.47,80.09L31.19,80.09L59.46,80.09L63.18,80.09C64.21,80.09,65.05,79.25,65.05,78.23L65.05,75.16C65.05,75.09,65.04,75.01,65.03,74.94C65.04,74.79,65.05,74.65,65.05,74.5L65.05,72.09C65.05,70.29,64.62,69.26,62.86,67.67C58.53,63.76,57.22,60.65,57.75,59.37C57.75,59.37,62.55,53.51,62.77,53.23C66.65,48.18,68.61,41.2,68.61,33.49C68.61,17.19,53.87,9.8,46.35,9.14C46.35,9.14,46.34,9.14,46.34,9.14C44.21,8.89,41.88,8.85,40.43,8.85C40.08,8.85,39.78,8.85,39.55,8.85C39.24,8.85,39,9.1,39,9.41Z" fill="white"/><path d="M31.54,29.77C31.59,29.83,35.2,26.31,39.65,21.87C39.65,28.15,39.71,33.19,39.79,33.19C39.86,33.19,39.92,28.15,39.93,21.87C41.89,23.83,43.67,25.59,45.07,26.96C45.03,28.52,45,30.71,45,33.18C37.76,33.18,31.91,33.27,31.91,33.39C31.91,33.5,37.76,33.59,45,33.59C45,38.31,45.09,42.11,45.21,42.11C45.32,42.11,45.41,38.31,45.41,33.59C52.66,33.59,58.49,33.5,58.49,33.39C58.49,33.27,52.66,33.18,45.41,33.18C45.41,30.87,45.39,28.78,45.35,27.25C46.96,28.82,48,29.8,48.03,29.77C48.06,29.75,47.01,28.64,45.34,26.95C45.31,25.54,45.26,24.66,45.21,24.66C45.15,24.66,45.11,25.44,45.08,26.67C43.72,25.29,42.02,23.57,40.13,21.68C46.41,21.68,51.44,21.61,51.44,21.53C51.44,21.46,46.41,21.39,40.13,21.39C44.56,16.95,48.08,13.34,48.03,13.29C47.97,13.24,44.37,16.75,39.93,21.19C39.92,14.92,39.86,9.87,39.79,9.87C39.71,9.87,39.65,14.92,39.65,21.19C35.2,16.75,31.59,13.24,31.54,13.29C31.49,13.34,35.01,16.95,39.45,21.39C33.17,21.39,28.12,21.46,28.12,21.53C28.12,21.61,33.17,21.68,39.45,21.68C35.01,26.12,31.49,29.73,31.54,29.77Z" fill="white"/><path d="M28.27,68.28C27.07,69.21,26.38,70.6,26.38,72.1L26.38,74.5C26.38,74.62,26.39,74.75,26.4,74.88C26.4,74.93,26.4,75.04,26.39,75.1L26.38,78.23C26.38,78.83,26.87,79.32,27.47,79.32L63.18,79.32C63.79,79.32,64.28,78.83,64.28,78.23L64.28,75.16C64.27,75.11,64.25,74.94,64.26,74.89C64.27,74.7,64.28,74.6,64.28,74.5L64.28,72.1C64.28,70.61,64.01,69.75,62.34,68.24C58.33,64.61,56.24,61.02,57.04,59.08C57.06,59.01,57.1,58.94,57.15,58.88C57.15,58.88,61.94,53.04,62.15,52.77C65.87,47.92,67.84,41.26,67.84,33.49C67.84,17.24,53.03,10.5,46.28,9.92C43.89,9.63,41.26,9.6,39.77,9.62L39.77,14.72C39.77,14.97,39.65,15.19,39.48,15.33C38.99,15.74,28.5,24.99,24.11,29.39C24.06,29.44,24.05,29.52,24.09,29.59L28.47,36.15C28.51,36.22,28.6,36.24,28.68,36.2C32.14,34.07,37.05,31.73,44.3,32.34C44.46,32.35,44.79,32.4,45.06,32.44C45.38,32.49,45.68,32.68,45.87,32.98C46.04,33.27,46.08,33.62,45.98,33.94C45.87,34.26,45.73,34.66,45.62,34.87C44.59,36.97,42.55,38.55,40.39,40.23C39,41.3,37.56,42.43,36.35,43.72C31,49.47,31.65,55.28,32.17,57.51L32.34,58.22C32.86,60.39,33.24,61.95,32.06,63.98C30.27,66.61,28.74,67.9,28.34,68.22C28.32,68.24,28.29,68.26,28.27,68.28Z" fill="#DAD7D5"/><path d="M27.47,80.86C26.02,80.86,24.83,79.68,24.83,78.23L24.83,75.16C24.83,75.12,24.85,74.92,24.86,74.88C24.85,74.84,24.83,74.67,24.83,74.5L24.83,72.1C24.83,70.15,25.71,68.34,27.24,67.12C27.27,67.1,27.3,67.07,27.33,67.04C27.34,67.03,28.91,65.87,30.75,63.15C31.59,61.71,31.34,60.66,30.84,58.57L30.7,57.99C30.09,55.39,29.36,48.97,35.22,42.67C36.51,41.28,38,40.12,39.45,39C41.46,37.44,43.36,35.97,44.23,34.19C44.27,34.12,44.31,34.01,44.35,33.9C44.27,33.89,44.2,33.88,44.16,33.88C37.36,33.27,32.75,35.52,29.49,37.52C28.71,38.01,27.68,37.78,27.18,37L22.81,30.44C22.36,29.78,22.44,28.88,23.02,28.3C23.15,28.17,35,17,38.23,14.46L38.23,9.41C38.23,8.69,38.81,8.09,39.54,8.08C41.02,8.04,43.87,8.08,46.43,8.38C53.61,8.99,69.38,16.19,69.38,33.49C69.38,41.6,67.3,48.59,63.38,53.71C63.18,53.96,59.1,58.95,58.44,59.75C58.24,60.58,59.16,63.28,63.38,67.1C65.23,68.77,65.82,69.98,65.82,72.1L65.82,74.5C65.82,74.63,65.81,74.77,65.8,74.91C65.81,74.97,65.82,75.06,65.82,75.16L65.82,78.23C65.82,79.68,64.64,80.86,63.18,80.86Z" fill="#DAD7D5"/><path d="M57.71,40.85C57.15,40.85,56.69,40.4,56.69,39.83C56.69,39.27,57.15,38.82,57.71,38.82C58.27,38.82,58.72,39.27,58.72,39.83C58.72,40.4,58.27,40.85,57.71,40.85Z" fill="white"/><path d="M46.17,70.08C45.78,70.08,45.47,69.77,45.47,69.39C45.47,69.01,45.78,68.7,46.17,68.7C46.55,68.7,46.86,69.01,46.86,69.39C46.86,69.77,46.55,70.08,46.17,70.08Z" fill="white"/><path d="M44.04,50.08C43.66,50.08,43.34,49.77,43.34,49.39C43.34,49,43.66,48.69,44.04,48.69C44.42,48.69,44.73,49,44.73,49.39C44.73,49.77,44.42,50.08,44.04,50.08Z" fill="white"/><path d="M39.79,22.23C39.4,22.23,39.09,21.92,39.09,21.53C39.09,21.15,39.4,20.84,39.79,20.84C40.17,20.84,40.48,21.15,40.48,21.53C40.48,21.92,40.17,22.23,39.79,22.23Z" fill="white"/><path d="M48.63,57.56C48.4,57.56,48.21,57.37,48.21,57.14C48.21,56.91,48.4,56.72,48.63,56.72C48.85,56.72,49.04,56.91,49.04,57.14C49.04,57.37,48.85,57.56,48.63,57.56Z" fill="white"/><path d="M47.61,12.96C47.38,12.96,47.2,12.78,47.2,12.55C47.2,12.31,47.38,12.13,47.61,12.13C47.84,12.13,48.03,12.31,48.03,12.55C48.03,12.78,47.84,12.96,47.61,12.96Z" fill="white"/></svg>