<svg xmlns="http://www.w3.org/2000/svg" viewBox="0 0 90 90"><path d="M12.56,5C8.38,5,5,8.38,5,12.56L5,77.44C5,81.62,8.38,85,12.56,85L77.44,85C81.62,85,85,81.62,85,77.44L85,12.56C85,8.38,81.62,5,77.44,5Z" fill="currentColor"/><path d="M62.78,9.44L62.78,27.22L80.56,27.22L80.56,9.44Z" fill="currentColor"/><path d="M45,27.22L45,45L62.78,45L62.78,27.22Z" fill="currentColor"/><path d="M27.23,9.44L27.23,27.22L45.01,27.22L45.01,9.44Z" fill="currentColor"/><path d="M9.44,27.22L9.44,45L27.22,45L27.22,27.22Z" fill="currentColor"/><path d="M27.23,45L27.23,62.78L45.01,62.78L45.01,45Z" fill="currentColor"/><path d="M9.44,62.77L9.44,80.55L27.22,80.55L27.22,62.77Z" fill="currentColor"/><path d="M62.78,45L62.78,62.78L80.56,62.78L80.56,45Z" fill="currentColor"/><path d="M45,62.77L45,80.55L62.78,80.55L62.78,62.77Z" fill="currentColor"/><path d="M45,9.44L45,27.22L62.78,27.22L62.78,9.44Z" fill="currentColor"/><path d="M62.78,27.22L62.78,45L80.56,45L80.56,27.22Z" fill="currentColor"/><path d="M9.44,9.44L9.44,27.22L27.22,27.22L27.22,9.44Z" fill="currentColor"/><path d="M27.23,27.22L27.23,45L45.01,45L45.01,27.22Z" fill="currentColor"/><path d="M9.44,45L9.44,62.78L27.22,62.78L27.22,45Z" fill="currentColor"/><path d="M27.23,62.77L27.23,80.55L45.01,80.55L45.01,62.77Z" fill="currentColor"/><path d="M45,45L45,62.78L62.78,62.78L62.78,45Z" fill="currentColor"/><path d="M62.78,62.77L62.78,80.55L80.56,80.55L80.56,62.77Z" fill="currentColor"/><path d="M81.39,44.55L81.39,8.99L8.43,45.54L8.43,81.1Z" fill="currentColor"/><path d="M60.01,45.38C62.81,45.34,65.14,44.56,66.93,43.31C69.68,41.37,71.04,38.52,71.75,36.04C72.46,33.54,72.54,31.4,72.54,30.41C72.54,30.09,72.54,29.9,72.54,29.87L72.45,28.28L61.18,28.28L61.18,25.16L49.15,25.16L32.85,33.32L32.85,39.76C32.85,40.31,32.88,40.85,32.94,41.37C31.4,41.2,30.26,40.72,29.34,40.09C28.06,39.2,27.17,37.89,26.57,36.46L23.07,38.21C23.13,38.34,23.15,38.46,23.21,38.59C24.03,40.3,25.25,42.02,27.08,43.3C28.86,44.56,31.2,45.34,34,45.37C35.67,49.22,38.98,52.18,43.07,53.36L43.07,58.12C43.01,62.44,39.5,65.92,35.16,65.92L34.67,65.92L34.67,67.96L51.07,59.74C50.95,59.18,50.87,58.61,50.87,58.02L50.87,53.39L50.86,53.39C54.97,52.22,58.33,49.25,60.01,45.38Z" fill="currentColor"/><path d="M61.16,32.21L68.53,32.21C68.39,33.32,68.06,35.21,67.23,36.91C66.64,38.18,65.81,39.29,64.66,40.1C63.75,40.74,62.6,41.21,61.06,41.38C61.12,40.86,61.16,40.31,61.16,39.77L61.16,39.76Z" fill="currentColor"/><path d="M70.44,26.28L59.17,26.28L59.17,23.16L30.84,23.16L30.84,26.29L19.56,26.29L19.47,27.87C19.47,27.87,19.47,28.09,19.47,28.41C19.47,29.72,19.6,33.16,21.21,36.6C22.03,38.31,23.25,40.03,25.08,41.31C26.86,42.57,29.2,43.35,32,43.38C33.67,47.23,36.98,50.19,41.07,51.37L41.07,56.13C41.01,60.45,37.5,63.93,33.16,63.93L32.67,63.93L32.67,68.61L57.27,68.61L57.27,63.93L56.77,63.93C52.41,63.93,48.87,60.39,48.87,56.03L48.87,51.4C52.98,50.23,56.34,47.26,58.02,43.39C60.82,43.35,63.15,42.57,64.94,41.32C67.69,39.38,69.05,36.53,69.76,34.05C70.47,31.55,70.55,29.41,70.55,28.42C70.55,28.1,70.55,27.91,70.55,27.88L70.53,27.87Z" fill="currentColor"/><path d="M24.03,32.96C23.71,31.84,23.54,30.81,23.47,30.21L30.84,30.21L30.84,37.76C30.84,38.31,30.87,38.85,30.93,39.37C29.39,39.2,28.25,38.72,27.33,38.09C25.62,36.9,24.59,34.94,24.03,32.96Z" fill="currentColor"/><path d="M62.67,38.09C61.76,38.73,60.61,39.2,59.07,39.37C59.13,38.85,59.17,38.3,59.17,37.76L59.17,30.21L66.54,30.21C66.4,31.32,66.07,33.21,65.24,34.91L65.24,34.9C64.65,36.17,63.82,37.28,62.67,38.09Z" fill="currentColor"/><path d="M41.06,56.13C41,60.45,37.49,63.93,33.15,63.93L32.66,63.93L32.66,68.61L57.26,68.61L57.26,63.93L56.76,63.93C52.4,63.93,48.86,60.39,48.86,56.03L48.86,51.4L41.06,51.38L41.06,51.37Z" fill="currentColor"/><path d="M41.06,56.12C41,60.44,37.49,63.92,33.15,63.92L32.66,63.92L32.66,68.6L57.26,68.6L57.26,63.92L56.76,63.92C45.58,63.92,41.06,52.71,41.06,52.71Z" fill="currentColor"/><path d="M64.93,41.31C67.68,39.37,69.04,36.52,69.75,34.04C70.46,31.54,70.54,29.4,70.54,28.41C70.54,28.09,70.54,27.9,70.54,27.87L70.45,26.28L59.18,26.28L59.18,30.21L66.55,30.21C66.41,31.32,66.08,33.21,65.25,34.91C64.66,36.18,63.83,37.29,62.68,38.1C61.77,38.74,60.62,39.21,59.08,39.38L58.02,43.38L58.01,43.38C60.81,43.34,63.14,42.56,64.93,41.31Z" fill="currentColor"/><path d="M27.33,38.1C26.18,37.29,25.35,36.18,24.75,34.91C23.92,33.21,23.58,31.33,23.45,30.21L30.82,30.21L30.82,26.28L19.55,26.28L19.46,27.88C19.46,27.88,19.46,28.09,19.46,28.41C19.46,29.4,19.54,31.54,20.25,34.04C20.95,36.52,22.32,39.37,25.07,41.31C26.85,42.56,29.18,43.35,31.99,43.38L30.93,39.38C29.39,39.21,28.24,38.73,27.33,38.1Z" fill="currentColor"/><path d="M45.01,23.16L30.85,23.16L30.85,37.77C30.85,38.32,30.83,38.65,30.95,39.38C31.39,42.23,32.01,43.38,32.01,43.38L32,43.38C44.99,43.38,45.01,23.32,45.01,23.16Z" fill="currentColor"/></svg>