<svg xmlns="http://www.w3.org/2000/svg" viewBox="0 0 90 90" fill="currentColor"><path d="M13.56,86C9.38,86,6,82.62,6,78.44L6,13.56C6,9.38,9.38,6,13.56,6L78.44,6C82.62,6,86,9.38,86,13.56L86,78.44C86,82.62,82.62,86,78.44,86ZM63.78,81.56L63.78,63.78L81.56,63.78L81.56,81.56ZM46,63.78L46,46L63.78,46L63.78,63.78ZM28.23,81.56L28.23,63.78L46.01,63.78L46.01,81.56ZM10.44,63.78L10.44,46L28.22,46L28.22,63.78ZM28.23,46L28.23,28.22L46.01,28.22L46.01,46ZM10.44,28.23L10.44,10.45L28.22,10.45L28.22,28.23ZM63.78,46L63.78,28.22L81.56,28.22L81.56,46ZM46,28.23L46,10.45L63.78,10.45L63.78,28.23ZM46,81.56L46,63.78L63.78,63.78L63.78,81.56ZM63.78,63.78L63.78,46L81.56,46L81.56,63.78ZM10.44,81.56L10.44,63.78L28.22,63.78L28.22,81.56ZM28.23,63.78L28.23,46L46.01,46L46.01,63.78ZM10.44,46L10.44,28.22L28.22,28.22L28.22,46ZM28.23,28.23L28.23,10.45L46.01,10.45L46.01,28.23ZM46,46L46,28.22L63.78,28.22L63.78,46ZM63.78,28.23L63.78,10.45L81.56,10.45L81.56,28.23ZM82.39,46.45L82.39,82.01L9.43,45.46L9.43,9.9ZM61.01,45.62C63.81,45.66,66.14,46.44,67.93,47.69C70.68,49.63,72.04,52.48,72.75,54.96C73.46,57.46,73.54,59.6,73.54,60.59C73.54,60.91,73.54,61.1,73.54,61.13L73.45,62.72L62.18,62.72L62.18,65.84L50.15,65.84L33.85,57.68L33.85,51.24C33.85,50.69,33.88,50.15,33.94,49.63C32.4,49.8,31.26,50.28,30.34,50.91C29.06,51.8,28.17,53.11,27.57,54.54L24.07,52.79C24.13,52.66,24.15,52.54,24.21,52.41C25.03,50.7,26.25,48.98,28.08,47.7C29.86,46.44,32.2,45.66,35,45.63C36.67,41.78,39.98,38.82,44.07,37.64L44.07,32.88C44.01,28.56,40.5,25.08,36.16,25.08L35.67,25.08L35.67,23.04L52.07,31.26C51.95,31.82,51.87,32.39,51.87,32.98L51.87,37.61L51.86,37.61C55.97,38.78,59.33,41.75,61.01,45.62ZM62.16,58.79L69.53,58.79C69.39,57.68,69.06,55.79,68.23,54.09C67.64,52.82,66.81,51.71,65.66,50.9C64.75,50.26,63.6,49.79,62.06,49.62C62.12,50.14,62.16,50.69,62.16,51.23L62.16,51.24ZM71.44,64.72L60.17,64.72L60.17,67.84L31.84,67.84L31.84,64.71L20.56,64.71L20.47,63.13C20.47,63.13,20.47,62.91,20.47,62.59C20.47,61.28,20.6,57.84,22.21,54.4C23.03,52.69,24.25,50.97,26.08,49.69C27.86,48.43,30.2,47.65,33,47.62C34.67,43.77,37.98,40.81,42.07,39.63L42.07,34.87C42.01,30.55,38.5,27.07,34.16,27.07L33.67,27.07L33.67,22.39L58.27,22.39L58.27,27.07L57.77,27.07C53.41,27.07,49.87,30.61,49.87,34.97L49.87,39.6C53.98,40.77,57.34,43.74,59.02,47.61C61.82,47.65,64.15,48.43,65.94,49.68C68.69,51.62,70.05,54.47,70.76,56.95C71.47,59.45,71.55,61.59,71.55,62.58C71.55,62.9,71.55,63.09,71.55,63.12L71.53,63.13ZM25.03,58.04C24.71,59.16,24.54,60.19,24.47,60.79L31.84,60.79L31.84,53.24C31.84,52.69,31.87,52.15,31.93,51.63C30.39,51.8,29.25,52.28,28.33,52.91C26.62,54.1,25.59,56.06,25.03,58.04ZM63.67,52.91C62.76,52.27,61.61,51.8,60.07,51.63C60.13,52.15,60.17,52.7,60.17,53.24L60.17,60.79L67.54,60.79C67.4,59.68,67.07,57.79,66.24,56.09L66.24,56.1C65.65,54.83,64.82,53.72,63.67,52.91ZM42.06,34.87C42,30.55,38.49,27.07,34.15,27.07L33.66,27.07L33.66,22.39L58.26,22.39L58.26,27.07L57.76,27.07C53.4,27.07,49.86,30.61,49.86,34.97L49.86,39.6L42.06,39.62L42.06,39.63ZM42.06,34.88C42,30.56,38.49,27.08,34.15,27.08L33.66,27.08L33.66,22.4L58.26,22.4L58.26,27.08L57.76,27.08C46.58,27.08,42.06,38.29,42.06,38.29ZM65.93,49.69C68.68,51.63,70.04,54.48,70.75,56.96C71.46,59.46,71.54,61.6,71.54,62.59C71.54,62.91,71.54,63.1,71.54,63.13L71.45,64.72L60.18,64.72L60.18,60.79L67.55,60.79C67.41,59.68,67.08,57.79,66.25,56.09C65.66,54.82,64.83,53.71,63.68,52.9C62.77,52.26,61.62,51.79,60.08,51.62L59.02,47.62L59.01,47.62C61.81,47.66,64.14,48.44,65.93,49.69ZM28.33,52.9C27.18,53.71,26.35,54.82,25.75,56.09C24.92,57.79,24.58,59.67,24.45,60.79L31.82,60.79L31.82,64.72L20.55,64.72L20.46,63.12C20.46,63.12,20.46,62.91,20.46,62.59C20.46,61.6,20.54,59.46,21.25,56.96C21.95,54.48,23.32,51.63,26.07,49.69C27.85,48.44,30.18,47.65,32.99,47.62L31.93,51.62C30.39,51.79,29.24,52.27,28.33,52.9ZM46.01,67.84L31.85,67.84L31.85,53.23C31.85,52.68,31.83,52.35,31.95,51.62C32.39,48.77,33.01,47.62,33.01,47.62L33,47.62C45.99,47.62,46.01,67.68,46.01,67.84Z"/></svg>