<svg xmlns="http://www.w3.org/2000/svg" viewBox="0 0 90 90"><path d="M88,48C88,24.8,68.75,6,45,6C21.25,6,2,24.8,2,48C2,71.2,21.25,90,45,90C68.75,90,88,71.2,88,48Z" fill="currentColor"/><path d="M88,43C88,19.25,68.75,0,45,0C21.25,0,2,19.25,2,43C2,66.75,21.25,86,45,86C68.75,86,88,66.75,88,43Z" fill="currentColor"/><path d="M88,43C88,19.25,68.75,0,45,0C21.25,0,2,19.25,2,43C2,66.75,21.25,86,45,86C68.75,86,88,66.75,88,43Z" fill="currentColor"/><path d="M2.82,34.62C9.73,17.72,24.31,4.72,42.52,0.07C22.76,1.19,6.56,15.67,2.82,34.62Z" fill="currentColor"/><path d="M87.98,44.18C84.23,61.76,72.63,76.49,56.8,84.36C74.45,79.33,87.47,63.31,87.98,44.18Z" fill="currentColor"/><path d="M45,86C68.75,86,88,66.75,88,43C88,37.41,86.93,32.06,84.99,27.16C75.46,53.36,54.15,73.85,27.4,82.25C32.77,84.66,38.73,86,45,86Z" fill="currentColor" opacity="0.2"/><path d="M45,71C60.47,71,73,58.46,73,43C73,27.53,60.46,15,45,15C29.54,15,17,27.54,17,43C17,58.46,29.54,71,45,71Z" fill="currentColor"/><path d="M45,11.55L45,1.02Z" fill="currentColor"/><path d="M45,1.02L45,11.55" fill="none" stroke="currentColor" stroke-width="2" stroke-linecap="square" stroke-linejoin="round"/><path d="M45,74.45L45,84.98Z" fill="currentColor"/><path d="M45,84.98L45,74.45" fill="none" stroke="currentColor" stroke-width="2" stroke-linecap="square" stroke-linejoin="round"/><path d="M13.55,43L3.02,43Z" fill="currentColor"/><path d="M3.02,43L13.55,43" fill="none" stroke="currentColor" stroke-width="2" stroke-linecap="square" stroke-linejoin="round"/><path d="M76.45,43L86.98,43Z" fill="currentColor"/><path d="M86.98,43L76.45,43" fill="none" stroke="currentColor" stroke-width="2" stroke-linecap="square" stroke-linejoin="round"/><path d="M18.8,16.8L15.31,13.31Z" fill="currentColor"/><path d="M15.31,13.31L18.8,16.8" fill="none" stroke="currentColor" stroke-width="2" stroke-linecap="square" stroke-linejoin="round"/><path d="M71.2,69.2L74.69,72.69Z" fill="currentColor"/><path d="M74.69,72.69L71.2,69.2" fill="none" stroke="currentColor" stroke-width="2" stroke-linecap="square" stroke-linejoin="round"/><path d="M18.8,69.2L15.31,72.69Z" fill="currentColor"/><path d="M15.31,72.69L18.8,69.2" fill="none" stroke="currentColor" stroke-width="2" stroke-linecap="square" stroke-linejoin="round"/><path d="M71.2,16.8L74.69,13.31Z" fill="currentColor"/><path d="M74.69,13.31L71.2,16.8" fill="none" stroke="currentColor" stroke-width="2" stroke-linecap="square" stroke-linejoin="round"/><path d="M24.42,12.2L21.67,8.09Z" fill="currentColor"/><path d="M21.67,8.09L24.42,12.2" fill="none" stroke="currentColor" stroke-width="2" stroke-linecap="square" stroke-linejoin="round"/><path d="M65.58,73.8L68.33,77.91Z" fill="currentColor"/><path d="M68.33,77.91L65.58,73.8" fill="none" stroke="currentColor" stroke-width="2" stroke-linecap="square" stroke-linejoin="round"/><path d="M14.2,63.58L10.09,66.33Z" fill="currentColor"/><path d="M10.09,66.33L14.2,63.58" fill="none" stroke="currentColor" stroke-width="2" stroke-linecap="square" stroke-linejoin="round"/><path d="M75.8,22.42L79.91,19.67Z" fill="currentColor"/><path d="M79.91,19.67L75.8,22.42" fill="none" stroke="currentColor" stroke-width="2" stroke-linecap="square" stroke-linejoin="round"/><path d="M30.82,8.77L28.93,4.21Z" fill="currentColor"/><path d="M28.93,4.21L30.82,8.77" fill="none" stroke="currentColor" stroke-width="2" stroke-linecap="square" stroke-linejoin="round"/><path d="M59.18,77.22L61.07,81.79Z" fill="currentColor"/><path d="M61.07,81.79L59.18,77.22" fill="none" stroke="currentColor" stroke-width="2" stroke-linecap="square" stroke-linejoin="round"/><path d="M10.77,57.18L6.21,59.07Z" fill="currentColor"/><path d="M6.21,59.07L10.77,57.18" fill="none" stroke="currentColor" stroke-width="2" stroke-linecap="square" stroke-linejoin="round"/><path d="M79.22,28.82L83.79,26.93Z" fill="currentColor"/><path d="M83.79,26.93L79.22,28.82" fill="none" stroke="currentColor" stroke-width="2" stroke-linecap="square" stroke-linejoin="round"/><path d="M37.77,6.67L36.81,1.82Z" fill="currentColor"/><path d="M36.81,1.82L37.77,6.67" fill="none" stroke="currentColor" stroke-width="2" stroke-linecap="square" stroke-linejoin="round"/><path d="M52.23,79.33L53.19,84.18Z" fill="currentColor"/><path d="M53.19,84.18L52.23,79.33" fill="none" stroke="currentColor" stroke-width="2" stroke-linecap="square" stroke-linejoin="round"/><path d="M8.67,50.23L3.82,51.19Z" fill="currentColor"/><path d="M3.82,51.19L8.67,50.23" fill="none" stroke="currentColor" stroke-width="2" stroke-linecap="square" stroke-linejoin="round"/><path d="M81.33,35.77L86.18,34.81Z" fill="currentColor"/><path d="M86.18,34.81L81.33,35.77" fill="none" stroke="currentColor" stroke-width="2" stroke-linecap="square" stroke-linejoin="round"/><path d="M59.17,8.77L61.06,4.21Z" fill="currentColor"/><path d="M61.06,4.21L59.17,8.77" fill="none" stroke="currentColor" stroke-width="2" stroke-linecap="square" stroke-linejoin="round"/><path d="M30.82,77.23L28.93,81.79Z" fill="currentColor"/><path d="M28.93,81.79L30.82,77.23" fill="none" stroke="currentColor" stroke-width="2" stroke-linecap="square" stroke-linejoin="round"/><path d="M10.77,28.82L6.21,26.93Z" fill="currentColor"/><path d="M6.21,26.93L10.77,28.82" fill="none" stroke="currentColor" stroke-width="2" stroke-linecap="square" stroke-linejoin="round"/><path d="M79.22,57.18L83.79,59.07Z" fill="currentColor"/><path d="M83.79,59.07L79.22,57.18" fill="none" stroke="currentColor" stroke-width="2" stroke-linecap="square" stroke-linejoin="round"/><path d="M52.23,6.67L53.19,1.82Z" fill="currentColor"/><path d="M53.19,1.82L52.23,6.67" fill="none" stroke="currentColor" stroke-width="2" stroke-linecap="square" stroke-linejoin="round"/><path d="M37.77,79.33L36.81,84.18Z" fill="currentColor"/><path d="M36.81,84.18L37.77,79.33" fill="none" stroke="currentColor" stroke-width="2" stroke-linecap="square" stroke-linejoin="round"/><path d="M8.67,35.77L3.82,34.81Z" fill="currentColor"/><path d="M3.82,34.81L8.67,35.77" fill="none" stroke="currentColor" stroke-width="2" stroke-linecap="square" stroke-linejoin="round"/><path d="M81.33,50.23L86.18,51.19Z" fill="currentColor"/><path d="M86.18,51.19L81.33,50.23" fill="none" stroke="currentColor" stroke-width="2" stroke-linecap="square" stroke-linejoin="round"/><path d="M65.58,12.2L68.32,8.09Z" fill="currentColor"/><path d="M68.32,8.09L65.58,12.2" fill="none" stroke="currentColor" stroke-width="2" stroke-linecap="square" stroke-linejoin="round"/><path d="M24.42,73.8L21.67,77.91Z" fill="currentColor"/><path d="M21.67,77.91L24.42,73.8" fill="none" stroke="currentColor" stroke-width="2" stroke-linecap="square" stroke-linejoin="round"/><path d="M14.2,22.42L10.09,19.67Z" fill="currentColor"/><path d="M10.09,19.67L14.2,22.42" fill="none" stroke="currentColor" stroke-width="2" stroke-linecap="square" stroke-linejoin="round"/><path d="M75.8,63.58L79.91,66.33Z" fill="currentColor"/><path d="M79.91,66.33L75.8,63.58" fill="none" stroke="currentColor" stroke-width="2" stroke-linecap="square" stroke-linejoin="round"/><path d="M19.2,69.42L35.09,35.96L65.28,21.75C67.25,20.83,69.29,22.87,68.35,24.83L54.02,54.98L20.53,70.75C19.68,71.15,18.8,70.26,19.2,69.42Z" fill="currentColor"/><path d="M19.2,66.42L35.09,32.96L65.28,18.75C67.25,17.83,69.29,19.87,68.35,21.83L54.02,51.98L20.53,67.75C19.68,68.15,18.8,67.26,19.2,66.42Z" fill="currentColor"/><path d="M68.6,17.19L35.09,32.96L54.05,51.98L69.93,18.52C70.33,17.67,69.45,16.79,68.6,17.19Z" fill="currentColor"/><path d="M47.68,50.41C51.25,48.83,52.94,44.45,51.45,40.63C49.97,36.8,45.89,34.99,42.32,36.59C38.75,38.17,37.06,42.55,38.54,46.37L38.55,46.37C40.04,50.2,44.13,52,47.68,50.41Z" fill="currentColor"/><path d="M51.45,40.63C49.97,36.8,45.88,34.99,42.32,36.59C41.5,36.95,40.78,37.46,40.18,38.07L50.37,48.29C51.98,46.22,52.48,43.29,51.45,40.63Z" fill="currentColor"/><path d="M47.68,48.45C51.25,46.98,52.94,42.89,51.45,39.32C49.97,35.75,45.89,34.06,42.32,35.55C38.75,37.02,37.06,41.11,38.54,44.68L38.55,44.68C40.04,48.25,44.13,49.94,47.68,48.45Z" fill="currentColor"/></svg>