<svg xmlns="http://www.w3.org/2000/svg" viewBox="0 0 90 90"><path d="M89,43C89,66.2,69.75,85,46,85C22.25,85,3,66.2,3,43C3,19.8,22.25,1,46,1C69.75,1,89,19.8,89,43Z" fill="currentColor"/><path d="M89,48C89,71.75,69.75,91,46,91C22.25,91,3,71.75,3,48C3,24.25,22.25,5,46,5C69.75,5,89,24.25,89,48Z" fill="currentColor"/><path d="M89,48C89,71.75,69.75,91,46,91C22.25,91,3,71.75,3,48C3,24.25,22.25,5,46,5C69.75,5,89,24.25,89,48Z" fill="currentColor"/><path d="M3.82,56.38C10.73,73.28,25.31,86.28,43.52,90.93C23.76,89.81,7.56,75.33,3.82,56.38Z" fill="currentColor"/><path d="M88.98,46.82C85.23,29.24,73.63,14.51,57.8,6.64C75.45,11.67,88.47,27.69,88.98,46.82Z" fill="currentColor"/><path d="M46,5C69.75,5,89,24.25,89,48C89,53.59,87.93,58.94,85.99,63.84C76.46,37.64,55.15,17.15,28.4,8.75C33.77,6.34,39.73,5,46,5Z" fill="currentColor" opacity="0.2"/><path d="M46,20C61.47,20,74,32.54,74,48C74,63.47,61.46,76,46,76C30.54,76,18,63.46,18,48C18,32.54,30.54,20,46,20Z" fill="currentColor"/><path d="M46,79.45L46,89.98Z" fill="currentColor"/><path d="M46,89.98L46,79.45" fill="none" stroke="currentColor" stroke-width="2" stroke-linecap="square"/><path d="M46,16.55L46,6.02Z" fill="currentColor"/><path d="M46,6.02L46,16.55" fill="none" stroke="currentColor" stroke-width="2" stroke-linecap="square"/><path d="M14.55,48L4.02,48Z" fill="currentColor"/><path d="M4.02,48L14.55,48" fill="none" stroke="currentColor" stroke-width="2" stroke-linecap="square"/><path d="M77.45,48L87.98,48Z" fill="currentColor"/><path d="M87.98,48L77.45,48" fill="none" stroke="currentColor" stroke-width="2" stroke-linecap="square"/><path d="M19.8,74.2L16.31,77.69Z" fill="currentColor"/><path d="M16.31,77.69L19.8,74.2" fill="none" stroke="currentColor" stroke-width="2" stroke-linecap="square"/><path d="M72.2,21.8L75.69,18.31Z" fill="currentColor"/><path d="M75.69,18.31L72.2,21.8" fill="none" stroke="currentColor" stroke-width="2" stroke-linecap="square"/><path d="M19.8,21.8L16.31,18.31Z" fill="currentColor"/><path d="M16.31,18.31L19.8,21.8" fill="none" stroke="currentColor" stroke-width="2" stroke-linecap="square"/><path d="M72.2,74.19L75.69,77.69Z" fill="currentColor"/><path d="M75.69,77.69L72.2,74.19" fill="none" stroke="currentColor" stroke-width="2" stroke-linecap="square"/><path d="M25.42,78.8L22.67,82.91Z" fill="currentColor"/><path d="M22.67,82.91L25.42,78.8" fill="none" stroke="currentColor" stroke-width="2" stroke-linecap="square"/><path d="M66.58,17.2L69.33,13.09Z" fill="currentColor"/><path d="M69.33,13.09L66.58,17.2" fill="none" stroke="currentColor" stroke-width="2" stroke-linecap="square"/><path d="M15.2,27.42L11.09,24.67Z" fill="currentColor"/><path d="M11.09,24.67L15.2,27.42" fill="none" stroke="currentColor" stroke-width="2" stroke-linecap="square"/><path d="M76.8,68.58L80.91,71.33Z" fill="currentColor"/><path d="M80.91,71.33L76.8,68.58" fill="none" stroke="currentColor" stroke-width="2" stroke-linecap="square"/><path d="M31.82,82.23L29.93,86.79Z" fill="currentColor"/><path d="M29.93,86.79L31.82,82.23" fill="none" stroke="currentColor" stroke-width="2" stroke-linecap="square"/><path d="M60.18,13.78L62.07,9.21Z" fill="currentColor"/><path d="M62.07,9.21L60.18,13.78" fill="none" stroke="currentColor" stroke-width="2" stroke-linecap="square"/><path d="M11.77,33.82L7.21,31.93Z" fill="currentColor"/><path d="M7.21,31.93L11.77,33.82" fill="none" stroke="currentColor" stroke-width="2" stroke-linecap="square"/><path d="M80.22,62.18L84.79,64.07Z" fill="currentColor"/><path d="M84.79,64.07L80.22,62.18" fill="none" stroke="currentColor" stroke-width="2" stroke-linecap="square"/><path d="M38.77,84.33L37.81,89.18Z" fill="currentColor"/><path d="M37.81,89.18L38.77,84.33" fill="none" stroke="currentColor" stroke-width="2" stroke-linecap="square"/><path d="M53.23,11.67L54.19,6.82Z" fill="currentColor"/><path d="M54.19,6.82L53.23,11.67" fill="none" stroke="currentColor" stroke-width="2" stroke-linecap="square"/><path d="M9.67,40.77L4.82,39.81Z" fill="currentColor"/><path d="M4.82,39.81L9.67,40.77" fill="none" stroke="currentColor" stroke-width="2" stroke-linecap="square"/><path d="M82.33,55.23L87.18,56.19Z" fill="currentColor"/><path d="M87.18,56.19L82.33,55.23" fill="none" stroke="currentColor" stroke-width="2" stroke-linecap="square"/><path d="M60.17,82.23L62.06,86.79Z" fill="currentColor"/><path d="M62.06,86.79L60.17,82.23" fill="none" stroke="currentColor" stroke-width="2" stroke-linecap="square"/><path d="M31.82,13.77L29.93,9.21Z" fill="currentColor"/><path d="M29.93,9.21L31.82,13.77" fill="none" stroke="currentColor" stroke-width="2" stroke-linecap="square"/><path d="M11.77,62.18L7.21,64.07Z" fill="currentColor"/><path d="M7.21,64.07L11.77,62.18" fill="none" stroke="currentColor" stroke-width="2" stroke-linecap="square"/><path d="M80.22,33.82L84.79,31.93Z" fill="currentColor"/><path d="M84.79,31.93L80.22,33.82" fill="none" stroke="currentColor" stroke-width="2" stroke-linecap="square"/><path d="M53.23,84.33L54.19,89.18Z" fill="currentColor"/><path d="M54.19,89.18L53.23,84.33" fill="none" stroke="currentColor" stroke-width="2" stroke-linecap="square"/><path d="M38.77,11.67L37.81,6.82Z" fill="currentColor"/><path d="M37.81,6.82L38.77,11.67" fill="none" stroke="currentColor" stroke-width="2" stroke-linecap="square"/><path d="M9.67,55.23L4.82,56.19Z" fill="currentColor"/><path d="M4.82,56.19L9.67,55.23" fill="none" stroke="currentColor" stroke-width="2" stroke-linecap="square"/><path d="M82.33,40.77L87.18,39.81Z" fill="currentColor"/><path d="M87.18,39.81L82.33,40.77" fill="none" stroke="currentColor" stroke-width="2" stroke-linecap="square"/><path d="M66.58,78.8L69.32,82.91Z" fill="currentColor"/><path d="M69.32,82.91L66.58,78.8" fill="none" stroke="currentColor" stroke-width="2" stroke-linecap="square"/><path d="M25.42,17.2L22.67,13.09Z" fill="currentColor"/><path d="M22.67,13.09L25.42,17.2" fill="none" stroke="currentColor" stroke-width="2" stroke-linecap="square"/><path d="M15.2,68.58L11.09,71.33Z" fill="currentColor"/><path d="M11.09,71.33L15.2,68.58" fill="none" stroke="currentColor" stroke-width="2" stroke-linecap="square"/><path d="M76.8,27.42L80.91,24.67Z" fill="currentColor"/><path d="M80.91,24.67L76.8,27.42" fill="none" stroke="currentColor" stroke-width="2" stroke-linecap="square"/><path d="M20.2,21.58L36.09,55.04L66.28,69.25C68.25,70.17,70.29,68.13,69.35,66.17L55.02,36.02L21.53,20.25C20.68,19.85,19.8,20.74,20.2,21.58Z" fill="currentColor"/><path d="M20.2,24.58L36.09,58.04L66.28,72.25C68.25,73.17,70.29,71.13,69.35,69.17L55.02,39.02L21.53,23.25C20.68,22.85,19.8,23.74,20.2,24.58Z" fill="currentColor"/><path d="M69.6,73.81L36.09,58.04L55.05,39.02L70.93,72.48C71.33,73.33,70.45,74.21,69.6,73.81Z" fill="currentColor"/><path d="M48.68,40.59C52.25,42.17,53.94,46.55,52.45,50.38C50.97,54.2,46.89,56.01,43.32,54.41C39.75,52.83,38.06,48.45,39.54,44.63L39.55,44.63C41.04,40.8,45.13,39,48.68,40.59Z" fill="currentColor"/><path d="M52.45,50.38C50.97,54.2,46.88,56.01,43.32,54.41C42.5,54.05,41.78,53.54,41.18,52.93L51.37,42.71C52.98,44.78,53.48,47.71,52.45,50.38Z" fill="currentColor"/><path d="M48.68,42.55C52.25,44.02,53.94,48.11,52.45,51.68C50.97,55.25,46.89,56.94,43.32,55.45C39.75,53.98,38.06,49.89,39.54,46.32L39.55,46.32C41.04,42.75,45.13,41.06,48.68,42.55Z" fill="currentColor"/></svg>