<svg xmlns="http://www.w3.org/2000/svg" viewBox="0 0 90 90"><path d="M3,45C3,68.19,21.81,87,45,87C68.19,87,87,68.19,87,45C87,44.95,87,44.91,87,44.85C86.92,21.71,68.14,3,45,3C21.81,3,3,21.81,3,45Z" fill="currentColor"/><path d="M45,14.62C51.07,14.63,57,16.51,61.98,19.99L20.27,61.83C16.8,56.85,14.93,50.92,14.91,44.85L14.92,44.85C14.92,28.21,28.37,14.7,45,14.62Z" fill="currentColor"/><path d="M28.02,69.73L69.87,27.87C73.3,32.87,75.11,38.79,75.08,44.85C75.08,61.46,61.61,74.94,45,74.94C38.94,74.97,33.02,73.15,28.02,69.73Z" fill="currentColor"/><path d="M3,45C3,21.8,21.8,3,45,3C22.6,4.82,4.82,22.6,3,45Z" fill="currentColor"/><path d="M87,45C87,68.2,68.2,87,45,87C67.4,85.18,85.18,67.4,87,45Z" fill="currentColor"/></svg>