<svg xmlns="http://www.w3.org/2000/svg" viewBox="0 0 90 90"><path d="M70,71.9C54.42,80.38,35.58,80.37,20,71.9L20,54.48C20,46.05,20,36.69,20,28.98C19.99,10.85,29.13,0,45.01,0C60.92,0,70.02,10.85,70,28.98C69.99,36.69,70,46.97,70,54.48Z" fill="currentColor"/><path d="M20,28.98C19.99,10.85,29.13,0,45.01,0C60.92,0,70.02,10.85,70,28.98C70,28.98,71.18,2.27,45.01,2.27C18.84,2.27,20,28.98,20,28.98Z" fill="currentColor"/><path d="M32.85,61L32,61C29.24,61,27,63.24,27,66L27,66.12L22.15,67.78C16.08,69.85,12,75.56,12,81.97L12,85C12,87.76,14.24,90,17,90L73,90C75.76,90,78,87.76,78,85L78,81.97C78,75.56,73.92,69.85,67.85,67.78L63,66.12L63,66C63,63.24,60.76,61,58,61L57.15,61Z" fill="currentColor"/><path d="M32.85,61L32,61C29.24,61,27,63.24,27,66L27,66.12L22.15,67.78C16.08,69.85,12,75.56,12,81.97L12,85L12.28,82.42C13,75.68,18.15,70.26,24.84,69.2L40.3,66.75C43.41,66.25,46.59,66.25,49.7,66.75L65.16,69.2C71.85,70.26,77,75.68,77.72,82.42L78,85L78,81.97C78,75.56,73.92,69.85,67.85,67.78L63,66.12L63,66C63,63.24,60.76,61,58,61L57.15,61Z" fill="currentColor"/><path d="M32.85,61L32,61C29.24,61,27,63.24,27,66L27,66.12L28.2,67.19C32.68,71.18,36.2,76.12,38.51,81.65L42,90L48,90L51.49,81.65C53.8,76.12,57.32,71.18,61.8,67.19L63,66.12L63,66C63,63.24,60.76,61,58,61L57.15,61Z" fill="currentColor"/><path d="M33,39.54L33,63C36.96,66.06,40.29,69.86,42.8,74.19L45,78L47.2,74.19C49.71,69.86,53.04,66.06,57,63L57,39.54Z" fill="currentColor"/><path d="M33,35.54L33,58.27L39,62.77C42.56,65.43,47.44,65.43,51,62.77L57,58.27L57,35.54Z" fill="currentColor" opacity="0.5"/><path d="M26.01,33.81L31,35.15L31,47L26.65,45.44C25.63,45.07,24.89,44.18,24.71,43.12L23.52,36.07C23.28,34.64,24.6,33.43,26.01,33.81Z" fill="currentColor"/><path d="M63.99,33.81C65.4,33.43,66.72,34.64,66.48,36.07L65.29,43.12C65.11,44.18,64.37,45.07,63.35,45.44L59,47L59,35.15Z" fill="currentColor"/><path d="M62,28.49L62,39.29C62,44.15,59.91,48.79,56.27,52.01C49.84,57.71,40.16,57.71,33.73,52.01C30.09,48.79,28,44.15,28,39.29L28,28.49C28,28.09,28.29,27.75,28.69,27.69L29.02,27.63C36.18,26.49,42.24,21.71,45,15C47.76,21.71,53.82,26.49,60.98,27.63L61.31,27.69C61.71,27.75,62,28.09,62,28.49Z" fill="currentColor" opacity="0.5"/><path d="M61.9,46.04C61.9,48.72,60.82,51.29,58.9,53.17L53.37,58.61C51.5,60.44,48.98,61.47,46.36,61.47L43.64,61.47C41.02,61.47,38.5,60.44,36.63,58.61L31.09,53.17C29.18,51.29,28.1,48.72,28.1,46.04L28.1,29.62L32.57,29.62C37.56,29.62,42.22,27.14,45,23C47.78,27.14,52.44,29.62,57.43,29.62L61.9,29.62Z" fill="currentColor"/><path d="M45,4C42.33,8.25,42.33,16.75,45,21C47.67,16.75,47.67,8.25,45,4Z" fill="currentColor" opacity="0.2"/></svg>