<svg xmlns="http://www.w3.org/2000/svg" viewBox="0 0 90 90"><path d="M46,1C61.54,1,73.23,15.19,70.24,30.44L68.58,38.97C68.18,40.99,67.98,43.03,67.98,45.09L67.98,50.36C67.98,51.4,67.52,52.38,66.72,53.04L66.28,53.4C54.48,63.05,37.52,63.05,25.72,53.4L25.28,53.04C24.48,52.38,24.02,51.4,24.02,50.36L24.02,45.09C24.02,43.03,23.82,40.99,23.42,38.97L21.76,30.44C18.77,15.19,30.45,1,46,1Z" fill="currentColor"/><path d="M62,28.19L62,46.12C62,48.51,61.34,50.85,60.1,52.89L54.54,62C50.64,68.39,41.36,68.39,37.46,62L31.9,52.89C30.66,50.85,30,48.51,30,46.12L30,28.19C30,26.99,30.88,25.97,32.07,25.79C38.1,24.87,43.21,20.86,45.53,15.22L46,14.08L46.47,15.22C48.79,20.86,53.9,24.87,59.93,25.79C61.12,25.97,62,26.99,62,28.19Z" fill="currentColor" opacity="0.5"/><path d="M46,1C61.55,1,73.23,15.19,70.25,30.44L68,42L69.64,30.13C71.62,15.79,60.48,3,46,3C31.52,3,20.38,15.79,22.36,30.13L24,42L21.75,30.44C18.77,15.19,30.45,1,46,1Z" fill="currentColor"/><path d="M35,58L20.35,63.96C14.7,66.26,11,71.75,11,77.85L11,86C11,88.76,13.24,91,16,91L76,91C78.76,91,81,88.76,81,86L81,77.85C81,71.75,77.3,66.26,71.65,63.96L57,58Z" fill="currentColor"/><path d="M35,58L20.35,63.96C14.7,66.26,11,71.75,11,77.85L11,81L11.32,78.43C12.04,72.67,16.01,67.85,21.53,66.04L41.32,59.54C44.36,58.54,47.64,58.54,50.68,59.54L70.47,66.04C75.98,67.85,79.96,72.67,80.68,78.43L81,81L81,77.85C81,71.75,77.3,66.26,71.65,63.96L57,58Z" fill="currentColor" opacity="0.5"/><path d="M33.85,56L32.84,56C30.17,56,28,58.17,28,60.84L36,68.24L46,79.81L56,68.24L64,60.84C64,58.17,61.83,56,59.16,56L58.15,56Z" fill="currentColor"/><path d="M35,42.03L35,58L35.31,58.37C39.42,63.28,43.01,68.61,46,74.27C48.99,68.61,52.57,63.28,56.69,58.37L57,58L57,42.03Z" fill="currentColor"/><path d="M57,44C57,37.92,52.07,33,46,33C39.92,33,35,37.92,35,44L35,51.33C35,52.29,35.3,53.23,35.87,54.01L37.9,56.82C41.89,62.33,50.11,62.33,54.1,56.82L56.13,54.01C56.69,53.23,57,52.29,57,51.33Z" fill="currentColor"/><path d="M62,40.52C62,44.37,60.3,48.02,57.35,50.49L52.42,54.62C48.71,57.73,43.29,57.73,39.58,54.62L34.65,50.49C31.7,48.02,30,44.37,30,40.52L30,29L31.47,28.87C37.7,28.33,43.2,24.59,46,19C48.8,24.59,54.3,28.33,60.53,28.87L62,29Z" fill="currentColor"/><path d="M27,29L28,40L27.74,40C26.19,40,24.89,38.82,24.75,37.27L24.27,31.99C24.13,30.38,25.39,29,27,29Z" fill="currentColor"/><path d="M67.73,31.99L67.25,37.27C67.11,38.82,65.81,40,64.26,40L64,40L65,29C66.61,29,67.87,30.38,67.73,31.99Z" fill="currentColor"/></svg>