<svg xmlns="http://www.w3.org/2000/svg" viewBox="0 0 90 90"><path d="M45,0C60.54,0,72.23,14.19,69.24,29.44L67.58,37.97C67.18,39.99,66.98,42.03,66.98,44.09L66.98,49.36C66.98,50.4,66.52,51.38,65.72,52.04L65.28,52.4C53.48,62.05,36.52,62.05,24.72,52.4L24.28,52.04C23.48,51.38,23.02,50.4,23.02,49.36L23.02,44.09C23.02,42.03,22.82,39.99,22.42,37.97L20.76,29.44C17.77,14.19,29.45,0,45,0Z" fill="currentColor"/><path d="M61,27.19L61,45.12C61,47.51,60.34,49.85,59.1,51.89L53.54,61C49.64,67.39,40.36,67.39,36.46,61L30.9,51.89C29.66,49.85,29,47.51,29,45.12L29,27.19C29,25.99,29.88,24.97,31.07,24.79C37.1,23.87,42.21,19.86,44.53,14.22L45,13.08L45.47,14.22C47.79,19.86,52.9,23.87,58.93,24.79C60.12,24.97,61,25.99,61,27.19Z" fill="currentColor" opacity="0.5"/><path d="M45,0C60.55,0,72.23,14.19,69.25,29.44L67,41L68.64,29.13C70.62,14.79,59.48,2,45,2C30.52,2,19.38,14.79,21.36,29.13L23,41L20.75,29.44C17.77,14.19,29.45,0,45,0Z" fill="currentColor"/><path d="M34,57L19.35,62.96C13.7,65.26,10,70.75,10,76.85L10,85C10,87.76,12.24,90,15,90L75,90C77.76,90,80,87.76,80,85L80,76.85C80,70.75,76.3,65.26,70.65,62.96L56,57Z" fill="currentColor"/><path d="M34,57L19.35,62.96C13.7,65.26,10,70.75,10,76.85L10,80L10.32,77.43C11.04,71.67,15.01,66.85,20.53,65.04L40.32,58.54C43.36,57.54,46.64,57.54,49.68,58.54L69.47,65.04C74.98,66.85,78.96,71.67,79.68,77.43L80,80L80,76.85C80,70.75,76.3,65.26,70.65,62.96L56,57Z" fill="currentColor" opacity="0.5"/><path d="M32.85,55L31.84,55C29.17,55,27,57.17,27,59.84L35,67.24L45,78.81L55,67.24L63,59.84C63,57.17,60.83,55,58.16,55L57.15,55Z" fill="currentColor"/><path d="M34,41.03L34,57L34.31,57.37C38.42,62.28,42.01,67.61,45,73.27C47.99,67.61,51.57,62.28,55.69,57.37L56,57L56,41.03Z" fill="currentColor"/><path d="M56,43C56,36.92,51.07,32,45,32C38.92,32,34,36.92,34,43L34,50.33C34,51.29,34.3,52.23,34.87,53.01L36.9,55.82C40.89,61.33,49.11,61.33,53.1,55.82L55.13,53.01C55.69,52.23,56,51.29,56,50.33Z" fill="currentColor"/><path d="M61,39.52C61,43.37,59.3,47.02,56.35,49.49L51.42,53.62C47.71,56.73,42.29,56.73,38.58,53.62L33.65,49.49C30.7,47.02,29,43.37,29,39.52L29,28L30.47,27.87C36.7,27.33,42.2,23.59,45,18C47.8,23.59,53.3,27.33,59.53,27.87L61,28Z" fill="currentColor"/><path d="M26,28L27,39L26.74,39C25.19,39,23.89,37.82,23.75,36.27L23.27,30.99C23.13,29.38,24.39,28,26,28Z" fill="currentColor"/><path d="M66.73,30.99L66.25,36.27C66.11,37.82,64.81,39,63.26,39L63,39L64,28C65.61,28,66.87,29.38,66.73,30.99Z" fill="currentColor"/></svg>