<svg xmlns="http://www.w3.org/2000/svg" viewBox="0 0 90 90"><path d="M71,72.9C55.42,81.38,36.58,81.37,21,72.9L21,55.48C21,47.05,21,37.69,21,29.98C20.99,11.85,30.13,1,46.01,1C61.92,1,71.02,11.85,71,29.98C70.99,37.69,71,47.97,71,55.48Z" fill="currentColor"/><path d="M21,29.98C20.99,11.85,30.13,1,46.01,1C61.92,1,71.02,11.85,71,29.98C71,29.98,72.18,3.27,46.01,3.27C19.84,3.27,21,29.98,21,29.98Z" fill="currentColor"/><path d="M33.85,62L33,62C30.24,62,28,64.24,28,67L28,67.12L23.15,68.78C17.08,70.85,13,76.56,13,82.97L13,86C13,88.76,15.24,91,18,91L74,91C76.76,91,79,88.76,79,86L79,82.97C79,76.56,74.92,70.85,68.85,68.78L64,67.12L64,67C64,64.24,61.76,62,59,62L58.15,62Z" fill="currentColor"/><path d="M33.85,62L33,62C30.24,62,28,64.24,28,67L28,67.12L23.15,68.78C17.08,70.85,13,76.56,13,82.97L13,86L13.28,83.42C14,76.68,19.15,71.26,25.84,70.2L41.3,67.75C44.41,67.25,47.59,67.25,50.7,67.75L66.16,70.2C72.85,71.26,78,76.68,78.72,83.42L79,86L79,82.97C79,76.56,74.92,70.85,68.85,68.78L64,67.12L64,67C64,64.24,61.76,62,59,62L58.15,62Z" fill="currentColor"/><path d="M33.85,62L33,62C30.24,62,28,64.24,28,67L28,67.12L29.2,68.19C33.68,72.18,37.2,77.12,39.51,82.65L43,91L49,91L52.49,82.65C54.8,77.12,58.32,72.18,62.8,68.19L64,67.12L64,67C64,64.24,61.76,62,59,62L58.15,62Z" fill="currentColor"/><path d="M34,40.54L34,64C37.96,67.06,41.29,70.86,43.8,75.19L46,79L48.2,75.19C50.71,70.86,54.04,67.06,58,64L58,40.54Z" fill="currentColor"/><path d="M34,36.54L34,59.27L40,63.77C43.56,66.43,48.44,66.43,52,63.77L58,59.27L58,36.54Z" fill="currentColor" opacity="0.5"/><path d="M27.01,34.81L32,36.15L32,48L27.65,46.44C26.63,46.07,25.89,45.18,25.71,44.12L24.52,37.07C24.28,35.64,25.6,34.43,27.01,34.81Z" fill="currentColor"/><path d="M64.99,34.81C66.4,34.43,67.72,35.64,67.48,37.07L66.29,44.12C66.11,45.18,65.37,46.07,64.35,46.44L60,48L60,36.15Z" fill="currentColor"/><path d="M63,29.49L63,40.29C63,45.15,60.91,49.79,57.27,53.01C50.84,58.71,41.16,58.71,34.73,53.01C31.09,49.79,29,45.15,29,40.29L29,29.49C29,29.09,29.29,28.75,29.69,28.69L30.02,28.63C37.18,27.49,43.24,22.71,46,16C48.76,22.71,54.82,27.49,61.98,28.63L62.31,28.69C62.71,28.75,63,29.09,63,29.49Z" fill="currentColor" opacity="0.5"/><path d="M62.9,47.04C62.9,49.72,61.82,52.29,59.9,54.17L54.37,59.61C52.5,61.44,49.98,62.47,47.36,62.47L44.64,62.47C42.02,62.47,39.5,61.44,37.63,59.61L32.09,54.17C30.18,52.29,29.1,49.72,29.1,47.04L29.1,30.62L33.57,30.62C38.56,30.62,43.22,28.14,46,24C48.78,28.14,53.44,30.62,58.43,30.62L62.9,30.62Z" fill="currentColor"/><path d="M46,5C43.33,9.25,43.33,17.75,46,22C48.67,17.75,48.67,9.25,46,5Z" fill="currentColor" opacity="0.2"/></svg>