<svg xmlns="http://www.w3.org/2000/svg" viewBox="0 0 90 90" fill="currentColor"><path d="M86,50L86,88C86,89.66,84.66,91,83,91L46,91C44.34,91,43,89.66,43,88L43,81C43,79.34,44.34,78,46,78L61.36,78L45.58,62.22C41.26,64.63,36.29,66,31,66C14.43,66,1,52.57,1,36C1,19.43,14.43,6,31,6C47.57,6,61,19.43,61,36C61,41.47,59.54,46.59,56.99,51L73,67.02L73,50C73,48.34,74.34,47,76,47L83,47C84.66,47,86,48.34,86,50ZM45.29,45.21C47.01,42.56,48,39.39,48,36C48,26.61,40.39,19,31,19C21.61,19,14,26.61,14,36C14,45.39,21.61,53,31,53C34.39,53,37.56,52.01,40.21,50.29Z"/></svg>