<svg xmlns="http://www.w3.org/2000/svg" viewBox="0 0 90 90"><path d="M85,46L85,8C85,6.34,83.66,5,82,5L45,5C43.34,5,42,6.34,42,8L42,15C42,16.66,43.34,18,45,18L60.36,18L44.58,33.78C40.26,31.37,35.29,30,30,30C13.43,30,0,43.43,0,60C0,76.57,13.43,90,30,90C46.57,90,60,76.57,60,60C60,54.53,58.54,49.41,55.99,45L72,28.98L72,46C72,47.66,73.34,49,75,49L82,49C83.66,49,85,47.66,85,46Z" fill="currentColor"/><path d="M44.29,50.79C46.01,53.44,47,56.61,47,60C47,69.39,39.39,77,30,77C20.61,77,13,69.39,13,60C13,50.61,20.61,43,30,43C33.39,43,36.56,43.99,39.21,45.71Z" fill="currentColor"/></svg>