<svg xmlns="http://www.w3.org/2000/svg" viewBox="0 0 90 90"><path d="M72.5,0.51L72.5,90L18.75,90L18.75,0.51Z" fill="currentColor"/><path d="M68.5,37.72C68.76,39.78,68.42,41.66,67.92,43.63C66.52,38.46,62.46,33.93,59.26,29.63C56.06,25.32,52.69,21.03,50.69,16.05C48.69,11.08,48.24,5.19,50.85,0.51C46.33,3.82,42.99,8.73,41.59,14.14C41.02,16.33,40.43,18.51,39.97,20.72C39.15,24.58,35.79,27.98,32.87,24.2C31.56,22.51,31.45,20.51,31.95,18.22C28.16,26.01,25.62,34.85,25.81,43.25C24.33,42.57,22.84,39.78,22.75,37.72C18.31,44.89,17.51,54.16,20.64,61.98C20.69,62.13,20.75,62.28,20.8,62.42C21.48,64.85,22.35,67.04,22.35,68.79C22.35,72.45,19.9,74.38,21.19,76.81C22.48,79.25,27.07,80.79,29.2,80.54C31.33,80.28,32.82,80.73,33.33,82.14C33.72,83.22,33.34,85.75,33.52,87.9C34.51,88.23,38.49,90,45.5,90C52.5,90,56.49,88.28,57.47,87.96C57.66,85.82,57.31,83.23,57.7,82.14C58.22,80.73,59.73,80.28,61.86,80.54C63.99,80.79,68.59,79.25,69.88,76.81C71.18,74.38,68.73,72.45,68.73,68.79C68.73,67.39,69.28,65.73,69.85,63.88C70.13,63.24,70.39,62.6,70.62,61.94C73.74,54.13,72.93,44.88,68.5,37.72Z" fill="currentColor"/><path d="M63.69,24.93C59.05,29.69,61.87,38.51,55.43,36.97C47.81,35.15,61.42,7.85,47.34,0C49.57,3.15,49.54,16.05,44.76,16.44C40.45,16.79,38.37,12.72,39.01,8.86C34.05,15.21,35.6,26.49,36.37,30.36C36.72,32.16,36.63,34.76,35.97,36.99C29.67,38.4,32.4,29.66,27.79,24.93C29.03,32.65,19.69,41.98,19.69,55.25C19.69,64.22,25,72.09,31.75,76.52L31.75,76.86C36.16,79.05,40.68,80.31,45.46,80.31C45.49,80.31,45.63,80.31,45.66,80.31C45.7,80.31,45.78,80.36,45.82,80.36C45.97,80.36,46.16,80.4,46.31,80.4L46.33,80.4C46.47,80.4,46.54,80.3,46.54,80.3L46.54,80.29C60.54,79.74,71.53,68.74,71.53,55.25C71.53,41.98,62.45,32.65,63.69,24.93Z" fill="currentColor"/><path d="M66.27,40.12C66.51,41.98,66.2,43.67,65.75,45.45C64.49,40.78,60.83,36.71,57.94,32.82C55.06,28.94,52.02,25.07,50.22,20.59C48.42,16.1,48.01,10.8,50.37,6.57C46.28,9.57,43.28,13.98,42.02,18.86C41.5,20.84,40.97,22.8,40.55,24.8C39.81,28.28,36.78,31.34,34.15,27.94C32.97,26.41,32.88,24.61,33.32,22.54C29.91,29.56,27.62,37.53,27.78,45.11C26.46,44.5,25.11,41.98,25.03,40.12C21.03,46.59,20.3,54.94,23.13,61.99C23.17,62.12,23.23,62.26,23.28,62.39C23.88,64.58,24.67,66.55,24.67,68.13C24.67,71.43,22.46,73.17,23.62,75.36C24.79,77.56,28.92,78.95,30.84,78.72C32.76,78.49,34.1,78.89,34.57,80.17C34.92,81.14,34.58,84.59,34.74,86.53C35.63,86.82,36.42,87.07,37.46,87.29L37.46,85.91C37.46,85.63,37.7,85.41,37.97,85.41C38.25,85.41,38.49,85.63,38.49,85.91L38.49,87.51C38.49,87.51,38.42,87.52,38.44,87.52C39.35,87.7,40.31,87.85,41.09,87.96L41.09,85.91C41.09,85.63,41.33,85.41,41.61,85.41C41.88,85.41,42.12,85.63,42.12,85.91L42.12,88.06C43.16,88.14,44.2,88.19,44.98,88.19L44.98,85.91C44.98,85.63,45.22,85.41,45.5,85.41C45.78,85.41,46.02,85.63,46.02,85.91L46.02,88.2C46.79,88.19,47.83,88.15,48.61,88.07L48.61,85.91C48.61,85.63,48.98,85.41,49.26,85.41C49.53,85.41,49.91,85.63,49.91,85.91L49.91,87.97C50.68,87.87,51.72,87.72,52.5,87.54L52.5,85.91C52.5,85.63,52.74,85.41,53.02,85.41C53.3,85.41,53.54,85.63,53.54,85.91L53.54,87.32C54.32,87.11,55.44,86.86,56.33,86.58C56.5,84.65,56.18,81.15,56.54,80.17C57.01,78.89,58.37,78.49,60.29,78.72C62.21,78.95,66.36,77.56,67.52,75.36C68.68,73.17,66.48,71.43,66.48,68.13C66.48,66.87,66.98,65.37,67.49,63.7C67.74,63.13,67.98,62.55,68.19,61.96C70.99,54.92,70.27,46.57,66.27,40.12Z" fill="currentColor"/><path d="M45.48,73.06C44.56,73.06,43.72,74.04,42.54,76.23C40.74,79.59,40.63,80.37,41.46,80.37C42.88,80.37,44.15,78.5,45.48,78.5C46.81,78.5,48.46,80.37,49.5,80.37C50.33,80.37,50.23,79.59,48.43,76.23C47.24,74.04,46.41,73.06,45.48,73.06Z" fill="currentColor"/><path d="M54.7,34.09C52.38,36.47,53.78,40.87,50.56,40.1C46.75,39.2,53.55,25.54,46.51,21.62C47.62,23.19,47.61,29.64,45.21,29.84C43.06,30.02,42.02,27.98,42.34,26.05C39.86,29.23,40.63,34.86,41.02,36.8C41.4,38.74,40.74,42.57,38.44,42.31C35.93,42.02,38.29,37.46,35,34.57C35.87,37.06,32.97,43.55,32.7,49.26L32.68,49.26C32.68,49.26,32.68,49.42,32.69,49.5C32.67,49.91,32.78,50.71,32.78,50.71C32.78,50.71,36.97,45.18,45.66,45.18C54.36,45.18,58.65,49.25,58.65,49.25C58.65,49.25,58.59,49.03,58.6,48.94C59.24,43.6,54.08,37.95,54.7,34.09Z" fill="currentColor"/><path d="M28.81,71.69C30.44,73.48,33.35,74.28,37.08,73.14C38.75,72.62,40.83,70.29,41.54,67.95C33.31,65.88,28.12,63.8,28.05,63.87C27.6,64.84,27.18,69.9,28.81,71.69Z" fill="currentColor"/><path d="M62.42,71.69C60.79,73.48,57.87,74.28,54.15,73.14C52.47,72.62,50.4,70.29,49.69,67.95C57.92,65.88,63.11,63.8,63.18,63.87C63.63,64.84,64.05,69.9,62.42,71.69Z" fill="currentColor"/></svg>