<svg xmlns="http://www.w3.org/2000/svg" viewBox="0 0 90 90" fill="currentColor"><path d="M14,86L26,86L26,6L14,6C9.58,6,6,9.58,6,14L6,78C6,82.42,9.58,86,14,86ZM66,86L66,6L46,6L46,86ZM78,86L66,86L66,6L78,6C82.42,6,86,9.58,86,14L86,78C86,82.42,82.42,86,78,86ZM26,86L26,6L46,6L46,86ZM26,86L26,67L46,67L46,86ZM26,67L26,48L6,48L6,67ZM66,67L66,48L46,48L46,67ZM78,86C82.42,86,86,82.42,86,78L86,67L66,67L66,86ZM14,86C9.58,86,6,82.42,6,78L6,67L26,67L26,86ZM46,86L46,67L66,67L66,86ZM66,67L66,48L86,48L86,67ZM86,48.01L86,29.01L66,29.01L66,48.01ZM26.01,48L26.01,29L46,29L46,10.01L66,10.01L66,29.01L46.01,29.01L46.01,48ZM26,29.01L26,10.01L14,10.01C9.58,10.01,6,13.59,6,18.01L6,29.01ZM26.01,67L26.01,48L46.01,48L46.01,67ZM6,48L6,29L26,29L26,48ZM46,29.01L46,48L66,48L66,29L46.01,29L46.01,10.01L26.01,10.01L26.01,29.01ZM86,29L86,18C86,13.58,82.42,10,78,10L66,10L66,29ZM46,86L26,86L26,83.76L46,84.66ZM6,67L6,48L6.77,48L7.98,67ZM66,86L46,86L46,84.66L66,85.55ZM26,86L14,86C9.58,86,6,82.42,6,78L6,67L7.98,67L8.54,75.84C8.8,79.91,12.09,83.14,16.17,83.32L26,83.76ZM6,48L6,36L6.77,48ZM66.86,11.13C76.35,12.04,83.88,19.53,84.85,29L86,29L86,18C86,13.58,82.42,10,78,10L66,10L66,11.05ZM84.87,29.14C84.86,29.1,84.86,29.05,84.85,29.01L86,29.01L86,41ZM66,10.01L55.12,10.01L66,11.05Z"/></svg>