<svg xmlns="http://www.w3.org/2000/svg" viewBox="0 0 90 90"><path d="M6.99,62.3L10.31,61.15C13.81,59.94,17.19,58.37,20.38,56.49L22.4,55.3C24.11,54.29,26.07,53.75,28.06,53.75L30.61,53.75L33.16,53.75C35.16,53.75,37.11,54.29,38.83,55.3L40.84,56.49C44.03,58.37,47.41,59.94,50.92,61.15L54.23,62.3C58.71,63.85,61.72,68.08,61.72,72.83L61.72,79.43C61.72,82.51,59.23,85,56.15,85L5.07,85C1.99,85,-0.5,82.51,-0.5,79.43L-0.5,72.83C-0.5,68.08,2.51,63.85,6.99,62.3Z" fill="currentColor"/><path d="M16.13,61.78C15.67,60.03,16.41,58.18,17.96,57.23L23.88,53.59C24.31,53.32,24.8,53.18,25.3,53.18L30.61,53.18L35.92,53.18C36.42,53.18,36.91,53.32,37.34,53.59L43.27,57.23C44.81,58.18,45.55,60.03,45.09,61.78C44.9,62.53,44.44,63.18,43.81,63.62L36.8,68.56C33.09,71.17,28.13,71.17,24.42,68.56L17.41,63.62C16.78,63.18,16.33,62.53,16.13,61.78Z" fill="currentColor" opacity="0.5"/><path d="M51.86,62.68C57.11,64.05,61.02,68.47,61.72,73.86L61.72,72.83C61.72,68.08,58.71,63.85,54.23,62.3L50.92,61.15C48.74,60.4,46.62,59.51,44.56,58.5C45.03,59.22,45.26,60.08,45.22,60.95Z" fill="currentColor"/><path d="M10.31,61.15L6.99,62.3C2.51,63.85,-0.5,68.08,-0.5,72.83L-0.5,73.86C0.21,68.47,4.11,64.05,9.37,62.68L16,60.95C15.96,60.08,16.19,59.22,16.66,58.5C14.6,59.51,12.48,60.4,10.31,61.15Z" fill="currentColor"/><path d="M27.13,68.43L27.13,85L24.91,85L24.91,68.43Z" fill="currentColor"/><path d="M35.98,68.43L35.98,85L33.77,85L33.77,68.43Z" fill="currentColor"/><path d="M18.92,63.16C16.47,59.2,17.7,54,21.67,51.57L23.08,50.71C23.4,50.51,23.76,50.41,24.13,50.41L30.61,50.41L37.09,50.41C37.46,50.41,37.82,50.51,38.14,50.71L39.55,51.57C43.52,54,44.75,59.2,42.3,63.16C42.04,63.57,41.73,63.95,41.36,64.27L36.51,68.57C33.14,71.56,28.08,71.56,24.71,68.57L19.86,64.27C19.49,63.95,19.18,63.57,18.92,63.16Z" fill="currentColor"/><path d="M21.97,51.28L23.14,50.65C23.42,50.49,23.73,50.41,24.05,50.41L30.61,50.41L37.17,50.41C37.49,50.41,37.8,50.49,38.08,50.65L39.25,51.28C43.78,53.75,45.04,59.68,41.91,63.78C44.07,59.43,42.4,54.15,38.13,51.83L37.65,51.57L23.57,51.57L23.23,51.76C19.01,54.15,17.31,59.36,19.31,63.78C16.18,59.68,17.44,53.75,21.97,51.28Z" fill="currentColor"/><path d="M16.07,44.14L45.15,44.14C45.99,44.14,46.78,43.74,47.27,43.06C50.63,38.45,47.33,31.97,41.63,31.97L19.6,31.97C13.89,31.97,10.6,38.45,13.96,43.06C14.45,43.74,15.24,44.14,16.07,44.14Z" fill="currentColor"/><path d="M23.77,61.69C26.74,64.13,30.61,67.14,30.61,67.14C30.61,67.14,34.58,64.15,37.54,61.66C38.73,60.66,39.38,59.18,39.38,57.62L39.38,45.73L21.84,45.73L21.84,57.53C21.84,59.14,22.53,60.67,23.77,61.69Z" fill="currentColor"/><path d="M25.17,58.16C28.36,60.69,32.87,60.69,36.06,58.16C38.15,56.5,39.38,53.97,39.38,51.29L39.38,36.62L21.84,36.62L21.84,51.29C21.84,53.97,23.07,56.5,25.17,58.16Z" fill="currentColor"/><path d="M19.87,51.79L23.51,54.83C25.12,56.17,27.14,56.9,29.23,56.9L30.61,56.9L32,56.9C34.08,56.9,36.1,56.17,37.71,54.83L41.35,51.79C43.22,50.24,44.36,47.99,44.53,45.57L46.48,17.68L14.74,17.68L16.69,45.57C16.86,47.99,18.01,50.24,19.87,51.79Z" fill="currentColor"/><path d="M47.79,35.91C47.2,36.51,46.42,36.87,45.59,37.06L44.91,37.22L44.46,30.48C44.33,28.5,42.91,26.84,40.95,26.57C34.75,25.74,26.53,25.77,20.31,26.59C18.33,26.85,16.89,28.52,16.76,30.52L16.31,37.22L15.97,37.14C14.93,36.9,13.96,36.39,13.31,35.54C6.19,26.27,7.52,5.1,30.86,5C54.94,4.9,55.88,27.69,47.79,35.91Z" fill="currentColor"/><path d="M46.84,36.77C53.64,28.77,54.79,7.43,30.86,7.43C6.93,7.43,8.11,29.01,14.38,36.77C6.12,28.32,6.42,5.1,30.86,5C55.84,4.9,55.92,28.45,46.84,36.77Z" fill="currentColor"/><path d="M63.64,74.21C69.34,77.51,76.62,75.55,79.92,69.85L86.81,57.9C90.11,52.2,88.15,44.91,82.45,41.62C76.75,38.33,69.46,40.29,66.17,45.99L61.46,54.15C62.69,54.37,63.9,54.81,65.04,55.47L67.22,56.73L71.61,49.12C73.16,46.42,76.62,45.5,79.32,47.06C82.02,48.61,82.94,52.07,81.38,54.77L74.48,66.72C72.92,69.42,69.47,70.34,66.77,68.78C64.63,67.55,63.6,65.12,64.05,62.82C63.68,62.17,63.14,61.62,62.45,61.22L61.91,60.9C60.71,60.21,59.33,60.15,58.14,60.61C56.66,65.75,58.8,71.42,63.64,74.21Z" fill="currentColor"/><path d="M63.7,64.2L63.97,64.32C63.93,63.82,63.95,63.32,64.05,62.82C63.68,62.17,63.14,61.62,62.45,61.22L61.91,60.9C60.71,60.21,59.33,60.15,58.14,60.61C57.67,62.22,57.57,63.88,57.78,65.49C59.22,63.81,61.63,63.24,63.7,64.2Z" fill="currentColor"/><path d="M67.21,56.73L68.64,54.25C67.31,53.24,65.79,52.48,64.18,52.02L62.9,51.66L61.46,54.15C61.97,54.24,62.48,54.37,62.97,54.54C63.6,54.75,64.22,55.02,64.83,55.35C64.9,55.39,64.97,55.43,65.04,55.47Z" fill="currentColor"/><path d="M78.83,69.23L85.73,57.28C88.89,51.81,87.22,44.87,82.04,41.41C82.27,41.53,82.5,41.65,82.72,41.78C88.27,44.98,90.18,52.08,86.97,57.63L79.76,70.12C76.55,75.67,69.46,77.58,63.91,74.37C63.68,74.24,63.46,74.1,63.25,73.96C68.83,76.72,75.67,74.7,78.83,69.23Z" fill="currentColor"/><path d="M65.59,55.79C59.89,52.49,52.6,54.45,49.31,60.15L42.41,72.1C39.12,77.8,41.07,85.09,46.77,88.38C52.47,91.67,59.76,89.71,63.05,84.01L67.76,75.85C66.53,75.63,65.32,75.19,64.18,74.53L62.01,73.27L57.62,80.88C56.06,83.58,52.6,84.5,49.9,82.94C47.2,81.39,46.28,77.93,47.84,75.23L54.74,63.28C56.3,60.58,59.75,59.66,62.45,61.22C64.59,62.45,65.62,64.88,65.17,67.18C65.54,67.83,66.08,68.38,66.77,68.78L67.32,69.1C68.51,69.79,69.89,69.85,71.08,69.39C72.56,64.25,70.42,58.58,65.59,55.79Z" fill="currentColor"/><path d="M65.52,65.8L65.26,65.68C65.29,66.18,65.27,66.68,65.17,67.18C65.54,67.83,66.08,68.38,66.77,68.78L67.32,69.1C68.51,69.79,69.89,69.85,71.08,69.39C71.55,67.78,71.66,66.12,71.44,64.51C70,66.19,67.59,66.76,65.52,65.8Z" fill="currentColor"/><path d="M62.01,73.27L64.18,74.53C65.32,75.19,66.53,75.63,67.76,75.85L66.32,78.34L65.04,77.98C63.43,77.52,61.92,76.76,60.58,75.75Z" fill="currentColor"/><path d="M50.39,60.77L43.49,72.72C40.33,78.19,42.01,85.13,47.18,88.59C46.95,88.47,46.72,88.35,46.5,88.22C40.95,85.02,39.05,77.92,42.25,72.37L49.46,59.88C52.67,54.33,59.76,52.42,65.31,55.63C65.54,55.76,65.76,55.9,65.98,56.04C60.39,53.28,53.55,55.3,50.39,60.77Z" fill="currentColor"/></svg>