<svg xmlns="http://www.w3.org/2000/svg" viewBox="0 0 90 90"><path d="M26.47,35.96L14.08,32.61C6.33,30.52,0.94,23.48,0.94,15.45L0.94,12.85C0.94,10.39,2.93,8.4,5.39,8.4L67.61,8.4C70.07,8.4,72.06,10.39,72.06,12.85L72.06,15.45C72.06,23.48,66.67,30.52,58.92,32.61L46.53,35.96Z" fill="currentColor"/><path d="M26.47,35.96L14.02,32.59C6.3,30.51,0.94,23.51,0.94,15.52C1.76,22.97,7.2,29.1,14.5,30.81L36.5,35.96L58.5,30.81C65.8,29.1,71.24,22.97,72.06,15.52C72.06,23.51,66.7,30.51,58.98,32.59L46.53,35.96Z" fill="currentColor"/><path d="M55.08,34.99C53.79,38.99,50.06,41.71,45.86,41.71L27.14,41.71C22.94,41.71,19.21,38.99,17.92,34.99C17.58,33.91,17.87,32.73,18.68,31.94L26.93,23.93L36.5,14.63L46.07,23.93L54.32,31.94C55.13,32.73,55.42,33.91,55.08,34.99Z" fill="currentColor"/><path d="M25.83,53.26L25.83,36.74C25.83,34.38,26.77,32.12,28.44,30.45L36.5,22.39L44.56,30.45C46.23,32.12,47.17,34.38,47.17,36.74L47.17,53.26Z" fill="currentColor"/><path d="M25.83,57.7L25.83,38.39L30.21,34.01C33.69,30.54,39.31,30.54,42.79,34.01L47.17,38.39L47.17,57.7Z" fill="currentColor"/><path d="M36.5,35.91C44.96,35.91,52.5,44.66,52.5,55.29C52.52,55.29,52.5,76.85,52.5,76.85L20.5,76.85L20.5,55.29C20.5,44.66,28.04,35.91,36.5,35.91Z" fill="currentColor"/><path d="M19.86,61.74L53.14,61.74C54.7,61.74,55.93,60.39,55.79,58.83L55.39,54.39C55.26,53.01,54.11,51.96,52.73,51.96L20.27,51.96C18.89,51.96,17.74,53.01,17.61,54.39L17.21,58.83C17.07,60.39,18.3,61.74,19.86,61.74Z" fill="currentColor"/><path d="M36.49,88.4C26.21,88.4,17.88,81.38,17.83,72.68L17.83,66.96C17.83,63.01,19.22,59.19,21.75,56.15L22.28,55.52L22.28,65.7C22.28,67.99,24.02,69.9,26.3,70.12L35.94,71.04C39.17,71.35,42.2,72.77,44.5,75.07L47.09,72.48C47.73,71.84,48.44,71.26,49.19,70.76C50.15,70.12,50.72,69.05,50.72,67.9L50.72,55.52L51.25,56.15C53.78,59.19,55.17,63.01,55.17,66.96L55.17,72.68L55.14,72.68C55.1,81.38,46.77,88.4,36.49,88.4Z" fill="currentColor"/><path d="M50.72,70.86C50.72,71.83,50.26,72.74,49.48,73.32C48.05,74.37,46.86,75.73,46.01,77.28L44.64,79.76C41.83,75.92,37.47,73.51,32.72,73.16L26.4,72.7C24.08,72.54,22.28,70.6,22.28,68.27L22.28,65.7C22.28,67.99,24.02,69.9,26.3,70.12L35.94,71.04C39.17,71.35,42.2,72.77,44.5,75.07L47.09,72.48C47.73,71.84,48.44,71.26,49.19,70.76C50.15,70.12,50.72,69.05,50.72,67.9Z" fill="currentColor" opacity="0.5"/><path d="M36.49,88.4C26.21,88.4,17.88,81.38,17.83,72.68C21.77,90.48,51.94,91,55.17,72.68L55.14,72.68C55.1,81.38,46.77,88.4,36.49,88.4Z" fill="currentColor"/><path d="M60.31,26.4L60.31,8.4L48.39,8.4C46.35,15.39,46,19.11,46,26.4Z" fill="currentColor"/><path d="M68.5,48.4C56.07,48.4,46,38.33,46,25.9C46,13.48,56.07,3.4,68.5,3.4C80.93,3.4,91,13.48,91,25.9C91,38.33,80.93,48.4,68.5,48.4Z" fill="currentColor"/><path d="M65.48,12.94C65.02,12.49,64.53,12.49,64.08,12.94L53.24,23.78C52.84,24.23,52.84,24.77,53.24,25.22L56.67,28.65C57.12,29.1,57.67,29.06,58.07,28.65L64.8,21.97L78.93,36.05C79.33,36.51,79.88,36.51,80.33,36.05L83.76,32.62C84.25,32.17,84.03,31.49,83.76,31.22Z" fill="currentColor"/><path d="M65.48,14.35C65.02,13.9,64.53,13.9,64.08,14.35L53.24,25.18C52.84,25.63,52.84,26.18,53.24,26.63L56.67,30.06C57.12,30.51,57.67,30.46,58.07,30.06L64.8,23.38L78.93,37.46C79.33,37.91,79.88,37.91,80.33,37.46L83.76,34.03C84.25,33.58,84.03,32.9,83.76,32.63Z" fill="currentColor"/></svg>