<svg xmlns="http://www.w3.org/2000/svg" viewBox="0 0 90 90"><path d="M7.99,35.27L11.31,36.41C14.81,37.63,18.19,39.19,21.38,41.08L23.4,42.26C25.11,43.28,27.07,43.81,29.06,43.81L31.61,43.81L34.16,43.81C36.16,43.81,38.11,43.28,39.83,42.26L41.84,41.08C45.03,39.19,48.41,37.63,51.92,36.41L55.23,35.27C59.71,33.71,62.72,29.49,62.72,24.74L62.72,18.14C62.72,15.06,60.23,12.56,57.15,12.56L6.07,12.56C2.99,12.56,0.5,15.06,0.5,18.14L0.5,24.74C0.5,29.49,3.51,33.71,7.99,35.27Z" fill="currentColor"/><path d="M17.13,35.78C16.67,37.54,17.41,39.38,18.96,40.33L24.88,43.98C25.31,44.24,25.8,44.38,26.3,44.38L31.61,44.38L36.92,44.38C37.42,44.38,37.91,44.24,38.34,43.98L44.27,40.33C45.81,39.38,46.55,37.54,46.09,35.78C45.9,35.04,45.44,34.39,44.81,33.94L37.8,29.01C34.09,26.39,29.13,26.39,25.42,29.01L18.41,33.94C17.78,34.39,17.33,35.04,17.13,35.78Z" fill="currentColor" opacity="0.5"/><path d="M52.86,34.88C58.11,33.51,62.02,29.09,62.72,23.71L62.72,24.74C62.72,29.49,59.71,33.71,55.23,35.27L51.92,36.41C49.74,37.17,47.62,38.05,45.56,39.06C46.03,38.34,46.26,37.49,46.22,36.61Z" fill="currentColor"/><path d="M11.31,36.41L7.99,35.27C3.51,33.71,0.5,29.49,0.5,24.74L0.5,23.71C1.21,29.09,5.11,33.51,10.37,34.88L17,36.61C16.96,37.49,17.19,38.34,17.66,39.06C15.6,38.05,13.48,37.17,11.31,36.41Z" fill="currentColor"/><path d="M28.13,29.14L28.13,12.56L25.91,12.56L25.91,29.14Z" fill="currentColor"/><path d="M36.98,29.14L36.98,12.56L34.77,12.56L34.77,29.14Z" fill="currentColor"/><path d="M19.92,34.41C17.47,38.36,18.7,43.56,22.67,45.99L24.08,46.86C24.4,47.05,24.76,47.15,25.13,47.15L31.61,47.15L38.09,47.15C38.46,47.15,38.82,47.05,39.14,46.86L40.55,45.99C44.52,43.56,45.75,38.36,43.3,34.41C43.04,33.99,42.73,33.62,42.36,33.3L37.51,28.99C34.14,26,29.08,26,25.71,28.99L20.86,33.3C20.49,33.62,20.18,33.99,19.92,34.41Z" fill="currentColor"/><path d="M22.97,46.28L24.14,46.92C24.42,47.07,24.73,47.15,25.05,47.15L31.61,47.15L38.17,47.15C38.49,47.15,38.8,47.07,39.08,46.92L40.25,46.28C44.78,43.81,46.04,37.88,42.91,33.78C45.07,38.14,43.4,43.42,39.13,45.74L38.65,45.99L24.57,45.99L24.23,45.8C20.01,43.41,18.31,38.2,20.31,33.78C17.18,37.88,18.44,43.81,22.97,46.28Z" fill="currentColor"/><path d="M17.07,53.43L46.15,53.43C46.99,53.43,47.78,53.83,48.27,54.51C51.63,59.12,48.33,65.59,42.63,65.59L20.6,65.59C14.89,65.59,11.6,59.12,14.96,54.51C15.45,53.83,16.24,53.43,17.07,53.43Z" fill="currentColor"/><path d="M24.77,35.87C27.74,33.43,31.61,30.43,31.61,30.43C31.61,30.43,35.58,33.42,38.54,35.9C39.73,36.9,40.38,38.39,40.38,39.94L40.38,51.84L22.84,51.84L22.84,40.03C22.84,38.43,23.53,36.9,24.77,35.87Z" fill="currentColor"/><path d="M26.17,39.41C29.36,36.88,33.87,36.88,37.06,39.41C39.15,41.07,40.38,43.6,40.38,46.28L40.38,60.94L22.84,60.94L22.84,46.28C22.84,43.6,24.07,41.07,26.17,39.41Z" fill="currentColor"/><path d="M20.87,45.77L24.51,42.73C26.12,41.39,28.14,40.66,30.23,40.66L31.61,40.66L33,40.66C35.08,40.66,37.1,41.39,38.71,42.73L42.35,45.77C44.22,47.33,45.36,49.58,45.53,52L47.48,79.88L15.74,79.88L17.69,52C17.86,49.58,19.01,47.33,20.87,45.77Z" fill="currentColor"/><path d="M48.79,61.66C48.2,61.05,47.42,60.69,46.59,60.5L45.91,60.35L45.46,67.09C45.33,69.06,43.91,70.73,41.95,70.99C35.75,71.83,27.53,71.79,21.31,70.98C19.33,70.72,17.89,69.04,17.76,67.05L17.31,60.35L16.97,60.43C15.93,60.67,14.96,61.18,14.31,62.02C7.19,71.29,8.52,92.47,31.86,92.56C55.94,92.66,56.88,69.88,48.79,61.66Z" fill="currentColor"/><path d="M47.84,60.79C54.64,68.79,55.79,90.14,31.86,90.14C7.93,90.14,9.11,68.55,15.38,60.79C7.12,69.24,7.42,92.46,31.86,92.56C56.84,92.67,56.92,69.12,47.84,60.79Z" fill="currentColor"/><path d="M64.64,23.35C70.34,20.06,77.62,22.01,80.92,27.71L87.81,39.66C91.11,45.36,89.15,52.65,83.45,55.94C77.75,59.23,70.46,57.28,67.17,51.58L62.46,43.42C63.69,43.19,64.9,42.75,66.04,42.09L68.22,40.84L72.61,48.44C74.16,51.14,77.62,52.07,80.32,50.51C83.02,48.95,83.94,45.5,82.38,42.8L75.48,30.85C73.92,28.15,70.47,27.22,67.77,28.78C65.63,30.02,64.6,32.45,65.05,34.75C64.68,35.39,64.14,35.95,63.45,36.35L62.91,36.66C61.71,37.35,60.33,37.42,59.14,36.96C57.66,31.82,59.8,26.14,64.64,23.35Z" fill="currentColor"/><path d="M64.7,33.37L64.97,33.25C64.93,33.74,64.95,34.25,65.05,34.75C64.68,35.39,64.14,35.95,63.45,36.35L62.91,36.66C61.71,37.35,60.33,37.42,59.14,36.96C58.67,35.35,58.57,33.69,58.78,32.08C60.22,33.75,62.63,34.32,64.7,33.37Z" fill="currentColor"/><path d="M68.21,40.84L69.64,43.32C68.31,44.33,66.79,45.08,65.18,45.54L63.9,45.91L62.46,43.42C62.97,43.32,63.48,43.19,63.97,43.03C64.6,42.82,65.22,42.55,65.83,42.21C65.9,42.17,65.97,42.13,66.04,42.09Z" fill="currentColor"/><path d="M79.83,28.34L86.73,40.29C89.89,45.76,88.22,52.69,83.04,56.15C83.27,56.04,83.5,55.92,83.72,55.78C89.27,52.58,91.18,45.48,87.97,39.93L80.76,27.44C77.55,21.89,70.46,19.99,64.91,23.19C64.68,23.32,64.46,23.46,64.25,23.61C69.83,20.85,76.67,22.87,79.83,28.34Z" fill="currentColor"/><path d="M66.59,41.78C60.89,45.07,53.6,43.12,50.31,37.42L43.41,25.47C40.12,19.77,42.07,12.48,47.77,9.19C53.47,5.9,60.76,7.85,64.05,13.55L68.76,21.71C67.53,21.94,66.32,22.38,65.18,23.04L63.01,24.29L58.62,16.69C57.06,13.99,53.6,13.06,50.9,14.62C48.2,16.18,47.28,19.63,48.84,22.33L55.74,34.28C57.3,36.98,60.75,37.91,63.45,36.35C65.59,35.11,66.62,32.68,66.17,30.38C66.54,29.74,67.08,29.18,67.77,28.78L68.32,28.47C69.51,27.78,70.89,27.71,72.08,28.17C73.56,33.31,71.42,38.99,66.59,41.78Z" fill="currentColor"/><path d="M66.52,31.76L66.26,31.88C66.29,31.39,66.27,30.88,66.17,30.38C66.54,29.74,67.08,29.18,67.77,28.78L68.32,28.47C69.51,27.78,70.89,27.71,72.08,28.17C72.55,29.78,72.66,31.44,72.44,33.05C71,31.38,68.59,30.81,66.52,31.76Z" fill="currentColor"/><path d="M63.01,24.29L65.18,23.04C66.32,22.38,67.53,21.94,68.76,21.71L67.32,19.22L66.04,19.59C64.43,20.05,62.92,20.8,61.58,21.81Z" fill="currentColor"/><path d="M51.39,36.79L44.49,24.84C41.33,19.37,43.01,12.44,48.18,8.98C47.95,9.09,47.72,9.21,47.5,9.35C41.95,12.55,40.05,19.65,43.25,25.2L50.46,37.69C53.67,43.24,60.76,45.14,66.31,41.94C66.54,41.81,66.76,41.67,66.98,41.52C61.39,44.28,54.55,42.26,51.39,36.79Z" fill="currentColor"/></svg>