<svg xmlns="http://www.w3.org/2000/svg" viewBox="0 0 90 90"><path d="M0,0L0,90L90,90L90,0Z" fill="currentColor"/><path d="M25.47,57.44L13.08,60.79C5.33,62.89,-0.06,69.92,-0.06,77.95L-0.06,80.56C-0.06,83.01,1.93,85,4.39,85L66.61,85C69.07,85,71.06,83.01,71.06,80.56L71.06,77.95C71.06,69.92,65.67,62.89,57.92,60.79L45.53,57.44Z" fill="currentColor"/><path d="M25.47,57.44L13.02,60.81C5.3,62.9,-0.06,69.9,-0.06,77.89C0.76,70.43,6.2,64.3,13.5,62.59L35.5,57.44L57.5,62.59C64.8,64.3,70.24,70.43,71.06,77.89C71.06,69.9,65.7,62.9,57.98,60.81L45.53,57.44Z" fill="currentColor"/><path d="M54.08,58.41C52.79,54.41,49.06,51.7,44.86,51.7L26.14,51.7C21.94,51.7,18.21,54.41,16.92,58.41C16.58,59.49,16.87,60.67,17.68,61.46L25.93,69.48L35.5,78.78L45.07,69.48L53.32,61.46C54.13,60.67,54.42,59.49,54.08,58.41Z" fill="currentColor"/><path d="M24.83,40.15L24.83,56.67C24.83,59.02,25.77,61.28,27.44,62.95L35.5,71.01L43.56,62.95C45.23,61.28,46.17,59.02,46.17,56.67L46.17,40.15Z" fill="currentColor"/><path d="M24.83,35.7L24.83,55.01L29.21,59.4C32.69,62.87,38.31,62.87,41.79,59.4L46.17,55.01L46.17,35.7Z" fill="currentColor"/><path d="M35.5,57.49C43.96,57.49,51.5,48.75,51.5,38.11C51.52,38.11,51.5,16.56,51.5,16.56L19.5,16.56L19.5,38.11C19.5,48.75,27.04,57.49,35.5,57.49Z" fill="currentColor"/><path d="M18.86,31.67L52.14,31.67C53.7,31.67,54.93,33.01,54.79,34.57L54.39,39.02C54.26,40.39,53.11,41.44,51.73,41.44L19.27,41.44C17.89,41.44,16.74,40.39,16.61,39.02L16.21,34.57C16.07,33.01,17.3,31.67,18.86,31.67Z" fill="currentColor"/><path d="M35.49,5C25.21,5,16.88,12.03,16.83,20.72L16.83,26.44C16.83,30.39,18.22,34.22,20.75,37.25L21.28,37.89L21.28,27.71C21.28,25.42,23.02,23.5,25.3,23.28L34.94,22.37C38.17,22.06,41.2,20.63,43.5,18.33L46.09,20.93C46.73,21.57,47.44,22.14,48.19,22.64C49.15,23.28,49.72,24.36,49.72,25.51L49.72,37.89L50.25,37.25C52.78,34.22,54.17,30.39,54.17,26.44L54.17,20.72L54.14,20.72C54.1,12.03,45.77,5,35.49,5Z" fill="currentColor"/><path d="M49.72,22.55C49.72,21.57,49.26,20.66,48.48,20.08C47.05,19.03,45.86,17.68,45.01,16.12L43.64,13.64C40.83,17.48,36.47,19.89,31.72,20.24L25.4,20.7C23.08,20.87,21.28,22.8,21.28,25.13L21.28,27.71C21.28,25.42,23.02,23.5,25.3,23.28L34.94,22.37C38.17,22.06,41.2,20.63,43.5,18.33L46.09,20.93C46.73,21.57,47.44,22.14,48.19,22.64C49.15,23.28,49.72,24.36,49.72,25.51Z" fill="currentColor" opacity="0.5"/><path d="M35.49,5C25.21,5,16.88,12.03,16.83,20.72C20.77,2.92,50.94,2.4,54.17,20.72L54.14,20.72C54.1,12.03,45.77,5,35.49,5Z" fill="currentColor"/><path d="M59.31,67L59.31,85L47.39,85C45.35,78.01,45,74.29,45,67Z" fill="currentColor"/><path d="M67.5,45C55.07,45,45,55.07,45,67.5C45,79.93,55.07,90,67.5,90C79.93,90,90,79.93,90,67.5C90,55.07,79.93,45,67.5,45Z" fill="currentColor"/><path d="M64.48,80.46C64.02,80.91,63.53,80.91,63.08,80.46L52.24,69.63C51.84,69.18,51.84,68.64,52.24,68.18L55.67,64.75C56.12,64.3,56.67,64.35,57.07,64.75L63.8,71.43L77.93,57.35C78.33,56.9,78.88,56.9,79.33,57.35L82.76,60.78C83.25,61.23,83.03,61.91,82.76,62.18Z" fill="currentColor"/><path d="M64.48,79.06C64.02,79.51,63.53,79.51,63.08,79.06L52.24,68.22C51.84,67.77,51.84,67.23,52.24,66.78L55.67,63.35C56.12,62.9,56.67,62.94,57.07,63.35L63.8,70.03L77.93,55.94C78.33,55.49,78.88,55.49,79.33,55.94L82.76,59.37C83.25,59.83,83.03,60.5,82.76,60.77Z" fill="currentColor"/></svg>