<svg xmlns="http://www.w3.org/2000/svg" viewBox="0 0 90 90"><path d="M33.72,59L19.78,62.77C11.06,65.12,5,73.04,5,82.07L5,85C5,87.76,7.24,90,10,90L80,90C82.76,90,85,87.76,85,85L85,82.07C85,73.04,78.94,65.12,70.22,62.77L56.28,59Z" fill="#0069AB"/><path d="M33.72,59L19.71,62.79C11.03,65.13,5,73.01,5,82C5.92,73.61,12.03,66.71,20.25,64.79L45,59L69.75,64.79C77.97,66.71,84.08,73.61,85,82C85,73.01,78.97,65.13,70.29,62.79L56.28,59Z" fill="#008CD1"/><path d="M65.9,60.09C64.45,55.59,60.26,52.53,55.53,52.53L34.47,52.53C29.74,52.53,25.55,55.59,24.1,60.09C23.71,61.3,24.04,62.63,24.96,63.52L34.23,72.53L45,83L55.77,72.53L65.04,63.52C65.96,62.63,66.29,61.3,65.9,60.09Z" fill="#0B548C"/><path d="M33,39.54L33,58.12C33,60.78,34.05,63.32,35.93,65.19L45,74.27L54.07,65.19C55.95,63.32,57,60.78,57,58.12L57,39.54Z" fill="#D5A47D"/><path d="M33,34.54L33,56.27L37.93,61.19C41.83,65.1,48.17,65.1,52.07,61.19L57,56.27L57,34.54Z" fill="#8D694B"/><path d="M45,59.05C54.52,59.05,63,49.21,63,37.25C63.03,37.25,63,13,63,13L27,13L27,37.25C27,49.21,35.48,59.05,45,59.05Z" fill="#D5A47D"/><path d="M26.29,30L63.71,30C65.48,30,66.86,31.51,66.7,33.27L66.25,38.27C66.11,39.82,64.81,41,63.26,41L26.74,41C25.19,41,23.89,39.82,23.75,38.27L23.3,33.27C23.14,31.51,24.52,30,26.29,30Z" fill="#D5A47D"/><path d="M44.99,0C33.42,0,24.05,7.91,24,17.68L24,24.12C24,28.57,25.56,32.87,28.4,36.28L29,37L29,25.55C29,22.97,30.96,20.81,33.53,20.57L44.37,19.54C48.01,19.19,51.41,17.59,54,15L56.92,17.92C57.64,18.64,58.43,19.28,59.28,19.85C60.35,20.57,61,21.78,61,23.07L61,37L61.6,36.28C64.44,32.87,66,28.57,66,24.12L66,17.68L65.97,17.68C65.92,7.91,56.55,0,44.99,0Z" fill="#9D6C3E"/><path d="M61,19.74C61,18.65,60.48,17.62,59.6,16.97C57.99,15.78,56.66,14.26,55.69,12.51L54.16,9.72C50.99,14.04,46.09,16.76,40.75,17.14L33.64,17.66C31.02,17.85,29,20.03,29,22.65L29,25.55C29,22.97,30.96,20.81,33.53,20.57L44.37,19.54C48.01,19.19,51.41,17.59,54,15L56.92,17.92C57.64,18.64,58.43,19.28,59.28,19.85C60.35,20.57,61,21.78,61,23.07Z" fill="#6B4D3A" opacity="0.5"/><path d="M44.99,0C33.42,0,24.05,7.91,24,17.68C28.43,-2.34,62.37,-2.92,66,17.68L65.97,17.68C65.92,7.91,56.55,0,44.99,0Z" fill="#CA9350"/></svg>