<svg xmlns="http://www.w3.org/2000/svg" viewBox="0 0 90 90"><path d="M79.9,47.83C80.86,47.47,81.49,46.56,81.49,45.55L81.49,19.74L46.23,19.74L46.23,45.55C46.23,46.56,46.86,47.47,47.81,47.83C58.16,51.69,69.56,51.69,79.9,47.83Z" fill="currentColor"/><path d="M51.96,38.06L77.38,38.06C78.74,38.06,79.94,37.21,80.38,35.93L81.69,32.13C82.64,29.38,80.6,26.52,77.69,26.52L51.65,26.52C48.74,26.52,46.7,29.38,47.65,32.13L48.96,35.93C49.4,37.21,50.6,38.06,51.96,38.06Z" fill="currentColor"/><path d="M45.5,55.63L53.16,53.21L56.59,51.58C58.01,50.91,59.56,50.57,61.12,50.57L64.55,50.57L67.98,50.57C69.55,50.57,71.1,50.91,72.51,51.58L75.94,53.21L83.61,55.63C88.01,57.02,91,61.11,91,65.72L91,70.71C91,73.63,88.63,76,85.71,76L43.4,76C40.48,76,38.11,73.63,38.11,70.71L38.11,65.72C38.11,61.11,41.1,57.02,45.5,55.63Z" fill="currentColor"/><path d="M38.11,70.71L38.11,66.56L91,66.56L91,70.71C91,70.92,90.98,71.12,90.96,71.32L38.14,71.32C38.12,71.12,38.11,70.92,38.11,70.71Z" fill="currentColor" opacity="0.5"/><path d="M90.24,61.8L38.86,61.8C39.63,59.88,40.94,58.22,42.64,57.04L86.47,57.04C88.17,58.22,89.48,59.88,90.24,61.8Z" fill="currentColor" opacity="0.5"/><path d="M45.21,55.72L53.16,53.21L56.59,51.58C58.01,50.91,59.56,50.57,61.12,50.57L64.55,50.57L67.98,50.57C69.55,50.57,71.1,50.91,72.51,51.58L75.94,53.21L83.89,55.72C88.12,57.06,91,60.99,91,65.42L90.87,64.93C89.97,61.3,87.21,58.42,83.63,57.35L64.55,51.67L45.48,57.33C41.85,58.41,39.07,61.35,38.2,65.04L38.11,65.42C38.11,60.99,40.98,57.06,45.21,55.72Z" fill="currentColor"/><path d="M58.32,62.49L50.01,55.9C50.17,53.88,51.72,52.25,53.73,51.99L63.18,50.75C64.09,50.63,65.02,50.63,65.93,50.75L75.38,51.99C77.39,52.25,78.94,53.88,79.1,55.9L70.79,62.49C68.25,64.49,66.78,67.55,66.78,70.78L66.78,76L62.33,76L62.33,70.78C62.33,67.55,60.85,64.49,58.32,62.49Z" fill="currentColor"/><path d="M58.44,61.14L50.01,54.27L51.1,53.1C52.63,51.45,54.65,50.34,56.86,49.92L62.57,48.83C63.88,48.58,65.23,48.58,66.53,48.83L72.25,49.92C74.46,50.34,76.48,51.45,78.01,53.1L79.1,54.27L70.67,61.14C68.21,63.15,66.78,66.16,66.78,69.34L66.78,76L62.33,76L62.33,69.34C62.33,66.16,60.9,63.15,58.44,61.14Z" fill="currentColor"/><path d="M59.06,58.41C63.7,62.12,64.55,65.37,64.55,65.37C64.55,65.37,65.4,62.12,70.02,58.41C71.42,57.29,72.36,55.65,72.36,53.86L72.36,39.77L56.73,39.77L56.73,53.86C56.73,55.66,57.66,57.3,59.06,58.41Z" fill="currentColor" opacity="0.5"/><path d="M58.51,55.89C62.44,58.63,66.75,58.74,70.67,55.88C71.82,55.04,72.36,53.64,72.36,52.22L72.36,40.83L56.73,40.83L56.73,52.14C56.73,53.6,57.31,55.05,58.51,55.89Z" fill="currentColor"/><path d="M59.67,50.71C62.58,52.81,66.52,52.81,69.44,50.71C71.61,49.14,72.89,46.62,72.89,43.94L72.89,31.81L56.21,31.81L56.21,43.94C56.21,46.62,57.5,49.14,59.67,50.71Z" fill="currentColor" opacity="0.5"/><path d="M56.11,45.87L58.61,48C60.14,49.29,62.08,50.01,64.08,50.01L65.02,50.01C67.03,50.01,68.97,49.29,70.5,48L73,45.87C75.28,43.94,76.63,41.14,76.73,38.15L77.55,12.77L51.56,12.77L52.38,38.15C52.47,41.14,53.83,43.94,56.11,45.87Z" fill="currentColor"/><path d="M53.87,10.75L55.71,10.45L60.26,8.06C65.81,5.14,72.59,5.93,77.33,10.06C83.21,15.18,84.27,23.93,79.77,30.31L78.45,32.17L78.03,46.25C78.02,46.8,77.56,47.24,77.01,47.24C76.44,47.24,75.98,46.77,75.99,46.19L76.4,32.54C76.49,29.59,74.12,27.15,71.16,27.15L63.28,27.15C61.02,27.15,58.81,26.49,56.92,25.25L52.94,22.65L51.55,35.54L46.23,19.74C46.23,15.28,49.46,11.47,53.87,10.75Z" fill="currentColor"/><path d="M53.87,10.75L55.71,10.45L60.26,8.06C65.81,5.14,72.59,5.93,77.33,10.06C83.21,15.18,84.27,23.93,79.77,30.31L78.45,32.17L79.66,30.07C83.28,23.76,81.73,15.74,76.01,11.23C71.46,7.64,65.21,7.07,60.08,9.77L55.71,12.07L53.7,12.28C49.75,12.68,46.63,15.8,46.23,19.74C46.23,15.28,49.46,11.47,53.87,10.75Z" fill="currentColor"/><path d="M8.11,64.72L11.21,63.64C14.5,62.5,17.67,61.04,20.66,59.27L22.55,58.16C24.16,57.21,25.99,56.71,27.86,56.71L30.25,56.71L32.64,56.71C34.51,56.71,36.34,57.21,37.95,58.16L39.84,59.27C42.83,61.04,46,62.5,49.29,63.64L52.39,64.72C56.6,66.18,59.42,70.14,59.42,74.59L59.42,80.78C59.42,83.66,57.08,86,54.19,86L6.31,86C3.42,86,1.08,83.66,1.08,80.78L1.08,74.59C1.08,70.14,3.9,66.18,8.11,64.72Z" fill="currentColor"/><path d="M16.68,64.23C16.25,62.59,16.94,60.86,18.39,59.97L23.94,56.55C24.34,56.3,24.8,56.17,25.27,56.17L30.25,56.17L35.23,56.17C35.7,56.17,36.16,56.3,36.56,56.55L42.11,59.97C43.56,60.86,44.25,62.59,43.83,64.23C43.64,64.93,43.22,65.54,42.63,65.96L36.06,70.59C32.57,73.04,27.93,73.04,24.44,70.59L17.87,65.96C17.28,65.54,16.86,64.93,16.68,64.23Z" fill="currentColor" opacity="0.5"/><path d="M50.17,65.08C55.1,66.36,58.75,70.5,59.42,75.56L59.42,74.59C59.42,70.14,56.6,66.17,52.39,64.72L49.29,63.64C47.25,62.94,45.26,62.11,43.33,61.16C43.77,61.83,43.99,62.64,43.95,63.46Z" fill="currentColor"/><path d="M11.21,63.64L8.11,64.72C3.9,66.17,1.08,70.14,1.08,74.59L1.08,75.56C1.75,70.5,5.4,66.36,10.33,65.08L16.55,63.46C16.51,62.64,16.73,61.83,17.17,61.16C15.24,62.11,13.25,62.94,11.21,63.64Z" fill="currentColor"/><path d="M26.98,70.46L26.98,86L24.91,86L24.91,70.46Z" fill="currentColor"/><path d="M35.28,70.46L35.28,86L33.21,86L33.21,70.46Z" fill="currentColor"/><path d="M19.29,65.52C16.99,61.81,18.15,56.94,21.87,54.66L23.19,53.85C23.49,53.67,23.83,53.57,24.18,53.57L30.25,53.57L36.32,53.57C36.67,53.57,37.01,53.67,37.31,53.85L38.63,54.66C42.35,56.94,43.51,61.81,41.21,65.52C40.97,65.91,40.67,66.26,40.33,66.56L35.78,70.6C32.62,73.4,27.87,73.4,24.72,70.6L20.17,66.56C19.83,66.26,19.53,65.91,19.29,65.52Z" fill="currentColor"/><path d="M22.15,54.39L23.24,53.79C23.51,53.65,23.8,53.57,24.1,53.57L30.25,53.57L36.4,53.57C36.7,53.57,36.99,53.65,37.25,53.79L38.35,54.39C42.59,56.71,43.78,62.26,40.84,66.11C42.87,62.03,41.3,57.08,37.3,54.9L36.85,54.66L23.65,54.66L23.33,54.84C19.38,57.08,17.78,61.97,19.65,66.11C16.72,62.26,17.9,56.71,22.15,54.39Z" fill="currentColor"/><path d="M16.62,47.69L43.88,47.69C44.67,47.69,45.4,47.31,45.87,46.68C49.01,42.36,45.92,36.29,40.58,36.29L19.92,36.29C14.58,36.29,11.49,42.36,14.64,46.68C15.1,47.31,15.83,47.69,16.62,47.69Z" fill="currentColor"/><path d="M23.84,64.15C26.62,66.44,30.25,69.25,30.25,69.25C30.25,69.25,33.97,66.45,36.75,64.12C37.86,63.19,38.47,61.79,38.47,60.33L38.47,49.18L22.03,49.18L22.03,60.25C22.03,61.76,22.68,63.19,23.84,64.15Z" fill="currentColor"/><path d="M25.14,60.84C28.14,63.21,32.36,63.21,35.35,60.84C37.32,59.28,38.47,56.91,38.47,54.4L38.47,40.65L22.03,40.65L22.03,54.4C22.03,56.91,23.18,59.28,25.14,60.84Z" fill="currentColor"/><path d="M20.18,54.87L23.6,57.72C25.1,58.97,26.99,59.66,28.95,59.66L30.25,59.66L31.55,59.66C33.51,59.66,35.4,58.97,36.9,57.72L40.32,54.87C42.07,53.41,43.14,51.3,43.3,49.03L45.13,22.89L15.37,22.89L17.2,49.03C17.36,51.3,18.43,53.41,20.18,54.87Z" fill="currentColor"/><path d="M46.36,39.98C45.8,40.54,45.07,40.88,44.29,41.06L43.65,41.2L43.23,34.89C43.11,33.03,41.78,31.47,39.94,31.23C34.13,30.44,26.42,30.48,20.6,31.24C18.74,31.48,17.39,33.05,17.26,34.92L16.85,41.2L16.52,41.13C15.55,40.91,14.64,40.42,14.03,39.63C7.36,30.94,8.61,11.09,30.49,11C53.05,10.91,53.94,32.27,46.36,39.98Z" fill="currentColor"/><path d="M45.47,40.79C51.84,33.29,52.92,13.28,30.49,13.28C8.05,13.28,9.16,33.51,15.03,40.79C7.29,32.87,7.57,11.1,30.49,11C53.9,10.9,53.98,32.98,45.47,40.79Z" fill="currentColor"/></svg>