<svg xmlns="http://www.w3.org/2000/svg" viewBox="0 0 90 90"><path d="M20,9L20,20L9,20C6.79,20,5,21.79,5,24L5,32C5,34.21,6.79,36,9,36L20,36L20,54L9,54C6.79,54,5,55.79,5,58L5,66C5,68.21,6.79,70,9,70L20,70L20,81C20,83.21,21.79,85,24,85L32,85C34.21,85,36,83.21,36,81L36,70L54,70L54,81C54,83.21,55.79,85,58,85L66,85C68.21,85,70,83.21,70,81L70,70L81,70C83.21,70,85,68.21,85,66L85,58C85,55.79,83.21,54,81,54L70,54L70,36L81,36C83.21,36,85,34.21,85,32L85,24C85,21.79,83.21,20,81,20L70,20L70,9C70,6.79,68.21,5,66,5L58,5C55.79,5,54,6.79,54,9L54,20L36,20L36,9C36,6.79,34.21,5,32,5L24,5C21.79,5,20,6.79,20,9Z" fill="currentColor"/><path d="M36,54L54,54L54,36L36,36Z" fill="currentColor"/><path d="M16,20L20,36L20,20Z" fill="currentColor"/><path d="M36,36L40,20L36,20Z" fill="currentColor"/><path d="M54,40L54,36L70,36L70,40Z" fill="currentColor"/><path d="M74,54L70,54L70,70Z" fill="currentColor"/><path d="M54,70L50,54L54,54Z" fill="currentColor"/><path d="M20,70L20,74L36,74L36,70Z" fill="currentColor"/><path d="M70,50L68.83,79.73C68.75,81.87,66.98,83.57,64.84,83.57L59.21,83.57C57.06,83.57,55.3,81.88,55.21,79.73L54,50L54,81C54,83.21,55.79,85,58,85L66,85C68.21,85,70,83.21,70,81Z" fill="currentColor"/><path d="M20,40L21.17,10.27C21.25,8.13,23.02,6.43,25.16,6.43L30.79,6.43C32.94,6.43,34.7,8.12,34.79,10.27L36,40L36,9C36,6.79,34.21,5,32,5L24,5C21.79,5,20,6.79,20,9Z" fill="currentColor"/><path d="M54,9C54,6.79,55.79,5,58,5L66,5C68.21,5,70,6.79,70,9L70,17.5L69.07,9.94C68.82,7.93,67.11,6.43,65.1,6.43L58.87,6.43C56.84,6.43,55.14,7.94,54.9,9.96L54,17.5Z" fill="currentColor"/><path d="M9,36C6.79,36,5,34.21,5,32L5,24C5,21.79,6.79,20,9,20L12,20L9.47,20.62C7.69,21.06,6.43,22.66,6.43,24.5L6.43,31.08C6.43,33.13,7.98,34.84,10.01,35.06L19,36Z" fill="currentColor"/><path d="M81,20C83.21,20,85,21.79,85,24L85,32C85,34.21,83.21,36,81,36L50,36L79.73,34.79C81.88,34.7,83.57,32.94,83.57,30.79L83.57,25.16C83.57,23.02,81.87,21.25,79.73,21.17L50,20Z" fill="currentColor"/><path d="M71,70L79.99,69.06C82.03,68.84,83.57,67.13,83.57,65.08L83.57,58.51C83.57,56.66,82.31,55.06,80.53,54.62L78,54L81,54C83.21,54,85,55.79,85,58L85,66C85,68.21,83.21,70,81,70Z" fill="currentColor"/><path d="M20,76L20.74,80.26C21.07,82.17,22.74,83.57,24.68,83.57L31.29,83.57C33.22,83.57,34.88,82.19,35.23,80.28L36,76L36,81C36,83.21,34.21,85,32,85L24,85C21.79,85,20,83.21,20,81Z" fill="currentColor"/><path d="M9,70C6.79,70,5,68.21,5,66L5,58C5,55.79,6.79,54,9,54L40,54L10.27,55.21C8.12,55.3,6.43,57.06,6.43,59.21L6.43,64.84C6.43,66.98,8.13,68.75,10.27,68.83L40,70Z" fill="currentColor"/></svg>