<svg xmlns="http://www.w3.org/2000/svg" viewBox="0 0 90 90"><path d="M80.65,20.27L50.48,4.8C47.04,3.04,42.96,3.04,39.52,4.8L9.35,20.27C6.68,21.64,5,24.39,5,27.39C5,39.07,5,55.4,5,63.33C5,66.23,6.57,68.89,9.1,70.31L41.1,88.17C43.52,89.52,46.48,89.52,48.9,88.17L80.9,70.31C83.43,68.89,85,66.22,85,63.32L85,27.39C85,24.39,83.32,21.64,80.65,20.27Z" fill="currentColor"/><path d="M40.69,40.59L9.39,24.29C7.39,23.25,5,24.69,5,26.94C5,38.72,5,55.32,5,63.33C5,66.23,6.57,68.89,9.1,70.31L40.54,87.85C42.54,88.97,45,87.52,45,85.23L45,47.69C45,44.7,43.34,41.97,40.69,40.59Z" fill="currentColor"/><path d="M49.32,40.59L80.63,24.29C82.62,23.25,85.01,24.69,85.01,26.94C85.01,38.72,85.01,55.32,85.01,63.33C85.01,66.23,83.44,68.89,80.91,70.31L49.47,87.85C47.47,88.97,45.01,87.52,45.01,85.23L45.01,47.69C45.01,44.7,46.67,41.97,49.32,40.59Z" fill="currentColor"/><path d="M50.48,4.8C47.04,3.04,42.96,3.04,39.52,4.8L19.24,15.2L41.74,5.16C43.81,4.23,46.19,4.23,48.26,5.16L70.76,15.2Z" fill="currentColor"/><path d="M5.91,63.16L5,52.51L5,63.32C5,66.22,6.57,68.89,9.1,70.31L25,79.18L9.54,69.21C7.46,67.86,6.12,65.63,5.91,63.16Z" fill="currentColor"/><path d="M84.1,63.16L85.01,52.51L85.01,63.32C85.01,66.22,83.44,68.89,80.91,70.31L65.01,79.18L80.47,69.21C82.55,67.86,83.89,65.63,84.1,63.16Z" fill="currentColor"/><path d="M45.93,25.88C43.21,25.88,41,24.34,41,22.44C41,20.54,43.21,19,45.93,19C48.65,19,50.86,20.54,50.86,22.44C50.86,24.34,48.65,25.88,45.93,25.88Z" fill="currentColor"/><path d="M18.45,43.41C18.45,41.34,16.78,38.72,14.72,37.55C12.67,36.39,11,37.13,11,39.2C11,41.27,12.67,43.9,14.72,45.06C16.78,46.23,18.45,45.49,18.45,43.41Z" fill="currentColor"/><path d="M28.03,58.49C28.03,56.41,26.36,53.79,24.3,52.63C22.25,51.46,20.58,52.2,20.58,54.27C20.58,56.35,22.25,58.97,24.3,60.14C26.36,61.3,28.03,60.56,28.03,58.49Z" fill="currentColor"/><path d="M37.61,73.56C37.61,71.49,35.94,68.86,33.88,67.7C31.82,66.54,30.16,67.27,30.16,69.35C30.16,71.42,31.82,74.05,33.88,75.21C35.94,76.37,37.61,75.64,37.61,73.56Z" fill="currentColor"/><path d="M59.45,50.76C59.45,48.69,57.78,47.92,55.72,49.06C53.67,50.19,52,52.78,52,54.86C52,56.93,53.67,57.69,55.72,56.56C57.78,55.43,59.45,52.83,59.45,50.76Z" fill="currentColor"/><path d="M78.61,40.23C78.61,38.16,76.94,37.39,74.88,38.52C72.82,39.65,71.16,42.25,71.16,44.33C71.16,46.4,72.82,47.16,74.88,46.03C76.94,44.9,78.61,42.3,78.61,40.23Z" fill="currentColor"/><path d="M69.03,55.15C69.03,53.07,67.36,52.31,65.3,53.44C63.25,54.57,61.58,57.17,61.58,59.24C61.58,61.32,63.25,62.08,65.3,60.95C67.36,59.82,69.03,57.22,69.03,55.15Z" fill="currentColor"/><path d="M78.61,59.54C78.61,57.46,76.94,56.7,74.88,57.83C72.82,58.96,71.16,61.56,71.16,63.63C71.16,65.7,72.82,66.47,74.88,65.34C76.94,64.21,78.61,61.61,78.61,59.54Z" fill="currentColor"/><path d="M59.45,70.07C59.45,67.99,57.78,67.23,55.72,68.36C53.67,69.49,52,72.09,52,74.16C52,76.24,53.67,77,55.72,75.87C57.78,74.74,59.45,72.14,59.45,70.07Z" fill="currentColor"/></svg>