<svg xmlns="http://www.w3.org/2000/svg" viewBox="0 0 90 90"><path d="M45,89C22.91,89,5,71.09,5,49L5,45L85,45L85,49C85,71.09,67.09,89,45,89Z" fill="currentColor"/><path d="M85,45C85,22.91,67.09,5,45,5C22.91,5,5,22.91,5,45C5,67.09,22.91,85,45,85C67.09,85,85,67.09,85,45Z" fill="currentColor"/><path d="M85,45C85,67.09,67.09,85,45,85C66.33,83.27,83.27,66.33,85,45Z" fill="currentColor"/><path d="M70.34,67.69L46.41,43.7L43.02,47.1L67.32,71.46L68.49,77.38C71.73,75.03,74.6,72.2,77,69Z" fill="currentColor"/><path d="M75.03,45C75.03,28.36,61.59,14.87,45,14.87C28.42,14.87,14.97,28.36,14.97,45C14.97,61.64,28.42,75.13,45,75.13C61.59,75.13,75.03,61.64,75.03,45Z" fill="currentColor"/><path d="M64,45C64,34.51,55.49,26,45,26C34.51,26,26,34.51,26,45C26,55.49,34.51,64,45,64C55.49,64,64,55.49,64,45Z" fill="currentColor"/><path d="M45,53C40.58,53,37,49.42,37,45C37,40.58,40.58,37,45,37C49.42,37,53,40.58,53,45C53,49.42,49.42,53,45,53Z" fill="currentColor"/><path d="M59.71,57.03C58.69,58.27,57.52,59.38,56.22,60.33L64.11,68.24C65.35,67.22,66.5,66.1,67.55,64.89Z" fill="currentColor"/><path d="M43.02,47.1L46.41,43.7L51.84,49.15C51,50.54,49.73,51.66,48.23,52.32Z" fill="currentColor"/><path d="M5,45C5,22.91,22.91,5,45,5C23.67,6.73,6.73,23.67,5,45Z" fill="currentColor"/><path d="M63,15.41L71.95,2.25C73.15,0.49,75.73,0.5,76.92,2.26L81.28,8.72L63.13,26.87L62.49,17.29C62.45,16.63,62.63,15.96,63,15.41Z" fill="currentColor"/><path d="M62.66,16.09C62.74,15.85,62.86,15.62,63,15.41L64.55,13.14L68.89,21.11L66.63,23.37Z" fill="currentColor"/><path d="M70.87,19.13L66.24,10.64L68.19,7.79L73.13,16.87Z" fill="currentColor"/><path d="M75.11,14.89L69.88,5.29L71.83,2.43L77.38,12.62Z" fill="currentColor"/><path d="M81.17,8.83L63.12,26.88L62.89,23.14L73.47,11.46C75.41,9.31,78.32,8.32,81.17,8.83Z" fill="currentColor"/><path d="M72.76,1.06C73.56,-0.12,75.3,-0.1,76.09,1.09L81.16,8.84L75.44,2.19C74.59,1.21,73.04,1.28,72.29,2.34L63.37,14.88Z" fill="currentColor"/><path d="M74.59,27L87.75,18.05C89.51,16.85,89.5,14.27,87.74,13.08L81.28,8.72L63.13,26.87L72.7,27.51C73.37,27.55,74.04,27.37,74.59,27Z" fill="currentColor"/><path d="M73.91,27.34C74.15,27.26,74.38,27.14,74.59,27L76.86,25.45L68.89,21.11L66.63,23.37Z" fill="currentColor"/><path d="M70.87,19.13L79.36,23.75L82.21,21.81L73.13,16.87Z" fill="currentColor"/><path d="M75.11,14.89L84.71,20.12L87.56,18.17L77.38,12.62Z" fill="currentColor"/><path d="M81.17,8.83L63.12,26.88L66.86,27.11L78.54,16.53C80.68,14.59,81.68,11.68,81.17,8.83Z" fill="currentColor"/><path d="M88.94,17.24C90.11,16.44,90.1,14.7,88.91,13.91L81.16,8.84L87.81,14.56C88.79,15.41,88.72,16.96,87.66,17.71L75.12,26.63Z" fill="currentColor"/><path d="M80.59,6.15L43.05,43.62C42.08,44.59,42.08,46.16,43.05,47.13C44.01,48.09,45.58,48.09,46.54,47.13L84.08,9.65C85.05,8.68,85.05,7.12,84.08,6.15C83.12,5.19,81.55,5.19,80.59,6.15Z" fill="currentColor"/><path d="M43.04,47.12C44.01,48.09,45.58,48.09,46.55,47.12L85.84,7.9L44.82,46.14C44.32,46.61,43.71,46.95,43.04,47.12Z" fill="currentColor"/></svg>