<svg xmlns="http://www.w3.org/2000/svg" viewBox="0 0 90 90" fill="currentColor"><path d="M9.62,71.21C9.03,70.75,9.14,69.83,9.83,69.53C20.62,64.87,26.58,53.21,24.03,41.73L21.25,29.25C20.94,27.83,22.54,26.76,23.74,27.6L29.29,31.53C37.61,37.41,47.96,39.68,57.98,37.84L61.89,37.12C72.28,35.21,82.91,38.77,90.04,46.55C90.67,47.23,90.86,48.2,90.54,49.06L84.84,64.4C83.74,67.37,82.91,70.43,82.35,73.54L79.58,89.13C79.28,90.82,77.2,91.46,76,90.23C69.88,83.97,61.04,81.16,52.43,82.74L46.47,83.84C35.95,85.78,25.1,83.15,16.63,76.62ZM59.4,80.32L60.24,76.27C62.88,63.41,71.88,52.78,84.12,48.05C85.93,47.35,87.74,49.05,87.17,50.9L83.04,64.12L76.98,88.27C72.24,83.51,65.96,80.73,59.4,80.32ZM28.77,33.39L24.61,30.37C23.47,29.56,21.97,30.7,22.46,32.01L25.78,40.91C30.01,52.2,25.32,64.88,14.76,70.71C14.15,71.04,14.08,71.9,14.64,72.33L16.87,74.05C21.58,74.17,26.12,71.8,28.68,67.66L45.67,40.2C39.63,39.34,33.82,37.03,28.77,33.39ZM5.4,74.56C7.65,75.17,9.97,73.83,10.58,71.57L28.1,6.2C28.7,3.94,27.36,1.62,25.1,1.02C22.85,0.41,20.53,1.75,19.92,4.01L2.41,69.38C1.8,71.64,3.14,73.96,5.4,74.56ZM2.41,69.38L19.92,4.01C20.53,1.75,22.85,0.41,25.1,1.02C27.36,1.62,28.7,3.94,28.1,6.2L10.58,71.57C9.97,73.83,7.65,75.17,5.4,74.56C3.14,73.96,1.8,71.64,2.41,69.38ZM4.11,70.91L22.17,3.5C22.55,2.09,24,1.25,25.41,1.63C26.82,2,27.66,3.45,27.28,4.86L9.22,72.28C8.84,73.69,7.39,74.53,5.98,74.15C4.57,73.77,3.73,72.32,4.11,70.91ZM3.64,64.77C3.66,64.79,3.67,64.81,3.68,64.83C5.36,67.57,8.76,68.65,11.68,67.45L10.73,70.99C7.81,71.45,4.81,70.55,2.64,68.52ZM14.86,22.91C14.87,22.94,14.89,22.96,14.9,22.98C16.58,25.72,19.98,26.8,22.9,25.6L21.95,29.14C19.03,29.6,16.03,28.69,13.85,26.67ZM1.56,69.55C0.85,68.11,1.74,66.6,3.21,66.43C4.46,68.95,8.86,70.45,11.3,68.9C12.73,69.26,13.14,71.26,11.5,72.19C8.05,74.14,3.11,72.66,1.56,69.55ZM12.78,27.69C12.07,26.25,12.96,24.75,14.43,24.58C15.68,27.09,20.08,28.6,22.52,27.04C23.95,27.41,24.36,29.41,22.72,30.33C19.27,32.28,14.33,30.81,12.78,27.69Z"/></svg>