<svg xmlns="http://www.w3.org/2000/svg" viewBox="0 0 90 90" fill="currentColor"><path d="M46,0.88C23.91,0.88,6,18.79,6,40.88L6,44.88L86,44.88L86,40.88C86,18.79,68.09,0.88,46,0.88ZM86,44.88C86,66.98,68.09,84.88,46,84.88C23.91,84.88,6,66.98,6,44.88C6,22.79,23.91,4.88,46,4.88C68.09,4.88,86,22.79,86,44.88ZM86,44.88C86,22.79,68.09,4.88,46,4.88C67.33,6.61,84.27,23.55,86,44.88ZM71.34,22.2L47.41,46.18L44.02,42.78L68.32,18.42L69.49,12.5C72.73,14.86,75.6,17.69,78,20.89ZM76.03,44.88C76.03,61.52,62.59,75.01,46,75.01C29.42,75.01,15.97,61.52,15.97,44.88C15.97,28.24,29.42,14.75,46,14.75C62.59,14.75,76.03,28.24,76.03,44.88ZM65,44.88C65,55.38,56.49,63.88,46,63.88C35.51,63.88,27,55.38,27,44.88C27,34.39,35.51,25.88,46,25.88C56.49,25.88,65,34.39,65,44.88ZM46,36.88C41.58,36.88,38,40.47,38,44.88C38,49.3,41.58,52.88,46,52.88C50.42,52.88,54,49.3,54,44.88C54,40.47,50.42,36.88,46,36.88ZM60.71,32.86C59.69,31.61,58.52,30.5,57.22,29.55L65.11,21.64C66.35,22.67,67.5,23.79,68.55,24.99ZM44.02,42.78L47.41,46.18L52.84,40.74C52,39.34,50.73,38.23,49.23,37.56ZM6,44.88C6,66.98,23.91,84.88,46,84.88C24.67,83.15,7.73,66.22,6,44.88ZM64,74.48L72.95,87.64C74.15,89.39,76.73,89.39,77.92,87.63L82.28,81.16L64.13,63.01L63.49,72.59C63.45,73.26,63.63,73.92,64,74.48ZM63.66,73.79C63.74,74.03,63.86,74.26,64,74.48L65.55,76.75L69.89,68.78L67.63,66.51ZM71.87,70.75L67.24,79.24L69.19,82.1L74.13,73.02ZM76.11,75L70.88,84.59L72.83,87.45L78.38,77.26ZM82.17,81.06L64.12,63.01L63.89,66.75L74.47,78.42C76.41,80.57,79.32,81.56,82.17,81.06ZM73.76,88.82C74.56,90,76.3,89.99,77.09,88.79L82.16,81.05L76.44,87.69C75.59,88.67,74.04,88.6,73.29,87.54L64.37,75.01ZM75.59,62.89L88.75,71.84C90.51,73.03,90.5,75.62,88.74,76.81L82.28,81.16L64.13,63.01L73.7,62.38C74.37,62.33,75.04,62.51,75.59,62.89ZM74.91,62.54C75.15,62.63,75.38,62.74,75.59,62.89L77.86,64.43L69.89,68.78L67.63,66.51ZM71.87,70.75L80.36,66.13L83.21,68.07L74.13,73.02ZM76.11,75L85.71,69.77L88.56,71.71L78.38,77.26ZM82.17,81.06L64.12,63.01L67.86,62.77L79.54,73.35C81.68,75.3,82.68,78.21,82.17,81.06ZM89.94,72.64C91.11,73.45,91.1,75.19,89.91,75.97L82.16,81.05L88.81,75.32C89.79,74.47,89.72,72.93,88.66,72.18L76.12,63.26ZM81.59,83.74L44.05,46.26C43.08,45.29,43.08,43.72,44.05,42.76C45.01,41.79,46.58,41.79,47.54,42.76L85.08,80.23C86.05,81.2,86.05,82.77,85.08,83.74C84.12,84.7,82.55,84.7,81.59,83.74ZM44.04,42.76C45.01,41.8,46.58,41.8,47.55,42.76L86.84,81.98L45.82,43.75C45.32,43.28,44.71,42.94,44.04,42.76Z"/></svg>