<svg xmlns="http://www.w3.org/2000/svg" viewBox="0 0 90 90"><path d="M74.13,29.44C74.13,31.05,74.87,32.53,75.42,33.42L66.41,43.03L65.36,20.86C68.43,19.83,70.64,16.77,70.64,13.33C70.64,8.64,66.96,4.96,62.27,4.96C57.58,4.96,53.9,8.72,53.9,13.33C53.9,15.77,55.09,18.14,56.99,19.59L50.47,38.38L47.73,30.51L43.94,19.57C45.85,18.12,47.04,15.76,47.04,13.32C47.04,8.71,43.28,4.95,38.67,4.95C34.05,4.95,30.3,8.63,30.3,13.32C30.3,16.83,32.47,19.84,35.57,20.86L35.11,35.04L25.77,42.7L30.76,69.03C21.34,70.78,21.35,76.44,21.37,82.96L21.37,83.88L21.37,85.03L79.54,85.03L79.54,82.96C79.56,76.44,79.57,70.78,70.16,69.03L83.36,37.27C86.87,36.8,89.99,33.21,89.99,29.43C89.99,25.03,86.41,21.44,82,21.44L82.01,21.45C77.81,21.45,74.13,25.19,74.13,29.44Z" fill="#E7E6E5"/><path d="M88.25,24.47C88.89,26.97,87.34,30.21,86.01,31.45C84.32,33.03,81.51,33.34,80.46,35.74C80.46,35.74,74.2,48.47,65.6,57.77C56.59,67.52,50.53,68.34,50.53,68.34L70.19,68.98L83.37,37.28C86.88,36.81,90,33.22,90,29.44C90,27.56,89.34,25.83,88.25,24.47Z" fill="#BEBDB9"/><path d="M33.22,30.76C30.72,30.76,28.7,32.79,28.7,35.28L28.7,38.62C28.7,41.12,30.73,43.14,33.22,43.14L39.09,43.14L23.2,59.04L22.13,60.11L23.2,61.18L34.78,72.77L35.85,73.83L36.92,72.77L52.82,56.87L52.82,64.06C52.82,66.56,54.85,68.58,57.34,68.58L60.68,68.58C63.18,68.58,65.2,66.54,65.2,64.06L65.2,35.27C65.2,32.77,63.17,30.75,60.68,30.75L60.69,30.76Z" fill="#5D9948"/><path d="M33.22,32.27C31.56,32.27,30.21,33.62,30.21,35.28L30.21,38.62C30.21,40.29,31.56,41.64,33.22,41.64L42.74,41.64L24.27,60.11L35.85,71.7L54.33,53.22L54.33,64.06C54.33,65.72,55.68,67.07,57.34,67.07L60.68,67.07C62.35,67.07,63.7,65.72,63.7,64.06L63.7,35.27C63.7,33.6,62.35,32.25,60.68,32.25L60.69,32.27Z" fill="#81B64C"/><path d="M33.22,32.27C31.56,32.27,30.21,33.62,30.21,35.28L30.21,38.62C30.21,40.29,31.56,41.64,33.22,41.64L42.74,41.64L24.27,60.11L30.14,65.98L62.89,33.23C62.34,32.64,61.56,32.27,60.68,32.27L60.69,32.27Z" fill="#B2E068" opacity="0.3"/><path d="M82.01,21.45C77.81,21.45,74.13,25.19,74.13,29.44C74.13,30.67,74.55,31.82,74.99,32.68C75.34,25.76,80.61,22.33,83.89,21.69C83.28,21.54,82.67,21.45,82.01,21.45Z" fill="white"/><path d="M38.68,4.96C33.99,4.96,30.31,8.64,30.31,13.33C30.31,14.79,30.7,16.16,31.36,17.34C32.3,10.23,36.51,6.23,39.91,5.06C39.51,5.01,39.09,4.96,38.68,4.96Z" fill="white"/><path d="M62.26,4.96C57.64,4.96,53.89,8.72,53.89,13.33C53.89,14.69,54.27,16.03,54.93,17.2C55.88,9.87,60.44,5.94,63.82,5.11C63.31,5.02,62.8,4.96,62.26,4.96Z" fill="white"/><path d="M32.77,60.81L35.54,60.81L36.67,58.69L36.94,58.2L37.12,57.87C37.8,56.63,38.56,55.23,38.56,52.64L38.56,49.96L36.75,48.77L36.33,48.49L34.47,47.26C35.86,44.97,36.62,42.3,36.62,39.53C36.62,36.25,35.54,33.22,33.75,30.76L33.22,30.76C30.72,30.76,28.7,32.79,28.7,35.28L28.7,38.62C28.7,39.14,28.8,39.63,28.97,40.11L25.8,42.7L27.98,54.26L23.21,59.03L22.14,60.1L23.21,61.17L30.71,68.67L30.78,69.03C21.36,70.78,21.37,76.44,21.4,82.96L21.4,83.88L21.4,85.03L47.35,85.03L47.35,84.07C47.35,77.08,44.47,71.27,39.43,68.11L39.43,68.12C35.58,65.7,33.7,63.06,32.77,60.81Z" fill="#5D9948"/><path d="M32.77,60.81L35.54,60.81L36.67,58.69L36.94,58.2L37.12,57.87C37.8,56.63,38.56,55.23,38.56,52.64L38.56,49.96L36.75,48.77L36.33,48.49L34.47,47.26C35.86,44.97,36.62,42.3,36.62,39.53C36.62,36.25,35.54,33.22,33.75,30.76L33.22,30.76C30.72,30.76,28.7,32.79,28.7,35.28L28.7,38.62C28.7,39.14,28.8,39.63,28.97,40.11L25.8,42.7L27.98,54.26L23.21,59.03L22.14,60.1L23.21,61.17L30.71,68.67L30.78,69.03C21.36,70.78,21.37,76.44,21.4,82.96L21.4,83.88L21.4,85.03L47.35,85.03L47.35,84.07C47.35,77.08,44.47,71.27,39.43,68.11L39.43,68.12C35.58,65.7,33.7,63.06,32.77,60.81Z" fill="#5D9948"/><path d="M35.79,60.33L35.31,60.82L35.53,60.82Z" fill="#81B64C"/><path d="M33.63,62.49L30.15,65.97L24.28,60.1L36.07,48.31L34.47,47.26C35.5,45.55,36.18,43.64,36.47,41.64L33.22,41.64C31.56,41.64,30.21,40.29,30.21,38.62L30.21,35.28C30.21,33.62,31.56,32.27,33.22,32.27L34.71,32.27C34.41,31.75,34.1,31.24,33.75,30.76L33.22,30.76C30.72,30.76,28.7,32.79,28.7,35.28L28.7,38.62C28.7,39.14,28.8,39.63,28.97,40.11L25.8,42.7L27.98,54.26L23.21,59.03L22.14,60.1L23.21,61.17L30.71,68.67L30.78,69.03C21.36,70.78,21.37,76.44,21.4,82.96L21.4,83.88L21.4,85.03L47.35,85.03L47.35,84.07C47.35,77.08,44.47,71.27,39.43,68.11L39.43,68.12C36.51,66.28,34.73,64.32,33.63,62.49Z" fill="#45753C"/><path d="M30.21,38.62C30.21,40.29,31.56,41.64,33.22,41.64L36.47,41.64C36.57,40.94,36.62,40.24,36.62,39.53C36.62,36.89,35.91,34.41,34.71,32.27L33.22,32.27C31.56,32.27,30.21,33.62,30.21,35.28Z" fill="#5D9948"/><path d="M37.13,57.87C37.8,56.63,38.57,55.23,38.57,52.64L38.57,49.96L36.75,48.77L36.33,48.49L36.07,48.32L24.28,60.11L30.15,65.98L33.63,62.51C33.28,61.93,33,61.36,32.77,60.82L35.31,60.82L35.8,60.33L36.68,58.7L36.95,58.21L36.95,58.2Z" fill="#5D9948"/><path d="M10.72,39.54C10.72,42.9,12.26,46.05,14.87,48.12L9.2,51.85L8.77,52.13L8.77,52.65C8.77,54.2,9.16,54.9,9.73,55.95L9.92,56.3L10.19,56.8L15.57,56.8C15.33,59.47,14.6,66.16,6.04,71.54C2.2,73.95,0.01,78.53,0.01,84.09L0.01,85.05L43.32,85.05L43.32,84.09C43.32,78.53,41.13,73.95,37.29,71.54C28.74,66.17,28.01,59.47,27.77,56.8L33.14,56.8L33.41,56.31L33.6,55.97C34.18,54.92,34.56,54.23,34.56,52.67L34.56,52.16L34.13,51.87L28.46,48.13C31.07,46.06,32.61,42.91,32.61,39.55C32.61,33.52,27.71,28.62,21.68,28.62L21.66,28.61C15.63,28.61,10.72,33.51,10.72,39.54Z" fill="#E7E6E5"/><path d="M14.88,48.12L8.79,52.13L15.83,52.13C16.14,50.02,14.84,48.15,14.88,48.12Z" fill="white"/><path d="M39.95,73.86C39.18,72.94,38.3,72.16,37.29,71.53C28.74,66.16,28.01,59.46,27.77,56.79L33.14,56.79L33.41,56.3L33.6,55.96C34.18,54.91,34.56,54.21,34.56,52.66L34.56,52.14L34.13,51.86L28.46,48.12C31.07,46.05,32.61,42.9,32.61,39.54C32.61,34.86,29.66,30.88,25.52,29.32C29.15,31.88,31.62,38.51,28.2,43.32C25.57,47.04,20.44,48.15,20.44,48.15L26.77,48.15C26.85,48.22,31.24,52.92,26.73,55.84L9.7,55.84C9.7,55.84,9.73,55.91,9.75,55.96L9.95,56.3L10.21,56.8L15.59,56.8C15.59,56.88,15.58,56.97,15.57,57.06C15.88,57.38,21.98,63.55,27.07,68.34L27.03,68.33C31.45,72.51,38.37,73.64,39.95,73.86Z" fill="#BEBDB9"/><path d="M21.66,28.61C15.63,28.61,10.72,33.51,10.72,39.54C10.72,41.11,11.07,42.63,11.69,44.02C12.58,34.31,18.67,29.4,22.85,28.69L22.86,28.68C22.47,28.63,22.06,28.61,21.66,28.61Z" fill="white"/><path d="M14.4,62.01C13.25,64.95,10.92,68.46,6.02,71.53C2.24,73.9,0.07,78.39,0,83.85C2.07,77.27,4.98,76.34,10.33,72.46L10.34,72.46C13.81,69.93,14.38,62.48,14.4,62.01Z" fill="white"/></svg>