<svg xmlns="http://www.w3.org/2000/svg" viewBox="0 0 90 90" fill="currentColor"><path d="M81.65,73.28L51.48,88.76C48.04,90.52,43.96,90.52,40.52,88.76L10.35,73.28C7.68,71.91,6,69.17,6,66.17C6,54.48,6,38.15,6,30.22C6,27.32,7.57,24.66,10.1,23.25L42.1,5.39C44.52,4.04,47.48,4.04,49.9,5.39L81.9,23.25C84.43,24.66,86,27.34,86,30.23L86,66.16C86,69.16,84.32,71.91,81.65,73.28ZM41.69,52.97L10.39,69.27C8.39,70.31,6,68.86,6,66.61C6,54.83,6,38.23,6,30.22C6,27.32,7.57,24.66,10.1,23.25L41.54,5.7C43.54,4.59,46,6.03,46,8.32L46,45.87C46,48.85,44.34,51.59,41.69,52.97ZM50.32,52.97L81.63,69.27C83.62,70.31,86.01,68.86,86.01,66.61C86.01,54.83,86.01,38.23,86.01,30.22C86.01,27.32,84.44,24.66,81.91,23.25L50.47,5.7C48.47,4.59,46.01,6.03,46.01,8.32L46.01,45.87C46.01,48.85,47.67,51.59,50.32,52.97ZM51.48,88.76C48.04,90.52,43.96,90.52,40.52,88.76L20.24,78.35L42.74,88.4C44.81,89.32,47.19,89.32,49.26,88.4L71.76,78.35ZM6.91,30.39L6,41.05L6,30.23C6,27.34,7.57,24.66,10.1,23.25L26,14.38L10.54,24.35C8.46,25.69,7.12,27.93,6.91,30.39ZM85.1,30.39L86.01,41.05L86.01,30.23C86.01,27.34,84.44,24.66,81.91,23.25L66.01,14.38L81.47,24.35C83.55,25.69,84.89,27.93,85.1,30.39ZM46.93,67.68C44.21,67.68,42,69.22,42,71.12C42,73.02,44.21,74.55,46.93,74.55C49.65,74.55,51.86,73.02,51.86,71.12C51.86,69.22,49.65,67.68,46.93,67.68ZM19.45,50.14C19.45,52.21,17.78,54.84,15.72,56C13.67,57.17,12,56.43,12,54.36C12,52.28,13.67,49.66,15.72,48.49C17.78,47.33,19.45,48.07,19.45,50.14ZM29.03,35.07C29.03,37.14,27.36,39.76,25.3,40.93C23.25,42.09,21.58,41.36,21.58,39.28C21.58,37.21,23.25,34.58,25.3,33.42C27.36,32.26,29.03,32.99,29.03,35.07ZM38.61,19.99C38.61,22.07,36.94,24.69,34.88,25.85C32.82,27.02,31.16,26.28,31.16,24.21C31.16,22.13,32.82,19.51,34.88,18.34C36.94,17.18,38.61,17.92,38.61,19.99ZM60.45,42.79C60.45,44.87,58.78,45.63,56.72,44.5C54.67,43.37,53,40.77,53,38.7C53,36.62,54.67,35.86,56.72,36.99C58.78,38.12,60.45,40.72,60.45,42.79ZM79.61,53.33C79.61,55.4,77.94,56.16,75.88,55.03C73.82,53.9,72.16,51.3,72.16,49.23C72.16,47.16,73.82,46.39,75.88,47.52C77.94,48.65,79.61,51.25,79.61,53.33ZM70.03,38.41C70.03,40.48,68.36,41.24,66.3,40.11C64.25,38.98,62.58,36.38,62.58,34.31C62.58,32.24,64.25,31.47,66.3,32.6C68.36,33.74,70.03,36.33,70.03,38.41ZM79.61,34.02C79.61,36.09,77.94,36.86,75.88,35.73C73.82,34.59,72.16,32,72.16,29.92C72.16,27.85,73.82,27.09,75.88,28.22C77.94,29.35,79.61,31.95,79.61,34.02ZM60.45,23.49C60.45,25.56,58.78,26.32,56.72,25.19C54.67,24.06,53,21.46,53,19.39C53,17.32,54.67,16.55,56.72,17.69C58.78,18.82,60.45,21.41,60.45,23.49Z"/></svg>