<svg xmlns="http://www.w3.org/2000/svg" viewBox="0 0 90 90"><path d="M75.13,61.56C75.13,59.95,75.87,58.46,76.42,57.58L67.41,47.97L66.36,70.14C69.43,71.17,71.64,74.23,71.64,77.67C71.64,82.36,67.96,86.04,63.27,86.04C58.58,86.04,54.9,82.28,54.9,77.67C54.9,75.23,56.09,72.86,57.99,71.41L51.47,52.61L48.73,60.49L44.94,71.42C46.85,72.88,48.04,75.24,48.04,77.68C48.04,82.29,44.28,86.05,39.67,86.05C35.05,86.05,31.3,82.37,31.3,77.68C31.3,74.17,33.47,71.15,36.57,70.14L36.11,55.96L26.77,48.29L31.76,21.97C22.34,20.21,22.35,14.56,22.37,8.04L22.37,7.12L22.37,5.97L80.54,5.97L80.54,8.04C80.56,14.56,80.57,20.21,71.16,21.97L84.36,53.73C87.87,54.2,90.99,57.79,90.99,61.57C90.99,65.97,87.41,69.56,83,69.56L83.01,69.55C78.81,69.55,75.13,65.81,75.13,61.56Z" fill="currentColor"/><path d="M89.25,66.53C89.89,64.03,88.34,60.79,87.01,59.54C85.32,57.97,82.51,57.65,81.46,55.26C81.46,55.26,75.2,42.53,66.6,33.23C57.59,23.48,51.53,22.66,51.53,22.66L71.19,22.01L84.37,53.72C87.88,54.19,91,57.78,91,61.56C91,63.44,90.34,65.17,89.25,66.53Z" fill="currentColor"/><path d="M34.22,60.24C31.72,60.24,29.7,58.21,29.7,55.72L29.7,52.38C29.7,49.88,31.73,47.86,34.22,47.86L40.09,47.86L24.2,31.96L23.13,30.89L24.2,29.82L35.78,18.23L36.85,17.17L37.92,18.23L53.82,34.13L53.82,26.94C53.82,24.44,55.85,22.42,58.34,22.42L61.68,22.42C64.18,22.42,66.2,24.46,66.2,26.94L66.2,55.73C66.2,58.23,64.17,60.25,61.68,60.25L61.69,60.24Z" fill="currentColor"/><path d="M34.22,58.73C32.56,58.73,31.21,57.38,31.21,55.72L31.21,52.38C31.21,50.71,32.56,49.36,34.22,49.36L43.74,49.36L25.27,30.89L36.85,19.3L55.33,37.78L55.33,26.94C55.33,25.28,56.68,23.93,58.34,23.93L61.68,23.93C63.35,23.93,64.7,25.28,64.7,26.94L64.7,55.73C64.7,57.4,63.35,58.75,61.68,58.75L61.69,58.73Z" fill="currentColor"/><path d="M34.22,58.73C32.56,58.73,31.21,57.38,31.21,55.72L31.21,52.38C31.21,50.71,32.56,49.36,34.22,49.36L43.74,49.36L25.27,30.89L31.14,25.02L63.89,57.77C63.34,58.36,62.56,58.73,61.68,58.73L61.69,58.73Z" fill="currentColor" opacity="0.3"/><path d="M83.01,69.55C78.81,69.55,75.13,65.81,75.13,61.56C75.13,60.33,75.55,59.18,75.99,58.32C76.34,65.24,81.61,68.67,84.89,69.31C84.28,69.46,83.67,69.55,83.01,69.55Z" fill="currentColor"/><path d="M39.68,86.04C34.99,86.04,31.31,82.36,31.31,77.67C31.31,76.21,31.7,74.84,32.36,73.66C33.3,80.77,37.51,84.77,40.91,85.94C40.51,85.99,40.09,86.04,39.68,86.04Z" fill="currentColor"/><path d="M63.26,86.04C58.64,86.04,54.89,82.28,54.89,77.67C54.89,76.31,55.27,74.97,55.93,73.8C56.88,81.13,61.44,85.06,64.82,85.89C64.31,85.98,63.8,86.04,63.26,86.04Z" fill="currentColor"/><path d="M33.77,30.19L36.54,30.19L37.67,32.31L37.94,32.8L38.12,33.13C38.8,34.37,39.56,35.77,39.56,38.36L39.56,41.04L37.75,42.23L37.33,42.51L35.47,43.74C36.86,46.03,37.62,48.7,37.62,51.47C37.62,54.75,36.54,57.78,34.75,60.24L34.22,60.24C31.72,60.24,29.7,58.21,29.7,55.72L29.7,52.38C29.7,51.86,29.8,51.37,29.97,50.89L26.8,48.29L28.98,36.74L24.21,31.97L23.14,30.9L24.21,29.83L31.71,22.33L31.78,21.97C22.36,20.21,22.37,14.56,22.4,8.04L22.4,7.12L22.4,5.97L48.35,5.97L48.35,6.93C48.35,13.91,45.47,19.73,40.43,22.89L40.43,22.88C36.58,25.3,34.7,27.94,33.77,30.19Z" fill="currentColor"/><path d="M33.77,30.19L36.54,30.19L37.67,32.31L37.94,32.8L38.12,33.13C38.8,34.37,39.56,35.77,39.56,38.36L39.56,41.04L37.75,42.23L37.33,42.51L35.47,43.74C36.86,46.03,37.62,48.7,37.62,51.47C37.62,54.75,36.54,57.78,34.75,60.24L34.22,60.24C31.72,60.24,29.7,58.21,29.7,55.72L29.7,52.38C29.7,51.86,29.8,51.37,29.97,50.89L26.8,48.29L28.98,36.74L24.21,31.97L23.14,30.9L24.21,29.83L31.71,22.33L31.78,21.97C22.36,20.21,22.37,14.56,22.4,8.04L22.4,7.12L22.4,5.97L48.35,5.97L48.35,6.93C48.35,13.91,45.47,19.73,40.43,22.89L40.43,22.88C36.58,25.3,34.7,27.94,33.77,30.19Z" fill="currentColor"/><path d="M36.79,30.67L36.31,30.18L36.53,30.18Z" fill="currentColor"/><path d="M34.63,28.51L31.15,25.03L25.28,30.9L37.07,42.69L35.47,43.74C36.5,45.45,37.18,47.36,37.47,49.36L34.22,49.36C32.56,49.36,31.21,50.71,31.21,52.38L31.21,55.72C31.21,57.38,32.56,58.73,34.22,58.73L35.71,58.73C35.41,59.25,35.1,59.76,34.75,60.24L34.22,60.24C31.72,60.24,29.7,58.21,29.7,55.72L29.7,52.38C29.7,51.86,29.8,51.37,29.97,50.89L26.8,48.29L28.98,36.74L24.21,31.97L23.14,30.9L24.21,29.83L31.71,22.33L31.78,21.97C22.36,20.21,22.37,14.56,22.4,8.04L22.4,7.12L22.4,5.97L48.35,5.97L48.35,6.93C48.35,13.91,45.47,19.73,40.43,22.89L40.43,22.88C37.51,24.71,35.73,26.68,34.63,28.51Z" fill="currentColor"/><path d="M31.21,52.38C31.21,50.71,32.56,49.36,34.22,49.36L37.47,49.36C37.57,50.06,37.62,50.76,37.62,51.47C37.62,54.11,36.91,56.59,35.71,58.73L34.22,58.73C32.56,58.73,31.21,57.38,31.21,55.72Z" fill="currentColor"/><path d="M38.13,33.13C38.8,34.37,39.57,35.77,39.57,38.36L39.57,41.04L37.75,42.23L37.33,42.51L37.07,42.68L25.28,30.89L31.15,25.02L34.63,28.49C34.28,29.07,34,29.64,33.77,30.18L36.31,30.18L36.8,30.67L37.68,32.3L37.95,32.79L37.95,32.8Z" fill="currentColor"/><path d="M11.72,51.46C11.72,48.1,13.26,44.95,15.87,42.88L10.2,39.15L9.77,38.87L9.77,38.35C9.77,36.8,10.16,36.1,10.73,35.05L10.92,34.7L11.19,34.2L16.57,34.2C16.33,31.53,15.6,24.84,7.04,19.46C3.2,17.05,1.01,12.47,1.01,6.91L1.01,5.95L44.32,5.95L44.32,6.91C44.32,12.47,42.13,17.05,38.29,19.46C29.74,24.83,29.01,31.53,28.77,34.2L34.14,34.2L34.41,34.69L34.6,35.03C35.18,36.08,35.56,36.77,35.56,38.33L35.56,38.84L35.13,39.13L29.46,42.87C32.07,44.94,33.61,48.09,33.61,51.44C33.61,57.47,28.71,62.38,22.68,62.38L22.66,62.39C16.63,62.39,11.72,57.49,11.72,51.46Z" fill="currentColor"/><path d="M15.88,42.88L9.79,38.87L16.83,38.87C17.14,40.98,15.84,42.85,15.88,42.88Z" fill="currentColor"/><path d="M40.95,17.14C40.18,18.05,39.3,18.84,38.29,19.47C29.74,24.84,29.01,31.54,28.77,34.21L34.14,34.21L34.41,34.7L34.6,35.04C35.18,36.09,35.56,36.79,35.56,38.34L35.56,38.86L35.13,39.14L29.46,42.88C32.07,44.95,33.61,48.1,33.61,51.46C33.61,56.14,30.66,60.12,26.52,61.68C30.15,59.12,32.62,52.49,29.2,47.68C26.57,43.96,21.44,42.85,21.44,42.85L27.77,42.85C27.85,42.78,32.24,38.08,27.73,35.15L10.7,35.15C10.7,35.15,10.73,35.09,10.75,35.04L10.95,34.7L11.21,34.2L16.59,34.2C16.59,34.12,16.58,34.03,16.57,33.94C16.88,33.62,22.98,27.45,28.07,22.66L28.03,22.67C32.45,18.49,39.37,17.36,40.95,17.14Z" fill="currentColor"/><path d="M22.66,62.39C16.63,62.39,11.72,57.49,11.72,51.46C11.72,49.89,12.07,48.37,12.69,46.98C13.58,56.69,19.67,61.6,23.85,62.31L23.86,62.32C23.47,62.37,23.06,62.39,22.66,62.39Z" fill="currentColor"/><path d="M15.4,28.99C14.25,26.05,11.92,22.54,7.02,19.47C3.24,17.1,1.07,12.61,1,7.15C3.07,13.73,5.98,14.66,11.33,18.54L11.34,18.54C14.81,21.07,15.38,28.52,15.4,28.99Z" fill="currentColor"/></svg>