<svg xmlns="http://www.w3.org/2000/svg" viewBox="0 0 90 90"><path d="M86,45C86,22.36,67.64,4,45,4C22.36,4,4,22.36,4,45C4,67.64,22.36,86,45,86C67.64,86,86,67.64,86,45Z" fill="currentColor"/><path d="M66.95,38.41C66.95,23.34,58.27,10.3,45.63,4C45.42,4,45.21,4,45,4C22.36,4,4,22.36,4,45C4,56.91,9.08,67.63,17.19,75.13C20.78,76.23,24.59,76.83,28.54,76.83C49.75,76.83,66.95,59.63,66.95,38.41Z" fill="currentColor"/><path d="M83,44C83,26.45,71.97,11.47,56.47,5.62C73.53,10.58,86,26.34,86,45C86,67.64,67.64,86,45,86C39.91,86,35.03,85.07,30.53,83.38C34.17,84.43,38.02,85,42,85C64.64,85,83,66.64,83,44Z" fill="currentColor"/><path d="M76.02,18.19C76.03,18.31,76.03,18.42,76.04,18.54C76.14,20.72,76.25,23.13,73.51,23.2C73.53,22.72,73.51,22.17,73.48,21.6C73.39,19.72,73.3,17.67,75.04,17.09C75.37,17.45,75.7,17.82,76.02,18.19Z" fill="currentColor"/><path d="M84.84,35.29C84.55,35,84.26,34.67,83.96,34.33C83.24,33.5,82.51,32.66,81.68,32.51C80.03,32.2,79.16,33.44,78.29,34.69C77.32,36.07,76.35,37.47,74.28,36.8C72.28,36.16,71.68,33.32,72.43,31.56C72.52,31.35,74.93,28.95,75.15,28.85C75.51,28.69,76.01,28.65,76.53,28.6C77.4,28.52,78.32,28.43,78.69,27.8C78.96,27.34,78.93,26.77,78.91,26.14C78.88,25.4,78.84,24.58,79.29,23.8C79.42,23.57,79.56,23.36,79.71,23.17C82.03,26.86,83.79,30.94,84.84,35.29Z" fill="currentColor"/><path d="M82.85,39.5L73.05,39.71L67.69,45.22L67.62,54.74C67.61,55,67.75,55.2,67.88,55.41C67.92,55.47,67.96,55.53,68,55.6C68.25,56.03,74.68,62.46,75.13,62.67C75.94,63.03,77.72,62.96,79.46,62.88C80.34,62.85,81.2,62.81,81.93,62.83C84.54,57.44,86,51.39,86,45C86,43.93,85.96,42.88,85.88,41.83Z" fill="currentColor"/><path d="M34.87,80.85L50.35,64.99C50.66,62.42,50.8,57.66,48.02,56.41C47.42,56.15,46.78,56.17,46.14,56.2C45.5,56.22,44.87,56.25,44.27,55.98C43.62,55.69,42.6,54.51,41.56,53.31C40.42,51.99,39.25,50.65,38.54,50.43L30.49,50.13C29.8,49.64,28.93,48.68,27.99,47.65C26.44,45.94,24.72,44.05,23.44,43.88C23.15,43.84,22.8,43.9,22.43,43.95C21.51,44.09,20.5,44.24,20.12,42.95C19.83,41.96,19.8,38.42,20.62,37.78C21.38,37.18,23.42,37.28,25.47,37.39C27.28,37.48,29.09,37.57,30.05,37.18L45.32,21.94C45.3,18.69,42.9,18.7,40.69,18.71C39.81,18.71,38.96,18.72,38.29,18.52C37.87,18.4,37.52,18,37.15,17.59C36.51,16.89,35.83,16.13,34.66,16.52L34.66,16.5L34.66,16.52L34.66,16.52L34.27,20.91C33.73,21.29,29.15,21.22,28.4,20.88C27.25,20.36,24.2,17.04,24.84,15.67C25.07,15.17,25.56,14.71,26.03,14.26C27.3,13.04,28.48,11.92,24.44,10.21L23.29,10.21C14.3,15.84,7.64,24.85,5.11,35.47C6.32,36.62,7.93,38.34,9.59,40.12C12.78,43.54,16.18,47.19,17.33,47.41C18.01,47.54,18.81,47.48,19.62,47.42C20.55,47.35,21.49,47.28,22.25,47.5C22.6,47.61,25.54,50.45,25.69,50.77C26.14,51.75,25.13,52.69,24.08,53.67C23.26,54.43,22.41,55.22,22.22,56.07C21.78,58,21.88,63.6,22.96,65.17C23.42,65.83,24.32,66.64,25.25,67.47C26.56,68.63,27.92,69.85,28.21,70.79L28.4,82.5C30.37,83.37,32.42,84.1,34.54,84.65C34.48,83.06,34.52,81.64,34.87,80.85Z" fill="currentColor"/><path d="M31.32,10.46C32.2,10.85,38.22,10.9,38.66,10.29C39.79,9.35,36.77,6.5,36.54,6.5L30.88,6.5C30.23,6.74,29.59,6.99,28.96,7.26C28.97,8.48,30.53,10.1,31.32,10.46Z" fill="currentColor"/><path d="M47.79,6.05C47.58,6.17,44.96,8.82,44.88,9.01C44.43,9.97,45.73,11.23,47.03,12.48C47.99,13.41,48.96,14.34,49.18,15.14C49.35,15.74,49.32,16.45,49.28,17.17C49.23,18.26,49.18,19.37,49.81,20.16L49.82,20.15C50.36,20.82,52.55,22.58,53.45,22.16C54.01,21.91,61.94,13.94,62.25,13.4C63.26,11.65,63.03,9.29,61.88,7.63C60.04,6.79,58.13,6.09,56.15,5.53C53.09,5.49,48.55,5.61,47.79,6.05Z" fill="currentColor"/><path d="M71.65,22.4L69.33,22.79C69.09,21,70.01,20.04,71.83,20.28Z" fill="currentColor"/><path d="M34.66,16.52L34.66,16.5L34.66,16.52Z" fill="currentColor"/><path d="M34.66,16.52C35.83,16.13,36.51,16.89,37.15,17.59C37.52,18,37.87,18.4,38.29,18.52C38.96,18.72,39.81,18.71,40.69,18.71C42.91,18.7,45.3,18.69,45.32,21.94L30.05,37.18C29.09,37.57,27.28,37.48,25.47,37.39C23.42,37.28,21.38,37.18,20.62,37.78C19.8,38.42,19.83,41.96,20.12,42.95C20.5,44.24,21.51,44.09,22.43,43.95C22.8,43.9,23.15,43.84,23.45,43.88C24.72,44.05,26.44,45.94,27.99,47.65C28.93,48.68,29.8,49.64,30.49,50.13L38.54,50.43C39.25,50.65,40.42,51.99,41.56,53.31C42.6,54.51,43.62,55.69,44.27,55.98C44.87,56.25,45.5,56.22,46.14,56.2C46.78,56.17,47.42,56.15,48.02,56.41C50.8,57.66,50.66,62.42,50.35,64.99L40.72,74.86C36.89,76.14,32.8,76.83,28.54,76.83C28.46,76.83,28.38,76.83,28.3,76.83L28.21,70.79C27.92,69.85,26.56,68.63,25.25,67.47C24.32,66.64,23.42,65.83,22.96,65.17C21.88,63.6,21.78,58,22.22,56.07C22.41,55.22,23.26,54.43,24.08,53.67C25.13,52.69,26.15,51.75,25.69,50.77C25.54,50.45,22.6,47.61,22.25,47.5C21.49,47.28,20.55,47.35,19.62,47.42C18.81,47.48,18.01,47.54,17.33,47.41C16.18,47.19,12.78,43.54,9.59,40.12C7.93,38.34,6.32,36.62,5.11,35.47C7.64,24.85,14.3,15.84,23.29,10.21L24.44,10.21C28.48,11.92,27.3,13.04,26.03,14.26C25.56,14.71,25.08,15.17,24.84,15.67C24.2,17.04,27.25,20.36,28.4,20.88C29.15,21.22,33.73,21.29,34.27,20.91Z" fill="currentColor"/><path d="M31.32,10.46C32.2,10.85,38.22,10.9,38.66,10.29C39.79,9.35,36.77,6.5,36.54,6.5L30.88,6.5C30.23,6.74,29.59,6.99,28.96,7.26C28.97,8.48,30.53,10.1,31.32,10.46Z" fill="currentColor"/><path d="M49.82,20.16L49.82,20.15C50.36,20.82,52.55,22.58,53.45,22.16C53.81,22,57.3,18.57,59.77,16.05C56.84,11.96,53.12,8.47,48.84,5.8C48.34,5.87,47.96,5.95,47.79,6.05C47.58,6.17,44.96,8.82,44.88,9.01C44.43,9.97,45.73,11.23,47.03,12.48C47.99,13.41,48.96,14.34,49.19,15.14C49.35,15.74,49.32,16.45,49.29,17.17C49.23,18.26,49.18,19.37,49.82,20.16Z" fill="currentColor"/><path d="M6,45C6,67.31,23.82,85.46,46,85.99C45.67,86,45.33,86,45,86C22.36,86,4,67.64,4,45C4,22.36,22.36,4,45,4C45.33,4,45.67,4,46,4.01C23.82,4.54,6,22.69,6,45Z" fill="currentColor"/><path d="M28.38,81.54L28.4,82.5C30.37,83.37,32.42,84.1,34.54,84.65C34.53,84.45,34.52,84.26,34.52,84.07C32.39,83.39,30.34,82.54,28.38,81.54Z" fill="currentColor"/><path d="M5.11,35.47C5.6,35.93,6.16,36.49,6.76,37.11C8.94,25.93,15.67,16.36,24.94,10.43C24.79,10.36,24.62,10.29,24.44,10.21L23.29,10.21C14.3,15.84,7.64,24.85,5.11,35.47Z" fill="currentColor"/><path d="M29.15,8.08C30.36,7.49,31.6,6.96,32.88,6.5L30.88,6.5C30.23,6.74,29.59,6.99,28.96,7.26C28.96,7.52,29.03,7.8,29.15,8.08Z" fill="currentColor"/></svg>