<svg xmlns="http://www.w3.org/2000/svg" viewBox="0 0 90 90" fill="currentColor"><path d="M87,46C87,68.64,68.64,87,46,87C23.36,87,5,68.64,5,46C5,23.36,23.36,5,46,5C68.64,5,87,23.36,87,46ZM67.95,52.59C67.95,67.66,59.27,80.7,46.63,87C46.42,87,46.21,87,46,87C23.36,87,5,68.64,5,46C5,34.09,10.08,23.37,18.19,15.87C21.78,14.77,25.59,14.17,29.54,14.17C50.75,14.17,67.95,31.37,67.95,52.59ZM84,47C84,64.55,72.97,79.53,57.47,85.38C74.53,80.42,87,64.66,87,46C87,23.36,68.64,5,46,5C40.91,5,36.03,5.93,31.53,7.62C35.17,6.57,39.02,6,43,6C65.64,6,84,24.36,84,47ZM77.02,72.81C77.03,72.69,77.03,72.58,77.04,72.46C77.14,70.28,77.25,67.87,74.51,67.8C74.53,68.28,74.51,68.83,74.48,69.4C74.39,71.28,74.3,73.33,76.04,73.91C76.37,73.55,76.7,73.18,77.02,72.81ZM85.84,55.71C85.55,56,85.26,56.33,84.96,56.67C84.24,57.5,83.51,58.34,82.68,58.49C81.03,58.8,80.16,57.56,79.29,56.31C78.32,54.93,77.35,53.53,75.28,54.2C73.28,54.84,72.68,57.68,73.43,59.44C73.52,59.65,75.93,62.05,76.15,62.15C76.51,62.31,77.01,62.35,77.53,62.4C78.4,62.48,79.32,62.57,79.69,63.2C79.96,63.66,79.93,64.23,79.91,64.86C79.88,65.6,79.84,66.42,80.29,67.2C80.42,67.43,80.56,67.64,80.71,67.83C83.03,64.14,84.79,60.06,85.84,55.71ZM83.85,51.5L74.05,51.29L68.69,45.78L68.62,36.26C68.61,36,68.75,35.8,68.88,35.59C68.92,35.53,68.96,35.47,69,35.4C69.25,34.97,75.68,28.54,76.13,28.33C76.94,27.97,78.72,28.04,80.46,28.12C81.34,28.15,82.2,28.19,82.93,28.17C85.54,33.56,87,39.61,87,46C87,47.07,86.96,48.12,86.88,49.17ZM35.87,10.15L51.35,26.01C51.66,28.58,51.8,33.34,49.02,34.59C48.42,34.85,47.78,34.83,47.14,34.8C46.5,34.78,45.87,34.75,45.27,35.02C44.62,35.31,43.6,36.49,42.56,37.69C41.42,39.01,40.25,40.35,39.54,40.57L31.49,40.87C30.8,41.36,29.93,42.32,28.99,43.35C27.44,45.06,25.72,46.95,24.44,47.12C24.15,47.16,23.8,47.1,23.43,47.05C22.51,46.91,21.5,46.76,21.12,48.05C20.83,49.04,20.8,52.58,21.62,53.22C22.38,53.82,24.42,53.72,26.47,53.61C28.28,53.52,30.09,53.43,31.05,53.82L46.32,69.06C46.3,72.31,43.9,72.3,41.69,72.29C40.81,72.29,39.96,72.28,39.29,72.48C38.87,72.6,38.52,73,38.15,73.41C37.51,74.11,36.83,74.87,35.66,74.48L35.66,74.5L35.66,74.48L35.66,74.48L35.27,70.09C34.73,69.71,30.15,69.78,29.4,70.12C28.25,70.64,25.2,73.96,25.84,75.33C26.07,75.83,26.56,76.29,27.03,76.74C28.3,77.96,29.48,79.08,25.44,80.79L24.29,80.79C15.3,75.16,8.64,66.15,6.11,55.53C7.32,54.38,8.93,52.66,10.59,50.88C13.78,47.46,17.18,43.81,18.33,43.59C19.01,43.46,19.81,43.52,20.62,43.58C21.55,43.65,22.49,43.72,23.25,43.5C23.6,43.39,26.54,40.55,26.69,40.23C27.14,39.25,26.13,38.31,25.08,37.33C24.26,36.57,23.41,35.78,23.22,34.93C22.78,33,22.88,27.4,23.96,25.83C24.42,25.17,25.32,24.36,26.25,23.53C27.56,22.37,28.92,21.15,29.21,20.21L29.4,8.5C31.37,7.63,33.42,6.9,35.54,6.35C35.48,7.94,35.52,9.36,35.87,10.15ZM32.32,80.54C33.2,80.15,39.22,80.1,39.66,80.71C40.79,81.65,37.77,84.5,37.54,84.5L31.88,84.5C31.23,84.26,30.59,84.01,29.96,83.74C29.97,82.52,31.53,80.9,32.32,80.54ZM48.79,84.95C48.58,84.83,45.96,82.18,45.88,81.99C45.43,81.03,46.73,79.77,48.03,78.52C48.99,77.59,49.96,76.66,50.18,75.86C50.35,75.26,50.32,74.55,50.28,73.83C50.23,72.74,50.18,71.63,50.81,70.84L50.82,70.85C51.36,70.18,53.55,68.42,54.45,68.84C55.01,69.09,62.94,77.06,63.25,77.6C64.26,79.35,64.03,81.71,62.88,83.37C61.04,84.21,59.13,84.91,57.15,85.47C54.09,85.51,49.55,85.39,48.79,84.95ZM72.65,68.6L70.33,68.21C70.09,70,71.01,70.96,72.83,70.72ZM35.66,74.48L35.66,74.5L35.66,74.48ZM35.66,74.48C36.83,74.87,37.51,74.11,38.15,73.41C38.52,73,38.87,72.6,39.29,72.48C39.96,72.28,40.81,72.29,41.69,72.29C43.91,72.3,46.3,72.31,46.32,69.06L31.05,53.82C30.09,53.43,28.28,53.52,26.47,53.61C24.42,53.72,22.38,53.82,21.62,53.22C20.8,52.58,20.83,49.04,21.12,48.05C21.5,46.76,22.51,46.91,23.43,47.05C23.8,47.1,24.15,47.16,24.45,47.12C25.72,46.95,27.44,45.06,28.99,43.35C29.93,42.32,30.8,41.36,31.49,40.87L39.54,40.57C40.25,40.35,41.42,39.01,42.56,37.69C43.6,36.49,44.62,35.31,45.27,35.02C45.87,34.75,46.5,34.78,47.14,34.8C47.78,34.83,48.42,34.85,49.02,34.59C51.8,33.34,51.66,28.58,51.35,26.01L41.72,16.14C37.89,14.86,33.8,14.17,29.54,14.17C29.46,14.17,29.38,14.17,29.3,14.17L29.21,20.21C28.92,21.15,27.56,22.37,26.25,23.53C25.32,24.36,24.42,25.17,23.96,25.83C22.88,27.4,22.78,33,23.22,34.93C23.41,35.78,24.26,36.57,25.08,37.33C26.13,38.31,27.15,39.25,26.69,40.23C26.54,40.55,23.6,43.39,23.25,43.5C22.49,43.72,21.55,43.65,20.62,43.58C19.81,43.52,19.01,43.46,18.33,43.59C17.18,43.81,13.78,47.46,10.59,50.88C8.93,52.66,7.32,54.38,6.11,55.53C8.64,66.15,15.3,75.16,24.29,80.79L25.44,80.79C29.48,79.08,28.3,77.96,27.03,76.74C26.56,76.3,26.08,75.83,25.84,75.33C25.2,73.96,28.25,70.64,29.4,70.12C30.15,69.78,34.73,69.71,35.27,70.09ZM32.32,80.54C33.2,80.15,39.22,80.1,39.66,80.71C40.79,81.65,37.77,84.5,37.54,84.5L31.88,84.5C31.23,84.26,30.59,84.01,29.96,83.74C29.97,82.52,31.53,80.9,32.32,80.54ZM50.82,70.84L50.82,70.85C51.36,70.18,53.55,68.42,54.45,68.84C54.81,69,58.3,72.43,60.77,74.95C57.84,79.04,54.12,82.53,49.84,85.2C49.34,85.13,48.96,85.05,48.79,84.95C48.58,84.83,45.96,82.18,45.88,81.99C45.43,81.03,46.73,79.77,48.03,78.52C48.99,77.59,49.96,76.66,50.19,75.86C50.35,75.26,50.32,74.55,50.29,73.83C50.23,72.74,50.18,71.63,50.82,70.84ZM7,46C7,23.69,24.82,5.54,47,5.01C46.67,5,46.33,5,46,5C23.36,5,5,23.36,5,46C5,68.64,23.36,87,46,87C46.33,87,46.67,87,47,86.99C24.82,86.46,7,68.31,7,46ZM29.38,9.46L29.4,8.5C31.37,7.63,33.42,6.9,35.54,6.35C35.53,6.55,35.52,6.74,35.52,6.93C33.39,7.61,31.34,8.46,29.38,9.46ZM6.11,55.53C6.6,55.07,7.16,54.51,7.76,53.89C9.94,65.07,16.67,74.64,25.94,80.57C25.79,80.64,25.62,80.71,25.44,80.79L24.29,80.79C15.3,75.16,8.64,66.15,6.11,55.53ZM30.15,82.92C31.36,83.51,32.6,84.04,33.88,84.5L31.88,84.5C31.23,84.26,30.59,84.01,29.96,83.74C29.96,83.48,30.03,83.2,30.15,82.92Z"/></svg>