<svg xmlns="http://www.w3.org/2000/svg" viewBox="0 0 90 90"><path d="M26.77,78.65C25.47,79.82,23.72,80.47,22.11,79.79C15.77,77.14,6.29,67.43,2.17,59.93C0.99,57.79,1.65,55.22,3.38,53.49L4.95,51.92C9.63,47.24,13.36,32.53,21.88,24.01L33.73,12.16C38.38,7.52,43.52,10.11,46.4,14.7C54.98,12.98,58.81,17.81,59.35,22.64C65.14,19.86,72.94,26.84,69.43,32.72L79,23.15C81.66,20.48,85.47,19.3,88.34,22.16C91.21,25.03,90.04,28.85,87.37,31.52L66.25,52.64L67.15,55.92C68.01,59.08,66.91,62.46,64.34,64.51L57.83,69.7C55.28,71.73,52.19,72.96,48.94,73.23L31.19,74.7Z" fill="currentColor"/><path d="M45.23,57.15C41,52.34,36.01,48.23,28.58,52.81L27.81,52.04C36.97,38.61,21.93,27.41,15.9,39.53L12.66,50.95C12.24,52.44,11.4,53.78,10.25,54.82L10.08,54.97C7.38,57.39,6.59,61.29,8.13,64.57L11.59,71.96C7.81,68.2,4.28,63.78,2.17,59.94C0.99,57.79,1.65,55.22,3.38,53.49L4.95,51.92C9.63,47.24,13.36,32.53,21.88,24.01L33.73,12.16C36,9.89,38.39,9.35,40.58,9.93L41.9,11.48L46.87,15.09L49.79,14.93C53.77,14.72,57.33,17.39,58.24,21.27L58.84,23.87L59.84,23.78C64.72,23.33,68.91,27.22,68.81,32.12L68.79,33.17L56.95,45.64C55.04,47.65,54.27,50.5,54.92,53.2L56.14,58.33L55.29,58.83C51.95,60.79,47.8,60.05,45.23,57.15Z" fill="currentColor" opacity="0.5"/><path d="M56.57,26.1C58.15,24.42,58.74,22.03,58.13,19.8L58.02,19.39C57.34,16.94,55.2,15.18,52.67,14.99C50.54,14.82,48.48,15.8,47.26,17.56L38.02,30.91C34.88,35.46,41.19,42.2,45.25,38.14Z" fill="currentColor"/><path d="M44.66,19.62C46.34,17.49,46,14.41,43.88,12.71L43.68,12.55C43.22,12.18,42.69,11.9,42.13,11.72C40.03,11.05,37.74,11.89,36.58,13.77L30.14,24.17C27.57,28.21,33.72,32.96,37.05,29.24Z" fill="currentColor"/><path d="M52.92,46.33C58.16,41.62,62.27,37.83,67.28,33.3C68.36,32.32,69.04,30.97,69.19,29.52C69.52,26.15,66.93,23.2,63.54,23.1L63.19,23.09C61.29,23.03,59.47,23.85,58.25,25.31L46.67,39.21C42.65,43.23,48.54,50.15,52.92,46.33Z" fill="currentColor"/><path d="M52.92,46.33C58.16,41.62,62.27,37.83,67.28,33.3C68.36,32.32,69.04,30.97,69.19,29.52C69.52,26.15,66.93,23.2,63.54,23.1L63.19,23.09C61.29,23.03,59.47,23.85,58.25,25.31L46.67,39.21C42.65,43.23,48.54,50.15,52.92,46.33Z" fill="currentColor"/><path d="M61.16,42.32L54.52,43.23L55.61,49.61L63.15,49.47Z" fill="currentColor"/><path d="M41.34,32.78L40.98,31.47C40.86,31.05,40.98,30.6,41.29,30.29L42.31,29.27L42.4,30.13C42.68,32.79,44.91,34.82,47.59,34.84L46.62,35.8C46.47,35.95,46.28,36.04,46.07,36.06C43.91,36.26,41.91,34.87,41.34,32.78Z" fill="currentColor"/><path d="M32.75,25.33L32.58,24.34C32.52,24.01,32.63,23.68,32.86,23.45L33.73,22.59L33.72,23.05C33.72,25.47,35.7,27.42,38.12,27.37L37.48,28.28C37.34,28.48,37.12,28.6,36.88,28.61C34.87,28.74,33.08,27.32,32.75,25.33Z" fill="currentColor"/><path d="M48.39,39.43C48.38,39.14,48.52,38.86,48.76,38.69L49.94,37.86C49.69,40.45,51.75,42.68,54.35,42.64L55.05,42.63L54.24,43.44C54.11,43.58,53.94,43.67,53.75,43.7L53.58,43.73C50.9,44.2,48.43,42.16,48.39,39.43Z" fill="currentColor"/><path d="M66.83,55.71L63.08,44.2C61.79,40.26,57.22,38.48,53.61,40.51L53.24,40.72C51.1,41.92,49.78,44.21,49.95,46.66C50.43,53.81,51.71,58.01,55.42,63.21Z" fill="currentColor"/><path d="M67.38,57.24L63.05,42.85C61.9,39.04,56.94,38.09,54.46,41.22L53.39,42.56C52.49,43.71,51.97,45.12,52.01,46.58C52.08,49.38,52.43,51.41,53.6,54.39C53.52,58.1,54.22,60.21,55.49,63.77Z" fill="currentColor"/><path d="M55.95,45.27C55.51,44.94,55.41,44.32,55.74,43.89L56.8,42.49C57.7,41.29,59.22,40.73,60.71,41.05L60.75,41.06C61.22,41.16,61.61,41.51,61.77,41.97C59.76,41.98,57.87,42.88,56.61,44.44Z" fill="currentColor" opacity="0.5"/><path d="M62.25,22.99L59.23,22.66L56.52,19.04C55.13,17.19,53.02,16.01,50.71,15.79L46.36,15.39L43.74,12.96C41.65,11.03,38.71,10.32,35.97,11.08L34.46,11.49C38.9,7.79,43.67,10.35,46.4,14.7C54.98,12.98,58.81,17.81,59.35,22.64C65.14,19.86,72.94,26.84,69.43,32.72L79,23.15C79.9,22.24,80.94,21.51,82.02,21.04L68.76,33.35C70.43,28.61,67.25,23.54,62.25,22.99Z" fill="currentColor"/><path d="M48.94,73.23L31.19,74.7L26.77,78.65C25.47,79.82,23.72,80.47,22.11,79.79C19.74,78.8,16.94,76.83,14.15,74.36L21.32,77.62C22.57,78.19,24.04,77.93,25.01,76.96L29.07,72.9L49.06,72.06C50.7,71.99,52.28,71.43,53.6,70.46L58.9,66.54C61.69,64.48,62.89,60.87,61.88,57.54L60.02,51.45C61.78,51.37,63.44,50.64,64.68,49.39L64.84,49.23L65.94,52.05L89.71,27.82C89.3,29.15,88.46,30.43,87.37,31.52L66.25,52.64L67.15,55.92C67.84,58.45,67.27,61.11,65.71,63.12L64.25,64.58L57.83,69.7C55.28,71.73,52.19,72.96,48.94,73.23Z" fill="currentColor"/></svg>