<svg xmlns="http://www.w3.org/2000/svg" viewBox="0 0 90 90"><path d="M83,46C83,45.67,83,45.33,82.99,45L70.98,45C70.99,45.33,71,45.67,71,46C71,62.02,58.02,75,42,75C25.98,75,13,62.02,13,46C13,29.98,25.98,17,42,17C47.08,17,51.85,18.31,56,20.6L56,7.45C51.63,5.87,46.92,5,42,5C19.36,5,1,23.36,1,46C1,68.64,19.36,87,42,87C64.64,87,83,68.64,83,46Z" fill="currentColor"/><path d="M3.03,46.79C3.03,24.22,21.32,5.93,43.88,5.93C50.13,5.93,56.05,7.34,61.34,9.84C55.58,6.75,48.99,5,42,5C19.36,5,1,23.36,1,46C1,64.4,13.13,79.97,29.82,85.16C14.18,79.43,3.03,64.41,3.03,46.79Z" fill="currentColor"/><path d="M52.79,73.01C52.79,77.76,46.6,81.61,38.97,81.61C31.34,81.61,25.15,77.76,25.15,73.01C25.15,68.26,31.34,64.41,38.97,64.41C46.6,64.41,52.79,68.26,52.79,73.01Z" fill="currentColor"/><path d="M50.64,5.92C48.93,7.02,47.81,9.04,47.81,11.15L47.81,17.59C50.72,18.18,53.47,19.21,56,20.6L56,7.45C54.27,6.82,52.48,6.31,50.64,5.92Z" fill="currentColor"/><path d="M50.92,81.03C51.75,80.33,52.06,79.25,52.1,78.18L52.27,73.13C49.08,74.34,45.62,75,42,75C35.68,75,29.84,72.98,25.07,69.55C25.23,70.36,25.32,71.11,25.32,71.78L25.32,77.43C25.32,79.03,26,80.61,27.41,81.39C34.06,85.07,46.12,85.1,50.92,81.03Z" fill="currentColor"/><path d="M53.49,75.36C53.41,76.94,52.7,78.46,51.23,79.03C46,81.05,35.3,80.93,28.61,79.08C26.49,78.49,25.27,76.44,25.27,74.24L25.27,72.73C25.27,67.29,18.9,56.58,18.9,46.67L18.9,32.91C18.9,27.52,23.4,26.03,27.74,27.03C31.71,21.04,36.75,21.63,39.87,24.12C41.62,19.14,50.2,18.66,51.57,24.12L51.57,13C51.57,9.9,53.1,7,56.43,7C59.76,7,61.3,9.9,61.3,13L61.3,37.54L63.35,38.71C65.92,40.17,67.37,43.02,67.04,45.96L66.36,51.95C66.04,54.86,64.85,57.61,62.95,59.85L53.75,70.72Z" fill="currentColor"/><path d="M51.19,52.33C46.11,52.07,41.12,52.77,39.52,59.52L38.62,59.52C36.14,46.4,20.9,48.62,24.44,59.17L29.16,67.64C29.8,68.78,30.1,70.08,30.03,71.38C29.87,74.44,31.72,77.23,34.6,78.27L40.77,80.51C36.51,80.52,32.04,80.03,28.61,79.08C26.49,78.49,25.27,76.44,25.27,74.24L25.27,72.73C25.27,67.29,18.9,56.58,18.9,46.67L18.9,32.91C18.9,30.27,19.97,28.57,21.58,27.64L23.25,27.77L28.23,26.98L29.48,25.59C31.87,22.92,35.84,22.36,38.89,24.25L40.29,25.12L40.35,25.05C43.17,21.65,48.32,21.47,51.37,24.65L51.47,24.75L51.82,38.52C51.89,41.02,53.21,43.31,55.34,44.62L58.73,46.71L58.66,46.99C57.78,50.37,54.67,52.51,51.19,52.33Z" fill="currentColor" opacity="0.5"/><path d="M40.26,27.74C40.2,25.85,39.16,24.12,37.51,23.18L37.21,23C35.39,21.97,33.12,22.19,31.54,23.55C30.21,24.7,29.58,26.46,29.9,28.19L32.28,41.31C33.1,45.78,40.68,46.03,40.68,41.31Z" fill="currentColor"/><path d="M29.6,31.05C29.33,28.75,27.21,27.1,24.91,27.36C24.43,27.41,23.95,27.55,23.52,27.77C21.91,28.6,21.07,30.42,21.49,32.19L23.79,41.97C24.64,45.81,30.98,45,30.75,40.9Z" fill="currentColor"/><path d="M49.89,41.61C50.2,35.83,50.38,31.25,50.66,25.7C50.72,24.5,50.34,23.33,49.58,22.4C47.81,20.25,44.59,20.04,42.57,21.95L42.36,22.15C41.22,23.22,40.64,24.75,40.78,26.3L42.13,41.11C42.13,45.78,49.56,46.38,49.89,41.61Z" fill="currentColor"/><path d="M49.89,41.61C50.2,35.83,50.38,31.25,50.66,25.7C50.72,24.5,50.34,23.33,49.58,22.4C47.81,20.25,44.59,20.04,42.57,21.95L42.36,22.15C41.22,23.22,40.64,24.75,40.78,26.3L42.13,41.11C42.13,45.78,49.56,46.38,49.89,41.61Z" fill="currentColor"/><path d="M52.35,34.5L49.02,38.89L53.36,41.96L57.66,37.49Z" fill="currentColor"/><path d="M35.29,40.47L34.33,39.92C34.01,39.74,33.82,39.41,33.82,39.05L33.82,37.87L34.37,38.31C36.08,39.7,38.55,39.58,40.12,38.03L40.12,39.15C40.12,39.33,40.06,39.49,39.95,39.62C38.8,41,36.84,41.35,35.29,40.47Z" fill="currentColor"/><path d="M25.98,41.13L25.3,40.65C25.08,40.5,24.95,40.24,24.95,39.98L24.95,38.97L25.22,39.24C26.62,40.65,28.91,40.63,30.28,39.2L30.44,40.1C30.47,40.29,30.41,40.49,30.29,40.64C29.19,41.88,27.33,42.09,25.98,41.13Z" fill="currentColor"/><path d="M43.25,40.24C43.08,40.07,43,39.83,43.04,39.59L43.24,38.43C44.6,40.07,47.09,40.17,48.58,38.64L48.98,38.23L48.98,39.17C48.98,39.32,48.94,39.48,48.85,39.6L48.77,39.72C47.48,41.55,44.86,41.8,43.25,40.24Z" fill="currentColor"/><path d="M63.42,38.98L54.76,34.58C51.62,32.98,47.8,34.66,46.85,38.06C46.28,40.06,46.87,42.23,48.44,43.6C52.84,47.43,56.01,49.11,61.15,49.96Z" fill="currentColor"/><path d="M64.63,39.55L54.41,34.06C51.25,32.37,47.49,34.92,47.9,38.48L47.96,38.97C48.11,40.28,48.68,41.51,49.63,42.41C51.25,43.92,52.62,44.87,54.97,45.9C57.08,48.1,58.71,48.92,61.52,50.25Z" fill="currentColor"/><path d="M51.04,39.24C50.59,39.31,50.17,39,50.11,38.56L49.91,37.13C49.75,35.91,50.3,34.7,51.35,34.02L51.38,34.01C51.71,33.79,52.14,33.76,52.5,33.94C51.33,35.11,50.76,36.74,50.94,38.37Z" fill="currentColor" opacity="0.5"/><path d="M67.04,45.96L66.36,51.95C66.04,54.86,64.85,57.61,62.95,59.85L53.75,70.72L53.49,75.36C53.41,76.94,52.7,78.46,51.23,79.03C49.45,79.72,47.05,80.16,44.39,80.36L49.7,78.38C50.86,77.94,51.62,76.84,51.62,75.61L51.62,71.07L62.61,59.11C63.61,58.03,64.26,56.67,64.48,55.21L65.19,50.5C65.65,47.41,64.12,44.35,61.36,42.88L57.14,40.63C58.12,39.56,58.66,38.17,58.66,36.73L58.66,36.54L60.12,37.1L59.77,12.12C59.74,9.97,57.92,8.28,55.77,8.41C53.84,8.52,52.31,10.08,52.23,12.02L51.71,25.04C49.92,21.31,45.13,20.22,41.91,22.81L39.96,24.37L36.57,23.88C34.5,23.59,32.41,24.18,30.8,25.51L28.26,27.62L25.69,27.72C23.13,27.82,20.8,29.23,19.54,31.46L18.91,32.58C19.08,27.46,23.49,26.05,27.74,27.03C31.72,21.05,36.75,21.63,39.87,24.12C41.62,19.14,50.2,18.66,51.57,24.12L51.57,13C51.57,9.9,53.1,7,56.43,7C59.76,7,61.3,9.9,61.3,13L61.3,37.54L63.35,38.71C65.92,40.17,67.37,43.02,67.04,45.96Z" fill="currentColor"/><path d="M70.78,32.96L65.22,32.96C63.39,32.96,62.35,30.93,63.45,29.51L75.21,14.29C76.09,13.14,77.86,13.14,78.75,14.29L90.55,29.51C91.65,30.93,90.61,32.96,88.78,32.96L70.79,32.96C70.79,33.03,70.78,33,70.78,32.96Z" fill="currentColor"/><path d="M90.17,29.01L76.98,14.27L63.84,29.01L75.28,14.21C76.14,13.09,77.82,13.09,78.69,14.2Z" fill="currentColor"/><path d="M71,25L71,45L83,45L83,25Z" fill="currentColor"/></svg>