<svg xmlns="http://www.w3.org/2000/svg" viewBox="0 0 90 90"><path d="M65.23,9.33C66.53,8.16,68.28,7.52,69.89,8.19C76.23,10.85,85.71,20.56,89.83,28.05C91.01,30.19,90.35,32.76,88.62,34.49L87.05,36.06C82.37,40.74,78.64,55.45,70.12,63.98L58.27,75.83C53.63,80.47,48.48,77.87,45.6,73.28C37.02,75,33.19,70.17,32.65,65.34C26.86,68.12,19.06,61.15,22.57,55.27L13,64.84C10.34,67.51,6.53,68.69,3.66,65.82C0.79,62.95,1.96,59.13,4.63,56.46L25.75,35.34L24.85,32.07C23.99,28.9,25.09,25.52,27.66,23.48L34.17,18.28C36.72,16.25,39.81,15.02,43.06,14.75L60.81,13.28Z" fill="currentColor"/><path d="M46.77,30.83C51,35.64,55.99,39.75,63.42,35.17L64.19,35.95C55.03,49.37,70.07,60.57,76.1,48.45L79.34,37.03C79.76,35.54,80.6,34.2,81.75,33.17L81.92,33.01C84.62,30.59,85.41,26.69,83.87,23.41L80.41,16.03C84.19,19.78,87.72,24.21,89.83,28.05C91.01,30.19,90.35,32.76,88.62,34.49L87.05,36.06C82.37,40.74,78.64,55.45,70.12,63.98L58.27,75.83C56,78.1,53.61,78.63,51.42,78.05L50.1,76.5L45.13,72.89L42.21,73.05C38.23,73.27,34.67,70.59,33.76,66.71L33.16,64.11L32.16,64.21C27.28,64.65,23.09,60.76,23.19,55.86L23.21,54.81L35.05,42.35C36.96,40.33,37.73,37.49,37.08,34.79L35.86,29.65L36.71,29.15C40.05,27.19,44.2,27.93,46.77,30.83Z" fill="currentColor" opacity="0.5"/><path d="M35.43,61.89C33.85,63.57,33.26,65.95,33.87,68.18L33.98,68.59C34.66,71.04,36.8,72.81,39.33,73C41.46,73.16,43.52,72.18,44.74,70.42L53.98,57.07C57.12,52.52,50.81,45.78,46.75,49.84Z" fill="currentColor"/><path d="M47.34,68.37C45.66,70.49,46,73.58,48.12,75.27L48.32,75.44C48.78,75.8,49.31,76.09,49.87,76.26C51.97,76.94,54.26,76.09,55.42,74.22L61.86,63.82C64.43,59.77,58.28,55.02,54.95,58.74Z" fill="currentColor"/><path d="M39.08,41.65C33.84,46.36,29.73,50.15,24.72,54.68C23.64,55.66,22.96,57.01,22.81,58.46C22.48,61.83,25.07,64.78,28.46,64.89L28.81,64.9C30.71,64.95,32.53,64.13,33.75,62.68L45.33,48.77C49.35,44.75,43.46,37.84,39.08,41.65Z" fill="currentColor"/><path d="M39.08,41.65C33.84,46.36,29.73,50.15,24.72,54.68C23.64,55.66,22.96,57.01,22.81,58.46C22.48,61.83,25.07,64.78,28.46,64.89L28.81,64.9C30.71,64.95,32.53,64.13,33.75,62.68L45.33,48.77C49.35,44.75,43.46,37.84,39.08,41.65Z" fill="currentColor"/><path d="M30.84,45.66L37.48,44.75L36.39,38.37L28.85,38.51Z" fill="currentColor"/><path d="M50.66,55.21L51.02,56.51C51.14,56.93,51.02,57.38,50.71,57.69L49.69,58.71L49.6,57.85C49.32,55.19,47.09,53.16,44.41,53.15L45.38,52.18C45.53,52.04,45.72,51.94,45.93,51.93C48.09,51.73,50.09,53.11,50.66,55.21Z" fill="currentColor"/><path d="M59.25,62.65L59.42,63.65C59.48,63.97,59.37,64.3,59.14,64.53L58.27,65.4L58.28,64.94C58.28,62.52,56.3,60.56,53.88,60.61L54.52,59.7C54.66,59.51,54.88,59.38,55.12,59.37C57.13,59.24,58.92,60.66,59.25,62.65Z" fill="currentColor"/><path d="M43.61,48.55C43.62,48.85,43.48,49.12,43.24,49.29L42.06,50.12C42.31,47.53,40.25,45.3,37.65,45.34L36.95,45.36L37.76,44.54C37.89,44.41,38.06,44.32,38.25,44.28L38.42,44.25C41.1,43.78,43.57,45.83,43.61,48.55Z" fill="currentColor"/><path d="M25.17,32.27L28.92,43.78C30.21,47.72,34.78,49.51,38.39,47.48L38.76,47.27C40.9,46.07,42.22,43.77,42.05,41.33C41.57,34.17,40.29,29.97,36.58,24.78Z" fill="currentColor"/><path d="M24.62,30.74L28.95,45.13C30.1,48.94,35.06,49.89,37.54,46.77L38.61,45.42C39.51,44.28,40.03,42.86,39.99,41.41C39.92,38.6,39.57,36.57,38.4,33.59C38.48,29.89,37.78,27.77,36.51,24.21Z" fill="currentColor"/><path d="M36.05,42.72C36.49,43.04,36.59,43.67,36.26,44.1L35.2,45.49C34.3,46.69,32.78,47.25,31.29,46.93L31.25,46.92C30.78,46.82,30.39,46.47,30.23,46.01C32.24,46.01,34.13,45.1,35.39,43.54Z" fill="currentColor" opacity="0.5"/><path d="M29.75,64.99L32.77,65.32L35.48,68.94C36.87,70.79,38.98,71.97,41.29,72.19L45.64,72.6L48.26,75.02C50.35,76.95,53.29,77.67,56.03,76.91L57.54,76.49C53.1,80.19,48.33,77.63,45.6,73.28C37.02,75,33.19,70.17,32.65,65.34C26.86,68.12,19.06,61.15,22.57,55.27L13,64.84C12.1,65.74,11.06,66.48,9.98,66.94L23.24,54.63C21.57,59.38,24.75,64.44,29.75,64.99Z" fill="currentColor"/><path d="M43.06,14.75L60.81,13.28L65.23,9.33C66.53,8.16,68.28,7.52,69.89,8.19C72.26,9.18,75.06,11.15,77.85,13.63L70.68,10.36C69.43,9.79,67.96,10.06,66.99,11.03L62.93,15.09L42.94,15.93C41.3,15.99,39.72,16.55,38.4,17.53L33.1,21.44C30.31,23.51,29.11,27.11,30.12,30.44L31.98,36.53C30.22,36.61,28.56,37.35,27.32,38.59L27.16,38.75L26.06,35.93L2.29,60.16C2.7,58.83,3.54,57.55,4.63,56.46L25.75,35.34L24.85,32.07C24.16,29.54,24.73,26.87,26.29,24.86L27.75,23.41L34.17,18.28C36.72,16.25,39.81,15.02,43.06,14.75Z" fill="currentColor"/></svg>