<svg xmlns="http://www.w3.org/2000/svg" viewBox="0 0 90 90"><path d="M82.44,27.06C84.57,27.18,86.63,28.13,87.44,30.1C90.61,37.84,90.41,54.35,87.5,64.34C86.67,67.2,83.9,68.85,80.92,68.85L78.22,68.85C70.16,68.85,54.29,78.3,39.62,78.3L19.22,78.3C11.23,78.3,9.04,71.63,10.51,65.2C1.64,59.31,2.51,51.85,6.2,47.23C-1.18,44.64,-1.89,31.93,6.2,29.89C3.85,22.24,6.98,15.47,15.72,15.47L26.08,15.47L28.13,11.88C30.11,8.41,33.96,6.45,37.93,6.9L48.01,8.04C51.95,8.48,55.67,10.08,58.69,12.65L75.24,26.66Z" fill="currentColor"/><path d="M48.04,29.68C47.56,37.47,48.31,45.29,58.64,47.74L58.64,49.08C39.21,52.74,42.51,75.33,58.13,70.09L70.75,63.05C72.4,62.13,74.27,61.7,76.15,61.8L76.43,61.81C80.83,62.05,84.87,59.37,86.37,55.23L89.74,45.89C89.77,52.38,88.99,59.22,87.5,64.34C86.67,67.2,83.9,68.85,80.92,68.85L78.22,68.85C70.16,68.85,54.29,78.3,39.62,78.3L19.22,78.3C15.32,78.3,12.8,76.71,11.41,74.33L11.61,71.85L10.44,64.47L7.79,62.09C4.18,58.85,3.41,53.49,5.97,49.37L7.69,46.61L6.75,45.83C2.16,42.01,1.92,35.06,6.22,30.93L7.14,30.04L28.05,29.5C31.43,29.41,34.54,27.63,36.31,24.75L39.68,19.28L40.84,19.58C45.4,20.77,48.34,24.97,48.04,29.68Z" fill="currentColor" opacity="0.5"/><path d="M11.57,46.65C8.76,46.74,6.2,48.28,4.81,50.72L4.55,51.17C3.02,53.86,3.34,57.22,5.36,59.57C7.06,61.54,9.67,62.47,12.23,62L31.67,58.47C38.29,57.25,38.66,46.02,31.67,46.02Z" fill="currentColor"/><path d="M16.23,62.47C12.96,62.86,10.6,65.81,10.96,69.09L11,69.4C11.08,70.12,11.29,70.81,11.62,71.45C12.85,73.83,15.54,75.08,18.15,74.46L32.65,71.05C38.34,69.79,37.14,60.4,31.07,60.74Z" fill="currentColor"/><path d="M32.12,32.37C23.55,31.92,16.76,31.65,8.54,31.23C6.77,31.14,5.03,31.71,3.65,32.84C0.46,35.46,0.16,40.23,2.98,43.23L3.28,43.54C4.86,45.23,7.13,46.09,9.44,45.88L31.37,43.88C38.29,43.88,39.18,32.86,32.12,32.37Z" fill="currentColor"/><path d="M32.12,32.37C23.55,31.92,16.76,31.65,8.54,31.23C6.77,31.14,5.03,31.71,3.65,32.84C0.46,35.46,0.16,40.23,2.98,43.23L3.28,43.54C4.86,45.23,7.13,46.09,9.44,45.88L31.37,43.88C38.29,43.88,39.18,32.86,32.12,32.37Z" fill="currentColor"/><path d="M21.57,28.73L28.08,33.66L32.63,27.24L26.01,20.87Z" fill="currentColor"/><path d="M30.42,54.01L29.61,55.44C29.35,55.9,28.85,56.19,28.32,56.19L26.57,56.19L27.23,55.37C29.28,52.84,29.11,49.18,26.82,46.86L28.48,46.86C28.73,46.86,28.98,46.95,29.17,47.11C31.21,48.8,31.73,51.71,30.42,54.01Z" fill="currentColor"/><path d="M31.41,67.81L30.7,68.81C30.47,69.14,30.09,69.33,29.69,69.33L28.2,69.33L28.6,68.94C30.69,66.86,30.66,63.47,28.54,61.43L29.88,61.2C30.16,61.15,30.46,61.23,30.67,61.43C32.52,63.05,32.83,65.81,31.41,67.81Z" fill="currentColor"/><path d="M30.08,42.22C29.83,42.47,29.48,42.59,29.13,42.53L27.4,42.23C29.84,40.22,29.99,36.53,27.71,34.33L27.1,33.73L28.5,33.72C28.73,33.72,28.95,33.79,29.14,33.93L29.31,34.04C32.03,35.95,32.4,39.84,30.08,42.22Z" fill="currentColor"/><path d="M28.22,12.33L21.55,25.47C19.26,29.97,21.66,35.43,26.52,36.79L27.01,36.93C29.89,37.74,32.99,36.9,34.96,34.65C40.7,28.07,43.22,23.37,44.49,15.7Z" fill="currentColor"/><path d="M29.06,10.54L20.41,26.65C18.12,30.92,21.57,36.01,26.39,35.45L28.47,35.21C30.23,35.01,31.9,34.24,33.12,32.95C35.47,30.47,36.91,28.42,38.47,24.86C41.73,21.73,42.94,19.31,44.92,15.15Z" fill="currentColor"/><path d="M28.6,30.68C28.7,31.35,28.25,31.97,27.59,32.06L25.48,32.35C23.66,32.59,21.88,31.77,20.87,30.22L20.85,30.18C20.53,29.68,20.49,29.04,20.75,28.51C22.49,30.24,24.89,31.09,27.32,30.82Z" fill="currentColor" opacity="0.5"/><path d="M58.69,12.65L75.24,26.66L82.44,27.06C84.57,27.18,86.63,28.13,87.44,30.1C88.62,32.98,89.33,37.09,89.61,41.63L86.25,32.64C85.66,31.07,84.17,30.04,82.5,30.04L75.51,30.04L57.58,13.56C56.12,12.21,54.28,11.33,52.3,11.03L44.37,9.84C40.18,9.21,36.05,11.28,34.06,15.02L30.41,21.86C28.83,20.42,26.77,19.62,24.63,19.62L24.36,19.62L25.84,16.24L15.93,16.49C10.9,16.61,6.95,20.82,7.15,25.84L7.31,29.91C1.79,32.56,0.17,39.66,4,44.44L6.31,47.32L5.54,52.77C5.14,55.56,5.94,58.39,7.74,60.56L11.13,64.65L11.3,68.99C11.44,72.45,13.35,75.6,16.36,77.31L18.02,78.25C11.01,77.61,9.11,71.3,10.51,65.2C1.65,59.31,2.51,51.85,6.2,47.23C-1.18,44.64,-1.89,31.93,6.2,29.89C3.85,22.24,6.98,15.47,15.72,15.47L26.08,15.47L28.13,11.88C29.71,9.11,32.49,7.3,35.56,6.92L38.08,6.92L48.01,8.04C51.95,8.48,55.67,10.08,58.69,12.65Z" fill="currentColor"/></svg>