<svg xmlns="http://www.w3.org/2000/svg" viewBox="0 0 90 90"><path d="M45,1C27.45,1,12.31,11.27,5.25,26.11L12.31,29.47C18.13,17.25,30.58,8.82,45,8.82C64.98,8.82,81.18,25.02,81.18,45C81.18,64.98,64.98,81.18,45,81.18C30.58,81.18,18.13,72.75,12.31,60.53L5.25,63.89C12.31,78.73,27.45,89,45,89C69.3,89,89,69.3,89,45C89,20.7,69.3,1,45,1Z" fill="currentColor"/><path d="M89,45C89,69.3,69.3,89,45,89C44.67,89,44.35,88.99,44.02,88.99C67.87,88.47,87.04,69.2,87.04,45.49C87.04,21.46,67.35,1.98,43.04,1.98C36.64,1.98,30.55,3.33,25.06,5.77C31.05,2.72,37.82,1,45,1C69.3,1,89,20.7,89,45Z" fill="currentColor"/><path d="M15.13,65.42L12.77,67.54C11.53,68.66,10.08,69.46,8.61,69.74C7.35,67.89,6.22,65.93,5.25,63.89L12.31,60.53C13.13,62.24,14.07,63.87,15.13,65.42Z" fill="currentColor"/><path d="M71.22,15.14C75.85,17.37,82.07,23.74,86.37,29.98C87.64,33.49,88.48,37.22,88.82,41.08C88.62,41.33,88.4,41.56,88.16,41.78L86.55,43.23C84.53,45.05,82.58,48.6,80.35,52.7C80.89,50.22,81.18,47.64,81.18,45C81.18,33.13,75.46,22.59,66.62,15.99C67.96,14.93,69.69,14.4,71.22,15.14Z" fill="currentColor"/><path d="M65.04,9.71C66.35,8.61,68.09,8.04,69.64,8.75C75.74,11.56,84.67,21.38,88.44,28.84C89.52,30.97,88.79,33.46,87.05,35.09L85.46,36.57C80.72,40.99,76.57,55.24,67.95,63.27L55.97,74.45C51.28,78.83,46.33,76.11,43.68,71.53C35.24,72.92,31.66,68.07,31.29,63.33C25.54,65.85,18.16,58.77,21.79,53.14L12.12,62.17C9.42,64.68,5.66,65.71,2.95,62.81C0.25,59.91,1.52,56.21,4.22,53.7L25.58,33.78L24.81,30.55C24.08,27.42,25.27,24.16,27.85,22.25L34.39,17.4C36.94,15.5,40.01,14.4,43.19,14.25L60.59,13.42Z" fill="currentColor"/><path d="M46.27,30.09C50.25,34.93,54.98,39.12,62.39,34.9L63.12,35.68C53.71,48.48,68.02,59.94,74.33,48.3L77.89,37.26C78.35,35.82,79.22,34.53,80.38,33.56L80.55,33.42C83.26,31.14,84.17,27.36,82.78,24.11L79.65,16.77C83.22,20.57,86.51,25.01,88.44,28.84C89.52,30.97,88.79,33.46,87.05,35.09L85.46,36.57C80.72,40.99,76.57,55.24,67.95,63.27L55.97,74.45C53.68,76.59,51.32,77.03,49.21,76.39L47.96,74.83L43.23,71.13L40.37,71.19C36.48,71.26,33.09,68.53,32.34,64.71L31.83,62.15L30.85,62.2C26.07,62.47,22.11,58.52,22.38,53.74L22.43,52.72L34.42,40.94C36.36,39.04,37.21,36.28,36.67,33.62L35.65,28.56L36.5,28.1C39.83,26.3,43.86,27.17,46.27,30.09Z" fill="currentColor" opacity="0.5"/><path d="M34.13,60.05C32.53,61.64,31.87,63.95,32.39,66.14L32.49,66.55C33.06,68.97,35.1,70.76,37.57,71.04C39.64,71.27,41.69,70.38,42.93,68.71L52.42,55.98C55.64,51.64,49.71,44.84,45.6,48.66Z" fill="currentColor"/><path d="M45.54,66.79C43.83,68.81,44.07,71.83,46.07,73.56L46.27,73.73C46.7,74.1,47.21,74.4,47.75,74.59C49.78,75.32,52.04,74.57,53.24,72.78L59.89,62.84C62.54,58.97,56.69,54.12,53.31,57.64Z" fill="currentColor"/><path d="M38.39,40.4C33.11,44.83,28.96,48.39,23.91,52.64C22.82,53.56,22.11,54.86,21.92,56.27C21.48,59.55,23.91,62.53,27.22,62.74L27.56,62.76C29.41,62.88,31.22,62.15,32.46,60.76L44.25,47.57C48.32,43.78,42.8,36.82,38.39,40.4Z" fill="currentColor"/><path d="M38.39,40.4C33.11,44.83,28.96,48.39,23.91,52.64C22.82,53.56,22.11,54.86,21.92,56.27C21.48,59.55,23.91,62.53,27.22,62.74L27.56,62.76C29.41,62.88,31.22,62.15,32.46,60.76L44.25,47.57C48.32,43.78,42.8,36.82,38.39,40.4Z" fill="currentColor"/><path d="M30.2,44.04L36.72,43.37L35.88,37.1L28.5,36.98Z" fill="currentColor"/><path d="M49.24,54.04L49.55,55.32C49.65,55.74,49.52,56.18,49.2,56.47L48.17,57.43L48.11,56.59C47.94,53.98,45.82,51.92,43.21,51.81L44.18,50.91C44.33,50.77,44.53,50.68,44.73,50.67C46.85,50.55,48.76,51.97,49.24,54.04Z" fill="currentColor"/><path d="M57.38,61.61L57.52,62.58C57.56,62.9,57.44,63.22,57.21,63.44L56.33,64.26L56.35,63.81C56.44,61.44,54.57,59.47,52.2,59.43L52.86,58.56C53,58.38,53.22,58.27,53.46,58.26C55.43,58.21,57.12,59.65,57.38,61.61Z" fill="currentColor"/><path d="M42.58,47.3C42.58,47.58,42.43,47.85,42.19,48L41.01,48.78C41.34,46.26,39.41,44.01,36.87,43.96L36.18,43.95L37,43.18C37.13,43.05,37.3,42.97,37.49,42.94L37.65,42.92C40.29,42.55,42.64,44.63,42.58,47.3Z" fill="currentColor"/><path d="M25.12,30.76L28.39,42.13C29.51,46.03,33.92,47.93,37.52,46.07L37.89,45.88C40.02,44.78,41.38,42.58,41.3,40.18C41.07,33.17,39.97,29.03,36.52,23.82Z" fill="currentColor"/><path d="M24.63,29.25L28.37,43.45C29.37,47.22,34.18,48.31,36.71,45.35L37.8,44.07C38.72,42.98,39.28,41.62,39.29,40.19C39.31,37.45,39.04,35.45,38,32.5C38.2,28.88,37.59,26.79,36.47,23.27Z" fill="currentColor"/><path d="M35.39,41.34C35.81,41.67,35.89,42.28,35.55,42.69L34.47,44.02C33.54,45.16,32.04,45.65,30.6,45.29L30.56,45.28C30.1,45.17,29.73,44.81,29.59,44.36C31.56,44.42,33.44,43.6,34.72,42.12Z" fill="currentColor" opacity="0.5"/><path d="M27.85,22.25L34.39,17.4C36.94,15.5,40.01,14.4,43.19,14.25L60.59,13.42L65.04,9.71C66.36,8.61,68.09,8.04,69.64,8.75C71.73,9.72,74.15,11.5,76.59,13.73L70.36,10.63C69.16,10.03,67.71,10.24,66.73,11.16L62.63,14.99L43.06,15.12C41.46,15.13,39.9,15.63,38.57,16.53L33.26,20.18C30.46,22.1,29.17,25.58,30.04,28.87L31.65,34.89C29.93,34.91,28.28,35.57,27.02,36.74L26.86,36.89L26.16,35.16L4.7,55.75C2.85,57.52,2.86,60.47,4.71,62.24C6.38,63.82,8.98,63.89,10.73,62.39L22.49,52.27C20.69,56.85,23.63,61.91,28.5,62.62L31.44,63.05L33.97,66.67C35.26,68.53,37.28,69.76,39.53,70.05L43.77,70.59L46.24,73.05C48.22,75.01,51.07,75.81,53.77,75.16L55.69,74.7C51.08,78.72,46.28,76.02,43.68,71.53C35.24,72.92,31.66,68.07,31.29,63.33C25.54,65.85,18.16,58.77,21.79,53.14L12.12,62.17C9.42,64.68,5.66,65.71,2.95,62.81C0.25,59.91,1.52,56.21,4.22,53.7L25.58,33.78L24.81,30.55C24.08,27.42,25.27,24.16,27.85,22.25Z" fill="currentColor"/><path d="M2.29,37.03L2.29,17.55C2.29,16.71,3.19,16.19,3.92,16.61L20.79,26.35C21.52,26.77,21.52,27.82,20.79,28.23L3.92,37.97C3.2,38.38,2.29,37.86,2.29,37.03Z" fill="currentColor"/><path d="M2.3,37.02L2.32,19.74L3.76,34.6C3.83,35.35,4.61,35.8,5.29,35.49L18.88,29.3L3.93,37.96C3.2,38.38,2.3,37.86,2.3,37.02Z" fill="currentColor"/></svg>