<svg xmlns="http://www.w3.org/2000/svg" viewBox="0 0 90 90"><path d="M83.44,28.06C85.57,28.18,87.63,29.13,88.44,31.1C91.61,38.84,91.41,55.35,88.5,65.34C87.67,68.2,84.9,69.85,81.92,69.85L79.22,69.85C71.16,69.85,55.29,79.3,40.62,79.3L20.22,79.3C12.23,79.3,10.04,72.63,11.51,66.2C2.64,60.31,3.51,52.86,7.2,48.23C-0.18,45.64,-0.89,32.93,7.2,30.89C4.85,23.24,7.98,16.47,16.72,16.47L27.08,16.47L29.13,12.88C31.11,9.41,34.96,7.45,38.93,7.9L49.01,9.04C52.95,9.48,56.67,11.08,59.69,13.65L76.24,27.66Z" fill="currentColor"/><path d="M57.17,28.04C53.06,29.26,51.78,29.04,48.93,29.04C48.23,37.47,48.43,46.08,59.69,48.74L59.69,49.38C47.87,49.38,45.74,55.51,45.78,60.66C45.92,77.97,70.01,71.56,73.68,55.76L75.04,63.39L79.35,63.39C84.47,63.39,88.76,59.52,89.3,54.43L90.58,42.22C91.11,49.93,90.36,58.97,88.5,65.34C87.67,68.2,84.9,69.85,81.92,69.85L79.22,69.85C71.16,69.85,55.29,79.3,40.62,79.3L20.22,79.3C16.35,79.3,13.84,77.74,12.45,75.4L12.65,72.85L11.48,65.47L8.24,62.56C4.9,59.56,3.97,54.7,5.96,50.68L7.13,48.31C7.15,48.28,7.18,48.25,7.2,48.23C7.19,48.22,7.18,48.22,7.18,48.22L7.4,47.76L6.71,47.07C2.62,43.05,2.75,36.43,6.98,32.56L7.24,32.33C8.05,31.59,9.12,31.17,10.23,31.16L29.47,31.07C32.64,31.05,35.62,29.53,37.49,26.97L42.76,19.77C44.75,24.11,48.43,26.95,57.17,28.04Z" fill="currentColor" opacity="0.75"/><path d="M12.76,47.83C9.98,47.92,7.43,49.45,6.05,51.88L5.95,52.07C4.32,54.93,4.69,58.5,6.86,60.97C8.68,63.03,11.46,63.97,14.16,63.43L32.9,59.66C39.52,58.44,39.89,47.21,32.9,47.21Z" fill="currentColor"/><path d="M16.12,64.04C13.37,64.45,11.3,66.75,11.18,69.53C11.13,70.8,11.5,72.05,12.22,73.09C13.64,75.13,16.21,76.06,18.61,75.38L23.42,74.02L32.23,71.53C37.7,70.28,37.09,61.46,31.25,61.79Z" fill="currentColor"/><path d="M33.12,33.37C24.56,32.92,17.76,32.65,9.55,32.23C7.77,32.14,6.03,32.71,4.65,33.84C1.46,36.46,1.16,41.23,3.98,44.23L4.28,44.54C5.86,46.23,8.13,47.09,10.44,46.88L32.37,44.88C39.29,44.88,40.18,33.86,33.12,33.37Z" fill="currentColor"/><path d="M33.12,32.48C24.57,32.03,17.79,32.48,9.6,32.21C7.79,32.15,6,32.74,4.6,33.88C1.43,36.48,1.04,41.23,3.77,44.28C5.27,45.96,7.46,46.83,9.7,46.66L32.37,44.88C39.29,44.88,40.18,32.97,33.12,32.48Z" fill="currentColor"/><path d="M22.57,29.73L29.08,34.66L33.63,28.24L27.01,21.87Z" fill="currentColor"/><path d="M33.42,56.01L32.61,57.44C32.35,57.9,31.85,58.19,31.32,58.19L29.57,58.19L30.23,57.37C32.28,54.84,32.11,51.18,29.82,48.86L31.47,48.86C31.73,48.86,31.98,48.95,32.17,49.11C34.21,50.8,34.73,53.71,33.42,56.01Z" fill="currentColor"/><path d="M32.41,68.81L31.7,69.81C31.47,70.14,31.09,70.33,30.69,70.33L29.2,70.33L29.6,69.94C31.69,67.86,31.66,64.47,29.54,62.43L30.88,62.2C31.16,62.15,31.46,62.23,31.67,62.43C33.51,64.05,33.83,66.81,32.41,68.81Z" fill="currentColor"/><path d="M33.08,43.22C32.83,43.47,32.48,43.59,32.13,43.53L30.4,43.23C32.84,41.22,32.99,37.53,30.71,35.33L30.1,34.73L31.5,34.72C31.73,34.72,31.95,34.79,32.14,34.93L32.31,35.04C35.03,36.95,35.4,40.84,33.08,43.22Z" fill="currentColor"/><path d="M29.22,13.33L22.64,26.29C20.32,30.84,22.83,36.38,27.78,37.66C30.16,38.28,32.74,37.8,34.64,36.23C37.71,33.72,40.2,31.08,40.64,27.47C42.87,23.83,45.49,21.99,45.49,16.7Z" fill="currentColor"/><path d="M30.06,11.54L21.99,26.9C21.28,28.24,21.02,29.85,21.82,31.13C25.79,37.47,37.93,36.24,37.93,24.87C41.65,23.23,43.94,20.31,45.92,16.15Z" fill="currentColor"/><path d="M29.6,31.68C29.7,32.35,29.25,32.97,28.59,33.06L26.48,33.35C24.67,33.59,22.88,32.77,21.87,31.22L21.85,31.18C21.53,30.68,21.49,30.04,21.75,29.51C23.49,31.24,25.89,32.09,28.32,31.82Z" fill="currentColor"/><path d="M59.69,13.65L76.24,27.66L83.44,28.06C85.57,28.18,87.63,29.13,88.44,31.1C89.3,33.21,89.92,35.99,90.29,39.1L88.25,33.64C87.66,32.08,86.17,31.04,84.5,31.04L77.51,31.04L59.58,14.56C58.12,13.21,56.28,12.33,54.3,12.03L46.37,10.84C42.18,10.21,38.06,12.28,36.06,16.02L32.41,22.86C30.83,21.42,28.77,20.62,26.63,20.62L25.38,20.62L26.86,17.24L17.5,17.49C12.65,17.61,8.77,21.56,8.73,26.42L8.7,30.8L17.17,32.28L6.57,33.33C3,37.01,3.5,42.98,7.64,46.01L8.7,46.79L19.17,47.67L9.27,49.11L8.71,50.21C6.51,54.56,7.76,59.86,11.68,62.76L12.77,63.57L22.89,63.19L13.52,65.48C10.89,70.42,12.84,76.54,17.81,79.07C11.8,77.85,10.2,71.93,11.51,66.2C2.65,60.31,3.51,52.86,7.2,48.23C-0.18,45.64,-0.88,32.93,7.2,30.89C4.85,23.24,7.98,16.47,16.72,16.47L27.08,16.47L29.13,12.88C30.71,10.11,33.49,8.3,36.57,7.92L39.07,7.92L49.01,9.04C52.95,9.48,56.67,11.08,59.69,13.65Z" fill="currentColor"/></svg>