<svg xmlns="http://www.w3.org/2000/svg" viewBox="0 0 90 90"><path d="M82,45C82,44.67,82,44.33,81.99,44L69.98,44C69.99,44.33,70,44.67,70,45C70,61.02,57.02,74,41,74C24.98,74,12,61.02,12,45C12,28.98,24.98,16,41,16C46.08,16,50.85,17.31,55,19.6L55,6.45C50.63,4.87,45.92,4,41,4C18.36,4,0,22.36,0,45C0,67.64,18.36,86,41,86C63.64,86,82,67.64,82,45Z" fill="currentColor"/><path d="M2.03,45.79C2.03,23.22,20.32,4.93,42.88,4.93C49.13,4.93,55.05,6.34,60.34,8.84C54.58,5.75,47.99,4,41,4C18.36,4,0,22.36,0,45C0,63.4,12.13,78.97,28.82,84.16C13.18,78.43,2.03,63.41,2.03,45.79Z" fill="currentColor"/><path d="M51.79,72.01C51.79,76.76,45.6,80.61,37.97,80.61C30.34,80.61,24.15,76.76,24.15,72.01C24.15,67.26,30.34,63.41,37.97,63.41C45.6,63.41,51.79,67.26,51.79,72.01Z" fill="currentColor"/><path d="M49.64,4.92C47.93,6.02,46.81,8.04,46.81,10.15L46.81,16.59C49.72,17.18,52.47,18.21,55,19.6L55,6.45C53.27,5.82,51.48,5.31,49.64,4.92Z" fill="currentColor"/><path d="M49.92,80.03C50.75,79.33,51.06,78.25,51.1,77.18L51.27,72.13C48.08,73.34,44.62,74,41,74C34.68,74,28.84,71.98,24.07,68.55C24.23,69.36,24.32,70.11,24.32,70.78L24.32,76.43C24.32,78.03,25,79.61,26.41,80.39C33.06,84.07,45.12,84.1,49.92,80.03Z" fill="currentColor"/><path d="M52.49,74.36C52.41,75.94,51.7,77.46,50.23,78.03C45,80.05,34.3,79.93,27.61,78.08C25.49,77.49,24.27,75.44,24.27,73.24L24.27,71.73C24.27,66.29,17.9,55.58,17.9,45.67L17.9,31.91C17.9,26.52,22.4,25.03,26.74,26.03C30.71,20.04,35.75,20.63,38.87,23.12C40.62,18.14,49.2,17.66,50.57,23.12L50.57,12C50.57,8.9,52.1,6,55.43,6C58.76,6,60.3,8.9,60.3,12L60.3,36.54L62.35,37.71C64.92,39.17,66.37,42.02,66.04,44.96L65.36,50.95C65.04,53.86,63.85,56.61,61.95,58.85L52.75,69.72Z" fill="currentColor"/><path d="M50.19,51.33C45.11,51.07,40.12,51.77,38.52,58.52L37.62,58.52C35.14,45.4,19.9,47.62,23.44,58.17L28.16,66.64C28.8,67.78,29.1,69.08,29.03,70.38C28.87,73.44,30.72,76.23,33.6,77.27L39.77,79.51C35.51,79.52,31.04,79.03,27.61,78.08C25.49,77.49,24.27,75.44,24.27,73.24L24.27,71.73C24.27,66.29,17.9,55.58,17.9,45.67L17.9,31.91C17.9,29.27,18.97,27.57,20.58,26.64L22.25,26.77L27.23,25.98L28.48,24.59C30.87,21.92,34.84,21.36,37.89,23.25L39.29,24.12L39.35,24.05C42.17,20.65,47.32,20.47,50.37,23.65L50.47,23.75L50.82,37.52C50.89,40.02,52.21,42.31,54.34,43.62L57.73,45.71L57.66,45.99C56.78,49.37,53.67,51.51,50.19,51.33Z" fill="currentColor" opacity="0.5"/><path d="M39.26,26.74C39.2,24.85,38.16,23.12,36.51,22.18L36.21,22C34.39,20.97,32.12,21.19,30.54,22.55C29.21,23.7,28.58,25.46,28.9,27.19L31.28,40.31C32.1,44.78,39.68,45.03,39.68,40.31Z" fill="currentColor"/><path d="M28.6,30.05C28.33,27.75,26.21,26.1,23.91,26.36C23.43,26.41,22.95,26.55,22.52,26.77C20.91,27.6,20.07,29.42,20.49,31.19L22.79,40.97C23.64,44.81,29.98,44,29.75,39.9Z" fill="currentColor"/><path d="M48.89,40.61C49.2,34.83,49.38,30.25,49.66,24.7C49.72,23.5,49.34,22.33,48.58,21.4C46.81,19.25,43.59,19.04,41.57,20.95L41.36,21.15C40.22,22.22,39.64,23.75,39.78,25.3L41.13,40.11C41.13,44.78,48.56,45.38,48.89,40.61Z" fill="currentColor"/><path d="M48.89,40.61C49.2,34.83,49.38,30.25,49.66,24.7C49.72,23.5,49.34,22.33,48.58,21.4C46.81,19.25,43.59,19.04,41.57,20.95L41.36,21.15C40.22,22.22,39.64,23.75,39.78,25.3L41.13,40.11C41.13,44.78,48.56,45.38,48.89,40.61Z" fill="currentColor"/><path d="M51.35,33.5L48.02,37.89L52.36,40.96L56.66,36.49Z" fill="currentColor"/><path d="M34.29,39.47L33.33,38.92C33.01,38.74,32.82,38.41,32.82,38.05L32.82,36.87L33.37,37.31C35.08,38.7,37.55,38.58,39.12,37.03L39.12,38.15C39.12,38.33,39.06,38.49,38.95,38.62C37.8,40,35.84,40.35,34.29,39.47Z" fill="currentColor"/><path d="M24.98,40.13L24.3,39.65C24.08,39.5,23.95,39.24,23.95,38.98L23.95,37.97L24.22,38.24C25.62,39.65,27.91,39.63,29.28,38.2L29.44,39.1C29.47,39.29,29.41,39.49,29.29,39.64C28.19,40.88,26.33,41.09,24.98,40.13Z" fill="currentColor"/><path d="M42.25,39.24C42.08,39.07,42,38.83,42.04,38.59L42.24,37.43C43.6,39.07,46.09,39.17,47.58,37.64L47.98,37.23L47.98,38.17C47.98,38.32,47.94,38.48,47.85,38.6L47.77,38.72C46.48,40.55,43.86,40.8,42.25,39.24Z" fill="currentColor"/><path d="M62.42,37.98L53.76,33.58C50.62,31.98,46.8,33.66,45.85,37.06C45.28,39.06,45.87,41.23,47.44,42.6C51.84,46.43,55.01,48.11,60.15,48.96Z" fill="currentColor"/><path d="M63.63,38.55L53.41,33.06C50.25,31.37,46.49,33.92,46.9,37.48L46.96,37.97C47.11,39.28,47.68,40.51,48.63,41.41C50.25,42.92,51.62,43.87,53.97,44.9C56.08,47.1,57.71,47.92,60.52,49.25Z" fill="currentColor"/><path d="M50.04,38.24C49.59,38.31,49.17,38,49.11,37.56L48.91,36.13C48.75,34.91,49.3,33.7,50.35,33.02L50.38,33.01C50.71,32.79,51.14,32.76,51.5,32.94C50.33,34.11,49.76,35.74,49.94,37.37Z" fill="currentColor" opacity="0.5"/><path d="M66.04,44.96L65.36,50.95C65.04,53.86,63.85,56.61,61.95,58.85L52.75,69.72L52.49,74.36C52.41,75.94,51.7,77.46,50.23,78.03C48.45,78.72,46.05,79.16,43.39,79.36L48.7,77.38C49.86,76.94,50.62,75.84,50.62,74.61L50.62,70.07L61.61,58.11C62.61,57.03,63.26,55.67,63.48,54.21L64.19,49.5C64.65,46.41,63.12,43.35,60.36,41.88L56.14,39.63C57.12,38.56,57.66,37.17,57.66,35.73L57.66,35.54L59.12,36.1L58.77,11.12C58.74,8.97,56.92,7.28,54.77,7.41C52.84,7.52,51.31,9.08,51.23,11.02L50.71,24.04C48.92,20.31,44.13,19.22,40.91,21.81L38.96,23.37L35.57,22.88C33.5,22.59,31.41,23.18,29.8,24.51L27.26,26.62L24.69,26.72C22.13,26.82,19.8,28.23,18.54,30.46L17.91,31.58C18.08,26.46,22.49,25.05,26.74,26.03C30.72,20.05,35.75,20.63,38.87,23.12C40.62,18.14,49.2,17.66,50.57,23.12L50.57,12C50.57,8.9,52.1,6,55.43,6C58.76,6,60.3,8.9,60.3,12L60.3,36.54L62.35,37.71C64.92,39.17,66.37,42.02,66.04,44.96Z" fill="currentColor"/><path d="M69.78,31.96L64.22,31.96C62.39,31.96,61.35,29.93,62.45,28.51L74.21,13.29C75.09,12.14,76.86,12.14,77.75,13.29L89.55,28.51C90.65,29.93,89.61,31.96,87.78,31.96L69.79,31.96C69.79,32.03,69.78,32,69.78,31.96Z" fill="currentColor"/><path d="M89.17,28.01L75.98,13.27L62.84,28.01L74.28,13.21C75.14,12.09,76.82,12.09,77.69,13.2Z" fill="currentColor"/><path d="M70,24L70,44L82,44L82,24Z" fill="currentColor"/></svg>