<svg xmlns="http://www.w3.org/2000/svg" viewBox="0 0 90 90"><path d="M83.44,28.06C85.57,28.18,87.63,29.13,88.44,31.1C91.61,38.84,91.41,55.35,88.5,65.34C87.67,68.2,84.9,69.85,81.92,69.85L79.22,69.85C71.16,69.85,55.29,79.3,40.62,79.3L20.22,79.3C12.23,79.3,10.04,72.63,11.51,66.2C2.64,60.31,3.51,52.85,7.2,48.23C-0.18,45.64,-0.89,32.93,7.2,30.89C4.85,23.24,7.98,16.47,16.72,16.47L27.08,16.47L29.13,12.88C31.11,9.41,34.96,7.45,38.93,7.9L49.01,9.04C52.95,9.48,56.67,11.08,59.69,13.65L76.24,27.66Z" fill="currentColor"/><path d="M49.04,30.68C48.56,38.47,49.31,46.29,59.64,48.74L59.64,50.08C40.21,53.74,43.51,76.33,59.13,71.09L71.75,64.05C73.4,63.13,75.27,62.7,77.15,62.8L77.43,62.81C81.83,63.05,85.87,60.37,87.37,56.23L90.74,46.89C90.77,53.38,89.99,60.22,88.5,65.34C87.67,68.2,84.9,69.85,81.92,69.85L79.22,69.85C71.16,69.85,55.29,79.3,40.62,79.3L20.22,79.3C16.32,79.3,13.8,77.71,12.41,75.33L12.61,72.85L11.44,65.47L8.79,63.09C5.18,59.85,4.41,54.49,6.97,50.37L8.69,47.61L7.75,46.83C3.16,43.01,2.92,36.06,7.22,31.93L8.14,31.04L29.05,30.5C32.43,30.41,35.54,28.63,37.31,25.75L40.68,20.28L41.84,20.58C46.4,21.77,49.34,25.97,49.04,30.68Z" fill="currentColor" opacity="0.5"/><path d="M12.57,47.65C9.76,47.74,7.2,49.28,5.81,51.72L5.55,52.17C4.02,54.86,4.34,58.22,6.36,60.57C8.06,62.54,10.67,63.47,13.23,63L32.67,59.47C39.29,58.25,39.66,47.02,32.67,47.02Z" fill="currentColor"/><path d="M17.23,63.47C13.96,63.86,11.6,66.81,11.96,70.09L12,70.4C12.08,71.12,12.29,71.81,12.62,72.45C13.85,74.83,16.54,76.08,19.15,75.46L33.65,72.05C39.34,70.79,38.14,61.4,32.07,61.74Z" fill="currentColor"/><path d="M33.12,33.37C24.55,32.92,17.76,32.65,9.54,32.23C7.77,32.14,6.03,32.71,4.65,33.84C1.46,36.46,1.16,41.23,3.98,44.23L4.28,44.54C5.86,46.23,8.13,47.09,10.44,46.88L32.37,44.88C39.29,44.88,40.18,33.86,33.12,33.37Z" fill="currentColor"/><path d="M33.12,33.37C24.55,32.92,17.76,32.65,9.54,32.23C7.77,32.14,6.03,32.71,4.65,33.84C1.46,36.46,1.16,41.23,3.98,44.23L4.28,44.54C5.86,46.23,8.13,47.09,10.44,46.88L32.37,44.88C39.29,44.88,40.18,33.86,33.12,33.37Z" fill="currentColor"/><path d="M22.57,29.73L29.08,34.66L33.63,28.24L27.01,21.87Z" fill="currentColor"/><path d="M31.42,55.01L30.61,56.44C30.35,56.9,29.85,57.19,29.32,57.19L27.57,57.19L28.23,56.37C30.28,53.84,30.11,50.18,27.82,47.86L29.48,47.86C29.73,47.86,29.98,47.95,30.17,48.11C32.21,49.8,32.73,52.71,31.42,55.01Z" fill="currentColor"/><path d="M32.41,68.81L31.7,69.81C31.47,70.14,31.09,70.33,30.69,70.33L29.2,70.33L29.6,69.94C31.69,67.86,31.66,64.47,29.54,62.43L30.88,62.2C31.16,62.15,31.46,62.23,31.67,62.43C33.52,64.05,33.83,66.81,32.41,68.81Z" fill="currentColor"/><path d="M31.08,43.22C30.83,43.47,30.48,43.59,30.13,43.53L28.4,43.23C30.84,41.22,30.99,37.53,28.71,35.33L28.1,34.73L29.5,34.72C29.73,34.72,29.95,34.79,30.14,34.93L30.31,35.04C33.03,36.95,33.4,40.84,31.08,43.22Z" fill="currentColor"/><path d="M29.22,13.33L22.55,26.47C20.26,30.97,22.66,36.43,27.52,37.79L28.01,37.93C30.89,38.74,33.99,37.9,35.96,35.65C41.7,29.07,44.22,24.37,45.49,16.7Z" fill="currentColor"/><path d="M30.06,11.54L21.41,27.65C19.12,31.92,22.57,37.01,27.39,36.45L29.47,36.21C31.23,36.01,32.9,35.24,34.12,33.95C36.47,31.47,37.91,29.42,39.47,25.86C42.73,22.73,43.94,20.31,45.92,16.15Z" fill="currentColor"/><path d="M29.6,31.68C29.7,32.35,29.25,32.97,28.59,33.06L26.48,33.35C24.66,33.59,22.88,32.77,21.87,31.22L21.85,31.18C21.53,30.68,21.49,30.04,21.75,29.51C23.49,31.24,25.89,32.09,28.32,31.82Z" fill="currentColor" opacity="0.5"/><path d="M59.69,13.65L76.24,27.66L83.44,28.06C85.57,28.18,87.63,29.13,88.44,31.1C89.62,33.98,90.33,38.09,90.61,42.63L87.25,33.64C86.66,32.08,85.17,31.04,83.5,31.04L76.51,31.04L58.58,14.56C57.12,13.21,55.28,12.33,53.3,12.03L45.37,10.84C41.18,10.21,37.05,12.28,35.06,16.02L31.41,22.86C29.83,21.42,27.77,20.62,25.63,20.62L25.36,20.62L26.84,17.24L16.93,17.49C11.9,17.61,7.95,21.82,8.15,26.84L8.31,30.91C2.79,33.56,1.17,40.66,5,45.44L7.31,48.32L6.54,53.77C6.14,56.56,6.94,59.39,8.74,61.56L12.13,65.65L12.3,69.99C12.44,73.45,14.35,76.6,17.36,78.31L19.02,79.25C12.01,78.61,10.11,72.3,11.51,66.2C2.65,60.31,3.51,52.85,7.2,48.23C-0.18,45.64,-0.89,32.93,7.2,30.89C4.85,23.24,7.98,16.47,16.72,16.47L27.08,16.47L29.13,12.88C30.71,10.11,33.49,8.3,36.56,7.92L39.08,7.92L49.01,9.04C52.95,9.48,56.67,11.08,59.69,13.65Z" fill="currentColor"/></svg>