<svg xmlns="http://www.w3.org/2000/svg" viewBox="0 0 90 90"><path d="M46,2C28.45,2,13.31,12.27,6.25,27.11L13.31,30.47C19.13,18.25,31.58,9.82,46,9.82C65.98,9.82,82.18,26.02,82.18,46C82.18,65.98,65.98,82.18,46,82.18C31.58,82.18,19.13,73.75,13.31,61.53L6.25,64.89C13.31,79.73,28.45,90,46,90C70.3,90,90,70.3,90,46C90,21.7,70.3,2,46,2Z" fill="currentColor"/><path d="M90,46C90,70.3,70.3,90,46,90C45.67,90,45.35,89.99,45.02,89.99C68.87,89.47,88.04,70.2,88.04,46.49C88.04,22.46,68.35,2.98,44.04,2.98C37.64,2.98,31.55,4.33,26.06,6.77C32.05,3.72,38.82,2,46,2C70.3,2,90,21.7,90,46Z" fill="currentColor"/><path d="M16.13,66.42L13.77,68.54C12.53,69.66,11.08,70.46,9.61,70.74C8.35,68.89,7.22,66.93,6.25,64.89L13.31,61.53C14.13,63.24,15.07,64.87,16.13,66.42Z" fill="currentColor"/><path d="M72.22,16.14C76.85,18.37,83.07,24.74,87.37,30.98C88.64,34.49,89.48,38.22,89.82,42.08C89.62,42.33,89.4,42.56,89.16,42.78L87.55,44.23C85.53,46.05,83.58,49.6,81.35,53.7C81.89,51.22,82.18,48.64,82.18,46C82.18,34.13,76.46,23.59,67.62,16.99C68.96,15.93,70.69,15.4,72.22,16.14Z" fill="currentColor"/><path d="M66.04,10.71C67.35,9.61,69.09,9.04,70.64,9.75C76.74,12.56,85.67,22.38,89.44,29.84C90.52,31.97,89.79,34.46,88.05,36.09L86.46,37.57C81.72,41.99,77.57,56.24,68.95,64.27L56.97,75.45C52.28,79.83,47.33,77.11,44.68,72.53C36.24,73.92,32.66,69.07,32.29,64.33C26.54,66.85,19.16,59.77,22.79,54.14L13.12,63.17C10.42,65.68,6.66,66.71,3.95,63.81C1.25,60.91,2.52,57.21,5.22,54.7L26.58,34.78L25.81,31.55C25.08,28.42,26.27,25.16,28.85,23.25L35.39,18.4C37.94,16.5,41.01,15.4,44.19,15.25L61.59,14.42Z" fill="currentColor"/><path d="M47.27,31.09C51.25,35.93,55.98,40.12,63.39,35.9L64.12,36.68C54.71,49.48,69.02,60.94,75.33,49.3L78.89,38.26C79.35,36.82,80.22,35.53,81.38,34.56L81.55,34.42C84.26,32.14,85.17,28.36,83.78,25.11L80.65,17.77C84.22,21.57,87.51,26.01,89.44,29.84C90.52,31.97,89.79,34.46,88.05,36.09L86.46,37.57C81.72,41.99,77.57,56.24,68.95,64.27L56.97,75.45C54.68,77.59,52.32,78.03,50.21,77.39L48.96,75.83L44.23,72.13L41.37,72.19C37.48,72.26,34.09,69.53,33.34,65.71L32.83,63.15L31.85,63.2C27.07,63.47,23.11,59.52,23.38,54.74L23.43,53.72L35.42,41.94C37.36,40.04,38.21,37.28,37.67,34.62L36.65,29.56L37.5,29.1C40.83,27.3,44.86,28.17,47.27,31.09Z" fill="currentColor" opacity="0.5"/><path d="M35.13,61.05C33.53,62.64,32.87,64.95,33.39,67.14L33.49,67.55C34.06,69.97,36.1,71.76,38.57,72.04C40.64,72.27,42.69,71.38,43.93,69.71L53.42,56.98C56.64,52.64,50.71,45.84,46.6,49.66Z" fill="currentColor"/><path d="M46.54,67.79C44.83,69.81,45.07,72.83,47.07,74.56L47.27,74.73C47.7,75.1,48.21,75.4,48.75,75.59C50.78,76.32,53.04,75.57,54.24,73.78L60.89,63.84C63.54,59.97,57.69,55.12,54.31,58.64Z" fill="currentColor"/><path d="M39.39,41.4C34.11,45.83,29.96,49.39,24.91,53.64C23.82,54.56,23.11,55.86,22.92,57.27C22.48,60.55,24.91,63.53,28.22,63.74L28.56,63.76C30.41,63.88,32.22,63.15,33.46,61.76L45.25,48.57C49.32,44.78,43.8,37.82,39.39,41.4Z" fill="currentColor"/><path d="M39.39,41.4C34.11,45.83,29.96,49.39,24.91,53.64C23.82,54.56,23.11,55.86,22.92,57.27C22.48,60.55,24.91,63.53,28.22,63.74L28.56,63.76C30.41,63.88,32.22,63.15,33.46,61.76L45.25,48.57C49.32,44.78,43.8,37.82,39.39,41.4Z" fill="currentColor"/><path d="M31.2,45.04L37.72,44.37L36.88,38.1L29.5,37.98Z" fill="currentColor"/><path d="M50.24,55.04L50.55,56.32C50.65,56.74,50.52,57.18,50.2,57.47L49.17,58.43L49.11,57.59C48.94,54.98,46.82,52.92,44.21,52.81L45.18,51.91C45.33,51.77,45.53,51.68,45.73,51.67C47.85,51.55,49.76,52.97,50.24,55.04Z" fill="currentColor"/><path d="M58.38,62.61L58.52,63.58C58.56,63.9,58.44,64.22,58.21,64.44L57.33,65.26L57.35,64.81C57.44,62.44,55.57,60.47,53.2,60.43L53.86,59.56C54,59.38,54.22,59.27,54.46,59.26C56.43,59.21,58.12,60.65,58.38,62.61Z" fill="currentColor"/><path d="M43.58,48.3C43.58,48.58,43.43,48.85,43.19,49L42.01,49.78C42.34,47.26,40.41,45.01,37.87,44.96L37.18,44.95L38,44.18C38.13,44.05,38.3,43.97,38.49,43.94L38.65,43.92C41.29,43.55,43.64,45.63,43.58,48.3Z" fill="currentColor"/><path d="M26.12,31.76L29.39,43.13C30.51,47.03,34.92,48.93,38.52,47.07L38.89,46.88C41.02,45.78,42.38,43.58,42.3,41.18C42.07,34.17,40.97,30.03,37.52,24.82Z" fill="currentColor"/><path d="M25.63,30.25L29.37,44.45C30.37,48.22,35.18,49.31,37.71,46.35L38.8,45.07C39.72,43.98,40.28,42.62,40.29,41.19C40.31,38.45,40.04,36.45,39,33.5C39.2,29.88,38.59,27.79,37.47,24.27Z" fill="currentColor"/><path d="M36.39,42.34C36.81,42.67,36.89,43.28,36.55,43.69L35.47,45.02C34.54,46.16,33.04,46.65,31.6,46.29L31.56,46.28C31.1,46.17,30.73,45.81,30.59,45.36C32.56,45.42,34.44,44.6,35.72,43.12Z" fill="currentColor" opacity="0.5"/><path d="M28.85,23.25L35.39,18.4C37.94,16.5,41.01,15.4,44.19,15.25L61.59,14.42L66.04,10.71C67.36,9.61,69.09,9.04,70.64,9.75C72.73,10.72,75.15,12.5,77.59,14.73L71.36,11.63C70.16,11.03,68.71,11.24,67.73,12.16L63.63,15.99L44.06,16.12C42.46,16.13,40.9,16.63,39.57,17.53L34.26,21.18C31.46,23.1,30.17,26.58,31.04,29.87L32.65,35.89C30.93,35.91,29.28,36.57,28.02,37.74L27.86,37.89L27.16,36.16L5.7,56.75C3.85,58.52,3.86,61.47,5.71,63.24C7.38,64.82,9.98,64.89,11.73,63.39L23.49,53.27C21.69,57.85,24.63,62.91,29.5,63.62L32.44,64.05L34.97,67.67C36.26,69.53,38.28,70.76,40.53,71.05L44.77,71.59L47.24,74.05C49.22,76.01,52.07,76.81,54.77,76.16L56.69,75.7C52.08,79.72,47.28,77.02,44.68,72.53C36.24,73.92,32.66,69.07,32.29,64.33C26.54,66.85,19.16,59.77,22.79,54.14L13.12,63.17C10.42,65.68,6.66,66.71,3.95,63.81C1.25,60.91,2.52,57.21,5.22,54.7L26.58,34.78L25.81,31.55C25.08,28.42,26.27,25.16,28.85,23.25Z" fill="currentColor"/><path d="M3.29,38.03L3.29,18.55C3.29,17.71,4.19,17.19,4.92,17.61L21.79,27.35C22.52,27.77,22.52,28.82,21.79,29.23L4.92,38.97C4.2,39.38,3.29,38.86,3.29,38.03Z" fill="currentColor"/><path d="M3.3,38.02L3.32,20.74L4.76,35.6C4.83,36.35,5.61,36.8,6.29,36.49L19.88,30.3L4.93,38.96C4.2,39.38,3.3,38.86,3.3,38.02Z" fill="currentColor"/></svg>