<svg xmlns="http://www.w3.org/2000/svg" viewBox="0 0 90 90"><path d="M25.77,8.33C24.47,7.16,22.72,6.52,21.11,7.19C14.77,9.85,5.29,19.56,1.17,27.05C-0.01,29.19,0.65,31.76,2.38,33.49L3.95,35.06C8.63,39.74,12.36,54.45,20.88,62.98L32.73,74.83C37.38,79.47,42.52,76.87,45.4,72.28C53.98,74,57.81,69.17,58.35,64.34C64.14,67.12,71.94,60.15,68.43,54.27L78,63.84C80.66,66.51,84.47,67.69,87.34,64.82C90.21,61.95,89.04,58.13,86.37,55.46L65.25,34.34L66.15,31.07C67.01,27.9,65.91,24.52,63.34,22.48L56.83,17.28C54.28,15.25,51.19,14.02,47.94,13.75L30.19,12.28Z" fill="currentColor"/><path d="M44.23,29.83C40,34.64,35.01,38.75,27.58,34.17L26.81,34.95C35.97,48.37,20.93,59.57,14.9,47.45L11.66,36.03C11.24,34.54,10.4,33.2,9.25,32.17L9.08,32.01C6.38,29.59,5.59,25.69,7.13,22.41L10.59,15.03C6.81,18.78,3.28,23.21,1.17,27.05C-0.01,29.19,0.65,31.76,2.38,33.49L3.95,35.06C8.63,39.74,12.36,54.45,20.88,62.98L32.73,74.83C35,77.1,37.39,77.63,39.58,77.05L40.9,75.5L45.87,71.89L48.79,72.05C52.77,72.27,56.33,69.59,57.24,65.71L57.84,63.11L58.84,63.21C63.72,63.65,67.91,59.76,67.81,54.86L67.79,53.81L55.95,41.35C54.04,39.33,53.27,36.49,53.92,33.79L55.14,28.65L54.29,28.15C50.95,26.19,46.8,26.93,44.23,29.83Z" fill="currentColor" opacity="0.5"/><path d="M55.57,60.89C57.15,62.57,57.74,64.95,57.13,67.18L57.02,67.59C56.34,70.04,54.2,71.81,51.67,72C49.54,72.16,47.48,71.18,46.26,69.42L37.02,56.07C33.88,51.52,40.19,44.78,44.25,48.84Z" fill="currentColor"/><path d="M43.66,67.37C45.34,69.49,45,72.58,42.88,74.27L42.68,74.44C42.22,74.8,41.69,75.09,41.13,75.26C39.03,75.94,36.74,75.09,35.58,73.22L29.14,62.82C26.57,58.77,32.72,54.02,36.05,57.74Z" fill="currentColor"/><path d="M51.92,40.65C57.16,45.36,61.27,49.15,66.28,53.68C67.36,54.66,68.04,56.01,68.19,57.46C68.52,60.83,65.93,63.78,62.54,63.89L62.19,63.9C60.29,63.95,58.47,63.13,57.25,61.68L45.67,47.77C41.65,43.75,47.54,36.84,51.92,40.65Z" fill="currentColor"/><path d="M51.92,40.65C57.16,45.36,61.27,49.15,66.28,53.68C67.36,54.66,68.04,56.01,68.19,57.46C68.52,60.83,65.93,63.78,62.54,63.89L62.19,63.9C60.29,63.95,58.47,63.13,57.25,61.68L45.67,47.77C41.65,43.75,47.54,36.84,51.92,40.65Z" fill="currentColor"/><path d="M60.16,44.66L53.52,43.75L54.61,37.37L62.15,37.51Z" fill="currentColor"/><path d="M40.34,54.21L39.98,55.51C39.86,55.93,39.98,56.38,40.29,56.69L41.31,57.71L41.4,56.85C41.68,54.19,43.91,52.16,46.59,52.15L45.62,51.18C45.47,51.04,45.28,50.94,45.07,50.93C42.91,50.73,40.91,52.11,40.34,54.21Z" fill="currentColor"/><path d="M31.75,61.65L31.58,62.65C31.52,62.97,31.63,63.3,31.86,63.53L32.73,64.4L32.72,63.94C32.72,61.52,34.7,59.56,37.12,59.61L36.48,58.7C36.34,58.51,36.12,58.38,35.88,58.37C33.87,58.24,32.08,59.66,31.75,61.65Z" fill="currentColor"/><path d="M47.39,47.55C47.38,47.85,47.52,48.12,47.76,48.29L48.94,49.12C48.69,46.53,50.75,44.3,53.35,44.34L54.05,44.36L53.24,43.54C53.11,43.41,52.94,43.32,52.75,43.28L52.58,43.25C49.9,42.78,47.43,44.83,47.39,47.55Z" fill="currentColor"/><path d="M65.83,31.27L62.08,42.78C60.79,46.72,56.22,48.51,52.61,46.48L52.24,46.27C50.1,45.07,48.78,42.77,48.95,40.33C49.43,33.17,50.71,28.97,54.42,23.78Z" fill="currentColor"/><path d="M66.38,29.74L62.05,44.13C60.9,47.94,55.94,48.89,53.46,45.77L52.39,44.42C51.49,43.28,50.97,41.86,51.01,40.41C51.08,37.6,51.43,35.57,52.6,32.59C52.52,28.89,53.22,26.77,54.49,23.21Z" fill="currentColor"/><path d="M54.95,41.72C54.51,42.04,54.41,42.67,54.74,43.1L55.8,44.49C56.7,45.69,58.22,46.25,59.71,45.93L59.75,45.92C60.22,45.82,60.61,45.47,60.77,45.01C58.76,45.01,56.87,44.1,55.61,42.54Z" fill="currentColor" opacity="0.5"/><path d="M61.25,63.99L58.23,64.32L55.52,67.94C54.13,69.79,52.02,70.97,49.71,71.19L45.36,71.6L42.74,74.02C40.65,75.95,37.71,76.67,34.97,75.91L33.46,75.49C37.9,79.19,42.67,76.63,45.4,72.28C53.98,74,57.81,69.17,58.35,64.34C64.14,67.12,71.94,60.15,68.43,54.27L78,63.84C78.9,64.74,79.94,65.48,81.02,65.94L67.76,53.63C69.43,58.38,66.25,63.44,61.25,63.99Z" fill="currentColor"/><path d="M47.94,13.75L30.19,12.28L25.77,8.33C24.47,7.16,22.72,6.52,21.11,7.19C18.74,8.18,15.94,10.15,13.15,12.63L20.32,9.36C21.57,8.79,23.04,9.06,24.01,10.03L28.07,14.09L48.06,14.93C49.7,14.99,51.28,15.55,52.6,16.53L57.9,20.44C60.69,22.51,61.89,26.11,60.88,29.44L59.02,35.53C60.78,35.61,62.44,36.35,63.68,37.59L63.84,37.75L64.94,34.93L88.71,59.16C88.3,57.83,87.46,56.55,86.37,55.46L65.25,34.34L66.15,31.07C66.84,28.54,66.27,25.87,64.71,23.86L63.25,22.41L56.83,17.28C54.28,15.25,51.19,14.02,47.94,13.75Z" fill="currentColor"/></svg>