<svg xmlns="http://www.w3.org/2000/svg" viewBox="0 0 90 90"><path d="M82.44,27.06C84.57,27.18,86.63,28.13,87.44,30.1C90.61,37.84,90.41,54.35,87.5,64.34C86.67,67.2,83.9,68.85,80.92,68.85L78.22,68.85C70.16,68.85,54.29,78.3,39.62,78.3L19.22,78.3C11.23,78.3,9.04,71.63,10.51,65.2C1.64,59.31,2.51,51.86,6.2,47.23C-1.18,44.64,-1.89,31.93,6.2,29.89C3.85,22.24,6.98,15.47,15.72,15.47L26.08,15.47L28.13,11.88C30.11,8.41,33.96,6.45,37.93,6.9L48.01,8.04C51.95,8.48,55.67,10.08,58.69,12.65L75.24,26.66Z" fill="currentColor"/><path d="M56.17,27.04C52.06,28.26,50.78,28.04,47.93,28.04C47.23,36.47,47.43,45.08,58.69,47.74L58.69,48.38C46.87,48.38,44.74,54.51,44.78,59.66C44.92,76.97,69.01,70.56,72.68,54.76L74.04,62.39L78.35,62.39C83.47,62.39,87.76,58.52,88.3,53.43L89.58,41.22C90.11,48.93,89.36,57.97,87.5,64.34C86.67,67.2,83.9,68.85,80.92,68.85L78.22,68.85C70.16,68.85,54.29,78.3,39.62,78.3L19.22,78.3C15.35,78.3,12.84,76.74,11.45,74.4L11.65,71.85L10.48,64.47L7.24,61.56C3.9,58.56,2.97,53.7,4.96,49.68L6.13,47.31C6.15,47.28,6.18,47.25,6.2,47.23C6.19,47.22,6.18,47.22,6.18,47.22L6.4,46.76L5.71,46.07C1.62,42.05,1.75,35.43,5.98,31.56L6.24,31.33C7.05,30.59,8.12,30.17,9.23,30.16L28.47,30.07C31.64,30.05,34.62,28.53,36.49,25.97L41.76,18.77C43.75,23.11,47.43,25.95,56.17,27.04Z" fill="currentColor" opacity="0.75"/><path d="M11.76,46.83C8.98,46.92,6.43,48.45,5.05,50.88L4.95,51.07C3.32,53.93,3.69,57.5,5.86,59.97C7.68,62.03,10.46,62.97,13.16,62.43L31.9,58.66C38.52,57.44,38.89,46.21,31.9,46.21Z" fill="currentColor"/><path d="M15.12,63.04C12.37,63.45,10.3,65.75,10.18,68.53C10.13,69.8,10.5,71.05,11.22,72.09C12.64,74.13,15.21,75.06,17.61,74.38L22.42,73.02L31.23,70.53C36.7,69.28,36.09,60.46,30.25,60.79Z" fill="currentColor"/><path d="M32.12,32.37C23.56,31.92,16.76,31.65,8.55,31.23C6.77,31.14,5.03,31.71,3.65,32.84C0.46,35.46,0.16,40.23,2.98,43.23L3.28,43.54C4.86,45.23,7.13,46.09,9.44,45.88L31.37,43.88C38.29,43.88,39.18,32.86,32.12,32.37Z" fill="currentColor"/><path d="M32.12,31.48C23.57,31.03,16.79,31.48,8.6,31.21C6.79,31.15,5,31.74,3.6,32.88C0.43,35.48,0.04,40.23,2.77,43.28C4.27,44.96,6.46,45.83,8.7,45.66L31.37,43.88C38.29,43.88,39.18,31.97,32.12,31.48Z" fill="currentColor"/><path d="M21.57,28.73L28.08,33.66L32.63,27.24L26.01,20.87Z" fill="currentColor"/><path d="M32.42,55.01L31.61,56.44C31.35,56.9,30.85,57.19,30.32,57.19L28.57,57.19L29.23,56.37C31.28,53.84,31.11,50.18,28.82,47.86L30.47,47.86C30.73,47.86,30.98,47.95,31.17,48.11C33.21,49.8,33.73,52.71,32.42,55.01Z" fill="currentColor"/><path d="M31.41,67.81L30.7,68.81C30.47,69.14,30.09,69.33,29.69,69.33L28.2,69.33L28.6,68.94C30.69,66.86,30.66,63.47,28.54,61.43L29.88,61.2C30.16,61.15,30.46,61.23,30.67,61.43C32.51,63.05,32.83,65.81,31.41,67.81Z" fill="currentColor"/><path d="M32.08,42.22C31.83,42.47,31.48,42.59,31.13,42.53L29.4,42.23C31.84,40.22,31.99,36.53,29.71,34.33L29.1,33.73L30.5,33.72C30.73,33.72,30.95,33.79,31.14,33.93L31.31,34.04C34.03,35.95,34.4,39.84,32.08,42.22Z" fill="currentColor"/><path d="M28.22,12.33L21.64,25.29C19.32,29.84,21.83,35.38,26.78,36.66C29.16,37.28,31.74,36.8,33.64,35.23C36.71,32.72,39.2,30.08,39.64,26.47C41.87,22.83,44.49,20.99,44.49,15.7Z" fill="currentColor"/><path d="M29.06,10.54L20.99,25.9C20.28,27.24,20.02,28.85,20.82,30.13C24.79,36.47,36.93,35.24,36.93,23.87C40.65,22.23,42.94,19.31,44.92,15.15Z" fill="currentColor"/><path d="M28.6,30.68C28.7,31.35,28.25,31.97,27.59,32.06L25.48,32.35C23.67,32.59,21.88,31.77,20.87,30.22L20.85,30.18C20.53,29.68,20.49,29.04,20.75,28.51C22.49,30.24,24.89,31.09,27.32,30.82Z" fill="currentColor"/><path d="M58.69,12.65L75.24,26.66L82.44,27.06C84.57,27.18,86.63,28.13,87.44,30.1C88.3,32.21,88.92,34.99,89.29,38.1L87.25,32.64C86.66,31.08,85.17,30.04,83.5,30.04L76.51,30.04L58.58,13.56C57.12,12.21,55.28,11.33,53.3,11.03L45.37,9.84C41.18,9.21,37.06,11.28,35.06,15.02L31.41,21.86C29.83,20.42,27.77,19.62,25.63,19.62L24.38,19.62L25.86,16.24L16.5,16.49C11.65,16.61,7.77,20.56,7.73,25.42L7.7,29.8L16.17,31.28L5.57,32.33C2,36.01,2.5,41.98,6.64,45.01L7.7,45.79L18.17,46.67L8.27,48.11L7.71,49.21C5.51,53.56,6.76,58.86,10.68,61.76L11.77,62.57L21.89,62.19L12.52,64.48C9.89,69.42,11.84,75.54,16.81,78.07C10.8,76.85,9.2,70.93,10.51,65.2C1.65,59.31,2.51,51.86,6.2,47.23C-1.18,44.64,-1.88,31.93,6.2,29.89C3.85,22.24,6.98,15.47,15.72,15.47L26.08,15.47L28.13,11.88C29.71,9.11,32.49,7.3,35.57,6.92L38.07,6.92L48.01,8.04C51.95,8.48,55.67,10.08,58.69,12.65Z" fill="currentColor"/></svg>