<svg xmlns="http://www.w3.org/2000/svg" viewBox="0 0 90 90"><path d="M64.23,8.33C65.53,7.16,67.28,6.52,68.89,7.19C75.23,9.85,84.71,19.56,88.83,27.05C90.01,29.19,89.35,31.76,87.62,33.49L86.05,35.06C81.37,39.74,77.64,54.45,69.12,62.98L57.27,74.83C52.63,79.47,47.48,76.87,44.6,72.28C36.02,74,32.19,69.17,31.65,64.34C25.86,67.12,18.06,60.15,21.57,54.27L12,63.84C9.34,66.51,5.53,67.69,2.66,64.82C-0.21,61.95,0.96,58.13,3.63,55.46L24.75,34.34L23.85,31.07C22.99,27.9,24.09,24.52,26.66,22.48L33.17,17.28C35.72,15.25,38.81,14.02,42.06,13.75L59.81,12.28Z" fill="currentColor"/><path d="M45.77,29.83C50,34.64,54.99,38.75,62.42,34.17L63.19,34.95C54.03,48.37,69.07,59.57,75.1,47.45L78.34,36.03C78.76,34.54,79.6,33.2,80.75,32.17L80.92,32.01C83.62,29.59,84.41,25.69,82.87,22.41L79.41,15.03C83.19,18.78,86.72,23.21,88.83,27.05C90.01,29.19,89.35,31.76,87.62,33.49L86.05,35.06C81.37,39.74,77.64,54.45,69.12,62.98L57.27,74.83C55,77.1,52.61,77.63,50.42,77.05L49.1,75.5L44.13,71.89L41.21,72.05C37.23,72.27,33.67,69.59,32.76,65.71L32.16,63.11L31.16,63.21C26.28,63.65,22.09,59.76,22.19,54.86L22.21,53.81L34.05,41.35C35.96,39.33,36.73,36.49,36.08,33.79L34.86,28.65L35.71,28.15C39.05,26.19,43.2,26.93,45.77,29.83Z" fill="currentColor" opacity="0.5"/><path d="M34.43,60.89C32.85,62.57,32.26,64.95,32.87,67.18L32.98,67.59C33.66,70.04,35.8,71.81,38.33,72C40.46,72.16,42.52,71.18,43.74,69.42L52.98,56.07C56.12,51.52,49.81,44.78,45.75,48.84Z" fill="currentColor"/><path d="M46.34,67.37C44.66,69.49,45,72.58,47.12,74.27L47.32,74.44C47.78,74.8,48.31,75.09,48.87,75.26C50.97,75.94,53.26,75.09,54.42,73.22L60.86,62.82C63.43,58.77,57.28,54.02,53.95,57.74Z" fill="currentColor"/><path d="M38.08,40.65C32.84,45.36,28.73,49.15,23.72,53.68C22.64,54.66,21.96,56.01,21.81,57.46C21.48,60.83,24.07,63.78,27.46,63.89L27.81,63.9C29.71,63.95,31.53,63.13,32.75,61.68L44.33,47.77C48.35,43.75,42.46,36.84,38.08,40.65Z" fill="currentColor"/><path d="M38.08,40.65C32.84,45.36,28.73,49.15,23.72,53.68C22.64,54.66,21.96,56.01,21.81,57.46C21.48,60.83,24.07,63.78,27.46,63.89L27.81,63.9C29.71,63.95,31.53,63.13,32.75,61.68L44.33,47.77C48.35,43.75,42.46,36.84,38.08,40.65Z" fill="currentColor"/><path d="M29.84,44.66L36.48,43.75L35.39,37.37L27.85,37.51Z" fill="currentColor"/><path d="M49.66,54.21L50.02,55.51C50.14,55.93,50.02,56.38,49.71,56.69L48.69,57.71L48.6,56.85C48.32,54.19,46.09,52.16,43.41,52.15L44.38,51.18C44.53,51.04,44.72,50.94,44.93,50.93C47.09,50.73,49.09,52.11,49.66,54.21Z" fill="currentColor"/><path d="M58.25,61.65L58.42,62.65C58.48,62.97,58.37,63.3,58.14,63.53L57.27,64.4L57.28,63.94C57.28,61.52,55.3,59.56,52.88,59.61L53.52,58.7C53.66,58.51,53.88,58.38,54.12,58.37C56.13,58.24,57.92,59.66,58.25,61.65Z" fill="currentColor"/><path d="M42.61,47.55C42.62,47.85,42.48,48.12,42.24,48.29L41.06,49.12C41.31,46.53,39.25,44.3,36.65,44.34L35.95,44.36L36.76,43.54C36.89,43.41,37.06,43.32,37.25,43.28L37.42,43.25C40.1,42.78,42.57,44.83,42.61,47.55Z" fill="currentColor"/><path d="M24.17,31.27L27.92,42.78C29.21,46.72,33.78,48.51,37.39,46.48L37.76,46.27C39.9,45.07,41.22,42.77,41.05,40.33C40.57,33.17,39.29,28.97,35.58,23.78Z" fill="currentColor"/><path d="M23.62,29.74L27.95,44.13C29.1,47.94,34.06,48.89,36.54,45.77L37.61,44.42C38.51,43.28,39.03,41.86,38.99,40.41C38.92,37.6,38.57,35.57,37.4,32.59C37.48,28.89,36.78,26.77,35.51,23.21Z" fill="currentColor"/><path d="M35.05,41.72C35.49,42.04,35.59,42.67,35.26,43.1L34.2,44.49C33.3,45.69,31.78,46.25,30.29,45.93L30.25,45.92C29.78,45.82,29.39,45.47,29.23,45.01C31.24,45.01,33.13,44.1,34.39,42.54Z" fill="currentColor" opacity="0.5"/><path d="M28.75,63.99L31.77,64.32L34.48,67.94C35.87,69.79,37.98,70.97,40.29,71.19L44.64,71.6L47.26,74.02C49.35,75.95,52.29,76.67,55.03,75.91L56.54,75.49C52.1,79.19,47.33,76.63,44.6,72.28C36.02,74,32.19,69.17,31.65,64.34C25.86,67.12,18.06,60.15,21.57,54.27L12,63.84C11.1,64.74,10.06,65.48,8.98,65.94L22.24,53.63C20.57,58.38,23.75,63.44,28.75,63.99Z" fill="currentColor"/><path d="M42.06,13.75L59.81,12.28L64.23,8.33C65.53,7.16,67.28,6.52,68.89,7.19C71.26,8.18,74.06,10.15,76.85,12.63L69.68,9.36C68.43,8.79,66.96,9.06,65.99,10.03L61.93,14.09L41.94,14.93C40.3,14.99,38.72,15.55,37.4,16.53L32.1,20.44C29.31,22.51,28.11,26.11,29.12,29.44L30.98,35.53C29.22,35.61,27.56,36.35,26.32,37.59L26.16,37.75L25.06,34.93L1.29,59.16C1.7,57.83,2.54,56.55,3.63,55.46L24.75,34.34L23.85,31.07C23.16,28.54,23.73,25.87,25.29,23.86L26.75,22.41L33.17,17.28C35.72,15.25,38.81,14.02,42.06,13.75Z" fill="currentColor"/></svg>