<svg xmlns="http://www.w3.org/2000/svg" viewBox="0 0 90 90"><path d="M41.27,81.83C43.13,83.97,46.47,83.97,48.33,81.83L67.71,59.45C83.75,40.94,86.8,34.27,86.8,27.22C86.8,14.62,78.02,6.56,67.33,6.56C59.56,6.56,52.06,10.72,44.8,23.31C37.67,10.97,30.04,6.56,22.66,6.56C12.73,6.56,2.8,14.5,2.8,27.59C2.8,33.89,5.22,40.31,21.89,59.45Z" fill="currentColor"/><path d="M10.52,38.23C5.71,31.39,6.22,22.15,11.74,15.87C18.42,8.28,30.01,7.64,37.49,14.43L41.23,17.82C35.15,9.63,28.82,6.56,22.66,6.56C12.73,6.56,2.8,14.5,2.8,27.59C2.8,33.89,5.22,40.31,21.89,59.45L39.74,80.05L40.34,80.62Z" fill="currentColor"/><path d="M66.31,58.22C81.37,41.29,84.24,35.18,84.24,28.74C84.24,17.22,75.99,9.85,65.95,9.85C61.32,9.85,56.78,11.38,52.34,15.46C36.83,33.15,33.22,59.48,45.42,81.2C48.71,77.59,64.14,60.65,66.31,58.22Z" fill="currentColor"/><path d="M22.66,6.56C12.73,6.56,2.8,14.5,2.8,27.59C2.8,28.28,2.83,28.96,2.9,29.66C3.89,17.68,13.98,8.27,26.28,8.27C28.06,8.27,29.8,8.46,31.46,8.84C28.52,7.25,25.57,6.56,22.66,6.56Z" fill="currentColor"/></svg>