<svg xmlns="http://www.w3.org/2000/svg" viewBox="0 0 90 90" fill="currentColor"><path d="M42.27,9.71C44.13,7.56,47.47,7.56,49.33,9.71L68.71,32.08C84.75,50.6,87.8,57.27,87.8,64.32C87.8,76.91,79.02,84.97,68.33,84.97C60.56,84.97,53.06,80.82,45.8,68.23C38.67,80.57,31.04,84.97,23.66,84.97C13.73,84.97,3.8,77.04,3.8,63.94C3.8,57.65,6.22,51.23,22.89,32.08ZM11.52,53.3C6.71,60.15,7.22,69.39,12.74,75.67C19.42,83.25,31.01,83.9,38.49,77.11L42.23,73.71C36.15,81.9,29.82,84.97,23.66,84.97C13.73,84.97,3.8,77.04,3.8,63.94C3.8,57.65,6.22,51.23,22.89,32.08L40.74,11.48L41.34,10.92ZM67.31,33.32C82.37,50.25,85.24,56.35,85.24,62.8C85.24,74.32,76.99,81.69,66.95,81.69C62.32,81.69,57.78,80.15,53.34,76.08C37.83,58.39,34.22,32.06,46.42,10.33C49.71,13.95,65.14,30.88,67.31,33.32ZM23.66,84.97C13.73,84.97,3.8,77.04,3.8,63.94C3.8,63.26,3.83,62.58,3.9,61.88C4.89,73.86,14.98,83.27,27.28,83.27C29.06,83.27,30.8,83.07,32.46,82.7C29.52,84.29,26.57,84.97,23.66,84.97Z"/></svg>