<svg xmlns="http://www.w3.org/2000/svg" viewBox="0 0 90 90"><path d="M40.27,81.83C42.13,83.97,45.47,83.97,47.33,81.83L66.71,59.45C82.75,40.94,85.8,34.27,85.8,27.22C85.8,14.62,77.02,6.56,66.33,6.56C58.56,6.56,51.06,10.72,43.8,23.31C36.67,10.97,29.04,6.56,21.66,6.56C11.73,6.56,1.8,14.5,1.8,27.59C1.8,33.89,4.22,40.31,20.89,59.45Z" fill="currentColor"/><path d="M9.52,38.23C4.71,31.39,5.22,22.15,10.74,15.87C17.42,8.28,29.01,7.64,36.49,14.43L40.23,17.82C34.15,9.63,27.82,6.56,21.66,6.56C11.73,6.56,1.8,14.5,1.8,27.59C1.8,33.89,4.22,40.31,20.89,59.45L38.74,80.05L39.34,80.62Z" fill="currentColor"/><path d="M65.31,58.22C80.37,41.29,83.24,35.18,83.24,28.74C83.24,17.22,74.99,9.85,64.95,9.85C60.32,9.85,55.78,11.38,51.34,15.46C35.83,33.15,32.22,59.48,44.42,81.2C47.71,77.59,63.14,60.65,65.31,58.22Z" fill="currentColor"/><path d="M21.66,6.56C11.73,6.56,1.8,14.5,1.8,27.59C1.8,28.28,1.83,28.96,1.9,29.66C2.89,17.68,12.98,8.27,25.28,8.27C27.06,8.27,28.8,8.46,30.46,8.84C27.52,7.25,24.57,6.56,21.66,6.56Z" fill="currentColor"/></svg>