<svg xmlns="http://www.w3.org/2000/svg" viewBox="0 0 90 90" fill="currentColor"><path d="M41.27,9.71C43.13,7.56,46.47,7.56,48.33,9.71L67.71,32.08C83.75,50.6,86.8,57.27,86.8,64.32C86.8,76.91,78.02,84.97,67.33,84.97C59.56,84.97,52.06,80.82,44.8,68.23C37.67,80.57,30.04,84.97,22.66,84.97C12.73,84.97,2.8,77.04,2.8,63.94C2.8,57.65,5.22,51.23,21.89,32.08ZM10.52,53.3C5.71,60.15,6.22,69.39,11.74,75.67C18.42,83.25,30.01,83.9,37.49,77.11L41.23,73.71C35.15,81.9,28.82,84.97,22.66,84.97C12.73,84.97,2.8,77.04,2.8,63.94C2.8,57.65,5.22,51.23,21.89,32.08L39.74,11.48L40.34,10.92ZM66.31,33.32C81.37,50.25,84.24,56.35,84.24,62.8C84.24,74.32,75.99,81.69,65.95,81.69C61.32,81.69,56.78,80.15,52.34,76.08C36.83,58.39,33.22,32.06,45.42,10.33C48.71,13.95,64.14,30.88,66.31,33.32ZM22.66,84.97C12.73,84.97,2.8,77.04,2.8,63.94C2.8,63.26,2.83,62.58,2.9,61.88C3.89,73.86,13.98,83.27,26.28,83.27C28.06,83.27,29.8,83.07,31.46,82.7C28.52,84.29,25.57,84.97,22.66,84.97Z"/></svg>