<svg xmlns="http://www.w3.org/2000/svg" viewBox="0 0 90 90" fill="currentColor"><path d="M45.87,91C24.54,91,7.25,85.61,7.25,78.95L7.25,75.11C5.3,73.7,4.71,71.06,5.89,68.97L7.04,66.9C8.85,63.68,9.38,59.89,8.52,56.3L7.85,53.45C7.45,51.77,7.25,50.05,7.25,48.32L7.25,43.85L84.49,43.85L84.49,48.01C84.49,49.95,84.26,51.87,83.82,53.76L83.24,56.18C82.36,59.88,82.72,63.77,84.25,67.26L85.74,70.64C86.5,72.36,85.98,74.37,84.49,75.5L84.49,78.95C84.49,85.61,67.2,91,45.87,91ZM83.82,53.75L83.24,56.18C82.36,59.88,82.72,63.77,84.25,67.26L85.74,70.64C85.86,70.91,85.94,71.19,86,71.47C83.16,72.53,80.95,78.05,77.98,78.05C74.06,78.05,73.12,77.38,68.95,77.38C64.78,77.38,61.99,82.24,58.08,82.24C54.18,82.24,50.5,79.47,46.35,79.47C42.18,79.47,38.51,82.24,34.59,82.24C30.67,82.24,27.9,77.38,23.75,77.38C19.58,77.38,18.68,78.05,14.77,78.05C11.43,78.05,8.89,71.74,5.53,71.28L5.48,72.62C5.13,71.44,5.24,70.12,5.89,68.97L7.04,66.9C8.85,63.68,9.38,59.89,8.52,56.3L7.85,53.45C7.45,51.77,7.25,50.05,7.25,48.32L7.25,43.85L84.49,43.85L84.49,48.01C84.49,49.94,84.26,51.87,83.82,53.75ZM14.77,81.05C18.68,81.05,19.58,80.38,23.75,80.38C27.9,80.38,30.67,85.24,34.59,85.24C38.51,85.24,42.18,82.47,46.35,82.47C50.5,82.47,54.18,85.24,58.08,85.24C61.99,85.24,64.78,80.38,68.95,80.38C73.12,80.38,74.06,81.05,77.98,81.05C80.6,81.05,82.63,76.76,85.01,75.02C84.85,75.19,84.68,75.36,84.49,75.5L84.49,78.95C84.49,85.6,67.2,91,45.87,91C24.54,91,7.25,85.6,7.25,78.95L7.25,75.11C7.09,74.99,6.93,74.86,6.78,74.72C9.55,76.26,11.86,81.05,14.77,81.05ZM56.64,36.13C57.71,35.42,59.19,34.97,60.84,34.97C63.33,34.97,65.46,35.99,66.3,37.43C67.35,36.76,68.79,36.34,70.38,36.34C73.33,36.34,75.77,37.78,76.16,39.64C76.92,39.41,77.76,39.28,78.65,39.28C81.87,39.28,84.49,41.71,84.49,43.82C84.49,43.82,84.49,43.83,84.49,43.83C84.47,45.96,80.92,47.04,76.68,47.04C74.86,50.55,66.17,52.14,61.68,49.98C58.66,52.29,50.32,53.24,45.87,50.55C40.88,52.94,33.35,52.35,30.27,49.98C25.52,51.1,18.9,50.55,17.22,47.33C10.67,49.46,7.25,45.55,7.25,43.82C7.25,43.82,7.25,43.81,7.25,43.81C7.26,41.7,9.87,39.28,13.09,39.28C13.82,39.28,14.52,39.37,15.17,39.53C15.73,37.79,18.07,36.49,20.88,36.49C22.5,36.49,23.96,36.92,25.01,37.61C25.77,36.08,27.97,34.97,30.57,34.97C32.4,34.97,34.04,35.52,35.11,36.39C36.01,35.04,38.07,34.09,40.47,34.09C43.01,34.09,45.17,35.15,45.97,36.64C46.77,35.15,48.94,34.09,51.48,34.09C53.72,34.09,55.67,34.92,56.64,36.13ZM56.64,36.13C57.71,35.42,59.19,34.97,60.84,34.97C63.33,34.97,65.46,35.99,66.3,37.43C67.35,36.76,68.79,36.34,70.38,36.34C71.6,36.34,72.73,36.59,73.67,37.01L51.02,44.9L39.21,39.7L53.96,34.46C55.11,34.81,56.05,35.4,56.64,36.13ZM41,37.16C41,35.02,39.1,33.29,36.76,33.29C34.42,33.29,32.52,35.02,32.52,37.16C32.52,39.29,34.42,41.03,36.76,41.03C39.1,41.03,41,39.29,41,37.16ZM46,24.81C49.66,24.81,52.61,22.34,52.61,17.63C52.61,11.71,46.81,0.98,46,1C45.11,1.03,39.43,11.71,39.43,17.63L39.39,17.63C39.39,22.34,42.34,24.81,46,24.81ZM46,24.14C47.83,24.14,49.3,22.36,49.3,18.95C49.3,14.69,46.41,6.95,46,6.97C45.56,6.99,42.72,14.69,42.72,18.95L42.7,18.95C42.7,22.36,44.17,24.14,46,24.14ZM46,22.81C46.75,22.81,47.36,22.08,47.36,20.67C47.36,18.91,46.17,15.71,46,15.72C45.82,15.73,44.65,18.91,44.65,20.67L44.64,20.67C44.64,22.08,45.25,22.81,46,22.81ZM54,31.98C54,30.3,52.84,28.85,51.2,28.48C47.78,27.71,44.22,27.71,40.8,28.48C39.16,28.85,38,30.3,38,31.98L38,41.33C38,43.01,39.16,44.46,40.8,44.83C44.22,45.6,47.78,45.6,51.2,44.83C52.84,44.46,54,43.01,54,41.33ZM9.89,52.45L11.59,53.83C13.13,55.07,15.06,55.73,17.03,55.7C18.91,55.67,20.77,56.03,22.5,56.76L23.8,57.31C26.35,58.39,29.14,58.75,31.88,58.35L32.31,58.29C35.18,57.87,38.11,58.13,40.86,59.06C43.48,59.95,46.3,60,48.95,59.21L50.13,58.87C53.05,58,56.16,57.96,59.1,58.74C61.7,59.44,64.46,59.2,66.9,58.08L67.39,57.86C69.46,56.91,71.69,56.36,73.96,56.26C76.39,56.15,78.73,55.34,80.71,53.94L81.85,53.13C82.97,52.34,84.54,52.6,85.33,53.73C86.13,54.85,85.87,56.41,84.74,57.21L83.61,58.02C80.84,59.98,77.58,61.1,74.19,61.26C72.56,61.33,70.96,61.72,69.48,62.4L68.99,62.62C65.49,64.23,61.53,64.57,57.81,63.58C55.75,63.03,53.59,63.05,51.55,63.66L50.37,64.01C46.74,65.09,42.85,65.01,39.26,63.8C37.26,63.12,35.12,62.93,33.03,63.24L32.6,63.3C28.96,63.83,25.24,63.35,21.85,61.92L20.55,61.37C19.47,60.91,18.3,60.68,17.12,60.7C13.97,60.75,10.9,59.7,8.45,57.72L6.75,56.34C5.68,55.48,5.51,53.9,6.37,52.83C7.24,51.75,8.81,51.59,9.89,52.45ZM5.79,64.01C4.98,65.13,5.23,66.69,6.35,67.5L6.82,67.84C9.54,69.81,12.87,70.75,16.22,70.49C17.98,70.36,19.75,70.74,21.3,71.58L22.02,71.97C24.56,73.35,27.41,74.06,30.3,74.03L32.61,74C34.4,73.98,36.17,74.19,37.9,74.62L39.19,74.95C43.58,76.05,48.17,76.04,52.55,74.92C54.77,74.36,57.07,74.14,59.36,74.27L60.77,74.36C64.49,74.58,68.21,74.04,71.72,72.77L73.36,72.17C74.34,71.82,75.37,71.61,76.42,71.56L77.13,71.52C80.21,71.36,83.15,70.15,85.46,68.09C86.49,67.17,86.58,65.59,85.66,64.56C84.74,63.53,83.16,63.44,82.13,64.36C80.67,65.66,78.82,66.42,76.87,66.52L76.15,66.56C74.62,66.64,73.11,66.95,71.66,67.47L70.02,68.07C67.15,69.1,64.1,69.54,61.06,69.36L59.65,69.28C56.85,69.12,54.04,69.38,51.32,70.08C47.74,70.99,43.99,70.99,40.41,70.1L39.12,69.77C36.97,69.24,34.77,68.98,32.56,69L30.24,69.03C28.21,69.05,26.2,68.55,24.41,67.58L23.69,67.19C21.29,65.88,18.56,65.3,15.84,65.51C13.67,65.68,11.51,65.07,9.75,63.79L9.29,63.45C8.17,62.64,6.61,62.89,5.79,64.01ZM28.36,44C28.36,41.86,26.69,40.13,24.62,40.13C22.56,40.13,20.89,41.86,20.89,44C20.89,46.14,22.56,47.87,24.62,47.87C26.69,47.87,28.36,46.14,28.36,44ZM72.29,44.13C72.29,41.99,70.4,40.26,68.06,40.26C65.72,40.26,63.82,41.99,63.82,44.13C63.82,46.27,65.72,48,68.06,48C70.4,48,72.29,46.27,72.29,44.13ZM81.29,40.13C81.29,37.99,79.4,36.26,77.06,36.26C74.72,36.26,72.82,37.99,72.82,40.13C72.82,42.27,74.72,44,77.06,44C79.4,44,81.29,42.27,81.29,40.13ZM20.89,38.33C20.89,36.19,18.99,34.46,16.65,34.46C14.31,34.46,12.41,36.19,12.41,38.33C12.41,40.46,14.31,42.2,16.65,42.2C18.99,42.2,20.89,40.46,20.89,38.33Z"/></svg>