<svg xmlns="http://www.w3.org/2000/svg" viewBox="0 0 90 90" fill="currentColor"><path d="M83.26,86.21C84.74,88.19,83.33,91,80.86,91L46,91L11.14,91C8.67,91,7.26,88.19,8.74,86.21L46,36.17ZM15.75,86.53L50.33,91L11.09,91C8.63,91,7.22,88.21,8.67,86.22L45.43,36.17ZM25.73,63L24.02,65.33L51.69,66.65C57.92,66.95,63.9,69.24,68.73,73.18L81.65,83.71L66.91,63ZM76.38,58.24C77.82,60.22,76.4,63,73.95,63L18.05,63C15.6,63,14.18,60.22,15.62,58.24L46,16.33ZM21.42,59.66L59.73,63L18.05,63C15.6,63,14.18,60.22,15.62,58.24L46,16.33ZM65.43,31.29C67.01,33.26,65.61,36.17,63.09,36.17L28.91,36.17C26.39,36.17,24.99,33.26,26.57,31.29L46,7ZM32.86,31.59L50.81,36.17L28.91,36.17C26.39,36.17,24.99,33.26,26.57,31.29L46,7ZM31.62,36.17L29.93,38.5L45.32,38.5C53.21,38.5,60.77,41.7,66.26,47.37L75.14,56.52L60.38,36.17ZM34.45,66.93L36.2,62.52L32.27,62.02ZM62.85,66.68L63.55,61.99L59.61,62.38ZM58.33,39.67L60.08,35.25L56.15,34.75ZM59.32,17.85L54.62,18.54L56.15,22.2ZM80.11,74.58L75.42,75.28L76.95,78.94ZM31.8,19.25L34.75,22.97L37.15,19.81ZM79.34,88.75C79.35,88.75,79.35,88.75,79.36,88.75C79.36,88.75,79.37,88.75,79.37,88.75ZM82.19,84.82C82.65,86.39,81.86,88.04,80.43,88.55C80.32,88.58,80.24,88.6,80.13,88.63C79.86,88.72,79.62,88.75,79.36,88.75C78.2,88.75,77.12,87.92,76.77,86.65C76.34,85.08,77.15,83.43,78.59,82.95L78.78,82.9C80.21,82.39,81.73,83.25,82.19,84.82ZM33.33,83.63C34.38,84.81,34.35,86.66,33.24,87.78L33.13,87.9C32.6,88.43,31.91,88.7,31.24,88.7L31.21,88.73C30.46,88.73,29.74,88.4,29.19,87.78C28.13,86.61,28.19,84.72,29.33,83.63L29.41,83.54C30.52,82.43,32.27,82.45,33.33,83.63ZM48.06,83.02C48.07,83.02,48.07,83.02,48.08,83.02C48.08,83.02,48.09,83.02,48.09,83.02ZM65.83,83.02C65.83,83.02,65.84,83.02,65.84,83.02C65.85,83.02,65.85,83.02,65.86,83.02ZM50.91,79.08C51.37,80.65,50.58,82.31,49.15,82.81C49.04,82.84,48.96,82.87,48.85,82.9C48.58,82.99,48.34,83.01,48.08,83.02C46.92,83.01,45.84,82.18,45.49,80.92C45.06,79.35,45.87,77.69,47.3,77.22L47.49,77.16C48.93,76.66,50.45,77.52,50.91,79.08ZM68.67,79.08C69.14,80.65,68.35,82.31,66.91,82.81C66.8,82.84,66.72,82.87,66.62,82.9C66.35,82.99,66.11,83.01,65.84,83.02C64.68,83.01,63.61,82.18,63.26,80.92C62.82,79.35,63.64,77.69,65.07,77.22L65.26,77.16C66.7,76.66,68.21,77.52,68.67,79.08ZM37.62,77.28C37.62,77.28,37.63,77.28,37.63,77.28C37.64,77.28,37.64,77.28,37.65,77.28ZM60.47,71.4L60.69,71.45C62.13,71.9,62.97,73.52,62.57,75.09C62.24,76.39,61.13,77.25,59.96,77.25L59.96,77.28C59.71,77.28,59.47,77.25,59.22,77.16L58.95,77.07C57.51,76.6,56.7,74.97,57.11,73.41C57.54,71.84,59.03,70.95,60.47,71.4ZM40.46,73.35C40.92,74.91,40.14,76.57,38.7,77.07C38.59,77.1,38.51,77.13,38.4,77.16C38.14,77.25,37.9,77.28,37.63,77.28C36.47,77.27,35.4,76.45,35.04,75.18C34.61,73.61,35.42,71.96,36.86,71.48L37.05,71.42C38.49,70.92,40,71.78,40.46,73.35ZM72.93,69.98C73.98,71.16,73.96,73.01,72.84,74.13L72.71,74.28C72.18,74.81,71.48,75.07,70.82,75.07L70.82,75.04C70.07,75.04,69.34,74.72,68.79,74.1C67.73,72.92,67.79,71.04,68.93,69.95L69.01,69.89C70.12,68.77,71.87,68.8,72.93,69.98ZM49.49,71.79C49.5,71.79,49.5,71.79,49.51,71.79C49.51,71.79,49.51,71.79,49.52,71.79ZM52.34,67.86C52.8,69.43,52.01,71.08,50.58,71.59C50.47,71.62,50.39,71.65,50.28,71.68C50.01,71.76,49.77,71.79,49.51,71.79C48.35,71.79,47.27,70.96,46.92,69.69C46.48,68.13,47.3,66.47,48.73,66L48.92,65.94C50.36,65.43,51.88,66.29,52.34,67.86ZM31.15,53.26L31.37,53.32C32.8,53.73,33.66,55.35,33.26,56.94C32.93,58.27,31.85,59.12,30.66,59.12L30.66,59.15C30.42,59.15,30.2,59.12,29.96,59.03L29.66,58.94C28.23,58.5,27.39,56.85,27.79,55.29C28.2,53.73,29.72,52.82,31.15,53.26ZM21.72,52.14L21.94,52.2C23.38,52.65,24.22,54.27,23.82,55.84C23.49,57.14,22.38,58,21.21,58L21.21,58.03C20.96,58.03,20.72,58,20.48,57.91L20.2,57.82C18.76,57.35,17.95,55.72,18.36,54.15C18.79,52.59,20.29,51.7,21.72,52.14ZM53.77,49.61L53.99,49.67C55.42,50.08,56.29,51.7,55.88,53.29C55.56,54.62,54.48,55.47,53.29,55.47L53.29,55.5C53.04,55.5,52.83,55.47,52.58,55.38L52.29,55.29C50.85,54.85,50.01,53.2,50.42,51.64C50.83,50.08,52.34,49.17,53.77,49.61ZM41.3,49.51C41.74,51.08,40.95,52.74,39.52,53.22C39.41,53.25,39.33,53.28,39.22,53.31C38.98,53.4,38.7,53.43,38.46,53.43C37.3,53.43,36.21,52.6,35.86,51.29C35.45,49.72,36.27,48.06,37.7,47.62L37.92,47.56C39.35,47.08,40.87,47.94,41.3,49.51ZM29.89,43.05C30.95,44.23,30.9,46.09,29.78,47.21L29.67,47.33C29.14,47.86,28.44,48.13,27.74,48.13L27.79,48.1C27.04,48.1,26.31,47.78,25.75,47.19C24.69,46,24.74,44.12,25.86,43.02L25.95,42.94C27.07,41.81,28.83,41.87,29.89,43.05ZM41.47,40.19C41.47,40.19,41.47,40.19,41.48,40.19C41.48,40.19,41.49,40.19,41.5,40.19ZM43.62,35.13C44.68,36.34,44.59,38.21,43.48,39.3L43.36,39.42C42.84,39.95,42.17,40.19,41.48,40.19C40.73,40.18,39.98,39.86,39.43,39.24C38.4,38.03,38.45,36.17,39.6,35.07L39.68,34.98C40.83,33.86,42.58,33.95,43.62,35.13ZM51,28.57L51.22,28.63C52.66,29.07,53.5,30.7,53.1,32.27C52.77,33.57,51.66,34.43,50.49,34.43L50.49,34.45C50.24,34.45,50,34.43,49.76,34.34L49.48,34.25C48.04,33.77,47.23,32.15,47.64,30.58C48.07,29.01,49.56,28.13,51,28.57ZM61.04,26.37L61.26,26.43C62.7,26.87,63.54,28.5,63.13,30.07C62.81,31.37,61.69,32.23,60.52,32.23L60.52,32.25C60.28,32.25,60.03,32.23,59.79,32.14L59.52,32.05C58.08,31.57,57.26,29.95,57.67,28.38C58.11,26.81,59.6,25.93,61.04,26.37ZM32.03,30.74C32.04,30.74,32.04,30.74,32.05,30.74C32.05,30.74,32.06,30.74,32.06,30.74ZM34.88,26.8C35.34,28.37,34.55,30.03,33.12,30.53C33.01,30.56,32.93,30.59,32.82,30.62C32.55,30.71,32.31,30.74,32.05,30.74C30.89,30.73,29.81,29.91,29.46,28.64C29.02,27.07,29.84,25.41,31.27,24.94L31.46,24.88C32.9,24.38,34.42,25.24,34.88,26.8ZM28.89,57.03L28.57,56.94C27.05,56.5,26.17,54.85,26.59,53.29C27.02,51.73,28.63,50.82,30.15,51.26L30.38,51.32C31.89,51.73,32.81,53.35,32.38,54.94C32.04,56.27,30.89,57.12,29.63,57.12L29.63,57.15C29.37,57.15,29.14,57.12,28.89,57.03ZM35.13,49.29C34.7,47.72,35.56,46.06,37.08,45.62L37.31,45.56C38.83,45.08,40.44,45.94,40.9,47.51C41.36,49.08,40.52,50.74,39,51.22C38.89,51.25,38.8,51.28,38.69,51.31C38.43,51.4,38.14,51.43,37.89,51.43C36.65,51.43,35.51,50.6,35.13,49.29ZM38.91,37.24C37.82,36.03,37.88,34.17,39.09,33.07L39.18,32.98C40.39,31.86,42.25,31.95,43.34,33.13C44.47,34.34,44.38,36.21,43.2,37.3L43.08,37.42C42.52,37.95,41.81,38.19,41.07,38.19L41.1,38.19C40.3,38.19,39.5,37.87,38.91,37.24ZM52.84,53.38L52.52,53.29C51.01,52.85,50.12,51.2,50.55,49.64C50.98,48.08,52.58,47.17,54.1,47.61L54.33,47.67C55.85,48.08,56.76,49.7,56.33,51.29C55.99,52.62,54.84,53.47,53.58,53.47L53.58,53.5C53.33,53.5,53.1,53.47,52.84,53.38ZM18.67,55.91L18.38,55.82C16.86,55.35,16,53.72,16.43,52.15C16.89,50.59,18.47,49.7,19.99,50.14L20.22,50.2C21.75,50.65,22.64,52.27,22.21,53.84C21.86,55.14,20.68,56,19.45,56L19.45,56.03C19.19,56.03,18.93,56,18.67,55.91ZM45.33,78.92C44.87,77.35,45.73,75.69,47.25,75.22L47.45,75.16C48.97,74.66,50.58,75.52,51.07,77.08C51.55,78.65,50.72,80.31,49.2,80.81C49.09,80.84,49,80.87,48.89,80.9C48.6,80.99,48.34,81.02,48.05,81.02L48.08,81.02C46.85,81.02,45.7,80.19,45.33,78.92ZM24.43,45.18C23.31,44,23.36,42.12,24.55,41.02L24.64,40.93C25.82,39.81,27.69,39.87,28.81,41.05C29.94,42.23,29.88,44.09,28.7,45.21L28.58,45.33C28.01,45.86,27.27,46.13,26.53,46.13L26.59,46.1C25.79,46.1,25.02,45.78,24.43,45.18ZM60.47,30.14L60.18,30.05C58.66,29.57,57.79,27.95,58.23,26.38C58.69,24.81,60.27,23.93,61.79,24.37L62.02,24.43C63.55,24.87,64.44,26.5,64.01,28.07C63.66,29.37,62.48,30.23,61.24,30.23L61.24,30.25C60.99,30.25,60.73,30.23,60.47,30.14ZM46.84,67.69C46.38,66.13,47.24,64.47,48.76,64L48.96,63.94C50.48,63.43,52.09,64.29,52.58,65.86C53.06,67.43,52.23,69.08,50.71,69.59C50.6,69.62,50.51,69.65,50.4,69.68C50.11,69.76,49.85,69.79,49.56,69.79L49.59,69.79C48.36,69.79,47.21,68.97,46.84,67.69ZM59.87,75.16L59.58,75.07C58.06,74.6,57.19,72.97,57.63,71.41C58.09,69.84,59.67,68.95,61.19,69.39L61.42,69.45C62.95,69.9,63.84,71.52,63.41,73.09C63.06,74.39,61.88,75.25,60.65,75.25L60.65,75.28C60.39,75.28,60.13,75.25,59.87,75.16ZM64.14,78.92C63.68,77.35,64.54,75.69,66.06,75.22L66.26,75.16C67.78,74.66,69.39,75.52,69.87,77.08C70.36,78.65,69.53,80.31,68.01,80.81C67.89,80.84,67.81,80.87,67.69,80.9C67.41,80.99,67.15,81.02,66.86,81.02L66.89,81.02C65.66,81.02,64.51,80.19,64.14,78.92ZM34.27,73.18C33.81,71.61,34.67,69.96,36.19,69.48L36.39,69.42C37.91,68.92,39.52,69.78,40.01,71.35C40.5,72.91,39.66,74.57,38.14,75.07C38.03,75.1,37.94,75.13,37.83,75.16C37.54,75.25,37.28,75.28,37,75.28L37.02,75.28C35.79,75.28,34.64,74.45,34.27,73.18ZM28.07,85.78C26.95,84.61,27.01,82.72,28.22,81.63L28.3,81.54C29.48,80.43,31.33,80.45,32.45,81.63C33.57,82.81,33.54,84.67,32.36,85.78L32.25,85.9C31.69,86.43,30.95,86.7,30.25,86.7L30.22,86.73C29.42,86.73,28.66,86.4,28.07,85.78ZM28.36,26.64C27.9,25.07,28.76,23.41,30.28,22.94L30.48,22.88C32,22.38,33.61,23.24,34.09,24.8C34.58,26.37,33.75,28.03,32.23,28.53C32.11,28.56,32.03,28.59,31.91,28.62C31.63,28.71,31.37,28.74,31.08,28.74L31.11,28.74C29.88,28.74,28.73,27.91,28.36,26.64ZM69.99,72.1C68.88,70.92,68.93,69.04,70.14,67.95L70.23,67.89C71.41,66.77,73.26,66.8,74.38,67.98C75.5,69.16,75.47,71.01,74.29,72.13L74.14,72.28C73.58,72.81,72.85,73.07,72.14,73.07L72.14,73.04C71.35,73.04,70.58,72.72,69.99,72.1ZM49.84,32.34L49.56,32.25C48.03,31.77,47.17,30.15,47.6,28.58C48.06,27.01,49.64,26.13,51.17,26.57L51.4,26.63C52.92,27.07,53.81,28.7,53.38,30.27C53.04,31.57,51.86,32.43,50.62,32.43L50.62,32.45C50.36,32.45,50.1,32.43,49.84,32.34ZM78.44,84.65C77.99,83.08,78.85,81.43,80.37,80.96L80.57,80.9C82.09,80.39,83.69,81.25,84.18,82.82C84.67,84.39,83.84,86.04,82.32,86.55C82.2,86.57,82.12,86.6,82,86.63C81.71,86.72,81.46,86.75,81.17,86.75L81.2,86.75C79.96,86.75,78.82,85.92,78.44,84.65ZM48.57,8.96L56.94,8.95L50.16,13.85L52.76,21.8L46,16.87L39.24,21.8L41.84,13.85L35.06,8.95L43.43,8.96L46,1ZM70.22,42.96L78.59,42.95L71.81,47.85L74.41,55.8L67.65,50.87L60.89,55.8L63.49,47.85L56.71,42.95L65.08,42.96L67.65,35ZM18.89,72.14L27.25,72.12L20.47,77.03L23.08,84.98L16.32,80.05L9.56,84.98L12.16,77.03L5.38,72.12L13.75,72.14L16.32,64.18Z"/></svg>