<svg xmlns="http://www.w3.org/2000/svg" viewBox="0 0 90 90"><path d="M41,32C44.6,31.97,63.39,32,63.39,32C71.26,27.78,74.05,21,74,16C73.94,10.04,69.38,5,62,5C46.58,5,41,21.77,41,32Z" fill="currentColor"/><path d="M51,29.55C66.66,24,68.19,13.38,61.29,13.38C54.39,13.38,51,20.81,51,29.55Z" fill="currentColor"/><path d="M50.29,31.99C56.49,31.99,63.34,32,63.39,32C63.46,31.96,63.53,31.92,63.6,31.88L63.01,31.81C59.93,31.44,57.53,29.65,56.2,27.28C54.68,28.09,52.95,28.86,51,29.55C51,27.96,51.11,26.42,51.34,24.95C50.51,27.18,50.14,29.58,50.29,31.99Z" fill="currentColor"/><path d="M62,5C69.38,5,73.94,10.04,74,16C74.03,19.2,72.9,23.13,70.03,26.64C74.07,18.35,71.75,9,64.55,9C58.52,9,54.71,13.91,52.72,19.87C51.57,22.59,51,25.96,51,29.55C51.01,29.55,51.02,29.55,51.02,29.55C51.01,29.94,51,30.34,51,30.73L51,31.99C46.67,31.98,42.51,31.99,41,32C41,21.77,46.58,5,62,5Z" fill="currentColor"/><path d="M51,32C47.4,31.97,28.61,32,28.61,32C20.74,27.78,17.95,21,18,16C18.06,10.04,22.62,5,30,5C45.42,5,51,21.77,51,32Z" fill="currentColor"/><path d="M41,29.55C25.34,24,23.81,13.38,30.71,13.38C37.61,13.38,41,20.81,41,29.55Z" fill="currentColor"/><path d="M41.71,31.99C35.51,31.99,28.66,32,28.61,32C28.54,31.96,28.47,31.92,28.4,31.88L28.99,31.81C32.07,31.44,34.47,29.65,35.8,27.28C37.32,28.09,39.05,28.86,41,29.55C41,27.96,40.89,26.42,40.66,24.95C41.49,27.18,41.86,29.58,41.71,31.99Z" fill="currentColor"/><path d="M30,5C22.62,5,18.06,10.04,18,16C17.97,19.2,19.1,23.13,21.97,26.64C17.93,18.35,20.25,9,27.45,9C33.48,9,37.29,13.91,39.28,19.87C40.43,22.59,41,25.96,41,29.55C40.99,29.55,40.98,29.55,40.98,29.55C40.99,29.94,41,30.34,41,30.73L41,31.99C45.33,31.98,49.49,31.99,51,32C51,21.77,45.42,5,30,5Z" fill="currentColor"/><path d="M81,46L81,78C81,82.42,77.42,86,73,86L19,86C14.58,86,11,82.42,11,78L11,46Z" fill="currentColor"/><path d="M20.1,84.31L59,86L19,86C14.58,86,11,82.42,11,78L11,54L12.46,76.83C12.72,80.91,16.01,84.13,20.1,84.31Z" fill="currentColor"/><path d="M73,86L63,86L73.25,84.73C76.78,84.3,79.59,81.59,80.17,78.09L81,73L81,78C81,82.42,77.42,86,73,86Z" fill="currentColor"/><path d="M81,46L81,50L11,50L11,46Z" fill="currentColor"/><path d="M10,31L82,31C84.21,31,86,32.79,86,35L86,42C86,44.21,84.21,46,82,46L10,46C7.79,46,6,44.21,6,42L6,35C6,32.79,7.79,31,10,31Z" fill="currentColor"/><path d="M7.33,36.02L6,42L6,35C6,32.79,7.79,31,10,31L66,31L11.09,32.89C9.27,32.96,7.72,34.24,7.33,36.02Z" fill="currentColor" opacity="0.5"/><path d="M86,35L86,42L84.62,35.79C84.25,34.12,82.86,32.87,81.16,32.68L66,31L82,31C84.21,31,86,32.79,86,35Z" fill="currentColor" opacity="0.5"/><path d="M54,46L52,31L50,31L50,46Z" fill="currentColor"/><path d="M55,46L53,86L43,86L45,46Z" fill="currentColor"/><path d="M51,31L51,86L41,86L41,31Z" fill="currentColor"/><path d="M51,31L51,33L41,33L41,31Z" fill="currentColor"/></svg>