<svg xmlns="http://www.w3.org/2000/svg" viewBox="0 0 90 90" fill="currentColor"><path d="M84.22,64.88C82.56,71.63,83.27,78.87,87.02,84.72C84.29,84.39,81.49,84.85,78.95,86.07L78.16,86.47C74.15,88.41,69.46,88.41,65.45,86.47L64.66,86.07C60.65,84.13,55.96,84.13,51.95,86.07L51.16,86.47C47.15,88.41,42.46,88.41,38.45,86.47L37.66,86.07C33.65,84.13,28.96,84.13,24.95,86.07L24.16,86.47C20.15,88.41,15.46,88.41,11.45,86.47L10.66,86.07C8.87,85.21,6.96,84.73,5.03,84.64C8.73,78.81,9.43,71.6,7.79,64.88C-3.03,20.59,24.86,5,46,5C67.14,5,95.03,20.59,84.22,64.88ZM84.21,64.88C82.56,71.63,83.27,78.87,87.02,84.72C84.29,84.39,81.49,84.85,78.95,86.07L78.16,86.47C74.14,88.41,69.46,88.41,65.45,86.47L64.66,86.07C60.64,84.13,55.96,84.13,51.95,86.07L51.16,86.47C47.15,88.41,42.46,88.41,38.45,86.47L37.66,86.07C37.37,85.93,37.08,85.81,36.79,85.69C39.27,79.33,44.99,77.2,50.73,73.66C55.17,70.94,61.56,69.18,62.61,60.41C63.29,54.8,66.27,48.13,66.27,38.08C66.27,25.98,61.55,13.48,50.16,5.2C70.58,7.13,94.33,23.45,84.21,64.88ZM67.61,10.63C61.84,8.13,55.68,7,50,7C28.86,7,0.97,22.59,11.79,66.88C13.33,73.22,12.8,79.99,9.63,85.63C8.15,85.04,6.6,84.71,5.03,84.64C8.73,78.81,9.43,71.6,7.79,64.88C-3.03,20.59,24.86,5,46,5C53.01,5,60.77,6.72,67.61,10.63ZM15.07,18.16C23.11,11.02,33.71,8,43,8C64.14,8,92.03,23.59,81.22,67.88C79.82,73.58,80.11,79.63,82.49,84.89C83.98,84.6,85.51,84.54,87.02,84.72C83.27,78.87,82.56,71.63,84.22,64.88C95.03,20.59,67.14,5,46,5C35.5,5,23.33,8.85,15.07,18.16ZM52.63,56.63C52.63,52.97,49.66,50,46,50C42.34,50,39.38,52.97,39.38,56.63C39.38,60.28,42.34,63.25,46,63.25C49.66,63.25,52.63,60.28,52.63,56.63ZM52.63,56.63C52.63,57.21,52.55,57.77,52.41,58.31C51.66,55.47,49.08,53.38,46,53.38C42.92,53.38,40.34,55.47,39.59,58.31C39.45,57.77,39.38,57.21,39.38,56.63C39.38,52.97,42.34,50,46,50C49.66,50,52.63,52.97,52.63,56.63ZM65,50C60.59,50,57,45.07,57,39C57,32.93,59.59,28,64,28C68.41,28,73,32.93,73,39C73,45.07,69.41,50,65,50ZM64,47C60.14,47,57,42.96,57,38C57,33.04,60.14,29,64,29C67.86,29,71,33.04,71,38C71,42.96,67.86,47,64,47ZM71,38C71,38.52,70.96,39.03,70.9,39.52C70.33,35.28,67.45,32.04,64,32.04C60.55,32.04,57.67,35.28,57.1,39.52C57.04,39.03,57,38.52,57,38C57,33.04,60.14,29,64,29C67.86,29,71,33.04,71,38ZM28.02,47C24.17,47,21,42.96,21,38C21,33.04,24.14,29,28.02,29C31.9,29,35,33.04,35,38C35,42.96,31.86,47,28.02,47ZM34.96,38C34.96,38.52,34.93,39.03,34.86,39.52C34.3,35.28,31.42,32.04,27.98,32.04C24.54,32.04,21.66,35.28,21.1,39.52C21.04,39.03,21,38.52,21,38C21,33.04,24.14,29,27.98,29C31.83,29,34.96,33.04,34.96,38Z"/></svg>