<svg xmlns="http://www.w3.org/2000/svg" viewBox="0 0 90 90"><path d="M79.92,80.64C81.25,79.65,81.55,77.9,80.85,76.4L48.68,7.73C47.24,4.66,42.87,4.66,41.43,7.73L9.25,76.4C8.56,77.9,8.86,79.65,10.19,80.64C14.42,83.77,25.31,90,45.05,90C64.78,90,75.68,83.77,79.92,80.64Z" fill="#DAD8D6"/><path d="M18.25,85.13C14.47,83.53,11.83,81.85,10.19,80.64C8.86,79.65,8.56,77.9,9.25,76.4L41.43,7.73C41.99,6.54,42.98,5.82,44.07,5.55L18.32,84.87C18.3,84.96,18.27,85.05,18.25,85.13Z" fill="#F1F1F1"/><path d="M48.68,7.73L80.85,76.4C81.55,77.9,81.25,79.65,79.92,80.64C78.8,81.46,77.22,82.5,75.14,83.58L46.71,5.78C47.53,6.14,48.24,6.79,48.68,7.73Z" fill="#F1F1F1"/><path d="M47.26,89.97C46.54,89.99,45.8,90,45.05,90C25.31,90,14.42,83.77,10.19,80.64C8.86,79.65,8.56,77.9,9.25,76.4L10.28,74.22C21.53,81.46,34.01,86.82,47.26,89.97Z" fill="#ED2456"/><path d="M72.95,77.12L81.21,77.95C81.23,78.99,80.8,79.98,79.92,80.64C78.18,81.92,75.31,83.73,71.17,85.42L69.56,85.23C49.54,82.93,30.79,75.76,14.72,64.74L18.18,57.34C34.27,68.17,53,75.1,72.95,77.12Z" fill="#ED2456"/><path d="M73.28,60.24L77.62,69.5C57.47,66.85,38.67,59.27,22.66,47.8L26.12,40.42C40.06,50.24,56.11,57.08,73.28,60.24Z" fill="#ED2456"/><path d="M63.47,39.3L68.43,49.88C54.71,45.76,41.93,39.27,30.62,30.81L34.07,23.45C43.04,30.05,52.93,35.4,63.47,39.3Z" fill="#ED2456"/><path d="M51,12.68L57.09,25.68C50.57,22.27,44.38,18.28,38.6,13.77L41.43,7.73C41.64,7.28,41.92,6.89,42.24,6.58C45.07,8.74,47.99,10.77,51,12.68Z" fill="#ED2456"/><path d="M19.96,79.83L18.32,84.87C18.3,84.96,18.27,85.05,18.25,85.13C14.47,83.53,11.83,81.85,10.19,80.64C9.44,80.08,9.02,79.29,8.92,78.43C8.9,78.33,8.9,78.24,8.89,78.14C8.88,77.85,8.91,77.56,8.97,77.26C9.01,77.04,9.08,76.82,9.17,76.6C9.2,76.54,9.22,76.47,9.26,76.4L10.28,74.22C13.41,76.24,16.65,78.11,19.96,79.83Z" fill="#FF788A"/><path d="M81.21,77.95C81.23,78.99,80.8,79.98,79.92,80.64C79.51,80.94,79.03,81.27,78.49,81.63C77.57,82.23,76.45,82.9,75.14,83.58L72.77,77.1C72.83,77.11,72.89,77.11,72.95,77.12Z" fill="#FF788A"/><path d="M25.74,62.03L23.14,70.02C20.26,68.37,17.45,66.61,14.72,64.74L18.19,57.34C20.64,59,23.16,60.56,25.74,62.03Z" fill="#FF788A"/><path d="M73.28,60.24L77.62,69.5C74.88,69.14,72.18,68.68,69.5,68.15L66.04,58.67C68.43,59.27,70.84,59.79,73.28,60.24Z" fill="#FF788A"/><path d="M31.58,44.04L28.98,52.03C26.83,50.69,24.72,49.28,22.66,47.8L26.12,40.42C27.9,41.68,29.72,42.89,31.58,44.04Z" fill="#FF788A"/><path d="M63.47,39.3L68.43,49.88C66.28,49.23,64.15,48.53,62.05,47.77L58.19,37.2C59.93,37.94,61.69,38.64,63.47,39.3Z" fill="#FF788A"/><path d="M37.48,25.86L34.88,33.86C33.44,32.87,32.02,31.85,30.62,30.81L34.07,23.45C35.19,24.27,36.33,25.08,37.48,25.86Z" fill="#FF788A"/><path d="M51,12.68L57.09,25.68C55.78,25,54.49,24.29,53.21,23.56L48.68,11.18C49.45,11.69,50.22,12.19,51,12.68Z" fill="#FF788A"/><path d="M43.44,7.48L40.85,15.48C40.09,14.92,39.35,14.35,38.6,13.77L41.43,7.73C41.46,7.67,41.49,7.61,41.53,7.55C41.72,7.17,41.97,6.85,42.24,6.58C42.64,6.88,43.04,7.18,43.44,7.48Z" fill="#FF788A"/><path d="M8,14C4.69,14,2,11.31,2,8C2,4.69,4.69,2,8,2C11.31,2,14,4.69,14,8C14,11.31,11.31,14,8,14Z" fill="#009FD9"/><path d="M19.5,29C17.56,29,15.99,27.43,16,25.49C16.01,23.56,17.56,22.01,19.49,22C21.43,21.99,23,23.56,23,25.5C23,27.43,21.43,29,19.5,29Z" fill="#F7C631"/><path d="M82.99,50C80.23,49.99,78,47.76,78,45C78,42.24,80.24,40,83,40C85.76,40,87.99,42.23,88,44.99C88.01,47.76,85.76,50.01,82.99,50Z" fill="#009FD9"/><path d="M83.63,10.32C83.63,14.91,79.91,18.63,75.32,18.63C70.72,18.63,67,14.91,67,10.32C67,5.72,70.72,2,75.32,2C79.91,2,83.63,5.72,83.63,10.32Z" fill="#F7C631"/><path d="M8,51.84C4.69,51.84,2,49.15,2,45.84C2,42.53,4.68,39.84,7.99,39.84C11.31,39.83,14.01,42.52,14,45.85C13.99,49.16,11.31,51.84,8,51.84Z" fill="#81B64C"/></svg>