<svg xmlns="http://www.w3.org/2000/svg" viewBox="0 0 90 90"><path d="M45.87,91C23.78,91,5.87,85.85,5.87,79.5L5.87,73L85.87,73L85.87,79.5C85.87,85.85,67.96,91,45.87,91Z" fill="currentColor"/><path d="M45.87,88C22.67,88,3.87,82.85,3.87,76.5L3.87,73L87.87,73L87.87,76.5C87.87,82.85,69.06,88,45.87,88Z" fill="currentColor"/><path d="M87.87,72.5C87.87,66.15,69.06,61,45.87,61C22.67,61,3.87,66.15,3.87,72.5C3.87,78.85,22.67,84,45.87,84C69.06,84,87.87,78.85,87.87,72.5Z" fill="currentColor"/><path d="M71.74,67.84L80.68,67.84L81.87,58.3Z" fill="currentColor"/><path d="M47.57,1C63.8,1,77.15,9.41,78.82,27.01C79.06,29.53,78.66,32.07,78,34.52L79,38.21L79,74L16.14,74L16.14,30.83C16.14,10.63,30.21,1,47.57,1Z" fill="currentColor"/><path d="M13.56,70.58L78.31,76.37L68.19,65.42L56.97,70.58L43.74,65.42L45.2,58.66L35.27,70.58L19.63,63.17Z" fill="currentColor" opacity="0.5"/><path d="M44,3C61.12,3,75,11.46,75,29.19L75,75L13,75L13,53.09L14,49.37L13,45.64L13,29.19C13,11.46,26.88,3,44,3Z" fill="currentColor"/><path d="M13.31,75L13,75L13,53.09L13.53,51.11C13.24,64.19,13.31,75,13.31,75Z" fill="currentColor"/><path d="M74.94,27.17C71.79,12.57,58.14,6,43.78,6C27.99,6,15.36,12.08,14.25,31.73C13.96,37.02,13.75,42.6,13.61,47.92L13,45.64L13,29.19C13,11.46,26.88,3,44,3C60.46,3,73.92,10.81,74.94,27.17Z" fill="currentColor"/><path d="M57.77,21C67.17,21,71.16,27.21,71.16,34.67C71.16,42.71,67,46.45,59.77,46.45L59.92,46.45L59.92,59L51.92,59L51.92,21Z" fill="currentColor" opacity="0.5"/><path d="M59.92,29.63L59.92,37.79C61.9,37.79,63.17,36.59,63.17,34.67C63.17,31.01,62.52,29.63,59.92,29.63Z" fill="currentColor" opacity="0.5"/><path d="M49.1,21L49.1,59L40.95,59L40.95,21Z" fill="currentColor" opacity="0.5"/><path d="M27.85,21C34.95,21,39.24,26.54,39.24,34.67C39.24,39.19,37.84,42.71,34.47,44.67L42.68,59C42.68,59,35.08,59,33.67,59L27.99,48.75L27.99,59L20,59L20,21Z" fill="currentColor" opacity="0.5"/><path d="M27.99,29.63L27.99,37.79C29.97,37.79,31.24,36.59,31.24,34.67C31.24,31.01,30.04,29.63,27.99,29.63Z" fill="currentColor" opacity="0.5"/><path d="M58.77,22C65.87,22,70.16,27.21,70.16,33.67C70.16,36.35,69.77,38.56,68.99,40.31C67.33,43.97,62.61,45.45,58.77,45.45L58.92,45.45L58.92,58L52.92,58L52.92,22Z" fill="currentColor"/><path d="M58.92,28.63L58.92,38.79C62.9,38.79,64.17,37.59,64.17,33.67C64.17,30.01,62.96,28.63,58.92,28.63Z" fill="currentColor"/><path d="M48.1,22L48.1,58L41.95,58L41.95,22Z" fill="currentColor"/><path d="M26.85,22C33.95,22,38.24,27.21,38.24,33.67C38.24,36.35,37.85,38.56,37.07,40.31C35.41,43.97,30.69,45.45,26.85,45.45L26.99,45.45L26.99,58L21,58L21,22Z" fill="currentColor"/><path d="M26.99,28.63L26.99,38.79C30.97,38.79,32.24,37.59,32.24,33.67C32.24,30.01,31.04,28.63,26.99,28.63Z" fill="currentColor"/><path d="M56.02,25.29L56.02,41.65L58.92,38.77L58.92,28.63Z" fill="currentColor"/><path d="M56.02,41.65L56.02,54.72L58.91,58L58.91,45.46Z" fill="currentColor"/><path d="M52.92,58L56.02,54.72L58.91,58Z" fill="currentColor"/><path d="M52.92,22L58.77,22C63.95,22,70.5,25.94,66.57,33.24C66.57,26.34,61.58,25.29,58.87,25.29L56.02,25.29Z" fill="currentColor"/><path d="M58.92,45.47C66.9,45.34,70.87,41.14,70.09,32.03C68.72,40.22,64.51,42.44,56.02,41.65Z" fill="currentColor"/><path d="M59.15,25.27C67.68,25.27,68.67,36.69,63.12,37.65C63.63,36.74,64.17,35.74,64.17,33.67C64.17,29.91,62.34,28.63,58.92,28.63L56,25.27Z" fill="currentColor"/><path d="M56.02,25.29L56.02,41.65L58.92,38.77L58.92,28.63Z" fill="currentColor"/><path d="M56.02,41.65L56.02,54.72L58.91,58L58.91,45.46Z" fill="currentColor"/><path d="M52.92,58L56.02,54.72L58.91,58Z" fill="currentColor"/><path d="M45.05,36.45L45.05,54.72L48.1,58L48.1,36.45Z" fill="currentColor"/><path d="M45.05,43.56L45.05,25.28L48.1,22L48.1,43.56Z" fill="currentColor"/><path d="M41.95,58L45.05,54.72L48.1,58Z" fill="currentColor"/><path d="M41.95,22L45.05,25.28L48.1,22Z" fill="currentColor"/><path d="M52.92,22L58.77,22C63.95,22,70.5,25.94,66.57,33.24C66.57,26.34,61.58,25.29,58.87,25.29L56.02,25.29Z" fill="currentColor"/><path d="M58.92,45.47C66.9,45.34,70.87,41.14,70.09,32.03C68.72,40.22,64.51,42.44,56.02,41.65Z" fill="currentColor"/><path d="M27.23,25.27C35.76,25.27,36.75,36.69,31.2,37.65C31.71,36.74,32.24,35.74,32.24,33.67C32.24,29.91,30.42,28.63,26.99,28.63L24.08,25.27Z" fill="currentColor"/><path d="M24.1,25.29L24.1,41.65L26.99,38.77L26.99,28.63Z" fill="currentColor"/><path d="M24.1,41.65L24.1,54.72L26.99,58L26.99,45.46Z" fill="currentColor"/><path d="M21,58L24.1,54.72L26.99,58Z" fill="currentColor"/><path d="M34.12,57.95L36.08,54.79L40.98,57.95Z" fill="currentColor"/><path d="M21,22L26.85,22C32.03,22,38.58,25.94,34.64,33.24C34.64,26.34,29.66,25.29,26.94,25.29L24.1,25.29Z" fill="currentColor"/><path d="M27,45.47C34.98,45.34,38.95,41.14,38.16,32.03C36.8,40.22,32.59,42.44,24.1,41.65Z" fill="currentColor"/><path d="M32.83,44.03L40.98,57.95L36.08,54.79L28.53,41.71Z" fill="currentColor"/><path d="M26.99,45.39L34.12,58L36.08,54.79L28.53,41.71Z" fill="currentColor"/><path d="M63.53,30.55C63.53,30.55,66.57,30.77,66.57,33.97C66.57,37.18,62.88,37.85,62.88,37.85C64.38,36.03,64.56,32.68,63.53,30.55Z" fill="currentColor"/><path d="M31.57,30.55C31.57,30.55,34.61,30.77,34.61,33.97C34.61,37.18,30.92,37.85,30.92,37.85C32.42,36.03,32.6,32.68,31.57,30.55Z" fill="currentColor"/><path d="M11.31,74.84L23.14,74.84L8.1,56.06Z" fill="currentColor"/><path d="M17.42,75.84L26.89,75.84L18.71,58.66Z" fill="currentColor"/><path d="M56.66,74.84L65.1,74.84L62.37,62.06Z" fill="currentColor"/><path d="M81.79,72.64C83.85,72.64,85.56,71.61,87.33,70.67C87.68,71.26,87.87,71.88,87.87,72.5C87.87,78.85,69.06,84,45.87,84C22.67,84,3.87,78.85,3.87,72.5C3.87,71.77,4.12,71.05,4.6,70.36C6.7,71.37,8.7,72.64,11.05,72.64C15.3,72.64,18.28,69,22.81,69C27.33,69,30.34,72.64,34.6,72.64C38.87,72.64,41.85,69,46.39,69C50.9,69,53.9,72.64,58.15,72.64C62.4,72.64,65.44,69,69.97,69C74.51,69,77.53,72.64,81.79,72.64Z" fill="currentColor"/><path d="M19,87.04C19,85.1,17.43,83.54,15.5,83.54C13.57,83.54,12,85.1,12,87.04C12,88.97,13.57,90.54,15.5,90.54C17.43,90.54,19,88.97,19,87.04Z" fill="currentColor"/><path d="M47,88.5C47,86.57,45.43,85,43.5,85C41.57,85,40,86.57,40,88.5C40,90.43,41.57,92,43.5,92C45.43,92,47,90.43,47,88.5Z" fill="currentColor"/><path d="M79,85C79,83.34,77.88,82,76.5,82C75.12,82,74,83.34,74,85C74,86.66,75.12,88,76.5,88C77.88,88,79,86.66,79,85Z" fill="currentColor"/><path d="M62.3,8.59L64.12,5.54L65.06,8.63C65.45,9.91,64.95,11.29,63.83,12.02L58.4,15.56Z" fill="currentColor"/><path d="M59.02,10.44C59.3,8.11,60.91,6.16,63.15,5.44L64.61,4.98L63.35,8.12C63.18,8.53,62.97,8.92,62.72,9.29L58.4,15.56Z" fill="currentColor"/><path d="M74.3,47.51L74.98,50.49L68.7,50.5Z" fill="currentColor"/><path d="M74.3,47.51L74.98,50.49L78.27,44.69Z" fill="currentColor"/><path d="M68.7,50.5L74.98,44.05L74.3,47.51Z" fill="currentColor"/><path d="M78.27,44.69L74.98,44.05L74.3,47.51Z" fill="currentColor"/></svg>