<svg xmlns="http://www.w3.org/2000/svg" viewBox="0 0 90 90" fill="currentColor"><path d="M45.05,1.45C52.25,3.09,58.49,7.54,62.41,13.79L57.4,46L43.09,46L43.09,1ZM58.27,8.66L57.55,10.17L46.02,3.34L43.17,12L43.09,8.99L43.09,1L45.05,1.45C50.08,2.6,54.65,5.11,58.27,8.66ZM60.35,3.81C66.55,7.82,70.9,14.13,72.43,21.35L56.72,49.9L43.26,45L58.65,2.72ZM70.3,15.11L69.11,16.28L60.61,5.92L54.97,13.09L55.92,10.23L58.65,2.72L60.35,3.81C64.68,6.61,68.11,10.54,70.3,15.11ZM73.91,11.26C78.37,17.15,80.3,24.57,79.27,31.87L54.74,53.33L43.77,44.13L72.69,9.66ZM79.4,25.29L77.88,25.98L73.43,13.33L65.68,18.14L67.56,15.78L72.69,9.66L73.91,11.26C77.03,15.38,78.9,20.24,79.4,25.29ZM84.11,22.9C86.28,29.96,85.56,37.59,82.09,44.1L51.7,55.88L44.54,43.48L83.52,20.98ZM84.47,37.96L82.81,38.09L82.95,24.69L74.03,26.55L76.59,24.97L83.52,20.98L84.11,22.9C85.63,27.83,85.73,33.05,84.47,37.96ZM89.71,37.33C89.34,44.7,86.05,51.62,80.57,56.56L47.98,57.23L45.49,43.13L89.81,35.32ZM84.9,51.6L83.29,51.15L88.01,38.61L78.99,37.31L81.94,36.71L89.81,35.32L89.71,37.33C89.45,42.48,87.77,47.42,84.9,51.6ZM90.04,52.8C87.17,59.6,81.71,64.98,74.87,67.75L44.02,57.23L46.51,43.13L90.82,50.95ZM80.64,64.57L79.28,63.6L88.01,53.43L79.97,49.11L82.95,49.56L90.82,50.95L90.04,52.8C88.03,57.56,84.76,61.61,80.64,64.57ZM85.06,67.46C80.03,72.87,73.06,76.05,65.69,76.31L40.3,55.88L47.46,43.48L86.43,65.98ZM72.2,75.3L71.25,73.92L82.93,67.34L76.86,60.55L79.51,61.98L86.43,65.98L85.06,67.46C81.55,71.24,77.08,73.93,72.2,75.3ZM75.36,79.52C68.79,82.89,61.15,83.5,54.13,81.22L37.26,53.33L48.23,44.13L77.16,78.6ZM60.6,82.49L60.18,80.87L73.41,78.69L70.02,70.22L72.02,72.48L77.16,78.6L75.36,79.52C70.77,81.87,65.66,82.88,60.6,82.49ZM62.13,87.54C54.8,88.46,47.42,86.42,41.6,81.87L35.28,49.9L48.74,45L64.13,87.29ZM47.24,85.28L47.4,83.62L60.57,86.09L60.29,76.98L61.39,79.78L64.13,87.29L62.13,87.54C57.01,88.18,51.86,87.38,47.24,85.28ZM46.95,90.55C39.75,88.91,33.51,84.46,29.59,78.21L34.6,46L48.91,46L48.91,91ZM33.73,83.34L34.45,81.83L45.98,88.66L48.83,80L48.91,83.01L48.91,91L46.95,90.55C41.92,89.4,37.35,86.89,33.73,83.34ZM31.65,88.19C25.45,84.18,21.1,77.87,19.57,70.65L35.28,42.1L48.74,47L33.35,89.28ZM21.7,76.89L22.89,75.72L31.39,86.08L37.03,78.91L36.08,81.77L33.35,89.28L31.65,88.19C27.32,85.39,23.89,81.46,21.7,76.89ZM18.09,80.74C13.63,74.85,11.71,67.44,12.73,60.13L37.26,38.67L48.23,47.87L19.31,82.34ZM12.6,66.71L14.12,66.02L18.57,78.67L26.32,73.86L24.44,76.22L19.31,82.34L18.09,80.74C14.97,76.62,13.1,71.76,12.6,66.71ZM7.89,69.1C5.72,62.04,6.44,54.41,9.91,47.9L40.3,36.12L47.46,48.52L8.49,71.02ZM7.53,54.04L9.19,53.91L9.05,67.31L17.98,65.45L15.41,67.03L8.49,71.02L7.89,69.1C6.37,64.17,6.27,58.95,7.53,54.04ZM2.29,54.67C2.66,47.3,5.95,40.38,11.44,35.44L44.02,34.77L46.51,48.87L2.19,56.68ZM7.1,40.4L8.71,40.85L3.99,53.39L13.01,54.69L10.06,55.29L2.19,56.68L2.29,54.67C2.55,49.52,4.23,44.58,7.1,40.4ZM1.96,39.2C4.83,32.4,10.29,27.02,17.13,24.25L47.98,34.77L45.49,48.87L1.18,41.05ZM11.36,27.43L12.72,28.4L3.99,38.57L12.03,42.89L9.05,42.44L1.18,41.05L1.96,39.2C3.97,34.44,7.24,30.39,11.36,27.43ZM6.94,24.54C11.97,19.13,18.94,15.95,26.31,15.69L51.7,36.12L44.54,48.52L5.57,26.02ZM19.8,16.7L20.75,18.08L9.07,24.66L15.14,31.46L12.49,30.02L5.57,26.02L6.94,24.54C10.45,20.76,14.92,18.07,19.8,16.7ZM16.64,12.48C23.21,9.11,30.85,8.5,37.87,10.78L54.74,38.67L43.77,47.87L14.84,13.4ZM31.4,9.51L31.82,11.13L18.59,13.31L21.98,21.78L19.98,19.52L14.84,13.4L16.64,12.48C21.23,10.13,26.34,9.12,31.4,9.51ZM29.87,4.46C37.2,3.54,44.58,5.58,50.4,10.13L56.72,42.1L43.26,47L27.87,4.71ZM44.76,6.72L44.6,8.38L31.43,5.91L31.71,15.02L30.61,12.22L27.87,4.71L29.87,4.46C34.99,3.82,40.14,4.62,44.76,6.72ZM46,7.51C37.43,7.47,28.72,14.8,28.72,27.26C28.72,49.39,19.5,54.03,19.5,64.15C19.5,72.62,36.08,76.5,45.95,76.5C55.83,76.5,72.5,72.62,72.5,64.15C72.5,54.16,62.48,46.63,62.48,27.26C62.48,14.55,54.3,7.55,46,7.51ZM12.92,68.04L14.67,73.36L10.73,73.96ZM78.29,71.03L79.37,76.16L73.59,74.77ZM84.58,30.08L83.52,25.91L87.45,25.3ZM5.31,35.12L2.72,30.74L7.14,31.27ZM14.44,20.93L11.85,16.56L18.59,17.41ZM53.45,14.19C53.45,12.07,60.55,7.51,65.86,7.51C66.51,7.51,66.77,7.61,66.77,7.61C67.03,8.33,64.19,12.82,64.19,14.29C64.19,15.65,67,19.5,66.47,20.83C66.47,20.83,66.08,20.83,65.86,20.83L65.86,20.87C60.51,20.87,53.45,16.31,53.45,14.19ZM26.09,27.38C18.83,27.38,18.44,21.48,18.44,14.19C18.44,6.89,18.8,1.03,26.06,1.03C33.32,1.03,44.98,6.93,44.98,14.22L45.01,14.19C45.01,21.48,33.35,27.38,26.09,27.38ZM65.82,27.38C73.09,27.38,73.48,21.48,73.48,14.19C73.48,6.89,73.09,1,65.82,1C58.56,1,46.9,6.89,46.9,14.19C46.9,21.48,58.56,27.38,65.82,27.38ZM23.24,3.42C26.02,-0.46,41.35,6.38,41.35,10.5C41.35,15.86,18.95,9.42,23.24,3.42ZM69.23,3.42C66.45,-0.46,51.12,6.38,51.12,10.5C51.12,15.86,73.52,9.42,69.23,3.42ZM44.97,13.87C44.98,13.98,44.98,14.1,44.98,14.22L45.01,14.19C45.01,21.48,33.35,27.38,26.09,27.38C18.83,27.38,18.44,21.48,18.44,14.19C18.44,11.42,18.49,8.86,18.95,6.75C22.91,14.16,38.35,16.15,44.97,13.87ZM46.94,13.87C46.94,13.98,46.93,14.1,46.93,14.22L46.9,14.19C46.9,21.48,58.56,27.38,65.82,27.38C73.09,27.38,73.48,21.48,73.48,14.19C73.48,11.42,73.42,8.86,72.96,6.75C69.01,14.16,53.57,16.15,46.94,13.87ZM83.43,35.29L81.34,42.66L83.43,50.99C69.71,48.78,57.39,41.33,49.06,30.21L46,26.12L42.94,30.21C34.61,41.33,22.29,48.78,8.57,50.99L10.86,42.56L8.57,35.29C19.75,33.5,30.06,28.21,38.04,20.18L46,12.17L53.96,20.18C61.93,28.21,72.25,33.5,83.43,35.29ZM86.43,29.29L84.18,36.66L86.43,44.99C71.57,42.77,58.09,35.07,48.65,23.39L46,20.12L43.35,23.39C33.91,35.07,20.43,42.77,5.57,44.99L8.04,36.56L5.57,29.29C17.67,27.5,28.94,22.07,37.88,13.73L46,6.17L54.12,13.73C63.06,22.07,74.33,27.5,86.43,29.29ZM66.5,22.64C67.24,30.84,70.48,36.63,73.44,41.53C63.81,37.77,55.24,31.55,48.65,23.39L46,20.12L43.35,23.39C36.78,31.52,28.24,37.73,18.64,41.5C21.21,37.13,23.86,31.69,24.51,23.16C29.35,20.65,33.85,17.49,37.88,13.73L46,6.17L54.12,13.73C57.87,17.23,62.04,20.22,66.5,22.64ZM45.96,6.31C43.09,6.31,40.66,8.39,40.43,11.88L51.48,11.88C51.27,8.39,48.84,6.31,45.96,6.31ZM45.96,7.89C43.09,7.89,40.66,9.38,40.43,11.88L51.48,11.88C51.27,9.38,48.84,7.89,45.96,7.89ZM45.96,11.05C36.41,11.02,26.7,17.3,26.7,27.99C26.7,46.97,16.43,50.95,16.43,59.63C16.43,66.89,34.91,70.22,45.91,70.22C56.92,70.22,75.49,66.89,75.49,59.63C75.49,51.06,64.32,44.6,64.32,27.99C64.32,17.09,55.21,11.08,45.96,11.05ZM64.32,27.99C64.32,44.6,75.49,51.06,75.49,59.63C75.49,61.16,74.67,62.51,73.27,63.7L62.69,43.06C61.55,40.83,60.96,38.36,60.96,35.86L60.96,25.66C60.96,18.39,55.65,12.38,48.74,11.24C56.95,12.34,64.32,18.19,64.32,27.99ZM30.96,25.66L30.96,35.86C30.96,38.36,30.36,40.83,29.22,43.06L18.65,63.7C17.25,62.51,16.43,61.16,16.43,59.63C16.43,50.95,26.7,46.97,26.7,27.99C26.7,18.08,35.05,11.95,43.88,11.14C36.62,11.98,30.96,18.14,30.96,25.66ZM69.97,58.05C69.97,52.18,61.04,48.18,42.81,47.43C24.57,46.68,15.65,52.18,15.65,58.05C15.65,63.92,27.81,68.68,42.81,68.68C57.81,68.68,69.97,63.92,69.97,58.05ZM75.49,59.63C75.49,53.76,62.27,49.01,45.97,49.01C29.66,49.01,16.44,53.76,16.44,59.63C16.44,65.5,29.66,70.26,45.97,70.26C62.27,70.26,75.49,65.5,75.49,59.63ZM22.45,59.92C26.7,54.84,37.81,53.8,45.91,53.8C54.01,53.8,65.11,54.83,69.37,59.92C65.11,65.11,54.11,66.15,45.91,66.15C37.81,66.26,26.7,65.02,22.45,59.92ZM22.45,59.92C26.7,54.84,37.81,53.8,45.91,53.8C54.01,53.8,65.11,54.83,69.37,59.92C65.11,65.11,54.11,66.15,45.91,66.15C37.81,66.26,26.7,65.02,22.45,59.92ZM66.31,57.46C61.06,60.68,52.57,61.42,45.91,61.42C39.35,61.5,30.81,60.65,25.54,57.45C30.81,54.48,39.35,53.8,45.91,53.8C52.49,53.8,61.04,54.48,66.31,57.46ZM52.27,54.03L52.27,57.63L39.64,57.63L39.64,54.02C41.81,53.86,43.95,53.8,45.91,53.8C47.9,53.8,50.07,53.86,52.27,54.03ZM39.64,57.71C39.64,61.03,42.44,63.63,45.96,63.63C49.48,63.63,52.27,61.03,52.27,57.71C52.27,57.24,50.87,56.88,45.96,56.88C44,56.88,39.64,57,39.64,57.71ZM46.38,63.62C46.24,63.63,46.1,63.63,45.96,63.63C42.44,63.63,39.64,61.03,39.64,57.71C39.64,57.44,40.3,57.25,41.23,57.13C41.22,57.32,41.22,57.51,41.22,57.71C41.22,60.89,43.48,63.42,46.38,63.62Z"/></svg>