<svg xmlns="http://www.w3.org/2000/svg" viewBox="0 0 90 90"><path d="M36.56,6.16L39.37,0C52.04,3.08,47.81,18.48,56.95,23.05L32.36,23.05C33.74,18.49,47.57,16.55,36.56,6.16Z" fill="#5D9948"/><path d="M50.09,12.77C51.51,16.98,52.95,21.05,56.95,23.05L32.36,23.05C33.4,19.62,41.46,17.67,40.73,12.51C42.08,12.18,43.49,12.01,44.94,12.01C46.73,12.01,48.46,12.28,50.09,12.77Z" fill="#45753C"/><path d="M72.28,20.2C82.94,22.66,90,27.51,90,40.82C90,63.4,85.39,81.65,70.09,80.19C64.8,89.23,54.52,92.25,45.43,85.52L45,85.19L44.57,85.52C35.48,92.25,25.2,89.23,19.91,80.19C4.61,81.65,0,63.4,0,40.82C0,27.51,7.06,22.66,17.72,20.2C21.21,10.84,40.17,10.13,45,18.51C49.83,10.13,68.79,10.84,72.28,20.2Z" fill="#FA742C"/><path d="M20.22,21.69C20.5,23.19,21.34,24.52,22.56,25.42L26.73,28.47C30.25,31.04,32.34,35.15,32.34,39.51L32.34,42.42C32.34,45.52,30.68,48.39,27.99,49.94C22.21,53.26,15,49.09,15,42.42L15,38L19.94,20.19Z" fill="#DC501D" opacity="0.5"/><path d="M70.05,21.69C69.78,23.19,68.94,24.52,67.71,25.42L63.57,28.45C60.03,31.04,57.94,35.16,57.94,39.54L57.94,42.54C57.94,45.57,59.55,48.38,62.17,49.91C67.86,53.23,75,49.13,75,42.54L75,39.34C75,38.45,74.89,37.57,74.66,36.71L70.33,20.19Z" fill="#DC501D" opacity="0.5"/><path d="M51.66,88.62C49.57,88.04,47.47,87.03,45.43,85.52L45,85.19C42.87,86.85,40.67,87.96,38.47,88.58C41.53,87.31,44.07,84.69,45,80.77C45.95,84.75,48.55,87.37,51.66,88.62Z" fill="#FFA459"/><path d="M70.07,80.21C68.01,83.73,65.19,86.33,61.98,87.8C64.12,86.5,65.87,84.42,66.78,81.54L68.82,75.03L73.41,62L71.33,75.03Z" fill="#FFA459"/><path d="M23.15,81.56C24.01,84.28,25.63,86.29,27.62,87.61C24.58,86.11,21.91,83.58,19.93,80.22L18.67,75.03L16.85,62L21.09,75.03Z" fill="#FFA459"/><path d="M19.97,20.11L15,38L15.89,29.38C16.21,26.27,16.82,23.19,17.71,20.2L17.72,20.2C18.66,17.67,20.73,15.78,23.35,14.52C21.77,16,20.58,17.92,19.97,20.11Z" fill="#FFA459"/><path d="M72.28,20.2L72.29,20.2C73.18,23.18,73.79,26.25,74.12,29.35L75,37.84L69.8,19.52C69.29,17.72,68.39,16.12,67.2,14.8C69.56,16.05,71.41,17.85,72.28,20.2Z" fill="#FFA459"/><path d="M45,18.51C45.98,16.8,47.55,15.48,49.45,14.52C47.96,16.09,46.89,18.06,46.41,20.29L45,26.84L43.49,20.54C42.86,17.91,41.41,15.66,39.44,14.02C41.84,14.99,43.83,16.48,45,18.51Z" fill="#FFA459"/><path d="M0,41.64C0,24.57,4.18,23.5,13.92,21.24C1.79,27.01,3,33.93,3,42.01C3,55.93,4.22,77.13,18.6,80.27C4.34,80.57,0,63.1,0,41.64Z" fill="#FFA459"/><path d="M90,41.64C90,24.57,85.82,23.49,76.09,21.22C88.22,27,87,33.93,87,42.01C87,55.93,85.78,77.13,71.4,80.27C85.66,80.57,90,63.1,90,41.64Z" fill="#FFA459"/><path d="M26.12,52.44C21.42,52.44,17.53,49.32,17.53,44.92C17.53,39.19,21.37,34.52,26.12,34.52C30.87,34.52,34.67,39.19,34.67,44.92C34.67,49.32,30.83,52.44,26.12,52.44Z" fill="#FFA459"/><path d="M64.77,52.44C60.07,52.44,56.18,49.32,56.18,44.92C56.18,39.19,60.02,34.52,64.77,34.52C69.52,34.52,73.32,39.19,73.32,44.92C73.32,49.32,69.48,52.44,64.77,52.44Z" fill="#FFA459"/><path d="M26.12,50.24C22.15,50.24,18.87,45.58,18.87,41.2C18.87,36.82,22.11,33.26,26.12,33.26C30.13,33.26,33.33,36.82,33.33,41.2C33.33,45.58,30.09,50.24,26.12,50.24Z" fill="#312E2B"/><path d="M64.97,50.24C61,50.24,57.75,45.58,57.75,41.2C57.75,36.82,61,33.26,64.97,33.26C68.94,33.26,72.18,36.82,72.18,41.2C72.18,45.58,68.94,50.24,64.97,50.24Z" fill="#312E2B"/><path d="M45,44.81L50.04,54.47L39.96,54.47Z" fill="#312E2B"/><path d="M50.04,54.47L47.43,55.71C45.9,56.45,44.11,56.45,42.57,55.71L39.96,54.47Z" fill="#FFA459"/><path d="M64.47,60.04L69.69,61.12L65.47,72.54L61.44,71.55L55.24,79.22L51.62,75.23L45,81.67L38.38,75.23L34.76,79.22L28.56,71.55L24.53,72.54L20.31,61.12L25.53,60.04L30.27,63.2L34.76,59.57L40.38,63.43L45,59.7L49.62,63.43L55.24,59.57L59.73,63.2Z" fill="#FFA459"/><path d="M62.26,61.08L64.47,59.94L69.69,60.77L65.47,69.61L63.97,69.32C62.38,69.02,60.75,69.5,59.58,70.62L55.24,74.77L54.67,74.29C52.89,72.77,50.29,72.69,48.42,74.1L45,76.67L41.58,74.1C39.71,72.69,37.11,72.77,35.33,74.29L34.76,74.77L30.42,70.62C29.25,69.5,27.62,69.02,26.03,69.32L24.53,69.61L20.31,60.77L25.53,59.94L27.74,61.08C29.31,61.88,31.18,61.81,32.68,60.87L34.76,59.57L36.5,60.8C38.67,62.35,41.68,61.91,43.32,59.81L45,57.67L46.68,59.81C48.32,61.91,51.33,62.35,53.5,60.8L55.24,59.57L57.32,60.87C58.81,61.81,60.69,61.88,62.26,61.08Z" fill="#312E2B"/></svg>