<svg xmlns="http://www.w3.org/2000/svg" viewBox="0 0 90 90"><path d="M88,60.24C88,96.92,2,94.96,2,60.24C2,54.41,4.64,49.13,8.8,44.95L81.23,44.95L81.2,44.95C85.36,49.13,88,54.41,88,60.24Z" fill="#CA9350"/><path d="M84.87,60.27C84.87,68.12,81.3,75.16,75.64,79.98C58.65,90.07,28.41,89.17,12.48,78.22C7.92,73.51,5.13,67.21,5.13,60.27C5.13,54.52,7.17,49.26,10.46,44.95L79.54,44.95C82.83,49.26,84.87,54.52,84.87,60.27Z" fill="#6A4632"/><path d="M42.38,65.63C53.91,75.26,50.19,84.4,36.8,86.48C27.57,85.39,18.88,82.61,12.48,78.22C7.92,73.51,5.13,67.21,5.13,60.27C5.13,56.48,6.02,52.9,7.56,49.67C9.31,56.38,20.9,62.33,42.38,65.63Z" fill="#9D6C3E"/><path d="M46.63,58.04C63.55,57.84,85,57.29,85,37.39C85,16.38,5,16.38,5,37.39C5,58.34,29.36,58.24,46.63,58.04Z" fill="#CA9350"/><path d="M70.49,24.92C77.4,27.76,82,32.01,82,37.68C82,45.34,79.49,50.35,75.55,53.64C67.76,57.69,56.44,57.92,46.63,58.04C36.21,58.16,23.21,58.24,14.54,53.69C10.55,50.35,8,45.31,8,37.68C8,32.01,12.6,27.76,19.51,24.92C33.96,20.54,56.03,20.54,70.49,24.92Z" fill="#9D6C3E"/><path d="M45,44.66C27.26,44.66,12.88,40.89,12.88,36.24C12.88,31.59,27.26,13.82,45,13.82C62.74,13.82,77.12,31.59,77.12,36.24C77.12,40.89,62.74,44.66,45,44.66Z" fill="#F7C631"/><path d="M44.56,16.76C42.15,12.41,42.57,7.57,45.5,5.95L49.75,3.59L58.48,19.33L54.23,21.69C51.3,23.32,46.97,21.11,44.56,16.76Z" fill="#B27314"/><path d="M46.27,10.09C44.97,10.82,43.91,11.78,43.15,12.85C42.62,9.82,43.44,7.09,45.5,5.95L49.75,3.59L51.69,7.09Z" fill="#CF8D1B"/><path d="M49.45,21.59C50.33,21.39,51.23,21.07,52.09,20.59L57.51,17.58L58.48,19.33L54.23,21.69C52.83,22.46,51.12,22.37,49.45,21.59Z" fill="#CF8D1B"/><path d="M48.81,14.4C46.4,10.06,46.82,5.21,49.75,3.59C52.68,1.96,57.01,4.17,59.42,8.52C61.83,12.87,61.41,17.71,58.48,19.33C55.55,20.96,51.22,18.75,48.81,14.4Z" fill="#F7C631"/><path d="M59.88,9.41C57.4,5.64,53.45,3.82,50.72,5.34C47.99,6.85,47.44,11.16,49.33,15.26C49.15,14.98,48.97,14.7,48.81,14.4C46.4,10.06,46.82,5.21,49.75,3.59C52.68,1.96,57.01,4.17,59.42,8.52C59.59,8.81,59.74,9.11,59.88,9.41Z" fill="#FCE26A"/><path d="M47.09,32.58C42.12,32.58,38.09,29.86,38.09,26.51L38.09,21.65L56.09,21.65L56.09,26.51C56.09,29.86,52.07,32.58,47.09,32.58Z" fill="#B27314"/><path d="M42.09,27.85C42.09,29.34,42.42,30.73,42.99,31.91C40.08,30.9,38.09,28.86,38.09,26.51L38.09,21.65L42.09,21.65Z" fill="#CF8D1B"/><path d="M53.69,30.64C53.95,29.77,54.09,28.83,54.09,27.85L54.09,21.65L56.09,21.65L56.09,26.51C56.09,28.11,55.18,29.55,53.69,30.64Z" fill="#CF8D1B"/><path d="M47.09,27.72C42.12,27.72,38.09,25,38.09,21.65C38.09,18.3,42.12,15.58,47.09,15.58C52.07,15.58,56.09,18.3,56.09,21.65C56.09,25,52.07,27.72,47.09,27.72Z" fill="#FCE26A"/><path d="M48.09,15.62C43.59,15.95,40.09,18.52,40.09,21.65C40.09,24.77,43.59,27.34,48.09,27.68C47.77,27.7,47.43,27.72,47.09,27.72C42.12,27.72,38.09,25,38.09,21.65C38.09,18.3,42.12,15.58,47.09,15.58C47.43,15.58,47.77,15.59,48.09,15.62Z" fill="#FFFFC7"/><path d="M66.6,29.54C71.18,27.63,73.85,23.56,72.56,20.47L70.68,15.99L54.08,22.93L55.95,27.42C57.25,30.51,62.01,31.46,66.6,29.54Z" fill="#B27314"/><path d="M69.38,23.25C69.96,24.62,70.19,26.03,70.13,27.34C72.42,25.29,73.47,22.64,72.56,20.47L70.68,15.99L66.99,17.53Z" fill="#CF8D1B"/><path d="M59.76,30.3C59.19,29.6,58.69,28.78,58.31,27.88L55.92,22.16L54.08,22.93L55.95,27.42C56.57,28.89,57.97,29.87,59.76,30.3Z" fill="#CF8D1B"/><path d="M64.72,25.06C69.31,23.14,71.98,19.08,70.68,15.99C69.39,12.89,64.63,11.94,60.04,13.86C55.45,15.78,52.78,19.84,54.08,22.93C55.37,26.02,60.14,26.97,64.72,25.06Z" fill="#F7C631"/><path d="M59.13,14.28C63.41,12.85,67.63,13.88,68.84,16.76C70.04,19.64,67.81,23.36,63.78,25.41C64.1,25.3,64.41,25.19,64.72,25.06C69.31,23.14,71.98,19.08,70.68,15.99C69.39,12.89,64.63,11.94,60.04,13.86C59.73,13.99,59.43,14.13,59.13,14.28Z" fill="#FCE26A"/><path d="M31.41,30.13C26.65,31.56,22.01,30.12,21.04,26.91L19.64,22.25L36.88,17.06L38.28,21.72C39.25,24.93,36.17,28.69,31.41,30.13Z" fill="#B27314"/><path d="M25.26,27.03C25.69,28.46,26.4,29.7,27.29,30.67C24.21,30.54,21.72,29.16,21.04,26.91L19.64,22.25L23.47,21.1Z" fill="#CF8D1B"/><path d="M37.17,26.37C37.17,25.46,37.03,24.52,36.75,23.58L34.96,17.64L36.88,17.06L38.28,21.72C38.74,23.25,38.28,24.9,37.17,26.37Z" fill="#CF8D1B"/><path d="M30.01,25.47C25.25,26.9,20.61,25.46,19.64,22.25C18.68,19.04,21.75,15.28,26.51,13.85C31.27,12.41,35.91,13.85,36.88,17.06C37.84,20.27,34.77,24.04,30.01,25.47Z" fill="#F7C631"/><path d="M27.48,13.59C23.27,15.21,20.66,18.68,21.56,21.67C22.46,24.66,26.55,26.12,30.96,25.14C30.65,25.26,30.33,25.37,30.01,25.47C25.25,26.9,20.61,25.46,19.64,22.25C18.68,19.04,21.75,15.28,26.51,13.85C26.84,13.75,27.16,13.67,27.48,13.59Z" fill="#FCE26A"/><path d="M22.96,39.37C18.25,40.95,13.57,39.67,12.49,36.49L10.94,31.88L28,26.13L29.55,30.74C30.62,33.91,27.67,37.78,22.96,39.37Z" fill="#B27314"/><path d="M16.71,36.48C17.19,37.89,17.94,39.11,18.86,40.04C15.78,40.02,13.25,38.72,12.49,36.49L10.94,31.88L14.73,30.61Z" fill="#CF8D1B"/><path d="M28.59,35.42C28.56,34.51,28.4,33.58,28.08,32.64L26.1,26.77L28,26.13L29.55,30.74C30.06,32.25,29.66,33.91,28.59,35.42Z" fill="#CF8D1B"/><path d="M21.41,34.76C16.7,36.35,12.01,35.06,10.94,31.88C9.87,28.71,12.82,24.85,17.53,23.26C22.24,21.67,26.92,22.95,28,26.13C29.07,29.31,26.12,33.17,21.41,34.76Z" fill="#FCE26A"/><path d="M18.49,22.97C14.33,24.73,11.84,28.28,12.83,31.24C13.83,34.2,17.97,35.52,22.34,34.4C22.04,34.53,21.73,34.65,21.41,34.76C16.7,36.35,12.01,35.06,10.94,31.88C9.87,28.71,12.82,24.85,17.53,23.26C17.85,23.15,18.17,23.06,18.49,22.97Z" fill="#FFFFC7"/><path d="M28.85,42.24C24.53,39.77,22.38,35.42,24.04,32.51L26.45,28.28L42.09,37.21L39.67,41.43C38.01,44.34,33.17,44.7,28.85,42.24Z" fill="#B27314"/><path d="M26.85,35.65C26.12,36.94,25.71,38.32,25.62,39.62C23.59,37.31,22.88,34.55,24.04,32.51L26.45,28.28L29.93,30.27Z" fill="#CF8D1B"/><path d="M35.54,43.82C36.19,43.2,36.79,42.46,37.28,41.6L40.35,36.22L42.09,37.21L39.67,41.43C38.88,42.82,37.37,43.62,35.54,43.82Z" fill="#CF8D1B"/><path d="M31.26,38.02C26.94,35.55,24.79,31.19,26.45,28.28C28.12,25.37,32.96,25.01,37.28,27.48C41.6,29.94,43.75,34.3,42.09,37.21C40.42,40.12,35.58,40.48,31.26,38.02Z" fill="#F7C631"/><path d="M38.13,28.01C34.05,26.07,29.74,26.56,28.19,29.28C26.64,31.99,28.41,35.96,32.15,38.48C31.85,38.34,31.55,38.18,31.26,38.02C26.94,35.55,24.79,31.19,26.45,28.28C28.12,25.37,32.96,25.01,37.28,27.48C37.57,27.64,37.86,27.82,38.13,28.01Z" fill="#FCE26A"/><path d="M70,40.52C65.03,40.52,61,37.8,61,34.45L61,29.59L79,29.59L79,34.45C79,37.8,74.97,40.52,70,40.52Z" fill="#B27314"/><path d="M65,35.78C65,37.28,65.33,38.67,65.9,39.85C62.99,38.84,61,36.8,61,34.45L61,29.59L65,29.59Z" fill="#CF8D1B"/><path d="M76.59,38.58C76.86,37.71,77,36.77,77,35.78L77,29.59L79,29.59L79,34.45C79,36.04,78.09,37.49,76.59,38.58Z" fill="#CF8D1B"/><path d="M70,35.65C65.03,35.65,61,32.94,61,29.59C61,26.23,65.03,23.52,70,23.52C74.97,23.52,79,26.23,79,29.59C79,32.94,74.97,35.65,70,35.65Z" fill="#F7C631"/><path d="M71,23.56C66.5,23.89,63,26.46,63,29.59C63,32.71,66.5,35.28,71,35.62C70.67,35.64,70.34,35.65,70,35.65C65.03,35.65,61,32.94,61,29.59C61,26.23,65.03,23.52,70,23.52C70.34,23.52,70.67,23.53,71,23.56Z" fill="#FCE26A"/><path d="M24.06,11.72L37.24,6.06L25.75,14.65L31.41,27.83L22.82,16.34L9.64,22L21.13,13.41L15.48,0.23Z" fill="#FFFFC7"/></svg>