<svg xmlns="http://www.w3.org/2000/svg" viewBox="0 0 90 90"><path d="M44.87,90C22.78,90,4.87,84.85,4.87,78.5L4.87,72L84.87,72L84.87,78.5C84.87,84.85,66.96,90,44.87,90Z" fill="#6A4632"/><path d="M44.87,87C21.67,87,2.87,81.85,2.87,75.5L2.87,72L86.87,72L86.87,75.5C86.87,81.85,68.06,87,44.87,87Z" fill="#45753C"/><path d="M86.87,71.5C86.87,65.15,68.06,60,44.87,60C21.67,60,2.87,65.15,2.87,71.5C2.87,77.85,21.67,83,44.87,83C68.06,83,86.87,77.85,86.87,71.5Z" fill="#5D9948"/><path d="M70.74,66.84L79.68,66.84L80.87,57.3Z" fill="#5D9948"/><path d="M46.57,0C62.8,0,76.15,8.41,77.82,26.01C78.06,28.53,77.66,31.07,77,33.52L78,37.21L78,73L15.14,73L15.14,29.83C15.14,9.63,29.21,0,46.57,0Z" fill="#8B8987"/><path d="M12.56,69.58L77.31,75.37L67.19,64.42L55.97,69.58L42.74,64.42L44.2,57.66L34.27,69.58L18.63,62.17Z" fill="#8B8987" opacity="0.5"/><path d="M43,2C60.12,2,74,10.46,74,28.19L74,74L12,74L12,52.09L13,48.37L12,44.64L12,28.19C12,10.46,25.88,2,43,2Z" fill="#BEBDB9"/><path d="M12.31,74L12,74L12,52.09L12.53,50.11C12.24,63.19,12.31,74,12.31,74Z" fill="#F1F1F1"/><path d="M73.94,26.17C70.79,11.57,57.14,5,42.78,5C26.99,5,14.36,11.08,13.25,30.73C12.96,36.02,12.75,41.6,12.61,46.92L12,44.64L12,28.19C12,10.46,25.88,2,43,2C59.46,2,72.92,9.81,73.94,26.17Z" fill="#F1F1F1"/><path d="M56.77,20C66.17,20,70.16,26.21,70.16,33.67C70.16,41.71,66,45.45,58.77,45.45L58.92,45.45L58.92,58L50.92,58L50.92,20Z" fill="#DAD8D6" opacity="0.5"/><path d="M58.92,28.63L58.92,36.79C60.9,36.79,62.17,35.59,62.17,33.67C62.17,30.01,61.52,28.63,58.92,28.63Z" fill="#DAD8D6" opacity="0.5"/><path d="M48.1,20L48.1,58L39.95,58L39.95,20Z" fill="#DAD8D6" opacity="0.5"/><path d="M26.85,20C33.95,20,38.24,25.54,38.24,33.67C38.24,38.19,36.84,41.71,33.47,43.67L41.68,58C41.68,58,34.08,58,32.67,58L26.99,47.75L26.99,58L19,58L19,20Z" fill="#DAD8D6" opacity="0.5"/><path d="M26.99,28.63L26.99,36.79C28.97,36.79,30.24,35.59,30.24,33.67C30.24,30.01,29.04,28.63,26.99,28.63Z" fill="#DAD8D6" opacity="0.5"/><path d="M57.77,21C64.87,21,69.16,26.21,69.16,32.67C69.16,35.35,68.77,37.56,67.99,39.31C66.33,42.97,61.61,44.45,57.77,44.45L57.92,44.45L57.92,57L51.92,57L51.92,21Z" fill="#4B4847"/><path d="M57.92,27.63L57.92,37.79C61.9,37.79,63.17,36.59,63.17,32.67C63.17,29.01,61.96,27.63,57.92,27.63Z" fill="#4B4847"/><path d="M47.1,21L47.1,57L40.95,57L40.95,21Z" fill="#4B4847"/><path d="M25.85,21C32.95,21,37.24,26.21,37.24,32.67C37.24,35.35,36.85,37.56,36.07,39.31C34.41,42.97,29.69,44.45,25.85,44.45L25.99,44.45L25.99,57L20,57L20,21Z" fill="#4B4847"/><path d="M25.99,27.63L25.99,37.79C29.97,37.79,31.24,36.59,31.24,32.67C31.24,29.01,30.04,27.63,25.99,27.63Z" fill="#4B4847"/><path d="M55.02,24.29L55.02,40.65L57.92,37.77L57.92,27.63Z" fill="#666564"/><path d="M55.02,40.65L55.02,53.72L57.91,57L57.91,44.46Z" fill="#666564"/><path d="M51.92,57L55.02,53.72L57.91,57Z" fill="#8B8987"/><path d="M51.92,21L57.77,21C62.95,21,69.5,24.94,65.57,32.24C65.57,25.34,60.58,24.29,57.87,24.29L55.02,24.29Z" fill="#312E2B"/><path d="M57.92,44.47C65.9,44.34,69.87,40.14,69.09,31.03C67.72,39.22,63.51,41.44,55.02,40.65Z" fill="#8B8987"/><path d="M58.15,24.27C66.68,24.27,67.67,35.69,62.12,36.65C62.63,35.74,63.17,34.74,63.17,32.67C63.17,28.91,61.34,27.63,57.92,27.63L55,24.27Z" fill="#8B8987"/><path d="M55.02,24.29L55.02,40.65L57.92,37.77L57.92,27.63Z" fill="#666564"/><path d="M55.02,40.65L55.02,53.72L57.91,57L57.91,44.46Z" fill="#666564"/><path d="M51.92,57L55.02,53.72L57.91,57Z" fill="#8B8987"/><path d="M44.05,35.45L44.05,53.72L47.1,57L47.1,35.45Z" fill="#666564"/><path d="M44.05,42.56L44.05,24.28L47.1,21L47.1,42.56Z" fill="#666564"/><path d="M40.95,57L44.05,53.72L47.1,57Z" fill="#8B8987"/><path d="M40.95,21L44.05,24.28L47.1,21Z" fill="#312E2B"/><path d="M51.92,21L57.77,21C62.95,21,69.5,24.94,65.57,32.24C65.57,25.34,60.58,24.29,57.87,24.29L55.02,24.29Z" fill="#312E2B"/><path d="M57.92,44.47C65.9,44.34,69.87,40.14,69.09,31.03C67.72,39.22,63.51,41.44,55.02,40.65Z" fill="#8B8987"/><path d="M26.23,24.27C34.76,24.27,35.75,35.69,30.2,36.65C30.71,35.74,31.24,34.74,31.24,32.67C31.24,28.91,29.42,27.63,25.99,27.63L23.08,24.27Z" fill="#8B8987"/><path d="M23.1,24.29L23.1,40.65L25.99,37.77L25.99,27.63Z" fill="#666564"/><path d="M23.1,40.65L23.1,53.72L25.99,57L25.99,44.46Z" fill="#666564"/><path d="M20,57L23.1,53.72L25.99,57Z" fill="#8B8987"/><path d="M33.12,56.95L35.08,53.79L39.98,56.95Z" fill="#8B8987"/><path d="M20,21L25.85,21C31.03,21,37.58,24.94,33.64,32.24C33.64,25.34,28.66,24.29,25.94,24.29L23.1,24.29Z" fill="#312E2B"/><path d="M26,44.47C33.98,44.34,37.95,40.14,37.16,31.03C35.8,39.22,31.59,41.44,23.1,40.65Z" fill="#8B8987"/><path d="M31.83,43.03L39.98,56.95L35.08,53.79L27.53,40.71Z" fill="#666564"/><path d="M25.99,44.39L33.12,57L35.08,53.79L27.53,40.71Z" fill="#4B4847"/><path d="M62.53,29.55C62.53,29.55,65.57,29.77,65.57,32.97C65.57,36.18,61.88,36.85,61.88,36.85C63.38,35.03,63.56,31.68,62.53,29.55Z" fill="#666564"/><path d="M30.57,29.55C30.57,29.55,33.61,29.77,33.61,32.97C33.61,36.18,29.92,36.85,29.92,36.85C31.42,35.03,31.6,31.68,30.57,29.55Z" fill="#666564"/><path d="M10.31,73.84L22.14,73.84L7.1,55.06Z" fill="#5D9948"/><path d="M16.42,74.84L25.89,74.84L17.71,57.66Z" fill="#5D9948"/><path d="M55.66,73.84L64.1,73.84L61.37,61.06Z" fill="#5D9948"/><path d="M80.79,71.64C82.85,71.64,84.56,70.61,86.33,69.67C86.68,70.26,86.87,70.88,86.87,71.5C86.87,77.85,68.06,83,44.87,83C21.67,83,2.87,77.85,2.87,71.5C2.87,70.77,3.12,70.05,3.6,69.36C5.7,70.37,7.7,71.64,10.05,71.64C14.3,71.64,17.28,68,21.81,68C26.33,68,29.34,71.64,33.6,71.64C37.87,71.64,40.85,68,45.39,68C49.9,68,52.9,71.64,57.15,71.64C61.4,71.64,64.44,68,68.97,68C73.51,68,76.53,71.64,80.79,71.64Z" fill="#81B64C"/><path d="M18,86.04C18,84.1,16.43,82.54,14.5,82.54C12.57,82.54,11,84.1,11,86.04C11,87.97,12.57,89.54,14.5,89.54C16.43,89.54,18,87.97,18,86.04Z" fill="#6A4632"/><path d="M46,87.5C46,85.57,44.43,84,42.5,84C40.57,84,39,85.57,39,87.5C39,89.43,40.57,91,42.5,91C44.43,91,46,89.43,46,87.5Z" fill="#6A4632"/><path d="M78,84C78,82.34,76.88,81,75.5,81C74.12,81,73,82.34,73,84C73,85.66,74.12,87,75.5,87C76.88,87,78,85.66,78,84Z" fill="#6A4632"/><path d="M61.3,7.59L63.12,4.54L64.06,7.63C64.45,8.91,63.95,10.29,62.83,11.02L57.4,14.56Z" fill="#F1F1F1"/><path d="M58.02,9.44C58.3,7.11,59.91,5.16,62.15,4.44L63.61,3.98L62.35,7.12C62.18,7.53,61.97,7.92,61.72,8.29L57.4,14.56Z" fill="#8B8987"/><path d="M73.3,46.51L73.98,49.49L67.7,49.5Z" fill="#F1F1F1"/><path d="M73.3,46.51L73.98,49.49L77.27,43.69Z" fill="#BEBDB9"/><path d="M67.7,49.5L73.98,43.05L73.3,46.51Z" fill="#8B8987"/><path d="M77.27,43.69L73.98,43.05L73.3,46.51Z" fill="#666564"/></svg>