<svg xmlns="http://www.w3.org/2000/svg" viewBox="0 0 90 90" fill="currentColor"><path d="M48.54,72.48L76.7,24.41L46.92,88.09C46.75,88.45,46.39,88.67,46,88.67C45.61,88.67,45.25,88.45,45.08,88.09L15.3,24.41L43.46,72.48L43.67,48.49L46,12.53L48.33,48.49ZM47.98,43.08L48.33,48.49L48.54,72.48L62.19,49.17C62.89,49.78,63.57,50.43,64.21,51.11L46.92,88.09C46.75,88.45,46.4,88.67,46,88.67C45.61,88.67,45.25,88.45,45.08,88.09L27.79,51.11C28.43,50.43,29.11,49.78,29.81,49.17L43.47,72.48L43.67,48.49L44.02,43.08C44.67,43.03,45.33,43,46,43C46.67,43,47.33,43.03,47.98,43.08ZM48.4,56.4L48.54,72.48L56.12,59.53C57.18,60.29,58.16,61.16,59.06,62.13L46.92,88.09C46.75,88.45,46.39,88.67,46,88.67C45.61,88.67,45.25,88.45,45.08,88.09L32.94,62.13C33.84,61.16,34.82,60.29,35.88,59.53L43.46,72.48L43.6,56.4C44.39,56.29,45.19,56.23,46,56.23C46.81,56.23,47.61,56.29,48.4,56.4ZM34.69,40.56C35.64,46.01,37.55,51.26,40.32,56.06C39.65,49.83,37.75,43.79,34.75,38.29L34.08,37.07ZM37.64,89C27.65,76.77,19.78,61.76,1,58.89C23.22,56.78,30.42,74.51,37.64,89ZM54.36,89C64.35,76.77,72.22,61.76,91,58.89C68.78,56.78,61.58,74.51,54.36,89ZM7.5,80.56C15.55,78.21,25.48,79.87,27.2,90.21C21.95,84.14,15.04,80,7.5,80.56ZM85.2,80.56C77.15,78.21,67.21,79.87,65.5,90.21C70.75,84.14,77.66,80,85.2,80.56ZM58.32,40.56C57.36,46.01,55.46,51.26,52.68,56.06C53.36,49.83,55.25,43.79,58.26,38.29L58.92,37.07ZM45,1.7L41.91,9.96L33.1,10.34C32.11,10.39,31.7,11.63,32.48,12.25L39.38,17.74L37.02,26.24C36.76,27.2,37.82,27.97,38.65,27.42L46,22.55L53.35,27.42C54.18,27.97,55.24,27.2,54.98,26.24L52.62,17.74L59.52,12.25C60.3,11.63,59.89,10.39,58.9,10.34L50.09,9.96L47,1.7C46.66,0.77,45.34,0.77,45,1.7ZM13.96,13.11L13.11,21.89L4.7,24.54C3.75,24.84,3.68,26.15,4.59,26.54L12.68,30.06L12.6,38.88C12.6,39.87,13.82,40.34,14.48,39.6L20.32,32.99L28.69,35.79C29.63,36.11,30.45,35.09,29.95,34.23L25.47,26.63L30.72,19.54C31.31,18.75,30.59,17.65,29.63,17.86L21.02,19.77L15.89,12.59C15.32,11.78,14.05,12.12,13.96,13.11ZM78.27,13.11L79.11,21.89L87.52,24.54C88.47,24.84,88.54,26.15,87.63,26.54L79.54,30.06L79.62,38.88C79.63,39.87,78.4,40.34,77.74,39.6L71.9,32.99L63.53,35.79C62.6,36.11,61.77,35.09,62.27,34.23L66.75,26.63L61.5,19.54C60.91,18.75,61.63,17.65,62.6,17.86L71.21,19.77L76.33,12.59C76.9,11.78,78.17,12.12,78.27,13.11Z"/></svg>