<svg xmlns="http://www.w3.org/2000/svg" viewBox="0 0 90 90" fill="currentColor"><path d="M90.96,32.16C90.96,49.94,67.1,71.81,52.1,86.02C50.35,87.69,47.52,88.6,45.21,88.75L44.75,88.78L44.32,88.75C42.15,88.6,39.66,87.69,38,86.02C23.72,71.81,1,49.94,1,32.16C1,6.32,28.95,-7.09,44.75,15.04C61.04,-6.67,90.96,5.36,90.96,32.16ZM90.96,32.16C90.96,49.94,67.1,71.81,52.1,86.01C50.35,87.69,47.52,88.6,45.21,88.75L44.75,88.77L44.32,88.75C42.15,88.6,39.66,87.69,38,86.01C26.14,74.21,8.46,57.13,2.81,41.49L38.17,75.64C41.36,78.72,46.6,78.31,49.63,75.08C61.32,62.63,80.63,46.66,81.12,29.75C81.49,16.71,75.5,7.4,67.26,3.89C79.72,4.85,90.96,15.73,90.96,32.16ZM29.77,4.36C30.03,4.42,30.3,4.48,30.56,4.55C30.75,4.6,30.93,4.65,31.11,4.71C31.4,4.79,31.69,4.88,31.98,4.98C32,4.98,32.01,4.99,32.02,4.99C32.6,5.19,33.18,5.42,33.75,5.67C33.93,5.75,34.12,5.83,34.3,5.92C34.57,6.05,34.84,6.18,35.12,6.33C35.43,6.49,35.75,6.67,36.07,6.85C36.79,7.27,37.5,7.74,38.2,8.26C38.21,8.27,38.23,8.28,38.25,8.29C39.36,9.12,40.45,10.06,41.5,11.14C41.53,11.17,41.56,11.2,41.59,11.23C42.67,12.34,43.7,13.57,44.69,14.95C44.58,17.62,44.1,20.7,43.18,24.21C40.26,12.67,30.45,2.97,16.75,5.7C17.74,5.27,18.75,4.91,19.78,4.62C20.04,4.55,20.31,4.49,20.57,4.43C20.91,4.35,21.25,4.28,21.59,4.21C21.85,4.17,22.12,4.12,22.39,4.08C24.81,3.74,27.3,3.81,29.77,4.36ZM90.96,32.16C90.96,33.25,90.87,34.36,90.7,35.48C90.85,34.15,90.93,32.83,90.96,31.51C90.96,31.73,90.96,31.94,90.96,32.16ZM1.25,35.47C1.09,34.35,1,33.25,1,32.16C1,31.94,1,31.72,1,31.51C1.03,32.82,1.11,34.14,1.25,35.47ZM87.37,17.34C78.94,3.63,57.6,1.82,44.75,16.32C33.2,2.62,15.14,3.31,6.27,14.47C15.14,1.68,33.2,-1.14,44.75,15.04C57.6,-2.09,78.94,1.79,87.37,17.34ZM60.41,78.11L46,56.13L30.99,79.02C26.88,74.89,22.54,70.37,18.48,65.66L37.76,36.31L46,41.36L54.24,36.31L73.13,65.07C69.02,69.64,64.62,74.05,60.41,78.11ZM37.76,35.31L52.91,42.88L23.49,79.45L19.05,69.65L10.09,69.65ZM54.24,35.31L39.09,42.88L68.51,79.45L72.95,69.65L81.91,69.65ZM89.76,39.47C88.62,43.15,86.72,46.93,84.31,50.72C76.87,43.24,54.81,44.5,46.19,44.5C37.14,44.5,15.01,43.21,7.59,51.14C5.24,47.33,3.38,43.51,2.24,39.79C10.24,29.05,33.69,31,46.19,31C58.33,31,81.97,29.01,89.76,39.47ZM67.67,59C62.92,59,56.66,54.86,51.77,50.35C48.61,51.52,43.68,51.44,40.42,50.3C35.52,54.82,29.23,59,24.46,59C22.47,59,20.83,58.59,19.61,57.84L37.76,35.31L46,39.42L54.24,35.31L72.43,57.89C71.22,58.61,69.62,59,67.67,59ZM21.44,55C16.64,55,13.94,52.61,14,48.8C14.06,41.62,15.22,40.06,15.22,36C15.22,31.94,14.06,30.38,14,23.2C13.94,19.39,16.64,17,21.44,17C30.51,17,47,32.7,47,36C47,39.87,30.48,55,21.44,55ZM38.56,42.79C30.13,42.79,18.56,43.69,18.56,47.88C18.56,54.24,35.3,44.2,38.56,42.79ZM40,31.34L40,39.04C33.88,38.74,30.26,39.04,24.18,39.66L35.32,36.63C36.28,36.37,36.31,35.01,35.35,34.71L22.13,30.59L35.1,32.07C36.1,32.18,36.62,30.91,35.82,30.29L27.75,23.99C32.96,25.87,35.87,27.24,40,31.34ZM70.56,55C75.36,55,78.06,52.61,78,48.8C77.94,41.62,76.78,40.06,76.78,36C76.78,31.94,77.94,30.38,78,23.2C78.06,19.39,75.36,17,70.56,17C61.49,17,45,32.7,45,36C45,39.87,61.52,55,70.56,55ZM53.44,42.79C61.87,42.79,73.44,43.69,73.44,47.88C73.44,54.24,56.7,44.2,53.44,42.79ZM52,31.34L52,39.04C58.12,38.74,61.74,39.04,67.82,39.66L56.68,36.63C55.72,36.37,55.69,35.01,56.65,34.71L69.88,30.59L56.9,32.07C55.9,32.18,55.38,30.91,56.18,30.29L64.25,23.99C59.04,25.87,56.13,27.24,52,31.34ZM51.82,28.66C51.82,24.35,40.09,23.46,40.09,28.66L40.09,44.04C40.09,48.92,51.82,49.41,51.82,44.04Z"/></svg>