<svg xmlns="http://www.w3.org/2000/svg" viewBox="0 0 90 90"><path d="M19.75,58.83L16.69,76.2L23.25,77.36L26.31,59.99Z" fill="currentColor"/><path d="M19.75,58.83L16.69,76.2L19.15,76.64L22.21,59.27Z" fill="currentColor"/><path d="M21.61,77.07L23.25,77.36L26.31,59.99Z" fill="currentColor"/><path d="M13.96,14.86L12.84,21.25C10.54,34.3,12.92,47.76,19.57,59.23C20.97,61.65,24.21,62.22,26.35,60.43C36.52,51.92,43.36,40.09,45.66,27.03L46.79,20.65Z" fill="currentColor"/><path d="M15.27,36.73C16.14,44.46,18.43,52.02,22.09,59C22.47,59.73,23.45,59.91,24.06,59.35C34.38,49.93,41.29,37.37,43.73,23.62L30.6,31.41Z" fill="currentColor"/><path d="M19.57,59.23C20.97,61.65,24.21,62.22,26.35,60.43C36.52,51.92,43.36,40.09,45.66,27.03L46.79,20.65L31.3,17.92L40.47,29.69L40.21,31.19C38.39,41.47,33.73,51.03,26.75,58.79C25.38,60.31,22.86,59.34,22.86,57.29L22.88,50.83C22.89,46.52,23.27,42.22,24.02,37.98L27.67,17.28L13.96,14.86L12.84,21.25C10.54,34.3,12.92,47.76,19.57,59.23Z" fill="currentColor" opacity="0.5"/><path d="M30.63,56.11C38.61,47.36,44,36.48,46.08,24.7L46.79,20.65L45.97,20.5L45.09,25.48C43.09,36.87,38.06,47.43,30.63,56.11Z" fill="currentColor" opacity="0.9"/><path d="M15.64,50.02C14.17,41.54,14.18,32.85,15.68,24.32L17.25,15.44L13.96,14.86L13.25,18.92C11.4,29.38,12.26,40.08,15.64,50.02Z" fill="currentColor" opacity="0.9"/><path d="M3.29,79.2C2.97,79.4,3.02,79.88,3.38,80.02L5.1,80.7C13.86,84.11,23.2,85.76,32.6,85.54L34.45,85.5C34.83,85.49,35.04,85.06,34.82,84.76C27.43,74.86,13.62,72.42,3.29,79.2Z" fill="currentColor"/><path d="M3.33,79.17C3.01,79.38,3.07,79.87,3.44,80L7.04,81.2C14.05,73.62,26.62,75.84,30.61,85.36L34.4,85.46C34.79,85.47,35.02,85.02,34.78,84.71C27.42,74.84,13.64,72.41,3.33,79.17Z" fill="currentColor"/><path d="M28.59,30.52C28.91,28.75,30.6,27.56,32.38,27.87C34.16,28.19,35.34,29.88,35.03,31.66C34.72,33.44,33.02,34.62,31.24,34.31C29.47,34,28.28,32.3,28.59,30.52Z" fill="currentColor"/><path d="M19.88,36.36C20.11,35.05,21.36,34.17,22.68,34.4C23.99,34.63,24.87,35.88,24.64,37.2C24.41,38.51,23.15,39.39,21.84,39.16C20.52,38.93,19.65,37.67,19.88,36.36Z" fill="currentColor"/><path d="M23.61,44.33C23.97,42.33,25.88,40.99,27.88,41.35C29.88,41.7,31.22,43.61,30.87,45.61C30.51,47.62,28.6,48.95,26.6,48.6C24.6,48.25,23.26,46.34,23.61,44.33Z" fill="currentColor"/><path d="M14.09,14.82C14.4,13.04,21.98,12.89,31.01,14.48C40.05,16.07,47.12,18.81,46.8,20.59C46.49,22.37,38.91,22.53,29.88,20.93C20.84,19.34,13.77,16.6,14.09,14.82Z" fill="currentColor"/><path d="M46.8,20.59C47.09,18.93,40.99,16.45,32.86,14.83L31.72,21.24C39.92,22.5,46.51,22.25,46.8,20.59Z" fill="currentColor" opacity="0.5"/><path d="M16.55,15.26C16.7,14.38,23.05,14.77,30.72,16.12C38.4,17.48,44.49,19.28,44.34,20.16C44.18,21.03,37.84,20.65,30.16,19.29C22.49,17.94,16.39,16.13,16.55,15.26Z" fill="currentColor"/><path d="M16.55,15.26C16.4,16.13,22.49,17.94,30.16,19.29C31.88,19.59,33.52,19.85,35.05,20.05L35.57,17.08C34.07,16.75,32.44,16.42,30.72,16.12C23.05,14.77,16.7,14.38,16.55,15.26Z" fill="currentColor"/><path d="M70.07,60.88L74.64,77.92L68.2,79.64L63.63,62.61Z" fill="currentColor"/><path d="M70.07,60.88L74.64,77.92L72.22,78.57L67.66,61.53Z" fill="currentColor"/><path d="M69.81,79.21L68.2,79.64L63.63,62.61Z" fill="currentColor"/><path d="M72,16.57L73.68,22.83C77.11,35.64,75.91,49.25,70.29,61.26C69.1,63.79,65.92,64.64,63.63,63.04C52.76,55.46,44.91,44.27,41.48,31.46L39.8,25.2Z" fill="currentColor"/><path d="M72.61,38.48C72.41,46.25,70.79,53.98,67.76,61.25C67.44,62.02,66.48,62.27,65.82,61.77C54.72,53.29,46.74,41.38,43.11,27.9L56.87,34.51Z" fill="currentColor"/><path d="M70.29,61.26C69.1,63.79,65.92,64.64,63.63,63.04C52.76,55.46,44.91,44.27,41.48,31.46L39.8,25.2L54.99,21.13L46.89,33.65L47.28,35.13C49.98,45.21,55.46,54.33,63.09,61.45C64.59,62.84,67.02,61.66,66.83,59.62L66.25,53.18C65.87,48.89,65.12,44.64,64,40.48L58.56,20.17L72,16.57L73.68,22.83C77.11,35.64,75.91,49.25,70.29,61.26Z" fill="currentColor" opacity="0.5"/><path d="M59,59.12C50.28,51.1,43.96,40.73,40.87,29.18L39.8,25.2L40.61,24.98L41.92,29.87C44.91,41.03,50.84,51.12,59,59.12Z" fill="currentColor" opacity="0.9"/><path d="M73.4,51.74C74.12,43.17,73.36,34.51,71.12,26.15L68.78,17.43L72,16.57L73.07,20.55C75.82,30.82,75.9,41.54,73.4,51.74Z" fill="currentColor" opacity="0.9"/><path d="M88.24,79.73C88.58,79.91,88.57,80.39,88.23,80.56L86.57,81.38C78.14,85.55,68.97,88.01,59.6,88.61L57.75,88.73C57.37,88.75,57.12,88.34,57.32,88.02C63.82,77.52,77.36,73.89,88.24,79.73Z" fill="currentColor"/><path d="M88.19,79.71C88.54,79.89,88.52,80.39,88.16,80.54L84.68,82.06C77.04,75.12,64.71,78.42,61.56,88.25L57.8,88.68C57.41,88.72,57.14,88.3,57.35,87.97C63.83,77.5,77.34,73.88,88.19,79.71Z" fill="currentColor"/><path d="M58.79,33.45C58.33,31.71,56.53,30.67,54.79,31.14C53.05,31.61,52.01,33.4,52.48,35.14C52.95,36.89,54.74,37.92,56.48,37.45C58.22,36.99,59.26,35.19,58.79,33.45Z" fill="currentColor"/><path d="M67.98,38.5C67.64,37.22,66.31,36.45,65.02,36.8C63.73,37.14,62.97,38.47,63.32,39.76C63.66,41.04,64.99,41.81,66.28,41.46C67.56,41.12,68.33,39.79,67.98,38.5Z" fill="currentColor"/><path d="M64.96,46.77C64.43,44.81,62.41,43.64,60.45,44.17C58.48,44.7,57.32,46.72,57.84,48.68C58.37,50.64,60.39,51.81,62.35,51.28C64.32,50.76,65.48,48.74,64.96,46.77Z" fill="currentColor"/><path d="M71.87,16.55C71.41,14.8,63.84,15.31,54.98,17.68C46.12,20.05,39.32,23.4,39.79,25.14C40.26,26.89,47.82,26.38,56.68,24.01C65.54,21.63,72.34,18.29,71.87,16.55Z" fill="currentColor"/><path d="M39.79,25.14C39.35,23.52,45.22,20.51,53.18,18.19L54.86,24.47C46.81,26.44,40.22,26.77,39.79,25.14Z" fill="currentColor" opacity="0.5"/><path d="M69.46,17.19C69.23,16.33,62.94,17.27,55.41,19.29C47.89,21.31,41.97,23.64,42.2,24.5C42.43,25.35,48.72,24.42,56.25,22.4C63.77,20.38,69.69,18.05,69.46,17.19Z" fill="currentColor"/><path d="M69.46,17.19C69.69,18.05,63.77,20.38,56.25,22.4C54.57,22.85,52.95,23.24,51.45,23.58L50.67,20.67C52.14,20.21,53.74,19.74,55.41,19.29C62.94,17.27,69.23,16.33,69.46,17.19Z" fill="currentColor"/><path d="M48.25,0L41.2,0L44.71,12.01Z" fill="currentColor"/><path d="M28.61,8.59L32.83,2.93L40.35,12.95Z" fill="currentColor"/><path d="M60.45,8.59L56.23,2.93L48.71,12.95Z" fill="currentColor"/><path d="M52,72C49.79,72,47.99,70.2,48,67.99C48.01,65.79,49.79,64.01,51.99,64C54.2,63.99,56,65.79,56,68C56,70.21,54.21,72,52,72Z" fill="currentColor"/><path d="M2,57.15C0.9,57.15,0,56.26,0,55.15C0,54.05,0.89,53.16,2,53.15C3.1,53.15,4,54.05,4,55.16C4,56.26,3.1,57.15,2,57.15Z" fill="currentColor"/><path d="M9,66.15C7.9,66.15,7,65.26,7,64.15C7,63.05,7.89,62.16,9,62.15C10.1,62.15,11,63.05,11,64.16C11,65.26,10.1,66.15,9,66.15Z" fill="currentColor"/><path d="M85,40C82.24,40,80,37.76,80,35C80,32.24,82.23,30.01,84.99,30C87.76,29.99,90.01,32.24,90,35.01C89.99,37.77,87.76,40,85,40Z" fill="currentColor"/></svg>