<svg xmlns="http://www.w3.org/2000/svg" viewBox="0 0 90 90"><path d="M77.16,39.82C78.26,56.14,83.3,58.95,81.34,64.66L77.16,66.25C75.36,65.08,70.48,62.93,68.79,58.95C64.12,47.92,61.95,44.32,57.5,44.74C55.29,44.94,59.63,51.17,60.43,57.2C60.94,61.07,50.53,68.43,39.7,68.43C24.78,68.43,4,66.25,4,55.76C4,37.81,8.58,47.46,17.92,18.89C21.65,7.48,33.77,1.78,46.24,1.78C69.18,1.78,75.83,20.02,77.16,39.82Z" fill="#FA412D"/><path d="M76.96,66.13C77.14,66.13,77.32,66.13,77.5,66.12L77.16,66.25C77.1,66.21,77.03,66.17,76.96,66.13Z" fill="#FF6352"/><path d="M73.84,21.72C68.95,12.73,58.28,9.06,46.5,9.06C39.14,9.06,38.45,19.67,25.65,15.95C22.2,19.09,19.71,23.48,18.92,29.42C18.17,35.08,12.27,32.75,13.73,38.88C15.16,44.92,11.94,48.45,11.94,51.95C11.94,59.15,13.38,63.52,16.39,66.06C9.26,64.21,4,61.04,4,55.76C4,37.81,8.58,47.46,17.92,18.89C21.65,7.48,33.77,1.78,46.24,1.78C61.78,1.78,69.85,10.16,73.84,21.72Z" fill="#FF6352"/><path d="M71.67,45.91C68.96,51.65,72.6,59.07,78.31,62.74C79.44,63.46,79.95,64.29,79.96,65.19L77.16,66.25C75.36,65.08,70.48,62.93,68.79,58.95C64.12,47.93,61.95,44.32,57.5,44.73C55.29,44.94,59.63,51.17,60.43,57.2C60.94,61.07,50.53,68.43,39.7,68.43C35.14,68.43,30.03,68.22,25.14,67.64C24.59,65.73,24.4,63.52,24.66,60.97C24.66,55.14,30.92,52.58,38.62,54.39C51.17,57.35,48.81,45.92,50.44,41.47C51.56,38.39,55.37,44.18,57.75,39.25C60.68,33.15,56.17,28.41,60.52,27.59C64.49,26.84,61.81,41.47,71.67,45.91Z" fill="#AD1F24"/><path d="M90,74.1C90,68.53,85.48,64,79.9,64C74.32,64,69.8,68.53,69.8,74.1C69.8,79.68,74.32,84.2,79.9,84.2C85.48,84.2,90,79.68,90,74.1Z" fill="#DAD8D6"/><path d="M87.23,80.73L84.3,82.09L87.7,84.27Z" fill="#D9D9D9"/><path d="M72.73,68.18L75.66,66.82L72.26,64.64Z" fill="#D9D9D9"/><path d="M68.7,68.43L71.91,68.09L70.1,71.71Z" fill="#D9D9D9"/><path d="M88.02,75.6C88.02,71.39,84.39,67.98,79.9,67.98C75.42,67.98,71.78,71.39,71.78,75.6C71.78,79.81,75.42,83.23,79.9,83.23C84.39,83.23,88.02,79.81,88.02,75.6Z" fill="#BEBDB9"/><path d="M85.37,71.29L79.48,69.23L84.9,66.46Z" fill="#BEBDB9"/><path d="M7.56,81.88L12.09,81.88L9.04,84.97Z" fill="#D9D9D9"/><path d="M61.05,79.73L56.08,81.93L61.37,84.45Z" fill="#D9D9D9"/><path d="M18.17,65.75L26.79,65.75L20.99,59.35Z" fill="#D9D9D9"/><path d="M7.41,60.64L9.24,60.86C24.35,62.7,39.63,62.7,54.74,60.86L56.57,60.64C60.74,60.14,64.19,63.83,63.42,67.95C63.07,69.84,63.07,71.78,63.42,73.67L63.53,74.22C64.31,78.44,61.38,82.44,57.13,82.95L56.06,83.08C40.07,85.02,23.91,85.02,7.92,83.08L6.85,82.95C2.6,82.44,-0.33,78.44,0.46,74.22L0.56,73.67C0.91,71.78,0.91,69.84,0.56,67.95C-0.21,63.83,3.25,60.14,7.41,60.64Z" fill="#DAD8D6"/><path d="M8.02,65.15L9.47,65.43C24.62,68.37,40.2,68.37,55.35,65.43L56.8,65.15C59.56,64.61,61.94,67.1,61.29,69.82C60.94,71.3,60.94,72.83,61.29,74.3L61.43,74.87C62.1,77.68,60.19,80.44,57.33,80.81L54.88,81.12C39.96,83.03,24.86,83.03,9.94,81.12L7.49,80.81C4.63,80.44,2.73,77.68,3.39,74.87L3.53,74.3C3.88,72.83,3.88,71.3,3.53,69.82C2.88,67.1,5.27,64.61,8.02,65.15Z" fill="#BEBDB9"/><path d="M30.43,69.41L38.01,69.41L32.91,65Z" fill="#BEBDB9"/></svg>