<svg xmlns="http://www.w3.org/2000/svg" viewBox="0 0 90 90"><path d="M0,73L90,73C90,87.77,58.41,90,45,90C31.59,90,0,87.77,0,73Z" fill="currentColor"/><path d="M90,73.5C90,67.15,69.85,62,45,62C20.15,62,0,67.15,0,73.5C0,79.85,20.15,85,45,85C69.85,85,90,79.85,90,73.5Z" fill="currentColor"/><path d="M87,73C87,66.92,68.2,62,45,62C21.8,62,3,66.92,3,73C3,79.08,21.8,84,45,84C68.2,84,87,79.08,87,73Z" fill="currentColor"/><path d="M41.17,78.92C29.67,74.26,11.36,78.1,11.36,71.01C11.36,67.1,25.45,63.92,42.84,63.92C60.22,63.92,77.4,67.65,77.4,71.57C77.4,83.05,52.68,83.58,41.17,78.92Z" fill="currentColor"/><path d="M73.96,70.5C73.96,66.55,62.06,63.35,47.37,63.35C32.68,63.35,20.77,66.55,20.77,70.5C20.77,74.45,32.68,77.65,47.37,77.65C62.06,77.65,73.96,74.45,73.96,70.5Z" fill="currentColor"/><path d="M28.83,60.38L33.37,71.35L17.74,70.36L5.71,72.54C4.24,72.81,3.1,71.26,3.8,69.93L5.39,66.92C5.83,66.07,5.54,65.02,4.71,64.53L2.82,63.42C1.36,62.56,1.78,60.35,3.45,60.09L6.57,59.6C7.63,59.43,8.32,58.37,8.03,57.33L7.64,55.96C7.25,54.56,8.6,53.3,9.97,53.78Z" fill="currentColor"/><path d="M59.27,62.63L54.74,73.6L70.36,72.61L82.39,74.79C83.87,75.06,85.01,73.51,84.31,72.18L82.92,69.55C82.4,68.56,82.89,67.34,83.96,66.99L88.43,65.56C90.32,64.95,89.97,62.17,87.99,62.05L81.76,61.67C80.61,61.6,79.83,60.49,80.13,59.39L80.46,58.21C80.85,56.81,79.51,55.55,78.13,56.03Z" fill="currentColor"/><path d="M14.55,72.21C14.55,69.75,12.56,67.76,10.1,67.76C7.64,67.76,5.64,69.75,5.64,72.21C5.64,74.67,7.64,76.67,10.1,76.67C12.56,76.67,14.55,74.67,14.55,72.21Z" fill="currentColor"/><path d="M32.4,8.05C23.73,0.18,25.29,16.41,32.49,14.15L48.5,41.89L53.65,38.93L37.64,11.2C42.87,6.03,29.43,-3.07,32.4,8.05Z" fill="currentColor"/><path d="M37.48,18.75C43.01,16.37,48.28,20.7,60.54,33.78C73.98,48.13,40.61,66.23,36.56,44.39C33.58,28.35,31.94,21.13,37.48,18.75Z" fill="currentColor"/><path d="M37.64,20.58C42.89,18.33,47.91,22.49,59.6,35.01C72.42,48.75,40.81,65.89,36.88,45.03C33.98,29.72,32.4,22.82,37.64,20.58Z" fill="currentColor"/><path d="M36.69,24.28C22.83,24.28,15.21,33.89,12.97,45.09C8.49,67.52,24.88,75.66,47.07,75.66C73.79,75.66,83.92,65.26,84.05,54.96C84.17,46.4,75.45,36.14,57.69,35C51.43,26.58,44.1,24.28,36.69,24.28Z" fill="currentColor"/><path d="M53.1,39.32C60.75,40.77,79.77,44.34,79.77,59.11C79.77,63.01,78.71,66.03,76.69,68.36C71.58,72.17,63.59,74.92,52.04,75.53C50.16,75.6,48.19,75.64,46.13,75.65C24.42,75.43,8.55,67.21,12.97,45.09C14.64,36.71,19.32,29.23,27.38,25.98C28.94,25.61,30.6,25.39,32.35,25.36C44.34,25.36,49.75,33.37,53.1,39.32Z" fill="currentColor"/><path d="M36.66,65.49C44.4,77.57,69.12,71.48,82.24,62.06C78.28,69.55,67.55,75.66,47.06,75.66C27.72,75.66,12.78,69.47,12.24,53.02C16.05,62.28,25.6,67.77,36.66,65.49Z" fill="currentColor"/><path d="M10.64,9.45C1.97,1.58,3.53,17.81,10.73,15.56L26.74,43.29L31.89,40.33L15.88,12.6C21.11,7.43,7.67,-1.67,10.64,9.45Z" fill="currentColor"/><path d="M16.46,20.92C22,18.54,27.27,22.87,39.53,35.95C52.97,50.29,19.6,68.4,15.55,46.56C12.57,30.52,10.93,23.29,16.46,20.92Z" fill="currentColor"/><path d="M17.41,24.29C22.6,22.03,27.47,25.95,38.74,37.81C51.1,50.81,19.74,67.86,16.23,47.85C13.65,33.16,12.21,26.54,17.41,24.29Z" fill="currentColor"/><path d="M58.35,66.07C58.35,63.85,56.55,62.04,54.32,62.04C52.1,62.04,50.3,63.85,50.3,66.07C50.3,68.29,52.1,70.1,54.32,70.1C56.55,70.1,58.35,68.29,58.35,66.07Z" fill="currentColor"/><path d="M65.48,54.36C65.48,52.98,64.36,51.86,62.98,51.86C61.6,51.86,60.48,52.98,60.48,54.36C60.48,55.74,61.6,56.86,62.98,56.86C64.36,56.86,65.48,55.74,65.48,54.36Z" fill="currentColor"/><path d="M66.5,63.52C66.5,62.14,65.38,61.02,64,61.02C62.62,61.02,61.5,62.14,61.5,63.52C61.5,64.91,62.62,66.02,64,66.02C65.38,66.02,66.5,64.91,66.5,63.52Z" fill="currentColor"/><path d="M20.55,73.71C20.55,71.53,18.78,69.76,16.6,69.76C14.42,69.76,12.64,71.53,12.64,73.71C12.64,75.9,14.42,77.67,16.6,77.67C18.78,77.67,20.55,75.9,20.55,73.71Z" fill="currentColor"/><path d="M80.73,75.06C80.73,73.43,79.41,72.11,77.77,72.11C76.14,72.11,74.82,73.43,74.82,75.06C74.82,76.69,76.14,78.02,77.77,78.02C79.41,78.02,80.73,76.69,80.73,75.06Z" fill="currentColor"/><path d="M45.94,48.1C46.29,42.28,49.99,37.19,55.42,35.05L58.38,36.62C53.16,38.37,48.86,42.17,46.49,47.15L45.92,48.32Z" fill="currentColor" opacity="0.5"/><path d="M27.44,41.55C31.25,39.58,34.41,36.54,36.52,32.81L40.13,33.92L38.78,35.53C35.26,39.75,30.22,42.41,24.75,42.94Z" fill="currentColor" opacity="0.5"/><path d="M30.01,49.99C26.29,52.42,21.75,53.28,17.4,52.39L16.51,49.49L17.83,49.69C22.03,50.32,26.31,50.06,30.4,48.92L32.6,48.31Z" fill="currentColor" opacity="0.5"/><path d="M74.67,41.61C72.1,43.03,70.1,45.29,69,48.01L67.23,46.2C68.29,43.24,71.1,41.27,74.25,41.27L75.28,41.27Z" fill="currentColor" opacity="0.5"/></svg>