<svg xmlns="http://www.w3.org/2000/svg" viewBox="0 0 90 90" fill="currentColor"><path d="M14,6L78,6C82.42,6,86,9.58,86,14L86,72.29C86,76.7,82.42,80.29,78,80.29L14,80.29C9.58,80.29,6,76.7,6,72.29L6,14C6,9.58,9.58,6,14,6ZM14,9.81L78,9.81C82.42,9.81,86,13.39,86,17.81L86,78C86,82.42,82.42,86,78,86L14,86C9.58,86,6,82.42,6,78L6,17.81C6,13.39,9.58,9.81,14,9.81ZM83.94,83.36L46,33.28L8.06,83.36C9.5,84.95,11.57,85.97,13.89,86L78.11,86C80.43,85.97,82.5,84.95,83.94,83.36ZM83.75,83.56L51.62,47.9L83.75,12.25C82.29,10.74,80.26,9.81,78,9.81L14,9.81C11.74,9.81,9.71,10.75,8.25,12.25L40.37,47.9L8.25,83.56C9.68,85.04,11.68,85.97,13.89,86L78.11,86C80.32,85.97,82.32,85.04,83.75,83.56ZM7.31,76.99C7.41,81.27,10.87,84.72,15.15,84.8L76.26,86L14,86C9.58,86,6,82.42,6,78L6,19.12ZM84.69,18.82C84.59,14.54,81.13,11.09,76.85,11.01L15.74,9.81L78,9.81C82.42,9.81,86,13.39,86,17.81L86,76.69ZM70.82,50.22C70.82,39.95,57.56,27.31,49.23,19.1C48.19,18.07,46.47,17.54,45.15,17.5L44.91,17.51C43.7,17.61,42.31,18.13,41.39,19.1C33.46,27.31,20.83,39.95,20.83,50.22C20.83,65.15,36.37,72.9,45.15,60.12C54.2,72.66,70.82,65.71,70.82,50.22ZM71.82,54.22C71.82,43.95,58.03,31.31,49.36,23.1C48.35,22.13,46.72,21.61,45.38,21.52L45.12,21.5L44.87,21.52C43.61,21.61,42.17,22.13,41.21,23.1C32.96,31.31,19.83,43.95,19.83,54.22C19.83,68.92,35.49,76.66,44.69,64.7L45.12,64.12C54.53,76.66,71.82,69.71,71.82,54.22ZM71.82,54.22C71.82,43.95,58.03,31.31,49.36,23.1C48.35,22.13,46.72,21.61,45.38,21.52L45.12,21.5L44.87,21.52C43.61,21.61,42.17,22.13,41.21,23.1C34.36,29.92,24.15,39.79,20.88,48.83L41.31,29.09C43.16,27.31,46.19,27.55,47.94,29.42C54.69,36.61,65.86,45.84,66.13,55.61C66.35,63.14,62.89,68.53,58.13,70.55C65.33,70,71.82,63.71,71.82,54.22ZM39.33,69.26C40.17,68.84,40.99,68.32,41.79,67.68C41.81,67.66,41.83,67.65,41.85,67.63C42.16,67.38,42.46,67.12,42.76,66.84C42.78,66.82,42.8,66.8,42.81,66.79C43.6,66.04,44.36,65.16,45.08,64.17C45.01,62.62,44.74,60.84,44.21,58.81C42.52,65.48,36.85,71.09,28.94,69.51C28.94,69.51,28.95,69.51,28.95,69.51C29.42,69.72,29.9,69.9,30.39,70.04C30.91,70.2,31.45,70.33,31.99,70.41C32.32,70.46,32.65,70.5,32.98,70.53C33.17,70.54,33.36,70.56,33.54,70.56C33.87,70.57,34.19,70.56,34.52,70.55C36.13,70.46,37.76,70.05,39.33,69.26Z"/></svg>