<svg xmlns="http://www.w3.org/2000/svg" viewBox="0 0 90 90" fill="currentColor"><path d="M89,61.24C89,97.92,3,95.96,3,61.24C3,55.41,5.64,50.13,9.8,45.95L82.23,45.95L82.2,45.95C86.36,50.13,89,55.41,89,61.24ZM85.87,61.27C85.87,69.12,82.3,76.16,76.64,80.98C59.65,91.07,29.41,90.17,13.48,79.22C8.92,74.51,6.13,68.21,6.13,61.27C6.13,55.52,8.17,50.26,11.46,45.95L80.54,45.95C83.83,50.26,85.87,55.52,85.87,61.27ZM43.38,66.63C54.91,76.26,51.19,85.4,37.8,87.48C28.57,86.39,19.88,83.61,13.48,79.22C8.92,74.51,6.13,68.21,6.13,61.27C6.13,57.48,7.02,53.9,8.56,50.67C10.31,57.38,21.9,63.33,43.38,66.63ZM47.63,59.04C64.55,58.84,86,58.29,86,38.39C86,17.38,6,17.38,6,38.39C6,59.34,30.36,59.24,47.63,59.04ZM71.49,25.92C78.4,28.76,83,33.01,83,38.68C83,46.34,80.49,51.35,76.55,54.64C68.76,58.69,57.44,58.92,47.63,59.04C37.21,59.16,24.21,59.24,15.54,54.69C11.55,51.35,9,46.31,9,38.68C9,33.01,13.6,28.76,20.51,25.92C34.96,21.54,57.03,21.54,71.49,25.92ZM46,45.66C28.26,45.66,13.88,41.89,13.88,37.24C13.88,32.59,28.26,14.82,46,14.82C63.74,14.82,78.12,32.59,78.12,37.24C78.12,41.89,63.74,45.66,46,45.66ZM45.56,17.76C43.15,13.41,43.57,8.57,46.5,6.95L50.75,4.59L59.48,20.33L55.23,22.69C52.3,24.32,47.97,22.11,45.56,17.76ZM47.27,11.09C45.97,11.82,44.91,12.78,44.15,13.85C43.62,10.82,44.44,8.09,46.5,6.95L50.75,4.59L52.69,8.09ZM50.45,22.59C51.33,22.39,52.23,22.07,53.09,21.59L58.51,18.58L59.48,20.33L55.23,22.69C53.83,23.46,52.12,23.37,50.45,22.59ZM49.81,15.4C47.4,11.06,47.82,6.21,50.75,4.59C53.68,2.96,58.01,5.17,60.42,9.52C62.83,13.87,62.41,18.71,59.48,20.33C56.55,21.96,52.22,19.75,49.81,15.4ZM60.88,10.41C58.4,6.64,54.45,4.82,51.72,6.34C48.99,7.85,48.44,12.16,50.33,16.26C50.15,15.98,49.97,15.7,49.81,15.4C47.4,11.06,47.82,6.21,50.75,4.59C53.68,2.96,58.01,5.17,60.42,9.52C60.59,9.81,60.74,10.11,60.88,10.41ZM48.09,33.58C43.12,33.58,39.09,30.86,39.09,27.51L39.09,22.65L57.09,22.65L57.09,27.51C57.09,30.86,53.07,33.58,48.09,33.58ZM43.09,28.85C43.09,30.34,43.42,31.73,43.99,32.91C41.08,31.9,39.09,29.86,39.09,27.51L39.09,22.65L43.09,22.65ZM54.69,31.64C54.95,30.77,55.09,29.83,55.09,28.85L55.09,22.65L57.09,22.65L57.09,27.51C57.09,29.11,56.18,30.55,54.69,31.64ZM48.09,28.72C43.12,28.72,39.09,26,39.09,22.65C39.09,19.3,43.12,16.58,48.09,16.58C53.07,16.58,57.09,19.3,57.09,22.65C57.09,26,53.07,28.72,48.09,28.72ZM49.09,16.62C44.59,16.95,41.09,19.52,41.09,22.65C41.09,25.77,44.59,28.34,49.09,28.68C48.77,28.7,48.43,28.72,48.09,28.72C43.12,28.72,39.09,26,39.09,22.65C39.09,19.3,43.12,16.58,48.09,16.58C48.43,16.58,48.77,16.59,49.09,16.62ZM67.6,30.54C72.18,28.63,74.85,24.56,73.56,21.47L71.68,16.99L55.08,23.93L56.95,28.42C58.25,31.51,63.01,32.46,67.6,30.54ZM70.38,24.25C70.96,25.62,71.19,27.03,71.13,28.34C73.42,26.29,74.47,23.64,73.56,21.47L71.68,16.99L67.99,18.53ZM60.76,31.3C60.19,30.6,59.69,29.78,59.31,28.88L56.92,23.16L55.08,23.93L56.95,28.42C57.57,29.89,58.97,30.87,60.76,31.3ZM65.72,26.06C70.31,24.14,72.98,20.08,71.68,16.99C70.39,13.89,65.63,12.94,61.04,14.86C56.45,16.78,53.78,20.84,55.08,23.93C56.37,27.02,61.14,27.97,65.72,26.06ZM60.13,15.28C64.41,13.85,68.63,14.88,69.84,17.76C71.04,20.64,68.81,24.36,64.78,26.41C65.1,26.3,65.41,26.19,65.72,26.06C70.31,24.14,72.98,20.08,71.68,16.99C70.39,13.89,65.63,12.94,61.04,14.86C60.73,14.99,60.43,15.13,60.13,15.28ZM32.41,31.13C27.65,32.56,23.01,31.12,22.04,27.91L20.64,23.25L37.88,18.06L39.28,22.72C40.25,25.93,37.17,29.69,32.41,31.13ZM26.26,28.03C26.69,29.46,27.4,30.7,28.29,31.67C25.21,31.54,22.72,30.16,22.04,27.91L20.64,23.25L24.47,22.1ZM38.17,27.37C38.17,26.46,38.03,25.52,37.75,24.58L35.96,18.64L37.88,18.06L39.28,22.72C39.74,24.25,39.28,25.9,38.17,27.37ZM31.01,26.47C26.25,27.9,21.61,26.46,20.64,23.25C19.68,20.04,22.75,16.28,27.51,14.85C32.27,13.41,36.91,14.85,37.88,18.06C38.84,21.27,35.77,25.04,31.01,26.47ZM28.48,14.59C24.27,16.21,21.66,19.68,22.56,22.67C23.46,25.66,27.55,27.12,31.96,26.14C31.65,26.26,31.33,26.37,31.01,26.47C26.25,27.9,21.61,26.46,20.64,23.25C19.68,20.04,22.75,16.28,27.51,14.85C27.84,14.75,28.16,14.67,28.48,14.59ZM23.96,40.37C19.25,41.95,14.57,40.67,13.49,37.49L11.94,32.88L29,27.13L30.55,31.74C31.62,34.91,28.67,38.78,23.96,40.37ZM17.71,37.48C18.19,38.89,18.94,40.11,19.86,41.04C16.78,41.02,14.25,39.72,13.49,37.49L11.94,32.88L15.73,31.61ZM29.59,36.42C29.56,35.51,29.4,34.58,29.08,33.64L27.1,27.77L29,27.13L30.55,31.74C31.06,33.25,30.66,34.91,29.59,36.42ZM22.41,35.76C17.7,37.35,13.01,36.06,11.94,32.88C10.87,29.71,13.82,25.85,18.53,24.26C23.24,22.67,27.92,23.95,29,27.13C30.07,30.31,27.12,34.17,22.41,35.76ZM19.49,23.97C15.33,25.73,12.84,29.28,13.83,32.24C14.83,35.2,18.97,36.52,23.34,35.4C23.04,35.53,22.73,35.65,22.41,35.76C17.7,37.35,13.01,36.06,11.94,32.88C10.87,29.71,13.82,25.85,18.53,24.26C18.85,24.15,19.17,24.06,19.49,23.97ZM29.85,43.24C25.53,40.77,23.38,36.42,25.04,33.51L27.45,29.28L43.09,38.21L40.67,42.43C39.01,45.34,34.17,45.7,29.85,43.24ZM27.85,36.65C27.12,37.94,26.71,39.32,26.62,40.62C24.59,38.31,23.88,35.55,25.04,33.51L27.45,29.28L30.93,31.27ZM36.54,44.82C37.19,44.2,37.79,43.46,38.28,42.6L41.35,37.22L43.09,38.21L40.67,42.43C39.88,43.82,38.37,44.62,36.54,44.82ZM32.26,39.02C27.94,36.55,25.79,32.19,27.45,29.28C29.12,26.37,33.96,26.01,38.28,28.48C42.6,30.94,44.75,35.3,43.09,38.21C41.42,41.12,36.58,41.48,32.26,39.02ZM39.13,29.01C35.05,27.07,30.74,27.56,29.19,30.28C27.64,32.99,29.41,36.96,33.15,39.48C32.85,39.34,32.55,39.18,32.26,39.02C27.94,36.55,25.79,32.19,27.45,29.28C29.12,26.37,33.96,26.01,38.28,28.48C38.57,28.64,38.86,28.82,39.13,29.01ZM71,41.52C66.03,41.52,62,38.8,62,35.45L62,30.59L80,30.59L80,35.45C80,38.8,75.97,41.52,71,41.52ZM66,36.78C66,38.28,66.33,39.67,66.9,40.85C63.99,39.84,62,37.8,62,35.45L62,30.59L66,30.59ZM77.59,39.58C77.86,38.71,78,37.77,78,36.78L78,30.59L80,30.59L80,35.45C80,37.04,79.09,38.49,77.59,39.58ZM71,36.65C66.03,36.65,62,33.94,62,30.59C62,27.23,66.03,24.52,71,24.52C75.97,24.52,80,27.23,80,30.59C80,33.94,75.97,36.65,71,36.65ZM72,24.56C67.5,24.89,64,27.46,64,30.59C64,33.71,67.5,36.28,72,36.62C71.67,36.64,71.34,36.65,71,36.65C66.03,36.65,62,33.94,62,30.59C62,27.23,66.03,24.52,71,24.52C71.34,24.52,71.67,24.53,72,24.56ZM25.06,12.72L38.24,7.06L26.75,15.65L32.41,28.83L23.82,17.34L10.64,23L22.13,14.41L16.48,1.23Z"/></svg>