<svg xmlns="http://www.w3.org/2000/svg" viewBox="0 0 90 90"><path d="M20.75,59.83L17.69,77.2L24.25,78.36L27.31,60.99Z" fill="currentColor"/><path d="M20.75,59.83L17.69,77.2L20.15,77.64L23.21,60.27Z" fill="currentColor"/><path d="M22.61,78.07L24.25,78.36L27.31,60.99Z" fill="currentColor"/><path d="M14.96,15.86L13.84,22.25C11.54,35.3,13.92,48.76,20.57,60.23C21.97,62.65,25.21,63.22,27.35,61.43C37.52,52.92,44.36,41.09,46.66,28.03L47.79,21.65Z" fill="currentColor"/><path d="M16.27,37.73C17.14,45.46,19.43,53.02,23.09,60C23.47,60.73,24.45,60.91,25.06,60.35C35.38,50.93,42.29,38.37,44.73,24.62L31.6,32.41Z" fill="currentColor"/><path d="M20.57,60.23C21.97,62.65,25.21,63.22,27.35,61.43C37.52,52.92,44.36,41.09,46.66,28.03L47.79,21.65L32.3,18.92L41.47,30.69L41.21,32.19C39.39,42.47,34.73,52.03,27.75,59.79C26.38,61.31,23.86,60.34,23.86,58.29L23.88,51.83C23.89,47.52,24.27,43.22,25.02,38.98L28.67,18.28L14.96,15.86L13.84,22.25C11.54,35.3,13.92,48.76,20.57,60.23Z" fill="currentColor" opacity="0.5"/><path d="M31.63,57.11C39.61,48.36,45,37.48,47.08,25.7L47.79,21.65L46.97,21.5L46.09,26.48C44.09,37.87,39.06,48.43,31.63,57.11Z" fill="currentColor" opacity="0.9"/><path d="M16.64,51.02C15.17,42.54,15.18,33.85,16.68,25.32L18.25,16.44L14.96,15.86L14.25,19.92C12.4,30.38,13.26,41.08,16.64,51.02Z" fill="currentColor" opacity="0.9"/><path d="M4.29,80.2C3.97,80.4,4.02,80.88,4.38,81.02L6.1,81.7C14.86,85.11,24.2,86.76,33.6,86.54L35.45,86.5C35.83,86.49,36.04,86.06,35.82,85.76C28.43,75.86,14.62,73.42,4.29,80.2Z" fill="currentColor"/><path d="M4.33,80.17C4.01,80.38,4.07,80.87,4.44,81L8.04,82.2C15.05,74.62,27.62,76.84,31.61,86.36L35.4,86.46C35.79,86.47,36.02,86.02,35.78,85.71C28.42,75.84,14.64,73.41,4.33,80.17Z" fill="currentColor"/><path d="M29.59,31.52C29.91,29.75,31.6,28.56,33.38,28.87C35.16,29.19,36.34,30.88,36.03,32.66C35.72,34.44,34.02,35.62,32.24,35.31C30.47,35,29.28,33.3,29.59,31.52Z" fill="currentColor"/><path d="M20.88,37.36C21.11,36.05,22.36,35.17,23.68,35.4C24.99,35.63,25.87,36.88,25.64,38.2C25.41,39.51,24.15,40.39,22.84,40.16C21.52,39.93,20.65,38.67,20.88,37.36Z" fill="currentColor"/><path d="M24.61,45.33C24.97,43.33,26.88,41.99,28.88,42.35C30.88,42.7,32.22,44.61,31.87,46.61C31.51,48.62,29.6,49.95,27.6,49.6C25.6,49.25,24.26,47.34,24.61,45.33Z" fill="currentColor"/><path d="M15.09,15.82C15.4,14.04,22.98,13.89,32.01,15.48C41.05,17.07,48.12,19.81,47.8,21.59C47.49,23.37,39.91,23.53,30.88,21.93C21.84,20.34,14.77,17.6,15.09,15.82Z" fill="currentColor"/><path d="M47.8,21.59C48.09,19.93,41.99,17.45,33.86,15.83L32.72,22.24C40.92,23.5,47.51,23.25,47.8,21.59Z" fill="currentColor" opacity="0.5"/><path d="M17.55,16.26C17.7,15.38,24.05,15.77,31.72,17.12C39.4,18.48,45.49,20.28,45.34,21.16C45.18,22.03,38.84,21.65,31.16,20.29C23.49,18.94,17.39,17.13,17.55,16.26Z" fill="currentColor"/><path d="M17.55,16.26C17.4,17.13,23.49,18.94,31.16,20.29C32.88,20.59,34.52,20.85,36.05,21.05L36.57,18.08C35.07,17.75,33.44,17.42,31.72,17.12C24.05,15.77,17.7,15.38,17.55,16.26Z" fill="currentColor"/><path d="M71.07,61.88L75.64,78.92L69.2,80.64L64.63,63.61Z" fill="currentColor"/><path d="M71.07,61.88L75.64,78.92L73.22,79.57L68.66,62.53Z" fill="currentColor"/><path d="M70.81,80.21L69.2,80.64L64.63,63.61Z" fill="currentColor"/><path d="M73,17.57L74.68,23.83C78.11,36.64,76.91,50.25,71.29,62.26C70.1,64.79,66.92,65.64,64.63,64.04C53.76,56.46,45.91,45.27,42.48,32.46L40.8,26.2Z" fill="currentColor"/><path d="M73.61,39.48C73.41,47.25,71.79,54.98,68.76,62.25C68.44,63.02,67.48,63.27,66.82,62.77C55.72,54.29,47.74,42.38,44.11,28.9L57.87,35.51Z" fill="currentColor"/><path d="M71.29,62.26C70.1,64.79,66.92,65.64,64.63,64.04C53.76,56.46,45.91,45.27,42.48,32.46L40.8,26.2L55.99,22.13L47.89,34.65L48.28,36.13C50.98,46.21,56.46,55.33,64.09,62.45C65.59,63.84,68.02,62.66,67.83,60.62L67.25,54.18C66.87,49.89,66.12,45.64,65,41.48L59.56,21.17L73,17.57L74.68,23.83C78.11,36.64,76.91,50.25,71.29,62.26Z" fill="currentColor" opacity="0.5"/><path d="M60,60.12C51.28,52.1,44.96,41.73,41.87,30.18L40.8,26.2L41.61,25.98L42.92,30.87C45.91,42.03,51.84,52.12,60,60.12Z" fill="currentColor" opacity="0.9"/><path d="M74.4,52.74C75.12,44.17,74.36,35.51,72.12,27.15L69.78,18.43L73,17.57L74.07,21.55C76.82,31.82,76.9,42.54,74.4,52.74Z" fill="currentColor" opacity="0.9"/><path d="M89.24,80.73C89.58,80.91,89.57,81.39,89.23,81.56L87.57,82.38C79.14,86.55,69.97,89.01,60.6,89.61L58.75,89.73C58.37,89.75,58.12,89.34,58.32,89.02C64.82,78.52,78.36,74.89,89.24,80.73Z" fill="currentColor"/><path d="M89.19,80.71C89.54,80.89,89.52,81.39,89.16,81.54L85.68,83.06C78.04,76.12,65.71,79.42,62.56,89.25L58.8,89.68C58.41,89.72,58.14,89.3,58.35,88.97C64.83,78.5,78.34,74.88,89.19,80.71Z" fill="currentColor"/><path d="M59.79,34.45C59.33,32.71,57.53,31.67,55.79,32.14C54.05,32.61,53.01,34.4,53.48,36.14C53.95,37.89,55.74,38.92,57.48,38.45C59.22,37.99,60.26,36.19,59.79,34.45Z" fill="currentColor"/><path d="M68.98,39.5C68.64,38.22,67.31,37.45,66.02,37.8C64.73,38.14,63.97,39.47,64.32,40.76C64.66,42.04,65.99,42.81,67.28,42.46C68.56,42.12,69.33,40.79,68.98,39.5Z" fill="currentColor"/><path d="M65.96,47.77C65.43,45.81,63.41,44.64,61.45,45.17C59.48,45.7,58.32,47.72,58.84,49.68C59.37,51.64,61.39,52.81,63.35,52.28C65.32,51.76,66.48,49.74,65.96,47.77Z" fill="currentColor"/><path d="M72.87,17.55C72.41,15.8,64.84,16.31,55.98,18.68C47.12,21.05,40.32,24.4,40.79,26.14C41.26,27.89,48.82,27.38,57.68,25.01C66.54,22.63,73.34,19.29,72.87,17.55Z" fill="currentColor"/><path d="M40.79,26.14C40.35,24.52,46.22,21.51,54.18,19.19L55.86,25.47C47.81,27.44,41.22,27.77,40.79,26.14Z" fill="currentColor" opacity="0.5"/><path d="M70.46,18.19C70.23,17.33,63.94,18.27,56.41,20.29C48.89,22.31,42.97,24.64,43.2,25.5C43.43,26.35,49.72,25.42,57.25,23.4C64.77,21.38,70.69,19.05,70.46,18.19Z" fill="currentColor"/><path d="M70.46,18.19C70.69,19.05,64.77,21.38,57.25,23.4C55.57,23.85,53.95,24.24,52.45,24.58L51.67,21.67C53.14,21.21,54.74,20.74,56.41,20.29C63.94,18.27,70.23,17.33,70.46,18.19Z" fill="currentColor"/><path d="M49.25,1L42.2,1L45.71,13.01Z" fill="currentColor"/><path d="M29.61,9.59L33.83,3.93L41.35,13.95Z" fill="currentColor"/><path d="M61.45,9.59L57.23,3.93L49.71,13.95Z" fill="currentColor"/><path d="M53,73C50.79,73,48.99,71.2,49,68.99C49.01,66.79,50.79,65.01,52.99,65C55.2,64.99,57,66.79,57,69C57,71.21,55.21,73,53,73Z" fill="currentColor"/><path d="M3,58.15C1.9,58.15,1,57.26,1,56.15C1,55.05,1.89,54.16,3,54.15C4.1,54.15,5,55.05,5,56.16C5,57.26,4.1,58.15,3,58.15Z" fill="currentColor"/><path d="M10,67.15C8.9,67.15,8,66.26,8,65.15C8,64.05,8.89,63.16,10,63.15C11.1,63.15,12,64.05,12,65.16C12,66.26,11.1,67.15,10,67.15Z" fill="currentColor"/><path d="M86,41C83.24,41,81,38.76,81,36C81,33.24,83.23,31.01,85.99,31C88.76,30.99,91.01,33.24,91,36.01C90.99,38.77,88.76,41,86,41Z" fill="currentColor"/></svg>