<svg xmlns="http://www.w3.org/2000/svg" viewBox="0 0 90 90"><path d="M46.61,2.82L51.64,11.42L60.81,8.44C62.28,7.96,63.71,9.25,63.38,10.76L58.3,34.25L72.83,24.16C74.11,23.28,75.95,24.12,76.09,25.66L76.84,33.91L87.29,34.95C88.89,35.11,89.73,36.9,88.78,38.12L82.76,45.83L89.38,52.24C90.52,53.34,90.01,55.17,88.48,55.52L68.2,60.09L71.02,71.26C71.39,72.73,70.05,74.06,68.58,73.68L44.96,67.59L21.34,73.68C19.87,74.06,18.53,72.73,18.91,71.26L21.72,60.09L1.52,55.53C-0.03,55.18,-0.52,53.32,0.64,52.23L6.89,46.39L1.03,38.2C0.13,36.95,1.05,35.19,2.65,35.09L12.81,34.46L13.79,25.58C13.95,24.06,15.77,23.25,17.03,24.12L31.62,34.25L26.56,10.83C26.23,9.3,27.69,8.01,29.16,8.51L37.63,11.42L43.2,2.74C44.01,1.49,45.86,1.53,46.61,2.82Z" fill="#DC501D"/><path d="M46.61,2.82L51.64,11.42L60.81,8.44C62.28,7.96,63.71,9.25,63.38,10.76L58.3,34.25L72.83,24.16C74.11,23.28,75.95,24.12,76.09,25.66L76.84,33.91L87.29,34.95C88.89,35.11,89.73,36.9,88.78,38.12L82.76,45.83L89.38,52.24C90.3,53.13,90.14,54.49,89.25,55.16L81.76,46.33L86.8,36.71L76.13,34.64L73.81,25.46L57.38,35.2L60.55,10.96L51.38,11.95L44.96,3.48L37.94,11.95L28.77,10.96L31.94,35.2L15.51,25.46L13.18,34.64L2.51,36.71L7.56,46.33L0.37,54.8C-0.17,54.07,-0.15,52.97,0.64,52.23L6.89,46.39L1.02,38.2C0.13,36.95,1.05,35.19,2.65,35.09L12.81,34.46L13.78,25.58C13.95,24.06,15.77,23.25,17.03,24.12L31.62,34.25L26.56,10.83C26.23,9.3,27.69,8.01,29.16,8.51L37.63,11.42L43.2,2.74C44.01,1.49,45.86,1.53,46.61,2.82Z" fill="#FA742C"/><path d="M12.2,39.1L36.61,50.74C43.57,54.05,48,61.08,48,68.79L48,70L42,70L42,63.34C42,59.75,40.07,56.44,36.95,54.66L22.12,46.2L6.2,38.46Z" fill="#A93616"/><path d="M79.89,38.25L53.45,50.75C46.46,54.06,42,61.1,42,68.83L42,70L48,70L48,63.5C48,59.83,50.02,56.45,53.25,54.7L84.61,37.8Z" fill="#A93616"/><path d="M46.8,56.76C47.59,58.65,48,60.68,48,62.72L48,72.69C48,76.3,49.37,79.78,51.83,82.42L53.86,84.61C54.65,85.46,54.88,86.69,54.45,87.77C53.66,89.77,51.07,90.31,49.54,88.79L48.13,87.4C44.21,83.5,42,78.2,42,72.67L42,60.41C42,59.26,42.45,58.16,43.24,57.34L43.67,11.87L44.96,6.42Z" fill="#A93616"/><path d="M19.47,31.86L20.24,43.93L12.62,52.36L22.13,44.6Z" fill="#A93616" opacity="0.5"/><path d="M29.42,35.34L30.27,49.18L21.84,58.84L32.36,49.95Z" fill="#A93616" opacity="0.5"/><path d="M71.5,31.86L70.73,43.34L78.36,51.36L68.84,43.98Z" fill="#A93616" opacity="0.5"/><path d="M60.56,35.34L59.71,49.18L68.13,58.84L57.62,49.95Z" fill="#A93616" opacity="0.5"/><path d="M58.06,18.62L44.88,22.86L33.78,18.78L44.57,24.7Z" fill="#A93616" opacity="0.5"/><path d="M56.06,33.69L44.01,37.63L33.71,33.33L43.77,39.45Z" fill="#A93616" opacity="0.5"/></svg>