<svg xmlns="http://www.w3.org/2000/svg" viewBox="0 0 90 90"><path d="M42.21,22.03L42.21,80.19L47.71,80.19L47.71,22.03Z" fill="#CF8D1B"/><path d="M45.78,22.03L45.78,80.19L47.77,80.19L47.77,22.03Z" fill="#B37314"/><path d="M22.96,34.31L17.38,34.31C19.72,47.46,31.19,57.51,45.01,57.51C58.83,57.51,70.31,47.46,72.65,34.31L67.06,34.31C64.81,44.41,55.78,52.01,45.01,52.01C34.22,52.01,25.22,44.41,22.96,34.31Z" fill="#CF8D1B"/><path d="M17.9,34.28L17.46,34.28C19.8,47.44,31.28,57.48,45.1,57.48C58.92,57.48,70.39,47.44,72.73,34.28L72.29,34.28C69.32,46.64,58.34,55.89,45.07,55.89L45.12,55.89C31.88,55.89,20.87,46.64,17.9,34.28Z" fill="#B37314"/><path d="M10.85,37.86L5.13,37.86C9.04,56.3,25.44,70.17,45.04,70.17C64.64,70.17,81.02,56.3,84.96,37.86L79.29,37.86C75.46,53.22,61.59,64.67,45.07,64.67L45.01,64.67C28.55,64.67,14.73,53.33,10.85,37.86Z" fill="#CF8D1B"/><path d="M35.05,29.49L29.54,29.49C29.6,37.97,36.51,44.85,45.01,44.85C53.52,44.85,60.43,37.97,60.48,29.49L54.98,29.49C54.92,34.94,50.46,39.34,45.01,39.34C39.56,39.34,35.1,34.94,35.05,29.49Z" fill="#CF8D1B"/><path d="M44.77,15.97C47.19,15.97,49.14,14.02,49.14,11.6C49.14,9.72,46.53,7.41,45.34,4.14C45.15,3.61,44.41,3.61,44.22,4.14C43.03,7.38,40.42,9.72,40.42,11.6L40.39,11.6C40.39,14.02,42.34,15.97,44.77,15.97Z" fill="#F7C631"/><path d="M44.35,14.07C42.62,14.07,41.13,13.03,40.42,11.54C40.42,11.54,40.42,11.57,40.42,11.6C40.42,14.02,42.37,15.97,44.79,15.97C47.22,15.97,49.17,14.02,49.17,11.6C49.17,11.1,48.98,10.52,48.7,9.89L48.67,9.89C48.56,12.2,46.69,14.07,44.35,14.07Z" fill="#FA742C"/><path d="M56.99,23.68C59.41,23.68,61.37,21.73,61.37,19.3C61.37,17.43,58.75,15.12,57.57,11.84C57.37,11.32,56.63,11.32,56.44,11.84C55.25,15.09,52.64,17.43,52.64,19.3L52.61,19.3C52.61,21.73,54.57,23.68,56.99,23.68Z" fill="#F7C631"/><path d="M69.21,28.47C71.63,28.47,73.59,26.52,73.59,24.09C73.59,22.22,70.97,19.91,69.79,16.63C69.6,16.11,68.85,16.11,68.66,16.63C67.48,19.88,64.86,22.22,64.86,24.09L64.83,24.09C64.83,26.52,66.79,28.47,69.21,28.47Z" fill="#F7C631"/><path d="M81.43,33.26C83.86,33.26,85.81,31.3,85.81,28.88C85.81,27.01,83.19,24.7,82.01,21.42C81.82,20.9,81.07,20.9,80.88,21.42C79.7,24.67,77.08,27.01,77.08,28.88L77.06,28.88C77.06,31.3,79.01,33.26,81.43,33.26Z" fill="#F7C631"/><path d="M32.54,23.68C30.12,23.68,28.17,21.73,28.17,19.3C28.17,17.43,30.78,15.12,31.97,11.84C32.16,11.32,32.9,11.32,33.09,11.84C34.28,15.09,36.89,17.43,36.89,19.3L36.92,19.3C36.92,21.73,34.97,23.68,32.54,23.68Z" fill="#F7C631"/><path d="M20.32,28.47C17.9,28.47,15.94,26.52,15.94,24.09C15.94,22.22,18.56,19.91,19.74,16.63C19.94,16.11,20.68,16.11,20.87,16.63C22.06,19.88,24.67,22.22,24.67,24.09L24.7,24.09C24.7,26.52,22.74,28.47,20.32,28.47Z" fill="#F7C631"/><path d="M8.13,33.26C5.7,33.26,3.75,31.3,3.75,28.88C3.75,27.01,6.37,24.7,7.55,21.42C7.74,20.9,8.48,20.9,8.68,21.42C9.86,24.67,12.48,27.01,12.48,28.88L12.5,28.88C12.5,31.3,10.55,33.26,8.13,33.26Z" fill="#F7C631"/><path d="M29.79,29.46L29.63,29.46C29.68,37.94,36.59,44.82,45.1,44.82C53.6,44.82,60.51,37.94,60.57,29.46L60.4,29.46C59.52,37.17,53.05,43.2,45.1,43.2C37.17,43.2,30.67,37.17,29.79,29.46Z" fill="#B37314"/><path d="M5.76,37.86L5.26,37.86C9.17,56.3,25.58,70.17,45.18,70.17C64.78,70.17,81.16,56.3,85.09,37.86L84.6,37.86C80,55.34,64.09,68.27,45.18,68.27C26.27,68.27,10.38,55.34,5.76,37.86Z" fill="#B37314"/><path d="M10.88,86.25L79.12,86.25C73.04,82.26,60.07,79.48,44.99,79.48L45.01,79.48C29.93,79.48,16.96,82.26,10.88,86.25Z" fill="#B37314"/><path d="M56.58,21.78C54.84,21.78,53.35,20.73,52.64,19.25C52.64,19.25,52.64,19.28,52.64,19.3C52.64,21.73,54.59,23.68,57.02,23.68C59.44,23.68,61.39,21.73,61.39,19.3C61.39,18.81,61.2,18.23,60.92,17.6L60.9,17.6C60.79,19.91,58.92,21.78,56.58,21.78Z" fill="#FA742C"/><path d="M32.13,21.78C30.4,21.78,28.91,20.73,28.19,19.25C28.19,19.25,28.19,19.28,28.19,19.3C28.19,21.73,30.15,23.68,32.57,23.68C34.99,23.68,36.95,21.73,36.95,19.3C36.95,18.81,36.76,18.23,36.48,17.6L36.45,17.6C36.34,19.91,34.47,21.78,32.13,21.78Z" fill="#FA742C"/><path d="M68.8,26.57C67.06,26.57,65.58,25.52,64.86,24.04C64.86,24.04,64.86,24.07,64.86,24.09C64.86,26.52,66.82,28.47,69.24,28.47C71.66,28.47,73.61,26.52,73.61,24.09C73.61,23.6,73.42,23.02,73.15,22.39L73.12,22.39C73.01,24.7,71.14,26.57,68.8,26.57Z" fill="#FA742C"/><path d="M19.91,26.57C18.17,26.57,16.69,25.52,15.97,24.04C15.97,24.04,15.97,24.07,15.97,24.09C15.97,26.52,17.93,28.47,20.35,28.47C22.77,28.47,24.73,26.52,24.73,24.09C24.73,23.6,24.53,23.02,24.26,22.39L24.23,22.39C24.12,24.7,22.25,26.57,19.91,26.57Z" fill="#FA742C"/><path d="M80.99,31.36C79.26,31.36,77.77,30.31,77.06,28.83C77.06,28.83,77.06,28.86,77.06,28.88C77.06,31.3,79.01,33.26,81.43,33.26C83.86,33.26,85.81,31.3,85.81,28.88C85.81,28.39,85.62,27.81,85.34,27.18L85.31,27.18C85.2,29.49,83.33,31.36,80.99,31.36Z" fill="#FA742C"/><path d="M7.71,31.36C5.98,31.36,4.49,30.31,3.78,28.83C3.78,28.83,3.78,28.86,3.78,28.88C3.78,31.3,5.73,33.26,8.15,33.26C10.58,33.26,12.53,31.3,12.53,28.88C12.53,28.39,12.34,27.81,12.06,27.18L12.04,27.18C11.93,29.49,10.05,31.36,7.71,31.36Z" fill="#FA742C"/></svg>