<svg xmlns="http://www.w3.org/2000/svg" viewBox="0 0 90 90"><path d="M37.06,12.08C37.06,6.14,32.46,1.32,26.79,1.32C21.13,1.32,16.53,6.14,16.53,12.08C16.53,18.02,21.13,25.16,26.79,25.16C32.46,25.16,37.06,18.02,37.06,12.08Z" fill="#FF949D"/><path d="M36.3,8.04C34.47,4.82,31.05,2.65,27.12,2.65C21.49,2.65,16.88,7.11,16.55,12.75C16.54,12.53,16.53,12.3,16.53,12.08C16.53,6.14,21.13,1.32,26.79,1.32C31.09,1.32,34.78,4.1,36.3,8.04Z" fill="#FFB5B9"/><path d="M31.36,12.13C31.36,9.58,29.24,7.5,26.62,7.5C24.01,7.5,21.89,9.58,21.89,12.13C21.89,14.69,24.01,18.65,26.62,18.65C29.24,18.65,31.36,14.69,31.36,12.13Z" fill="#FFB5B9"/><path d="M52.94,12.08C52.94,6.14,57.54,1.32,63.21,1.32C68.87,1.32,73.47,6.14,73.47,12.08C73.47,18.02,68.87,25.16,63.21,25.16C57.54,25.16,52.94,18.02,52.94,12.08Z" fill="#FF949D"/><path d="M53.7,8.04C55.53,4.82,58.95,2.65,62.88,2.65C68.51,2.65,73.12,7.11,73.45,12.75C73.46,12.53,73.47,12.3,73.47,12.08C73.47,6.14,68.88,1.32,63.21,1.32C58.91,1.32,55.22,4.1,53.7,8.04Z" fill="#FFB5B9"/><path d="M58.64,12.13C58.64,9.58,60.76,7.5,63.38,7.5C65.99,7.5,68.11,9.58,68.11,12.13C68.11,14.69,65.99,18.65,63.38,18.65C60.76,18.65,58.64,14.69,58.64,12.13Z" fill="#FFB5B9"/><path d="M17.85,35.86C17.85,50.9,25.28,57.7,45,57.7C64.72,57.7,72.15,50.72,72.15,35.86C72.15,20.63,59.41,8.61,45,8.61C30.59,8.61,17.85,20.81,17.85,35.86Z" fill="#FF949D"/><path d="M34.5,38C29.81,38,26,34.43,26,30.02C26,28.66,26.09,26.99,26.73,25.86L28.81,25.86L29.75,23.4L31.67,23.76L34.03,20.61C38.72,21.68,43,25.61,43,30.02C43,34.43,39.19,38,34.5,38Z" fill="#FFB5B9"/><path d="M54.5,38C59.19,38,63,34.43,63,30.02C63,28.66,62.91,26.99,62.27,25.86L60.19,25.86L59.25,23.4L57.33,23.76L54.97,20.61C50.28,21.68,46,25.61,46,30.02C46,34.43,49.81,38,54.5,38Z" fill="#FFB5B9"/><path d="M21.82,22.06L27.12,53.86L24.21,55.66L21.04,49.1L18.89,49.51L18.39,42.15L15.66,41.65L17.39,34.59L15.21,32.89Z" fill="#FF949D"/><path d="M68.18,22.06L62.88,53.86L65.79,55.66L68.96,49.1L71.11,49.51L71.61,42.15L74.34,41.65L72.61,34.59L74.79,32.89Z" fill="#FF949D"/><path d="M35.31,38.5C32.95,38.5,31,36.88,31,34.58C31,31.59,32.93,29.16,35.31,29.16C37.7,29.16,39.6,31.59,39.6,34.58C39.6,36.88,37.67,38.5,35.31,38.5Z" fill="#FF949D"/><path d="M54.71,38.5C52.35,38.5,50.4,36.88,50.4,34.58C50.4,31.59,52.33,29.16,54.71,29.16C57.1,29.16,59,31.59,59,34.58C59,36.88,57.07,38.5,54.71,38.5Z" fill="#FF949D"/><path d="M35.31,37.35C33.32,37.35,31.67,34.92,31.67,32.64C31.67,30.36,33.3,28.5,35.31,28.5C37.32,28.5,38.93,30.36,38.93,32.64C38.93,34.92,37.3,37.35,35.31,37.35Z" fill="#312E2B"/><path d="M54.81,37.35C52.82,37.35,51.19,34.92,51.19,32.64C51.19,30.36,52.82,28.5,54.81,28.5C56.8,28.5,58.43,30.36,58.43,32.64C58.43,34.92,56.8,37.35,54.81,37.35Z" fill="#312E2B"/><path d="M29.44,77.32C29.44,84.32,23.76,90,16.76,90C9.76,90,4.08,84.32,4.08,77.32C4.08,67.32,19.76,54.65,26.76,54.65C33.76,54.65,29.44,70.32,29.44,77.32Z" fill="#FF949D"/><path d="M86.25,77.32C86.25,84.32,80.57,90,73.57,90C66.57,90,60.9,84.32,60.9,77.32C60.9,70.32,56.57,54.65,63.57,54.65C70.57,54.65,86.25,67.32,86.25,77.32Z" fill="#FF949D"/><path d="M29.44,77.32C29.44,78.3,29.32,79.25,29.11,80.16C22.72,74.72,16.21,68.55,12.46,62.55C17.32,57.96,23.18,54.64,26.76,54.64C33.76,54.65,29.44,70.32,29.44,77.32Z" fill="#FF788A"/><path d="M77.35,62.06C73.74,67.79,67.42,73.68,61,78.97C60.93,78.43,60.9,77.88,60.9,77.32C60.9,70.32,56.57,54.65,63.57,54.64C67.03,54.64,72.59,57.73,77.35,62.06Z" fill="#FF788A"/><path d="M75.6,50.75C75.6,62.91,59.27,77.87,49.01,87.59C47.82,88.73,45.88,89.36,44.3,89.46L43.99,89.48L43.69,89.46C42.21,89.36,40.5,88.73,39.36,87.59C29.6,77.87,14.05,62.91,14.05,50.75C14.05,33.07,33.18,23.9,43.99,39.03C55.13,24.19,75.6,32.42,75.6,50.75Z" fill="#ED2456"/><path d="M75.6,50.75C75.6,62.91,59.27,77.87,49.01,87.59C47.74,88.81,45.62,89.44,43.99,89.48L43.69,89.46C42.21,89.36,40.5,88.73,39.36,87.59C31.25,79.52,19.16,67.83,15.29,57.13L39.48,80.49C41.66,82.6,45.25,82.32,47.33,80.11C55.32,71.59,68.53,60.67,68.86,49.1C69.12,40.18,65.02,33.81,59.39,31.41C67.91,32.07,75.6,39.51,75.6,50.75Z" fill="#C4144F"/><path d="M43.94,38.97C43.87,40.8,43.54,42.91,42.91,45.31C40.91,37.42,34.21,30.79,24.84,32.64C30.98,29.96,38.5,31.41,43.94,38.97Z" fill="#C4144F"/><path d="M29,47.6C29,43.36,25.1,41.47,21.17,41.47C17.24,41.47,14.05,44.9,14.05,49.14C14.05,53.38,17.24,56.82,21.17,56.82C25.1,56.82,29,51.84,29,47.6Z" fill="#C4144F"/><path d="M25.98,45.04C25.98,40.05,20.5,37.82,14.99,37.82C9.47,37.82,5,41.87,5,46.87C5,51.86,9.47,55.91,14.99,55.91C20.5,55.91,25.98,50.04,25.98,45.04Z" fill="#FF949D"/><path d="M25.98,45.04C25.98,50.04,20.5,55.91,14.99,55.91C14.61,55.91,14.24,55.89,13.87,55.85C19.17,55.19,24.85,48.95,21.95,45.09C25.46,40.34,19.45,38.14,14.16,37.86C14.43,37.84,14.71,37.82,14.99,37.82C20.5,37.82,25.98,40.05,25.98,45.04Z" fill="#FFB5B9"/><path d="M61,47.6C61,43.36,64.9,41.47,68.83,41.47C72.76,41.47,75.95,44.9,75.95,49.14C75.95,53.38,72.76,56.82,68.83,56.82C64.9,56.82,61,51.84,61,47.6Z" fill="#C4144F"/><path d="M64.02,45.04C64.02,40.05,69.5,37.82,75.01,37.82C80.53,37.82,85,41.87,85,46.87C85,51.86,80.53,55.91,75.01,55.91C69.5,55.91,64.02,50.04,64.02,45.04Z" fill="#FF949D"/><path d="M64.02,45.04C64.02,50.04,69.5,55.91,75.01,55.91C75.39,55.91,75.75,55.89,76.12,55.85C70.82,55.2,65.14,48.95,68.03,45.09C64.53,40.34,70.54,38.14,75.83,37.85C75.56,37.83,75.29,37.82,75.01,37.82C69.5,37.82,64.02,40.05,64.02,45.04Z" fill="#FFB5B9"/><path d="M8.96,66.22L8.33,75.56L2.76,71.95L6.53,69.68L5.18,66.93Z" fill="#FF949D"/><path d="M49.5,10.7L40.16,10.08L43.77,4.51L46.04,8.28L48.79,6.93Z" fill="#FF949D"/><path d="M81.21,73.66L81.82,83.12L86.73,84.83L86.15,81.64L88.23,79.78Z" fill="#FF949D"/></svg>