<svg xmlns="http://www.w3.org/2000/svg" viewBox="0 0 90 90" fill="currentColor"><path d="M46.55,16.08C33.73,32.74,39.15,57.61,39.4,58.65C40.42,63.08,44.71,65.8,49,64.81C53.29,63.77,55.95,59.36,54.97,54.94C53.87,49.88,52.44,34.92,59.12,26.28C63.1,21.14,69.87,18.53,79.19,18.53C83.59,18.53,87.17,14.84,87.17,10.28C87.17,5.71,83.59,2.03,79.19,2.03C64.7,2.03,53.73,6.76,46.55,16.08ZM66.41,16.35C74.16,14.18,83.07,12.12,85.08,4.69C86.4,6.15,87.22,8.1,87.22,10.28C87.22,14.81,83.65,18.53,79.25,18.53C69.9,18.53,63.13,21.14,59.17,26.28C52.52,34.89,53.92,49.88,55.02,54.94C56.01,59.36,53.34,63.79,49.05,64.81C44.76,65.8,40.47,63.1,39.45,58.65C39.32,58.1,37.75,50.78,38.22,41.54C41.22,41.57,43.61,40.58,45.84,37.64L45.84,37.67C52.79,28.54,53.92,19.85,66.41,16.35ZM55.19,62.64L49.91,60.66C53.98,59.39,57.85,57.58,61.32,55.13L47.48,56.37L45.95,54.63L55.08,44.29L58.79,42.64L65.58,49.38L67.23,38.93L86.62,30.35C88.43,42.31,82.19,54,69.62,59.56C65.06,61.56,60.13,62.55,55.19,62.64ZM41.98,60.63L36.7,62.61C31.75,62.53,26.86,61.56,22.3,59.53C9.76,54,3.51,42.31,5.33,30.35L22.71,38.05L24.5,49.38L31.86,42.09L36.84,44.29L45.97,54.63L44.43,56.37L30.6,55.13C34.06,57.55,37.94,59.36,41.98,60.63ZM49.91,60.66L47.48,59.75C47.48,59.36,47.51,58.95,47.48,58.57L45.92,59.14L44.43,58.59C44.43,58.95,44.43,59.34,44.43,59.69L41.96,60.63C37.91,59.36,34.01,57.55,30.57,55.13L44.41,56.37L45.95,54.63L47.48,56.37L61.32,55.13C57.85,57.55,53.98,59.36,49.91,60.66ZM65.99,66.71L66.27,69.43L68.91,67.81L87.14,74.65C79.74,84,68.03,87.22,56.97,82.08C51.58,79.58,47.92,74.24,46,68.66C46.77,66.4,47.27,64.12,47.46,61.98C50.02,62.42,52.6,62.69,55.21,62.64L55.19,62.64ZM47.48,61.4C48.31,61.21,49.11,60.9,49.91,60.63L55.19,62.61C52.6,62.66,50.02,62.39,47.43,61.95L47.43,61.98C47.43,61.78,47.46,61.59,47.48,61.4ZM45.95,59.14L44.49,59.69C44.49,59.34,44.46,58.92,44.49,58.59L44.46,58.59ZM49.93,60.66C49.13,60.9,48.34,61.21,47.51,61.43C47.54,60.85,47.51,60.33,47.51,59.78L47.51,59.75ZM46,68.66C44.08,74.24,40.39,79.58,35.03,82.08C23.92,87.25,12.2,84,4.75,74.65L22.68,67.92L25.16,69.43L25.4,66.9L36.7,62.64C39.32,62.69,41.93,62.42,44.52,61.98L44.54,61.98C44.73,64.15,45.23,66.4,46,68.66ZM44.52,61.98C41.93,62.44,39.32,62.69,36.7,62.64L41.98,60.66C42.81,60.93,43.63,61.23,44.49,61.43C44.49,61.62,44.49,61.78,44.52,61.98ZM44.46,59.72C44.46,60.3,44.46,60.85,44.46,61.43C43.61,61.21,42.78,60.9,41.96,60.66L41.98,60.66ZM47.51,59.75L45.95,59.17L47.51,58.59L47.51,58.57C47.51,58.95,47.51,59.36,47.51,59.75ZM47.46,61.98C47.27,64.12,46.77,66.4,46,68.66C45.23,66.4,44.73,64.12,44.54,61.98C45.01,61.89,45.51,61.81,45.97,61.7C46.47,61.81,46.96,61.89,47.46,61.98ZM45.95,61.7C46.44,61.59,46.96,61.54,47.46,61.4C47.46,61.59,47.46,61.78,47.4,61.98L47.43,61.98C46.94,61.89,46.44,61.81,45.95,61.7ZM44.52,61.43C45.01,61.54,45.51,61.59,45.97,61.7C45.51,61.81,45.01,61.89,44.54,61.98C44.54,61.78,44.54,61.62,44.52,61.43ZM44.52,61.43C44.49,60.85,44.52,60.27,44.52,59.72L45.97,59.17L47.54,59.75C47.54,60.3,47.54,60.85,47.54,61.4C47.05,61.54,46.52,61.59,46.03,61.7L45.97,61.7C45.48,61.59,44.98,61.54,44.52,61.43ZM84.03,34.42C84.03,44.07,78.17,52.71,68.39,57.03C66.95,57.66,65.47,58.15,63.96,58.57C71.41,53.86,75.75,46.36,75.78,38.05L75.78,38.08ZM23.18,57.05C13.38,52.71,7.53,44.1,7.53,34.45L14.93,37.72C15.01,46.27,19.68,54,27.6,58.62L27.6,58.59C26.09,58.18,24.61,57.69,23.18,57.05ZM38.24,75.64C38.99,75.29,39.7,74.82,40.42,74.38C38.27,76.5,35.91,78.31,33.27,79.58C30.19,81.06,27,81.83,23.78,81.83C18.31,81.83,13,79.58,8.77,75.51L14.95,72.51C18.97,75.89,23.78,77.87,28.76,77.87L28.76,77.9C31.98,77.9,35.16,77.16,38.24,75.64ZM63.02,78.42C68.11,78.42,73.03,76.39,77.1,72.84L82.66,75.53C78.42,79.58,73.11,81.86,67.64,81.86C64.42,81.86,61.23,81.12,58.16,79.6C55.82,78.48,53.67,76.94,51.75,75.15C52.33,75.51,52.9,75.86,53.53,76.17C56.62,77.65,59.8,78.42,63.02,78.42Z"/></svg>