<svg xmlns="http://www.w3.org/2000/svg" viewBox="0 0 90 90"><path d="M89.96,31.16C89.96,48.94,66.1,70.81,51.1,85.02C49.35,86.69,46.52,87.6,44.21,87.75L43.75,87.78L43.32,87.75C41.15,87.6,38.66,86.69,37,85.02C22.72,70.81,0,48.94,0,31.16C0,5.32,27.95,-8.09,43.75,14.04C60.04,-7.67,89.96,4.36,89.96,31.16Z" fill="#ED2456"/><path d="M89.96,31.16C89.96,48.94,66.1,70.81,51.1,85.01C49.35,86.69,46.52,87.6,44.21,87.75L43.75,87.77L43.32,87.75C41.15,87.6,38.66,86.69,37,85.01C25.14,73.21,7.46,56.13,1.81,40.49L37.17,74.64C40.36,77.72,45.6,77.31,48.63,74.08C60.32,61.63,79.63,45.66,80.12,28.75C80.49,15.71,74.5,6.4,66.26,2.89C78.72,3.85,89.96,14.73,89.96,31.16Z" fill="#C4144F"/><path d="M28.77,3.36C29.03,3.42,29.3,3.48,29.56,3.55C29.75,3.6,29.93,3.65,30.11,3.71C30.4,3.79,30.69,3.88,30.98,3.98C31,3.98,31.01,3.99,31.02,3.99C31.6,4.19,32.18,4.42,32.75,4.67C32.93,4.75,33.12,4.83,33.3,4.92C33.57,5.05,33.84,5.18,34.12,5.33C34.43,5.49,34.75,5.67,35.07,5.85C35.79,6.27,36.5,6.74,37.2,7.26C37.21,7.27,37.23,7.28,37.25,7.29C38.36,8.12,39.45,9.06,40.5,10.14C40.53,10.17,40.56,10.2,40.59,10.23C41.67,11.34,42.7,12.57,43.69,13.95C43.58,16.62,43.1,19.7,42.18,23.21C39.26,11.67,29.45,1.97,15.75,4.7C16.74,4.27,17.75,3.91,18.78,3.62C19.04,3.55,19.31,3.49,19.57,3.43C19.91,3.35,20.25,3.28,20.59,3.21C20.85,3.17,21.12,3.12,21.39,3.08C23.81,2.74,26.3,2.81,28.77,3.36Z" fill="#C4144F"/><path d="M89.96,31.16C89.96,32.25,89.87,33.36,89.7,34.48C89.85,33.15,89.93,31.83,89.96,30.51C89.96,30.73,89.96,30.94,89.96,31.16Z" fill="#FF788A"/><path d="M0.25,34.47C0.09,33.35,0,32.25,0,31.16C0,30.94,0,30.72,0,30.51C0.03,31.82,0.11,33.14,0.25,34.47Z" fill="#FF788A"/><path d="M86.37,16.34C77.94,2.63,56.6,0.82,43.75,15.32C32.2,1.62,14.14,2.31,5.27,13.47C14.14,0.68,32.2,-2.14,43.75,14.04C56.6,-3.09,77.94,0.79,86.37,16.34Z" fill="#FF788A"/><path d="M59.41,77.11L45,55.13L29.99,78.02C25.88,73.89,21.54,69.37,17.48,64.66L36.76,35.31L45,40.36L53.24,35.31L72.13,64.07C68.02,68.64,63.62,73.05,59.41,77.11Z" fill="#940C45"/><path d="M36.76,34.31L51.91,41.88L22.49,78.45L18.05,68.65L9.09,68.65Z" fill="#FFB5B9"/><path d="M53.24,34.31L38.09,41.88L67.51,78.45L71.95,68.65L80.91,68.65Z" fill="#FF949D"/><path d="M88.76,38.47C87.62,42.15,85.72,45.93,83.31,49.72C75.87,42.24,53.81,43.5,45.19,43.5C36.14,43.5,14.01,42.21,6.59,50.14C4.24,46.33,2.38,42.51,1.24,38.79C9.24,28.05,32.69,30,45.19,30C57.33,30,80.97,28.01,88.76,38.47Z" fill="#FFB5B9"/><path d="M66.67,58C61.92,58,55.66,53.86,50.77,49.35C47.61,50.52,42.68,50.44,39.42,49.3C34.52,53.82,28.23,58,23.46,58C21.47,58,19.83,57.59,18.61,56.84L36.76,34.31L45,38.42L53.24,34.31L71.43,56.89C70.22,57.61,68.62,58,66.67,58Z" fill="#FF788A"/><path d="M20.44,54C15.64,54,12.94,51.61,13,47.8C13.06,40.62,14.22,39.06,14.22,35C14.22,30.94,13.06,29.38,13,22.2C12.94,18.39,15.64,16,20.44,16C29.51,16,46,31.7,46,35C46,38.87,29.48,54,20.44,54Z" fill="#FFD4D4"/><path d="M37.56,41.79C29.13,41.79,17.56,42.69,17.56,46.88C17.56,53.24,34.3,43.2,37.56,41.79Z" fill="#FF788A"/><path d="M39,30.34L39,38.04C32.88,37.74,29.26,38.04,23.18,38.66L34.32,35.63C35.28,35.37,35.31,34.01,34.35,33.71L21.13,29.59L34.1,31.07C35.1,31.18,35.62,29.91,34.82,29.29L26.75,22.99C31.96,24.87,34.87,26.24,39,30.34Z" fill="#FFB5B9"/><path d="M69.56,54C74.36,54,77.06,51.61,77,47.8C76.94,40.62,75.78,39.06,75.78,35C75.78,30.94,76.94,29.38,77,22.2C77.06,18.39,74.36,16,69.56,16C60.49,16,44,31.7,44,35C44,38.87,60.52,54,69.56,54Z" fill="#FFD4D4"/><path d="M52.44,41.79C60.87,41.79,72.44,42.69,72.44,46.88C72.44,53.24,55.7,43.2,52.44,41.79Z" fill="#FF788A"/><path d="M51,30.34L51,38.04C57.12,37.74,60.74,38.04,66.82,38.66L55.68,35.63C54.72,35.37,54.69,34.01,55.65,33.71L68.88,29.59L55.9,31.07C54.9,31.18,54.38,29.91,55.18,29.29L63.25,22.99C58.04,24.87,55.13,26.24,51,30.34Z" fill="#FFB5B9"/><path d="M50.82,27.66C50.82,23.35,39.09,22.46,39.09,27.66L39.09,43.04C39.09,47.92,50.82,48.41,50.82,43.04Z" fill="#FFD4D4"/></svg>