<svg xmlns="http://www.w3.org/2000/svg" viewBox="0 0 90 90"><path d="M44.87,90C23.54,90,6.25,84.61,6.25,77.95L6.25,74.11C4.3,72.7,3.71,70.06,4.89,67.97L6.04,65.9C7.85,62.68,8.38,58.89,7.52,55.3L6.85,52.45C6.45,50.77,6.25,49.05,6.25,47.32L6.25,42.85L83.49,42.85L83.49,47.01C83.49,48.95,83.26,50.87,82.82,52.76L82.24,55.18C81.36,58.88,81.72,62.77,83.25,66.26L84.74,69.64C85.5,71.36,84.98,73.37,83.49,74.5L83.49,77.95C83.49,84.61,66.2,90,44.87,90Z" fill="#FF788A"/><path d="M82.82,52.75L82.24,55.18C81.36,58.88,81.72,62.77,83.25,66.26L84.74,69.64C84.86,69.91,84.94,70.19,85,70.47C82.16,71.53,79.95,77.05,76.98,77.05C73.06,77.05,72.12,76.38,67.95,76.38C63.78,76.38,60.99,81.24,57.08,81.24C53.18,81.24,49.5,78.47,45.35,78.47C41.18,78.47,37.51,81.24,33.59,81.24C29.67,81.24,26.9,76.38,22.75,76.38C18.58,76.38,17.68,77.05,13.77,77.05C10.43,77.05,7.89,70.74,4.53,70.28L4.48,71.62C4.13,70.44,4.24,69.12,4.89,67.97L6.04,65.9C7.85,62.68,8.38,58.89,7.52,55.3L6.85,52.45C6.45,50.77,6.25,49.05,6.25,47.32L6.25,42.85L83.49,42.85L83.49,47.01C83.49,48.94,83.26,50.87,82.82,52.75Z" fill="#FFB5B9"/><path d="M13.77,80.05C17.68,80.05,18.58,79.38,22.75,79.38C26.9,79.38,29.67,84.24,33.59,84.24C37.51,84.24,41.18,81.47,45.35,81.47C49.5,81.47,53.18,84.24,57.08,84.24C60.99,84.24,63.78,79.38,67.95,79.38C72.12,79.38,73.06,80.05,76.98,80.05C79.6,80.05,81.63,75.76,84.01,74.02C83.85,74.19,83.68,74.36,83.49,74.5L83.49,77.95C83.49,84.6,66.2,90,44.87,90C23.54,90,6.25,84.6,6.25,77.95L6.25,74.11C6.09,73.99,5.93,73.86,5.78,73.72C8.55,75.26,10.86,80.05,13.77,80.05Z" fill="#6B4D3A"/><path d="M55.64,35.13C56.71,34.42,58.19,33.97,59.84,33.97C62.33,33.97,64.46,34.99,65.3,36.43C66.35,35.76,67.79,35.34,69.38,35.34C72.33,35.34,74.77,36.78,75.16,38.64C75.92,38.41,76.76,38.28,77.65,38.28C80.87,38.28,83.49,40.71,83.49,42.82C83.49,42.82,83.49,42.83,83.49,42.83C83.47,44.96,79.92,46.04,75.68,46.04C73.86,49.55,65.17,51.14,60.68,48.98C57.66,51.29,49.32,52.24,44.87,49.55C39.88,51.94,32.35,51.35,29.27,48.98C24.52,50.1,17.9,49.55,16.22,46.33C9.67,48.46,6.25,44.55,6.25,42.82C6.25,42.82,6.25,42.81,6.25,42.81C6.26,40.7,8.87,38.28,12.09,38.28C12.82,38.28,13.52,38.37,14.17,38.53C14.73,36.79,17.07,35.49,19.88,35.49C21.5,35.49,22.96,35.92,24.01,36.61C24.77,35.08,26.97,33.97,29.57,33.97C31.4,33.97,33.04,34.52,34.11,35.39C35.01,34.04,37.07,33.09,39.47,33.09C42.01,33.09,44.17,34.15,44.97,35.64C45.77,34.15,47.94,33.09,50.48,33.09C52.72,33.09,54.67,33.92,55.64,35.13Z" fill="#FFD4D4"/><path d="M55.64,35.13C56.71,34.42,58.19,33.97,59.84,33.97C62.33,33.97,64.46,34.99,65.3,36.43C66.35,35.76,67.79,35.34,69.38,35.34C70.6,35.34,71.73,35.59,72.67,36.01L50.02,43.9L38.21,38.7L52.96,33.46C54.11,33.81,55.05,34.4,55.64,35.13Z" fill="#FF949D"/><path d="M40,36.16C40,34.02,38.1,32.29,35.76,32.29C33.42,32.29,31.52,34.02,31.52,36.16C31.52,38.29,33.42,40.03,35.76,40.03C38.1,40.03,40,38.29,40,36.16Z" fill="#FA466A"/><path d="M45,23.81C48.66,23.81,51.61,21.34,51.61,16.63C51.61,10.71,45.81,-0.02,45,0C44.11,0.03,38.43,10.71,38.43,16.63L38.39,16.63C38.39,21.34,41.34,23.81,45,23.81Z" fill="#FA742C"/><path d="M45,23.14C46.83,23.14,48.3,21.36,48.3,17.95C48.3,13.69,45.41,5.95,45,5.97C44.56,5.99,41.72,13.69,41.72,17.95L41.7,17.95C41.7,21.36,43.17,23.14,45,23.14Z" fill="#F7C631"/><path d="M45,21.81C45.75,21.81,46.36,21.08,46.36,19.67C46.36,17.91,45.17,14.71,45,14.72C44.82,14.73,43.65,17.91,43.65,19.67L43.64,19.67C43.64,21.08,44.25,21.81,45,21.81Z" fill="#FFFFC7"/><path d="M53,30.98C53,29.3,51.84,27.85,50.2,27.48C46.78,26.71,43.22,26.71,39.8,27.48C38.16,27.85,37,29.3,37,30.98L37,40.33C37,42.01,38.16,43.46,39.8,43.83C43.22,44.6,46.78,44.6,50.2,43.83C51.84,43.46,53,42.01,53,40.33Z" fill="#C4144F"/><path d="M8.89,51.45L10.59,52.83C12.13,54.07,14.06,54.73,16.03,54.7C17.91,54.67,19.77,55.03,21.5,55.76L22.8,56.31C25.35,57.39,28.14,57.75,30.88,57.35L31.31,57.29C34.18,56.87,37.11,57.13,39.86,58.06C42.48,58.95,45.3,59,47.95,58.21L49.13,57.87C52.05,57,55.16,56.96,58.1,57.74C60.7,58.44,63.46,58.2,65.9,57.08L66.39,56.86C68.46,55.91,70.69,55.36,72.96,55.26C75.39,55.15,77.73,54.34,79.71,52.94L80.85,52.13C81.97,51.34,83.54,51.6,84.33,52.73C85.13,53.85,84.87,55.41,83.74,56.21L82.61,57.02C79.84,58.98,76.58,60.1,73.19,60.26C71.56,60.33,69.96,60.72,68.48,61.4L67.99,61.62C64.49,63.23,60.53,63.57,56.81,62.58C54.75,62.03,52.59,62.05,50.55,62.66L49.37,63.01C45.74,64.09,41.85,64.01,38.26,62.8C36.26,62.12,34.12,61.93,32.03,62.24L31.6,62.3C27.96,62.83,24.24,62.35,20.85,60.92L19.55,60.37C18.47,59.91,17.3,59.68,16.12,59.7C12.97,59.75,9.9,58.7,7.45,56.72L5.75,55.34C4.68,54.48,4.51,52.9,5.37,51.83C6.24,50.75,7.81,50.59,8.89,51.45Z" fill="#C4144F"/><path d="M4.79,63.01C3.98,64.13,4.23,65.69,5.35,66.5L5.82,66.84C8.54,68.81,11.87,69.75,15.22,69.49C16.98,69.36,18.75,69.74,20.3,70.58L21.02,70.97C23.56,72.35,26.41,73.06,29.3,73.03L31.61,73C33.4,72.98,35.17,73.19,36.9,73.62L38.19,73.95C42.58,75.05,47.17,75.04,51.55,73.92C53.77,73.36,56.07,73.14,58.36,73.27L59.77,73.36C63.49,73.58,67.21,73.04,70.72,71.77L72.36,71.17C73.34,70.82,74.37,70.61,75.42,70.56L76.13,70.52C79.21,70.36,82.15,69.15,84.46,67.09C85.49,66.17,85.58,64.59,84.66,63.56C83.74,62.53,82.16,62.44,81.13,63.36C79.67,64.66,77.82,65.42,75.87,65.52L75.15,65.56C73.62,65.64,72.11,65.95,70.66,66.47L69.02,67.07C66.15,68.1,63.1,68.54,60.06,68.36L58.65,68.28C55.85,68.12,53.04,68.38,50.32,69.08C46.74,69.99,42.99,69.99,39.41,69.1L38.12,68.77C35.97,68.24,33.77,67.98,31.56,68L29.24,68.03C27.21,68.05,25.2,67.55,23.41,66.58L22.69,66.19C20.29,64.88,17.56,64.3,14.84,64.51C12.67,64.68,10.51,64.07,8.75,62.79L8.29,62.45C7.17,61.64,5.61,61.89,4.79,63.01Z" fill="#C4144F"/><path d="M27.36,43C27.36,40.86,25.69,39.13,23.62,39.13C21.56,39.13,19.89,40.86,19.89,43C19.89,45.14,21.56,46.87,23.62,46.87C25.69,46.87,27.36,45.14,27.36,43Z" fill="#FA466A"/><path d="M71.29,43.13C71.29,40.99,69.4,39.26,67.06,39.26C64.72,39.26,62.82,40.99,62.82,43.13C62.82,45.27,64.72,47,67.06,47C69.4,47,71.29,45.27,71.29,43.13Z" fill="#FA466A"/><path d="M80.29,39.13C80.29,36.99,78.4,35.26,76.06,35.26C73.72,35.26,71.82,36.99,71.82,39.13C71.82,41.27,73.72,43,76.06,43C78.4,43,80.29,41.27,80.29,39.13Z" fill="#FA466A"/><path d="M19.89,37.33C19.89,35.19,17.99,33.46,15.65,33.46C13.31,33.46,11.41,35.19,11.41,37.33C11.41,39.46,13.31,41.2,15.65,41.2C17.99,41.2,19.89,39.46,19.89,37.33Z" fill="#FA466A"/></svg>