<svg xmlns="http://www.w3.org/2000/svg" viewBox="0 0 90 90" fill="currentColor"><path d="M38.06,13.08C38.06,7.14,33.46,2.32,27.79,2.32C22.13,2.32,17.53,7.14,17.53,13.08C17.53,19.02,22.13,26.16,27.79,26.16C33.46,26.16,38.06,19.02,38.06,13.08ZM37.3,9.04C35.47,5.82,32.05,3.65,28.12,3.65C22.49,3.65,17.88,8.11,17.55,13.75C17.54,13.53,17.53,13.3,17.53,13.08C17.53,7.14,22.13,2.32,27.79,2.32C32.09,2.32,35.78,5.1,37.3,9.04ZM32.36,13.13C32.36,10.58,30.24,8.5,27.62,8.5C25.01,8.5,22.89,10.58,22.89,13.13C22.89,15.69,25.01,19.65,27.62,19.65C30.24,19.65,32.36,15.69,32.36,13.13ZM53.94,13.08C53.94,7.14,58.54,2.32,64.21,2.32C69.87,2.32,74.47,7.14,74.47,13.08C74.47,19.02,69.87,26.16,64.21,26.16C58.54,26.16,53.94,19.02,53.94,13.08ZM54.7,9.04C56.53,5.82,59.95,3.65,63.88,3.65C69.51,3.65,74.12,8.11,74.45,13.75C74.46,13.53,74.47,13.3,74.47,13.08C74.47,7.14,69.88,2.32,64.21,2.32C59.91,2.32,56.22,5.1,54.7,9.04ZM59.64,13.13C59.64,10.58,61.76,8.5,64.38,8.5C66.99,8.5,69.11,10.58,69.11,13.13C69.11,15.69,66.99,19.65,64.38,19.65C61.76,19.65,59.64,15.69,59.64,13.13ZM18.85,36.86C18.85,51.9,26.28,58.7,46,58.7C65.72,58.7,73.15,51.72,73.15,36.86C73.15,21.63,60.41,9.61,46,9.61C31.59,9.61,18.85,21.81,18.85,36.86ZM35.5,39C30.81,39,27,35.43,27,31.02C27,29.66,27.09,27.99,27.73,26.86L29.81,26.86L30.75,24.4L32.67,24.76L35.03,21.61C39.72,22.68,44,26.61,44,31.02C44,35.43,40.19,39,35.5,39ZM55.5,39C60.19,39,64,35.43,64,31.02C64,29.66,63.91,27.99,63.27,26.86L61.19,26.86L60.25,24.4L58.33,24.76L55.97,21.61C51.28,22.68,47,26.61,47,31.02C47,35.43,50.81,39,55.5,39ZM22.82,23.06L28.12,54.86L25.21,56.66L22.04,50.1L19.89,50.51L19.39,43.15L16.66,42.65L18.39,35.59L16.21,33.89ZM69.18,23.06L63.88,54.86L66.79,56.66L69.96,50.1L72.11,50.51L72.61,43.15L75.34,42.65L73.61,35.59L75.79,33.89ZM36.31,39.5C33.95,39.5,32,37.88,32,35.58C32,32.59,33.93,30.16,36.31,30.16C38.7,30.16,40.6,32.59,40.6,35.58C40.6,37.88,38.67,39.5,36.31,39.5ZM55.71,39.5C53.35,39.5,51.4,37.88,51.4,35.58C51.4,32.59,53.33,30.16,55.71,30.16C58.1,30.16,60,32.59,60,35.58C60,37.88,58.07,39.5,55.71,39.5ZM36.31,38.35C34.32,38.35,32.67,35.92,32.67,33.64C32.67,31.36,34.3,29.5,36.31,29.5C38.32,29.5,39.93,31.36,39.93,33.64C39.93,35.92,38.3,38.35,36.31,38.35ZM55.81,38.35C53.82,38.35,52.19,35.92,52.19,33.64C52.19,31.36,53.82,29.5,55.81,29.5C57.8,29.5,59.43,31.36,59.43,33.64C59.43,35.92,57.8,38.35,55.81,38.35ZM30.44,78.32C30.44,85.32,24.76,91,17.76,91C10.76,91,5.08,85.32,5.08,78.32C5.08,68.32,20.76,55.65,27.76,55.65C34.76,55.65,30.44,71.32,30.44,78.32ZM87.25,78.32C87.25,85.32,81.57,91,74.57,91C67.57,91,61.9,85.32,61.9,78.32C61.9,71.32,57.57,55.65,64.57,55.65C71.57,55.65,87.25,68.32,87.25,78.32ZM30.44,78.32C30.44,79.3,30.32,80.25,30.11,81.16C23.72,75.72,17.21,69.55,13.46,63.55C18.32,58.96,24.18,55.64,27.76,55.64C34.76,55.65,30.44,71.32,30.44,78.32ZM78.35,63.06C74.74,68.79,68.42,74.68,62,79.97C61.93,79.43,61.9,78.88,61.9,78.32C61.9,71.32,57.57,55.65,64.57,55.64C68.03,55.64,73.59,58.73,78.35,63.06ZM76.6,51.75C76.6,63.91,60.27,78.87,50.01,88.59C48.82,89.73,46.88,90.36,45.3,90.46L44.99,90.48L44.69,90.46C43.21,90.36,41.5,89.73,40.36,88.59C30.6,78.87,15.05,63.91,15.05,51.75C15.05,34.07,34.18,24.9,44.99,40.03C56.13,25.19,76.6,33.42,76.6,51.75ZM76.6,51.75C76.6,63.91,60.27,78.87,50.01,88.59C48.74,89.81,46.62,90.44,44.99,90.48L44.69,90.46C43.21,90.36,41.5,89.73,40.36,88.59C32.25,80.52,20.16,68.83,16.29,58.13L40.48,81.49C42.66,83.6,46.25,83.32,48.33,81.11C56.32,72.59,69.53,61.67,69.86,50.1C70.12,41.18,66.02,34.81,60.39,32.41C68.91,33.07,76.6,40.51,76.6,51.75ZM44.94,39.97C44.87,41.8,44.54,43.91,43.91,46.31C41.91,38.42,35.21,31.79,25.84,33.64C31.98,30.96,39.5,32.41,44.94,39.97ZM30,48.6C30,44.36,26.1,42.47,22.17,42.47C18.24,42.47,15.05,45.9,15.05,50.14C15.05,54.38,18.24,57.82,22.17,57.82C26.1,57.82,30,52.84,30,48.6ZM26.98,46.04C26.98,41.05,21.5,38.82,15.99,38.82C10.47,38.82,6,42.87,6,47.87C6,52.86,10.47,56.91,15.99,56.91C21.5,56.91,26.98,51.04,26.98,46.04ZM26.98,46.04C26.98,51.04,21.5,56.91,15.99,56.91C15.61,56.91,15.24,56.89,14.87,56.85C20.17,56.19,25.85,49.95,22.95,46.09C26.46,41.34,20.45,39.14,15.16,38.86C15.43,38.84,15.71,38.82,15.99,38.82C21.5,38.82,26.98,41.05,26.98,46.04ZM62,48.6C62,44.36,65.9,42.47,69.83,42.47C73.76,42.47,76.95,45.9,76.95,50.14C76.95,54.38,73.76,57.82,69.83,57.82C65.9,57.82,62,52.84,62,48.6ZM65.02,46.04C65.02,41.05,70.5,38.82,76.01,38.82C81.53,38.82,86,42.87,86,47.87C86,52.86,81.53,56.91,76.01,56.91C70.5,56.91,65.02,51.04,65.02,46.04ZM65.02,46.04C65.02,51.04,70.5,56.91,76.01,56.91C76.39,56.91,76.75,56.89,77.12,56.85C71.82,56.2,66.14,49.95,69.03,46.09C65.53,41.34,71.54,39.14,76.83,38.85C76.56,38.83,76.29,38.82,76.01,38.82C70.5,38.82,65.02,41.05,65.02,46.04ZM9.96,67.22L9.33,76.56L3.76,72.95L7.53,70.68L6.18,67.93ZM50.5,11.7L41.16,11.08L44.77,5.51L47.04,9.28L49.79,7.93ZM82.21,74.66L82.82,84.12L87.73,85.83L87.15,82.64L89.23,80.78Z"/></svg>