<svg xmlns="http://www.w3.org/2000/svg" viewBox="0 0 90 90" fill="currentColor"><path d="M80.92,12.36C82.25,13.35,82.55,15.1,81.85,16.6L49.68,85.27C48.24,88.34,43.87,88.34,42.43,85.27L10.25,16.6C9.56,15.1,9.86,13.35,11.19,12.36C15.42,9.23,26.31,3,46.05,3C65.78,3,76.68,9.23,80.92,12.36ZM19.25,7.87C15.47,9.47,12.83,11.15,11.19,12.36C9.86,13.35,9.56,15.1,10.25,16.6L42.43,85.27C42.99,86.46,43.98,87.18,45.07,87.45L19.32,8.13C19.3,8.04,19.27,7.95,19.25,7.87ZM49.68,85.27L81.85,16.6C82.55,15.1,82.25,13.35,80.92,12.36C79.8,11.54,78.22,10.5,76.14,9.42L47.71,87.22C48.53,86.86,49.24,86.21,49.68,85.27ZM48.26,3.03C47.54,3.01,46.8,3,46.05,3C26.31,3,15.42,9.23,11.19,12.36C9.86,13.35,9.56,15.1,10.25,16.6L11.28,18.78C22.53,11.54,35.01,6.18,48.26,3.03ZM73.95,15.88L82.21,15.05C82.23,14.01,81.8,13.02,80.92,12.36C79.18,11.08,76.31,9.27,72.17,7.58L70.56,7.77C50.54,10.07,31.79,17.24,15.72,28.26L19.18,35.66C35.27,24.83,54,17.9,73.95,15.88ZM74.28,32.76L78.62,23.5C58.47,26.15,39.67,33.73,23.66,45.2L27.12,52.58C41.06,42.76,57.11,35.92,74.28,32.76ZM64.47,53.7L69.43,43.12C55.71,47.24,42.93,53.73,31.62,62.19L35.07,69.55C44.04,62.95,53.93,57.6,64.47,53.7ZM52,80.32L58.09,67.32C51.57,70.73,45.38,74.72,39.6,79.23L42.43,85.27C42.64,85.72,42.92,86.11,43.24,86.42C46.07,84.26,48.99,82.23,52,80.32ZM20.96,13.17L19.32,8.13C19.3,8.04,19.27,7.95,19.25,7.87C15.47,9.47,12.83,11.15,11.19,12.36C10.44,12.92,10.02,13.71,9.92,14.57C9.9,14.67,9.9,14.76,9.89,14.86C9.88,15.15,9.91,15.44,9.97,15.74C10.01,15.96,10.08,16.18,10.17,16.4C10.2,16.46,10.22,16.53,10.26,16.6L11.28,18.78C14.41,16.76,17.65,14.89,20.96,13.17ZM82.21,15.05C82.23,14.01,81.8,13.02,80.92,12.36C80.51,12.06,80.03,11.73,79.49,11.37C78.57,10.77,77.45,10.1,76.14,9.42L73.77,15.9C73.83,15.89,73.89,15.89,73.95,15.88ZM26.74,30.97L24.14,22.98C21.26,24.63,18.45,26.39,15.72,28.26L19.19,35.66C21.64,34,24.16,32.44,26.74,30.97ZM74.28,32.76L78.62,23.5C75.88,23.86,73.18,24.32,70.5,24.85L67.04,34.33C69.43,33.73,71.84,33.21,74.28,32.76ZM32.58,48.96L29.98,40.97C27.83,42.31,25.72,43.72,23.66,45.2L27.12,52.58C28.9,51.32,30.72,50.11,32.58,48.96ZM64.47,53.7L69.43,43.12C67.28,43.77,65.15,44.47,63.05,45.23L59.19,55.8C60.93,55.06,62.69,54.36,64.47,53.7ZM38.48,67.14L35.88,59.14C34.44,60.13,33.02,61.15,31.62,62.19L35.07,69.55C36.19,68.73,37.33,67.92,38.48,67.14ZM52,80.32L58.09,67.32C56.78,68,55.49,68.71,54.21,69.44L49.68,81.82C50.45,81.31,51.22,80.81,52,80.32ZM44.44,85.52L41.85,77.52C41.09,78.08,40.35,78.65,39.6,79.23L42.43,85.27C42.46,85.33,42.49,85.39,42.53,85.45C42.72,85.83,42.97,86.15,43.24,86.42C43.64,86.12,44.04,85.82,44.44,85.52ZM9,79C5.69,79,3,81.69,3,85C3,88.31,5.69,91,9,91C12.31,91,15,88.31,15,85C15,81.69,12.31,79,9,79ZM20.5,64C18.56,64,16.99,65.57,17,67.51C17.01,69.44,18.56,70.99,20.49,71C22.43,71.01,24,69.44,24,67.5C24,65.57,22.43,64,20.5,64ZM83.99,43C81.23,43.01,79,45.24,79,48C79,50.76,81.24,53,84,53C86.76,53,88.99,50.77,89,48.01C89.01,45.24,86.76,42.99,83.99,43ZM84.63,82.68C84.63,78.09,80.91,74.37,76.32,74.37C71.72,74.37,68,78.09,68,82.68C68,87.28,71.72,91,76.32,91C80.91,91,84.63,87.28,84.63,82.68ZM9,41.16C5.69,41.16,3,43.85,3,47.16C3,50.47,5.68,53.16,8.99,53.16C12.31,53.17,15.01,50.48,15,47.15C14.99,43.84,12.31,41.16,9,41.16Z"/></svg>