<svg xmlns="http://www.w3.org/2000/svg" viewBox="0 0 90 90"><path d="M82.26,85.21C83.74,87.19,82.33,90,79.86,90L45,90L10.14,90C7.67,90,6.26,87.19,7.74,85.21L45,35.17Z" fill="#5D9948"/><path d="M14.75,85.53L49.33,90L10.09,90C7.63,90,6.22,87.21,7.67,85.22L44.43,35.17Z" fill="#81B64C"/><path d="M24.73,62L23.02,64.33L50.69,65.65C56.92,65.95,62.9,68.24,67.73,72.18L80.65,82.71L65.91,62Z" fill="#45753C"/><path d="M75.38,57.24C76.82,59.22,75.4,62,72.95,62L17.05,62C14.6,62,13.18,59.22,14.62,57.24L45,15.33Z" fill="#5D9948"/><path d="M20.42,58.66L58.73,62L17.05,62C14.6,62,13.18,59.22,14.62,57.24L45,15.33Z" fill="#81B64C"/><path d="M64.43,30.29C66.01,32.26,64.61,35.17,62.09,35.17L27.91,35.17C25.39,35.17,23.99,32.26,25.57,30.29L45,6Z" fill="#5D9948"/><path d="M31.86,30.59L49.81,35.17L27.91,35.17C25.39,35.17,23.99,32.26,25.57,30.29L45,6Z" fill="#81B64C"/><path d="M30.62,35.17L28.93,37.5L44.32,37.5C52.21,37.5,59.77,40.7,65.26,46.37L74.14,55.52L59.38,35.17Z" fill="#45753C"/><path d="M33.45,65.93L35.2,61.52L31.27,61.02Z" fill="#81B64C"/><path d="M61.85,65.68L62.55,60.99L58.61,61.38Z" fill="#5D9948"/><path d="M57.33,38.67L59.08,34.25L55.15,33.75Z" fill="#5D9948"/><path d="M58.32,16.85L53.62,17.54L55.15,21.2Z" fill="#5D9948"/><path d="M79.11,73.58L74.42,74.28L75.95,77.94Z" fill="#45753C"/><path d="M30.8,18.25L33.75,21.97L36.15,18.81Z" fill="#81B64C"/><path d="M78.34,87.75C78.35,87.75,78.35,87.75,78.36,87.75C78.36,87.75,78.37,87.75,78.37,87.75Z" fill="#45753C"/><path d="M81.19,83.82C81.65,85.39,80.86,87.04,79.43,87.55C79.32,87.58,79.24,87.6,79.13,87.63C78.86,87.72,78.62,87.75,78.36,87.75C77.2,87.75,76.12,86.92,75.77,85.65C75.34,84.08,76.15,82.43,77.59,81.95L77.78,81.9C79.21,81.39,80.73,82.25,81.19,83.82Z" fill="#45753C"/><path d="M32.33,82.63C33.38,83.81,33.35,85.66,32.24,86.78L32.13,86.9C31.6,87.43,30.91,87.7,30.24,87.7L30.21,87.73C29.46,87.73,28.74,87.4,28.19,86.78C27.13,85.61,27.19,83.72,28.33,82.63L28.41,82.54C29.52,81.43,31.27,81.45,32.33,82.63Z" fill="#45753C"/><path d="M47.06,82.02C47.07,82.02,47.07,82.02,47.08,82.02C47.08,82.02,47.09,82.02,47.09,82.02Z" fill="#45753C"/><path d="M64.83,82.02C64.83,82.02,64.84,82.02,64.84,82.02C64.85,82.02,64.85,82.02,64.86,82.02Z" fill="#45753C"/><path d="M49.91,78.08C50.37,79.65,49.58,81.31,48.15,81.81C48.04,81.84,47.96,81.87,47.85,81.9C47.58,81.99,47.34,82.01,47.08,82.02C45.92,82.01,44.84,81.18,44.49,79.92C44.06,78.35,44.87,76.69,46.3,76.22L46.49,76.16C47.93,75.66,49.45,76.52,49.91,78.08Z" fill="#45753C"/><path d="M67.67,78.08C68.14,79.65,67.35,81.31,65.91,81.81C65.8,81.84,65.72,81.87,65.62,81.9C65.35,81.99,65.11,82.01,64.84,82.02C63.68,82.01,62.61,81.18,62.26,79.92C61.82,78.35,62.64,76.69,64.07,76.22L64.26,76.16C65.7,75.66,67.21,76.52,67.67,78.08Z" fill="#45753C"/><path d="M36.62,76.28C36.62,76.28,36.63,76.28,36.63,76.28C36.64,76.28,36.64,76.28,36.65,76.28Z" fill="#45753C"/><path d="M59.47,70.4L59.69,70.45C61.13,70.9,61.97,72.52,61.57,74.09C61.24,75.39,60.13,76.25,58.96,76.25L58.96,76.28C58.71,76.28,58.47,76.25,58.22,76.16L57.95,76.07C56.51,75.6,55.7,73.97,56.11,72.41C56.54,70.84,58.03,69.95,59.47,70.4Z" fill="#45753C"/><path d="M39.46,72.35C39.92,73.91,39.14,75.57,37.7,76.07C37.59,76.1,37.51,76.13,37.4,76.16C37.14,76.25,36.9,76.28,36.63,76.28C35.47,76.27,34.4,75.45,34.04,74.18C33.61,72.61,34.42,70.96,35.86,70.48L36.05,70.42C37.49,69.92,39,70.78,39.46,72.35Z" fill="#45753C"/><path d="M71.93,68.98C72.98,70.16,72.96,72.01,71.84,73.13L71.71,73.28C71.18,73.81,70.48,74.07,69.82,74.07L69.82,74.04C69.07,74.04,68.34,73.72,67.79,73.1C66.73,71.92,66.79,70.04,67.93,68.95L68.01,68.89C69.12,67.77,70.87,67.8,71.93,68.98Z" fill="#45753C"/><path d="M48.49,70.79C48.5,70.79,48.5,70.79,48.51,70.79C48.51,70.79,48.51,70.79,48.52,70.79Z" fill="#45753C"/><path d="M51.34,66.86C51.8,68.43,51.01,70.08,49.58,70.59C49.47,70.62,49.39,70.65,49.28,70.68C49.01,70.76,48.77,70.79,48.51,70.79C47.35,70.79,46.27,69.96,45.92,68.69C45.48,67.13,46.3,65.47,47.73,65L47.92,64.94C49.36,64.43,50.88,65.29,51.34,66.86Z" fill="#45753C"/><path d="M30.15,52.26L30.37,52.32C31.8,52.73,32.66,54.35,32.26,55.94C31.93,57.27,30.85,58.12,29.66,58.12L29.66,58.15C29.42,58.15,29.2,58.12,28.96,58.03L28.66,57.94C27.23,57.5,26.39,55.85,26.79,54.29C27.2,52.73,28.72,51.82,30.15,52.26Z" fill="#45753C"/><path d="M20.72,51.14L20.94,51.2C22.38,51.65,23.22,53.27,22.82,54.84C22.49,56.14,21.38,57,20.21,57L20.21,57.03C19.96,57.03,19.72,57,19.48,56.91L19.2,56.82C17.76,56.35,16.95,54.72,17.36,53.15C17.79,51.59,19.29,50.7,20.72,51.14Z" fill="#45753C"/><path d="M52.77,48.61L52.99,48.67C54.42,49.08,55.29,50.7,54.88,52.29C54.56,53.62,53.48,54.47,52.29,54.47L52.29,54.5C52.04,54.5,51.83,54.47,51.58,54.38L51.29,54.29C49.85,53.85,49.01,52.2,49.42,50.64C49.83,49.08,51.34,48.17,52.77,48.61Z" fill="#45753C"/><path d="M40.3,48.51C40.74,50.08,39.95,51.74,38.52,52.22C38.41,52.25,38.33,52.28,38.22,52.31C37.98,52.4,37.7,52.43,37.46,52.43C36.3,52.43,35.21,51.6,34.86,50.29C34.45,48.72,35.27,47.06,36.7,46.62L36.92,46.56C38.35,46.08,39.87,46.94,40.3,48.51Z" fill="#45753C"/><path d="M28.89,42.05C29.95,43.23,29.9,45.09,28.78,46.21L28.67,46.33C28.14,46.86,27.44,47.13,26.74,47.13L26.79,47.1C26.04,47.1,25.31,46.78,24.75,46.19C23.69,45,23.74,43.12,24.86,42.02L24.95,41.94C26.07,40.81,27.83,40.87,28.89,42.05Z" fill="#45753C"/><path d="M40.47,39.19C40.47,39.19,40.47,39.19,40.48,39.19C40.48,39.19,40.49,39.19,40.5,39.19Z" fill="#45753C"/><path d="M42.62,34.13C43.68,35.34,43.59,37.21,42.48,38.3L42.36,38.42C41.84,38.95,41.17,39.19,40.48,39.19C39.73,39.18,38.98,38.86,38.43,38.24C37.4,37.03,37.45,35.17,38.6,34.07L38.68,33.98C39.83,32.86,41.58,32.95,42.62,34.13Z" fill="#45753C"/><path d="M50,27.57L50.22,27.63C51.66,28.07,52.5,29.7,52.1,31.27C51.77,32.57,50.66,33.43,49.49,33.43L49.49,33.45C49.24,33.45,49,33.43,48.76,33.34L48.48,33.25C47.04,32.77,46.23,31.15,46.64,29.58C47.07,28.01,48.56,27.13,50,27.57Z" fill="#45753C"/><path d="M60.04,25.37L60.26,25.43C61.7,25.87,62.54,27.5,62.13,29.07C61.81,30.37,60.69,31.23,59.52,31.23L59.52,31.25C59.28,31.25,59.03,31.23,58.79,31.14L58.52,31.05C57.08,30.57,56.26,28.95,56.67,27.38C57.11,25.81,58.6,24.93,60.04,25.37Z" fill="#45753C"/><path d="M31.03,29.74C31.04,29.74,31.04,29.74,31.05,29.74C31.05,29.74,31.06,29.74,31.06,29.74Z" fill="#45753C"/><path d="M33.88,25.8C34.34,27.37,33.55,29.03,32.12,29.53C32.01,29.56,31.93,29.59,31.82,29.62C31.55,29.71,31.31,29.74,31.05,29.74C29.89,29.73,28.81,28.91,28.46,27.64C28.02,26.07,28.84,24.41,30.27,23.94L30.46,23.88C31.9,23.38,33.42,24.24,33.88,25.8Z" fill="#45753C"/><path d="M27.89,56.03L27.57,55.94C26.05,55.5,25.17,53.85,25.59,52.29C26.02,50.73,27.63,49.82,29.15,50.26L29.38,50.32C30.89,50.73,31.81,52.35,31.38,53.94C31.04,55.27,29.89,56.12,28.63,56.12L28.63,56.15C28.37,56.15,28.14,56.12,27.89,56.03Z" fill="#009FD9"/><path d="M34.13,48.29C33.7,46.72,34.56,45.06,36.08,44.62L36.31,44.56C37.83,44.08,39.44,44.94,39.9,46.51C40.36,48.08,39.52,49.74,38,50.22C37.89,50.25,37.8,50.28,37.69,50.31C37.43,50.4,37.14,50.43,36.89,50.43C35.65,50.43,34.51,49.6,34.13,48.29Z" fill="white"/><path d="M37.91,36.24C36.82,35.03,36.88,33.17,38.09,32.07L38.18,31.98C39.39,30.86,41.25,30.95,42.34,32.13C43.47,33.34,43.38,35.21,42.2,36.3L42.08,36.42C41.52,36.95,40.81,37.19,40.07,37.19L40.1,37.19C39.3,37.19,38.5,36.87,37.91,36.24Z" fill="#FA412D"/><path d="M51.84,52.38L51.52,52.29C50.01,51.85,49.12,50.2,49.55,48.64C49.98,47.08,51.58,46.17,53.1,46.61L53.33,46.67C54.85,47.08,55.76,48.7,55.33,50.29C54.99,51.62,53.84,52.47,52.58,52.47L52.58,52.5C52.33,52.5,52.1,52.47,51.84,52.38Z" fill="#B2E068"/><path d="M17.67,54.91L17.38,54.82C15.86,54.35,15,52.72,15.43,51.15C15.89,49.59,17.47,48.7,18.99,49.14L19.22,49.2C20.75,49.65,21.64,51.27,21.21,52.84C20.86,54.14,19.68,55,18.45,55L18.45,55.03C18.19,55.03,17.93,55,17.67,54.91Z" fill="#FADAAE"/><path d="M44.33,77.92C43.87,76.35,44.73,74.69,46.25,74.22L46.45,74.16C47.97,73.66,49.58,74.52,50.07,76.08C50.55,77.65,49.72,79.31,48.2,79.81C48.09,79.84,48,79.87,47.89,79.9C47.6,79.99,47.34,80.02,47.05,80.02L47.08,80.02C45.85,80.02,44.7,79.19,44.33,77.92Z" fill="#C9ACFF"/><path d="M23.43,44.18C22.31,43,22.36,41.12,23.55,40.02L23.64,39.93C24.82,38.81,26.69,38.87,27.81,40.05C28.94,41.23,28.88,43.09,27.7,44.21L27.58,44.33C27.01,44.86,26.27,45.13,25.53,45.13L25.59,45.1C24.79,45.1,24.02,44.78,23.43,44.18Z" fill="#FA466A"/><path d="M59.47,29.14L59.18,29.05C57.66,28.57,56.79,26.95,57.23,25.38C57.69,23.81,59.27,22.93,60.79,23.37L61.02,23.43C62.55,23.87,63.44,25.5,63.01,27.07C62.66,28.37,61.48,29.23,60.24,29.23L60.24,29.25C59.99,29.25,59.73,29.23,59.47,29.14Z" fill="#B2E068"/><path d="M45.84,66.69C45.38,65.13,46.24,63.47,47.76,63L47.96,62.94C49.48,62.43,51.09,63.29,51.58,64.86C52.06,66.43,51.23,68.08,49.71,68.59C49.6,68.62,49.51,68.65,49.4,68.68C49.11,68.76,48.85,68.79,48.56,68.79L48.59,68.79C47.36,68.79,46.21,67.97,45.84,66.69Z" fill="#FA412D"/><path d="M58.87,74.16L58.58,74.07C57.06,73.6,56.19,71.97,56.63,70.41C57.09,68.84,58.67,67.95,60.19,68.39L60.42,68.45C61.95,68.9,62.84,70.52,62.41,72.09C62.06,73.39,60.88,74.25,59.65,74.25L59.65,74.28C59.39,74.28,59.13,74.25,58.87,74.16Z" fill="#009FD9"/><path d="M63.14,77.92C62.68,76.35,63.54,74.69,65.06,74.22L65.26,74.16C66.78,73.66,68.39,74.52,68.87,76.08C69.36,77.65,68.53,79.31,67.01,79.81C66.89,79.84,66.81,79.87,66.69,79.9C66.41,79.99,66.15,80.02,65.86,80.02L65.89,80.02C64.66,80.02,63.51,79.19,63.14,77.92Z" fill="#FA466A"/><path d="M33.27,72.18C32.81,70.61,33.67,68.96,35.19,68.48L35.39,68.42C36.91,67.92,38.52,68.78,39.01,70.35C39.5,71.91,38.66,73.57,37.14,74.07C37.03,74.1,36.94,74.13,36.83,74.16C36.54,74.25,36.28,74.28,36,74.28L36.02,74.28C34.79,74.28,33.64,73.45,33.27,72.18Z" fill="#FA466A"/><path d="M27.07,84.78C25.95,83.61,26.01,81.72,27.22,80.63L27.3,80.54C28.48,79.43,30.33,79.45,31.45,80.63C32.57,81.81,32.54,83.67,31.36,84.78L31.25,84.9C30.69,85.43,29.95,85.7,29.25,85.7L29.22,85.73C28.42,85.73,27.66,85.4,27.07,84.78Z" fill="white"/><path d="M27.36,25.64C26.9,24.07,27.76,22.41,29.28,21.94L29.48,21.88C31,21.38,32.61,22.24,33.09,23.8C33.58,25.37,32.75,27.03,31.23,27.53C31.11,27.56,31.03,27.59,30.91,27.62C30.63,27.71,30.37,27.74,30.08,27.74L30.11,27.74C28.88,27.74,27.73,26.91,27.36,25.64Z" fill="white"/><path d="M68.99,71.1C67.88,69.92,67.93,68.04,69.14,66.95L69.23,66.89C70.41,65.77,72.26,65.8,73.38,66.98C74.5,68.16,74.47,70.01,73.29,71.13L73.14,71.28C72.58,71.81,71.85,72.07,71.14,72.07L71.14,72.04C70.35,72.04,69.58,71.72,68.99,71.1Z" fill="#B2E068"/><path d="M48.84,31.34L48.56,31.25C47.03,30.77,46.17,29.15,46.6,27.58C47.06,26.01,48.64,25.13,50.17,25.57L50.4,25.63C51.92,26.07,52.81,27.7,52.38,29.27C52.04,30.57,50.86,31.43,49.62,31.43L49.62,31.45C49.36,31.45,49.1,31.43,48.84,31.34Z" fill="#C9ACFF"/><path d="M77.44,83.65C76.99,82.08,77.85,80.43,79.37,79.96L79.57,79.9C81.09,79.39,82.69,80.25,83.18,81.82C83.67,83.39,82.84,85.04,81.32,85.55C81.2,85.57,81.12,85.6,81,85.63C80.71,85.72,80.46,85.75,80.17,85.75L80.2,85.75C78.96,85.75,77.82,84.92,77.44,83.65Z" fill="#FA412D"/><path d="M47.57,7.96L55.94,7.95L49.16,12.85L51.76,20.8L45,15.87L38.24,20.8L40.84,12.85L34.06,7.95L42.43,7.96L45,0Z" fill="#FCE26A"/><path d="M69.22,41.96L77.59,41.95L70.81,46.85L73.41,54.8L66.65,49.87L59.89,54.8L62.49,46.85L55.71,41.95L64.08,41.96L66.65,34Z" fill="#FCE26A"/><path d="M17.89,71.14L26.25,71.12L19.47,76.03L22.08,83.98L15.32,79.05L8.56,83.98L11.16,76.03L4.38,71.12L12.75,71.14L15.32,63.18Z" fill="#FCE26A"/></svg>