<svg xmlns="http://www.w3.org/2000/svg" viewBox="0 0 90 90"><path d="M1,14.93L91,14.93C91,0.16,59.41,-2.07,46,-2.07C32.59,-2.07,1,0.16,1,14.93Z" fill="currentColor"/><path d="M91,14.43C91,20.78,70.85,25.93,46,25.93C21.15,25.93,1,20.78,1,14.43C1,8.08,21.15,2.93,46,2.93C70.85,2.93,91,8.08,91,14.43Z" fill="currentColor"/><path d="M88,14.93C88,21,69.2,25.93,46,25.93C22.8,25.93,4,21,4,14.93C4,8.85,22.8,3.93,46,3.93C69.2,3.93,88,8.85,88,14.93Z" fill="currentColor"/><path d="M42.17,9C30.67,13.66,12.36,9.83,12.36,16.92C12.36,20.83,26.45,24.01,43.84,24.01C61.22,24.01,78.4,20.28,78.4,16.36C78.4,4.88,53.68,4.35,42.17,9Z" fill="currentColor"/><path d="M74.96,17.43C74.96,21.38,63.06,24.58,48.37,24.58C33.68,24.58,21.77,21.38,21.77,17.43C21.77,13.48,33.68,10.27,48.37,10.27C63.06,10.27,74.96,13.48,74.96,17.43Z" fill="currentColor"/><path d="M29.83,27.55L34.37,16.58L18.74,17.57L6.71,15.39C5.24,15.12,4.1,16.67,4.8,18L6.39,21.01C6.83,21.86,6.54,22.91,5.71,23.4L3.82,24.51C2.36,25.37,2.78,27.58,4.45,27.84L7.57,28.33C8.63,28.5,9.32,29.56,9.03,30.59L8.64,31.97C8.25,33.37,9.6,34.63,10.97,34.15Z" fill="currentColor"/><path d="M60.27,25.3L55.74,14.33L71.36,15.32L83.39,13.14C84.87,12.87,86.01,14.42,85.31,15.75L83.92,18.38C83.4,19.37,83.89,20.59,84.96,20.94L89.43,22.37C91.32,22.98,90.97,25.76,88.99,25.88L82.76,26.26C81.61,26.33,80.83,27.44,81.13,28.54L81.46,29.72C81.85,31.12,80.51,32.38,79.13,31.9Z" fill="currentColor"/><path d="M15.55,15.72C15.55,18.18,13.56,20.17,11.1,20.17C8.64,20.17,6.64,18.18,6.64,15.72C6.64,13.26,8.64,11.26,11.1,11.26C13.56,11.26,15.55,13.26,15.55,15.72Z" fill="currentColor"/><path d="M33.4,79.88C24.73,87.75,26.29,71.52,33.49,73.77L49.5,46.04L54.65,49L38.64,76.73C43.87,81.9,30.43,91,33.4,79.88Z" fill="currentColor"/><path d="M38.48,69.18C44.01,71.56,49.28,67.22,61.54,54.15C74.98,39.8,41.61,21.7,37.56,43.54C34.58,59.58,32.94,66.8,38.48,69.18Z" fill="currentColor"/><path d="M38.64,67.35C43.89,69.6,48.91,65.44,60.6,52.92C73.42,39.18,41.81,22.04,37.88,42.89C34.98,58.21,33.4,65.11,38.64,67.35Z" fill="currentColor"/><path d="M37.69,63.65C23.83,63.65,16.21,54.04,13.97,42.84C9.49,20.4,25.88,12.27,48.07,12.27C74.79,12.27,84.92,22.67,85.05,32.96C85.17,41.53,76.45,51.79,58.69,52.93C52.43,61.35,45.1,63.65,37.69,63.65Z" fill="currentColor"/><path d="M54.1,48.61C61.75,47.16,80.77,43.59,80.77,28.82C80.77,24.92,79.71,21.9,77.69,19.57C72.58,15.76,64.59,13.01,53.04,12.4C51.16,12.32,49.19,12.29,47.13,12.27C25.42,12.5,9.55,20.72,13.97,42.84C15.64,51.22,20.32,58.7,28.38,61.95C29.94,62.32,31.6,62.54,33.35,62.57C45.34,62.57,50.75,54.56,54.1,48.61Z" fill="currentColor"/><path d="M37.66,22.44C45.4,10.36,70.12,16.45,83.24,25.87C79.28,18.38,68.55,12.27,48.06,12.27C28.72,12.27,13.78,18.45,13.24,34.91C17.05,25.65,26.6,20.16,37.66,22.44Z" fill="currentColor"/><path d="M11.64,78.48C2.97,86.35,4.53,70.12,11.73,72.37L27.74,44.64L32.89,47.6L16.88,75.33C22.11,80.5,8.67,89.6,11.64,78.48Z" fill="currentColor"/><path d="M17.46,67.01C23,69.39,28.27,65.06,40.53,51.98C53.97,37.63,20.6,19.53,16.55,41.37C13.57,57.41,11.93,64.63,17.46,67.01Z" fill="currentColor"/><path d="M18.41,63.64C23.6,65.89,28.47,61.98,39.74,50.12C52.1,37.12,20.74,20.07,17.23,40.08C14.65,54.77,13.21,61.39,18.41,63.64Z" fill="currentColor"/><path d="M59.35,21.86C59.35,24.08,57.55,25.89,55.32,25.89C53.1,25.89,51.3,24.08,51.3,21.86C51.3,19.63,53.1,17.83,55.32,17.83C57.55,17.83,59.35,19.63,59.35,21.86Z" fill="currentColor"/><path d="M66.48,33.57C66.48,34.95,65.36,36.07,63.98,36.07C62.6,36.07,61.48,34.95,61.48,33.57C61.48,32.19,62.6,31.07,63.98,31.07C65.36,31.07,66.48,32.19,66.48,33.57Z" fill="currentColor"/><path d="M67.5,24.4C67.5,25.79,66.38,26.9,65,26.9C63.62,26.9,62.5,25.79,62.5,24.4C62.5,23.02,63.62,21.9,65,21.9C66.38,21.9,67.5,23.02,67.5,24.4Z" fill="currentColor"/><path d="M21.55,14.22C21.55,16.4,19.78,18.17,17.6,18.17C15.42,18.17,13.64,16.4,13.64,14.22C13.64,12.03,15.42,10.26,17.6,10.26C19.78,10.26,21.55,12.03,21.55,14.22Z" fill="currentColor"/><path d="M81.73,12.87C81.73,14.5,80.41,15.82,78.77,15.82C77.14,15.82,75.82,14.5,75.82,12.87C75.82,11.24,77.14,9.91,78.77,9.91C80.41,9.91,81.73,11.24,81.73,12.87Z" fill="currentColor"/><path d="M46.94,39.83C47.29,45.65,50.99,50.74,56.42,52.88L59.38,51.31C54.16,49.55,49.86,45.76,47.49,40.78L46.92,39.61Z" fill="currentColor" opacity="0.5"/><path d="M28.44,46.38C32.25,48.34,35.41,51.38,37.52,55.12L41.13,54.01L39.78,52.39C36.26,48.18,31.22,45.52,25.75,44.99Z" fill="currentColor" opacity="0.5"/><path d="M31.01,37.94C27.29,35.51,22.75,34.65,18.4,35.54L17.51,38.44L18.83,38.24C23.03,37.61,27.31,37.87,31.4,39.01L33.6,39.62Z" fill="currentColor" opacity="0.5"/><path d="M75.67,46.32C73.1,44.9,71.1,42.64,70,39.92L68.23,41.73C69.29,44.69,72.1,46.66,75.25,46.66L76.28,46.66Z" fill="currentColor" opacity="0.5"/></svg>