<svg xmlns="http://www.w3.org/2000/svg" viewBox="0 0 90 90"><path d="M47.54,71.48L75.7,23.41L45.92,87.09C45.75,87.45,45.39,87.67,45,87.67C44.61,87.67,44.25,87.45,44.08,87.09L14.3,23.41L42.46,71.48L42.67,47.49L45,11.53L47.33,47.49Z" fill="#ED2456"/><path d="M46.98,42.08L47.33,47.49L47.54,71.48L61.19,48.17C61.89,48.78,62.57,49.43,63.21,50.11L45.92,87.09C45.75,87.45,45.4,87.67,45,87.67C44.61,87.67,44.25,87.45,44.08,87.09L26.79,50.11C27.43,49.43,28.11,48.78,28.81,48.17L42.47,71.48L42.67,47.49L43.02,42.08C43.67,42.03,44.33,42,45,42C45.67,42,46.33,42.03,46.98,42.08Z" fill="#FF6352"/><path d="M47.4,55.4L47.54,71.48L55.12,58.53C56.18,59.29,57.16,60.16,58.06,61.13L45.92,87.09C45.75,87.45,45.39,87.67,45,87.67C44.61,87.67,44.25,87.45,44.08,87.09L31.94,61.13C32.84,60.16,33.82,59.29,34.88,58.53L42.46,71.48L42.6,55.4C43.39,55.29,44.19,55.23,45,55.23C45.81,55.23,46.61,55.29,47.4,55.4Z" fill="#FF8A75"/><path d="M33.69,39.56C34.64,45.01,36.55,50.26,39.32,55.06C38.65,48.83,36.75,42.79,33.75,37.29L33.08,36.07Z" fill="#ED2456"/><path d="M36.64,88C26.65,75.77,18.78,60.76,0,57.89C22.22,55.78,29.42,73.51,36.64,88Z" fill="#FF6352"/><path d="M53.36,88C63.35,75.77,71.22,60.76,90,57.89C67.78,55.78,60.58,73.51,53.36,88Z" fill="#FF6352"/><path d="M6.5,79.56C14.55,77.21,24.48,78.87,26.2,89.21C20.95,83.14,14.04,79,6.5,79.56Z" fill="#ED2456"/><path d="M84.2,79.56C76.15,77.21,66.21,78.87,64.5,89.21C69.75,83.14,76.66,79,84.2,79.56Z" fill="#ED2456"/><path d="M57.32,39.56C56.36,45.01,54.46,50.26,51.68,55.06C52.36,48.83,54.25,42.79,57.26,37.29L57.92,36.07Z" fill="#ED2456"/><path d="M44,0.7L40.91,8.96L32.1,9.34C31.11,9.39,30.7,10.63,31.48,11.25L38.38,16.74L36.02,25.24C35.76,26.2,36.82,26.97,37.65,26.42L45,21.55L52.35,26.42C53.18,26.97,54.24,26.2,53.98,25.24L51.62,16.74L58.52,11.25C59.3,10.63,58.89,9.39,57.9,9.34L49.09,8.96L46,0.7C45.66,-0.23,44.34,-0.23,44,0.7Z" fill="#FCE26A"/><path d="M12.96,12.11L12.11,20.89L3.7,23.54C2.75,23.84,2.68,25.15,3.59,25.54L11.68,29.06L11.6,37.88C11.6,38.87,12.82,39.34,13.48,38.6L19.32,31.99L27.69,34.79C28.63,35.11,29.45,34.09,28.95,33.23L24.47,25.63L29.72,18.54C30.31,17.75,29.59,16.65,28.63,16.86L20.02,18.77L14.89,11.59C14.32,10.78,13.05,11.12,12.96,12.11Z" fill="#FCE26A"/><path d="M77.27,12.11L78.11,20.89L86.52,23.54C87.47,23.84,87.54,25.15,86.63,25.54L78.54,29.06L78.62,37.88C78.63,38.87,77.4,39.34,76.74,38.6L70.9,31.99L62.53,34.79C61.6,35.11,60.77,34.09,61.27,33.23L65.75,25.63L60.5,18.54C59.91,17.75,60.63,16.65,61.6,16.86L70.21,18.77L75.33,11.59C75.9,10.78,77.17,11.12,77.27,12.11Z" fill="#FCE26A"/></svg>