<svg xmlns="http://www.w3.org/2000/svg" viewBox="0 0 90 90"><path d="M43.67,38.53C43.67,40.36,44.93,41.33,46,41.33L46,46L41.33,46C41.33,45.07,40.56,43.67,38.53,43.67C15.39,43.67,4,41.92,4,32.12C4,22.9,14.5,19.28,25.52,25.52C19.28,14.51,22.9,3.99,32.11,4C44.24,4,43.67,15.26,43.67,38.53Z" fill="currentColor"/><path d="M35.18,43.65L39.21,43.47C40.66,43.41,41.88,44.55,41.92,46L40.1,46C40.1,44.73,39.09,43.7,37.82,43.68Z" fill="currentColor"/><path d="M43.65,35.19L43.47,39.22C43.41,40.67,44.55,41.89,46,41.92L46,40.11C44.73,40.11,43.7,39.09,43.68,37.83Z" fill="currentColor"/><path d="M43.67,37.66C42.39,22,42.89,7.38,32.11,7.38C23.07,7.38,24.58,19.29,28.14,26.7C28.82,28.13,38.13,35.79,38.88,38.59C35.97,37.99,27.93,28.85,26.39,28.15C19.06,24.86,7.96,23.36,7.96,32.12C7.96,40.88,23.25,42.57,37.69,43.67C14.55,43.67,4,41.55,4,32.12C4,22.9,14.5,19.28,25.52,25.52C19.28,14.51,22.9,4,32.11,4C44.24,4.01,43.67,14.39,43.67,37.66Z" fill="currentColor"/><path d="M32.78,20.98L27.93,28.11L21.8,32.36L29.39,29.48Z" fill="currentColor" opacity="0.5"/><path d="M37.91,22.14L31.75,31.6L21.8,38.53L33.09,32.97Z" fill="currentColor" opacity="0.5"/><path d="M39.7,29.2L35.48,35.27L30.16,40.02L36.85,36.38Z" fill="currentColor" opacity="0.5"/><path d="M53.47,43.67C51.64,43.67,50.67,44.93,50.67,46L46,46L46,41.33C46.93,41.33,48.33,40.56,48.33,38.53C48.33,15.39,50.08,4,59.88,4C69.1,4,72.72,14.5,66.48,25.52C77.49,19.28,88.01,22.9,88,32.11C88,44.24,76.74,43.67,53.47,43.67Z" fill="currentColor"/><path d="M48.35,35.18L48.53,39.21C48.59,40.66,47.45,41.88,46,41.92L46,40.1C47.27,40.1,48.3,39.09,48.32,37.82Z" fill="currentColor"/><path d="M56.81,43.65L52.78,43.47C51.33,43.41,50.11,44.55,50.08,46L51.89,46C51.89,44.73,52.91,43.7,54.17,43.68Z" fill="currentColor"/><path d="M54.34,43.67C70,42.39,84.62,42.89,84.62,32.11C84.62,23.07,72.71,24.58,65.3,28.14C63.87,28.82,56.21,38.13,53.41,38.88C54.01,35.97,63.15,27.93,63.85,26.39C67.14,19.06,68.64,7.96,59.88,7.96C51.12,7.96,49.43,23.25,48.33,37.69C48.33,14.55,50.45,4,59.88,4C69.1,4,72.72,14.5,66.48,25.52C77.49,19.28,88,22.9,88,32.11C87.99,44.24,77.61,43.67,54.34,43.67Z" fill="currentColor"/><path d="M71.02,32.78L63.89,27.93L59.64,21.8L62.52,29.39Z" fill="currentColor" opacity="0.5"/><path d="M69.86,37.91L60.4,31.75L53.47,21.8L59.03,33.09Z" fill="currentColor" opacity="0.5"/><path d="M62.8,39.7L56.73,35.48L51.98,30.16L55.62,36.85Z" fill="currentColor" opacity="0.5"/><path d="M38.53,48.33C40.36,48.33,41.33,47.07,41.33,46L46,46L46,50.67C45.07,50.67,43.67,51.44,43.67,53.47C43.67,76.61,41.92,88,32.12,88C22.9,88,19.28,77.5,25.52,66.48C14.51,72.72,3.99,69.1,4,59.89C4,47.76,15.26,48.33,38.53,48.33Z" fill="currentColor"/><path d="M43.65,56.82L43.47,52.79C43.41,51.34,44.55,50.12,46,50.08L46,51.9C44.73,51.9,43.7,52.91,43.68,54.18Z" fill="currentColor"/><path d="M35.19,48.35L39.22,48.53C40.67,48.59,41.89,47.45,41.92,46L40.11,46C40.11,47.27,39.09,48.3,37.83,48.32Z" fill="currentColor"/><path d="M37.66,48.33C22,49.61,7.38,49.11,7.38,59.89C7.38,68.93,19.29,67.42,26.7,63.86C28.13,63.18,35.79,53.87,38.59,53.12C37.99,56.03,28.85,64.08,28.15,65.61C24.86,72.94,23.36,84.04,32.12,84.04C40.88,84.04,42.57,68.75,43.67,54.31C43.67,77.45,41.55,88,32.12,88C22.9,88,19.28,77.5,25.52,66.48C14.51,72.72,4,69.1,4,59.89C4.01,47.76,14.39,48.33,37.66,48.33Z" fill="currentColor"/><path d="M20.98,59.22L28.11,64.07L32.36,70.2L29.48,62.61Z" fill="currentColor" opacity="0.5"/><path d="M22.14,54.09L31.6,60.25L38.53,70.2L32.97,58.91Z" fill="currentColor" opacity="0.5"/><path d="M29.2,52.3L35.27,56.52L40.02,61.84L36.38,55.15Z" fill="currentColor" opacity="0.5"/><path d="M48.33,53.47C48.33,51.64,47.07,50.67,46,50.67L46,46L50.67,46C50.67,46.93,51.44,48.33,53.47,48.33C76.61,48.33,88,50.08,88,59.88C88,69.1,77.5,72.72,66.48,66.48C72.72,77.49,69.1,88.01,59.89,88C47.76,88,48.33,76.74,48.33,53.47Z" fill="currentColor"/><path d="M56.82,48.35L52.79,48.53C51.34,48.59,50.12,47.45,50.08,46L51.9,46C51.9,47.27,52.91,48.3,54.18,48.32Z" fill="currentColor"/><path d="M48.35,56.81L48.53,52.78C48.59,51.33,47.45,50.11,46,50.08L46,51.89C47.27,51.89,48.3,52.91,48.32,54.17Z" fill="currentColor"/><path d="M48.33,54.34C49.61,70,49.11,84.62,59.89,84.62C68.93,84.62,67.42,72.71,63.86,65.3C63.18,63.87,53.87,56.21,53.12,53.41C56.03,54.01,64.08,63.15,65.61,63.85C72.94,67.14,84.04,68.64,84.04,59.88C84.04,51.12,68.75,49.43,54.31,48.33C77.45,48.33,88,50.45,88,59.88C88,69.1,77.5,72.72,66.48,66.48C72.72,77.49,69.1,88,59.89,88C47.76,87.99,48.33,77.61,48.33,54.34Z" fill="currentColor"/><path d="M59.22,71.02L64.07,63.89L70.2,59.64L62.61,62.52Z" fill="currentColor" opacity="0.5"/><path d="M54.09,69.86L60.25,60.4L70.2,53.47L58.91,59.03Z" fill="currentColor" opacity="0.5"/><path d="M52.3,62.8L56.52,56.73L61.84,51.98L55.15,55.62Z" fill="currentColor" opacity="0.5"/></svg>