<svg xmlns="http://www.w3.org/2000/svg" viewBox="0 0 90 90" fill="currentColor"><path d="M78.16,40.82C79.26,57.14,84.3,59.95,82.34,65.66L78.16,67.25C76.36,66.08,71.48,63.93,69.79,59.95C65.12,48.92,62.95,45.32,58.5,45.74C56.29,45.94,60.63,52.17,61.43,58.2C61.94,62.07,51.53,69.43,40.7,69.43C25.78,69.43,5,67.25,5,56.76C5,38.81,9.58,48.46,18.92,19.89C22.65,8.48,34.77,2.78,47.24,2.78C70.18,2.78,76.83,21.02,78.16,40.82ZM77.96,67.13C78.14,67.13,78.32,67.13,78.5,67.12L78.16,67.25C78.1,67.21,78.03,67.17,77.96,67.13ZM74.84,22.72C69.95,13.73,59.28,10.06,47.5,10.06C40.14,10.06,39.45,20.67,26.65,16.95C23.2,20.09,20.71,24.48,19.92,30.42C19.17,36.08,13.27,33.75,14.73,39.88C16.16,45.92,12.94,49.45,12.94,52.95C12.94,60.15,14.38,64.52,17.39,67.06C10.26,65.21,5,62.04,5,56.76C5,38.81,9.58,48.46,18.92,19.89C22.65,8.48,34.77,2.78,47.24,2.78C62.78,2.78,70.85,11.16,74.84,22.72ZM72.67,46.91C69.96,52.65,73.6,60.07,79.31,63.74C80.44,64.46,80.95,65.29,80.96,66.19L78.16,67.25C76.36,66.08,71.48,63.93,69.79,59.95C65.12,48.93,62.95,45.32,58.5,45.73C56.29,45.94,60.63,52.17,61.43,58.2C61.94,62.07,51.53,69.43,40.7,69.43C36.14,69.43,31.03,69.22,26.14,68.64C25.59,66.73,25.4,64.52,25.66,61.97C25.66,56.14,31.92,53.58,39.62,55.39C52.17,58.35,49.81,46.92,51.44,42.47C52.56,39.39,56.37,45.18,58.75,40.25C61.68,34.15,57.17,29.41,61.52,28.59C65.49,27.84,62.81,42.47,72.67,46.91ZM91,75.1C91,69.53,86.48,65,80.9,65C75.32,65,70.8,69.53,70.8,75.1C70.8,80.68,75.32,85.2,80.9,85.2C86.48,85.2,91,80.68,91,75.1ZM88.23,81.73L85.3,83.09L88.7,85.27ZM73.73,69.18L76.66,67.82L73.26,65.64ZM69.7,69.43L72.91,69.09L71.1,72.71ZM89.02,76.6C89.02,72.39,85.39,68.98,80.9,68.98C76.42,68.98,72.78,72.39,72.78,76.6C72.78,80.81,76.42,84.23,80.9,84.23C85.39,84.23,89.02,80.81,89.02,76.6ZM86.37,72.29L80.48,70.23L85.9,67.46ZM8.56,82.88L13.09,82.88L10.04,85.97ZM62.05,80.73L57.08,82.93L62.37,85.45ZM19.17,66.75L27.79,66.75L21.99,60.35ZM8.41,61.64L10.24,61.86C25.35,63.7,40.63,63.7,55.74,61.86L57.57,61.64C61.74,61.14,65.19,64.83,64.42,68.95C64.07,70.84,64.07,72.78,64.42,74.67L64.53,75.22C65.31,79.44,62.38,83.44,58.13,83.95L57.06,84.08C41.07,86.02,24.91,86.02,8.92,84.08L7.85,83.95C3.6,83.44,0.67,79.44,1.46,75.22L1.56,74.67C1.91,72.78,1.91,70.84,1.56,68.95C0.79,64.83,4.25,61.14,8.41,61.64ZM9.02,66.15L10.47,66.43C25.62,69.37,41.2,69.37,56.35,66.43L57.8,66.15C60.56,65.61,62.94,68.1,62.29,70.82C61.94,72.3,61.94,73.83,62.29,75.3L62.43,75.87C63.1,78.68,61.19,81.44,58.33,81.81L55.88,82.12C40.96,84.03,25.86,84.03,10.94,82.12L8.49,81.81C5.63,81.44,3.73,78.68,4.39,75.87L4.53,75.3C4.88,73.83,4.88,72.3,4.53,70.82C3.88,68.1,6.27,65.61,9.02,66.15ZM31.43,70.41L39.01,70.41L33.91,66Z"/></svg>