<svg xmlns="http://www.w3.org/2000/svg" viewBox="0 0 90 90"><path d="M47.61,3.82L52.64,12.42L61.81,9.44C63.28,8.96,64.71,10.25,64.38,11.76L59.3,35.25L73.83,25.16C75.11,24.28,76.95,25.12,77.09,26.66L77.84,34.91L88.29,35.95C89.89,36.11,90.73,37.9,89.78,39.12L83.76,46.83L90.38,53.24C91.52,54.34,91.01,56.17,89.48,56.52L69.2,61.09L72.02,72.26C72.39,73.73,71.05,75.06,69.58,74.68L45.96,68.59L22.34,74.68C20.87,75.06,19.53,73.73,19.91,72.26L22.72,61.09L2.52,56.53C0.97,56.18,0.48,54.32,1.64,53.23L7.89,47.39L2.03,39.2C1.13,37.95,2.05,36.19,3.65,36.09L13.81,35.46L14.79,26.58C14.95,25.06,16.77,24.25,18.03,25.12L32.62,35.25L27.56,11.83C27.23,10.3,28.69,9.01,30.16,9.51L38.63,12.42L44.2,3.74C45.01,2.49,46.86,2.53,47.61,3.82Z" fill="currentColor"/><path d="M47.61,3.82L52.64,12.42L61.81,9.44C63.28,8.96,64.71,10.25,64.38,11.76L59.3,35.25L73.83,25.16C75.11,24.28,76.95,25.12,77.09,26.66L77.84,34.91L88.29,35.95C89.89,36.11,90.73,37.9,89.78,39.12L83.76,46.83L90.38,53.24C91.3,54.13,91.14,55.49,90.25,56.16L82.76,47.33L87.8,37.71L77.13,35.64L74.81,26.46L58.38,36.2L61.55,11.96L52.38,12.95L45.96,4.48L38.94,12.95L29.77,11.96L32.94,36.2L16.51,26.46L14.18,35.64L3.51,37.71L8.56,47.33L1.37,55.8C0.83,55.07,0.85,53.97,1.64,53.23L7.89,47.39L2.02,39.2C1.13,37.95,2.05,36.19,3.65,36.09L13.81,35.46L14.78,26.58C14.95,25.06,16.77,24.25,18.03,25.12L32.62,35.25L27.56,11.83C27.23,10.3,28.69,9.01,30.16,9.51L38.63,12.42L44.2,3.74C45.01,2.49,46.86,2.53,47.61,3.82Z" fill="currentColor"/><path d="M13.2,40.1L37.61,51.74C44.57,55.05,49,62.08,49,69.79L49,71L43,71L43,64.34C43,60.75,41.07,57.44,37.95,55.66L23.12,47.2L7.2,39.46Z" fill="currentColor"/><path d="M80.89,39.25L54.45,51.75C47.46,55.06,43,62.1,43,69.83L43,71L49,71L49,64.5C49,60.83,51.02,57.45,54.25,55.7L85.61,38.8Z" fill="currentColor"/><path d="M47.8,57.76C48.59,59.65,49,61.68,49,63.72L49,73.69C49,77.3,50.37,80.78,52.83,83.42L54.86,85.61C55.65,86.46,55.88,87.69,55.45,88.77C54.66,90.77,52.07,91.31,50.54,89.79L49.13,88.4C45.21,84.5,43,79.2,43,73.67L43,61.41C43,60.26,43.45,59.16,44.24,58.34L44.67,12.87L45.96,7.42Z" fill="currentColor"/><path d="M20.47,32.86L21.24,44.93L13.62,53.36L23.13,45.6Z" fill="currentColor" opacity="0.5"/><path d="M30.42,36.34L31.27,50.18L22.84,59.84L33.36,50.95Z" fill="currentColor" opacity="0.5"/><path d="M72.5,32.86L71.73,44.34L79.36,52.36L69.84,44.98Z" fill="currentColor" opacity="0.5"/><path d="M61.56,36.34L60.71,50.18L69.13,59.84L58.62,50.95Z" fill="currentColor" opacity="0.5"/><path d="M59.06,19.62L45.88,23.86L34.78,19.78L45.57,25.7Z" fill="currentColor" opacity="0.5"/><path d="M57.06,34.69L45.01,38.63L34.71,34.33L44.77,40.45Z" fill="currentColor" opacity="0.5"/></svg>