<svg xmlns="http://www.w3.org/2000/svg" viewBox="0 0 90 90"><path d="M83.22,63.88C81.56,70.63,82.27,77.87,86.02,83.72C83.29,83.39,80.49,83.85,77.95,85.07L77.16,85.47C73.15,87.41,68.46,87.41,64.45,85.47L63.66,85.07C59.65,83.13,54.96,83.13,50.95,85.07L50.16,85.47C46.15,87.41,41.46,87.41,37.45,85.47L36.66,85.07C32.65,83.13,27.96,83.13,23.95,85.07L23.16,85.47C19.15,87.41,14.46,87.41,10.45,85.47L9.66,85.07C7.87,84.21,5.96,83.73,4.03,83.64C7.73,77.81,8.43,70.6,6.79,63.88C-4.03,19.59,23.86,4,45,4C66.14,4,94.03,19.59,83.22,63.88Z" fill="#E6F7FF"/><path d="M83.21,63.88C81.56,70.63,82.27,77.87,86.02,83.72C83.29,83.39,80.49,83.85,77.95,85.07L77.16,85.47C73.14,87.41,68.46,87.41,64.45,85.47L63.66,85.07C59.64,83.13,54.96,83.13,50.95,85.07L50.16,85.47C46.15,87.41,41.46,87.41,37.45,85.47L36.66,85.07C36.37,84.93,36.08,84.81,35.79,84.69C38.27,78.33,43.99,76.2,49.73,72.66C54.17,69.94,60.56,68.18,61.61,59.41C62.29,53.8,65.27,47.13,65.27,37.08C65.27,24.98,60.55,12.48,49.16,4.2C69.58,6.13,93.33,22.45,83.21,63.88Z" fill="#AED0F0"/><path d="M66.61,9.63C60.84,7.13,54.68,6,49,6C27.86,6,-0.03,21.59,10.79,65.88C12.33,72.22,11.8,78.99,8.63,84.63C7.15,84.04,5.6,83.71,4.03,83.64C7.73,77.81,8.43,70.6,6.79,63.88C-4.03,19.59,23.86,4,45,4C52.01,4,59.77,5.72,66.61,9.63Z" fill="#F2FCFF"/><path d="M14.07,17.16C22.11,10.02,32.71,7,42,7C63.14,7,91.03,22.59,80.22,66.88C78.82,72.58,79.11,78.63,81.49,83.89C82.98,83.6,84.51,83.54,86.02,83.72C82.27,77.87,81.56,70.63,83.22,63.88C94.03,19.59,66.14,4,45,4C34.5,4,22.33,7.85,14.07,17.16Z" fill="#F2FCFF"/><path d="M51.63,55.63C51.63,51.97,48.66,49,45,49C41.34,49,38.38,51.97,38.38,55.63C38.38,59.28,41.34,62.25,45,62.25C48.66,62.25,51.63,59.28,51.63,55.63Z" fill="#324660"/><path d="M51.63,55.63C51.63,56.21,51.55,56.77,51.41,57.31C50.66,54.47,48.08,52.38,45,52.38C41.92,52.38,39.34,54.47,38.59,57.31C38.45,56.77,38.38,56.21,38.38,55.63C38.38,51.97,41.34,49,45,49C48.66,49,51.63,51.97,51.63,55.63Z" fill="#263242"/><path d="M64,49C59.59,49,56,44.07,56,38C56,31.93,58.59,27,63,27C67.41,27,72,31.93,72,38C72,44.07,68.41,49,64,49Z" fill="#E6F7FF"/><path d="M63,46C59.14,46,56,41.96,56,37C56,32.04,59.14,28,63,28C66.86,28,70,32.04,70,37C70,41.96,66.86,46,63,46Z" fill="#324660"/><path d="M70,37C70,37.52,69.96,38.03,69.9,38.52C69.33,34.28,66.45,31.04,63,31.04C59.55,31.04,56.67,34.28,56.1,38.52C56.04,38.03,56,37.52,56,37C56,32.04,59.14,28,63,28C66.86,28,70,32.04,70,37Z" fill="#1E2533"/><path d="M27.02,46C23.17,46,20,41.96,20,37C20,32.04,23.14,28,27.02,28C30.9,28,34,32.04,34,37C34,41.96,30.86,46,27.02,46Z" fill="#324660"/><path d="M33.96,37C33.96,37.52,33.93,38.03,33.86,38.52C33.3,34.28,30.42,31.04,26.98,31.04C23.54,31.04,20.66,34.28,20.1,38.52C20.04,38.03,20,37.52,20,37C20,32.04,23.14,28,26.98,28C30.83,28,33.96,32.04,33.96,37Z" fill="#1E2533"/></svg>