<svg xmlns="http://www.w3.org/2000/svg" viewBox="0 0 90 90"><path d="M13,85L77,85C81.42,85,85,81.42,85,77L85,18.71C85,14.3,81.42,10.71,77,10.71L13,10.71C8.58,10.71,5,14.3,5,18.71L5,77C5,81.42,8.58,85,13,85Z" fill="#FF788A"/><path d="M13,81.19L77,81.19C81.42,81.19,85,77.61,85,73.19L85,13C85,8.58,81.42,5,77,5L13,5C8.58,5,5,8.58,5,13L5,73.19C5,77.61,8.58,81.19,13,81.19Z" fill="#FF949D"/><path d="M82.94,7.64L45,57.72L7.06,7.64C8.5,6.05,10.57,5.03,12.89,5L77.11,5C79.43,5.03,81.5,6.05,82.94,7.64Z" fill="#ED2456"/><path d="M82.75,7.44L50.62,43.1L82.75,78.75C81.29,80.26,79.26,81.19,77,81.19L13,81.19C10.74,81.19,8.71,80.25,7.25,78.75L39.37,43.1L7.25,7.44C8.68,5.96,10.68,5.03,12.89,5L77.11,5C79.32,5.03,81.32,5.96,82.75,7.44Z" fill="#FFB5B9"/><path d="M6.31,14.01C6.41,9.73,9.87,6.28,14.15,6.2L75.26,5L13,5C8.58,5,5,8.58,5,13L5,71.88Z" fill="#FFD4D4"/><path d="M83.69,72.18C83.59,76.46,80.13,79.91,75.85,79.99L14.74,81.19L77,81.19C81.42,81.19,85,77.61,85,73.19L85,14.31Z" fill="#FFD4D4"/><path d="M69.82,40.78C69.82,51.05,56.56,63.69,48.23,71.9C47.19,72.93,45.47,73.46,44.15,73.5L43.91,73.49C42.7,73.39,41.31,72.87,40.39,71.9C32.46,63.69,19.83,51.05,19.83,40.78C19.83,25.85,35.37,18.1,44.15,30.88C53.2,18.34,69.82,25.29,69.82,40.78Z" fill="#FF788A"/><path d="M70.82,36.78C70.82,47.05,57.03,59.69,48.36,67.9C47.35,68.87,45.72,69.39,44.38,69.48L44.12,69.5L43.87,69.48C42.61,69.39,41.17,68.87,40.21,67.9C31.96,59.69,18.83,47.05,18.83,36.78C18.83,22.08,34.49,14.34,43.69,26.3L44.12,26.88C53.53,14.34,70.82,21.29,70.82,36.78Z" fill="#ED2456"/><path d="M70.82,36.78C70.82,47.05,57.03,59.69,48.36,67.9C47.35,68.87,45.72,69.39,44.38,69.48L44.12,69.5L43.87,69.48C42.61,69.39,41.17,68.87,40.21,67.9C33.36,61.08,23.15,51.21,19.88,42.17L40.31,61.91C42.16,63.69,45.19,63.45,46.94,61.59C53.69,54.39,64.86,45.16,65.13,35.39C65.35,27.86,61.89,22.47,57.13,20.45C64.33,21,70.82,27.29,70.82,36.78Z" fill="#C4144F"/><path d="M38.33,21.74C39.17,22.16,39.99,22.68,40.79,23.32C40.81,23.34,40.83,23.35,40.85,23.37C41.16,23.62,41.46,23.88,41.76,24.16C41.78,24.18,41.8,24.2,41.81,24.21C42.6,24.96,43.36,25.84,44.08,26.83C44.01,28.38,43.74,30.16,43.21,32.19C41.52,25.52,35.85,19.91,27.94,21.49C27.94,21.49,27.95,21.49,27.95,21.49C28.42,21.28,28.9,21.1,29.39,20.96C29.91,20.8,30.45,20.67,30.99,20.59C31.32,20.54,31.65,20.5,31.98,20.47C32.17,20.46,32.36,20.45,32.54,20.44C32.87,20.43,33.19,20.44,33.52,20.45C35.13,20.54,36.76,20.95,38.33,21.74Z" fill="#C4144F"/></svg>