<svg xmlns="http://www.w3.org/2000/svg" viewBox="0 0 90 90"><path d="M45.55,72.2C32.73,55.53,38.15,30.67,38.4,29.63C39.42,25.2,43.71,22.48,48,23.47C52.29,24.51,54.95,28.91,53.97,33.34C52.87,38.4,51.44,53.36,58.12,61.99C62.1,67.14,68.87,69.75,78.19,69.75C82.59,69.75,86.17,73.43,86.17,78C86.17,82.56,82.59,86.25,78.19,86.25C63.7,86.25,52.73,81.52,45.55,72.2Z" fill="#CA9350"/><path d="M65.41,71.92C73.16,74.09,82.07,76.16,84.08,83.58C85.4,82.13,86.22,80.17,86.22,78C86.22,73.46,82.65,69.75,78.25,69.75C68.9,69.75,62.13,67.14,58.17,61.99C51.52,53.39,52.92,38.4,54.02,33.34C55.01,28.91,52.34,24.48,48.05,23.47C43.76,22.48,39.47,25.17,38.45,29.63C38.32,30.18,36.75,37.49,37.22,46.73C40.22,46.7,42.61,47.7,44.84,50.64L44.84,50.61C51.79,59.74,52.92,68.43,65.41,71.92Z" fill="#9D6C3E"/><path d="M54.19,25.64L48.91,27.62C52.98,28.89,56.85,30.7,60.32,33.15L46.48,31.91L44.95,33.64L54.08,43.98L57.79,45.63L64.58,38.9L66.23,49.34L85.62,57.92C87.43,45.96,81.19,34.27,68.62,28.72C64.06,26.71,59.13,25.72,54.19,25.64Z" fill="#81B64C"/><path d="M40.98,27.65L35.7,25.67C30.75,25.75,25.86,26.71,21.3,28.75C8.76,34.27,2.51,45.96,4.33,57.92L21.71,50.23L23.5,38.9L30.86,46.18L35.84,43.98L44.97,33.64L43.43,31.91L29.6,33.15C33.06,30.73,36.94,28.91,40.98,27.65Z" fill="#81B64C"/><path d="M48.91,27.62L46.48,28.53C46.48,28.91,46.51,29.32,46.48,29.71L44.92,29.13L43.43,29.68C43.43,29.32,43.43,28.94,43.43,28.58L40.96,27.65C36.91,28.91,33.01,30.73,29.57,33.15L43.41,31.91L44.95,33.64L46.48,31.91L60.32,33.15C56.85,30.73,52.98,28.91,48.91,27.62Z" fill="#81B64C"/><path d="M64.99,21.57L65.27,18.85L67.91,20.47L86.14,13.62C78.74,4.27,67.03,1.05,55.97,6.2C50.58,8.7,46.92,14.04,45,19.62C45.77,21.87,46.27,24.16,46.46,26.3C49.02,25.86,51.6,25.59,54.21,25.64L54.19,25.64Z" fill="#81B64C"/><path d="M46.48,26.88C47.31,27.07,48.11,27.37,48.91,27.65L54.19,25.67C51.6,25.61,49.02,25.89,46.43,26.33L46.43,26.3C46.43,26.49,46.46,26.68,46.48,26.88Z" fill="#81B64C"/><path d="M44.95,29.13L43.49,28.58C43.49,28.94,43.46,29.35,43.49,29.68L43.46,29.68Z" fill="#81B64C"/><path d="M48.93,27.62C48.13,27.37,47.34,27.07,46.51,26.85C46.54,27.43,46.51,27.95,46.51,28.5L46.51,28.53Z" fill="#81B64C"/><path d="M45,19.62C43.08,14.04,39.39,8.7,34.03,6.2C22.92,1.03,11.2,4.27,3.75,13.62L21.68,20.36L24.16,18.85L24.4,21.38L35.7,25.64C38.32,25.59,40.93,25.86,43.52,26.3L43.54,26.3C43.73,24.13,44.23,21.87,45,19.62Z" fill="#81B64C"/><path d="M43.52,26.3C40.93,25.83,38.32,25.59,35.7,25.64L40.98,27.62C41.81,27.34,42.63,27.04,43.49,26.85C43.49,26.66,43.49,26.49,43.52,26.3Z" fill="#81B64C"/><path d="M43.46,28.55C43.46,27.98,43.46,27.43,43.46,26.85C42.61,27.07,41.78,27.37,40.96,27.62L40.98,27.62Z" fill="#81B64C"/><path d="M46.51,28.53L44.95,29.11L46.51,29.68L46.51,29.71C46.51,29.32,46.51,28.91,46.51,28.53Z" fill="#81B64C"/><path d="M46.46,26.3C46.27,24.16,45.77,21.87,45,19.62C44.23,21.87,43.73,24.16,43.54,26.3C44.01,26.38,44.51,26.47,44.97,26.58C45.47,26.47,45.96,26.38,46.46,26.3Z" fill="#81B64C"/><path d="M44.95,26.57C45.44,26.68,45.96,26.74,46.46,26.88C46.46,26.68,46.46,26.49,46.4,26.3L46.43,26.3C45.94,26.38,45.44,26.46,44.95,26.57Z" fill="#81B64C"/><path d="M43.52,26.85C44.01,26.74,44.51,26.68,44.97,26.57C44.51,26.46,44.01,26.38,43.54,26.3C43.54,26.49,43.54,26.66,43.52,26.85Z" fill="#81B64C"/><path d="M43.52,26.85C43.49,27.43,43.52,28,43.52,28.55L44.97,29.11L46.54,28.53C46.54,27.98,46.54,27.43,46.54,26.88C46.05,26.74,45.52,26.68,45.03,26.57L44.97,26.57C44.48,26.68,43.98,26.74,43.52,26.85Z" fill="#81B64C"/><path d="M83.03,53.85C83.03,44.2,77.17,35.57,67.39,31.25C65.95,30.62,64.47,30.12,62.96,29.71C70.41,34.41,74.75,41.92,74.78,50.23L74.78,50.2Z" fill="#B2E068"/><path d="M22.18,31.22C12.38,35.57,6.53,44.17,6.53,53.83L13.93,50.55C14.01,42,18.68,34.27,26.6,29.66L26.6,29.68C25.09,30.09,23.61,30.59,22.18,31.22Z" fill="#B2E068"/><path d="M37.24,12.63C37.99,12.99,38.7,13.46,39.42,13.9C37.27,11.78,34.91,9.96,32.27,8.7C29.19,7.21,26,6.44,22.78,6.44C17.31,6.44,12,8.7,7.77,12.77L13.95,15.77C17.97,12.38,22.78,10.4,27.76,10.4L27.76,10.38C30.98,10.38,34.16,11.12,37.24,12.63Z" fill="#B2E068"/><path d="M62.02,9.85C67.11,9.85,72.03,11.89,76.1,15.44L81.66,12.74C77.42,8.7,72.11,6.42,66.64,6.42C63.42,6.42,60.23,7.16,57.16,8.67C54.82,9.8,52.67,11.34,50.75,13.13C51.33,12.77,51.9,12.41,52.53,12.11C55.62,10.63,58.8,9.85,62.02,9.85Z" fill="#B2E068"/></svg>