<svg xmlns="http://www.w3.org/2000/svg" viewBox="0 0 90 90"><path d="M42.67,37.53C42.67,39.36,43.93,40.33,45,40.33L45,45L40.33,45C40.33,44.07,39.56,42.67,37.53,42.67C14.39,42.67,3,40.92,3,31.12C3,21.9,13.5,18.28,24.52,24.52C18.28,13.51,21.9,2.99,31.11,3C43.24,3,42.67,14.26,42.67,37.53Z" fill="#5D9948"/><path d="M34.18,42.65L38.21,42.47C39.66,42.41,40.88,43.55,40.92,45L39.1,45C39.1,43.73,38.09,42.7,36.82,42.68Z" fill="#81B64C"/><path d="M42.65,34.19L42.47,38.22C42.41,39.67,43.55,40.89,45,40.92L45,39.11C43.73,39.11,42.7,38.09,42.68,36.83Z" fill="#81B64C"/><path d="M42.67,36.66C41.39,21,41.89,6.38,31.11,6.38C22.07,6.38,23.58,18.29,27.14,25.7C27.82,27.13,37.13,34.79,37.88,37.59C34.97,36.99,26.93,27.85,25.39,27.15C18.06,23.86,6.96,22.36,6.96,31.12C6.96,39.88,22.25,41.57,36.69,42.67C13.55,42.67,3,40.55,3,31.12C3,21.9,13.5,18.28,24.52,24.52C18.28,13.51,21.9,3,31.11,3C43.24,3.01,42.67,13.39,42.67,36.66Z" fill="#81B64C"/><path d="M31.78,19.98L26.93,27.11L20.8,31.36L28.39,28.48Z" fill="#81B64C" opacity="0.5"/><path d="M36.91,21.14L30.75,30.6L20.8,37.53L32.09,31.97Z" fill="#81B64C" opacity="0.5"/><path d="M38.7,28.2L34.48,34.27L29.16,39.02L35.85,35.38Z" fill="#81B64C" opacity="0.5"/><path d="M52.47,42.67C50.64,42.67,49.67,43.93,49.67,45L45,45L45,40.33C45.93,40.33,47.33,39.56,47.33,37.53C47.33,14.39,49.08,3,58.88,3C68.1,3,71.72,13.5,65.48,24.52C76.49,18.28,87.01,21.9,87,31.11C87,43.24,75.74,42.67,52.47,42.67Z" fill="#5D9948"/><path d="M47.35,34.18L47.53,38.21C47.59,39.66,46.45,40.88,45,40.92L45,39.1C46.27,39.1,47.3,38.09,47.32,36.82Z" fill="#81B64C"/><path d="M55.81,42.65L51.78,42.47C50.33,42.41,49.11,43.55,49.08,45L50.89,45C50.89,43.73,51.91,42.7,53.17,42.68Z" fill="#81B64C"/><path d="M53.34,42.67C69,41.39,83.62,41.89,83.62,31.11C83.62,22.07,71.71,23.58,64.3,27.14C62.87,27.82,55.21,37.13,52.41,37.88C53.01,34.97,62.15,26.93,62.85,25.39C66.14,18.06,67.64,6.96,58.88,6.96C50.12,6.96,48.43,22.25,47.33,36.69C47.33,13.55,49.45,3,58.88,3C68.1,3,71.72,13.5,65.48,24.52C76.49,18.28,87,21.9,87,31.11C86.99,43.24,76.61,42.67,53.34,42.67Z" fill="#81B64C"/><path d="M70.02,31.78L62.89,26.93L58.64,20.8L61.52,28.39Z" fill="#81B64C" opacity="0.5"/><path d="M68.86,36.91L59.4,30.75L52.47,20.8L58.03,32.09Z" fill="#81B64C" opacity="0.5"/><path d="M61.8,38.7L55.73,34.48L50.98,29.16L54.62,35.85Z" fill="#81B64C" opacity="0.5"/><path d="M37.53,47.33C39.36,47.33,40.33,46.07,40.33,45L45,45L45,49.67C44.07,49.67,42.67,50.44,42.67,52.47C42.67,75.61,40.92,87,31.12,87C21.9,87,18.28,76.5,24.52,65.48C13.51,71.72,2.99,68.1,3,58.89C3,46.76,14.26,47.33,37.53,47.33Z" fill="#5D9948"/><path d="M42.65,55.82L42.47,51.79C42.41,50.34,43.55,49.12,45,49.08L45,50.9C43.73,50.9,42.7,51.91,42.68,53.18Z" fill="#81B64C"/><path d="M34.19,47.35L38.22,47.53C39.67,47.59,40.89,46.45,40.92,45L39.11,45C39.11,46.27,38.09,47.3,36.83,47.32Z" fill="#81B64C"/><path d="M36.66,47.33C21,48.61,6.38,48.11,6.38,58.89C6.38,67.93,18.29,66.42,25.7,62.86C27.13,62.18,34.79,52.87,37.59,52.12C36.99,55.03,27.85,63.08,27.15,64.61C23.86,71.94,22.36,83.04,31.12,83.04C39.88,83.04,41.57,67.75,42.67,53.31C42.67,76.45,40.55,87,31.12,87C21.9,87,18.28,76.5,24.52,65.48C13.51,71.72,3,68.1,3,58.89C3.01,46.76,13.39,47.33,36.66,47.33Z" fill="#81B64C"/><path d="M19.98,58.22L27.11,63.07L31.36,69.2L28.48,61.61Z" fill="#81B64C" opacity="0.5"/><path d="M21.14,53.09L30.6,59.25L37.53,69.2L31.97,57.91Z" fill="#81B64C" opacity="0.5"/><path d="M28.2,51.3L34.27,55.52L39.02,60.84L35.38,54.15Z" fill="#81B64C" opacity="0.5"/><path d="M47.33,52.47C47.33,50.64,46.07,49.67,45,49.67L45,45L49.67,45C49.67,45.93,50.44,47.33,52.47,47.33C75.61,47.33,87,49.08,87,58.88C87,68.1,76.5,71.72,65.48,65.48C71.72,76.49,68.1,87.01,58.89,87C46.76,87,47.33,75.74,47.33,52.47Z" fill="#5D9948"/><path d="M55.82,47.35L51.79,47.53C50.34,47.59,49.12,46.45,49.08,45L50.9,45C50.9,46.27,51.91,47.3,53.18,47.32Z" fill="#81B64C"/><path d="M47.35,55.81L47.53,51.78C47.59,50.33,46.45,49.11,45,49.08L45,50.89C46.27,50.89,47.3,51.91,47.32,53.17Z" fill="#81B64C"/><path d="M47.33,53.34C48.61,69,48.11,83.62,58.89,83.62C67.93,83.62,66.42,71.71,62.86,64.3C62.18,62.87,52.87,55.21,52.12,52.41C55.03,53.01,63.08,62.15,64.61,62.85C71.94,66.14,83.04,67.64,83.04,58.88C83.04,50.12,67.75,48.43,53.31,47.33C76.45,47.33,87,49.45,87,58.88C87,68.1,76.5,71.72,65.48,65.48C71.72,76.49,68.1,87,58.89,87C46.76,86.99,47.33,76.61,47.33,53.34Z" fill="#81B64C"/><path d="M58.22,70.02L63.07,62.89L69.2,58.64L61.61,61.52Z" fill="#81B64C" opacity="0.5"/><path d="M53.09,68.86L59.25,59.4L69.2,52.47L57.91,58.03Z" fill="#81B64C" opacity="0.5"/><path d="M51.3,61.8L55.52,55.73L60.84,50.98L54.15,54.62Z" fill="#81B64C" opacity="0.5"/></svg>