<svg xmlns="http://www.w3.org/2000/svg" viewBox="0 0 90 90"><path d="M44.05,0.45C51.25,2.09,57.49,6.54,61.41,12.79L56.4,45L42.09,45L42.09,0Z" fill="#5D9948"/><path d="M57.27,7.66L56.55,9.17L45.02,2.34L42.17,11L42.09,7.99L42.09,0L44.05,0.45C49.08,1.6,53.65,4.11,57.27,7.66Z" fill="#81B64C"/><path d="M59.35,2.81C65.55,6.82,69.9,13.13,71.43,20.35L55.72,48.9L42.26,44L57.65,1.72Z" fill="#5D9948"/><path d="M69.3,14.11L68.11,15.28L59.61,4.92L53.97,12.09L54.92,9.23L57.65,1.72L59.35,2.81C63.68,5.61,67.11,9.54,69.3,14.11Z" fill="#81B64C"/><path d="M72.91,10.26C77.37,16.15,79.3,23.57,78.27,30.87L53.74,52.33L42.77,43.13L71.69,8.66Z" fill="#5D9948"/><path d="M78.4,24.29L76.88,24.98L72.43,12.33L64.68,17.14L66.56,14.78L71.69,8.66L72.91,10.26C76.03,14.38,77.9,19.24,78.4,24.29Z" fill="#81B64C"/><path d="M83.11,21.9C85.28,28.96,84.56,36.59,81.09,43.1L50.7,54.88L43.54,42.48L82.52,19.98Z" fill="#5D9948"/><path d="M83.47,36.96L81.81,37.09L81.95,23.69L73.03,25.55L75.59,23.97L82.52,19.98L83.11,21.9C84.63,26.83,84.73,32.05,83.47,36.96Z" fill="#81B64C"/><path d="M88.71,36.33C88.34,43.7,85.05,50.62,79.57,55.56L46.98,56.23L44.49,42.13L88.81,34.32Z" fill="#5D9948"/><path d="M83.9,50.6L82.29,50.15L87.01,37.61L77.99,36.31L80.94,35.71L88.81,34.32L88.71,36.33C88.45,41.48,86.77,46.42,83.9,50.6Z" fill="#81B64C"/><path d="M89.04,51.8C86.17,58.6,80.71,63.98,73.87,66.75L43.02,56.23L45.51,42.13L89.82,49.95Z" fill="#5D9948"/><path d="M79.64,63.57L78.28,62.6L87.01,52.43L78.97,48.11L81.95,48.56L89.82,49.95L89.04,51.8C87.03,56.56,83.76,60.61,79.64,63.57Z" fill="#81B64C"/><path d="M84.06,66.46C79.03,71.87,72.06,75.05,64.69,75.31L39.3,54.88L46.46,42.48L85.43,64.98Z" fill="#5D9948"/><path d="M71.2,74.3L70.25,72.92L81.93,66.34L75.86,59.55L78.51,60.98L85.43,64.98L84.06,66.46C80.55,70.24,76.08,72.93,71.2,74.3Z" fill="#81B64C"/><path d="M74.36,78.52C67.79,81.89,60.15,82.5,53.13,80.22L36.26,52.33L47.23,43.13L76.16,77.6Z" fill="#5D9948"/><path d="M59.6,81.49L59.18,79.87L72.41,77.69L69.02,69.22L71.02,71.48L76.16,77.6L74.36,78.52C69.77,80.87,64.66,81.88,59.6,81.49Z" fill="#81B64C"/><path d="M61.13,86.54C53.8,87.46,46.42,85.42,40.6,80.87L34.28,48.9L47.74,44L63.13,86.29Z" fill="#5D9948"/><path d="M46.24,84.28L46.4,82.62L59.57,85.09L59.29,75.98L60.39,78.78L63.13,86.29L61.13,86.54C56.01,87.18,50.86,86.38,46.24,84.28Z" fill="#81B64C"/><path d="M45.95,89.55C38.75,87.91,32.51,83.46,28.59,77.21L33.6,45L47.91,45L47.91,90Z" fill="#5D9948"/><path d="M32.73,82.34L33.45,80.83L44.98,87.66L47.83,79L47.91,82.01L47.91,90L45.95,89.55C40.92,88.4,36.35,85.89,32.73,82.34Z" fill="#81B64C"/><path d="M30.65,87.19C24.45,83.18,20.1,76.87,18.57,69.65L34.28,41.1L47.74,46L32.35,88.28Z" fill="#5D9948"/><path d="M20.7,75.89L21.89,74.72L30.39,85.08L36.03,77.91L35.08,80.77L32.35,88.28L30.65,87.19C26.32,84.39,22.89,80.46,20.7,75.89Z" fill="#81B64C"/><path d="M17.09,79.74C12.63,73.85,10.71,66.44,11.73,59.13L36.26,37.67L47.23,46.87L18.31,81.34Z" fill="#5D9948"/><path d="M11.6,65.71L13.12,65.02L17.57,77.67L25.32,72.86L23.44,75.22L18.31,81.34L17.09,79.74C13.97,75.62,12.1,70.76,11.6,65.71Z" fill="#81B64C"/><path d="M6.89,68.1C4.72,61.04,5.44,53.41,8.91,46.9L39.3,35.12L46.46,47.52L7.49,70.02Z" fill="#5D9948"/><path d="M6.53,53.04L8.19,52.91L8.05,66.31L16.98,64.45L14.41,66.03L7.49,70.02L6.89,68.1C5.37,63.17,5.27,57.95,6.53,53.04Z" fill="#81B64C"/><path d="M1.29,53.67C1.66,46.3,4.95,39.38,10.44,34.44L43.02,33.77L45.51,47.87L1.19,55.68Z" fill="#5D9948"/><path d="M6.1,39.4L7.71,39.85L2.99,52.39L12.01,53.69L9.06,54.29L1.19,55.68L1.29,53.67C1.55,48.52,3.23,43.58,6.1,39.4Z" fill="#81B64C"/><path d="M0.96,38.2C3.83,31.4,9.29,26.02,16.13,23.25L46.98,33.77L44.49,47.87L0.18,40.05Z" fill="#5D9948"/><path d="M10.36,26.43L11.72,27.4L2.99,37.57L11.03,41.89L8.05,41.44L0.18,40.05L0.96,38.2C2.97,33.44,6.24,29.39,10.36,26.43Z" fill="#81B64C"/><path d="M5.94,23.54C10.97,18.13,17.94,14.95,25.31,14.69L50.7,35.12L43.54,47.52L4.57,25.02Z" fill="#5D9948"/><path d="M18.8,15.7L19.75,17.08L8.07,23.66L14.14,30.46L11.49,29.02L4.57,25.02L5.94,23.54C9.45,19.76,13.92,17.07,18.8,15.7Z" fill="#81B64C"/><path d="M15.64,11.48C22.21,8.11,29.85,7.5,36.87,9.78L53.74,37.67L42.77,46.87L13.84,12.4Z" fill="#5D9948"/><path d="M30.4,8.51L30.82,10.13L17.59,12.31L20.98,20.78L18.98,18.52L13.84,12.4L15.64,11.48C20.23,9.13,25.34,8.12,30.4,8.51Z" fill="#81B64C"/><path d="M28.87,3.46C36.2,2.54,43.58,4.58,49.4,9.13L55.72,41.1L42.26,46L26.87,3.71Z" fill="#5D9948"/><path d="M43.76,5.72L43.6,7.38L30.43,4.91L30.71,14.02L29.61,11.22L26.87,3.71L28.87,3.46C33.99,2.82,39.14,3.62,43.76,5.72Z" fill="#81B64C"/><path d="M45,6.51C36.43,6.47,27.72,13.8,27.72,26.26C27.72,48.39,18.5,53.03,18.5,63.15C18.5,71.62,35.08,75.5,44.95,75.5C54.83,75.5,71.5,71.62,71.5,63.15C71.5,53.16,61.48,45.63,61.48,26.26C61.48,13.55,53.3,6.55,45,6.51Z" fill="#305730"/><path d="M11.92,67.04L13.67,72.36L9.73,72.96Z" fill="#81B64C"/><path d="M77.29,70.03L78.37,75.16L72.59,73.77Z" fill="#81B64C"/><path d="M83.58,29.08L82.52,24.91L86.45,24.3Z" fill="#81B64C"/><path d="M4.31,34.12L1.72,29.74L6.14,30.27Z" fill="#81B64C"/><path d="M13.44,19.93L10.85,15.56L17.59,16.41Z" fill="#81B64C"/><path d="M52.45,13.19C52.45,11.07,59.55,6.51,64.86,6.51C65.51,6.51,65.77,6.61,65.77,6.61C66.03,7.33,63.19,11.82,63.19,13.29C63.19,14.65,66,18.5,65.47,19.83C65.47,19.83,65.08,19.83,64.86,19.83L64.86,19.87C59.51,19.87,52.45,15.31,52.45,13.19Z" fill="#EB6150"/><path d="M25.09,26.38C17.83,26.38,17.44,20.48,17.44,13.19C17.44,5.89,17.8,0.03,25.06,0.03C32.32,0.03,43.98,5.93,43.98,13.22L44.01,13.19C44.01,20.48,32.35,26.38,25.09,26.38Z" fill="#FA412D"/><path d="M64.82,26.38C72.09,26.38,72.48,20.48,72.48,13.19C72.48,5.89,72.09,0,64.82,0C57.56,0,45.9,5.89,45.9,13.19C45.9,20.48,57.56,26.38,64.82,26.38Z" fill="#FA412D"/><path d="M22.24,2.42C25.02,-1.46,40.35,5.38,40.35,9.5C40.35,14.86,17.95,8.42,22.24,2.42Z" fill="#B32929"/><path d="M68.23,2.42C65.45,-1.46,50.12,5.38,50.12,9.5C50.12,14.86,72.52,8.42,68.23,2.42Z" fill="#B32929"/><path d="M43.97,12.87C43.98,12.98,43.98,13.1,43.98,13.22L44.01,13.19C44.01,20.48,32.35,26.38,25.09,26.38C17.83,26.38,17.44,20.48,17.44,13.19C17.44,10.42,17.49,7.86,17.95,5.75C21.91,13.16,37.35,15.15,43.97,12.87Z" fill="#E02828"/><path d="M45.94,12.87C45.94,12.98,45.93,13.1,45.93,13.22L45.9,13.19C45.9,20.48,57.56,26.38,64.82,26.38C72.09,26.38,72.48,20.48,72.48,13.19C72.48,10.42,72.42,7.86,71.96,5.75C68.01,13.16,52.57,15.15,45.94,12.87Z" fill="#E02828"/><path d="M82.43,34.29L80.34,41.66L82.43,49.99C68.71,47.78,56.39,40.33,48.06,29.21L45,25.12L41.94,29.21C33.61,40.33,21.29,47.78,7.57,49.99L9.86,41.56L7.57,34.29C18.75,32.5,29.06,27.21,37.04,19.18L45,11.17L52.96,19.18C60.93,27.21,71.25,32.5,82.43,34.29Z" fill="#305730"/><path d="M85.43,28.29L83.18,35.66L85.43,43.99C70.57,41.77,57.09,34.07,47.65,22.39L45,19.12L42.35,22.39C32.91,34.07,19.43,41.77,4.57,43.99L7.04,35.56L4.57,28.29C16.67,26.5,27.94,21.07,36.88,12.73L45,5.17L53.12,12.73C62.06,21.07,73.33,26.5,85.43,28.29Z" fill="#FA412D"/><path d="M65.5,21.64C66.24,29.84,69.48,35.63,72.44,40.53C62.81,36.77,54.24,30.55,47.65,22.39L45,19.12L42.35,22.39C35.78,30.52,27.24,36.73,17.64,40.5C20.21,36.13,22.86,30.69,23.51,22.16C28.35,19.65,32.85,16.49,36.88,12.73L45,5.17L53.12,12.73C56.87,16.23,61.04,19.22,65.5,21.64Z" fill="#AD1F24"/><path d="M44.96,5.31C42.09,5.31,39.66,7.39,39.43,10.88L50.48,10.88C50.27,7.39,47.84,5.31,44.96,5.31Z" fill="#F7C631"/><path d="M44.96,6.89C42.09,6.89,39.66,8.38,39.43,10.88L50.48,10.88C50.27,8.38,47.84,6.89,44.96,6.89Z" fill="#E3AA24"/><path d="M44.96,10.05C35.41,10.02,25.7,16.3,25.7,26.99C25.7,45.97,15.43,49.95,15.43,58.63C15.43,65.89,33.91,69.22,44.91,69.22C55.92,69.22,74.49,65.89,74.49,58.63C74.49,50.06,63.32,43.6,63.32,26.99C63.32,16.09,54.21,10.08,44.96,10.05Z" fill="#FAD541"/><path d="M63.32,26.99C63.32,43.6,74.49,50.06,74.49,58.63C74.49,60.16,73.67,61.51,72.27,62.7L61.69,42.06C60.55,39.83,59.96,37.36,59.96,34.86L59.96,24.66C59.96,17.39,54.65,11.38,47.74,10.24C55.95,11.34,63.32,17.19,63.32,26.99Z" fill="#CF8D1B"/><path d="M29.96,24.66L29.96,34.86C29.96,37.36,29.36,39.83,28.22,42.06L17.65,62.7C16.25,61.51,15.43,60.16,15.43,58.63C15.43,49.95,25.7,45.97,25.7,26.99C25.7,17.08,34.05,10.95,42.88,10.14C35.62,10.98,29.96,17.14,29.96,24.66Z" fill="#FFF599"/><path d="M68.97,57.05C68.97,51.18,60.04,47.18,41.81,46.43C23.57,45.68,14.65,51.18,14.65,57.05C14.65,62.92,26.81,67.68,41.81,67.68C56.81,67.68,68.97,62.92,68.97,57.05Z" fill="#FFF599"/><path d="M74.49,58.63C74.49,52.76,61.27,48.01,44.97,48.01C28.66,48.01,15.44,52.76,15.44,58.63C15.44,64.5,28.66,69.26,44.97,69.26C61.27,69.26,74.49,64.5,74.49,58.63Z" fill="#E3AA24"/><path d="M21.45,58.92C25.7,53.84,36.81,52.8,44.91,52.8C53.01,52.8,64.11,53.83,68.37,58.92C64.11,64.11,53.11,65.15,44.91,65.15C36.81,65.26,25.7,64.02,21.45,58.92Z" fill="#B27314"/><path d="M21.45,58.92C25.7,53.84,36.81,52.8,44.91,52.8C53.01,52.8,64.11,53.83,68.37,58.92C64.11,64.11,53.11,65.15,44.91,65.15C36.81,65.26,25.7,64.02,21.45,58.92Z" fill="#B27314"/><path d="M65.31,56.46C60.06,59.68,51.57,60.42,44.91,60.42C38.35,60.5,29.81,59.65,24.54,56.45C29.81,53.48,38.35,52.8,44.91,52.8C51.49,52.8,60.04,53.48,65.31,56.46Z" fill="#7A4414"/><path d="M51.27,53.03L51.27,56.63L38.64,56.63L38.64,53.02C40.81,52.86,42.95,52.8,44.91,52.8C46.9,52.8,49.07,52.86,51.27,53.03Z" fill="#B27314"/><path d="M38.64,56.71C38.64,60.03,41.44,62.63,44.96,62.63C48.48,62.63,51.27,60.03,51.27,56.71C51.27,56.24,49.87,55.88,44.96,55.88C43,55.88,38.64,56,38.64,56.71Z" fill="#E3AA24"/><path d="M45.38,62.62C45.24,62.63,45.1,62.63,44.96,62.63C41.44,62.63,38.64,60.03,38.64,56.71C38.64,56.44,39.3,56.25,40.23,56.13C40.22,56.32,40.22,56.51,40.22,56.71C40.22,59.89,42.48,62.42,45.38,62.62Z" fill="#F7C631"/></svg>