<svg xmlns="http://www.w3.org/2000/svg" viewBox="0 0 90 90" fill="currentColor"><path d="M43.21,68.83L43.21,10.67L48.71,10.67L48.71,68.83ZM46.78,68.83L46.78,10.67L48.77,10.67L48.77,68.83ZM23.96,56.56L18.38,56.56C20.72,43.4,32.19,33.35,46.01,33.35C59.83,33.35,71.31,43.4,73.65,56.56L68.06,56.56C65.81,46.45,56.78,38.86,46.01,38.86C35.22,38.86,26.22,46.45,23.96,56.56ZM18.9,56.58L18.46,56.58C20.8,43.43,32.28,33.38,46.1,33.38C59.92,33.38,71.39,43.43,73.73,56.58L73.29,56.58C70.32,44.22,59.34,34.98,46.07,34.98L46.12,34.98C32.88,34.98,21.87,44.22,18.9,56.58ZM11.85,53.01L6.13,53.01C10.04,34.56,26.44,20.69,46.04,20.69C65.64,20.69,82.02,34.56,85.96,53.01L80.29,53.01C76.46,37.65,62.59,26.19,46.07,26.19L46.01,26.19C29.55,26.19,15.73,37.54,11.85,53.01ZM36.05,61.37L30.54,61.37C30.6,52.9,37.51,46.01,46.01,46.01C54.52,46.01,61.43,52.9,61.48,61.37L55.98,61.37C55.92,55.92,51.46,51.52,46.01,51.52C40.56,51.52,36.1,55.92,36.05,61.37ZM45.77,74.89C48.19,74.89,50.14,76.84,50.14,79.27C50.14,81.14,47.53,83.45,46.34,86.73C46.15,87.25,45.41,87.25,45.22,86.73C44.03,83.48,41.42,81.14,41.42,79.27L41.39,79.27C41.39,76.84,43.34,74.89,45.77,74.89ZM45.35,76.79C43.62,76.79,42.13,77.84,41.42,79.32C41.42,79.32,41.42,79.29,41.42,79.27C41.42,76.84,43.37,74.89,45.79,74.89C48.22,74.89,50.17,76.84,50.17,79.27C50.17,79.76,49.98,80.34,49.7,80.97L49.67,80.97C49.56,78.66,47.69,76.79,45.35,76.79ZM57.99,67.18C60.41,67.18,62.37,69.14,62.37,71.56C62.37,73.43,59.75,75.74,58.57,79.02C58.37,79.54,57.63,79.54,57.44,79.02C56.25,75.77,53.64,73.43,53.64,71.56L53.61,71.56C53.61,69.14,55.57,67.18,57.99,67.18ZM70.21,62.39C72.63,62.39,74.59,64.35,74.59,66.77C74.59,68.64,71.97,70.95,70.79,74.23C70.6,74.75,69.85,74.75,69.66,74.23C68.48,70.98,65.86,68.64,65.86,66.77L65.83,66.77C65.83,64.35,67.79,62.39,70.21,62.39ZM82.43,57.6C84.86,57.6,86.81,59.56,86.81,61.98C86.81,63.85,84.19,66.16,83.01,69.44C82.82,69.96,82.07,69.96,81.88,69.44C80.7,66.19,78.08,63.85,78.08,61.98L78.06,61.98C78.06,59.56,80.01,57.6,82.43,57.6ZM33.54,67.18C31.12,67.18,29.17,69.14,29.17,71.56C29.17,73.43,31.78,75.74,32.97,79.02C33.16,79.54,33.9,79.54,34.09,79.02C35.28,75.77,37.89,73.43,37.89,71.56L37.92,71.56C37.92,69.14,35.97,67.18,33.54,67.18ZM21.32,62.39C18.9,62.39,16.94,64.35,16.94,66.77C16.94,68.64,19.56,70.95,20.74,74.23C20.94,74.75,21.68,74.75,21.87,74.23C23.06,70.98,25.67,68.64,25.67,66.77L25.7,66.77C25.7,64.35,23.74,62.39,21.32,62.39ZM9.13,57.6C6.7,57.6,4.75,59.56,4.75,61.98C4.75,63.85,7.37,66.16,8.55,69.44C8.74,69.96,9.48,69.96,9.68,69.44C10.86,66.19,13.48,63.85,13.48,61.98L13.5,61.98C13.5,59.56,11.55,57.6,9.13,57.6ZM30.79,61.4L30.63,61.4C30.68,52.92,37.59,46.04,46.1,46.04C54.6,46.04,61.51,52.92,61.57,61.4L61.4,61.4C60.52,53.69,54.05,47.67,46.1,47.67C38.17,47.67,31.67,53.69,30.79,61.4ZM6.76,53.01L6.26,53.01C10.17,34.56,26.58,20.69,46.18,20.69C65.78,20.69,82.16,34.56,86.09,53.01L85.6,53.01C81,35.53,65.09,22.59,46.18,22.59C27.27,22.59,11.38,35.53,6.76,53.01ZM11.88,4.61L80.12,4.61C74.04,8.6,61.07,11.38,45.99,11.38L46.01,11.38C30.93,11.38,17.96,8.6,11.88,4.61ZM57.58,69.08C55.84,69.08,54.35,70.13,53.64,71.61C53.64,71.61,53.64,71.59,53.64,71.56C53.64,69.14,55.59,67.18,58.02,67.18C60.44,67.18,62.39,69.14,62.39,71.56C62.39,72.05,62.2,72.63,61.92,73.27L61.9,73.27C61.79,70.95,59.92,69.08,57.58,69.08ZM33.13,69.08C31.4,69.08,29.91,70.13,29.19,71.61C29.19,71.61,29.19,71.59,29.19,71.56C29.19,69.14,31.15,67.18,33.57,67.18C35.99,67.18,37.95,69.14,37.95,71.56C37.95,72.05,37.76,72.63,37.48,73.27L37.45,73.27C37.34,70.95,35.47,69.08,33.13,69.08ZM69.8,64.29C68.06,64.29,66.58,65.34,65.86,66.82C65.86,66.82,65.86,66.8,65.86,66.77C65.86,64.35,67.82,62.39,70.24,62.39C72.66,62.39,74.61,64.35,74.61,66.77C74.61,67.27,74.42,67.84,74.15,68.48L74.12,68.48C74.01,66.16,72.14,64.29,69.8,64.29ZM20.91,64.29C19.17,64.29,17.69,65.34,16.97,66.82C16.97,66.82,16.97,66.8,16.97,66.77C16.97,64.35,18.93,62.39,21.35,62.39C23.77,62.39,25.73,64.35,25.73,66.77C25.73,67.27,25.53,67.84,25.26,68.48L25.23,68.48C25.12,66.16,23.25,64.29,20.91,64.29ZM81.99,59.5C80.26,59.5,78.77,60.55,78.06,62.03C78.06,62.03,78.06,62.01,78.06,61.98C78.06,59.56,80.01,57.6,82.43,57.6C84.86,57.6,86.81,59.56,86.81,61.98C86.81,62.48,86.62,63.05,86.34,63.69L86.31,63.69C86.2,61.37,84.33,59.5,81.99,59.5ZM8.71,59.5C6.98,59.5,5.49,60.55,4.78,62.03C4.78,62.03,4.78,62.01,4.78,61.98C4.78,59.56,6.73,57.6,9.15,57.6C11.58,57.6,13.53,59.56,13.53,61.98C13.53,62.48,13.34,63.05,13.06,63.69L13.04,63.69C12.93,61.37,11.05,59.5,8.71,59.5Z"/></svg>