<svg xmlns="http://www.w3.org/2000/svg" viewBox="0 0 90 90"><path d="M37.56,7.16L40.37,1C53.04,4.08,48.81,19.48,57.95,24.05L33.36,24.05C34.74,19.49,48.57,17.55,37.56,7.16Z" fill="currentColor"/><path d="M51.09,13.77C52.51,17.98,53.95,22.05,57.95,24.05L33.36,24.05C34.4,20.62,42.46,18.67,41.73,13.51C43.08,13.18,44.49,13.01,45.94,13.01C47.73,13.01,49.46,13.28,51.09,13.77Z" fill="currentColor"/><path d="M73.28,21.2C83.94,23.66,91,28.51,91,41.82C91,64.4,86.39,82.65,71.09,81.19C65.8,90.23,55.52,93.25,46.43,86.52L46,86.19L45.57,86.52C36.48,93.25,26.2,90.23,20.91,81.19C5.61,82.65,1,64.4,1,41.82C1,28.51,8.06,23.66,18.72,21.2C22.21,11.84,41.17,11.13,46,19.51C50.83,11.13,69.79,11.84,73.28,21.2Z" fill="currentColor"/><path d="M21.22,22.69C21.5,24.19,22.34,25.52,23.56,26.42L27.73,29.47C31.25,32.04,33.34,36.15,33.34,40.51L33.34,43.42C33.34,46.52,31.68,49.39,28.99,50.94C23.21,54.26,16,50.09,16,43.42L16,39L20.94,21.19Z" fill="currentColor" opacity="0.5"/><path d="M71.05,22.69C70.78,24.19,69.94,25.52,68.71,26.42L64.57,29.45C61.03,32.04,58.94,36.16,58.94,40.54L58.94,43.54C58.94,46.57,60.55,49.38,63.17,50.91C68.86,54.23,76,50.13,76,43.54L76,40.34C76,39.45,75.89,38.57,75.66,37.71L71.33,21.19Z" fill="currentColor" opacity="0.5"/><path d="M52.66,89.62C50.57,89.04,48.47,88.03,46.43,86.52L46,86.19C43.87,87.85,41.67,88.96,39.47,89.58C42.53,88.31,45.07,85.69,46,81.77C46.95,85.75,49.55,88.37,52.66,89.62Z" fill="currentColor"/><path d="M71.07,81.21C69.01,84.73,66.19,87.33,62.98,88.8C65.12,87.5,66.87,85.42,67.78,82.54L69.82,76.03L74.41,63L72.33,76.03Z" fill="currentColor"/><path d="M24.15,82.56C25.01,85.28,26.63,87.29,28.62,88.61C25.58,87.11,22.91,84.58,20.93,81.22L19.67,76.03L17.85,63L22.09,76.03Z" fill="currentColor"/><path d="M20.97,21.11L16,39L16.89,30.38C17.21,27.27,17.82,24.19,18.71,21.2L18.72,21.2C19.66,18.67,21.73,16.78,24.35,15.52C22.77,17,21.58,18.92,20.97,21.11Z" fill="currentColor"/><path d="M73.28,21.2L73.29,21.2C74.18,24.18,74.79,27.25,75.12,30.35L76,38.84L70.8,20.52C70.29,18.72,69.39,17.12,68.2,15.8C70.56,17.05,72.41,18.85,73.28,21.2Z" fill="currentColor"/><path d="M46,19.51C46.98,17.8,48.55,16.48,50.45,15.52C48.96,17.09,47.89,19.06,47.41,21.29L46,27.84L44.49,21.54C43.86,18.91,42.41,16.66,40.44,15.02C42.84,15.99,44.83,17.48,46,19.51Z" fill="currentColor"/><path d="M1,42.64C1,25.57,5.18,24.5,14.92,22.24C2.79,28.01,4,34.93,4,43.01C4,56.93,5.22,78.13,19.6,81.27C5.34,81.57,1,64.1,1,42.64Z" fill="currentColor"/><path d="M91,42.64C91,25.57,86.82,24.49,77.09,22.22C89.22,28,88,34.93,88,43.01C88,56.93,86.78,78.13,72.4,81.27C86.66,81.57,91,64.1,91,42.64Z" fill="currentColor"/><path d="M27.12,53.44C22.42,53.44,18.53,50.32,18.53,45.92C18.53,40.19,22.37,35.52,27.12,35.52C31.87,35.52,35.67,40.19,35.67,45.92C35.67,50.32,31.83,53.44,27.12,53.44Z" fill="currentColor"/><path d="M65.77,53.44C61.07,53.44,57.18,50.32,57.18,45.92C57.18,40.19,61.02,35.52,65.77,35.52C70.52,35.52,74.32,40.19,74.32,45.92C74.32,50.32,70.48,53.44,65.77,53.44Z" fill="currentColor"/><path d="M27.12,51.24C23.15,51.24,19.87,46.58,19.87,42.2C19.87,37.82,23.11,34.26,27.12,34.26C31.13,34.26,34.33,37.82,34.33,42.2C34.33,46.58,31.09,51.24,27.12,51.24Z" fill="currentColor"/><path d="M65.97,51.24C62,51.24,58.75,46.58,58.75,42.2C58.75,37.82,62,34.26,65.97,34.26C69.94,34.26,73.18,37.82,73.18,42.2C73.18,46.58,69.94,51.24,65.97,51.24Z" fill="currentColor"/><path d="M46,45.81L51.04,55.47L40.96,55.47Z" fill="currentColor"/><path d="M51.04,55.47L48.43,56.71C46.9,57.45,45.11,57.45,43.57,56.71L40.96,55.47Z" fill="currentColor"/><path d="M65.47,61.04L70.69,62.12L66.47,73.54L62.44,72.55L56.24,80.22L52.62,76.23L46,82.67L39.38,76.23L35.76,80.22L29.56,72.55L25.53,73.54L21.31,62.12L26.53,61.04L31.27,64.2L35.76,60.57L41.38,64.43L46,60.7L50.62,64.43L56.24,60.57L60.73,64.2Z" fill="currentColor"/><path d="M63.26,62.08L65.47,60.94L70.69,61.77L66.47,70.61L64.97,70.32C63.38,70.02,61.75,70.5,60.58,71.62L56.24,75.77L55.67,75.29C53.89,73.77,51.29,73.69,49.42,75.1L46,77.67L42.58,75.1C40.71,73.69,38.11,73.77,36.33,75.29L35.76,75.77L31.42,71.62C30.25,70.5,28.62,70.02,27.03,70.32L25.53,70.61L21.31,61.77L26.53,60.94L28.74,62.08C30.31,62.88,32.18,62.81,33.68,61.87L35.76,60.57L37.5,61.8C39.67,63.35,42.68,62.91,44.32,60.81L46,58.67L47.68,60.81C49.32,62.91,52.33,63.35,54.5,61.8L56.24,60.57L58.32,61.87C59.81,62.81,61.69,62.88,63.26,62.08Z" fill="currentColor"/></svg>