<svg xmlns="http://www.w3.org/2000/svg" viewBox="0 0 90 90" fill="currentColor"><path d="M11,5.07L81,5.07L81,54.15L46,82.07L11,54.15ZM11,53.62L11,39.07L46.29,68.43L81,39.58L81,54.1L46.29,83.07ZM56,42.07L36,42.07C34.9,42.07,34,41.17,34,40.07L34,5.07L58,5.07L58,40.07C58,41.17,57.1,42.07,56,42.07ZM56,42.07L36,42.07C34.9,42.07,34,41.17,34,40.07L34,9.07L58,9.07L58,40.07C58,41.17,57.1,42.07,56,42.07ZM80.04,44.71L46,72.64L11.96,44.71C9.78,42.92,6.55,43.29,4.83,45.54L3.96,46.66C2.31,48.81,2.67,51.88,4.78,53.59L42.85,84.51C44.68,86,47.32,86,49.15,84.51L87.22,53.58C89.33,51.87,89.69,48.8,88.03,46.65L87.18,45.53C85.45,43.29,82.22,42.92,80.04,44.71ZM87.32,52.42L49.1,82.62C47.28,84.06,44.72,84.06,42.9,82.62L4.68,52.43C3.78,51.71,3.19,50.75,2.93,49.71C2.93,51.16,3.56,52.6,4.78,53.59L42.85,84.51C44.68,86,47.32,86,49.15,84.51L87.22,53.58C88.44,52.59,89.07,51.15,89.07,49.7C88.81,50.74,88.22,51.71,87.32,52.42ZM77.02,12.57C77.02,12.76,77.01,12.95,77,13.14L77,20.07L69,20.07L69,20.06C64.83,19.93,61.5,16.63,61.5,12.57C61.5,8.51,64.83,5.21,69,5.07L69,5.07L77,5.07L77,12C77.01,12.19,77.02,12.38,77.02,12.57ZM13,15.82C13,19.27,15.79,22.07,19.25,22.07C22.52,22.07,25.19,19.57,25.48,16.38C27.93,15.72,29.75,13.48,29.75,10.82C29.75,7.65,27.17,5.07,24,5.07L12,5.07L12,13.07L13.64,13.07C13.23,13.9,13,14.83,13,15.82ZM8.5,5.07C8.67,5.07,8.83,5.07,9,5.09L9,5.07L21,5.07C24.17,5.07,26.75,7.65,26.75,10.82C26.75,13.99,24.17,16.57,21,16.57C18.81,16.57,16.91,15.34,15.94,13.54C15.46,17.23,12.31,20.07,8.5,20.07C4.36,20.07,1,16.71,1,12.57C1,8.43,4.36,5.07,8.5,5.07ZM8.5,5.07C8.67,5.07,8.83,5.07,9,5.08L9,5.07L21,5.07C24.17,5.07,26.75,7.34,26.75,10.14C26.75,12.94,24.17,15.22,21,15.22C18.81,15.22,16.91,14.14,15.94,12.55C15.46,15.8,12.31,18.3,8.5,18.3C4.36,18.3,1,15.34,1,11.69C1,8.03,4.36,5.07,8.5,5.07ZM90,12.07C90,15.94,86.87,19.07,83,19.07C79.83,19.07,77.15,16.96,76.29,14.07L74,14.07L74,5.07L83,5.07C86.87,5.07,90,8.2,90,12.07ZM90,11.29C90,14.73,86.87,17.51,83,17.51C79.83,17.51,77.15,15.64,76.29,13.07L74,13.07L74,5.07L83,5.07C86.87,5.07,90,7.85,90,11.29ZM74,5.07C69.02,5.07,65,9.09,65,14.07C65,19.05,69.02,23.07,74,23.07C78.98,23.07,83,19.05,83,14.07C83,9.11,78.98,5.07,74,5.07ZM74,5.07C69.02,5.07,65,8.65,65,13.07C65,17.49,69.02,21.07,74,21.07C78.98,21.07,83,17.49,83,13.07C83,8.66,78.98,5.07,74,5.07ZM16.25,9.57C19.71,9.57,22.5,12.36,22.5,15.82C22.5,19.27,19.71,22.07,16.25,22.07C12.79,22.07,10,19.27,10,15.82C10,12.37,12.79,9.57,16.25,9.57ZM16.25,9.04C19.71,9.04,22.5,11.5,22.5,14.55C22.5,17.6,19.71,20.07,16.25,20.07C12.79,20.07,10,17.6,10,14.55C10,11.51,12.79,9.04,16.25,9.04Z"/></svg>