<svg xmlns="http://www.w3.org/2000/svg" viewBox="0 0 90 90"><path d="M10,85L80,85L80,35.92L45,8L10,35.92Z" fill="currentColor"/><path d="M10,36.45L10,51L45.29,21.64L80,50.49L80,35.97L45.29,7Z" fill="currentColor"/><path d="M55,48L35,48C33.9,48,33,48.9,33,50L33,85L57,85L57,50C57,48.9,56.1,48,55,48Z" fill="currentColor"/><path d="M55,48L35,48C33.9,48,33,48.9,33,50L33,81L57,81L57,50C57,48.9,56.1,48,55,48Z" fill="currentColor"/><path d="M79.04,45.36L45,17.43L10.96,45.35C8.78,47.15,5.55,46.77,3.83,44.53L2.96,43.41C1.31,41.26,1.67,38.19,3.78,36.48L41.85,5.56C43.68,4.07,46.32,4.07,48.15,5.56L86.22,36.49C88.33,38.2,88.69,41.27,87.03,43.42L86.18,44.54C84.45,46.78,81.22,47.15,79.04,45.36Z" fill="currentColor"/><path d="M86.32,37.65L48.1,7.45C46.28,6.01,43.72,6.01,41.9,7.45L3.68,37.64C2.78,38.35,2.19,39.32,1.93,40.36C1.93,38.91,2.56,37.47,3.78,36.48L41.85,5.56C43.68,4.07,46.32,4.07,48.15,5.56L86.22,36.49C87.44,37.48,88.07,38.91,88.07,40.37C87.81,39.33,87.22,38.36,86.32,37.65Z" fill="currentColor"/><path d="M76.02,77.5C76.02,77.31,76.01,77.12,76,76.93L76,70L68,70L68,70C63.83,70.14,60.5,73.44,60.5,77.5C60.5,81.56,63.83,84.86,68,85L68,85L76,85L76,78.07C76.01,77.88,76.02,77.69,76.02,77.5Z" fill="currentColor"/><path d="M12,74.25C12,70.79,14.79,68,18.25,68C21.52,68,24.19,70.5,24.48,73.69C26.93,74.34,28.75,76.59,28.75,79.25C28.75,82.42,26.17,85,23,85L11,85L11,77L12.64,77C12.23,76.17,12,75.24,12,74.25Z" fill="currentColor"/><path d="M7.5,85C7.67,85,7.83,84.99,8,84.98L8,85L20,85C23.17,85,25.75,82.42,25.75,79.25C25.75,76.08,23.17,73.5,20,73.5C17.81,73.5,15.91,74.72,14.94,76.52C14.46,72.84,11.31,70,7.5,70C3.36,70,0,73.36,0,77.5C0,81.64,3.36,85,7.5,85Z" fill="currentColor"/><path d="M7.5,85C7.67,85,7.83,85,8,84.99L8,85L20,85C23.17,85,25.75,82.73,25.75,79.93C25.75,77.13,23.17,74.85,20,74.85C17.81,74.85,15.91,75.93,14.94,77.52C14.46,74.27,11.31,71.76,7.5,71.76C3.36,71.76,0,74.73,0,78.38C0,82.04,3.36,85,7.5,85Z" fill="currentColor"/><path d="M89,78C89,74.13,85.87,71,82,71C78.83,71,76.15,73.11,75.29,76L73,76L73,85L82,85C85.87,85,89,81.87,89,78Z" fill="currentColor"/><path d="M89,78.78C89,75.34,85.87,72.56,82,72.56C78.83,72.56,76.15,74.43,75.29,77L73,77L73,85L82,85C85.87,85,89,82.22,89,78.78Z" fill="currentColor"/><path d="M73,85C68.02,85,64,80.98,64,76C64,71.02,68.02,67,73,67C77.98,67,82,71.02,82,76C82,80.96,77.98,85,73,85Z" fill="currentColor"/><path d="M73,85C68.02,85,64,81.42,64,77C64,72.58,68.02,69,73,69C77.98,69,82,72.58,82,77C82,81.41,77.98,85,73,85Z" fill="currentColor"/><path d="M15.25,80.5C18.71,80.5,21.5,77.71,21.5,74.25C21.5,70.79,18.71,68,15.25,68C11.79,68,9,70.79,9,74.25C9,77.7,11.79,80.5,15.25,80.5Z" fill="currentColor"/><path d="M15.25,81.03C18.71,81.03,21.5,78.56,21.5,75.51C21.5,72.47,18.71,70,15.25,70C11.79,70,9,72.47,9,75.51C9,78.56,11.79,81.03,15.25,81.03Z" fill="currentColor"/></svg>