<svg xmlns="http://www.w3.org/2000/svg" viewBox="0 0 90 90"><path d="M16.88,0L16.88,90L74.69,90L74.69,0Z" fill="white"/><path d="M72.7,37.11C71.63,22.02,60.13,16.56,46.09,16.56C33.95,16.56,23.68,20.67,20.45,31.53L21.52,32.28L20.23,32.28C20.14,32.64,20.05,33,19.96,33.36L21.16,33.84L19.75,34.41C19.48,35.97,19.36,37.65,19.36,39.45C19.36,43.95,20.2,49.5,21.73,57.9L70.39,57.9C71.92,49.5,72.77,43.95,72.77,39.45C72.77,39.06,72.77,38.7,72.77,38.31L71.66,38.13L71.66,38.16Z" fill="url(#paint0_linear_119_7785)"/><path d="M72.41,67.05C74.06,62.85,75.17,59.43,74.44,54.03C74.08,51.21,73.31,49.14,72.17,48.69C71.39,48.39,67.48,50.07,65.72,57.72C65.72,57.72,63.1,61.11,66.31,69.48L66.31,69.45C68,73.86,70.55,71.7,72.41,67.05Z" fill="url(#paint1_linear_119_7785)"/><path d="M73.91,56.46C73.91,54.18,73.67,52.62,73.25,51.96C72.02,54.72,71,58.02,70.75,60.84C72.28,57.12,73.48,59.7,72.05,65.82L72.02,65.82C73,62.73,73.88,60.78,73.91,56.46Z" fill="url(#paint2_radial_119_7785)"/><path d="M19.13,67.05C17.47,62.85,16.36,59.43,17.08,54.03C17.44,51.21,18.22,49.14,19.36,48.69C20.14,48.39,24.05,50.07,25.82,57.72C25.82,57.72,28.43,61.11,25.21,69.48L25.21,69.45C23.54,73.86,20.98,71.7,19.13,67.05Z" fill="url(#paint3_linear_119_7785)"/><path d="M17.65,56.46C17.65,54.18,17.89,52.62,18.31,51.96C19.55,54.72,20.57,58.02,20.8,60.84C19.27,57.12,18.07,59.7,19.52,65.82L19.55,65.82C18.55,62.73,17.68,60.78,17.65,56.46Z" fill="url(#paint4_radial_119_7785)"/><path d="M58.7,26.16C55.63,25.74,52.52,25.32,49.63,25.47C47.05,25.62,44.51,25.62,41.92,25.47C39.05,25.32,35.92,25.74,32.87,26.16C28.07,26.85,24.07,36.27,23.2,40.65C23.14,40.95,21.25,55.74,21.32,56.55C21.5,61.47,23.84,73.8,25,77.16C26.02,80.19,28.34,82.68,31.36,84.06C35.63,85.98,41.77,88.41,45.83,88.41C49.88,88.41,56.02,85.92,60.1,84C62.92,82.68,65.08,80.37,66.17,77.58C67.48,74.13,70.09,61.47,70.28,56.55C70.33,55.74,69.47,37.53,69.41,37.23L69.38,37.23C68.47,32.85,63.49,26.85,58.7,26.16Z" fill="#FCCEAB"/><path d="M64.48,52.47C64.25,51.3,63.85,50.16,63.44,49.02C63.44,48.96,63.41,48.93,63.41,48.87C62.45,47.88,61.52,46.83,60.38,45.99C60.16,45.84,59.92,45.72,59.69,45.63C59.66,45.63,59.59,45.63,59.56,45.6C59.51,45.6,59.41,45.6,59.35,45.6C58.88,45.6,58.45,45.51,58.03,45.33C57.95,45.33,57.83,45.33,57.73,45.33C57.1,45.39,56.45,45.48,55.81,45.54C55.34,45.6,54.85,45.63,54.34,45.69C52.76,45.93,52.03,46.38,50.56,46.92C50.56,46.92,50.51,46.92,50.48,46.95C49.34,49.98,48.23,52.41,48.23,52.41C48.23,52.41,48.77,53.88,49.22,54.39C52.6,58.23,60.91,55.98,63.44,54.87C63.8,54.72,64.16,54.51,64.52,54.3C64.52,54.24,64.52,54.21,64.52,54.15L64.52,54.21C64.52,53.64,64.52,53.04,64.48,52.47Z" fill="url(#paint5_linear_119_7785)"/><path d="M26.83,52.47C27.07,51.3,27.46,50.16,27.88,49.02C27.88,48.96,27.91,48.93,27.91,48.87C28.87,47.88,29.8,46.83,30.94,45.99C31.15,45.84,31.39,45.72,31.63,45.63C31.66,45.63,31.72,45.63,31.75,45.6C31.81,45.6,31.9,45.6,31.96,45.6C32.44,45.6,32.86,45.51,33.28,45.33C33.37,45.33,33.49,45.33,33.58,45.33C34.21,45.39,34.87,45.48,35.5,45.54C35.98,45.6,36.46,45.63,36.97,45.69C38.56,45.93,39.28,46.38,40.75,46.92C40.75,46.92,40.81,46.92,40.84,46.95C41.98,49.98,43.09,52.41,43.09,52.41C43.09,52.41,42.55,53.88,42.1,54.39C38.71,58.23,30.4,55.98,27.88,54.87C27.52,54.72,27.16,54.51,26.8,54.3C26.8,54.24,26.8,54.21,26.8,54.15L26.8,54.21C26.8,53.64,26.8,53.04,26.83,52.47Z" fill="url(#paint6_linear_119_7785)"/><path d="M53.71,49.92C55.6,49.41,61,49.02,62.68,53.07L59.41,52.83C59.41,52.83,55.66,53.61,50.92,52.71L50.95,52.68C50.95,52.68,51.58,50.49,53.71,49.92Z" fill="url(#paint7_linear_119_7785)"/><path d="M53.69,50.97C55.78,50.01,59.77,50.01,61.45,52.95C59.27,52.95,56.45,53.85,51.49,52.95L51.49,52.92C51.73,52.62,52.42,51.72,53.69,50.97Z" fill="white"/><path d="M53.47,50.97C55.72,50.01,59.77,49.98,61.72,52.92C58.48,52.92,56.23,53.85,51.22,52.92C51.22,52.92,52.21,51.69,53.47,50.97Z" fill="white"/><path d="M56.56,53.55C55.33,53.55,54.34,52.68,54.34,51.6C54.34,50.52,55.33,49.65,56.56,49.65C57.79,49.65,58.78,50.52,58.78,51.6C58.78,52.68,57.79,53.55,56.56,53.55Z" fill="#41869F"/><path d="M59.59,51.45C59.59,51.07,59.22,50.76,58.75,50.76C58.29,50.76,57.91,51.07,57.91,51.45C57.91,51.83,58.29,52.14,58.75,52.14C59.22,52.14,59.59,51.83,59.59,51.45Z" fill="white"/><path d="M35.56,44.97C37.45,45.12,39.7,45.15,40.66,46.05C40.96,46.32,41.11,46.68,41.11,47.04L41.11,47.19C41.11,47.76,41.35,48.3,40.69,48.18C34.18,46.98,29.53,48.12,29.53,48.12C29.53,48.12,27.16,48.57,26.02,49.53C25.99,49.53,26.02,49.74,26.02,49.74C27.01,47.73,28.42,45.09,31.15,44.97L31.12,44.97Z" fill="url(#paint8_linear_119_7785)"/><path d="M55.6,44.97C53.72,45.12,51.47,45.15,50.51,46.05C50.2,46.32,50.05,46.68,50.05,47.04L50.05,47.19C50.05,47.76,49.81,48.3,50.48,48.18C56.98,46.98,61.63,48.12,61.63,48.12C61.63,48.12,64,48.57,65.14,49.53C65.17,49.53,65.14,49.74,65.14,49.74C64.16,47.73,62.74,45.09,60.02,44.97L60.05,44.97Z" fill="url(#paint9_linear_119_7785)"/><path d="M37.75,49.92C35.89,49.41,30.37,49.02,28.72,53.07L32.14,52.83C32.14,52.83,35.83,53.61,40.45,52.71L40.45,52.68C40.45,52.68,39.85,50.49,37.75,49.92Z" fill="url(#paint10_linear_119_7785)"/><path d="M37.84,50.97C35.74,50.01,31.75,50.01,30.07,52.95C32.26,52.95,35.08,53.85,40.03,52.95L40.03,52.92C39.79,52.62,39.1,51.72,37.84,50.97Z" fill="white"/><path d="M38.05,50.97C35.8,50.01,31.75,49.98,29.8,52.92C33.04,52.92,35.29,53.85,40.3,52.92C40.3,52.92,39.31,51.69,38.05,50.97Z" fill="white"/><path d="M37.3,51.6C37.3,50.52,36.31,49.65,35.09,49.65C33.86,49.65,32.87,50.52,32.87,51.6C32.87,52.68,33.86,53.55,35.09,53.55C36.31,53.55,37.3,52.68,37.3,51.6Z" fill="#41869F"/><path d="M38.02,51.45C38.02,51.07,37.65,50.76,37.19,50.76C36.72,50.76,36.34,51.07,36.34,51.45C36.34,51.83,36.72,52.14,37.19,52.14C37.65,52.14,38.02,51.83,38.02,51.45Z" fill="white"/><path d="M39.85,74.55C39.85,76.83,42.52,78.66,45.8,78.66C49.06,78.66,51.7,76.77,51.67,74.49C51.67,73.92,51.49,73.35,51.2,72.87L40.37,72.87C40.03,73.38,39.85,73.95,39.85,74.55Z" fill="url(#paint11_linear_119_7785)"/><path d="M39.85,73.29C39.85,75.57,42.52,77.4,45.8,77.4C49.06,77.4,51.7,75.51,51.67,73.23C51.67,73.11,51.65,72.99,51.62,72.87L39.91,72.87C39.91,72.87,39.85,73.14,39.85,73.29Z" fill="url(#paint12_linear_119_7785)"/><path d="M43.36,67.86L43.36,64.47L35.62,65.28C34.57,65.7,30.76,69.6,30.73,70.83L30.31,82.29L35.71,86.04L33.67,71.61L43.54,68.82L43.57,68.85C43.42,68.55,43.36,68.22,43.36,67.86Z" fill="url(#paint13_linear_119_7785)"/><path d="M60.85,70.86C60.83,69.63,56.98,65.73,55.97,65.31L48.23,64.5L48.23,67.89C48.23,68.25,48.13,68.58,48.02,68.88L57.88,71.67L55.84,86.1L61.24,82.35L61.27,82.32Z" fill="url(#paint14_linear_119_7785)"/><path d="M48.2,61.98L48.2,67.86C48.2,69.21,47.12,70.29,45.77,70.29C44.41,70.29,43.34,69.21,43.34,67.86L43.34,61.98Z" fill="url(#paint15_linear_119_7785)"/><path d="M24.46,4.26C24.46,4.26,21.97,11.25,25.51,14.94C25.51,14.94,22.75,4.2,30.79,1.92L30.22,4.29C30.22,4.29,34.6,-1.05,42.31,0.45C42.31,0.45,38.5,2.82,37.48,7.62C37.48,7.62,44.32,3.96,51.31,5.1L52.45,10.92C52.45,10.92,52.42,1.98,52.84,2.22C53.26,2.46,58.36,10.83,58.36,10.83L58.36,7.89C58.36,7.89,62.56,11.04,64.78,20.46L61.84,8.76C61.84,8.76,69.82,14.25,70.51,26.13C70.75,30.27,64.03,35.7,62.11,35.34C62.11,35.34,63.04,31.44,62.2,29.67C62.2,29.67,58.75,30.12,57.67,34.08C56.59,38.04,54.76,42.51,50.86,45.03C50.86,45.03,54.22,39.03,51.58,33.33C49.93,29.73,48.16,28.32,48.16,28.32L45.61,29.49C45.61,29.49,46.09,37.41,43.06,38.19C43.06,38.19,44.65,27.18,36.19,28.68C32.95,29.25,22.69,34.14,20.5,28.05L20.5,27.99C18.31,21.9,17.35,12.18,24.46,4.26Z" fill="url(#paint16_linear_119_7785)"/><path d="M58.58,19.68L61.3,20.88C61.3,20.88,56.77,11.22,56.66,10.83C56.53,10.44,62.2,17.46,62.2,17.46L60.08,11.19C59.23,10.2,58.63,9.69,58.63,9.69L59.3,12.09L54.34,6.72C54.34,11.04,58.99,18.36,58.99,18.36C54.16,14.13,50.84,17.64,50.84,17.64C56.41,16.38,57.59,19.5,57.59,19.5C52.58,18.66,52.09,22.44,52.09,22.44C53.63,20.67,56.92,20.82,58.97,22.53C59.17,22.74,61.19,24.84,62.3,26.79C64.81,31.35,62.38,35.34,62.38,35.34C62.38,35.34,63.95,34.41,64.72,31.74C65.27,29.88,64.22,25.02,60.91,21.69L60.91,21.72C59.35,20.16,58.58,19.68,58.58,19.68Z" fill="#FBC190"/><path d="M31.13,1.8L30.46,4.29C30.46,4.29,35.38,-1.23,42.98,0.27C42.98,0.27,38.87,2.34,37.91,7.83C37.91,7.83,44.69,3.69,51.23,5.16C51.23,5.16,46.52,6.96,40.81,11.88L46.03,7.14L36.44,13.2L39.91,9.63L36.2,11.79C36.2,11.79,36.91,10.05,36.55,10.35C36.2,10.65,33.77,10.74,33.77,10.74C33.77,10.74,35.56,8.82,35.27,9.09C34.97,9.36,33.23,9.6,33.23,9.6L39.1,2.04C39.1,2.04,33.88,3.51,30.25,9.99L30.46,6.6L28.52,8.88L28.52,5.46C28.52,5.46,25.84,7.47,25.34,14.07L25.3,14.07C25.3,14.07,23.02,4.29,31.13,1.8Z" fill="#FBC190"/><path d="M34.06,12.42C34.06,12.42,32.92,13.8,31.87,16.11L35.2,13.92L33.25,18.09L44.11,12.81L41.92,15.9L48.28,10.29L45.67,16.98L50.53,13.83L48.73,17.43L52.84,14.22C52.84,14.22,51.61,18.09,46.96,18.78C42.31,19.47,40.81,19.86,40.81,19.86L43.63,16.98L38.95,19.35L40.36,16.98L37.96,18.57L39.1,16.47C39.1,16.47,34.9,19.5,32.11,20.4C29.32,21.3,31.96,17.43,31.96,17.43C31.96,17.43,28.18,18.42,26.17,21.12L26.23,21.09C26.23,21.09,28.78,13.23,34.06,12.42Z" fill="#FBC190"/><path d="M69.1,56.88C68.53,60.36,67.75,64.17,66.4,68.25C65.32,71.58,63.1,74.31,60.25,75.9C58.81,76.68,57.16,79.5,55.42,80.31C52.63,84.51,48.46,84.75,45.73,84.75C43,84.75,39.25,84.09,36.1,80.43C34.3,79.65,32.53,76.8,31.03,76.02C27.94,74.4,25.6,71.43,24.55,67.83C23.38,63.81,21.91,53.49,22.45,56.91C22.51,57.27,22.03,54.3,21.82,52.59L21.16,52.59C21.37,58.02,23.41,72.66,24.58,76.68C25.63,80.28,27.97,83.25,31.06,84.87C35.38,87.15,41.65,90.03,45.76,90.03C49.87,90.03,56.11,87.06,60.28,84.78C63.13,83.22,65.35,80.46,66.43,77.13C67.78,73.05,70.21,58.02,70.42,52.59L69.76,52.59L69.73,52.56C69.55,54.03,69.34,55.44,69.1,56.88Z" fill="url(#paint17_linear_119_7785)"/><path d="M45.77,74.46C45.77,74.46,45.83,74.46,45.85,74.46C50.51,74.46,52.37,72.96,54.95,71.34L36.59,71.34C39.13,72.96,41.02,74.46,45.67,74.46C45.67,74.46,45.73,74.46,45.77,74.46Z" fill="url(#paint18_linear_119_7785)"/><path d="M45.8,69.99C45.8,69.99,45.77,69.99,45.73,69.99C41.38,68.79,42.38,69.42,35.84,70.95C36.1,71.07,36.34,71.22,36.59,71.34L54.98,71.34C55.22,71.22,55.48,71.07,55.73,70.95C49.19,69.42,50.17,68.79,45.83,69.99L45.85,69.99C45.85,69.99,45.83,69.99,45.8,69.99Z" fill="url(#paint19_linear_119_7785)"/><path d="M35.84,71.19C35.84,71.19,40.97,71.85,45.8,71.19C50.84,71.85,55.76,71.19,55.76,71.19" fill="none" stroke="#E8674E" stroke-width="0.33" stroke-linecap="round" stroke-linejoin="round" opacity="0.59"/><path d="M59.95,73.5C62.51,69.3,55.94,67.05,54.59,63.48C56.9,66.15,63.85,69.54,59.95,73.5Z" fill="#E8674E"/><path d="M31.57,73.5C27.67,69.51,34.6,66.15,36.94,63.48C35.59,67.05,29.02,69.3,31.57,73.5Z" fill="#E8674E"/><path d="M48.31,54.42C48.31,54.21,48.31,52.53,48.31,52.35C48.31,49.77,47.95,49.68,45.79,49.68L45.73,49.68C43.57,49.68,43.21,49.77,43.21,52.35C43.21,52.56,43.21,54.24,43.21,54.42C43.27,58.05,41.26,59.94,41.23,59.97C38.83,60.75,38.5,64.83,42.46,64.38C43.6,64.86,43.69,65.67,45.55,65.67C45.61,65.67,45.67,65.67,45.73,65.67C45.82,65.67,45.91,65.67,46,65.67C47.83,65.67,47.95,64.86,49.09,64.38C53.05,64.83,52.72,60.78,50.32,59.97L50.29,59.97C50.29,59.97,48.25,58.05,48.31,54.42Z" fill="url(#paint20_linear_119_7785)"/><path d="M43.88,49.5L43.88,59.28L42.98,62.16C42.98,63.51,44.38,64.59,45.73,64.59C47.09,64.59,48.49,63.51,48.49,62.16L47.59,59.28L47.59,49.5C47.59,48.15,47.05,47.07,45.73,47.07C44.38,47.07,43.88,48.15,43.88,49.5Z" fill="#FCCEAB"/><path d="M31.82,35.52L30.52,31.86L34.94,36.81C34.94,36.81,32.17,29.28,30.34,26.16C28.52,23.04,24.38,23.22,24.38,23.22C27.91,31.59,31.82,35.52,31.82,35.52Z" fill="#DAAF73"/><path d="M38.44,28.59C39.97,31.29,40.09,33.33,40.12,34.23C40.12,34.23,36.07,28.23,34.39,26.4C33.31,25.17,32.68,23.31,35.2,24.06C41.68,26.01,42.13,31.05,42.13,31.05L42.16,31.05C39.4,28.2,38.44,28.59,38.44,28.59Z" fill="#DAAF73"/><path d="M54.1,37.8C54.1,37.8,56.12,33.15,54.2,27.9C54.2,27.9,55.34,27.6,58.34,30.3C58.34,30.3,56.12,23.88,47.92,22.08C45.52,21.54,45.83,23.43,45.83,23.43L45.83,23.46C53.35,30.3,54.47,35.52,54.1,37.8Z" fill="#FBC190"/><path d="M38.71,21.93C37.18,21.36,37,19.5,39.61,20.43C46.27,22.8,46.15,31.98,45.34,35.58C45.34,35.58,46.12,24.66,38.71,21.93Z" fill="#FBC190"/></svg>