<svg xmlns="http://www.w3.org/2000/svg" viewBox="0 0 90 90"><path d="M76.17,25.69C76.26,25.92,76.38,26.19,76.47,26.51C77.76,30.15,79.68,38.38,78.99,42C78.87,42.67,78.66,43.2,78.42,43.7C77.16,46.05,75.48,45.93,70.95,40.14L70.74,25.19C70.74,25.19,74.91,22.63,76.17,25.69Z" fill="currentColor"/><path d="M76.05,26.45C77.22,30.09,78.99,38.32,78.36,41.94C78.24,42.61,78.06,43.14,77.79,43.64C73.08,42.79,73.5,32.47,73.5,32.47L73.5,32.45C73.5,32.45,77.04,32.86,76.05,26.45Z" fill="currentColor"/><path d="M17.09,25.69C17,25.92,16.88,26.19,16.8,26.51C15.51,30.15,13.59,38.38,14.28,42C14.39,42.67,14.61,43.2,14.85,43.7C16.11,46.05,17.79,45.93,22.32,40.14L22.53,25.19C22.53,25.19,18.36,22.63,17.09,25.69Z" fill="currentColor"/><path d="M17.19,26.45C16.02,30.09,14.25,38.32,14.88,41.94C15,42.61,15.18,43.14,15.45,43.64C20.16,42.79,19.74,32.47,19.74,32.47L19.74,32.45C19.74,32.45,16.2,32.86,17.19,26.45Z" fill="currentColor"/><path d="M16.59,57.48C16.59,51.25,17.79,43.41,19.02,41.03L74.04,41.03C74.04,41.03,76.68,45.73,76.68,57.16C76.68,70.18,67.32,87.02,46.38,87.02C25.44,87.02,16.55,68.12,16.59,57.48Z" fill="currentColor"/><path d="M76.14,62.39C76.14,62.39,76.83,58.84,76.61,56.22C75.33,55.63,69.33,55.75,69.33,55.75C68.72,60.45,68.13,62.6,68.13,62.6L68.13,62.63Z" fill="currentColor" opacity="0.1"/><path d="M17.16,62.74C17.16,62.74,16.38,58.48,16.59,55.87C17.88,55.28,23.82,55.78,23.82,55.78C24.42,60.48,25.02,62.63,25.02,62.63L25.05,62.63Z" fill="currentColor" opacity="0.1"/><path d="M71.28,53.1C69.78,59.89,68.16,68.47,66.81,70.09C66.57,70.38,66.33,70.68,66.09,70.94C64.8,72.44,62.49,74.65,60.54,74.7C53.97,74.88,38.85,74.85,32.13,74.7C30.06,74.65,27.84,72.68,26.55,71C26.4,70.83,26.25,70.65,26.13,70.44C24,67.15,22.53,58.42,21.39,52.02C20.55,47.17,20.4,42.26,20.94,37.38C21.27,34.5,21.54,31.36,21.48,29.45C21.45,27.57,21.54,25.72,21.81,23.95C22.38,20.01,24.18,16.34,26.88,13.4C29.61,10.43,34.86,4.82,38.79,2.29C40.17,1.41,42.84,1.09,46.62,1.09C50.4,1.09,53.16,1.41,54.54,2.29C58.47,4.82,63.63,10.43,66.36,13.4C69.06,16.34,70.86,20.01,71.43,23.95C71.7,25.72,71.79,27.57,71.76,29.45C71.73,31.27,71.94,34.18,72.21,36.94L72.24,36.88C72.78,42.29,72.45,47.76,71.28,53.1Z" fill="currentColor"/><path d="M66.42,49.43C66.27,49.55,66.11,49.64,65.97,49.75C65.81,49.87,65.69,49.99,65.58,50.11L53.01,50.11L50.73,47.52L42.38,47.52L40.08,50.11L27.09,50.11C25.91,48.31,24.66,46.61,23.48,44.82C23.36,43.35,23.36,41.88,23.48,40.5C23.66,37.65,26.16,35.47,29.07,35.47L64.1,35.47C67.05,35.47,69.5,37.68,69.69,40.56C69.78,42.14,69.75,43.82,69.59,45.52C68.78,46.14,67.97,46.82,67.25,47.55L67.22,47.55C66.72,48.05,66.5,48.73,66.42,49.43Z" fill="currentColor"/><path d="M51.06,49.28C52.32,50.78,55.23,51.9,57.21,52.34L62.94,53.28C68.61,51.31,69.6,46.05,69.9,45.08C63.06,51.08,55.47,47.84,51.9,47.64L51.9,47.67C51,47.61,50.49,48.61,51.06,49.28Z" fill="currentColor"/><path d="M42.59,49.28C41.34,50.78,38.42,51.9,36.45,52.34L30.71,53.28C25.05,51.31,24.05,46.05,23.75,45.08C30.59,51.08,38.19,47.84,41.76,47.64L41.76,47.67C42.66,47.61,43.16,48.61,42.59,49.28Z" fill="currentColor"/><path d="M46.44,10.32C55.62,10.32,54.72,15.17,54.96,16.72L38.13,16.72C38.13,16.72,37.26,10.32,46.44,10.32Z" fill="currentColor"/><path d="M52.59,33.77L50.58,37.76L50.03,47.9L43.47,47.9L42.92,37.76L40.91,33.77C40.91,33.77,38.88,33.71,38.6,32.65C38.19,30.98,38.03,28.95,41.03,28.86C41.45,28.86,42.05,29.68,43.41,29.12C43.65,29.04,44.27,28.71,44.94,28.39C46.08,27.83,47.42,27.83,48.59,28.39C49.26,28.71,49.88,29.01,50.13,29.12C51.45,29.68,52.02,28.68,52.49,28.86C55.49,28.95,55.34,30.98,54.92,32.65L54.9,32.65C54.63,33.71,52.59,33.77,52.59,33.77Z" fill="currentColor"/><path d="M51.77,49.52L51.41,49.4C50.82,49.17,50.34,48.78,49.98,48.31C49.38,47.52,48.05,47.08,47.03,47.2C46.85,47.2,46.67,47.23,46.49,47.23L46.47,47.23C45.3,47.23,43.65,47.87,42.8,48.7C42.51,48.99,42.15,49.23,41.7,49.4L41.34,49.52C36.66,51.11,33.56,51.75,28.55,51.49L21.18,50.87L21.18,49.02C21.98,49.02,22.29,48.37,22.41,47.79C22.41,47.64,22.41,47.49,22.41,47.34L22.89,42.17L22.89,42C24.09,38.68,27.5,36.38,31.34,36.38L35.3,36.38C38.42,36.38,41.22,38.18,42.3,40.94L43.02,43.76C43.41,45.32,44.81,45.9,46.47,45.93C46.65,45.93,46.8,45.93,47.01,45.9C48.51,45.73,49.7,44.64,50.13,43.23L50.97,40.85C52.02,38.18,54.84,36.41,57.92,36.41L61.95,36.41C65.79,36.41,69.14,38.65,70.31,41.97L70.8,47.37C70.8,47.52,70.8,47.67,70.8,47.81C70.92,48.4,71.22,49.05,72.03,49.05L72.03,50.9C72.03,50.9,64.67,51.55,64.65,51.52L64.62,51.49C59.64,51.75,56.45,51.11,51.77,49.52Z" fill="currentColor"/><path d="M31.29,37.26C28.11,37.26,25.29,39.09,24.3,41.79L23.82,47.43C23.79,48.02,24,48.61,24.41,49.08C24.95,49.64,25.73,49.96,26.61,49.96L28.38,50.08C33.27,50.4,36.27,49.73,40.85,48.2L41.16,48.08C41.99,47.73,42.48,46.93,42.27,46.17L42.17,45.85L42.15,45.82L40.8,40.82C39.95,38.7,37.67,37.26,35.16,37.26L35.24,37.26Z" fill="currentColor"/><path d="M61.91,37.26L57.9,37.26C55.38,37.26,53.09,38.7,52.28,40.73L50.82,46.17C50.63,46.96,51.09,47.76,51.95,48.08L52.26,48.2C56.85,49.75,59.91,50.4,64.8,50.08L66.63,49.96C67.47,49.96,68.25,49.64,68.76,49.08C69.21,48.61,69.42,48.02,69.36,47.43L68.88,41.76L68.91,41.79C67.92,39.09,65.09,37.26,61.91,37.26Z" fill="currentColor"/><path d="M17.19,48.99L17.31,47.7L21.18,49.02L21.18,50.84Z" fill="currentColor"/><path d="M76.08,48.73L75.96,47.46L72,49.02L72,50.84Z" fill="currentColor"/><path d="M62.67,46.49C60.27,48.43,56.64,47.79,55.59,46.55C54.78,45.61,54.18,44.02,54.09,43.85C55.89,45.02,64.17,43.79,64.17,43.79L64.14,43.76C64.14,43.76,64.02,45.38,62.67,46.49Z" fill="currentColor"/><path d="M54.06,43.82C54.06,43.82,54.69,45.35,55.98,46.23C57.12,47.02,59.64,47.02,61.77,46.02C63.9,44.99,64.14,43.76,64.14,43.76C62.1,43.44,57.6,42.5,54.06,43.82Z" fill="currentColor"/><path d="M59.01,42.58C60.36,42.67,61.38,43.79,61.29,45.11C61.2,46.43,60.06,47.43,58.71,47.34C57.36,47.26,56.34,46.14,56.43,44.82C56.52,43.49,57.66,42.5,59.01,42.58Z" fill="currentColor"/><path d="M60.48,44.52C60.78,44.55,61.02,44.82,61.02,45.14C61.02,45.46,60.72,45.73,60.42,45.7C60.12,45.7,59.88,45.41,59.88,45.08C59.88,44.76,60.18,44.49,60.48,44.52Z" fill="currentColor"/><path d="M30.48,46.49C32.88,48.43,36.51,47.79,37.56,46.55C38.37,45.61,38.97,44.02,39.06,43.85C37.26,45.02,28.98,43.79,28.98,43.79L29.01,43.76C29.01,43.76,29.13,45.38,30.48,46.49Z" fill="currentColor"/><path d="M39.09,43.82C39.09,43.82,38.45,45.35,37.16,46.23C36.02,47.02,33.51,47.02,31.38,46.02C29.25,44.99,29,43.76,29,43.76C31.05,43.44,35.55,42.5,39.09,43.82Z" fill="currentColor"/><path d="M34.1,42.58C32.75,42.67,31.73,43.79,31.82,45.11C31.91,46.43,33.05,47.43,34.41,47.34C35.76,47.26,36.77,46.14,36.69,44.82C36.59,43.49,35.45,42.5,34.1,42.58Z" fill="currentColor"/><path d="M35.69,44.52C35.39,44.55,35.15,44.82,35.15,45.14C35.15,45.46,35.45,45.73,35.75,45.7C36.05,45.7,36.29,45.41,36.29,45.08C36.29,44.76,35.99,44.49,35.69,44.52Z" fill="currentColor"/><path d="M46.59,23.1C44.19,24.01,40.49,22.81,37.7,22.19C35.99,21.81,34.38,22.04,34.38,22.04C38.7,16.25,42.9,14.34,46.59,14.34C50.27,14.34,54.48,16.25,58.8,22.04C58.8,22.04,57.15,21.84,55.47,22.19C52.67,22.81,48.98,24.01,46.59,23.1Z" fill="currentColor"/><path d="M56.4,20.95C55.86,20.95,54.99,20.95,54.09,21.16C51.72,21.72,48.6,22.84,46.56,21.98C44.52,22.84,41.4,21.72,39.03,21.16C38.13,20.95,37.23,20.95,36.72,20.95C40.2,18.46,43.59,17.6,46.56,17.6L46.56,17.63C49.53,17.63,52.92,18.49,56.4,20.95Z" fill="currentColor"/><path d="M60.51,22.81L57.53,25.57C57.53,25.57,60.51,25.3,60.51,22.81Z" fill="currentColor" opacity="0.7"/><path d="M63.15,22.51L58.23,27.13C58.23,27.13,63.15,26.66,63.15,22.51Z" fill="currentColor" opacity="0.7"/><path d="M33.75,22.81L36.72,25.57C36.72,25.57,33.75,25.3,33.75,22.81Z" fill="currentColor" opacity="0.7"/><path d="M31.11,22.51L36.03,27.13C36.03,27.13,31.11,26.66,31.11,22.51Z" fill="currentColor" opacity="0.7"/><path d="M39.45,71.06L40.56,73.59L31.77,71.18L36.12,75.2L28.95,71.38L31.68,76.32L29.31,82.67L34.35,85.46L30.12,84.29C30.12,84.29,34.56,88.61,41.46,88.75C48.36,88.93,50.25,89.19,50.25,89.19C50.25,89.19,56.28,88.69,58.32,87.25L56.16,86.69C56.16,86.69,63.06,84.76,65.55,81.82L62.28,82.37L65.55,78.05L61.14,77.97L54.24,76.88L54.24,76.91C54.24,76.91,44.64,71.65,39.45,71.06Z" fill="currentColor"/></svg>