<svg xmlns="http://www.w3.org/2000/svg" viewBox="0 0 90 90"><path d="M0,0.09L0,88.25L90,88.25L90,0.09Z" fill="currentColor"/><path d="M9.38,0.09L9.38,88.25L81.25,88.25L81.25,0.09Z" fill="currentColor"/><path d="M38.38,35.21L20.8,42.14L19.18,58.83L29.38,87.49C29.38,87.49,38.2,79.41,59.53,81.7C62.08,82.29,65.35,83.2,68.59,83.55C66.82,81.43,68.89,76.73,68.89,76.73C69.43,82.4,74.44,83.2,74.44,83.2C73.03,71.03,87.1,53.93,78.46,20.69L78.4,20.69C69.46,-13.64,37.81,36.21,38.38,35.21Z" fill="currentColor"/><path d="M47.36,54.72C39.38,55.37,31.79,58.36,25.64,63.36C24.35,64.42,23.09,65.51,21.83,66.62L31.61,78.73C31.61,78.73,63.35,82.52,65.96,83.05C61.49,71,73.01,61.54,74.24,58.22C67.7,56.37,54.2,54.16,47.36,54.72Z" fill="currentColor"/><path d="M31.55,10.08C25.48,12.34,18.89,16.57,21.02,44.41C21.59,51.99,23.84,61.86,26.96,68C28.76,70.91,38.12,82.87,46.55,82.87C54.98,82.87,64.75,70.71,66.14,68C69.22,61.89,71.5,51.99,72.08,44.41C74.2,16.57,67.61,12.34,61.55,10.08L61.49,10.08C59.3,9.26,33.73,9.26,31.55,10.08Z" fill="currentColor"/><path d="M60.23,14.43C58.01,21.04,68.81,27.04,68.81,27.04C68.81,27.04,71.72,34.47,71.63,49.02C72.61,49.14,77.47,48.25,78.44,29.21C79.06,16.49,75.61,11.46,70.61,7.11C65.69,2.85,61.42,10.84,60.23,14.43Z" fill="currentColor"/><path d="M73.3,58.81C84.28,33.5,70.18,21.1,70.03,20.98L69.22,21.89C69.37,22.01,82.9,33.91,72.07,58.57C72.49,58.57,72.91,58.66,73.3,58.81Z" fill="currentColor"/><path d="M73.09,60.07C70.54,62.95,69.13,59.95,69.13,59.95L70.78,47.81C75.7,40.97,77.53,42.97,77.53,47.14C77.53,49.96,76.66,53.81,75.37,56.54L75.37,56.51C74.62,58.07,73.87,59.22,73.09,60.07Z" fill="currentColor"/><path d="M73.09,60.07C72.49,60.13,71.98,59.8,71.77,58.72C73.9,57.01,76.12,50.11,72.34,51.46C72.82,50.05,75.88,41.32,77.56,47.08C77.56,49.9,76.69,53.75,75.4,56.48L75.37,56.51C74.62,58.07,73.87,59.22,73.09,60.07Z" fill="currentColor"/><path d="M51.23,55.81L67.61,55.07C67.61,55.07,68.24,42.41,67.37,38.2C67.37,38.2,65.93,36.18,60.62,36.18C55.31,36.18,52.49,39.03,52.49,39.03C47.81,47.14,51.23,55.81,51.23,55.81Z" fill="currentColor" opacity="0.7"/><path d="M53.59,36.15C53.59,36.15,68.14,34.27,67.84,39.47C61.94,35.77,52.37,39.38,52.37,39.38C52.45,37.94,53.59,36.15,53.59,36.15Z" fill="currentColor"/><path d="M65.03,43.82C64.49,44.73,63.74,45.35,63.74,45.35L52.85,47.17L52.88,47.17C56.66,39.41,62.57,41.85,65.03,43.82Z" fill="currentColor"/><path d="M58.31,49.4C62,49.67,63.38,47.08,64.16,45.08C62.66,43.73,60.68,42.82,58.43,43.26C57.23,43.49,55.94,44.14,54.62,45.32C54.05,45.82,53.48,46.43,52.88,47.17C52.88,47.17,54.62,49.14,58.31,49.4Z" fill="currentColor"/><path d="M58.31,49.4C62,49.67,63.38,47.08,64.16,45.08C62.66,43.73,60.68,42.82,58.43,43.26C57.23,43.49,55.94,44.14,54.62,45.32C54.05,45.82,53.48,46.43,52.88,47.17C52.88,47.17,54.62,49.14,58.31,49.4Z" fill="currentColor"/><path d="M58.64,48.99C56.93,49.02,55.52,47.67,55.49,45.93C55.49,44.2,56.81,42.79,58.52,42.76C60.23,42.73,61.64,44.08,61.67,45.82C61.67,47.55,60.35,48.96,58.64,48.99Z" fill="currentColor"/><path d="M61.67,46.29C61.16,46.29,60.74,45.87,60.71,45.37C60.68,44.88,61.1,44.43,61.64,44.41C62.15,44.41,62.57,44.82,62.6,45.32C62.6,45.85,62.21,46.26,61.67,46.29Z" fill="currentColor"/><path d="M64.16,45.08C63.62,44.64,61.19,42,61.19,42C61.19,42,65.42,43.35,67.1,42.05L67.07,42.05C67.07,42.05,66.86,44.76,64.16,45.08Z" fill="currentColor"/><path d="M41.8,55.81L25.43,55.07C25.43,55.07,24.8,42.41,25.66,38.2C25.66,38.2,27.11,36.18,32.41,36.18C37.76,36.18,40.55,39.03,40.55,39.03C45.23,47.14,41.8,55.81,41.8,55.81Z" fill="currentColor" opacity="0.7"/><path d="M39.44,36.15C39.44,36.15,24.89,34.27,25.18,39.47C31.09,35.77,40.66,39.38,40.66,39.38C40.58,37.94,39.44,36.15,39.44,36.15Z" fill="currentColor"/><path d="M28,43.82C28.55,44.73,29.3,45.35,29.3,45.35L40.19,47.17L40.16,47.17C36.38,39.41,30.46,41.85,28,43.82Z" fill="currentColor"/><path d="M34.73,49.4C31.04,49.67,29.66,47.08,28.88,45.08C30.38,43.73,32.35,42.82,34.6,43.26C35.8,43.49,37.09,44.14,38.41,45.32C38.98,45.82,39.55,46.43,40.16,47.17C40.16,47.17,38.41,49.14,34.73,49.4Z" fill="currentColor"/><path d="M34.73,49.4C31.04,49.67,29.66,47.08,28.88,45.08C30.38,43.73,32.35,42.82,34.6,43.26C35.8,43.49,37.09,44.14,38.41,45.32C38.98,45.82,39.55,46.43,40.16,47.17C40.16,47.17,38.41,49.14,34.73,49.4Z" fill="currentColor"/><path d="M34.37,48.99C36.08,49.02,37.48,47.67,37.52,45.93C37.52,44.2,36.2,42.79,34.48,42.76C32.77,42.73,31.36,44.08,31.34,45.82C31.34,47.55,32.66,48.96,34.37,48.99Z" fill="currentColor"/><path d="M36.83,46.29C37.34,46.29,37.76,45.87,37.78,45.37C37.81,44.88,37.4,44.43,36.85,44.41C36.34,44.41,35.92,44.82,35.9,45.32C35.9,45.85,36.28,46.26,36.83,46.29Z" fill="currentColor"/><path d="M28.88,45.08C29.42,44.64,31.85,42,31.85,42C31.85,42,27.62,43.35,25.94,42.05L25.97,42.05C25.97,42.05,26.18,44.76,28.88,45.08Z" fill="currentColor"/><path d="M38.38,64.95C40.18,67.45,43.39,69.12,47.08,69.12C50.77,69.12,53.98,67.45,55.78,64.95C52.75,67.65,49.54,65.27,47.08,66.62C44.71,65.3,41.14,67.65,38.38,64.95Z" fill="currentColor"/><path d="M38.38,64.95C40.18,68.65,43.39,71.15,47.08,71.15C50.77,71.15,53.98,68.68,55.78,64.95C53.32,67.15,50.32,68.47,47.08,68.47C43.84,68.47,40.84,67.15,38.38,64.95Z" fill="currentColor"/><path d="M42.26,58.39C42.26,58.39,44.41,61.66,47.09,61.83C49.76,61.66,51.91,58.39,51.91,58.39C51.91,58.39,49.13,60.45,47.09,60.42C45.05,60.42,42.26,58.39,42.26,58.39Z" fill="currentColor"/><path d="M15.61,65.89C20.53,73.65,19.63,78.44,14.26,82.84C14.26,82.84,17.86,83.87,22.48,80.05C22.48,80.05,19.33,85.31,14.41,87.66C14.41,87.66,29.14,92.45,33.34,74.67C37.51,56.89,25.42,57.45,34.09,35.53C45.91,13.37,62.11,34.62,67.87,7.79C68.2,6.29,67.39,4.79,65.98,4.14C59.11,1.09,39.73,-5.64,22.78,10.26C5.65,26.36,10.69,58.13,15.61,65.89Z" fill="currentColor"/><path d="M72.14,62.95C72.14,62.45,71.72,62.04,71.2,62.04C70.69,62.04,70.28,62.45,70.28,62.95C70.28,63.45,70.69,63.86,71.2,63.86C71.72,63.86,72.14,63.45,72.14,62.95Z" fill="currentColor"/><path d="M15.85,60.63L18.19,62.13C17.95,62.48,11.77,71.82,20.5,82.9L19.03,83.81L19.06,83.78C9.07,71.12,15.58,61.04,15.85,60.63Z" fill="currentColor"/><path d="M11.36,51.55L14.6,53.63L12.35,52.19L14.14,54.19C13.94,54.49,8.56,60.39,15.95,69.71L14.09,71.12L14.05,71.12C5.62,60.42,11.12,51.93,11.36,51.55Z" fill="currentColor"/><path d="M22.97,10.29C20.33,12.78,18.2,15.66,16.52,18.75C19.79,37.7,32.69,34.85,35.03,34.21C37.01,30.83,39.11,28.54,41.27,26.98C25.49,29.15,26.42,7.46,26.42,7.38L26.42,7.35C25.25,8.23,24.11,9.2,22.97,10.29Z" fill="currentColor"/><path d="M30.38,4.47C32.63,24.66,39.73,26.21,42.08,26.16C43.48,25.27,44.92,24.66,46.37,24.22C33.23,25.95,33.98,2.65,33.98,2.65C32.77,3.17,31.57,3.79,30.38,4.47Z" fill="currentColor" opacity="0.2"/><path d="M27.38,65.51C29.77,71.56,31.21,74.76,31.57,80.32L32.48,77.38C31.66,72.53,30.55,70.18,28.52,65.04C24.8,55.72,20.95,46.05,23.63,35.79C28.48,17.07,48.88,18.4,49.76,18.46L49.84,17.25C49.63,17.25,27.52,15.78,22.43,35.5L22.43,35.53C19.66,46.17,23.57,55.98,27.38,65.51Z" fill="currentColor" opacity="0.2"/><path d="M42.83,2.88C42.47,3.03,6.83,17.28,17.72,55.48C21.86,70.06,21.46,80.58,16.55,86.72C16.1,87.28,15.62,87.78,15.11,88.25L16.94,88.1C17.12,87.9,17.3,87.72,17.48,87.49C22.66,81.02,23.14,70.15,18.86,55.16C8.3,18.01,42.91,4.14,43.27,4Z" fill="currentColor" opacity="0.2"/><path d="M73.55,10.05C76.43,19.84,65.6,24.86,65.6,24.86L65.87,25.04L65.75,24.98C66.35,25.42,66.89,25.83,67.37,26.13C77.66,25.39,76.85,16.08,76.79,15.43L76.79,15.46C75.95,13.31,74.87,11.58,73.55,10.05Z" fill="currentColor"/></svg>