<svg xmlns="http://www.w3.org/2000/svg" viewBox="0 0 90 90"><path d="M0,0.09L0,88.25L90,88.25L90,0.09Z" fill="white"/><path d="M13.13,0.09L13.13,88.25L78.14,88.25L78.14,0.09Z" fill="white"/><path d="M75.17,63.6C75.26,63.36,75.38,63.1,75.47,62.77C76.76,59.13,78.68,50.9,77.99,47.28C77.87,46.61,77.66,46.08,77.42,45.58C76.16,43.23,74.48,43.35,69.95,49.14L69.74,64.09C69.74,64.09,73.91,66.65,75.17,63.6Z" fill="url(#paint0_linear_119_7784)"/><path d="M75.05,62.83C76.22,59.19,77.99,50.96,77.36,47.34C77.24,46.67,77.06,46.14,76.79,45.64C72.08,46.49,72.5,56.81,72.5,56.81L72.5,56.84C72.5,56.84,76.04,56.42,75.05,62.83Z" fill="url(#paint1_linear_119_7784)"/><path d="M16.09,63.6C16,63.36,15.88,63.1,15.79,62.77C14.51,59.13,12.59,50.9,13.28,47.28C13.39,46.61,13.61,46.08,13.85,45.58C15.11,43.23,16.79,43.35,21.32,49.14L21.53,64.09C21.53,64.09,17.36,66.65,16.09,63.6Z" fill="url(#paint2_linear_119_7784)"/><path d="M16.19,62.83C15.02,59.19,13.25,50.96,13.88,47.34C14,46.67,14.18,46.14,14.45,45.64C19.16,46.49,18.74,56.81,18.74,56.81L18.74,56.84C18.74,56.84,15.2,56.42,16.19,62.83Z" fill="url(#paint3_linear_119_7784)"/><path d="M15.59,31.8C15.59,38.03,16.79,45.87,18.02,48.25L73.04,48.25C73.04,48.25,75.68,43.55,75.68,32.12C75.68,19.1,66.32,2.26,45.38,2.26C24.44,2.26,15.55,21.16,15.59,31.8Z" fill="url(#paint4_linear_119_7784)"/><path d="M75.14,26.89C75.14,26.89,75.83,30.45,75.61,33.06C74.33,33.65,68.33,33.53,68.33,33.53C67.72,28.83,67.13,26.68,67.13,26.68L67.13,26.65Z" fill="white" opacity="0.1"/><path d="M16.16,26.54C16.16,26.54,15.38,30.8,15.59,33.41C16.88,34,22.82,33.5,22.82,33.5C23.42,28.8,24.02,26.65,24.02,26.65L24.05,26.65Z" fill="white" opacity="0.1"/><path d="M70.28,36.18C68.78,29.39,67.16,20.81,65.81,19.19C65.57,18.9,65.33,18.6,65.09,18.34C63.8,16.84,61.49,14.64,59.54,14.58C52.97,14.4,37.85,14.43,31.13,14.58C29.06,14.64,26.84,16.6,25.55,18.28C25.4,18.46,25.25,18.63,25.13,18.84C23,22.13,21.53,30.86,20.39,37.26C19.55,42.11,19.4,47.02,19.94,51.9C20.27,54.78,20.54,57.92,20.48,59.83C20.45,61.71,20.54,63.57,20.81,65.33C21.38,69.27,23.18,72.94,25.88,75.88C28.61,78.85,33.86,84.46,37.79,86.99C39.17,87.87,41.84,88.19,45.62,88.19C49.4,88.19,52.16,87.87,53.54,86.99C57.47,84.46,62.63,78.85,65.36,75.88C68.06,72.94,69.86,69.27,70.43,65.33C70.7,63.57,70.79,61.71,70.76,59.83C70.73,58.01,70.94,55.1,71.21,52.34L71.24,52.4C71.78,46.99,71.45,41.53,70.28,36.18Z" fill="#F3CDB6"/><path d="M65.42,39.85C65.27,39.73,65.11,39.64,64.97,39.53C64.81,39.41,64.69,39.29,64.58,39.17L52.01,39.17L49.73,41.76L41.38,41.76L39.08,39.17L26.09,39.17C24.91,40.97,23.66,42.67,22.48,44.46C22.36,45.93,22.36,47.4,22.48,48.78C22.66,51.63,25.16,53.81,28.07,53.81L63.1,53.81C66.05,53.81,68.5,51.61,68.69,48.73C68.78,47.14,68.75,45.46,68.59,43.76C67.78,43.14,66.97,42.47,66.25,41.73L66.22,41.73C65.72,41.23,65.5,40.56,65.42,39.85Z" fill="url(#paint5_radial_119_7784)"/><path d="M50.06,40C51.32,38.5,54.23,37.38,56.21,36.94L61.94,36C67.61,37.97,68.6,43.23,68.9,44.2C62.06,38.2,54.47,41.44,50.9,41.64L50.9,41.61C50,41.67,49.49,40.67,50.06,40Z" fill="url(#paint6_linear_119_7784)"/><path d="M41.59,40C40.34,38.5,37.42,37.38,35.45,36.94L29.71,36C24.05,37.97,23.05,43.23,22.75,44.2C29.59,38.2,37.19,41.44,40.76,41.64L40.76,41.61C41.66,41.67,42.16,40.67,41.59,40Z" fill="url(#paint7_linear_119_7784)"/><path d="M45.44,78.97C54.62,78.97,53.72,74.12,53.96,72.56L37.13,72.56C37.13,72.56,36.26,78.97,45.44,78.97Z" fill="url(#paint8_linear_119_7784)"/><path d="M51.59,55.51L49.58,51.52L49.03,41.38L42.47,41.38L41.92,51.52L39.91,55.51C39.91,55.51,37.88,55.57,37.6,56.63C37.19,58.31,37.03,60.33,40.03,60.42C40.45,60.42,41.05,59.6,42.41,60.16C42.65,60.25,43.27,60.57,43.94,60.89C45.08,61.45,46.42,61.45,47.59,60.89C48.26,60.57,48.88,60.27,49.13,60.16C50.45,59.6,51.02,60.6,51.49,60.42C54.49,60.33,54.34,58.31,53.92,56.63L53.9,56.63C53.63,55.57,51.59,55.51,51.59,55.51Z" fill="url(#paint9_linear_119_7784)"/><path d="M50.77,39.76L50.41,39.88C49.82,40.11,49.34,40.5,48.98,40.97C48.38,41.76,47.05,42.2,46.03,42.08C45.85,42.08,45.67,42.05,45.49,42.05L45.47,42.05C44.3,42.05,42.65,41.41,41.8,40.58C41.51,40.29,41.15,40.06,40.7,39.88L40.34,39.76C35.66,38.17,32.56,37.53,27.55,37.79L20.18,38.41L20.18,40.26C20.98,40.26,21.29,40.91,21.41,41.5C21.41,41.64,21.41,41.79,21.41,41.94L21.89,47.11L21.89,47.28C23.09,50.61,26.5,52.9,30.34,52.9L34.3,52.9C37.42,52.9,40.22,51.11,41.3,48.34L42.02,45.52C42.41,43.96,43.81,43.38,45.47,43.35C45.65,43.35,45.8,43.35,46.01,43.38C47.51,43.55,48.7,44.64,49.13,46.05L49.97,48.43C51.02,51.11,53.84,52.87,56.92,52.87L60.95,52.87C64.79,52.87,68.14,50.64,69.31,47.31L69.8,41.91C69.8,41.76,69.8,41.61,69.8,41.47C69.92,40.88,70.22,40.23,71.03,40.23L71.03,38.38C71.03,38.38,63.67,37.73,63.65,37.76L63.62,37.79C58.64,37.53,55.45,38.17,50.77,39.76Z" fill="url(#paint10_linear_119_7784)"/><path d="M30.29,52.02C27.11,52.02,24.29,50.19,23.3,47.49L22.82,41.85C22.79,41.26,23,40.67,23.41,40.2C23.95,39.64,24.73,39.32,25.61,39.32L27.38,39.2C32.27,38.88,35.27,39.56,39.85,41.08L40.16,41.2C40.99,41.55,41.48,42.35,41.27,43.11L41.17,43.44L41.15,43.46L39.8,48.46C38.95,50.58,36.67,52.02,34.16,52.02L34.24,52.02Z" fill="url(#paint10_linear_119_7784)"/><path d="M60.91,52.02L56.9,52.02C54.38,52.02,52.09,50.58,51.28,48.55L49.82,43.11C49.63,42.32,50.09,41.52,50.95,41.2L51.26,41.08C55.85,39.53,58.91,38.88,63.8,39.2L65.63,39.32C66.47,39.32,67.25,39.64,67.76,40.2C68.21,40.67,68.42,41.26,68.36,41.85L67.88,47.52L67.91,47.49C66.92,50.19,64.09,52.02,60.91,52.02Z" fill="url(#paint10_linear_119_7784)"/><path d="M16.19,40.29L16.31,41.58L20.18,40.26L20.18,38.44Z" fill="url(#paint11_linear_119_7784)"/><path d="M75.08,40.56L74.96,41.82L71,40.26L71,38.44Z" fill="url(#paint12_linear_119_7784)"/><path d="M61.67,42.79C59.27,40.85,55.64,41.5,54.59,42.73C53.78,43.67,53.18,45.26,53.09,45.43C54.89,44.26,63.17,45.49,63.17,45.49L63.14,45.52C63.14,45.52,63.02,43.91,61.67,42.79Z" fill="url(#paint13_linear_119_7784)"/><path d="M53.06,45.46C53.06,45.46,53.69,43.93,54.98,43.05C56.12,42.26,58.64,42.26,60.77,43.26C62.9,44.29,63.14,45.52,63.14,45.52C61.1,45.85,56.6,46.79,53.06,45.46Z" fill="white"/><path d="M53.06,45.46C53.06,45.46,53.69,43.93,54.98,43.05C56.12,42.26,58.64,42.26,60.77,43.26C62.9,44.29,63.14,45.52,63.14,45.52C61.1,45.85,56.6,46.79,53.06,45.46Z" fill="white"/><path d="M58.01,46.7C59.36,46.61,60.38,45.49,60.29,44.17C60.2,42.85,59.06,41.85,57.71,41.94C56.36,42.02,55.34,43.14,55.43,44.46C55.52,45.79,56.66,46.79,58.01,46.7Z" fill="url(#paint14_linear_119_7784)"/><path d="M59.48,44.76C59.78,44.73,60.02,44.46,60.02,44.14C60.02,43.82,59.72,43.55,59.42,43.58C59.12,43.58,58.88,43.88,58.88,44.2C58.88,44.52,59.18,44.79,59.48,44.76Z" fill="white"/><path d="M29.48,42.79C31.88,40.85,35.51,41.5,36.56,42.73C37.37,43.67,37.97,45.26,38.06,45.43C36.26,44.26,27.98,45.49,27.98,45.49L28.01,45.52C28.01,45.52,28.13,43.91,29.48,42.79Z" fill="url(#paint15_linear_119_7784)"/><path d="M38.09,45.46C38.09,45.46,37.45,43.93,36.16,43.05C35.02,42.26,32.51,42.26,30.38,43.26C28.25,44.29,28,45.52,28,45.52C30.05,45.85,34.55,46.79,38.09,45.46Z" fill="white"/><path d="M38.09,45.46C38.09,45.46,37.45,43.93,36.16,43.05C35.02,42.26,32.51,42.26,30.38,43.26C28.25,44.29,28,45.52,28,45.52C30.05,45.85,34.55,46.79,38.09,45.46Z" fill="white"/><path d="M33.1,46.7C31.75,46.61,30.73,45.49,30.82,44.17C30.91,42.85,32.05,41.85,33.41,41.94C34.76,42.02,35.77,43.14,35.69,44.46C35.59,45.79,34.45,46.79,33.1,46.7Z" fill="url(#paint16_linear_119_7784)"/><path d="M34.69,44.76C34.39,44.73,34.15,44.46,34.15,44.14C34.15,43.82,34.45,43.55,34.75,43.58C35.05,43.58,35.29,43.88,35.29,44.2C35.29,44.52,34.99,44.79,34.69,44.76Z" fill="white"/><path d="M45.59,66.18C43.19,65.27,39.49,66.48,36.7,67.09C34.99,67.47,33.38,67.24,33.38,67.24C37.7,73.03,41.9,74.94,45.59,74.94C49.27,74.94,53.48,73.03,57.8,67.24C57.8,67.24,56.15,67.45,54.47,67.09C51.67,66.48,47.98,65.27,45.59,66.18Z" fill="url(#paint17_linear_119_7784)"/><path d="M55.4,68.33C54.86,68.33,53.99,68.33,53.09,68.12C50.72,67.56,47.6,66.45,45.56,67.3C43.52,66.45,40.4,67.56,38.03,68.12C37.13,68.33,36.23,68.33,35.72,68.33C39.2,70.82,42.59,71.68,45.56,71.68L45.56,71.65C48.53,71.65,51.92,70.8,55.4,68.33Z" fill="white"/><path d="M59.51,66.48L56.53,63.71C56.53,63.71,59.51,63.98,59.51,66.48Z" fill="url(#paint18_linear_119_7784)" opacity="0.7"/><path d="M62.15,66.77L57.23,62.16C57.23,62.16,62.15,62.63,62.15,66.77Z" fill="url(#paint19_linear_119_7784)" opacity="0.7"/><path d="M32.75,66.48L35.72,63.71C35.72,63.71,32.75,63.98,32.75,66.48Z" fill="url(#paint20_linear_119_7784)" opacity="0.7"/><path d="M30.11,66.77L35.03,62.16C35.03,62.16,30.11,62.63,30.11,66.77Z" fill="url(#paint21_linear_119_7784)" opacity="0.7"/><path d="M38.45,18.22L39.56,15.69L30.77,18.1L35.12,14.08L27.95,17.9L30.68,12.96L28.31,6.61L33.35,3.82L29.12,5C29.12,5,33.56,0.68,40.46,0.53C47.36,0.35,49.25,0.09,49.25,0.09C49.25,0.09,55.28,0.59,57.32,2.03L55.16,2.59C55.16,2.59,62.06,4.53,64.55,7.46L61.28,6.91L64.55,11.23L60.14,11.31L53.24,12.4L53.24,12.37C53.24,12.37,43.64,17.63,38.45,18.22Z" fill="url(#paint22_linear_119_7784)"/></svg>