<svg xmlns="http://www.w3.org/2000/svg" viewBox="0 0 90 90"><path d="M13.13,0L13.13,90L77.66,90L77.66,0Z" fill="currentColor"/><path d="M75.8,61.47C77.12,57.93,78.02,52.59,77.5,47.88C77.23,45.42,76.58,43.77,75.77,43.11C74.24,41.88,72.08,44.01,70.64,50.52C70.64,50.52,68.56,55.77,71,63.18C72.28,67.08,74.3,65.4,75.8,61.47Z" fill="currentColor"/><path d="M77.51,47.88C77.24,45.42,76.58,43.77,75.77,43.11C74,46.32,73.04,53.19,72.95,56.31C75.62,51.12,77.84,53.61,75.83,61.47L75.8,61.47C77.12,57.93,78.02,52.59,77.51,47.88Z" fill="currentColor"/><path d="M14.99,61.47C13.64,57.93,12.77,52.59,13.28,47.88C13.55,45.42,14.21,43.77,15.02,43.11C16.55,41.88,18.71,44.01,20.14,50.52C20.14,50.52,22.21,55.77,19.79,63.18C18.5,67.08,16.49,65.4,14.99,61.47Z" fill="currentColor"/><path d="M13.28,47.88C13.55,45.42,14.21,43.77,15.02,43.11C16.79,46.32,17.75,53.19,17.84,56.31C15.17,51.12,12.95,53.61,14.96,61.47L14.99,61.47C13.64,57.93,12.77,52.59,13.28,47.88Z" fill="currentColor"/><path d="M73.49,54.51C74.6,47.34,74.03,35.67,72.68,26.25C71.78,20.04,61.43,8.82,55.25,8.61L34.28,8.79C24.68,9.15,19.79,18.81,18.62,25.11C16.94,34.17,17.15,41.46,17.06,45C16.97,48.21,17.06,56.79,18.8,56.34L73.28,55.83L73.25,55.77C73.34,55.35,73.43,54.93,73.49,54.51Z" fill="currentColor"/><path d="M66.58,24.45C55.58,18,43.16,18.93,41.17,18.87C35.05,18.63,29.86,19.89,26.09,23.16C21.91,26.76,19,47.49,18.89,53.31C18.59,65.37,33.77,90,44.92,90L45.91,90C57.08,90,72.25,65.37,71.95,53.31L71.92,53.31C71.78,47.46,69.05,26.28,66.58,24.45Z" fill="currentColor"/><path d="M40.22,72.75C41.24,75.12,42.83,77.46,45.2,77.46C47.15,77.46,48.56,76.35,49.64,74.79C50.54,73.5,51.23,71.85,51.8,70.26L39.32,70.26C39.56,71.04,39.83,71.88,40.22,72.75Z" fill="currentColor"/><path d="M37.4,70.56C38.95,72.93,41.35,75.27,44.95,75.27C47.9,75.27,50.05,74.16,51.73,72.6C53.12,71.31,54.16,69.66,55.03,68.07L36.05,68.07C36.41,68.85,36.83,69.69,37.4,70.56Z" fill="currentColor"/><path d="M37.4,67.56C38.95,67.08,41.35,66.63,44.95,66.63C47.9,66.63,50.05,66.84,51.73,67.17C53.12,67.44,54.16,67.77,55.03,68.07L36.05,68.07C36.41,67.92,36.83,67.74,37.4,67.56Z" fill="currentColor"/><path d="M50.02,1.11C45.98,2.55,43.16,5.4,43.16,5.4C44.33,3.45,46.78,1.83,48.67,0.66C47.17,0.21,45.52,0,43.73,0C38.63,2.37,35.66,6.99,35.66,6.99C36.59,3.54,39.55,1.35,41.77,0.15C41.38,0.21,40.97,0.27,40.55,0.33C25.07,3.12,30.14,19.74,30.14,19.74C59.48,12.69,69.28,30.69,69.28,30.69C69.28,30.69,71,23.34,60.98,10.59C58.13,6.78,54.73,2.94,50.02,1.11Z" fill="currentColor"/><path d="M43.16,5.4C44.33,3.45,46.79,1.83,48.68,0.66C48.5,0.6,48.29,0.57,48.11,0.51C38.54,6.06,38.15,15.3,38.75,19.53C39.14,19.5,39.56,19.47,39.95,19.44C39.35,15.66,39.59,7.23,48.08,1.95C45.11,3.45,43.16,5.4,43.16,5.4Z" fill="currentColor" opacity="0.15"/><path d="M55.76,4.77C55.43,4.47,55.1,4.2,54.77,3.9C49.97,6.45,47,9.51,45.92,13.05C45.32,15,45.41,18,45.71,19.41C46.16,19.41,46.58,19.47,47,19.5C46.67,18.21,46.52,15.27,47.12,13.38L47.09,13.41C48.11,10.08,51.02,7.2,55.76,4.77Z" fill="currentColor" opacity="0.15"/><path d="M35.51,63.96C34.04,65.67,31.94,67.29,33.59,69.66C28.85,66.3,37.52,61.11,38.51,57.33C38.57,59.85,37.04,62.13,35.51,63.96Z" fill="currentColor"/><path d="M57.2,69.66C58.85,67.29,56.75,65.67,55.28,63.96C53.75,62.13,52.22,59.85,52.28,57.33C53.27,61.11,61.94,66.27,57.2,69.66Z" fill="currentColor"/><path d="M58.27,36.63L55.84,36.63C51.31,36.63,47.66,40.62,47.69,45.51C47.69,46.2,47.69,46.68,47.74,46.95C47.84,48.21,63.73,49.47,65.75,48.54C66.61,48.15,66.67,46.23,66.34,43.98L66.31,43.98C65.69,39.72,62.23,36.63,58.27,36.63Z" fill="currentColor"/><path d="M32.48,36.99L34.91,36.99C39.44,36.99,43.1,40.98,43.07,45.87C43.07,46.56,43.07,47.04,43.01,47.31C42.92,48.57,27.02,49.83,25.01,48.9C24.14,48.51,24.08,46.59,24.41,44.34L24.44,44.34C25.07,40.08,28.52,36.99,32.48,36.99Z" fill="currentColor"/><path d="M64.22,46.35C64.22,46.35,62.57,42.15,57.59,42.15C52.61,42.15,52.61,46.35,52.61,46.35Z" fill="currentColor"/><path d="M62.95,46.38C62.95,46.38,61.42,42.78,56.84,42.78C52.24,42.78,52.24,46.38,52.24,46.38Z" fill="currentColor"/><path d="M62.95,46.38C62.95,46.38,61.42,42.78,56.84,42.78C52.24,42.78,52.24,46.38,52.24,46.38Z" fill="currentColor"/><path d="M56.8,47.13C55.45,47.13,54.38,45.99,54.38,44.55C54.38,43.11,55.45,41.97,56.8,41.97C58.16,41.97,59.23,43.11,59.23,44.55C59.23,45.96,58.16,47.13,56.8,47.13Z" fill="currentColor"/><path d="M59.09,45.15C58.66,45.15,58.34,44.79,58.34,44.37C58.34,43.95,58.66,43.59,59.09,43.59C59.51,43.59,59.84,43.95,59.84,44.37C59.84,44.82,59.51,45.15,59.09,45.15Z" fill="currentColor"/><path d="M26.57,46.35C26.57,46.35,28.22,42.15,33.2,42.15C38.18,42.15,38.18,46.35,38.18,46.35Z" fill="currentColor"/><path d="M27.83,46.38C27.83,46.38,29.36,42.78,33.95,42.78C38.54,42.78,38.54,46.38,38.54,46.38Z" fill="currentColor"/><path d="M27.83,46.38C27.83,46.38,29.36,42.78,33.95,42.78C38.54,42.78,38.54,46.38,38.54,46.38Z" fill="currentColor"/><path d="M33.53,47.13C34.88,47.13,35.96,45.99,35.96,44.55C35.96,43.14,34.88,41.97,33.53,41.97C32.18,41.97,31.1,43.11,31.1,44.55C31.1,45.96,32.18,47.13,33.53,47.13Z" fill="currentColor"/><path d="M35.84,45.15C36.26,45.15,36.59,44.79,36.59,44.37C36.59,43.95,36.26,43.59,35.84,43.59C35.42,43.59,35.09,43.95,35.09,44.37C35.09,44.82,35.42,45.15,35.84,45.15Z" fill="currentColor"/><path d="M48.38,49.74C48.38,44.13,46.43,41.4,46.19,38.4L45.2,38.4C44.96,41.43,42.74,43.89,42.74,49.74C42.74,55.59,40.43,56.97,40.43,56.97C39.23,57.99,39.62,61.08,41.12,61.59C41.18,61.59,41.24,61.62,41.3,61.65L49.88,61.65C49.88,61.65,50,61.62,50.06,61.59C51.56,61.08,51.95,57.99,50.75,56.97L50.69,56.97C50.69,56.97,48.38,55.35,48.38,49.74Z" fill="currentColor"/><path d="M51.74,36.72C56.72,33.15,65.27,35.73,65.33,41.61C58.49,35.1,49.91,40.68,49.91,40.68L49.88,40.71C49.88,39.45,49.73,38.16,51.74,36.72Z" fill="currentColor"/><path d="M38.92,36.72C34.01,33.15,25.55,35.73,25.48,41.61C32.27,35.1,41.23,40.68,41.23,40.68L41.23,40.71C41.23,40.71,40.88,38.16,38.92,36.72Z" fill="currentColor"/><path d="M45.49,3.51C44.05,4.53,43.19,5.4,43.19,5.4C43.6,4.71,44.17,4.08,44.84,3.48C42.77,3.39,40.6,3.48,38.38,3.81C36.65,5.52,35.69,6.99,35.69,6.99C35.98,5.85,36.52,4.86,37.16,3.99C35.35,4.32,33.49,4.83,31.64,5.52C30.7,6.87,30.11,8.37,29.77,9.87C30.05,9.75,30.2,9.66,30.2,9.66C30.2,9.66,55.06,6.39,64.78,16.11C63.73,14.4,62.51,12.57,60.95,10.59C59.8,9.06,58.58,7.56,57.23,6.15L57.26,6.15C53.87,4.83,49.88,3.78,45.49,3.51Z" fill="currentColor" opacity="0.1"/><path d="M45.56,72.39C50.3,72.39,54.02,69.03,54.8,68.07L45.56,68.07Z" fill="currentColor"/><path d="M45.56,72.39C40.82,72.39,37.1,69.03,36.32,68.07L45.56,68.07Z" fill="currentColor"/><path d="M30.59,43.41C31.22,43.14,31.88,42.87,32.57,42.78C33.26,42.66,33.95,42.69,34.61,42.78C33.29,43.05,32.03,43.32,30.89,43.95C29.72,44.52,28.73,45.33,27.86,46.35L27.83,46.35C28.28,45.06,29.39,44.07,30.59,43.41Z" fill="currentColor"/><path d="M59.96,43.95C58.82,43.35,57.56,43.05,56.24,42.78C56.9,42.69,57.59,42.66,58.28,42.78C58.97,42.87,59.63,43.14,60.26,43.41C61.46,44.07,62.57,45.06,63.02,46.35L62.99,46.35C62.09,45.33,61.1,44.52,59.96,43.95Z" fill="currentColor"/></svg>