<svg xmlns="http://www.w3.org/2000/svg" viewBox="0 0 90 90"><path d="M0,0.09L0,88.25L90,88.25L90,0.09Z" fill="currentColor"/><path d="M13.13,0.09L13.13,88.25L78.5,88.25L78.5,0.09Z" fill="currentColor"/><path d="M75.08,58.98C75.67,58.42,76.19,57.84,76.31,57.34C76.67,55.87,78.25,47.14,77.08,44.67C76.88,44.2,76.58,43.82,76.25,43.44C74.81,41.85,72.58,41.11,72.58,41.11L72.17,61.19L72.17,61.21C72.17,61.21,73.84,60.13,75.08,58.98Z" fill="currentColor"/><path d="M76.31,57.34C76.67,55.87,78.25,47.14,77.08,44.67C76.88,44.2,76.58,43.82,76.25,43.44C74.39,46.17,74.3,52.34,74.3,52.34C74.3,52.34,76.97,52.75,75.08,58.95L75.08,58.98C75.67,58.42,76.19,57.84,76.31,57.34Z" fill="currentColor"/><path d="M16.79,58.98C16.19,58.42,15.68,57.84,15.56,57.34C15.2,55.87,13.61,47.14,14.78,44.67C14.99,44.2,15.29,43.82,15.62,43.44C17.06,41.85,19.27,41.11,19.27,41.11L21.05,61.19L21.05,61.21C21.05,61.21,18.02,60.13,16.79,58.98Z" fill="currentColor"/><path d="M15.56,57.34C15.2,55.87,13.61,47.14,14.78,44.67C14.99,44.2,15.29,43.82,15.62,43.44C17.48,46.17,17.57,52.34,17.57,52.34C17.57,52.34,14.9,52.75,16.79,58.95L16.79,58.98C16.19,58.42,15.68,57.84,15.56,57.34Z" fill="currentColor"/><path d="M51.85,3.35C47.35,1.12,44.77,0.06,42.34,0.09C34.27,0.21,25.3,6.94,18.02,15.11C10.7,23.28,13.66,31.71,13.96,33.53C14.8,38.88,17.11,38.88,18.25,47.99L18.38,47.9C18.46,48.52,18.55,49.17,18.64,49.81C18.89,53.31,19.39,58.45,20,63.18C20,63.33,20,63.39,20,63.39C20,63.39,20,63.39,20,63.42C20.18,64.89,20.36,66.3,20.54,67.59C20.89,70.09,21.89,72.44,23.41,74.47C25.66,77.44,28.39,80.14,31.34,82.17C33.65,83.76,37.22,85.81,40.3,87.11C43.88,88.6,47.98,88.6,51.55,87.11C54.65,85.81,58.52,83.55,60.52,82.17C64.91,79.14,66.53,76.91,68.44,74.47C69.25,73.41,69.89,72.26,70.39,71.03C71.78,68.56,72.08,63.36,72.08,63.36C72.08,63.36,72.17,61.95,72.38,59.77C72.73,56.78,73.06,53.84,73.28,51.4C73.72,47.84,74.3,44.26,74.95,41.82C75.47,40.56,76.13,39.14,76.88,37.94C78.94,34.68,79.91,25.6,74.33,16.72L74.3,16.75C67,5.14,63.2,0.85,51.85,3.35Z" fill="currentColor"/><path d="M44.59,51.16C44.59,51.16,27.2,49.96,26.3,46.23C25.36,42.49,27.68,34.56,27.68,34.56C27.68,34.56,38.35,30.95,40.91,33.06L40.88,33.09C46.58,37.88,44.59,51.16,44.59,51.16Z" fill="currentColor"/><path d="M57.8,41.55C57.13,41.38,56.41,41.29,55.63,41.38C55.22,41.7,54.95,42.23,54.91,42.79C54.91,43.26,55.09,43.7,55.37,44.02C56.2,43.91,57.2,43.79,58.27,43.76C58.42,43.52,58.52,43.23,58.55,42.94C58.4,43.08,58.19,43.17,57.98,43.17C57.52,43.17,57.2,42.79,57.2,42.32C57.2,41.94,57.47,41.64,57.8,41.55Z" fill="currentColor"/><path d="M57.19,42.32C57.19,42.76,57.52,43.14,57.97,43.17C58.18,43.17,58.39,43.08,58.54,42.94C58.69,42.79,58.78,42.58,58.78,42.35C58.78,42.14,58.72,41.97,58.6,41.79C58.36,41.7,58.09,41.61,57.82,41.53L57.79,41.55C57.46,41.64,57.19,41.94,57.19,42.32Z" fill="currentColor"/><path d="M71.17,45.61C71.17,45.26,71.17,44.9,71.17,44.55C71.17,44.55,71.17,44.49,71.17,44.46C71.17,39.85,71.05,39.29,70.9,35.18C70.81,34.71,65.74,29.71,65.59,29.12C65.44,28.45,65.68,26.74,65.38,24.86C64.33,22.01,62.14,18.4,53.74,16.43C56.17,20.4,57.7,25.57,54.55,30.68C54.55,30.71,54.52,30.74,54.49,30.8L52.51,30.53C52.51,30.53,54.91,30.21,53.95,23.86C53.23,18.98,49.84,16.66,48.31,15.87C47.53,15.81,46.75,15.78,45.91,15.75C30.4,16.16,28.09,21.51,26.92,25.45C26.62,27.3,26.86,29.01,26.71,29.65C26.56,30.24,21.04,34.74,20.92,35.18C20.8,38.62,20.71,38.09,20.68,42.2C20.68,42.2,20.68,42.2,20.68,42.23C20.68,42.7,20.68,43.17,20.68,43.64C20.68,43.64,20.68,43.64,20.68,43.67C20.68,44.61,20.68,45.49,20.68,46.32C20.68,46.7,20.68,47.05,20.68,47.43C20.68,47.49,20.68,47.55,20.68,47.64C20.68,47.96,20.68,48.28,20.68,48.58C20.68,48.64,20.68,48.7,20.68,48.75C20.68,49.08,20.68,49.37,20.68,49.64C20.68,49.64,20.68,49.67,20.68,49.69C20.68,49.96,20.68,50.19,20.68,50.4C20.68,50.43,20.68,50.49,20.68,50.52C20.68,50.72,20.68,50.93,20.68,51.11C20.68,51.13,20.68,51.19,20.68,51.22C20.68,51.4,20.68,51.55,20.68,51.66C20.68,51.66,20.68,51.69,20.68,51.72C20.68,51.84,20.68,51.96,20.68,52.02C20.68,72.53,25.48,68.59,28.12,67.86C30.46,67.18,30.7,66.59,30.76,63.92C30.88,57.25,38.47,58.8,42.64,56.72L42.64,56.19L49.09,56.19L49.09,56.98C55.69,61.24,61.18,58.39,61.03,65.21C60.97,67.56,61.78,67.5,63.61,67.89C66.43,68.47,71.05,71.53,71.05,52.05C71.05,51.99,71.05,51.9,71.05,51.81C71.05,51.81,71.05,51.75,71.05,51.72C71.05,51.63,71.05,51.55,71.05,51.43C71.05,51.43,71.05,51.37,71.05,51.34C71.05,51.19,71.05,51.05,71.05,50.9C71.05,50.84,71.05,50.78,71.05,50.72C71.05,50.58,71.05,50.43,71.05,50.25C71.05,50.22,71.05,50.17,71.05,50.14C71.05,49.93,71.05,49.69,71.05,49.46C71.05,49.4,71.05,49.34,71.05,49.28C71.05,49.08,71.05,48.9,71.05,48.7C71.05,48.64,71.05,48.55,71.05,48.49C71.05,48.23,71.05,47.96,71.05,47.67C71.05,47.64,71.05,47.58,71.05,47.55C71.05,47.28,71.05,47.02,71.05,46.76C71.05,46.7,71.05,46.64,71.05,46.55L71.17,46.61C71.17,46.29,71.17,45.96,71.17,45.61Z" fill="currentColor"/><path d="M48.26,50.02C48.26,44.46,50.63,39.82,50.63,39.82L41.2,39.82C41.2,39.82,43.6,42.32,43.6,50.08C42.91,50.49,42.38,51.08,42.08,51.78C40.58,51.81,39.38,52.87,39.38,54.16C39.38,55.45,40.6,56.54,42.13,56.54L49.66,56.54C51.2,56.54,52.42,55.48,52.42,54.16C52.42,52.84,51.28,51.87,49.84,51.81L49.88,51.78C49.58,51.05,49.01,50.43,48.26,50.02Z" fill="currentColor"/><path d="M63.16,37.97C61.76,37.76,60.31,37.53,58.84,37.5C57.2,37.47,55.63,37.5,54.08,37.7C53.09,38.23,51.47,38.17,51.08,39.56C45.34,44.52,50.35,51.22,50.35,51.22C50.35,51.22,64.64,50.19,65.39,47.02C65.83,45.14,65.39,42.02,64.91,39.79C64.69,39.61,64.48,39.44,64.36,39.2L64.33,39.14C63.8,38.94,63.38,38.5,63.16,37.97Z" fill="currentColor" opacity="0.5"/><path d="M40.24,38.65C39.43,37.97,38.45,37.56,37.63,37.06C34.48,36.85,31.48,36.91,28.66,38.47C28.42,38.59,28.18,38.67,27.94,38.7C27.79,38.91,27.61,39.09,27.4,39.23C27.31,39.32,27.19,39.38,27.07,39.44C26.59,41.7,26.05,44.96,26.53,46.9C27.28,50.11,41.71,51.11,41.71,51.11C41.71,51.11,46.39,45.05,40.66,38.56L40.63,38.62C40.63,38.62,40.34,38.73,40.24,38.65Z" fill="currentColor" opacity="0.5"/><path d="M40.15,36.59L39.97,38.09L41.26,37.38C41.26,37.38,41.62,38.26,40.87,38.94L42.34,38.73C41.5,39.64,40.21,39.61,40.21,39.61C40.21,39.61,37.63,37.32,31,38.35C30.91,38.35,30.79,38.38,30.7,38.41C30.49,38.44,30.28,38.47,30.04,38.53C30.01,38.53,29.98,38.53,29.95,38.56C28.66,38.85,27.58,39.32,26.92,40.06C27.46,36.26,31.99,35.32,34.24,35.53L34.24,35.5C35.95,35.65,40.15,36.59,40.15,36.59Z" fill="currentColor"/><path d="M51.62,36.06L51.8,37.79L50.38,37.03C50.38,37.03,50.12,37.97,50.87,38.76L49.88,38.67C50.72,39.7,51.55,39.56,51.55,39.56C51.55,39.56,54.13,36.94,60.77,38.12C60.85,38.12,60.98,38.15,61.06,38.17C61.27,38.2,61.48,38.26,61.73,38.29C61.76,38.29,61.78,38.29,61.81,38.32C63.1,38.65,64.19,39.2,64.84,40.03C64.39,36.41,60.13,35.03,58.06,35.15C56.35,35.27,51.62,36.06,51.62,36.06Z" fill="currentColor"/><path d="M34.52,72.44C34.52,75.91,37.58,78.73,41.35,78.73L50.51,78.73C54.28,78.73,57.34,75.91,57.34,72.44L57.34,64.39C57.34,64.39,53.05,59.8,46.09,59.8C39.13,59.8,34.52,62.51,34.52,62.51Z" fill="currentColor"/><path d="M52.01,69.15C52.01,66.02,49.29,63.48,45.95,63.48C42.6,63.48,39.88,66.02,39.88,69.15C39.88,72.28,42.6,74.82,45.95,74.82C49.29,74.82,52.01,72.28,52.01,69.15Z" fill="currentColor"/><path d="M55.27,65.65L36.94,64.15C40.18,73.59,51.31,74.32,55.27,65.65Z" fill="currentColor"/><path d="M55.61,64.83L36.29,63.65C40.16,69.94,51.89,70.56,55.61,64.83Z" fill="currentColor"/><path d="M36.19,63.62L46.3,66.74L55.63,64.83C48.73,59.63,42.25,60.63,36.19,63.62Z" fill="currentColor"/><path d="M55.72,40.61C60.19,39.47,62.47,43.91,61.78,43.85C57.49,43.46,52.54,43.91,52.54,43.91C52.54,43.91,53.14,41.29,55.72,40.61Z" fill="currentColor"/><path d="M55.43,41.53C59.12,40.61,61.82,44.02,61.16,43.82C56.21,42.32,52.52,44.58,52.52,44.58L52.55,44.58C52.55,44.58,52.85,42.17,55.43,41.53Z" fill="currentColor"/><path d="M55.43,41.53C59.12,40.61,61.82,44.02,61.16,43.82C56.21,42.32,52.52,44.58,52.52,44.58L52.55,44.58C52.55,44.58,52.85,42.17,55.43,41.53Z" fill="currentColor"/><path d="M57.2,44.61C57.95,44.43,58.55,43.73,58.55,42.88C58.55,41.85,57.77,41,56.78,40.97C55.79,40.94,54.95,41.76,54.92,42.79C54.92,43.64,55.43,44.38,56.18,44.61L56.21,44.61Z" fill="currentColor"/><path d="M58.82,42.41C58.82,42.16,58.61,41.97,58.37,41.97C58.12,41.97,57.92,42.16,57.92,42.41C57.92,42.65,58.12,42.85,58.37,42.85C58.61,42.85,58.82,42.65,58.82,42.41Z" fill="currentColor"/><path d="M36.52,40.61C32.05,39.47,29.77,43.91,30.46,43.85C34.76,43.46,39.7,43.91,39.7,43.91C39.7,43.91,39.1,41.29,36.52,40.61Z" fill="currentColor"/><path d="M36.83,41.53C33.13,40.61,30.41,43.88,31.09,43.82C35.38,43.44,39.73,44.58,39.73,44.58L39.7,44.58C39.7,44.58,39.41,42.17,36.83,41.53Z" fill="currentColor"/><path d="M36.83,41.53C33.13,40.61,30.41,43.88,31.09,43.82C35.38,43.44,39.73,44.58,39.73,44.58L39.7,44.58C39.7,44.58,39.41,42.17,36.83,41.53Z" fill="currentColor"/><path d="M35.05,44.61C34.3,44.43,33.7,43.73,33.7,42.88C33.7,41.85,34.48,41,35.48,40.97C36.47,40.94,37.3,41.76,37.34,42.79C37.34,43.64,36.83,44.38,36.08,44.61L36.05,44.61Z" fill="currentColor"/><path d="M37.69,42.49C37.69,42.24,37.49,42.02,37.24,42.02C37,42.02,36.79,42.24,36.79,42.49C36.79,42.75,37,42.97,37.24,42.97C37.49,42.97,37.69,42.75,37.69,42.49Z" fill="currentColor"/><path d="M44.02,8.52C45.91,10.7,44.02,12.28,44.02,12.28L38.56,12.37C38.56,12.37,33.79,4.53,33.88,4.11C33.97,3.7,38.56,0.76,41.65,1.35L41.62,1.35C41.62,1.35,42.13,6.35,44.02,8.52Z" fill="currentColor"/><path d="M62.83,5.58C62.83,5.58,65.05,6.49,65.74,7.67C65.74,7.67,67.96,12.17,64.72,16.69C64.72,16.69,61.3,15.11,60.19,13.52C60.19,13.52,63.76,10.02,62.83,5.58Z" fill="currentColor"/><path d="M33.91,17.63C23.05,21.89,44.27,28.77,44.27,28.77L47.09,22.89L48.34,15.81C48.34,15.81,44.77,13.37,33.91,17.63Z" fill="currentColor"/><path d="M72.08,43.64C72.08,43.82,72.11,43.99,72.08,44.17C71.92,46.32,70.81,61.1,70.64,60.86C70.45,60.6,67.06,51.93,67.16,51.69C67.25,51.46,67.48,46.84,67.48,46.84L67.48,39.32L70.88,35.15L70.91,35.15Z" fill="currentColor"/><path d="M20.09,43.64C20.09,43.82,20.05,43.99,20.09,44.17C20.23,46.32,22.36,65.71,22.3,65.45C21.91,63.65,25.09,51.93,25,51.66C24.91,51.4,24.68,46.81,24.68,46.81L24.68,39.29L21.29,35.12L21.25,35.15Z" fill="currentColor"/><path d="M61.84,49.25C61.48,49.4,61.13,49.52,60.76,49.58C60.41,49.64,59.98,49.64,59.56,49.67C58.73,49.69,57.88,49.72,57.04,49.72C56.2,49.72,55.37,49.72,54.52,49.69L53.3,49.64C52.94,49.64,52.58,49.55,52.24,49.4C50.92,48.9,50.2,47.4,49.55,45.93C49.37,45.52,49.24,45.11,49.19,44.7C49.13,44.29,49.16,43.82,49.13,43.32L48.76,43.32L48.76,42.97L42.65,42.97L42.65,43.32C42.65,43.82,42.65,44.29,42.59,44.7C42.52,45.14,42.41,45.55,42.23,45.93C41.56,47.4,40.84,48.87,39.52,49.4C39.2,49.52,38.87,49.61,38.5,49.64C38.14,49.67,37.7,49.69,37.27,49.69C36.43,49.69,35.59,49.72,34.78,49.72C33.95,49.72,33.1,49.72,32.3,49.67C31.43,49.64,30.7,49.61,29.98,49.37C28.55,48.9,27.25,47.81,26.89,46.32L26.32,46.37C26.41,48.23,27.91,49.75,29.59,50.37C30.46,50.72,31.43,50.78,32.23,50.81C33.08,50.87,33.95,50.87,34.78,50.9C35.63,50.9,36.49,50.9,37.34,50.9C37.76,50.9,38.17,50.9,38.63,50.84C39.1,50.81,39.58,50.69,40.03,50.52C40.96,50.17,41.69,49.43,42.2,48.7C42.7,47.96,43.06,47.17,43.39,46.37C43.6,45.87,43.73,45.35,43.78,44.82C43.81,44.55,48.02,44.55,48.05,44.82C48.1,45.35,48.23,45.87,48.44,46.37C48.73,47.17,49.09,47.96,49.6,48.73C50.12,49.46,50.84,50.19,51.8,50.58C52.24,50.75,52.76,50.87,53.23,50.9C53.69,50.9,54.1,50.9,54.52,50.93C55.4,50.93,56.23,50.93,57.1,50.93C57.95,50.93,58.81,50.87,59.69,50.81C60.1,50.78,60.55,50.75,61.03,50.66C61.48,50.55,61.94,50.4,62.35,50.19C63.2,49.78,63.88,49.2,64.42,48.49C64.97,47.78,65.36,46.93,65.39,46.05L65.02,46.05L64.96,45.96C64.54,47.49,63.23,48.64,61.84,49.25Z" fill="currentColor"/><path d="M53.9,49.75C51.28,49.61,50.2,47.58,49.34,45.49C49.03,44.79,48.91,44.08,48.91,43.38L48.91,42.55C48.91,41.47,49.84,40.44,51.02,40.26C55.16,39.7,59.35,39.67,63.49,40.2C64.84,40.41,65.95,41.58,65.95,42.88C65.86,43.7,65.78,44.49,65.66,45.29C65.39,47.52,63.31,49.49,61.03,49.72C59.84,49.81,58.22,49.87,56.63,49.87L56.63,49.81C55.63,49.81,54.67,49.81,53.9,49.75Z" fill="currentColor"/><path d="M60.98,49.14C62.98,48.96,64.84,47.17,65.08,45.2C65.17,44.41,65.27,43.61,65.36,42.82C65.36,41.85,64.45,40.88,63.38,40.7C59.3,40.17,55.16,40.2,51.05,40.76C50.15,40.88,49.4,41.7,49.4,42.52L49.4,43.35C49.4,43.99,49.52,44.64,49.78,45.26C50.63,47.26,51.59,49.08,53.9,49.2L53.92,49.22C55.97,49.31,59.09,49.28,60.98,49.14Z" fill="currentColor"/><path d="M42.59,41.67L42.59,42.82L49.37,42.82L49.37,41.67Z" fill="currentColor"/><path d="M30.59,49.67C28.27,49.46,26.18,47.46,25.91,45.23C25.82,44.43,25.73,43.64,25.61,42.85C25.61,41.53,26.71,40.35,28.09,40.14C32.3,39.61,36.55,39.64,40.78,40.2C41.95,40.38,42.91,41.41,42.91,42.49L42.91,43.32C42.91,44.02,42.77,44.76,42.47,45.43C41.56,47.52,40.48,49.58,37.81,49.69C37.01,49.72,36.05,49.75,35.02,49.75L35.05,49.81C33.47,49.81,31.79,49.75,30.59,49.67Z" fill="currentColor"/><path d="M28.18,40.7C27.11,40.85,26.18,41.82,26.18,42.85C26.27,43.58,26.36,44.38,26.48,45.2C26.71,47.2,28.61,48.96,30.68,49.14C32.59,49.28,35.74,49.31,37.84,49.22C40.19,49.11,41.15,47.29,42.02,45.29C42.28,44.67,42.41,44.02,42.41,43.38L42.41,42.55C42.41,41.73,41.66,40.91,40.73,40.79C38.59,40.5,36.44,40.38,34.27,40.38L34.27,40.32C32.23,40.32,30.2,40.44,28.18,40.7Z" fill="currentColor"/><path d="M65.53,41.91L65.53,43.02L72.56,43.02L72.56,41.91Z" fill="currentColor"/><path d="M18.94,41.91L18.94,43.02L25.87,43.02L25.87,41.91Z" fill="currentColor"/><path d="M58.7,25.13L57.28,32.15L53.09,33.15L50.38,31.27L50.15,28.39L52.19,25.01Z" fill="currentColor"/><path d="M51.5,15.87C51.5,15.87,54.98,19.07,54.8,25.01C54.62,30.95,58.67,28.57,58.67,28.57L59.27,24.07L58.58,21.31L57.56,19.9L56.44,18.63L53.75,16.43L53.75,16.4Z" fill="currentColor"/></svg>