<svg xmlns="http://www.w3.org/2000/svg" viewBox="0 0 90 90"><path d="M73.7,52.69C72.63,67.78,61.13,73.24,47.09,73.24C34.95,73.24,24.68,69.13,21.45,58.27L22.52,57.52L21.23,57.52C21.14,57.16,21.05,56.8,20.96,56.44L22.16,55.96L20.75,55.39C20.48,53.83,20.36,52.15,20.36,50.35C20.36,45.85,21.2,40.3,22.73,31.9L71.39,31.9C72.92,40.3,73.77,45.85,73.77,50.35C73.77,50.74,73.77,51.1,73.77,51.49L72.66,51.67L72.66,51.64Z" fill="currentColor"/><path d="M73.41,22.75C75.06,26.95,76.17,30.37,75.44,35.77C75.08,38.59,74.31,40.66,73.17,41.11C72.39,41.41,68.48,39.73,66.72,32.08C66.72,32.08,64.1,28.69,67.31,20.32L67.31,20.35C69,15.94,71.55,18.1,73.41,22.75Z" fill="currentColor"/><path d="M74.91,33.34C74.91,35.62,74.67,37.18,74.25,37.84C73.02,35.08,72,31.78,71.75,28.96C73.28,32.68,74.48,30.1,73.05,23.98L73.02,23.98C74,27.07,74.88,29.02,74.91,33.34Z" fill="currentColor"/><path d="M20.13,22.75C18.47,26.95,17.36,30.37,18.08,35.77C18.44,38.59,19.22,40.66,20.36,41.11C21.14,41.41,25.05,39.73,26.82,32.08C26.82,32.08,29.43,28.69,26.21,20.32L26.21,20.35C24.54,15.94,21.98,18.1,20.13,22.75Z" fill="currentColor"/><path d="M18.65,33.34C18.65,35.62,18.89,37.18,19.31,37.84C20.55,35.08,21.57,31.78,21.8,28.96C20.27,32.68,19.07,30.1,20.52,23.98L20.55,23.98C19.55,27.07,18.68,29.02,18.65,33.34Z" fill="currentColor"/><path d="M59.7,63.64C56.63,64.06,53.52,64.48,50.63,64.33C48.05,64.18,45.51,64.18,42.92,64.33C40.05,64.48,36.92,64.06,33.87,63.64C29.07,62.95,25.07,53.53,24.2,49.15C24.14,48.85,22.25,34.06,22.32,33.25C22.5,28.33,24.84,16,26,12.64C27.02,9.61,29.34,7.12,32.36,5.74C36.63,3.82,42.77,1.39,46.83,1.39C50.88,1.39,57.02,3.88,61.1,5.8C63.92,7.12,66.08,9.43,67.17,12.22C68.48,15.67,71.09,28.33,71.28,33.25C71.33,34.06,70.47,52.27,70.41,52.57L70.38,52.57C69.47,56.95,64.5,62.95,59.7,63.64Z" fill="currentColor"/><path d="M65.48,37.33C65.25,38.5,64.85,39.64,64.44,40.78C64.44,40.84,64.41,40.87,64.41,40.93C63.45,41.92,62.52,42.97,61.38,43.81C61.16,43.96,60.92,44.08,60.69,44.17C60.66,44.17,60.59,44.17,60.56,44.2C60.51,44.2,60.41,44.2,60.35,44.2C59.88,44.2,59.45,44.29,59.03,44.47C58.95,44.47,58.83,44.47,58.73,44.47C58.1,44.41,57.45,44.32,56.81,44.26C56.34,44.2,55.85,44.17,55.34,44.11C53.76,43.87,53.03,43.42,51.56,42.88C51.56,42.88,51.51,42.88,51.48,42.85C50.34,39.82,49.23,37.39,49.23,37.39C49.23,37.39,49.77,35.92,50.22,35.41C53.6,31.57,61.91,33.82,64.44,34.93C64.8,35.08,65.16,35.29,65.52,35.5C65.52,35.56,65.52,35.59,65.52,35.65L65.52,35.59C65.52,36.16,65.52,36.76,65.48,37.33Z" fill="currentColor"/><path d="M27.83,37.33C28.07,38.5,28.46,39.64,28.88,40.78C28.88,40.84,28.91,40.87,28.91,40.93C29.87,41.92,30.8,42.97,31.94,43.81C32.15,43.96,32.39,44.08,32.63,44.17C32.66,44.17,32.72,44.17,32.75,44.2C32.81,44.2,32.9,44.2,32.96,44.2C33.44,44.2,33.86,44.29,34.28,44.47C34.37,44.47,34.49,44.47,34.58,44.47C35.21,44.41,35.87,44.32,36.5,44.26C36.98,44.2,37.46,44.17,37.97,44.11C39.56,43.87,40.28,43.42,41.75,42.88C41.75,42.88,41.81,42.88,41.84,42.85C42.98,39.82,44.09,37.39,44.09,37.39C44.09,37.39,43.55,35.92,43.1,35.41C39.71,31.57,31.4,33.82,28.88,34.93C28.52,35.08,28.16,35.29,27.8,35.5C27.8,35.56,27.8,35.59,27.8,35.65L27.8,35.59C27.8,36.16,27.8,36.76,27.83,37.33Z" fill="currentColor"/><path d="M54.71,39.88C56.6,40.39,62,40.78,63.68,36.73L60.41,36.97C60.41,36.97,56.66,36.19,51.92,37.09L51.95,37.12C51.95,37.12,52.58,39.31,54.71,39.88Z" fill="currentColor"/><path d="M54.69,38.83C56.78,39.79,60.77,39.79,62.45,36.85C60.27,36.85,57.45,35.95,52.49,36.85L52.49,36.88C52.73,37.18,53.42,38.08,54.69,38.83Z" fill="currentColor"/><path d="M57.56,36.25C56.33,36.25,55.34,37.12,55.34,38.2C55.34,39.28,56.33,40.15,57.56,40.15C58.79,40.15,59.78,39.28,59.78,38.2C59.78,37.12,58.79,36.25,57.56,36.25Z" fill="currentColor"/><path d="M60.59,38.35C60.59,38.73,60.22,39.04,59.75,39.04C59.29,39.04,58.91,38.73,58.91,38.35C58.91,37.97,59.29,37.66,59.75,37.66C60.22,37.66,60.59,37.97,60.59,38.35Z" fill="currentColor"/><path d="M36.56,44.83C38.45,44.68,40.7,44.65,41.66,43.75C41.96,43.48,42.11,43.12,42.11,42.76L42.11,42.61C42.11,42.04,42.35,41.5,41.69,41.62C35.18,42.82,30.53,41.68,30.53,41.68C30.53,41.68,28.16,41.23,27.02,40.27C26.99,40.27,27.02,40.06,27.02,40.06C28.01,42.07,29.42,44.71,32.15,44.83L32.12,44.83Z" fill="currentColor"/><path d="M56.6,44.83C54.72,44.68,52.47,44.65,51.51,43.75C51.2,43.48,51.05,43.12,51.05,42.76L51.05,42.61C51.05,42.04,50.81,41.5,51.48,41.62C57.98,42.82,62.63,41.68,62.63,41.68C62.63,41.68,65,41.23,66.14,40.27C66.17,40.27,66.14,40.06,66.14,40.06C65.16,42.07,63.74,44.71,61.02,44.83L61.05,44.83Z" fill="currentColor"/><path d="M38.75,39.88C36.89,40.39,31.37,40.78,29.72,36.73L33.14,36.97C33.14,36.97,36.83,36.19,41.45,37.09L41.45,37.12C41.45,37.12,40.85,39.31,38.75,39.88Z" fill="currentColor"/><path d="M38.84,38.83C36.74,39.79,32.75,39.79,31.07,36.85C33.26,36.85,36.08,35.95,41.03,36.85L41.03,36.88C40.79,37.18,40.1,38.08,38.84,38.83Z" fill="currentColor"/><path d="M38.3,38.2C38.3,39.28,37.31,40.15,36.09,40.15C34.86,40.15,33.87,39.28,33.87,38.2C33.87,37.12,34.86,36.25,36.09,36.25C37.31,36.25,38.3,37.12,38.3,38.2Z" fill="currentColor"/><path d="M39.02,38.35C39.02,38.73,38.65,39.04,38.19,39.04C37.72,39.04,37.34,38.73,37.34,38.35C37.34,37.97,37.72,37.66,38.19,37.66C38.65,37.66,39.02,37.97,39.02,38.35Z" fill="currentColor"/><path d="M40.85,15.25C40.85,12.97,43.52,11.14,46.8,11.14C50.06,11.14,52.7,13.03,52.67,15.31C52.67,15.88,52.49,16.45,52.2,16.93L41.37,16.93C41.03,16.42,40.85,15.85,40.85,15.25Z" fill="currentColor"/><path d="M40.85,16.51C40.85,14.23,43.52,12.4,46.8,12.4C50.06,12.4,52.7,14.29,52.67,16.57C52.67,16.69,52.65,16.81,52.62,16.93L40.91,16.93C40.91,16.93,40.85,16.66,40.85,16.51Z" fill="currentColor"/><path d="M44.36,21.94L44.36,25.33L36.62,24.52C35.57,24.1,31.76,20.2,31.73,18.97L31.31,7.51L36.71,3.76L34.67,18.19L44.54,20.98L44.57,20.95C44.42,21.25,44.36,21.58,44.36,21.94Z" fill="currentColor"/><path d="M61.85,18.94C61.83,20.17,57.98,24.07,56.97,24.49L49.23,25.3L49.23,21.91C49.23,21.55,49.13,21.22,49.02,20.92L58.88,18.13L56.84,3.7L62.24,7.45L62.27,7.48Z" fill="currentColor"/><path d="M49.2,27.82L49.2,21.94C49.2,20.59,48.12,19.51,46.77,19.51C45.41,19.51,44.34,20.59,44.34,21.94L44.34,27.82Z" fill="currentColor"/><path d="M25.46,85.54C25.46,85.54,22.97,78.55,26.51,74.86C26.51,74.86,23.75,85.6,31.79,87.88L31.22,85.51C31.22,85.51,35.6,90.85,43.31,89.35C43.31,89.35,39.5,86.98,38.48,82.18C38.48,82.18,45.32,85.84,52.31,84.7L53.45,78.88C53.45,78.88,53.42,87.82,53.84,87.58C54.26,87.34,59.36,78.97,59.36,78.97L59.36,81.91C59.36,81.91,63.56,78.76,65.78,69.34L62.84,81.04C62.84,81.04,70.82,75.55,71.51,63.67C71.75,59.53,65.03,54.1,63.11,54.46C63.11,54.46,64.04,58.36,63.2,60.13C63.2,60.13,59.75,59.68,58.67,55.72C57.59,51.76,55.76,47.29,51.86,44.77C51.86,44.77,55.22,50.77,52.58,56.47C50.93,60.07,49.16,61.48,49.16,61.48L46.61,60.31C46.61,60.31,47.09,52.39,44.06,51.61C44.06,51.61,45.65,62.62,37.19,61.12C33.95,60.55,23.69,55.66,21.5,61.75L21.5,61.81C19.31,67.9,18.35,77.62,25.46,85.54Z" fill="currentColor"/><path d="M59.58,70.12L62.3,68.92C62.3,68.92,57.77,78.58,57.66,78.97C57.53,79.36,63.2,72.34,63.2,72.34L61.08,78.61C60.23,79.6,59.63,80.11,59.63,80.11L60.3,77.71L55.34,83.08C55.34,78.76,59.99,71.44,59.99,71.44C55.16,75.67,51.84,72.16,51.84,72.16C57.41,73.42,58.59,70.3,58.59,70.3C53.58,71.14,53.09,67.36,53.09,67.36C54.63,69.13,57.92,68.98,59.97,67.27C60.17,67.06,62.19,64.96,63.3,63.01C65.81,58.45,63.38,54.46,63.38,54.46C63.38,54.46,64.94,55.39,65.72,58.06C66.27,59.92,65.22,64.78,61.91,68.11L61.91,68.08C60.35,69.64,59.58,70.12,59.58,70.12Z" fill="currentColor"/><path d="M32.13,88L31.46,85.51C31.46,85.51,36.38,91.03,43.98,89.53C43.98,89.53,39.87,87.46,38.91,81.97C38.91,81.97,45.69,86.11,52.23,84.64C52.23,84.64,47.52,82.84,41.81,77.92L47.03,82.66L37.44,76.6L40.91,80.17L37.2,78.01C37.2,78.01,37.91,79.75,37.55,79.45C37.2,79.15,34.77,79.06,34.77,79.06C34.77,79.06,36.56,80.98,36.27,80.71C35.97,80.44,34.23,80.2,34.23,80.2L40.1,87.76C40.1,87.76,34.88,86.29,31.25,79.81L31.46,83.2L29.52,80.92L29.52,84.34C29.52,84.34,26.84,82.33,26.34,75.73L26.3,75.73C26.3,75.73,24.02,85.51,32.13,88Z" fill="currentColor"/><path d="M35.06,77.38C35.06,77.38,33.92,76,32.87,73.69L36.2,75.88L34.25,71.71L45.11,76.99L42.92,73.9L49.28,79.51L46.67,72.82L51.53,75.97L49.73,72.37L53.84,75.58C53.84,75.58,52.61,71.71,47.96,71.02C43.31,70.33,41.81,69.94,41.81,69.94L44.63,72.82L39.95,70.45L41.36,72.82L38.96,71.23L40.1,73.33C40.1,73.33,35.9,70.3,33.11,69.4C30.32,68.5,32.96,72.37,32.96,72.37C32.96,72.37,29.18,71.38,27.17,68.68L27.23,68.71C27.23,68.71,29.78,76.57,35.06,77.38Z" fill="currentColor"/><path d="M70.1,32.92C69.53,29.44,68.75,25.63,67.4,21.55C66.32,18.22,64.1,15.49,61.25,13.9C59.81,13.12,58.16,10.3,56.42,9.49C53.63,5.29,49.46,5.05,46.73,5.05C44,5.05,40.25,5.71,37.1,9.37C35.3,10.15,33.53,13,32.03,13.78C28.94,15.4,26.6,18.37,25.55,21.97C24.38,25.99,22.91,36.31,23.45,32.89C23.51,32.53,23.03,35.5,22.82,37.21L22.16,37.21C22.37,31.78,24.41,17.14,25.58,13.12C26.63,9.52,28.97,6.55,32.06,4.93C36.38,2.65,42.65,-0.23,46.76,-0.23C50.87,-0.23,57.11,2.74,61.28,5.02C64.13,6.58,66.35,9.34,67.43,12.67C68.78,16.75,71.21,31.78,71.42,37.21L70.76,37.21L70.73,37.24C70.55,35.77,70.34,34.36,70.1,32.92Z" fill="currentColor"/><path d="M46.77,15.34C46.77,15.34,46.83,15.34,46.85,15.34C51.51,15.34,53.37,16.84,55.95,18.46L37.59,18.46C40.13,16.84,42.02,15.34,46.67,15.34C46.67,15.34,46.73,15.34,46.77,15.34Z" fill="currentColor"/><path d="M46.8,19.81C46.8,19.81,46.77,19.81,46.73,19.81C42.38,21.01,43.38,20.38,36.84,18.85C37.1,18.73,37.34,18.58,37.59,18.46L55.98,18.46C56.22,18.58,56.48,18.73,56.73,18.85C50.19,20.38,51.17,21.01,46.83,19.81L46.85,19.81C46.85,19.81,46.83,19.81,46.8,19.81Z" fill="currentColor"/><path d="M36.84,18.61C36.84,18.61,41.97,17.95,46.8,18.61C51.84,17.95,56.76,18.61,56.76,18.61" fill="none" stroke="currentColor" stroke-width="0.33" stroke-linecap="round" stroke-linejoin="round" opacity="0.59"/><path d="M60.95,16.3C63.51,20.5,56.94,22.75,55.59,26.32C57.9,23.65,64.85,20.26,60.95,16.3Z" fill="currentColor"/><path d="M32.57,16.3C28.67,20.29,35.6,23.65,37.94,26.32C36.59,22.75,30.02,20.5,32.57,16.3Z" fill="currentColor"/><path d="M49.31,35.38C49.31,35.59,49.31,37.27,49.31,37.45C49.31,40.03,48.95,40.12,46.79,40.12L46.73,40.12C44.57,40.12,44.21,40.03,44.21,37.45C44.21,37.24,44.21,35.56,44.21,35.38C44.27,31.75,42.26,29.86,42.23,29.83C39.83,29.05,39.5,24.97,43.46,25.42C44.6,24.94,44.69,24.13,46.55,24.13C46.61,24.13,46.67,24.13,46.73,24.13C46.82,24.13,46.91,24.13,47,24.13C48.83,24.13,48.95,24.94,50.09,25.42C54.05,24.97,53.72,29.02,51.32,29.83L51.29,29.83C51.29,29.83,49.25,31.75,49.31,35.38Z" fill="currentColor"/><path d="M44.88,40.3L44.88,30.52L43.98,27.64C43.98,26.29,45.38,25.21,46.73,25.21C48.09,25.21,49.49,26.29,49.49,27.64L48.59,30.52L48.59,40.3C48.59,41.65,48.05,42.73,46.73,42.73C45.38,42.73,44.88,41.65,44.88,40.3Z" fill="currentColor"/><path d="M32.81,54.28L31.52,57.94L35.94,52.99C35.94,52.99,33.17,60.52,31.34,63.64C29.52,66.76,25.38,66.58,25.38,66.58C28.91,58.21,32.81,54.28,32.81,54.28Z" fill="currentColor"/><path d="M39.44,61.21C40.97,58.51,41.09,56.47,41.12,55.57C41.12,55.57,37.07,61.57,35.39,63.4C34.31,64.63,33.68,66.49,36.2,65.74C42.68,63.79,43.13,58.75,43.13,58.75L43.16,58.75C40.4,61.6,39.44,61.21,39.44,61.21Z" fill="currentColor"/><path d="M55.1,52C55.1,52,57.12,56.65,55.2,61.9C55.2,61.9,56.34,62.2,59.34,59.5C59.34,59.5,57.12,65.92,48.92,67.72C46.52,68.26,46.83,66.37,46.83,66.37L46.83,66.34C54.35,59.5,55.47,54.28,55.1,52Z" fill="currentColor"/><path d="M39.71,67.87C38.18,68.44,38,70.3,40.61,69.37C47.27,67,47.15,57.82,46.34,54.22C46.34,54.22,47.12,65.14,39.71,67.87Z" fill="currentColor"/></svg>