<svg xmlns="http://www.w3.org/2000/svg" viewBox="0 0 90 90"><path d="M0,0.09L0,88.25L90,88.25L90,0.09Z" fill="white"/><path d="M15,0.09L15,88.25L75,88.25L75,0.09Z" fill="white"/><path d="M15.87,29.12L74.4,26.36L73.74,42.05L16.65,44.17Z" fill="url(#paint0_linear_119_7781)"/><path d="M17.19,40.2C14.43,40.97,15.06,42.44,15.06,42.44C15.06,42.44,17.28,47.29,17.37,55.6C17.46,63.92,22.72,61.66,22.72,61.66L25.45,53.93L22.69,47.14L20.56,43.29L20.56,43.26C20.56,42.76,19.95,39.44,17.19,40.2Z" fill="url(#paint1_radial_119_7781)"/><path d="M72.78,39.32C75.54,40.06,74.94,41.53,74.94,41.53C74.94,41.53,73.11,46.9,73.08,55.22C73.05,63.54,66.35,61.24,66.35,61.24L62.45,53.49L66.62,46.73L69.71,42.91L69.74,42.91C69.74,42.41,70.01,38.59,72.78,39.32Z" fill="url(#paint2_radial_119_7781)"/><path d="M50.08,50.87L54.1,46.64L63.68,35.41L66.29,28.01L67.25,19.31L73.11,20.84C73.11,20.84,72.27,13.87,61.01,8.64C49.77,3.41,47.97,0.09,44.64,0.09C38.78,0.09,33.35,6.67,24.82,9.67C17.01,12.43,14.7,28.98,16.68,36.35C18.3,42.47,18.3,47.34,19.5,50.87Z" fill="url(#paint3_linear_119_7781)"/><path d="M48.33,11.52C48.54,15.16,46.95,19.25,42.81,24.36L42.06,24.69L43.17,25.6L43.86,25.33C48.24,19.93,49.98,15.49,49.71,11.46C49.56,9.17,48.39,7.08,46.32,5.47C45.42,4.76,41.28,2.56,39.38,1.62C39.38,1.62,38.81,1.88,38.42,2.12C38.03,2.35,37.58,2.62,37.58,2.62C40.59,3.76,44.13,5.58,45.48,6.64L45.51,6.61C47.28,7.99,48.24,9.64,48.33,11.52Z" fill="#231F20"/><path d="M55.75,10.32C55.96,13.96,54.67,18.16,50.53,23.28L50.35,23.51L51.46,24.42L51.61,24.22C55.99,18.81,57.4,14.25,57.16,10.23C57.1,9.02,56.74,7.52,56.02,6.14C56.02,6.14,54.91,5.53,54.28,5.14C53.65,4.76,52.18,3.88,52.18,3.88C52.48,4.09,52.78,4.29,53.05,4.5C54.46,5.61,55.6,7.82,55.75,10.32Z" fill="#231F20"/><path d="M33.44,26.36L33.26,26.6L34.37,27.54L34.52,27.33C38.9,21.81,41.19,17.16,40.95,13.05C40.8,10.58,39.47,8.26,37.1,6.35C36.32,5.73,35.21,5.2,34.19,4.73L32.69,5.67C33.98,6.2,35.3,6.82,36.23,7.58C37.64,8.73,39.35,10.61,39.5,13.17L39.53,13.14C39.74,16.87,37.58,21.13,33.44,26.36Z" fill="#231F20"/><path d="M63.56,12.81C63.5,12.87,64.46,11.87,64.4,11.9C64.01,12.14,63.65,12.2,63.29,12.14L60.92,15.34L60.32,20.75L63.74,32.5C63.74,32.5,64.91,43.76,66.86,50.87L71.25,50.87C72.18,47.61,71.61,42.47,72.96,36C75.36,24.36,74.67,22.04,70.98,16.43L71.01,16.43C70.2,15.22,66.56,12.17,63.56,12.81Z" fill="url(#paint4_linear_119_7781)"/><path d="M71.37,33.94L68.78,27.13C67.28,19.31,62.6,16.52,54.16,20.22C48.63,22.92,47.04,23.07,45.33,23.33C43.62,23.07,41.94,22.45,36.41,19.78C26.29,16.34,22.99,19.45,22.18,27.3L19.32,33.94L20.14,41.85L19.98,45.23C19.68,47.26,19.38,50.55,19.71,52.55L20.32,56.89C20.62,59.07,20.44,61.27,20.65,63.45C20.98,67,22.93,72.15,24.94,74.82C27.22,77.88,31.13,80.26,35.54,84.23C38.45,86.84,42.36,88.22,45.36,88.22C48.36,88.22,52.27,86.9,55.18,84.23C59.74,80.05,63.5,77.85,65.78,74.82C67.79,72.15,69.71,67,70.08,63.45C70.29,61.24,70.08,59.07,70.41,56.89L71.01,52.55C71.34,50.52,71.01,47.23,70.74,45.23L70.59,41.85L70.56,41.85Z" fill="#FCCEAB"/><path d="M45.33,23.36C64.7,24.36,71.34,33.94,71.34,33.94L68.75,27.13C67.25,19.31,62.57,16.52,54.13,20.22L54.16,20.25C48.63,22.95,47.04,23.1,45.33,23.36Z" fill="url(#paint5_linear_119_7781)"/><path d="M36.44,19.81C26.32,16.37,23.02,19.48,22.21,27.33L21.55,28.86C22.96,27.39,28.87,22.51,45.36,23.39L45.36,23.36C43.65,23.1,41.97,22.48,36.44,19.81Z" fill="url(#paint6_linear_119_7781)"/><path d="M70.71,45.26L70.56,41.88L71.37,33.97L68.78,27.15C68.69,26.65,68.57,26.18,68.45,25.74C69.65,32.74,67.67,44.23,67.67,44.23C67.67,44.23,64.58,47.31,63.8,47.05C59.44,45.61,52.36,48.96,52.36,48.96C52.36,48.96,51.61,49.69,53.95,50.84C55.21,51.46,61.07,50.66,65.87,53.43C66.89,54.01,68.39,54.98,69.59,57.72L70.17,61.24L70.17,60.36C70.2,59.22,70.23,58.07,70.38,56.92L70.98,52.57C71.31,50.55,70.98,47.26,70.71,45.26Z" fill="url(#paint7_linear_119_7781)"/><path d="M20.01,45.26L20.17,41.88L19.35,33.97L21.55,28.86C21.64,28.36,22.09,27.77,22.21,27.33C21.01,34.33,23.05,44.23,23.05,44.23C23.05,44.23,26.14,47.31,26.92,47.05C31.28,45.61,38.36,48.96,38.36,48.96C38.36,48.96,39.11,49.69,36.77,50.84C35.51,51.46,29.65,50.66,24.85,53.43C23.83,54.01,22.33,54.98,21.13,57.72L20.56,61.24L20.56,60.36C20.53,59.22,20.5,58.07,20.35,56.92L19.74,52.57C19.41,50.55,19.74,47.26,20.01,45.26Z" fill="url(#paint8_linear_119_7781)"/><path d="M49.41,45.14C48.96,45.52,48.69,46.11,48.78,46.67C49.14,48.75,51.28,50.66,55.69,52.31C57.64,53.05,61.88,51.05,63.53,50.25C67.76,48.17,69.23,46.96,67.22,43.49C67.22,43.46,67.22,43.41,67.22,43.35C65.66,38.82,55.66,41.58,54.16,41.2L54.16,41.23Z" fill="url(#paint9_linear_119_7781)"/><path d="M63.98,44.82C61.46,41.26,53.98,45.29,53.11,45.99L53.26,46.26C53.26,46.26,54.58,45.76,55.99,45.52C55.99,45.52,61.58,45.52,62.54,46.4L64.04,47.05C64.76,45.79,63.98,44.82,63.98,44.82Z" fill="url(#paint10_linear_119_7781)"/><path d="M41.28,45.55C41.73,45.93,42,46.52,41.91,47.08C41.55,49.17,40.26,50.93,35.72,51.43C33.65,51.66,29.5,52.08,27.85,51.25C23.62,49.17,21.46,47.34,23.44,43.91C23.44,43.88,23.44,43.82,23.44,43.76C25,39.23,35,42,36.5,41.61L36.53,41.64Z" fill="url(#paint11_linear_119_7781)"/><path d="M33.62,43.88C30.98,43.58,24.13,43.88,25.6,46.08C25.75,46.29,26.92,47.29,26.92,47.29C26.92,47.29,26.92,45.82,30.59,45.58C33.47,45.4,35.63,45.17,36.74,45.67C36.98,45.79,37.16,45.52,37.16,45.52L37.19,45.55C37.19,45.55,36.26,44.17,33.62,43.88Z" fill="url(#paint12_linear_119_7781)"/><path d="M48.54,77.88C49.95,77.88,51.25,78.2,52.45,78.76C52.03,77.58,53.41,78.2,50.1,75.82C45.36,72.41,40.83,75.82,40.83,75.82C39.17,76.94,38.12,78.67,38.12,80.58C38.12,82.14,38.81,83.55,39.95,84.64L39.95,84.67C40.8,80.79,44.31,77.88,48.54,77.88Z" fill="url(#paint13_linear_119_7781)"/><path d="M38.72,48.58C38.72,48.58,32.54,49.46,30.37,48.87C28.72,48.43,27.49,47.73,27.49,47.73C27.49,47.73,27.94,46.81,28.03,46.7C29.02,45.61,30.4,45.11,31.82,45.23C34.4,45.46,36.74,45.73,38.72,48.31L38.72,48.34Z" fill="white"/><path d="M38.72,48.58C38.72,48.58,32.54,49.46,30.37,48.87C28.72,48.43,27.49,47.73,27.49,47.73C27.49,47.73,27.94,46.81,28.03,46.7C29.02,45.61,30.4,45.11,31.82,45.23C34.4,45.46,36.74,45.73,38.72,48.31L38.72,48.34Z" fill="white"/><path d="M33.29,49.69C34.7,49.67,35.81,48.49,35.78,47.08C35.75,45.67,34.61,44.55,33.2,44.58C31.79,44.61,30.68,45.79,30.71,47.2C30.71,48.61,31.88,49.72,33.29,49.69Z" fill="url(#paint14_linear_119_7781)"/><path d="M31.41,47.52C31.04,47.51,30.75,47.82,30.74,48.19C30.74,48.56,31.04,48.87,31.4,48.87C31.77,48.87,32.06,48.57,32.06,48.19C32.07,47.82,31.77,47.52,31.41,47.52Z" fill="white"/><path d="M28.48,46.61C29.05,46.2,29.74,45.96,30.44,46.02L36.17,46.17L35.06,45.32L30.74,45.17C30.74,45.17,27.34,45.67,26.86,47.08L27.52,47.73L27.49,47.73Z" fill="url(#paint15_linear_119_7781)"/><path d="M35.78,39.41L31.31,39.76L31.94,39C30.26,39,28.39,39.14,26.5,39.7C25.03,40.44,23.65,41.61,22.9,43.58L22.96,44.02C28.45,42.17,30.32,42.58,34.25,42.26C34.97,42.2,39.41,42.88,39.41,42.88L38.57,40.14C38.06,39.97,37.07,39.67,35.78,39.41Z" fill="url(#paint16_linear_119_7781)"/><path d="M61.37,67.39C61.61,70.12,60.53,70.38,60.53,70.38C60.53,70.38,57.97,66.56,53.05,65.42C48.12,64.3,52.18,58.72,52.18,58.72L52.15,58.72C55.45,61.21,61.13,64.65,61.37,67.39Z" fill="url(#paint17_linear_119_7781)"/><path d="M29.14,67.5C28.9,70.24,29.98,70.5,29.98,70.5C29.98,70.5,32.54,66.68,37.46,65.53C42.39,64.39,38.33,58.83,38.33,58.83L38.36,58.83C35.06,61.33,29.38,64.77,29.14,67.5Z" fill="url(#paint18_linear_119_7781)"/><path d="M47.7,47.02L42.81,47.02C42.81,54.75,41.55,57.04,40.32,58.98C40.04,59.42,39.41,59.92,38.84,60.33C37.97,60.95,37.73,62.13,38.09,63.18C38.87,65.33,41.88,63.24,43.92,65.09L46.77,65.09C48.84,63.24,51.64,64.8,52.39,63.57C53.11,62.45,52.75,60.92,51.64,60.22C51.1,59.86,50.53,59.48,50.32,59.19L50.35,59.16C49.17,57.42,47.7,55.25,47.7,47.02Z" fill="url(#paint19_linear_119_7781)"/><path d="M35.33,69.44L35.51,69.53C38.69,70.71,42.3,70.71,45.69,70.74L45.69,71.82L45.03,71.82L45.03,70.74C48.54,70.71,52.36,70.68,55.63,69.47C57.82,70.53,58.09,70.85,55.51,70.09C53.62,71.47,48.24,71.77,45.03,71.82L45.03,70.74L45.69,70.74L45.69,71.82C43.05,71.77,40.35,71.65,37.73,71C36.86,70.77,36.02,70.53,35.18,70.06L35.45,70.06C34.64,70.33,33.8,70.56,32.93,70.68L32.93,70.65C33.74,70.27,34.52,69.85,35.33,69.44Z" fill="#E6988E"/><path d="M54.22,38.59C53.86,38.76,53.95,39.73,53.59,39.91C53.26,40.09,53.08,39.17,52.78,39.35C51.31,40.11,50.74,41.79,51.4,43.23C51.4,43.23,60.65,39.32,64.73,41.53C66.59,42.52,66.71,43.32,67.01,44.11L67.67,44.17C67.49,42.61,66.38,38.97,64.19,37.15L64.19,37.18C62.84,37.06,56.59,37.41,54.22,38.59Z" fill="url(#paint20_linear_119_7781)"/><path d="M51.19,64.07C51.34,64.01,51.19,63.65,50.59,63.51C50.16,63.39,49.62,63.27,49.05,63.13C48.15,62.89,46.8,65.04,46.8,65.04C48.84,63.77,50.92,64.15,51.19,64.07Z" fill="#CB8C73"/><path d="M39.53,64.09C39.38,64.04,39.53,63.68,40.14,63.54C40.56,63.42,41.1,63.3,41.67,63.15C42.57,62.92,43.92,65.06,43.92,65.06C41.88,63.8,39.8,64.18,39.53,64.09Z" fill="#CB8C73"/><path d="M45.36,59.13C43.53,59.13,42.84,59.63,42.03,61.36C41.25,63.01,43.53,64.62,45.36,64.62C47.19,64.62,49.5,62.98,48.69,61.36C47.85,59.63,47.19,59.13,45.36,59.13Z" fill="url(#paint21_linear_119_7781)"/><path d="M52,48.58C52,48.58,58.18,49.46,60.35,48.87C62,48.43,63.23,47.61,63.23,47.61C63.23,47.61,62.78,46.81,62.69,46.73C61.7,45.64,60.32,45.14,58.9,45.26C56.32,45.49,53.35,46.05,52,48.43L52,48.4Z" fill="white"/><path d="M52,48.58C52,48.58,58.18,49.46,60.35,48.87C62,48.43,63.23,47.61,63.23,47.61C63.23,47.61,62.78,46.81,62.69,46.73C61.7,45.64,60.32,45.14,58.9,45.26C56.32,45.49,53.35,46.05,52,48.43L52,48.4Z" fill="white"/><path d="M57.52,49.69C58.93,49.67,60.05,48.49,60.02,47.08C59.98,45.67,58.84,44.55,57.43,44.58C56.02,44.61,54.91,45.79,54.94,47.2C54.94,48.61,56.11,49.72,57.52,49.69Z" fill="url(#paint22_linear_119_7781)"/><path d="M55.65,47.55C55.29,47.54,54.99,47.85,54.99,48.22C54.99,48.59,55.28,48.9,55.65,48.9C56.01,48.9,56.31,48.6,56.31,48.22C56.31,47.85,56.02,47.55,55.65,47.55Z" fill="white"/><path d="M54.58,46.17L55.69,45.32L60.02,45.17C60.02,45.17,63.32,45.64,63.8,47.05L63.23,47.61C61.34,44.88,54.58,46.17,54.58,46.17Z" fill="url(#paint23_linear_119_7781)"/><path d="M45.24,69.03C42.63,69.03,43.92,65.06,43.92,65.06L46.77,65.06L46.8,65.04C47.13,67.21,47.85,69.03,45.24,69.03Z" fill="url(#paint24_linear_119_7781)"/><path d="M65.63,29.68C68.93,31.3,69.14,35.03,69.14,35.03C69.14,35.03,67.85,30.03,61.1,30.53C55.81,30.95,51.67,32.3,51.67,32.3L51.67,32.33C56.92,30.09,62.33,28.07,65.63,29.68Z" fill="url(#paint25_linear_119_7781)"/><path d="M64.19,49.75C64.19,49.75,65.36,48.14,63.29,49.55C61.22,50.96,59.17,50.93,59.17,50.93C60.02,51.05,62.51,51.52,64.19,49.75Z" fill="url(#paint26_linear_119_7781)"/><path d="M25.42,49.72C25.42,49.72,23.98,48.08,26.53,49.61C29.08,51.13,31.55,51.22,31.55,51.22L31.58,51.22C30.56,51.25,27.49,51.55,25.42,49.72Z" fill="url(#paint27_linear_119_7781)"/><path d="M62.6,74.17C62.6,74.17,66.92,72.53,66.44,66.71C66.14,63.15,65.21,72.53,62.6,74.17Z" fill="url(#paint28_linear_119_7781)"/><path d="M27.49,73.85C27.49,73.85,23.17,72.21,23.65,66.39C23.95,62.83,24.88,72.21,27.49,73.85Z" fill="url(#paint29_linear_119_7781)"/></svg>