<svg xmlns="http://www.w3.org/2000/svg" viewBox="0 0 90 90"><path d="M0,0.09L0,88.25L90,88.25L90,0.09Z" fill="currentColor"/><path d="M7.5,0.09L7.5,88.25L82.02,88.25L82.02,0.09Z" fill="currentColor"/><path d="M46.02,48.67C34.05,53.34,24.24,46.37,23.52,44.2C22.8,42.02,25.35,35.68,28.08,33.88C30.81,32.09,41.46,34.3,41.46,34.3L41.46,34.27C45.6,38.23,47.04,42.11,46.02,48.67Z" fill="currentColor"/><path d="M49.44,48.67C61.41,53.34,71.22,46.37,71.94,44.2C72.66,42.02,70.89,34.38,68.61,32.09C64.86,28.33,54.21,32.39,54.21,32.39C50.07,36.35,48.42,42.11,49.44,48.67Z" fill="currentColor"/><path d="M41.52,35.24C39.03,34.74,32.67,33.53,31.29,33.36C29.55,33.12,25.89,35.29,25.89,35.29C25.89,35.29,28.56,32.68,30.84,32.09C32.64,31.62,39.24,32.68,41.94,33.15C42.57,33.27,42.96,33.85,42.81,34.44L42.78,34.44C42.63,35,42.09,35.35,41.52,35.24Z" fill="currentColor"/><path d="M54.36,32.86C56.85,32.36,63.21,31.15,64.59,30.97C66.33,30.74,69.99,32.91,69.99,32.91C69.99,32.91,67.32,30.3,65.04,29.71C63.24,29.24,56.64,30.3,53.94,30.77C53.31,30.89,52.92,31.47,53.07,32.06L53.1,32.06C53.25,32.62,53.79,32.97,54.36,32.86Z" fill="currentColor"/><path d="M47.97,58.01C50.52,57.92,52.86,55.63,52.86,55.63C52.86,55.63,49.68,57.04,47.73,57.04C45.78,57.04,42.6,56.22,42.6,56.22C42.6,56.22,45.42,58.07,47.97,58.01Z" fill="currentColor"/><path d="M48.54,63.15C53.31,63.21,58.08,61.95,61.02,61.01C59.43,64.8,52.98,68.94,48.54,69.24C45,69.47,38.16,67.06,35.64,60.66L35.64,60.63C38.61,62.07,43.77,63.1,48.54,63.15Z" fill="currentColor"/><path d="M25.2,31.92C21.18,31.42,18,30.68,16.23,29.95C16.29,28.83,16.59,27.57,17.1,26.13C17.67,24.57,18.39,23.07,19.23,21.57C20.4,24.07,23.55,25.71,27.81,26.6C26.85,28.21,25.95,29.98,25.2,31.92Z" fill="currentColor" opacity="0.4"/><path d="M64.23,60.13C60.66,59.8,58.02,57.1,58.29,54.04C58.56,50.99,61.68,48.78,65.25,49.11C68.82,49.43,71.46,52.13,71.19,55.19C70.92,58.25,67.8,60.45,64.23,60.13Z" fill="currentColor" opacity="0.2"/><path d="M31.26,60.04C34.5,59.75,36.9,57.04,36.63,54.01C36.36,50.96,33.48,48.73,30.24,49.02C27,49.31,24.6,52.02,24.87,55.04C25.14,58.1,28.02,60.33,31.26,60.04Z" fill="currentColor" opacity="0.2"/><path d="M77.31,27.3C77.31,27.3,58.32,54.93,47.22,77.5C36.15,54.93,17.1,20.6,17.1,20.6C13.86,30.12,2.73,35.91,9.84,61.1C13.74,74.82,20.31,88.25,20.31,88.25C24.12,84.99,47.79,79.67,63.33,80.76C80.49,81.96,77.79,74.23,81.06,61.89L81.06,61.86C83.61,45.93,80.55,36.85,77.31,27.3Z" fill="currentColor"/><path d="M37.65,1.41C28.2,4.41,7.08,13.08,15.09,50.96C15.3,52.63,81.57,58.22,81.57,58.22C82.41,50.9,83.04,18.4,72.6,16.05L72.6,16.02C70.83,-0.47,47.22,-1.62,37.65,1.41Z" fill="currentColor"/><path d="M24.75,26.77C24.75,26.77,24.87,24.6,26.28,51.46C27.54,55.04,30.18,64.65,36.21,70.44C36.21,70.44,54.9,84.61,44.49,81.67C32.19,78.2,20.31,72.79,16.29,60.45C10.92,33.74,24.75,26.77,24.75,26.77Z" fill="currentColor"/><path d="M18.33,20.25C13.2,30.71,14.4,44.9,21.3,62.16C23.37,67.36,24.57,76.32,24.39,80.11C24.81,80.35,25.2,80.61,25.62,80.85C25.92,76.76,24.75,67.42,22.47,61.71C15.72,44.79,14.7,31.03,19.47,20.78C23.85,11.34,38.58,12.11,41.28,13.72C45.93,16.46,47.73,17.72,47.76,17.78L48.99,17.54C48.93,17.28,47.07,15.69,41.94,12.7L41.91,12.7C38.88,10.9,23.91,8.88,18.33,20.25Z" fill="currentColor"/><path d="M28.56,63.18C28.56,63.18,31.29,72.88,30.42,81.64C30.81,81.85,31.2,82.08,31.59,82.29C32.61,73,29.76,62.95,29.73,62.83L29.76,62.83Z" fill="currentColor"/><path d="M34.29,71.15C34.8,74.82,34.98,78.88,34.74,82.08C35.13,82.23,35.55,82.37,35.94,82.52C36.21,79.14,36.06,74.88,35.49,70.97L35.52,70.97Z" fill="currentColor"/><path d="M33.75,4.76C32.31,4.85,30.96,5.05,29.67,5.32C29.55,5.41,27.72,6.7,26.85,7.41C28.95,6.64,31.26,6.14,33.84,5.97C40.05,5.61,44.73,6.99,47.73,10.11C52.32,14.87,52.05,17.52,52.05,17.6L53.28,17.75C53.31,17.43,53.61,14.49,48.63,9.29C45.36,5.88,40.35,4.35,33.75,4.76Z" fill="currentColor"/><path d="M54,2.29C52.71,1.85,51.36,1.62,50.88,1.53C52.59,2.56,54.03,3.85,55.11,5.47C59.7,12.25,57.72,17.43,57.69,17.52L58.89,17.84C59.01,17.43,61.05,12.05,56.16,4.82L56.16,4.79C55.53,3.88,54.81,3.03,54,2.29Z" fill="currentColor"/><path d="M69.03,26.51L69.54,27.62C69.54,27.62,75.15,25.24,79.41,27.57C79.68,27.71,79.95,27.89,80.19,28.07L79.8,26.39C75.03,23.98,69.3,26.39,69.03,26.51Z" fill="currentColor"/><path d="M78.6,34.09C74.58,30.42,69.96,31.33,69.78,31.36L70.05,32.56C70.05,32.56,74.22,31.74,77.76,34.97C79.32,36.38,80.91,38.76,81.93,42.61L81.69,38.29L81.69,38.32C80.85,36.65,79.83,35.21,78.6,34.09Z" fill="currentColor"/><path d="M47.52,16.02C47.46,16.02,47.4,16.02,47.37,16.02C22.8,16.02,24,24.39,24,45.79C24,49.46,24,52.57,24.21,55.37C24.21,64.24,28.11,68.33,35.19,74.73C36.81,76.23,38.16,77.64,39.45,78.85C40.38,79.79,41.31,80.55,42.3,81.17C43.77,82.11,45.36,82.7,47.37,82.7C47.43,82.7,47.49,82.7,47.52,82.7C47.58,82.7,47.64,82.7,47.67,82.7C49.68,82.7,51.27,82.11,52.74,81.17C53.73,80.55,54.66,79.76,55.59,78.85C56.88,77.64,58.23,76.23,59.85,74.73C66.93,68.33,70.83,64.24,70.83,55.37C71.04,52.57,71.04,49.46,71.04,45.79C71.04,24.42,72.24,16.02,47.67,16.02C47.67,16.02,47.55,16.02,47.52,16.02Z" fill="currentColor"/><path d="M54.39,38.67C56.76,38,62.82,36.32,64.14,36.06C65.1,35.88,69.27,38.73,69.27,38.73C69.27,38.73,66.72,35.15,64.56,34.33C62.85,33.68,56.55,35.15,54,35.79C53.4,35.94,53.04,36.76,53.19,37.59C53.31,38.35,53.85,38.82,54.39,38.67Z" fill="currentColor"/><path d="M40.71,38.44C38.31,37.85,32.22,36.35,30.87,36.15C29.79,36.09,25.83,39,25.83,39C25.83,39,28.23,35.32,30.39,34.44C32.1,33.74,38.43,35,41.01,35.56C41.61,35.68,42,36.5,41.91,37.32L41.88,37.32C41.76,38.09,41.25,38.59,40.71,38.44Z" fill="currentColor"/><path d="M29.16,42.47C29.16,42.47,30.84,39.56,34.77,39.26C39.96,38.88,41.34,43.05,41.34,43.05L30.06,43.17L30.03,43.17Z" fill="currentColor"/><path d="M41.31,43.05C38.61,44.35,33.75,44.26,30.03,43.17C34.2,37.7,39.39,41.08,41.31,43.05Z" fill="currentColor"/><path d="M41.31,43.05C38.61,44.35,33.75,44.26,30.03,43.17C34.2,37.7,39.39,41.08,41.31,43.05Z" fill="currentColor"/><path d="M35.97,44.32C34.68,44.58,33.36,43.76,33.09,42.44C32.82,41.11,33.63,39.82,34.92,39.56C36.21,39.29,37.53,40.11,37.8,41.44C38.1,42.76,37.26,44.05,35.97,44.32Z" fill="currentColor"/><path d="M65.85,42.47C65.85,42.47,64.17,39.56,60.24,39.26C55.05,38.88,53.67,43.05,53.67,43.05L64.95,43.17L64.98,43.17Z" fill="currentColor"/><path d="M53.7,43.05C56.4,44.35,61.26,44.26,64.98,43.17C60.81,37.7,55.62,41.08,53.7,43.05Z" fill="currentColor"/><path d="M53.7,43.05C56.4,44.35,61.26,44.26,64.98,43.17C60.81,37.7,55.62,41.08,53.7,43.05Z" fill="currentColor"/><path d="M59.07,44.32C60.36,44.58,61.68,43.76,61.95,42.44C62.22,41.11,61.41,39.82,60.12,39.56C58.83,39.29,57.51,40.11,57.24,41.44C56.94,42.76,57.78,44.05,59.07,44.32Z" fill="currentColor"/><path d="M59.61,42.49C60.03,42.58,60.42,42.35,60.48,41.97C60.54,41.58,60.3,41.23,59.88,41.14C59.46,41.05,59.07,41.29,59.01,41.67C58.92,42.05,59.19,42.41,59.61,42.49Z" fill="currentColor" opacity="0.3"/><path d="M75.36,52.63C76.41,48.58,76.83,43.44,75.87,41.11C75.54,40.29,74.73,39.5,73.86,40.29C71.88,42.05,70.59,45.61,70.59,45.61C70.59,45.61,70.65,53.16,70.86,56.04C71.1,58.81,73.68,58.22,75.18,53.28L75.18,53.25C75.24,53.05,75.3,52.87,75.36,52.63Z" fill="currentColor"/><path d="M75.18,53.25C75.24,53.05,75.3,52.87,75.36,52.63C76.41,48.58,76.83,43.44,75.87,41.11C74.4,41.38,72.66,45.7,72.27,50.69C73.71,49.4,75.45,50.84,72.75,55.37C73.71,54.96,74.52,54.16,75.18,53.25Z" fill="currentColor"/><path d="M47.76,56.78C50.31,56.69,52.65,54.4,52.65,54.4C52.65,54.4,49.47,55.81,47.52,55.81C45.57,55.81,42.39,54.98,42.39,54.98C42.39,54.98,45.21,56.84,47.76,56.78Z" fill="currentColor"/><path d="M31.05,55.37C35.64,56.81,40.05,55.78,40.95,53.1C41.82,50.43,38.82,47.08,34.23,45.64C29.64,44.2,25.23,45.23,24.33,47.9C23.46,50.58,26.46,53.93,31.05,55.37Z" fill="currentColor" opacity="0.3"/><path d="M64.11,55.37C59.52,56.81,55.11,55.78,54.21,53.1C53.34,50.43,56.34,47.08,60.93,45.64C65.52,44.2,69.93,45.23,70.83,47.9C71.7,50.58,68.7,53.93,64.11,55.37Z" fill="currentColor" opacity="0.3"/><path d="M46.08,70.41C46.26,70.41,47.37,70.41,47.55,70.41C47.73,70.41,48.9,70.41,49.08,70.41C52.95,70.41,53.67,67.3,58.68,61.83L36.39,61.83C40.74,67.47,42.21,70.41,46.08,70.41Z" fill="currentColor"/><path d="M40.17,63.07C42.27,65.8,44.58,66.42,46.95,66.42C47.13,66.42,47.31,66.42,47.49,66.42C47.67,66.42,47.85,66.42,48.03,66.42C50.4,66.42,52.71,65.8,54.81,63.07C54.81,63.07,54.81,63.04,54.81,63.01C54.81,63.01,40.2,63.07,40.17,63.01C40.17,63.01,40.17,63.04,40.17,63.07Z" fill="currentColor"/><path d="M48.39,60.25C48.09,60.25,47.82,60.25,47.52,60.25C47.22,60.25,46.92,60.25,46.65,60.25C43.08,60.25,36.39,61.86,36.39,61.86L58.68,61.86L58.65,61.86C58.65,61.86,51.93,60.25,48.39,60.25Z" fill="currentColor"/><path d="M21.93,33.03C21.93,33.03,26.22,32.21,28.62,24.33C31.29,15.61,44.97,14.78,45.54,14.75L45.6,15.96C45.6,15.96,32.22,16.78,29.82,24.66C27.18,33.33,22.35,34.18,22.14,34.21L22.11,34.24Z" fill="currentColor"/><path d="M35.52,42.49C35.94,42.58,36.33,42.35,36.39,41.97C36.45,41.58,36.21,41.23,35.79,41.14C35.37,41.05,34.98,41.29,34.92,41.67C34.83,42.05,35.1,42.41,35.52,42.49Z" fill="currentColor" opacity="0.3"/></svg>