<svg xmlns="http://www.w3.org/2000/svg" viewBox="0 0 90 90"><path d="M47.02,38.97C35.05,34.3,25.24,41.26,24.52,43.44C23.8,45.61,26.35,51.96,29.08,53.75C31.81,55.54,42.46,53.34,42.46,53.34L42.46,53.37C46.6,49.4,48.04,45.52,47.02,38.97Z" fill="currentColor"/><path d="M50.44,38.97C62.41,34.3,72.22,41.26,72.94,43.44C73.66,45.61,71.89,53.25,69.61,55.54C65.86,59.31,55.21,55.25,55.21,55.25C51.07,51.28,49.42,45.52,50.44,38.97Z" fill="currentColor"/><path d="M42.52,52.4C40.03,52.9,33.67,54.1,32.29,54.28C30.55,54.52,26.89,52.34,26.89,52.34C26.89,52.34,29.56,54.96,31.84,55.54C33.64,56.01,40.24,54.96,42.94,54.49C43.57,54.37,43.96,53.78,43.81,53.19L43.78,53.19C43.63,52.63,43.09,52.28,42.52,52.4Z" fill="currentColor"/><path d="M55.36,54.78C57.85,55.28,64.21,56.48,65.59,56.66C67.33,56.9,70.99,54.72,70.99,54.72C70.99,54.72,68.32,57.34,66.04,57.92C64.24,58.39,57.64,57.34,54.94,56.87C54.31,56.75,53.92,56.16,54.07,55.57L54.1,55.57C54.25,55.01,54.79,54.66,55.36,54.78Z" fill="currentColor"/><path d="M48.97,29.62C51.52,29.71,53.86,32,53.86,32C53.86,32,50.68,30.59,48.73,30.59C46.78,30.59,43.6,31.42,43.6,31.42C43.6,31.42,46.42,29.57,48.97,29.62Z" fill="currentColor"/><path d="M49.54,24.48C54.31,24.42,59.08,25.69,62.02,26.63C60.43,22.84,53.98,18.69,49.54,18.4C46,18.16,39.16,20.57,36.64,26.98L36.64,27.01C39.61,25.57,44.77,24.54,49.54,24.48Z" fill="currentColor"/><path d="M26.2,55.72C22.18,56.22,19,56.95,17.23,57.69C17.29,58.81,17.59,60.07,18.1,61.51C18.67,63.07,19.39,64.57,20.23,66.06C21.4,63.57,24.55,61.92,28.81,61.04C27.85,59.42,26.95,57.66,26.2,55.72Z" fill="currentColor" opacity="0.4"/><path d="M65.23,27.51C61.66,27.83,59.02,30.53,59.29,33.59C59.56,36.65,62.68,38.85,66.25,38.53C69.82,38.21,72.46,35.5,72.19,32.45C71.92,29.39,68.8,27.18,65.23,27.51Z" fill="currentColor" opacity="0.2"/><path d="M32.26,27.6C35.5,27.89,37.9,30.59,37.63,33.62C37.36,36.68,34.48,38.91,31.24,38.62C28,38.32,25.6,35.62,25.87,32.59C26.14,29.54,29.02,27.3,32.26,27.6Z" fill="currentColor" opacity="0.2"/><path d="M78.31,60.33C78.31,60.33,59.32,32.71,48.22,10.14C37.15,32.71,18.1,67.03,18.1,67.03C14.86,57.51,3.73,51.72,10.84,26.54C14.74,12.81,21.31,-0.62,21.31,-0.62C25.12,2.65,48.79,7.97,64.33,6.88C81.49,5.67,78.79,13.4,82.06,25.74L82.06,25.77C84.61,41.7,81.55,50.78,78.31,60.33Z" fill="currentColor"/><path d="M38.65,86.22C29.2,83.23,8.08,74.56,16.09,36.68C16.3,35,82.57,29.42,82.57,29.42C83.41,36.74,84.04,69.24,73.6,71.59L73.6,71.62C71.83,88.11,48.22,89.25,38.65,86.22Z" fill="currentColor"/><path d="M25.75,60.86C25.75,60.86,25.87,63.04,27.28,36.18C28.54,32.59,31.18,22.98,37.21,17.19C37.21,17.19,55.9,3.03,45.49,5.97C33.19,9.43,21.31,14.84,17.29,27.18C11.92,53.9,25.75,60.86,25.75,60.86Z" fill="currentColor"/><path d="M19.33,67.39C14.2,56.93,15.4,42.73,22.3,25.48C24.37,20.28,25.57,11.32,25.39,7.52C25.81,7.29,26.2,7.02,26.62,6.79C26.92,10.87,25.75,20.22,23.47,25.92C16.72,42.85,15.7,56.6,20.47,66.86C24.85,76.29,39.58,75.53,42.28,73.91C46.93,71.18,48.73,69.91,48.76,69.86L49.99,70.09C49.93,70.36,48.07,71.94,42.94,74.94L42.91,74.94C39.88,76.73,24.91,78.76,19.33,67.39Z" fill="currentColor"/><path d="M29.56,24.45C29.56,24.45,32.29,14.75,31.42,6C31.81,5.79,32.2,5.56,32.59,5.35C33.61,14.64,30.76,24.69,30.73,24.8L30.76,24.8Z" fill="currentColor"/><path d="M35.29,16.49C35.8,12.81,35.98,8.76,35.74,5.56C36.13,5.41,36.55,5.26,36.94,5.11C37.21,8.49,37.06,12.76,36.49,16.66L36.52,16.66Z" fill="currentColor"/><path d="M34.75,82.87C33.31,82.79,31.96,82.58,30.67,82.32C30.55,82.23,28.72,80.93,27.85,80.23C29.95,80.99,32.26,81.49,34.84,81.67C41.05,82.02,45.73,80.64,48.73,77.53C53.32,72.77,53.05,70.12,53.05,70.03L54.28,69.89C54.31,70.21,54.61,73.15,49.63,78.35C46.36,81.76,41.35,83.29,34.75,82.87Z" fill="currentColor"/><path d="M55,85.34C53.71,85.78,52.36,86.02,51.88,86.11C53.59,85.08,55.03,83.79,56.11,82.17C60.7,75.38,58.72,70.21,58.69,70.12L59.89,69.8C60.01,70.21,62.05,75.59,57.16,82.82L57.16,82.85C56.53,83.76,55.81,84.61,55,85.34Z" fill="currentColor"/><path d="M70.03,61.13L70.54,60.01C70.54,60.01,76.15,62.39,80.41,60.07C80.68,59.92,80.95,59.75,81.19,59.57L80.8,61.25C76.03,63.65,70.3,61.25,70.03,61.13Z" fill="currentColor"/><path d="M79.6,53.55C75.58,57.22,70.96,56.31,70.78,56.28L71.05,55.07C71.05,55.07,75.22,55.9,78.76,52.66C80.32,51.25,81.91,48.87,82.93,45.02L82.69,49.34L82.69,49.31C81.85,50.99,80.83,52.43,79.6,53.55Z" fill="currentColor"/><path d="M48.52,71.62C48.46,71.62,48.4,71.62,48.37,71.62C23.8,71.62,25,63.24,25,41.85C25,38.18,25,35.06,25.21,32.27C25.21,23.39,29.11,19.31,36.19,12.9C37.81,11.4,39.16,9.99,40.45,8.79C41.38,7.85,42.31,7.08,43.3,6.47C44.77,5.53,46.36,4.94,48.37,4.94C48.43,4.94,48.49,4.94,48.52,4.94C48.58,4.94,48.64,4.94,48.67,4.94C50.68,4.94,52.27,5.53,53.74,6.47C54.73,7.08,55.66,7.88,56.59,8.79C57.88,9.99,59.23,11.4,60.85,12.9C67.93,19.31,71.83,23.39,71.83,32.27C72.04,35.06,72.04,38.18,72.04,41.85C72.04,63.21,73.24,71.62,48.67,71.62C48.67,71.62,48.55,71.62,48.52,71.62Z" fill="currentColor"/><path d="M55.39,48.96C57.76,49.64,63.82,51.31,65.14,51.58C66.1,51.75,70.27,48.9,70.27,48.9C70.27,48.9,67.72,52.49,65.56,53.31C63.85,53.96,57.55,52.49,55,51.84C54.4,51.69,54.04,50.87,54.19,50.05C54.31,49.28,54.85,48.81,55.39,48.96Z" fill="currentColor"/><path d="M41.71,49.2C39.31,49.78,33.22,51.28,31.87,51.49C30.79,51.55,26.83,48.64,26.83,48.64C26.83,48.64,29.23,52.31,31.39,53.19C33.1,53.9,39.43,52.63,42.01,52.08C42.61,51.96,43,51.14,42.91,50.31L42.88,50.31C42.76,49.55,42.25,49.05,41.71,49.2Z" fill="currentColor"/><path d="M30.16,45.17C30.16,45.17,31.84,48.08,35.77,48.37C40.96,48.76,42.34,44.58,42.34,44.58L31.06,44.46L31.03,44.46Z" fill="currentColor"/><path d="M42.31,44.58C39.61,43.29,34.75,43.38,31.03,44.46C35.2,49.93,40.39,46.55,42.31,44.58Z" fill="currentColor"/><path d="M36.97,43.32C35.68,43.05,34.36,43.88,34.09,45.2C33.82,46.52,34.63,47.81,35.92,48.08C37.21,48.34,38.53,47.52,38.8,46.2C39.1,44.88,38.26,43.58,36.97,43.32Z" fill="currentColor"/><path d="M66.85,45.17C66.85,45.17,65.17,48.08,61.24,48.37C56.05,48.76,54.67,44.58,54.67,44.58L65.95,44.46L65.98,44.46Z" fill="currentColor"/><path d="M54.7,44.58C57.4,43.29,62.26,43.38,65.98,44.46C61.81,49.93,56.62,46.55,54.7,44.58Z" fill="currentColor"/><path d="M60.07,43.32C61.36,43.05,62.68,43.88,62.95,45.2C63.22,46.52,62.41,47.81,61.12,48.08C59.83,48.34,58.51,47.52,58.24,46.2C57.94,44.88,58.78,43.58,60.07,43.32Z" fill="currentColor"/><path d="M60.61,45.14C61.03,45.05,61.42,45.29,61.48,45.67C61.54,46.05,61.3,46.4,60.88,46.49C60.46,46.58,60.07,46.35,60.01,45.96C59.92,45.58,60.19,45.23,60.61,45.14Z" fill="currentColor" opacity="0.3"/><path d="M76.36,35C77.41,39.06,77.83,44.2,76.87,46.52C76.54,47.34,75.73,48.14,74.86,47.34C72.88,45.58,71.59,42.03,71.59,42.03C71.59,42.03,71.65,34.47,71.86,31.59C72.1,28.83,74.68,29.42,76.18,34.36L76.18,34.38C76.24,34.59,76.3,34.77,76.36,35Z" fill="currentColor"/><path d="M76.18,34.38C76.24,34.59,76.3,34.77,76.36,35C77.41,39.06,77.83,44.2,76.87,46.52C75.4,46.26,73.66,41.94,73.27,36.94C74.71,38.23,76.45,36.79,73.75,32.27C74.71,32.68,75.52,33.47,76.18,34.38Z" fill="currentColor"/><path d="M48.76,30.86C51.31,30.95,53.65,33.24,53.65,33.24C53.65,33.24,50.47,31.83,48.52,31.83C46.57,31.83,43.39,32.65,43.39,32.65C43.39,32.65,46.21,30.8,48.76,30.86Z" fill="currentColor"/><path d="M32.05,32.27C36.64,30.83,41.05,31.86,41.95,34.53C42.82,37.21,39.82,40.56,35.23,42C30.64,43.44,26.23,42.41,25.33,39.73C24.46,37.06,27.46,33.71,32.05,32.27Z" fill="currentColor" opacity="0.3"/><path d="M65.11,32.27C60.52,30.83,56.11,31.86,55.21,34.53C54.34,37.21,57.34,40.56,61.93,42C66.52,43.44,70.93,42.41,71.83,39.73C72.7,37.06,69.7,33.71,65.11,32.27Z" fill="currentColor" opacity="0.3"/><path d="M47.08,17.22C47.26,17.22,48.37,17.22,48.55,17.22C48.73,17.22,49.9,17.22,50.08,17.22C53.95,17.22,54.67,20.34,59.68,25.8L37.39,25.8C41.74,20.16,43.21,17.22,47.08,17.22Z" fill="currentColor"/><path d="M41.17,24.57C43.27,21.84,45.58,21.22,47.95,21.22C48.13,21.22,48.31,21.22,48.49,21.22C48.67,21.22,48.85,21.22,49.03,21.22C51.4,21.22,53.71,21.84,55.81,24.57C55.81,24.57,55.81,24.6,55.81,24.63C55.81,24.63,41.2,24.57,41.17,24.63C41.17,24.63,41.17,24.6,41.17,24.57Z" fill="currentColor"/><path d="M49.39,27.39C49.09,27.39,48.82,27.39,48.52,27.39C48.22,27.39,47.92,27.39,47.65,27.39C44.08,27.39,37.39,25.77,37.39,25.77L59.68,25.77L59.65,25.77C59.65,25.77,52.93,27.39,49.39,27.39Z" fill="currentColor"/><path d="M22.93,54.6C22.93,54.6,27.22,55.43,29.62,63.3C32.29,72.03,45.97,72.85,46.54,72.88L46.6,71.68C46.6,71.68,33.22,70.85,30.82,62.98C28.18,54.31,23.35,53.46,23.14,53.43L23.11,53.4Z" fill="currentColor"/><path d="M36.52,45.14C36.94,45.05,37.33,45.29,37.39,45.67C37.45,46.05,37.21,46.4,36.79,46.49C36.37,46.58,35.98,46.35,35.92,45.96C35.83,45.58,36.1,45.23,36.52,45.14Z" fill="currentColor" opacity="0.3"/></svg>