<svg xmlns="http://www.w3.org/2000/svg" viewBox="0 0 90 90"><path d="M0,0.09L0,88.25L90,88.25L90,0.09Z" fill="white"/><path d="M15,0.09L15,88.25L75,88.25L75,0.09Z" fill="white"/><path d="M16.26,33.21L73.2,26.24L73.59,41.55L16.65,44.17Z" fill="url(#paint0_linear_119_7786)"/><path d="M17.19,40.2C14.43,40.97,15.06,42.44,15.06,42.44C15.06,42.44,17.28,47.29,17.37,55.6C17.46,63.92,22.72,61.66,22.72,61.66L25.45,53.93L22.69,47.14L20.56,43.29L20.56,43.26C20.56,42.76,19.95,39.44,17.19,40.2Z" fill="url(#paint1_radial_119_7786)"/><path d="M72.78,39.32C75.54,40.06,74.94,41.53,74.94,41.53C74.94,41.53,73.11,46.9,73.08,55.22C73.05,63.54,66.35,61.24,66.35,61.24L62.45,53.49L66.62,46.73L69.71,42.91L69.74,42.91C69.74,42.41,70.01,38.59,72.78,39.32Z" fill="url(#paint2_radial_119_7786)"/><path d="M50.08,50.87L54.1,46.64L63.68,35.41L66.29,28.01L67.25,19.31L71.97,21.48C71.97,21.48,72.27,13.87,61.01,8.61C49.77,3.41,47.97,0.09,44.64,0.09C38.78,0.09,32.72,6.99,26.83,10.32C19.62,14.37,14.7,28.98,16.68,36.35C18.3,42.47,18.3,47.34,19.5,50.87Z" fill="url(#paint3_linear_119_7786)"/><path d="M48.33,11.52C48.54,15.16,46.95,19.25,42.81,24.36L42.06,24.69L43.17,25.6L43.86,25.33C48.24,19.93,49.98,15.49,49.71,11.46C49.56,9.17,48.39,7.08,46.32,5.47C45.42,4.76,41.28,2.56,39.38,1.62C39.38,1.62,38.93,1.91,38.54,2.15C38.15,2.38,37.7,2.65,37.7,2.65C40.71,3.79,44.16,5.61,45.51,6.67L45.51,6.61C47.28,7.99,48.24,9.64,48.33,11.52Z" fill="#231F20"/><path d="M55.75,10.32C55.96,13.96,54.67,18.16,50.53,23.28L50.35,23.51L51.46,24.42L51.61,24.22C55.99,18.81,57.4,14.25,57.16,10.23C57.1,9.02,56.74,7.52,56.02,6.14C56.02,6.14,54.91,5.53,54.28,5.14C53.65,4.76,52.18,3.88,52.18,3.88C52.48,4.09,52.78,4.29,53.05,4.5C54.46,5.61,55.6,7.82,55.75,10.32Z" fill="#231F20"/><path d="M33.44,26.36L33.26,26.6L34.37,27.54L34.52,27.33C38.9,21.81,41.19,17.16,40.95,13.05C40.8,10.58,39.47,8.26,37.1,6.35C36.32,5.73,35.51,5.32,34.49,4.85L33.17,5.82C34.46,6.35,35.3,6.79,36.26,7.55C37.67,8.7,39.38,10.58,39.53,13.14C39.74,16.87,37.58,21.13,33.44,26.36Z" fill="#231F20"/><path d="M63.53,12.81C63.47,12.87,64.43,11.87,64.37,11.9C63.98,12.14,63.62,12.2,63.26,12.14L60.89,15.34L60.29,20.75L63.71,32.5C63.71,32.5,64.88,43.76,66.83,50.87L71.22,50.87C72.15,47.61,72.39,42.55,72.93,36C73.92,23.89,73.08,22.39,69.38,16.78L69.41,16.78C68.6,15.58,66.53,12.17,63.53,12.81Z" fill="url(#paint4_linear_119_7786)"/><path d="M69.8,30.5C67.88,23.57,65.69,15.99,54.94,12.43C51.91,11.64,49.41,10.99,45.99,11.76C41.01,11.43,26.44,11.4,21.79,26.68L19.83,33.91L20.16,41.82L20.02,45.2C19.71,47.23,19.41,50.52,19.74,52.52L20.35,56.87C23.62,68.44,32.84,80.26,36.74,84.23C39.32,86.84,42.75,88.22,45.39,88.22C48.03,88.22,51.49,86.9,54.04,84.23C58.06,80.05,68.45,68.27,70.44,56.87L71.04,52.52C71.37,50.49,71.04,47.2,70.77,45.2L70.62,41.82L70.56,41.85Z" fill="#FCCEAB"/><path d="M54.46,83.78L57.34,80.55C58.42,78.99,61.28,76.11,61.58,73.88L61.58,73.91C62.27,68.74,58.21,78.64,54.46,83.78Z" fill="url(#paint5_linear_119_7786)"/><path d="M36.29,83.78L33.41,80.55C32.33,78.99,29.47,76.11,29.17,73.88L29.17,73.91C28.48,68.74,32.54,78.64,36.29,83.78Z" fill="url(#paint6_linear_119_7786)"/><path d="M33.95,63.86C34.31,67.86,35.18,67.83,35.18,67.83C35.18,67.83,36.35,61.45,39.86,58.13C43.35,54.81,39.23,48.25,39.23,48.25L39.2,48.25C37.19,52.99,33.59,59.86,33.95,63.86Z" fill="url(#paint7_linear_119_7786)"/><path d="M56.5,63.01C56.17,66.8,55.33,66.77,55.33,66.77C55.33,66.77,54.19,60.74,50.83,57.57C47.46,54.4,51.43,48.23,51.43,48.23C55.27,52.78,56.83,59.22,56.5,63.01Z" fill="url(#paint8_linear_119_7786)"/><path d="M48.96,45.17C47.91,43.44,47.13,41.44,46.92,35.56C46.89,34.65,46.38,33.88,45.66,33.5L45.66,33.24L45.6,33.24C45.42,33.24,45.27,33.24,45.09,33.3C44.94,33.27,44.76,33.24,44.58,33.24L44.52,33.24L44.52,33.5C43.8,33.88,43.29,34.65,43.26,35.56C43.05,41.44,42.54,43.35,41.49,45.05C41.22,45.49,39.92,46.9,39.53,47.46C38.72,48.61,38.18,50.99,39.83,52.55C40.17,52.87,41.67,52.75,42.45,52.55C44.58,51.9,46.95,51.87,48.93,52.34C49.59,52.49,50.59,52.34,50.89,52.1C52.54,50.55,51.7,48.78,51.19,47.87L51.22,47.84C50.89,47.26,49.23,45.61,48.96,45.17Z" fill="url(#paint9_linear_119_7786)"/><path d="M44.1,52.37C43.74,54.16,44.31,56.28,46.74,56.28C48.81,56.28,47.31,53.22,47.13,52.37C47.07,52.16,46.89,52.02,46.65,52.02L44.61,52.02L44.58,51.99C44.34,51.99,44.13,52.13,44.1,52.37Z" fill="url(#paint10_linear_119_7786)"/><path d="M49.08,33.33C48.63,33.8,49.02,36.56,49.11,37.23C49.47,39.76,50.77,41.97,55.18,43.96C57.13,44.85,61.58,43.96,63.2,42.88C68.93,39.06,62,38.38,60.01,34.18C60.01,34.12,61.01,30.5,61.01,30.45C60.41,29.12,53.2,30.27,51.7,29.8L51.67,29.83Z" fill="url(#paint11_linear_119_7786)"/><path d="M41.97,35.53C41.97,35.62,41.64,44.88,28.09,43.23C23.17,42.64,24.73,40.29,26.74,36.09C26.74,36.03,32.57,34.56,32.57,34.5C34.13,29.01,36.83,29.95,38.36,29.48C38.36,29.48,42.06,34.82,41.97,35.53Z" fill="url(#paint12_linear_119_7786)"/><path d="M34.61,26.92L30.98,28.36L31.52,27.54C29.83,27.65,26.95,29.18,25.42,30.86C24.04,31.71,23.35,34.03,22.78,36.06L23.14,36.41C26.83,31.3,28.99,30.65,34.13,30.56C34.85,30.56,39.32,30.71,39.32,30.71L38.21,28.07L38.27,28.07C37.76,27.95,35.93,27.04,34.61,26.92Z" fill="url(#paint13_linear_119_7786)"/><path d="M55.57,26.86C55.18,26.98,55.12,28.33,54.7,28.45C54.34,28.54,54.34,27.65,54.01,27.74C53.35,27.95,52.12,27.57,52.12,27.57C52.12,27.57,51.64,29.71,51.85,30.59C51.85,30.59,60.26,29.56,65.09,32.8C66.86,33.97,67.34,35.5,67.46,36.32L68.09,36.5C68.24,34.94,67.55,32.06,64.97,29.59L64.97,29.56C64.97,29.18,58.15,26.16,55.57,26.86Z" fill="url(#paint14_linear_119_7786)"/><path d="M45.69,43.67C44.28,43.67,43.71,44.05,43.17,45.49C42.63,46.93,39.14,47.73,39.77,50.08C40.02,50.93,40.05,48.17,43.38,48.17C43.86,48.17,44.58,48.75,45.51,48.75C46.89,48.75,47.43,48.05,48,48.02C48.93,48.02,49.14,48.02,49.44,48.2C50.71,48.9,50.44,50.61,50.8,50.17C52.36,48.31,48.36,45.9,48.15,45.46L48.21,45.49C47.58,44.08,47.1,43.67,45.69,43.67Z" fill="url(#paint15_linear_119_7786)"/><path d="M68.45,30.03C68.45,30.03,66.2,27.07,61.67,24.83C57.13,22.6,52.42,22.31,52.42,22.31C64.73,19.28,68.45,30.03,68.45,30.03Z" fill="url(#paint16_linear_119_7786)"/><path d="M52.84,43.08C52.84,43.08,51.67,41.47,53.74,42.88C55.81,44.29,57.85,44.26,57.85,44.26C57.01,44.38,54.52,44.85,52.84,43.08Z" fill="url(#paint17_linear_119_7786)"/><path d="M38.48,41.88C38.48,41.88,39.92,40.23,37.37,41.76C34.82,43.29,32.36,43.38,32.36,43.38L32.33,43.38C33.35,43.41,36.41,43.7,38.48,41.88Z" fill="url(#paint18_linear_119_7786)"/><path d="M28.24,36.09C33.17,31.71,37.64,35.03,39.68,37.03C39.8,37.18,41.34,35.62,41.49,35.77L39.11,39.06C39.11,39.06,36.98,37.47,35.57,37.15C35.57,37.15,29.59,39.44,28.63,40.53L26.32,40.44C25.6,38.88,28.24,36.09,28.24,36.09Z" fill="url(#paint19_linear_119_7786)"/><path d="M38.6,39.26C38.6,39.26,37.7,41.26,32.69,41.23C29.83,41.23,28.27,40.38,28.27,40.38C28.27,40.38,28.33,39.06,28.36,38.94C28.66,36.03,36.74,32.68,39.11,39.06Z" fill="white"/><path d="M38.6,39.26C38.6,39.26,37.7,41.26,32.69,41.23C29.83,41.23,28.27,40.38,28.27,40.38C28.27,40.38,28.33,39.06,28.36,38.94C28.66,36.03,36.74,32.68,39.11,39.06Z" fill="white"/><path d="M34.07,42.85C35.57,42.82,36.8,41.55,36.77,40.03C36.74,38.5,35.48,37.26,33.98,37.29C32.48,37.32,31.25,38.59,31.28,40.11C31.28,41.64,32.57,42.88,34.07,42.85Z" fill="url(#paint20_linear_119_7786)"/><path d="M33.16,38.78C32.76,38.78,32.43,39.11,32.43,39.51C32.43,39.92,32.75,40.25,33.15,40.25C33.55,40.25,33.87,39.92,33.87,39.52C33.87,39.11,33.55,38.78,33.16,38.78Z" fill="white"/><path d="M30.53,35.97C29.23,36.68,28,38.2,27.49,40L28.27,40.38C28.27,40.38,28.9,37.23,31.22,36.24C33.53,35.24,35.84,35.68,35.84,35.68C35.72,34.68,31.82,35.27,30.53,35.97Z" fill="url(#paint21_linear_119_7786)"/><path d="M62.9,36.09C56.59,30.5,52.57,36.47,51.7,37.32L52.03,39.03C52.03,39.03,54.16,37.44,55.57,37.12C55.57,37.12,61.55,39.41,62.51,40.5L64.82,40.41L64.82,40.44C65.54,38.88,62.9,36.09,62.9,36.09Z" fill="url(#paint22_linear_119_7786)"/><path d="M44.04,49.14C44.19,49.64,43.83,49.58,43.17,50.19C42.81,50.55,42.21,51.75,41.97,51.9C41.25,52.37,40.29,51.66,40.8,50.17C41.31,48.67,42.63,48.46,42.93,48.46C43.86,48.49,43.8,48.31,44.04,49.14Z" fill="url(#paint23_linear_119_7786)"/><path d="M47.46,48.96C47.31,49.46,47.46,49.4,48.09,50.02C48.45,50.37,48.9,51.55,49.17,51.69C49.89,52.16,50.92,51.69,50.41,50.19C49.89,48.7,49.05,48.49,48.72,48.52C47.79,48.55,47.7,48.17,47.46,48.96Z" fill="url(#paint24_linear_119_7786)"/><path d="M23.68,27.6C23.68,27.6,27.91,24.69,33.32,24.89C39.44,25.13,41.58,25.86,42.33,26.65C45.9,30.33,43.74,30.83,44.22,31.42C44.7,32,45.33,32.89,45.33,32.89C45.33,32.89,46.44,26.83,40.23,24.57L40.23,24.6C37.19,23.48,29.08,22.39,23.68,27.6Z" fill="url(#paint25_linear_119_7786)"/><path d="M48.21,24.72C50.53,23.86,51.1,23.45,51.1,23.45C51.1,23.45,49.08,24.01,45.75,23.6C43.35,23.3,42.57,22.75,42.57,22.75L42.54,22.75C45.42,24.77,45.9,25.57,48.21,24.72Z" fill="url(#paint26_linear_119_7786)"/><path d="M51.88,69.62C52.54,67.59,51.37,77.94,46.23,77.7C41.1,77.47,39.95,73.65,39.29,70.68L39.32,70.65C38.09,65.09,51.22,71.65,51.88,69.62Z" fill="url(#paint27_linear_119_7786)"/><path d="M48.33,73.7C50.68,72.56,51.52,71.82,51.52,71.82C51.52,71.82,50.95,75.7,45.69,75.73C40.44,75.76,39.59,71.5,39.59,71.5C42.93,74.09,45.99,74.85,48.33,73.7Z" fill="url(#paint28_linear_119_7786)"/><path d="M40.68,72.21C37.85,71.24,39.11,66.92,39.11,66.92C39.11,66.92,40.53,58.81,43.53,57.69C44.64,57.28,48.12,57.81,49.08,57.98C50.65,58.28,51.61,65.95,51.61,65.95C51.61,65.95,52.48,71.03,49.65,72.03L49.62,72.03C48.24,72.5,41.88,72.62,40.68,72.21Z" fill="url(#paint29_linear_119_7786)"/><path d="M46.14,57.16C45.42,57.16,45.27,56.54,43.89,56.6C41.67,56.72,39.53,62.48,38.57,68C37.94,71.53,41.31,74.65,44.1,74.65C44.31,74.65,47.55,74.62,47.73,74.59C50.53,74.35,52.03,72.44,52.03,68.83C52.03,63.39,51.37,58.07,49.05,56.6C48.36,56.16,46.86,57.16,46.14,57.16Z" fill="url(#paint30_linear_119_7786)"/><path d="M41.67,71.47C39.5,70.71,39.35,69.47,39.47,67.68C39.59,65.89,41.4,60.83,43.5,58.72C44.04,58.16,44.82,58.39,45.72,58.33C46.95,58.25,48.27,58.13,48.78,58.6C51.49,60.95,51.34,65.15,51.34,66.74C51.34,68.33,51.01,70.38,48.51,71.47L48.48,71.47C46.38,72.38,44.16,72.35,41.67,71.47Z" fill="url(#paint30_linear_119_7786)"/><path d="M54.79,17.54L38.36,16.22C41.34,15.34,48.06,14.46,54.79,17.54Z" fill="url(#paint31_linear_119_7786)"/><path d="M26.08,63.65L23.23,53.07C23.41,57.75,25.06,62.36,26.08,63.65Z" fill="url(#paint32_linear_119_7786)"/><path d="M64.58,63.65L67.43,53.07C66.86,57.75,65.18,62.36,64.58,63.65Z" fill="url(#paint33_linear_119_7786)"/><path d="M26.2,39.53L24.25,40.67L28.63,40.53Z" fill="url(#paint34_linear_119_7786)"/><path d="M64.94,39.53L66.89,40.67L62.51,40.53Z" fill="url(#paint35_linear_119_7786)"/><path d="M52.54,39.26C52.54,39.26,53.44,41.26,58.45,41.23C61.31,41.23,62.87,40.38,62.87,40.38C62.87,40.38,62.81,39.06,62.78,38.94C62.48,36.03,54.4,32.68,52.03,39.06Z" fill="white"/><path d="M52.54,39.26C52.54,39.26,53.44,41.26,58.45,41.23C61.31,41.23,62.87,40.38,62.87,40.38C62.87,40.38,62.81,39.06,62.78,38.94C62.48,36.03,54.4,32.68,52.03,39.06Z" fill="white"/><path d="M57.07,42.85C55.57,42.82,54.34,41.55,54.37,40.03C54.4,38.5,55.66,37.26,57.16,37.29C58.66,37.32,59.89,38.59,59.86,40.11C59.86,41.64,58.57,42.88,57.07,42.85Z" fill="url(#paint36_linear_119_7786)"/><path d="M58.71,39.52C58.71,39.12,58.38,38.79,57.99,38.79C57.59,38.79,57.27,39.12,57.27,39.53C57.27,39.94,57.6,40.26,57.99,40.26C58.39,40.26,58.71,39.93,58.71,39.52Z" fill="white"/><path d="M60.65,35.97C61.94,36.68,63.17,38.2,63.68,40L62.9,40.38C62.9,40.38,62.27,37.23,59.95,36.24C57.64,35.24,55.33,35.68,55.33,35.68C55.45,34.68,59.35,35.27,60.65,35.97Z" fill="url(#paint37_linear_119_7786)"/></svg>