<svg xmlns="http://www.w3.org/2000/svg" viewBox="0 0 90 90"><path d="M39.38,44.61L21.8,37.68L20.18,20.98L30.38,-7.67C30.38,-7.67,39.2,0.41,60.53,-1.88C63.08,-2.47,66.35,-3.38,69.59,-3.73C67.82,-1.62,69.89,3.09,69.89,3.09C70.43,-2.59,75.44,-3.38,75.44,-3.38C74.03,8.79,88.1,25.89,79.46,59.13L79.4,59.13C70.46,93.45,38.81,43.61,39.38,44.61Z" fill="currentColor"/><path d="M48.36,25.1C40.38,24.45,32.79,21.45,26.64,16.46C25.35,15.4,24.09,14.31,22.83,13.2L32.61,1.09C32.61,1.09,64.35,-2.7,66.96,-3.23C62.49,8.82,74.01,18.28,75.24,21.6C68.7,23.45,55.2,25.66,48.36,25.1Z" fill="currentColor"/><path d="M32.55,69.74C26.48,67.48,19.89,63.24,22.02,35.41C22.59,27.83,24.84,17.96,27.96,11.81C29.76,8.91,39.12,-3.06,47.55,-3.06C55.98,-3.06,65.75,9.11,67.14,11.81C70.22,17.93,72.5,27.83,73.08,35.41C75.2,63.24,68.61,67.48,62.55,69.74L62.49,69.74C60.3,70.56,34.73,70.56,32.55,69.74Z" fill="currentColor"/><path d="M61.23,65.39C59.01,58.78,69.81,52.78,69.81,52.78C69.81,52.78,72.72,45.35,72.63,30.8C73.61,30.68,78.47,31.56,79.44,50.61C80.06,63.33,76.61,68.36,71.61,72.71C66.69,76.97,62.42,68.97,61.23,65.39Z" fill="currentColor"/><path d="M74.3,21.01C85.28,46.32,71.18,58.72,71.03,58.84L70.22,57.92C70.37,57.81,83.9,45.9,73.07,21.25C73.49,21.25,73.91,21.16,74.3,21.01Z" fill="currentColor"/><path d="M74.09,19.75C71.54,16.87,70.13,19.87,70.13,19.87L71.78,32C76.7,38.85,78.53,36.85,78.53,32.68C78.53,29.86,77.66,26.01,76.37,23.28L76.37,23.31C75.62,21.75,74.87,20.6,74.09,19.75Z" fill="currentColor"/><path d="M74.09,19.75C73.49,19.69,72.98,20.01,72.77,21.1C74.9,22.81,77.12,29.71,73.34,28.36C73.82,29.77,76.88,38.5,78.56,32.74C78.56,29.92,77.69,26.07,76.4,23.33L76.37,23.31C75.62,21.75,74.87,20.6,74.09,19.75Z" fill="currentColor"/><path d="M52.23,24.01L68.61,24.75C68.61,24.75,69.24,37.41,68.37,41.61C68.37,41.61,66.93,43.64,61.62,43.64C56.31,43.64,53.49,40.79,53.49,40.79C48.81,32.68,52.23,24.01,52.23,24.01Z" fill="currentColor" opacity="0.7"/><path d="M54.59,43.67C54.59,43.67,69.14,45.55,68.84,40.35C62.94,44.05,53.37,40.44,53.37,40.44C53.45,41.88,54.59,43.67,54.59,43.67Z" fill="currentColor"/><path d="M66.03,36C65.49,35.09,64.74,34.47,64.74,34.47L53.85,32.65L53.88,32.65C57.66,40.41,63.57,37.97,66.03,36Z" fill="currentColor"/><path d="M59.31,30.42C63,30.15,64.38,32.74,65.16,34.74C63.66,36.09,61.68,37,59.43,36.56C58.23,36.32,56.94,35.68,55.62,34.5C55.05,34,54.48,33.39,53.88,32.65C53.88,32.65,55.62,30.68,59.31,30.42Z" fill="currentColor"/><path d="M59.64,30.83C57.93,30.8,56.52,32.15,56.49,33.89C56.49,35.62,57.81,37.03,59.52,37.06C61.23,37.09,62.64,35.74,62.67,34C62.67,32.27,61.35,30.86,59.64,30.83Z" fill="currentColor"/><path d="M62.67,33.53C62.16,33.53,61.74,33.94,61.71,34.44C61.68,34.94,62.1,35.38,62.64,35.41C63.15,35.41,63.57,35,63.6,34.5C63.6,33.97,63.21,33.56,62.67,33.53Z" fill="currentColor"/><path d="M65.16,34.74C64.62,35.18,62.19,37.82,62.19,37.82C62.19,37.82,66.42,36.47,68.1,37.76L68.07,37.76C68.07,37.76,67.86,35.06,65.16,34.74Z" fill="currentColor"/><path d="M42.8,24.01L26.43,24.75C26.43,24.75,25.8,37.41,26.66,41.61C26.66,41.61,28.11,43.64,33.41,43.64C38.76,43.64,41.55,40.79,41.55,40.79C46.23,32.68,42.8,24.01,42.8,24.01Z" fill="currentColor" opacity="0.7"/><path d="M40.44,43.67C40.44,43.67,25.89,45.55,26.18,40.35C32.09,44.05,41.66,40.44,41.66,40.44C41.58,41.88,40.44,43.67,40.44,43.67Z" fill="currentColor"/><path d="M29,36C29.55,35.09,30.3,34.47,30.3,34.47L41.19,32.65L41.16,32.65C37.38,40.41,31.46,37.97,29,36Z" fill="currentColor"/><path d="M35.73,30.42C32.03,30.15,30.66,32.74,29.88,34.74C31.38,36.09,33.35,37,35.6,36.56C36.8,36.32,38.09,35.68,39.41,34.5C39.98,34,40.55,33.39,41.16,32.65C41.16,32.65,39.41,30.68,35.73,30.42Z" fill="currentColor"/><path d="M35.37,30.83C37.08,30.8,38.48,32.15,38.52,33.89C38.52,35.62,37.2,37.03,35.48,37.06C33.77,37.09,32.36,35.74,32.34,34C32.34,32.27,33.66,30.86,35.37,30.83Z" fill="currentColor"/><path d="M37.83,33.53C38.34,33.53,38.76,33.94,38.78,34.44C38.81,34.94,38.4,35.38,37.85,35.41C37.34,35.41,36.92,35,36.9,34.5C36.9,33.97,37.28,33.56,37.83,33.53Z" fill="currentColor"/><path d="M29.88,34.74C30.42,35.18,32.85,37.82,32.85,37.82C32.85,37.82,28.62,36.47,26.94,37.76L26.97,37.76C26.97,37.76,27.18,35.06,29.88,34.74Z" fill="currentColor"/><path d="M39.38,14.87C41.18,12.37,44.39,10.7,48.08,10.7C51.77,10.7,54.98,12.37,56.78,14.87C53.75,12.17,50.54,14.55,48.08,13.2C45.71,14.52,42.14,12.17,39.38,14.87Z" fill="currentColor"/><path d="M39.38,14.87C41.18,11.17,44.39,8.67,48.08,8.67C51.77,8.67,54.98,11.14,56.78,14.87C54.32,12.67,51.32,11.34,48.08,11.34C44.84,11.34,41.84,12.67,39.38,14.87Z" fill="currentColor"/><path d="M43.26,21.42C43.26,21.42,45.41,18.16,48.09,17.99C50.76,18.16,52.91,21.42,52.91,21.42C52.91,21.42,50.13,19.37,48.09,19.4C46.05,19.4,43.26,21.42,43.26,21.42Z" fill="currentColor"/><path d="M16.61,13.93C21.53,6.17,20.63,1.38,15.26,-3.03C15.26,-3.03,18.86,-4.05,23.48,-0.23C23.48,-0.23,20.33,-5.49,15.41,-7.85C15.41,-7.85,30.14,-12.64,34.34,5.14C38.51,22.92,26.42,22.37,35.09,44.29C46.91,66.45,63.11,45.2,68.87,72.03C69.2,73.53,68.39,75.03,66.98,75.67C60.11,78.73,40.73,85.46,23.78,69.56C6.65,53.46,11.69,21.69,16.61,13.93Z" fill="currentColor"/><path d="M73.14,16.87C73.14,17.37,72.72,17.78,72.2,17.78C71.69,17.78,71.28,17.37,71.28,16.87C71.28,16.37,71.69,15.96,72.2,15.96C72.72,15.96,73.14,16.37,73.14,16.87Z" fill="currentColor"/><path d="M16.85,19.19L19.19,17.69C18.95,17.34,12.77,7.99,21.5,-3.08L20.03,-4L20.06,-3.97C10.07,8.7,16.58,18.78,16.85,19.19Z" fill="currentColor"/><path d="M12.36,28.27L15.6,26.19L13.35,27.63L15.14,25.63C14.94,25.33,9.56,19.43,16.95,10.11L15.09,8.7L15.05,8.7C6.62,19.4,12.12,27.89,12.36,28.27Z" fill="currentColor"/><path d="M23.97,69.53C21.33,67.03,19.2,64.15,17.52,61.07C20.79,42.11,33.69,44.96,36.03,45.61C38.01,48.99,40.11,51.28,42.27,52.84C26.49,50.67,27.42,72.35,27.42,72.44L27.42,72.47C26.25,71.59,25.11,70.62,23.97,69.53Z" fill="currentColor"/><path d="M31.38,75.35C33.63,55.16,40.73,53.6,43.08,53.66C44.48,54.54,45.92,55.16,47.37,55.6C34.23,53.87,34.98,77.17,34.98,77.17C33.77,76.64,32.58,76.03,31.38,75.35Z" fill="currentColor" opacity="0.2"/><path d="M28.38,14.31C30.77,8.26,32.22,5.06,32.58,-0.5L33.48,2.44C32.66,7.29,31.55,9.64,29.52,14.78C25.8,24.1,21.95,33.77,24.63,44.02C29.48,62.74,49.88,61.42,50.76,61.36L50.84,62.57C50.63,62.57,28.52,64.04,23.43,44.32L23.43,44.29C20.66,33.65,24.57,23.83,28.38,14.31Z" fill="currentColor" opacity="0.2"/><path d="M43.83,76.94C43.47,76.79,7.83,62.54,18.72,24.33C22.86,9.76,22.46,-0.76,17.55,-6.91C17.1,-7.46,16.62,-7.96,16.11,-8.43L17.94,-8.29C18.12,-8.08,18.3,-7.9,18.48,-7.67C23.66,-1.2,24.14,9.67,19.86,24.66C9.3,61.8,43.91,75.67,44.27,75.82Z" fill="currentColor" opacity="0.2"/><path d="M74.55,69.77C77.43,59.98,66.6,54.96,66.6,54.96L66.87,54.78L66.75,54.84C67.35,54.4,67.89,53.99,68.37,53.69C78.66,54.43,77.85,63.74,77.79,64.39L77.79,64.36C76.95,66.51,75.87,68.24,74.55,69.77Z" fill="currentColor"/></svg>