<svg xmlns="http://www.w3.org/2000/svg" viewBox="0 0 90 90" fill="currentColor"><path d="M16.87,60.19L75.4,62.95L74.74,47.26L17.65,45.14ZM18.19,49.11C15.43,48.34,16.06,46.87,16.06,46.87C16.06,46.87,18.28,42.03,18.37,33.71C18.46,25.39,23.72,27.65,23.72,27.65L26.45,35.38L23.69,42.17L21.56,46.02L21.56,46.05C21.56,46.55,20.95,49.87,18.19,49.11ZM73.78,49.99C76.54,49.25,75.94,47.79,75.94,47.79C75.94,47.79,74.11,42.41,74.08,34.09C74.05,25.77,67.35,28.07,67.35,28.07L63.45,35.82L67.62,42.58L70.71,46.4L70.74,46.4C70.74,46.9,71.01,50.72,73.78,49.99ZM51.08,38.44L55.1,42.67L64.68,53.9L67.29,61.3L68.25,70L74.11,68.47C74.11,68.47,73.27,75.44,62.01,80.67C50.77,85.9,48.97,89.22,45.64,89.22C39.78,89.22,34.35,82.64,25.82,79.64C18.01,76.88,15.7,60.33,17.68,52.96C19.3,46.85,19.3,41.97,20.5,38.44ZM49.33,77.79C49.54,74.15,47.95,70.06,43.81,64.95L43.06,64.62L44.17,63.71L44.86,63.98C49.24,69.39,50.98,73.82,50.71,77.85C50.56,80.14,49.39,82.23,47.32,83.84C46.42,84.55,42.28,86.75,40.38,87.69C40.38,87.69,39.81,87.43,39.42,87.19C39.03,86.96,38.58,86.69,38.58,86.69C41.59,85.55,45.13,83.73,46.48,82.67L46.51,82.7C48.28,81.32,49.24,79.67,49.33,77.79ZM56.75,79C56.96,75.35,55.67,71.15,51.53,66.04L51.35,65.8L52.46,64.89L52.61,65.09C56.99,70.5,58.4,75.06,58.16,79.08C58.1,80.29,57.74,81.79,57.02,83.17C57.02,83.17,55.91,83.79,55.28,84.17C54.65,84.55,53.18,85.43,53.18,85.43C53.48,85.23,53.78,85.02,54.05,84.81C55.46,83.7,56.6,81.49,56.75,79ZM34.44,62.95L34.26,62.71L35.37,61.77L35.52,61.98C39.9,67.5,42.19,72.15,41.95,76.26C41.8,78.73,40.47,81.05,38.1,82.96C37.32,83.58,36.21,84.11,35.19,84.58L33.69,83.64C34.98,83.11,36.3,82.49,37.23,81.73C38.64,80.58,40.35,78.7,40.5,76.14L40.53,76.17C40.74,72.44,38.58,68.18,34.44,62.95ZM64.56,76.5C64.5,76.44,65.46,77.44,65.4,77.41C65.01,77.17,64.65,77.11,64.29,77.17L61.92,73.97L61.32,68.56L64.74,56.81C64.74,56.81,65.91,45.55,67.86,38.44L72.25,38.44C73.18,41.7,72.61,46.85,73.96,53.31C76.36,64.95,75.67,67.27,71.98,72.88L72.01,72.88C71.2,74.09,67.56,77.14,64.56,76.5ZM72.37,55.37L69.78,62.19C68.28,70,63.6,72.79,55.16,69.09C49.63,66.39,48.04,66.24,46.33,65.98C44.62,66.24,42.94,66.86,37.41,69.53C27.29,72.97,23.99,69.86,23.18,62.01L20.32,55.37L21.14,47.46L20.98,44.08C20.68,42.05,20.38,38.76,20.71,36.77L21.32,32.42C21.62,30.24,21.44,28.04,21.65,25.86C21.98,22.31,23.93,17.16,25.94,14.49C28.22,11.43,32.13,9.05,36.54,5.09C39.45,2.47,43.36,1.09,46.36,1.09C49.36,1.09,53.27,2.41,56.18,5.09C60.74,9.26,64.5,11.46,66.78,14.49C68.79,17.16,70.71,22.31,71.08,25.86C71.29,28.07,71.08,30.24,71.41,32.42L72.01,36.77C72.34,38.79,72.01,42.08,71.74,44.08L71.59,47.46L71.56,47.46ZM46.33,65.95C65.7,64.95,72.34,55.37,72.34,55.37L69.75,62.19C68.25,70,63.57,72.79,55.13,69.09L55.16,69.06C49.63,66.36,48.04,66.21,46.33,65.95ZM37.44,69.5C27.32,72.94,24.02,69.83,23.21,61.98L22.55,60.45C23.96,61.92,29.87,66.8,46.36,65.92L46.36,65.95C44.65,66.21,42.97,66.83,37.44,69.5ZM71.71,44.05L71.56,47.43L72.37,55.34L69.78,62.16C69.69,62.66,69.57,63.13,69.45,63.57C70.65,56.57,68.67,45.08,68.67,45.08C68.67,45.08,65.58,42,64.8,42.26C60.44,43.7,53.36,40.35,53.36,40.35C53.36,40.35,52.61,39.62,54.95,38.47C56.21,37.85,62.07,38.65,66.87,35.88C67.89,35.3,69.39,34.33,70.59,31.59L71.17,28.07L71.17,28.95C71.2,30.09,71.23,31.24,71.38,32.39L71.98,36.74C72.31,38.76,71.98,42.05,71.71,44.05ZM21.01,44.05L21.17,47.43L20.35,55.34L22.55,60.45C22.64,60.95,23.09,61.54,23.21,61.98C22.01,54.99,24.05,45.08,24.05,45.08C24.05,45.08,27.14,42,27.92,42.26C32.28,43.7,39.36,40.35,39.36,40.35C39.36,40.35,40.11,39.62,37.77,38.47C36.51,37.85,30.65,38.65,25.85,35.88C24.83,35.3,23.33,34.33,22.13,31.59L21.56,28.07L21.56,28.95C21.53,30.09,21.5,31.24,21.35,32.39L20.74,36.74C20.41,38.76,20.74,42.05,21.01,44.05ZM50.41,44.17C49.96,43.79,49.69,43.2,49.78,42.64C50.14,40.56,52.28,38.65,56.69,37C58.64,36.27,62.88,38.26,64.53,39.06C68.76,41.14,70.23,42.35,68.22,45.82C68.22,45.85,68.22,45.9,68.22,45.96C66.66,50.49,56.66,47.73,55.16,48.11L55.16,48.08ZM64.98,44.49C62.46,48.05,54.98,44.02,54.11,43.32L54.26,43.05C54.26,43.05,55.58,43.55,56.99,43.79C56.99,43.79,62.58,43.79,63.54,42.91L65.04,42.26C65.76,43.52,64.98,44.49,64.98,44.49ZM42.28,43.76C42.73,43.38,43,42.79,42.91,42.23C42.55,40.14,41.26,38.38,36.72,37.88C34.65,37.65,30.5,37.24,28.85,38.06C24.62,40.14,22.46,41.97,24.44,45.41C24.44,45.43,24.44,45.49,24.44,45.55C26,50.08,36,47.32,37.5,47.7L37.53,47.67ZM34.62,45.43C31.98,45.73,25.13,45.43,26.6,43.23C26.75,43.02,27.92,42.03,27.92,42.03C27.92,42.03,27.92,43.49,31.59,43.73C34.47,43.91,36.63,44.14,37.74,43.64C37.98,43.52,38.16,43.79,38.16,43.79L38.19,43.76C38.19,43.76,37.26,45.14,34.62,45.43ZM49.54,11.43C50.95,11.43,52.25,11.11,53.45,10.55C53.03,11.73,54.41,11.11,51.1,13.49C46.36,16.9,41.83,13.49,41.83,13.49C40.17,12.37,39.12,10.64,39.12,8.73C39.12,7.17,39.81,5.76,40.95,4.67L40.95,4.64C41.8,8.52,45.31,11.43,49.54,11.43ZM39.72,40.73C39.72,40.73,33.54,39.85,31.37,40.44C29.72,40.88,28.49,41.58,28.49,41.58C28.49,41.58,28.94,42.5,29.03,42.61C30.02,43.7,31.4,44.2,32.82,44.08C35.4,43.85,37.74,43.58,39.72,41L39.72,40.97ZM34.29,39.62C35.7,39.65,36.81,40.82,36.78,42.23C36.75,43.64,35.61,44.76,34.2,44.73C32.79,44.7,31.68,43.52,31.71,42.11C31.71,40.7,32.88,39.59,34.29,39.62ZM32.41,41.79C32.04,41.8,31.75,41.49,31.74,41.12C31.74,40.75,32.04,40.44,32.4,40.44C32.77,40.44,33.06,40.74,33.06,41.12C33.07,41.49,32.77,41.79,32.41,41.79ZM29.48,42.7C30.05,43.11,30.74,43.35,31.44,43.29L37.17,43.14L36.06,43.99L31.74,44.14C31.74,44.14,28.34,43.64,27.86,42.23L28.52,41.58L28.49,41.58ZM36.78,49.9L32.31,49.55L32.94,50.31C31.26,50.31,29.39,50.17,27.5,49.61C26.03,48.87,24.65,47.7,23.9,45.73L23.96,45.29C29.45,47.14,31.32,46.73,35.25,47.05C35.97,47.11,40.41,46.43,40.41,46.43L39.57,49.17C39.06,49.34,38.07,49.64,36.78,49.9ZM62.37,21.92C62.61,19.19,61.53,18.93,61.53,18.93C61.53,18.93,58.97,22.75,54.05,23.89C49.12,25.01,53.18,30.59,53.18,30.59L53.15,30.59C56.45,28.1,62.13,24.66,62.37,21.92ZM30.14,21.81C29.9,19.07,30.98,18.81,30.98,18.81C30.98,18.81,33.54,22.63,38.46,23.78C43.39,24.92,39.33,30.48,39.33,30.48L39.36,30.48C36.06,27.98,30.38,24.54,30.14,21.81ZM48.7,42.29L43.81,42.29C43.81,34.56,42.55,32.27,41.32,30.33C41.04,29.89,40.41,29.39,39.84,28.98C38.97,28.36,38.73,27.18,39.09,26.13C39.87,23.98,42.88,26.07,44.92,24.22L47.77,24.22C49.84,26.07,52.64,24.51,53.39,25.74C54.11,26.86,53.75,28.39,52.64,29.09C52.1,29.45,51.53,29.83,51.32,30.12L51.35,30.15C50.17,31.89,48.7,34.06,48.7,42.29ZM36.33,19.87L36.51,19.78C39.69,18.6,43.3,18.6,46.69,18.57L46.69,17.49L46.03,17.49L46.03,18.57C49.54,18.6,53.36,18.63,56.63,19.84C58.82,18.78,59.09,18.46,56.51,19.22C54.62,17.84,49.24,17.55,46.03,17.49L46.03,18.57L46.69,18.57L46.69,17.49C44.05,17.55,41.35,17.66,38.73,18.31C37.86,18.54,37.02,18.78,36.18,19.25L36.45,19.25C35.64,18.99,34.8,18.75,33.93,18.63L33.93,18.66C34.74,19.04,35.52,19.46,36.33,19.87ZM55.22,50.72C54.86,50.55,54.95,49.58,54.59,49.4C54.26,49.23,54.08,50.14,53.78,49.96C52.31,49.2,51.74,47.52,52.4,46.08C52.4,46.08,61.65,49.99,65.73,47.79C67.59,46.79,67.71,45.99,68.01,45.2L68.67,45.14C68.49,46.7,67.38,50.34,65.19,52.16L65.19,52.13C63.84,52.25,57.59,51.9,55.22,50.72ZM52.19,25.25C52.34,25.3,52.19,25.66,51.59,25.8C51.16,25.92,50.62,26.04,50.05,26.19C49.15,26.42,47.8,24.28,47.8,24.28C49.84,25.54,51.92,25.16,52.19,25.25ZM40.53,25.22C40.38,25.27,40.53,25.63,41.14,25.77C41.56,25.89,42.1,26.01,42.67,26.16C43.57,26.39,44.92,24.25,44.92,24.25C42.88,25.51,40.8,25.13,40.53,25.22ZM46.36,30.18C44.53,30.18,43.84,29.68,43.03,27.95C42.25,26.3,44.53,24.69,46.36,24.69C48.19,24.69,50.5,26.33,49.69,27.95C48.85,29.68,48.19,30.18,46.36,30.18ZM53,40.73C53,40.73,59.18,39.85,61.35,40.44C63,40.88,64.23,41.7,64.23,41.7C64.23,41.7,63.78,42.5,63.69,42.58C62.7,43.67,61.32,44.17,59.9,44.05C57.32,43.82,54.35,43.26,53,40.88L53,40.91ZM58.52,39.62C59.93,39.65,61.05,40.82,61.02,42.23C60.98,43.64,59.84,44.76,58.43,44.73C57.02,44.7,55.91,43.52,55.94,42.11C55.94,40.7,57.11,39.59,58.52,39.62ZM56.65,41.76C56.29,41.77,55.99,41.46,55.99,41.09C55.99,40.72,56.28,40.41,56.65,40.41C57.01,40.41,57.31,40.71,57.31,41.09C57.31,41.46,57.02,41.76,56.65,41.76ZM55.58,43.14L56.69,43.99L61.02,44.14C61.02,44.14,64.32,43.67,64.8,42.26L64.23,41.7C62.34,44.44,55.58,43.14,55.58,43.14ZM46.24,20.28C43.63,20.28,44.92,24.25,44.92,24.25L47.77,24.25L47.8,24.28C48.13,22.1,48.85,20.28,46.24,20.28ZM66.63,59.63C69.93,58.01,70.14,54.28,70.14,54.28C70.14,54.28,68.85,59.28,62.1,58.78C56.81,58.37,52.67,57.01,52.67,57.01L52.67,56.98C57.92,59.22,63.33,61.25,66.63,59.63ZM65.19,39.56C65.19,39.56,66.36,41.17,64.29,39.76C62.22,38.35,60.17,38.38,60.17,38.38C61.02,38.26,63.51,37.79,65.19,39.56ZM26.42,39.59C26.42,39.59,24.98,41.23,27.53,39.7C30.08,38.18,32.55,38.09,32.55,38.09L32.58,38.09C31.56,38.06,28.49,37.76,26.42,39.59ZM63.6,15.14C63.6,15.14,67.92,16.78,67.44,22.6C67.14,26.16,66.21,16.78,63.6,15.14ZM28.49,15.46C28.49,15.46,24.17,17.1,24.65,22.92C24.95,26.48,25.88,17.1,28.49,15.46Z"/></svg>