<svg xmlns="http://www.w3.org/2000/svg" viewBox="0 0 90 90" fill="currentColor"><path d="M17.26,56.1L74.2,63.07L74.59,47.76L17.65,45.14ZM18.19,49.11C15.43,48.34,16.06,46.87,16.06,46.87C16.06,46.87,18.28,42.03,18.37,33.71C18.46,25.39,23.72,27.65,23.72,27.65L26.45,35.38L23.69,42.17L21.56,46.02L21.56,46.05C21.56,46.55,20.95,49.87,18.19,49.11ZM73.78,49.99C76.54,49.25,75.94,47.79,75.94,47.79C75.94,47.79,74.11,42.41,74.08,34.09C74.05,25.77,67.35,28.07,67.35,28.07L63.45,35.82L67.62,42.58L70.71,46.4L70.74,46.4C70.74,46.9,71.01,50.72,73.78,49.99ZM51.08,38.44L55.1,42.67L64.68,53.9L67.29,61.3L68.25,70L72.97,67.83C72.97,67.83,73.27,75.44,62.01,80.7C50.77,85.9,48.97,89.22,45.64,89.22C39.78,89.22,33.72,82.32,27.83,79C20.62,74.94,15.7,60.33,17.68,52.96C19.3,46.85,19.3,41.97,20.5,38.44ZM49.33,77.79C49.54,74.15,47.95,70.06,43.81,64.95L43.06,64.62L44.17,63.71L44.86,63.98C49.24,69.39,50.98,73.82,50.71,77.85C50.56,80.14,49.39,82.23,47.32,83.84C46.42,84.55,42.28,86.75,40.38,87.69C40.38,87.69,39.93,87.4,39.54,87.17C39.15,86.93,38.7,86.67,38.7,86.67C41.71,85.52,45.16,83.7,46.51,82.64L46.51,82.7C48.28,81.32,49.24,79.67,49.33,77.79ZM56.75,79C56.96,75.35,55.67,71.15,51.53,66.04L51.35,65.8L52.46,64.89L52.61,65.09C56.99,70.5,58.4,75.06,58.16,79.08C58.1,80.29,57.74,81.79,57.02,83.17C57.02,83.17,55.91,83.79,55.28,84.17C54.65,84.55,53.18,85.43,53.18,85.43C53.48,85.23,53.78,85.02,54.05,84.81C55.46,83.7,56.6,81.49,56.75,79ZM34.44,62.95L34.26,62.71L35.37,61.77L35.52,61.98C39.9,67.5,42.19,72.15,41.95,76.26C41.8,78.73,40.47,81.05,38.1,82.96C37.32,83.58,36.51,83.99,35.49,84.46L34.17,83.49C35.46,82.96,36.3,82.52,37.26,81.76C38.67,80.61,40.38,78.73,40.53,76.17C40.74,72.44,38.58,68.18,34.44,62.95ZM64.53,76.5C64.47,76.44,65.43,77.44,65.37,77.41C64.98,77.17,64.62,77.11,64.26,77.17L61.89,73.97L61.29,68.56L64.71,56.81C64.71,56.81,65.88,45.55,67.83,38.44L72.22,38.44C73.15,41.7,73.39,46.76,73.93,53.31C74.92,65.42,74.08,66.92,70.38,72.53L70.41,72.53C69.6,73.73,67.53,77.14,64.53,76.5ZM70.8,58.81C68.88,65.74,66.69,73.32,55.94,76.88C52.91,77.67,50.41,78.32,46.99,77.56C42.01,77.88,27.44,77.91,22.79,62.63L20.83,55.4L21.16,47.49L21.02,44.11C20.71,42.08,20.41,38.79,20.74,36.79L21.35,32.45C24.62,20.87,33.84,9.05,37.74,5.09C40.32,2.47,43.75,1.09,46.39,1.09C49.03,1.09,52.49,2.41,55.04,5.09C59.06,9.26,69.45,21.04,71.44,32.45L72.04,36.79C72.37,38.82,72.04,42.11,71.77,44.11L71.62,47.49L71.56,47.46ZM55.46,5.53L58.34,8.76C59.42,10.32,62.28,13.2,62.58,15.43L62.58,15.4C63.27,20.57,59.21,10.67,55.46,5.53ZM37.29,5.53L34.41,8.76C33.33,10.32,30.47,13.2,30.17,15.43L30.17,15.4C29.48,20.57,33.54,10.67,37.29,5.53ZM34.95,25.45C35.31,21.45,36.18,21.48,36.18,21.48C36.18,21.48,37.35,27.86,40.86,31.18C44.35,34.5,40.23,41.06,40.23,41.06L40.2,41.06C38.19,36.32,34.59,29.45,34.95,25.45ZM57.5,26.3C57.17,22.51,56.33,22.54,56.33,22.54C56.33,22.54,55.19,28.57,51.83,31.74C48.46,34.91,52.43,41.09,52.43,41.09C56.27,36.53,57.83,30.09,57.5,26.3ZM49.96,44.14C48.91,45.88,48.13,47.87,47.92,53.75C47.89,54.66,47.38,55.43,46.66,55.81L46.66,56.07L46.6,56.07C46.42,56.07,46.27,56.07,46.09,56.01C45.94,56.04,45.76,56.07,45.58,56.07L45.52,56.07L45.52,55.81C44.8,55.43,44.29,54.66,44.26,53.75C44.05,47.87,43.54,45.96,42.49,44.26C42.22,43.82,40.92,42.41,40.53,41.85C39.72,40.7,39.18,38.32,40.83,36.77C41.17,36.44,42.67,36.56,43.45,36.77C45.58,37.41,47.95,37.44,49.93,36.97C50.59,36.82,51.59,36.97,51.89,37.21C53.54,38.76,52.7,40.53,52.19,41.44L52.22,41.47C51.89,42.05,50.23,43.7,49.96,44.14ZM45.1,36.94C44.74,35.15,45.31,33.03,47.74,33.03C49.81,33.03,48.31,36.09,48.13,36.94C48.07,37.15,47.89,37.29,47.65,37.29L45.61,37.29L45.58,37.32C45.34,37.32,45.13,37.18,45.1,36.94ZM50.08,55.98C49.63,55.51,50.02,52.75,50.11,52.08C50.47,49.55,51.77,47.34,56.18,45.35C58.13,44.46,62.58,45.35,64.2,46.43C69.93,50.25,63,50.93,61.01,55.13C61.01,55.19,62.01,58.81,62.01,58.86C61.41,60.19,54.2,59.04,52.7,59.51L52.67,59.48ZM42.97,53.78C42.97,53.69,42.64,44.44,29.09,46.08C24.17,46.67,25.73,49.02,27.74,53.22C27.74,53.28,33.57,54.75,33.57,54.81C35.13,60.3,37.83,59.36,39.36,59.83C39.36,59.83,43.06,54.49,42.97,53.78ZM35.61,62.39L31.98,60.95L32.52,61.77C30.83,61.66,27.95,60.13,26.42,58.45C25.04,57.6,24.35,55.28,23.78,53.25L24.14,52.9C27.83,58.01,29.99,58.66,35.13,58.75C35.85,58.75,40.32,58.6,40.32,58.6L39.21,61.25L39.27,61.25C38.76,61.36,36.93,62.27,35.61,62.39ZM56.57,62.45C56.18,62.33,56.12,60.98,55.7,60.86C55.34,60.77,55.34,61.66,55.01,61.57C54.35,61.36,53.12,61.74,53.12,61.74C53.12,61.74,52.64,59.6,52.85,58.72C52.85,58.72,61.26,59.75,66.09,56.51C67.86,55.34,68.34,53.81,68.46,52.99L69.09,52.81C69.24,54.37,68.55,57.25,65.97,59.72L65.97,59.75C65.97,60.13,59.15,63.16,56.57,62.45ZM46.69,45.64C45.28,45.64,44.71,45.26,44.17,43.82C43.63,42.38,40.14,41.58,40.77,39.23C41.02,38.38,41.05,41.14,44.38,41.14C44.86,41.14,45.58,40.56,46.51,40.56C47.89,40.56,48.43,41.26,49,41.29C49.93,41.29,50.14,41.29,50.44,41.11C51.71,40.41,51.44,38.7,51.8,39.15C53.36,41,49.36,43.41,49.15,43.85L49.21,43.82C48.58,45.23,48.1,45.64,46.69,45.64ZM69.45,59.28C69.45,59.28,67.2,62.24,62.67,64.48C58.13,66.71,53.42,67.01,53.42,67.01C65.73,70.03,69.45,59.28,69.45,59.28ZM53.84,46.23C53.84,46.23,52.67,47.84,54.74,46.43C56.81,45.02,58.85,45.05,58.85,45.05C58.01,44.93,55.52,44.46,53.84,46.23ZM39.48,47.43C39.48,47.43,40.92,49.08,38.37,47.55C35.82,46.02,33.36,45.93,33.36,45.93L33.33,45.93C34.35,45.9,37.41,45.61,39.48,47.43ZM29.24,53.22C34.17,57.6,38.64,54.28,40.68,52.28C40.8,52.13,42.34,53.69,42.49,53.55L40.11,50.25C40.11,50.25,37.98,51.84,36.57,52.16C36.57,52.16,30.59,49.87,29.63,48.78L27.32,48.87C26.6,50.43,29.24,53.22,29.24,53.22ZM39.6,50.05C39.6,50.05,38.7,48.05,33.69,48.08C30.83,48.08,29.27,48.93,29.27,48.93C29.27,48.93,29.33,50.25,29.36,50.37C29.66,53.28,37.74,56.63,40.11,50.25ZM35.07,46.46C36.57,46.49,37.8,47.76,37.77,49.28C37.74,50.81,36.48,52.05,34.98,52.02C33.48,51.99,32.25,50.72,32.28,49.2C32.28,47.67,33.57,46.43,35.07,46.46ZM34.16,50.53C33.76,50.53,33.43,50.2,33.43,49.8C33.43,49.39,33.75,49.06,34.15,49.06C34.55,49.06,34.87,49.39,34.87,49.79C34.87,50.2,34.55,50.53,34.16,50.53ZM31.53,53.34C30.23,52.63,29,51.11,28.49,49.31L29.27,48.93C29.27,48.93,29.9,52.08,32.22,53.08C34.53,54.07,36.84,53.63,36.84,53.63C36.72,54.63,32.82,54.05,31.53,53.34ZM63.9,53.22C57.59,58.81,53.57,52.84,52.7,51.99L53.03,50.28C53.03,50.28,55.16,51.87,56.57,52.19C56.57,52.19,62.55,49.9,63.51,48.81L65.82,48.9L65.82,48.87C66.54,50.43,63.9,53.22,63.9,53.22ZM45.04,40.17C45.19,39.67,44.83,39.73,44.17,39.12C43.81,38.76,43.21,37.56,42.97,37.41C42.25,36.94,41.29,37.65,41.8,39.15C42.31,40.64,43.63,40.85,43.93,40.85C44.86,40.82,44.8,41,45.04,40.17ZM48.46,40.35C48.31,39.85,48.46,39.91,49.09,39.29C49.45,38.94,49.9,37.76,50.17,37.62C50.89,37.15,51.92,37.62,51.41,39.12C50.89,40.61,50.05,40.82,49.72,40.79C48.79,40.76,48.7,41.14,48.46,40.35ZM24.68,61.72C24.68,61.72,28.91,64.62,34.32,64.42C40.44,64.18,42.58,63.45,43.33,62.66C46.9,58.98,44.74,58.48,45.22,57.89C45.7,57.31,46.33,56.43,46.33,56.43C46.33,56.43,47.44,62.48,41.23,64.74L41.23,64.71C38.19,65.83,30.08,66.92,24.68,61.72ZM49.21,64.6C51.53,65.45,52.1,65.86,52.1,65.86C52.1,65.86,50.08,65.3,46.75,65.71C44.35,66.01,43.57,66.56,43.57,66.56L43.54,66.56C46.42,64.54,46.9,63.74,49.21,64.6ZM52.88,19.69C53.54,21.72,52.37,11.37,47.23,11.61C42.1,11.84,40.95,15.66,40.29,18.63L40.32,18.66C39.09,24.22,52.22,17.66,52.88,19.69ZM49.33,15.61C51.68,16.75,52.52,17.49,52.52,17.49C52.52,17.49,51.95,13.61,46.69,13.58C41.44,13.55,40.59,17.81,40.59,17.81C43.93,15.22,46.99,14.46,49.33,15.61ZM41.68,17.1C38.85,18.07,40.11,22.39,40.11,22.39C40.11,22.39,41.53,30.51,44.53,31.62C45.64,32.03,49.12,31.5,50.08,31.33C51.65,31.03,52.61,23.36,52.61,23.36C52.61,23.36,53.48,18.28,50.65,17.28L50.62,17.28C49.24,16.81,42.88,16.69,41.68,17.1ZM47.14,32.15C46.42,32.15,46.27,32.77,44.89,32.71C42.67,32.59,40.53,26.83,39.57,21.31C38.94,17.78,42.31,14.67,45.1,14.67C45.31,14.67,48.55,14.69,48.73,14.72C51.53,14.96,53.03,16.87,53.03,20.48C53.03,25.92,52.37,31.24,50.05,32.71C49.36,33.15,47.86,32.15,47.14,32.15ZM42.67,17.84C40.5,18.6,40.35,19.84,40.47,21.63C40.59,23.42,42.4,28.48,44.5,30.59C45.04,31.15,45.82,30.92,46.72,30.98C47.95,31.06,49.27,31.18,49.78,30.71C52.49,28.36,52.34,24.16,52.34,22.57C52.34,20.98,52.01,18.93,49.51,17.84L49.48,17.84C47.38,16.93,45.16,16.96,42.67,17.84ZM55.79,71.77L39.36,73.09C42.34,73.97,49.06,74.85,55.79,71.77ZM27.08,25.66L24.23,36.24C24.41,31.56,26.06,26.95,27.08,25.66ZM65.58,25.66L68.43,36.24C67.86,31.56,66.18,26.95,65.58,25.66ZM27.2,49.78L25.25,48.64L29.63,48.78ZM65.94,49.78L67.89,48.64L63.51,48.78ZM53.54,50.05C53.54,50.05,54.44,48.05,59.45,48.08C62.31,48.08,63.87,48.93,63.87,48.93C63.87,48.93,63.81,50.25,63.78,50.37C63.48,53.28,55.4,56.63,53.03,50.25ZM58.07,46.46C56.57,46.49,55.34,47.76,55.37,49.28C55.4,50.81,56.66,52.05,58.16,52.02C59.66,51.99,60.89,50.72,60.86,49.2C60.86,47.67,59.57,46.43,58.07,46.46ZM59.71,49.79C59.71,50.19,59.38,50.52,58.99,50.52C58.59,50.52,58.27,50.19,58.27,49.78C58.27,49.38,58.6,49.05,58.99,49.05C59.39,49.05,59.71,49.38,59.71,49.79ZM61.65,53.34C62.94,52.63,64.17,51.11,64.68,49.31L63.9,48.93C63.9,48.93,63.27,52.08,60.95,53.08C58.64,54.07,56.33,53.63,56.33,53.63C56.45,54.63,60.35,54.05,61.65,53.34Z"/></svg>