<svg xmlns="http://www.w3.org/2000/svg" viewBox="0 0 90 90"><path d="M76.08,30.68C76.67,31.24,77.19,31.83,77.31,32.33C77.67,33.8,79.25,42.53,78.08,44.99C77.88,45.46,77.58,45.85,77.25,46.23C75.81,47.81,73.58,48.55,73.58,48.55L73.17,28.48L73.17,28.45C73.17,28.45,74.84,29.54,76.08,30.68Z" fill="currentColor"/><path d="M77.31,32.33C77.67,33.8,79.25,42.52,78.08,44.99C77.88,45.46,77.58,45.85,77.25,46.23C75.39,43.49,75.3,37.32,75.3,37.32C75.3,37.32,77.97,36.91,76.08,30.71L76.08,30.68C76.67,31.24,77.19,31.83,77.31,32.33Z" fill="currentColor"/><path d="M17.79,30.68C17.19,31.24,16.68,31.83,16.56,32.33C16.2,33.8,14.61,42.53,15.78,44.99C15.99,45.46,16.29,45.85,16.62,46.23C18.06,47.81,20.27,48.55,20.27,48.55L22.05,28.48L22.05,28.45C22.05,28.45,19.02,29.54,17.79,30.68Z" fill="currentColor"/><path d="M16.56,32.33C16.2,33.8,14.61,42.52,15.78,44.99C15.99,45.46,16.29,45.85,16.62,46.23C18.48,43.49,18.57,37.32,18.57,37.32C18.57,37.32,15.9,36.91,17.79,30.71L17.79,30.68C17.19,31.24,16.68,31.83,16.56,32.33Z" fill="currentColor"/><path d="M52.85,86.31C48.35,88.55,45.77,89.6,43.34,89.57C35.27,89.46,26.3,82.73,19.02,74.56C11.7,66.39,14.66,57.95,14.96,56.13C15.8,50.78,18.11,50.78,19.25,41.67L19.38,41.76C19.46,41.14,19.55,40.5,19.64,39.85C19.89,36.35,20.39,31.21,21,26.48C21,26.33,21,26.27,21,26.27C21,26.27,21,26.27,21,26.24C21.18,24.77,21.36,23.36,21.54,22.07C21.89,19.57,22.89,17.22,24.41,15.19C26.66,12.23,29.39,9.52,32.34,7.49C34.65,5.91,38.22,3.85,41.3,2.56C44.88,1.06,48.98,1.06,52.55,2.56C55.65,3.85,59.52,6.11,61.52,7.49C65.91,10.52,67.53,12.76,69.44,15.19C70.25,16.25,70.89,17.4,71.39,18.63C72.78,21.1,73.08,26.3,73.08,26.3C73.08,26.3,73.17,27.71,73.38,29.89C73.73,32.89,74.06,35.82,74.28,38.26C74.72,41.82,75.3,45.41,75.95,47.84C76.47,49.11,77.13,50.52,77.88,51.72C79.94,54.99,80.91,64.07,75.33,72.94L75.3,72.91C68,84.52,64.19,88.81,52.85,86.31Z" fill="currentColor"/><path d="M45.59,38.5C45.59,38.5,28.2,39.7,27.3,43.44C26.36,47.17,28.68,55.1,28.68,55.1C28.68,55.1,39.35,58.72,41.91,56.6L41.88,56.57C47.58,51.78,45.59,38.5,45.59,38.5Z" fill="currentColor"/><path d="M58.8,48.11C58.13,48.29,57.41,48.37,56.63,48.29C56.22,47.96,55.95,47.43,55.91,46.87C55.91,46.4,56.09,45.96,56.37,45.64C57.2,45.76,58.2,45.88,59.27,45.9C59.42,46.14,59.52,46.43,59.55,46.73C59.4,46.58,59.19,46.49,58.98,46.49C58.52,46.49,58.2,46.87,58.2,47.34C58.2,47.73,58.47,48.02,58.8,48.11Z" fill="currentColor"/><path d="M58.19,47.34C58.19,46.9,58.52,46.52,58.97,46.49C59.18,46.49,59.39,46.58,59.54,46.73C59.69,46.87,59.78,47.08,59.78,47.32C59.78,47.52,59.72,47.7,59.6,47.87C59.36,47.96,59.09,48.05,58.82,48.14L58.79,48.11C58.46,48.02,58.19,47.73,58.19,47.34Z" fill="currentColor"/><path d="M72.17,44.05C72.17,44.41,72.17,44.76,72.17,45.11C72.17,45.11,72.17,45.17,72.17,45.2C72.17,49.81,72.05,50.37,71.9,54.49C71.81,54.96,66.74,59.95,66.59,60.54C66.44,61.22,66.68,62.92,66.38,64.8C65.33,67.65,63.14,71.27,54.74,73.24C57.17,69.27,58.7,64.1,55.55,58.98C55.55,58.95,55.52,58.92,55.49,58.86L53.51,59.13C53.51,59.13,55.91,59.45,54.95,65.8C54.23,70.68,50.84,73,49.31,73.79C48.53,73.85,47.75,73.88,46.91,73.91C31.4,73.5,29.09,68.15,27.92,64.21C27.62,62.36,27.86,60.66,27.71,60.01C27.56,59.42,22.04,54.93,21.92,54.49C21.8,51.05,21.71,51.58,21.68,47.46C21.68,47.46,21.68,47.46,21.68,47.43C21.68,46.96,21.68,46.49,21.68,46.02C21.68,46.02,21.68,46.02,21.68,45.99C21.68,45.05,21.68,44.17,21.68,43.35C21.68,42.97,21.68,42.61,21.68,42.23C21.68,42.17,21.68,42.11,21.68,42.03C21.68,41.7,21.68,41.38,21.68,41.09C21.68,41.03,21.68,40.97,21.68,40.91C21.68,40.59,21.68,40.29,21.68,40.03C21.68,40.03,21.68,40,21.68,39.97C21.68,39.7,21.68,39.47,21.68,39.26C21.68,39.23,21.68,39.17,21.68,39.15C21.68,38.94,21.68,38.73,21.68,38.56C21.68,38.53,21.68,38.47,21.68,38.44C21.68,38.26,21.68,38.12,21.68,38C21.68,38,21.68,37.97,21.68,37.94C21.68,37.82,21.68,37.71,21.68,37.65C21.68,17.13,26.48,21.07,29.12,21.81C31.46,22.48,31.7,23.07,31.76,25.74C31.88,32.42,39.47,30.86,43.64,32.94L43.64,33.47L50.09,33.47L50.09,32.68C56.69,28.42,62.18,31.27,62.03,24.45C61.97,22.1,62.78,22.16,64.61,21.78C67.43,21.19,72.05,18.13,72.05,37.62C72.05,37.68,72.05,37.76,72.05,37.85C72.05,37.85,72.05,37.91,72.05,37.94C72.05,38.03,72.05,38.12,72.05,38.23C72.05,38.23,72.05,38.29,72.05,38.32C72.05,38.47,72.05,38.62,72.05,38.76C72.05,38.82,72.05,38.88,72.05,38.94C72.05,39.09,72.05,39.23,72.05,39.41C72.05,39.44,72.05,39.5,72.05,39.53C72.05,39.73,72.05,39.97,72.05,40.2C72.05,40.26,72.05,40.32,72.05,40.38C72.05,40.59,72.05,40.76,72.05,40.97C72.05,41.03,72.05,41.11,72.05,41.17C72.05,41.44,72.05,41.7,72.05,42C72.05,42.03,72.05,42.08,72.05,42.11C72.05,42.38,72.05,42.64,72.05,42.91C72.05,42.97,72.05,43.02,72.05,43.11L72.17,43.05C72.17,43.38,72.17,43.7,72.17,44.05Z" fill="currentColor"/><path d="M49.26,39.65C49.26,45.2,51.63,49.84,51.63,49.84L42.2,49.84C42.2,49.84,44.6,47.34,44.6,39.59C43.91,39.17,43.38,38.59,43.08,37.88C41.58,37.85,40.38,36.79,40.38,35.5C40.38,34.21,41.6,33.12,43.13,33.12L50.66,33.12C52.2,33.12,53.42,34.18,53.42,35.5C53.42,36.82,52.28,37.79,50.84,37.85L50.88,37.88C50.58,38.62,50.01,39.23,49.26,39.65Z" fill="currentColor"/><path d="M64.16,51.69C62.76,51.9,61.31,52.13,59.84,52.16C58.2,52.19,56.63,52.16,55.08,51.96C54.09,51.43,52.47,51.49,52.08,50.11C46.34,45.14,51.35,38.44,51.35,38.44C51.35,38.44,65.64,39.47,66.39,42.64C66.83,44.52,66.39,47.64,65.91,49.87C65.69,50.05,65.48,50.22,65.36,50.46L65.33,50.52C64.8,50.72,64.38,51.16,64.16,51.69Z" fill="currentColor" opacity="0.5"/><path d="M41.24,51.02C40.43,51.69,39.45,52.11,38.63,52.61C35.48,52.81,32.48,52.75,29.66,51.19C29.42,51.08,29.18,50.99,28.94,50.96C28.79,50.75,28.61,50.58,28.4,50.43C28.31,50.34,28.19,50.28,28.07,50.22C27.59,47.96,27.05,44.7,27.53,42.76C28.28,39.56,42.71,38.56,42.71,38.56C42.71,38.56,47.39,44.61,41.66,51.11L41.63,51.05C41.63,51.05,41.34,50.93,41.24,51.02Z" fill="currentColor" opacity="0.5"/><path d="M41.15,53.08L40.97,51.58L42.26,52.28C42.26,52.28,42.62,51.4,41.87,50.72L43.34,50.93C42.5,50.02,41.21,50.05,41.21,50.05C41.21,50.05,38.63,52.34,32,51.31C31.91,51.31,31.79,51.28,31.7,51.25C31.49,51.22,31.28,51.19,31.04,51.14C31.01,51.14,30.98,51.14,30.95,51.11C29.66,50.81,28.58,50.34,27.92,49.61C28.46,53.4,32.99,54.34,35.24,54.13L35.24,54.16C36.95,54.02,41.15,53.08,41.15,53.08Z" fill="currentColor"/><path d="M52.62,53.6L52.8,51.87L51.38,52.63C51.38,52.63,51.12,51.69,51.87,50.9L50.88,50.99C51.72,49.96,52.55,50.11,52.55,50.11C52.55,50.11,55.13,52.72,61.77,51.55C61.85,51.55,61.98,51.52,62.06,51.49C62.27,51.46,62.48,51.4,62.73,51.37C62.76,51.37,62.78,51.37,62.81,51.34C64.1,51.02,65.19,50.46,65.84,49.64C65.39,53.25,61.13,54.63,59.06,54.52C57.35,54.4,52.62,53.6,52.62,53.6Z" fill="currentColor"/><path d="M35.52,17.22C35.52,13.75,38.58,10.93,42.35,10.93L51.51,10.93C55.28,10.93,58.34,13.75,58.34,17.22L58.34,25.27C58.34,25.27,54.05,29.86,47.09,29.86C40.13,29.86,35.52,27.16,35.52,27.16Z" fill="currentColor"/><path d="M53.01,20.51C53.01,23.65,50.29,26.19,46.95,26.19C43.6,26.19,40.88,23.65,40.88,20.51C40.88,17.38,43.6,14.84,46.95,14.84C50.29,14.84,53.01,17.38,53.01,20.51Z" fill="currentColor"/><path d="M56.27,24.01L37.94,25.51C41.18,16.08,52.31,15.34,56.27,24.01Z" fill="currentColor"/><path d="M56.61,24.83L37.29,26.01C41.16,19.72,52.89,19.1,56.61,24.83Z" fill="currentColor"/><path d="M37.19,26.04L47.3,22.92L56.63,24.83C49.73,30.04,43.25,29.04,37.19,26.04Z" fill="currentColor"/><path d="M56.72,49.05C61.19,50.2,63.47,45.76,62.78,45.82C58.49,46.2,53.54,45.76,53.54,45.76C53.54,45.76,54.14,48.37,56.72,49.05Z" fill="currentColor"/><path d="M56.43,48.14C60.12,49.05,62.82,45.64,62.16,45.85C57.21,47.34,53.52,45.08,53.52,45.08L53.55,45.08C53.55,45.08,53.85,47.49,56.43,48.14Z" fill="currentColor"/><path d="M58.2,45.05C58.95,45.23,59.55,45.93,59.55,46.79C59.55,47.81,58.77,48.67,57.78,48.7C56.79,48.73,55.95,47.9,55.92,46.87C55.92,46.02,56.43,45.29,57.18,45.05L57.21,45.05Z" fill="currentColor"/><path d="M59.82,47.26C59.82,47.5,59.61,47.7,59.37,47.7C59.12,47.7,58.92,47.5,58.92,47.26C58.92,47.01,59.12,46.82,59.37,46.82C59.61,46.82,59.82,47.01,59.82,47.26Z" fill="currentColor"/><path d="M37.52,49.05C33.05,50.2,30.77,45.76,31.46,45.82C35.76,46.2,40.7,45.76,40.7,45.76C40.7,45.76,40.1,48.37,37.52,49.05Z" fill="currentColor"/><path d="M37.83,48.14C34.13,49.05,31.41,45.79,32.09,45.85C36.38,46.23,40.73,45.08,40.73,45.08L40.7,45.08C40.7,45.08,40.41,47.49,37.83,48.14Z" fill="currentColor"/><path d="M36.05,45.05C35.3,45.23,34.7,45.93,34.7,46.79C34.7,47.81,35.48,48.67,36.48,48.7C37.47,48.73,38.3,47.9,38.34,46.87C38.34,46.02,37.83,45.29,37.08,45.05L37.05,45.05Z" fill="currentColor"/><path d="M38.69,47.17C38.69,47.43,38.49,47.64,38.24,47.64C38,47.64,37.79,47.43,37.79,47.17C37.79,46.91,38,46.7,38.24,46.7C38.49,46.7,38.69,46.91,38.69,47.17Z" fill="currentColor"/><path d="M45.02,81.14C46.91,78.97,45.02,77.38,45.02,77.38L39.56,77.29C39.56,77.29,34.79,85.14,34.88,85.55C34.97,85.96,39.56,88.9,42.65,88.31L42.62,88.31C42.62,88.31,43.13,83.32,45.02,81.14Z" fill="currentColor"/><path d="M63.83,84.08C63.83,84.08,66.05,83.17,66.74,81.99C66.74,81.99,68.96,77.5,65.72,72.97C65.72,72.97,62.3,74.56,61.19,76.14C61.19,76.14,64.76,79.64,63.83,84.08Z" fill="currentColor"/><path d="M34.91,72.03C24.05,67.77,45.27,60.89,45.27,60.89L48.09,66.77L49.34,73.85C49.34,73.85,45.77,76.29,34.91,72.03Z" fill="currentColor"/><path d="M73.08,46.02C73.08,45.85,73.11,45.67,73.08,45.49C72.92,43.35,71.81,28.57,71.64,28.8C71.45,29.07,68.06,37.73,68.16,37.97C68.25,38.2,68.48,42.82,68.48,42.82L68.48,50.34L71.88,54.52L71.91,54.52Z" fill="currentColor"/><path d="M21.09,46.02C21.09,45.85,21.05,45.67,21.09,45.49C21.23,43.35,23.36,23.95,23.3,24.22C22.91,26.01,26.09,37.73,26,38C25.91,38.26,25.68,42.85,25.68,42.85L25.68,50.37L22.29,54.54L22.25,54.52Z" fill="currentColor"/><path d="M62.84,40.41C62.48,40.26,62.13,40.14,61.76,40.09C61.41,40.03,60.98,40.03,60.56,40C59.73,39.97,58.88,39.94,58.04,39.94C57.2,39.94,56.37,39.94,55.52,39.97L54.3,40.03C53.94,40.03,53.58,40.12,53.24,40.26C51.92,40.76,51.2,42.26,50.55,43.73C50.37,44.14,50.24,44.55,50.19,44.96C50.13,45.38,50.16,45.85,50.13,46.35L49.76,46.35L49.76,46.7L43.65,46.7L43.65,46.35C43.65,45.85,43.65,45.38,43.59,44.96C43.52,44.52,43.41,44.11,43.23,43.73C42.56,42.26,41.84,40.79,40.52,40.26C40.2,40.14,39.87,40.06,39.5,40.03C39.14,40,38.7,39.97,38.27,39.97C37.43,39.97,36.59,39.94,35.78,39.94C34.95,39.94,34.1,39.94,33.3,40C32.42,40.03,31.7,40.06,30.98,40.29C29.55,40.76,28.25,41.85,27.89,43.35L27.32,43.29C27.41,41.44,28.91,39.91,30.59,39.29C31.46,38.94,32.42,38.88,33.23,38.85C34.08,38.79,34.95,38.79,35.78,38.76C36.63,38.76,37.49,38.76,38.34,38.76C38.76,38.76,39.17,38.76,39.63,38.82C40.1,38.85,40.58,38.97,41.03,39.15C41.96,39.5,42.69,40.23,43.2,40.97C43.7,41.7,44.06,42.5,44.39,43.29C44.6,43.79,44.73,44.32,44.78,44.85C44.81,45.11,49.02,45.11,49.05,44.85C49.1,44.32,49.23,43.79,49.44,43.29C49.73,42.5,50.09,41.7,50.6,40.94C51.12,40.2,51.84,39.47,52.8,39.09C53.24,38.91,53.76,38.79,54.23,38.76C54.69,38.76,55.1,38.76,55.52,38.73C56.4,38.73,57.23,38.73,58.1,38.73C58.95,38.73,59.81,38.79,60.69,38.85C61.1,38.88,61.55,38.91,62.03,39C62.48,39.12,62.94,39.26,63.35,39.47C64.19,39.88,64.88,40.47,65.42,41.17C65.97,41.88,66.36,42.73,66.39,43.61L66.02,43.61L65.96,43.7C65.54,42.17,64.22,41.03,62.84,40.41Z" fill="currentColor"/><path d="M54.9,39.91C52.28,40.06,51.2,42.08,50.34,44.17C50.03,44.88,49.91,45.58,49.91,46.29L49.91,47.11C49.91,48.2,50.84,49.23,52.02,49.4C56.16,49.96,60.35,49.99,64.5,49.46C65.84,49.25,66.95,48.08,66.95,46.79C66.86,45.96,66.78,45.17,66.66,44.38C66.39,42.14,64.31,40.17,62.03,39.94C60.84,39.85,59.22,39.79,57.63,39.79L57.63,39.85C56.63,39.85,55.67,39.85,54.9,39.91Z" fill="currentColor"/><path d="M61.98,40.53C63.98,40.7,65.84,42.5,66.08,44.46C66.17,45.26,66.27,46.05,66.36,46.84C66.36,47.81,65.45,48.78,64.38,48.96C60.3,49.49,56.16,49.46,52.05,48.9C51.15,48.78,50.4,47.96,50.4,47.14L50.4,46.32C50.4,45.67,50.52,45.02,50.78,44.41C51.63,42.41,52.59,40.59,54.9,40.47L54.92,40.44C56.97,40.35,60.09,40.38,61.98,40.53Z" fill="currentColor"/><path d="M43.59,47.99L43.59,46.85L50.37,46.85L50.37,47.99Z" fill="currentColor"/><path d="M31.59,40C29.27,40.2,27.18,42.2,26.91,44.44C26.82,45.23,26.73,46.02,26.61,46.82C26.61,48.14,27.71,49.31,29.09,49.52C33.3,50.05,37.55,50.02,41.78,49.46C42.95,49.28,43.91,48.26,43.91,47.17L43.91,46.35C43.91,45.64,43.77,44.91,43.47,44.23C42.56,42.14,41.48,40.09,38.81,39.97C38.01,39.94,37.05,39.91,36.02,39.91L36.05,39.85C34.47,39.85,32.78,39.91,31.59,40Z" fill="currentColor"/><path d="M29.18,48.96C28.11,48.81,27.18,47.84,27.18,46.82C27.27,46.08,27.36,45.29,27.48,44.46C27.71,42.47,29.61,40.7,31.68,40.53C33.59,40.38,36.74,40.35,38.84,40.44C41.19,40.56,42.15,42.38,43.02,44.38C43.28,44.99,43.41,45.64,43.41,46.29L43.41,47.11C43.41,47.93,42.66,48.76,41.73,48.87C39.59,49.17,37.44,49.28,35.27,49.28L35.27,49.34C33.23,49.34,31.2,49.23,29.18,48.96Z" fill="currentColor"/><path d="M66.53,47.76L66.53,46.64L73.56,46.64L73.56,47.76Z" fill="currentColor"/><path d="M19.94,47.76L19.94,46.64L26.87,46.64L26.87,47.76Z" fill="currentColor"/><path d="M59.7,64.54L58.28,57.51L54.09,56.51L51.38,58.39L51.15,61.27L53.19,64.65Z" fill="currentColor"/><path d="M52.5,73.79C52.5,73.79,55.98,70.59,55.8,64.65C55.62,58.72,59.67,61.1,59.67,61.1L60.27,65.59L59.58,68.36L58.56,69.77L57.44,71.03L54.75,73.24L54.75,73.26Z" fill="currentColor"/></svg>