<svg xmlns="http://www.w3.org/2000/svg" viewBox="0 0 90 90"><path d="M76.8,29.53C78.12,33.07,79.02,38.41,78.5,43.12C78.23,45.58,77.58,47.23,76.77,47.89C75.24,49.12,73.08,46.99,71.64,40.48C71.64,40.48,69.56,35.23,72,27.82C73.28,23.92,75.3,25.6,76.8,29.53Z" fill="currentColor"/><path d="M78.51,43.12C78.24,45.58,77.58,47.23,76.77,47.89C75,44.68,74.04,37.81,73.95,34.69C76.62,39.88,78.84,37.39,76.83,29.53L76.8,29.53C78.12,33.07,79.02,38.41,78.51,43.12Z" fill="currentColor"/><path d="M15.99,29.53C14.64,33.07,13.77,38.41,14.28,43.12C14.55,45.58,15.21,47.23,16.02,47.89C17.55,49.12,19.71,46.99,21.14,40.48C21.14,40.48,23.21,35.23,20.79,27.82C19.5,23.92,17.49,25.6,15.99,29.53Z" fill="currentColor"/><path d="M14.28,43.12C14.55,45.58,15.21,47.23,16.02,47.89C17.79,44.68,18.75,37.81,18.84,34.69C16.17,39.88,13.95,37.39,15.96,29.53L15.99,29.53C14.64,33.07,13.77,38.41,14.28,43.12Z" fill="currentColor"/><path d="M74.49,36.49C75.6,43.66,75.03,55.33,73.68,64.75C72.78,70.96,62.43,82.18,56.25,82.39L35.28,82.21C25.68,81.85,20.79,72.19,19.62,65.89C17.94,56.83,18.15,49.54,18.06,46C17.97,42.79,18.06,34.21,19.8,34.66L74.28,35.17L74.25,35.23C74.34,35.65,74.43,36.07,74.49,36.49Z" fill="currentColor"/><path d="M67.58,66.55C56.58,73,44.16,72.07,42.17,72.13C36.05,72.37,30.86,71.11,27.09,67.84C22.91,64.24,20,43.51,19.89,37.69C19.59,25.63,34.77,1,45.92,1L46.91,1C58.08,1,73.25,25.63,72.95,37.69L72.92,37.69C72.78,43.54,70.05,64.72,67.58,66.55Z" fill="currentColor"/><path d="M41.22,18.25C42.24,15.88,43.83,13.54,46.2,13.54C48.15,13.54,49.56,14.65,50.64,16.21C51.54,17.5,52.23,19.15,52.8,20.74L40.32,20.74C40.56,19.96,40.83,19.12,41.22,18.25Z" fill="currentColor"/><path d="M38.4,20.44C39.95,18.07,42.35,15.73,45.95,15.73C48.9,15.73,51.05,16.84,52.73,18.4C54.12,19.69,55.16,21.34,56.03,22.93L37.05,22.93C37.41,22.15,37.83,21.31,38.4,20.44Z" fill="currentColor"/><path d="M38.4,23.44C39.95,23.92,42.35,24.37,45.95,24.37C48.9,24.37,51.05,24.16,52.73,23.83C54.12,23.56,55.16,23.23,56.03,22.93L37.05,22.93C37.41,23.08,37.83,23.26,38.4,23.44Z" fill="currentColor"/><path d="M51.02,89.89C46.98,88.45,44.16,85.6,44.16,85.6C45.33,87.55,47.78,89.17,49.67,90.34C48.17,90.79,46.52,91,44.73,91C39.63,88.63,36.66,84.01,36.66,84.01C37.59,87.46,40.55,89.65,42.77,90.85C42.38,90.79,41.97,90.73,41.55,90.67C26.07,87.88,31.14,71.26,31.14,71.26C60.48,78.31,70.28,60.31,70.28,60.31C70.28,60.31,72,67.66,61.98,80.41C59.13,84.22,55.73,88.06,51.02,89.89Z" fill="currentColor"/><path d="M44.16,85.6C45.33,87.55,47.79,89.17,49.68,90.34C49.5,90.4,49.29,90.43,49.11,90.49C39.54,84.94,39.15,75.7,39.75,71.47C40.14,71.5,40.56,71.53,40.95,71.56C40.35,75.34,40.59,83.77,49.08,89.05C46.11,87.55,44.16,85.6,44.16,85.6Z" fill="currentColor" opacity="0.15"/><path d="M56.76,86.23C56.43,86.53,56.1,86.8,55.77,87.1C50.97,84.55,48,81.49,46.92,77.95C46.32,76,46.41,73,46.71,71.59C47.16,71.59,47.58,71.53,48,71.5C47.67,72.79,47.52,75.73,48.12,77.62L48.09,77.59C49.11,80.92,52.02,83.8,56.76,86.23Z" fill="currentColor" opacity="0.15"/><path d="M36.51,27.04C35.04,25.33,32.94,23.71,34.59,21.34C29.85,24.7,38.52,29.89,39.51,33.67C39.57,31.15,38.04,28.87,36.51,27.04Z" fill="currentColor"/><path d="M58.2,21.34C59.85,23.71,57.75,25.33,56.28,27.04C54.75,28.87,53.22,31.15,53.28,33.67C54.27,29.89,62.94,24.73,58.2,21.34Z" fill="currentColor"/><path d="M59.27,54.37L56.84,54.37C52.31,54.37,48.66,50.38,48.69,45.49C48.69,44.8,48.69,44.32,48.74,44.05C48.84,42.79,64.73,41.53,66.75,42.46C67.61,42.85,67.67,44.77,67.34,47.02L67.31,47.02C66.69,51.28,63.23,54.37,59.27,54.37Z" fill="currentColor"/><path d="M33.48,54.01L35.91,54.01C40.44,54.01,44.1,50.02,44.07,45.13C44.07,44.44,44.07,43.96,44.01,43.69C43.92,42.43,28.02,41.17,26.01,42.1C25.14,42.49,25.08,44.41,25.41,46.66L25.44,46.66C26.07,50.92,29.52,54.01,33.48,54.01Z" fill="currentColor"/><path d="M65.22,44.65C65.22,44.65,63.57,48.85,58.59,48.85C53.61,48.85,53.61,44.65,53.61,44.65Z" fill="currentColor"/><path d="M63.95,44.62C63.95,44.62,62.42,48.22,57.84,48.22C53.24,48.22,53.24,44.62,53.24,44.62Z" fill="currentColor"/><path d="M57.8,43.87C56.45,43.87,55.38,45.01,55.38,46.45C55.38,47.89,56.45,49.03,57.8,49.03C59.16,49.03,60.23,47.89,60.23,46.45C60.23,45.04,59.16,43.87,57.8,43.87Z" fill="currentColor"/><path d="M60.09,45.85C59.66,45.85,59.34,46.21,59.34,46.63C59.34,47.05,59.66,47.41,60.09,47.41C60.51,47.41,60.84,47.05,60.84,46.63C60.84,46.18,60.51,45.85,60.09,45.85Z" fill="currentColor"/><path d="M27.57,44.65C27.57,44.65,29.22,48.85,34.2,48.85C39.18,48.85,39.18,44.65,39.18,44.65Z" fill="currentColor"/><path d="M28.83,44.62C28.83,44.62,30.36,48.22,34.95,48.22C39.54,48.22,39.54,44.62,39.54,44.62Z" fill="currentColor"/><path d="M34.53,43.87C35.88,43.87,36.96,45.01,36.96,46.45C36.96,47.86,35.88,49.03,34.53,49.03C33.18,49.03,32.1,47.89,32.1,46.45C32.1,45.04,33.18,43.87,34.53,43.87Z" fill="currentColor"/><path d="M36.84,45.85C37.26,45.85,37.59,46.21,37.59,46.63C37.59,47.05,37.26,47.41,36.84,47.41C36.42,47.41,36.09,47.05,36.09,46.63C36.09,46.18,36.42,45.85,36.84,45.85Z" fill="currentColor"/><path d="M49.38,41.26C49.38,46.87,47.43,49.6,47.19,52.6L46.2,52.6C45.96,49.57,43.74,47.11,43.74,41.26C43.74,35.41,41.43,34.03,41.43,34.03C40.23,33.01,40.62,29.92,42.12,29.41C42.18,29.41,42.24,29.38,42.3,29.35L50.88,29.35C50.88,29.35,51,29.38,51.06,29.41C52.56,29.92,52.95,33.01,51.75,34.03L51.69,34.03C51.69,34.03,49.38,35.65,49.38,41.26Z" fill="currentColor"/><path d="M52.74,54.28C57.72,57.85,66.27,55.27,66.33,49.39C59.49,55.9,50.91,50.32,50.91,50.32L50.88,50.29C50.88,51.55,50.73,52.84,52.74,54.28Z" fill="currentColor"/><path d="M39.92,54.28C35.01,57.85,26.55,55.27,26.48,49.39C33.27,55.9,42.23,50.32,42.23,50.32L42.23,50.29C42.23,50.29,41.88,52.84,39.92,54.28Z" fill="currentColor"/><path d="M46.49,87.49C45.05,86.47,44.19,85.6,44.19,85.6C44.6,86.29,45.17,86.92,45.84,87.52C43.77,87.61,41.6,87.52,39.38,87.19C37.65,85.48,36.69,84.01,36.69,84.01C36.98,85.15,37.52,86.14,38.16,87.01C36.35,86.68,34.49,86.17,32.64,85.48C31.7,84.13,31.11,82.63,30.77,81.13C31.05,81.25,31.2,81.34,31.2,81.34C31.2,81.34,56.06,84.61,65.78,74.89C64.73,76.6,63.51,78.43,61.95,80.41C60.8,81.94,59.58,83.44,58.23,84.85L58.26,84.85C54.87,86.17,50.88,87.22,46.49,87.49Z" fill="currentColor" opacity="0.1"/><path d="M46.56,18.61C51.3,18.61,55.02,21.97,55.8,22.93L46.56,22.93Z" fill="currentColor"/><path d="M46.56,18.61C41.82,18.61,38.1,21.97,37.32,22.93L46.56,22.93Z" fill="currentColor"/><path d="M31.59,47.59C32.22,47.86,32.88,48.13,33.57,48.22C34.26,48.34,34.95,48.31,35.61,48.22C34.29,47.95,33.03,47.68,31.89,47.05C30.72,46.48,29.73,45.67,28.86,44.65L28.83,44.65C29.28,45.94,30.39,46.93,31.59,47.59Z" fill="currentColor"/><path d="M60.96,47.05C59.82,47.65,58.56,47.95,57.24,48.22C57.9,48.31,58.59,48.34,59.28,48.22C59.97,48.13,60.63,47.86,61.26,47.59C62.46,46.93,63.57,45.94,64.02,44.65L63.99,44.65C63.09,45.67,62.1,46.48,60.96,47.05Z" fill="currentColor"/></svg>