<svg xmlns="http://www.w3.org/2000/svg" viewBox="0 0 90 90"><path d="M21.61,37C22.3,33.85,25.3,30.79,25.48,28.6C25.69,25.72,22.9,24.19,22.15,24.07C21.4,23.98,20.41,25.6,19.39,28.36C18.61,30.46,17.83,33.19,17.14,36.34C16.06,41.23,15.16,45.04,17.47,45.4L17.44,45.4C19.75,45.73,20.53,41.89,21.61,37Z" fill="currentColor"/><path d="M70.78,37C70.09,33.85,67.09,30.79,66.91,28.6C66.7,25.72,69.49,24.19,70.24,24.07C70.99,23.98,71.98,25.6,73,28.36C73.78,30.46,74.56,33.19,75.25,36.34C76.33,41.23,77.23,45.04,74.92,45.4L74.95,45.4C72.64,45.73,71.86,41.89,70.78,37Z" fill="currentColor"/><path d="M73.09,48.52C73.09,53.83,72.82,61.45,70.06,69.22C68.98,72.31,68.47,74.92,68.47,74.92C68.8,78.1,68.47,80.59,67.9,82.48C66.88,84.91,65.68,86.8,64.27,87.88C60.46,89.74,52.99,90.97,46.21,91C46.21,91,46.21,91,46.18,91C46.15,91,46.18,91,46.15,91C40.51,90.97,34.24,89.44,30.13,87.88C30.13,87.88,27.82,85.99,28.09,82.51C28.09,82.51,23.2,81.25,23.11,74.98C23.11,74.98,20.05,63.79,19.93,62.65C19.45,57.34,19.24,52.24,19.24,48.55C19.24,43.54,20.29,37.51,21.58,31.96L70.75,31.96L70.75,31.93C72.04,37.48,73.09,43.51,73.09,48.52Z" fill="currentColor"/><path d="M49.96,87.34C50.17,88.42,52.09,89.59,53.92,90.4C53.47,90.43,53.05,90.52,52.66,90.61C52.66,90.61,52.63,90.61,52.6,90.61C52.27,90.61,51.94,90.61,51.64,90.67C50.23,89.86,48.91,88.81,48.67,87.58C48.49,86.62,48.94,85.72,50.05,84.88C51.91,83.5,52.81,82.15,52.63,81.1C52.48,80.29,51.7,79.6,50.44,79.18C49.6,78.91,46.84,77.77,45.82,75.07C45.13,73.21,45.52,71.17,46.96,69.01L48.07,69.67C46.87,71.5,46.51,73.18,47.08,74.68C47.71,76.42,49.48,77.56,50.89,78.04C52.63,78.64,53.71,79.66,53.92,80.92C54.1,82,53.74,83.74,50.86,85.87L50.86,85.84C49.81,86.62,49.93,87.16,49.96,87.34Z" fill="currentColor"/><path d="M64.6,87.73C64.3,87.85,64,87.97,63.73,88.12C61.78,87.4,59.26,86.23,59.02,84.67C58.87,83.83,59.35,83.08,60.43,82.39C62.23,81.25,63.13,80.17,63.01,79.33C62.89,78.67,62.11,78.07,60.82,77.68C58.99,77.17,56.8,75.91,56.11,73.93C55.57,72.4,55.99,70.75,57.37,69.01L58.33,69.67C57.22,71.11,56.83,72.4,57.25,73.57C57.79,75.13,59.62,76.15,61.15,76.6C62.92,77.11,64.03,78.01,64.21,79.15C64.42,80.47,63.37,81.88,61.12,83.32C60.46,83.74,60.16,84.13,60.22,84.46C60.37,85.45,62.77,86.59,64.93,87.31C64.93,87.31,64.72,87.58,64.6,87.73Z" fill="currentColor"/><path d="M46.39,75.94C46.39,75.94,46.39,75.94,46.36,75.94C46.33,75.94,46.36,75.94,46.33,75.94C39.97,75.91,33.91,75.1,30.34,73.66C24.16,69.58,21.07,50.86,21.07,41.8C21.07,32.17,25.69,17.86,26.83,15.25C27.94,12.91,39.46,4.54,46.42,4.54C53.38,4.54,64.81,12.91,65.95,15.25C67.09,17.89,71.47,34.51,71.71,41.8C71.71,50.83,68.62,69.58,62.44,73.66L62.38,73.66C58.81,75.1,52.75,75.91,46.39,75.94Z" fill="currentColor"/><path d="M50.56,31.03L46.27,31.03L46.27,27.76C51.94,28.54,58.3,26.98,59.11,24.22C59.92,21.49,55.21,14.38,51.64,12.97C48.1,11.56,49.18,18.04,49.18,18.04L43.24,18.04C43.24,18.04,44.35,11.56,40.78,12.97C37.24,14.38,32.5,21.49,33.31,24.22C34.12,26.95,40.48,28.54,46.15,27.76L46.15,31.03L41.86,31.03C41.86,31.03,29.44,29.95,29.56,24.01C29.68,18.58,24.85,27.64,22,32.89C23.44,24.97,25.81,17.32,26.56,15.43C27.67,12.94,39.19,3.94,46.15,3.94C53.11,3.94,64.63,12.91,65.74,15.43C66.49,17.32,68.86,24.97,70.3,32.89C67.48,27.64,62.62,18.58,62.74,24.01L62.86,24.01C62.98,29.98,50.56,31.03,50.56,31.03Z" fill="currentColor" opacity="0.2"/><path d="M43.39,43.75C43.39,40.66,36.97,38.14,35.05,38.14C33.13,38.14,26.71,40.66,26.71,43.75C26.71,46.84,30.43,49.36,35.05,49.36C39.67,49.36,43.39,46.84,43.39,43.75Z" fill="currentColor"/><path d="M25,46.24C25,46.24,23.89,49.03,28.42,51.43C32.95,53.83,39.82,52.69,39.82,52.69L40.39,51.58L41.14,52.57L42.01,49.96L43.06,51.91L44.23,49.18L42.01,48.04C42.01,48.04,27.28,52,25,46.24Z" fill="currentColor"/><path d="M34.66,47.32C39.19,47.32,40.21,43.54,40.21,43.54C40.21,43.54,37.45,45.25,34.81,45.31C33.04,45.34,29.77,43.72,29.77,43.72L28.09,43.84C27.91,43.84,30.13,47.32,34.66,47.32Z" fill="currentColor"/><path d="M40.21,43.54C37.18,42.49,32.77,42.22,29.77,43.75C31.78,46.09,37.6,46.45,40.21,43.54Z" fill="currentColor"/><path d="M35.59,42.31C34.39,41.83,33.07,42.43,32.65,43.57C32.23,44.71,32.83,46,34.03,46.48C35.23,46.96,36.55,46.36,36.97,45.22C37.42,44.08,36.79,42.79,35.59,42.31Z" fill="currentColor"/><path d="M32.77,43.81C32.26,43.57,31.69,43.81,31.48,44.26C31.27,44.71,31.48,45.31,31.99,45.55C32.5,45.79,33.07,45.55,33.28,45.1C33.49,44.62,33.28,44.05,32.77,43.81Z" fill="currentColor"/><path d="M49.27,43.75C49.27,40.66,55.84,38.14,57.85,38.14C59.86,38.14,66.43,40.66,66.43,43.75C66.43,46.84,62.59,49.36,57.85,49.36C53.11,49.36,49.27,46.84,49.27,43.75Z" fill="currentColor"/><path d="M67.69,46.24C67.69,46.24,68.8,49.03,64.3,51.43C59.8,53.83,53.02,52.69,53.02,52.69L52.45,51.58L51.7,52.57L50.86,49.96L49.84,51.91L48.67,49.18L50.86,48.04C50.86,48.04,65.44,52,67.69,46.24Z" fill="currentColor"/><path d="M58.03,47.32C53.5,47.32,52.48,43.54,52.48,43.54C52.48,43.54,55.24,45.25,57.88,45.31C59.65,45.34,62.92,43.72,62.92,43.72L64.6,43.84C64.78,43.84,62.56,47.32,58.03,47.32Z" fill="currentColor"/><path d="M52.48,43.54C55.51,42.49,59.92,42.22,62.92,43.75C60.91,46.12,55.09,46.42,52.48,43.54Z" fill="currentColor"/><path d="M57.1,42.31C58.3,41.83,59.62,42.43,60.04,43.57C60.46,44.71,59.86,46,58.66,46.48C57.46,46.96,56.14,46.36,55.72,45.22C55.27,44.08,55.9,42.79,57.1,42.31Z" fill="currentColor"/><path d="M59.92,43.81C60.43,43.57,61,43.81,61.21,44.26C61.42,44.71,61.21,45.31,60.7,45.55C60.19,45.79,59.62,45.55,59.41,45.1C59.2,44.62,59.41,44.05,59.92,43.81Z" fill="currentColor"/><path d="M57.19,23.98C57.19,23.98,47.11,9.43,35.11,24.1Z" fill="currentColor"/><path d="M55.57,24.01C55.57,24.01,47.08,14.68,36.94,24.1Z" fill="currentColor"/><path d="M46.51,25.06C46.51,25.06,50.14,26.65,57.22,23.98L35.14,24.1L35.11,24.1C35.11,24.1,40.66,28.15,46.51,25.06Z" fill="currentColor"/><path d="M56.68,14.29C56.08,12.61,49.99,9.46,46.27,9.46C42.55,9.46,36.4,12.61,35.83,14.29C35.53,15.19,34.18,20.17,34.18,20.17L32.92,21.34C33.28,17.26,32.92,12.97,33.04,10.36C33.1,8.77,33.91,7.3,35.26,6.34C38.14,4.3,43.72,1,46.27,1C48.82,1,53.98,4.09,56.74,6.04C58.06,6.97,58.87,8.41,58.96,10C59.11,12.79,58.66,17.53,59.08,21.31L57.79,20.14L57.79,20.17C57.79,20.17,56.95,15.13,56.68,14.29Z" fill="currentColor"/><path d="M33.37,25.09C33.37,25.09,38.05,27.19,46.36,27.4L46.36,30.37L44.98,30.37L44.95,30.37C44.95,30.37,31.99,30.37,33.37,25.09Z" fill="currentColor"/><path d="M59.32,25.09C59.32,25.09,54.64,27.19,46.33,27.4L46.33,30.37L47.71,30.37L47.74,30.37C47.74,30.37,60.7,30.37,59.32,25.09Z" fill="currentColor"/><path d="M53.56,33.79C54.43,33.49,55.24,33.1,56.05,32.65C56.83,32.2,57.61,31.69,58.3,31.06C58.99,30.43,59.65,29.71,59.95,28.81C59.23,29.38,58.45,29.8,57.7,30.25L55.42,31.54C53.89,32.44,52.36,33.31,50.89,34.48L50.89,34.45C51.82,34.36,52.72,34.12,53.56,33.79Z" fill="currentColor"/><path d="M37.27,31.51L34.99,30.22C34.24,29.77,33.49,29.35,32.74,28.78C33.04,29.68,33.7,30.43,34.39,31.03C35.08,31.66,35.86,32.17,36.64,32.62C37.45,33.07,38.26,33.46,39.13,33.76C40,34.06,40.87,34.3,41.8,34.42L41.8,34.45C40.36,33.28,38.8,32.41,37.27,31.51Z" fill="currentColor"/><path d="M51.22,31.15C52.87,31.54,53.02,32.98,52.63,33.82C52.09,34.96,50.62,35.02,50.5,35.74L48.7,47.14C48.7,48.28,47.83,48.85,46.36,48.82C44.89,48.82,44.02,48.28,44.02,47.14L42.22,35.74C42.1,35.02,40.63,34.96,40.09,33.82C39.67,32.98,39.85,31.54,41.5,31.15C44.14,30.55,43.36,29.8,46.39,29.8L46.33,29.8C49.36,29.8,48.58,30.52,51.22,31.15Z" fill="currentColor"/><path d="M43.57,15.25L43.57,7.99L48.82,7.99L48.82,15.25Z" fill="currentColor"/><path d="M43.57,44.32L42.88,45.01C43.81,45.94,45.07,46.48,46.42,46.48C47.77,46.48,49,45.97,49.96,45.01L49.27,44.32L49.24,44.32C47.74,45.82,45.1,45.82,43.57,44.32Z" fill="currentColor"/><path d="M50.35,40.27C50.35,40.27,51.85,37.96,51.94,38.17C52.03,38.38,58.54,51.28,58.54,51.28L55.78,50.92L55.78,50.89Z" fill="currentColor" opacity="0.4"/><path d="M24.88,40.27C24.88,40.27,26.38,37.96,26.47,38.17C26.56,38.38,33.07,51.28,33.07,51.28L30.31,50.92L30.31,50.89Z" fill="currentColor" opacity="0.4"/><path d="M18.94,45.22C18.85,45.49,19,45.76,19.24,45.85L25,47.74C25.27,47.83,25.54,47.68,25.63,47.44C25.72,47.17,25.57,46.9,25.33,46.81L19.57,44.92C19.57,44.92,19.48,44.92,19.42,44.92L19.42,44.89C19.21,44.89,19.03,45.01,18.94,45.22Z" fill="currentColor"/><path d="M23.95,43.78C23.95,48.55,27.37,51.73,33.07,51.73C39.25,51.73,43.57,48.46,43.57,43.78C43.57,39.1,39.07,33.94,33.07,33.94C27.13,33.94,23.95,39.01,23.95,43.78Z" fill="currentColor"/><path d="M24.91,43.78C24.91,39.34,27.76,34.93,33.07,34.93C38.38,34.93,42.58,39.61,42.58,43.78C42.58,47.95,38.68,50.74,33.07,50.74C27.88,50.74,24.91,48.22,24.91,43.78Z" fill="currentColor"/><path d="M73,44.92L67.69,46.81C67.42,46.9,67.3,47.17,67.39,47.44C67.48,47.71,67.78,47.83,68.02,47.74L73.33,45.85C73.6,45.76,73.72,45.49,73.63,45.22C73.57,45.01,73.36,44.89,73.15,44.89L73.18,44.92C73.18,44.92,73.06,44.92,73,44.92Z" fill="currentColor"/><path d="M49.27,43.78C49.27,48.43,53.59,51.73,59.77,51.73C65.5,51.73,68.89,48.76,68.89,43.78C68.89,38.8,65.68,33.94,59.77,33.94C53.77,33.94,49.27,39.13,49.27,43.78Z" fill="currentColor"/><path d="M50.26,43.78C50.26,39.67,54.31,34.93,59.77,34.93C65.23,34.93,67.93,39.49,67.93,43.78C67.93,48.07,64.96,50.74,59.77,50.74C54.16,50.74,50.26,47.89,50.26,43.78Z" fill="currentColor"/><path d="M59.5,45.22C58.9,45.31,58.27,45.37,57.64,45.37C57.01,45.37,56.38,45.28,55.72,45.22C56.02,45.37,56.32,45.49,56.62,45.64C56.95,45.73,57.25,45.85,57.58,45.88C58.24,46.03,58.93,45.97,59.59,45.88C60.25,45.76,60.91,45.52,61.48,45.16C62.05,44.8,62.56,44.35,62.89,43.75L62.92,43.75C61.87,44.53,60.7,45.01,59.5,45.22Z" fill="currentColor"/><path d="M31.06,45.16C31.63,45.52,32.29,45.76,32.95,45.88C33.61,45.97,34.3,46,34.96,45.88C35.29,45.85,35.62,45.73,35.92,45.64C36.22,45.52,36.52,45.37,36.82,45.22C36.16,45.28,35.53,45.37,34.9,45.37C34.27,45.37,33.64,45.34,33.04,45.22C31.84,45.01,30.67,44.53,29.62,43.75L29.65,43.75C29.98,44.32,30.49,44.8,31.06,45.16Z" fill="currentColor"/></svg>