<svg xmlns="http://www.w3.org/2000/svg" viewBox="0 0 90 90"><path d="M15,0L15,90L75.39,90L75.39,0Z" fill="white"/><path d="M20.61,54C21.3,57.15,24.3,60.21,24.48,62.4C24.69,65.28,21.9,66.81,21.15,66.93C20.4,67.02,19.41,65.4,18.39,62.64C17.61,60.54,16.83,57.81,16.14,54.66C15.06,49.77,14.16,45.96,16.47,45.6L16.44,45.6C18.75,45.27,19.53,49.11,20.61,54Z" fill="url(#paint0_radial_119_7782)"/><path d="M69.78,54C69.09,57.15,66.09,60.21,65.91,62.4C65.7,65.28,68.49,66.81,69.24,66.93C69.99,67.02,70.98,65.4,72,62.64C72.78,60.54,73.56,57.81,74.25,54.66C75.33,49.77,76.23,45.96,73.92,45.6L73.95,45.6C71.64,45.27,70.86,49.11,69.78,54Z" fill="url(#paint1_radial_119_7782)"/><path d="M72.09,42.48C72.09,37.17,71.82,29.55,69.06,21.78C67.98,18.69,67.47,16.08,67.47,16.08C67.8,12.9,67.47,10.41,66.9,8.52C65.88,6.09,64.68,4.2,63.27,3.12C59.46,1.26,51.99,0.03,45.21,0C45.21,0,45.21,0,45.18,0C45.15,0,45.18,0,45.15,0C39.51,0.03,33.24,1.56,29.13,3.12C29.13,3.12,26.82,5.01,27.09,8.49C27.09,8.49,22.2,9.75,22.11,16.02C22.11,16.02,19.05,27.21,18.93,28.35C18.45,33.66,18.24,38.76,18.24,42.45C18.24,47.46,19.29,53.49,20.58,59.04L69.75,59.04L69.75,59.07C71.04,53.52,72.09,47.49,72.09,42.48Z" fill="url(#paint2_linear_119_7782)"/><path d="M48.96,3.66C49.17,2.58,51.09,1.41,52.92,0.6C52.47,0.57,52.05,0.48,51.66,0.39C51.66,0.39,51.63,0.39,51.6,0.39C51.27,0.39,50.94,0.39,50.64,0.33C49.23,1.14,47.91,2.19,47.67,3.42C47.49,4.38,47.94,5.28,49.05,6.12C50.91,7.5,51.81,8.85,51.63,9.9C51.48,10.71,50.7,11.4,49.44,11.82C48.6,12.09,45.84,13.23,44.82,15.93C44.13,17.79,44.52,19.83,45.96,21.99L47.07,21.33C45.87,19.5,45.51,17.82,46.08,16.32C46.71,14.58,48.48,13.44,49.89,12.96C51.63,12.36,52.71,11.34,52.92,10.08C53.1,9,52.74,7.26,49.86,5.13L49.86,5.16C48.81,4.38,48.93,3.84,48.96,3.66Z" fill="white"/><path d="M63.6,3.27C63.3,3.15,63,3.03,62.73,2.88C60.78,3.6,58.26,4.77,58.02,6.33C57.87,7.17,58.35,7.92,59.43,8.61C61.23,9.75,62.13,10.83,62.01,11.67C61.89,12.33,61.11,12.93,59.82,13.32C57.99,13.83,55.8,15.09,55.11,17.07C54.57,18.6,54.99,20.25,56.37,21.99L57.33,21.33C56.22,19.89,55.83,18.6,56.25,17.43C56.79,15.87,58.62,14.85,60.15,14.4C61.92,13.89,63.03,12.99,63.21,11.85C63.42,10.53,62.37,9.12,60.12,7.68C59.46,7.26,59.16,6.87,59.22,6.54C59.37,5.55,61.77,4.41,63.93,3.69C63.93,3.69,63.72,3.42,63.6,3.27Z" fill="white"/><path d="M45.39,15.06C45.39,15.06,45.39,15.06,45.36,15.06C45.33,15.06,45.36,15.06,45.33,15.06C38.97,15.09,32.91,15.9,29.34,17.34C23.16,21.42,20.07,40.14,20.07,49.2C20.07,58.83,24.69,73.14,25.83,75.75C26.94,78.09,38.46,86.46,45.42,86.46C52.38,86.46,63.81,78.09,64.95,75.75C66.09,73.11,70.47,56.49,70.71,49.2C70.71,40.17,67.62,21.42,61.44,17.34L61.38,17.34C57.81,15.9,51.75,15.09,45.39,15.06Z" fill="#FDDAC1"/><path d="M49.56,59.97L45.27,59.97L45.27,63.24C50.94,62.46,57.3,64.02,58.11,66.78C58.92,69.51,54.21,76.62,50.64,78.03C47.1,79.44,48.18,72.96,48.18,72.96L42.24,72.96C42.24,72.96,43.35,79.44,39.78,78.03C36.24,76.62,31.5,69.51,32.31,66.78C33.12,64.05,39.48,62.46,45.15,63.24L45.15,59.97L40.86,59.97C40.86,59.97,28.44,61.05,28.56,66.99C28.68,72.42,23.85,63.36,21,58.11C22.44,66.03,24.81,73.68,25.56,75.57C26.67,78.06,38.19,87.06,45.15,87.06C52.11,87.06,63.63,78.09,64.74,75.57C65.49,73.68,67.86,66.03,69.3,58.11C66.48,63.36,61.62,72.42,61.74,66.99L61.86,66.99C61.98,61.02,49.56,59.97,49.56,59.97Z" fill="url(#paint3_linear_119_7782)" opacity="0.2"/><path d="M42.39,47.25C42.39,50.34,35.97,52.86,34.05,52.86C32.13,52.86,25.71,50.34,25.71,47.25C25.71,44.16,29.43,41.64,34.05,41.64C38.67,41.64,42.39,44.16,42.39,47.25Z" fill="url(#paint4_radial_119_7782)"/><path d="M24,44.76C24,44.76,22.89,41.97,27.42,39.57C31.95,37.17,38.82,38.31,38.82,38.31L39.39,39.42L40.14,38.43L41.01,41.04L42.06,39.09L43.23,41.82L41.01,42.96C41.01,42.96,26.28,39,24,44.76Z" fill="url(#paint5_linear_119_7782)"/><path d="M33.66,43.68C38.19,43.68,39.21,47.46,39.21,47.46C39.21,47.46,36.45,45.75,33.81,45.69C32.04,45.66,28.77,47.28,28.77,47.28L27.09,47.16C26.91,47.16,29.13,43.68,33.66,43.68Z" fill="url(#paint6_linear_119_7782)"/><path d="M39.21,47.46C36.18,48.51,31.77,48.78,28.77,47.25C30.78,44.91,36.6,44.55,39.21,47.46Z" fill="white"/><path d="M39.21,47.46C36.18,48.51,31.77,48.78,28.77,47.25C30.78,44.91,36.6,44.55,39.21,47.46Z" fill="white"/><path d="M34.59,48.69C33.39,49.17,32.07,48.57,31.65,47.43C31.23,46.29,31.83,45,33.03,44.52C34.23,44.04,35.55,44.64,35.97,45.78C36.42,46.92,35.79,48.21,34.59,48.69Z" fill="url(#paint7_linear_119_7782)"/><path d="M31.77,47.19C31.26,47.43,30.69,47.19,30.48,46.74C30.27,46.29,30.48,45.69,30.99,45.45C31.5,45.21,32.07,45.45,32.28,45.9C32.49,46.38,32.28,46.95,31.77,47.19Z" fill="white"/><path d="M48.27,47.25C48.27,50.34,54.84,52.86,56.85,52.86C58.86,52.86,65.43,50.34,65.43,47.25C65.43,44.16,61.59,41.64,56.85,41.64C52.11,41.64,48.27,44.16,48.27,47.25Z" fill="url(#paint8_radial_119_7782)"/><path d="M66.69,44.76C66.69,44.76,67.8,41.97,63.3,39.57C58.8,37.17,52.02,38.31,52.02,38.31L51.45,39.42L50.7,38.43L49.86,41.04L48.84,39.09L47.67,41.82L49.86,42.96C49.86,42.96,64.44,39,66.69,44.76Z" fill="url(#paint9_linear_119_7782)"/><path d="M57.03,43.68C52.5,43.68,51.48,47.46,51.48,47.46C51.48,47.46,54.24,45.75,56.88,45.69C58.65,45.66,61.92,47.28,61.92,47.28L63.6,47.16C63.78,47.16,61.56,43.68,57.03,43.68Z" fill="url(#paint10_linear_119_7782)"/><path d="M51.48,47.46C54.51,48.51,58.92,48.78,61.92,47.25C59.91,44.88,54.09,44.58,51.48,47.46Z" fill="white"/><path d="M51.48,47.46C54.51,48.51,58.92,48.78,61.92,47.25C59.91,44.88,54.09,44.58,51.48,47.46Z" fill="white"/><path d="M56.1,48.69C57.3,49.17,58.62,48.57,59.04,47.43C59.46,46.29,58.86,45,57.66,44.52C56.46,44.04,55.14,44.64,54.72,45.78C54.27,46.92,54.9,48.21,56.1,48.69Z" fill="url(#paint11_linear_119_7782)"/><path d="M58.92,47.19C59.43,47.43,60,47.19,60.21,46.74C60.42,46.29,60.21,45.69,59.7,45.45C59.19,45.21,58.62,45.45,58.41,45.9C58.2,46.38,58.41,46.95,58.92,47.19Z" fill="white"/><path d="M56.19,67.02C56.19,67.02,46.11,81.57,34.11,66.9Z" fill="url(#paint12_linear_119_7782)"/><path d="M54.57,66.99C54.57,66.99,46.08,76.32,35.94,66.9Z" fill="white"/><path d="M45.51,65.94C45.51,65.94,49.14,64.35,56.22,67.02L34.14,66.9L34.11,66.9C34.11,66.9,39.66,62.85,45.51,65.94Z" fill="url(#paint13_linear_119_7782)"/><path d="M55.68,76.71C55.08,78.39,48.99,81.54,45.27,81.54C41.55,81.54,35.4,78.39,34.83,76.71C34.53,75.81,33.18,70.83,33.18,70.83L31.92,69.66C32.28,73.74,31.92,78.03,32.04,80.64C32.1,82.23,32.91,83.7,34.26,84.66C37.14,86.7,42.72,90,45.27,90C47.82,90,52.98,86.91,55.74,84.96C57.06,84.03,57.87,82.59,57.96,81C58.11,78.21,57.66,73.47,58.08,69.69L56.79,70.86L56.79,70.83C56.79,70.83,55.95,75.87,55.68,76.71Z" fill="url(#paint14_linear_119_7782)"/><path d="M32.37,65.91C32.37,65.91,37.05,63.81,45.36,63.6L45.36,60.63L43.98,60.63L43.95,60.63C43.95,60.63,30.99,60.63,32.37,65.91Z" fill="url(#paint15_linear_119_7782)"/><path d="M58.32,65.91C58.32,65.91,53.64,63.81,45.33,63.6L45.33,60.63L46.71,60.63L46.74,60.63C46.74,60.63,59.7,60.63,58.32,65.91Z" fill="url(#paint16_linear_119_7782)"/><path d="M52.56,57.21C53.43,57.51,54.24,57.9,55.05,58.35C55.83,58.8,56.61,59.31,57.3,59.94C57.99,60.57,58.65,61.29,58.95,62.19C58.23,61.62,57.45,61.2,56.7,60.75L54.42,59.46C52.89,58.56,51.36,57.69,49.89,56.52L49.89,56.55C50.82,56.64,51.72,56.88,52.56,57.21Z" fill="url(#paint17_linear_119_7782)"/><path d="M36.27,59.49L33.99,60.78C33.24,61.23,32.49,61.65,31.74,62.22C32.04,61.32,32.7,60.57,33.39,59.97C34.08,59.34,34.86,58.83,35.64,58.38C36.45,57.93,37.26,57.54,38.13,57.24C39,56.94,39.87,56.7,40.8,56.58L40.8,56.55C39.36,57.72,37.8,58.59,36.27,59.49Z" fill="url(#paint18_linear_119_7782)"/><path d="M50.22,59.85C51.87,59.46,52.02,58.02,51.63,57.18C51.09,56.04,49.62,55.98,49.5,55.26L47.7,43.86C47.7,42.72,46.83,42.15,45.36,42.18C43.89,42.18,43.02,42.72,43.02,43.86L41.22,55.26C41.1,55.98,39.63,56.04,39.09,57.18C38.67,58.02,38.85,59.46,40.5,59.85C43.14,60.45,42.36,61.2,45.39,61.2L45.33,61.2C48.36,61.2,47.58,60.48,50.22,59.85Z" fill="url(#paint19_linear_119_7782)"/><path d="M42.57,75.75L42.57,83.01L47.82,83.01L47.82,75.75Z" fill="url(#paint20_linear_119_7782)"/><path d="M42.57,46.68L41.88,45.99C42.81,45.06,44.07,44.52,45.42,44.52C46.77,44.52,48,45.03,48.96,45.99L48.27,46.68L48.24,46.68C46.74,45.18,44.1,45.18,42.57,46.68Z" fill="#302D2B"/><path d="M49.35,50.73C49.35,50.73,50.85,53.04,50.94,52.83C51.03,52.62,57.54,39.72,57.54,39.72L54.78,40.08L54.78,40.11Z" fill="white" opacity="0.4"/><path d="M23.88,50.73C23.88,50.73,25.38,53.04,25.47,52.83C25.56,52.62,32.07,39.72,32.07,39.72L29.31,40.08L29.31,40.11Z" fill="white" opacity="0.4"/><path d="M17.94,45.78C17.85,45.51,18,45.24,18.24,45.15L24,43.26C24.27,43.17,24.54,43.32,24.63,43.56C24.72,43.83,24.57,44.1,24.33,44.19L18.57,46.08C18.57,46.08,18.48,46.08,18.42,46.08L18.42,46.11C18.21,46.11,18.03,45.99,17.94,45.78Z" fill="#231F20"/><path d="M22.95,47.22C22.95,42.45,26.37,39.27,32.07,39.27C38.25,39.27,42.57,42.54,42.57,47.22C42.57,51.9,38.07,57.06,32.07,57.06C26.13,57.06,22.95,51.99,22.95,47.22Z" fill="#302D2B"/><path d="M23.91,47.22C23.91,51.66,26.76,56.07,32.07,56.07C37.38,56.07,41.58,51.39,41.58,47.22C41.58,43.05,37.68,40.26,32.07,40.26C26.88,40.26,23.91,42.78,23.91,47.22Z" fill="#302D2B"/><path d="M72,46.08L66.69,44.19C66.42,44.1,66.3,43.83,66.39,43.56C66.48,43.29,66.78,43.17,67.02,43.26L72.33,45.15C72.6,45.24,72.72,45.51,72.63,45.78C72.57,45.99,72.36,46.11,72.15,46.11L72.18,46.08C72.18,46.08,72.06,46.08,72,46.08Z" fill="#231F20"/><path d="M48.27,47.22C48.27,42.57,52.59,39.27,58.77,39.27C64.5,39.27,67.89,42.24,67.89,47.22C67.89,52.2,64.68,57.06,58.77,57.06C52.77,57.06,48.27,51.87,48.27,47.22Z" fill="#302D2B"/><path d="M49.26,47.22C49.26,51.33,53.31,56.07,58.77,56.07C64.23,56.07,66.93,51.51,66.93,47.22C66.93,42.93,63.96,40.26,58.77,40.26C53.16,40.26,49.26,43.11,49.26,47.22Z" fill="#302D2B"/><path d="M58.5,45.78C57.9,45.69,57.27,45.63,56.64,45.63C56.01,45.63,55.38,45.72,54.72,45.78C55.02,45.63,55.32,45.51,55.62,45.36C55.95,45.27,56.25,45.15,56.58,45.12C57.24,44.97,57.93,45.03,58.59,45.12C59.25,45.24,59.91,45.48,60.48,45.84C61.05,46.2,61.56,46.65,61.89,47.25L61.92,47.25C60.87,46.47,59.7,45.99,58.5,45.78Z" fill="#1F263B"/><path d="M30.06,45.84C30.63,45.48,31.29,45.24,31.95,45.12C32.61,45.03,33.3,45,33.96,45.12C34.29,45.15,34.62,45.27,34.92,45.36C35.22,45.48,35.52,45.63,35.82,45.78C35.16,45.72,34.53,45.63,33.9,45.63C33.27,45.63,32.64,45.66,32.04,45.78C30.84,45.99,29.67,46.47,28.62,47.25L28.65,47.25C28.98,46.68,29.49,46.2,30.06,45.84Z" fill="#1F263B"/></svg>