<svg xmlns="http://www.w3.org/2000/svg" viewBox="0 0 90 90"><path d="M38.88,58.72L41.61,24.75L42.52,23.1L52.08,23.1L52.99,24.75L55.89,58.72Z" fill="#EDEDED"/><path d="M21.36,36.52L21.8,32.16L27.06,35.1L24.52,35.6L22.87,34.33Z" fill="black"/><path d="M52.32,21.17C52.34,21.13,52.37,21.05,52.44,20.89C52.9,19.75,53.1,18.74,53.73,17.71C54.46,16.5,54.38,15.37,54,14.05C53.57,12.56,54.08,10.9,53.76,9.37C53.24,6.85,49.84,4.96,47.39,4.96C44.94,4.96,41.54,6.85,41.02,9.37C40.7,10.9,41.21,12.56,40.78,14.05C40.4,15.37,40.32,16.5,41.05,17.71C41.68,18.74,41.88,19.75,42.34,20.89C42.41,21.05,42.44,21.13,42.45,21.17C42.43,21.13,42.39,21.01,42.34,20.89C42.63,21.61,42.69,22.43,42.61,23.2C42.54,23.8,46.72,26.92,47.39,26.93C48.06,26.92,52.24,23.8,52.18,23.2C52.09,22.43,52.15,21.61,52.44,20.89C52.39,21.01,52.34,21.13,52.32,21.17Z" fill="#160B28"/><path d="M66.14,34.91C65.12,33.96,62.3,29.41,61.1,28.76C58.56,27.39,55.3,26.53,52.99,24.86C52.54,26.54,52.3,27.67,52.47,29.4C52.55,30.22,51.34,32.24,49.43,34.92C49.18,32.27,49,30.36,48.96,29.9C48.91,29.37,49.63,28.33,49.19,27.58C49.08,27.41,48.24,26.35,47.39,26.35C46.54,26.35,45.7,27.41,45.59,27.58C45.15,28.33,45.86,29.37,45.81,29.9C45.77,30.36,45.6,32.27,45.35,34.92C43.44,32.24,42.22,30.22,42.3,29.4C42.48,27.67,42.06,26.54,41.61,24.86C39.29,26.53,36.22,27.39,33.68,28.76C32.47,29.41,29.65,33.96,28.64,34.91C28.04,35.47,23.67,36.09,23.49,36.82C22.67,40.3,24.68,52.44,34.54,41.53C34.84,43.37,34.25,50.71,33.82,55.01C33.79,55.05,33.76,55.08,33.73,55.08L33.81,55.08L43.42,55.08L51.36,55.08L60.97,55.08L61.05,55.08C61.02,55.08,60.99,55.05,60.95,55.01C60.53,50.71,59.94,43.35,60.24,41.51C70.1,52.41,71.93,40.26,71.34,36.82C71.22,36.08,66.74,35.47,66.14,34.91Z" fill="#160B28"/><path d="M32.44,31.94C31.87,31.61,31.28,30.02,30.86,29.63C30.43,29.24,29.41,28.27,28.68,27.48C27.95,26.69,27.87,23.71,27.36,22.75C26.85,21.79,25.44,18.43,24.54,18.24C23.63,18.04,23.35,18.35,23.24,19.02C23.13,19.7,23.83,20.91,24.34,21.96C24.85,23.01,25.06,26.49,24.73,26.58C24.39,26.66,21.89,24.93,20.54,24.31C18.72,23.46,16.92,23.33,16.19,23.33C15.46,23.33,14.58,23.57,14.86,24.51C15.14,25.44,17.46,25.53,18.72,26.19C19.5,26.6,21.99,27.9,21.76,28.47C21.54,29.04,19.01,30.13,18.27,30.42C17.24,30.81,15.33,31.03,14.79,31.23C14.25,31.43,14.04,32.67,15.02,32.82C15.74,32.93,16.49,32.98,18.01,32.61C18.71,32.44,21.32,32.01,21.32,32.01C21.32,32.01,21.47,32.61,21.05,33.19C20.77,33.57,18.79,37.27,20.05,37.56C21.05,37.8,22.62,34.24,22.74,33.8C22.74,33.8,24.55,34.86,26.46,34.85C26.46,34.85,24.46,35.23,22.87,34.32L23.42,36.82C23.42,36.82,23.61,37.35,25.53,37.06C28.69,36.58,29.9,34.7,29.9,34.7C29.9,34.7,31.03,34.68,31.56,34.37C31.56,34.37,32.89,34.74,34.11,34.74C35.32,34.74,36.65,34.4,36.67,33.67C36.7,32.93,36.45,32.76,35.55,32.48C34.64,32.2,33.01,32.28,32.44,31.94Z" fill="#EDEDED"/><path d="M60.49,63.9L60.45,63.91C60.21,63.94,34.56,63.94,34.32,63.91L34.28,63.9C34.36,65.01,34.52,68.13,33.9,72.71C33.49,74.32,33.13,76.63,33.17,76.93C33.03,77.77,32.94,80.25,35.67,82.12C38.31,83.91,42.38,85.04,47.38,85.04C52.39,85.04,56.46,83.91,59.09,82.12C61.83,80.25,61.74,77.77,61.59,76.93C61.63,76.63,61.28,74.32,60.87,72.71C60.25,68.13,60.41,65.01,60.49,63.9Z" fill="#160B28"/><path d="M60.92,68.3C60.85,66.41,60.93,65.32,60.98,64.67C60.99,64.52,60.94,64.37,60.83,64.28C60.74,64.19,60.62,64.14,60.5,64.14C60.48,64.14,60.45,64.14,60.43,64.14L60.4,64.15C60.02,64.16,54.58,64.17,47.38,64.17C40.19,64.17,34.75,64.16,34.37,64.15L34.34,64.14C34.32,64.14,34.3,64.14,34.27,64.14C34.15,64.14,34.03,64.19,33.94,64.28C33.83,64.37,33.78,64.52,33.79,64.67C33.84,65.32,33.92,66.41,33.85,68.3C37.68,69.6,42.42,70.55,47.38,70.55C52.35,70.55,57.09,69.6,60.92,68.3Z" fill="#565C88"/><path d="M27.46,58.97C27.46,54.24,36.21,50.54,47.39,50.54C58.56,50.54,67.31,54.24,67.31,58.97C67.31,63.7,58.56,67.4,47.39,67.4C36.21,67.4,27.46,63.7,27.46,58.97Z" fill="#160B28"/><path d="M47.39,66.19C36.78,66.19,28.19,62.74,28.19,58.49C28.19,54.23,36.78,50.78,47.39,50.78C57.98,50.78,66.58,54.23,66.58,58.49C66.58,62.74,57.98,66.19,47.39,66.19Z" fill="#565C88"/><path d="M47.38,62.42C40.98,62.42,35.78,60.33,35.78,57.76C35.78,55.18,40.98,53.1,47.38,53.1C53.79,53.1,58.98,55.18,58.98,57.76C58.98,60.33,53.79,62.42,47.38,62.42Z" fill="#160B28"/><path d="M40.34,54.17C40.27,54.05,40.16,53.88,40.16,53.6C40.16,53.51,40.17,53.39,40.22,53.24C40.36,52.78,40.98,52.03,43.28,51.59C42.17,50.52,41.51,49.01,41.51,47.39C41.51,44.17,44.1,41.55,47.28,41.55C50.47,41.55,53.06,44.17,53.06,47.4C53.06,49,52.39,50.53,51.28,51.62C52.75,51.9,54.07,52.39,54.36,53.27C54.38,53.33,54.41,53.44,54.41,53.6C54.41,54.03,54.17,54.3,53.99,54.47C52.96,55.47,49.86,55.81,47.28,55.81C46.29,55.81,41.3,55.75,40.34,54.17Z" fill="#160B28"/><path d="M49.3,52.1C51.08,51.32,52.33,49.45,52.33,47.38C52.33,44.59,50.07,42.24,47.28,42.24C44.5,42.24,42.23,44.59,42.23,47.38C42.23,49.45,43.48,51.27,45.27,52.05C42.88,52.25,41.12,52.81,40.91,53.47C40.89,53.51,40.89,53.57,40.89,53.61C40.89,53.69,40.91,53.71,40.96,53.79C41.43,54.56,44.08,55.08,47.28,55.08C50.26,55.08,52.77,54.64,53.48,53.95C53.61,53.83,53.69,53.72,53.69,53.58C53.69,53.54,53.67,53.53,53.66,53.49C53.45,52.84,51.69,52.3,49.3,52.1Z" fill="#FBE28B"/><path d="M41.38,61.53C41.15,61.48,40.96,61.31,40.87,61.09C40.78,60.87,40.81,60.62,40.94,60.43C41.33,59.82,41.83,58.44,42.26,57.23C42.51,56.52,42.75,55.84,42.97,55.32C43.08,55.05,43.35,54.88,43.64,54.88C43.68,54.88,43.72,54.87,43.75,54.87C45.17,55.1,46.64,55.08,47.13,55.08L47.29,55.08C48.72,55.08,49.87,55.03,50.82,54.87C50.86,54.87,50.89,54.87,50.93,54.87C51.22,54.87,51.49,55.05,51.6,55.32C51.82,55.84,52.05,56.52,52.31,57.23C52.73,58.42,53.2,59.77,53.6,60.4C53.73,60.59,53.75,60.84,53.67,61.05C53.58,61.27,53.39,61.43,53.16,61.49C51.39,61.93,49.32,62.16,47.17,62.16C45.11,62.16,43.16,61.95,41.38,61.53Z" fill="#160B28"/><path d="M43.64,55.59C43.05,57,42.24,59.77,41.55,60.81C43.11,61.18,45,61.43,47.17,61.43C49.42,61.43,51.39,61.18,52.99,60.79C52.3,59.7,51.52,56.98,50.93,55.59C49.77,55.77,48.47,55.81,47.29,55.81C46.77,55.81,45.18,55.84,43.64,55.59Z" fill="#FBE28B"/><path d="M69.29,31.79C66.38,31.54,61.43,35.52,60.88,35.8C58.09,37.23,52.87,36.45,52.35,36.32C51.82,36.2,49.63,35.36,49.61,36.25C49.58,37.96,51.59,38.56,53.5,38.86C54.77,39.06,57.29,39.23,58.02,39.23C58.77,39.23,59.27,39.81,59.17,40.05C59.08,40.3,57.47,41.23,56.74,41.41C55.99,41.59,54.85,41.66,54.76,41.87C54.67,42.08,54.67,43.64,56.23,43.8L62.63,37.94C62.63,37.94,57.19,43.82,56.84,44.26C56.6,44.55,55.93,45.33,56.26,45.92C56.46,46.29,57.29,46.28,57.79,46.07C58.37,45.82,62.16,42.31,62.38,42.22C62.6,42.12,63.15,42.18,63.15,42.49C63.15,42.8,62.38,45.45,61.92,46.4C61.46,47.36,60.09,49.86,59.69,50.91C59.29,51.96,59.05,52.82,59.85,53.34C60.79,53.94,61.71,52.83,62.14,51.91C62.58,50.98,63.89,48.82,64.48,47.74C65.07,46.66,65.9,44.28,66.3,44.1C66.7,43.91,66.61,44.93,66.51,46.04C66.43,47.15,66.27,50.85,66.3,51.78C66.33,52.7,66.7,53.75,67.57,53.6C68.43,53.45,68.39,51.26,68.45,50.12C68.52,48.98,69.39,44.07,69.54,43.69C69.54,43.69,72.75,41.28,73.22,40.81C74.06,39.97,75.28,37,73.48,34.11C72.81,33.05,71.22,31.95,69.29,31.79Z" fill="#EDEDED"/><path d="M52.48,29.55L52.99,24.85L51.93,28.2L48.36,27.23Z" fill="#160B28"/><path d="M42.09,29.55L41.61,24.79L42.88,28.2L46.45,27.23Z" fill="#160B28"/><path d="M69.39,30.58C69.27,30.57,69.15,30.57,69.02,30.57C67.95,30.57,66.68,30.94,65.16,31.68C63.59,29.52,62.55,28.17,61.67,27.69C60.6,27.11,59.41,26.62,58.26,26.15C56.77,25.54,55.23,24.9,54.01,24.08L53.36,22.91C53.31,22.33,53.38,21.79,53.56,21.35C53.73,20.93,53.87,20.53,54,20.15C54.22,19.48,54.42,18.91,54.76,18.34C55.8,16.64,55.54,15.05,55.16,13.72C54.99,13.12,55.03,12.4,55.05,11.63C55.09,10.82,55.13,9.99,54.95,9.12C54.32,6.05,50.43,3.75,47.39,3.75C44.35,3.75,40.47,6.05,39.83,9.12C39.65,9.99,39.69,10.82,39.72,11.63C39.76,12.4,39.79,13.12,39.62,13.72C39.23,15.05,38.99,16.64,40.02,18.34C40.36,18.91,40.55,19.48,40.78,20.15C40.91,20.53,41.04,20.92,41.21,21.34L41.22,21.34C41.36,21.7,41.43,22.11,41.43,22.56L40.59,24.08C39.36,24.91,37.91,25.53,36.37,26.18C35.29,26.65,34.16,27.13,33.11,27.69C32.74,27.89,32.33,28.25,31.79,28.86C31.76,28.81,31.72,28.78,31.68,28.74C31.38,28.46,30.31,27.46,29.58,26.67C29.38,26.39,29.17,25.21,29.06,24.57C28.89,23.6,28.74,22.77,28.43,22.19C28.34,22.02,28.21,21.74,28.06,21.43C26.71,18.59,25.91,17.3,24.8,17.05C24.53,16.99,24.29,16.97,24.07,16.97C23.55,16.97,22.32,17.14,22.04,18.83C21.88,19.78,22.42,20.84,22.99,21.97C23.08,22.14,23.17,22.32,23.25,22.49C23.43,22.86,23.57,23.82,23.64,24.67C23.54,24.61,23.44,24.55,23.35,24.5C22.54,24.02,21.71,23.51,21.05,23.21C18.88,22.2,16.78,22.13,16.19,22.13C15.17,22.13,14.4,22.44,13.96,23.04C13.74,23.33,13.42,23.95,13.7,24.86C14.07,26.07,15.39,26.43,16.67,26.77C17.22,26.92,17.8,27.08,18.16,27.27C19.03,27.72,19.6,28.06,19.98,28.3C19.36,28.63,18.5,29.02,17.83,29.29C17.32,29.48,16.45,29.65,15.75,29.78C15.07,29.91,14.67,29.98,14.37,30.09C13.56,30.39,13.04,31.3,13.14,32.26C13.23,33.19,13.9,33.88,14.84,34.02C15.14,34.07,15.52,34.11,15.98,34.11C16.66,34.11,17.4,34.01,18.3,33.79C18.52,33.73,18.97,33.65,19.47,33.55C18.9,34.7,18.17,36.51,18.59,37.65C18.8,38.21,19.24,38.61,19.81,38.74C19.94,38.77,20.06,38.78,20.19,38.78C21,38.78,21.65,38.21,22.17,37.56C21.96,39.84,22.46,43.33,24.13,45.41C25.08,46.57,26.31,47.19,27.7,47.19C29.42,47.19,31.3,46.28,33.39,44.4C33.31,47.03,33,50.99,32.66,54.53C32.57,54.69,32.52,54.88,32.52,55.08C32.52,55.75,33.06,56.29,33.73,56.29L37.85,56.29L37.67,58.62C37.64,58.95,37.76,59.29,37.99,59.54C38.22,59.78,38.54,59.93,38.88,59.93L55.89,59.93C56.23,59.93,56.55,59.78,56.79,59.54C57.02,59.28,57.13,58.95,57.1,58.61L56.9,56.29L61.05,56.29C61.71,56.29,62.26,55.75,62.26,55.08C62.26,54.88,62.21,54.7,62.13,54.53C62.11,54.37,62.09,54.2,62.08,54.03C62.69,53.49,63.07,52.77,63.24,52.42C63.48,51.9,64.08,50.86,64.62,49.93C64.8,49.61,64.99,49.31,65.15,49.02C65.11,50.2,65.07,51.34,65.09,51.82C65.15,53.62,66.08,54.83,67.4,54.83C67.52,54.83,67.65,54.81,67.78,54.79C69.5,54.49,69.58,52.27,69.64,50.64C69.65,50.47,69.66,50.32,69.67,50.19C69.69,49.55,70.05,47.36,70.37,45.64C70.85,45.11,71.27,44.44,71.61,43.65C73.7,42.05,73.97,41.77,74.08,41.66C75.15,40.59,76.74,37.04,74.51,33.47C73.7,32.18,71.8,30.78,69.39,30.58Z" fill="#1E052D"/><path d="M38.88,58.72L41.61,24.75L42.52,23.1L52.08,23.1L52.99,24.75L55.89,58.72Z" fill="#7C86BE"/><path d="M21.36,36.52L21.8,32.16L27.06,35.1L24.52,35.6L22.87,34.33Z" fill="black"/><path d="M52.32,21.17C52.34,21.13,52.37,21.05,52.44,20.89C52.9,19.75,53.1,18.74,53.73,17.71C54.46,16.5,54.38,15.37,54,14.05C53.57,12.56,54.08,10.9,53.76,9.37C53.24,6.85,49.84,4.96,47.39,4.96C44.94,4.96,41.54,6.85,41.02,9.37C40.7,10.9,41.21,12.56,40.78,14.05C40.4,15.37,40.32,16.5,41.05,17.71C41.68,18.74,41.88,19.75,42.34,20.89C42.41,21.05,42.44,21.13,42.45,21.17C42.43,21.13,42.39,21.01,42.34,20.89C42.63,21.61,42.69,22.43,42.61,23.2C42.54,23.8,46.72,26.92,47.39,26.93C48.06,26.92,52.24,23.8,52.18,23.2C52.09,22.43,52.15,21.61,52.44,20.89C52.39,21.01,52.34,21.13,52.32,21.17Z" fill="#1E052D"/><path d="M66.14,34.91C65.12,33.96,62.3,29.41,61.1,28.76C58.56,27.39,55.3,26.53,52.99,24.86C52.54,26.54,52.3,27.67,52.47,29.4C52.55,30.22,51.34,32.24,49.43,34.92C49.18,32.27,49,30.36,48.96,29.9C48.91,29.37,49.63,28.33,49.19,27.58C49.08,27.41,48.24,26.35,47.39,26.35C46.54,26.35,45.7,27.41,45.59,27.58C45.15,28.33,45.86,29.37,45.81,29.9C45.77,30.36,45.6,32.27,45.35,34.92C43.44,32.24,42.22,30.22,42.3,29.4C42.48,27.67,42.06,26.54,41.61,24.86C39.29,26.53,36.22,27.39,33.68,28.76C32.47,29.41,29.65,33.96,28.64,34.91C28.04,35.47,23.67,36.09,23.49,36.82C22.67,40.3,24.68,52.44,34.54,41.53C34.84,43.37,34.25,50.71,33.82,55.01C33.79,55.05,33.76,55.08,33.73,55.08L33.81,55.08L43.42,55.08L51.36,55.08L60.97,55.08L61.05,55.08C61.02,55.08,60.99,55.05,60.95,55.01C60.53,50.71,59.94,43.35,60.24,41.51C70.1,52.41,71.93,40.26,71.34,36.82C71.22,36.08,66.74,35.47,66.14,34.91Z" fill="#1E052D"/><path d="M32.44,31.94C31.87,31.61,31.28,30.02,30.86,29.63C30.43,29.24,29.41,28.27,28.68,27.48C27.95,26.69,27.87,23.71,27.36,22.75C26.85,21.79,25.44,18.43,24.54,18.24C23.63,18.04,23.35,18.35,23.24,19.02C23.13,19.7,23.83,20.91,24.34,21.96C24.85,23.01,25.06,26.49,24.73,26.58C24.39,26.66,21.89,24.93,20.54,24.31C18.72,23.46,16.92,23.33,16.19,23.33C15.46,23.33,14.58,23.57,14.86,24.51C15.14,25.44,17.46,25.53,18.72,26.19C19.5,26.6,21.99,27.9,21.76,28.47C21.54,29.04,19.01,30.13,18.27,30.42C17.24,30.81,15.33,31.03,14.79,31.23C14.25,31.43,14.04,32.67,15.02,32.82C15.74,32.93,16.49,32.98,18.01,32.61C18.71,32.44,21.32,32.01,21.32,32.01C21.32,32.01,21.47,32.61,21.05,33.19C20.77,33.57,18.79,37.27,20.05,37.56C21.05,37.8,22.62,34.24,22.74,33.8C22.74,33.8,24.55,34.86,26.46,34.85C26.46,34.85,24.46,35.23,22.87,34.32L23.42,36.82C23.42,36.82,23.61,37.35,25.53,37.06C28.69,36.58,29.9,34.7,29.9,34.7C29.9,34.7,31.03,34.68,31.56,34.37C31.56,34.37,32.89,34.74,34.11,34.74C35.32,34.74,36.65,34.4,36.67,33.67C36.7,32.93,36.45,32.76,35.55,32.48C34.64,32.2,33.01,32.28,32.44,31.94Z" fill="#EDEDED"/><path d="M34.99,83.12C32.32,81.3,31.68,78.69,31.96,76.81C31.99,75.88,32.43,73.59,32.71,72.47C33.3,68.07,33.16,65.09,33.06,64C33.04,63.64,33.17,63.28,33.44,63.02C33.66,62.8,33.97,62.69,34.27,62.69C34.32,62.69,34.37,62.69,34.42,62.7C35.02,62.71,40.39,62.72,47.38,62.72C54.38,62.72,59.75,62.71,60.35,62.7C60.4,62.69,60.45,62.69,60.5,62.69C60.81,62.69,61.1,62.8,61.33,63.02C61.6,63.28,61.73,63.64,61.71,64C61.61,65.09,61.47,68.07,62.06,72.47C62.34,73.59,62.78,75.88,62.81,76.81C63.09,78.69,62.45,81.3,59.78,83.12C56.82,85.13,52.42,86.25,47.38,86.25C42.35,86.25,37.95,85.13,34.99,83.12Z" fill="#1E052D"/><path d="M60.49,63.9L60.45,63.91C60.21,63.94,34.56,63.94,34.32,63.91L34.28,63.9C34.36,65.01,34.52,68.13,33.9,72.71C33.49,74.32,33.13,76.63,33.17,76.93C33.03,77.77,32.94,80.25,35.67,82.12C38.31,83.91,42.38,85.04,47.38,85.04C52.39,85.04,56.46,83.91,59.09,82.12C61.83,80.25,61.74,77.77,61.59,76.93C61.63,76.63,61.28,74.32,60.87,72.71C60.25,68.13,60.41,65.01,60.49,63.9Z" fill="#1E052D"/><path d="M33.46,69.45C32.95,69.27,32.61,68.79,32.63,68.25C32.7,66.51,32.64,65.48,32.58,64.77C32.54,64.25,32.73,63.75,33.11,63.4C33.42,63.09,33.84,62.93,34.27,62.93C34.33,62.93,34.39,62.93,34.45,62.94C35.05,62.95,39.65,62.96,47.38,62.96C55.12,62.96,59.73,62.95,60.32,62.94C60.38,62.93,60.44,62.93,60.5,62.93C60.93,62.93,61.35,63.1,61.67,63.4C62.04,63.75,62.23,64.25,62.19,64.77C62.13,65.48,62.07,66.51,62.14,68.25C62.15,68.79,61.82,69.27,61.31,69.45C58.19,70.5,53.25,71.76,47.38,71.76C41.53,71.76,36.58,70.5,33.46,69.45Z" fill="#1E052D"/><path d="M60.92,68.3C60.85,66.41,60.93,65.32,60.98,64.67C60.99,64.52,60.94,64.37,60.83,64.28C60.74,64.19,60.62,64.14,60.5,64.14C60.48,64.14,60.45,64.14,60.43,64.14L60.4,64.15C60.02,64.16,54.58,64.17,47.38,64.17C40.19,64.17,34.75,64.16,34.37,64.15L34.34,64.14C34.32,64.14,34.3,64.14,34.27,64.14C34.15,64.14,34.03,64.19,33.94,64.28C33.83,64.37,33.78,64.52,33.79,64.67C33.84,65.32,33.92,66.41,33.85,68.3C37.68,69.6,42.42,70.55,47.38,70.55C52.35,70.55,57.09,69.6,60.92,68.3Z" fill="#7980BA"/><path d="M27.22,58.97C27.22,54.11,36.08,50.3,47.38,50.3C58.69,50.3,67.55,54.11,67.55,58.97C67.55,63.83,58.69,67.64,47.38,67.64C36.08,67.64,27.22,63.83,27.22,58.97Z" fill="#1E052D"/><path d="M47.39,66.19C36.78,66.19,28.19,62.74,28.19,58.49C28.19,54.23,36.78,50.78,47.39,50.78C57.98,50.78,66.58,54.23,66.58,58.49C66.58,62.74,57.98,66.19,47.39,66.19Z" fill="#7980BA"/><path d="M47.38,62.42C40.98,62.42,35.78,60.33,35.78,57.76C35.78,55.18,40.98,53.1,47.38,53.1C53.79,53.1,58.98,55.18,58.98,57.76C58.98,60.33,53.79,62.42,47.38,62.42Z" fill="#1E052D"/><path d="M40.34,54.17C40.27,54.05,40.16,53.88,40.16,53.6C40.16,53.51,40.17,53.39,40.22,53.24C40.36,52.78,40.98,52.03,43.28,51.59C42.17,50.52,41.51,49.01,41.51,47.39C41.51,44.17,44.1,41.55,47.28,41.55C50.47,41.55,53.06,44.17,53.06,47.4C53.06,49,52.39,50.53,51.28,51.62C52.75,51.9,54.07,52.39,54.36,53.27C54.38,53.33,54.41,53.44,54.41,53.6C54.41,54.03,54.17,54.3,53.99,54.47C52.96,55.47,49.86,55.81,47.28,55.81C46.29,55.81,41.3,55.75,40.34,54.17Z" fill="#1E052D"/><path d="M49.3,52.1C51.08,51.32,52.33,49.45,52.33,47.38C52.33,44.59,50.07,42.24,47.28,42.24C44.5,42.24,42.23,44.59,42.23,47.38C42.23,49.45,43.48,51.27,45.27,52.05C42.88,52.25,41.12,52.81,40.91,53.47C40.89,53.51,40.89,53.57,40.89,53.61C40.89,53.69,40.91,53.71,40.96,53.79C41.43,54.56,44.08,55.08,47.28,55.08C50.26,55.08,52.77,54.64,53.48,53.95C53.61,53.83,53.69,53.72,53.69,53.58C53.69,53.54,53.67,53.53,53.66,53.49C53.45,52.84,51.69,52.3,49.3,52.1Z" fill="#F9F7FA"/><path d="M41.38,61.53C41.15,61.48,40.96,61.31,40.87,61.09C40.78,60.87,40.81,60.62,40.94,60.43C41.33,59.82,41.83,58.44,42.26,57.23C42.51,56.52,42.75,55.84,42.97,55.32C43.08,55.05,43.35,54.88,43.64,54.88C43.68,54.88,43.72,54.87,43.75,54.87C45.17,55.1,46.64,55.08,47.13,55.08L47.29,55.08C48.72,55.08,49.87,55.03,50.82,54.87C50.86,54.87,50.89,54.87,50.93,54.87C51.22,54.87,51.49,55.05,51.6,55.32C51.82,55.84,52.05,56.52,52.31,57.23C52.73,58.42,53.2,59.77,53.6,60.4C53.73,60.59,53.75,60.84,53.67,61.05C53.58,61.27,53.39,61.43,53.16,61.49C51.39,61.93,49.32,62.16,47.17,62.16C45.11,62.16,43.16,61.95,41.38,61.53Z" fill="#1E052D"/><path d="M51.48,60.89L50.27,55.81C50.27,55.81,49.06,56.05,47.36,56.05C45.66,56.05,44.45,55.81,44.45,55.81L43.24,60.89C44.81,61.26,45.91,61.43,47.36,61.43C48.82,61.43,49.92,61.26,51.48,60.89Z" fill="#F9F7FA"/><path d="M65.09,51.82C65.07,51.33,65.11,50.2,65.15,49.02C64.99,49.31,64.8,49.61,64.62,49.93C64.08,50.86,63.48,51.9,63.24,52.42C62.99,52.96,62.04,54.72,60.41,54.72C59.98,54.72,59.57,54.6,59.2,54.36C57.49,53.27,58.24,51.31,58.56,50.48C58.85,49.71,59.55,48.36,60.17,47.18C60.43,46.67,60.69,46.18,60.83,45.88C60.95,45.63,61.1,45.23,61.25,44.79C59.28,46.53,58.66,47.02,58.25,47.19C57.88,47.34,57.45,47.43,57.02,47.43C56.18,47.43,55.52,47.09,55.2,46.51C54.85,45.89,54.92,45.26,55.12,44.75C54.62,44.52,54.22,44.15,53.93,43.67C53.46,42.87,53.43,41.9,53.65,41.4C53.97,40.64,54.71,40.53,55.64,40.38C55.73,40.37,55.83,40.35,55.93,40.34C55.01,40.27,54,40.16,53.31,40.06C52.08,39.87,48.34,39.28,48.4,36.23C48.42,35.43,48.99,34.64,50.23,34.64C50.93,34.64,51.77,34.89,52.32,35.05C52.45,35.09,52.56,35.13,52.62,35.14C52.79,35.18,54.32,35.43,56.17,35.43C57.97,35.43,59.4,35.19,60.32,34.73C60.4,34.68,60.64,34.5,60.85,34.36C63.52,32.48,66.57,30.57,69.02,30.57C69.15,30.57,69.27,30.57,69.39,30.58C71.8,30.78,73.7,32.18,74.51,33.47C76.74,37.03,75.15,40.59,74.08,41.66C73.65,42.1,71.61,43.65,70.61,44.4C70.35,45.59,69.71,49.29,69.67,50.19C69.66,50.32,69.65,50.47,69.64,50.64C69.58,52.26,69.5,54.49,67.78,54.79C67.65,54.82,67.52,54.83,67.4,54.83C66.08,54.83,65.15,53.62,65.09,51.82Z" fill="#1E052D"/><path d="M69.29,31.79C66.38,31.54,61.43,35.52,60.88,35.8C58.09,37.23,52.87,36.45,52.35,36.32C51.82,36.2,49.63,35.36,49.61,36.25C49.58,37.96,51.59,38.56,53.5,38.86C54.77,39.06,57.29,39.23,58.02,39.23C58.77,39.23,59.27,39.81,59.17,40.05C59.08,40.3,57.47,41.23,56.74,41.41C55.99,41.59,54.85,41.66,54.76,41.87C54.67,42.08,54.67,43.64,56.23,43.8L60.93,39.33C60.93,39.33,57.19,43.82,56.84,44.26C56.6,44.55,55.93,45.33,56.26,45.92C56.46,46.29,57.29,46.28,57.79,46.07C58.37,45.82,62.16,42.31,62.38,42.22C62.6,42.12,63.15,42.18,63.15,42.49C63.15,42.8,62.38,45.45,61.92,46.4C61.46,47.36,60.09,49.86,59.69,50.91C59.29,51.96,59.05,52.82,59.85,53.34C60.79,53.94,61.71,52.83,62.14,51.91C62.58,50.98,63.89,48.82,64.48,47.74C65.07,46.66,65.9,44.28,66.3,44.1C66.7,43.91,66.61,44.93,66.51,46.04C66.43,47.15,66.27,50.85,66.3,51.78C66.33,52.7,66.7,53.75,67.57,53.6C68.43,53.45,68.39,51.26,68.45,50.12C68.52,48.98,69.39,44.07,69.54,43.69C69.54,43.69,72.75,41.28,73.22,40.81C74.06,39.97,75.28,37,73.48,34.11C72.81,33.05,71.22,31.95,69.29,31.79Z" fill="#F9F7FA"/><path d="M52.48,29.55L52.99,24.85L51.93,28.2L48.36,27.23Z" fill="#1E052D"/><path d="M42.09,29.55L41.61,24.79L42.88,28.2L46.45,27.23Z" fill="#1E052D"/></svg>