<svg xmlns="http://www.w3.org/2000/svg" viewBox="0 0 90 90" fill="currentColor"><path d="M39.88,32.28L42.61,66.25L43.52,67.9L53.08,67.9L53.99,66.25L56.89,32.28ZM22.36,54.48L22.8,58.84L28.06,55.9L25.52,55.4L23.87,56.67ZM53.32,69.83C53.34,69.87,53.37,69.95,53.44,70.11C53.9,71.25,54.1,72.26,54.73,73.29C55.46,74.5,55.38,75.64,55,76.95C54.57,78.44,55.08,80.1,54.76,81.63C54.24,84.16,50.84,86.04,48.39,86.04C45.94,86.04,42.54,84.16,42.02,81.63C41.7,80.1,42.21,78.44,41.78,76.95C41.4,75.64,41.32,74.5,42.05,73.29C42.68,72.26,42.88,71.25,43.34,70.11C43.41,69.95,43.44,69.87,43.45,69.83C43.43,69.87,43.39,69.99,43.34,70.11C43.63,69.39,43.69,68.57,43.61,67.8C43.54,67.2,47.72,64.09,48.39,64.07C49.06,64.09,53.24,67.2,53.18,67.8C53.09,68.57,53.15,69.39,53.44,70.11C53.39,69.99,53.34,69.87,53.32,69.83ZM67.14,56.09C66.12,57.04,63.3,61.59,62.1,62.25C59.56,63.62,56.3,64.47,53.99,66.15C53.54,64.46,53.3,63.33,53.47,61.6C53.55,60.78,52.34,58.76,50.43,56.09C50.18,58.73,50,60.65,49.96,61.1C49.91,61.63,50.63,62.67,50.19,63.42C50.08,63.59,49.24,64.65,48.39,64.65C47.54,64.65,46.7,63.59,46.59,63.42C46.15,62.67,46.86,61.63,46.81,61.1C46.77,60.65,46.6,58.73,46.35,56.09C44.44,58.76,43.22,60.78,43.3,61.6C43.48,63.33,43.06,64.46,42.61,66.15C40.29,64.47,37.22,63.62,34.68,62.25C33.47,61.59,30.65,57.04,29.64,56.09C29.04,55.54,24.67,54.91,24.49,54.18C23.67,50.7,25.68,38.56,35.54,49.47C35.84,47.63,35.25,40.3,34.82,35.99C34.79,35.95,34.76,35.92,34.73,35.92L34.81,35.92L44.42,35.92L52.36,35.92L61.97,35.92L62.05,35.92C62.02,35.92,61.99,35.95,61.95,35.99C61.53,40.3,60.94,47.65,61.24,49.49C71.1,38.59,72.93,50.75,72.34,54.18C72.22,54.92,67.74,55.54,67.14,56.09ZM33.44,59.06C32.87,59.39,32.28,60.98,31.86,61.37C31.43,61.77,30.41,62.73,29.68,63.52C28.95,64.31,28.87,67.29,28.36,68.25C27.85,69.21,26.44,72.57,25.54,72.77C24.63,72.96,24.35,72.66,24.24,71.98C24.13,71.3,24.83,70.09,25.34,69.04C25.85,67.99,26.06,64.51,25.73,64.42C25.39,64.34,22.89,66.07,21.54,66.69C19.72,67.54,17.92,67.67,17.19,67.67C16.46,67.67,15.58,67.43,15.86,66.5C16.14,65.57,18.46,65.47,19.72,64.81C20.5,64.4,22.99,63.1,22.76,62.53C22.54,61.96,20.01,60.87,19.27,60.58C18.24,60.19,16.33,59.97,15.79,59.77C15.25,59.58,15.04,58.33,16.02,58.18C16.74,58.07,17.49,58.02,19.01,58.39C19.71,58.56,22.32,58.99,22.32,58.99C22.32,58.99,22.47,58.39,22.05,57.81C21.77,57.43,19.79,53.74,21.05,53.44C22.05,53.2,23.62,56.76,23.74,57.2C23.74,57.2,25.55,56.14,27.46,56.16C27.46,56.16,25.46,55.77,23.87,56.68L24.42,54.18C24.42,54.18,24.61,53.65,26.53,53.94C29.69,54.42,30.9,56.3,30.9,56.3C30.9,56.3,32.03,56.32,32.56,56.63C32.56,56.63,33.89,56.26,35.11,56.26C36.32,56.26,37.65,56.6,37.67,57.33C37.7,58.07,37.45,58.24,36.55,58.52C35.64,58.8,34.01,58.72,33.44,59.06ZM61.49,27.1L61.45,27.1C61.21,27.06,35.56,27.06,35.32,27.1L35.28,27.1C35.36,25.99,35.52,22.87,34.9,18.3C34.49,16.68,34.13,14.37,34.17,14.07C34.03,13.23,33.94,10.75,36.67,8.89C39.31,7.09,43.38,5.96,48.38,5.96C53.39,5.96,57.46,7.09,60.09,8.89C62.83,10.75,62.74,13.23,62.59,14.07C62.63,14.37,62.28,16.68,61.87,18.3C61.25,22.87,61.41,25.99,61.49,27.1ZM61.92,22.7C61.85,24.59,61.93,25.68,61.98,26.33C61.99,26.48,61.94,26.63,61.83,26.73C61.74,26.81,61.62,26.86,61.5,26.86C61.48,26.86,61.45,26.86,61.43,26.86L61.4,26.85C61.02,26.84,55.58,26.83,48.38,26.83C41.19,26.83,35.75,26.84,35.37,26.85L35.34,26.86C35.32,26.86,35.3,26.86,35.27,26.86C35.15,26.86,35.03,26.81,34.94,26.73C34.83,26.63,34.78,26.48,34.79,26.33C34.84,25.68,34.92,24.59,34.85,22.7C38.68,21.4,43.42,20.45,48.38,20.45C53.35,20.45,58.09,21.4,61.92,22.7ZM28.46,32.03C28.46,36.76,37.21,40.46,48.39,40.46C59.56,40.46,68.31,36.76,68.31,32.03C68.31,27.3,59.56,23.6,48.39,23.6C37.21,23.6,28.46,27.3,28.46,32.03ZM48.39,24.81C37.78,24.81,29.19,28.26,29.19,32.52C29.19,36.77,37.78,40.22,48.39,40.22C58.98,40.22,67.58,36.77,67.58,32.52C67.58,28.26,58.98,24.81,48.39,24.81ZM48.38,28.59C41.98,28.59,36.78,30.67,36.78,33.24C36.78,35.82,41.98,37.9,48.38,37.9C54.79,37.9,59.98,35.82,59.98,33.24C59.98,30.67,54.79,28.59,48.38,28.59ZM41.34,36.83C41.27,36.95,41.16,37.12,41.16,37.4C41.16,37.49,41.17,37.61,41.22,37.76C41.36,38.22,41.98,38.97,44.28,39.41C43.17,40.48,42.51,41.99,42.51,43.61C42.51,46.83,45.1,49.46,48.28,49.46C51.47,49.46,54.06,46.83,54.06,43.6C54.06,42,53.39,40.47,52.28,39.38C53.75,39.1,55.07,38.61,55.36,37.73C55.38,37.67,55.41,37.56,55.41,37.4C55.41,36.98,55.17,36.71,54.99,36.53C53.96,35.53,50.86,35.19,48.28,35.19C47.29,35.19,42.3,35.25,41.34,36.83ZM50.3,38.9C52.08,39.68,53.33,41.55,53.33,43.62C53.33,46.41,51.07,48.76,48.28,48.76C45.5,48.76,43.23,46.41,43.23,43.62C43.23,41.55,44.48,39.73,46.27,38.95C43.88,38.75,42.12,38.19,41.91,37.53C41.89,37.49,41.89,37.43,41.89,37.4C41.89,37.31,41.91,37.29,41.96,37.21C42.43,36.44,45.08,35.92,48.28,35.92C51.26,35.92,53.77,36.36,54.48,37.05C54.61,37.18,54.69,37.28,54.69,37.42C54.69,37.46,54.67,37.47,54.66,37.51C54.45,38.17,52.69,38.7,50.3,38.9ZM42.38,29.47C42.15,29.52,41.96,29.69,41.87,29.91C41.78,30.13,41.81,30.38,41.94,30.57C42.33,31.18,42.83,32.56,43.26,33.78C43.51,34.49,43.75,35.16,43.97,35.68C44.08,35.95,44.35,36.12,44.64,36.12C44.68,36.12,44.72,36.14,44.75,36.13C46.17,35.9,47.64,35.92,48.13,35.92L48.29,35.92C49.72,35.92,50.87,35.98,51.82,36.13C51.86,36.14,51.89,36.13,51.93,36.13C52.22,36.13,52.49,35.95,52.6,35.68C52.82,35.16,53.05,34.49,53.31,33.77C53.73,32.58,54.2,31.23,54.6,30.6C54.73,30.41,54.75,30.16,54.67,29.95C54.58,29.73,54.39,29.57,54.16,29.51C52.39,29.07,50.32,28.84,48.17,28.84C46.11,28.84,44.16,29.05,42.38,29.47ZM44.64,35.41C44.05,34.01,43.24,31.23,42.55,30.19C44.11,29.82,46,29.57,48.17,29.57C50.42,29.57,52.39,29.82,53.99,30.22C53.3,31.3,52.52,34.02,51.93,35.41C50.77,35.23,49.47,35.19,48.29,35.19C47.77,35.19,46.18,35.17,44.64,35.41ZM70.29,59.21C67.38,59.46,62.43,55.48,61.88,55.2C59.09,53.77,53.87,54.56,53.35,54.68C52.82,54.8,50.63,55.64,50.61,54.75C50.58,53.04,52.59,52.44,54.5,52.14C55.77,51.94,58.29,51.77,59.02,51.77C59.77,51.77,60.27,51.19,60.17,50.95C60.08,50.7,58.47,49.78,57.74,49.59C56.99,49.41,55.85,49.34,55.76,49.13C55.67,48.92,55.67,47.36,57.23,47.2L63.63,53.06C63.63,53.06,58.19,47.18,57.84,46.75C57.6,46.45,56.93,45.67,57.26,45.08C57.46,44.71,58.29,44.72,58.79,44.93C59.37,45.18,63.16,48.69,63.38,48.79C63.6,48.88,64.15,48.82,64.15,48.51C64.15,48.2,63.38,45.55,62.92,44.6C62.46,43.64,61.09,41.14,60.69,40.09C60.29,39.04,60.05,38.18,60.85,37.66C61.79,37.06,62.71,38.17,63.14,39.09C63.58,40.02,64.89,42.19,65.48,43.26C66.07,44.34,66.9,46.72,67.3,46.9C67.7,47.09,67.61,46.07,67.51,44.96C67.43,43.85,67.27,40.15,67.3,39.22C67.33,38.3,67.7,37.25,68.57,37.4C69.43,37.55,69.39,39.74,69.45,40.88C69.52,42.02,70.39,46.93,70.54,47.31C70.54,47.31,73.75,49.72,74.22,50.19C75.06,51.04,76.28,54.01,74.48,56.89C73.81,57.95,72.22,59.05,70.29,59.21ZM53.48,61.45L53.99,66.15L52.93,62.81L49.36,63.77ZM43.09,61.45L42.61,66.22L43.88,62.81L47.45,63.77ZM70.39,60.42C70.27,60.43,70.15,60.43,70.02,60.43C68.95,60.43,67.68,60.06,66.16,59.32C64.59,61.48,63.55,62.83,62.67,63.31C61.6,63.89,60.41,64.38,59.26,64.85C57.77,65.47,56.23,66.1,55.01,66.92L54.36,68.09C54.31,68.67,54.38,69.21,54.56,69.65C54.73,70.07,54.87,70.47,55,70.86C55.22,71.52,55.42,72.09,55.76,72.66C56.8,74.36,56.54,75.95,56.16,77.28C55.99,77.88,56.03,78.61,56.05,79.37C56.09,80.18,56.13,81.01,55.95,81.88C55.32,84.95,51.43,87.25,48.39,87.25C45.35,87.25,41.47,84.95,40.83,81.88C40.65,81.01,40.69,80.18,40.72,79.37C40.76,78.61,40.79,77.88,40.62,77.29C40.23,75.95,39.99,74.36,41.02,72.66C41.36,72.09,41.55,71.52,41.78,70.86C41.91,70.48,42.04,70.08,42.21,69.66L42.22,69.66C42.36,69.3,42.43,68.89,42.43,68.44L41.59,66.92C40.36,66.09,38.91,65.47,37.37,64.82C36.29,64.35,35.16,63.88,34.11,63.31C33.74,63.11,33.33,62.75,32.79,62.14C32.76,62.19,32.72,62.23,32.68,62.26C32.38,62.55,31.31,63.55,30.58,64.33C30.38,64.61,30.17,65.8,30.06,66.43C29.89,67.4,29.74,68.23,29.43,68.82C29.34,68.99,29.21,69.26,29.06,69.57C27.71,72.41,26.91,73.7,25.8,73.95C25.53,74.01,25.29,74.03,25.07,74.03C24.55,74.03,23.32,73.86,23.04,72.18C22.88,71.22,23.42,70.16,23.99,69.04C24.08,68.86,24.17,68.68,24.25,68.51C24.43,68.14,24.57,67.18,24.64,66.33C24.54,66.39,24.44,66.45,24.35,66.5C23.54,66.98,22.71,67.49,22.05,67.79C19.88,68.8,17.78,68.88,17.19,68.88C16.17,68.88,15.4,68.56,14.96,67.96C14.74,67.67,14.42,67.05,14.7,66.14C15.07,64.93,16.39,64.57,17.67,64.23C18.22,64.08,18.8,63.93,19.16,63.73C20.03,63.28,20.6,62.94,20.98,62.7C20.36,62.37,19.5,61.98,18.83,61.71C18.32,61.52,17.45,61.35,16.75,61.23C16.07,61.09,15.67,61.02,15.37,60.91C14.56,60.61,14.04,59.7,14.14,58.74C14.23,57.82,14.9,57.12,15.84,56.98C16.14,56.94,16.52,56.89,16.98,56.89C17.66,56.89,18.4,56.99,19.3,57.22C19.52,57.27,19.97,57.35,20.47,57.45C19.9,56.3,19.17,54.49,19.59,53.35C19.8,52.79,20.24,52.39,20.81,52.26C20.94,52.23,21.06,52.22,21.19,52.22C22,52.22,22.65,52.79,23.17,53.44C22.96,51.17,23.46,47.67,25.13,45.59C26.08,44.43,27.31,43.81,28.7,43.81C30.42,43.81,32.3,44.73,34.39,46.6C34.31,43.97,34,40.01,33.66,36.48C33.57,36.31,33.52,36.12,33.52,35.92C33.52,35.25,34.06,34.71,34.73,34.71L38.85,34.71L38.67,32.38C38.64,32.05,38.76,31.71,38.99,31.46C39.22,31.22,39.54,31.07,39.88,31.07L56.89,31.07C57.23,31.07,57.55,31.22,57.79,31.46C58.02,31.72,58.13,32.05,58.1,32.39L57.9,34.71L62.05,34.71C62.71,34.71,63.26,35.25,63.26,35.92C63.26,36.12,63.21,36.3,63.13,36.47C63.11,36.63,63.09,36.8,63.08,36.98C63.69,37.51,64.07,38.23,64.24,38.58C64.48,39.1,65.08,40.14,65.62,41.07C65.8,41.39,65.99,41.69,66.15,41.98C66.11,40.8,66.07,39.67,66.09,39.18C66.15,37.38,67.08,36.17,68.4,36.17C68.52,36.17,68.65,36.19,68.78,36.21C70.5,36.51,70.58,38.74,70.64,40.36C70.65,40.53,70.66,40.68,70.67,40.81C70.69,41.45,71.05,43.64,71.37,45.36C71.85,45.89,72.27,46.56,72.61,47.35C74.7,48.95,74.97,49.23,75.08,49.34C76.15,50.41,77.74,53.97,75.51,57.53C74.7,58.82,72.8,60.22,70.39,60.42ZM39.88,32.28L42.61,66.25L43.52,67.9L53.08,67.9L53.99,66.25L56.89,32.28ZM22.36,54.48L22.8,58.84L28.06,55.9L25.52,55.4L23.87,56.67ZM53.32,69.83C53.34,69.87,53.37,69.95,53.44,70.11C53.9,71.25,54.1,72.26,54.73,73.29C55.46,74.5,55.38,75.64,55,76.95C54.57,78.44,55.08,80.1,54.76,81.63C54.24,84.16,50.84,86.04,48.39,86.04C45.94,86.04,42.54,84.16,42.02,81.63C41.7,80.1,42.21,78.44,41.78,76.95C41.4,75.64,41.32,74.5,42.05,73.29C42.68,72.26,42.88,71.25,43.34,70.11C43.41,69.95,43.44,69.87,43.45,69.83C43.43,69.87,43.39,69.99,43.34,70.11C43.63,69.39,43.69,68.57,43.61,67.8C43.54,67.2,47.72,64.09,48.39,64.07C49.06,64.09,53.24,67.2,53.18,67.8C53.09,68.57,53.15,69.39,53.44,70.11C53.39,69.99,53.34,69.87,53.32,69.83ZM67.14,56.09C66.12,57.04,63.3,61.59,62.1,62.25C59.56,63.62,56.3,64.47,53.99,66.15C53.54,64.46,53.3,63.33,53.47,61.6C53.55,60.78,52.34,58.76,50.43,56.09C50.18,58.73,50,60.65,49.96,61.1C49.91,61.63,50.63,62.67,50.19,63.42C50.08,63.59,49.24,64.65,48.39,64.65C47.54,64.65,46.7,63.59,46.59,63.42C46.15,62.67,46.86,61.63,46.81,61.1C46.77,60.65,46.6,58.73,46.35,56.09C44.44,58.76,43.22,60.78,43.3,61.6C43.48,63.33,43.06,64.46,42.61,66.15C40.29,64.47,37.22,63.62,34.68,62.25C33.47,61.59,30.65,57.04,29.64,56.09C29.04,55.54,24.67,54.91,24.49,54.18C23.67,50.7,25.68,38.56,35.54,49.47C35.84,47.63,35.25,40.3,34.82,35.99C34.79,35.95,34.76,35.92,34.73,35.92L34.81,35.92L44.42,35.92L52.36,35.92L61.97,35.92L62.05,35.92C62.02,35.92,61.99,35.95,61.95,35.99C61.53,40.3,60.94,47.65,61.24,49.49C71.1,38.59,72.93,50.75,72.34,54.18C72.22,54.92,67.74,55.54,67.14,56.09ZM33.44,59.06C32.87,59.39,32.28,60.98,31.86,61.37C31.43,61.77,30.41,62.73,29.68,63.52C28.95,64.31,28.87,67.29,28.36,68.25C27.85,69.21,26.44,72.57,25.54,72.77C24.63,72.96,24.35,72.66,24.24,71.98C24.13,71.3,24.83,70.09,25.34,69.04C25.85,67.99,26.06,64.51,25.73,64.42C25.39,64.34,22.89,66.07,21.54,66.69C19.72,67.54,17.92,67.67,17.19,67.67C16.46,67.67,15.58,67.43,15.86,66.5C16.14,65.57,18.46,65.47,19.72,64.81C20.5,64.4,22.99,63.1,22.76,62.53C22.54,61.96,20.01,60.87,19.27,60.58C18.24,60.19,16.33,59.97,15.79,59.77C15.25,59.58,15.04,58.33,16.02,58.18C16.74,58.07,17.49,58.02,19.01,58.39C19.71,58.56,22.32,58.99,22.32,58.99C22.32,58.99,22.47,58.39,22.05,57.81C21.77,57.43,19.79,53.74,21.05,53.44C22.05,53.2,23.62,56.76,23.74,57.2C23.74,57.2,25.55,56.14,27.46,56.16C27.46,56.16,25.46,55.77,23.87,56.68L24.42,54.18C24.42,54.18,24.61,53.65,26.53,53.94C29.69,54.42,30.9,56.3,30.9,56.3C30.9,56.3,32.03,56.32,32.56,56.63C32.56,56.63,33.89,56.26,35.11,56.26C36.32,56.26,37.65,56.6,37.67,57.33C37.7,58.07,37.45,58.24,36.55,58.52C35.64,58.8,34.01,58.72,33.44,59.06ZM35.99,7.88C33.32,9.71,32.68,12.31,32.96,14.19C32.99,15.12,33.43,17.41,33.71,18.53C34.3,22.93,34.16,25.91,34.06,27C34.04,27.37,34.17,27.72,34.44,27.98C34.66,28.2,34.97,28.31,35.27,28.31C35.32,28.31,35.37,28.31,35.42,28.3C36.02,28.29,41.39,28.28,48.38,28.28C55.38,28.28,60.75,28.29,61.35,28.3C61.4,28.31,61.45,28.31,61.5,28.31C61.81,28.31,62.1,28.2,62.33,27.98C62.6,27.72,62.73,27.37,62.71,27C62.61,25.91,62.47,22.93,63.06,18.53C63.34,17.41,63.78,15.12,63.81,14.19C64.09,12.31,63.45,9.71,60.78,7.88C57.82,5.87,53.42,4.75,48.38,4.75C43.35,4.75,38.95,5.87,35.99,7.88ZM61.49,27.1L61.45,27.1C61.21,27.06,35.56,27.06,35.32,27.1L35.28,27.1C35.36,25.99,35.52,22.87,34.9,18.3C34.49,16.68,34.13,14.37,34.17,14.07C34.03,13.23,33.94,10.75,36.67,8.89C39.31,7.09,43.38,5.96,48.38,5.96C53.39,5.96,57.46,7.09,60.09,8.89C62.83,10.75,62.74,13.23,62.59,14.07C62.63,14.37,62.28,16.68,61.87,18.3C61.25,22.87,61.41,25.99,61.49,27.1ZM34.46,21.55C33.95,21.73,33.61,22.21,33.63,22.75C33.7,24.49,33.64,25.53,33.58,26.23C33.54,26.75,33.73,27.25,34.11,27.6C34.42,27.91,34.84,28.07,35.27,28.07C35.33,28.07,35.39,28.07,35.45,28.06C36.05,28.05,40.65,28.04,48.38,28.04C56.12,28.04,60.73,28.05,61.32,28.06C61.38,28.07,61.44,28.07,61.5,28.07C61.93,28.07,62.35,27.9,62.67,27.6C63.04,27.25,63.23,26.75,63.19,26.23C63.13,25.53,63.07,24.49,63.14,22.75C63.15,22.21,62.82,21.73,62.31,21.55C59.19,20.5,54.25,19.24,48.38,19.24C42.53,19.24,37.58,20.5,34.46,21.55ZM61.92,22.7C61.85,24.59,61.93,25.68,61.98,26.33C61.99,26.48,61.94,26.63,61.83,26.73C61.74,26.81,61.62,26.86,61.5,26.86C61.48,26.86,61.45,26.86,61.43,26.86L61.4,26.85C61.02,26.84,55.58,26.83,48.38,26.83C41.19,26.83,35.75,26.84,35.37,26.85L35.34,26.86C35.32,26.86,35.3,26.86,35.27,26.86C35.15,26.86,35.03,26.81,34.94,26.73C34.83,26.63,34.78,26.48,34.79,26.33C34.84,25.68,34.92,24.59,34.85,22.7C38.68,21.4,43.42,20.45,48.38,20.45C53.35,20.45,58.09,21.4,61.92,22.7ZM28.22,32.03C28.22,36.89,37.08,40.71,48.38,40.71C59.69,40.71,68.55,36.89,68.55,32.03C68.55,27.17,59.69,23.36,48.38,23.36C37.08,23.36,28.22,27.17,28.22,32.03ZM48.39,24.81C37.78,24.81,29.19,28.26,29.19,32.52C29.19,36.77,37.78,40.22,48.39,40.22C58.98,40.22,67.58,36.77,67.58,32.52C67.58,28.26,58.98,24.81,48.39,24.81ZM48.38,28.59C41.98,28.59,36.78,30.67,36.78,33.24C36.78,35.82,41.98,37.9,48.38,37.9C54.79,37.9,59.98,35.82,59.98,33.24C59.98,30.67,54.79,28.59,48.38,28.59ZM41.34,36.83C41.27,36.95,41.16,37.12,41.16,37.4C41.16,37.49,41.17,37.61,41.22,37.76C41.36,38.22,41.98,38.97,44.28,39.41C43.17,40.48,42.51,41.99,42.51,43.61C42.51,46.83,45.1,49.46,48.28,49.46C51.47,49.46,54.06,46.83,54.06,43.6C54.06,42,53.39,40.47,52.28,39.38C53.75,39.1,55.07,38.61,55.36,37.73C55.38,37.67,55.41,37.56,55.41,37.4C55.41,36.98,55.17,36.71,54.99,36.53C53.96,35.53,50.86,35.19,48.28,35.19C47.29,35.19,42.3,35.25,41.34,36.83ZM50.3,38.9C52.08,39.68,53.33,41.55,53.33,43.62C53.33,46.41,51.07,48.76,48.28,48.76C45.5,48.76,43.23,46.41,43.23,43.62C43.23,41.55,44.48,39.73,46.27,38.95C43.88,38.75,42.12,38.19,41.91,37.53C41.89,37.49,41.89,37.43,41.89,37.4C41.89,37.31,41.91,37.29,41.96,37.21C42.43,36.44,45.08,35.92,48.28,35.92C51.26,35.92,53.77,36.36,54.48,37.05C54.61,37.18,54.69,37.28,54.69,37.42C54.69,37.46,54.67,37.47,54.66,37.51C54.45,38.17,52.69,38.7,50.3,38.9ZM42.38,29.47C42.15,29.52,41.96,29.69,41.87,29.91C41.78,30.13,41.81,30.38,41.94,30.57C42.33,31.18,42.83,32.56,43.26,33.78C43.51,34.49,43.75,35.16,43.97,35.68C44.08,35.95,44.35,36.12,44.64,36.12C44.68,36.12,44.72,36.14,44.75,36.13C46.17,35.9,47.64,35.92,48.13,35.92L48.29,35.92C49.72,35.92,50.87,35.98,51.82,36.13C51.86,36.14,51.89,36.13,51.93,36.13C52.22,36.13,52.49,35.95,52.6,35.68C52.82,35.16,53.05,34.49,53.31,33.77C53.73,32.58,54.2,31.23,54.6,30.6C54.73,30.41,54.75,30.16,54.67,29.95C54.58,29.73,54.39,29.57,54.16,29.51C52.39,29.07,50.32,28.84,48.17,28.84C46.11,28.84,44.16,29.05,42.38,29.47ZM52.48,30.11L51.27,35.19C51.27,35.19,50.06,34.95,48.36,34.95C46.66,34.95,45.45,35.19,45.45,35.19L44.24,30.11C45.81,29.74,46.91,29.57,48.36,29.57C49.82,29.57,50.92,29.74,52.48,30.11ZM66.09,39.18C66.07,39.67,66.11,40.8,66.15,41.98C65.99,41.7,65.8,41.39,65.62,41.07C65.08,40.14,64.48,39.11,64.24,38.58C63.99,38.04,63.04,36.28,61.41,36.28C60.98,36.28,60.57,36.4,60.2,36.64C58.49,37.74,59.24,39.69,59.56,40.52C59.85,41.29,60.55,42.64,61.17,43.82C61.43,44.34,61.69,44.83,61.83,45.12C61.95,45.38,62.1,45.77,62.25,46.21C60.28,44.47,59.66,43.98,59.25,43.81C58.88,43.66,58.45,43.57,58.02,43.57C57.18,43.57,56.52,43.91,56.2,44.5C55.85,45.11,55.92,45.74,56.12,46.26C55.62,46.49,55.22,46.85,54.93,47.33C54.46,48.14,54.43,49.1,54.65,49.6C54.97,50.36,55.71,50.47,56.64,50.62C56.73,50.63,56.83,50.65,56.93,50.67C56.01,50.73,55,50.84,54.31,50.94C53.08,51.13,49.34,51.72,49.4,54.77C49.42,55.57,49.99,56.36,51.23,56.36C51.93,56.36,52.77,56.11,53.32,55.95C53.45,55.91,53.56,55.87,53.62,55.86C53.79,55.82,55.32,55.57,57.17,55.57C58.97,55.57,60.4,55.81,61.32,56.28C61.4,56.33,61.64,56.5,61.85,56.64C64.52,58.52,67.57,60.43,70.02,60.43C70.15,60.43,70.27,60.43,70.39,60.42C72.8,60.22,74.7,58.82,75.51,57.53C77.74,53.97,76.15,50.41,75.08,49.34C74.65,48.9,72.61,47.35,71.61,46.6C71.35,45.41,70.71,41.71,70.67,40.82C70.66,40.68,70.65,40.53,70.64,40.36C70.58,38.74,70.5,36.51,68.78,36.21C68.65,36.18,68.52,36.17,68.4,36.17C67.08,36.17,66.15,37.38,66.09,39.18ZM70.29,59.21C67.38,59.46,62.43,55.48,61.88,55.2C59.09,53.77,53.87,54.56,53.35,54.68C52.82,54.8,50.63,55.64,50.61,54.75C50.58,53.04,52.59,52.44,54.5,52.14C55.77,51.94,58.29,51.77,59.02,51.77C59.77,51.77,60.27,51.19,60.17,50.95C60.08,50.7,58.47,49.78,57.74,49.59C56.99,49.41,55.85,49.34,55.76,49.13C55.67,48.92,55.67,47.36,57.23,47.2L61.93,51.67C61.93,51.67,58.19,47.18,57.84,46.75C57.6,46.45,56.93,45.67,57.26,45.08C57.46,44.71,58.29,44.72,58.79,44.93C59.37,45.18,63.16,48.69,63.38,48.79C63.6,48.88,64.15,48.82,64.15,48.51C64.15,48.2,63.38,45.55,62.92,44.6C62.46,43.64,61.09,41.14,60.69,40.09C60.29,39.04,60.05,38.18,60.85,37.66C61.79,37.06,62.71,38.17,63.14,39.09C63.58,40.02,64.89,42.19,65.48,43.26C66.07,44.34,66.9,46.72,67.3,46.9C67.7,47.09,67.61,46.07,67.51,44.96C67.43,43.85,67.27,40.15,67.3,39.22C67.33,38.3,67.7,37.25,68.57,37.4C69.43,37.55,69.39,39.74,69.45,40.88C69.52,42.02,70.39,46.93,70.54,47.31C70.54,47.31,73.75,49.72,74.22,50.19C75.06,51.04,76.28,54.01,74.48,56.89C73.81,57.95,72.22,59.05,70.29,59.21ZM53.48,61.45L53.99,66.15L52.93,62.81L49.36,63.77ZM43.09,61.45L42.61,66.22L43.88,62.81L47.45,63.77Z"/></svg>