<svg xmlns="http://www.w3.org/2000/svg" viewBox="0 0 90 90"><path d="M10,60L10,75C10,79.42,13.58,83,18,83L72,83C76.42,83,80,79.42,80,75L80,47Z" fill="currentColor"/><path d="M10,57L10,72C10,76.42,13.58,80,18,80L72,80C76.42,80,80,76.42,80,72L80,44Z" fill="currentColor"/><path d="M80,72C80,76.42,76.42,80,72,80L49,80L70.72,77.92C74.54,77.56,77.56,74.54,77.92,70.72L80,49Z" fill="currentColor"/><path d="M80,18C80,13.58,76.42,10,72,10L18,10C13.58,10,10,13.58,10,18L10,45L18,43.4L18,18L72,18L72,32.6L80,31Z" fill="currentColor"/><path d="M10,18C10,13.58,13.58,10,18,10L60,10L19.36,11.03C15.3,11.14,11.96,14.27,11.6,18.31L10,36Z" fill="currentColor"/><path d="M83.37,35.69L4.9,51.3C2.2,51.84,0.44,54.47,0.98,57.18C1.51,59.89,4.15,61.65,6.85,61.11L85.32,45.5C88.03,44.96,89.78,42.33,89.25,39.62C88.71,36.91,86.08,35.15,83.37,35.69Z" fill="currentColor"/><path d="M4.9,51.3C2.2,51.84,0.44,54.47,0.98,57.18C3.13,54.49,6.14,52.62,9.5,51.88L75.38,37.28Z" fill="currentColor"/></svg>