<svg xmlns="http://www.w3.org/2000/svg" viewBox="0 0 90 90" fill="currentColor"><path d="M11,34L11,19C11,14.58,14.58,11,19,11L73,11C77.42,11,81,14.58,81,19L81,47ZM11,37L11,22C11,17.58,14.58,14,19,14L73,14C77.42,14,81,17.58,81,22L81,50ZM81,22C81,17.58,77.42,14,73,14L50,14L71.72,16.08C75.54,16.44,78.56,19.46,78.92,23.28L81,45ZM81,76C81,80.42,77.42,84,73,84L19,84C14.58,84,11,80.42,11,76L11,49L19,50.6L19,76L73,76L73,61.4L81,63ZM11,76C11,80.42,14.58,84,19,84L61,84L20.36,82.97C16.3,82.86,12.96,79.73,12.6,75.69L11,58ZM84.37,58.31L5.9,42.7C3.2,42.16,1.44,39.53,1.98,36.82C2.51,34.11,5.15,32.35,7.85,32.89L86.32,48.5C89.03,49.04,90.78,51.67,90.25,54.38C89.71,57.09,87.08,58.85,84.37,58.31ZM5.9,42.7C3.2,42.16,1.44,39.53,1.98,36.82C4.13,39.51,7.14,41.38,10.5,42.12L76.38,56.72Z"/></svg>