<svg xmlns="http://www.w3.org/2000/svg" viewBox="0 0 90 90"><path d="M49.01,13.77C52.84,26.9,63.1,37.16,76.23,40.99L90,45L76.23,49.01C63.1,52.84,52.84,63.1,49.01,76.23L45,90L40.99,76.23C37.16,63.1,26.9,52.84,13.77,49.01L0,45L13.77,40.99C26.9,37.16,37.16,26.9,40.99,13.77L45,0Z" fill="#81B64C"/><path d="M49.33,20.92C52.26,30.36,59.64,37.74,69.08,40.67L83,45L69.08,49.33C59.64,52.26,52.26,59.64,49.33,69.08L45,83L40.67,69.08C37.74,59.64,30.36,52.26,20.92,49.33L7,45L20.92,40.67C30.36,37.74,37.74,30.36,40.67,20.92L45,7Z" fill="#5D9948"/><path d="M46.46,24.91C47.13,34.91,55.09,42.87,65.09,43.54L87,45L65.09,46.46C55.09,47.13,47.13,55.09,46.46,65.09L45,87L43.54,65.09C42.87,55.09,34.91,47.13,24.91,46.46L3,45L24.91,43.54C34.91,42.87,42.87,34.91,43.54,24.91L45,3Z" fill="#81B64C"/><path d="M45.8,33.18C46.54,38.93,51.07,43.46,56.82,44.2L63,45L56.82,45.8C51.07,46.54,46.54,51.07,45.8,56.82L45,63L44.2,56.82C43.46,51.07,38.93,46.54,33.18,45.8L27,45L33.18,44.2C38.93,43.46,43.46,38.93,44.2,33.18L45,27Z" fill="#B2E068"/><path d="M53,45C48.83,45.54,45.54,48.83,45,53C44.46,48.83,41.17,45.54,37,45C41.17,44.46,44.46,41.17,45,37C45.54,41.17,48.83,44.46,53,45Z" fill="#D8FA9D"/><path d="M7.96,31.93C17.53,26.13,25.47,17.94,30.98,8.17C30.44,20.81,20.49,31.01,7.96,31.93Z" fill="#81B64C"/><path d="M7.96,58.07C17.53,63.87,25.47,72.06,30.98,81.83C30.44,69.19,20.49,58.99,7.96,58.07Z" fill="#81B64C"/><path d="M82.04,31.93C72.47,26.13,64.53,17.94,59.02,8.17C59.56,20.81,69.51,31.01,82.04,31.93Z" fill="#81B64C"/><path d="M82.04,58.07C72.47,63.87,64.53,72.06,59.02,81.83C59.56,69.19,69.51,58.99,82.04,58.07Z" fill="#81B64C"/></svg>