<svg xmlns="http://www.w3.org/2000/svg" viewBox="0 0 90 90" fill="currentColor"><path d="M50.01,14.77C53.84,27.9,64.1,38.16,77.23,41.99L91,46L77.23,50.01C64.1,53.84,53.84,64.1,50.01,77.23L46,91L41.99,77.23C38.16,64.1,27.9,53.84,14.77,50.01L1,46L14.77,41.99C27.9,38.16,38.16,27.9,41.99,14.77L46,1ZM50.33,21.92C53.26,31.36,60.64,38.74,70.08,41.67L84,46L70.08,50.33C60.64,53.26,53.26,60.64,50.33,70.08L46,84L41.67,70.08C38.74,60.64,31.36,53.26,21.92,50.33L8,46L21.92,41.67C31.36,38.74,38.74,31.36,41.67,21.92L46,8ZM47.46,25.91C48.13,35.91,56.09,43.87,66.09,44.54L88,46L66.09,47.46C56.09,48.13,48.13,56.09,47.46,66.09L46,88L44.54,66.09C43.87,56.09,35.91,48.13,25.91,47.46L4,46L25.91,44.54C35.91,43.87,43.87,35.91,44.54,25.91L46,4ZM46.8,34.18C47.54,39.93,52.07,44.46,57.82,45.2L64,46L57.82,46.8C52.07,47.54,47.54,52.07,46.8,57.82L46,64L45.2,57.82C44.46,52.07,39.93,47.54,34.18,46.8L28,46L34.18,45.2C39.93,44.46,44.46,39.93,45.2,34.18L46,28ZM54,46C49.83,46.54,46.54,49.83,46,54C45.46,49.83,42.17,46.54,38,46C42.17,45.46,45.46,42.17,46,38C46.54,42.17,49.83,45.46,54,46ZM8.96,32.93C18.53,27.13,26.47,18.94,31.98,9.17C31.44,21.81,21.49,32.01,8.96,32.93ZM8.96,59.07C18.53,64.87,26.47,73.06,31.98,82.83C31.44,70.19,21.49,59.99,8.96,59.07ZM83.04,32.93C73.47,27.13,65.53,18.94,60.02,9.17C60.56,21.81,70.51,32.01,83.04,32.93ZM83.04,59.07C73.47,64.87,65.53,73.06,60.02,82.83C60.56,70.19,70.51,59.99,83.04,59.07Z"/></svg>