<svg xmlns="http://www.w3.org/2000/svg" viewBox="0 0 90 90"><path d="M0,0L0,90L90,90L90,0Z" fill="currentColor"/><path d="M1.34,65.54L-0.01,54.19L-0.01,5C-0.01,2.24,2.23,0,4.99,0L84.99,0C87.75,0,89.99,2.24,89.99,5L89.99,52.54C89.99,53.61,89.65,54.65,89.01,55.51L83.54,62.89L86.73,64.07C88.69,64.8,89.99,66.67,89.99,68.76L89.99,79C89.99,81.76,87.75,84,84.99,84L4.99,84C2.23,84,-0.01,81.76,-0.01,79L-0.01,67.8C-0.01,66.86,0.51,65.99,1.34,65.54Z" fill="currentColor"/><path d="M54.87,61.3L44.63,64.99C38.29,67.27,34.07,73.28,34.07,80.01C34.07,82.21,35.85,84,38.06,84L95.94,84C98.15,84,99.93,82.21,99.93,80.01C99.93,73.28,95.71,67.27,89.37,64.99L79.13,61.3Z" fill="currentColor"/><path d="M54.87,61.3L44.11,65.17C38.08,67.34,34.07,73.06,34.07,79.46C36.18,71.77,42.73,66.11,50.64,65.13L67,63.12L83.36,65.13C91.27,66.11,97.82,71.77,99.93,79.46C99.93,73.06,95.92,67.34,89.89,65.17L79.13,61.3Z" fill="currentColor"/><path d="M81.36,61.32C79.66,60.09,77.61,59.41,75.51,59.36L67,59.18L58.2,59.36C55.74,59.4,53.38,60.32,51.54,61.94L50.45,62.89C59.42,72.43,74.58,72.43,83.55,62.89Z" fill="currentColor"/><path d="M53.52,13.42C55.57,8.9,60.07,6,65.03,6L70.29,6C79.32,6,87.08,12.39,88.83,21.24C89.62,25.26,89.08,29.42,87.31,33.1L84.71,38.48C84.71,42.31,82.2,45.73,78.53,46.82L67.22,50.2L55.35,46.78C51.66,45.71,49.11,42.33,49.11,38.48L46.14,30.85C43.48,24.04,46.73,16.35,53.47,13.52Z" fill="currentColor"/><path d="M53.52,13.42C55.57,8.9,60.07,6,65.03,6L70.29,6C79.32,6,87.08,12.39,88.83,21.24C89.62,25.26,89.08,29.42,87.31,33.1L84.71,38.48L86.7,33.83C88.47,29.69,88.72,25.06,87.42,20.75C85.08,13.05,78.17,7.62,70.13,7.18L65.27,6.92C60.51,6.66,56.06,9.25,53.93,13.52C47.33,17.12,44.28,24.96,46.71,32.07L48.91,38.48L46.03,30.9C43.42,24.04,46.71,16.36,53.47,13.52Z" fill="currentColor"/><path d="M50.76,17.75L56.61,21.79L58.96,17.75C54.92,14.82,49.95,13.2,44.75,13.11L44.18,13.1Z" fill="currentColor"/><path d="M60.44,24.4L66.48,28.81L68.82,24.78L50.05,9.11C51.57,15.22,55.22,20.59,60.44,24.4Z" fill="currentColor"/><path d="M56.6,38.04L56.6,60.96C62.54,66.21,71.46,66.21,77.4,60.96L77.4,38.04Z" fill="currentColor"/><path d="M56.6,34.2L56.6,52.16L60.07,56.79C63.53,61.41,70.47,61.41,73.93,56.79L77.4,52.16L77.4,34.2Z" fill="currentColor" opacity="0.5"/><path d="M51.13,36.4L53.01,37.78L56.45,34.79C57.24,34.11,58.25,33.73,59.29,33.73L67,33.73L74.71,33.73C75.75,33.73,76.76,34.11,77.55,34.79L80.99,37.78L82.87,36.4C84.15,35.46,85.91,36.59,85.6,38.14L84.44,43.79C84.19,45,83.12,45.87,81.89,45.87L52.11,45.87C50.88,45.87,49.81,45,49.56,43.79L48.4,38.14C48.09,36.59,49.85,35.46,51.13,36.4Z" fill="currentColor"/><path d="M71.54,30.66L81.73,29.62L81.73,42.13C81.73,45.8,80.18,49.31,77.45,51.77L73.95,54.94C72.36,56.38,70.28,57.18,68.14,57.18L65.86,57.18C63.72,57.18,61.64,56.38,60.05,54.94L56.55,51.77C53.82,49.31,52.27,45.8,52.27,42.13L52.27,35.69C52.27,31.36,53.35,27.09,55.43,23.27L55.51,23.12C59.04,28.41,65.21,31.31,71.54,30.66Z" fill="currentColor"/><path d="M14.78,58.87L13.96,58.87C11.57,58.87,9.63,60.81,9.63,63.2L9.63,63.31L5.26,64.77C-0.03,66.55,-3.6,71.51,-3.6,77.09L-3.6,79.67C-3.6,82.06,-1.66,84,0.73,84L55.6,84L53.9,75.37C53.09,71.22,50.3,67.72,46.43,66L40.37,63.31C40.89,61.03,39.16,58.87,36.82,58.87L36.22,58.87Z" fill="currentColor"/><path d="M44.67,68.31C31.16,75.66,14.84,75.66,1.33,68.31L1.33,53.22C1.33,45.91,1.34,37.79,1.33,31.12C1.33,15.4,9.25,6,23.01,6C36.8,6,44.68,15.4,44.67,31.12C44.66,37.79,44.67,46.7,44.67,53.22Z" fill="currentColor"/><path d="M1.33,31.12C1.33,15.4,9.25,6,23.01,6C36.8,6,44.68,15.4,44.67,31.12C44.67,31.12,45.69,7.97,23.01,7.97C0.33,7.97,1.33,31.12,1.33,31.12Z" fill="currentColor"/><path d="M12.47,58.87L11.73,58.87C9.34,58.87,7.4,60.81,7.4,63.2L7.4,63.31L3.2,64.74C-2.06,66.54,-5.6,71.48,-5.6,77.04L-5.6,79.67C-5.6,82.06,-3.66,84,-1.27,84L47.27,84C49.66,84,51.6,82.06,51.6,79.67L51.6,77.04C51.6,71.48,48.06,66.54,42.8,64.74L38.6,63.31L38.6,63.2C38.6,60.81,36.66,58.87,34.27,58.87L33.53,58.87Z" fill="currentColor"/><path d="M12.47,58.87L11.73,58.87C9.34,58.87,7.4,60.81,7.4,63.2L7.4,63.31L3.2,64.74C-2.06,66.54,-5.6,71.48,-5.6,77.04L-5.6,79.67L-5.36,77.43C-4.73,71.59,-0.27,66.89,5.53,65.97L18.92,63.85C21.62,63.42,24.38,63.42,27.08,63.85L40.47,65.97C46.27,66.89,50.73,71.59,51.36,77.43L51.6,79.67L51.6,77.04C51.6,71.48,48.06,66.54,42.8,64.74L38.6,63.31L38.6,63.2C38.6,60.81,36.66,58.87,34.27,58.87L33.53,58.87Z" fill="currentColor"/><path d="M12.47,58.87L11.73,58.87C9.34,58.87,7.4,60.81,7.4,63.2L7.4,63.31L8.44,64.23C12.32,67.69,15.37,71.97,17.37,76.76L20.4,84L25.6,84L28.62,76.76C30.63,71.97,33.68,67.69,37.56,64.23L38.6,63.31L38.6,63.2C38.6,60.81,36.66,58.87,34.27,58.87L33.53,58.87Z" fill="currentColor"/><path d="M12.6,40.27L12.6,60.6C16.03,63.25,18.92,66.55,21.09,70.3L23,73.6L24.91,70.3C27.08,66.55,29.97,63.25,33.4,60.6L33.4,40.27Z" fill="currentColor"/><path d="M12.6,36.8L12.6,56.5L17.8,60.4C20.88,62.71,25.12,62.71,28.2,60.4L33.4,56.5L33.4,36.8Z" fill="currentColor" opacity="0.5"/><path d="M6.54,35.3L10.87,36.47L10.87,46.73L7.1,45.38C6.21,45.06,5.57,44.29,5.41,43.37L4.38,37.26C4.17,36.02,5.32,34.97,6.54,35.3Z" fill="currentColor"/><path d="M39.46,35.3C40.68,34.97,41.83,36.02,41.62,37.26L40.59,43.37C40.43,44.29,39.79,45.06,38.9,45.38L35.13,46.73L35.13,36.47Z" fill="currentColor"/><path d="M37.73,30.7L37.73,40.05C37.73,44.27,35.93,48.28,32.77,51.08C27.19,56.02,18.81,56.02,13.23,51.08C10.07,48.28,8.27,44.27,8.27,40.05L8.27,30.7C8.27,30.35,8.52,30.05,8.87,29.99L9.15,29.95C15.36,28.96,20.6,24.81,23,19C25.4,24.81,30.64,28.96,36.85,29.95L37.13,29.99C37.48,30.05,37.73,30.35,37.73,30.7Z" fill="currentColor" opacity="0.5"/><path d="M37.65,45.9C37.65,48.22,36.71,50.45,35.05,52.08L30.25,56.79C28.63,58.38,26.45,59.27,24.18,59.27L21.82,59.27C19.55,59.27,17.37,58.38,15.75,56.79L10.95,52.08C9.29,50.45,8.35,48.22,8.35,45.9L8.35,31.67L12.23,31.67C16.55,31.67,20.59,29.52,23,25.93C25.41,29.52,29.45,31.67,33.77,31.67L37.65,31.67Z" fill="currentColor"/><path d="M23,9.47C20.69,13.15,20.69,20.52,23,24.2C25.31,20.52,25.31,13.15,23,9.47Z" fill="currentColor" opacity="0.2"/></svg>