<svg xmlns="http://www.w3.org/2000/svg" viewBox="0 0 90 90"><path d="M55.87,29.7L45.63,26.01C39.29,23.73,35.07,17.72,35.07,10.99C35.07,8.79,36.85,7,39.06,7L96.94,7C99.15,7,100.93,8.79,100.93,10.99C100.93,17.72,96.71,23.73,90.37,26.01L80.13,29.7Z" fill="currentColor"/><path d="M55.87,29.7L45.11,25.83C39.08,23.66,35.07,17.94,35.07,11.54C37.18,19.23,43.73,24.89,51.64,25.87L68,27.88L84.36,25.87C92.27,24.89,98.82,19.23,100.93,11.54C100.93,17.94,96.92,23.66,90.89,25.83L80.13,29.7Z" fill="currentColor"/><path d="M82.36,29.68C80.66,30.91,78.61,31.59,76.51,31.64L68,31.82L59.2,31.64C56.74,31.6,54.38,30.68,52.54,29.06L51.45,28.11C60.42,18.57,75.58,18.57,84.55,28.11Z" fill="currentColor"/><path d="M54.52,77.58C56.57,82.1,61.07,85,66.03,85L71.29,85C80.32,85,88.08,78.61,89.83,69.76C90.62,65.74,90.08,61.58,88.31,57.9L85.71,52.52C85.71,48.69,83.2,45.27,79.53,44.18L68.22,40.8L56.35,44.22C52.66,45.29,50.11,48.67,50.11,52.52L47.14,60.15C44.48,66.96,47.73,74.65,54.47,77.48Z" fill="currentColor"/><path d="M54.52,77.58C56.57,82.1,61.07,85,66.03,85L71.29,85C80.32,85,88.08,78.61,89.83,69.76C90.62,65.74,90.08,61.58,88.31,57.9L85.71,52.52L87.7,57.17C89.47,61.31,89.72,65.94,88.42,70.25C86.08,77.95,79.17,83.38,71.13,83.82L66.27,84.08C61.51,84.34,57.06,81.75,54.93,77.48C48.33,73.88,45.28,66.04,47.71,58.93L49.91,52.52L47.03,60.1C44.42,66.96,47.71,74.64,54.47,77.48Z" fill="currentColor"/><path d="M51.76,73.25L57.61,69.21L59.96,73.25C55.92,76.18,50.95,77.8,45.75,77.89L45.18,77.9Z" fill="currentColor"/><path d="M61.44,66.6L67.48,62.19L69.82,66.22L51.05,81.89C52.57,75.78,56.22,70.41,61.44,66.6Z" fill="currentColor"/><path d="M57.6,52.96L57.6,30.04C63.54,24.79,72.46,24.79,78.4,30.04L78.4,52.96Z" fill="currentColor"/><path d="M57.6,56.8L57.6,38.84L61.07,34.21C64.53,29.59,71.47,29.59,74.93,34.21L78.4,38.84L78.4,56.8Z" fill="currentColor" opacity="0.5"/><path d="M52.13,54.6L54.01,53.22L57.45,56.21C58.24,56.89,59.25,57.27,60.29,57.27L68,57.27L75.71,57.27C76.75,57.27,77.76,56.89,78.55,56.21L81.99,53.22L83.87,54.6C85.15,55.54,86.91,54.41,86.6,52.86L85.44,47.21C85.19,46,84.12,45.13,82.89,45.13L53.11,45.13C51.88,45.13,50.81,46,50.56,47.21L49.4,52.86C49.09,54.41,50.85,55.54,52.13,54.6Z" fill="currentColor"/><path d="M72.54,60.34L82.73,61.38L82.73,48.87C82.73,45.2,81.18,41.69,78.45,39.23L74.95,36.06C73.36,34.62,71.28,33.82,69.14,33.82L66.86,33.82C64.72,33.82,62.64,34.62,61.05,36.06L57.55,39.23C54.82,41.69,53.27,45.2,53.27,48.87L53.27,55.31C53.27,59.64,54.35,63.91,56.43,67.73L56.51,67.88C60.04,62.59,66.21,59.69,72.54,60.34Z" fill="currentColor"/><path d="M15.78,32.13L14.96,32.13C12.57,32.13,10.63,30.19,10.63,27.8L10.63,27.69L6.26,26.23C0.97,24.45,-2.6,19.49,-2.6,13.91L-2.6,11.33C-2.6,8.94,-0.66,7,1.73,7L56.6,7L54.9,15.63C54.09,19.78,51.3,23.28,47.43,25L41.37,27.69C41.89,29.97,40.16,32.13,37.82,32.13L37.22,32.13Z" fill="currentColor"/><path d="M45.67,22.69C32.16,15.34,15.84,15.34,2.33,22.69L2.33,37.78C2.33,45.09,2.34,53.21,2.33,59.88C2.33,75.6,10.25,85,24.01,85C37.8,85,45.68,75.6,45.67,59.88C45.66,53.21,45.67,44.3,45.67,37.78Z" fill="currentColor"/><path d="M2.33,59.88C2.33,75.6,10.25,85,24.01,85C37.8,85,45.68,75.6,45.67,59.88C45.67,59.88,46.69,83.03,24.01,83.03C1.33,83.03,2.33,59.88,2.33,59.88Z" fill="currentColor"/><path d="M13.47,32.13L12.73,32.13C10.34,32.13,8.4,30.19,8.4,27.8L8.4,27.69L4.2,26.26C-1.06,24.46,-4.6,19.52,-4.6,13.96L-4.6,11.33C-4.6,8.94,-2.66,7,-0.27,7L48.27,7C50.66,7,52.6,8.94,52.6,11.33L52.6,13.96C52.6,19.52,49.06,24.46,43.8,26.26L39.6,27.69L39.6,27.8C39.6,30.19,37.66,32.13,35.27,32.13L34.53,32.13Z" fill="currentColor"/><path d="M13.47,32.13L12.73,32.13C10.34,32.13,8.4,30.19,8.4,27.8L8.4,27.69L4.2,26.26C-1.06,24.46,-4.6,19.52,-4.6,13.96L-4.6,11.33L-4.36,13.57C-3.73,19.41,0.73,24.11,6.53,25.03L19.92,27.15C22.62,27.58,25.38,27.58,28.08,27.15L41.47,25.03C47.27,24.11,51.73,19.41,52.36,13.57L52.6,11.33L52.6,13.96C52.6,19.52,49.06,24.46,43.8,26.26L39.6,27.69L39.6,27.8C39.6,30.19,37.66,32.13,35.27,32.13L34.53,32.13Z" fill="currentColor"/><path d="M13.47,32.13L12.73,32.13C10.34,32.13,8.4,30.19,8.4,27.8L8.4,27.69L9.44,26.77C13.32,23.31,16.37,19.03,18.37,14.24L21.4,7L26.6,7L29.62,14.24C31.63,19.03,34.68,23.31,38.56,26.77L39.6,27.69L39.6,27.8C39.6,30.19,37.66,32.13,35.27,32.13L34.53,32.13Z" fill="currentColor"/><path d="M13.6,50.73L13.6,30.4C17.03,27.75,19.92,24.45,22.09,20.7L24,17.4L25.91,20.7C28.08,24.45,30.97,27.75,34.4,30.4L34.4,50.73Z" fill="currentColor"/><path d="M13.6,54.2L13.6,34.5L18.8,30.6C21.88,28.29,26.12,28.29,29.2,30.6L34.4,34.5L34.4,54.2Z" fill="currentColor" opacity="0.5"/><path d="M7.54,55.7L11.87,54.53L11.87,44.27L8.1,45.62C7.21,45.94,6.57,46.71,6.41,47.63L5.38,53.73C5.17,54.98,6.32,56.03,7.54,55.7Z" fill="currentColor"/><path d="M40.46,55.7C41.68,56.03,42.83,54.98,42.62,53.73L41.59,47.63C41.43,46.71,40.79,45.94,39.9,45.62L36.13,44.27L36.13,54.53Z" fill="currentColor"/><path d="M38.73,60.3L38.73,50.95C38.73,46.73,36.93,42.72,33.77,39.92C28.19,34.98,19.81,34.98,14.23,39.92C11.07,42.72,9.27,46.73,9.27,50.95L9.27,60.3C9.27,60.65,9.52,60.95,9.87,61.01L10.15,61.05C16.36,62.04,21.6,66.19,24,72C26.4,66.19,31.64,62.04,37.85,61.05L38.13,61.01C38.48,60.95,38.73,60.65,38.73,60.3Z" fill="currentColor" opacity="0.5"/><path d="M38.65,45.1C38.65,42.78,37.71,40.55,36.05,38.92L31.25,34.21C29.63,32.62,27.45,31.73,25.18,31.73L22.82,31.73C20.55,31.73,18.37,32.62,16.75,34.21L11.95,38.92C10.29,40.55,9.35,42.78,9.35,45.1L9.35,59.33L13.23,59.33C17.55,59.33,21.59,61.48,24,65.07C26.41,61.48,30.45,59.33,34.77,59.33L38.65,59.33Z" fill="currentColor"/><path d="M24,81.53C21.69,77.85,21.69,70.48,24,66.8C26.31,70.48,26.31,77.85,24,81.53Z" fill="currentColor" opacity="0.2"/></svg>