<svg xmlns="http://www.w3.org/2000/svg" viewBox="0 0 90 90" fill="currentColor"><path d="M24.47,19.56L46.04,41.13C47.01,42.1,48.6,42.1,49.57,41.13C50.55,40.15,50.55,38.57,49.57,37.59L32.25,20.27C30.69,18.7,30.69,16.17,32.25,14.61C33.81,13.05,36.34,13.05,37.91,14.61L62.59,39.3C63.85,40.55,66,39.66,66.01,37.88L66.03,24.25C66.23,19.82,72,17.24,74.8,20.82C74.83,29.96,79.1,40.44,80.43,46.93C81.92,57.27,82.03,63.8,81.93,67.11C81.87,68.84,81.09,70.42,79.86,71.65L64.65,86.86C62.55,88.96,59.48,89.72,56.69,88.7C50.11,86.26,37.97,81.14,31.26,74.43L8.92,52.09C7.35,50.52,7.35,47.99,8.92,46.43C10.48,44.87,13.01,44.87,14.57,46.43L28.36,60.22C29.34,61.19,30.92,61.19,31.9,60.22C32.87,59.24,32.87,57.66,31.9,56.68L11.04,35.82C9.47,34.26,9.47,31.73,11.04,30.17C12.6,28.6,15.13,28.6,16.69,30.17L36.14,49.61C37.12,50.59,38.7,50.59,39.67,49.61C40.65,48.63,40.65,47.05,39.67,46.08L18.81,25.22C17.25,23.65,17.25,21.12,18.81,19.56C20.38,18,22.91,18,24.47,19.56ZM26.89,58.73L15.28,48.34C14.06,47.25,12.21,47.31,11.06,48.46C9.92,49.6,9.86,51.44,10.92,52.65L21.23,64.39L8.92,52.08C7.36,50.52,7.36,47.98,8.92,46.42C10.48,44.86,13.02,44.86,14.58,46.42ZM29,42.48L17.39,32.08C16.18,31,14.33,31.05,13.17,32.2C12.03,33.34,11.97,35.18,13.04,36.4L23.35,48.13L11.04,35.82C9.47,34.26,9.47,31.73,11.04,30.17C12.6,28.6,15.13,28.6,16.69,30.17ZM36.78,31.87L25.17,21.48C23.96,20.39,22.1,20.44,20.95,21.59C19.81,22.74,19.75,24.57,20.82,25.79L31.13,37.53L18.81,25.22C17.25,23.65,17.25,21.12,18.81,19.56C20.38,18,22.91,18,24.47,19.56ZM50.22,26.92L38.6,16.53C37.39,15.44,35.54,15.49,34.39,16.64C33.24,17.79,33.18,19.62,34.25,20.84L44.56,32.58L32.25,20.27C30.69,18.7,30.69,16.17,32.25,14.61C33.81,13.05,36.34,13.05,37.91,14.61ZM63.07,77.39C83.09,62.97,70.89,32.77,74.82,21.73C75.11,30.64,79.14,40.65,80.43,46.93C81.92,57.27,82.03,63.8,81.93,67.11C81.87,68.84,81.09,70.42,79.86,71.65L64.65,86.86C62.55,88.96,59.47,89.72,56.69,88.7C50.11,86.26,37.97,81.14,31.26,74.43L20.68,63.85C42.57,85.74,52.63,84.91,63.07,77.39ZM28.36,60.22C29.34,61.19,30.92,61.19,31.9,60.22C32.87,59.24,32.87,57.66,31.9,56.68L31.34,56.12C33.99,58.78,36.32,61.74,38.26,64.96L40.73,69.05L36.64,66.58C33.42,64.64,30.46,62.31,27.8,59.66ZM36.14,49.61C37.12,50.59,38.7,50.59,39.67,49.61C40.65,48.63,40.65,47.05,39.67,46.08L39.12,45.52L41.63,48.03C44.03,50.43,46.17,53.06,48.04,55.89L52.04,61.98L45.96,57.97C43.13,56.11,40.49,53.96,38.09,51.56L35.58,49.05ZM46.04,41.13C47.01,42.1,48.6,42.1,49.57,41.13C50.55,40.15,50.55,38.57,49.57,37.59L49.02,37.03C52.14,40.15,54.83,43.68,57.01,47.51L58.41,49.96L55.96,48.56C52.13,46.38,48.6,43.69,45.48,40.57ZM74.2,20.18C71.02,19.78,67.68,21.91,67.26,25.62L66.02,36.6L66.01,36.56L66.03,24.25C66.22,20.12,71.25,17.6,74.2,20.18ZM44.56,11.77L49.51,16.72L57.52,3.75ZM38.67,7.44L41.62,10.39L46.16,4.4ZM51.56,18.77L56.51,23.72L71.52,3.75Z"/></svg>