<svg xmlns="http://www.w3.org/2000/svg" viewBox="0 0 90 90" fill="currentColor"><path d="M1.11,26.52C1.04,26.13,1.09,25.74,1.26,25.39C3.22,21.25,7.92,19.17,12.3,20.5L13.18,20.77C13.9,20.99,14.44,21.59,14.6,22.32L21.25,54.17L26.03,32.98L17.7,14.49C17.3,13.59,17.61,12.52,18.44,11.98C35.17,1,56.83,1,73.56,11.98C74.39,12.52,74.7,13.59,74.28,14.49L65.85,32.98L70.85,54.17L77.54,22.3C77.69,21.58,78.23,20.99,78.94,20.78L79.79,20.52C84.15,19.18,88.83,21.26,90.75,25.4C90.91,25.74,90.96,26.13,90.89,26.5L83.37,67.24C81.93,75.05,76.01,81.26,68.28,83.08L62.25,84.49C60.54,87.23,57.54,88.9,54.31,88.9L46,88.9L37.69,88.9C34.46,88.9,31.46,87.23,29.75,84.49L23.72,83.08C15.99,81.26,10.07,75.05,8.63,67.24ZM1,25.93L11.06,69.16C12.26,74.31,16.16,78.4,21.25,79.83L31.78,73.8L27.13,80.73L34.16,86.81L46,86.81L58.16,86.81L64.87,81.9L61.63,73.8L70.75,79.83C75.84,78.4,79.74,74.31,80.94,69.16L91,25.93L83.37,67.24C81.93,75.05,76.01,81.26,68.28,83.08L62.25,84.49C60.54,87.23,57.54,88.9,54.31,88.9L46,88.9L37.69,88.9C34.46,88.9,31.46,87.23,29.75,84.49L23.72,83.08C15.99,81.26,10.07,75.05,8.63,67.24ZM33.53,23.64L24.93,29.16L67.5,30.15L59,23.64L65.18,6.11L56.58,1.7L46.43,12.4L34.74,1.7L27.02,6.11ZM24.83,40.29C38.37,35.48,53.16,35.48,66.7,40.29C67.8,40.68,68.99,39.98,69.18,38.83L69.26,38.36C69.62,36.24,69.62,34.08,69.26,31.97L69,30.43C68.88,29.73,68.39,29.15,67.72,28.91C53.52,23.87,38.01,23.87,23.81,28.91C23.14,29.15,22.65,29.73,22.53,30.43L22.27,31.97C21.91,34.08,21.91,36.24,22.27,38.36L22.35,38.83C22.54,39.98,23.73,40.68,24.83,40.29ZM41.69,75.89L38.15,46.69L46.59,65.12ZM44.16,37.99C53.58,49.45,60.08,63.01,63.13,77.52L43.69,37.41ZM56,82.64C49.48,84.59,42.52,84.59,36,82.64L46,63.9ZM43.45,12.55L45.34,15.77C46.89,18.41,48.67,20.89,50.67,23.2L52.46,25.27C48.87,23.95,46.1,21.03,44.96,17.38ZM44.26,34.81C40.36,33.35,37.64,29.8,37.24,25.65L41.63,31.1L45.25,35.19Z"/></svg>