<svg xmlns="http://www.w3.org/2000/svg" viewBox="0 0 90 90"><path d="M23.47,18.56L45.04,40.13C46.01,41.1,47.6,41.1,48.57,40.13C49.55,39.15,49.55,37.57,48.57,36.59L31.25,19.27C29.69,17.7,29.69,15.17,31.25,13.61C32.81,12.05,35.34,12.05,36.91,13.61L61.59,38.3C62.85,39.55,65,38.66,65.01,36.88L65.03,23.25C65.23,18.82,71,16.24,73.8,19.82C73.83,28.96,78.1,39.44,79.43,45.93C80.92,56.27,81.03,62.8,80.93,66.11C80.87,67.84,80.09,69.42,78.86,70.65L63.65,85.86C61.55,87.96,58.48,88.72,55.69,87.7C49.11,85.26,36.97,80.14,30.26,73.43L7.92,51.09C6.35,49.52,6.35,46.99,7.92,45.43C9.48,43.87,12.01,43.87,13.57,45.43L27.36,59.22C28.34,60.19,29.92,60.19,30.9,59.22C31.87,58.24,31.87,56.66,30.9,55.68L10.04,34.82C8.47,33.26,8.47,30.73,10.04,29.17C11.6,27.6,14.13,27.6,15.69,29.17L35.14,48.61C36.12,49.59,37.7,49.59,38.67,48.61C39.65,47.63,39.65,46.05,38.67,45.08L17.81,24.22C16.25,22.65,16.25,20.12,17.81,18.56C19.38,17,21.91,17,23.47,18.56Z" fill="currentColor"/><path d="M25.89,57.73L14.28,47.34C13.06,46.25,11.21,46.31,10.06,47.46C8.92,48.6,8.86,50.44,9.92,51.65L20.23,63.39L7.92,51.08C6.36,49.52,6.36,46.98,7.92,45.42C9.48,43.86,12.02,43.86,13.58,45.42Z" fill="currentColor"/><path d="M28,41.48L16.39,31.08C15.18,30,13.33,30.05,12.17,31.2C11.03,32.34,10.97,34.18,12.04,35.4L22.35,47.13L10.04,34.82C8.47,33.26,8.47,30.73,10.04,29.17C11.6,27.6,14.13,27.6,15.69,29.17Z" fill="currentColor"/><path d="M35.78,30.87L24.17,20.48C22.96,19.39,21.1,19.44,19.95,20.59C18.81,21.74,18.75,23.57,19.82,24.79L30.13,36.53L17.81,24.22C16.25,22.65,16.25,20.12,17.81,18.56C19.38,17,21.91,17,23.47,18.56Z" fill="currentColor"/><path d="M49.22,25.92L37.6,15.53C36.39,14.44,34.54,14.49,33.39,15.64C32.24,16.79,32.18,18.62,33.25,19.84L43.56,31.58L31.25,19.27C29.69,17.7,29.69,15.17,31.25,13.61C32.81,12.05,35.34,12.05,36.91,13.61Z" fill="currentColor"/><path d="M62.07,76.39C82.09,61.97,69.89,31.77,73.82,20.73C74.11,29.64,78.14,39.65,79.43,45.93C80.92,56.27,81.03,62.8,80.93,66.11C80.87,67.84,80.09,69.42,78.86,70.65L63.65,85.86C61.55,87.96,58.47,88.72,55.69,87.7C49.11,85.26,36.97,80.14,30.26,73.43L19.68,62.85C41.57,84.74,51.63,83.91,62.07,76.39Z" fill="currentColor"/><path d="M27.36,59.22C28.34,60.19,29.92,60.19,30.9,59.22C31.87,58.24,31.87,56.66,30.9,55.68L30.34,55.12C32.99,57.78,35.32,60.74,37.26,63.96L39.73,68.05L35.64,65.58C32.42,63.64,29.46,61.31,26.8,58.66Z" fill="currentColor"/><path d="M35.14,48.61C36.12,49.59,37.7,49.59,38.67,48.61C39.65,47.63,39.65,46.05,38.67,45.08L38.12,44.52L40.63,47.03C43.03,49.43,45.17,52.06,47.04,54.89L51.04,60.98L44.96,56.97C42.13,55.11,39.49,52.96,37.09,50.56L34.58,48.05Z" fill="currentColor"/><path d="M45.04,40.13C46.01,41.1,47.6,41.1,48.57,40.13C49.55,39.15,49.55,37.57,48.57,36.59L48.02,36.03C51.14,39.15,53.83,42.68,56.01,46.51L57.41,48.96L54.96,47.56C51.13,45.38,47.6,42.69,44.48,39.57Z" fill="currentColor"/><path d="M73.2,19.18C70.02,18.78,66.68,20.91,66.26,24.62L65.02,35.6L65.01,35.56L65.03,23.25C65.22,19.12,70.25,16.6,73.2,19.18Z" fill="currentColor"/><path d="M43.56,10.77L48.51,15.72L56.52,2.75Z" fill="currentColor"/><path d="M37.67,6.44L40.62,9.39L45.16,3.4Z" fill="currentColor"/><path d="M50.56,17.77L55.51,22.72L70.52,2.75Z" fill="currentColor"/></svg>