<svg xmlns="http://www.w3.org/2000/svg" viewBox="0 0 90 90"><path d="M0.11,62.38C0.04,62.76,0.09,63.16,0.26,63.51C2.22,67.65,6.92,69.72,11.3,68.39L12.18,68.13C12.9,67.91,13.44,67.31,13.6,66.58L20.25,34.73L25.03,55.92L16.7,74.41C16.3,75.31,16.61,76.38,17.44,76.92C34.17,87.89,55.83,87.9,72.56,76.92C73.39,76.38,73.7,75.31,73.28,74.41L64.85,55.92L69.85,34.73L76.54,66.6C76.69,67.32,77.23,67.91,77.94,68.12L78.79,68.38C83.15,69.72,87.83,67.63,89.75,63.5C89.91,63.16,89.96,62.77,89.89,62.4L82.37,21.66C80.93,13.85,75.01,7.64,67.28,5.82L61.25,4.41C59.54,1.67,56.54,0,53.31,0L45,0L36.69,0C33.46,0,30.46,1.67,28.75,4.41L22.72,5.82C14.99,7.64,9.07,13.85,7.63,21.66Z" fill="currentColor"/><path d="M0,62.97L10.06,19.74C11.26,14.59,15.16,10.5,20.25,9.06L30.78,15.1L26.13,8.17L33.16,2.09L45,2.09L57.16,2.09L63.87,7L60.63,15.1L69.75,9.06C74.84,10.5,78.74,14.59,79.94,19.74L90,62.97L82.37,21.66C80.93,13.85,75.01,7.64,67.28,5.82L61.25,4.41C59.54,1.67,56.54,0,53.31,0L45,0L36.69,0C33.46,0,30.46,1.67,28.75,4.41L22.72,5.82C14.99,7.64,9.07,13.85,7.63,21.66Z" fill="currentColor"/><path d="M32.53,65.25L23.93,59.74L66.5,58.75L58,65.25L64.18,82.79L55.58,87.2L45.43,76.5L33.74,87.2L26.02,82.79Z" fill="currentColor"/><path d="M23.83,48.61C37.37,53.42,52.16,53.42,65.7,48.61C66.8,48.22,67.99,48.92,68.18,50.07L68.26,50.54C68.62,52.65,68.62,54.81,68.26,56.93L68,58.47C67.88,59.17,67.39,59.75,66.72,59.99C52.52,65.03,37.01,65.03,22.81,59.99C22.14,59.75,21.65,59.17,21.53,58.47L21.27,56.93C20.91,54.81,20.91,52.65,21.27,50.54L21.35,50.07C21.54,48.92,22.73,48.22,23.83,48.61Z" fill="currentColor"/><path d="M40.69,13.01L37.15,42.21L45.59,23.78Z" fill="currentColor"/><path d="M43.16,50.91C52.58,39.45,59.08,25.89,62.13,11.38L42.69,51.49Z" fill="currentColor"/><path d="M55,6.26C48.48,4.3,41.52,4.3,35,6.26L45,25Z" fill="currentColor"/><path d="M42.45,76.35L44.34,73.13C45.89,70.49,47.67,68.01,49.67,65.7L51.46,63.63C47.87,64.95,45.1,67.86,43.96,71.52Z" fill="currentColor"/><path d="M43.26,54.09C39.36,55.55,36.64,59.1,36.24,63.25L40.63,57.8L44.25,53.71Z" fill="currentColor"/></svg>