<svg xmlns="http://www.w3.org/2000/svg" viewBox="0 0 90 90"><path d="M77.57,61.43C74.6,64.15,72.04,67.29,69.99,70.75C76.48,72.49,77.57,76.89,77.57,83L77.57,85.99L21.43,85.99L21.43,83C21.43,77.07,22.34,72.56,29.08,70.76C27.01,67.28,24.43,64.14,21.43,61.43C16.8,56.87,12.01,52.08,12.01,44.59C11.83,34.71,19.7,26.18,29.73,26.35C34.28,26.18,38.79,27.3,42.73,29.58L44.34,22.56L37.9,22.56L37.9,12.67L44.52,12.67L44.52,6L54.46,6L54.46,12.85L61.08,12.85L61.08,22.67L54.64,22.67L56.25,29.69C60.18,27.37,64.69,26.22,69.25,26.35C79.78,26.08,87.23,34.32,87,44.59C87,52.03,82.22,56.81,77.57,61.43Z" fill="currentColor"/><path d="M70.54,46.53C71.38,40.71,64.93,40.49,64.9,40.49C61.35,40.49,56.93,43.65,56.93,43.65L56.93,57.4C58.47,57.46,59.51,57.56,61.28,57.67C62.61,55.98,64.18,54.48,65.65,53.08C68.08,50.78,70.22,48.74,70.54,46.53Z" fill="currentColor"/><path d="M34.05,40.49C34.05,40.49,27.64,40.72,28.41,46.53C28.73,48.73,30.87,50.77,33.29,53.07C34.76,54.47,36.34,55.97,37.67,57.67C39.44,57.55,40.52,57.4,42.02,57.4L42.02,43.65C42.02,43.65,37.61,40.49,34.05,40.49Z" fill="currentColor"/><path d="M63.34,70.01L63.19,70.01L79.67,53.49C87.81,45.34,82.38,32.92,81.41,30.87C81.44,30.87,81.48,30.87,81.51,30.87C85.06,34.21,87.12,39.11,87,44.59C87,52.03,82.22,56.81,77.57,61.43C74.6,64.15,72.04,67.29,69.99,70.75C67.89,70.18,65.56,70.01,63.34,70.01Z" fill="currentColor" opacity="0.5"/><path d="M70.13,70.79C70.59,70.92,71.03,71.06,71.44,71.22C72.39,71.58,73.26,72.05,74.04,72.64C75.3,73.61,76.12,74.82,76.66,76.25C74.87,75.44,68.8,73.86,49.48,73.86C30.27,73.86,24.16,75.46,22.33,76.24C22.85,74.86,23.66,73.67,24.9,72.71C25.85,71.98,26.96,71.44,28.15,71.04C28.42,70.95,28.69,70.87,28.98,70.79C31.17,70.18,33.57,70.01,35.73,70.01L63.34,70.01C65.62,70.01,67.99,70.19,70.13,70.79Z" fill="currentColor"/><path d="M30.78,26.35C17.28,28.57,10.71,41.37,14.73,53.71C12.96,51,12.01,47.83,12.01,44.59C11.92,39.71,13.75,34.99,17.1,31.45C18.76,29.8,20.73,28.5,22.9,27.62C25.07,26.75,27.39,26.31,29.73,26.35Z" fill="currentColor"/><path d="M30.78,26.35C30.8,26.35,30.82,26.34,30.84,26.34L30.84,26.35Z" fill="currentColor"/><path d="M52.96,7.66L46.18,7.66L46.18,14.31L39.56,14.31L39.56,21.06L38.07,22.56L37.9,22.56L37.9,12.67L44.52,12.67L44.52,6L54.46,6L54.46,6.16Z" fill="currentColor"/><path d="M52.97,14.31L54.47,12.67L61.09,12.67L61.09,14.31Z" fill="currentColor"/><path d="M29.5,35L39.58,35.08C46,35.08,47,36.08,47,42.58C47,48.08,46.27,49.6,42.02,49.92L42.02,43.65C42.02,43.65,37.61,40.49,34.05,40.49C34.05,40.49,27.64,40.72,28.41,46.53C28.58,47.71,29.28,48.85,30.26,50L29.5,50L29.42,60.08C29.42,64.46,28.95,66.32,26.59,67.05C25.05,65.03,23.33,63.14,21.43,61.43C18.9,58.94,16.32,56.37,14.5,53.33L14.5,50L12.92,49.99C12.35,48.34,12.01,46.56,12.01,44.59C11.83,34.79,19.58,26.31,29.5,26.35Z" fill="currentColor"/><path d="M29.5,18.42L29.5,28.5L39.58,28.58C46,28.58,47,29.58,47,36.08C47,42.5,46,43.5,39.58,43.5L29.5,43.5L29.42,53.58C29.42,60,28.42,61,21.92,61C15.5,61,14.5,60,14.5,53.58L14.5,43.5L4.42,43.42C-2,43.42,-3,42.42,-3,35.92C-3,29.5,-2,28.5,4.42,28.5L14.5,28.5L14.58,18.42C14.58,12,15.58,11,22.08,11C28.5,11,29.5,12,29.5,18.42Z" fill="currentColor"/></svg>