<svg xmlns="http://www.w3.org/2000/svg" viewBox="0 0 90 90"><path d="M71.65,67.1C70.48,66.33,74.04,74.7,74.04,74.7C74.04,74.7,75.32,75.36,76.47,76.5C78.05,76.53,81.39,76.6,81.39,75.35L81.39,71.67C81.39,68.97,73.3,68.18,71.65,67.1Z" fill="#4E7738"/><path d="M72.83,76.05C72.83,76.05,71.66,78.13,71.84,78.47C72.01,78.8,72.25,80.01,72.7,80.04C73.07,80.06,73.42,79.56,73.77,79.07C74.11,78.59,74.46,78.1,74.83,78.1C76.27,78.13,78.44,80.66,79.15,80.28C79.48,80.09,79.08,78.81,79.08,78.81L81.39,78.98C81.39,78.98,81.52,77.83,80.92,77.12C80.09,76.14,75.44,74.41,75.44,74.41C75.44,74.41,73.93,71.15,73.35,69.89C72.93,69.01,72.58,66.97,71.89,66.3C70.69,65.16,67.6,65.31,66.11,64.61C66.07,64.59,66.03,64.58,65.98,64.58C65.99,64.58,65.99,64.57,66,64.57C61.66,61.98,57.09,58.51,53.9,57.47C49.55,56.05,35.87,54.62,35.87,54.62L37.1,78.59Z" fill="white"/><path d="M72.83,76.05C72.83,76.05,71.66,78.13,71.84,78.47C72.01,78.8,72.25,80.01,72.7,80.04C73.07,80.06,73.42,79.56,73.77,79.07C74.11,78.59,74.46,78.1,74.83,78.1C76.27,78.13,78.44,80.66,79.15,80.28C79.48,80.09,79.08,78.81,79.08,78.81L81.39,78.98C81.39,78.98,81.52,77.83,80.92,77.12C80.09,76.14,75.44,74.41,75.44,74.41C75.44,74.41,73.93,71.15,73.35,69.89C72.93,69.01,72.58,66.97,71.89,66.3C70.69,65.16,67.6,65.31,66.11,64.61C66.07,64.59,66.03,64.58,65.98,64.58C65.99,64.58,65.99,64.57,66,64.57C61.66,61.98,57.09,58.51,53.9,57.47C49.55,56.05,35.87,54.62,35.87,54.62L37.1,78.59Z" fill="url(#paint0_linear_119_7695)"/><path d="M24.2,42.42C18.06,48.38,22.54,60.57,25.24,65.83C27.82,70.85,32.27,78.38,44.98,77.88C45.42,77.86,45.67,77.87,46.11,77.87C46.58,77.87,47.28,77.87,48.7,77.85C48.7,77.85,50.02,72.16,45.67,68.78C44.11,67.57,40.3,68.9,40.3,68.9C40.3,68.9,42.74,67.27,44.14,67.3C49.68,67.42,51.21,76.02,51.21,76.02C51.21,76.02,48.53,79.23,48.74,79.86C48.94,80.49,48.95,82.7,49.73,82.84C50.21,82.93,50.98,82.32,51.8,81.71C52.58,81.13,53.4,80.54,54.03,80.57C56.92,80.68,59.23,85.12,60.96,85.16C61.85,85.19,61.09,82.76,61.09,82.76L65.01,83.79C65.01,83.79,65.59,81.89,64.46,80.42C63.09,78.66,57.03,74.76,57.03,74.76C57.03,74.76,54.67,67.95,54.07,65.58C53.64,63.94,53.68,60.31,52.69,58.94C51,56.6,45.63,55.87,43.28,54.19C40.02,51.84,39.52,48.41,40.1,44.69C41,38.92,51.41,26.82,51.41,26.82C51.41,26.82,53.46,21,49.51,21C49.04,21,48.49,21.08,47.85,21.26C34.34,25.04,26.59,40.1,24.2,42.42Z" fill="white"/><path d="M24.2,42.42C18.06,48.38,22.54,60.57,25.24,65.83C27.82,70.85,32.27,78.38,44.98,77.88C45.42,77.86,45.67,77.87,46.11,77.87C46.58,77.87,47.28,77.87,48.7,77.85C48.7,77.85,50.02,72.16,45.67,68.78C44.11,67.57,40.3,68.9,40.3,68.9C40.3,68.9,42.74,67.27,44.14,67.3C49.68,67.42,51.21,76.02,51.21,76.02C51.21,76.02,48.53,79.23,48.74,79.86C48.94,80.49,48.95,82.7,49.73,82.84C50.21,82.93,50.98,82.32,51.8,81.71C52.58,81.13,53.4,80.54,54.03,80.57C56.92,80.68,59.23,85.12,60.96,85.16C61.85,85.19,61.09,82.76,61.09,82.76L65.01,83.79C65.01,83.79,65.59,81.89,64.46,80.42C63.09,78.66,57.03,74.76,57.03,74.76C57.03,74.76,54.67,67.95,54.07,65.58C53.64,63.94,53.68,60.31,52.69,58.94C51,56.6,45.63,55.87,43.28,54.19C40.02,51.84,39.52,48.41,40.1,44.69C41,38.92,51.41,26.82,51.41,26.82C51.41,26.82,53.46,21,49.51,21C49.04,21,48.49,21.08,47.85,21.26C34.34,25.04,26.59,40.1,24.2,42.42Z" fill="url(#paint1_linear_119_7695)"/><path d="M50.68,21.03C50.68,21.03,47.7,18.84,46.55,18.95C43.9,19.2,39.55,21.9,36.3,22.53C35.48,22.7,33.57,22.11,32.25,22.93C30.03,24.31,23.34,30.9,20.84,37.28C19.1,41.72,16.74,49.39,17.57,56.07C17.76,57.63,18.76,62.24,18.76,62.24C18.76,62.24,14.4,63.82,13.82,65.12C12.92,67.15,15.66,73.82,15.66,73.82C15.66,73.82,15.67,73.9,15.68,74.04C15.68,74.04,10.74,75.96,9.53,77.2C8.43,78.33,8.62,79.85,8.62,79.85L11.45,79.29C11.45,79.29,10.54,82.11,11.23,82.03C12.87,81.86,16.3,78.7,18.13,79.1C19.16,79.34,20.95,82.25,20.95,82.25C20.95,82.25,22.06,80.56,22.35,80.1C22.59,79.73,21.16,76.59,20.81,75.8C20.89,75.78,21.48,71.58,21.48,71.58C21.48,71.58,27.08,76.96,34.21,78.23C40.24,79.31,48.71,77.84,48.71,77.84C48.71,77.84,42.12,77.65,35.09,74.75C31.27,73.17,26.5,68.03,25.03,61.2C24.3,57.81,23.41,52.47,24.78,47.51C28.41,34.36,34.95,36.35,38.69,33.7C42.4,31.08,46.7,25.47,49.66,24.86C52.34,24.32,50.84,27.31,51.41,26.82C52.15,26.2,52.35,22.71,51.54,21.72C51.44,21.6,50.94,21.52,50.94,21.52Z" fill="#699940"/><path d="M32.61,25.86C33.27,25.35,33.74,25.65,34.23,25.73C34.71,25.81,34.81,24.45,35.79,24.7C34.2,23.48,33.18,24.52,32.61,25.86Z" fill="#231F20"/><path d="M70.52,73.9C71.41,74.56,71.16,76.17,71.16,76.17L72.83,76.05C72.83,76.05,71.77,73.54,70.98,73.09C70.54,72.84,69.98,72.95,69.53,72.71C68.92,72.37,68.43,72.75,69.08,73.18C69.5,73.46,70.11,73.6,70.52,73.9Z" fill="#4E7738"/><path d="M61.1,82.76C61.1,82.76,60.92,81.81,61.16,81.67C62.11,81.14,65.01,83.78,65.01,83.78" fill="none" stroke="#4E7738" stroke-width="2" stroke-linecap="round" stroke-linejoin="round"/><path d="M79.09,78.84C79.09,78.84,78.9,77.86,79.08,77.8C80.23,77.41,81.38,78.98,81.38,78.98" fill="none" stroke="#4E7738" stroke-width="2" stroke-linecap="round" stroke-linejoin="round"/><path d="M11.45,79.35C11.45,79.35,11.72,78.44,11.57,78.28C10.98,77.63,8.62,79.85,8.62,79.85" fill="none" stroke="#4E7738" stroke-width="2" stroke-linecap="round" stroke-linejoin="round"/><path d="M37.94,31.76C39.06,31.46,44.34,25.01,47.97,22.77C49.78,21.65,50.75,21.57,51.24,21.7L51.25,21.61C51.16,21.47,50.94,21.25,50.44,21.25C49.96,21.25,49.23,21.44,48.11,22.1C45.12,23.86,36.94,32.02,37.94,31.76Z" fill="white"/><path d="M37.94,31.76C39.06,31.46,44.34,25.01,47.97,22.77C49.78,21.65,50.75,21.57,51.24,21.7L51.25,21.61C51.16,21.47,50.94,21.25,50.44,21.25C49.96,21.25,49.23,21.44,48.11,22.1C45.12,23.86,36.94,32.02,37.94,31.76Z" fill="url(#paint2_linear_119_7695)"/><path d="M57.23,13.38L55.16,15.43L53.74,13.13C53.74,13.13,54.49,16.92,53.37,19.21C52.51,20.94,50.29,21.59,50.29,21.59L50.19,21.67C51.23,22.12,53.38,21.05,54.34,19.99C56.03,18.12,57.23,13.38,57.23,13.38Z" fill="#EE4652"/></svg>