<svg xmlns="http://www.w3.org/2000/svg" viewBox="0 0 90 90" fill="currentColor"><path d="M72.65,32.21C71.48,32.98,75.04,24.61,75.04,24.61C75.04,24.61,76.32,23.95,77.47,22.82C79.05,22.78,82.39,22.71,82.39,23.96L82.39,27.64C82.39,30.34,74.3,31.13,72.65,32.21ZM73.83,23.26C73.83,23.26,72.66,21.18,72.84,20.85C73.01,20.52,73.25,19.3,73.7,19.27C74.07,19.25,74.42,19.75,74.77,20.24C75.11,20.72,75.46,21.21,75.83,21.21C77.27,21.19,79.44,18.65,80.15,19.04C80.48,19.22,80.08,20.51,80.08,20.51L82.39,20.33C82.39,20.33,82.52,21.48,81.92,22.19C81.09,23.17,76.44,24.9,76.44,24.9C76.44,24.9,74.93,28.16,74.35,29.43C73.93,30.3,73.58,32.34,72.89,33.02C71.69,34.15,68.6,34.01,67.11,34.71C67.07,34.73,67.03,34.73,66.98,34.73C66.99,34.74,66.99,34.74,67,34.75C62.66,37.33,58.09,40.8,54.9,41.84C50.55,43.27,36.87,44.69,36.87,44.69L38.1,20.72ZM25.2,56.89C19.06,50.93,23.54,38.74,26.24,33.48C28.82,28.47,33.27,20.93,45.98,21.43C46.42,21.45,46.67,21.44,47.11,21.44C47.58,21.44,48.28,21.44,49.7,21.47C49.7,21.47,51.02,27.15,46.67,30.53C45.11,31.74,41.3,30.41,41.3,30.41C41.3,30.41,43.74,32.05,45.14,32.02C50.68,31.89,52.21,23.29,52.21,23.29C52.21,23.29,49.53,20.08,49.74,19.45C49.94,18.82,49.95,16.61,50.73,16.47C51.21,16.38,51.98,16.99,52.8,17.6C53.58,18.19,54.4,18.77,55.03,18.74C57.92,18.63,60.23,14.19,61.96,14.15C62.85,14.13,62.09,16.56,62.09,16.56L66.01,15.53C66.01,15.53,66.59,17.42,65.46,18.89C64.09,20.66,58.03,24.55,58.03,24.55C58.03,24.55,55.67,31.37,55.07,33.73C54.64,35.38,54.68,39,53.69,40.37C52,42.71,46.63,43.44,44.28,45.13C41.02,47.47,40.52,50.91,41.1,54.62C42,60.39,52.41,72.5,52.41,72.5C52.41,72.5,54.46,78.31,50.51,78.31C50.04,78.31,49.49,78.23,48.85,78.05C35.34,74.27,27.59,59.21,25.2,56.89ZM51.68,78.29C51.68,78.29,48.7,80.47,47.55,80.36C44.9,80.11,40.55,77.42,37.3,76.78C36.48,76.62,34.57,77.2,33.25,76.39C31.03,75,24.34,68.41,21.84,62.04C20.1,57.6,17.74,49.92,18.57,43.24C18.76,41.68,19.76,37.07,19.76,37.07C19.76,37.07,15.4,35.5,14.82,34.19C13.92,32.16,16.66,25.49,16.66,25.49C16.66,25.49,16.67,25.41,16.68,25.28C16.68,25.28,11.74,23.35,10.53,22.12C9.43,20.98,9.62,19.46,9.62,19.46L12.45,20.03C12.45,20.03,11.54,17.2,12.23,17.28C13.87,17.45,17.3,20.62,19.13,20.21C20.16,19.98,21.95,17.06,21.95,17.06C21.95,17.06,23.06,18.75,23.35,19.21C23.59,19.58,22.16,22.72,21.81,23.51C21.89,23.53,22.48,27.73,22.48,27.73C22.48,27.73,28.08,22.36,35.21,21.08C41.24,20.01,49.71,21.47,49.71,21.47C49.71,21.47,43.12,21.67,36.09,24.56C32.27,26.14,27.5,31.28,26.03,38.11C25.3,41.5,24.41,46.84,25.78,51.81C29.41,64.95,35.95,62.96,39.69,65.61C43.4,68.23,47.7,73.84,50.66,74.45C53.34,75,51.84,72.01,52.41,72.5C53.15,73.12,53.35,76.61,52.54,77.59C52.44,77.71,51.94,77.8,51.94,77.8ZM33.61,73.46C34.27,73.97,34.74,73.67,35.23,73.58C35.71,73.5,35.81,74.86,36.79,74.62C35.2,75.84,34.18,74.79,33.61,73.46ZM71.52,25.41C72.41,24.75,72.16,23.15,72.16,23.15L73.83,23.26C73.83,23.26,72.77,25.78,71.98,26.22C71.54,26.47,70.98,26.36,70.53,26.61C69.92,26.94,69.43,26.56,70.08,26.13C70.5,25.85,71.11,25.71,71.52,25.41ZM62.1,16.56C62.1,16.56,61.92,17.5,62.16,17.64C63.11,18.17,66.01,15.53,66.01,15.53M80.09,20.47C80.09,20.47,79.9,21.45,80.08,21.51C81.23,21.9,82.38,20.34,82.38,20.34M12.45,19.96C12.45,19.96,12.72,20.88,12.57,21.04C11.98,21.68,9.62,19.46,9.62,19.46M38.94,67.56C40.06,67.85,45.34,74.3,48.97,76.54C50.78,77.66,51.75,77.74,52.24,77.61L52.25,77.7C52.16,77.84,51.94,78.07,51.44,78.07C50.96,78.07,50.23,77.87,49.11,77.21C46.12,75.46,37.94,67.29,38.94,67.56ZM58.23,85.94L56.16,83.88L54.74,86.19C54.74,86.19,55.49,82.39,54.37,80.11C53.51,78.37,51.29,77.72,51.29,77.72L51.19,77.65C52.23,77.2,54.38,78.26,55.34,79.33C57.03,81.19,58.23,85.94,58.23,85.94Z"/></svg>