<svg xmlns="http://www.w3.org/2000/svg" viewBox="0 0 90 90"><path d="M12.1,31.51L22.97,31.51C23.31,31.51,23.64,31.25,23.88,31L25.17,29.65C25.67,29.15,25.67,28.31,25.17,27.8L23.88,26.57C23.64,26.33,23.31,26.25,22.97,26.25L12.1,26.25C11.76,26.25,11.44,26.31,11.19,26.55L9.91,27.81C9.41,28.31,9.41,29.17,9.91,29.67L11.19,31C11.44,31.25,11.76,31.51,12.1,31.51Z" fill="currentColor" opacity="0.3"/><path d="M12.11,44.5C11.77,44.5,11.44,44.45,11.19,44.69L9.91,45.89C9.4,46.38,9.4,47.15,9.91,47.65L11.19,49.01C11.44,49.25,11.77,49.45,12.11,49.45L22.97,49.45C23.31,49.45,23.64,49.23,23.88,48.98L25.17,47.65C25.67,47.15,25.67,46.31,25.17,45.81L23.88,44.7C23.64,44.46,23.31,44.5,22.97,44.5Z" fill="currentColor" opacity="0.3"/><path d="M27.41,29.87C27.16,29.61,26.82,29.49,26.49,29.49C26.16,29.49,25.83,29.61,25.57,29.87L24.27,31.15C24.03,31.39,23.88,31.72,23.88,32.06L23.88,42.93C23.88,43.27,24.03,43.6,24.27,43.84L25.56,45.12C25.82,45.38,26.15,45.5,26.48,45.5C26.81,45.5,27.14,45.38,27.39,45.12L28.72,43.84C28.96,43.6,29.14,43.27,29.14,42.93L29.14,32.06C29.14,31.72,28.96,31.39,28.72,31.15Z" fill="currentColor" opacity="0.3"/><path d="M8.34,45.5C8.67,45.5,8.99,45.38,9.25,45.12L10.52,43.84C10.76,43.6,10.88,43.27,10.88,42.93L10.88,32.06C10.88,31.72,10.76,31.39,10.52,31.15L9.24,29.87C8.99,29.61,8.66,29.49,8.33,29.49C8,29.49,7.67,29.61,7.43,29.87L6.07,31.15C5.83,31.39,5.63,31.72,5.63,32.06L5.63,42.93C5.63,43.27,5.83,43.6,6.07,43.84L7.43,45.12C7.68,45.38,8.01,45.5,8.34,45.5Z" fill="currentColor"/><path d="M22.97,62.44L12.1,62.44C11.76,62.44,11.43,62.43,11.2,62.67L9.91,63.88C9.4,64.38,9.4,65.16,9.91,65.66L11.2,67.14C11.43,67.38,11.76,67.7,12.1,67.7L22.97,67.7C23.31,67.7,23.64,67.36,23.88,67.12L25.17,65.73C25.67,65.22,25.67,64.44,25.17,63.93L23.88,62.67C23.64,62.43,23.31,62.44,22.97,62.44Z" fill="currentColor"/><path d="M10.52,49.23L9.24,47.95C8.99,47.69,8.66,47.57,8.33,47.57C8,47.57,7.67,47.69,7.42,47.95L6.07,49.23C5.83,49.47,5.63,49.8,5.63,50.14L5.63,61.01C5.63,61.35,5.83,61.68,6.07,61.92L7.39,63.2C7.65,63.46,7.99,63.58,8.32,63.58C8.65,63.58,8.99,63.46,9.24,63.2L10.51,61.92C10.76,61.68,10.88,61.35,10.88,61.01L10.88,50.14C10.88,49.8,10.76,49.47,10.52,49.23Z" fill="currentColor"/><path d="M26.48,47.57C26.15,47.57,25.82,47.7,25.57,47.95L24.27,49.23C24.03,49.47,23.88,49.8,23.88,50.15L23.88,61.01C23.88,61.35,24.03,61.68,24.27,61.92L25.57,63.21C25.81,63.46,26.15,63.58,26.48,63.58C26.81,63.58,27.14,63.46,27.39,63.21L28.72,61.92C28.96,61.68,29.14,61.35,29.14,61.01L29.14,50.15C29.14,49.8,28.96,49.47,28.72,49.23L27.39,47.95C27.14,47.7,26.81,47.57,26.48,47.57Z" fill="currentColor" opacity="0.3"/><path d="M39.13,31.51L50,31.51C50.34,31.51,50.67,31.25,50.9,31L52.19,29.65C52.69,29.15,52.69,28.31,52.19,27.8L50.9,26.57C50.67,26.33,50.34,26.25,50,26.25L39.13,26.25C38.79,26.25,38.46,26.31,38.22,26.55L36.93,27.81C36.43,28.31,36.43,29.17,36.93,29.67L38.22,31C38.46,31.25,38.79,31.51,39.13,31.51Z" fill="currentColor" opacity="0.3"/><path d="M39.13,44.5C38.79,44.5,38.46,44.45,38.22,44.69L36.93,45.89C36.43,46.38,36.43,47.15,36.93,47.65L38.22,49.01C38.46,49.25,38.79,49.45,39.13,49.45L49.99,49.45C50.33,49.45,50.66,49.23,50.91,48.98L52.19,47.65C52.69,47.15,52.69,46.31,52.19,45.81L50.91,44.7C50.66,44.46,50.33,44.5,49.99,44.5Z" fill="currentColor"/><path d="M54.41,29.87C54.16,29.61,53.83,29.49,53.5,29.49C53.17,29.49,52.85,29.61,52.6,29.87L51.39,31.15C51.15,31.39,51.1,31.72,51.1,32.06L51.1,42.93C51.1,43.27,51.15,43.6,51.39,43.84L52.64,45.12C52.89,45.38,53.2,45.5,53.53,45.5C53.86,45.5,54.18,45.38,54.43,45.12L55.69,43.84C55.94,43.6,56.05,43.27,56.05,42.93L56.05,32.06C56.05,31.72,55.93,31.39,55.69,31.15Z" fill="currentColor" opacity="0.3"/><path d="M35.36,45.5C35.69,45.5,36.02,45.38,36.27,45.12L37.49,43.84C37.73,43.6,37.8,43.27,37.8,42.93L37.8,32.06C37.8,31.72,37.73,31.39,37.49,31.15L36.24,29.87C35.99,29.61,35.67,29.49,35.34,29.49C35.01,29.49,34.69,29.61,34.44,29.87L33.19,31.15C32.95,31.39,32.85,31.72,32.85,32.06L32.85,42.93C32.85,43.27,32.95,43.6,33.19,43.84L34.45,45.12C34.7,45.38,35.03,45.5,35.36,45.5Z" fill="currentColor" opacity="0.3"/><path d="M49.99,62.44L39.13,62.44C38.79,62.44,38.46,62.43,38.22,62.67L36.93,63.88C36.43,64.38,36.43,65.16,36.93,65.66L38.22,67.14C38.46,67.38,38.79,67.7,39.13,67.7L49.99,67.7C50.34,67.7,50.66,67.36,50.91,67.12L52.19,65.73C52.69,65.22,52.69,64.44,52.19,63.93L50.91,62.67C50.66,62.43,50.34,62.44,49.99,62.44Z" fill="currentColor"/><path d="M37.49,49.23L36.24,47.95C35.99,47.69,35.67,47.57,35.34,47.57C35.01,47.57,34.69,47.69,34.44,47.95L33.19,49.23C32.95,49.47,32.85,49.8,32.85,50.14L32.85,61.01C32.85,61.35,32.95,61.68,33.19,61.92L34.47,63.2C34.72,63.46,35.04,63.58,35.37,63.58C35.7,63.58,36.02,63.46,36.27,63.2L37.49,61.92C37.73,61.68,37.8,61.35,37.8,61.01L37.8,50.14C37.8,49.8,37.73,49.47,37.49,49.23Z" fill="currentColor"/><path d="M53.51,47.57C53.18,47.57,52.85,47.7,52.6,47.95L51.39,49.23C51.15,49.47,51.1,49.8,51.1,50.15L51.1,61.01C51.1,61.35,51.15,61.68,51.39,61.92L52.64,63.21C52.89,63.46,53.2,63.58,53.53,63.58C53.86,63.58,54.18,63.46,54.43,63.21L55.69,61.92C55.94,61.68,56.05,61.35,56.05,61.01L56.05,50.15C56.05,49.8,55.93,49.47,55.69,49.23L54.42,47.95C54.17,47.7,53.84,47.57,53.51,47.57Z" fill="currentColor" opacity="0.3"/><path d="M66.16,31.51L77.02,31.51C77.36,31.51,77.69,31.25,77.93,31L79.22,29.65C79.72,29.15,79.72,28.31,79.22,27.8L77.93,26.57C77.69,26.33,77.36,26.25,77.02,26.25L66.16,26.25C65.81,26.25,65.49,26.31,65.24,26.55L63.96,27.81C63.45,28.31,63.45,29.17,63.96,29.67L65.24,31C65.49,31.25,65.81,31.51,66.16,31.51Z" fill="currentColor"/><path d="M66.16,44.5C65.81,44.5,65.48,44.45,65.24,44.69L63.96,45.89C63.46,46.38,63.46,47.15,63.96,47.65L65.24,49.01C65.48,49.25,65.81,49.45,66.16,49.45L77.02,49.45C77.36,49.45,77.69,49.23,77.93,48.98L79.22,47.65C79.72,47.15,79.72,46.31,79.22,45.81L77.93,44.7C77.69,44.46,77.36,44.5,77.02,44.5Z" fill="currentColor" opacity="0.3"/><path d="M81.41,29.87C81.15,29.61,80.84,29.49,80.51,29.49C80.18,29.49,79.86,29.61,79.61,29.87L78.36,31.15C78.12,31.39,78.02,31.72,78.02,32.06L78.02,42.93C78.02,43.27,78.13,43.6,78.36,43.84L79.64,45.12C79.88,45.38,80.21,45.5,80.54,45.5C80.87,45.5,81.19,45.38,81.45,45.12L82.66,43.84C82.9,43.6,82.97,43.27,82.97,42.93L82.97,32.06C82.97,31.72,82.9,31.39,82.66,31.15Z" fill="currentColor"/><path d="M62.39,45.5C62.72,45.5,63.04,45.38,63.29,45.12L64.61,43.84C64.86,43.6,65.02,43.27,65.02,42.93L65.02,32.06C65.02,31.72,64.86,31.39,64.61,31.15L63.31,29.87C63.06,29.61,62.72,29.49,62.39,29.49C62.06,29.49,61.73,29.61,61.48,29.87L60.17,31.15C59.93,31.39,59.76,31.72,59.76,32.06L59.76,42.93C59.76,43.27,59.92,43.6,60.17,43.84L61.47,45.12C61.73,45.38,62.06,45.5,62.39,45.5Z" fill="currentColor"/><path d="M77.02,62.44L66.15,62.44C65.81,62.44,65.48,62.43,65.25,62.67L63.96,63.88C63.46,64.38,63.46,65.16,63.96,65.66L65.25,67.14C65.48,67.38,65.81,67.7,66.15,67.7L77.02,67.7C77.36,67.7,77.69,67.36,77.93,67.12L79.22,65.73C79.72,65.22,79.72,64.44,79.22,63.93L77.93,62.67C77.69,62.43,77.36,62.44,77.02,62.44Z" fill="currentColor"/><path d="M64.61,49.23L63.31,47.95C63.06,47.69,62.73,47.57,62.4,47.57C62.07,47.57,61.73,47.69,61.48,47.95L60.17,49.23C59.93,49.47,59.77,49.8,59.77,50.14L59.77,61.01C59.77,61.35,59.93,61.68,60.17,61.92L61.47,63.2C61.71,63.46,62.05,63.58,62.38,63.58C62.71,63.58,63.04,63.46,63.29,63.2L64.61,61.92C64.85,61.68,65.03,61.35,65.03,61.01L65.03,50.14C65.03,49.8,64.85,49.47,64.61,49.23Z" fill="currentColor"/><path d="M80.53,47.57C80.2,47.57,79.87,47.7,79.62,47.95L78.36,49.23C78.12,49.47,78.02,49.8,78.02,50.15L78.02,61.01C78.02,61.35,78.12,61.68,78.36,61.92L79.64,63.21C79.89,63.46,80.21,63.58,80.54,63.58C80.87,63.58,81.19,63.46,81.45,63.21L82.66,61.92C82.9,61.68,82.97,61.35,82.97,61.01L82.97,50.15C82.97,49.8,82.9,49.47,82.66,49.23L81.44,47.95C81.19,47.7,80.86,47.57,80.53,47.57Z" fill="currentColor"/></svg>