<svg xmlns="http://www.w3.org/2000/svg" viewBox="0 0 90 90"><path d="M13.1,63.44L23.97,63.44C24.31,63.44,24.64,63.71,24.88,63.95L26.17,65.3C26.67,65.8,26.67,66.65,26.17,67.15L24.88,68.38C24.64,68.63,24.31,68.7,23.97,68.7L13.1,68.7C12.76,68.7,12.44,68.64,12.19,68.4L10.91,67.15C10.41,66.64,10.41,65.79,10.91,65.29L12.19,63.95C12.44,63.71,12.76,63.44,13.1,63.44Z" fill="currentColor" opacity="0.3"/><path d="M13.11,50.46C12.77,50.46,12.44,50.51,12.19,50.26L10.91,49.07C10.4,48.57,10.4,47.8,10.91,47.3L12.19,45.95C12.44,45.71,12.77,45.5,13.11,45.5L23.97,45.5C24.31,45.5,24.64,45.73,24.88,45.97L26.17,47.3C26.67,47.8,26.67,48.64,26.17,49.15L24.88,50.25C24.64,50.5,24.31,50.46,23.97,50.46Z" fill="currentColor" opacity="0.3"/><path d="M28.41,65.09C28.16,65.34,27.82,65.46,27.49,65.46C27.16,65.46,26.83,65.34,26.57,65.09L25.27,63.8C25.03,63.56,24.88,63.24,24.88,62.89L24.88,52.03C24.88,51.68,25.03,51.36,25.27,51.11L26.56,49.83C26.82,49.58,27.15,49.45,27.48,49.45C27.81,49.45,28.14,49.58,28.39,49.83L29.72,51.11C29.96,51.36,30.14,51.68,30.14,52.03L30.14,62.89C30.14,63.24,29.96,63.56,29.72,63.8Z" fill="currentColor" opacity="0.3"/><path d="M9.34,49.45C9.67,49.45,9.99,49.58,10.25,49.83L11.52,51.11C11.76,51.36,11.88,51.68,11.88,52.03L11.88,62.89C11.88,63.24,11.76,63.56,11.52,63.8L10.24,65.09C9.99,65.34,9.66,65.46,9.33,65.46C9,65.46,8.67,65.34,8.43,65.09L7.07,63.8C6.83,63.56,6.63,63.24,6.63,62.89L6.63,52.03C6.63,51.68,6.83,51.36,7.07,51.11L8.43,49.83C8.68,49.58,9.01,49.45,9.34,49.45Z" fill="currentColor"/><path d="M23.97,32.51L13.1,32.51C12.76,32.51,12.43,32.52,12.2,32.28L10.91,31.08C10.4,30.57,10.4,29.8,10.91,29.29L12.2,27.82C12.43,27.57,12.76,27.25,13.1,27.25L23.97,27.25C24.31,27.25,24.64,27.6,24.88,27.84L26.17,29.22C26.67,29.73,26.67,30.52,26.17,31.02L24.88,32.28C24.64,32.52,24.31,32.51,23.97,32.51Z" fill="currentColor"/><path d="M11.52,45.72L10.24,47.01C9.99,47.26,9.66,47.38,9.33,47.38C9,47.38,8.67,47.26,8.42,47.01L7.07,45.72C6.83,45.48,6.63,45.15,6.63,44.81L6.63,33.95C6.63,33.6,6.83,33.28,7.07,33.03L8.39,31.75C8.65,31.5,8.99,31.37,9.32,31.37C9.65,31.37,9.99,31.5,10.24,31.75L11.51,33.03C11.76,33.28,11.88,33.6,11.88,33.95L11.88,44.81C11.88,45.15,11.76,45.48,11.52,45.72Z" fill="currentColor"/><path d="M27.48,47.38C27.15,47.38,26.82,47.26,26.57,47.01L25.27,45.72C25.03,45.48,24.88,45.15,24.88,44.81L24.88,33.94C24.88,33.6,25.03,33.27,25.27,33.03L26.57,31.75C26.81,31.5,27.15,31.37,27.48,31.37C27.81,31.37,28.14,31.5,28.39,31.75L29.72,33.03C29.96,33.27,30.14,33.6,30.14,33.94L30.14,44.81C30.14,45.15,29.96,45.48,29.72,45.72L28.39,47.01C28.14,47.26,27.81,47.38,27.48,47.38Z" fill="currentColor" opacity="0.3"/><path d="M40.13,63.44L51,63.44C51.34,63.44,51.67,63.71,51.9,63.95L53.19,65.3C53.69,65.8,53.69,66.65,53.19,67.15L51.9,68.38C51.67,68.63,51.34,68.7,51,68.7L40.13,68.7C39.79,68.7,39.46,68.64,39.22,68.4L37.93,67.15C37.43,66.64,37.43,65.79,37.93,65.29L39.22,63.95C39.46,63.71,39.79,63.44,40.13,63.44Z" fill="currentColor" opacity="0.3"/><path d="M40.13,50.46C39.79,50.46,39.46,50.51,39.22,50.26L37.93,49.07C37.43,48.57,37.43,47.8,37.93,47.3L39.22,45.95C39.46,45.71,39.79,45.5,40.13,45.5L50.99,45.5C51.33,45.5,51.66,45.73,51.91,45.97L53.19,47.3C53.69,47.8,53.69,48.64,53.19,49.15L51.91,50.25C51.66,50.5,51.33,50.46,50.99,50.46Z" fill="currentColor"/><path d="M55.41,65.09C55.16,65.34,54.83,65.46,54.5,65.46C54.17,65.46,53.85,65.34,53.6,65.09L52.39,63.8C52.15,63.56,52.1,63.24,52.1,62.89L52.1,52.03C52.1,51.68,52.15,51.36,52.39,51.11L53.64,49.83C53.89,49.58,54.2,49.45,54.53,49.45C54.86,49.45,55.18,49.58,55.43,49.83L56.69,51.11C56.94,51.36,57.05,51.68,57.05,52.03L57.05,62.89C57.05,63.24,56.93,63.56,56.69,63.8Z" fill="currentColor" opacity="0.3"/><path d="M36.36,49.45C36.69,49.45,37.02,49.58,37.27,49.83L38.49,51.11C38.73,51.36,38.8,51.68,38.8,52.03L38.8,62.89C38.8,63.24,38.73,63.56,38.49,63.8L37.24,65.09C36.99,65.34,36.67,65.46,36.34,65.46C36.01,65.46,35.69,65.34,35.44,65.09L34.19,63.8C33.95,63.56,33.85,63.24,33.85,62.89L33.85,52.03C33.85,51.68,33.95,51.36,34.19,51.11L35.45,49.83C35.7,49.58,36.03,49.45,36.36,49.45Z" fill="currentColor" opacity="0.3"/><path d="M50.99,32.51L40.13,32.51C39.79,32.51,39.46,32.52,39.22,32.28L37.93,31.08C37.43,30.57,37.43,29.8,37.93,29.29L39.22,27.82C39.46,27.57,39.79,27.25,40.13,27.25L50.99,27.25C51.34,27.25,51.66,27.6,51.91,27.84L53.19,29.22C53.69,29.73,53.69,30.52,53.19,31.02L51.91,32.28C51.66,32.52,51.34,32.51,50.99,32.51Z" fill="currentColor"/><path d="M38.49,45.72L37.24,47.01C36.99,47.26,36.67,47.38,36.34,47.38C36.01,47.38,35.69,47.26,35.44,47.01L34.19,45.72C33.95,45.48,33.85,45.15,33.85,44.81L33.85,33.95C33.85,33.6,33.95,33.28,34.19,33.03L35.47,31.75C35.72,31.5,36.04,31.37,36.37,31.37C36.7,31.37,37.02,31.5,37.27,31.75L38.49,33.03C38.73,33.28,38.8,33.6,38.8,33.95L38.8,44.81C38.8,45.15,38.73,45.48,38.49,45.72Z" fill="currentColor"/><path d="M54.51,47.38C54.18,47.38,53.85,47.26,53.6,47.01L52.39,45.72C52.15,45.48,52.1,45.15,52.1,44.81L52.1,33.94C52.1,33.6,52.15,33.27,52.39,33.03L53.64,31.75C53.89,31.5,54.2,31.37,54.53,31.37C54.86,31.37,55.18,31.5,55.43,31.75L56.69,33.03C56.94,33.27,57.05,33.6,57.05,33.94L57.05,44.81C57.05,45.15,56.93,45.48,56.69,45.72L55.42,47.01C55.17,47.26,54.84,47.38,54.51,47.38Z" fill="currentColor" opacity="0.3"/><path d="M67.16,63.44L78.02,63.44C78.36,63.44,78.69,63.71,78.93,63.95L80.22,65.3C80.72,65.8,80.72,66.65,80.22,67.15L78.93,68.38C78.69,68.63,78.36,68.7,78.02,68.7L67.16,68.7C66.81,68.7,66.49,68.64,66.24,68.4L64.96,67.15C64.45,66.64,64.45,65.79,64.96,65.29L66.24,63.95C66.49,63.71,66.81,63.44,67.16,63.44Z" fill="currentColor"/><path d="M67.16,50.46C66.81,50.46,66.48,50.51,66.24,50.26L64.96,49.07C64.46,48.57,64.46,47.8,64.96,47.3L66.24,45.95C66.48,45.71,66.81,45.5,67.16,45.5L78.02,45.5C78.36,45.5,78.69,45.73,78.93,45.97L80.22,47.3C80.72,47.8,80.72,48.64,80.22,49.15L78.93,50.25C78.69,50.5,78.36,50.46,78.02,50.46Z" fill="currentColor" opacity="0.3"/><path d="M82.41,65.09C82.15,65.34,81.84,65.46,81.51,65.46C81.18,65.46,80.86,65.34,80.61,65.09L79.36,63.8C79.12,63.56,79.02,63.24,79.02,62.89L79.02,52.03C79.02,51.68,79.13,51.36,79.36,51.11L80.64,49.83C80.88,49.58,81.21,49.45,81.54,49.45C81.87,49.45,82.19,49.58,82.45,49.83L83.66,51.11C83.9,51.36,83.97,51.68,83.97,52.03L83.97,62.89C83.97,63.24,83.9,63.56,83.66,63.8Z" fill="currentColor"/><path d="M63.39,49.45C63.72,49.45,64.04,49.58,64.29,49.83L65.61,51.11C65.86,51.36,66.02,51.68,66.02,52.03L66.02,62.89C66.02,63.24,65.86,63.56,65.61,63.8L64.31,65.09C64.06,65.34,63.72,65.46,63.39,65.46C63.06,65.46,62.73,65.34,62.48,65.09L61.17,63.8C60.93,63.56,60.76,63.24,60.76,62.89L60.76,52.03C60.76,51.68,60.92,51.36,61.17,51.11L62.47,49.83C62.73,49.58,63.06,49.45,63.39,49.45Z" fill="currentColor"/><path d="M78.02,32.51L67.15,32.51C66.81,32.51,66.48,32.52,66.25,32.28L64.96,31.08C64.46,30.57,64.46,29.8,64.96,29.29L66.25,27.82C66.48,27.57,66.81,27.25,67.15,27.25L78.02,27.25C78.36,27.25,78.69,27.6,78.93,27.84L80.22,29.22C80.72,29.73,80.72,30.52,80.22,31.02L78.93,32.28C78.69,32.52,78.36,32.51,78.02,32.51Z" fill="currentColor"/><path d="M65.61,45.72L64.31,47.01C64.06,47.26,63.73,47.38,63.4,47.38C63.07,47.38,62.73,47.26,62.48,47.01L61.17,45.72C60.93,45.48,60.77,45.15,60.77,44.81L60.77,33.95C60.77,33.6,60.93,33.28,61.17,33.03L62.47,31.75C62.71,31.5,63.05,31.37,63.38,31.37C63.71,31.37,64.04,31.5,64.29,31.75L65.61,33.03C65.85,33.28,66.03,33.6,66.03,33.95L66.03,44.81C66.03,45.15,65.85,45.48,65.61,45.72Z" fill="currentColor"/><path d="M81.53,47.38C81.2,47.38,80.87,47.26,80.62,47.01L79.36,45.72C79.12,45.48,79.02,45.15,79.02,44.81L79.02,33.94C79.02,33.6,79.12,33.27,79.36,33.03L80.64,31.75C80.89,31.5,81.21,31.37,81.54,31.37C81.87,31.37,82.19,31.5,82.45,31.75L83.66,33.03C83.9,33.27,83.97,33.6,83.97,33.94L83.97,44.81C83.97,45.15,83.9,45.48,83.66,45.72L82.44,47.01C82.19,47.26,81.86,47.38,81.53,47.38Z" fill="currentColor"/></svg>