<svg xmlns="http://www.w3.org/2000/svg" viewBox="0 0 90 90" fill="currentColor"><path d="M1,58C1,60.21,2.79,62,5,62L23,62C25.21,62,27,60.21,27,58L27,57L1,57ZM1,58C1,60.21,2.79,62,5,62L23,62C25.21,62,27,60.21,27,58L27,57L1,57ZM23,6L5,6C2.79,6,1,7.79,1,10L1,57L27,57L27,10C27,7.79,25.21,6,23,6ZM23,6L5,6C2.79,6,1,7.79,1,10L1,57L27,57L27,10C27,7.79,25.21,6,23,6ZM33,82C33,84.21,34.79,86,37,86L55,86C57.21,86,59,84.21,59,82L59,81L33,81ZM33,82C33,84.21,34.79,86,37,86L55,86C57.21,86,59,84.21,59,82L59,81L33,81ZM33,81L33,10C33,7.79,34.79,6,37,6L55,6C57.21,6,59,7.79,59,10L59,81ZM33,81L33,10C33,7.79,34.79,6,37,6L55,6C57.21,6,59,7.79,59,10L59,81ZM69,6L87,6C89.21,6,91,7.79,91,10L91,42L65,42L65,10C65,7.79,66.79,6,69,6ZM69,6L87,6C89.21,6,91,7.79,91,10L91,42L65,42L65,10C65,7.79,66.79,6,69,6ZM65,43C65,45.21,66.79,47,69,47L87,47C89.21,47,91,45.21,91,43L91,42L65,42ZM65,43C65,45.21,66.79,47,69,47L87,47C89.21,47,91,45.21,91,43L91,42L65,42ZM59,41L57.83,11.27C57.75,9.13,55.98,7.43,53.84,7.43L38.21,7.43C36.06,7.43,34.3,9.12,34.21,11.27L33,41L33,10C33,7.79,34.79,6,37,6L55,6C57.21,6,59,7.79,59,10ZM59,41L57.83,11.27C57.75,9.13,55.98,7.43,53.84,7.43L38.21,7.43C36.06,7.43,34.3,9.12,34.21,11.27L33,41L33,10C33,7.79,34.79,6,37,6L55,6C57.21,6,59,7.79,59,10ZM91,41L89.83,11.27C89.75,9.13,87.98,7.43,85.84,7.43L70.21,7.43C68.06,7.43,66.3,9.12,66.21,11.27L65,41L65,10C65,7.79,66.79,6,69,6L87,6C89.21,6,91,7.79,91,10ZM91,41L89.83,11.27C89.75,9.13,87.98,7.43,85.84,7.43L70.21,7.43C68.06,7.43,66.3,9.12,66.21,11.27L65,41L65,10C65,7.79,66.79,6,69,6L87,6C89.21,6,91,7.79,91,10ZM27,31L25.89,10.8C25.77,8.68,24.02,7.02,21.9,7.02L6.09,7.02C3.99,7.02,2.25,8.64,2.1,10.73L1,25.9L1,10C1,7.79,2.79,6,5,6L23,6C25.21,6,27,7.79,27,10ZM27,31L25.89,10.8C25.77,8.68,24.02,7.02,21.9,7.02L6.09,7.02C3.99,7.02,2.25,8.64,2.1,10.73L1,25.9L1,10C1,7.79,2.79,6,5,6L23,6C25.21,6,27,7.79,27,10ZM53.95,56.47L53.95,52L39.07,52L39.07,56.47ZM50.35,69.28L39.37,64.99L39.37,70.12L46.87,73L50.41,73L50.41,52L45.04,52L45.04,71.59ZM53.95,56.47L53.95,52L39.07,52L39.07,56.47ZM50.35,69.28L39.37,64.99L39.37,70.12L46.87,73L50.41,73L50.41,52L45.04,52L45.04,71.59ZM13.76,39.89C14.22,40.39,14.58,40.85,14.84,41.27C15.12,41.69,15.32,42.08,15.44,42.44C15.56,42.8,15.62,43.17,15.62,43.55C15.62,43.99,15.52,44.38,15.32,44.72C15.14,45.06,14.85,45.32,14.45,45.5C14.07,45.68,13.59,45.77,13.01,45.77C12.23,45.77,11.37,45.59,10.43,45.23C9.51,44.87,8.53,44.37,7.49,43.73C7.27,43.61,7.05,43.48,6.83,43.34L6.83,48.41C7.87,49.03,8.96,49.51,10.1,49.85C11.26,50.19,12.45,50.36,13.67,50.36C15.05,50.36,16.28,50.11,17.36,49.61C18.44,49.11,19.28,48.39,19.88,47.45C20.48,46.51,20.78,45.39,20.78,44.09C20.78,43.39,20.69,42.71,20.51,42.05C20.33,41.41,20.01,40.72,19.55,39.98C19.09,39.24,18.44,38.43,17.6,37.55L12.17,31.73L11.24,33.23L21.05,33.23L21.05,29L6.83,29L6.83,32.72ZM13.76,39.89C14.22,40.39,14.58,40.85,14.84,41.27C15.12,41.69,15.32,42.08,15.44,42.44C15.56,42.8,15.62,43.17,15.62,43.55C15.62,43.99,15.52,44.38,15.32,44.72C15.14,45.06,14.85,45.32,14.45,45.5C14.07,45.68,13.59,45.77,13.01,45.77C12.23,45.77,11.37,45.59,10.43,45.23C9.51,44.87,8.53,44.37,7.49,43.73C7.27,43.61,7.05,43.48,6.83,43.34L6.83,48.41C7.87,49.03,8.96,49.51,10.1,49.85C11.26,50.19,12.45,50.36,13.67,50.36C15.05,50.36,16.28,50.11,17.36,49.61C18.44,49.11,19.28,48.39,19.88,47.45C20.48,46.51,20.78,45.39,20.78,44.09C20.78,43.39,20.69,42.71,20.51,42.05C20.33,41.41,20.01,40.72,19.55,39.98C19.09,39.24,18.44,38.43,17.6,37.55L12.17,31.73L11.24,33.23L21.05,33.23L21.05,29L6.83,29L6.83,32.72ZM73.98,15C72.96,15.24,71.93,15.59,70.89,16.05L70.89,20.67C72.11,20.09,73.19,19.67,74.13,19.41C75.07,19.15,75.97,19.02,76.83,19.02C77.49,19.02,78.07,19.11,78.57,19.29C79.09,19.49,79.49,19.77,79.77,20.13C80.05,20.51,80.19,20.97,80.19,21.51C80.19,22.25,79.91,22.82,79.35,23.22C78.79,23.64,77.94,23.85,76.8,23.85L74.58,23.85L74.58,27.27L80.22,33.54L80.76,31.83L70.92,31.83L70.92,36L84.72,36L84.72,32.31L79.11,26.22L76.5,27.72L77.97,27.72C79.57,27.72,80.93,27.45,82.05,26.91C83.19,26.39,84.05,25.66,84.63,24.72C85.21,23.8,85.5,22.72,85.5,21.48C85.5,20.22,85.18,19.07,84.54,18.03C83.92,16.99,82.97,16.16,81.69,15.54C80.43,14.94,78.9,14.64,77.1,14.64C76.06,14.64,75.02,14.76,73.98,15ZM73.98,15C72.96,15.24,71.93,15.59,70.89,16.05L70.89,20.67C72.11,20.09,73.19,19.67,74.13,19.41C75.07,19.15,75.97,19.02,76.83,19.02C77.49,19.02,78.07,19.11,78.57,19.29C79.09,19.49,79.49,19.77,79.77,20.13C80.05,20.51,80.19,20.97,80.19,21.51C80.19,22.25,79.91,22.82,79.35,23.22C78.79,23.64,77.94,23.85,76.8,23.85L74.58,23.85L74.58,27.27L80.22,33.54L80.76,31.83L70.92,31.83L70.92,36L84.72,36L84.72,32.31L79.11,26.22L76.5,27.72L77.97,27.72C79.57,27.72,80.93,27.45,82.05,26.91C83.19,26.39,84.05,25.66,84.63,24.72C85.21,23.8,85.5,22.72,85.5,21.48C85.5,20.22,85.18,19.07,84.54,18.03C83.92,16.99,82.97,16.16,81.69,15.54C80.43,14.94,78.9,14.64,77.1,14.64C76.06,14.64,75.02,14.76,73.98,15ZM53.95,58.47L53.95,54L39.07,54L39.07,58.47ZM50.35,71.28L39.37,66.99L39.37,72.12L46.87,75L50.41,75L50.41,54L45.04,54L45.04,73.59ZM53.95,58.47L53.95,54L39.07,54L39.07,58.47ZM50.35,71.28L39.37,66.99L39.37,72.12L46.87,75L50.41,75L50.41,54L45.04,54L45.04,73.59ZM13.76,41.89C14.22,42.39,14.58,42.85,14.84,43.27C15.12,43.69,15.32,44.08,15.44,44.44C15.56,44.8,15.62,45.17,15.62,45.55C15.62,45.99,15.52,46.38,15.32,46.72C15.14,47.06,14.85,47.32,14.45,47.5C14.07,47.68,13.59,47.77,13.01,47.77C12.23,47.77,11.37,47.59,10.43,47.23C9.51,46.87,8.53,46.37,7.49,45.73C7.27,45.61,7.05,45.48,6.83,45.34L6.83,50.41C7.87,51.03,8.96,51.51,10.1,51.85C11.26,52.19,12.45,52.36,13.67,52.36C15.05,52.36,16.28,52.11,17.36,51.61C18.44,51.11,19.28,50.39,19.88,49.45C20.48,48.51,20.78,47.39,20.78,46.09C20.78,45.39,20.69,44.71,20.51,44.05C20.33,43.41,20.01,42.72,19.55,41.98C19.09,41.24,18.44,40.43,17.6,39.55L12.17,33.73L11.24,35.23L21.05,35.23L21.05,31L6.83,31L6.83,34.72ZM13.76,41.89C14.22,42.39,14.58,42.85,14.84,43.27C15.12,43.69,15.32,44.08,15.44,44.44C15.56,44.8,15.62,45.17,15.62,45.55C15.62,45.99,15.52,46.38,15.32,46.72C15.14,47.06,14.85,47.32,14.45,47.5C14.07,47.68,13.59,47.77,13.01,47.77C12.23,47.77,11.37,47.59,10.43,47.23C9.51,46.87,8.53,46.37,7.49,45.73C7.27,45.61,7.05,45.48,6.83,45.34L6.83,50.41C7.87,51.03,8.96,51.51,10.1,51.85C11.26,52.19,12.45,52.36,13.67,52.36C15.05,52.36,16.28,52.11,17.36,51.61C18.44,51.11,19.28,50.39,19.88,49.45C20.48,48.51,20.78,47.39,20.78,46.09C20.78,45.39,20.69,44.71,20.51,44.05C20.33,43.41,20.01,42.72,19.55,41.98C19.09,41.24,18.44,40.43,17.6,39.55L12.17,33.73L11.24,35.23L21.05,35.23L21.05,31L6.83,31L6.83,34.72ZM73.98,17C72.96,17.24,71.93,17.59,70.89,18.05L70.89,22.67C72.11,22.09,73.19,21.67,74.13,21.41C75.07,21.15,75.97,21.02,76.83,21.02C77.49,21.02,78.07,21.11,78.57,21.29C79.09,21.49,79.49,21.77,79.77,22.13C80.05,22.51,80.19,22.97,80.19,23.51C80.19,24.25,79.91,24.82,79.35,25.22C78.79,25.64,77.94,25.85,76.8,25.85L74.58,25.85L74.58,29.27L80.22,35.54L80.76,33.83L70.92,33.83L70.92,38L84.72,38L84.72,34.31L79.11,28.22L76.5,29.72L77.97,29.72C79.57,29.72,80.93,29.45,82.05,28.91C83.19,28.39,84.05,27.66,84.63,26.72C85.21,25.8,85.5,24.72,85.5,23.48C85.5,22.22,85.18,21.07,84.54,20.03C83.92,18.99,82.97,18.16,81.69,17.54C80.43,16.94,78.9,16.64,77.1,16.64C76.06,16.64,75.02,16.76,73.98,17ZM73.98,17C72.96,17.24,71.93,17.59,70.89,18.05L70.89,22.67C72.11,22.09,73.19,21.67,74.13,21.41C75.07,21.15,75.97,21.02,76.83,21.02C77.49,21.02,78.07,21.11,78.57,21.29C79.09,21.49,79.49,21.77,79.77,22.13C80.05,22.51,80.19,22.97,80.19,23.51C80.19,24.25,79.91,24.82,79.35,25.22C78.79,25.64,77.94,25.85,76.8,25.85L74.58,25.85L74.58,29.27L80.22,35.54L80.76,33.83L70.92,33.83L70.92,38L84.72,38L84.72,34.31L79.11,28.22L76.5,29.72L77.97,29.72C79.57,29.72,80.93,29.45,82.05,28.91C83.19,28.39,84.05,27.66,84.63,26.72C85.21,25.8,85.5,24.72,85.5,23.48C85.5,22.22,85.18,21.07,84.54,20.03C83.92,18.99,82.97,18.16,81.69,17.54C80.43,16.94,78.9,16.64,77.1,16.64C76.06,16.64,75.02,16.76,73.98,17Z"/></svg>