<svg xmlns="http://www.w3.org/2000/svg" viewBox="0 0 90 90"><path d="M0,33C0,30.79,1.79,29,4,29L22,29C24.21,29,26,30.79,26,33L26,34L0,34Z" fill="currentColor"/><path d="M0,33C0,30.79,1.79,29,4,29L22,29C24.21,29,26,30.79,26,33L26,34L0,34Z" fill="currentColor"/><path d="M22,85L4,85C1.79,85,0,83.21,0,81L0,34L26,34L26,81C26,83.21,24.21,85,22,85Z" fill="currentColor"/><path d="M22,85L4,85C1.79,85,0,83.21,0,81L0,34L26,34L26,81C26,83.21,24.21,85,22,85Z" fill="currentColor"/><path d="M32,9C32,6.79,33.79,5,36,5L54,5C56.21,5,58,6.79,58,9L58,10L32,10Z" fill="currentColor"/><path d="M32,9C32,6.79,33.79,5,36,5L54,5C56.21,5,58,6.79,58,9L58,10L32,10Z" fill="currentColor"/><path d="M32,10L32,81C32,83.21,33.79,85,36,85L54,85C56.21,85,58,83.21,58,81L58,10Z" fill="currentColor"/><path d="M32,10L32,81C32,83.21,33.79,85,36,85L54,85C56.21,85,58,83.21,58,81L58,10Z" fill="currentColor"/><path d="M68,85L86,85C88.21,85,90,83.21,90,81L90,49L64,49L64,81C64,83.21,65.79,85,68,85Z" fill="currentColor"/><path d="M68,85L86,85C88.21,85,90,83.21,90,81L90,49L64,49L64,81C64,83.21,65.79,85,68,85Z" fill="currentColor"/><path d="M64,48C64,45.79,65.79,44,68,44L86,44C88.21,44,90,45.79,90,48L90,49L64,49Z" fill="currentColor"/><path d="M64,48C64,45.79,65.79,44,68,44L86,44C88.21,44,90,45.79,90,48L90,49L64,49Z" fill="currentColor"/><path d="M58,50L56.83,79.73C56.75,81.87,54.98,83.57,52.84,83.57L37.21,83.57C35.06,83.57,33.3,81.88,33.21,79.73L32,50L32,81C32,83.21,33.79,85,36,85L54,85C56.21,85,58,83.21,58,81Z" fill="currentColor"/><path d="M58,50L56.83,79.73C56.75,81.87,54.98,83.57,52.84,83.57L37.21,83.57C35.06,83.57,33.3,81.88,33.21,79.73L32,50L32,81C32,83.21,33.79,85,36,85L54,85C56.21,85,58,83.21,58,81Z" fill="currentColor"/><path d="M90,50L88.83,79.73C88.75,81.87,86.98,83.57,84.84,83.57L69.21,83.57C67.06,83.57,65.3,81.88,65.21,79.73L64,50L64,81C64,83.21,65.79,85,68,85L86,85C88.21,85,90,83.21,90,81Z" fill="currentColor"/><path d="M90,50L88.83,79.73C88.75,81.87,86.98,83.57,84.84,83.57L69.21,83.57C67.06,83.57,65.3,81.88,65.21,79.73L64,50L64,81C64,83.21,65.79,85,68,85L86,85C88.21,85,90,83.21,90,81Z" fill="currentColor"/><path d="M26,60L24.89,80.2C24.77,82.32,23.02,83.98,20.9,83.98L5.09,83.98C2.99,83.98,1.25,82.36,1.1,80.27L0,65.1L0,81C0,83.21,1.79,85,4,85L22,85C24.21,85,26,83.21,26,81Z" fill="currentColor"/><path d="M26,60L24.89,80.2C24.77,82.32,23.02,83.98,20.9,83.98L5.09,83.98C2.99,83.98,1.25,82.36,1.1,80.27L0,65.1L0,81C0,83.21,1.79,85,4,85L22,85C24.21,85,26,83.21,26,81Z" fill="currentColor"/><path d="M52.95,34.53L52.95,39L38.07,39L38.07,34.53Z" fill="currentColor"/><path d="M49.35,21.72L38.37,26.01L38.37,20.88L45.87,18L49.41,18L49.41,39L44.04,39L44.04,19.41Z" fill="currentColor"/><path d="M52.95,34.53L52.95,39L38.07,39L38.07,34.53Z" fill="currentColor"/><path d="M49.35,21.72L38.37,26.01L38.37,20.88L45.87,18L49.41,18L49.41,39L44.04,39L44.04,19.41Z" fill="currentColor"/><path d="M12.76,51.11C13.22,50.61,13.58,50.15,13.84,49.73C14.12,49.31,14.32,48.92,14.44,48.56C14.56,48.2,14.62,47.83,14.62,47.45C14.62,47.01,14.52,46.62,14.32,46.28C14.14,45.94,13.85,45.68,13.45,45.5C13.07,45.32,12.59,45.23,12.01,45.23C11.23,45.23,10.37,45.41,9.43,45.77C8.51,46.13,7.53,46.63,6.49,47.27C6.27,47.39,6.05,47.52,5.83,47.66L5.83,42.59C6.87,41.97,7.96,41.49,9.1,41.15C10.26,40.81,11.45,40.64,12.67,40.64C14.05,40.64,15.28,40.89,16.36,41.39C17.44,41.89,18.28,42.61,18.88,43.55C19.48,44.49,19.78,45.61,19.78,46.91C19.78,47.61,19.69,48.29,19.51,48.95C19.33,49.59,19.01,50.28,18.55,51.02C18.09,51.76,17.44,52.57,16.6,53.45L11.17,59.27L10.24,57.77L20.05,57.77L20.05,62L5.83,62L5.83,58.28Z" fill="currentColor"/><path d="M12.76,51.11C13.22,50.61,13.58,50.15,13.84,49.73C14.12,49.31,14.32,48.92,14.44,48.56C14.56,48.2,14.62,47.83,14.62,47.45C14.62,47.01,14.52,46.62,14.32,46.28C14.14,45.94,13.85,45.68,13.45,45.5C13.07,45.32,12.59,45.23,12.01,45.23C11.23,45.23,10.37,45.41,9.43,45.77C8.51,46.13,7.53,46.63,6.49,47.27C6.27,47.39,6.05,47.52,5.83,47.66L5.83,42.59C6.87,41.97,7.96,41.49,9.1,41.15C10.26,40.81,11.45,40.64,12.67,40.64C14.05,40.64,15.28,40.89,16.36,41.39C17.44,41.89,18.28,42.61,18.88,43.55C19.48,44.49,19.78,45.61,19.78,46.91C19.78,47.61,19.69,48.29,19.51,48.95C19.33,49.59,19.01,50.28,18.55,51.02C18.09,51.76,17.44,52.57,16.6,53.45L11.17,59.27L10.24,57.77L20.05,57.77L20.05,62L5.83,62L5.83,58.28Z" fill="currentColor"/><path d="M72.98,76C71.96,75.76,70.93,75.41,69.89,74.95L69.89,70.33C71.11,70.91,72.19,71.33,73.13,71.59C74.07,71.85,74.97,71.98,75.83,71.98C76.49,71.98,77.07,71.89,77.57,71.71C78.09,71.51,78.49,71.23,78.77,70.87C79.05,70.49,79.19,70.03,79.19,69.49C79.19,68.75,78.91,68.18,78.35,67.78C77.79,67.36,76.94,67.15,75.8,67.15L73.58,67.15L73.58,63.73L79.22,57.46L79.76,59.17L69.92,59.17L69.92,55L83.72,55L83.72,58.69L78.11,64.78L75.5,63.28L76.97,63.28C78.57,63.28,79.93,63.55,81.05,64.09C82.19,64.61,83.05,65.34,83.63,66.28C84.21,67.2,84.5,68.28,84.5,69.52C84.5,70.78,84.18,71.93,83.54,72.97C82.92,74.01,81.97,74.84,80.69,75.46C79.43,76.06,77.9,76.36,76.1,76.36C75.06,76.36,74.02,76.24,72.98,76Z" fill="currentColor"/><path d="M72.98,76C71.96,75.76,70.93,75.41,69.89,74.95L69.89,70.33C71.11,70.91,72.19,71.33,73.13,71.59C74.07,71.85,74.97,71.98,75.83,71.98C76.49,71.98,77.07,71.89,77.57,71.71C78.09,71.51,78.49,71.23,78.77,70.87C79.05,70.49,79.19,70.03,79.19,69.49C79.19,68.75,78.91,68.18,78.35,67.78C77.79,67.36,76.94,67.15,75.8,67.15L73.58,67.15L73.58,63.73L79.22,57.46L79.76,59.17L69.92,59.17L69.92,55L83.72,55L83.72,58.69L78.11,64.78L75.5,63.28L76.97,63.28C78.57,63.28,79.93,63.55,81.05,64.09C82.19,64.61,83.05,65.34,83.63,66.28C84.21,67.2,84.5,68.28,84.5,69.52C84.5,70.78,84.18,71.93,83.54,72.97C82.92,74.01,81.97,74.84,80.69,75.46C79.43,76.06,77.9,76.36,76.1,76.36C75.06,76.36,74.02,76.24,72.98,76Z" fill="currentColor"/><path d="M52.95,32.53L52.95,37L38.07,37L38.07,32.53Z" fill="currentColor"/><path d="M49.35,19.72L38.37,24.01L38.37,18.88L45.87,16L49.41,16L49.41,37L44.04,37L44.04,17.41Z" fill="currentColor"/><path d="M52.95,32.53L52.95,37L38.07,37L38.07,32.53Z" fill="currentColor"/><path d="M49.35,19.72L38.37,24.01L38.37,18.88L45.87,16L49.41,16L49.41,37L44.04,37L44.04,17.41Z" fill="currentColor"/><path d="M12.76,49.11C13.22,48.61,13.58,48.15,13.84,47.73C14.12,47.31,14.32,46.92,14.44,46.56C14.56,46.2,14.62,45.83,14.62,45.45C14.62,45.01,14.52,44.62,14.32,44.28C14.14,43.94,13.85,43.68,13.45,43.5C13.07,43.32,12.59,43.23,12.01,43.23C11.23,43.23,10.37,43.41,9.43,43.77C8.51,44.13,7.53,44.63,6.49,45.27C6.27,45.39,6.05,45.52,5.83,45.66L5.83,40.59C6.87,39.97,7.96,39.49,9.1,39.15C10.26,38.81,11.45,38.64,12.67,38.64C14.05,38.64,15.28,38.89,16.36,39.39C17.44,39.89,18.28,40.61,18.88,41.55C19.48,42.49,19.78,43.61,19.78,44.91C19.78,45.61,19.69,46.29,19.51,46.95C19.33,47.59,19.01,48.28,18.55,49.02C18.09,49.76,17.44,50.57,16.6,51.45L11.17,57.27L10.24,55.77L20.05,55.77L20.05,60L5.83,60L5.83,56.28Z" fill="currentColor"/><path d="M12.76,49.11C13.22,48.61,13.58,48.15,13.84,47.73C14.12,47.31,14.32,46.92,14.44,46.56C14.56,46.2,14.62,45.83,14.62,45.45C14.62,45.01,14.52,44.62,14.32,44.28C14.14,43.94,13.85,43.68,13.45,43.5C13.07,43.32,12.59,43.23,12.01,43.23C11.23,43.23,10.37,43.41,9.43,43.77C8.51,44.13,7.53,44.63,6.49,45.27C6.27,45.39,6.05,45.52,5.83,45.66L5.83,40.59C6.87,39.97,7.96,39.49,9.1,39.15C10.26,38.81,11.45,38.64,12.67,38.64C14.05,38.64,15.28,38.89,16.36,39.39C17.44,39.89,18.28,40.61,18.88,41.55C19.48,42.49,19.78,43.61,19.78,44.91C19.78,45.61,19.69,46.29,19.51,46.95C19.33,47.59,19.01,48.28,18.55,49.02C18.09,49.76,17.44,50.57,16.6,51.45L11.17,57.27L10.24,55.77L20.05,55.77L20.05,60L5.83,60L5.83,56.28Z" fill="currentColor"/><path d="M72.98,74C71.96,73.76,70.93,73.41,69.89,72.95L69.89,68.33C71.11,68.91,72.19,69.33,73.13,69.59C74.07,69.85,74.97,69.98,75.83,69.98C76.49,69.98,77.07,69.89,77.57,69.71C78.09,69.51,78.49,69.23,78.77,68.87C79.05,68.49,79.19,68.03,79.19,67.49C79.19,66.75,78.91,66.18,78.35,65.78C77.79,65.36,76.94,65.15,75.8,65.15L73.58,65.15L73.58,61.73L79.22,55.46L79.76,57.17L69.92,57.17L69.92,53L83.72,53L83.72,56.69L78.11,62.78L75.5,61.28L76.97,61.28C78.57,61.28,79.93,61.55,81.05,62.09C82.19,62.61,83.05,63.34,83.63,64.28C84.21,65.2,84.5,66.28,84.5,67.52C84.5,68.78,84.18,69.93,83.54,70.97C82.92,72.01,81.97,72.84,80.69,73.46C79.43,74.06,77.9,74.36,76.1,74.36C75.06,74.36,74.02,74.24,72.98,74Z" fill="currentColor"/><path d="M72.98,74C71.96,73.76,70.93,73.41,69.89,72.95L69.89,68.33C71.11,68.91,72.19,69.33,73.13,69.59C74.07,69.85,74.97,69.98,75.83,69.98C76.49,69.98,77.07,69.89,77.57,69.71C78.09,69.51,78.49,69.23,78.77,68.87C79.05,68.49,79.19,68.03,79.19,67.49C79.19,66.75,78.91,66.18,78.35,65.78C77.79,65.36,76.94,65.15,75.8,65.15L73.58,65.15L73.58,61.73L79.22,55.46L79.76,57.17L69.92,57.17L69.92,53L83.72,53L83.72,56.69L78.11,62.78L75.5,61.28L76.97,61.28C78.57,61.28,79.93,61.55,81.05,62.09C82.19,62.61,83.05,63.34,83.63,64.28C84.21,65.2,84.5,66.28,84.5,67.52C84.5,68.78,84.18,69.93,83.54,70.97C82.92,72.01,81.97,72.84,80.69,73.46C79.43,74.06,77.9,74.36,76.1,74.36C75.06,74.36,74.02,74.24,72.98,74Z" fill="currentColor"/></svg>