<svg xmlns="http://www.w3.org/2000/svg" viewBox="0 0 90 90"><path d="M78.05,14.42C67.33,13.83,56.8,10.44,46.38,1.25C45.6,0.56,44.4,0.56,43.62,1.26C33.2,10.45,22.67,14.02,11.95,14.63C10.87,14.7,10,15.58,10,16.67L10,46.96C10,66.12,23.26,74.3,43.82,89.15C44.52,89.65,45.48,89.65,46.18,89.15C66.75,74.31,80,66.12,80,46.96L80,16.45C80,15.37,79.13,14.48,78.05,14.42Z" fill="currentColor"/><path d="M78.05,14.42C67.33,13.83,56.8,10.44,46.38,1.25C45.6,0.56,44.4,0.56,43.62,1.26C33.2,10.45,22.67,14.02,11.95,14.63C10.87,14.7,10,15.58,10,16.67L10,46.96C10,66.12,23.26,74.3,43.82,89.15C44.52,89.65,45.48,89.65,46.18,89.15C66.75,74.31,80,66.12,80,46.96L80,16.45C80,15.37,79.13,14.48,78.05,14.42Z" fill="currentColor"/><path d="M46.38,1.25C45.6,0.56,44.4,0.56,43.62,1.26C33.2,10.45,22.67,14.02,11.95,14.63C10.87,14.7,10,15.58,10,16.67L10,46.96C10,56.36,13.19,63.11,18.87,69.31C37.49,57.87,55.65,36.38,59.37,9.89C55.02,7.86,50.69,5.05,46.38,1.25Z" fill="currentColor"/><path d="M43.62,1.26C33.2,10.45,22.67,14.02,11.95,14.63C10.87,14.7,10,15.58,10,16.67L10,45L45,45L45,89.53C45.42,89.53,45.83,89.4,46.18,89.15C47.5,88.2,48.78,87.28,50.04,86.38C68.39,73.22,80,64.89,80,46.96L80,45L45,45L45,0.73C44.51,0.73,44.01,0.91,43.62,1.26Z" fill="currentColor"/><path d="M43.62,1.26C33.2,10.45,22.67,14.02,11.95,14.63C10.87,14.7,10,15.58,10,16.67L10,43.9C10.59,38.94,10.73,34.77,10.87,30.6C10.98,27.4,11.09,24.2,11.4,20.64C11.62,18.02,13.69,15.97,16.31,15.63C27.06,14.25,36.99,9.14,44.37,1.19L44.77,0.75C44.36,0.79,43.95,0.96,43.62,1.26Z" fill="currentColor"/><path d="M80,46.96C80,64.89,68.39,73.22,50.04,86.38C48.78,87.28,47.5,88.2,46.18,89.15C46.03,89.26,45.86,89.34,45.69,89.41L68.01,70.14C72.64,66.14,75.94,60.83,77.46,54.91L80,45.04Z" fill="currentColor"/></svg>