<svg xmlns="http://www.w3.org/2000/svg" viewBox="0 0 90 90" fill="currentColor"><path d="M79.05,76.79C68.33,77.38,57.8,80.78,47.38,89.96C46.6,90.65,45.4,90.65,44.62,89.96C34.2,80.76,23.67,77.19,12.95,76.58C11.87,76.52,11,75.63,11,74.55L11,44.26C11,25.09,24.26,16.91,44.82,2.07C45.52,1.56,46.48,1.56,47.18,2.07C67.75,16.9,81,25.09,81,44.26L81,74.76C81,75.85,80.13,76.73,79.05,76.79ZM79.05,76.79C68.33,77.38,57.8,80.78,47.38,89.96C46.6,90.65,45.4,90.65,44.62,89.96C34.2,80.76,23.67,77.19,12.95,76.58C11.87,76.52,11,75.63,11,74.55L11,44.26C11,25.09,24.26,16.91,44.82,2.07C45.52,1.56,46.48,1.56,47.18,2.07C67.75,16.9,81,25.09,81,44.26L81,74.76C81,75.85,80.13,76.73,79.05,76.79ZM47.38,89.96C46.6,90.65,45.4,90.65,44.62,89.96C34.2,80.76,23.67,77.19,12.95,76.58C11.87,76.52,11,75.63,11,74.55L11,44.26C11,34.86,14.19,28.1,19.87,21.9C38.49,33.35,56.65,54.83,60.37,81.32C56.02,83.35,51.69,86.16,47.38,89.96ZM44.62,89.96C34.2,80.76,23.67,77.19,12.95,76.58C11.87,76.52,11,75.63,11,74.55L11,46.21L46,46.21L46,1.69C46.42,1.69,46.83,1.81,47.18,2.07C48.5,3.02,49.78,3.94,51.04,4.84C69.39,17.99,81,26.32,81,44.26L81,46.21L46,46.21L46,90.48C45.51,90.48,45.01,90.31,44.62,89.96ZM44.62,89.96C34.2,80.76,23.67,77.19,12.95,76.58C11.87,76.52,11,75.63,11,74.55L11,47.31C11.59,52.27,11.73,56.44,11.87,60.61C11.98,63.81,12.09,67.01,12.4,70.57C12.62,73.19,14.69,75.25,17.31,75.58C28.06,76.96,37.99,82.07,45.37,90.02L45.77,90.47C45.36,90.42,44.95,90.25,44.62,89.96ZM81,44.26C81,26.32,69.39,17.99,51.04,4.84C49.78,3.94,48.5,3.02,47.18,2.07C47.03,1.96,46.86,1.87,46.69,1.81L69.01,21.08C73.64,25.07,76.94,30.39,78.46,36.31L81,46.17Z"/></svg>