<svg xmlns="http://www.w3.org/2000/svg" viewBox="0 0 90 90"><path d="M15.98,32.71C15.98,32.71,12.93,36.81,13.5,47.69L17.25,44.05C17.25,44.05,15.38,50.94,23.27,58.07L23.89,53.85C23.89,53.85,25.99,57.18,28.19,59.15C28.19,59.15,27.99,53.92,30.3,53.57C32.6,53.22,33.91,52.57,35.6,54.41L41.47,46.88C42.3,46.84,46.22,49.56,46.91,53.05C47.6,56.54,48.44,61.44,48.44,61.44C48.44,61.44,50.82,58.8,51.89,56.9C51.89,56.9,55.93,60.21,55.59,63.41C55.59,63.41,56.19,53.36,60.05,54.2C60.05,54.2,64.4,55.4,65.1,60.81C65.1,60.81,69.66,58.23,66.65,47.23C66.65,47.23,71.36,49.07,72.11,52.31C72.11,52.31,74.89,46.21,69.43,41.13C69.43,41.13,74.51,43.01,75.56,48.03C75.56,48.03,78.04,40.76,70.81,34.09L76.15,34.36C76.15,34.36,73.76,26.39,67.75,25.28L75.42,24.37C75.42,24.37,71.88,19.28,64.86,19.82L71.88,19.28C71.88,19.28,65.64,13.99,53.54,15.05C53.54,15.05,60.28,12.51,65.64,13.99C65.64,13.99,59.89,9.93,49.65,11.23L53.79,7.15C53.79,7.15,49.61,7.36,47.31,9.75C47.31,9.75,45.44,4.57,43.47,3.75L43.7,9.86C43.7,9.86,39.8,4.12,31.63,6.81L36.97,9.38C36.97,9.38,30.84,7.69,26,11.3L31.39,11.69C31.39,11.69,21.35,12.22,16.36,19.36C16.36,19.36,22.81,15.91,27.68,16.16C27.68,16.16,18.09,17.08,13.74,26.88L16.9,26.38C16.9,26.38,13.46,27.9,11.25,36.9Z" fill="#DADBDD"/><path d="M61.87,72.51L61.87,68.71L27.27,68.71L27.27,72.51Z" fill="#808285"/><path d="M31.63,70.77C31.63,76.47,37.42,81.1,44.57,81.1C51.71,81.1,57.5,76.47,57.5,70.77L57.5,59.33L31.63,59.33Z" fill="#8E885F"/><path d="M26.14,46.55C25.69,54.03,30.84,58.28,31.29,54.7C31.73,51.13,32.63,43.94,32.63,43.94C32.63,43.94,26.59,39.07,26.14,46.55Z" fill="#8E885F"/><path d="M63.38,46.55C63.83,54.03,58.68,58.28,58.23,54.7C57.79,51.13,56.89,43.94,56.89,43.94C56.89,43.94,62.93,39.07,63.38,46.55Z" fill="#8E885F"/><path d="M36.02,64.19C33.02,64.19,30.58,61.75,30.58,58.75L30.58,37.39C30.58,34.39,33.02,31.95,36.02,31.95L53.11,31.95C56.12,31.95,58.55,34.39,58.55,37.39L58.55,58.75C58.55,61.75,56.12,64.19,53.11,64.19Z" fill="#A8A171"/><path d="M44.57,64.81C39.05,64.81,34.58,62.26,34.58,59.12C34.58,55.98,39.05,53.42,44.57,53.42C50.08,53.42,54.56,55.98,54.56,59.12C54.56,62.26,50.08,64.81,44.57,64.81Z" fill="#DADBDD"/><path d="M40.86,54.46C40.36,54.46,39.95,54.06,39.95,53.56L39.95,53.23C39.95,52.73,40.36,52.32,40.86,52.32L42.38,52.32C42.88,52.32,43.29,52.73,43.29,53.23L43.29,53.56C43.29,54.06,42.88,54.46,42.38,54.46Z" fill="#BAB380"/><path d="M46.75,54.46C46.25,54.46,45.84,54.06,45.84,53.56L45.84,53.23C45.84,52.73,46.25,52.32,46.75,52.32L48.28,52.32C48.78,52.32,49.18,52.73,49.18,53.23L49.18,53.56C49.18,54.06,48.78,54.46,48.28,54.46Z" fill="#BAB380"/><path d="M58.55,48.21L58.55,40.65L30.59,40.65L30.59,48.21Z" fill="#87825F"/><path d="M41.91,43.9L34.49,43.9C34.49,45.34,36.16,46.5,38.2,46.5C40.25,46.5,41.91,45.34,41.91,43.9Z" fill="#231F20"/><path d="M54.82,43.9L47.4,43.9C47.4,45.34,49.06,46.5,51.11,46.5C53.15,46.5,54.82,45.34,54.82,43.9Z" fill="#231F20"/><path d="M34.64,43.94C31.75,43.94,29.37,41.57,29.37,38.67L29.37,29.73C29.37,26.83,31.75,24.46,34.64,24.46L54.67,24.46C57.56,24.46,59.94,26.83,59.94,29.73L59.94,38.67C59.94,41.57,57.56,43.94,54.67,43.94Z" fill="#C1BA87"/><path d="M29.37,74.91L29.37,66.22L27.26,66.22L27.26,74.91Z" fill="#939598"/><path d="M61.87,74.56L61.87,65.88L59.76,65.88L59.76,74.56Z" fill="#939598"/><path d="M51.83,59.89C50.62,60.58,48.54,61.5,47.36,60.59C46.84,60.18,46.28,59.97,45.68,59.89L44.37,59.89C43.35,60,42.26,60.3,41.09,60.5C39.68,60.76,38.29,60.31,37.39,59.89L36.62,59.89C34.5,59.89,32.76,61.63,32.76,63.75L32.76,65.73C32.76,67.85,34.5,69.59,36.62,69.59L52.51,69.59C54.63,69.59,56.37,67.85,56.37,65.73L56.37,63.75C56.37,61.63,54.63,59.89,52.51,59.89Z" fill="#C1BA87"/><path d="M43.78,55.52C42.7,55.52,41.82,54.63,41.82,53.56L41.82,48.27C41.82,47.19,42.7,46.31,43.78,46.31L45.36,46.31C46.43,46.31,47.31,47.19,47.31,48.27L47.31,53.56C47.31,54.63,46.43,55.52,45.36,55.52Z" fill="#C1BA87"/><path d="M43.97,31.88L43.97,30.76L43.21,30.76L43.21,31.88L41.88,31.88L41.88,30.76L41.12,30.76L41.12,31.88L39.79,31.88L39.79,30.76L39.03,30.76L39.03,31.88L37.7,31.88L37.7,30.76L36.94,30.76L36.94,31.88L35.61,31.88L35.61,30.76L34.85,30.76L34.85,31.88L33.53,31.88L33.53,30.76L32.76,30.76L32.76,31.88L31.43,31.88L31.43,30.76L30.67,30.76L30.67,31.88L29.37,31.88L29.37,32.6L30.67,32.6L30.67,33.47L31.43,33.47L31.43,32.6L32.76,32.6L32.76,33.47L33.53,33.47L33.53,32.6L34.85,32.6L34.85,33.47L35.61,33.47L35.61,32.6L36.94,32.6L36.94,33.47L37.7,33.47L37.7,32.6L39.03,32.6L39.03,33.47L39.79,33.47L39.79,32.6L41.12,32.6L41.12,33.47L41.88,33.47L41.88,32.6L43.21,32.6L43.21,33.47L43.97,33.47L43.97,32.6L44.71,32.6L44.71,31.88Z" fill="#87825F"/><path d="M47.4,43.9C47.4,43.9,52.55,43.94,54.67,43.94C58.6,43.94,63.37,40.14,61.19,38.98C61.19,38.98,54.99,39.05,52.59,39.05C51.09,39.05,50.11,40.71,48.98,42.1L50.32,38.99C50.07,39.02,49.47,39.12,49.24,39.14C49.24,39.14,48.6,40.58,48.13,41.86L48.13,39.81C47.84,39.84,47.59,39.87,47.38,39.92C47.38,39.92,47.4,42.58,47.4,43.9Z" fill="#DADBDD"/><path d="M41.91,43.9C41.91,43.9,36.76,43.94,34.64,43.94C30.71,43.94,25.94,40.14,28.12,38.98C28.12,38.98,34.32,39.05,36.72,39.05C38.22,39.05,39.2,40.71,40.33,42.1L38.99,38.99C39.24,39.02,39.84,39.12,40.07,39.14C40.07,39.14,40.71,40.58,41.18,41.86L41.18,39.81C41.47,39.84,41.72,39.87,41.93,39.92C41.93,39.92,41.91,42.58,41.91,43.9Z" fill="#DADBDD"/></svg>