<svg xmlns="http://www.w3.org/2000/svg" viewBox="0 0 90 90" fill="currentColor"><path d="M16.98,53.13C16.98,53.13,13.93,49.04,14.5,38.16L18.25,41.8C18.25,41.8,16.38,34.91,24.27,27.78L24.89,32C24.89,32,26.99,28.67,29.19,26.69C29.19,26.69,28.99,31.93,31.3,32.28C33.6,32.62,34.91,33.28,36.6,31.44L42.47,38.97C43.3,39.01,47.22,36.28,47.91,32.79C48.6,29.31,49.44,24.4,49.44,24.4C49.44,24.4,51.82,27.05,52.89,28.95C52.89,28.95,56.93,25.64,56.59,22.43C56.59,22.43,57.19,32.48,61.05,31.65C61.05,31.65,65.4,30.45,66.1,25.03C66.1,25.03,70.66,27.62,67.65,38.62C67.65,38.62,72.36,36.77,73.11,33.54C73.11,33.54,75.89,39.64,70.43,44.72C70.43,44.72,75.51,42.84,76.56,37.82C76.56,37.82,79.04,45.09,71.81,51.75L77.15,51.48C77.15,51.48,74.76,59.46,68.75,60.56L76.42,61.48C76.42,61.48,72.88,66.57,65.86,66.03L72.88,66.57C72.88,66.57,66.64,71.86,54.54,70.8C54.54,70.8,61.28,73.34,66.64,71.86C66.64,71.86,60.89,75.91,50.65,74.62L54.79,78.7C54.79,78.7,50.61,78.48,48.31,76.1C48.31,76.1,46.44,81.28,44.47,82.1L44.7,75.99C44.7,75.99,40.8,81.73,32.63,79.04L37.97,76.47C37.97,76.47,31.84,78.16,27,74.55L32.39,74.16C32.39,74.16,22.35,73.63,17.36,66.49C17.36,66.49,23.81,69.93,28.68,69.69C28.68,69.69,19.09,68.76,14.74,58.97L17.9,59.47C17.9,59.47,14.46,57.95,12.25,48.94ZM62.87,13.34L62.87,17.14L28.27,17.14L28.27,13.34ZM32.63,15.08C32.63,9.38,38.42,4.75,45.57,4.75C52.71,4.75,58.5,9.38,58.5,15.08L58.5,26.51L32.63,26.51ZM27.14,39.3C26.69,31.82,31.84,27.57,32.29,31.15C32.73,34.72,33.63,41.9,33.63,41.9C33.63,41.9,27.59,46.78,27.14,39.3ZM64.38,39.3C64.83,31.82,59.68,27.57,59.23,31.15C58.79,34.72,57.89,41.9,57.89,41.9C57.89,41.9,63.93,46.78,64.38,39.3ZM37.02,21.66C34.02,21.66,31.58,24.09,31.58,27.1L31.58,48.46C31.58,51.46,34.02,53.9,37.02,53.9L54.11,53.9C57.12,53.9,59.55,51.46,59.55,48.46L59.55,27.1C59.55,24.09,57.12,21.66,54.11,21.66ZM45.57,21.04C40.05,21.04,35.58,23.59,35.58,26.73C35.58,29.87,40.05,32.42,45.57,32.42C51.08,32.42,55.56,29.87,55.56,26.73C55.56,23.59,51.08,21.04,45.57,21.04ZM41.86,31.38C41.36,31.38,40.95,31.79,40.95,32.29L40.95,32.62C40.95,33.12,41.36,33.52,41.86,33.52L43.38,33.52C43.88,33.52,44.29,33.12,44.29,32.62L44.29,32.29C44.29,31.79,43.88,31.38,43.38,31.38ZM47.75,31.38C47.25,31.38,46.84,31.79,46.84,32.29L46.84,32.62C46.84,33.12,47.25,33.52,47.75,33.52L49.28,33.52C49.78,33.52,50.18,33.12,50.18,32.62L50.18,32.29C50.18,31.79,49.78,31.38,49.28,31.38ZM59.55,37.63L59.55,45.19L31.59,45.19L31.59,37.63ZM42.91,41.95L35.49,41.95C35.49,40.51,37.16,39.34,39.2,39.34C41.25,39.34,42.91,40.51,42.91,41.95ZM55.82,41.95L48.4,41.95C48.4,40.51,50.06,39.34,52.11,39.34C54.15,39.34,55.82,40.51,55.82,41.95ZM35.64,41.9C32.75,41.9,30.37,44.27,30.37,47.17L30.37,56.12C30.37,59.02,32.75,61.39,35.64,61.39L55.67,61.39C58.56,61.39,60.94,59.02,60.94,56.12L60.94,47.17C60.94,44.27,58.56,41.9,55.67,41.9ZM30.37,10.94L30.37,19.63L28.26,19.63L28.26,10.94ZM62.87,11.28L62.87,19.97L60.76,19.97L60.76,11.28ZM52.83,25.96C51.62,25.26,49.54,24.35,48.36,25.26C47.84,25.67,47.28,25.87,46.68,25.96L45.37,25.96C44.35,25.85,43.26,25.55,42.09,25.34C40.68,25.09,39.29,25.54,38.39,25.96L37.62,25.96C35.5,25.96,33.76,24.22,33.76,22.09L33.76,20.12C33.76,17.99,35.5,16.26,37.62,16.26L53.51,16.26C55.63,16.26,57.37,17.99,57.37,20.12L57.37,22.09C57.37,24.22,55.63,25.96,53.51,25.96ZM44.78,30.33C43.7,30.33,42.82,31.21,42.82,32.29L42.82,37.58C42.82,38.66,43.7,39.54,44.78,39.54L46.36,39.54C47.43,39.54,48.31,38.66,48.31,37.58L48.31,32.29C48.31,31.21,47.43,30.33,46.36,30.33ZM44.97,53.96L44.97,55.09L44.21,55.09L44.21,53.96L42.88,53.96L42.88,55.09L42.12,55.09L42.12,53.96L40.79,53.96L40.79,55.09L40.03,55.09L40.03,53.96L38.7,53.96L38.7,55.09L37.94,55.09L37.94,53.96L36.61,53.96L36.61,55.09L35.85,55.09L35.85,53.96L34.53,53.96L34.53,55.09L33.76,55.09L33.76,53.96L32.43,53.96L32.43,55.09L31.67,55.09L31.67,53.96L30.37,53.96L30.37,53.25L31.67,53.25L31.67,52.38L32.43,52.38L32.43,53.25L33.76,53.25L33.76,52.38L34.53,52.38L34.53,53.25L35.85,53.25L35.85,52.38L36.61,52.38L36.61,53.25L37.94,53.25L37.94,52.38L38.7,52.38L38.7,53.25L40.03,53.25L40.03,52.38L40.79,52.38L40.79,53.25L42.12,53.25L42.12,52.38L42.88,52.38L42.88,53.25L44.21,53.25L44.21,52.38L44.97,52.38L44.97,53.25L45.71,53.25L45.71,53.96ZM48.4,41.95C48.4,41.95,53.55,41.9,55.67,41.9C59.6,41.9,64.37,45.71,62.19,46.86C62.19,46.86,55.99,46.79,53.59,46.79C52.09,46.79,51.11,45.14,49.98,43.74L51.32,46.86C51.07,46.83,50.47,46.73,50.24,46.71C50.24,46.71,49.6,45.27,49.13,43.99L49.13,46.04C48.84,46.01,48.59,45.97,48.38,45.93C48.38,45.93,48.4,43.27,48.4,41.95ZM42.91,41.95C42.91,41.95,37.76,41.9,35.64,41.9C31.71,41.9,26.94,45.71,29.12,46.86C29.12,46.86,35.32,46.79,37.72,46.79C39.22,46.79,40.2,45.14,41.33,43.74L39.99,46.86C40.24,46.83,40.84,46.73,41.07,46.71C41.07,46.71,41.71,45.27,42.18,43.99L42.18,46.04C42.47,46.01,42.72,45.97,42.93,45.93C42.93,45.93,42.91,43.27,42.91,41.95Z"/></svg>