<svg xmlns="http://www.w3.org/2000/svg" viewBox="0 0 90 90"><path d="M13,6C8.58,6,5,9.58,5,14L5,82C5,86.42,8.58,90,13,90L77,90C81.42,90,85,86.42,85,82L85,14C85,9.58,81.42,6,77,6Z" fill="currentColor"/><path d="M13,6C8.58,6,5,9.58,5,14L5,78C5,82.42,8.58,86,13,86L77,86C81.42,86,85,82.42,85,78L85,14C85,9.58,81.42,6,77,6Z" fill="currentColor"/><path d="M5,14C5,9.58,8.58,6,13,6L75,6L14.45,7.78C10.25,7.9,6.86,11.25,6.69,15.44L5,56Z" fill="currentColor"/><path d="M85,78C85,82.42,81.42,86,77,86L45,86L75.73,84.38C79.85,84.17,83.13,80.85,83.3,76.73L85,36Z" fill="currentColor"/><path d="M76,6L76,86L45,86L45,6Z" fill="currentColor"/><path d="M28,80L11,80L11,63L28,63Z" fill="currentColor"/><path d="M45,63L28,63L28,46L45,46Z" fill="currentColor"/><path d="M28,46L11,46L11,29L28,29Z" fill="currentColor"/><path d="M45,29L28,29L28,12L45,12Z" fill="currentColor"/><path d="M80,46L80,62L68,62L68,46Z" fill="currentColor"/><path d="M80,12L80,29L68,29L68,12Z" fill="currentColor"/><path d="M76,46L76,62L71,62L71,46Z" fill="currentColor"/><path d="M76,12L76,29L71,29L71,12Z" fill="currentColor"/><path d="M65.99,0.31C68.52,-0.35,71,1.56,71,4.18L71,73.64C71,77.36,68.43,80.59,64.8,81.43L45,86L45,5.8Z" fill="currentColor"/><path d="M55.76,26L55.76,43L45,46L45,29Z" fill="currentColor"/><path d="M65.62,6L65.62,23L55.76,26L55.76,9Z" fill="currentColor"/><path d="M65.62,40L65.62,57L55.76,60L55.76,43Z" fill="currentColor"/><path d="M55.76,60L55.76,77L45,80L45,63Z" fill="currentColor"/></svg>