<svg xmlns="http://www.w3.org/2000/svg" viewBox="0 0 90 90" fill="currentColor"><path d="M14,84.65C9.58,84.65,6,81.07,6,76.65L6,8.65C6,4.23,9.58,0.65,14,0.65L78,0.65C82.42,0.65,86,4.23,86,8.65L86,76.65C86,81.07,82.42,84.65,78,84.65ZM14,84.65C9.58,84.65,6,81.07,6,76.65L6,12.65C6,8.23,9.58,4.65,14,4.65L78,4.65C82.42,4.65,86,8.23,86,12.65L86,76.65C86,81.07,82.42,84.65,78,84.65ZM6,76.65C6,81.07,9.58,84.65,14,84.65L76,84.65L15.45,82.87C11.25,82.74,7.86,79.4,7.69,75.2L6,34.65ZM86,12.65C86,8.23,82.42,4.65,78,4.65L46,4.65L76.73,6.27C80.85,6.48,84.13,9.8,84.3,13.92L86,54.65ZM77,84.65L77,4.65L46,4.65L46,84.65ZM29,10.65L12,10.65L12,27.65L29,27.65ZM46,27.65L29,27.65L29,44.65L46,44.65ZM29,44.65L12,44.65L12,61.65L29,61.65ZM46,61.65L29,61.65L29,78.65L46,78.65ZM81,44.65L81,28.65L69,28.65L69,44.65ZM81,78.65L81,61.65L69,61.65L69,78.65ZM77,44.65L77,28.65L72,28.65L72,44.65ZM77,78.65L77,61.65L72,61.65L72,78.65ZM66.99,90.34C69.52,91,72,89.09,72,86.47L72,17.01C72,13.29,69.43,10.05,65.8,9.22L46,4.65L46,84.84ZM56.76,64.65L56.76,47.65L46,44.65L46,61.65ZM66.62,84.65L66.62,67.65L56.76,64.65L56.76,81.65ZM66.62,50.65L66.62,33.65L56.76,30.65L56.76,47.65ZM56.76,30.65L56.76,13.65L46,10.65L46,27.65Z"/></svg>