<svg xmlns="http://www.w3.org/2000/svg" viewBox="0 0 90 90"><path d="M19,46.58L17.3,24.82C17.13,22.72,18.08,20.68,19.81,19.46L34.05,9.36C40.86,4.53,49.95,4.44,56.85,9.13L72.09,19.47C73.87,20.68,74.87,22.76,74.7,24.9L73,46.58C73,46.58,61.99,61.46,46.01,61.46L45.99,61.46C30.01,61.46,19,46.58,19,46.58Z" fill="currentColor"/><path d="M32.81,58.09C24.27,53.7,19,46.58,19,46.58L18.4,38.87L46.87,24.36C52.67,21.41,57.66,17.29,61.6,12.35L72.09,19.47C73.87,20.68,74.87,22.76,74.7,24.9L73,46.58C73,46.58,67.73,53.7,59.19,58.09Z" fill="currentColor"/><path d="M17.3,24.82C17.13,22.72,18.08,20.68,19.81,19.46L31.2,11.38L20.84,21.37C19.94,22.23,19.4,23.4,19.32,24.64L18.39,38.87Z" fill="currentColor"/><path d="M89.04,29.5L89.04,55.58L85.96,57.91L85.96,29.5L85.91,25.48L84,8.54C84,7.52,85.56,6.69,87.5,6.69C89.44,6.69,91,7.52,91,8.54L89.09,25.48Z" fill="currentColor"/><path d="M89.04,54.37L85.96,54.91L85.96,47.5L89.04,48.5Z" fill="currentColor"/><path d="M88.35,51.58C89.97,52.41,91,54.07,91,55.9C91,57.71,89.99,59.37,88.38,60.2L48.29,80.91C46.86,81.65,45.14,81.65,43.71,80.91L3.62,60.2C2.01,59.37,1,57.71,1,55.9C1,54.07,2.03,52.41,3.65,51.58L43.74,31.24C45.16,30.52,46.84,30.52,48.26,31.24Z" fill="currentColor"/><path d="M3.37,60.06C2.65,59.69,2.65,58.64,3.39,58.28L43.77,38.14C45.17,37.44,46.83,37.44,48.23,38.14L88.61,58.28C89.35,58.64,89.35,59.69,88.63,60.06L48.3,80.91C46.86,81.65,45.14,81.65,43.7,80.91Z" fill="currentColor" opacity="0.5"/><path d="M48.26,31.24C46.84,30.52,45.16,30.52,43.74,31.24L36.26,35.03L2.31,52.58C1.48,53.47,1,54.65,1,55.9C1,57.71,2.01,59.37,3.62,60.2L32.33,75.03L7.82,60.2C6.46,59.37,6.56,57.36,8,56.68L42.26,40.49C44.64,39.37,47.38,39.34,49.77,40.4L78.74,53.33L47.08,37.02C46.42,36.67,46,35.99,46,35.24L46,34.56C46,33.11,47.49,32.14,48.82,32.73L68.66,41.59Z" fill="currentColor"/></svg>