<svg xmlns="http://www.w3.org/2000/svg" viewBox="0 0 90 90"><path d="M18,38.52L16.3,60.27C16.13,62.38,17.08,64.41,18.81,65.63L33.05,75.73C39.86,80.56,48.95,80.65,55.85,75.97L71.09,65.62C72.87,64.41,73.87,62.34,73.7,60.19L72,38.52C72,38.52,60.99,23.63,45.01,23.63L44.99,23.63C29.01,23.63,18,38.52,18,38.52Z" fill="#009FD9"/><path d="M31.81,27C23.27,31.39,18,38.52,18,38.52L17.4,46.22L45.87,60.73C51.67,63.69,56.66,67.81,60.6,72.74L71.09,65.62C72.87,64.41,73.87,62.34,73.7,60.19L72,38.52C72,38.52,66.73,31.39,58.19,27Z" fill="#0069AB"/><path d="M16.3,60.27C16.13,62.38,17.08,64.41,18.81,65.63L30.2,73.71L19.84,63.73C18.94,62.86,18.4,61.7,18.32,60.45L17.39,46.22Z" fill="#4DC3EA"/><path d="M88.04,55.59L88.04,29.51L84.96,27.19L84.96,55.59L84.91,59.61L83,76.55C83,77.57,84.56,78.4,86.5,78.4C88.44,78.4,90,77.57,90,76.55L88.09,59.61Z" fill="#F7C631"/><path d="M88.04,30.72L84.96,30.19L84.96,37.59L88.04,36.59Z" fill="#B27314"/><path d="M87.35,33.52C88.97,32.69,90,31.02,90,29.2C90,27.38,88.99,25.72,87.38,24.89L47.29,4.19C45.86,3.44,44.14,3.44,42.71,4.19L2.62,24.89C1.01,25.72,0,27.38,0,29.2C0,31.02,1.03,32.69,2.65,33.52L42.74,53.85C44.16,54.57,45.84,54.57,47.26,53.85Z" fill="#009FD9"/><path d="M2.37,25.03C1.65,25.41,1.65,26.45,2.39,26.82L42.77,46.96C44.17,47.66,45.83,47.66,47.23,46.96L87.61,26.82C88.35,26.45,88.35,25.41,87.63,25.03L47.3,4.19C45.86,3.44,44.14,3.44,42.7,4.19Z" fill="#4DC3EA" opacity="0.5"/><path d="M47.26,53.85C45.84,54.57,44.16,54.57,42.74,53.85L35.26,50.06L1.31,32.51C0.48,31.63,0,30.45,0,29.2C0,27.38,1.01,25.72,2.62,24.89L31.33,10.06L6.82,24.9C5.46,25.73,5.56,27.74,7,28.42L41.26,44.61C43.64,45.73,46.38,45.76,48.77,44.69L77.74,31.77L46.08,48.08C45.42,48.42,45,49.11,45,49.86L45,50.54C45,51.99,46.49,52.95,47.82,52.36L67.66,43.5Z" fill="#4DC3EA"/></svg>