<svg xmlns="http://www.w3.org/2000/svg" viewBox="0 0 90 90" fill="currentColor"><path d="M12,84L80,84L80,34.92L46,7L12,34.92ZM11,35.11L11,49L46,20.98L81,48.52L81,34.65L46,7ZM81,41L81,76L11,76L11,41ZM81,41L81,45L11,45L11,41ZM31,45L31,68.57C27.69,69.14,24.31,69.14,21,68.57L21,45ZM51,45L51,68.57C47.69,69.14,44.31,69.14,41,68.57L41,45ZM71,45L71,68.57C67.69,69.14,64.31,69.14,61,68.57L61,45ZM21,41L21,74L11,74L11,41ZM13.75,43.46L11,43.46L11,67C11.74,57.47,11.63,44.36,13.75,43.46ZM18.25,43.46L21,43.46L21,67C20.26,57.47,20.37,44.36,18.25,43.46ZM11,45L11,41L21,41L21,45C17.75,43.92,14.25,43.92,11,45ZM41,41L41,74L31,74L31,41ZM33.75,43.46L31,43.46L31,67C31.74,57.47,31.63,44.36,33.75,43.46ZM38.25,43.46L41,43.46L41,67C40.26,57.47,40.37,44.36,38.25,43.46ZM31,45L31,41L41,41L41,45C37.75,43.92,34.25,43.92,31,45ZM61,41L61,74L51,74L51,41ZM53.75,43.46L51,43.46L51,67C51.74,57.47,51.63,44.36,53.75,43.46ZM58.25,43.46L61,43.46L61,67C60.26,57.47,60.37,44.36,58.25,43.46ZM51,45L51,41L61,41L61,45C57.75,43.92,54.25,43.92,51,45ZM81,41L81,74L71,74L71,41ZM73.75,43.46L71,43.46L71,67C71.74,57.47,71.63,44.36,73.75,43.46ZM78.25,43.46L81,43.46L81,67C80.26,57.47,80.37,44.36,78.25,43.46ZM71,45L71,41L81,41L81,45C77.75,43.92,74.25,43.92,71,45ZM80.04,44.36L46,16.43L11.96,44.35C9.78,46.15,6.55,45.77,4.82,43.53L3.96,42.41C2.31,40.26,2.67,37.19,4.78,35.48L42.85,4.56C44.68,3.07,47.32,3.07,49.15,4.56L87.22,35.49C89.33,37.2,89.68,40.27,88.03,42.42L87.17,43.54C85.45,45.78,82.22,46.15,80.04,44.36ZM87.32,36.65L49.1,6.45C47.28,5.01,44.72,5.01,42.9,6.45L4.68,36.64C3.78,37.35,3.19,38.32,2.93,39.36C2.93,37.91,3.56,36.47,4.78,35.48L42.85,4.56C44.68,3.07,47.32,3.07,49.15,4.56L87.22,35.49C88.43,36.48,89.07,37.91,89.07,39.37C88.81,38.33,88.22,37.36,87.32,36.65ZM5,81L87,81C88.1,81,89,81.9,89,83L89,85C89,85.55,88.55,86,88,86L4,86C3.45,86,3,85.55,3,85L3,83C3,81.9,3.9,81,5,81ZM5,81L87,81C88.1,81,89,81.9,89,83L89,83.36C89,82.61,88.39,82,87.64,82L4.36,82C3.61,82,3,82.61,3,83.36L3,83C3,81.9,3.9,81,5,81ZM8,76L84,76C85.1,76,86,76.9,86,78L86,81L6,81L6,78C6,76.9,6.9,76,8,76ZM8,76L84,76C85.1,76,86,76.9,86,78L86,78.36C86,77.61,85.39,77,84.64,77L7.36,77C6.61,77,6,77.61,6,78.36L6,78C6,76.9,6.9,76,8,76ZM11,71L81,71C82.1,71,83,71.9,83,73L83,76L9,76L9,73C9,71.9,9.9,71,11,71ZM11,71L81,71C82.1,71,83,71.9,83,73L83,73.36C83,72.61,82.39,72,81.64,72L10.36,72C9.61,72,9,72.61,9,73.36L9,73C9,71.9,9.9,71,11,71Z"/></svg>