<svg xmlns="http://www.w3.org/2000/svg" viewBox="0 0 90 90"><path d="M11,83L79,83L79,33.92L45,6L11,33.92Z" fill="currentColor"/><path d="M10,34.11L10,48L45,19.98L80,47.52L80,33.65L45,6Z" fill="currentColor"/><path d="M80,40L80,75L10,75L10,40Z" fill="currentColor"/><path d="M80,40L80,44L10,44L10,40Z" fill="currentColor"/><path d="M30,44L30,67.57C26.69,68.14,23.31,68.14,20,67.57L20,44Z" fill="currentColor"/><path d="M50,44L50,67.57C46.69,68.14,43.31,68.14,40,67.57L40,44Z" fill="currentColor"/><path d="M70,44L70,67.57C66.69,68.14,63.31,68.14,60,67.57L60,44Z" fill="currentColor"/><path d="M20,40L20,73L10,73L10,40Z" fill="currentColor"/><path d="M12.75,42.46L10,42.46L10,66C10.74,56.47,10.63,43.36,12.75,42.46Z" fill="currentColor"/><path d="M17.25,42.46L20,42.46L20,66C19.26,56.47,19.37,43.36,17.25,42.46Z" fill="currentColor"/><path d="M10,44L10,40L20,40L20,44C16.75,42.92,13.25,42.92,10,44Z" fill="currentColor"/><path d="M40,40L40,73L30,73L30,40Z" fill="currentColor"/><path d="M32.75,42.46L30,42.46L30,66C30.74,56.47,30.63,43.36,32.75,42.46Z" fill="currentColor"/><path d="M37.25,42.46L40,42.46L40,66C39.26,56.47,39.37,43.36,37.25,42.46Z" fill="currentColor"/><path d="M30,44L30,40L40,40L40,44C36.75,42.92,33.25,42.92,30,44Z" fill="currentColor"/><path d="M60,40L60,73L50,73L50,40Z" fill="currentColor"/><path d="M52.75,42.46L50,42.46L50,66C50.74,56.47,50.63,43.36,52.75,42.46Z" fill="currentColor"/><path d="M57.25,42.46L60,42.46L60,66C59.26,56.47,59.37,43.36,57.25,42.46Z" fill="currentColor"/><path d="M50,44L50,40L60,40L60,44C56.75,42.92,53.25,42.92,50,44Z" fill="currentColor"/><path d="M80,40L80,73L70,73L70,40Z" fill="currentColor"/><path d="M72.75,42.46L70,42.46L70,66C70.74,56.47,70.63,43.36,72.75,42.46Z" fill="currentColor"/><path d="M77.25,42.46L80,42.46L80,66C79.26,56.47,79.37,43.36,77.25,42.46Z" fill="currentColor"/><path d="M70,44L70,40L80,40L80,44C76.75,42.92,73.25,42.92,70,44Z" fill="currentColor"/><path d="M79.04,43.36L45,15.43L10.96,43.35C8.78,45.15,5.55,44.77,3.82,42.53L2.96,41.41C1.31,39.26,1.67,36.19,3.78,34.48L41.85,3.56C43.68,2.07,46.32,2.07,48.15,3.56L86.22,34.49C88.33,36.2,88.68,39.27,87.03,41.42L86.17,42.54C84.45,44.78,81.22,45.15,79.04,43.36Z" fill="currentColor"/><path d="M86.32,35.65L48.1,5.45C46.28,4.01,43.72,4.01,41.9,5.45L3.68,35.64C2.78,36.35,2.19,37.32,1.93,38.36C1.93,36.91,2.56,35.47,3.78,34.48L41.85,3.56C43.68,2.07,46.32,2.07,48.15,3.56L86.22,34.49C87.43,35.48,88.07,36.91,88.07,38.37C87.81,37.33,87.22,36.36,86.32,35.65Z" fill="currentColor"/><path d="M4,80L86,80C87.1,80,88,80.9,88,82L88,84C88,84.55,87.55,85,87,85L3,85C2.45,85,2,84.55,2,84L2,82C2,80.9,2.9,80,4,80Z" fill="currentColor"/><path d="M4,80L86,80C87.1,80,88,80.9,88,82L88,82.36C88,81.61,87.39,81,86.64,81L3.36,81C2.61,81,2,81.61,2,82.36L2,82C2,80.9,2.9,80,4,80Z" fill="currentColor"/><path d="M7,75L83,75C84.1,75,85,75.9,85,77L85,80L5,80L5,77C5,75.9,5.9,75,7,75Z" fill="currentColor"/><path d="M7,75L83,75C84.1,75,85,75.9,85,77L85,77.36C85,76.61,84.39,76,83.64,76L6.36,76C5.61,76,5,76.61,5,77.36L5,77C5,75.9,5.9,75,7,75Z" fill="currentColor"/><path d="M10,70L80,70C81.1,70,82,70.9,82,72L82,75L8,75L8,72C8,70.9,8.9,70,10,70Z" fill="currentColor"/><path d="M10,70L80,70C81.1,70,82,70.9,82,72L82,72.36C82,71.61,81.39,71,80.64,71L9.36,71C8.61,71,8,71.61,8,72.36L8,72C8,70.9,8.9,70,10,70Z" fill="currentColor"/></svg>