<svg xmlns="http://www.w3.org/2000/svg" viewBox="0 0 90 90" fill="currentColor"><path d="M44.24,29.41C54.5,23.49,67.62,27,73.55,37.26L85.97,58.78C91.89,69.03,88.37,82.15,78.11,88.08C67.86,94,54.74,90.49,48.81,80.23L40.33,65.54C42.54,65.13,44.72,64.34,46.78,63.15L50.69,60.89L58.59,74.58C61.4,79.44,67.61,81.11,72.47,78.3C77.33,75.49,79,69.28,76.19,64.42L63.77,42.91C60.96,38.05,54.75,36.38,49.89,39.19C46.03,41.42,44.19,45.79,44.99,49.93C44.32,51.09,43.35,52.09,42.11,52.81L41.13,53.37C38.98,54.61,36.49,54.73,34.35,53.91C31.69,44.66,35.53,34.44,44.24,29.41ZM44.36,47.45L44.84,47.22C44.77,48.12,44.82,49.03,44.99,49.93C44.32,51.09,43.35,52.09,42.11,52.81L41.13,53.37C38.98,54.61,36.5,54.73,34.35,53.91C33.51,51.01,33.32,48.02,33.71,45.12C36.29,48.14,40.63,49.17,44.36,47.45ZM50.69,60.89L46.78,63.15C44.72,64.34,42.54,65.13,40.33,65.54L42.92,70.02L45.22,69.36C48.13,68.53,50.85,67.17,53.26,65.35ZM71.59,38.39L84.01,59.9C89.7,69.75,86.69,82.23,77.37,88.46C77.78,88.25,78.2,88.03,78.6,87.8C88.59,82.03,92.02,69.25,86.25,59.26L73.27,36.78C67.5,26.79,54.72,23.36,44.73,29.13C44.33,29.37,43.93,29.61,43.54,29.87C53.59,24.91,65.91,28.55,71.59,38.39ZM47.75,62.59C37.49,68.51,24.38,64.99,18.45,54.73L6.03,33.22C0.11,22.96,3.62,9.85,13.88,3.92C24.14,-2,37.26,1.51,43.19,11.77L51.67,26.46C49.46,26.87,47.28,27.66,45.22,28.85L41.31,31.11L33.41,17.42C30.6,12.56,24.39,10.89,19.53,13.7C14.67,16.5,13,22.72,15.81,27.58L28.23,49.09C31.03,53.95,37.25,55.61,42.11,52.81C45.97,50.58,47.81,46.21,47,42.07C47.68,40.91,48.65,39.91,49.89,39.19L50.87,38.63C53.02,37.39,55.5,37.27,57.65,38.09C60.31,47.34,56.46,57.56,47.75,62.59ZM47.64,44.55L47.16,44.77C47.23,43.88,47.18,42.97,47.01,42.07C47.68,40.91,48.65,39.91,49.89,39.19L50.87,38.63C53.02,37.39,55.5,37.27,57.65,38.09C58.49,40.99,58.68,43.98,58.29,46.88C55.71,43.86,51.37,42.83,47.64,44.55ZM41.31,31.11L45.22,28.85C47.28,27.66,49.46,26.87,51.67,26.46L49.08,21.98L46.78,22.64C43.87,23.47,41.15,24.83,38.74,26.65ZM20.41,53.61L7.99,32.1C2.3,22.25,5.31,9.77,14.63,3.54C14.22,3.75,13.8,3.97,13.4,4.2C3.41,9.97,-0.02,22.75,5.75,32.74L18.73,55.22C24.5,65.21,37.28,68.64,47.27,62.87C47.67,62.63,48.07,62.39,48.46,62.13C38.4,67.09,26.09,63.45,20.41,53.61Z"/></svg>