<svg xmlns="http://www.w3.org/2000/svg" viewBox="0 0 90 90"><path d="M0,0L0,90L90,90L90,0Z" fill="currentColor"/><path d="M43.24,61.59C53.5,67.51,66.62,63.99,72.55,53.73L84.97,32.22C90.89,21.96,87.37,8.85,77.11,2.92C66.86,-3,53.74,0.51,47.81,10.77L39.33,25.46C41.54,25.87,43.72,26.66,45.78,27.85L49.69,30.11L57.59,16.42C60.4,11.56,66.61,9.89,71.47,12.7C76.33,15.51,78,21.72,75.19,26.58L62.77,48.09C59.96,52.95,53.75,54.61,48.89,51.81C45.03,49.58,43.19,45.21,43.99,41.07C43.32,39.91,42.35,38.91,41.11,38.19L40.13,37.63C37.98,36.39,35.49,36.27,33.35,37.09C30.69,46.34,34.53,56.56,43.24,61.59Z" fill="currentColor"/><path d="M43.36,43.55L43.84,43.78C43.77,42.88,43.82,41.97,43.99,41.07C43.32,39.91,42.35,38.91,41.11,38.19L40.13,37.63C37.98,36.39,35.5,36.27,33.35,37.09C32.51,39.99,32.32,42.98,32.71,45.88C35.29,42.86,39.63,41.83,43.36,43.55Z" fill="currentColor"/><path d="M49.69,30.11L45.78,27.85C43.72,26.66,41.54,25.87,39.33,25.46L41.92,20.98L44.22,21.64C47.13,22.47,49.85,23.83,52.26,25.65Z" fill="currentColor"/><path d="M70.59,52.61L83.01,31.1C88.7,21.25,85.69,8.77,76.37,2.54C76.78,2.75,77.2,2.97,77.6,3.2C87.59,8.97,91.02,21.75,85.25,31.74L72.27,54.22C66.5,64.21,53.72,67.64,43.73,61.87C43.33,61.63,42.93,61.39,42.54,61.13C52.59,66.09,64.91,62.45,70.59,52.61Z" fill="currentColor"/><path d="M46.75,28.41C36.49,22.49,23.38,26,17.45,36.26L5.03,57.78C-0.89,68.04,2.62,81.15,12.88,87.08C23.14,93,36.26,89.49,42.19,79.23L50.67,64.54C48.46,64.13,46.28,63.34,44.22,62.15L40.31,59.89L32.41,73.58C29.6,78.44,23.39,80.11,18.53,77.3C13.67,74.49,12,68.28,14.81,63.42L27.23,41.91C30.03,37.05,36.25,35.38,41.11,38.19C44.97,40.42,46.81,44.79,46,48.93C46.68,50.09,47.65,51.09,48.89,51.81L49.87,52.37C52.02,53.61,54.5,53.73,56.65,52.91C59.31,43.66,55.46,33.44,46.75,28.41Z" fill="currentColor"/><path d="M46.64,46.45L46.16,46.22C46.23,47.12,46.18,48.03,46.01,48.93C46.68,50.09,47.65,51.09,48.89,51.81L49.87,52.37C52.02,53.61,54.5,53.73,56.65,52.91C57.49,50.01,57.68,47.02,57.29,44.12C54.71,47.14,50.37,48.17,46.64,46.45Z" fill="currentColor"/><path d="M40.31,59.89L44.22,62.15C46.28,63.34,48.46,64.13,50.67,64.54L48.08,69.02L45.78,68.36C42.87,67.53,40.15,66.17,37.74,64.35Z" fill="currentColor"/><path d="M19.41,37.39L6.99,58.9C1.3,68.75,4.31,81.23,13.63,87.46C13.22,87.25,12.8,87.03,12.4,86.8C2.41,81.03,-1.02,68.25,4.75,58.26L17.73,35.78C23.5,25.79,36.28,22.36,46.27,28.13C46.67,28.37,47.07,28.61,47.46,28.87C37.4,23.91,25.09,27.55,19.41,37.39Z" fill="currentColor"/></svg>