<svg xmlns="http://www.w3.org/2000/svg" viewBox="0 0 90 90"><path d="M45,8.5C47.84,8.5,50.35,9.35,52.39,10.8C55.78,13.15,58,17.07,58,21.5L58,22.5L58,24.12C58,24.64,58.35,25.09,58.85,25.21C60.92,25.73,63.08,25.73,65.15,25.21C65.65,25.09,66,24.64,66,24.12L66,22.5C66,14.77,62.42,7.97,56.68,4.04C53.34,1.81,49.32,0.5,45,0.5C40.68,0.5,36.66,1.81,33.32,4.04C27.58,7.97,24,14.77,24,22.5L24,35L32,35L32,22.5L32,21.5C32,17.07,34.22,13.15,37.61,10.8C39.65,9.35,42.16,8.5,45,8.5Z" fill="currentColor"/><path d="M47.26,1.19C34.95,2.11,25.16,11.89,24.21,24.2L24,26.98L24,22.5C24,10.35,32.85,0.5,45,0.5C46.62,0.5,48.18,0.67,49.66,1.01Z" fill="currentColor"/><path d="M45,8.5C52.73,8.5,58,14.77,58,22.5L58,24.12C58,24.64,58.35,25.09,58.85,25.21C59.23,25.31,59.62,25.39,60,25.45L60,23C60,14.72,53.28,8,45,8C36.72,8,30,14.72,30,23L30,35L32,35L32,22.5C32,14.77,37.27,8.5,45,8.5Z" fill="currentColor"/><path d="M32,35C29.48,36.26,26.52,36.26,24,35L24,33C26.5,34.32,29.5,34.32,32,33Z" fill="currentColor"/><path d="M23,35C18.58,35,15,38.58,15,43L15,82C15,86.42,18.58,90,23,90L67,90C71.42,90,75,86.42,75,82L75,43C75,38.58,71.42,35,67,35Z" fill="currentColor"/><path d="M23,40C21.34,40,20,41.34,20,43L20,82C20,83.66,21.34,85,23,85L67,85C68.66,85,70,83.66,70,82L70,43C70,41.34,68.66,40,67,40Z" fill="currentColor"/><path d="M27,45L58,45L25,78L25,47C25,45.9,25.9,45,27,45Z" fill="currentColor"/><path d="M63,80L33,80L65,45L65,78C65,79.1,64.1,80,63,80Z" fill="currentColor" opacity="0.5"/><path d="M15,43C15,38.58,18.58,35,23,35L55,35L26.42,37.15C21.49,37.53,17.58,41.44,17.2,46.36L15,75Z" fill="currentColor"/><path d="M75,82C75,86.42,71.42,90,67,90L50,90L64.65,88.9C69.58,88.52,73.49,84.61,73.87,79.69L75,65Z" fill="currentColor"/><path d="M65,79C65,79.55,64.55,80,64,80L40,80L56.36,78.82C60.3,78.53,63.45,75.41,63.76,71.47L65,56Z" fill="currentColor"/><path d="M25,46C25,45.45,25.45,45,26,45L44,45L34.86,45.91C29.96,46.39,26.15,50.37,25.86,55.28L25,70Z" fill="currentColor"/><path d="M45.5,52C42.67,52,40.39,54.36,40.39,57.26C40.39,59.19,41.39,60.87,42.9,61.8L40,74L51,74L48.1,61.8C49.59,60.88,50.61,59.19,50.61,57.26C50.61,54.36,48.33,52,45.5,52Z" fill="currentColor"/></svg>