<svg xmlns="http://www.w3.org/2000/svg" viewBox="0 0 90 90"><path d="M90,45C90,20.15,69.85,0,45,0C20.15,0,0,20.15,0,45C0,69.85,20.15,90,45,90C69.85,90,90,69.85,90,45Z" fill="currentColor"/><path d="M27.07,18.7C27.9,18.97,28.66,19.41,29.31,19.99C29.96,20.58,30.48,21.29,30.83,22.09C31.19,22.89,31.37,23.75,31.37,24.62C31.37,25.5,31.19,26.36,30.83,27.16C30.48,27.95,29.96,28.67,29.31,29.25C28.66,29.84,27.9,30.28,27.07,30.55C26.24,30.82,25.36,30.91,24.5,30.83C23.65,30.88,22.8,30.77,22,30.48C21.2,30.2,20.47,29.75,19.86,29.16C19.24,28.58,18.75,27.88,18.42,27.09C18.09,26.31,17.92,25.47,17.93,24.62C17.94,23.78,18.11,22.94,18.45,22.17C18.78,21.39,19.27,20.7,19.89,20.12C20.5,19.54,21.23,19.09,22.02,18.8C22.81,18.5,23.65,18.38,24.5,18.42C25.36,18.33,26.24,18.43,27.07,18.7Z" fill="currentColor"/><path d="M73.35,50.97L73.35,71.58L61.44,71.58L61.44,52.38C61.44,47.56,59.74,44.28,55.41,44.28C54.06,44.29,52.76,44.72,51.67,45.5C50.58,46.28,49.75,47.38,49.3,48.64C48.97,49.58,48.81,50.57,48.84,51.56L48.84,71.58L36.97,71.58C36.97,71.58,36.97,39.06,36.97,35.71L48.84,35.71L48.84,40.8C49.91,38.92,51.48,37.37,53.37,36.32C55.27,35.28,57.41,34.77,59.57,34.86L59.64,34.83C67.48,34.83,73.35,39.98,73.35,50.97Z" fill="currentColor"/><path d="M30.37,35.71L30.37,71.58L18.46,71.58L18.46,35.71Z" fill="currentColor"/></svg>