<svg xmlns="http://www.w3.org/2000/svg" viewBox="0 0 90 90"><path d="M90,45C90,20.15,69.85,0,45,0C20.15,0,0,20.15,0,45C0,69.85,20.15,90,45,90C69.85,90,90,69.85,90,45Z" fill="currentColor"/><path d="M47.57,30.29C60.59,24.88,63.29,23.94,65.06,23.91C65.44,23.9,66.31,24,66.87,24.45C67.35,24.84,67.48,25.36,67.54,25.72C67.6,26.09,67.68,26.92,67.62,27.57C66.91,34.98,63.86,52.97,62.31,61.27C61.65,64.78,60.36,65.96,59.1,66.07C56.38,66.32,54.31,64.27,51.68,62.55C47.55,59.84,45.22,58.16,41.22,55.52C36.59,52.47,39.59,50.79,42.23,48.05C42.92,47.34,54.91,36.43,55.14,35.44C55.17,35.31,55.2,34.85,54.92,34.61C54.65,34.37,54.25,34.45,53.95,34.51C53.54,34.61,46.95,38.96,34.18,47.58C32.31,48.87,30.62,49.49,29.1,49.46C27.42,49.42,24.21,48.51,21.81,47.74C18.88,46.78,16.54,46.28,16.75,44.66C16.85,43.81,18.01,42.95,20.23,42.07C33.9,36.11,43.01,32.19,47.57,30.29Z" fill="currentColor"/></svg>