<svg xmlns="http://www.w3.org/2000/svg" viewBox="0 0 90 90"><path d="M90,45C90,20.15,69.85,0,45,0C20.15,0,0,20.15,0,45C0,69.85,20.15,90,45,90C69.85,90,90,69.85,90,45Z" fill="currentColor"/><path d="M65.55,41.97L52.23,41.97L52.23,32.96C52.23,29.16,54.09,25.45,60.06,25.45L66.12,25.45L66.12,13.63C66.12,13.63,60.62,12.69,55.37,12.69C44.4,12.69,37.22,19.34,37.22,31.38L37.22,41.97L25.02,41.97L25.02,55.85L37.22,55.85L37.22,89.42C39.67,89.8,42.17,90,44.73,90C47.28,90,49.79,89.8,52.23,89.42L52.23,55.85L63.42,55.85Z" fill="currentColor"/></svg>