<svg xmlns="http://www.w3.org/2000/svg" viewBox="0 0 90 90"><path d="M80.55,30.2C65.45,38.52,67.9,60.23,83.16,66.04C81.06,70.72,80.05,72.8,77.35,76.95C73.57,82.73,68.26,89.94,61.66,89.99C55.8,90.05,54.3,86.15,46.35,86.2C38.4,86.24,36.74,90.06,30.88,90C24.29,89.94,19.25,83.44,15.47,77.66C4.93,61.5,3.81,42.52,10.32,32.43C14.95,25.27,22.25,21.08,29.11,21.08C36.09,21.08,40.48,24.93,46.26,24.93C51.87,24.93,55.28,21.07,63.36,21.07C69.47,21.07,75.95,24.42,80.55,30.2Z" fill="currentColor"/><path d="M57.24,14.61C54.1,18.67,48.68,21.82,43.44,21.65C42.48,16.42,44.93,11.03,47.92,7.4C51.19,3.4,56.79,0.33,61.59,0L61.59,0C62.4,5.47,60.17,10.82,57.24,14.61Z" fill="currentColor"/></svg>