<svg xmlns="http://www.w3.org/2000/svg" viewBox="0 0 90 90"><path d="M20,5L70,5C78.28,5,85,11.72,85,20L85,70C85,78.28,78.28,85,70,85L20,85C11.72,85,5,78.28,5,70L5,20C5,11.72,11.72,5,20,5Z" fill="currentColor"/><path d="M30.77,72.49C27.53,70.87,24.69,68.8,22.21,66.25C15.54,59.41,12.74,49.93,14.53,40.19C16,32.17,20.29,25.49,26.7,21.25C32.74,17.25,40.66,15.36,49.88,15.71L51.93,15.78L52.61,15.35C55.28,13.62,58.05,12.74,62.71,12.14C63.98,11.98,64.16,11.97,64.34,12.06C64.57,12.18,64.64,12.31,64.64,12.6C64.64,12.7,64.21,14.64,63.68,16.91C62.73,20.98,62.72,21.04,62.84,21.29C62.9,21.43,63.32,22.19,63.75,22.98C64.19,23.77,64.66,24.63,64.81,24.9C64.95,25.16,66.28,27.58,67.77,30.26C69.25,32.95,71.38,36.81,72.49,38.83C75.54,44.36,77.19,47.36,77.6,48.09C78.07,48.94,78.19,49.49,78.19,50.82C78.18,51.68,78.15,51.97,77.99,52.58C77.18,55.71,74.31,58.38,69.7,60.27C68.66,60.7,67.51,61.08,67.25,61.08C67.01,61.08,66.88,60.93,66.18,59.86C64.93,57.94,62.5,55.16,60.03,52.81C58.61,51.47,58.13,51.07,54.71,48.41C50.37,45.03,48.81,43.7,46.73,41.63C42.97,37.87,41.19,34.78,40.92,31.55C40.84,30.53,41.1,28.92,41.4,28.62C41.79,28.23,42.5,28.61,42.4,29.16C42.37,29.3,42.33,29.77,42.31,30.2C42.28,30.84,42.3,31.09,42.42,31.58C43.02,33.95,45.28,36.67,49.38,39.93C51.28,41.44,52.56,42.36,56.55,45.08C61.44,48.41,61.91,48.79,64.24,51.16C66.41,53.38,67.52,54.76,68.33,56.22C68.54,56.61,68.72,56.93,68.73,56.94C68.76,57,69.68,56.71,70.24,56.48C72.61,55.46,74.14,53.43,74.61,50.7L74.73,49.98L72.54,46.32C71.34,44.3,69.75,41.65,69.01,40.41C67.01,37.06,59.36,24.24,58.84,23.36C58.59,22.94,58.37,22.53,58.35,22.44C58.33,22.35,58.68,21.22,59.26,19.57C60.35,16.44,60.35,16.68,59.26,16.96C57.58,17.39,55.94,18.17,52.62,20.13C51.95,20.53,51.44,20.78,51.32,20.78C51.2,20.78,50.71,20.71,50.21,20.63C47.88,20.26,45.44,20.11,43.09,20.2C37.9,20.4,33.11,21.97,29.12,24.78C24.64,27.93,20.81,33.11,19,38.45C16.19,46.77,18.36,56.39,24.68,63.58C29.38,68.92,35.81,72.32,43.02,73.29C44.51,73.48,47.29,73.56,48.78,73.44C55.42,72.9,61.25,70.31,65.97,65.79C66.72,65.08,66.86,64.97,67.08,64.97C67.65,64.97,67.86,65.43,67.54,65.97C66.83,67.2,64.81,69.4,63.27,70.63C59.49,73.68,54.72,75.51,49.23,76.04C48.18,76.14,44.92,76.18,43.9,76.1C39.35,75.76,34.78,74.5,30.77,72.49Z" fill="currentColor"/></svg>