<svg xmlns="http://www.w3.org/2000/svg" viewBox="0 0 90 90"><path d="M10.98,65.61C6.04,65.61,2.04,61.62,2.04,56.67C2.04,51.73,6.04,47.73,10.98,47.73L19.92,47.73L19.92,56.67C19.92,61.62,15.92,65.61,10.98,65.61Z" fill="currentColor"/><path d="M33.33,47.73C38.27,47.73,42.27,51.73,42.27,56.67L42.27,79.02C42.27,83.96,38.27,87.96,33.33,87.96C28.38,87.96,24.39,83.96,24.39,79.02L24.39,56.67C24.39,51.73,28.38,47.73,33.33,47.73Z" fill="currentColor"/><path d="M24.39,11.85C24.39,6.9,28.38,2.91,33.33,2.91C38.27,2.91,42.27,6.9,42.27,11.85L42.27,20.78L33.33,20.78C28.38,20.78,24.39,16.79,24.39,11.85Z" fill="currentColor"/><path d="M42.27,34.26C42.27,39.2,38.27,43.2,33.33,43.2L10.91,43.2C5.97,43.2,1.97,39.2,1.97,34.26C1.97,29.32,5.97,25.32,10.91,25.32L33.33,25.32C38.27,25.32,42.27,29.32,42.27,34.26Z" fill="currentColor"/><path d="M78.09,25.32C83.03,25.32,87.03,29.32,87.03,34.26C87.03,39.2,83.03,43.2,78.09,43.2L69.15,43.2L69.15,34.26C69.15,29.32,73.14,25.32,78.09,25.32Z" fill="currentColor"/><path d="M55.74,43.2C50.8,43.2,46.8,39.2,46.8,34.26L46.8,11.85C46.8,6.9,50.8,2.91,55.74,2.91C60.68,2.91,64.68,6.9,64.68,11.85L64.68,34.26C64.68,39.2,60.68,43.2,55.74,43.2Z" fill="currentColor"/><path d="M64.68,79.02C64.68,83.96,60.68,87.96,55.74,87.96C50.8,87.96,46.8,83.96,46.8,79.02L46.8,70.08L55.74,70.08C60.68,70.08,64.68,74.08,64.68,79.02Z" fill="currentColor"/><path d="M46.8,56.67C46.8,51.73,50.8,47.73,55.74,47.73L78.15,47.73C83.1,47.73,87.09,51.73,87.09,56.67C87.09,61.62,83.1,65.61,78.15,65.61L55.74,65.61C50.8,65.61,46.8,61.62,46.8,56.67Z" fill="currentColor"/></svg>