<svg xmlns="http://www.w3.org/2000/svg" viewBox="0 0 90 90"><path d="M45,76.52C60.25,76.52,75.63,75.89,80.25,74.64C84.13,73.52,87.25,70.64,88.25,66.77C89.5,62.02,90,53.52,90,45.02C90,36.52,89.5,27.89,88.25,23.27C87.25,19.39,84.13,16.27,80.25,15.27C75.63,14.02,60.25,13.39,45,13.39C29.75,13.39,14.5,14.02,9.75,15.27C5.88,16.27,2.75,19.39,1.75,23.27C0.63,27.89,0,36.52,0,45.02C0,53.52,0.63,62.02,1.75,66.77C2.75,70.64,5.88,73.52,9.75,74.64C14.5,75.89,29.75,76.52,45,76.52Z" fill="currentColor"/><path d="M36,31.52L59.38,45.02L36,58.52Z" fill="currentColor"/></svg>