<svg xmlns="http://www.w3.org/2000/svg" viewBox="0 0 90 90"><path d="M84.77,60.9C82.6,66.12,79.44,70.86,75.44,74.85C71.45,78.84,66.71,82.01,61.49,84.17C56.28,86.33,50.69,87.45,45.04,87.45C33.63,87.45,22.7,82.92,14.63,74.85C6.57,66.79,2.04,55.85,2.04,44.45C2.04,33.04,6.57,22.1,14.63,14.04C22.7,5.98,33.63,1.45,45.04,1.45C50.69,1.45,56.28,2.56,61.49,4.72C66.71,6.88,71.45,10.05,75.44,14.04C79.44,18.03,82.6,22.77,84.77,27.99C86.93,33.21,88.04,38.8,88.04,44.45C88.04,50.09,86.93,55.68,84.77,60.9Z" fill="currentColor"/><path d="M73.06,72.47C65.63,79.9,55.55,84.08,45.04,84.08C34.53,84.08,24.45,79.9,17.02,72.47C9.58,65.04,5.41,54.96,5.41,44.45C5.41,33.94,9.58,23.85,17.02,16.42C24.45,8.99,34.53,4.82,45.04,4.82C55.55,4.82,65.63,8.99,73.06,16.42C80.49,23.85,84.67,33.94,84.67,44.45C84.67,54.96,80.49,65.04,73.06,72.47Z" fill="currentColor"/><path d="M44.46,7.46L44.46,14.12C44.46,14.44,44.72,14.7,45.04,14.7C45.36,14.7,45.62,14.44,45.62,14.12L45.62,7.46C45.62,7.14,45.36,6.88,45.04,6.88C44.72,6.88,44.46,7.14,44.46,7.46Z" fill="currentColor"/><path d="M41.14,7.12C40.82,7.15,40.59,7.44,40.63,7.76L40.92,10.54C40.95,10.86,41.23,11.09,41.55,11.06C41.87,11.03,42.1,10.74,42.07,10.42L41.78,7.64C41.75,7.36,41.53,7.15,41.26,7.12C41.22,7.12,41.18,7.12,41.14,7.12Z" fill="currentColor"/><path d="M48.33,7.64L48.03,10.43C48,10.74,48.23,11.03,48.55,11.06C48.87,11.1,49.15,10.87,49.18,10.55L49.48,7.76C49.51,7.44,49.28,7.16,48.96,7.12C48.92,7.12,48.88,7.12,48.84,7.12C48.58,7.15,48.36,7.36,48.33,7.64Z" fill="currentColor"/><path d="M37.26,7.7C36.95,7.76,36.75,8.07,36.81,8.38L38.19,14.9C38.26,15.21,38.57,15.41,38.88,15.35C39.19,15.28,39.39,14.98,39.32,14.66L37.94,8.14C37.89,7.87,37.64,7.68,37.38,7.68C37.34,7.68,37.3,7.69,37.26,7.7Z" fill="currentColor"/><path d="M52.16,8.15L50.77,14.67C50.71,14.98,50.91,15.29,51.22,15.35C51.53,15.42,51.84,15.22,51.9,14.91L53.29,8.39C53.36,8.07,53.16,7.77,52.84,7.7C52.81,7.69,52.77,7.69,52.73,7.69C52.46,7.69,52.22,7.87,52.16,8.15Z" fill="currentColor"/><path d="M33.44,8.76C33.14,8.85,32.97,9.18,33.07,9.48L33.94,12.15C34.04,12.45,34.36,12.62,34.67,12.52C34.97,12.42,35.13,12.1,35.04,11.79L34.17,9.13C34.1,8.9,33.89,8.75,33.67,8.73C33.6,8.72,33.52,8.73,33.44,8.76Z" fill="currentColor"/><path d="M55.91,9.13L55.05,11.79C54.95,12.1,55.11,12.42,55.42,12.52C55.72,12.62,56.05,12.46,56.14,12.15L57.01,9.48C57.11,9.18,56.95,8.86,56.64,8.76C56.56,8.73,56.49,8.72,56.41,8.73C56.19,8.75,55.99,8.9,55.91,9.13Z" fill="currentColor"/><path d="M29.78,10.12C29.49,10.25,29.36,10.59,29.49,10.88L32.19,16.97C32.32,17.27,32.66,17.4,32.96,17.27C33.25,17.14,33.38,16.8,33.25,16.5L30.54,10.41C30.45,10.19,30.23,10.07,30.01,10.07C29.93,10.07,29.85,10.09,29.78,10.12Z" fill="currentColor"/><path d="M59.58,10.43L56.86,16.52C56.73,16.81,56.86,17.15,57.16,17.28C57.45,17.41,57.79,17.28,57.92,16.99L60.63,10.9C60.77,10.61,60.63,10.27,60.34,10.14C60.27,10.11,60.19,10.09,60.12,10.09C59.89,10.09,59.68,10.21,59.58,10.43Z" fill="currentColor"/><path d="M26.27,11.95C26,12.11,25.9,12.46,26.06,12.74L27.47,15.16C27.63,15.44,27.98,15.53,28.25,15.37C28.53,15.21,28.63,14.86,28.47,14.59L27.06,12.16C26.96,11.98,26.79,11.88,26.6,11.87C26.49,11.86,26.38,11.89,26.27,11.95Z" fill="currentColor"/><path d="M63.01,12.16L61.61,14.59C61.45,14.86,61.55,15.21,61.82,15.37C62.1,15.53,62.45,15.44,62.61,15.16L64.01,12.74C64.17,12.46,64.08,12.11,63.8,11.95C63.7,11.89,63.58,11.86,63.47,11.87C63.29,11.88,63.11,11.98,63.01,12.16Z" fill="currentColor"/><path d="M22.98,14.04C22.72,14.23,22.67,14.59,22.85,14.85L26.77,20.24C26.95,20.5,27.31,20.56,27.57,20.37C27.83,20.18,27.89,19.82,27.7,19.56L23.79,14.17C23.67,14.01,23.49,13.92,23.3,13.93C23.19,13.93,23.08,13.97,22.98,14.04Z" fill="currentColor"/><path d="M66.33,14.2L62.41,19.59C62.22,19.84,62.28,20.2,62.54,20.39C62.8,20.58,63.16,20.52,63.34,20.27L67.26,14.88C67.45,14.62,67.4,14.26,67.14,14.07C67.04,14,66.93,13.96,66.82,13.96C66.63,13.95,66.45,14.04,66.33,14.2Z" fill="currentColor"/><path d="M19.93,16.55C19.69,16.77,19.67,17.13,19.89,17.37L21.76,19.45C21.98,19.69,22.34,19.71,22.58,19.5C22.82,19.28,22.84,18.92,22.62,18.68L20.75,16.6C20.64,16.48,20.5,16.41,20.35,16.41C20.2,16.4,20.05,16.45,19.93,16.55Z" fill="currentColor"/><path d="M69.33,16.6L67.46,18.68C67.24,18.92,67.26,19.29,67.5,19.5C67.74,19.71,68.1,19.69,68.32,19.46L70.19,17.37C70.41,17.14,70.39,16.77,70.15,16.56C70.03,16.45,69.88,16.4,69.73,16.41C69.58,16.42,69.44,16.48,69.33,16.6Z" fill="currentColor"/><path d="M17.12,19.31C16.91,19.55,16.93,19.92,17.16,20.13L22.12,24.59C22.35,24.8,22.72,24.78,22.93,24.55C23.15,24.31,23.13,23.94,22.89,23.73L17.94,19.27C17.82,19.16,17.67,19.12,17.52,19.12C17.37,19.13,17.23,19.2,17.12,19.31Z" fill="currentColor"/><path d="M72.16,19.29L67.2,23.75C66.96,23.96,66.94,24.32,67.16,24.56C67.37,24.8,67.74,24.82,67.97,24.61L72.93,20.15C73.17,19.94,73.19,19.57,72.97,19.33C72.87,19.22,72.72,19.15,72.58,19.14C72.43,19.13,72.28,19.18,72.16,19.29Z" fill="currentColor"/><path d="M14.68,22.39C14.49,22.65,14.55,23.01,14.81,23.19L17.07,24.84C17.33,25.03,17.69,24.97,17.88,24.71C18.07,24.46,18.01,24.1,17.75,23.91L15.49,22.26C15.39,22.19,15.28,22.15,15.17,22.15C14.98,22.14,14.8,22.23,14.68,22.39Z" fill="currentColor"/><path d="M74.61,22.28L72.34,23.93C72.08,24.11,72.02,24.47,72.21,24.73C72.4,24.99,72.76,25.05,73.02,24.86L75.29,23.22C75.54,23.03,75.6,22.67,75.41,22.41C75.3,22.25,75.11,22.16,74.93,22.17C74.82,22.17,74.7,22.21,74.61,22.28Z" fill="currentColor"/><path d="M12.51,25.66C12.35,25.94,12.44,26.29,12.72,26.45L18.49,29.79C18.77,29.95,19.12,29.85,19.28,29.57C19.44,29.3,19.35,28.95,19.07,28.79L13.3,25.45C13.19,25.39,13.08,25.37,12.97,25.38C12.78,25.39,12.61,25.49,12.51,25.66Z" fill="currentColor"/><path d="M76.78,25.45L71.01,28.79C70.73,28.95,70.64,29.3,70.8,29.57C70.96,29.85,71.31,29.95,71.59,29.79L77.36,26.45C77.64,26.29,77.73,25.94,77.57,25.66C77.47,25.49,77.29,25.39,77.11,25.38C77,25.37,76.88,25.39,76.78,25.45Z" fill="currentColor"/><path d="M10.77,29.16C10.64,29.45,10.77,29.79,11.06,29.92L13.62,31.06C13.91,31.19,14.25,31.06,14.38,30.77C14.51,30.48,14.38,30.14,14.09,30.01L11.53,28.87C11.46,28.83,11.38,28.82,11.3,28.82C11.08,28.81,10.86,28.94,10.77,29.16Z" fill="currentColor"/><path d="M78.56,28.89L76,30.03C75.71,30.16,75.57,30.5,75.71,30.79C75.84,31.09,76.18,31.22,76.47,31.09L79.03,29.95C79.32,29.82,79.45,29.48,79.32,29.18C79.22,28.96,79.01,28.84,78.78,28.84C78.71,28.84,78.63,28.86,78.56,28.89Z" fill="currentColor"/><path d="M9.32,32.81C9.22,33.11,9.39,33.44,9.69,33.54L16.03,35.6C16.33,35.7,16.66,35.54,16.76,35.23C16.86,34.93,16.69,34.6,16.39,34.5L10.05,32.44C9.98,32.41,9.9,32.41,9.82,32.41C9.6,32.43,9.4,32.58,9.32,32.81Z" fill="currentColor"/><path d="M80.03,32.46L73.7,34.52C73.39,34.62,73.23,34.95,73.33,35.25C73.42,35.56,73.75,35.72,74.05,35.62L80.39,33.56C80.7,33.46,80.86,33.14,80.76,32.83C80.69,32.61,80.49,32.46,80.26,32.44C80.19,32.43,80.11,32.44,80.03,32.46Z" fill="currentColor"/><path d="M8.33,36.64C8.26,36.96,8.46,37.26,8.78,37.33L11.52,37.91C11.83,37.98,12.14,37.78,12.2,37.47C12.27,37.15,12.07,36.85,11.76,36.78L9.02,36.2C8.98,36.19,8.94,36.19,8.9,36.19C8.63,36.18,8.39,36.37,8.33,36.64Z" fill="currentColor"/><path d="M81.06,36.2L78.32,36.79C78.01,36.85,77.81,37.16,77.87,37.47C77.94,37.78,78.25,37.98,78.56,37.92L81.3,37.33C81.62,37.27,81.81,36.96,81.75,36.65C81.69,36.38,81.45,36.19,81.18,36.19C81.14,36.19,81.1,36.2,81.06,36.2Z" fill="currentColor"/><path d="M7.68,40.5C7.65,40.82,7.88,41.1,8.2,41.13L14.82,41.83C15.14,41.87,15.43,41.64,15.46,41.32C15.49,41,15.26,40.72,14.95,40.68L8.32,39.98C8.28,39.98,8.24,39.98,8.2,39.98C7.93,40.01,7.71,40.22,7.68,40.5Z" fill="currentColor"/><path d="M81.76,40.03L75.14,40.72C74.82,40.76,74.59,41.04,74.62,41.36C74.65,41.68,74.94,41.91,75.26,41.87L81.88,41.18C82.2,41.15,82.43,40.87,82.4,40.55C82.37,40.27,82.15,40.06,81.88,40.03C81.84,40.03,81.8,40.03,81.76,40.03Z" fill="currentColor"/><path d="M7.51,44.45C7.51,44.77,7.77,45.02,8.09,45.02L10.89,45.02C11.21,45.02,11.47,44.77,11.47,44.45C11.47,44.13,11.21,43.87,10.89,43.87L8.09,43.87C7.77,43.87,7.51,44.13,7.51,44.45Z" fill="currentColor"/><path d="M78.61,44.45C78.61,44.77,78.86,45.02,79.18,45.02L81.99,45.02C82.31,45.02,82.57,44.77,82.57,44.45C82.57,44.13,82.31,43.87,81.99,43.87L79.18,43.87C78.86,43.87,78.61,44.13,78.61,44.45Z" fill="currentColor"/><path d="M14.82,47.02L8.19,47.71C7.87,47.74,7.64,48.03,7.68,48.35C7.71,48.66,7.99,48.89,8.31,48.86L14.94,48.17C15.26,48.14,15.49,47.85,15.46,47.53C15.43,47.26,15.21,47.04,14.94,47.02C14.9,47.01,14.86,47.01,14.82,47.02Z" fill="currentColor"/><path d="M74.62,47.57C74.58,47.89,74.81,48.18,75.13,48.21L81.76,48.91C82.08,48.94,82.36,48.71,82.39,48.4C82.43,48.08,82.2,47.79,81.88,47.76L75.25,47.06C75.21,47.06,75.17,47.06,75.14,47.06C74.87,47.09,74.65,47.3,74.62,47.57Z" fill="currentColor"/><path d="M11.52,50.98L8.78,51.56C8.46,51.62,8.26,51.93,8.33,52.24C8.4,52.56,8.7,52.75,9.02,52.69L11.76,52.11C12.07,52.04,12.27,51.73,12.2,51.42C12.14,51.15,11.9,50.96,11.63,50.96C11.6,50.96,11.56,50.97,11.52,50.98Z" fill="currentColor"/><path d="M77.87,51.43C77.81,51.74,78.01,52.05,78.32,52.11L81.06,52.69C81.37,52.76,81.68,52.56,81.75,52.25C81.81,51.94,81.61,51.63,81.3,51.56L78.56,50.98C78.52,50.97,78.48,50.97,78.44,50.97C78.17,50.97,77.93,51.15,77.87,51.43Z" fill="currentColor"/><path d="M16.02,53.27L9.69,55.33C9.38,55.43,9.22,55.75,9.31,56.06C9.41,56.36,9.74,56.53,10.04,56.43L16.38,54.37C16.69,54.27,16.85,53.95,16.75,53.64C16.68,53.41,16.48,53.26,16.25,53.24C16.18,53.24,16.1,53.25,16.02,53.27Z" fill="currentColor"/><path d="M73.32,53.66C73.22,53.97,73.38,54.29,73.69,54.39L80.03,56.45C80.33,56.55,80.66,56.39,80.75,56.08C80.85,55.78,80.69,55.46,80.38,55.36L74.05,53.29C73.97,53.27,73.89,53.26,73.82,53.26C73.59,53.28,73.39,53.43,73.32,53.66Z" fill="currentColor"/><path d="M13.61,57.81L11.05,58.95C10.76,59.08,10.62,59.42,10.76,59.71C10.89,60,11.23,60.13,11.52,60L14.08,58.86C14.37,58.73,14.5,58.39,14.37,58.1C14.27,57.88,14.06,57.75,13.83,57.76C13.76,57.76,13.68,57.77,13.61,57.81Z" fill="currentColor"/><path d="M75.7,58.12C75.57,58.41,75.7,58.75,75.99,58.88L78.55,60.03C78.84,60.16,79.18,60.03,79.31,59.73C79.44,59.44,79.31,59.1,79.02,58.97L76.46,57.83C76.39,57.8,76.31,57.78,76.23,57.78C76.01,57.77,75.79,57.9,75.7,58.12Z" fill="currentColor"/><path d="M18.49,59.11L12.72,62.44C12.44,62.6,12.35,62.95,12.51,63.23C12.67,63.51,13.02,63.6,13.3,63.44L19.07,60.11C19.35,59.95,19.44,59.6,19.28,59.32C19.18,59.15,19,59.04,18.82,59.03C18.71,59.02,18.59,59.05,18.49,59.11Z" fill="currentColor"/><path d="M70.8,59.32C70.64,59.6,70.73,59.95,71.01,60.11L76.78,63.44C77.06,63.6,77.41,63.51,77.57,63.23C77.73,62.95,77.64,62.6,77.36,62.44L71.59,59.11C71.48,59.05,71.37,59.02,71.26,59.03C71.07,59.04,70.9,59.15,70.8,59.32Z" fill="currentColor"/><path d="M17.06,64.03L14.79,65.68C14.53,65.87,14.48,66.23,14.66,66.48C14.85,66.74,15.21,66.8,15.47,66.61L17.74,64.97C18,64.78,18.06,64.42,17.87,64.16C17.75,64,17.57,63.91,17.38,63.92C17.27,63.93,17.16,63.96,17.06,64.03Z" fill="currentColor"/><path d="M72.2,64.18C72.01,64.44,72.06,64.8,72.32,64.99L74.59,66.63C74.85,66.82,75.21,66.77,75.4,66.51C75.59,66.25,75.53,65.89,75.27,65.7L73,64.05C72.91,63.98,72.79,63.94,72.68,63.94C72.5,63.93,72.31,64.02,72.2,64.18Z" fill="currentColor"/><path d="M22.1,64.29L17.15,68.74C16.91,68.96,16.89,69.32,17.1,69.56C17.32,69.8,17.68,69.82,17.92,69.6L22.88,65.15C23.11,64.93,23.13,64.57,22.92,64.33C22.81,64.21,22.67,64.15,22.52,64.14C22.37,64.13,22.22,64.18,22.1,64.29Z" fill="currentColor"/><path d="M67.14,64.35C66.93,64.58,66.95,64.95,67.19,65.16L72.14,69.62C72.38,69.84,72.74,69.82,72.96,69.58C73.17,69.34,73.15,68.98,72.91,68.76L67.96,64.3C67.84,64.2,67.69,64.15,67.54,64.16C67.4,64.16,67.25,64.23,67.14,64.35Z" fill="currentColor"/><path d="M26.73,68.63L22.81,74.02C22.62,74.27,22.68,74.64,22.94,74.82C23.2,75.01,23.56,74.95,23.75,74.7L27.67,69.31C27.86,69.05,27.8,68.69,27.54,68.5C27.44,68.43,27.33,68.39,27.22,68.39C27.04,68.38,26.85,68.46,26.73,68.63Z" fill="currentColor"/><path d="M62.5,68.52C62.24,68.71,62.19,69.07,62.38,69.33L66.29,74.72C66.48,74.98,66.84,75.04,67.1,74.85C67.35,74.67,67.41,74.31,67.22,74.05L63.31,68.65C63.19,68.49,63.01,68.41,62.82,68.41C62.71,68.42,62.6,68.45,62.5,68.52Z" fill="currentColor"/><path d="M21.76,69.44L19.89,71.52C19.67,71.76,19.69,72.12,19.93,72.34C20.17,72.55,20.53,72.53,20.74,72.29L22.62,70.21C22.83,69.97,22.81,69.61,22.58,69.39C22.46,69.29,22.31,69.24,22.16,69.25C22.01,69.25,21.87,69.32,21.76,69.44Z" fill="currentColor"/><path d="M67.5,69.4C67.26,69.61,67.24,69.97,67.45,70.21L69.33,72.3C69.54,72.53,69.91,72.55,70.15,72.34C70.38,72.12,70.4,71.76,70.19,71.52L68.31,69.44C68.21,69.32,68.06,69.26,67.91,69.25C67.77,69.24,67.62,69.29,67.5,69.4Z" fill="currentColor"/><path d="M32.16,71.9L29.44,77.99C29.31,78.28,29.44,78.62,29.73,78.75C30.03,78.88,30.37,78.75,30.5,78.46L33.21,72.37C33.34,72.08,33.21,71.74,32.92,71.61C32.85,71.58,32.77,71.56,32.7,71.56C32.47,71.55,32.26,71.68,32.16,71.9Z" fill="currentColor"/><path d="M57.12,71.63C56.83,71.76,56.7,72.1,56.83,72.39L59.53,78.48C59.66,78.77,60,78.9,60.3,78.77C60.59,78.64,60.72,78.3,60.59,78.01L57.88,71.92C57.78,71.7,57.57,71.57,57.34,71.58C57.27,71.58,57.19,71.59,57.12,71.63Z" fill="currentColor"/><path d="M27.47,73.73L26.06,76.16C25.9,76.43,26,76.79,26.27,76.95C26.55,77.11,26.9,77.01,27.06,76.73L28.47,74.31C28.63,74.03,28.53,73.68,28.25,73.52C28.15,73.46,28.04,73.43,27.93,73.44C27.74,73.45,27.57,73.56,27.47,73.73Z" fill="currentColor"/><path d="M61.82,73.52C61.55,73.68,61.45,74.03,61.61,74.31L63.01,76.73C63.17,77.01,63.53,77.11,63.8,76.95C64.08,76.79,64.17,76.43,64.01,76.16L62.61,73.73C62.51,73.56,62.34,73.45,62.15,73.44C62.04,73.43,61.93,73.46,61.82,73.52Z" fill="currentColor"/><path d="M38.17,73.99L36.79,80.51C36.72,80.82,36.92,81.12,37.23,81.19C37.55,81.26,37.85,81.06,37.92,80.75L39.3,74.23C39.37,73.91,39.17,73.61,38.86,73.54C38.82,73.53,38.78,73.53,38.74,73.53C38.47,73.53,38.23,73.71,38.17,73.99Z" fill="currentColor"/><path d="M51.2,73.54C50.89,73.61,50.69,73.92,50.75,74.23L52.13,80.75C52.2,81.06,52.51,81.26,52.82,81.2C53.13,81.13,53.33,80.82,53.26,80.51L51.88,73.99C51.83,73.72,51.58,73.53,51.32,73.53C51.28,73.53,51.24,73.54,51.2,73.54Z" fill="currentColor"/><path d="M44.46,74.77L44.46,81.43C44.46,81.75,44.72,82.01,45.04,82.01C45.36,82.01,45.62,81.75,45.62,81.43L45.62,74.77C45.62,74.45,45.36,74.19,45.04,74.19C44.72,74.19,44.46,74.45,44.46,74.77Z" fill="currentColor"/><path d="M33.93,76.74L33.07,79.41C32.97,79.71,33.13,80.04,33.44,80.14C33.74,80.23,34.07,80.07,34.16,79.76L35.03,77.1C35.13,76.79,34.96,76.47,34.66,76.37C34.58,76.35,34.51,76.34,34.43,76.34C34.21,76.36,34.01,76.51,33.93,76.74Z" fill="currentColor"/><path d="M55.41,76.37C55.11,76.47,54.94,76.79,55.04,77.1L55.91,79.77C56.01,80.07,56.33,80.24,56.64,80.14C56.94,80.04,57.11,79.71,57.01,79.41L56.14,76.74C56.07,76.51,55.86,76.36,55.64,76.34C55.57,76.34,55.49,76.35,55.41,76.37Z" fill="currentColor"/><path d="M40.89,78.34L40.6,81.13C40.57,81.45,40.8,81.73,41.11,81.77C41.43,81.8,41.72,81.57,41.75,81.25L42.04,78.47C42.08,78.15,41.85,77.86,41.53,77.83C41.49,77.83,41.45,77.83,41.41,77.83C41.14,77.86,40.92,78.07,40.89,78.34Z" fill="currentColor"/><path d="M48.52,77.83C48.21,77.87,47.98,78.15,48.01,78.47L48.3,81.26C48.33,81.57,48.62,81.8,48.94,81.77C49.25,81.74,49.48,81.45,49.45,81.14L49.16,78.35C49.13,78.07,48.91,77.86,48.64,77.83C48.6,77.83,48.56,77.83,48.52,77.83Z" fill="currentColor"/><path d="M40.51,39.7L20.52,71.17L49.76,49.51L72.12,21.33Z" fill="currentColor"/><path d="M40.51,39.7L72.65,18.08L49.57,49.19Z" fill="currentColor"/><path d="M40.51,39.7L17.43,70.81L49.57,49.19Z" fill="currentColor"/><path d="M49.57,49.19L72.65,18.08L17.43,70.81Z" fill="currentColor" opacity="0.243"/></svg>