<svg xmlns="http://www.w3.org/2000/svg" viewBox="0 0 90 90"><path d="M90,45C90,20.15,69.85,0,45,0C20.15,0,0,20.15,0,45C0,69.85,20.15,90,45,90C69.85,90,90,69.85,90,45Z" fill="currentColor"/><path d="M38.86,34.94C38.02,34.83,37.16,34.76,36.29,34.76C25.81,34.76,17.28,43.29,17.28,53.77C17.28,60.21,20.49,65.9,25.4,69.34C22.23,65.94,20.29,61.39,20.29,56.39C20.29,46.06,28.58,37.63,38.86,37.39L38.86,37.39Z" fill="currentColor"/><path d="M47.97,56.72L47.99,15.32L55.55,15.32C55.4,14.47,55.31,13.6,55.31,12.7L44.98,12.7L44.96,54.1C44.79,58.74,40.97,62.46,36.3,62.46C34.84,62.46,33.47,62.1,32.27,61.46C33.85,63.65,36.41,65.08,39.31,65.08L39.31,65.08C43.99,65.08,47.8,61.36,47.97,56.72Z" fill="currentColor"/><path d="M69.68,27.07C66.8,27.07,64.11,26.21,61.85,24.75C63.86,27.05,66.59,28.71,69.68,29.37Z" fill="currentColor"/><path d="M58.32,15.32L55.55,15.32C56.28,19.26,58.62,22.63,61.86,24.75C59.66,22.22,58.32,18.92,58.32,15.32Z" fill="currentColor"/><path d="M27.61,53.78C27.61,57.11,29.5,60.01,32.26,61.46C31.23,60.04,30.62,58.29,30.62,56.4C30.62,51.61,34.52,47.71,39.3,47.71C40.2,47.71,41.06,47.86,41.87,48.11L41.87,37.57C41.03,37.45,40.18,37.38,39.3,37.38C39.15,37.38,39.01,37.39,38.85,37.39L38.85,45.49C38.04,45.24,37.19,45.09,36.29,45.09L36.29,45.09C31.51,45.09,27.61,48.99,27.61,53.78Z" fill="currentColor"/><path d="M69.68,37.4C64.33,37.4,59.36,35.69,55.31,32.78L55.31,53.78C55.31,64.26,46.78,72.79,36.29,72.79C32.24,72.79,28.48,71.51,25.4,69.34C28.87,73.07,33.82,75.41,39.31,75.41C49.79,75.41,58.32,66.88,58.32,56.4L58.32,35.4C62.37,38.31,67.34,40.02,72.69,40.02L72.69,29.69C71.66,29.69,70.65,29.58,69.68,29.37L69.68,29.37Z" fill="currentColor"/><path d="M55.31,32.78C59.36,35.69,64.33,37.4,69.68,37.4L69.68,29.37C66.59,28.71,63.86,27.05,61.85,24.74C58.62,22.63,56.28,19.26,55.55,15.32L47.99,15.32L47.97,56.72C47.8,61.36,43.98,65.08,39.3,65.08C36.41,65.08,33.84,63.65,32.26,61.46C29.5,60,27.61,57.11,27.61,53.77C27.61,48.98,31.51,45.09,36.29,45.09C37.19,45.09,38.05,45.24,38.86,45.49L38.86,37.39C28.58,37.63,20.29,46.06,20.29,56.39C20.29,61.39,22.23,65.94,25.4,69.34C28.49,71.51,32.24,72.79,36.29,72.79C46.78,72.79,55.31,64.26,55.31,53.77L55.31,53.77Z" fill="currentColor"/></svg>