<svg xmlns="http://www.w3.org/2000/svg" viewBox="0 0 90 90" fill="currentColor"><path d="M21,6L71,6C79.28,6,86,12.72,86,21L86,71C86,79.28,79.28,86,71,86L21,86C12.72,86,6,79.28,6,71L6,21C6,12.72,12.72,6,21,6ZM31.77,73.49C28.53,71.87,25.69,69.8,23.21,67.25C16.54,60.41,13.74,50.93,15.53,41.19C17,33.17,21.29,26.49,27.7,22.25C33.74,18.25,41.66,16.36,50.88,16.71L52.93,16.78L53.61,16.35C56.28,14.62,59.05,13.74,63.71,13.14C64.98,12.98,65.16,12.97,65.34,13.06C65.57,13.18,65.64,13.31,65.64,13.6C65.64,13.7,65.21,15.64,64.68,17.91C63.73,21.98,63.72,22.04,63.84,22.29C63.9,22.43,64.32,23.19,64.75,23.98C65.19,24.77,65.66,25.63,65.81,25.9C65.95,26.16,67.28,28.58,68.77,31.26C70.25,33.95,72.38,37.81,73.49,39.83C76.54,45.36,78.19,48.36,78.6,49.09C79.07,49.94,79.19,50.49,79.19,51.82C79.18,52.68,79.15,52.97,78.99,53.58C78.18,56.71,75.31,59.38,70.7,61.27C69.66,61.7,68.51,62.08,68.25,62.08C68.01,62.08,67.88,61.93,67.18,60.86C65.93,58.94,63.5,56.16,61.03,53.81C59.61,52.47,59.13,52.07,55.71,49.41C51.37,46.03,49.81,44.7,47.73,42.63C43.97,38.87,42.19,35.78,41.92,32.55C41.84,31.53,42.1,29.92,42.4,29.62C42.79,29.23,43.5,29.61,43.4,30.16C43.37,30.3,43.33,30.77,43.31,31.2C43.28,31.84,43.3,32.09,43.42,32.58C44.02,34.95,46.28,37.67,50.38,40.93C52.28,42.44,53.56,43.36,57.55,46.08C62.44,49.41,62.91,49.79,65.24,52.16C67.41,54.38,68.52,55.76,69.33,57.22C69.54,57.61,69.72,57.93,69.73,57.94C69.76,58,70.68,57.71,71.24,57.48C73.61,56.46,75.14,54.43,75.61,51.7L75.73,50.98L73.54,47.32C72.34,45.3,70.75,42.65,70.01,41.41C68.01,38.06,60.36,25.24,59.84,24.36C59.59,23.94,59.37,23.53,59.35,23.44C59.33,23.35,59.68,22.22,60.26,20.57C61.35,17.44,61.35,17.68,60.26,17.96C58.58,18.39,56.94,19.17,53.62,21.13C52.95,21.53,52.44,21.78,52.32,21.78C52.2,21.78,51.71,21.71,51.21,21.63C48.88,21.26,46.44,21.11,44.09,21.2C38.9,21.4,34.11,22.97,30.12,25.78C25.64,28.93,21.81,34.11,20,39.45C17.19,47.77,19.36,57.39,25.68,64.58C30.38,69.92,36.81,73.32,44.02,74.29C45.51,74.48,48.29,74.56,49.78,74.44C56.42,73.9,62.25,71.31,66.97,66.79C67.72,66.08,67.86,65.97,68.08,65.97C68.65,65.97,68.86,66.43,68.54,66.97C67.83,68.2,65.81,70.4,64.27,71.63C60.49,74.68,55.72,76.51,50.23,77.04C49.18,77.14,45.92,77.18,44.9,77.1C40.35,76.76,35.78,75.5,31.77,73.49Z"/></svg>