<svg xmlns="http://www.w3.org/2000/svg" viewBox="0 0 90 90" fill="currentColor"><path d="M11.98,66.61C7.04,66.61,3.04,62.62,3.04,57.67C3.04,52.73,7.04,48.73,11.98,48.73L20.92,48.73L20.92,57.67C20.92,62.62,16.92,66.61,11.98,66.61ZM34.33,48.73C39.27,48.73,43.27,52.73,43.27,57.67L43.27,80.02C43.27,84.96,39.27,88.96,34.33,88.96C29.38,88.96,25.39,84.96,25.39,80.02L25.39,57.67C25.39,52.73,29.38,48.73,34.33,48.73ZM25.39,12.85C25.39,7.9,29.38,3.91,34.33,3.91C39.27,3.91,43.27,7.9,43.27,12.85L43.27,21.78L34.33,21.78C29.38,21.78,25.39,17.79,25.39,12.85ZM43.27,35.26C43.27,40.2,39.27,44.2,34.33,44.2L11.91,44.2C6.97,44.2,2.97,40.2,2.97,35.26C2.97,30.32,6.97,26.32,11.91,26.32L34.33,26.32C39.27,26.32,43.27,30.32,43.27,35.26ZM79.09,26.32C84.03,26.32,88.03,30.32,88.03,35.26C88.03,40.2,84.03,44.2,79.09,44.2L70.15,44.2L70.15,35.26C70.15,30.32,74.14,26.32,79.09,26.32ZM56.74,44.2C51.8,44.2,47.8,40.2,47.8,35.26L47.8,12.85C47.8,7.9,51.8,3.91,56.74,3.91C61.68,3.91,65.68,7.9,65.68,12.85L65.68,35.26C65.68,40.2,61.68,44.2,56.74,44.2ZM65.68,80.02C65.68,84.96,61.68,88.96,56.74,88.96C51.8,88.96,47.8,84.96,47.8,80.02L47.8,71.08L56.74,71.08C61.68,71.08,65.68,75.08,65.68,80.02ZM47.8,57.67C47.8,52.73,51.8,48.73,56.74,48.73L79.15,48.73C84.1,48.73,88.09,52.73,88.09,57.67C88.09,62.62,84.1,66.61,79.15,66.61L56.74,66.61C51.8,66.61,47.8,62.62,47.8,57.67Z"/></svg>