<svg xmlns="http://www.w3.org/2000/svg" viewBox="0 0 90 90" fill="currentColor"><path d="M21,6L71,6C79.28,6,86,12.72,86,21L86,71C86,79.28,79.28,86,71,86L21,86C12.72,86,6,79.28,6,71L6,21C6,12.72,12.72,6,21,6ZM62.06,73.69C62.06,74.97,61.03,76,59.76,76L32.24,76C30.97,76,29.94,74.97,29.94,73.69C29.94,72.42,30.97,71.38,32.24,71.38L59.76,71.38C61.03,71.38,62.06,72.42,62.06,73.69ZM48.28,22.92L48.29,16L57.47,16L57.47,23.85C57.47,26.8,55.35,29.25,52.54,29.75L54.57,58.35L60.6,62.28C61.51,62.87,62.06,63.89,62.06,64.98C62.06,65.94,61.28,66.72,60.32,66.72L31.68,66.72C30.72,66.72,29.94,65.94,29.94,64.98C29.94,63.89,30.48,62.86,31.39,62.26L37.36,58.24L39.31,29.72C36.58,29.16,34.53,26.74,34.53,23.85L34.53,16L43.71,16L43.71,22.92Z"/></svg>