<svg xmlns="http://www.w3.org/2000/svg" viewBox="0 0 90 90" fill="currentColor"><path d="M33.85,24.9C28.91,24.9,24.9,28.91,24.9,33.85C24.9,38.79,28.91,42.79,33.85,42.79C38.79,42.79,42.79,38.79,42.79,33.85C42.79,28.91,38.79,24.9,33.85,24.9ZM33.82,30.41C35.71,30.41,37.24,31.94,37.24,33.83C37.24,35.1,36.1,37.87,33.82,42.15C31.53,37.87,30.39,35.1,30.39,33.83C30.39,31.94,31.93,30.41,33.82,30.41ZM67.02,33.85C67.02,38.79,63.01,42.79,58.07,42.79C53.13,42.79,49.12,38.79,49.12,33.85C49.12,28.91,53.13,24.9,58.07,24.9C63.01,24.9,67.02,28.91,67.02,33.85ZM54.61,33.88C54.61,35.77,56.14,37.31,58.03,37.31C59.93,37.31,61.46,35.77,61.46,33.88C61.46,32.62,60.32,29.85,58.03,25.56C55.75,29.85,54.61,32.62,54.61,33.88ZM27.57,49.12C27.57,59.05,35.62,67.1,45.55,67.1L46.45,67.1C56.38,67.1,64.43,59.05,64.43,49.12ZM64.29,12.24L73.43,12.24C76.93,12.24,79.76,15.07,79.76,18.57L79.76,27.73L88,27.73L88,33.65L79.76,33.65L79.76,43.04L88,43.04L88,48.97L79.76,48.97L79.76,58.36L88,58.36L88,64.29L79.76,64.29L79.76,73.43C79.76,76.93,76.93,79.76,73.43,79.76L64.29,79.76L64.29,88L58.36,88L58.36,79.76L48.97,79.76L48.97,88L43.04,88L43.04,79.76L33.65,79.76L33.65,88L27.73,88L27.73,79.76L18.57,79.76C15.07,79.76,12.24,76.93,12.24,73.43L12.24,64.28L4,64.28L4,58.36L12.24,58.36L12.24,48.92L4,48.92L4,42.99L12.24,42.99L12.24,33.64L4,33.64L4,27.72L12.24,27.72L12.24,18.57C12.24,15.07,15.07,12.24,18.57,12.24L27.73,12.24L27.73,4L33.65,4L33.65,12.24L43.04,12.24L43.04,4L48.97,4L48.97,12.24L58.36,12.24L58.36,4L64.29,4ZM73.43,18.57L73.43,73.43L18.57,73.43L18.57,18.57Z"/></svg>