<svg xmlns="http://www.w3.org/2000/svg" viewBox="0 0 90 90" fill="currentColor"><path d="M91,46C91,70.85,70.85,91,46,91C21.15,91,1,70.85,1,46C1,21.15,21.15,1,46,1C70.85,1,91,21.15,91,46ZM48.57,60.71C61.59,66.12,64.29,67.06,66.06,67.09C66.44,67.1,67.31,67,67.87,66.55C68.35,66.16,68.48,65.64,68.54,65.28C68.6,64.91,68.68,64.08,68.62,63.43C67.91,56.02,64.86,38.03,63.31,29.73C62.65,26.22,61.36,25.04,60.1,24.93C57.38,24.68,55.31,26.73,52.68,28.45C48.55,31.16,46.22,32.84,42.22,35.48C37.59,38.53,40.59,40.21,43.23,42.95C43.92,43.66,55.91,54.57,56.14,55.56C56.17,55.69,56.2,56.15,55.92,56.39C55.65,56.63,55.25,56.55,54.95,56.49C54.54,56.39,47.95,52.04,35.18,43.42C33.31,42.13,31.62,41.51,30.1,41.54C28.42,41.58,25.21,42.49,22.81,43.26C19.88,44.22,17.54,44.72,17.75,46.34C17.85,47.19,19.01,48.05,21.23,48.93C34.9,54.89,44.01,58.81,48.57,60.71Z"/></svg>