<svg xmlns="http://www.w3.org/2000/svg" viewBox="0 0 90 90" fill="currentColor"><path d="M5.56,8.51C5.99,7.01,6.76,5.63,7.8,4.48C8.85,3.32,10.14,2.42,11.58,1.83C13.02,1.25,14.58,1,16.14,1.1C17.69,1.2,19.2,1.66,20.55,2.43L63.04,26.63L43.31,48.06ZM63.12,65.31L42.44,47.16L63.2,26.68L81.43,37.09C82.6,37.7,83.63,38.53,84.47,39.53C85.32,40.54,85.95,41.7,86.35,42.95C86.74,44.21,86.88,45.52,86.76,46.83C86.64,48.14,86.27,49.41,85.65,50.57C84.7,52.36,83.23,53.83,81.43,54.79L81.49,54.79ZM5.22,80.98L5.22,11.1C5.22,10.22,5.33,9.35,5.56,8.51L44.61,47.05L5.56,83.57C5.33,82.72,5.22,81.85,5.22,80.98ZM63.12,65.31L20.69,89.62C19.1,90.55,17.28,91.05,15.43,91.05C13.2,91.06,11.02,90.33,9.24,88.99C7.46,87.64,6.17,85.75,5.56,83.6L43.59,46.04Z"/></svg>