<svg xmlns="http://www.w3.org/2000/svg" viewBox="0 0 90 90" fill="currentColor"><path d="M91,46C91,70.85,70.85,91,46,91C21.15,91,1,70.85,1,46C1,21.15,21.15,1,46,1C70.85,1,91,21.15,91,46ZM91,46C91,70.85,70.85,91,46,91C21.15,91,1,70.85,1,46C1,21.15,21.15,1,46,1C70.85,1,91,21.15,91,46ZM33.25,76.75C29.95,76.6,27.71,76.08,25.74,75.31C23.7,74.52,21.98,73.47,20.26,71.75C18.54,70.03,17.48,68.3,16.69,66.27C15.92,64.3,15.4,62.05,15.25,58.76C15.1,55.46,15.06,54.4,15.06,46C15.06,37.6,15.1,36.55,15.25,33.25C15.4,29.95,15.92,27.7,16.69,25.74C17.48,23.7,18.54,21.98,20.26,20.26C21.97,18.54,23.7,17.48,25.73,16.69C27.7,15.92,29.95,15.4,33.24,15.25C36.54,15.1,37.6,15.06,46,15.06C54.4,15.06,55.45,15.1,58.75,15.25C62.05,15.4,64.3,15.92,66.27,16.69C68.3,17.48,70.02,18.54,71.74,20.26C73.46,21.98,74.52,23.7,75.31,25.74C76.07,27.7,76.6,29.95,76.75,33.25C76.9,36.55,76.94,37.6,76.94,46C76.94,54.4,76.9,55.46,76.75,58.76C76.6,62.05,76.07,64.3,75.31,66.27C74.52,68.3,73.46,70.03,71.74,71.75C70.02,73.47,68.3,74.52,66.26,75.31C64.29,76.08,62.04,76.6,58.75,76.75C55.45,76.9,54.4,76.94,45.99,76.94L46,76.94C37.6,76.94,36.55,76.9,33.25,76.75ZM46,71.36C54.26,71.36,55.24,71.33,58.5,71.18C61.52,71.05,63.16,70.54,64.25,70.12C65.69,69.56,66.72,68.89,67.8,67.81C68.89,66.72,69.56,65.69,70.12,64.25C70.54,63.16,71.05,61.52,71.18,58.5C71.33,55.24,71.36,54.26,71.36,46.01C71.36,37.75,71.33,36.77,71.18,33.51C71.05,30.49,70.54,28.86,70.12,27.77C69.56,26.32,68.89,25.3,67.8,24.21C66.72,23.13,65.69,22.46,64.25,21.9C63.16,21.47,61.52,20.97,58.5,20.83C55.24,20.68,54.26,20.65,46,20.65C37.74,20.65,36.76,20.68,33.5,20.83C30.49,20.97,28.85,21.48,27.76,21.9C26.31,22.46,25.28,23.13,24.2,24.21C23.12,25.3,22.45,26.33,21.88,27.77C21.46,28.86,20.96,30.5,20.82,33.51C20.67,36.77,20.64,37.75,20.64,46.01C20.64,54.28,20.67,55.25,20.82,58.51C20.96,61.53,21.46,63.17,21.88,64.26C22.45,65.7,23.12,66.73,24.2,67.81C25.28,68.9,26.31,69.57,27.76,70.13C28.85,70.55,30.49,71.06,33.5,71.2C36.36,71.32,37.46,71.36,43.23,71.37L43.23,71.36C44.05,71.36,44.97,71.36,46,71.36ZM58.8,62.51C58.8,60.46,60.47,58.8,62.52,58.8C64.57,58.8,66.23,60.46,66.23,62.51C66.23,64.56,64.57,66.23,62.52,66.23L62.52,66.23C60.47,66.23,58.8,64.56,58.8,62.51ZM30.12,46C30.12,37.23,37.23,30.12,46,30.12C54.78,30.12,61.89,37.23,61.89,46C61.89,54.77,54.78,61.89,46,61.89C37.23,61.89,30.12,54.77,30.12,46ZM56.32,46C56.32,40.3,51.7,35.69,46,35.69C40.31,35.69,35.69,40.3,35.69,46C35.69,51.7,40.31,56.31,46,56.31C51.7,56.31,56.32,51.7,56.32,46Z"/></svg>