<svg xmlns="http://www.w3.org/2000/svg" viewBox="0 0 90 90" fill="currentColor"><path d="M76.52,70.04C78.59,66.03,80.03,61.73,80.79,57.28L80.8,57.21C76.03,69.07,67.97,73.84,61.39,84.25C61.05,84.78,60.71,85.31,60.4,85.85C60.24,86.13,60.08,86.43,59.93,86.72C59.66,87.25,59.44,87.81,59.3,88.38C59.3,88.43,59.26,88.48,59.21,88.49C59.18,88.51,59.16,88.51,59.13,88.5C59.12,88.5,59.12,88.49,59.11,88.49C59.1,88.49,59.09,88.48,59.08,88.47L59.09,88.5C48.52,82.32,44.94,70.87,44.61,65.14C40.39,64.85,36.37,63.3,33.03,60.68C32.69,60.97,32.33,61.24,31.95,61.5C31,64.86,30.95,68.41,31.83,71.78C27.95,69.9,24.51,67.23,21.71,63.96L21.69,63.96C20.01,66.07,20.13,73.04,20.23,74.49C19.74,74.3,19.27,74.05,18.83,73.74C17.36,72.69,15.99,71.52,14.72,70.23C13.28,68.76,11.96,67.19,10.79,65.51C8.09,61.68,6.17,57.35,5.15,52.77L5.11,52.49C4.95,51.62,4.81,50.74,4.69,49.86C4.69,49.83,4.68,49.8,4.68,49.78C4.31,47.87,4.09,45.92,4,43.98L4,43.77C4.02,20.54,22.87,1.73,46.09,1.74C66.54,1.76,84.02,16.49,87.49,36.65C87.57,37.19,87.62,37.72,87.69,38.27C88.55,45.44,87.61,52.69,84.96,59.4C83.14,63.79,79.43,68.55,76.52,70.04ZM37.08,26.2L37.11,26.18C36.9,26.27,36.69,26.37,36.5,26.48C36.69,26.38,36.88,26.29,37.08,26.2ZM76.52,70.04C78.59,66.03,80.03,61.73,80.79,57.28L80.79,57.24L80.8,57.2C84.04,47.92,83.57,37.75,79.48,28.81C74.67,18.47,63,7.87,44.74,8.38C25.01,8.95,7.62,23.58,4.38,42.77C3.78,45.79,4.38,47.32,4.67,49.79C4.27,47.88,4.04,45.94,4,43.98L4,43.77C4.02,20.54,22.87,1.73,46.09,1.75C66.54,1.78,84.02,16.5,87.49,36.66C87.57,37.2,87.62,37.73,87.69,38.29C88.55,45.44,87.61,52.69,84.96,59.4C83.14,63.79,79.43,68.55,76.52,70.04ZM76.52,70.04C78.59,66.03,80.03,61.73,80.79,57.28L80.79,57.24L80.8,57.2C84.04,47.92,83.57,37.75,79.48,28.81C74.67,18.47,63,7.87,44.74,8.38C25.01,8.95,7.62,23.58,4.38,42.77C3.78,45.79,4.38,47.32,4.67,49.79C4.27,47.88,4.04,45.94,4,43.98L4,43.77C4.02,20.54,22.87,1.73,46.09,1.75C66.54,1.78,84.02,16.5,87.49,36.66C87.57,37.2,87.62,37.73,87.69,38.29C88.55,45.44,87.61,52.69,84.96,59.4C83.14,63.79,79.43,68.55,76.52,70.04ZM64.78,54.26C63.73,56.13,62.41,57.85,60.88,59.35C47.81,72.43,57.46,87.7,59.08,88.48L59.09,88.5C48.52,82.32,44.94,70.87,44.61,65.14C45.1,65.17,45.59,65.22,46.09,65.22C53.73,65.2,60.77,61.09,64.52,54.45ZM41.06,47.19C29.11,47.19,27.16,39.96,27.16,39.96C27.7,33.87,31.94,28.85,37.07,26.2C37.31,26.08,37.54,25.97,37.78,25.86C38.19,25.68,38.6,25.52,39.01,25.35C40.77,24.73,42.62,24.38,44.48,24.3C65.44,23.31,69.5,49.36,54.38,56.93C57.95,57.39,61.56,56.51,64.52,54.46C60.76,61.1,53.73,65.2,46.1,65.23C45.6,65.23,45.11,65.18,44.62,65.15C40.4,64.86,36.38,63.31,33.05,60.69C33.69,60.15,34.41,59.42,35.93,57.92C38.79,55.1,46.11,52.18,46.12,51.85C46.05,50.81,42.36,47.19,41.06,47.19ZM41.06,47.19C29.11,47.19,27.16,39.96,27.16,39.96C27.7,33.87,31.94,28.85,37.07,26.2C37.31,26.08,37.54,25.97,37.78,25.86C38.19,25.68,38.6,25.52,39.01,25.35C40.77,24.73,42.62,24.38,44.48,24.3C65.44,23.31,69.5,49.36,54.38,56.93C57.95,57.39,61.56,56.51,64.52,54.46C60.76,61.1,53.73,65.2,46.1,65.23C45.6,65.23,45.11,65.18,44.62,65.15C40.4,64.86,36.38,63.31,33.05,60.69C33.69,60.15,34.41,59.42,35.93,57.92C38.79,55.1,46.11,52.18,46.12,51.85C46.05,50.81,42.36,47.19,41.06,47.19ZM31.95,61.5C31,64.86,30.95,68.41,31.83,71.78C27.95,69.9,24.51,67.23,21.71,63.96C21.92,63.97,28.02,64.08,31.08,62.08C31.42,61.86,31.7,61.68,31.95,61.5ZM44.73,8.39C62.99,7.87,74.66,18.47,79.47,28.82C83.55,37.77,84.02,47.93,80.79,57.21L80.79,57.25C80.79,57.28,80.78,57.31,80.79,57.3L80.8,57.22C82.29,47.48,77.34,38.05,69.59,31.67L69.57,31.61C54.48,19.32,40.03,24.2,37.11,26.19C36.91,26.29,36.7,26.38,36.51,26.49C27.71,30.7,24.07,38.71,24.85,45.59C20.59,45.52,16.68,47.99,14.89,51.86C19.59,54.73,25.44,54.97,30.36,52.48C35.34,50.22,41,49.99,46.14,51.86C46.13,52.2,38.81,55.11,35.95,57.92C34.42,59.43,33.71,60.15,33.07,60.69C32.72,60.98,32.36,61.26,31.98,61.52C31.73,61.69,31.45,61.87,31.11,62.09C28.04,64.09,21.95,63.98,21.74,63.97L21.72,63.97C20.05,66.08,20.17,73.05,20.26,74.5C19.78,74.31,19.3,74.06,18.87,73.75C17.39,72.7,16.02,71.53,14.75,70.23C13.31,68.77,11.99,67.2,10.8,65.52L10.8,65.51C8.1,61.68,6.18,57.35,5.16,52.77C5.14,52.68,3.65,46.15,4.38,42.77C7.62,23.59,25.01,8.95,44.73,8.39ZM64.78,54.26C65.01,54.08,65.23,53.91,65.41,53.74C74.95,44.95,69.95,32.52,69.58,31.63C77.32,38.01,82.27,47.45,80.79,57.2C76.03,69.07,67.97,73.84,61.39,84.25C61.05,84.78,60.71,85.31,60.4,85.85C60.24,86.13,60.08,86.43,59.93,86.72C59.66,87.25,59.44,87.81,59.3,88.38C59.3,88.43,59.26,88.48,59.21,88.49C59.18,88.51,59.16,88.51,59.13,88.5C59.12,88.5,59.12,88.49,59.11,88.49C59.1,88.49,59.09,88.48,59.08,88.47C57.46,87.7,47.81,72.43,60.88,59.36C62.41,57.85,63.73,56.13,64.78,54.26ZM64.78,54.27L64.52,54.46C61.56,56.51,57.95,57.39,54.38,56.93C69.5,49.36,65.44,23.32,44.48,24.3C42.62,24.38,40.77,24.73,39.01,25.35C38.6,25.5,38.19,25.68,37.78,25.86C37.54,25.97,37.3,26.08,37.07,26.2L37.1,26.18C40.02,24.18,54.46,19.31,69.56,31.6L69.58,31.66C69.96,32.54,74.95,44.96,65.41,53.75C65.21,53.93,65,54.11,64.78,54.27ZM41.06,47.19C42.36,47.19,46.05,50.81,46.12,51.85C40.98,49.98,35.31,50.21,30.33,52.47C25.42,54.96,19.57,54.72,14.87,51.85C16.66,47.97,20.57,45.52,24.83,45.58C24.05,38.7,27.69,30.69,36.49,26.48C36.68,26.38,36.86,26.29,37.07,26.2C31.94,28.85,27.7,33.87,27.16,39.96C27.16,39.96,29.11,47.19,41.06,47.19ZM76.52,70.04C78.59,66.03,80.03,61.73,80.79,57.28L80.8,57.21C76.03,69.07,67.97,73.84,61.39,84.25C61.05,84.78,60.71,85.31,60.4,85.85C60.24,86.13,60.08,86.43,59.93,86.72C59.66,87.25,59.44,87.81,59.3,88.38C59.3,88.43,59.26,88.48,59.21,88.49C59.18,88.51,59.16,88.51,59.13,88.5C59.12,88.5,59.12,88.49,59.11,88.49C59.1,88.49,59.09,88.48,59.08,88.47L59.09,88.5C48.52,82.32,44.94,70.87,44.61,65.14C45.1,65.17,45.59,65.22,46.09,65.22C53.72,65.2,60.76,61.09,64.51,54.45C61.55,56.5,57.94,57.38,54.37,56.92C69.49,49.35,65.43,23.31,44.47,24.29C42.6,24.37,40.76,24.72,39,25.34C38.59,25.49,38.18,25.67,37.77,25.85C37.53,25.96,37.29,26.07,37.06,26.19L37.09,26.17C36.89,26.26,36.68,26.36,36.49,26.47C36.68,26.37,36.86,26.27,37.07,26.19C31.94,28.85,27.7,33.86,27.16,39.95C27.16,39.95,29.11,47.18,41.06,47.18C42.35,47.18,46.05,50.8,46.12,51.84C46.11,52.17,38.79,55.09,35.93,57.9C34.4,59.41,33.69,60.13,33.05,60.67C32.7,60.96,32.34,61.23,31.96,61.49C31.01,64.85,30.96,68.39,31.84,71.77C27.96,69.89,24.52,67.22,21.72,63.95L21.7,63.95C20.03,66.06,20.14,73.03,20.24,74.48C19.75,74.29,19.28,74.04,18.84,73.73C17.37,72.68,16,71.51,14.73,70.22C13.29,68.75,11.97,67.18,10.8,65.5L10.8,65.49L10.8,65.51C8.1,61.68,6.18,57.35,5.16,52.77L5.11,52.49C5.03,52.12,4.67,50.24,4.62,49.84C4.62,49.87,4.62,49.81,4.62,49.84C4.29,47.9,4.09,45.95,4,43.98L4,43.77C4.02,20.54,22.87,1.73,46.09,1.74C66.54,1.76,84.02,16.49,87.49,36.65C87.57,37.19,87.62,37.72,87.69,38.27C88.55,45.44,87.61,52.69,84.96,59.4C83.14,63.79,79.43,68.55,76.52,70.04Z"/></svg>