<svg xmlns="http://www.w3.org/2000/svg" viewBox="0 0 90 90"><path d="M85.77,61.9C83.6,67.12,80.44,71.86,76.44,75.85C72.45,79.84,67.71,83.01,62.49,85.17C57.28,87.33,51.69,88.45,46.04,88.45C34.63,88.45,23.7,83.92,15.63,75.85C7.57,67.79,3.04,56.85,3.04,45.45C3.04,34.04,7.57,23.1,15.63,15.04C23.7,6.98,34.63,2.45,46.04,2.45C51.69,2.45,57.28,3.56,62.49,5.72C67.71,7.88,72.45,11.05,76.44,15.04C80.44,19.03,83.6,23.77,85.77,28.99C87.93,34.21,89.04,39.8,89.04,45.45C89.04,51.09,87.93,56.68,85.77,61.9Z" fill="currentColor" stroke="currentColor" stroke-width="0.127678" stroke-linecap="round" stroke-linejoin="round"/><path d="M74.06,73.47C66.63,80.9,56.55,85.08,46.04,85.08C35.53,85.08,25.45,80.9,18.02,73.47C10.58,66.04,6.41,55.96,6.41,45.45C6.41,34.94,10.58,24.85,18.02,17.42C25.45,9.99,35.53,5.82,46.04,5.82C56.55,5.82,66.63,9.99,74.06,17.42C81.49,24.85,85.67,34.94,85.67,45.45C85.67,55.96,81.49,66.04,74.06,73.47Z" fill="currentColor"/><path d="M45.46,8.46L45.46,15.12C45.46,15.44,45.72,15.7,46.04,15.7C46.36,15.7,46.62,15.44,46.62,15.12L46.62,8.46C46.62,8.14,46.36,7.88,46.04,7.88C45.72,7.88,45.46,8.14,45.46,8.46Z" fill="currentColor"/><path d="M42.14,8.12C41.82,8.15,41.59,8.44,41.63,8.76L41.92,11.54C41.95,11.86,42.23,12.09,42.55,12.06C42.87,12.03,43.1,11.74,43.07,11.42L42.78,8.64C42.75,8.36,42.53,8.15,42.26,8.12C42.22,8.12,42.18,8.12,42.14,8.12Z" fill="currentColor"/><path d="M49.33,8.64L49.03,11.43C49,11.74,49.23,12.03,49.55,12.06C49.87,12.1,50.15,11.87,50.18,11.55L50.48,8.76C50.51,8.44,50.28,8.16,49.96,8.12C49.92,8.12,49.88,8.12,49.84,8.12C49.58,8.15,49.36,8.36,49.33,8.64Z" fill="currentColor"/><path d="M38.26,8.7C37.95,8.76,37.75,9.07,37.81,9.38L39.19,15.9C39.26,16.21,39.57,16.41,39.88,16.35C40.19,16.28,40.39,15.98,40.32,15.66L38.94,9.14C38.89,8.87,38.64,8.68,38.38,8.68C38.34,8.68,38.3,8.69,38.26,8.7Z" fill="currentColor"/><path d="M53.16,9.15L51.77,15.67C51.71,15.98,51.91,16.29,52.22,16.35C52.53,16.42,52.84,16.22,52.9,15.91L54.29,9.39C54.36,9.07,54.16,8.77,53.84,8.7C53.81,8.69,53.77,8.69,53.73,8.69C53.46,8.69,53.22,8.87,53.16,9.15Z" fill="currentColor"/><path d="M34.44,9.76C34.14,9.85,33.97,10.18,34.07,10.48L34.94,13.15C35.04,13.45,35.36,13.62,35.67,13.52C35.97,13.42,36.13,13.1,36.04,12.79L35.17,10.13C35.1,9.9,34.89,9.75,34.67,9.73C34.6,9.72,34.52,9.73,34.44,9.76Z" fill="currentColor"/><path d="M56.91,10.13L56.05,12.79C55.95,13.1,56.11,13.42,56.42,13.52C56.72,13.62,57.05,13.46,57.14,13.15L58.01,10.48C58.11,10.18,57.95,9.86,57.64,9.76C57.56,9.73,57.49,9.72,57.41,9.73C57.19,9.75,56.99,9.9,56.91,10.13Z" fill="currentColor"/><path d="M30.78,11.12C30.49,11.25,30.36,11.59,30.49,11.88L33.19,17.97C33.32,18.27,33.66,18.4,33.96,18.27C34.25,18.14,34.38,17.8,34.25,17.5L31.54,11.41C31.45,11.19,31.23,11.07,31.01,11.07C30.93,11.07,30.85,11.09,30.78,11.12Z" fill="currentColor"/><path d="M60.58,11.43L57.86,17.52C57.73,17.81,57.86,18.15,58.16,18.28C58.45,18.41,58.79,18.28,58.92,17.99L61.63,11.9C61.77,11.61,61.63,11.27,61.34,11.14C61.27,11.11,61.19,11.09,61.12,11.09C60.89,11.09,60.68,11.21,60.58,11.43Z" fill="currentColor"/><path d="M27.27,12.95C27,13.11,26.9,13.46,27.06,13.74L28.47,16.16C28.63,16.44,28.98,16.53,29.25,16.37C29.53,16.21,29.63,15.86,29.47,15.59L28.06,13.16C27.96,12.98,27.79,12.88,27.6,12.87C27.49,12.86,27.38,12.89,27.27,12.95Z" fill="currentColor"/><path d="M64.01,13.16L62.61,15.59C62.45,15.86,62.55,16.21,62.82,16.37C63.1,16.53,63.45,16.44,63.61,16.16L65.01,13.74C65.17,13.46,65.08,13.11,64.8,12.95C64.7,12.89,64.58,12.86,64.47,12.87C64.29,12.88,64.11,12.98,64.01,13.16Z" fill="currentColor"/><path d="M23.98,15.04C23.72,15.23,23.67,15.59,23.85,15.85L27.77,21.24C27.95,21.5,28.31,21.56,28.57,21.37C28.83,21.18,28.89,20.82,28.7,20.56L24.79,15.17C24.67,15.01,24.49,14.92,24.3,14.93C24.19,14.93,24.08,14.97,23.98,15.04Z" fill="currentColor"/><path d="M67.33,15.2L63.41,20.59C63.22,20.84,63.28,21.2,63.54,21.39C63.8,21.58,64.16,21.52,64.34,21.27L68.26,15.88C68.45,15.62,68.4,15.26,68.14,15.07C68.04,15,67.93,14.96,67.82,14.96C67.63,14.95,67.45,15.04,67.33,15.2Z" fill="currentColor"/><path d="M20.93,17.55C20.69,17.77,20.67,18.13,20.89,18.37L22.76,20.45C22.98,20.69,23.34,20.71,23.58,20.5C23.82,20.28,23.84,19.92,23.62,19.68L21.75,17.6C21.64,17.48,21.5,17.41,21.35,17.41C21.2,17.4,21.05,17.45,20.93,17.55Z" fill="currentColor"/><path d="M70.33,17.6L68.46,19.68C68.24,19.92,68.26,20.29,68.5,20.5C68.74,20.71,69.1,20.69,69.32,20.46L71.19,18.37C71.41,18.14,71.39,17.77,71.15,17.56C71.03,17.45,70.88,17.4,70.73,17.41C70.58,17.42,70.44,17.48,70.33,17.6Z" fill="currentColor"/><path d="M18.12,20.31C17.91,20.55,17.93,20.92,18.16,21.13L23.12,25.59C23.35,25.8,23.72,25.78,23.93,25.55C24.15,25.31,24.13,24.94,23.89,24.73L18.94,20.27C18.82,20.16,18.67,20.12,18.52,20.12C18.37,20.13,18.23,20.2,18.12,20.31Z" fill="currentColor"/><path d="M73.16,20.29L68.2,24.75C67.96,24.96,67.94,25.32,68.16,25.56C68.37,25.8,68.74,25.82,68.97,25.61L73.93,21.15C74.17,20.94,74.19,20.57,73.97,20.33C73.87,20.22,73.72,20.15,73.58,20.14C73.43,20.13,73.28,20.18,73.16,20.29Z" fill="currentColor"/><path d="M15.68,23.39C15.49,23.65,15.55,24.01,15.81,24.19L18.07,25.84C18.33,26.03,18.69,25.97,18.88,25.71C19.07,25.46,19.01,25.1,18.75,24.91L16.49,23.26C16.39,23.19,16.28,23.15,16.17,23.15C15.98,23.14,15.8,23.23,15.68,23.39Z" fill="currentColor"/><path d="M75.61,23.28L73.34,24.93C73.08,25.11,73.02,25.47,73.21,25.73C73.4,25.99,73.76,26.05,74.02,25.86L76.29,24.22C76.54,24.03,76.6,23.67,76.41,23.41C76.3,23.25,76.11,23.16,75.93,23.17C75.82,23.17,75.7,23.21,75.61,23.28Z" fill="currentColor"/><path d="M13.51,26.66C13.35,26.94,13.44,27.29,13.72,27.45L19.49,30.79C19.77,30.95,20.12,30.85,20.28,30.57C20.44,30.3,20.35,29.95,20.07,29.79L14.3,26.45C14.19,26.39,14.08,26.37,13.97,26.38C13.78,26.39,13.61,26.49,13.51,26.66Z" fill="currentColor"/><path d="M77.78,26.45L72.01,29.79C71.73,29.95,71.64,30.3,71.8,30.57C71.96,30.85,72.31,30.95,72.59,30.79L78.36,27.45C78.64,27.29,78.73,26.94,78.57,26.66C78.47,26.49,78.29,26.39,78.11,26.38C78,26.37,77.88,26.39,77.78,26.45Z" fill="currentColor"/><path d="M11.77,30.16C11.64,30.45,11.77,30.79,12.06,30.92L14.62,32.06C14.91,32.19,15.25,32.06,15.38,31.77C15.51,31.48,15.38,31.14,15.09,31.01L12.53,29.87C12.46,29.83,12.38,29.82,12.3,29.82C12.08,29.81,11.86,29.94,11.77,30.16Z" fill="currentColor"/><path d="M79.56,29.89L77,31.03C76.71,31.16,76.57,31.5,76.71,31.79C76.84,32.09,77.18,32.22,77.47,32.09L80.03,30.95C80.32,30.82,80.45,30.48,80.32,30.18C80.22,29.96,80.01,29.84,79.78,29.84C79.71,29.84,79.63,29.86,79.56,29.89Z" fill="currentColor"/><path d="M10.32,33.81C10.22,34.11,10.39,34.44,10.69,34.54L17.03,36.6C17.33,36.7,17.66,36.54,17.76,36.23C17.86,35.93,17.69,35.6,17.39,35.5L11.05,33.44C10.98,33.41,10.9,33.41,10.82,33.41C10.6,33.43,10.4,33.58,10.32,33.81Z" fill="currentColor"/><path d="M81.03,33.46L74.7,35.52C74.39,35.62,74.23,35.95,74.33,36.25C74.42,36.56,74.75,36.72,75.05,36.62L81.39,34.56C81.7,34.46,81.86,34.14,81.76,33.83C81.69,33.61,81.49,33.46,81.26,33.44C81.19,33.43,81.11,33.44,81.03,33.46Z" fill="currentColor"/><path d="M9.33,37.64C9.26,37.96,9.46,38.26,9.78,38.33L12.52,38.91C12.83,38.98,13.14,38.78,13.2,38.47C13.27,38.15,13.07,37.85,12.76,37.78L10.02,37.2C9.98,37.19,9.94,37.19,9.9,37.19C9.63,37.18,9.39,37.37,9.33,37.64Z" fill="currentColor"/><path d="M82.06,37.2L79.32,37.79C79.01,37.85,78.81,38.16,78.87,38.47C78.94,38.78,79.25,38.98,79.56,38.92L82.3,38.33C82.62,38.27,82.81,37.96,82.75,37.65C82.69,37.38,82.45,37.19,82.18,37.19C82.14,37.19,82.1,37.2,82.06,37.2Z" fill="currentColor"/><path d="M8.68,41.5C8.65,41.82,8.88,42.1,9.2,42.13L15.82,42.83C16.14,42.87,16.43,42.64,16.46,42.32C16.49,42,16.26,41.72,15.95,41.68L9.32,40.98C9.28,40.98,9.24,40.98,9.2,40.98C8.93,41.01,8.71,41.22,8.68,41.5Z" fill="currentColor"/><path d="M82.76,41.03L76.14,41.72C75.82,41.76,75.59,42.04,75.62,42.36C75.65,42.68,75.94,42.91,76.26,42.87L82.88,42.18C83.2,42.15,83.43,41.87,83.4,41.55C83.37,41.27,83.15,41.06,82.88,41.03C82.84,41.03,82.8,41.03,82.76,41.03Z" fill="currentColor"/><path d="M8.51,45.45C8.51,45.77,8.77,46.02,9.09,46.02L11.89,46.02C12.21,46.02,12.47,45.77,12.47,45.45C12.47,45.13,12.21,44.87,11.89,44.87L9.09,44.87C8.77,44.87,8.51,45.13,8.51,45.45Z" fill="currentColor"/><path d="M79.61,45.45C79.61,45.77,79.86,46.02,80.18,46.02L82.99,46.02C83.31,46.02,83.57,45.77,83.57,45.45C83.57,45.13,83.31,44.87,82.99,44.87L80.18,44.87C79.86,44.87,79.61,45.13,79.61,45.45Z" fill="currentColor"/><path d="M15.82,48.02L9.19,48.71C8.87,48.74,8.64,49.03,8.68,49.35C8.71,49.66,8.99,49.89,9.31,49.86L15.94,49.17C16.26,49.14,16.49,48.85,16.46,48.53C16.43,48.26,16.21,48.04,15.94,48.02C15.9,48.01,15.86,48.01,15.82,48.02Z" fill="currentColor"/><path d="M75.62,48.57C75.58,48.89,75.81,49.18,76.13,49.21L82.76,49.91C83.08,49.94,83.36,49.71,83.39,49.4C83.43,49.08,83.2,48.79,82.88,48.76L76.25,48.06C76.21,48.06,76.17,48.06,76.14,48.06C75.87,48.09,75.65,48.3,75.62,48.57Z" fill="currentColor"/><path d="M12.52,51.98L9.78,52.56C9.46,52.62,9.26,52.93,9.33,53.24C9.4,53.56,9.7,53.75,10.02,53.69L12.76,53.11C13.07,53.04,13.27,52.73,13.2,52.42C13.14,52.15,12.9,51.96,12.63,51.96C12.6,51.96,12.56,51.97,12.52,51.98Z" fill="currentColor"/><path d="M78.87,52.43C78.81,52.74,79.01,53.05,79.32,53.11L82.06,53.69C82.37,53.76,82.68,53.56,82.75,53.25C82.81,52.94,82.61,52.63,82.3,52.56L79.56,51.98C79.52,51.97,79.48,51.97,79.44,51.97C79.17,51.97,78.93,52.15,78.87,52.43Z" fill="currentColor"/><path d="M17.02,54.27L10.69,56.33C10.38,56.43,10.22,56.75,10.31,57.06C10.41,57.36,10.74,57.53,11.04,57.43L17.38,55.37C17.69,55.27,17.85,54.95,17.75,54.64C17.68,54.41,17.48,54.26,17.25,54.24C17.18,54.24,17.1,54.25,17.02,54.27Z" fill="currentColor"/><path d="M74.32,54.66C74.22,54.97,74.38,55.29,74.69,55.39L81.03,57.45C81.33,57.55,81.66,57.39,81.75,57.08C81.85,56.78,81.69,56.46,81.38,56.36L75.05,54.29C74.97,54.27,74.89,54.26,74.82,54.26C74.59,54.28,74.39,54.43,74.32,54.66Z" fill="currentColor"/><path d="M14.61,58.81L12.05,59.95C11.76,60.08,11.62,60.42,11.76,60.71C11.89,61,12.23,61.13,12.52,61L15.08,59.86C15.37,59.73,15.5,59.39,15.37,59.1C15.27,58.88,15.06,58.75,14.83,58.76C14.76,58.76,14.68,58.77,14.61,58.81Z" fill="currentColor"/><path d="M76.7,59.12C76.57,59.41,76.7,59.75,76.99,59.88L79.55,61.03C79.84,61.16,80.18,61.03,80.31,60.73C80.44,60.44,80.31,60.1,80.02,59.97L77.46,58.83C77.39,58.8,77.31,58.78,77.23,58.78C77.01,58.77,76.79,58.9,76.7,59.12Z" fill="currentColor"/><path d="M19.49,60.11L13.72,63.44C13.44,63.6,13.35,63.95,13.51,64.23C13.67,64.51,14.02,64.6,14.3,64.44L20.07,61.11C20.35,60.95,20.44,60.6,20.28,60.32C20.18,60.15,20,60.04,19.82,60.03C19.71,60.02,19.59,60.05,19.49,60.11Z" fill="currentColor"/><path d="M71.8,60.32C71.64,60.6,71.73,60.95,72.01,61.11L77.78,64.44C78.06,64.6,78.41,64.51,78.57,64.23C78.73,63.95,78.64,63.6,78.36,63.44L72.59,60.11C72.48,60.05,72.37,60.02,72.26,60.03C72.07,60.04,71.9,60.15,71.8,60.32Z" fill="currentColor"/><path d="M18.06,65.03L15.79,66.68C15.53,66.87,15.48,67.23,15.66,67.48C15.85,67.74,16.21,67.8,16.47,67.61L18.74,65.97C19,65.78,19.06,65.42,18.87,65.16C18.75,65,18.57,64.91,18.38,64.92C18.27,64.93,18.16,64.96,18.06,65.03Z" fill="currentColor"/><path d="M73.2,65.18C73.01,65.44,73.06,65.8,73.32,65.99L75.59,67.63C75.85,67.82,76.21,67.77,76.4,67.51C76.59,67.25,76.53,66.89,76.27,66.7L74,65.05C73.91,64.98,73.79,64.94,73.68,64.94C73.5,64.93,73.31,65.02,73.2,65.18Z" fill="currentColor"/><path d="M23.1,65.29L18.15,69.74C17.91,69.96,17.89,70.32,18.1,70.56C18.32,70.8,18.68,70.82,18.92,70.6L23.88,66.15C24.11,65.93,24.13,65.57,23.92,65.33C23.81,65.21,23.67,65.15,23.52,65.14C23.37,65.13,23.22,65.18,23.1,65.29Z" fill="currentColor"/><path d="M68.14,65.35C67.93,65.58,67.95,65.95,68.19,66.16L73.14,70.62C73.38,70.84,73.74,70.82,73.96,70.58C74.17,70.34,74.15,69.98,73.91,69.76L68.96,65.3C68.84,65.2,68.69,65.15,68.54,65.16C68.4,65.16,68.25,65.23,68.14,65.35Z" fill="currentColor"/><path d="M27.73,69.63L23.81,75.02C23.62,75.27,23.68,75.64,23.94,75.82C24.2,76.01,24.56,75.95,24.75,75.7L28.67,70.31C28.86,70.05,28.8,69.69,28.54,69.5C28.44,69.43,28.33,69.39,28.22,69.39C28.04,69.38,27.85,69.46,27.73,69.63Z" fill="currentColor"/><path d="M63.5,69.52C63.24,69.71,63.19,70.07,63.38,70.33L67.29,75.72C67.48,75.98,67.84,76.04,68.1,75.85C68.35,75.67,68.41,75.31,68.22,75.05L64.31,69.65C64.19,69.49,64.01,69.41,63.82,69.41C63.71,69.42,63.6,69.45,63.5,69.52Z" fill="currentColor"/><path d="M22.76,70.44L20.89,72.52C20.67,72.76,20.69,73.12,20.93,73.34C21.17,73.55,21.53,73.53,21.74,73.29L23.62,71.21C23.83,70.97,23.81,70.61,23.58,70.39C23.46,70.29,23.31,70.24,23.16,70.25C23.01,70.25,22.87,70.32,22.76,70.44Z" fill="currentColor"/><path d="M68.5,70.4C68.26,70.61,68.24,70.97,68.45,71.21L70.33,73.3C70.54,73.53,70.91,73.55,71.15,73.34C71.38,73.12,71.4,72.76,71.19,72.52L69.31,70.44C69.21,70.32,69.06,70.26,68.91,70.25C68.77,70.24,68.62,70.29,68.5,70.4Z" fill="currentColor"/><path d="M33.16,72.9L30.44,78.99C30.31,79.28,30.44,79.62,30.73,79.75C31.03,79.88,31.37,79.75,31.5,79.46L34.21,73.37C34.34,73.08,34.21,72.74,33.92,72.61C33.85,72.58,33.77,72.56,33.7,72.56C33.47,72.55,33.26,72.68,33.16,72.9Z" fill="currentColor"/><path d="M58.12,72.63C57.83,72.76,57.7,73.1,57.83,73.39L60.53,79.48C60.66,79.77,61,79.9,61.3,79.77C61.59,79.64,61.72,79.3,61.59,79.01L58.88,72.92C58.78,72.7,58.57,72.57,58.34,72.58C58.27,72.58,58.19,72.59,58.12,72.63Z" fill="currentColor"/><path d="M28.47,74.73L27.06,77.16C26.9,77.43,27,77.79,27.27,77.95C27.55,78.11,27.9,78.01,28.06,77.73L29.47,75.31C29.63,75.03,29.53,74.68,29.25,74.52C29.15,74.46,29.04,74.43,28.93,74.44C28.74,74.45,28.57,74.56,28.47,74.73Z" fill="currentColor"/><path d="M62.82,74.52C62.55,74.68,62.45,75.03,62.61,75.31L64.01,77.73C64.17,78.01,64.53,78.11,64.8,77.95C65.08,77.79,65.17,77.43,65.01,77.16L63.61,74.73C63.51,74.56,63.34,74.45,63.15,74.44C63.04,74.43,62.93,74.46,62.82,74.52Z" fill="currentColor"/><path d="M39.17,74.99L37.79,81.51C37.72,81.82,37.92,82.12,38.23,82.19C38.55,82.26,38.85,82.06,38.92,81.75L40.3,75.23C40.37,74.91,40.17,74.61,39.86,74.54C39.82,74.53,39.78,74.53,39.74,74.53C39.47,74.53,39.23,74.71,39.17,74.99Z" fill="currentColor"/><path d="M52.2,74.54C51.89,74.61,51.69,74.92,51.75,75.23L53.13,81.75C53.2,82.06,53.51,82.26,53.82,82.2C54.13,82.13,54.33,81.82,54.26,81.51L52.88,74.99C52.83,74.72,52.58,74.53,52.32,74.53C52.28,74.53,52.24,74.54,52.2,74.54Z" fill="currentColor"/><path d="M45.46,75.77L45.46,82.43C45.46,82.75,45.72,83.01,46.04,83.01C46.36,83.01,46.62,82.75,46.62,82.43L46.62,75.77C46.62,75.45,46.36,75.19,46.04,75.19C45.72,75.19,45.46,75.45,45.46,75.77Z" fill="currentColor"/><path d="M34.93,77.74L34.07,80.41C33.97,80.71,34.13,81.04,34.44,81.14C34.74,81.23,35.07,81.07,35.16,80.76L36.03,78.1C36.13,77.79,35.96,77.47,35.66,77.37C35.58,77.35,35.51,77.34,35.43,77.34C35.21,77.36,35.01,77.51,34.93,77.74Z" fill="currentColor"/><path d="M56.41,77.37C56.11,77.47,55.94,77.79,56.04,78.1L56.91,80.77C57.01,81.07,57.33,81.24,57.64,81.14C57.94,81.04,58.11,80.71,58.01,80.41L57.14,77.74C57.07,77.51,56.86,77.36,56.64,77.34C56.57,77.34,56.49,77.35,56.41,77.37Z" fill="currentColor"/><path d="M41.89,79.34L41.6,82.13C41.57,82.45,41.8,82.73,42.11,82.77C42.43,82.8,42.72,82.57,42.75,82.25L43.04,79.47C43.08,79.15,42.85,78.86,42.53,78.83C42.49,78.83,42.45,78.83,42.41,78.83C42.14,78.86,41.92,79.07,41.89,79.34Z" fill="currentColor"/><path d="M49.52,78.83C49.21,78.87,48.98,79.15,49.01,79.47L49.3,82.26C49.33,82.57,49.62,82.8,49.94,82.77C50.25,82.74,50.48,82.45,50.45,82.14L50.16,79.35C50.13,79.07,49.91,78.86,49.64,78.83C49.6,78.83,49.56,78.83,49.52,78.83Z" fill="currentColor"/><path d="M41.51,40.7L21.52,72.17L50.76,50.51L73.12,22.33Z" fill="currentColor"/><path d="M41.51,40.7L73.65,19.08L50.57,50.19Z" fill="currentColor"/><path d="M41.51,40.7L18.43,71.81L50.57,50.19Z" fill="currentColor"/><path d="M50.57,50.19L73.65,19.08L18.43,71.81Z" fill="currentColor" opacity="0.243"/></svg>