<svg xmlns="http://www.w3.org/2000/svg" viewBox="0 0 90 90" fill="currentColor"><path d="M88.38,54.18L46,54.18L46,36.78L70.22,36.78C69.17,31.15,66,26.38,61.24,23.19L61.24,11.9L75.78,11.9C84.29,19.74,89.2,31.28,89.2,44.98C89.2,48.17,88.92,51.24,88.38,54.18ZM75.78,11.9L61.24,23.19C57.21,20.49,52.05,18.9,46,18.9C34.28,18.9,24.36,26.81,20.82,37.45L5.79,37.45L5.79,25.79C13.19,11.08,28.41,1,46,1C58.15,1,68.34,5.03,75.78,11.9ZM19.41,46C19.41,48.97,19.92,51.85,20.82,54.55L20.82,66.21L5.79,66.21C2.64,59.94,1,53.02,1,46C1,38.74,2.74,31.87,5.79,25.79L20.82,37.45C19.92,40.15,19.41,43.03,19.41,46ZM63.2,66.37L76.11,79.28C68.32,86.54,58.13,91,46,91C28.41,91,13.19,80.92,5.79,66.21L20.82,54.55C24.36,65.19,34.28,73.1,46,73.1C52.61,73.1,58.54,70.83,63.2,66.37Z"/></svg>