<svg xmlns="http://www.w3.org/2000/svg" viewBox="0 0 90 90" fill="currentColor"><path d="M91,46C91,70.85,70.85,91,46,91C21.15,91,1,70.85,1,46C1,21.15,21.15,1,46,1C70.85,1,91,21.15,91,46ZM66.55,49.03L53.23,49.03L53.23,58.04C53.23,61.84,55.09,65.55,61.06,65.55L67.12,65.55L67.12,77.37C67.12,77.37,61.62,78.31,56.37,78.31C45.4,78.31,38.22,71.66,38.22,59.62L38.22,49.03L26.02,49.03L26.02,35.15L38.22,35.15L38.22,1.58C40.67,1.2,43.17,1,45.73,1C48.28,1,50.79,1.2,53.23,1.58L53.23,35.15L64.42,35.15Z"/></svg>