<svg xmlns="http://www.w3.org/2000/svg" viewBox="0 0 90 90"><path d="M90,45C90,20.15,69.85,0,45,0C20.15,0,0,20.15,0,45C0,69.85,20.15,90,45,90C69.85,90,90,69.85,90,45Z" fill="currentColor"/><path d="M74.13,59.04C74.02,58.98,73.91,58.92,73.82,58.88C71.69,57.85,69.8,56.61,68.21,55.2C66.93,54.07,65.84,52.83,64.96,51.5C63.88,49.89,63.38,48.54,63.16,47.81C63.04,47.33,63.06,47.14,63.16,46.89C63.25,46.68,63.49,46.48,63.61,46.39C64.33,45.88,65.49,45.13,66.2,44.67C66.82,44.27,67.35,43.93,67.66,43.71C68.66,43.02,69.34,42.3,69.74,41.54C70.27,40.54,70.33,39.45,69.92,38.37C69.37,36.92,68.02,36.06,66.3,36.06C65.92,36.06,65.52,36.1,65.13,36.18C64.15,36.4,63.21,36.75,62.43,37.05C62.37,37.08,62.31,37.03,62.31,36.97C62.4,35.03,62.49,32.43,62.27,29.95C62.08,27.71,61.62,25.82,60.86,24.18C60.11,22.52,59.12,21.3,58.35,20.42C57.62,19.58,56.33,18.34,54.39,17.23C51.65,15.66,48.53,14.86,45.12,14.86C41.72,14.86,38.61,15.66,35.87,17.22C33.81,18.4,32.5,19.73,31.89,20.42C31.12,21.3,30.14,22.52,29.38,24.18C28.63,25.82,28.17,27.71,27.98,29.95C27.76,32.43,27.85,34.83,27.94,36.97C27.94,37.03,27.88,37.08,27.82,37.05C27.04,36.75,26.1,36.4,25.12,36.18C24.73,36.1,24.33,36.06,23.95,36.06C22.23,36.06,20.87,36.92,20.33,38.37C19.92,39.45,19.98,40.54,20.5,41.54C20.91,42.3,21.59,43.02,22.59,43.71C22.9,43.93,23.43,44.27,24.05,44.67C24.74,45.12,25.87,45.85,26.59,46.36C26.68,46.42,26.99,46.65,27.08,46.89C27.19,47.15,27.2,47.34,27.07,47.84C26.85,48.58,26.34,49.91,25.29,51.5C24.41,52.83,23.32,54.07,22.04,55.2C20.45,56.61,18.56,57.85,16.43,58.88C16.33,58.93,16.21,58.99,16.08,59.06C16.08,59.06,14.81,59.71,14.57,60.55C14.21,61.79,15.16,62.95,16.12,63.58C17.7,64.59,19.62,65.14,20.74,65.44C21.05,65.52,21.33,65.6,21.58,65.68C21.74,65.73,22.14,65.88,22.32,66.1C22.53,66.38,22.56,66.72,22.64,67.11C22.76,67.76,23.03,68.57,23.84,69.13C24.73,69.75,25.85,69.79,27.28,69.84C28.78,69.9,30.64,69.97,32.76,70.67C33.75,71,34.64,71.55,35.68,72.18C37.84,73.51,40.53,75.16,45.12,75.16C49.72,75.16,52.43,73.5,54.6,72.17C55.63,71.54,56.52,70.99,57.48,70.67C59.61,69.97,61.47,69.9,62.97,69.84C64.39,69.79,65.52,69.75,66.41,69.13C67.27,68.53,67.52,67.65,67.64,66.97C67.7,66.64,67.74,66.34,67.93,66.1C68.09,65.89,68.46,65.74,68.64,65.68C68.9,65.6,69.19,65.52,69.51,65.44C70.63,65.14,72.02,64.79,73.72,63.83C75.75,62.68,75.89,61.25,75.68,60.55C75.42,59.67,74.13,59.04,74.13,59.04Z" fill="currentColor"/><path d="M66.81,64.61C65.59,65.39,66.31,67.09,65.43,67.71C64.33,68.46,61.11,67.65,56.94,69.03C53.51,70.16,51.31,73.43,45.13,73.43C38.93,73.43,36.8,70.18,33.31,69.03C29.14,67.65,25.92,68.46,24.83,67.71C23.94,67.09,24.66,65.39,23.44,64.61C22,63.68,20.15,63.85,17.37,62.31C15.59,61.33,16.6,60.73,17.19,60.44C27.27,55.56,28.88,48.02,28.95,47.45C29.04,46.78,29.14,46.24,28.39,45.55C27.67,44.89,24.47,42.91,23.59,42.29C22.12,41.27,21.47,40.24,21.95,38.99C22.28,38.12,23.09,37.79,23.95,37.79C24.22,37.79,24.49,37.82,24.75,37.88C26.36,38.23,27.93,39.03,28.83,39.25C28.95,39.28,29.06,39.3,29.16,39.3C29.64,39.3,29.81,39.06,29.78,38.5C29.68,36.74,29.43,33.31,29.7,30.1C30.09,25.68,31.51,23.49,33.2,21.56C34.01,20.63,37.83,16.6,45.13,16.6C52.44,16.6,56.24,20.63,57.05,21.56C58.74,23.49,60.17,25.68,60.55,30.1C60.82,33.31,60.58,36.74,60.47,38.5C60.43,39.08,60.61,39.3,61.09,39.3C61.19,39.3,61.3,39.28,61.42,39.25C62.33,39.03,63.89,38.23,65.5,37.88C65.76,37.82,66.03,37.79,66.3,37.79C67.16,37.79,67.97,38.12,68.3,38.99C68.78,40.24,68.13,41.27,66.66,42.29C65.78,42.91,62.58,44.89,61.86,45.55C61.12,46.24,61.21,46.78,61.3,47.45C61.37,48.02,62.98,55.56,73.06,60.44C73.65,60.73,74.66,61.33,72.89,62.31C70.1,63.85,68.25,63.68,66.81,64.61Z" fill="currentColor"/><path d="M75.15,57.43C74.97,57.32,74.8,57.24,74.66,57.17C74.37,57.02,74.07,56.87,73.77,56.72C70.71,55.09,68.32,53.05,66.66,50.62C66.11,49.8,65.72,49.06,65.45,48.46C65.31,48.06,65.31,47.83,65.41,47.62C65.49,47.46,65.69,47.29,65.8,47.21C66.33,46.86,66.87,46.51,67.24,46.27C67.9,45.85,68.41,45.51,68.75,45.28C70,44.4,70.88,43.47,71.43,42.43C72.21,40.96,72.3,39.28,71.71,37.7C70.88,35.51,68.81,34.15,66.3,34.15C65.78,34.15,65.25,34.21,64.73,34.32C64.59,34.35,64.45,34.38,64.32,34.42C64.34,32.93,64.31,31.34,64.17,29.78C63.7,24.32,61.79,21.45,59.79,19.16C58.96,18.21,57.51,16.81,55.33,15.57C52.3,13.84,48.87,12.96,45.13,12.96C41.39,12.96,37.96,13.84,34.93,15.57C32.74,16.82,31.29,18.21,30.46,19.16C28.46,21.45,26.55,24.32,26.08,29.78C25.94,31.34,25.91,32.93,25.93,34.42C25.8,34.38,25.66,34.35,25.52,34.32C25,34.21,24.47,34.15,23.95,34.15C21.44,34.15,19.37,35.51,18.54,37.7C17.95,39.28,18.04,40.96,18.82,42.43C19.37,43.47,20.25,44.4,21.5,45.28C21.84,45.51,22.36,45.85,23.01,46.27C23.37,46.5,23.88,46.84,24.39,47.17C24.47,47.23,24.74,47.43,24.83,47.62C24.94,47.84,24.94,48.07,24.79,48.5C24.52,49.1,24.13,49.82,23.59,50.62C21.97,52.99,19.65,55,16.68,56.61C15.12,57.44,13.49,57.99,12.8,59.87C12.28,61.28,12.62,62.89,13.94,64.24L13.94,64.24C14.37,64.7,14.92,65.12,15.61,65.5C17.22,66.39,18.59,66.83,19.68,67.13C19.87,67.18,20.31,67.33,20.5,67.49C20.98,67.91,20.91,68.55,21.55,69.48C21.94,70.05,22.39,70.45,22.76,70.7C24.1,71.63,25.61,71.69,27.21,71.75C28.66,71.8,30.3,71.87,32.17,72.49C32.94,72.74,33.75,73.24,34.68,73.81C36.92,75.19,39.99,77.07,45.13,77.07C50.26,77.07,53.35,75.18,55.6,73.79C56.53,73.23,57.33,72.73,58.08,72.49C59.96,71.87,61.59,71.8,63.04,71.75C64.64,71.69,66.15,71.63,67.5,70.7C67.92,70.41,68.45,69.93,68.87,69.21C69.33,68.42,69.32,67.87,69.75,67.49C69.93,67.34,70.31,67.21,70.52,67.14C71.61,66.84,73,66.4,74.65,65.5C75.37,65.09,75.95,64.66,76.39,64.15C76.4,64.15,76.4,64.14,76.41,64.14C77.65,62.8,77.96,61.24,77.45,59.87C77,58.63,76.14,57.97,75.15,57.43Z" fill="currentColor"/></svg>