<svg xmlns="http://www.w3.org/2000/svg" viewBox="0 0 90 90" fill="currentColor"><path d="M81.55,31.2C66.45,39.52,68.9,61.23,84.16,67.04C82.06,71.72,81.05,73.8,78.35,77.95C74.57,83.73,69.26,90.94,62.66,90.99C56.8,91.05,55.3,87.15,47.35,87.2C39.4,87.24,37.74,91.06,31.88,91C25.29,90.94,20.25,84.44,16.47,78.66C5.93,62.5,4.81,43.52,11.32,33.43C15.95,26.27,23.25,22.08,30.11,22.08C37.09,22.08,41.48,25.93,47.26,25.93C52.87,25.93,56.28,22.07,64.36,22.07C70.47,22.07,76.95,25.42,81.55,31.2ZM58.24,15.61C55.1,19.67,49.68,22.82,44.44,22.65C43.48,17.42,45.93,12.03,48.92,8.4C52.19,4.4,57.79,1.33,62.59,1L62.59,1C63.4,6.47,61.17,11.82,58.24,15.61Z"/></svg>