<svg xmlns="http://www.w3.org/2000/svg" viewBox="0 0 90 90"><path d="M69.78,5C78.19,5,85,11.81,85,20.23L85,69.78C85,78.19,78.19,85.01,69.77,85.01L20.23,85.01C11.81,85,5,78.19,5,69.77L5,20.23C5,11.81,11.81,5,20.23,5Z" fill="currentColor"/><path d="M85,33.54C84.1,31.33,82.76,29.34,81.1,27.66C81.25,25.18,80.7,22.66,79.41,20.42C78.57,18.95,76.53,18.74,75.39,20.01L72.8,22.88C72.78,22.87,72.77,22.87,72.75,22.86C73.09,20.24,72.64,17.54,71.36,15.12C70.57,13.62,68.84,13.36,67.65,14.58L55.23,27.16C55.09,27.3,54.94,27.44,54.8,27.58C54.79,27.59,54.78,27.59,54.77,27.6C49.37,32.49,40.96,32.7,35.82,28.2C35.49,27.85,35.16,27.52,34.81,27.19L22.36,14.59C21.17,13.37,19.45,13.63,18.65,15.13C17.38,17.54,16.92,20.23,17.25,22.83C17.23,22.84,17.21,22.84,17.18,22.84L14.63,20.01C13.49,18.74,11.45,18.95,10.6,20.42C9.33,22.62,8.78,25.08,8.89,27.52C7.26,29.12,5.93,31.05,4.99,33.18L4.99,57.05C7.8,63.45,14.19,67.92,21.62,67.92L22.42,67.92C29.78,67.92,36.13,63.52,38.96,57.21C41.69,57.2,43.67,57.19,44.89,57.19C47.55,57.18,49.62,57.18,51.1,57.18C53.93,63.51,60.29,67.92,67.67,67.92L68.23,67.92C75.8,67.92,82.28,63.27,85,56.68Z" fill="currentColor"/><path d="M35.37,41.38L35.37,48.85C35.37,55.82,29.72,61.48,22.74,61.48C15.78,61.48,10.12,55.83,10.12,48.85L10.12,41.38C10.12,34.4,15.78,28.75,22.74,28.75C29.71,28.75,35.37,34.4,35.37,41.38Z" fill="currentColor"/><path d="M79.72,41.38L79.72,48.85C79.72,55.82,74.07,61.48,67.1,61.48C60.13,61.48,54.47,55.83,54.47,48.85L54.47,41.38C54.47,34.4,60.12,28.75,67.1,28.75C74.07,28.75,79.72,34.4,79.72,41.38Z" fill="currentColor"/><path d="M30.68,41.99L30.68,48.39C30.68,51.7,28,54.38,24.69,54.38C21.39,54.38,18.7,51.7,18.7,48.39L18.7,41.99C18.7,38.68,21.39,36,24.69,36C27.99,36,30.68,38.68,30.68,41.99Z" fill="currentColor"/><path d="M51.86,57.38L51.86,59.77C51.86,63.56,48.79,66.63,45,66.63C41.21,66.63,38.14,63.56,38.14,59.77L38.14,57.38C38.14,53.6,41.21,50.53,45,50.53C48.79,50.53,51.86,53.6,51.86,57.38Z" fill="currentColor"/><path d="M45.26,50.51C49.67,50.51,53.67,53.74,54.47,58.04L54.47,58.39C54.47,58.67,54.38,58.78,54.13,58.74L45.27,60.32C45.03,60.32,45,60.32,44.75,60.32L35.88,58.74C35.63,58.77,35.53,58.66,35.53,58.38L35.53,58.04C36.35,53.67,40.41,50.51,45.26,50.51Z" fill="currentColor"/><path d="M44.96,51.85C45.47,51.85,45.99,51.92,46.5,52.05C47.53,52.31,48.24,53.24,48.24,54.31C48.24,55.17,47.55,55.85,46.7,55.85L43.31,55.85C42.45,55.85,41.76,55.16,41.76,54.31C41.75,53.23,42.5,52.28,43.55,52.02C44.01,51.92,44.49,51.85,44.96,51.85Z" fill="currentColor"/><path d="M71.14,41.99L71.14,48.39C71.14,51.7,68.46,54.38,65.15,54.38C61.85,54.38,59.16,51.7,59.16,48.39L59.16,41.99C59.17,38.68,61.85,36,65.15,36C68.46,36,71.14,38.68,71.14,41.99Z" fill="currentColor"/><path d="M23.49,39.41C23.49,37.29,21.76,35.56,19.63,35.56C17.49,35.56,15.76,37.29,15.76,39.41C15.76,41.54,17.49,43.27,19.63,43.27C21.76,43.27,23.49,41.54,23.49,39.41Z" fill="currentColor"/><path d="M63.37,39.41C63.37,37.29,61.64,35.56,59.5,35.56C57.37,35.56,55.64,37.29,55.64,39.41C55.64,41.54,57.37,43.27,59.5,43.27C61.64,43.27,63.37,41.54,63.37,39.41Z" fill="currentColor"/></svg>