<svg xmlns="http://www.w3.org/2000/svg" viewBox="0 0 90 90"><path d="M20.1,41.44C20.1,45.6,22.01,48.79,25.52,51.26C29.92,48.58,32.05,45.13,32.05,41.44C32.05,35.02,28.35,32.97,25.92,32.91C24.57,32.87,23.25,33.37,22.22,34.48C21.2,35.58,20.1,37.69,20.1,41.44Z" fill="currentColor"/><path d="M43.48,41.44C43.48,29.49,35.49,21.72,26.22,21.48C21.73,21.36,17.21,23.09,13.85,26.69C10.49,30.3,8.67,35.39,8.67,41.44C8.67,47.05,10.49,51.64,13.33,55.3C9.5,55.79,5.53,55.7,1.88,54.96L-0.4,66.16C7.92,67.85,17.29,67.07,25.19,64.07C31.47,66.77,38.54,67.88,44.6,67.88C50.66,67.88,57.73,66.77,64.01,64.07C71.92,67.07,81.28,67.85,89.6,66.16L87.32,54.96C83.67,55.7,79.7,55.79,75.87,55.3C78.71,51.64,80.54,47.05,80.54,41.44C80.54,35.39,78.71,30.3,75.35,26.69C72,23.09,67.48,21.36,62.98,21.48C53.71,21.72,45.72,29.49,45.72,41.44C45.72,47.29,48,52.1,51.44,55.87C49.14,56.26,46.82,56.45,44.6,56.45C42.38,56.45,40.06,56.26,37.76,55.87C41.2,52.1,43.48,47.29,43.48,41.44Z" fill="currentColor"/><path d="M69.11,41.44C69.11,37.69,68.01,35.58,66.98,34.48C65.95,33.37,64.63,32.87,63.28,32.91C60.86,32.97,57.15,35.02,57.15,41.44C57.15,45.13,59.29,48.58,63.68,51.26C67.19,48.79,69.11,45.6,69.11,41.44Z" fill="currentColor"/></svg>