<svg xmlns="http://www.w3.org/2000/svg" viewBox="0 0 90 90" fill="currentColor"><path d="M67.5,46.01C67.5,57.89,57.87,67.51,46,67.51C34.13,67.51,24.5,57.89,24.5,46.01C24.5,34.14,34.13,24.51,46,24.51C57.87,24.51,67.5,34.14,67.5,46.01ZM83.23,67.5C79.46,74.04,74.03,79.47,67.5,83.24C60.96,87.02,53.54,89,46,89C38.45,89,31.03,87.01,24.5,83.24C17.96,79.46,12.54,74.03,8.76,67.5L27.38,35.25L27.4,35.26C25.5,38.52,24.5,42.23,24.5,46C24.5,49.78,25.49,53.49,27.37,56.76C29.26,60.03,31.98,62.74,35.25,64.63C38.52,66.52,42.22,67.51,46,67.5ZM63.02,46C63.02,55.4,55.4,63.02,46,63.02C36.6,63.02,28.98,55.4,28.98,46C28.98,36.6,36.6,28.98,46,28.98C55.4,28.98,63.02,36.6,63.02,46ZM46,3C53.55,3,60.96,4.99,67.5,8.76C74.04,12.53,79.47,17.96,83.24,24.5C87.01,31.04,89,38.45,89,46C89,53.55,87.01,60.96,83.23,67.5L46,67.5L45.99,67.48C49.77,67.49,53.48,66.5,56.75,64.61C60.02,62.73,62.74,60.02,64.63,56.75C66.52,53.48,67.51,49.77,67.51,46C67.51,42.22,66.51,38.51,64.62,35.25ZM8.77,67.49C4.99,60.95,3,53.54,3,45.99C3,38.44,4.99,31.03,8.76,24.49C12.54,17.96,17.97,12.53,24.5,8.76C31.04,4.98,38.46,3,46,3L64.62,35.25L64.61,35.26C62.73,31.99,60.02,29.27,56.75,27.38C53.48,25.48,49.77,24.49,46,24.49C42.22,24.49,38.51,25.48,35.25,27.37C31.98,29.26,29.27,31.97,27.38,35.25Z"/></svg>