<svg xmlns="http://www.w3.org/2000/svg" viewBox="0 0 90 90" fill="currentColor"><path d="M91,46C91,70.85,70.85,91,46,91C21.15,91,1,70.85,1,46C1,21.15,21.15,1,46,1C70.85,1,91,21.15,91,46ZM67.54,68.24C73.33,62.45,76.52,54.76,76.52,46.57C76.51,29.68,62.74,15.93,45.81,15.93L45.8,15.93C40.66,15.93,35.61,17.22,31.13,19.66L14.85,15.4L19.21,31.28C16.51,35.93,15.1,41.22,15.11,46.59C15.11,63.49,28.89,77.23,45.81,77.23C54.03,77.23,61.74,74.04,67.54,68.24ZM20.29,46.59C20.28,41.8,21.64,37.1,24.19,33.04L24.8,32.08L22.22,22.68L31.88,25.21L32.81,24.66C36.73,22.33,41.22,21.11,45.8,21.11L45.81,21.11C59.88,21.11,71.33,32.53,71.33,46.57C71.35,49.92,70.69,53.23,69.41,56.33C68.13,59.42,66.24,62.23,63.87,64.59C61.5,66.96,58.69,68.84,55.59,70.12C52.5,71.41,49.18,72.06,45.82,72.05C31.75,72.05,20.3,60.63,20.29,46.59ZM38.14,59.4C38.82,57.89,40.31,54.1,40.5,53.72C40.69,53.33,40.82,52.89,40.57,52.38C40.31,51.86,40.19,51.55,39.8,51.1C39.42,50.65,38.99,50.1,38.65,49.76C38.26,49.38,37.86,48.96,38.31,48.19C38.76,47.43,40.3,44.92,42.58,42.89C45.51,40.28,47.98,39.47,48.75,39.09C49.52,38.71,49.97,38.77,50.41,39.28C50.86,39.8,52.33,41.52,52.84,42.29C53.35,43.05,53.87,42.92,54.57,42.67C55.27,42.41,59.04,40.56,59.81,40.18C60.58,39.79,61.09,39.6,61.28,39.28C61.47,38.96,61.47,37.43,60.83,35.64C60.2,33.86,57.06,32.13,55.66,32C54.25,31.88,52.93,31.37,46.45,33.92C38.65,36.99,33.73,44.96,33.34,45.48C32.96,45.99,30.21,49.63,30.21,53.4C30.21,57.17,32.19,59.02,32.9,59.78C33.6,60.55,34.43,60.74,34.94,60.74L36.41,60.72C36.96,60.7,37.56,60.68,38.14,59.4Z"/></svg>