<svg xmlns="http://www.w3.org/2000/svg" viewBox="0 0 90 90" fill="currentColor"><path d="M46.01,76L46.01,61L31.01,61C22.73,61,16.01,67.72,16.01,76C16.01,84.28,22.73,91,31.01,91C39.29,91,46.01,84.28,46.01,76ZM31.01,31L46.01,31L46.01,61L31.01,61C22.73,61,16.01,54.28,16.01,46C16.01,37.72,22.73,31,31.01,31ZM31.01,1L46.01,1L46.01,31L31.01,31C22.73,31,16.01,24.28,16.01,16C16.01,7.72,22.73,1,31.01,1ZM61.01,1C69.29,1,76.01,7.72,76.01,16C76.01,24.28,69.29,31,61.01,31L46.01,31L46.01,1ZM61.01,61C52.73,61,46.01,54.28,46.01,46C46.01,37.72,52.73,31,61.01,31C69.29,31,76.01,37.72,76.01,46C76.01,54.28,69.29,61,61.01,61Z"/></svg>