<svg xmlns="http://www.w3.org/2000/svg" viewBox="0 0 90 90"><path d="M32.85,23.9C27.91,23.9,23.9,27.91,23.9,32.85C23.9,37.79,27.91,41.79,32.85,41.79C37.79,41.79,41.79,37.79,41.79,32.85C41.79,27.91,37.79,23.9,32.85,23.9Z" fill="currentColor"/><path d="M32.82,29.41C34.71,29.41,36.24,30.94,36.24,32.83C36.24,34.1,35.1,36.87,32.82,41.15C30.53,36.87,29.39,34.1,29.39,32.83C29.39,30.94,30.93,29.41,32.82,29.41Z" fill="currentColor"/><path d="M66.02,32.85C66.02,37.79,62.01,41.79,57.07,41.79C52.13,41.79,48.12,37.79,48.12,32.85C48.12,27.91,52.13,23.9,57.07,23.9C62.01,23.9,66.02,27.91,66.02,32.85Z" fill="currentColor"/><path d="M53.61,32.88C53.61,34.77,55.14,36.31,57.03,36.31C58.93,36.31,60.46,34.77,60.46,32.88C60.46,31.62,59.32,28.85,57.03,24.56C54.75,28.85,53.61,31.62,53.61,32.88Z" fill="currentColor"/><path d="M26.57,48.12C26.57,58.05,34.62,66.1,44.55,66.1L45.45,66.1C55.38,66.1,63.43,58.05,63.43,48.12Z" fill="currentColor"/><path d="M63.29,11.24L72.43,11.24C75.93,11.24,78.76,14.07,78.76,17.57L78.76,26.73L87,26.73L87,32.65L78.76,32.65L78.76,42.04L87,42.04L87,47.97L78.76,47.97L78.76,57.36L87,57.36L87,63.29L78.76,63.29L78.76,72.43C78.76,75.93,75.93,78.76,72.43,78.76L63.29,78.76L63.29,87L57.36,87L57.36,78.76L47.97,78.76L47.97,87L42.04,87L42.04,78.76L32.65,78.76L32.65,87L26.73,87L26.73,78.76L17.57,78.76C14.07,78.76,11.24,75.93,11.24,72.43L11.24,63.28L3,63.28L3,57.36L11.24,57.36L11.24,47.92L3,47.92L3,41.99L11.24,41.99L11.24,32.64L3,32.64L3,26.72L11.24,26.72L11.24,17.57C11.24,14.07,14.07,11.24,17.57,11.24L26.73,11.24L26.73,3L32.65,3L32.65,11.24L42.04,11.24L42.04,3L47.97,3L47.97,11.24L57.36,11.24L57.36,3L63.29,3Z" fill="currentColor"/><path d="M72.43,17.57L72.43,72.43L17.57,72.43L17.57,17.57Z" fill="currentColor"/></svg>