<svg xmlns="http://www.w3.org/2000/svg" viewBox="0 0 90 90"><path d="M20,5L70,5C78.28,5,85,11.72,85,20L85,70C85,78.28,78.28,85,70,85L20,85C11.72,85,5,78.28,5,70L5,20C5,11.72,11.72,5,20,5Z" fill="currentColor"/><path d="M61.06,72.69C61.06,73.97,60.03,75,58.76,75L31.24,75C29.97,75,28.94,73.97,28.94,72.69C28.94,71.42,29.97,70.38,31.24,70.38L58.76,70.38C60.03,70.38,61.06,71.42,61.06,72.69Z" fill="currentColor"/><path d="M47.28,21.92L47.29,15L56.47,15L56.47,22.85C56.47,25.8,54.35,28.25,51.54,28.75L53.57,57.35L59.6,61.28C60.51,61.87,61.06,62.89,61.06,63.98C61.06,64.94,60.28,65.72,59.32,65.72L30.68,65.72C29.72,65.72,28.94,64.94,28.94,63.98C28.94,62.89,29.48,61.86,30.39,61.26L36.36,57.24L38.31,28.72C35.58,28.16,33.53,25.74,33.53,22.85L33.53,15L42.71,15L42.71,21.92Z" fill="currentColor"/></svg>