<svg xmlns="http://www.w3.org/2000/svg" viewBox="0 0 90 90" fill="currentColor"><path d="M91,46C91,70.85,70.85,91,46,91C21.15,91,1,70.85,1,46C1,21.15,21.15,1,46,1C70.85,1,91,21.15,91,46ZM28.07,72.3C28.9,72.03,29.66,71.59,30.31,71.01C30.96,70.42,31.48,69.71,31.83,68.91C32.19,68.11,32.37,67.25,32.37,66.38C32.37,65.5,32.19,64.64,31.83,63.84C31.48,63.05,30.96,62.33,30.31,61.75C29.66,61.16,28.9,60.72,28.07,60.45C27.24,60.18,26.36,60.09,25.5,60.17C24.65,60.12,23.8,60.23,23,60.52C22.2,60.8,21.47,61.25,20.86,61.84C20.24,62.42,19.75,63.12,19.42,63.91C19.09,64.69,18.92,65.53,18.93,66.38C18.94,67.22,19.11,68.06,19.45,68.83C19.78,69.61,20.27,70.3,20.89,70.88C21.5,71.46,22.23,71.91,23.02,72.2C23.81,72.5,24.65,72.62,25.5,72.58C26.36,72.67,27.24,72.57,28.07,72.3ZM74.35,40.03L74.35,19.42L62.44,19.42L62.44,38.62C62.44,43.44,60.74,46.72,56.41,46.72C55.06,46.71,53.76,46.28,52.67,45.5C51.58,44.72,50.75,43.62,50.3,42.36C49.97,41.42,49.81,40.43,49.84,39.44L49.84,19.42L37.97,19.42C37.97,19.42,37.97,51.94,37.97,55.29L49.84,55.29L49.84,50.2C50.91,52.08,52.48,53.63,54.37,54.68C56.27,55.72,58.41,56.23,60.57,56.14L60.64,56.17C68.48,56.17,74.35,51.02,74.35,40.03ZM31.37,55.29L31.37,19.42L19.46,19.42L19.46,55.29Z"/></svg>