<svg xmlns="http://www.w3.org/2000/svg" viewBox="0 0 90 90"><path d="M90,45C90,20.15,69.85,0,45,0C20.15,0,0,20.15,0,45C0,69.85,20.15,90,45,90C69.85,90,90,69.85,90,45Z" fill="currentColor"/><path d="M59.46,58.9L49.82,58.9L41.38,67.34L41.38,58.9L30.54,58.9L30.54,22.74L69.11,22.74L69.11,49.26Z" fill="currentColor"/><path d="M52.23,73.37L42.59,73.37L30.53,85.42L30.53,73.37L16.07,73.37L16.07,29.97L28.12,17.92L73.93,17.92L73.93,51.67Z" fill="currentColor"/><path d="M41.38,58.9L41.38,67.34L49.82,58.9L59.46,58.9L69.11,49.26L69.11,22.74L30.53,22.74L30.53,58.9Z" fill="currentColor"/><path d="M48.62,45.64L43.79,45.64L43.79,31.18L48.62,31.18Z" fill="currentColor"/><path d="M57.05,45.64L57.05,31.18L61.87,31.18L61.87,45.64Z" fill="currentColor"/></svg>