<svg xmlns="http://www.w3.org/2000/svg" viewBox="0 0 90 90" fill="currentColor"><path d="M21.1,48.8C21.1,44.64,23.01,41.45,26.52,38.98C30.92,41.67,33.05,45.11,33.05,48.8C33.05,55.23,29.35,57.27,26.92,57.33C25.57,57.37,24.25,56.87,23.22,55.76C22.2,54.67,21.1,52.55,21.1,48.8ZM44.48,48.8C44.48,60.76,36.49,68.52,27.22,68.76C22.73,68.88,18.21,67.16,14.85,63.55C11.49,59.94,9.67,54.85,9.67,48.8C9.67,43.19,11.49,38.6,14.33,34.94C10.5,34.45,6.53,34.54,2.88,35.28L0.6,24.08C8.92,22.39,18.29,23.18,26.19,26.17C32.47,23.47,39.54,22.36,45.6,22.36C51.66,22.36,58.73,23.47,65.01,26.17C72.92,23.18,82.28,22.39,90.6,24.08L88.32,35.28C84.67,34.54,80.7,34.45,76.87,34.94C79.71,38.6,81.54,43.19,81.54,48.8C81.54,54.85,79.71,59.94,76.35,63.55C73,67.16,68.48,68.88,63.98,68.76C54.71,68.52,46.72,60.76,46.72,48.8C46.72,42.95,49,38.14,52.44,34.37C50.14,33.98,47.82,33.79,45.6,33.79C43.38,33.79,41.06,33.98,38.76,34.37C42.2,38.14,44.48,42.95,44.48,48.8ZM70.11,48.8C70.11,52.55,69.01,54.67,67.98,55.76C66.95,56.87,65.63,57.37,64.28,57.33C61.86,57.27,58.15,55.23,58.15,48.8C58.15,45.11,60.29,41.67,64.68,38.98C68.19,41.46,70.11,44.64,70.11,48.8Z"/></svg>