<svg xmlns="http://www.w3.org/2000/svg" viewBox="0 0 90 90"><path d="M66.5,44.99C66.5,33.12,56.87,23.49,45,23.49C33.13,23.49,23.5,33.12,23.5,44.99C23.5,56.86,33.13,66.49,45,66.49C56.87,66.49,66.5,56.86,66.5,44.99Z" fill="currentColor"/><path d="M82.23,23.5C78.46,16.96,73.03,11.53,66.5,7.76C59.96,3.99,52.54,2,45,2C37.45,2,30.03,3.99,23.5,7.76C16.96,11.54,11.54,16.97,7.76,23.51L26.38,55.75L26.4,55.75C24.5,52.48,23.5,48.77,23.5,45C23.5,41.22,24.49,37.51,26.37,34.24C28.26,30.97,30.98,28.26,34.25,26.37C37.52,24.49,41.22,23.5,45,23.5Z" fill="currentColor"/><path d="M62.02,45C62.02,35.6,54.4,27.98,45,27.98C35.6,27.98,27.98,35.6,27.98,45C27.98,54.4,35.6,62.02,45,62.02C54.4,62.02,62.02,54.4,62.02,45Z" fill="currentColor"/><path d="M45,88C52.55,88,59.96,86.01,66.5,82.24C73.04,78.47,78.47,73.04,82.24,66.5C86.01,59.97,88,52.55,88,45C88,37.46,86.01,30.04,82.23,23.51L45,23.51L44.99,23.52C48.77,23.52,52.48,24.5,55.75,26.39C59.02,28.27,61.74,30.98,63.63,34.25C65.52,37.52,66.51,41.23,66.51,45.01C66.51,48.78,65.51,52.49,63.62,55.76Z" fill="currentColor"/><path d="M7.77,23.51C3.99,30.05,2,37.46,2,45.01C2,52.56,3.99,59.97,7.76,66.51C11.54,73.04,16.97,78.47,23.5,82.24C30.04,86.02,37.46,88,45,88L63.62,55.76L63.61,55.74C61.73,59.02,59.02,61.74,55.75,63.63C52.48,65.52,48.77,66.51,45,66.52C41.22,66.52,37.51,65.52,34.25,63.63C30.98,61.74,28.27,59.03,26.38,55.76Z" fill="currentColor"/></svg>