<svg xmlns="http://www.w3.org/2000/svg" viewBox="0 0 90 90" fill="currentColor"><path d="M91,46C91,70.85,70.85,91,46,91C21.15,91,1,70.85,1,46C1,21.15,21.15,1,46,1C70.85,1,91,21.15,91,46ZM75.13,31.96C75.02,32.02,74.91,32.08,74.82,32.12C72.69,33.15,70.8,34.39,69.21,35.8C67.93,36.93,66.84,38.17,65.96,39.5C64.88,41.11,64.38,42.46,64.16,43.19C64.04,43.67,64.06,43.86,64.16,44.11C64.25,44.32,64.49,44.52,64.61,44.61C65.33,45.12,66.49,45.87,67.2,46.33C67.82,46.73,68.35,47.07,68.66,47.29C69.66,47.98,70.34,48.7,70.74,49.46C71.27,50.46,71.33,51.55,70.92,52.63C70.37,54.08,69.02,54.94,67.3,54.94C66.92,54.94,66.52,54.9,66.13,54.82C65.15,54.6,64.21,54.25,63.43,53.95C63.37,53.92,63.31,53.97,63.31,54.03C63.4,55.97,63.49,58.57,63.27,61.05C63.08,63.29,62.62,65.18,61.86,66.82C61.11,68.48,60.12,69.7,59.35,70.58C58.62,71.42,57.33,72.66,55.39,73.78C52.65,75.34,49.53,76.14,46.12,76.14C42.72,76.14,39.61,75.34,36.87,73.78C34.81,72.6,33.5,71.27,32.89,70.58C32.12,69.7,31.14,68.48,30.38,66.82C29.63,65.18,29.17,63.29,28.98,61.05C28.76,58.57,28.85,56.17,28.94,54.03C28.94,53.97,28.88,53.92,28.82,53.95C28.04,54.25,27.1,54.6,26.12,54.82C25.73,54.9,25.33,54.94,24.95,54.94C23.23,54.94,21.87,54.08,21.33,52.63C20.92,51.55,20.98,50.46,21.5,49.46C21.91,48.7,22.59,47.98,23.59,47.29C23.9,47.07,24.43,46.73,25.05,46.33C25.74,45.88,26.87,45.15,27.59,44.64C27.68,44.58,27.99,44.35,28.08,44.11C28.19,43.85,28.2,43.66,28.07,43.16C27.85,42.42,27.34,41.09,26.29,39.5C25.41,38.17,24.32,36.93,23.04,35.8C21.45,34.39,19.56,33.15,17.43,32.12C17.33,32.07,17.21,32.01,17.08,31.94C17.08,31.94,15.81,31.29,15.57,30.45C15.21,29.21,16.16,28.05,17.12,27.42C18.7,26.41,20.62,25.86,21.74,25.56C22.05,25.48,22.33,25.4,22.58,25.32C22.74,25.27,23.14,25.12,23.32,24.9C23.53,24.62,23.56,24.28,23.64,23.89C23.76,23.24,24.03,22.43,24.84,21.87C25.73,21.25,26.85,21.21,28.28,21.16C29.78,21.1,31.64,21.03,33.76,20.33C34.75,20,35.64,19.45,36.68,18.82C38.84,17.49,41.53,15.84,46.12,15.84C50.72,15.84,53.43,17.5,55.6,18.83C56.63,19.46,57.52,20.01,58.48,20.33C60.61,21.03,62.47,21.1,63.97,21.16C65.39,21.21,66.52,21.25,67.41,21.87C68.27,22.47,68.52,23.35,68.64,24.03C68.7,24.36,68.74,24.66,68.93,24.9C69.09,25.11,69.46,25.26,69.64,25.32C69.9,25.4,70.19,25.48,70.51,25.56C71.63,25.86,73.02,26.21,74.72,27.17C76.75,28.32,76.89,29.75,76.68,30.45C76.42,31.33,75.13,31.96,75.13,31.96ZM67.81,26.39C66.59,25.61,67.31,23.91,66.43,23.29C65.33,22.54,62.11,23.35,57.94,21.97C54.51,20.84,52.31,17.57,46.13,17.57C39.93,17.57,37.8,20.82,34.31,21.97C30.14,23.35,26.92,22.54,25.83,23.29C24.94,23.91,25.66,25.61,24.44,26.39C23,27.32,21.15,27.15,18.37,28.69C16.59,29.67,17.6,30.27,18.19,30.56C28.27,35.44,29.88,42.98,29.95,43.55C30.04,44.22,30.14,44.76,29.39,45.45C28.67,46.11,25.47,48.09,24.59,48.71C23.12,49.73,22.47,50.76,22.95,52.01C23.28,52.88,24.09,53.21,24.95,53.21C25.22,53.21,25.49,53.18,25.75,53.12C27.36,52.77,28.93,51.97,29.83,51.75C29.95,51.72,30.06,51.7,30.16,51.7C30.64,51.7,30.81,51.94,30.78,52.5C30.68,54.26,30.43,57.69,30.7,60.9C31.09,65.32,32.51,67.51,34.2,69.44C35.01,70.37,38.83,74.4,46.13,74.4C53.44,74.4,57.24,70.37,58.05,69.44C59.74,67.51,61.17,65.32,61.55,60.9C61.82,57.69,61.58,54.26,61.47,52.5C61.43,51.92,61.61,51.7,62.09,51.7C62.19,51.7,62.3,51.72,62.42,51.75C63.33,51.97,64.89,52.77,66.5,53.12C66.76,53.18,67.03,53.21,67.3,53.21C68.16,53.21,68.97,52.88,69.3,52.01C69.78,50.76,69.13,49.73,67.66,48.71C66.78,48.09,63.58,46.11,62.86,45.45C62.12,44.76,62.21,44.22,62.3,43.55C62.37,42.98,63.98,35.44,74.06,30.56C74.65,30.27,75.66,29.67,73.89,28.69C71.1,27.15,69.25,27.32,67.81,26.39ZM76.15,33.57C75.97,33.68,75.8,33.76,75.66,33.83C75.37,33.98,75.07,34.13,74.77,34.28C71.71,35.91,69.32,37.95,67.66,40.38C67.11,41.2,66.72,41.94,66.45,42.54C66.31,42.94,66.31,43.17,66.41,43.38C66.49,43.54,66.69,43.71,66.8,43.79C67.33,44.14,67.87,44.49,68.24,44.73C68.9,45.15,69.41,45.49,69.75,45.72C71,46.6,71.88,47.53,72.43,48.57C73.21,50.04,73.3,51.72,72.71,53.3C71.88,55.49,69.81,56.85,67.3,56.85C66.78,56.85,66.25,56.79,65.73,56.68C65.59,56.65,65.45,56.62,65.32,56.58C65.34,58.07,65.31,59.66,65.17,61.22C64.7,66.68,62.79,69.55,60.79,71.84C59.96,72.79,58.51,74.19,56.33,75.43C53.3,77.16,49.87,78.04,46.13,78.04C42.39,78.04,38.96,77.16,35.93,75.43C33.74,74.18,32.29,72.79,31.46,71.84C29.46,69.55,27.55,66.68,27.08,61.22C26.94,59.66,26.91,58.07,26.93,56.58C26.8,56.62,26.66,56.65,26.52,56.68C26,56.79,25.47,56.85,24.95,56.85C22.44,56.85,20.37,55.49,19.54,53.3C18.95,51.72,19.04,50.04,19.82,48.57C20.37,47.53,21.25,46.6,22.5,45.72C22.84,45.49,23.36,45.15,24.01,44.73C24.37,44.5,24.88,44.16,25.39,43.83C25.47,43.77,25.74,43.57,25.83,43.38C25.94,43.16,25.94,42.93,25.79,42.5C25.52,41.9,25.13,41.18,24.59,40.38C22.97,38.01,20.65,36,17.68,34.39C16.12,33.56,14.49,33.01,13.8,31.13C13.28,29.72,13.62,28.11,14.94,26.76L14.94,26.76C15.37,26.3,15.92,25.88,16.61,25.5C18.22,24.61,19.59,24.17,20.68,23.87C20.87,23.82,21.31,23.67,21.5,23.51C21.98,23.09,21.91,22.45,22.55,21.52C22.94,20.95,23.39,20.55,23.76,20.3C25.1,19.37,26.61,19.31,28.21,19.25C29.66,19.2,31.3,19.13,33.17,18.51C33.94,18.26,34.75,17.76,35.68,17.19C37.92,15.81,40.99,13.93,46.13,13.93C51.26,13.93,54.35,15.82,56.6,17.21C57.53,17.77,58.33,18.27,59.08,18.51C60.96,19.13,62.59,19.2,64.04,19.25C65.64,19.31,67.15,19.37,68.5,20.3C68.92,20.59,69.45,21.07,69.87,21.79C70.33,22.58,70.32,23.13,70.75,23.51C70.93,23.66,71.31,23.79,71.52,23.86C72.61,24.16,74,24.6,75.65,25.5C76.37,25.91,76.95,26.34,77.39,26.85C77.4,26.85,77.4,26.86,77.41,26.86C78.65,28.2,78.96,29.76,78.45,31.13C78,32.37,77.14,33.03,76.15,33.57Z"/></svg>