<svg xmlns="http://www.w3.org/2000/svg" viewBox="0 0 90 90" fill="currentColor"><path d="M91,46C91,70.85,70.85,91,46,91C21.15,91,1,70.85,1,46C1,21.15,21.15,1,46,1C70.85,1,91,21.15,91,46ZM61.42,61.47C65.3,61.47,68.45,64.61,68.45,68.49C68.45,72.37,65.3,75.52,61.42,75.52C58.03,75.52,55.2,73.12,54.54,69.92C48.86,69.31,44.42,64.49,44.42,58.65C44.42,58.63,44.42,58.62,44.42,58.61C38.24,58.35,32.6,56.59,28.12,53.81C26.45,55.1,24.36,55.87,22.1,55.87C16.66,55.87,12.25,51.46,12.25,46.02C12.25,42.08,14.57,38.68,17.92,37.11C18.25,25.67,30.7,16.48,46.02,16.48C61.34,16.48,73.82,25.68,74.13,37.13C77.45,38.71,79.75,42.1,79.75,46.02C79.75,51.46,75.34,55.87,69.9,55.87C67.65,55.87,65.57,55.11,63.91,53.83C59.39,56.62,53.68,58.38,47.44,58.62C47.44,58.63,47.44,58.63,47.44,58.64C47.44,62.83,50.55,66.3,54.58,66.87L54.58,66.88C55.31,63.78,58.1,61.47,61.42,61.47ZM33.01,46.09C35.77,46.09,37.88,43.19,37.71,39.62C37.55,36.05,35.49,34.75,32.73,34.75C29.97,34.75,27.56,36.2,27.72,39.77C27.88,43.34,30.26,46.09,33.01,46.09ZM64.33,39.77C64.49,36.2,62.08,34.75,59.32,34.75C56.56,34.75,54.5,36.04,54.33,39.62C54.17,43.19,56.27,46.09,59.04,46.09C61.8,46.09,64.17,43.34,64.33,39.77ZM56.4,30.44C54.7,26.39,50.7,23.54,46.02,23.54C41.35,23.54,37.35,26.39,35.65,30.44C35.45,30.92,35.77,31.46,36.29,31.51C39.32,31.82,42.6,31.99,46.02,31.99C49.45,31.99,52.72,31.82,55.75,31.51C56.27,31.46,56.6,30.92,56.4,30.44Z"/></svg>