<svg xmlns="http://www.w3.org/2000/svg" viewBox="0 0 90 90" fill="currentColor"><path d="M70.78,6C79.19,6,86,12.81,86,21.23L86,70.78C86,79.19,79.19,86.01,70.77,86.01L21.23,86.01C12.81,86,6,79.19,6,70.77L6,21.23C6,12.81,12.81,6,21.23,6ZM86,34.54C85.1,32.33,83.76,30.34,82.1,28.66C82.25,26.18,81.7,23.66,80.41,21.42C79.57,19.95,77.53,19.74,76.39,21.01L73.8,23.88C73.78,23.87,73.77,23.87,73.75,23.86C74.09,21.24,73.64,18.54,72.36,16.12C71.57,14.62,69.84,14.36,68.65,15.58L56.23,28.16C56.09,28.3,55.94,28.44,55.8,28.58C55.79,28.59,55.78,28.59,55.77,28.6C50.37,33.49,41.96,33.7,36.82,29.2C36.49,28.85,36.16,28.52,35.81,28.19L23.36,15.59C22.17,14.37,20.45,14.63,19.65,16.13C18.38,18.54,17.92,21.23,18.25,23.83C18.23,23.84,18.21,23.84,18.18,23.84L15.63,21.01C14.49,19.74,12.45,19.95,11.6,21.42C10.33,23.62,9.78,26.08,9.89,28.52C8.26,30.12,6.93,32.05,5.99,34.18L5.99,58.05C8.8,64.45,15.19,68.92,22.62,68.92L23.42,68.92C30.78,68.92,37.13,64.52,39.96,58.21C42.69,58.2,44.67,58.19,45.89,58.19C48.55,58.18,50.62,58.18,52.1,58.18C54.93,64.51,61.29,68.92,68.67,68.92L69.23,68.92C76.8,68.92,83.28,64.27,86,57.68ZM36.37,42.38L36.37,49.85C36.37,56.82,30.72,62.48,23.74,62.48C16.78,62.48,11.12,56.83,11.12,49.85L11.12,42.38C11.12,35.4,16.78,29.75,23.74,29.75C30.71,29.75,36.37,35.4,36.37,42.38ZM80.72,42.38L80.72,49.85C80.72,56.82,75.07,62.48,68.1,62.48C61.13,62.48,55.47,56.83,55.47,49.85L55.47,42.38C55.47,35.4,61.12,29.75,68.1,29.75C75.07,29.75,80.72,35.4,80.72,42.38ZM31.68,42.99L31.68,49.39C31.68,52.7,29,55.38,25.69,55.38C22.39,55.38,19.7,52.7,19.7,49.39L19.7,42.99C19.7,39.68,22.39,37,25.69,37C28.99,37,31.68,39.68,31.68,42.99ZM52.86,58.38L52.86,60.77C52.86,64.56,49.79,67.63,46,67.63C42.21,67.63,39.14,64.56,39.14,60.77L39.14,58.38C39.14,54.6,42.21,51.53,46,51.53C49.79,51.53,52.86,54.6,52.86,58.38ZM46.26,51.51C50.67,51.51,54.67,54.74,55.47,59.04L55.47,59.39C55.47,59.67,55.38,59.78,55.13,59.74L46.27,61.32C46.03,61.32,46,61.32,45.75,61.32L36.88,59.74C36.63,59.77,36.53,59.66,36.53,59.38L36.53,59.04C37.35,54.67,41.41,51.51,46.26,51.51ZM45.96,52.85C46.47,52.85,46.99,52.92,47.5,53.05C48.53,53.31,49.24,54.24,49.24,55.31C49.24,56.17,48.55,56.85,47.7,56.85L44.31,56.85C43.45,56.85,42.76,56.16,42.76,55.31C42.75,54.23,43.5,53.28,44.55,53.02C45.01,52.92,45.49,52.85,45.96,52.85ZM72.14,42.99L72.14,49.39C72.14,52.7,69.46,55.38,66.15,55.38C62.85,55.38,60.16,52.7,60.16,49.39L60.16,42.99C60.17,39.68,62.85,37,66.15,37C69.46,37,72.14,39.68,72.14,42.99ZM24.49,40.41C24.49,38.29,22.76,36.56,20.63,36.56C18.49,36.56,16.76,38.29,16.76,40.41C16.76,42.54,18.49,44.27,20.63,44.27C22.76,44.27,24.49,42.54,24.49,40.41ZM64.37,40.41C64.37,38.29,62.64,36.56,60.5,36.56C58.37,36.56,56.64,38.29,56.64,40.41C56.64,42.54,58.37,44.27,60.5,44.27C62.64,44.27,64.37,42.54,64.37,40.41Z"/></svg>