<svg xmlns="http://www.w3.org/2000/svg" viewBox="0 0 90 90"><path d="M53.33,70.62L53.3,50.73L51.66,55.34L51.66,55.35L49.54,11.07C51.62,5.2,52.74,2.07,52.75,2.05C52.76,2.04,53.95,1.97,55.38,1.9C59.72,1.68,65.09,1.22,69.17,0.71C70.12,0.6,70.93,0.54,70.98,0.58C71.03,0.62,71.05,20.87,71.04,45.58L71.01,90.51L53.37,90.51Z" fill="currentColor" stroke="currentColor" stroke-width="0.0710347"/><path d="M21.46,45.6C21.46,20.86,21.48,0.6,21.51,0.57C21.54,0.54,23.08,0.69,24.92,0.89C26.76,1.1,29.31,1.36,30.58,1.46C32.52,1.63,38.34,2,39.01,2.01C39.21,2.01,39.22,3.02,39.25,21.05L39.28,40.1L40.69,36.12C40.9,35.5,40.97,35.31,41.18,34.71L43.3,78.98C42.85,80.25,43.08,79.58,42.57,81.03C40.84,85.92,39.38,90.06,39.31,90.24L39.2,90.56L21.46,90.56Z" fill="currentColor" stroke="currentColor" stroke-width="0.0710347"/><path d="M21.46,65.32L39.24,18.15C39.24,19.23,39.25,19.82,39.25,21.05L39.28,40.1L40.69,36.12C48.52,13.96,52.72,2.08,52.75,2.05C52.76,2.04,53.95,1.97,55.38,1.9C59.72,1.68,65.09,1.22,69.17,0.71C70.12,0.6,70.93,0.54,70.98,0.58C71.01,0.61,71.03,10.54,71.04,24.55L53.34,75.43L53.33,70.62L53.3,50.73L51.66,55.34C50.06,59.86,48.99,62.87,42.57,81.03C40.84,85.92,39.38,90.06,39.31,90.24L39.2,90.56L21.46,90.56Z" fill="currentColor"/><path d="M39.28,40.08L39.28,40.1L40.69,36.12C48.52,13.96,52.72,2.08,52.75,2.05C52.76,2.04,53.95,1.97,55.38,1.9C59.72,1.68,65.09,1.22,69.17,0.71C70.11,0.6,70.92,0.54,70.98,0.58L53.3,50.74L53.3,50.73L51.66,55.34C50.06,59.86,48.99,62.87,42.57,81.03C40.84,85.92,39.38,90.06,39.31,90.24L39.2,90.56L21.46,90.56Z" fill="currentColor"/><path d="M53.33,70.62L53.3,50.73L51.66,55.34L51.66,55.35L49.54,11.07C51.62,5.2,52.74,2.07,52.75,2.05C52.76,2.04,53.95,1.97,55.38,1.9C59.72,1.68,65.09,1.22,69.17,0.71C70.12,0.6,70.93,0.54,70.98,0.58C71.03,0.62,71.05,20.87,71.04,45.58L71.01,90.51L53.37,90.51Z" fill="currentColor" stroke="currentColor" stroke-width="0.0710347"/><path d="M21.46,45.6C21.46,20.86,21.48,0.6,21.51,0.57C21.54,0.54,23.08,0.69,24.92,0.89C26.76,1.1,29.31,1.36,30.58,1.46C32.52,1.63,38.34,2,39.01,2.01C39.21,2.01,39.22,3.02,39.25,21.05L39.28,40.1L40.69,36.12C40.9,35.5,40.97,35.31,41.18,34.71L43.3,78.98C42.85,80.25,43.08,79.58,42.57,81.03C40.84,85.92,39.38,90.06,39.31,90.24L39.2,90.56L21.46,90.56Z" fill="currentColor" stroke="currentColor" stroke-width="0.0710347"/><path d="M21.46,65.32L39.24,18.15C39.24,19.23,39.25,19.82,39.25,21.05L39.28,40.1L40.69,36.12C48.52,13.96,52.72,2.08,52.75,2.05C52.76,2.04,53.95,1.97,55.38,1.9C59.72,1.68,65.09,1.22,69.17,0.71C70.12,0.6,70.93,0.54,70.98,0.58C71.01,0.61,71.03,10.54,71.04,24.55L53.34,75.43L53.33,70.62L53.3,50.73L51.66,55.34C50.06,59.86,48.99,62.87,42.57,81.03C40.84,85.92,39.38,90.06,39.31,90.24L39.2,90.56L21.46,90.56Z" fill="currentColor"/><path d="M39.28,40.08L39.28,40.1L40.69,36.12C48.52,13.96,52.72,2.08,52.75,2.05C52.76,2.04,53.95,1.97,55.38,1.9C59.72,1.68,65.09,1.22,69.17,0.71C70.11,0.6,70.92,0.54,70.98,0.58L53.3,50.74L53.3,50.73L51.66,55.34C50.06,59.86,48.99,62.87,42.57,81.03C40.84,85.92,39.38,90.06,39.31,90.24L39.2,90.56L21.46,90.56Z" fill="currentColor"/></svg>