<svg xmlns="http://www.w3.org/2000/svg" viewBox="0 0 90 90" fill="currentColor"><path d="M56.28,75.28C49.46,76.31,42.52,76.31,35.68,75.28C34.98,76.93,34.17,78.55,33.29,80.11C26.88,79.02,20.64,77.1,14.71,74.39C2.97,56.99,-0.2,40.05,1.38,23.34C8.25,18.26,15.95,14.38,24.15,11.91C26,14.38,27.64,17.02,29.04,19.77C26.38,20.75,23.81,21.99,21.35,23.43C22,23.9,22.63,24.38,23.24,24.85C37.65,18.06,54.34,18.06,68.77,24.85C69.38,24.34,70.01,23.86,70.66,23.43C68.2,21.98,65.63,20.75,62.96,19.75C64.36,17,65.99,14.37,67.84,11.89C76.04,14.37,83.74,18.22,90.62,23.3C92.48,42.69,87.42,59.49,77.25,74.37C71.34,77.08,65.1,79,58.69,80.08L58.67,80.11C57.79,78.55,57,76.93,56.28,75.28ZM22.93,42.62C22.93,47.59,26.47,51.63,31.03,51.63C35.59,51.63,39.21,47.57,39.14,42.62C39.07,37.66,35.57,33.62,31.05,33.62C26.61,33.62,22.93,37.64,22.93,42.62ZM52.85,42.62C52.85,47.59,56.39,51.63,60.95,51.63C65.51,51.63,69.12,47.57,69.04,42.62C68.97,37.66,65.47,33.62,60.95,33.62C56.5,33.62,52.85,37.64,52.85,42.62Z"/></svg>