<svg xmlns="http://www.w3.org/2000/svg" viewBox="0 0 90 90" fill="currentColor"><path d="M91,46C91,70.85,70.85,91,46,91C21.15,91,1,70.85,1,46C1,21.15,21.15,1,46,1C70.85,1,91,21.15,91,46ZM12.46,65.95L24.01,65.95C24.39,46.64,32.9,38.46,39.65,36.78L39.65,65.95L50.53,65.95L50.53,49.3C57.19,50.02,64.19,57.61,66.55,65.95L77.43,65.95C75.61,55.67,68.02,48.08,62.63,44.96C68.02,42.43,76.67,35.81,79.96,23.83L67.98,23.83C65.41,31.84,59,38.04,50.53,38.89L50.53,23.83L49.22,23.83C26.16,23.83,13,39.64,12.46,65.95Z"/></svg>