<svg xmlns="http://www.w3.org/2000/svg" viewBox="0 0 90 90"><path d="M45.01,75L45.01,60L30.01,60C21.73,60,15.01,66.72,15.01,75C15.01,83.28,21.73,90,30.01,90C38.29,90,45.01,83.28,45.01,75Z" fill="currentColor"/><path d="M30.01,30L45.01,30L45.01,60L30.01,60C21.73,60,15.01,53.28,15.01,45C15.01,36.72,21.73,30,30.01,30Z" fill="currentColor"/><path d="M30.01,0L45.01,0L45.01,30L30.01,30C21.73,30,15.01,23.28,15.01,15C15.01,6.72,21.73,0,30.01,0Z" fill="currentColor"/><path d="M60.01,0C68.29,0,75.01,6.72,75.01,15C75.01,23.28,68.29,30,60.01,30L45.01,30L45.01,0Z" fill="currentColor"/><path d="M60.01,60C51.73,60,45.01,53.28,45.01,45C45.01,36.72,51.73,30,60.01,30C68.29,30,75.01,36.72,75.01,45C75.01,53.28,68.29,60,60.01,60Z" fill="currentColor"/></svg>