<svg xmlns="http://www.w3.org/2000/svg" viewBox="0 0 90 90"><path d="M52.33,19.48L52.3,39.37L50.66,34.76L50.66,34.75L48.54,79.03C50.62,84.9,51.74,88.03,51.75,88.05C51.76,88.06,52.95,88.13,54.38,88.2C58.72,88.42,64.09,88.88,68.17,89.39C69.12,89.5,69.93,89.56,69.98,89.52C70.03,89.48,70.05,69.23,70.04,44.52L70.01,-0.41L52.37,-0.41Z" fill="currentColor"/><path d="M20.46,44.5C20.46,69.24,20.48,89.5,20.51,89.53C20.54,89.56,22.08,89.41,23.92,89.21C25.76,89,28.31,88.74,29.58,88.64C31.52,88.47,37.34,88.1,38.01,88.09C38.21,88.09,38.22,87.08,38.25,69.05L38.28,50L39.69,53.98C39.9,54.6,39.97,54.79,40.18,55.39L42.3,11.12C41.85,9.85,42.08,10.52,41.57,9.07C39.84,4.18,38.38,0.04,38.31,-0.14L38.2,-0.46L20.46,-0.46Z" fill="currentColor"/><path d="M20.46,24.78L38.24,71.95C38.24,70.87,38.25,70.28,38.25,69.05L38.28,50L39.69,53.98C47.52,76.14,51.72,88.02,51.75,88.05C51.76,88.06,52.95,88.13,54.38,88.2C58.72,88.42,64.09,88.88,68.17,89.39C69.12,89.5,69.93,89.56,69.98,89.52C70.01,89.49,70.03,79.56,70.04,65.55L52.34,14.67L52.33,19.48L52.3,39.37L50.66,34.76C49.06,30.25,47.99,27.23,41.57,9.07C39.84,4.18,38.38,0.04,38.31,-0.14L38.2,-0.46L20.46,-0.46Z" fill="currentColor"/><path d="M38.28,50.02L38.28,50L39.69,53.98C47.52,76.14,51.72,88.02,51.75,88.05C51.76,88.06,52.95,88.13,54.38,88.2C58.72,88.42,64.09,88.88,68.17,89.39C69.11,89.5,69.92,89.56,69.98,89.52L52.3,39.36L52.3,39.37L50.66,34.76C49.06,30.25,47.99,27.23,41.57,9.07C39.84,4.18,38.38,0.04,38.31,-0.14L38.2,-0.46L20.46,-0.46Z" fill="currentColor"/><path d="M52.33,19.48L52.3,39.37L50.66,34.76L50.66,34.75L48.54,79.03C50.62,84.9,51.74,88.03,51.75,88.05C51.76,88.06,52.95,88.13,54.38,88.2C58.72,88.42,64.09,88.88,68.17,89.39C69.12,89.5,69.93,89.56,69.98,89.52C70.03,89.48,70.05,69.23,70.04,44.52L70.01,-0.41L52.37,-0.41Z" fill="currentColor"/><path d="M20.46,44.5C20.46,69.24,20.48,89.5,20.51,89.53C20.54,89.56,22.08,89.41,23.92,89.21C25.76,89,28.31,88.74,29.58,88.64C31.52,88.47,37.34,88.1,38.01,88.09C38.21,88.09,38.22,87.08,38.25,69.05L38.28,50L39.69,53.98C39.9,54.6,39.97,54.79,40.18,55.39L42.3,11.12C41.85,9.85,42.08,10.52,41.57,9.07C39.84,4.18,38.38,0.04,38.31,-0.14L38.2,-0.46L20.46,-0.46Z" fill="currentColor"/><path d="M20.46,24.78L38.24,71.95C38.24,70.87,38.25,70.28,38.25,69.05L38.28,50L39.69,53.98C47.52,76.14,51.72,88.02,51.75,88.05C51.76,88.06,52.95,88.13,54.38,88.2C58.72,88.42,64.09,88.88,68.17,89.39C69.12,89.5,69.93,89.56,69.98,89.52C70.01,89.49,70.03,79.56,70.04,65.55L52.34,14.67L52.33,19.48L52.3,39.37L50.66,34.76C49.06,30.25,47.99,27.23,41.57,9.07C39.84,4.18,38.38,0.04,38.31,-0.14L38.2,-0.46L20.46,-0.46Z" fill="currentColor"/><path d="M38.28,50.02L38.28,50L39.69,53.98C47.52,76.14,51.72,88.02,51.75,88.05C51.76,88.06,52.95,88.13,54.38,88.2C58.72,88.42,64.09,88.88,68.17,89.39C69.11,89.5,69.92,89.56,69.98,89.52L52.3,39.36L52.3,39.37L50.66,34.76C49.06,30.25,47.99,27.23,41.57,9.07C39.84,4.18,38.38,0.04,38.31,-0.14L38.2,-0.46L20.46,-0.46Z" fill="currentColor"/></svg>