<svg xmlns="http://www.w3.org/2000/svg" viewBox="0 0 90 90"><path d="M90,45C90,20.15,69.85,0,45,0C20.15,0,0,20.15,0,45C0,69.85,20.15,90,45,90C69.85,90,90,69.85,90,45Z" fill="currentColor"/><path d="M66.54,22.76C72.33,28.55,75.52,36.24,75.52,44.43C75.51,61.32,61.74,75.07,44.81,75.07L44.8,75.07C39.66,75.07,34.61,73.78,30.13,71.34L13.85,75.6L18.21,59.72C15.51,55.07,14.1,49.78,14.11,44.41C14.11,27.51,27.89,13.77,44.81,13.77C53.03,13.77,60.74,16.96,66.54,22.76Z" fill="currentColor"/><path d="M19.29,44.41C19.28,49.2,20.64,53.9,23.19,57.96L23.8,58.92L21.22,68.32L30.88,65.79L31.81,66.34C35.73,68.67,40.22,69.89,44.8,69.89L44.81,69.89C58.88,69.89,70.33,58.47,70.33,44.43C70.35,41.08,69.69,37.77,68.41,34.67C67.13,31.58,65.24,28.77,62.87,26.41C60.5,24.04,57.69,22.16,54.59,20.88C51.5,19.59,48.18,18.94,44.82,18.95C30.75,18.95,19.3,30.37,19.29,44.41Z" fill="currentColor"/><path d="M37.14,31.6C37.82,33.11,39.31,36.9,39.5,37.28C39.69,37.67,39.82,38.11,39.57,38.63C39.31,39.14,39.19,39.45,38.8,39.9C38.42,40.35,37.99,40.9,37.65,41.24C37.26,41.62,36.86,42.04,37.31,42.81C37.76,43.57,39.3,46.08,41.58,48.11C44.51,50.72,46.98,51.53,47.75,51.91C48.52,52.29,48.97,52.23,49.41,51.72C49.86,51.2,51.33,49.48,51.84,48.71C52.35,47.95,52.87,48.08,53.57,48.33C54.27,48.59,58.04,50.44,58.81,50.82C59.58,51.21,60.09,51.4,60.28,51.72C60.47,52.04,60.47,53.57,59.83,55.36C59.2,57.14,56.06,58.87,54.66,59C53.25,59.12,51.93,59.63,45.45,57.08C37.65,54.01,32.73,46.04,32.34,45.52C31.96,45.01,29.21,41.37,29.21,37.6C29.21,33.83,31.19,31.98,31.9,31.22C32.6,30.45,33.43,30.26,33.94,30.26L35.41,30.28C35.96,30.3,36.56,30.32,37.14,31.6Z" fill="currentColor"/></svg>