<svg xmlns="http://www.w3.org/2000/svg" viewBox="0 0 90 90"><path d="M87.38,36.82L45,36.82L45,54.22L69.22,54.22C68.17,59.85,65,64.62,60.24,67.81L60.24,79.1L74.78,79.1C83.29,71.26,88.2,59.72,88.2,46.02C88.2,42.83,87.92,39.76,87.38,36.82Z" fill="currentColor"/><path d="M74.78,79.1L60.24,67.81C56.21,70.51,51.05,72.1,45,72.1C33.28,72.1,23.36,64.19,19.82,53.55L4.79,53.55L4.79,65.21C12.19,79.92,27.41,90,45,90C57.15,90,67.34,85.97,74.78,79.1Z" fill="currentColor"/><path d="M18.41,45C18.41,42.03,18.92,39.15,19.82,36.45L19.82,24.79L4.79,24.79C1.64,31.06,0,37.98,0,45C0,52.26,1.74,59.13,4.79,65.21L19.82,53.55C18.92,50.85,18.41,47.97,18.41,45Z" fill="currentColor"/><path d="M62.2,24.63L75.11,11.72C67.32,4.46,57.13,0,45,0C27.41,0,12.19,10.08,4.79,24.79L19.82,36.45C23.36,25.82,33.28,17.9,45,17.9C51.61,17.9,57.54,20.17,62.2,24.63Z" fill="currentColor"/></svg>