<svg xmlns="http://www.w3.org/2000/svg" viewBox="0 0 90 90"><path d="M55.28,15.72C48.46,14.69,41.52,14.69,34.68,15.72C33.98,14.07,33.17,12.45,32.29,10.89C25.88,11.98,19.64,13.9,13.71,16.61C1.97,34.01,-1.2,50.95,0.38,67.66C7.25,72.74,14.95,76.62,23.15,79.09C25,76.62,26.64,73.98,28.04,71.23C25.38,70.24,22.81,69.01,20.35,67.57C21,67.1,21.63,66.62,22.24,66.15C36.65,72.94,53.34,72.94,67.77,66.15C68.38,66.65,69.01,67.14,69.66,67.57C67.2,69.02,64.63,70.24,61.96,71.25C63.36,74,64.99,76.63,66.84,79.11C75.04,76.63,82.74,72.78,89.62,67.7C91.48,48.31,86.42,31.51,76.25,16.63C70.34,13.92,64.1,12,57.69,10.92L57.67,10.89C56.79,12.45,56,14.07,55.28,15.72Z" fill="currentColor"/><path d="M21.93,48.38C21.93,43.41,25.47,39.37,30.03,39.37C34.59,39.37,38.21,43.43,38.14,48.38C38.07,53.34,34.57,57.38,30.05,57.38C25.61,57.38,21.93,53.35,21.93,48.38Z" fill="currentColor"/><path d="M51.85,48.38C51.85,43.41,55.39,39.37,59.95,39.37C64.51,39.37,68.12,43.43,68.04,48.38C67.97,53.34,64.47,57.38,59.95,57.38C55.5,57.38,51.85,53.35,51.85,48.38Z" fill="currentColor"/></svg>