<svg xmlns="http://www.w3.org/2000/svg" viewBox="0 0 90 90"><path d="M90,73.76C90,71.41,71.96,69.51,49.7,69.51C27.45,69.51,9.41,71.41,9.41,73.76C9.41,76.1,27.45,78,49.7,78C71.96,78,90,76.1,90,73.76Z" fill="currentColor" opacity="0.1"/><path d="M11.71,53.09C11.71,52.82,11.71,52.55,11.71,52.27C11.71,52.14,11.71,52,11.7,51.87C11.69,52.28,11.7,52.68,11.71,53.09Z" fill="currentColor"/><path d="M11.71,53.39C11.71,53.37,11.71,53.34,11.71,53.32C11.71,53.24,11.71,53.17,11.71,53.09L11.71,53.09C11.71,53.19,11.71,53.29,11.71,53.39Z" fill="currentColor"/><path d="M13.33,43.45C12.32,46.09,11.65,49.05,11.7,51.87C11.71,52,11.71,52.14,11.71,52.27C11.71,52.55,11.71,52.82,11.71,53.09C11.71,53.17,11.71,53.24,11.71,53.31C11.71,53.34,11.71,53.37,11.71,53.39C12.03,72.18,30.82,77.54,46.42,71.39C46.54,71.35,46.67,71.3,46.79,71.25L40.73,56.93C32.41,60.14,28.57,56.65,28.26,52.83C27.89,48.36,32.39,43.44,40.23,48.4L47.45,35.51L47.86,34.76C45.27,32.83,42.28,31.56,39.16,30.9C38.16,30.7,37.13,30.66,36.12,30.81C35.73,30.87,35.35,30.93,34.95,31C34.25,31.13,33.55,31.28,32.86,31.45C32.35,31.57,31.83,31.7,31.31,31.84C29.79,32.29,28.39,32.74,26.93,33.36C26.31,33.58,25.69,33.87,25.13,34.15C24.51,34.43,23.95,34.76,23.39,35.05C21.99,35.78,20.7,36.56,19.46,37.46C18.39,38.19,17.44,38.92,16.49,39.76C15.78,40.39,15.1,41.04,14.43,41.73L14.42,41.73C13.95,42.23,13.58,42.81,13.33,43.45Z" fill="currentColor"/><path d="M36.67,12.38C36.65,12.38,36.63,12.38,36.61,12.39C34.93,12.5,33.23,12.69,31.57,12.96C31.29,13,31.05,13.15,30.89,13.38C30.73,13.61,30.66,13.89,30.71,14.17L31.41,18.13C30,18.39,28.6,18.71,27.22,19.08L26.14,15.22C26.01,14.76,25.6,14.45,25.13,14.45C25.04,14.45,24.94,14.47,24.84,14.49C23.22,14.97,21.6,15.54,20.03,16.16C19.77,16.27,19.57,16.47,19.46,16.73C19.35,16.99,19.35,17.27,19.46,17.53L21,21.24C20.32,21.53,19.64,21.84,18.97,22.16C18.3,22.48,17.63,22.82,16.98,23.16L15.06,19.63C14.88,19.29,14.53,19.08,14.14,19.08C13.96,19.08,13.79,19.13,13.64,19.21C12.17,20.04,10.71,20.94,9.31,21.9C9.08,22.06,8.93,22.3,8.88,22.58C8.83,22.85,8.89,23.14,9.06,23.36L11.39,26.64C10.23,27.47,9.09,28.36,8.01,29.29L5.37,26.26C5.17,26.03,4.88,25.9,4.58,25.91C4.32,25.91,4.08,26,3.89,26.17C2.64,27.29,1.42,28.49,0.27,29.73C0.09,29.93,-0.01,30.2,0,30.48C0.01,30.76,0.14,31.02,0.35,31.21L11.35,41.11C11.54,41.28,11.78,41.37,12.04,41.37C12.33,41.37,12.6,41.25,12.8,41.04C13.65,40.13,14.58,39.24,15.55,38.39C16.48,37.59,17.46,36.81,18.47,36.1C19.75,35.19,21.05,34.37,22.34,33.68C22.9,33.37,23.48,33.08,24.05,32.81C24.62,32.53,25.21,32.27,25.81,32.02C27.15,31.46,28.61,30.96,30.12,30.54C31.31,30.2,32.53,29.92,33.74,29.71C35.01,29.49,36.29,29.33,37.53,29.24C38.1,29.2,38.53,28.72,38.49,28.15L37.72,13.37L37.72,13.37C37.69,12.82,37.23,12.38,36.67,12.38Z" fill="currentColor"/><path d="M65.37,60.74L65.42,72.67L50.72,73.4L48.97,31.06L65.17,30.21L65.25,44.24L74.38,30.56L87.88,38.35L76.21,51.01L87.88,62.29L75.34,73.29L75.34,73.29Z" fill="currentColor"/></svg>