<svg xmlns="http://www.w3.org/2000/svg" viewBox="0 0 90 90"><path d="M90,45C90,20.15,69.85,0,45,0C20.15,0,0,20.15,0,45C0,69.85,20.15,90,45,90C69.85,90,90,69.85,90,45Z" fill="currentColor"/><path d="M11.46,25.05L23.01,25.05C23.39,44.36,31.9,52.54,38.65,54.22L38.65,25.05L49.53,25.05L49.53,41.7C56.19,40.98,63.19,33.39,65.55,25.05L76.43,25.05C74.61,35.33,67.02,42.92,61.63,46.04C67.02,48.57,75.67,55.19,78.96,67.17L66.98,67.17C64.41,59.16,58,52.96,49.53,52.11L49.53,67.17L48.22,67.17C25.16,67.17,12,51.36,11.46,25.05Z" fill="currentColor"/></svg>