<svg xmlns="http://www.w3.org/2000/svg" viewBox="0 0 90 90" fill="currentColor"><path d="M91,46C91,70.85,70.85,91,46,91C21.15,91,1,70.85,1,46C1,21.15,21.15,1,46,1C70.85,1,91,21.15,91,46ZM60.46,32.1L50.82,32.1L42.38,23.66L42.38,32.1L31.54,32.1L31.54,68.26L70.11,68.26L70.11,41.74ZM53.23,17.63L43.59,17.63L31.53,5.58L31.53,17.63L17.07,17.63L17.07,61.03L29.12,73.08L74.93,73.08L74.93,39.33ZM42.38,32.1L42.38,23.66L50.82,32.1L60.46,32.1L70.11,41.74L70.11,68.26L31.53,68.26L31.53,32.1ZM49.62,45.36L44.79,45.36L44.79,59.82L49.62,59.82ZM58.05,45.36L58.05,59.82L62.87,59.82L62.87,45.36Z"/></svg>