<svg xmlns="http://www.w3.org/2000/svg" viewBox="0 0 90 90"><path d="M90,45C90,20.15,69.85,0,45,0C20.15,0,0,20.15,0,45C0,69.85,20.15,90,45,90C69.85,90,90,69.85,90,45Z" fill="currentColor"/><path d="M60.42,29.53C64.3,29.53,67.45,26.39,67.45,22.51C67.45,18.63,64.3,15.48,60.42,15.48C57.03,15.48,54.2,17.88,53.54,21.08C47.86,21.69,43.42,26.51,43.42,32.35C43.42,32.37,43.42,32.38,43.42,32.39C37.24,32.65,31.6,34.41,27.12,37.19C25.45,35.9,23.36,35.13,21.1,35.13C15.66,35.13,11.25,39.54,11.25,44.98C11.25,48.92,13.57,52.32,16.92,53.89C17.25,65.33,29.7,74.52,45.02,74.52C60.34,74.52,72.82,65.32,73.13,53.87C76.45,52.29,78.75,48.9,78.75,44.98C78.75,39.54,74.34,35.13,68.9,35.13C66.65,35.13,64.57,35.89,62.91,37.17C58.39,34.38,52.68,32.62,46.44,32.38C46.44,32.37,46.44,32.37,46.44,32.36C46.44,28.17,49.55,24.7,53.58,24.13L53.58,24.12C54.31,27.22,57.1,29.53,60.42,29.53Z" fill="currentColor"/><path d="M32.01,44.91C34.77,44.91,36.88,47.81,36.71,51.38C36.55,54.95,34.49,56.25,31.73,56.25C28.97,56.25,26.56,54.8,26.72,51.23C26.88,47.66,29.26,44.91,32.01,44.91Z" fill="currentColor"/><path d="M63.33,51.23C63.49,54.8,61.08,56.25,58.32,56.25C55.56,56.25,53.5,54.96,53.33,51.38C53.17,47.81,55.27,44.91,58.04,44.91C60.8,44.91,63.17,47.66,63.33,51.23Z" fill="currentColor"/><path d="M55.4,60.56C53.7,64.61,49.7,67.46,45.02,67.46C40.35,67.46,36.35,64.61,34.65,60.56C34.45,60.08,34.77,59.54,35.29,59.49C38.32,59.18,41.6,59.01,45.02,59.01C48.45,59.01,51.72,59.18,54.75,59.49C55.27,59.54,55.6,60.08,55.4,60.56Z" fill="currentColor"/></svg>