<svg xmlns="http://www.w3.org/2000/svg" viewBox="0 0 90 90"><path d="M90,45C90,20.15,69.85,0,45,0C20.15,0,0,20.15,0,45C0,69.85,20.15,90,45,90C69.85,90,90,69.85,90,45Z" fill="currentColor"/><path d="M90,45C90,20.15,69.85,0,45,0C20.15,0,0,20.15,0,45C0,69.85,20.15,90,45,90C69.85,90,90,69.85,90,45Z" fill="currentColor"/><path d="M32.25,14.25C28.95,14.4,26.71,14.92,24.74,15.69C22.7,16.48,20.98,17.53,19.26,19.25C17.54,20.97,16.48,22.7,15.69,24.73C14.92,26.7,14.4,28.95,14.25,32.24C14.1,35.54,14.06,36.6,14.06,45C14.06,53.4,14.1,54.45,14.25,57.75C14.4,61.05,14.92,63.3,15.69,65.26C16.48,67.3,17.54,69.02,19.26,70.74C20.97,72.46,22.7,73.52,24.73,74.31C26.7,75.08,28.95,75.6,32.24,75.75C35.54,75.9,36.6,75.94,45,75.94C53.4,75.94,54.45,75.9,57.75,75.75C61.05,75.6,63.3,75.08,65.27,74.31C67.3,73.52,69.02,72.46,70.74,70.74C72.46,69.02,73.52,67.3,74.31,65.26C75.07,63.3,75.6,61.05,75.75,57.75C75.9,54.45,75.94,53.4,75.94,45C75.94,36.6,75.9,35.54,75.75,32.24C75.6,28.95,75.07,26.7,74.31,24.73C73.52,22.7,72.46,20.97,70.74,19.25C69.02,17.53,67.3,16.48,65.26,15.69C63.29,14.92,61.04,14.4,57.75,14.25C54.45,14.1,53.4,14.06,44.99,14.06L45,14.06C36.6,14.06,35.55,14.1,32.25,14.25Z" fill="currentColor"/><path d="M45,19.64C53.26,19.64,54.24,19.67,57.5,19.82C60.52,19.95,62.16,20.46,63.25,20.88C64.69,21.44,65.72,22.11,66.8,23.19C67.89,24.28,68.56,25.31,69.12,26.75C69.54,27.84,70.05,29.48,70.18,32.5C70.33,35.76,70.36,36.74,70.36,44.99C70.36,53.25,70.33,54.23,70.18,57.49C70.05,60.51,69.54,62.14,69.12,63.23C68.56,64.68,67.89,65.7,66.8,66.79C65.72,67.87,64.69,68.54,63.25,69.1C62.16,69.53,60.52,70.03,57.5,70.17C54.24,70.32,53.26,70.35,45,70.35C36.74,70.35,35.76,70.32,32.5,70.17C29.49,70.03,27.85,69.52,26.76,69.1C25.31,68.54,24.28,67.87,23.2,66.79C22.12,65.7,21.45,64.67,20.88,63.23C20.46,62.14,19.96,60.5,19.82,57.49C19.67,54.23,19.64,53.25,19.64,44.99C19.64,36.72,19.67,35.75,19.82,32.49C19.96,29.47,20.46,27.83,20.88,26.74C21.45,25.3,22.12,24.27,23.2,23.19C24.28,22.1,25.31,21.43,26.76,20.87C27.85,20.45,29.49,19.94,32.5,19.8C35.36,19.68,36.46,19.64,42.23,19.63L42.23,19.64C43.05,19.64,43.97,19.64,45,19.64Z" fill="currentColor"/><path d="M57.8,28.49C57.8,30.54,59.47,32.2,61.52,32.2C63.57,32.2,65.23,30.54,65.23,28.49C65.23,26.44,63.57,24.77,61.52,24.77L61.52,24.77C59.47,24.77,57.8,26.44,57.8,28.49Z" fill="currentColor"/><path d="M29.12,45C29.12,53.77,36.23,60.88,45,60.88C53.78,60.88,60.89,53.77,60.89,45C60.89,36.23,53.78,29.11,45,29.11C36.23,29.11,29.12,36.23,29.12,45Z" fill="currentColor"/><path d="M55.32,45C55.32,50.7,50.7,55.31,45,55.31C39.31,55.31,34.69,50.7,34.69,45C34.69,39.3,39.31,34.69,45,34.69C50.7,34.69,55.32,39.3,55.32,45Z" fill="currentColor"/></svg>