<svg xmlns="http://www.w3.org/2000/svg" viewBox="0 0 90 90"><path d="M75.52,19.2C77.59,23.21,79.03,27.51,79.79,31.96L79.8,32.03C75.03,20.18,66.97,15.4,60.39,5C60.05,4.46,59.71,3.93,59.4,3.39C59.24,3.11,59.08,2.82,58.93,2.52C58.66,1.99,58.44,1.44,58.3,0.86C58.3,0.81,58.26,0.76,58.21,0.75C58.18,0.73,58.16,0.73,58.13,0.74C58.12,0.74,58.12,0.75,58.11,0.75C58.1,0.75,58.09,0.76,58.08,0.78L58.09,0.74C47.52,6.93,43.94,18.37,43.61,24.1C39.39,24.4,35.37,25.95,32.03,28.56C31.69,28.27,31.33,28,30.95,27.74C30,24.39,29.95,20.84,30.83,17.46C26.95,19.34,23.51,22.01,20.71,25.29L20.69,25.29C19.01,23.17,19.13,16.2,19.23,14.75C18.74,14.95,18.27,15.2,17.83,15.5C16.36,16.55,14.99,17.72,13.72,19.01C12.28,20.48,10.96,22.05,9.79,23.73C7.09,27.56,5.17,31.89,4.15,36.47L4.11,36.75C3.95,37.62,3.81,38.5,3.69,39.38C3.69,39.41,3.68,39.44,3.68,39.47C3.31,41.38,3.09,43.32,3,45.26L3,45.48C3.02,68.71,21.87,87.51,45.09,87.5C65.54,87.48,83.02,72.75,86.49,52.6C86.57,52.05,86.62,51.52,86.69,50.97C87.55,43.81,86.61,36.55,83.96,29.84C82.14,25.45,78.43,20.7,75.52,19.2Z" fill="currentColor"/><path d="M36.08,63.04L36.11,63.07C35.9,62.97,35.69,62.87,35.5,62.76C35.69,62.86,35.88,62.96,36.08,63.04Z" fill="currentColor"/><path d="M75.52,19.2C77.59,23.21,79.03,27.51,79.79,31.96L79.79,32L79.8,32.05C83.04,41.32,82.57,51.49,78.48,60.43C73.67,70.77,62,81.37,43.74,80.86C24.01,80.3,6.62,65.66,3.38,46.48C2.78,43.45,3.38,41.92,3.67,39.46C3.27,41.37,3.04,43.31,3,45.26L3,45.48C3.02,68.71,21.87,87.51,45.09,87.49C65.54,87.47,83.02,72.74,86.49,52.58C86.57,52.04,86.62,51.51,86.69,50.96C87.55,43.81,86.61,36.55,83.96,29.84C82.14,25.45,78.43,20.7,75.52,19.2Z" fill="currentColor"/><path d="M75.52,19.2C77.59,23.21,79.03,27.51,79.79,31.96L79.79,32L79.8,32.05C83.04,41.32,82.57,51.49,78.48,60.43C73.67,70.77,62,81.37,43.74,80.86C24.01,80.3,6.62,65.66,3.38,46.48C2.78,43.45,3.38,41.92,3.67,39.46C3.27,41.37,3.04,43.31,3,45.26L3,45.48C3.02,68.71,21.87,87.51,45.09,87.49C65.54,87.47,83.02,72.74,86.49,52.58C86.57,52.04,86.62,51.51,86.69,50.96C87.55,43.81,86.61,36.55,83.96,29.84C82.14,25.45,78.43,20.7,75.52,19.2Z" fill="currentColor"/><path d="M63.78,34.99C62.73,33.11,61.41,31.39,59.88,29.9C46.81,16.81,56.46,1.55,58.08,0.76L58.09,0.74C47.52,6.93,43.94,18.37,43.61,24.1C44.1,24.07,44.59,24.03,45.09,24.03C52.73,24.04,59.77,28.15,63.52,34.79Z" fill="currentColor"/><path d="M40.06,42.05C28.11,42.05,26.16,49.29,26.16,49.29C26.7,55.37,30.94,60.4,36.07,63.04C36.31,63.16,36.54,63.27,36.78,63.38C37.19,63.56,37.6,63.73,38.01,63.89C39.77,64.51,41.62,64.87,43.48,64.94C64.44,65.93,68.5,39.88,53.38,32.32C56.95,31.85,60.56,32.73,63.52,34.78C59.76,28.14,52.73,24.04,45.1,24.02C44.6,24.02,44.11,24.06,43.62,24.09C39.4,24.39,35.38,25.94,32.05,28.55C32.69,29.09,33.41,29.82,34.93,31.32C37.79,34.14,45.11,37.06,45.12,37.39C45.05,38.44,41.36,42.05,40.06,42.05Z" fill="currentColor"/><path d="M40.06,42.05C28.11,42.05,26.16,49.29,26.16,49.29C26.7,55.37,30.94,60.4,36.07,63.04C36.31,63.16,36.54,63.27,36.78,63.38C37.19,63.56,37.6,63.73,38.01,63.89C39.77,64.51,41.62,64.87,43.48,64.94C64.44,65.93,68.5,39.88,53.38,32.32C56.95,31.85,60.56,32.73,63.52,34.78C59.76,28.14,52.73,24.04,45.1,24.02C44.6,24.02,44.11,24.06,43.62,24.09C39.4,24.39,35.38,25.94,32.05,28.55C32.69,29.09,33.41,29.82,34.93,31.32C37.79,34.14,45.11,37.06,45.12,37.39C45.05,38.44,41.36,42.05,40.06,42.05Z" fill="currentColor"/><path d="M30.95,27.74C30,24.39,29.95,20.84,30.83,17.46C26.95,19.34,23.51,22.01,20.71,25.29C20.92,25.27,27.02,25.17,30.08,27.16C30.42,27.38,30.7,27.56,30.95,27.74Z" fill="currentColor"/><path d="M43.73,80.85C61.99,81.37,73.66,70.77,78.47,60.42C82.55,51.48,83.02,41.31,79.79,32.03L79.79,31.99C79.79,31.96,79.78,31.94,79.79,31.95L79.8,32.02C81.29,41.77,76.34,51.2,68.59,57.58L68.57,57.63C53.48,69.92,39.03,65.04,36.11,63.05C35.91,62.96,35.7,62.86,35.51,62.75C26.71,58.54,23.07,50.53,23.85,43.65C19.59,43.72,15.68,41.26,13.89,37.38C18.59,34.51,24.44,34.27,29.36,36.76C34.34,39.02,40,39.25,45.14,37.38C45.13,37.05,37.81,34.13,34.95,31.32C33.42,29.81,32.71,29.09,32.07,28.55C31.72,28.26,31.36,27.99,30.98,27.73C30.73,27.55,30.45,27.37,30.11,27.15C27.04,25.16,20.95,25.26,20.74,25.27L20.72,25.27C19.05,23.16,19.17,16.19,19.26,14.74C18.78,14.93,18.3,15.18,17.87,15.49C16.39,16.54,15.02,17.71,13.75,19.01C12.31,20.47,10.99,22.04,9.8,23.72L9.8,23.73C7.1,27.56,5.18,31.89,4.16,36.47C4.14,36.56,2.65,43.09,3.38,46.48C6.62,65.65,24.01,80.3,43.73,80.85Z" fill="currentColor"/><path d="M63.78,34.99C64.01,35.16,64.23,35.33,64.41,35.51C73.95,44.29,68.95,56.72,68.58,57.61C76.32,51.23,81.27,41.79,79.79,32.05C75.03,20.18,66.97,15.4,60.39,5C60.05,4.46,59.71,3.93,59.4,3.39C59.24,3.11,59.08,2.82,58.93,2.52C58.66,1.99,58.44,1.44,58.3,0.86C58.3,0.81,58.26,0.76,58.21,0.75C58.18,0.73,58.16,0.73,58.13,0.74C58.12,0.74,58.12,0.75,58.11,0.75C58.1,0.75,58.09,0.76,58.08,0.78C56.46,1.55,46.81,16.81,59.88,29.89C61.41,31.39,62.73,33.11,63.78,34.99Z" fill="currentColor"/><path d="M63.78,34.97L63.52,34.78C60.56,32.73,56.95,31.85,53.38,32.32C68.5,39.88,64.44,65.92,43.48,64.94C41.62,64.87,39.77,64.51,38.01,63.89C37.6,63.74,37.19,63.56,36.78,63.38C36.54,63.27,36.3,63.16,36.07,63.04L36.1,63.07C39.02,65.06,53.46,69.93,68.56,57.64L68.58,57.59C68.96,56.71,73.95,44.28,64.41,35.5C64.21,35.31,64,35.14,63.78,34.97Z" fill="currentColor"/><path d="M40.06,42.05C41.36,42.05,45.05,38.44,45.12,37.39C39.98,39.26,34.31,39.03,29.33,36.78C24.42,34.28,18.57,34.52,13.87,37.39C15.66,41.27,19.57,43.72,23.83,43.67C23.05,50.54,26.69,58.55,35.49,62.76C35.68,62.86,35.86,62.96,36.07,63.04C30.94,60.4,26.7,55.37,26.16,49.29C26.16,49.29,28.11,42.05,40.06,42.05Z" fill="currentColor"/><path d="M75.52,19.2C77.59,23.21,79.03,27.51,79.79,31.96L79.8,32.03C75.03,20.18,66.97,15.4,60.39,5C60.05,4.46,59.71,3.93,59.4,3.39C59.24,3.11,59.08,2.82,58.93,2.52C58.66,1.99,58.44,1.44,58.3,0.86C58.3,0.81,58.26,0.76,58.21,0.75C58.18,0.73,58.16,0.73,58.13,0.74C58.12,0.74,58.12,0.75,58.11,0.75C58.1,0.75,58.09,0.76,58.08,0.78L58.09,0.74C47.52,6.93,43.94,18.37,43.61,24.1C44.1,24.07,44.59,24.03,45.09,24.03C52.72,24.04,59.76,28.15,63.51,34.79C60.55,32.74,56.94,31.86,53.37,32.33C68.49,39.89,64.43,65.93,43.47,64.95C41.6,64.88,39.76,64.52,38,63.9C37.59,63.75,37.18,63.58,36.77,63.39C36.53,63.28,36.29,63.17,36.06,63.05L36.09,63.08C35.89,62.98,35.68,62.88,35.49,62.77C35.68,62.87,35.86,62.97,36.07,63.05C30.94,60.4,26.7,55.38,26.16,49.3C26.16,49.3,28.11,42.06,40.06,42.06C41.35,42.06,45.05,38.45,45.12,37.41C45.11,37.07,37.79,34.15,34.93,31.34C33.4,29.83,32.69,29.12,32.05,28.57C31.7,28.28,31.34,28.01,30.96,27.75C30.01,24.4,29.96,20.85,30.84,17.47C26.96,19.35,23.52,22.02,20.72,25.3L20.7,25.3C19.03,23.18,19.14,16.21,19.24,14.76C18.75,14.96,18.28,15.21,17.84,15.51C16.37,16.56,15,17.73,13.73,19.03C12.29,20.49,10.97,22.06,9.8,23.74L9.8,23.76L9.8,23.73C7.1,27.56,5.18,31.89,4.16,36.47L4.11,36.75C4.03,37.12,3.67,39,3.62,39.4C3.62,39.37,3.62,39.43,3.62,39.4C3.29,41.34,3.09,43.3,3,45.26L3,45.48C3.02,68.71,21.87,87.51,45.09,87.5C65.54,87.48,83.02,72.75,86.49,52.6C86.57,52.05,86.62,51.52,86.69,50.97C87.55,43.81,86.61,36.55,83.96,29.84C82.14,25.45,78.43,20.7,75.52,19.2Z" fill="currentColor"/></svg>