<svg xmlns="http://www.w3.org/2000/svg" viewBox="0 0 90 90"><path d="M91,17.63C91,19.97,72.96,21.87,50.7,21.87C28.45,21.87,10.41,19.97,10.41,17.63C10.41,15.28,28.45,13.38,50.7,13.38C72.96,13.38,91,15.28,91,17.63Z" fill="currentColor" opacity="0.1"/><path d="M12.71,38.3C12.71,38.56,12.71,38.84,12.71,39.11C12.71,39.25,12.71,39.38,12.7,39.51C12.69,39.11,12.7,38.7,12.71,38.3Z" fill="currentColor"/><path d="M12.71,37.99C12.71,38.02,12.71,38.04,12.71,38.07C12.71,38.14,12.71,38.22,12.71,38.29L12.71,38.3C12.71,38.2,12.71,38.1,12.71,37.99Z" fill="currentColor"/><path d="M14.33,47.94C13.32,45.3,12.65,42.34,12.7,39.51C12.71,39.38,12.71,39.25,12.71,39.11C12.71,38.84,12.71,38.57,12.71,38.3C12.71,38.22,12.71,38.14,12.71,38.07C12.71,38.04,12.71,38.02,12.71,38C13.03,19.21,31.82,13.85,47.42,19.99C47.54,20.04,47.67,20.09,47.79,20.14L41.73,34.45C33.41,31.24,29.57,34.74,29.26,38.55C28.89,43.03,33.39,47.95,41.23,42.98L48.45,55.88L48.86,56.62C46.27,58.56,43.28,59.83,40.16,60.48C39.16,60.69,38.13,60.72,37.12,60.57C36.73,60.51,36.35,60.45,35.95,60.38C35.25,60.25,34.55,60.1,33.86,59.94C33.35,59.82,32.83,59.68,32.31,59.54C30.79,59.09,29.39,58.64,27.93,58.02C27.31,57.8,26.69,57.52,26.13,57.24C25.51,56.96,24.95,56.62,24.39,56.34C22.99,55.61,21.7,54.82,20.46,53.93C19.39,53.2,18.44,52.47,17.49,51.63C16.78,51,16.1,50.34,15.43,49.65L15.42,49.65C14.95,49.16,14.58,48.58,14.33,47.94Z" fill="currentColor"/><path d="M37.67,79C37.65,79,37.63,79,37.61,79C35.93,78.89,34.23,78.7,32.57,78.43C32.29,78.38,32.05,78.23,31.89,78C31.73,77.77,31.66,77.49,31.71,77.21L32.41,73.26C31,73,29.6,72.68,28.22,72.3L27.14,76.17C27.01,76.62,26.6,76.94,26.13,76.93C26.04,76.93,25.94,76.92,25.84,76.89C24.22,76.41,22.6,75.85,21.03,75.22C20.77,75.12,20.57,74.92,20.46,74.66C20.35,74.4,20.35,74.11,20.46,73.85L22,70.14C21.32,69.85,20.64,69.54,19.97,69.23C19.3,68.91,18.63,68.57,17.98,68.22L16.06,71.75C15.88,72.09,15.53,72.3,15.14,72.3C14.96,72.3,14.79,72.26,14.64,72.17C13.17,71.35,11.71,70.44,10.31,69.48C10.08,69.32,9.93,69.08,9.88,68.81C9.83,68.53,9.89,68.25,10.06,68.02L12.39,64.75C11.23,63.92,10.09,63.02,9.01,62.09L6.37,65.12C6.17,65.35,5.88,65.48,5.58,65.48C5.32,65.48,5.08,65.38,4.89,65.22C3.64,64.09,2.42,62.9,1.27,61.66C1.09,61.45,0.99,61.19,1,60.91C1.01,60.63,1.14,60.37,1.35,60.18L12.35,50.28C12.54,50.11,12.78,50.01,13.04,50.01C13.33,50.01,13.6,50.13,13.8,50.35C14.65,51.26,15.58,52.15,16.55,52.99C17.48,53.8,18.46,54.57,19.47,55.29C20.75,56.2,22.05,57.01,23.34,57.71C23.9,58.01,24.48,58.3,25.05,58.58C25.62,58.85,26.21,59.11,26.81,59.36C28.15,59.92,29.61,60.42,31.12,60.85C32.31,61.18,33.53,61.46,34.74,61.67C36.01,61.9,37.29,62.06,38.53,62.15C39.1,62.19,39.53,62.67,39.49,63.23L38.72,78.01L38.72,78.01C38.69,78.57,38.23,79,37.67,79Z" fill="currentColor"/><path d="M66.37,30.64L66.42,18.71L51.72,17.98L49.97,60.33L66.17,61.17L66.25,47.15L75.38,60.82L88.88,53.04L77.21,40.38L88.88,29.09L76.34,18.1L76.34,18.1Z" fill="currentColor"/></svg>