<svg xmlns="http://www.w3.org/2000/svg" viewBox="0 0 90 90"><path d="M0,45C0,69.85,20.15,90,45,90C69.85,90,90,69.85,90,45C90,20.15,69.85,0,45,0L45,0C20.15,0,0,20.15,0,45Z" fill="currentColor"/><path d="M61.78,65.83C51.21,59.38,37.91,57.92,22.25,61.49C20.74,61.84,19.23,60.89,18.89,59.38C18.54,57.87,19.49,56.37,21,56.02C38.14,52.11,52.85,53.79,64.71,61.04C66.03,61.85,66.45,63.58,65.64,64.9C64.83,66.22,63.1,66.64,61.78,65.83Z" fill="currentColor"/><path d="M66.32,53.81C54.22,46.37,35.78,44.22,21.48,48.56C19.62,49.12,17.66,48.07,17.1,46.22C16.54,44.37,17.59,42.41,19.44,41.85C35.78,36.89,56.1,39.29,69.99,47.82C71.64,48.84,72.16,51,71.14,52.65C70.13,54.3,67.97,54.82,66.32,53.81Z" fill="currentColor"/><path d="M19.34,34.68C17.11,35.36,14.76,34.1,14.09,31.88C13.42,29.66,14.67,27.31,16.89,26.63C32.79,21.8,59.21,22.74,75.91,32.65C77.92,33.84,78.57,36.42,77.39,38.42C76.2,40.42,73.61,41.08,71.62,39.89L71.62,39.89C57.11,31.27,33.19,30.48,19.34,34.68Z" fill="currentColor"/></svg>