<svg xmlns="http://www.w3.org/2000/svg" viewBox="0 0 90 90"><path d="M4.56,82.54C4.99,84.04,5.76,85.42,6.8,86.58C7.85,87.73,9.14,88.64,10.58,89.22C12.02,89.81,13.58,90.06,15.14,89.95C16.69,89.85,18.2,89.39,19.55,88.62L62.04,64.43L42.31,42.99Z" fill="currentColor"/><path d="M62.12,25.74L41.44,43.89L62.2,64.37L80.43,53.96C81.6,53.36,82.63,52.53,83.47,51.52C84.32,50.51,84.95,49.35,85.35,48.1C85.74,46.85,85.88,45.53,85.76,44.22C85.64,42.92,85.27,41.65,84.65,40.48C83.7,38.69,82.23,37.22,80.43,36.26L80.49,36.26Z" fill="currentColor"/><path d="M4.22,10.07L4.22,79.96C4.22,80.83,4.33,81.7,4.56,82.54L43.61,44L4.56,7.48C4.33,8.33,4.22,9.2,4.22,10.07Z" fill="currentColor"/><path d="M62.12,25.74L19.69,1.43C18.1,0.5,16.28,0.01,14.43,0C12.2,0,10.02,0.72,8.24,2.07C6.46,3.41,5.17,5.31,4.56,7.46L42.59,45.01Z" fill="currentColor"/></svg>