<svg xmlns="http://www.w3.org/2000/svg" viewBox="0 0 90 90" fill="currentColor"><path d="M1,46C1,21.15,21.15,1,46,1C70.85,1,91,21.15,91,46C91,70.85,70.85,91,46,91L46,91C21.15,91,1,70.85,1,46ZM62.78,25.17C52.21,31.62,38.91,33.08,23.25,29.5C21.74,29.16,20.23,30.1,19.89,31.61C19.54,33.12,20.49,34.63,22,34.97C39.14,38.89,53.85,37.2,65.71,29.95C67.03,29.14,67.45,27.42,66.64,26.1C65.83,24.77,64.1,24.36,62.78,25.17ZM67.32,37.19C55.22,44.63,36.78,46.78,22.48,42.44C20.62,41.88,18.66,42.92,18.1,44.78C17.54,46.63,18.59,48.59,20.44,49.15C36.78,54.11,57.1,51.71,70.99,43.17C72.64,42.16,73.16,40,72.14,38.35C71.13,36.7,68.97,36.18,67.32,37.19ZM20.34,56.31C18.11,55.64,15.76,56.89,15.09,59.12C14.42,61.34,15.67,63.69,17.89,64.37C33.79,69.19,60.21,68.26,76.91,58.35C78.92,57.16,79.57,54.58,78.39,52.58C77.2,50.58,74.61,49.92,72.62,51.11L72.62,51.11C58.11,59.72,34.19,60.52,20.34,56.31Z"/></svg>