<svg xmlns="http://www.w3.org/2000/svg" viewBox="0 0 90 90" fill="currentColor"><path d="M91,46C91,70.85,70.85,91,46,91C21.15,91,1,70.85,1,46C1,21.15,21.15,1,46,1C70.85,1,91,21.15,91,46ZM39.86,56.06C39.02,56.17,38.16,56.24,37.29,56.24C26.81,56.24,18.28,47.71,18.28,37.23C18.28,30.79,21.49,25.1,26.4,21.66C23.23,25.06,21.29,29.61,21.29,34.61C21.29,44.94,29.58,53.37,39.86,53.61L39.86,53.61ZM48.97,34.28L48.99,75.68L56.55,75.68C56.4,76.53,56.31,77.4,56.31,78.3L45.98,78.3L45.96,36.9C45.79,32.26,41.97,28.54,37.3,28.54C35.84,28.54,34.47,28.9,33.27,29.54C34.85,27.35,37.41,25.92,40.31,25.92L40.31,25.92C44.99,25.92,48.8,29.64,48.97,34.28ZM70.68,63.93C67.8,63.93,65.11,64.79,62.85,66.25C64.86,63.95,67.59,62.29,70.68,61.63ZM59.32,75.68L56.55,75.68C57.28,71.74,59.62,68.37,62.86,66.25C60.66,68.78,59.32,72.08,59.32,75.68ZM28.61,37.22C28.61,33.89,30.5,30.99,33.26,29.54C32.23,30.96,31.62,32.71,31.62,34.6C31.62,39.39,35.52,43.29,40.3,43.29C41.2,43.29,42.06,43.14,42.87,42.89L42.87,53.43C42.03,53.55,41.18,53.62,40.3,53.62C40.15,53.62,40.01,53.61,39.85,53.61L39.85,45.51C39.04,45.76,38.19,45.91,37.29,45.91L37.29,45.91C32.51,45.91,28.61,42.01,28.61,37.22ZM70.68,53.6C65.33,53.6,60.36,55.31,56.31,58.22L56.31,37.22C56.31,26.74,47.78,18.21,37.29,18.21C33.24,18.21,29.48,19.49,26.4,21.66C29.87,17.93,34.82,15.59,40.31,15.59C50.79,15.59,59.32,24.12,59.32,34.6L59.32,55.6C63.37,52.69,68.34,50.98,73.69,50.98L73.69,61.31C72.66,61.31,71.65,61.42,70.68,61.63L70.68,61.63ZM56.31,58.22C60.36,55.31,65.33,53.6,70.68,53.6L70.68,61.63C67.59,62.29,64.86,63.95,62.85,66.26C59.62,68.37,57.28,71.74,56.55,75.68L48.99,75.68L48.97,34.28C48.8,29.64,44.98,25.92,40.3,25.92C37.41,25.92,34.84,27.35,33.26,29.54C30.5,31,28.61,33.89,28.61,37.23C28.61,42.02,32.51,45.91,37.29,45.91C38.19,45.91,39.05,45.76,39.86,45.51L39.86,53.61C29.58,53.37,21.29,44.94,21.29,34.61C21.29,29.61,23.23,25.06,26.4,21.66C29.49,19.49,33.24,18.21,37.29,18.21C47.78,18.21,56.31,26.74,56.31,37.23L56.31,37.23Z"/></svg>