<svg xmlns="http://www.w3.org/2000/svg" viewBox="0 0 90 90" fill="currentColor"><path d="M46,14.39C61.25,14.39,76.63,15.02,81.25,16.27C85.13,17.39,88.25,20.27,89.25,24.14C90.5,28.89,91,37.39,91,45.89C91,54.39,90.5,63.02,89.25,67.64C88.25,71.52,85.13,74.64,81.25,75.64C76.63,76.89,61.25,77.52,46,77.52C30.75,77.52,15.5,76.89,10.75,75.64C6.88,74.64,3.75,71.52,2.75,67.64C1.63,63.02,1,54.39,1,45.89C1,37.39,1.63,28.89,2.75,24.14C3.75,20.27,6.88,17.39,10.75,16.27C15.5,15.02,30.75,14.39,46,14.39ZM37,59.39L60.38,45.89L37,32.39Z"/></svg>