<svg xmlns="http://www.w3.org/2000/svg" viewBox="0 0 90 90"><path d="M76,50.32C76,69.65,60.33,85.32,41,85.32C21.67,85.32,6,69.65,6,50.32C6,30.99,21.67,15.32,41,15.32C60.33,15.32,76,30.99,76,50.32Z" fill="currentColor"/><path d="M67,65.32C67,68.77,66.5,72.1,65.57,75.24C72.01,68.9,76,60.07,76,50.32C76,30.99,60.33,15.32,41,15.32C25.12,15.32,11.7,25.9,7.43,40.4C13.75,34.17,22.42,30.32,32,30.32C51.33,30.32,67,45.99,67,65.32Z" fill="currentColor"/><path d="M76,49.32C76,68.65,60.33,84.32,41,84.32C21.67,84.32,6,68.65,6,49.32C6,29.99,21.67,14.32,41,14.32C60.33,14.32,76,29.99,76,49.32Z" fill="currentColor"/><path d="M67,64.32C67,67.77,66.5,71.1,65.57,74.24C72.01,67.9,76,59.07,76,49.32C76,29.99,60.33,14.32,41,14.32C25.12,14.32,11.7,24.9,7.43,39.4C13.75,33.17,22.42,29.32,32,29.32C51.33,29.32,67,44.99,67,64.32Z" fill="currentColor"/><path d="M34,53.32C34,56.08,31.95,58.41,29.56,58.32C27.05,58.32,25,56.08,25,53.32C25,50.55,27.03,48.32,29.56,48.32C31.95,48.32,34,50.55,34,53.32Z" fill="currentColor"/><path d="M57,53.32C57,56.08,54.97,58.41,52.44,58.32C50.05,58.32,48,56.08,48,53.32C48,50.55,49.94,48.32,52.44,48.32C54.95,48.32,57,50.55,57,53.32Z" fill="currentColor"/><path d="M33.55,36.69L32.45,41.57C37.79,42.78,43.33,42.84,48.69,41.75L49.5,41.58L48.5,36.68L47.69,36.85C43.02,37.8,38.2,37.75,33.55,36.69Z" fill="currentColor"/><path d="M58.42,22.93L79.48,1.88C80.54,0.76,81.37,0.32,82.7,0.32C84.41,0.32,86.12,1.59,87.93,3.39C89.81,5.28,91,7.13,91,8.85C91,9.81,90.48,10.85,89.44,11.84L68.39,32.89" fill="currentColor"/><path d="M82.7,0.32C84.41,0.32,86.12,1.59,87.93,3.39C89.81,5.28,91,7.13,91,8.85C91,9.81,90.48,10.85,89.44,11.84L72.63,28.64L85.19,12.53C88.82,7.87,85.56,1.61,80.42,1.03C81.1,0.53,81.78,0.32,82.7,0.32Z" fill="currentColor" opacity="0.5"/><path d="M72.67,8.68L58.42,22.93L68.39,32.89L77.51,23.77C72.83,20.24,70.97,14.12,72.67,8.68Z" fill="currentColor"/><path d="M81,50.32C81,72.41,63.09,90.32,41,90.32C18.91,90.32,1,72.41,1,50.32C1,28.23,18.91,10.32,41,10.32C63.09,10.32,81,28.23,81,50.32Z" fill="currentColor"/><path d="M67,50.32C67,64.68,55.36,76.32,41,76.32C26.64,76.32,15,64.68,15,50.32C15,35.96,26.64,24.32,41,24.32C55.36,24.32,67,35.96,67,50.32Z" fill="currentColor"/><path d="M81,50.32C81,72.41,63.09,90.32,41,90.32C18.91,90.32,1,72.41,1,50.32C1,28.23,18.91,10.32,41,10.32C63.09,10.32,81,28.23,81,50.32Z" fill="currentColor"/><path d="M71,50.32C71,66.89,57.57,80.32,41,80.32C24.43,80.32,11,66.89,11,50.32C11,33.75,24.43,20.32,41,20.32C57.57,20.32,71,33.75,71,50.32Z" fill="currentColor"/><path d="M41,10.32C56.94,10.32,70.7,19.64,77.13,33.14C65.96,17.12,45.43,8.97,26.28,13.12C30.83,11.31,35.8,10.32,41,10.32Z" fill="currentColor"/><path d="M41,90.32C24.71,90.32,10.69,80.58,4.45,66.6C14.55,82.31,33.43,91,51.82,88.84C48.38,89.8,44.75,90.32,41,90.32Z" fill="currentColor"/></svg>