<svg xmlns="http://www.w3.org/2000/svg" viewBox="0 0 90 90"><path d="M75,40C75,20.67,59.33,5,40,5C20.67,5,5,20.67,5,40C5,59.33,20.67,75,40,75C59.33,75,75,59.33,75,40Z" fill="currentColor"/><path d="M32.5,60C21.2,60,11.25,54.24,5.43,45.49C8.06,62.21,22.54,75,40,75C59.33,75,75,59.33,75,40C75,28.6,69.55,18.48,61.12,12.09C63.59,16.67,65,21.92,65,27.5C65,45.45,50.45,60,32.5,60Z" fill="currentColor"/><path d="M59.7,45.1C60.74,43.54,60.74,42.33,59.7,40.77C54.61,33.5,48.06,27.84,40.15,27.84C32.24,27.84,25.7,33.5,20.61,40.77C19.57,42.33,19.57,43.54,20.61,45.1C25.7,52.31,32.24,57.84,40.15,57.84C48.06,57.84,54.61,52.31,59.7,45.1Z" fill="currentColor"/><path d="M62.58,42.1C63.78,40.54,63.78,39.33,62.58,37.77C56.75,30.5,49.23,24.84,40.15,24.84C31.08,24.84,23.56,30.5,17.73,37.77C16.53,39.33,16.53,40.54,17.73,42.1C23.56,49.31,31.08,54.84,40.15,54.84C49.23,54.84,56.75,49.31,62.58,42.1Z" fill="currentColor"/><path d="M40.15,49.01C35.09,49.01,30.99,44.91,30.99,39.84C30.99,34.78,35.09,30.68,40.15,30.68C45.22,30.68,49.32,34.78,49.32,39.84C49.32,44.91,45.22,49.01,40.15,49.01Z" fill="currentColor"/><path d="M40.15,43.76C37.99,43.76,36.24,42,36.24,39.84C36.24,37.68,37.99,35.93,40.15,35.93C42.31,35.93,44.07,37.68,44.07,39.84C44.07,42,42.31,43.76,40.15,43.76Z" fill="currentColor"/><path d="M38.43,33.6C38.43,35.82,36.63,37.62,34.41,37.62C33.33,37.62,32.35,37.19,31.62,36.49C32.65,33.89,34.82,31.87,37.52,31.06C38.09,31.76,38.43,32.64,38.43,33.6Z" fill="currentColor"/><path d="M57.42,67.39L78.48,88.44C79.54,89.56,80.37,90,81.7,90C83.41,90,85.12,88.73,86.93,86.93C88.81,85.04,90,83.19,90,81.47C90,80.51,89.48,79.47,88.44,78.48L67.39,57.43" fill="none" stroke="currentColor" stroke-width="2" stroke-linecap="round" stroke-linejoin="round"/><path d="M81.7,90C83.41,90,85.12,88.73,86.93,86.93C88.81,85.04,90,83.19,90,81.47C90,80.51,89.48,79.47,88.44,78.48L71.63,61.68L84.19,77.79C87.82,82.45,84.56,88.71,79.42,89.29C80.1,89.79,80.78,90,81.7,90Z" fill="currentColor" opacity="0.5"/><path d="M71.67,81.64L57.42,67.39L67.39,57.43L76.51,66.55C71.83,70.08,69.97,76.19,71.67,81.64Z" fill="currentColor"/><path d="M80,40C80,17.91,62.09,0,40,0C17.91,0,0,17.91,0,40C0,62.09,17.91,80,40,80C62.09,80,80,62.09,80,40Z" fill="currentColor"/><path d="M66,40C66,25.64,54.36,14,40,14C25.64,14,14,25.64,14,40C14,54.36,25.64,66,40,66C54.36,66,66,54.36,66,40Z" fill="currentColor"/><path d="M80,40C80,17.91,62.09,0,40,0C17.91,0,0,17.91,0,40C0,62.09,17.91,80,40,80C62.09,80,80,62.09,80,40Z" fill="currentColor"/><path d="M70,40C70,23.43,56.57,10,40,10C23.43,10,10,23.43,10,40C10,56.57,23.43,70,40,70C56.57,70,70,56.57,70,40Z" fill="currentColor"/><path d="M40,80C55.94,80,69.7,70.68,76.13,57.18C64.96,73.2,44.43,81.35,25.28,77.2C29.83,79.01,34.8,80,40,80Z" fill="currentColor"/><path d="M40,0C23.71,0,9.69,9.74,3.45,23.72C13.55,8.01,32.43,-0.68,50.82,1.48C47.38,0.52,43.75,0,40,0Z" fill="currentColor"/></svg>