<svg xmlns="http://www.w3.org/2000/svg" viewBox="0 0 90 90"><path d="M76,50.32C76,69.65,60.33,85.32,41,85.32C21.67,85.32,6,69.65,6,50.32C6,30.99,21.67,15.32,41,15.32C60.33,15.32,76,30.99,76,50.32Z" fill="currentColor"/><path d="M33.5,30.32C22.2,30.32,12.25,36.08,6.43,44.83C9.06,28.11,23.54,15.32,41,15.32C60.33,15.32,76,30.99,76,50.32C76,61.72,70.55,71.84,62.12,78.23C64.59,73.65,66,68.4,66,62.82C66,44.87,51.45,30.32,33.5,30.32Z" fill="currentColor"/><path d="M60.7,45.22C61.74,46.78,61.74,47.99,60.7,49.55C55.61,56.82,49.06,62.48,41.15,62.48C33.24,62.48,26.7,56.82,21.61,49.55C20.57,47.99,20.57,46.78,21.61,45.22C26.7,38.01,33.24,32.48,41.15,32.48C49.06,32.48,55.61,38.01,60.7,45.22Z" fill="currentColor"/><path d="M63.58,48.22C64.78,49.78,64.78,50.99,63.58,52.55C57.75,59.82,50.23,65.48,41.15,65.48C32.08,65.48,24.56,59.82,18.73,52.55C17.53,50.99,17.53,49.78,18.73,48.22C24.56,41.01,32.08,35.48,41.15,35.48C50.23,35.48,57.75,41.01,63.58,48.22Z" fill="currentColor"/><path d="M41.15,41.31C36.09,41.31,31.99,45.41,31.99,50.48C31.99,55.54,36.09,59.64,41.15,59.64C46.22,59.64,50.32,55.54,50.32,50.48C50.32,45.41,46.22,41.31,41.15,41.31Z" fill="currentColor"/><path d="M41.15,46.56C38.99,46.56,37.24,48.32,37.24,50.48C37.24,52.64,38.99,54.39,41.15,54.39C43.31,54.39,45.07,52.64,45.07,50.48C45.07,48.32,43.31,46.56,41.15,46.56Z" fill="currentColor"/><path d="M39.43,56.72C39.43,54.5,37.63,52.7,35.41,52.7C34.33,52.7,33.35,53.13,32.62,53.83C33.65,56.43,35.82,58.45,38.52,59.26C39.09,58.56,39.43,57.68,39.43,56.72Z" fill="currentColor"/><path d="M58.42,22.93L79.48,1.88C80.54,0.76,81.37,0.32,82.7,0.32C84.41,0.32,86.12,1.59,87.93,3.39C89.81,5.28,91,7.13,91,8.85C91,9.81,90.48,10.85,89.44,11.84L68.39,32.89" fill="currentColor"/><path d="M82.7,0.32C84.41,0.32,86.12,1.59,87.93,3.39C89.81,5.28,91,7.13,91,8.85C91,9.81,90.48,10.85,89.44,11.84L72.63,28.64L85.19,12.53C88.82,7.87,85.56,1.61,80.42,1.03C81.1,0.53,81.78,0.32,82.7,0.32Z" fill="currentColor" opacity="0.5"/><path d="M72.67,8.68L58.42,22.93L68.39,32.89L77.51,23.77C72.83,20.24,70.97,14.12,72.67,8.68Z" fill="currentColor"/><path d="M81,50.32C81,72.41,63.09,90.32,41,90.32C18.91,90.32,1,72.41,1,50.32C1,28.23,18.91,10.32,41,10.32C63.09,10.32,81,28.23,81,50.32Z" fill="currentColor"/><path d="M67,50.32C67,64.68,55.36,76.32,41,76.32C26.64,76.32,15,64.68,15,50.32C15,35.96,26.64,24.32,41,24.32C55.36,24.32,67,35.96,67,50.32Z" fill="currentColor"/><path d="M81,50.32C81,72.41,63.09,90.32,41,90.32C18.91,90.32,1,72.41,1,50.32C1,28.23,18.91,10.32,41,10.32C63.09,10.32,81,28.23,81,50.32Z" fill="currentColor"/><path d="M71,50.32C71,66.89,57.57,80.32,41,80.32C24.43,80.32,11,66.89,11,50.32C11,33.75,24.43,20.32,41,20.32C57.57,20.32,71,33.75,71,50.32Z" fill="currentColor"/><path d="M41,10.32C56.94,10.32,70.7,19.64,77.13,33.14C65.96,17.12,45.43,8.97,26.28,13.12C30.83,11.31,35.8,10.32,41,10.32Z" fill="currentColor"/><path d="M41,90.32C24.71,90.32,10.69,80.58,4.45,66.6C14.55,82.31,33.43,91,51.82,88.84C48.38,89.8,44.75,90.32,41,90.32Z" fill="currentColor"/></svg>