<svg xmlns="http://www.w3.org/2000/svg" viewBox="0 0 90 90"><path d="M75,40C75,20.67,59.33,5,40,5C20.67,5,5,20.67,5,40C5,59.33,20.67,75,40,75C59.33,75,75,59.33,75,40Z" fill="currentColor"/><path d="M32.5,60C21.2,60,11.25,54.24,5.43,45.49C8.06,62.21,22.54,75,40,75C59.33,75,75,59.33,75,40C75,28.6,69.55,18.48,61.12,12.09C63.59,16.67,65,21.92,65,27.5C65,45.45,50.45,60,32.5,60Z" fill="currentColor"/><path d="M38.26,59.63C39.05,60.48,40.48,60.48,41.27,59.63L49.56,50.69C56.42,43.3,57.73,40.63,57.73,37.81C57.73,32.78,53.97,29.56,49.4,29.56C46.08,29.56,42.87,31.22,39.76,36.25C36.72,31.32,33.45,29.56,30.29,29.56C26.05,29.56,21.8,32.73,21.8,37.96C21.8,40.48,22.84,43.04,29.97,50.69Z" fill="currentColor"/><path d="M38.26,55.63C39.05,56.48,40.48,56.48,41.27,55.63L49.56,46.69C56.42,39.3,57.73,36.63,57.73,33.81C57.73,28.78,53.97,25.56,49.4,25.56C46.08,25.56,42.87,27.22,39.76,32.25C36.72,27.32,33.45,25.56,30.29,25.56C26.05,25.56,21.8,28.73,21.8,33.96C21.8,36.48,22.84,39.04,29.97,46.69Z" fill="currentColor"/><path d="M57.42,67.39L78.48,88.44C79.54,89.56,80.37,90,81.7,90C83.41,90,85.12,88.73,86.93,86.93C88.81,85.04,90,83.19,90,81.47C90,80.51,89.48,79.47,88.44,78.48L67.39,57.43" fill="none" stroke="currentColor" stroke-width="2" stroke-linecap="round" stroke-linejoin="round"/><path d="M81.7,90C83.41,90,85.12,88.73,86.93,86.93C88.81,85.04,90,83.19,90,81.47C90,80.51,89.48,79.47,88.44,78.48L71.63,61.68L84.19,77.79C87.82,82.45,84.56,88.71,79.42,89.29C80.1,89.79,80.78,90,81.7,90Z" fill="currentColor" opacity="0.5"/><path d="M71.67,81.64L57.42,67.39L67.39,57.43L76.51,66.55C71.83,70.08,69.97,76.19,71.67,81.64Z" fill="currentColor"/><path d="M80,40C80,17.91,62.09,0,40,0C17.91,0,0,17.91,0,40C0,62.09,17.91,80,40,80C62.09,80,80,62.09,80,40Z" fill="currentColor"/><path d="M66,40C66,25.64,54.36,14,40,14C25.64,14,14,25.64,14,40C14,54.36,25.64,66,40,66C54.36,66,66,54.36,66,40Z" fill="currentColor"/><path d="M80,40C80,17.91,62.09,0,40,0C17.91,0,0,17.91,0,40C0,62.09,17.91,80,40,80C62.09,80,80,62.09,80,40Z" fill="currentColor"/><path d="M70,40C70,23.43,56.57,10,40,10C23.43,10,10,23.43,10,40C10,56.57,23.43,70,40,70C56.57,70,70,56.57,70,40Z" fill="currentColor"/><path d="M40,80C55.94,80,69.7,70.68,76.13,57.18C64.96,73.2,44.43,81.35,25.28,77.2C29.83,79.01,34.8,80,40,80Z" fill="currentColor"/><path d="M40,0C23.71,0,9.69,9.74,3.45,23.72C13.55,8.01,32.43,-0.68,50.82,1.48C47.38,0.52,43.75,0,40,0Z" fill="currentColor"/></svg>