<svg xmlns="http://www.w3.org/2000/svg" viewBox="0 0 90 90"><path d="M76,50.32C76,69.65,60.33,85.32,41,85.32C21.67,85.32,6,69.65,6,50.32C6,30.99,21.67,15.32,41,15.32C60.33,15.32,76,30.99,76,50.32Z" fill="currentColor"/><path d="M33.5,30.32C22.2,30.32,12.25,36.08,6.43,44.83C9.06,28.11,23.54,15.32,41,15.32C60.33,15.32,76,30.99,76,50.32C76,61.72,70.55,71.84,62.12,78.23C64.59,73.65,66,68.4,66,62.82C66,44.87,51.45,30.32,33.5,30.32Z" fill="currentColor"/><path d="M40.95,15.32L41,15.32L41,50.32L76,50.32C76,69.65,60.33,85.32,41,85.32L41,50.32L6,50.32C6,31.01,21.64,15.35,40.95,15.32Z" fill="currentColor"/><path d="M41,31.19L41,15.32L40.93,15.32C23.5,15.36,9.06,28.13,6.43,44.83C12.25,36.08,22.2,30.32,33.5,30.32C36.08,30.32,38.59,30.62,41,31.19Z" fill="currentColor"/><path d="M75,58.66L75,50.32L63.51,50.32C65.11,54.17,66,58.39,66,62.82C66,68.4,64.6,73.65,62.12,78.23C68.43,73.45,73.06,66.59,75,58.66Z" fill="currentColor"/><path d="M76,50.32L63.63,50.32C59.27,41.13,51.01,34.14,41,31.49L41,15.32L41.07,15.32C60.37,15.36,76,31.01,76,50.32Z" fill="currentColor"/><path d="M58.42,22.93L79.48,1.88C80.54,0.76,81.37,0.32,82.7,0.32C84.41,0.32,86.12,1.59,87.93,3.39C89.81,5.28,91,7.13,91,8.85C91,9.81,90.48,10.85,89.44,11.84L68.39,32.89" fill="currentColor"/><path d="M82.7,0.32C84.41,0.32,86.12,1.59,87.93,3.39C89.81,5.28,91,7.13,91,8.85C91,9.81,90.48,10.85,89.44,11.84L72.63,28.64L85.19,12.53C88.82,7.87,85.56,1.61,80.42,1.03C81.1,0.53,81.78,0.32,82.7,0.32Z" fill="currentColor" opacity="0.5"/><path d="M72.67,8.68L58.42,22.93L68.39,32.89L77.51,23.77C72.83,20.24,70.97,14.12,72.67,8.68Z" fill="currentColor"/><path d="M81,50.32C81,72.41,63.09,90.32,41,90.32C18.91,90.32,1,72.41,1,50.32C1,28.23,18.91,10.32,41,10.32C63.09,10.32,81,28.23,81,50.32Z" fill="currentColor"/><path d="M67,50.32C67,64.68,55.36,76.32,41,76.32C26.64,76.32,15,64.68,15,50.32C15,35.96,26.64,24.32,41,24.32C55.36,24.32,67,35.96,67,50.32Z" fill="currentColor"/><path d="M81,50.32C81,72.41,63.09,90.32,41,90.32C18.91,90.32,1,72.41,1,50.32C1,28.23,18.91,10.32,41,10.32C63.09,10.32,81,28.23,81,50.32Z" fill="currentColor"/><path d="M71,50.32C71,66.89,57.57,80.32,41,80.32C24.43,80.32,11,66.89,11,50.32C11,33.75,24.43,20.32,41,20.32C57.57,20.32,71,33.75,71,50.32Z" fill="currentColor"/><path d="M41,10.32C56.94,10.32,70.7,19.64,77.13,33.14C65.96,17.12,45.43,8.97,26.28,13.12C30.83,11.31,35.8,10.32,41,10.32Z" fill="currentColor"/><path d="M41,90.32C24.71,90.32,10.69,80.58,4.45,66.6C14.55,82.31,33.43,91,51.82,88.84C48.38,89.8,44.75,90.32,41,90.32Z" fill="currentColor"/></svg>