<svg xmlns="http://www.w3.org/2000/svg" viewBox="0 0 90 90"><path d="M75,40C75,20.67,59.33,5,40,5C20.67,5,5,20.67,5,40C5,59.33,20.67,75,40,75C59.33,75,75,59.33,75,40Z" fill="currentColor"/><path d="M40,10C23.43,10,10,23.43,10,40C10,56.57,23.43,70,40,70C56.57,70,70,56.57,70,40C70,23.43,56.57,10,40,10Z" fill="currentColor"/><path d="M40.9,25.25C43.25,23.5,46.51,22.72,48.98,22.72C55.3,22.72,60.12,26.81,60.12,32.6C60.12,36.75,58.67,38.26,55.12,41.81L52.95,43.92C52.35,44.59,52.05,45.43,52.05,46.27L52.05,47C52.05,47.66,51.69,48.02,51.02,48.02L45.24,48.02C44.7,48.02,44.22,47.84,44.22,47L44.22,45.79C44.22,42.6,46.02,39.95,47.23,38.98L48.92,37.6C49.64,36.94,50.42,36.21,51.08,35.49C51.63,34.83,51.93,34.04,51.93,33.2C51.93,31.39,50.36,30.37,48.55,30.37C47.53,30.37,45.78,30.73,44.22,32.06C44.04,32.24,43.73,32.36,43.55,32.36C43.43,29.34,42.77,27.72,40.9,25.25Z" fill="currentColor"/><path d="M26.26,60.67C25.66,60.67,25.24,60.25,25.24,59.59L25.24,53.5C25.24,52.9,25.66,52.48,26.26,52.48L32.59,52.48C33.19,52.48,33.61,52.9,33.61,53.5L33.61,59.59C33.61,60.25,33.19,60.67,32.53,60.67Z" fill="currentColor"/><path d="M26.57,48.02C26.02,48.02,25.54,47.84,25.54,47L25.54,45.79C25.54,42.6,27.35,39.95,28.55,38.98L30.24,37.6C30.96,36.94,31.75,36.21,32.41,35.49C32.95,34.83,33.25,34.04,33.25,33.2C33.25,31.39,31.69,30.37,29.88,30.37C28.86,30.37,27.11,30.73,25.54,32.06C25.06,32.54,24.64,32.48,23.98,31.81L20.66,27.78C20.24,27.3,20.42,26.81,20.78,26.45C23.37,23.86,27.35,22.72,30.3,22.72C36.63,22.72,41.45,26.81,41.45,32.6C41.45,36.75,40,38.26,36.45,41.81L34.28,43.92C33.67,44.59,33.37,45.43,33.37,46.27L33.37,47C33.37,47.66,33.01,48.02,32.35,48.02Z" fill="currentColor"/><path d="M44.94,60.67C44.34,60.67,43.92,60.25,43.92,59.59L43.92,53.5C43.92,52.9,44.34,52.48,44.94,52.48L51.26,52.48C51.87,52.48,52.29,52.9,52.29,53.5L52.29,59.59C52.29,60.25,51.87,60.67,51.2,60.67Z" fill="currentColor"/><path d="M40.9,23.37C43.25,21.63,46.51,20.84,48.98,20.84C55.3,20.84,60.12,24.94,60.12,30.72C60.12,34.88,58.67,36.39,55.12,39.94L52.95,42.05C52.35,42.71,52.05,43.55,52.05,44.4L52.05,45.12C52.05,45.78,51.69,46.14,51.02,46.14L45.24,46.14C44.7,46.14,44.22,45.96,44.22,45.12L44.22,43.92C44.22,40.72,46.02,38.07,47.23,37.11L48.92,35.72C49.64,35.06,50.42,34.34,51.08,33.61C51.63,32.95,51.93,32.17,51.93,31.33C51.93,29.52,50.36,28.49,48.55,28.49C47.53,28.49,45.78,28.86,44.22,30.18C44.04,30.36,43.73,30.48,43.55,30.48C43.43,27.47,42.77,25.84,40.9,23.37Z" fill="currentColor"/><path d="M26.26,58.8C25.66,58.8,25.24,58.37,25.24,57.71L25.24,51.63C25.24,51.02,25.66,50.6,26.26,50.6L32.59,50.6C33.19,50.6,33.61,51.02,33.61,51.63L33.61,57.71C33.61,58.37,33.19,58.8,32.53,58.8Z" fill="currentColor"/><path d="M26.57,46.14C26.02,46.14,25.54,45.96,25.54,45.12L25.54,43.92C25.54,40.72,27.35,38.07,28.55,37.11L30.24,35.72C30.96,35.06,31.75,34.34,32.41,33.61C32.95,32.95,33.25,32.17,33.25,31.33C33.25,29.52,31.69,28.49,29.88,28.49C28.86,28.49,27.11,28.86,25.54,30.18C25.06,30.66,24.64,30.6,23.98,29.94L20.66,25.9C20.24,25.42,20.42,24.94,20.78,24.58C23.37,21.99,27.35,20.84,30.3,20.84C36.63,20.84,41.45,24.94,41.45,30.72C41.45,34.88,40,36.39,36.45,39.94L34.28,42.05C33.67,42.71,33.37,43.55,33.37,44.4L33.37,45.12C33.37,45.78,33.01,46.14,32.35,46.14Z" fill="currentColor"/><path d="M44.94,58.8C44.34,58.8,43.92,58.37,43.92,57.71L43.92,51.63C43.92,51.02,44.34,50.6,44.94,50.6L51.26,50.6C51.87,50.6,52.29,51.02,52.29,51.63L52.29,57.71C52.29,58.37,51.87,58.8,51.2,58.8Z" fill="currentColor"/><path d="M57.42,67.39L78.48,88.44C79.54,89.56,80.37,90,81.7,90C83.41,90,85.12,88.73,86.93,86.93C88.81,85.04,90,83.19,90,81.47C90,80.51,89.48,79.47,88.44,78.48L67.39,57.43" fill="none" stroke="currentColor" stroke-width="2" stroke-linecap="round" stroke-linejoin="round"/><path d="M81.7,90C83.41,90,85.12,88.73,86.93,86.93C88.81,85.04,90,83.19,90,81.47C90,80.51,89.48,79.47,88.44,78.48L71.63,61.68L84.19,77.79C87.82,82.45,84.56,88.71,79.42,89.29C80.1,89.79,80.78,90,81.7,90Z" fill="currentColor" opacity="0.5"/><path d="M71.67,81.64L57.42,67.39L67.39,57.43L76.51,66.55C71.83,70.08,69.97,76.19,71.67,81.64Z" fill="currentColor"/><path d="M80,40C80,17.91,62.09,0,40,0C17.91,0,0,17.91,0,40C0,62.09,17.91,80,40,80C62.09,80,80,62.09,80,40Z" fill="currentColor"/><path d="M66,40C66,25.64,54.36,14,40,14C25.64,14,14,25.64,14,40C14,54.36,25.64,66,40,66C54.36,66,66,54.36,66,40Z" fill="currentColor"/><path d="M80,40C80,17.91,62.09,0,40,0C17.91,0,0,17.91,0,40C0,62.09,17.91,80,40,80C62.09,80,80,62.09,80,40Z" fill="currentColor"/><path d="M70,40C70,23.43,56.57,10,40,10C23.43,10,10,23.43,10,40C10,56.57,23.43,70,40,70C56.57,70,70,56.57,70,40Z" fill="currentColor"/><path d="M40,80C55.94,80,69.7,70.68,76.13,57.18C64.96,73.2,44.43,81.35,25.28,77.2C29.83,79.01,34.8,80,40,80Z" fill="currentColor"/><path d="M40,0C23.71,0,9.69,9.74,3.45,23.72C13.55,8.01,32.43,-0.68,50.82,1.48C47.38,0.52,43.75,0,40,0Z" fill="currentColor"/></svg>