<svg xmlns="http://www.w3.org/2000/svg" viewBox="0 0 90 90"><path d="M76,50.32C76,69.65,60.33,85.32,41,85.32C21.67,85.32,6,69.65,6,50.32C6,30.99,21.67,15.32,41,15.32C60.33,15.32,76,30.99,76,50.32Z" fill="currentColor"/><path d="M30.1,30.31C29.49,30.31,29.01,30.85,29.01,31.46L29.01,37.78C29.01,38.26,29.25,38.87,30.1,38.87L36.66,38.87C37.21,38.87,37.87,38.69,37.87,37.78L37.87,31.46C37.87,30.98,37.21,30.31,36.66,30.31Z" fill="currentColor"/><path d="M45.4,30.31C44.86,30.31,44.19,30.98,44.19,31.46L44.19,37.78C44.19,38.69,44.86,38.87,45.4,38.87L51.96,38.87C52.81,38.87,53.05,38.26,53.05,37.78L53.05,31.46C53.05,30.85,52.57,30.31,51.96,30.31Z" fill="currentColor"/><path d="M30.4,43.51C29.74,43.51,29.25,43.87,29.25,44.59L28.77,67.18C28.77,67.72,29.01,68.26,29.86,68.26L36.9,68.26C37.57,68.26,38.05,67.84,38.05,67.18L37.39,44.59C37.39,44.05,36.9,43.51,36.36,43.51Z" fill="currentColor"/><path d="M45.64,43.51C45.1,43.51,44.62,44.05,44.62,44.59L43.95,67.18C43.95,67.84,44.43,68.26,45.1,68.26L52.15,68.26C52.99,68.26,53.23,67.72,53.23,67.18L52.75,44.59C52.75,43.87,52.27,43.51,51.6,43.51Z" fill="currentColor"/><path d="M30.1,32.19C29.49,32.19,29.01,32.73,29.01,33.33L29.01,39.66C29.01,40.14,29.25,40.74,30.1,40.74L36.66,40.74C37.21,40.74,37.87,40.56,37.87,39.66L37.87,33.33C37.87,32.85,37.21,32.19,36.66,32.19Z" fill="currentColor"/><path d="M45.4,32.19C44.86,32.19,44.19,32.85,44.19,33.33L44.19,39.66C44.19,40.56,44.86,40.74,45.4,40.74L51.96,40.74C52.81,40.74,53.05,40.14,53.05,39.66L53.05,33.33C53.05,32.73,52.57,32.19,51.96,32.19Z" fill="currentColor"/><path d="M30.4,45.38C29.74,45.38,29.25,45.74,29.25,46.46L28.77,69.05C28.77,69.6,29.01,70.14,29.86,70.14L36.9,70.14C37.57,70.14,38.05,69.72,38.05,69.05L37.39,46.46C37.39,45.92,36.9,45.38,36.36,45.38Z" fill="currentColor"/><path d="M45.64,45.38C45.1,45.38,44.62,45.92,44.62,46.46L43.95,69.05C43.95,69.72,44.43,70.14,45.1,70.14L52.15,70.14C52.99,70.14,53.23,69.6,53.23,69.05L52.75,46.46C52.75,45.74,52.27,45.38,51.6,45.38Z" fill="currentColor"/><path d="M58.42,22.93L79.48,1.88C80.54,0.76,81.37,0.32,82.7,0.32C84.41,0.32,86.12,1.59,87.93,3.39C89.81,5.28,91,7.13,91,8.85C91,9.81,90.48,10.85,89.44,11.84L68.39,32.89" fill="currentColor"/><path d="M82.7,0.32C84.41,0.32,86.12,1.59,87.93,3.39C89.81,5.28,91,7.13,91,8.85C91,9.81,90.48,10.85,89.44,11.84L72.63,28.64L85.19,12.53C88.82,7.87,85.56,1.61,80.42,1.03C81.1,0.53,81.78,0.32,82.7,0.32Z" fill="currentColor" opacity="0.5"/><path d="M72.67,8.68L58.42,22.93L68.39,32.89L77.51,23.77C72.83,20.24,70.97,14.12,72.67,8.68Z" fill="currentColor"/><path d="M81,50.32C81,72.41,63.09,90.32,41,90.32C18.91,90.32,1,72.41,1,50.32C1,28.23,18.91,10.32,41,10.32C63.09,10.32,81,28.23,81,50.32Z" fill="currentColor"/><path d="M67,50.32C67,64.68,55.36,76.32,41,76.32C26.64,76.32,15,64.68,15,50.32C15,35.96,26.64,24.32,41,24.32C55.36,24.32,67,35.96,67,50.32Z" fill="currentColor"/><path d="M81,50.32C81,72.41,63.09,90.32,41,90.32C18.91,90.32,1,72.41,1,50.32C1,28.23,18.91,10.32,41,10.32C63.09,10.32,81,28.23,81,50.32Z" fill="currentColor"/><path d="M71,50.32C71,66.89,57.57,80.32,41,80.32C24.43,80.32,11,66.89,11,50.32C11,33.75,24.43,20.32,41,20.32C57.57,20.32,71,33.75,71,50.32Z" fill="currentColor"/><path d="M41,10.32C56.94,10.32,70.7,19.64,77.13,33.14C65.96,17.12,45.43,8.97,26.28,13.12C30.83,11.31,35.8,10.32,41,10.32Z" fill="currentColor"/><path d="M41,90.32C24.71,90.32,10.69,80.58,4.45,66.6C14.55,82.31,33.43,91,51.82,88.84C48.38,89.8,44.75,90.32,41,90.32Z" fill="currentColor"/></svg>