<svg xmlns="http://www.w3.org/2000/svg" viewBox="0 0 90 90"><path d="M76,50.32C76,69.65,60.33,85.32,41,85.32C21.67,85.32,6,69.65,6,50.32C6,30.99,21.67,15.32,41,15.32C60.33,15.32,76,30.99,76,50.32Z" fill="currentColor"/><path d="M41,80.32C24.43,80.32,11,66.89,11,50.32C11,33.75,24.43,20.32,41,20.32C57.57,20.32,71,33.75,71,50.32C71,66.89,57.57,80.32,41,80.32Z" fill="currentColor"/><path d="M41.9,65.07C44.25,66.82,47.51,67.6,49.98,67.6C56.3,67.6,61.12,63.51,61.12,57.72C61.12,53.57,59.67,52.06,56.12,48.51L53.95,46.4C53.35,45.73,53.05,44.89,53.05,44.05L53.05,43.32C53.05,42.66,52.69,42.3,52.02,42.3L46.24,42.3C45.7,42.3,45.22,42.48,45.22,43.32L45.22,44.53C45.22,47.72,47.02,50.37,48.23,51.34L49.92,52.72C50.64,53.38,51.42,54.11,52.08,54.83C52.63,55.49,52.93,56.28,52.93,57.12C52.93,58.93,51.36,59.95,49.55,59.95C48.53,59.95,46.78,59.59,45.22,58.26C45.04,58.08,44.73,57.96,44.55,57.96C44.43,60.97,43.77,62.6,41.9,65.07Z" fill="currentColor"/><path d="M27.26,29.65C26.66,29.65,26.24,30.07,26.24,30.73L26.24,36.82C26.24,37.42,26.66,37.84,27.26,37.84L33.59,37.84C34.19,37.84,34.61,37.42,34.61,36.82L34.61,30.73C34.61,30.07,34.19,29.65,33.53,29.65Z" fill="currentColor"/><path d="M27.57,42.3C27.02,42.3,26.54,42.48,26.54,43.32L26.54,44.53C26.54,47.72,28.35,50.37,29.55,51.34L31.24,52.72C31.96,53.38,32.75,54.11,33.41,54.83C33.95,55.49,34.25,56.28,34.25,57.12C34.25,58.93,32.69,59.95,30.88,59.95C29.86,59.95,28.11,59.59,26.54,58.26C26.06,57.78,25.64,57.84,24.98,58.51L21.66,62.54C21.24,63.02,21.42,63.51,21.78,63.87C24.37,66.46,28.35,67.6,31.3,67.6C37.63,67.6,42.45,63.51,42.45,57.72C42.45,53.57,41,52.06,37.45,48.51L35.28,46.4C34.67,45.73,34.37,44.89,34.37,44.05L34.37,43.32C34.37,42.66,34.01,42.3,33.35,42.3Z" fill="currentColor"/><path d="M45.94,29.65C45.34,29.65,44.92,30.07,44.92,30.73L44.92,36.82C44.92,37.42,45.34,37.84,45.94,37.84L52.26,37.84C52.87,37.84,53.29,37.42,53.29,36.82L53.29,30.73C53.29,30.07,52.87,29.65,52.2,29.65Z" fill="currentColor"/><path d="M41.9,66.95C44.25,68.69,47.51,69.48,49.98,69.48C56.3,69.48,61.12,65.38,61.12,59.6C61.12,55.44,59.67,53.93,56.12,50.38L53.95,48.27C53.35,47.61,53.05,46.77,53.05,45.92L53.05,45.2C53.05,44.54,52.69,44.18,52.02,44.18L46.24,44.18C45.7,44.18,45.22,44.36,45.22,45.2L45.22,46.4C45.22,49.6,47.02,52.25,48.23,53.21L49.92,54.6C50.64,55.26,51.42,55.98,52.08,56.71C52.63,57.37,52.93,58.15,52.93,58.99C52.93,60.8,51.36,61.83,49.55,61.83C48.53,61.83,46.78,61.46,45.22,60.14C45.04,59.96,44.73,59.84,44.55,59.84C44.43,62.85,43.77,64.48,41.9,66.95Z" fill="currentColor"/><path d="M27.26,31.52C26.66,31.52,26.24,31.95,26.24,32.61L26.24,38.69C26.24,39.3,26.66,39.72,27.26,39.72L33.59,39.72C34.19,39.72,34.61,39.3,34.61,38.69L34.61,32.61C34.61,31.95,34.19,31.52,33.53,31.52Z" fill="currentColor"/><path d="M27.57,44.18C27.02,44.18,26.54,44.36,26.54,45.2L26.54,46.4C26.54,49.6,28.35,52.25,29.55,53.21L31.24,54.6C31.96,55.26,32.75,55.98,33.41,56.71C33.95,57.37,34.25,58.15,34.25,58.99C34.25,60.8,32.69,61.83,30.88,61.83C29.86,61.83,28.11,61.46,26.54,60.14C26.06,59.66,25.64,59.72,24.98,60.38L21.66,64.42C21.24,64.9,21.42,65.38,21.78,65.74C24.37,68.33,28.35,69.48,31.3,69.48C37.63,69.48,42.45,65.38,42.45,59.6C42.45,55.44,41,53.93,37.45,50.38L35.28,48.27C34.67,47.61,34.37,46.77,34.37,45.92L34.37,45.2C34.37,44.54,34.01,44.18,33.35,44.18Z" fill="currentColor"/><path d="M45.94,31.52C45.34,31.52,44.92,31.95,44.92,32.61L44.92,38.69C44.92,39.3,45.34,39.72,45.94,39.72L52.26,39.72C52.87,39.72,53.29,39.3,53.29,38.69L53.29,32.61C53.29,31.95,52.87,31.52,52.2,31.52Z" fill="currentColor"/><path d="M58.42,22.93L79.48,1.88C80.54,0.76,81.37,0.32,82.7,0.32C84.41,0.32,86.12,1.59,87.93,3.39C89.81,5.28,91,7.13,91,8.85C91,9.81,90.48,10.85,89.44,11.84L68.39,32.89" fill="currentColor"/><path d="M82.7,0.32C84.41,0.32,86.12,1.59,87.93,3.39C89.81,5.28,91,7.13,91,8.85C91,9.81,90.48,10.85,89.44,11.84L72.63,28.64L85.19,12.53C88.82,7.87,85.56,1.61,80.42,1.03C81.1,0.53,81.78,0.32,82.7,0.32Z" fill="currentColor" opacity="0.5"/><path d="M72.67,8.68L58.42,22.93L68.39,32.89L77.51,23.77C72.83,20.24,70.97,14.12,72.67,8.68Z" fill="currentColor"/><path d="M81,50.32C81,72.41,63.09,90.32,41,90.32C18.91,90.32,1,72.41,1,50.32C1,28.23,18.91,10.32,41,10.32C63.09,10.32,81,28.23,81,50.32Z" fill="currentColor"/><path d="M67,50.32C67,64.68,55.36,76.32,41,76.32C26.64,76.32,15,64.68,15,50.32C15,35.96,26.64,24.32,41,24.32C55.36,24.32,67,35.96,67,50.32Z" fill="currentColor"/><path d="M81,50.32C81,72.41,63.09,90.32,41,90.32C18.91,90.32,1,72.41,1,50.32C1,28.23,18.91,10.32,41,10.32C63.09,10.32,81,28.23,81,50.32Z" fill="currentColor"/><path d="M71,50.32C71,66.89,57.57,80.32,41,80.32C24.43,80.32,11,66.89,11,50.32C11,33.75,24.43,20.32,41,20.32C57.57,20.32,71,33.75,71,50.32Z" fill="currentColor"/><path d="M41,10.32C56.94,10.32,70.7,19.64,77.13,33.14C65.96,17.12,45.43,8.97,26.28,13.12C30.83,11.31,35.8,10.32,41,10.32Z" fill="currentColor"/><path d="M41,90.32C24.71,90.32,10.69,80.58,4.45,66.6C14.55,82.31,33.43,91,51.82,88.84C48.38,89.8,44.75,90.32,41,90.32Z" fill="currentColor"/></svg>