<svg xmlns="http://www.w3.org/2000/svg" viewBox="0 0 90 90"><path d="M76,50.32C76,69.65,60.33,85.32,41,85.32C21.67,85.32,6,69.65,6,50.32C6,30.99,21.67,15.32,41,15.32C60.33,15.32,76,30.99,76,50.32Z" fill="currentColor"/><path d="M33.5,30.32C22.2,30.32,12.25,36.08,6.43,44.83C9.06,28.11,23.54,15.32,41,15.32C60.33,15.32,76,30.99,76,50.32C76,61.72,70.55,71.84,62.12,78.23C64.59,73.65,66,68.4,66,62.82C66,44.87,51.45,30.32,33.5,30.32Z" fill="currentColor"/><path d="M34,54.32C34,57.08,31.95,59.41,29.56,59.32C27.05,59.32,25,57.08,25,54.32C25,51.55,27.03,49.32,29.56,49.32C31.95,49.32,34,51.55,34,54.32Z" fill="currentColor"/><path d="M57,54.32C57,57.08,54.97,59.41,52.44,59.32C50.05,59.32,48,57.08,48,54.32C48,51.55,49.94,49.32,52.44,49.32C54.95,49.32,57,51.55,57,54.32Z" fill="currentColor"/><path d="M40.93,35.32C37.58,35.32,35,37.78,35,40.82C35,43.86,37.73,46.32,40.93,46.32C44.29,46.42,47,43.86,47,40.82C47,37.78,44.27,35.32,40.93,35.32Z" fill="currentColor"/><path d="M58.42,22.93L79.48,1.88C80.54,0.76,81.37,0.32,82.7,0.32C84.41,0.32,86.12,1.59,87.93,3.39C89.81,5.28,91,7.13,91,8.85C91,9.81,90.48,10.85,89.44,11.84L68.39,32.89" fill="currentColor"/><path d="M82.7,0.32C84.41,0.32,86.12,1.59,87.93,3.39C89.81,5.28,91,7.13,91,8.85C91,9.81,90.48,10.85,89.44,11.84L72.63,28.64L85.19,12.53C88.82,7.87,85.56,1.61,80.42,1.03C81.1,0.53,81.78,0.32,82.7,0.32Z" fill="currentColor" opacity="0.5"/><path d="M72.67,8.68L58.42,22.93L68.39,32.89L77.51,23.77C72.83,20.24,70.97,14.12,72.67,8.68Z" fill="currentColor"/><path d="M81,50.32C81,72.41,63.09,90.32,41,90.32C18.91,90.32,1,72.41,1,50.32C1,28.23,18.91,10.32,41,10.32C63.09,10.32,81,28.23,81,50.32Z" fill="currentColor"/><path d="M67,50.32C67,64.68,55.36,76.32,41,76.32C26.64,76.32,15,64.68,15,50.32C15,35.96,26.64,24.32,41,24.32C55.36,24.32,67,35.96,67,50.32Z" fill="currentColor"/><path d="M81,50.32C81,72.41,63.09,90.32,41,90.32C18.91,90.32,1,72.41,1,50.32C1,28.23,18.91,10.32,41,10.32C63.09,10.32,81,28.23,81,50.32Z" fill="currentColor"/><path d="M71,50.32C71,66.89,57.57,80.32,41,80.32C24.43,80.32,11,66.89,11,50.32C11,33.75,24.43,20.32,41,20.32C57.57,20.32,71,33.75,71,50.32Z" fill="currentColor"/><path d="M41,10.32C56.94,10.32,70.7,19.64,77.13,33.14C65.96,17.12,45.43,8.97,26.28,13.12C30.83,11.31,35.8,10.32,41,10.32Z" fill="currentColor"/><path d="M41,90.32C24.71,90.32,10.69,80.58,4.45,66.6C14.55,82.31,33.43,91,51.82,88.84C48.38,89.8,44.75,90.32,41,90.32Z" fill="currentColor"/></svg>