<svg xmlns="http://www.w3.org/2000/svg" viewBox="0 0 90 90"><path d="M75,40C75,20.67,59.33,5,40,5C20.67,5,5,20.67,5,40C5,59.33,20.67,75,40,75C59.33,75,75,59.33,75,40Z" fill="currentColor"/><path d="M29.1,60.01C28.49,60.01,28.01,59.47,28.01,58.86L28.01,52.54C28.01,52.06,28.25,51.45,29.1,51.45L35.66,51.45C36.21,51.45,36.87,51.63,36.87,52.54L36.87,58.86C36.87,59.34,36.21,60.01,35.66,60.01Z" fill="currentColor"/><path d="M44.4,60.01C43.86,60.01,43.19,59.34,43.19,58.86L43.19,52.54C43.19,51.63,43.86,51.45,44.4,51.45L50.96,51.45C51.81,51.45,52.05,52.06,52.05,52.54L52.05,58.86C52.05,59.47,51.57,60.01,50.96,60.01Z" fill="currentColor"/><path d="M29.4,46.81C28.74,46.81,28.25,46.45,28.25,45.73L27.77,23.14C27.77,22.6,28.01,22.06,28.86,22.06L35.9,22.06C36.57,22.06,37.05,22.48,37.05,23.14L36.39,45.73C36.39,46.27,35.9,46.81,35.36,46.81Z" fill="currentColor"/><path d="M44.64,46.81C44.1,46.81,43.62,46.27,43.62,45.73L42.95,23.14C42.95,22.48,43.43,22.06,44.1,22.06L51.15,22.06C51.99,22.06,52.23,22.6,52.23,23.14L51.75,45.73C51.75,46.45,51.27,46.81,50.6,46.81Z" fill="currentColor"/><path d="M29.1,58.13C28.49,58.13,28.01,57.59,28.01,56.99L28.01,50.66C28.01,50.18,28.25,49.58,29.1,49.58L35.66,49.58C36.21,49.58,36.87,49.76,36.87,50.66L36.87,56.99C36.87,57.47,36.21,58.13,35.66,58.13Z" fill="currentColor"/><path d="M44.4,58.13C43.86,58.13,43.19,57.47,43.19,56.99L43.19,50.66C43.19,49.76,43.86,49.58,44.4,49.58L50.96,49.58C51.81,49.58,52.05,50.18,52.05,50.66L52.05,56.99C52.05,57.59,51.57,58.13,50.96,58.13Z" fill="currentColor"/><path d="M29.4,44.94C28.74,44.94,28.25,44.58,28.25,43.86L27.77,21.26C27.77,20.72,28.01,20.18,28.86,20.18L35.9,20.18C36.57,20.18,37.05,20.6,37.05,21.26L36.39,43.86C36.39,44.4,35.9,44.94,35.36,44.94Z" fill="currentColor"/><path d="M44.64,44.94C44.1,44.94,43.62,44.4,43.62,43.86L42.95,21.26C42.95,20.6,43.43,20.18,44.1,20.18L51.15,20.18C51.99,20.18,52.23,20.72,52.23,21.26L51.75,43.86C51.75,44.58,51.27,44.94,50.6,44.94Z" fill="currentColor"/><path d="M57.42,67.39L78.48,88.44C79.54,89.56,80.37,90,81.7,90C83.41,90,85.12,88.73,86.93,86.93C88.81,85.04,90,83.19,90,81.47C90,80.51,89.48,79.47,88.44,78.48L67.39,57.43" fill="none" stroke="currentColor" stroke-width="2" stroke-linecap="round" stroke-linejoin="round"/><path d="M81.7,90C83.41,90,85.12,88.73,86.93,86.93C88.81,85.04,90,83.19,90,81.47C90,80.51,89.48,79.47,88.44,78.48L71.63,61.68L84.19,77.79C87.82,82.45,84.56,88.71,79.42,89.29C80.1,89.79,80.78,90,81.7,90Z" fill="currentColor" opacity="0.5"/><path d="M71.67,81.64L57.42,67.39L67.39,57.43L76.51,66.55C71.83,70.08,69.97,76.19,71.67,81.64Z" fill="currentColor"/><path d="M80,40C80,17.91,62.09,0,40,0C17.91,0,0,17.91,0,40C0,62.09,17.91,80,40,80C62.09,80,80,62.09,80,40Z" fill="currentColor"/><path d="M66,40C66,25.64,54.36,14,40,14C25.64,14,14,25.64,14,40C14,54.36,25.64,66,40,66C54.36,66,66,54.36,66,40Z" fill="currentColor"/><path d="M80,40C80,17.91,62.09,0,40,0C17.91,0,0,17.91,0,40C0,62.09,17.91,80,40,80C62.09,80,80,62.09,80,40Z" fill="currentColor"/><path d="M70,40C70,23.43,56.57,10,40,10C23.43,10,10,23.43,10,40C10,56.57,23.43,70,40,70C56.57,70,70,56.57,70,40Z" fill="currentColor"/><path d="M40,80C55.94,80,69.7,70.68,76.13,57.18C64.96,73.2,44.43,81.35,25.28,77.2C29.83,79.01,34.8,80,40,80Z" fill="currentColor"/><path d="M40,0C23.71,0,9.69,9.74,3.45,23.72C13.55,8.01,32.43,-0.68,50.82,1.48C47.38,0.52,43.75,0,40,0Z" fill="currentColor"/></svg>