<svg xmlns="http://www.w3.org/2000/svg" viewBox="0 0 90 90" fill="currentColor"><path d="M57.38,11.81L57.38,16.65C57.38,17.11,57.27,17.54,57.08,17.96C57.21,18.27,57.32,18.59,57.4,18.93L57.4,18.97L57.42,19.01L57.82,20.9C58,21.18,58.34,21.54,59.16,22.22C59.58,22.57,59.93,22.92,60.24,23.26C61.82,21.77,62.96,19.24,62.96,16.77L62.96,11.81L67.12,11.81C68.44,11.81,68.76,10.91,67.78,9.73L61,1.52C60.68,1.2,60.34,1,59.87,1C59.43,1,59.07,1.2,58.78,1.52L51.94,9.73C50.99,10.91,51.3,11.81,52.69,11.81ZM25.76,43.61C25.76,43.68,25.76,43.75,25.77,43.83C25.77,43.9,25.78,43.98,25.78,44.06L21.24,37.92C19.57,35.92,18.29,34.62,16.65,34.62L11.81,34.62L11.81,39.31C11.81,40.7,10.91,41.01,9.73,40.06L1.52,33.22C1.2,32.93,1,32.57,1,32.13C1,31.66,1.2,31.32,1.52,31L9.73,24.23C10.91,23.25,11.81,23.57,11.81,24.89L11.81,29.05L16.77,29.05C19.48,29.05,22.26,30.41,23.67,32.23L26.68,35.99C26.09,38.29,25.76,40.83,25.76,43.61ZM23.67,59.78L23.67,59.77C22.26,61.59,19.47,62.95,16.77,62.95L11.81,62.95L11.81,67.11C11.81,68.43,10.91,68.75,9.73,67.77L1.52,61C1.2,60.68,1,60.34,1,59.87C1,59.44,1.2,59.07,1.52,58.78L9.73,51.94C10.91,50.98,11.81,51.3,11.81,52.69L11.81,57.38L16.65,57.38C18.29,57.38,19.56,56.08,21.24,54.08L26.17,47.41C26.61,49.81,27.32,52.36,27.92,54.47ZM82.27,24.23C81.09,23.25,80.19,23.57,80.19,24.89L80.19,29.05L75.23,29.05C72.53,29.05,69.74,30.41,68.33,32.23L66.34,34.72L68.47,37.72C68.93,38.31,69.28,38.94,69.52,39.6L70.75,37.93C72.43,35.93,73.7,34.63,75.34,34.63L80.18,34.63L80.18,39.32C80.18,40.71,81.08,41.03,82.26,40.07L90.47,33.23C90.79,32.94,90.99,32.57,90.99,32.14C90.99,31.67,90.79,31.33,90.47,31.01L90.48,31ZM90.48,58.78L90.48,58.79C90.8,59.08,91,59.44,91,59.88C91,60.35,90.8,60.69,90.48,61.01L82.27,67.78C81.09,68.76,80.19,68.44,80.19,67.12L80.19,62.96L75.23,62.96C72.52,62.96,69.74,61.6,68.33,59.78L60.24,49.89C61.88,49.71,64.37,49.01,66.25,47.98L70.76,54.08C72.43,56.08,73.71,57.38,75.35,57.38L80.19,57.38L80.19,52.69C80.19,51.3,81.09,50.99,82.27,51.94ZM24.89,11.81C23.57,11.81,23.25,10.91,24.23,9.73L31,1.52C31.32,1.2,31.66,1,32.13,1C32.56,1,32.93,1.2,33.22,1.52L40.06,9.73C41.02,10.91,40.7,11.81,39.31,11.81L34.62,11.81L34.62,16.65C34.62,18.29,35.92,19.56,37.92,21.24L38.12,21.38C36.45,22.25,34.86,23.32,33.42,24.62L32.23,23.67C30.41,22.26,29.05,19.47,29.05,16.77L29.05,11.81ZM62.95,80.19L62.95,75.23C62.95,73.75,62.53,72.26,61.87,70.97L54.32,70.97C56.18,72.54,57.38,73.78,57.38,75.35L57.38,80.19L52.69,80.19C51.3,80.19,50.98,81.09,51.94,82.27L58.78,90.48C59.07,90.8,59.44,91,59.87,91C60.34,91,60.68,90.8,61,90.48L67.77,82.27C68.75,81.09,68.43,80.19,67.11,80.19ZM39.3,80.19C40.69,80.19,41,81.09,40.05,82.27L33.21,90.48C32.92,90.8,32.56,91,32.12,91C31.65,91,31.31,90.8,30.99,90.48L24.22,82.27C23.24,81.09,23.56,80.19,24.88,80.19L29.04,80.19L29.04,75.23C29.04,73.75,29.46,72.26,30.12,70.97L37.67,70.97C35.82,72.54,34.62,73.78,34.62,75.35L34.62,80.19ZM32.55,56.27C32.13,54.23,29.77,47.34,29.77,43.61C29.77,29.55,39.27,23.37,47.75,22.8L52.09,18.46C52.7,18.46,53.34,19.11,53.51,19.83L54.01,22.19C54.51,23.42,55.34,24.24,56.62,25.3C57.9,26.36,58.23,27.36,58.51,28.08C59.52,30.66,59.6,32.02,61.36,34.57L65.29,40.1C66.3,41.35,66.17,43.06,65.08,43.98C63.64,45.2,59.52,46.21,59.16,45.86C57.57,44.33,57.49,41.96,54.12,41.95C51.52,41.94,49.21,39.57,47.91,38.21L46.62,36.72C46.12,37.32,44.74,39.24,45.35,41.38C45.54,42.04,45.83,42.63,46.21,43.18C46.9,44.19,47.88,45.08,49.03,46.01C51.51,48.02,55.85,51.5,56.33,56.25L56.42,57.95C63.12,58.91,63.09,63.89,63.09,63.89L63.09,66.94L26.83,66.94L26.83,63.89C26.83,63.89,26.8,59.23,32.84,58.06L32.84,58.08C32.73,56.98,32.55,56.27,32.55,56.27ZM54.02,42.13C51.41,42.11,49.1,39.74,47.8,38.37L46.51,36.88C46.01,37.49,44.62,39.41,45.23,41.56C45.8,43.53,47.38,44.96,48.93,46.21C51.41,48.23,55.77,51.71,56.24,56.48L56.41,59.87L32.78,59.87C32.78,57.83,32.4,56.48,32.4,56.48C31.98,54.43,29.6,47.53,29.6,43.78C29.6,29.68,39.13,23.48,47.64,22.91L51.99,18.56C52.61,18.56,53.24,19.22,53.41,19.94L53.91,22.31C54.41,23.54,55.24,24.37,56.52,25.43C57.81,26.49,58.14,27.5,58.42,28.22C59.44,30.81,59.52,32.18,61.28,34.74L65.22,40.28C66.23,41.53,66.1,43.25,65.01,44.17C63.57,45.39,59.43,46.41,59.07,46.06L59.08,46.05C57.49,44.51,57.41,42.14,54.02,42.13ZM54.52,57.97C64,57.97,63.95,64.28,63.95,64.28L63.95,67.44L26.08,67.44L26.08,64.28C26.08,64.28,26.04,57.97,35.52,57.97ZM47.83,22.84C47.79,22.84,47.75,22.84,47.71,22.84L47.68,22.86C47.78,22.85,47.83,22.84,47.83,22.84ZM32.4,56.48C32.28,55.91,32.01,54.96,31.68,53.81C30.84,50.83,29.6,46.48,29.6,43.78C29.6,29.87,38.86,23.65,47.28,22.93C44.66,23.45,33.5,26.36,33.5,38.59C33.5,44.32,35.83,48.02,38.01,51.47C39.34,53.59,40.62,55.61,41.26,57.96C39.65,57.81,32.68,58.19,32.68,58.19C32.57,57.15,32.4,56.48,32.4,56.48ZM53.1,42.02L53.09,42.02L53.09,42.02ZM54.68,41.1C56.32,40.08,57,39.66,57.9,42.37C58.45,44.02,59.14,45.01,59.57,45.63C59.69,45.81,59.79,45.96,59.87,46.08C59.46,46.13,59.17,46.12,59.08,46.04C58.61,45.58,58.27,45.05,57.93,44.53C57.15,43.3,56.4,42.13,54.02,42.12C53.71,42.12,53.4,42.08,53.1,42.02C53.71,41.7,54.23,41.38,54.68,41.1ZM44.46,33.35C45.07,34.52,46.59,36.9,46.59,36.9C46.59,36.9,46.6,36.94,46.62,37.01L46.51,36.88C46.02,37.46,44.73,39.28,45.19,41.33C44.29,38.97,43.7,36.34,43.71,35.4C43.73,34.38,43.85,32.18,44.46,33.35ZM65.23,40.27L65.23,40.26C65.81,40.98,65.98,41.83,65.84,42.62C64.82,41.36,59.55,34.85,58.81,33.86C58.33,33.21,58.09,32.37,57.83,31.41C57.28,29.38,56.58,26.85,53.05,24.65C50.34,22.97,52.17,18.62,52.17,18.62C52.25,18.62,52.33,18.64,52.4,18.65C52.42,18.66,52.44,18.66,52.47,18.67C52.91,18.89,53.29,19.39,53.42,19.92L53.91,22.3C54.41,23.52,55.25,24.36,56.53,25.42C57.75,26.42,58.11,27.37,58.38,28.08C58.4,28.13,58.41,28.17,58.43,28.21C58.73,28.97,58.94,29.62,59.15,30.23C59.63,31.7,60.04,32.91,61.28,34.73ZM63.06,61.53C62.44,61.21,59.21,60.03,44.89,60.03C32.33,60.03,28.3,60.94,27.07,61.38C28.18,59.72,30.51,57.97,35.51,57.97L54.52,57.97C59.67,57.97,62,59.83,63.06,61.53Z"/></svg>