<svg xmlns="http://www.w3.org/2000/svg" viewBox="0 0 90 90"><path d="M56.38,10.81L56.38,15.65C56.38,16.11,56.27,16.54,56.08,16.96C56.21,17.27,56.32,17.59,56.4,17.93L56.4,17.97L56.42,18.01L56.82,19.9C57,20.18,57.34,20.54,58.16,21.22C58.58,21.57,58.93,21.92,59.24,22.26C60.82,20.77,61.96,18.24,61.96,15.77L61.96,10.81L66.12,10.81C67.44,10.81,67.76,9.91,66.78,8.73L60,0.52C59.68,0.2,59.34,0,58.87,0C58.43,0,58.07,0.2,57.78,0.52L50.94,8.73C49.99,9.91,50.3,10.81,51.69,10.81Z" fill="currentColor"/><path d="M24.76,42.61C24.76,42.68,24.76,42.75,24.77,42.83C24.77,42.9,24.78,42.98,24.78,43.06L20.24,36.92C18.57,34.92,17.29,33.62,15.65,33.62L10.81,33.62L10.81,38.31C10.81,39.7,9.91,40.01,8.73,39.06L0.52,32.22C0.2,31.93,0,31.57,0,31.13C0,30.66,0.2,30.32,0.52,30L8.73,23.23C9.91,22.25,10.81,22.57,10.81,23.89L10.81,28.05L15.77,28.05C18.48,28.05,21.26,29.41,22.67,31.23L25.68,34.99C25.09,37.29,24.76,39.83,24.76,42.61Z" fill="currentColor"/><path d="M22.67,58.78L22.67,58.77C21.26,60.59,18.47,61.95,15.77,61.95L10.81,61.95L10.81,66.11C10.81,67.43,9.91,67.75,8.73,66.77L0.52,60C0.2,59.68,0,59.34,0,58.87C0,58.44,0.2,58.07,0.52,57.78L8.73,50.94C9.91,49.98,10.81,50.3,10.81,51.69L10.81,56.38L15.65,56.38C17.29,56.38,18.56,55.08,20.24,53.08L25.17,46.41C25.61,48.81,26.32,51.36,26.92,53.47Z" fill="currentColor"/><path d="M81.27,23.23C80.09,22.25,79.19,22.57,79.19,23.89L79.19,28.05L74.23,28.05C71.53,28.05,68.74,29.41,67.33,31.23L65.34,33.72L67.47,36.72C67.93,37.31,68.28,37.94,68.52,38.6L69.75,36.93C71.43,34.93,72.7,33.63,74.34,33.63L79.18,33.63L79.18,38.32C79.18,39.71,80.08,40.03,81.26,39.07L89.47,32.23C89.79,31.94,89.99,31.57,89.99,31.14C89.99,30.67,89.79,30.33,89.47,30.01L89.48,30Z" fill="currentColor"/><path d="M89.48,57.78L89.48,57.79C89.8,58.08,90,58.44,90,58.88C90,59.35,89.8,59.69,89.48,60.01L81.27,66.78C80.09,67.76,79.19,67.44,79.19,66.12L79.19,61.96L74.23,61.96C71.52,61.96,68.74,60.6,67.33,58.78L59.24,48.89C60.88,48.71,63.37,48.01,65.25,46.98L69.76,53.08C71.43,55.08,72.71,56.38,74.35,56.38L79.19,56.38L79.19,51.69C79.19,50.3,80.09,49.99,81.27,50.94Z" fill="currentColor"/><path d="M23.89,10.81C22.57,10.81,22.25,9.91,23.23,8.73L30,0.52C30.32,0.2,30.66,0,31.13,0C31.56,0,31.93,0.2,32.22,0.52L39.06,8.73C40.02,9.91,39.7,10.81,38.31,10.81L33.62,10.81L33.62,15.65C33.62,17.29,34.92,18.56,36.92,20.24L37.12,20.38C35.45,21.25,33.86,22.32,32.42,23.62L31.23,22.67C29.41,21.26,28.05,18.47,28.05,15.77L28.05,10.81Z" fill="currentColor"/><path d="M61.95,79.19L61.95,74.23C61.95,72.75,61.53,71.26,60.87,69.97L53.32,69.97C55.18,71.54,56.38,72.78,56.38,74.35L56.38,79.19L51.69,79.19C50.3,79.19,49.98,80.09,50.94,81.27L57.78,89.48C58.07,89.8,58.44,90,58.87,90C59.34,90,59.68,89.8,60,89.48L66.77,81.27C67.75,80.09,67.43,79.19,66.11,79.19Z" fill="currentColor"/><path d="M38.3,79.19C39.69,79.19,40,80.09,39.05,81.27L32.21,89.48C31.92,89.8,31.56,90,31.12,90C30.65,90,30.31,89.8,29.99,89.48L23.22,81.27C22.24,80.09,22.56,79.19,23.88,79.19L28.04,79.19L28.04,74.23C28.04,72.75,28.46,71.26,29.12,69.97L36.67,69.97C34.82,71.54,33.62,72.78,33.62,74.35L33.62,79.19Z" fill="currentColor"/><path d="M31.55,55.27C31.13,53.23,28.77,46.34,28.77,42.61C28.77,28.55,38.27,22.37,46.75,21.8L51.09,17.46C51.7,17.46,52.34,18.11,52.51,18.83L53.01,21.19C53.51,22.42,54.34,23.24,55.62,24.3C56.9,25.36,57.23,26.36,57.51,27.08C58.52,29.66,58.6,31.02,60.36,33.57L64.29,39.1C65.3,40.35,65.17,42.06,64.08,42.98C62.64,44.2,58.52,45.21,58.16,44.86C56.57,43.33,56.49,40.96,53.12,40.95C50.52,40.94,48.21,38.57,46.91,37.21L45.62,35.72C45.12,36.32,43.74,38.24,44.35,40.38C44.54,41.04,44.83,41.63,45.21,42.18C45.9,43.19,46.88,44.08,48.03,45.01C50.51,47.02,54.85,50.5,55.33,55.25L55.42,56.95C62.12,57.91,62.09,62.89,62.09,62.89L62.09,65.94L25.83,65.94L25.83,62.89C25.83,62.89,25.8,58.23,31.84,57.06L31.84,57.08C31.73,55.98,31.55,55.27,31.55,55.27Z" fill="currentColor"/><path d="M53.02,41.13C50.41,41.11,48.1,38.74,46.8,37.37L45.51,35.88C45.01,36.49,43.62,38.41,44.23,40.56C44.8,42.53,46.38,43.96,47.93,45.21C50.41,47.23,54.77,50.71,55.24,55.48L55.41,58.87L31.78,58.87C31.78,56.83,31.4,55.48,31.4,55.48C30.98,53.43,28.6,46.53,28.6,42.78C28.6,28.68,38.13,22.48,46.64,21.91L50.99,17.56C51.61,17.56,52.24,18.22,52.41,18.94L52.91,21.31C53.41,22.54,54.24,23.37,55.52,24.43C56.81,25.49,57.14,26.5,57.42,27.22C58.44,29.81,58.52,31.18,60.28,33.74L64.22,39.28C65.23,40.53,65.1,42.25,64.01,43.17C62.57,44.39,58.43,45.41,58.07,45.06L58.08,45.05C56.49,43.51,56.41,41.14,53.02,41.13Z" fill="currentColor"/><path d="M53.52,56.97C63,56.97,62.95,63.28,62.95,63.28L62.95,66.44L25.08,66.44L25.08,63.28C25.08,63.28,25.04,56.97,34.52,56.97Z" fill="currentColor"/><path d="M46.83,21.84C46.79,21.84,46.75,21.84,46.71,21.84L46.68,21.86C46.78,21.85,46.83,21.84,46.83,21.84Z" fill="currentColor"/><path d="M31.4,55.48C31.28,54.91,31.01,53.96,30.68,52.81C29.84,49.83,28.6,45.48,28.6,42.78C28.6,28.87,37.86,22.65,46.28,21.93C43.66,22.45,32.5,25.36,32.5,37.59C32.5,43.32,34.83,47.02,37.01,50.47C38.34,52.59,39.62,54.61,40.26,56.96C38.65,56.81,31.68,57.19,31.68,57.19C31.57,56.15,31.4,55.48,31.4,55.48Z" fill="currentColor"/><path d="M52.1,41.02L52.09,41.02L52.09,41.02Z" fill="currentColor"/><path d="M53.68,40.1C55.32,39.08,56,38.66,56.9,41.37C57.45,43.02,58.14,44.01,58.57,44.63C58.69,44.81,58.79,44.96,58.87,45.08C58.46,45.13,58.17,45.12,58.08,45.04C57.61,44.58,57.27,44.05,56.93,43.53C56.15,42.3,55.4,41.13,53.02,41.12C52.71,41.12,52.4,41.08,52.1,41.02C52.71,40.7,53.23,40.38,53.68,40.1Z" fill="currentColor"/><path d="M43.46,32.35C44.07,33.52,45.59,35.9,45.59,35.9C45.59,35.9,45.6,35.94,45.62,36.01L45.51,35.88C45.02,36.46,43.73,38.28,44.19,40.33C43.29,37.97,42.7,35.34,42.71,34.4C42.73,33.38,42.85,31.18,43.46,32.35Z" fill="currentColor"/><path d="M64.23,39.27L64.23,39.26C64.81,39.98,64.98,40.83,64.84,41.62C63.82,40.36,58.55,33.85,57.81,32.86C57.33,32.21,57.09,31.37,56.83,30.41C56.28,28.38,55.58,25.85,52.05,23.65C49.34,21.97,51.17,17.62,51.17,17.62C51.25,17.62,51.33,17.64,51.4,17.65C51.42,17.66,51.44,17.66,51.47,17.67C51.91,17.89,52.29,18.39,52.42,18.92L52.91,21.3C53.41,22.52,54.25,23.36,55.53,24.42C56.75,25.42,57.11,26.37,57.38,27.08C57.4,27.13,57.41,27.17,57.43,27.21C57.73,27.97,57.94,28.62,58.15,29.23C58.63,30.7,59.04,31.91,60.28,33.73Z" fill="currentColor"/><path d="M62.06,60.53C61.44,60.21,58.21,59.03,43.89,59.03C31.33,59.03,27.3,59.94,26.07,60.38C27.18,58.72,29.51,56.97,34.51,56.97L53.52,56.97C58.67,56.97,61,58.83,62.06,60.53Z" fill="currentColor"/></svg>