<svg xmlns="http://www.w3.org/2000/svg" viewBox="0 0 90 90" fill="currentColor"><path d="M76,61C76,77.57,62.57,91,46,91C29.43,91,16,77.57,16,61C16,46.84,25.81,34.97,39,31.82L39,25L25,25C23.34,25,22,23.66,22,22L22,14C22,12.34,23.34,11,25,11L39,11L39,4C39,2.34,40.34,1,42,1L50,1C51.66,1,53,2.34,53,4L53,11L67,11C68.66,11,70,12.34,70,14L70,22C70,23.66,68.66,25,67,25L53,25L53,31.82C66.19,34.97,76,46.84,76,61ZM46,43C36.06,43,28,51.06,28,61C28,70.94,36.06,79,46,79C55.94,79,64,70.94,64,61C64,51.06,55.94,43,46,43Z"/></svg>