<svg xmlns="http://www.w3.org/2000/svg" viewBox="0 0 90 90"><path d="M31,63.81L19.18,68.06C11.87,70.69,7,77.63,7,85.39C7,87.94,9.06,90,11.61,90L78.39,90C80.94,90,83,87.94,83,85.39C83,77.63,78.13,70.69,70.82,68.06L59,63.81Z" fill="currentColor"/><path d="M31,63.81L18.59,68.28C11.64,70.78,7,77.37,7,84.76C9.44,75.89,16.99,69.36,26.13,68.23L45,65.9L63.87,68.23C73.01,69.36,80.56,75.89,83,84.76C83,77.37,78.36,70.78,71.41,68.28L59,63.81Z" fill="currentColor"/><path d="M61.57,63.83C59.6,62.41,57.24,61.62,54.81,61.57L45,61.36L34.84,61.56C32.01,61.62,29.29,62.68,27.16,64.55L25.91,65.64C36.26,76.65,53.74,76.65,64.09,65.64Z" fill="currentColor"/><path d="M29.44,8.56C31.81,3.35,37,0,42.73,0L48.8,0C59.21,0,68.17,7.37,70.19,17.59C71.1,22.22,70.48,27.02,68.43,31.27L65.44,37.48C65.44,41.9,62.54,45.84,58.3,47.1L45.25,51L31.56,47.05C27.3,45.82,24.36,41.92,24.36,37.48L20.93,28.68C17.86,20.82,21.61,11.95,29.39,8.68Z" fill="currentColor"/><path d="M29.44,8.56C31.81,3.35,37,0,42.73,0L48.8,0C59.21,0,68.17,7.37,70.19,17.59C71.1,22.22,70.48,27.02,68.43,31.27L65.44,37.48L67.73,32.12C69.77,27.34,70.07,22,68.56,17.02C65.87,8.13,57.89,1.87,48.61,1.37L43,1.06C37.51,0.76,32.37,3.76,29.92,8.68C22.3,12.83,18.78,21.87,21.59,30.08L24.13,37.48L20.8,28.73C17.79,20.82,21.59,11.95,29.39,8.68Z" fill="currentColor"/><path d="M26.26,13.56L33.01,18.21L35.72,13.56C31.06,10.18,25.33,8.3,19.33,8.2L18.67,8.19Z" fill="currentColor"/><path d="M37.43,21.23L44.4,26.32L47.11,21.67L25.44,3.59C27.19,10.64,31.41,16.84,37.43,21.23Z" fill="currentColor"/><path d="M33,36.97L33,63.41C39.85,69.47,50.15,69.47,57,63.41L57,36.97Z" fill="currentColor"/><path d="M33,32.54L33,53.27L37,58.6C41,63.93,49,63.93,53,58.6L57,53.27L57,32.54Z" fill="currentColor" opacity="0.5"/><path d="M26.69,35.07L28.86,36.67L32.83,33.22C33.74,32.43,34.9,32,36.11,32L45,32L53.89,32C55.1,32,56.26,32.43,57.17,33.22L61.14,36.67L63.31,35.07C64.79,33.99,66.82,35.29,66.46,37.09L65.12,43.6C64.83,45,63.61,46,62.18,46L27.82,46C26.39,46,25.17,45,24.88,43.6L23.54,37.09C23.18,35.29,25.21,33.99,26.69,35.07Z" fill="currentColor"/><path d="M50.24,28.46L62,27.26L62,41.69C62,45.93,60.21,49.97,57.06,52.81L53.02,56.47C51.18,58.13,48.79,59.05,46.31,59.05L43.69,59.05C41.21,59.05,38.82,58.13,36.98,56.47L32.94,52.81C29.79,49.97,28,45.93,28,41.69L28,34.26C28,29.26,29.25,24.33,31.65,19.93L31.74,19.76C35.82,25.86,42.94,29.21,50.24,28.46Z" fill="currentColor"/></svg>