<svg xmlns="http://www.w3.org/2000/svg" viewBox="0 0 90 90"><path d="M34.72,29.08L20.78,25.31C12.06,22.95,6,15.04,6,6.01L6,3.08C6,0.32,8.24,-1.92,11,-1.92L81,-1.92C83.76,-1.92,86,0.32,86,3.08L86,6.01C86,15.04,79.94,22.95,71.22,25.31L57.28,29.08Z" fill="currentColor"/><path d="M34.72,29.08L20.71,25.29C12.03,22.95,6,15.07,6,6.08C6.92,14.47,13.03,21.37,21.25,23.29L46,29.08L70.75,23.29C78.97,21.37,85.08,14.47,86,6.08C86,15.07,79.97,22.95,71.29,25.29L57.28,29.08Z" fill="currentColor"/><path d="M66.9,27.99C65.45,32.49,61.26,35.54,56.53,35.54L35.47,35.54C30.74,35.54,26.55,32.49,25.1,27.99C24.71,26.78,25.04,25.45,25.96,24.56L35.23,15.54L46,5.08L56.77,15.54L66.04,24.56C66.96,25.45,67.29,26.78,66.9,27.99Z" fill="currentColor"/><path d="M34,48.54L34,29.96C34,27.3,35.05,24.76,36.93,22.88L46,13.81L55.07,22.88C56.95,24.76,58,27.3,58,29.96L58,48.54Z" fill="currentColor"/><path d="M34,53.54L34,31.81L38.93,26.88C42.83,22.98,49.17,22.98,53.07,26.88L58,31.81L58,53.54Z" fill="currentColor"/><path d="M46,29.03C55.52,29.03,64,38.87,64,50.83C64.03,50.83,64,75.08,64,75.08L28,75.08L28,50.83C28,38.87,36.48,29.03,46,29.03Z" fill="currentColor"/><path d="M27.29,58.08L64.72,58.08C66.48,58.08,67.86,56.56,67.7,54.81L67.25,49.81C67.11,48.26,65.81,47.08,64.26,47.08L27.74,47.08C26.19,47.08,24.89,48.26,24.75,49.81L24.3,54.81C24.14,56.56,25.52,58.08,27.29,58.08Z" fill="currentColor"/><path d="M45.99,88.08C34.42,88.08,25.05,80.17,25,70.39L25,63.96C25,59.51,26.56,55.21,29.4,51.8L30,51.08L30,62.53C30,65.11,31.96,67.27,34.53,67.51L45.37,68.54C49.01,68.89,52.41,70.49,55,73.08L57.92,70.16C58.64,69.44,59.43,68.79,60.28,68.23C61.35,67.51,62,66.3,62,65.01L62,51.08L62.6,51.8C65.44,55.21,67,59.51,67,63.96L67,70.39L66.97,70.39C66.92,80.17,57.55,88.08,45.99,88.08Z" fill="currentColor"/><path d="M62,68.34C62,69.43,61.48,70.46,60.6,71.11C58.99,72.3,57.66,73.82,56.69,75.57L55.16,78.36C51.99,74.04,47.09,71.32,41.75,70.94L34.64,70.42C32.02,70.23,30,68.05,30,65.43L30,62.53C30,65.11,31.96,67.27,34.53,67.51L45.37,68.54C49.01,68.89,52.41,70.49,55,73.08L57.92,70.16C58.64,69.44,59.43,68.79,60.28,68.23C61.35,67.51,62,66.3,62,65.01Z" fill="currentColor" opacity="0.5"/><path d="M45.99,88.08C34.42,88.08,25.05,80.17,25,70.39C29.43,90.42,63.37,91,67,70.39L66.97,70.39C66.92,80.17,57.55,88.08,45.99,88.08Z" fill="currentColor"/></svg>