<svg xmlns="http://www.w3.org/2000/svg" viewBox="0 0 90 90"><path d="M75,30C75,13.43,61.57,0,45,0C28.43,0,15,13.43,15,30C15,44.16,24.81,56.03,38,59.18L38,66L24,66C22.34,66,21,67.34,21,69L21,77C21,78.66,22.34,80,24,80L38,80L38,87C38,88.66,39.34,90,41,90L49,90C50.66,90,52,88.66,52,87L52,80L66,80C67.66,80,69,78.66,69,77L69,69C69,67.34,67.66,66,66,66L52,66L52,59.18C65.19,56.03,75,44.16,75,30Z" fill="currentColor"/><path d="M45,48C35.06,48,27,39.94,27,30C27,20.06,35.06,12,45,12C54.94,12,63,20.06,63,30C63,39.94,54.94,48,45,48Z" fill="currentColor"/></svg>