<svg xmlns="http://www.w3.org/2000/svg" viewBox="0 0 90 90"><path d="M32,27.19L20.18,22.94C12.87,20.31,8,13.37,8,5.61C8,3.06,10.06,1,12.61,1L79.39,1C81.94,1,84,3.06,84,5.61C84,13.37,79.13,20.31,71.82,22.94L60,27.19Z" fill="currentColor"/><path d="M32,27.19L19.59,22.72C12.64,20.22,8,13.63,8,6.24C10.44,15.11,17.99,21.64,27.13,22.77L46,25.1L64.87,22.77C74.01,21.64,81.56,15.11,84,6.24C84,13.63,79.36,20.22,72.41,22.72L60,27.19Z" fill="currentColor"/><path d="M62.57,27.17C60.6,28.59,58.24,29.38,55.81,29.43L46,29.64L35.84,29.44C33.01,29.38,30.29,28.32,28.16,26.45L26.91,25.36C37.26,14.35,54.74,14.35,65.09,25.36Z" fill="currentColor"/><path d="M30.44,82.44C32.81,87.65,38,91,43.73,91L49.8,91C60.21,91,69.17,83.63,71.19,73.41C72.1,68.78,71.48,63.98,69.43,59.73L66.44,53.52C66.44,49.1,63.54,45.16,59.3,43.9L46.25,40L32.56,43.95C28.3,45.18,25.36,49.08,25.36,53.52L21.93,62.32C18.86,70.18,22.61,79.05,30.39,82.32Z" fill="currentColor"/><path d="M30.44,82.44C32.81,87.65,38,91,43.73,91L49.8,91C60.21,91,69.17,83.63,71.19,73.41C72.1,68.78,71.48,63.98,69.43,59.73L66.44,53.52L68.73,58.88C70.77,63.66,71.07,69,69.56,73.98C66.87,82.87,58.89,89.13,49.61,89.63L44,89.94C38.51,90.24,33.37,87.24,30.92,82.32C23.3,78.17,19.78,69.13,22.59,60.92L25.13,53.52L21.8,62.27C18.79,70.18,22.59,79.05,30.39,82.32Z" fill="currentColor"/><path d="M27.26,77.44L34.01,72.79L36.72,77.44C32.06,80.82,26.33,82.7,20.33,82.8L19.67,82.81Z" fill="currentColor"/><path d="M38.43,69.77L45.4,64.68L48.11,69.33L26.44,87.41C28.19,80.36,32.41,74.16,38.43,69.77Z" fill="currentColor"/><path d="M34,54.03L34,27.59C40.85,21.53,51.15,21.53,58,27.59L58,54.03Z" fill="currentColor"/><path d="M34,58.46L34,37.73L38,32.4C42,27.07,50,27.07,54,32.4L58,37.73L58,58.46Z" fill="currentColor" opacity="0.5"/><path d="M27.69,55.93L29.86,54.33L33.83,57.78C34.74,58.57,35.9,59,37.11,59L46,59L54.89,59C56.1,59,57.26,58.57,58.17,57.78L62.14,54.33L64.31,55.93C65.79,57.01,67.82,55.71,67.46,53.91L66.12,47.4C65.83,46,64.61,45,63.18,45L28.82,45C27.39,45,26.17,46,25.88,47.4L24.54,53.91C24.18,55.71,26.21,57.01,27.69,55.93Z" fill="currentColor"/><path d="M51.24,62.54L63,63.74L63,49.31C63,45.07,61.21,41.03,58.06,38.19L54.02,34.53C52.18,32.87,49.79,31.95,47.31,31.95L44.69,31.95C42.21,31.95,39.82,32.87,37.98,34.53L33.94,38.19C30.79,41.03,29,45.07,29,49.31L29,56.74C29,61.74,30.25,66.67,32.65,71.07L32.74,71.24C36.82,65.14,43.94,61.79,51.24,62.54Z" fill="currentColor"/></svg>