<svg xmlns="http://www.w3.org/2000/svg" viewBox="0 0 90 90" fill="currentColor"><path d="M16,19C14.9,19,14,18.1,14,17L14,6C14,4.9,14.9,4,16,4L76,4C77.1,4,78,4.9,78,6L78,17C78,18.1,77.1,19,76,19ZM27.84,4L16,4C14.9,4,14,4.9,14,6L14,17C14,18.1,14.9,19,16,19L36.58,19C34.11,13.75,31.18,8.73,27.84,4ZM78.55,66.95C76.28,64.72,75.81,61.37,77.17,58.69L65.09,50.49C64.71,50.21,64.19,50.31,63.95,50.71L54.01,66.86C56.74,67.58,58.75,70.01,58.75,72.9C58.75,76.37,55.89,79.17,52.36,79.17C52.36,79.17,52.34,79.17,52.33,79.17C52.35,79.36,52.36,79.55,52.36,79.74C52.36,83.2,49.5,86,45.96,86C42.43,86,39.57,83.2,39.57,79.74C39.57,79.55,39.58,79.36,39.6,79.17C39.6,79.17,39.58,79.17,39.57,79.17C36.03,79.17,33.17,76.37,33.17,72.9C33.17,69.98,35.21,67.53,37.99,66.84L28.07,50.7C27.82,50.3,27.31,50.2,26.93,50.48L14.67,58.78C16,61.44,15.54,64.73,13.3,66.94C10.47,69.72,5.87,69.71,3.04,66.94L3.06,66.92C3,66.86,2.98,66.72,3.03,66.52L14.89,26.43C15.14,25.58,15.92,25,16.81,25L75.22,25C76.11,25,76.89,25.58,77.14,26.43L88.97,66.52C89.02,66.73,89,66.88,88.93,66.94L88.92,66.95C86.06,69.77,81.41,69.77,78.55,66.95ZM76.94,26.43C76.69,25.58,75.91,25,75.03,25L46,25L73.28,27.08C74.07,27.14,74.74,27.65,75.01,28.38L89,66.59ZM46,59.92C46,47.71,43.64,35.9,39.27,25L16.81,25C15.92,25,15.14,25.58,14.89,26.43L3.03,66.52C2.98,66.72,3,66.86,3.06,66.92L3.04,66.94C5.87,69.71,10.47,69.72,13.3,66.94C15.54,64.73,16,61.44,14.67,58.78L26.93,50.48C27.31,50.2,27.82,50.3,28.07,50.7L37.99,66.84C35.21,67.53,33.17,69.98,33.17,72.9C33.17,76.37,36.03,79.17,39.57,79.17L39.6,79.17C39.58,79.36,39.57,79.55,39.57,79.74C39.57,83.2,42.43,86,45.96,86C45.98,86,45.99,86,46,86ZM88.92,66.95L88.93,66.94C89,66.88,89.02,66.73,88.97,66.52L88.81,65.99C85.94,68.63,81.38,68.6,78.55,65.89C77.25,64.64,76.54,63.03,76.43,61.4C76.29,63.39,77,65.43,78.55,66.95C81.41,69.77,86.06,69.77,88.92,66.95ZM65.09,50.49C64.71,50.21,64.19,50.31,63.95,50.71L54.05,66.8C54.04,66.8,54.03,66.8,54.01,66.79L63.95,48.01C64.19,47.62,64.71,47.53,65.09,47.8L77.17,57.81C77.05,58.03,76.95,58.26,76.86,58.48ZM58.75,72.9C58.75,76.37,55.89,79.17,52.36,79.17L52.33,79.17C52.35,79.36,52.36,79.55,52.36,79.74C52.36,83.2,49.5,86,45.96,86C42.43,86,39.57,83.2,39.57,79.74C39.57,79.55,39.58,79.36,39.6,79.17L39.57,79.17C36.03,79.17,33.17,76.37,33.17,72.9C33.17,72.7,33.18,72.5,33.2,72.3C33.51,75.4,36.24,77.82,39.57,77.82L39.6,77.82C39.58,78.01,39.57,78.19,39.57,78.38C39.57,81.76,42.43,84.5,45.96,84.5C49.5,84.5,52.36,81.76,52.36,78.38C52.36,78.19,52.35,78.01,52.33,77.82L52.36,77.82C55.69,77.82,58.41,75.4,58.72,72.3C58.74,72.5,58.75,72.7,58.75,72.9ZM28.07,50.7C27.82,50.3,27.31,50.2,26.93,50.48L14.97,58.58C14.89,58.35,14.79,58.12,14.67,57.9L26.93,47.79C27.31,47.52,27.82,47.61,28.07,48L37.99,66.77C37.98,66.78,37.96,66.78,37.95,66.78ZM13.3,66.94C10.47,69.72,5.87,69.71,3.04,66.94L3.06,66.92C3,66.86,2.98,66.72,3.03,66.52L3.18,66.01C6.02,68.58,10.52,68.55,13.3,65.88C14.58,64.64,15.28,63.05,15.4,61.44C15.53,63.41,14.83,65.43,13.3,66.94ZM15.06,26.43C15.31,25.58,16.09,25,16.97,25L36,25L18.13,27.27C17.38,27.36,16.75,27.87,16.5,28.58L3,66.59Z"/></svg>