<svg xmlns="http://www.w3.org/2000/svg" viewBox="0 0 90 90"><path d="M15,70C13.9,70,13,70.9,13,72L13,83C13,84.1,13.9,85,15,85L75,85C76.1,85,77,84.1,77,83L77,72C77,70.9,76.1,70,75,70Z" fill="currentColor"/><path d="M26.84,85L15,85C13.9,85,13,84.1,13,83L13,72C13,70.9,13.9,70,15,70L35.58,70C33.11,75.25,30.18,80.27,26.84,85Z" fill="currentColor"/><path d="M77.55,22.05C75.28,24.28,74.81,27.63,76.17,30.31L64.09,38.51C63.71,38.79,63.19,38.69,62.95,38.29L53.01,22.14C55.74,21.42,57.75,18.99,57.75,16.1C57.75,12.63,54.89,9.83,51.36,9.83C51.36,9.83,51.34,9.83,51.33,9.83C51.35,9.64,51.36,9.45,51.36,9.26C51.36,5.8,48.5,3,44.96,3C41.43,3,38.57,5.8,38.57,9.26C38.57,9.45,38.58,9.64,38.6,9.83C38.6,9.83,38.58,9.83,38.57,9.83C35.03,9.83,32.17,12.63,32.17,16.1C32.17,19.02,34.21,21.47,36.99,22.16L27.07,38.3C26.82,38.7,26.31,38.8,25.93,38.52L13.67,30.22C15,27.56,14.54,24.27,12.3,22.06C9.47,19.28,4.87,19.29,2.04,22.06L2.06,22.08C2,22.14,1.98,22.28,2.03,22.48L13.89,62.57C14.14,63.42,14.92,64,15.81,64L74.22,64C75.11,64,75.89,63.42,76.14,62.57L87.97,22.48C88.02,22.27,88,22.12,87.93,22.06L87.92,22.05C85.06,19.23,80.41,19.23,77.55,22.05Z" fill="currentColor"/><path d="M75.94,62.57C75.69,63.42,74.91,64,74.03,64L45,64L72.28,61.92C73.07,61.86,73.74,61.35,74.01,60.62L88,22.41Z" fill="currentColor"/><path d="M45,29.08C45,41.29,42.64,53.1,38.27,64L15.81,64C14.92,64,14.14,63.42,13.89,62.57L2.03,22.48C1.98,22.28,2,22.14,2.06,22.08L2.04,22.06C4.87,19.29,9.47,19.28,12.3,22.06C14.54,24.27,15,27.56,13.67,30.22L25.93,38.52C26.31,38.8,26.82,38.7,27.07,38.3L36.99,22.16C34.21,21.47,32.17,19.02,32.17,16.1C32.17,12.63,35.03,9.83,38.57,9.83L38.6,9.83C38.58,9.64,38.57,9.45,38.57,9.26C38.57,5.8,41.43,3,44.96,3C44.98,3,44.99,3,45,3Z" fill="currentColor"/><path d="M87.92,22.05L87.93,22.06C88,22.12,88.02,22.27,87.97,22.48L87.81,23.01C84.94,20.37,80.38,20.4,77.55,23.11C76.25,24.36,75.54,25.97,75.43,27.6C75.29,25.61,76,23.57,77.55,22.05C80.41,19.23,85.06,19.23,87.92,22.05Z" fill="currentColor"/><path d="M64.09,38.51C63.71,38.79,63.19,38.69,62.95,38.29L53.05,22.2C53.04,22.2,53.03,22.2,53.01,22.21L62.95,40.99C63.19,41.38,63.71,41.47,64.09,41.2L76.17,31.19C76.05,30.97,75.95,30.74,75.86,30.52Z" fill="currentColor"/><path d="M57.75,16.1C57.75,12.63,54.89,9.83,51.36,9.83L51.33,9.83C51.35,9.64,51.36,9.45,51.36,9.26C51.36,5.8,48.5,3,44.96,3C41.43,3,38.57,5.8,38.57,9.26C38.57,9.45,38.58,9.64,38.6,9.83L38.57,9.83C35.03,9.83,32.17,12.63,32.17,16.1C32.17,16.3,32.18,16.5,32.2,16.7C32.51,13.6,35.24,11.18,38.57,11.18L38.6,11.18C38.58,10.99,38.57,10.81,38.57,10.62C38.57,7.24,41.43,4.5,44.96,4.5C48.5,4.5,51.36,7.24,51.36,10.62C51.36,10.81,51.35,10.99,51.33,11.18L51.36,11.18C54.69,11.18,57.41,13.6,57.72,16.7C57.74,16.5,57.75,16.3,57.75,16.1Z" fill="currentColor"/><path d="M27.07,38.3C26.82,38.7,26.31,38.8,25.93,38.52L13.97,30.42C13.89,30.65,13.79,30.88,13.67,31.1L25.93,41.21C26.31,41.48,26.82,41.39,27.07,41L36.99,22.23C36.98,22.22,36.96,22.22,36.95,22.22Z" fill="currentColor"/><path d="M12.3,22.06C9.47,19.28,4.87,19.29,2.04,22.06L2.06,22.08C2,22.14,1.98,22.28,2.03,22.48L2.18,22.99C5.02,20.42,9.52,20.45,12.3,23.12C13.58,24.36,14.28,25.95,14.4,27.56C14.53,25.59,13.83,23.57,12.3,22.06Z" fill="currentColor"/><path d="M14.06,62.57C14.31,63.42,15.09,64,15.97,64L35,64L17.13,61.73C16.38,61.64,15.75,61.13,15.5,60.42L2,22.41Z" fill="currentColor"/></svg>