<svg xmlns="http://www.w3.org/2000/svg" viewBox="0 0 90 90"><path d="M76.55,21.44C82.62,15.37,81.98,5.02,81.98,5.02C81.98,5.02,71.63,4.38,65.56,10.45L23.93,52.08L29.27,57.73L34.96,63.03Z" fill="currentColor"/><path d="M34.97,63.03L76.56,21.44C82.63,15.37,81.99,5.02,81.99,5.02L29.28,57.73Z" fill="currentColor"/><path d="M39.58,72.73C40.62,71.69,40.73,70.02,39.82,68.85C38.37,66.99,36.74,65.04,34.96,63.03C34.96,63.03,28.63,55.96,23.93,52.08C21.92,50.29,19.97,48.66,18.11,47.22C16.94,46.31,15.27,46.42,14.23,47.46C13.19,48.5,11.09,50.98,11.75,51.76L35.29,75.21L35.28,75.21C36.06,75.86,38.54,73.76,39.58,72.73Z" fill="currentColor"/><path d="M14.48,82.86C11.62,85.72,6.99,85.72,4.14,82.86C1.28,80,1.28,75.37,4.14,72.52C5.66,71,9.62,70.33,9.62,70.33L14.71,71.72L16.68,77.04L16.68,77.38C16.68,77.38,16.01,81.34,14.48,82.86Z" fill="currentColor"/><path d="M16.57,77.3L9.52,70.25L18.88,58.92L27.94,67.9Z" fill="currentColor"/><path d="M23.93,52.08C21.92,50.29,19.97,48.66,18.11,47.22C16.94,46.31,15.27,46.42,14.23,47.46C13.19,48.5,11.09,50.98,11.75,51.76L16.5,56.49C19.9,55.13,23.53,54.68,27.13,54.94L27.12,54.95C26.03,53.92,24.94,52.92,23.93,52.08Z" fill="currentColor"/><path d="M14.94,63.69L18.88,58.92L27.94,67.9C27.94,67.9,24.65,64.94,14.94,63.69Z" fill="currentColor"/><path d="M46.08,51.91L39.51,47.49L42.18,55.8Z" fill="currentColor"/><path d="M13.45,21.44C7.38,15.37,8.02,5.02,8.02,5.02C8.02,5.02,18.37,4.38,24.44,10.45L66.07,52.08L60.73,57.73L55.04,63.03Z" fill="currentColor"/><path d="M55.04,63.03L13.45,21.44C7.38,15.37,8.02,5.02,8.02,5.02L60.73,57.73Z" fill="currentColor"/><path d="M50.42,72.73C49.38,71.69,49.27,70.02,50.18,68.85C51.63,66.99,53.26,65.04,55.04,63.03C55.04,63.03,61.37,55.96,66.07,52.08C68.08,50.29,70.03,48.66,71.89,47.22C73.06,46.31,74.73,46.42,75.77,47.46C76.81,48.5,78.91,50.98,78.25,51.76L54.71,75.21L54.72,75.21C53.94,75.86,51.46,73.76,50.42,72.73Z" fill="currentColor"/><path d="M75.52,82.86C78.38,85.72,83.01,85.72,85.86,82.86C88.71,80,88.72,75.37,85.86,72.52C84.34,71,80.38,70.33,80.38,70.33L73.33,77.38L73.32,77.38C73.32,77.38,73.99,81.34,75.52,82.86Z" fill="currentColor"/><path d="M73.43,77.3L80.48,70.25L71.12,58.92L62.06,67.9Z" fill="currentColor"/><path d="M66.07,52.08C68.08,50.29,70.03,48.66,71.89,47.22C73.06,46.31,74.73,46.42,75.77,47.46C76.81,48.5,78.91,50.98,78.25,51.76L73.5,56.49C70.11,55.13,66.47,54.68,62.87,54.94L62.88,54.95C63.97,53.92,65.06,52.92,66.07,52.08Z" fill="currentColor"/><path d="M75.06,63.69L71.12,58.92L62.06,67.9C62.06,67.9,65.35,64.94,75.06,63.69Z" fill="currentColor"/></svg>