<svg xmlns="http://www.w3.org/2000/svg" viewBox="0 0 90 90" fill="currentColor"><path d="M77.55,69.66C83.62,75.73,82.98,86.08,82.98,86.08C82.98,86.08,72.63,86.72,66.56,80.65L24.93,39.02L30.27,33.37L35.96,28.07ZM35.97,28.07L77.56,69.66C83.63,75.73,82.99,86.08,82.99,86.08L30.28,33.37ZM40.58,18.37C41.62,19.41,41.73,21.08,40.82,22.25C39.37,24.11,37.74,26.06,35.96,28.07C35.96,28.07,29.63,35.14,24.93,39.02C22.92,40.81,20.97,42.44,19.11,43.88C17.94,44.79,16.27,44.68,15.23,43.64C14.19,42.6,12.09,40.12,12.75,39.34L36.29,15.89L36.28,15.89C37.06,15.24,39.54,17.34,40.58,18.37ZM15.48,8.24C12.62,5.38,7.99,5.38,5.14,8.24C2.28,11.1,2.28,15.73,5.14,18.58C6.66,20.1,10.62,20.77,10.62,20.77L15.71,19.38L17.68,14.06L17.68,13.72C17.68,13.72,17.01,9.76,15.48,8.24ZM17.57,13.8L10.52,20.85L19.88,32.18L28.94,23.2ZM24.93,39.02C22.92,40.81,20.97,42.44,19.11,43.88C17.94,44.79,16.27,44.68,15.23,43.64C14.19,42.6,12.09,40.12,12.75,39.34L17.5,34.61C20.9,35.97,24.53,36.42,28.13,36.16L28.12,36.15C27.03,37.18,25.94,38.18,24.93,39.02ZM15.94,27.41L19.88,32.18L28.94,23.2C28.94,23.2,25.65,26.16,15.94,27.41ZM47.08,39.19L40.51,43.61L43.18,35.3ZM14.45,69.66C8.38,75.73,9.02,86.08,9.02,86.08C9.02,86.08,19.37,86.72,25.44,80.65L67.07,39.02L61.73,33.37L56.04,28.07ZM56.04,28.07L14.45,69.66C8.38,75.73,9.02,86.08,9.02,86.08L61.73,33.37ZM51.42,18.37C50.38,19.41,50.27,21.08,51.18,22.25C52.63,24.11,54.26,26.06,56.04,28.07C56.04,28.07,62.37,35.14,67.07,39.02C69.08,40.81,71.03,42.44,72.89,43.88C74.06,44.79,75.73,44.68,76.77,43.64C77.81,42.6,79.91,40.12,79.25,39.34L55.71,15.89L55.72,15.89C54.94,15.24,52.46,17.34,51.42,18.37ZM76.52,8.24C79.38,5.38,84.01,5.38,86.86,8.24C89.71,11.1,89.72,15.73,86.86,18.58C85.34,20.1,81.38,20.77,81.38,20.77L74.33,13.72L74.32,13.72C74.32,13.72,74.99,9.76,76.52,8.24ZM74.43,13.8L81.48,20.85L72.12,32.18L63.06,23.2ZM67.07,39.02C69.08,40.81,71.03,42.44,72.89,43.88C74.06,44.79,75.73,44.68,76.77,43.64C77.81,42.6,79.91,40.12,79.25,39.34L74.5,34.61C71.11,35.97,67.47,36.42,63.87,36.16L63.88,36.15C64.97,37.18,66.06,38.18,67.07,39.02ZM76.06,27.41L72.12,32.18L63.06,23.2C63.06,23.2,66.35,26.16,76.06,27.41Z"/></svg>