<svg xmlns="http://www.w3.org/2000/svg" viewBox="0 0 90 90" fill="currentColor"><path d="M66.57,6L25.16,6C24.04,6,22.96,6.46,22.19,7.26L2.12,28.07C0.68,29.56,0.57,31.89,1.87,33.51L42.66,84.47C44.31,86.53,47.44,86.53,49.1,84.47L89.86,33.51C91.16,31.89,91.05,29.56,89.61,28.07L69.54,7.26C68.76,6.46,67.69,6,66.57,6ZM69.53,7.25L89.61,28.07C90.4,28.89,90.79,29.96,90.77,31.02L67.07,37L46.95,85.87C45.44,86.28,43.73,85.81,42.66,84.47L1.87,33.51C0.57,31.89,0.68,29.56,2.12,28.07L22.19,7.26C22.96,6.46,24.04,6,25.16,6L66.57,6C67.69,6,68.75,6.45,69.53,7.25ZM69.53,7.25L76.06,14.02L89.61,28.07C90.41,28.89,90.79,29.97,90.77,31.04L88.02,31.78L80.53,22.53C73.34,13.63,62.77,8.12,51.35,7.32L32.5,6L66.57,6C67.69,6,68.75,6.45,69.53,7.25ZM67.07,37L24.67,37L44.8,85.87C43.99,85.65,43.23,85.18,42.66,84.47L1.87,33.51C0.57,31.89,0.68,29.56,2.12,28.07L22.19,7.26C22.96,6.46,24.04,6,25.16,6L59.37,6ZM67.07,37L58.74,10.85C58.1,8.85,56.32,7.44,54.23,7.28L37.64,6L59.37,6ZM42.66,84.47L1.87,33.51C1.73,33.34,1.6,33.15,1.49,32.96L45.56,86C44.47,85.92,43.41,85.41,42.66,84.47ZM24.67,37L0.96,31.02C0.94,29.96,1.33,28.89,2.12,28.07L22.19,7.26C22.96,6.46,24.04,6,25.16,6L32.36,6ZM31.88,6.13C25.5,7.56,19.8,11.16,15.77,16.33L3.71,31.78L0.96,31.04C0.94,30.03,1.28,29.02,1.99,28.21L2.12,28.07L22.2,7.25C22.98,6.45,24.04,6,25.16,6L32.5,6ZM45.88,85.91L45.88,86.01C44.68,86.01,43.48,85.5,42.66,84.47L39.91,81.03L1.85,33.5C1.28,32.77,0.98,31.9,0.96,31.02L3.71,31.71ZM89.88,33.5L48.86,84.73C48.05,85.59,46.95,86.02,45.85,86.01L45.85,85.91L88.02,31.71L90.77,31.02C90.75,31.9,90.45,32.77,89.88,33.5Z"/></svg>