<svg xmlns="http://www.w3.org/2000/svg" viewBox="0 0 90 90"><path d="M66.07,5L24.66,5C23.54,5,22.46,5.46,21.69,6.26L1.62,27.07C0.18,28.56,0.07,30.89,1.37,32.51L42.16,83.47C43.81,85.53,46.94,85.53,48.6,83.47L89.36,32.51C90.66,30.89,90.55,28.56,89.11,27.07L69.04,6.26C68.26,5.46,67.19,5,66.07,5Z" fill="#666564"/><path d="M69.03,6.25L89.11,27.07C89.9,27.89,90.29,28.96,90.27,30.02L66.57,36L46.45,84.87C44.94,85.28,43.23,84.81,42.16,83.47L1.37,32.51C0.07,30.89,0.18,28.56,1.62,27.07L21.69,6.26C22.46,5.46,23.54,5,24.66,5L66.07,5C67.19,5,68.25,5.45,69.03,6.25Z" fill="#BEBDB9"/><path d="M69.03,6.25L75.56,13.02L89.11,27.07C89.91,27.89,90.29,28.97,90.27,30.04L87.52,30.78L80.03,21.53C72.84,12.63,62.27,7.12,50.85,6.32L32,5L66.07,5C67.19,5,68.25,5.45,69.03,6.25Z" fill="#DAD8D6"/><path d="M66.57,36L24.17,36L44.3,84.87C43.49,84.65,42.73,84.18,42.16,83.47L1.37,32.51C0.07,30.89,0.18,28.56,1.62,27.07L21.69,6.26C22.46,5.46,23.54,5,24.66,5L58.87,5Z" fill="#DAD8D6"/><path d="M66.57,36L58.24,9.85C57.6,7.85,55.82,6.44,53.73,6.28L37.14,5L58.87,5Z" fill="#E7E6E5"/><path d="M42.16,83.47L1.37,32.51C1.23,32.34,1.1,32.15,0.99,31.96L45.06,85C43.97,84.92,42.91,84.41,42.16,83.47Z" fill="#E7E6E5"/><path d="M24.17,36L0.46,30.02C0.44,28.96,0.83,27.89,1.62,27.07L21.69,6.26C22.46,5.46,23.54,5,24.66,5L31.86,5Z" fill="#E7E6E5"/><path d="M31.38,5.13C25,6.56,19.3,10.16,15.27,15.33L3.21,30.78L0.46,30.04C0.44,29.03,0.78,28.02,1.49,27.21L1.62,27.07L21.7,6.25C22.48,5.45,23.54,5,24.66,5L32,5Z" fill="#F8F8F8"/><path d="M45.38,84.91L45.38,85.01C44.18,85.01,42.98,84.5,42.16,83.47L39.41,80.03L1.35,32.5C0.78,31.77,0.48,30.9,0.46,30.02L3.21,30.71Z" fill="#E7E6E5"/><path d="M89.38,32.5L48.36,83.73C47.55,84.59,46.45,85.02,45.35,85.01L45.35,84.91L87.52,30.71L90.27,30.02C90.25,30.9,89.95,31.77,89.38,32.5Z" fill="#8B8987"/></svg>