<svg xmlns="http://www.w3.org/2000/svg" viewBox="0 0 90 90"><path d="M17,54.78C17,57.34,18.07,59.78,19.95,61.51L20.34,61.88C35.03,75.44,57.73,75.26,72.2,61.46C73.99,59.76,75,57.4,75,54.93L75,36.05L70.77,2.21C70.69,1.52,70.1,1,69.41,1C68.87,1,68.38,1.32,68.15,1.81L46.47,49.92L24.79,1.82C24.56,1.32,24.06,1,23.51,1C22.82,1,22.23,1.51,22.13,2.19L17,36.78Z" fill="currentColor"/><path d="M75,54.93C75,57.4,73.99,59.76,72.2,61.46C57.73,75.26,35.03,75.44,20.34,61.88L19.95,61.51C18.07,59.78,17,57.34,17,54.78L17,36.78L19.08,22.73L28.45,38.49L34.42,23.19L46.47,49.92L58.01,24.3L63.55,38.49L73.26,22.14L75,36.05Z" fill="currentColor"/><path d="M28.45,48.49L6.35,11.29C6.13,10.93,5.74,10.71,5.31,10.71C4.61,10.71,4.05,11.31,4.12,12.01L9.61,73.36C9.82,75.72,11.08,77.87,13.2,78.94C18.38,81.55,29.63,86,46,86C62.37,86,73.62,81.55,78.8,78.94C80.92,77.87,82.18,75.72,82.39,73.36L87.88,12.01C87.95,11.31,87.39,10.71,86.69,10.71C86.26,10.71,85.87,10.93,85.65,11.29L63.55,48.49L47.33,6.91C47.12,6.36,46.59,6,46,6C45.41,6,44.88,6.36,44.67,6.91Z" fill="currentColor"/><path d="M47.33,6.91L63.55,48.49L81.74,17.88L75.82,80.32C69.85,82.87,59.73,86,46,86C32.27,86,22.15,82.87,16.18,80.32L10.26,17.88L28.45,48.49L44.67,6.91C44.88,6.36,45.41,6,46,6C46.59,6,47.12,6.36,47.33,6.91Z" fill="currentColor"/><path d="M47.33,6.91L63.55,48.49L68.1,40.84L65.46,83.73C60.15,85.03,53.63,86,46,86C38.37,86,31.85,85.03,26.54,83.73L23.9,40.84L28.45,48.49L44.67,6.91C44.88,6.36,45.41,6,46,6C46.59,6,47.12,6.36,47.33,6.91Z" fill="currentColor" opacity="0.5"/><path d="M47.33,6.91L53.25,22.09L52.03,85.79C50.11,85.93,48.1,86,46,86C43.9,86,41.89,85.93,39.97,85.79L38.75,22.09L44.67,6.91C44.88,6.36,45.41,6,46,6C46.59,6,47.12,6.36,47.33,6.91Z" fill="currentColor" opacity="0.2"/><path d="M28.45,48.49L6.35,11.29C6.13,10.93,5.74,10.71,5.32,10.71C4.61,10.71,4.06,11.31,4.12,12.02L6.3,35.39L7.45,47.73L5.95,14.07L24.49,51.43C25.23,52.92,27.36,52.91,28.08,51.42L46,14.71L63.92,51.42C64.65,52.91,66.77,52.92,67.51,51.43L86.05,14.07L84.55,47.73L85.7,35.39L87.88,12.02C87.94,11.31,87.39,10.71,86.69,10.71C86.26,10.71,85.87,10.93,85.66,11.29L63.55,48.49L47.33,6.91C47.12,6.36,46.59,6,46,6C45.41,6,44.88,6.36,44.67,6.91Z" fill="currentColor"/><path d="M44.67,6.91C44.88,6.36,45.41,6,46,6C46.59,6,47.12,6.36,47.33,6.91L63.55,49.08L85.66,11.3C85.87,10.93,86.26,10.71,86.69,10.71C87.39,10.71,87.94,11.31,87.88,12.01L85.7,35.39L86.05,14.07L63.55,49.08L46,8.32L28.45,49.08L5.95,14.07L6.3,35.39L4.12,12.01C4.06,11.31,4.61,10.71,5.31,10.71C5.74,10.71,6.13,10.93,6.34,11.3L28.45,49.08Z" fill="currentColor"/><path d="M12.43,72.78C17.7,75.42,29.21,79.94,46,79.94C62.79,79.94,74.3,75.42,79.57,72.78C81.11,72.01,82.2,70.68,82.77,69.1L82.39,73.36C82.18,75.72,80.92,77.87,78.8,78.94C77.59,79.55,76.05,80.26,74.19,80.98C67.12,83.63,58.56,85.65,48.62,85.96C47.76,85.98,46.89,86,46,86C45.54,86,45.08,86,44.63,85.99C44.21,85.98,43.8,85.97,43.39,85.96C33.43,85.65,24.86,83.62,17.79,80.98C15.94,80.25,14.41,79.55,13.2,78.94C11.08,77.87,9.82,75.73,9.61,73.36L9.23,69.1C9.8,70.68,10.89,72.01,12.43,72.78Z" fill="currentColor" opacity="0.9"/><path d="M19.15,22.27L22.7,6.45C22.9,5.57,24.08,5.38,24.54,6.17L34.41,23.18L24.79,1.82C24.56,1.32,24.06,1,23.51,1C22.82,1,22.23,1.51,22.13,2.19Z" fill="currentColor"/><path d="M73.27,22.18L69.87,6.54C69.67,5.64,68.47,5.46,68.02,6.26L58.42,23.41L68.15,1.81C68.38,1.32,68.87,1,69.41,1C70.1,1,70.69,1.52,70.77,2.21Z" fill="currentColor"/></svg>