<svg xmlns="http://www.w3.org/2000/svg" viewBox="0 0 90 90"><path d="M78.8,78.94C73.62,81.55,62.37,86,46,86C29.63,86,18.38,81.55,13.2,78.94C11.92,78.29,10.95,77.25,10.34,76L81.66,76C81.05,77.25,80.08,78.29,78.8,78.94Z" fill="currentColor"/><path d="M46,86C32.27,86,22.15,82.87,16.18,80.32L15.77,76L76.23,76L75.82,80.32C69.85,82.87,59.73,86,46,86Z" fill="currentColor"/><path d="M46,86C38.37,86,31.85,85.03,26.54,83.73L26.06,76L65.94,76L65.46,83.73C60.15,85.03,53.63,86,46,86Z" fill="currentColor" opacity="0.66"/><path d="M46,86C43.9,86,41.89,85.93,39.97,85.79L39.78,76L52.22,76L52.03,85.79C50.11,85.93,48.1,86,46,86Z" fill="currentColor"/><path d="M78.8,78.94C77.6,79.54,76.07,80.25,74.23,80.97C67.15,83.62,58.58,85.65,48.61,85.96C47.76,85.98,46.89,86,46,86C45.11,86,44.24,85.98,43.39,85.96C33.42,85.65,24.85,83.62,17.77,80.97C15.93,80.25,14.4,79.54,13.2,78.94C11.92,78.29,10.95,77.25,10.34,76L20.31,76C26.5,78.05,35.15,79.94,46,79.94C56.85,79.94,65.5,78.05,71.69,76L81.66,76C81.05,77.25,80.08,78.29,78.8,78.94Z" fill="currentColor" opacity="0.9"/><path d="M72.2,61.46C57.73,75.26,35.03,75.44,20.34,61.88L19.95,61.51C19.77,61.35,19.6,61.18,19.44,61L72.65,61C72.51,61.16,72.36,61.31,72.2,61.46Z" fill="currentColor"/><path d="M72.2,61.46C57.73,75.26,35.03,75.44,20.34,61.88L19.95,61.51C19.77,61.35,19.6,61.18,19.44,61L72.65,61C72.51,61.16,72.36,61.31,72.2,61.46Z" fill="currentColor"/><path d="M81.66,76L10.34,76C9.94,75.19,9.7,74.29,9.61,73.36L8.5,61L83.5,61L82.39,73.36C82.3,74.29,82.06,75.19,81.66,76Z" fill="currentColor"/><path d="M15.77,76L14.35,61L77.65,61L76.23,76Z" fill="currentColor"/><path d="M26.06,76L25.14,61L66.86,61L65.94,76Z" fill="currentColor" opacity="0.66"/><path d="M39.78,76L39.49,61L52.51,61L52.22,76Z" fill="currentColor"/><path d="M12.43,72.78C14.29,73.71,16.93,74.88,20.31,76L10.34,76C9.94,75.19,9.7,74.29,9.61,73.36L9.23,69.1C9.8,70.68,10.88,72.01,12.43,72.78Z" fill="currentColor" opacity="0.9"/><path d="M81.66,76L71.69,76C75.07,74.88,77.71,73.71,79.57,72.78C81.11,72.01,82.2,70.68,82.77,69.1L82.39,73.36C82.3,74.29,82.06,75.19,81.66,76Z" fill="currentColor" opacity="0.9"/><path d="M72.65,61L19.44,61C17.88,59.31,17,57.1,17,54.79L17,46L44.7,46L46.47,49.92L48.23,46L75,46L75,54.93C75,57.18,74.16,59.34,72.65,61Z" fill="currentColor"/><path d="M72.65,61L19.44,61C17.88,59.31,17,57.1,17,54.79L17,46L44.7,46L46.47,49.92L48.23,46L75,46L75,54.93C75,57.18,74.16,59.34,72.65,61Z" fill="currentColor"/><path d="M8.5,61L7.16,46L26.97,46L28.45,48.49L29.42,46L62.58,46L63.55,48.49L65.03,46L84.84,46L83.5,61Z" fill="currentColor"/><path d="M14.35,61L12.93,46L26.97,46L28.45,48.49L29.42,46L62.58,46L63.55,48.49L65.03,46L79.07,46L77.65,61Z" fill="currentColor"/><path d="M25.14,61L24.22,46L26.97,46L28.45,48.49L29.42,46L62.58,46L63.55,48.49L65.03,46L67.78,46L66.86,61Z" fill="currentColor" opacity="0.66"/><path d="M39.49,61L39.21,46L52.79,46L52.51,61Z" fill="currentColor"/><path d="M24.49,51.43L21.8,46L26.97,46L28.45,48.49L29.42,46L30.73,46L28.08,51.42C27.36,52.91,25.23,52.92,24.49,51.43Z" fill="currentColor"/><path d="M63.92,51.42L61.27,46L62.58,46L63.55,48.49L65.03,46L70.2,46L67.51,51.43C66.77,52.92,64.65,52.91,63.92,51.42Z" fill="currentColor"/><path d="M7.29,46L7.37,46L7.45,47.73Z" fill="currentColor"/><path d="M84.63,46L84.71,46L84.55,47.73Z" fill="currentColor"/><path d="M26.47,46L26.65,46L28.45,49.08L29.64,46L29.78,46L28.45,49.08Z" fill="currentColor"/><path d="M62.22,46L62.36,46L63.55,49.08Z" fill="currentColor"/><path d="M65.35,46L65.53,46L63.55,49.08Z" fill="currentColor"/><path d="M17,46L17,36.78L17.86,31L37.94,31L44.7,46Z" fill="currentColor"/><path d="M75,46L48.23,46L54.99,31L74.37,31L75,36.05Z" fill="currentColor"/><path d="M17,46L17,36.78L17.86,31L24,31L28.45,38.49L31.37,31L37.94,31L44.7,46Z" fill="currentColor"/><path d="M75,46L48.23,46L54.99,31L60.63,31L63.55,38.49L68,31L74.37,31L75,36.05Z" fill="currentColor"/><path d="M7.16,46L5.82,31L18.06,31L26.97,46Z" fill="currentColor"/><path d="M29.42,46L35.27,31L56.73,31L62.58,46Z" fill="currentColor"/><path d="M65.03,46L73.94,31L86.18,31L84.84,46Z" fill="currentColor"/><path d="M12.93,46L11.5,31L18.06,31L26.97,46Z" fill="currentColor"/><path d="M29.42,46L35.27,31L56.73,31L62.58,46Z" fill="currentColor"/><path d="M65.03,46L73.94,31L80.5,31L79.07,46Z" fill="currentColor"/><path d="M24.22,46L23.9,40.84L26.97,46Z" fill="currentColor" opacity="0.66"/><path d="M29.42,46L35.27,31L56.73,31L62.58,46Z" fill="currentColor" opacity="0.66"/><path d="M65.03,46L68.1,40.84L67.78,46Z" fill="currentColor" opacity="0.66"/><path d="M39.21,46L38.92,31L53.08,31L52.79,46Z" fill="currentColor"/><path d="M7.29,46L6.3,35.39L5.89,31L6.71,31L7.37,46Z" fill="currentColor"/><path d="M21.8,46L14.35,31L18.06,31L26.97,46Z" fill="currentColor"/><path d="M29.42,46L35.27,31L38.05,31L30.73,46Z" fill="currentColor"/><path d="M61.27,46L53.95,31L56.73,31L62.58,46Z" fill="currentColor"/><path d="M65.03,46L73.94,31L77.65,31L70.2,46Z" fill="currentColor"/><path d="M84.71,46L84.63,46L85.29,31L86.11,31L85.7,35.39Z" fill="currentColor"/><path d="M26.47,46L16.83,31L17.87,31L26.65,46Z" fill="currentColor"/><path d="M29.64,46L35.41,31L36.23,31L29.78,46Z" fill="currentColor"/><path d="M62.22,46L55.77,31L56.59,31L62.36,46Z" fill="currentColor"/><path d="M65.35,46L74.13,31L75.17,31L65.53,46Z" fill="currentColor"/><path d="M5.89,31L6.23,31L6.3,35.39Z" fill="currentColor"/><path d="M85.77,31L86.11,31L85.7,35.39Z" fill="currentColor"/><path d="M17.86,31L20.08,16L31.18,16L37.94,31Z" fill="currentColor"/><path d="M54.99,31L61.76,16L72.5,16L74.37,31Z" fill="currentColor"/><path d="M17.86,31L19.08,22.73L24,31Z" fill="currentColor"/><path d="M31.37,31L34.42,23.19L37.94,31Z" fill="currentColor"/><path d="M54.99,31L58.01,24.3L60.63,31Z" fill="currentColor"/><path d="M68,31L73.26,22.14L74.37,31Z" fill="currentColor"/><path d="M5.82,31L4.47,16L9.14,16L18.06,31Z" fill="currentColor"/><path d="M35.27,31L41.12,16L50.88,16L56.73,31Z" fill="currentColor"/><path d="M73.94,31L82.86,16L87.53,16L86.18,31Z" fill="currentColor"/><path d="M11.5,31L10.26,17.88L18.06,31Z" fill="currentColor"/><path d="M35.27,31L41.12,16L50.88,16L56.73,31Z" fill="currentColor"/><path d="M73.94,31L81.74,17.88L80.5,31Z" fill="currentColor"/><path d="M35.27,31L41.12,16L50.88,16L56.73,31Z" fill="currentColor" opacity="0.66"/><path d="M53.08,31L38.92,31L38.75,22.09L41.12,16L50.88,16L53.25,22.09Z" fill="currentColor"/><path d="M5.89,31L4.49,16L6.04,16L6.71,31Z" fill="currentColor"/><path d="M14.35,31L6.91,16L9.14,16L18.06,31Z" fill="currentColor"/><path d="M35.27,31L41.12,16L45.37,16L38.05,31Z" fill="currentColor"/><path d="M53.95,31L46.63,16L50.88,16L56.73,31Z" fill="currentColor"/><path d="M73.94,31L82.86,16L85.09,16L77.65,31Z" fill="currentColor"/><path d="M85.29,31L85.96,16L87.51,16L86.11,31Z" fill="currentColor"/><path d="M5.89,31L4.49,16L5.98,16L6.23,31Z" fill="currentColor"/><path d="M16.83,31L7.19,16L9.1,16L17.87,31Z" fill="currentColor"/><path d="M35.41,31L41.18,16L42.69,16L36.23,31Z" fill="currentColor"/><path d="M55.77,31L49.31,16L50.82,16L56.59,31Z" fill="currentColor"/><path d="M74.13,31L82.91,16L84.81,16L75.17,31Z" fill="currentColor"/><path d="M85.77,31L86.02,16L87.51,16L86.11,31Z" fill="currentColor"/><path d="M30.25,16L31.18,16L34.41,23.18Z" fill="currentColor"/><path d="M20.08,16L20.56,16L19.15,22.27Z" fill="currentColor"/><path d="M61.76,16L62.57,16L58.42,23.41Z" fill="currentColor"/><path d="M71.92,16L72.5,16L73.27,22.18Z" fill="currentColor"/><path d="M24.79,1.82L31.18,16L20.08,16L22.13,2.19C22.23,1.51,22.82,1,23.51,1C24.06,1,24.56,1.32,24.79,1.82Z" fill="currentColor"/><path d="M70.77,2.21L72.5,16L61.76,16L68.15,1.81C68.37,1.32,68.87,1,69.41,1C70.1,1,70.69,1.52,70.77,2.21Z" fill="currentColor"/><path d="M6.35,11.29L9.14,16L4.47,16L4.12,12.01C4.05,11.31,4.61,10.71,5.31,10.71C5.74,10.71,6.13,10.93,6.35,11.29Z" fill="currentColor"/><path d="M47.33,6.91L50.88,16L41.12,16L44.67,6.91C44.88,6.36,45.41,6,46,6C46.59,6,47.12,6.36,47.33,6.91Z" fill="currentColor"/><path d="M87.88,12.01L87.53,16L82.86,16L85.65,11.29C85.87,10.93,86.26,10.71,86.69,10.71C87.39,10.71,87.95,11.31,87.88,12.01Z" fill="currentColor"/><path d="M47.33,6.91L50.88,16L41.12,16L44.67,6.91C44.88,6.36,45.41,6,46,6C46.59,6,47.12,6.36,47.33,6.91Z" fill="currentColor"/><path d="M47.33,6.91L50.88,16L41.12,16L44.67,6.91C44.88,6.36,45.41,6,46,6C46.59,6,47.12,6.36,47.33,6.91Z" fill="currentColor" opacity="0.66"/><path d="M47.33,6.91L50.88,16L41.12,16L44.67,6.91C44.88,6.36,45.41,6,46,6C46.59,6,47.12,6.36,47.33,6.91Z" fill="currentColor"/><path d="M6.35,11.29L9.14,16L6.91,16L5.95,14.07L6.04,16L4.49,16L4.12,12.02C4.06,11.31,4.61,10.71,5.32,10.71C5.74,10.71,6.13,10.93,6.35,11.29Z" fill="currentColor"/><path d="M47.33,6.91L50.88,16L46.63,16L46,14.71L45.37,16L41.12,16L44.67,6.91C44.88,6.36,45.41,6,46,6C46.59,6,47.12,6.36,47.33,6.91Z" fill="currentColor"/><path d="M87.88,12.02L87.51,16L85.96,16L86.05,14.07L85.09,16L82.86,16L85.66,11.29C85.87,10.93,86.26,10.71,86.69,10.71C87.39,10.71,87.94,11.31,87.88,12.02Z" fill="currentColor"/><path d="M6.34,11.3L9.1,16L7.19,16L5.95,14.07L5.98,16L4.49,16L4.12,12.01C4.06,11.31,4.61,10.71,5.31,10.71C5.74,10.71,6.13,10.93,6.34,11.3Z" fill="currentColor"/><path d="M47.33,6.91L50.82,16L49.31,16L46,8.32L42.69,16L41.18,16L44.67,6.91C44.88,6.36,45.41,6,46,6C46.59,6,47.12,6.36,47.33,6.91Z" fill="currentColor"/><path d="M87.88,12.01L87.51,16L86.02,16L86.05,14.07L84.81,16L82.91,16L85.66,11.3C85.87,10.93,86.26,10.71,86.69,10.71C87.39,10.71,87.94,11.31,87.88,12.01Z" fill="currentColor"/><path d="M24.79,1.82L31.18,16L30.25,16L24.54,6.17C24.08,5.38,22.9,5.57,22.7,6.45L20.56,16L20.08,16L22.13,2.19C22.23,1.51,22.82,1,23.51,1C24.06,1,24.56,1.32,24.79,1.82Z" fill="currentColor"/><path d="M70.77,2.21L72.5,16L71.92,16L69.87,6.54C69.67,5.64,68.47,5.46,68.02,6.26L62.57,16L61.76,16L68.15,1.81C68.37,1.32,68.87,1,69.41,1C70.1,1,70.69,1.52,70.77,2.21Z" fill="currentColor"/></svg>