<svg xmlns="http://www.w3.org/2000/svg" viewBox="0 0 90 90"><path d="M65.57,5L24.16,5C23.04,5,21.96,5.46,21.19,6.26L1.12,27.07C-0.32,28.56,-0.43,30.89,0.87,32.51L41.66,83.47C43.31,85.53,46.44,85.53,48.1,83.47L88.86,32.51C90.16,30.89,90.05,28.56,88.61,27.07L68.54,6.26C67.76,5.46,66.69,5,65.57,5Z" fill="#AD1F24"/><path d="M68.53,6.25L88.61,27.07C89.4,27.89,89.79,28.96,89.77,30.02L66.07,36L45.95,84.87C44.44,85.28,42.73,84.81,41.66,83.47L0.87,32.51C-0.43,30.89,-0.32,28.56,1.12,27.07L21.19,6.26C21.96,5.46,23.04,5,24.16,5L65.57,5C66.69,5,67.75,5.45,68.53,6.25Z" fill="#E02828"/><path d="M68.53,6.25L75.06,13.02L88.61,27.07C89.41,27.89,89.79,28.97,89.77,30.04L87.02,30.78L79.53,21.53C72.34,12.63,61.77,7.12,50.35,6.32L31.5,5L65.57,5C66.69,5,67.75,5.45,68.53,6.25Z" fill="#FF6352"/><path d="M66.07,36L23.67,36L43.8,84.87C42.99,84.65,42.23,84.18,41.66,83.47L0.87,32.51C-0.43,30.89,-0.32,28.56,1.12,27.07L21.19,6.26C21.96,5.46,23.04,5,24.16,5L58.37,5Z" fill="#FF6352"/><path d="M66.07,36L57.74,9.85C57.1,7.85,55.32,6.44,53.23,6.28L36.64,5L58.37,5Z" fill="#FF8A75"/><path d="M41.66,83.47L0.87,32.51C0.73,32.34,0.6,32.15,0.49,31.96L44.56,85C43.47,84.92,42.41,84.41,41.66,83.47Z" fill="#FFCBB2"/><path d="M23.67,36L-0.04,30.02C-0.06,28.96,0.33,27.89,1.12,27.07L21.19,6.26C21.96,5.46,23.04,5,24.16,5L31.36,5Z" fill="#FF8A75"/><path d="M30.88,5.13C24.5,6.56,18.8,10.16,14.77,15.33L2.71,30.78L-0.04,30.04C-0.06,29.03,0.28,28.02,0.99,27.21L1.12,27.07L21.2,6.25C21.98,5.45,23.04,5,24.16,5L31.5,5Z" fill="#FFE0CA"/><path d="M44.88,84.91L44.88,85.01C43.68,85.01,42.48,84.5,41.66,83.47L38.91,80.03L0.85,32.5C0.28,31.77,-0.02,30.9,-0.04,30.02L2.71,30.71Z" fill="#FF8A75"/><path d="M88.88,32.5L47.86,83.73C47.05,84.59,45.95,85.02,44.85,85.01L44.85,84.91L87.02,30.71L89.77,30.02C89.75,30.9,89.45,31.77,88.88,32.5Z" fill="#E02828"/></svg>