<svg xmlns="http://www.w3.org/2000/svg" viewBox="0 0 90 90"><path d="M15.42,79.32L16.62,75L38.99,75L23.54,85.22C19.41,87.96,14.1,84.1,15.42,79.32Z" fill="#FA412D"/><path d="M66.46,85.22L51.01,75L73.38,75L74.58,79.32C75.9,84.1,70.59,87.96,66.46,85.22Z" fill="#FA412D"/><path d="M66.46,85.22L51.01,75L73.38,75L74.58,79.32C75.9,84.1,70.59,87.96,66.46,85.22Z" fill="#FF6352"/><path d="M20.07,86.11L33.48,75L38.99,75L23.54,85.22C22.42,85.96,21.21,86.22,20.07,86.11Z" fill="#E02828"/><path d="M66.46,85.22L51.01,75L56.52,75L69.93,86.11C68.79,86.22,67.58,85.96,66.46,85.22Z" fill="#E02828"/><path d="M15.42,79.32L16.62,75L18.56,75L15.57,82.7C15.18,81.7,15.08,80.54,15.42,79.32Z" fill="#FF6352"/><path d="M74.4,82.78L71.38,75L73.38,75L74.58,79.32C74.93,80.57,74.82,81.76,74.4,82.78Z" fill="#FF8A75"/><path d="M51.01,75L45,71.02L38.99,75L16.62,75L20.78,60L69.22,60L73.38,75Z" fill="#FA742C"/><path d="M18.44,68.43L20.78,60L24.08,60C22.35,62.92,20.47,65.73,18.44,68.43Z" fill="#FFA459"/><path d="M51.01,75L45,71.02L44.29,71.49C44.68,67.58,45.31,63.75,46.16,60L69.22,60L73.38,75Z" fill="#FFA459"/><path d="M47.44,67.48L56.52,75L51.01,75L45,71.02L38.99,75L33.48,75L42.56,67.48C43.98,66.31,46.02,66.31,47.44,67.48Z" fill="#DC501D"/><path d="M16.62,75L20.78,60L24.37,60L18.56,75Z" fill="#FFA459"/><path d="M71.38,75L65.56,60L69.22,60L73.38,75Z" fill="#FFD591"/><path d="M69.22,60L20.78,60L22.3,54.53L10.32,45L79.68,45L67.7,54.53Z" fill="#F7C631"/><path d="M24.08,60L20.78,60L22.3,54.52L10.32,45L31.25,45C29.3,50.24,26.89,55.25,24.08,60Z" fill="#FAD541"/><path d="M69.22,60L46.16,60C47.34,54.82,48.95,49.81,50.95,45L79.68,45L67.7,54.52Z" fill="#FAD541"/><path d="M26.3,55.03L24.38,60L20.78,60L22.3,54.52L10.32,45L16,45L24.74,50.4C26.31,51.37,26.97,53.32,26.3,55.03Z" fill="#FFF599"/><path d="M68.37,56.94C68.38,56.95,68.38,56.96,68.38,56.97L69.22,60L65.56,60L63.64,55.03C62.97,53.32,63.63,51.37,65.2,50.4L73.93,45L79.68,45L67.7,54.52Z" fill="#FCE26A"/><path d="M87.84,38.5L79.68,45L10.32,45L2.16,38.5C-0.8,36.15,-0.32,31.95,2.28,30L87.72,30C90.32,31.95,90.81,36.15,87.84,38.5Z" fill="#81B64C"/><path d="M31.25,45L10.32,45L2.16,38.5C-0.8,36.15,-0.32,31.95,2.28,30L35.45,30C34.46,35.16,33.05,40.18,31.25,45Z" fill="#B2E068"/><path d="M87.84,38.5L79.68,45L50.95,45C53.13,39.74,55.79,34.72,58.85,30L87.72,30C90.32,31.95,90.8,36.15,87.84,38.5Z" fill="#B2E068"/><path d="M10.32,45L2.16,38.5C1.03,37.61,0.41,36.45,0.2,35.24L16,45Z" fill="#D8FA9D"/><path d="M30.81,31.02L2.16,30.09C2.2,30.06,2.24,30.03,2.28,30L33.53,30C32.81,30.67,31.84,31.05,30.81,31.02Z" fill="#D8FA9D"/><path d="M87.84,38.5L79.68,45L73.93,45L89.8,35.2C89.61,36.42,88.98,37.6,87.84,38.5Z" fill="#D8FA9D"/><path d="M59.13,31.02C58.1,31.05,57.13,30.67,56.41,30L87.72,30C87.76,30.03,87.8,30.06,87.84,30.09Z" fill="#D8FA9D"/><path d="M84.74,28.96C85.91,29.01,86.92,29.4,87.72,30L2.28,30C3.08,29.4,4.09,29.01,5.26,28.96L30.97,27.84L35.77,15L54.23,15L59.03,27.84Z" fill="#009FD9"/><path d="M35.45,30L2.28,30C3.08,29.4,4.09,29.01,5.26,28.96L30.97,27.84L35.77,15L37.07,15C36.93,20.11,36.38,25.12,35.45,30Z" fill="#4DC3EA"/><path d="M87.72,30L58.85,30C59.31,29.29,59.78,28.58,60.26,27.89L84.74,28.96C85.91,29.01,86.92,29.4,87.72,30Z" fill="#4DC3EA"/><path d="M33.53,30L2.28,30C3.09,29.4,4.09,29.01,5.26,28.96L30.97,27.84L35.77,15L38.22,15L34.62,28.2C34.43,28.91,34.04,29.53,33.53,30Z" fill="#B2F0FF"/><path d="M58.16,25.5L59.03,27.84L61.54,27.94C61.55,27.94,61.55,27.95,61.56,27.95L84.82,28.96C85.95,29.03,86.93,29.41,87.72,30L56.41,30C55.9,29.53,55.51,28.91,55.31,28.2L51.72,15L54.23,15L58.14,25.46C58.15,25.48,58.15,25.48,58.16,25.5Z" fill="#83DEFC"/><path d="M50.02,3.73L54.23,15L35.77,15L39.98,3.73C41.72,-0.91,48.28,-0.91,50.02,3.73Z" fill="#9881F2"/><path d="M37.07,15L35.77,15L37.11,11.42C37.11,11.73,37.11,12.04,37.11,12.34C37.11,13.23,37.1,14.12,37.07,15Z" fill="#C9ACFF"/><path d="M35.77,15L39.98,3.73C40.41,2.59,41.12,1.74,41.99,1.16L38.22,15Z" fill="#E8DBFF"/><path d="M50.01,3.72L54.23,15L51.72,15L47.94,1.11C48.83,1.68,49.57,2.55,50.01,3.72Z" fill="#D5C6FF"/></svg>