<svg xmlns="http://www.w3.org/2000/svg" viewBox="0 0 90 90"><path d="M77.8,77.94C72.62,80.55,61.37,85,45,85C28.63,85,17.38,80.55,12.2,77.94C10.92,77.29,9.95,76.25,9.34,75L80.66,75C80.05,76.25,79.08,77.29,77.8,77.94Z" fill="#FF8A75"/><path d="M45,85C31.27,85,21.15,81.87,15.18,79.32L14.77,75L75.23,75L74.82,79.32C68.85,81.87,58.73,85,45,85Z" fill="#FF6352"/><path d="M45,85C37.37,85,30.85,84.03,25.54,82.73L25.06,75L64.94,75L64.46,82.73C59.15,84.03,52.63,85,45,85Z" fill="#FA412D" opacity="0.66"/><path d="M45,85C42.9,85,40.89,84.93,38.97,84.79L38.78,75L51.22,75L51.03,84.79C49.11,84.93,47.1,85,45,85Z" fill="#FA412D"/><path d="M77.8,77.94C76.6,78.54,75.07,79.25,73.23,79.97C66.15,82.62,57.58,84.65,47.61,84.96C46.76,84.98,45.89,85,45,85C44.11,85,43.24,84.98,42.39,84.96C32.42,84.65,23.85,82.62,16.77,79.97C14.93,79.25,13.4,78.54,12.2,77.94C10.92,77.29,9.95,76.25,9.34,75L19.31,75C25.5,77.05,34.15,78.94,45,78.94C55.85,78.94,64.5,77.05,70.69,75L80.66,75C80.05,76.25,79.08,77.29,77.8,77.94Z" fill="#E02828" opacity="0.9"/><path d="M71.2,60.46C56.73,74.26,34.03,74.44,19.34,60.88L18.95,60.51C18.77,60.35,18.6,60.18,18.44,60L71.65,60C71.51,60.16,71.36,60.31,71.2,60.46Z" fill="#DC501D"/><path d="M71.2,60.46C56.73,74.26,34.03,74.44,19.34,60.88L18.95,60.51C18.77,60.35,18.6,60.18,18.44,60L71.65,60C71.51,60.16,71.36,60.31,71.2,60.46Z" fill="#A93616"/><path d="M80.66,75L9.34,75C8.94,74.19,8.7,73.29,8.61,72.36L7.5,60L82.5,60L81.39,72.36C81.3,73.29,81.06,74.19,80.66,75Z" fill="#FFD591"/><path d="M14.77,75L13.35,60L76.65,60L75.23,75Z" fill="#FFA459"/><path d="M25.06,75L24.14,60L65.86,60L64.94,75Z" fill="#FA742C" opacity="0.66"/><path d="M38.78,75L38.49,60L51.51,60L51.22,75Z" fill="#FA742C"/><path d="M11.43,71.78C13.29,72.71,15.93,73.88,19.31,75L9.34,75C8.94,74.19,8.7,73.29,8.61,72.36L8.23,68.1C8.8,69.68,9.88,71.01,11.43,71.78Z" fill="#DC501D" opacity="0.9"/><path d="M80.66,75L70.69,75C74.07,73.88,76.71,72.71,78.57,71.78C80.11,71.01,81.2,69.68,81.77,68.1L81.39,72.36C81.3,73.29,81.06,74.19,80.66,75Z" fill="#DC501D" opacity="0.9"/><path d="M71.65,60L18.44,60C16.88,58.31,16,56.1,16,53.79L16,45L43.7,45L45.47,48.92L47.23,45L74,45L74,53.93C74,56.18,73.16,58.34,71.65,60Z" fill="#CF8D1B"/><path d="M71.65,60L18.44,60C16.88,58.31,16,56.1,16,53.79L16,45L43.7,45L45.47,48.92L47.23,45L74,45L74,53.93C74,56.18,73.16,58.34,71.65,60Z" fill="#B27314"/><path d="M7.5,60L6.16,45L25.97,45L27.45,47.49L28.42,45L61.58,45L62.55,47.49L64.03,45L83.84,45L82.5,60Z" fill="#FAD541"/><path d="M13.35,60L11.93,45L25.97,45L27.45,47.49L28.42,45L61.58,45L62.55,47.49L64.03,45L78.07,45L76.65,60Z" fill="#F7C631"/><path d="M24.14,60L23.22,45L25.97,45L27.45,47.49L28.42,45L61.58,45L62.55,47.49L64.03,45L66.78,45L65.86,60Z" fill="#E3AA24" opacity="0.66"/><path d="M38.49,60L38.21,45L51.79,45L51.51,60Z" fill="#E3AA24"/><path d="M23.49,50.43L20.8,45L25.97,45L27.45,47.49L28.42,45L29.73,45L27.08,50.42C26.36,51.91,24.23,51.92,23.49,50.43Z" fill="#FCE26A"/><path d="M62.92,50.42L60.27,45L61.58,45L62.55,47.49L64.03,45L69.2,45L66.51,50.43C65.77,51.92,63.65,51.91,62.92,50.42Z" fill="#FCE26A"/><path d="M6.29,45L6.37,45L6.45,46.73Z" fill="#FCE26A"/><path d="M83.63,45L83.71,45L83.55,46.73Z" fill="#FCE26A"/><path d="M25.47,45L25.65,45L27.45,48.08L28.64,45L28.78,45L27.45,48.08Z" fill="#FFF599"/><path d="M61.22,45L61.36,45L62.55,48.08Z" fill="#FFF599"/><path d="M64.35,45L64.53,45L62.55,48.08Z" fill="#FFF599"/><path d="M16,45L16,35.78L16.86,30L36.94,30L43.7,45Z" fill="#5D9948"/><path d="M74,45L47.23,45L53.99,30L73.37,30L74,35.05Z" fill="#5D9948"/><path d="M16,45L16,35.78L16.86,30L23,30L27.45,37.49L30.37,30L36.94,30L43.7,45Z" fill="#45753C"/><path d="M74,45L47.23,45L53.99,30L59.63,30L62.55,37.49L67,30L73.37,30L74,35.05Z" fill="#45753C"/><path d="M6.16,45L4.82,30L17.06,30L25.97,45Z" fill="#D8FA9D"/><path d="M28.42,45L34.27,30L55.73,30L61.58,45Z" fill="#D8FA9D"/><path d="M64.03,45L72.94,30L85.18,30L83.84,45Z" fill="#D8FA9D"/><path d="M11.93,45L10.5,30L17.06,30L25.97,45Z" fill="#B2E068"/><path d="M28.42,45L34.27,30L55.73,30L61.58,45Z" fill="#B2E068"/><path d="M64.03,45L72.94,30L79.5,30L78.07,45Z" fill="#B2E068"/><path d="M23.22,45L22.9,39.84L25.97,45Z" fill="#81B64C" opacity="0.66"/><path d="M28.42,45L34.27,30L55.73,30L61.58,45Z" fill="#81B64C" opacity="0.66"/><path d="M64.03,45L67.1,39.84L66.78,45Z" fill="#81B64C" opacity="0.66"/><path d="M38.21,45L37.92,30L52.08,30L51.79,45Z" fill="#81B64C"/><path d="M6.29,45L5.3,34.39L4.89,30L5.71,30L6.37,45Z" fill="#EBFFBD"/><path d="M20.8,45L13.35,30L17.06,30L25.97,45Z" fill="#EBFFBD"/><path d="M28.42,45L34.27,30L37.05,30L29.73,45Z" fill="#EBFFBD"/><path d="M60.27,45L52.95,30L55.73,30L61.58,45Z" fill="#EBFFBD"/><path d="M64.03,45L72.94,30L76.65,30L69.2,45Z" fill="#EBFFBD"/><path d="M83.71,45L83.63,45L84.29,30L85.11,30L84.7,34.39Z" fill="#EBFFBD"/><path d="M25.47,45L15.83,30L16.87,30L25.65,45Z" fill="#F3FFCF"/><path d="M28.64,45L34.41,30L35.23,30L28.78,45Z" fill="#F3FFCF"/><path d="M61.22,45L54.77,30L55.59,30L61.36,45Z" fill="#F3FFCF"/><path d="M64.35,45L73.13,30L74.17,30L64.53,45Z" fill="#F3FFCF"/><path d="M4.89,30L5.23,30L5.3,34.39Z" fill="#F3FFCF"/><path d="M84.77,30L85.11,30L84.7,34.39Z" fill="#F3FFCF"/><path d="M16.86,30L19.08,15L30.18,15L36.94,30Z" fill="#0069AB"/><path d="M53.99,30L60.76,15L71.5,15L73.37,30Z" fill="#0069AB"/><path d="M16.86,30L18.08,21.73L23,30Z" fill="#0B548C"/><path d="M30.37,30L33.42,22.19L36.94,30Z" fill="#0B548C"/><path d="M53.99,30L57.01,23.3L59.63,30Z" fill="#0B548C"/><path d="M67,30L72.26,21.14L73.37,30Z" fill="#0B548C"/><path d="M4.82,30L3.47,15L8.14,15L17.06,30Z" fill="#4DC3EA"/><path d="M34.27,30L40.12,15L49.88,15L55.73,30Z" fill="#4DC3EA"/><path d="M72.94,30L81.86,15L86.53,15L85.18,30Z" fill="#4DC3EA"/><path d="M10.5,30L9.26,16.88L17.06,30Z" fill="#009FD9"/><path d="M34.27,30L40.12,15L49.88,15L55.73,30Z" fill="#009FD9"/><path d="M72.94,30L80.74,16.88L79.5,30Z" fill="#009FD9"/><path d="M34.27,30L40.12,15L49.88,15L55.73,30Z" fill="#008CD1" opacity="0.66"/><path d="M52.08,30L37.92,30L37.75,21.09L40.12,15L49.88,15L52.25,21.09Z" fill="#008CD1"/><path d="M4.89,30L3.49,15L5.04,15L5.71,30Z" fill="#83DEFC"/><path d="M13.35,30L5.91,15L8.14,15L17.06,30Z" fill="#83DEFC"/><path d="M34.27,30L40.12,15L44.37,15L37.05,30Z" fill="#83DEFC"/><path d="M52.95,30L45.63,15L49.88,15L55.73,30Z" fill="#83DEFC"/><path d="M72.94,30L81.86,15L84.09,15L76.65,30Z" fill="#83DEFC"/><path d="M84.29,30L84.96,15L86.51,15L85.11,30Z" fill="#83DEFC"/><path d="M4.89,30L3.49,15L4.98,15L5.23,30Z" fill="#B2F0FF"/><path d="M15.83,30L6.19,15L8.1,15L16.87,30Z" fill="#B2F0FF"/><path d="M34.41,30L40.18,15L41.69,15L35.23,30Z" fill="#B2F0FF"/><path d="M54.77,30L48.31,15L49.82,15L55.59,30Z" fill="#B2F0FF"/><path d="M73.13,30L81.91,15L83.81,15L74.17,30Z" fill="#B2F0FF"/><path d="M84.77,30L85.02,15L86.51,15L85.11,30Z" fill="#B2F0FF"/><path d="M29.25,15L30.18,15L33.41,22.18Z" fill="#009FD9"/><path d="M19.08,15L19.56,15L18.15,21.27Z" fill="#009FD9"/><path d="M60.76,15L61.57,15L57.42,22.41Z" fill="#009FD9"/><path d="M70.92,15L71.5,15L72.27,21.18Z" fill="#009FD9"/><path d="M23.79,0.82L30.18,15L19.08,15L21.13,1.19C21.23,0.51,21.82,0,22.51,0C23.06,0,23.56,0.32,23.79,0.82Z" fill="#5E53D9"/><path d="M69.77,1.21L71.5,15L60.76,15L67.15,0.81C67.37,0.32,67.87,0,68.41,0C69.1,0,69.69,0.52,69.77,1.21Z" fill="#5E53D9"/><path d="M5.35,10.29L8.14,15L3.47,15L3.12,11.01C3.05,10.31,3.61,9.71,4.31,9.71C4.74,9.71,5.13,9.93,5.35,10.29Z" fill="#C9ACFF"/><path d="M46.33,5.91L49.88,15L40.12,15L43.67,5.91C43.88,5.36,44.41,5,45,5C45.59,5,46.12,5.36,46.33,5.91Z" fill="#C9ACFF"/><path d="M86.88,11.01L86.53,15L81.86,15L84.65,10.29C84.87,9.93,85.26,9.71,85.69,9.71C86.39,9.71,86.95,10.31,86.88,11.01Z" fill="#C9ACFF"/><path d="M46.33,5.91L49.88,15L40.12,15L43.67,5.91C43.88,5.36,44.41,5,45,5C45.59,5,46.12,5.36,46.33,5.91Z" fill="#9881F2"/><path d="M46.33,5.91L49.88,15L40.12,15L43.67,5.91C43.88,5.36,44.41,5,45,5C45.59,5,46.12,5.36,46.33,5.91Z" fill="#7A66F4" opacity="0.66"/><path d="M46.33,5.91L49.88,15L40.12,15L43.67,5.91C43.88,5.36,44.41,5,45,5C45.59,5,46.12,5.36,46.33,5.91Z" fill="#7A66F4"/><path d="M5.35,10.29L8.14,15L5.91,15L4.95,13.07L5.04,15L3.49,15L3.12,11.02C3.06,10.31,3.61,9.71,4.32,9.71C4.74,9.71,5.13,9.93,5.35,10.29Z" fill="#D5C6FF"/><path d="M46.33,5.91L49.88,15L45.63,15L45,13.71L44.37,15L40.12,15L43.67,5.91C43.88,5.36,44.41,5,45,5C45.59,5,46.12,5.36,46.33,5.91Z" fill="#D5C6FF"/><path d="M86.88,11.02L86.51,15L84.96,15L85.05,13.07L84.09,15L81.86,15L84.66,10.29C84.87,9.93,85.26,9.71,85.69,9.71C86.39,9.71,86.94,10.31,86.88,11.02Z" fill="#D5C6FF"/><path d="M5.34,10.3L8.1,15L6.19,15L4.95,13.07L4.98,15L3.49,15L3.12,11.01C3.06,10.31,3.61,9.71,4.31,9.71C4.74,9.71,5.13,9.93,5.34,10.3Z" fill="#E8DBFF"/><path d="M46.33,5.91L49.82,15L48.31,15L45,7.32L41.69,15L40.18,15L43.67,5.91C43.88,5.36,44.41,5,45,5C45.59,5,46.12,5.36,46.33,5.91Z" fill="#E8DBFF"/><path d="M86.88,11.01L86.51,15L85.02,15L85.05,13.07L83.81,15L81.91,15L84.66,10.3C84.87,9.93,85.26,9.71,85.69,9.71C86.39,9.71,86.94,10.31,86.88,11.01Z" fill="#E8DBFF"/><path d="M23.79,0.82L30.18,15L29.25,15L23.54,5.17C23.08,4.38,21.9,4.57,21.7,5.45L19.56,15L19.08,15L21.13,1.19C21.23,0.51,21.82,0,22.51,0C23.06,0,23.56,0.32,23.79,0.82Z" fill="#9881F2"/><path d="M69.77,1.21L71.5,15L70.92,15L68.87,5.54C68.67,4.64,67.47,4.46,67.02,5.26L61.57,15L60.76,15L67.15,0.81C67.37,0.32,67.87,0,68.41,0C69.1,0,69.69,0.52,69.77,1.21Z" fill="#9881F2"/></svg>