<svg xmlns="http://www.w3.org/2000/svg" viewBox="0 0 90 90" fill="currentColor"><path d="M40.98,84.32L31.97,60.21L6.26,59.09C1.31,58.87,-0.72,52.63,3.16,49.54L23.3,33.52L16.42,8.73C15.1,3.95,20.41,0.09,24.54,2.83L46,17.03L67.46,2.83C71.59,0.09,76.9,3.95,75.58,8.73L68.7,33.52L88.84,49.54C92.72,52.63,90.69,58.87,85.74,59.09L60.03,60.21L51.02,84.32C49.28,88.96,42.72,88.96,40.98,84.32ZM6.26,59.09C1.31,58.87,-0.72,52.63,3.16,49.54L23.3,33.52L19.44,19.62C31.17,35.25,38.11,54.66,38.11,75.7C38.11,76.01,38.11,76.32,38.11,76.63L31.97,60.21ZM45.29,16.56L46,17.03L67.46,2.83C71.59,0.09,76.9,3.95,75.58,8.73L68.7,33.52L88.84,49.54C92.72,52.63,90.69,58.87,85.74,59.09L61.26,60.16C52.56,47.52,46.89,32.64,45.29,16.56ZM43.56,20.57L21.07,1.94C22.21,1.83,23.42,2.08,24.54,2.83L46,17.03L67.46,2.83C68.58,2.08,69.79,1.83,70.93,1.94L48.44,20.57C47.02,21.74,44.98,21.74,43.56,20.57ZM3.16,49.54L23.3,33.52L16.42,8.73C16.08,7.51,16.18,6.35,16.57,5.35L27.3,33.01C27.97,34.73,27.31,36.68,25.74,37.65L1.2,52.81C1.41,51.6,2.03,50.44,3.16,49.54ZM40.98,84.32L31.97,60.21L6.26,59.09C5.03,59.04,3.98,58.61,3.16,57.96L31.81,57.03C33.58,56.97,35.16,58.14,35.62,59.85L42.99,86.89C42.12,86.31,41.41,85.45,40.98,84.32ZM64.64,33.01L75.4,5.27C75.82,6.29,75.93,7.48,75.58,8.73L73.28,17.03L69.38,31.08C69.38,31.09,69.38,31.1,69.37,31.11L68.7,33.52L88.84,49.54C89.98,50.45,90.61,51.63,90.8,52.85L66.2,37.65C64.63,36.68,63.97,34.73,64.64,33.01ZM60.13,57.03L88.84,57.96C88.03,58.6,87.01,59.02,85.82,59.09L62.56,60.1C62.55,60.1,62.55,60.1,62.54,60.1L60.03,60.21L59.16,62.55C59.15,62.56,59.15,62.57,59.14,62.58L51.01,84.33C50.57,85.5,49.83,86.36,48.94,86.94L56.31,59.85C56.78,58.14,58.36,56.97,60.13,57.03Z"/></svg>