<svg xmlns="http://www.w3.org/2000/svg" viewBox="0 0 90 90" fill="currentColor"><path d="M67.07,6L25.66,6C24.54,6,23.46,6.46,22.69,7.26L2.62,28.07C1.18,29.56,1.07,31.89,2.37,33.51L43.16,84.47C44.81,86.53,47.94,86.53,49.6,84.47L90.36,33.51C91.66,31.89,91.55,29.56,90.11,28.07L70.04,7.26C69.26,6.46,68.19,6,67.07,6ZM70.03,7.25L90.11,28.07C90.9,28.89,91.29,29.96,91.27,31.02L67.57,37L47.45,85.87C45.94,86.28,44.23,85.81,43.16,84.47L2.37,33.51C1.07,31.89,1.18,29.56,2.62,28.07L22.69,7.26C23.46,6.46,24.54,6,25.66,6L67.07,6C68.19,6,69.25,6.45,70.03,7.25ZM70.03,7.25L76.56,14.02L90.11,28.07C90.91,28.89,91.29,29.97,91.27,31.04L88.52,31.78L81.03,22.53C73.84,13.63,63.27,8.12,51.85,7.32L33,6L67.07,6C68.19,6,69.25,6.45,70.03,7.25ZM67.57,37L25.17,37L45.3,85.87C44.49,85.65,43.73,85.18,43.16,84.47L2.37,33.51C1.07,31.89,1.18,29.56,2.62,28.07L22.69,7.26C23.46,6.46,24.54,6,25.66,6L59.87,6ZM67.57,37L59.24,10.85C58.6,8.85,56.82,7.44,54.73,7.28L38.14,6L59.87,6ZM43.16,84.47L2.37,33.51C2.23,33.34,2.1,33.15,1.99,32.96L46.06,86C44.97,85.92,43.91,85.41,43.16,84.47ZM25.17,37L1.46,31.02C1.44,29.96,1.83,28.89,2.62,28.07L22.69,7.26C23.46,6.46,24.54,6,25.66,6L32.86,6ZM32.38,6.13C26,7.56,20.3,11.16,16.27,16.33L4.21,31.78L1.46,31.04C1.44,30.03,1.78,29.02,2.49,28.21L2.62,28.07L22.7,7.25C23.48,6.45,24.54,6,25.66,6L33,6ZM46.38,85.91L46.38,86.01C45.18,86.01,43.98,85.5,43.16,84.47L40.41,81.03L2.35,33.5C1.78,32.77,1.48,31.9,1.46,31.02L4.21,31.71ZM90.38,33.5L49.36,84.73C48.55,85.59,47.45,86.02,46.35,86.01L46.35,85.91L88.52,31.71L91.27,31.02C91.25,31.9,90.95,32.77,90.38,33.5Z"/></svg>