<svg xmlns="http://www.w3.org/2000/svg" viewBox="0 0 90 90" fill="currentColor"><path d="M16.42,80.32L17.62,76L39.99,76L24.54,86.22C20.41,88.96,15.1,85.1,16.42,80.32ZM67.46,86.22L52.01,76L74.38,76L75.58,80.32C76.9,85.1,71.59,88.96,67.46,86.22ZM67.46,86.22L52.01,76L74.38,76L75.58,80.32C76.9,85.1,71.59,88.96,67.46,86.22ZM21.07,87.11L34.48,76L39.99,76L24.54,86.22C23.42,86.96,22.21,87.22,21.07,87.11ZM67.46,86.22L52.01,76L57.52,76L70.93,87.11C69.79,87.22,68.58,86.96,67.46,86.22ZM16.42,80.32L17.62,76L19.56,76L16.57,83.7C16.18,82.7,16.08,81.54,16.42,80.32ZM75.4,83.78L72.38,76L74.38,76L75.58,80.32C75.93,81.57,75.82,82.76,75.4,83.78ZM52.01,76L46,72.02L39.99,76L17.62,76L21.78,61L70.22,61L74.38,76ZM19.44,69.43L21.78,61L25.08,61C23.35,63.92,21.47,66.73,19.44,69.43ZM52.01,76L46,72.02L45.29,72.49C45.68,68.58,46.31,64.75,47.16,61L70.22,61L74.38,76ZM48.44,68.48L57.52,76L52.01,76L46,72.02L39.99,76L34.48,76L43.56,68.48C44.98,67.31,47.02,67.31,48.44,68.48ZM17.62,76L21.78,61L25.37,61L19.56,76ZM72.38,76L66.56,61L70.22,61L74.38,76ZM70.22,61L21.78,61L23.3,55.53L11.32,46L80.68,46L68.7,55.53ZM25.08,61L21.78,61L23.3,55.52L11.32,46L32.25,46C30.3,51.24,27.89,56.25,25.08,61ZM70.22,61L47.16,61C48.34,55.82,49.95,50.81,51.95,46L80.68,46L68.7,55.52ZM27.3,56.03L25.38,61L21.78,61L23.3,55.52L11.32,46L17,46L25.74,51.4C27.31,52.37,27.97,54.32,27.3,56.03ZM69.37,57.94C69.38,57.95,69.38,57.96,69.38,57.97L70.22,61L66.56,61L64.64,56.03C63.97,54.32,64.63,52.37,66.2,51.4L74.93,46L80.68,46L68.7,55.52ZM88.84,39.5L80.68,46L11.32,46L3.16,39.5C0.2,37.15,0.68,32.95,3.28,31L88.72,31C91.32,32.95,91.81,37.15,88.84,39.5ZM32.25,46L11.32,46L3.16,39.5C0.2,37.15,0.68,32.95,3.28,31L36.45,31C35.46,36.16,34.05,41.18,32.25,46ZM88.84,39.5L80.68,46L51.95,46C54.13,40.74,56.79,35.72,59.85,31L88.72,31C91.32,32.95,91.8,37.15,88.84,39.5ZM11.32,46L3.16,39.5C2.03,38.61,1.41,37.45,1.2,36.24L17,46ZM31.81,32.02L3.16,31.09C3.2,31.06,3.24,31.03,3.28,31L34.53,31C33.81,31.67,32.84,32.05,31.81,32.02ZM88.84,39.5L80.68,46L74.93,46L90.8,36.2C90.61,37.42,89.98,38.6,88.84,39.5ZM60.13,32.02C59.1,32.05,58.13,31.67,57.41,31L88.72,31C88.76,31.03,88.8,31.06,88.84,31.09ZM85.74,29.96C86.91,30.01,87.92,30.4,88.72,31L3.28,31C4.08,30.4,5.09,30.01,6.26,29.96L31.97,28.84L36.77,16L55.23,16L60.03,28.84ZM36.45,31L3.28,31C4.08,30.4,5.09,30.01,6.26,29.96L31.97,28.84L36.77,16L38.07,16C37.93,21.11,37.38,26.12,36.45,31ZM88.72,31L59.85,31C60.31,30.29,60.78,29.58,61.26,28.89L85.74,29.96C86.91,30.01,87.92,30.4,88.72,31ZM34.53,31L3.28,31C4.09,30.4,5.09,30.01,6.26,29.96L31.97,28.84L36.77,16L39.22,16L35.62,29.2C35.43,29.91,35.04,30.53,34.53,31ZM59.16,26.5L60.03,28.84L62.54,28.94C62.55,28.94,62.55,28.95,62.56,28.95L85.82,29.96C86.95,30.03,87.93,30.41,88.72,31L57.41,31C56.9,30.53,56.51,29.91,56.31,29.2L52.72,16L55.23,16L59.14,26.46C59.15,26.48,59.15,26.48,59.16,26.5ZM51.02,4.73L55.23,16L36.77,16L40.98,4.73C42.72,0.09,49.28,0.09,51.02,4.73ZM38.07,16L36.77,16L38.11,12.42C38.11,12.73,38.11,13.04,38.11,13.34C38.11,14.23,38.1,15.12,38.07,16ZM36.77,16L40.98,4.73C41.41,3.59,42.12,2.74,42.99,2.16L39.22,16ZM51.01,4.72L55.23,16L52.72,16L48.94,2.11C49.83,2.68,50.57,3.55,51.01,4.72Z"/></svg>