<svg xmlns="http://www.w3.org/2000/svg" viewBox="0 0 90 90"><path d="M16,53.78C16,56.34,17.07,58.78,18.95,60.51L19.34,60.88C34.03,74.44,56.73,74.26,71.2,60.46C72.99,58.76,74,56.4,74,53.93L74,35.05L69.77,1.21C69.69,0.52,69.1,0,68.41,0C67.87,0,67.38,0.32,67.15,0.81L45.47,48.92L23.79,0.82C23.56,0.32,23.06,0,22.51,0C21.82,0,21.23,0.51,21.13,1.19L16,35.78Z" fill="#BEBDB9"/><path d="M74,53.93C74,56.4,72.99,58.76,71.2,60.46C56.73,74.26,34.03,74.44,19.34,60.88L18.95,60.51C17.07,58.78,16,56.34,16,53.78L16,35.78L18.08,21.73L27.45,37.49L33.42,22.19L45.47,48.92L57.01,23.3L62.55,37.49L72.26,21.14L74,35.05Z" fill="#8B8987"/><path d="M27.45,47.49L5.35,10.29C5.13,9.93,4.74,9.71,4.31,9.71C3.61,9.71,3.05,10.31,3.12,11.01L8.61,72.36C8.82,74.72,10.08,76.87,12.2,77.94C17.38,80.55,28.63,85,45,85C61.37,85,72.62,80.55,77.8,77.94C79.92,76.87,81.18,74.72,81.39,72.36L86.88,11.01C86.95,10.31,86.39,9.71,85.69,9.71C85.26,9.71,84.87,9.93,84.65,10.29L62.55,47.49L46.33,5.91C46.12,5.36,45.59,5,45,5C44.41,5,43.88,5.36,43.67,5.91Z" fill="#E7E6E5"/><path d="M46.33,5.91L62.55,47.49L80.74,16.88L74.82,79.32C68.85,81.87,58.73,85,45,85C31.27,85,21.15,81.87,15.18,79.32L9.26,16.88L27.45,47.49L43.67,5.91C43.88,5.36,44.41,5,45,5C45.59,5,46.12,5.36,46.33,5.91Z" fill="#DAD8D6"/><path d="M46.33,5.91L62.55,47.49L67.1,39.84L64.46,82.73C59.15,84.03,52.63,85,45,85C37.37,85,30.85,84.03,25.54,82.73L22.9,39.84L27.45,47.49L43.67,5.91C43.88,5.36,44.41,5,45,5C45.59,5,46.12,5.36,46.33,5.91Z" fill="#BEBDB9" opacity="0.5"/><path d="M46.33,5.91L52.25,21.09L51.03,84.79C49.11,84.93,47.1,85,45,85C42.9,85,40.89,84.93,38.97,84.79L37.75,21.09L43.67,5.91C43.88,5.36,44.41,5,45,5C45.59,5,46.12,5.36,46.33,5.91Z" fill="#BEBDB9" opacity="0.2"/><path d="M27.45,47.49L5.35,10.29C5.13,9.93,4.74,9.71,4.32,9.71C3.61,9.71,3.06,10.31,3.12,11.02L5.3,34.39L6.45,46.73L4.95,13.07L23.49,50.43C24.23,51.92,26.36,51.91,27.08,50.42L45,13.71L62.92,50.42C63.65,51.91,65.77,51.92,66.51,50.43L85.05,13.07L83.55,46.73L84.7,34.39L86.88,11.02C86.94,10.31,86.39,9.71,85.69,9.71C85.26,9.71,84.87,9.93,84.66,10.29L62.55,47.49L46.33,5.91C46.12,5.36,45.59,5,45,5C44.41,5,43.88,5.36,43.67,5.91Z" fill="#E7E6E5"/><path d="M43.67,5.91C43.88,5.36,44.41,5,45,5C45.59,5,46.12,5.36,46.33,5.91L62.55,48.08L84.66,10.3C84.87,9.93,85.26,9.71,85.69,9.71C86.39,9.71,86.94,10.31,86.88,11.01L84.7,34.39L85.05,13.07L62.55,48.08L45,7.32L27.45,48.08L4.95,13.07L5.3,34.39L3.12,11.01C3.06,10.31,3.61,9.71,4.31,9.71C4.74,9.71,5.13,9.93,5.34,10.3L27.45,48.08Z" fill="#F8F8F8"/><path d="M11.43,71.78C16.7,74.42,28.21,78.94,45,78.94C61.79,78.94,73.3,74.42,78.57,71.78C80.11,71.01,81.2,69.68,81.77,68.1L81.39,72.36C81.18,74.72,79.92,76.87,77.8,77.94C76.59,78.55,75.06,79.25,73.2,79.98C66.13,82.62,57.57,84.65,47.62,84.96C46.76,84.98,45.89,85,45,85C44.54,85,44.08,85,43.63,84.99C43.21,84.98,42.8,84.97,42.39,84.96C32.43,84.65,23.86,82.62,16.79,79.98C14.94,79.25,13.41,78.55,12.2,77.94C10.08,76.87,8.82,74.73,8.61,72.36L8.23,68.1C8.8,69.68,9.89,71.01,11.43,71.78Z" fill="#BEBDB9" opacity="0.9"/><path d="M18.15,21.27L21.7,5.45C21.9,4.57,23.08,4.38,23.54,5.17L33.41,22.18L23.79,0.82C23.56,0.32,23.06,0,22.51,0C21.82,0,21.23,0.51,21.13,1.19Z" fill="#DAD8D6"/><path d="M72.27,21.18L68.87,5.54C68.67,4.64,67.47,4.46,67.02,5.26L57.42,22.41L67.15,0.81C67.38,0.32,67.87,0,68.41,0C69.1,0,69.69,0.52,69.77,1.21Z" fill="#DAD8D6"/></svg>