<svg xmlns="http://www.w3.org/2000/svg" viewBox="0 0 90 90"><path d="M39.98,3.73L30.97,27.84L5.26,28.96C0.31,29.18,-1.72,35.42,2.16,38.51L22.3,54.53L15.42,79.32C14.1,84.1,19.41,87.96,23.54,85.22L45,71.02L66.46,85.22C70.59,87.96,75.9,84.1,74.58,79.32L67.7,54.53L87.84,38.51C91.72,35.42,89.69,29.18,84.74,28.96L59.03,27.84L50.02,3.73C48.28,-0.91,41.72,-0.91,39.98,3.73Z" fill="#BEBDB9"/><path d="M5.26,28.96C0.31,29.17,-1.72,35.42,2.16,38.51L22.3,54.52L18.44,68.43C30.17,52.8,37.11,33.38,37.11,12.34C37.11,12.04,37.11,11.73,37.11,11.42L30.97,27.84Z" fill="#DAD8D6" opacity="0.5"/><path d="M44.29,71.49L45,71.02L66.46,85.22C70.59,87.96,75.9,84.1,74.58,79.32L67.7,54.52L87.84,38.51C91.72,35.42,89.69,29.17,84.74,28.96L60.26,27.89C51.56,40.53,45.89,55.41,44.29,71.49Z" fill="#DAD8D6" opacity="0.5"/><path d="M42.56,67.48L20.07,86.11C21.21,86.22,22.42,85.97,23.54,85.22L45,71.02L66.46,85.22C67.58,85.97,68.79,86.22,69.93,86.11L47.44,67.48C46.02,66.31,43.98,66.31,42.56,67.48Z" fill="#8B8987"/><path d="M2.16,38.51L22.3,54.52L15.42,79.32C15.08,80.54,15.18,81.7,15.57,82.7L26.3,55.03C26.97,53.32,26.31,51.37,24.74,50.4L0.2,35.24C0.41,36.45,1.03,37.61,2.16,38.51Z" fill="#F8F8F8"/><path d="M39.98,3.73L30.97,27.84L5.26,28.96C4.03,29.01,2.98,29.44,2.16,30.09L30.81,31.02C32.58,31.07,34.16,29.91,34.62,28.2L41.99,1.16C41.12,1.74,40.41,2.59,39.98,3.73Z" fill="#F8F8F8"/><path d="M63.64,55.03L74.4,82.78C74.82,81.76,74.93,80.57,74.58,79.32L72.28,71.02L68.38,56.97C68.38,56.96,68.38,56.95,68.37,56.94L67.7,54.52L87.84,38.51C88.98,37.6,89.61,36.42,89.8,35.2L65.2,50.4C63.63,51.37,62.97,53.32,63.64,55.03Z" fill="#F1F1F1"/><path d="M59.13,31.02L87.84,30.09C87.03,29.45,86.01,29.03,84.82,28.96L61.56,27.95C61.55,27.95,61.55,27.94,61.54,27.94L59.03,27.84L58.16,25.5C58.15,25.48,58.15,25.48,58.14,25.46L50.01,3.72C49.57,2.55,48.83,1.68,47.94,1.11L55.31,28.2C55.78,29.91,57.36,31.07,59.13,31.02Z" fill="#F1F1F1"/></svg>