<svg xmlns="http://www.w3.org/2000/svg" viewBox="0 0 90 90" fill="currentColor"><path d="M42.66,84.47L35.88,76L55.87,76L49.1,84.47C47.45,86.53,44.31,86.53,42.66,84.47ZM42.66,84.47L35.88,76L51.02,76L46.95,85.87C45.44,86.28,43.73,85.81,42.66,84.47ZM42.66,84.47L35.88,76L40.73,76L44.8,85.87C43.99,85.65,43.23,85.18,42.66,84.47ZM42.66,84.47L35.88,76L37.26,76L45.56,86C44.47,85.92,43.41,85.41,42.66,84.47ZM45.88,86.01C44.68,86.01,43.48,85.5,42.66,84.47L39.91,81.04L35.88,76L38.16,76L45.88,85.91ZM45.85,86.01L45.85,85.91L53.56,76L55.85,76L48.86,84.73C48.05,85.59,46.95,86.02,45.85,86.01ZM35.88,76L23.87,61L67.87,61L55.87,76ZM35.88,76L23.87,61L57.19,61L51.02,76ZM35.88,76L23.87,61L34.55,61L40.73,76ZM35.88,76L23.87,61L24.79,61L37.26,76ZM35.88,76L23.87,61L26.5,61L38.16,76ZM53.56,76L65.23,61L67.86,61L55.85,76ZM23.87,61L11.86,46L79.87,46L67.87,61ZM23.87,61L11.86,46L63.37,46L57.19,61ZM23.87,61L11.86,46L28.37,46L34.55,61ZM23.87,61L11.86,46L12.33,46L24.79,61ZM23.87,61L11.86,46L14.83,46L26.5,61ZM65.23,61L76.9,46L79.87,46L67.86,61ZM89.86,33.51L79.87,46L11.86,46L1.87,33.51C1.39,32.91,1.1,32.21,1,31.5L1,31L90.77,31C90.75,31.89,90.45,32.77,89.86,33.51ZM67.07,37L63.37,46L11.86,46L1.87,33.51C1.39,32.91,1.1,32.21,1,31.5L1,31L90.77,31C90.77,31.01,90.77,31.02,90.77,31.02ZM88.02,31.78L87.39,31L90.77,31C90.77,31.01,90.77,31.03,90.77,31.04ZM24.67,37L28.37,46L11.86,46L1.87,33.51C1.39,32.91,1.1,32.21,1,31.5L1,31L65.58,31L67.07,37ZM65.16,31L65.58,31L67.07,37ZM11.86,46L1.87,33.51C1.72,33.34,1.6,33.15,1.49,32.96L12.33,46ZM1,31.03L1,31L26.16,31L24.67,37ZM1,31.05L1,31L4.32,31L3.71,31.78ZM14.83,46L11.86,46L1.85,33.5C1.38,32.89,1.09,32.19,1,31.47L1,31.03L3.71,31.71ZM89.88,33.5L79.87,46L76.9,46L88.02,31.71L90.77,31.02C90.75,31.9,90.45,32.77,89.88,33.5ZM90.77,31L1,31L1,30.37C1.12,29.53,1.49,28.72,2.12,28.07L13.76,16L77.97,16L89.61,28.07C90.4,28.88,90.78,29.94,90.77,31ZM90.77,31L1,31L1,30.37C1.12,29.53,1.49,28.72,2.12,28.07L13.76,16L77.97,16L89.61,28.07C90.4,28.88,90.78,29.94,90.77,31ZM90.77,31L87.39,31L80.53,22.53C78.56,20.09,76.33,17.9,73.9,16L77.97,16L89.61,28.07C90.4,28.88,90.78,29.94,90.77,31ZM1,31L1,30.37C1.12,29.53,1.49,28.72,2.12,28.07L13.76,16L61.86,16L65.58,31ZM65.16,31L60.38,16L61.86,16L65.58,31ZM1,31L1,30.38C1.11,29.54,1.49,28.72,2.12,28.07L13.76,16L29.88,16L26.16,31ZM4.32,31L1,31L1,30.38C1.11,29.55,1.48,28.74,2.1,28.09L13.76,16L16.03,16C15.94,16.11,15.85,16.22,15.77,16.33ZM69.54,7.26L77.97,16L13.76,16L22.19,7.26C22.96,6.46,24.04,6,25.16,6L66.57,6C67.69,6,68.76,6.45,69.54,7.26ZM69.53,7.25L77.97,16L13.76,16L22.19,7.26C22.96,6.46,24.04,6,25.16,6L66.57,6C67.69,6,68.75,6.45,69.53,7.25ZM69.53,7.25L76.06,14.02L77.97,16L73.9,16C67.47,10.96,59.64,7.9,51.35,7.32L32.5,6L66.57,6C67.69,6,68.75,6.45,69.53,7.25ZM13.76,16L22.19,7.26C22.96,6.46,24.04,6,25.16,6L59.37,6L61.86,16ZM60.38,16L58.74,10.85C58.1,8.85,56.32,7.44,54.23,7.28L37.64,6L59.37,6L61.86,16ZM13.76,16L22.19,7.26C22.96,6.46,24.04,6,25.16,6L32.36,6L29.88,16ZM16.03,16L13.76,16L22.2,7.25C22.98,6.45,24.04,6,25.16,6L32.5,6L31.88,6.13C25.63,7.53,20.04,11.01,16.03,16Z"/></svg>