<svg xmlns="http://www.w3.org/2000/svg" viewBox="0 0 90 90"><path d="M41.66,83.47L34.88,75L54.87,75L48.1,83.47C46.45,85.53,43.31,85.53,41.66,83.47Z" fill="#AD1F24"/><path d="M41.66,83.47L34.88,75L50.02,75L45.95,84.87C44.44,85.28,42.73,84.81,41.66,83.47Z" fill="#FA412D"/><path d="M41.66,83.47L34.88,75L39.73,75L43.8,84.87C42.99,84.65,42.23,84.18,41.66,83.47Z" fill="#FF6352"/><path d="M41.66,83.47L34.88,75L36.26,75L44.56,85C43.47,84.92,42.41,84.41,41.66,83.47Z" fill="#FFCBB2"/><path d="M44.88,85.01C43.68,85.01,42.48,84.5,41.66,83.47L38.91,80.04L34.88,75L37.16,75L44.88,84.91Z" fill="#FF8A75"/><path d="M44.85,85.01L44.85,84.91L52.56,75L54.85,75L47.86,83.73C47.05,84.59,45.95,85.02,44.85,85.01Z" fill="#E02828"/><path d="M34.88,75L22.87,60L66.87,60L54.87,75Z" fill="#A93616"/><path d="M34.88,75L22.87,60L56.19,60L50.02,75Z" fill="#FA742C"/><path d="M34.88,75L22.87,60L33.55,60L39.73,75Z" fill="#FFA459"/><path d="M34.88,75L22.87,60L23.79,60L36.26,75Z" fill="#FFF3C2"/><path d="M34.88,75L22.87,60L25.5,60L37.16,75Z" fill="#FFD591"/><path d="M52.56,75L64.23,60L66.86,60L54.85,75Z" fill="#DC501D"/><path d="M22.87,60L10.86,45L78.87,45L66.87,60Z" fill="#B27314"/><path d="M22.87,60L10.86,45L62.37,45L56.19,60Z" fill="#E3AA24"/><path d="M22.87,60L10.86,45L27.37,45L33.55,60Z" fill="#F7C631"/><path d="M22.87,60L10.86,45L11.33,45L23.79,60Z" fill="#FFF599"/><path d="M22.87,60L10.86,45L13.83,45L25.5,60Z" fill="#FAD541"/><path d="M64.23,60L75.9,45L78.87,45L66.86,60Z" fill="#CF8D1B"/><path d="M88.86,32.51L78.87,45L10.86,45L0.87,32.51C0.39,31.91,0.1,31.21,0,30.5L0,30L89.77,30C89.75,30.89,89.45,31.77,88.86,32.51Z" fill="#45753C"/><path d="M66.07,36L62.37,45L10.86,45L0.87,32.51C0.39,31.91,0.1,31.21,0,30.5L0,30L89.77,30C89.77,30.01,89.77,30.02,89.77,30.02Z" fill="#81B64C"/><path d="M87.02,30.78L86.39,30L89.77,30C89.77,30.01,89.77,30.03,89.77,30.04Z" fill="#B2E068"/><path d="M23.67,36L27.37,45L10.86,45L0.87,32.51C0.39,31.91,0.1,31.21,0,30.5L0,30L64.58,30L66.07,36Z" fill="#B2E068"/><path d="M64.16,30L64.58,30L66.07,36Z" fill="#D8FA9D"/><path d="M10.86,45L0.87,32.51C0.72,32.34,0.6,32.15,0.49,31.96L11.33,45Z" fill="#F3FFCF"/><path d="M0,30.03L0,30L25.16,30L23.67,36Z" fill="#D8FA9D"/><path d="M0,30.05L0,30L3.32,30L2.71,30.78Z" fill="#F6FFE3"/><path d="M13.83,45L10.86,45L0.85,32.5C0.38,31.89,0.09,31.19,0,30.47L0,30.03L2.71,30.71Z" fill="#D8FA9D"/><path d="M88.88,32.5L78.87,45L75.9,45L87.02,30.71L89.77,30.02C89.75,30.9,89.45,31.77,88.88,32.5Z" fill="#5D9948"/><path d="M89.77,30L0,30L0,29.37C0.12,28.53,0.49,27.72,1.12,27.07L12.76,15L76.97,15L88.61,27.07C89.4,27.88,89.78,28.94,89.77,30Z" fill="#0B548C"/><path d="M89.77,30L0,30L0,29.37C0.12,28.53,0.49,27.72,1.12,27.07L12.76,15L76.97,15L88.61,27.07C89.4,27.88,89.78,28.94,89.77,30Z" fill="#008CD1"/><path d="M89.77,30L86.39,30L79.53,21.53C77.56,19.09,75.33,16.9,72.9,15L76.97,15L88.61,27.07C89.4,27.88,89.78,28.94,89.77,30Z" fill="#009FD9"/><path d="M0,30L0,29.37C0.12,28.53,0.49,27.72,1.12,27.07L12.76,15L60.86,15L64.58,30Z" fill="#009FD9"/><path d="M64.16,30L59.38,15L60.86,15L64.58,30Z" fill="#4DC3EA"/><path d="M0,30L0,29.38C0.11,28.54,0.49,27.72,1.12,27.07L12.76,15L28.88,15L25.16,30Z" fill="#4DC3EA"/><path d="M3.32,30L0,30L0,29.38C0.11,28.55,0.48,27.74,1.1,27.09L12.76,15L15.03,15C14.94,15.11,14.85,15.22,14.77,15.33Z" fill="#CEF5FF"/><path d="M68.54,6.26L76.97,15L12.76,15L21.19,6.26C21.96,5.46,23.04,5,24.16,5L65.57,5C66.69,5,67.76,5.45,68.54,6.26Z" fill="#303D8A"/><path d="M68.53,6.25L76.97,15L12.76,15L21.19,6.26C21.96,5.46,23.04,5,24.16,5L65.57,5C66.69,5,67.75,5.45,68.53,6.25Z" fill="#7A66F4"/><path d="M68.53,6.25L75.06,13.02L76.97,15L72.9,15C66.47,9.96,58.64,6.9,50.35,6.32L31.5,5L65.57,5C66.69,5,67.75,5.45,68.53,6.25Z" fill="#9881F2"/><path d="M12.76,15L21.19,6.26C21.96,5.46,23.04,5,24.16,5L58.37,5L60.86,15Z" fill="#9881F2"/><path d="M59.38,15L57.74,9.85C57.1,7.85,55.32,6.44,53.23,6.28L36.64,5L58.37,5L60.86,15Z" fill="#C9ACFF"/><path d="M12.76,15L21.19,6.26C21.96,5.46,23.04,5,24.16,5L31.36,5L28.88,15Z" fill="#C9ACFF"/><path d="M15.03,15L12.76,15L21.2,6.25C21.98,5.45,23.04,5,24.16,5L31.5,5L30.88,5.13C24.63,6.53,19.04,10.01,15.03,15Z" fill="#F6EDFF"/></svg>