<svg xmlns="http://www.w3.org/2000/svg" viewBox="0 0 90 90" fill="currentColor"><path d="M9,77C4.58,77,1,73.42,1,69L1,21C1,16.58,4.58,13,9,13L83,13C87.42,13,91,16.58,91,21L91,69C91,73.42,87.42,77,83,77ZM9,81C4.58,81,1,77.42,1,73L1,25C1,20.58,4.58,17,9,17L83,17C87.42,17,91,20.58,91,25L91,73C91,77.42,87.42,81,83,81ZM9,81C4.58,81,1,77.42,1,73L1,25C1,20.58,4.58,17,9,17L83,17C87.42,17,91,20.58,91,25L91,73C91,77.42,87.42,81,83,81ZM83,17C85.14,17,87.08,17.84,88.52,19.21L52.64,51.09C48.85,54.46,43.14,54.46,39.35,51.09L3.48,19.21C4.92,17.84,6.86,17,9,17ZM89.63,77.48L57.66,43.43C51.34,36.69,40.65,36.69,34.33,43.43L2.37,77.48C3.07,78.52,4.02,79.39,5.12,80L86.88,80C87.98,79.39,88.93,78.52,89.63,77.48ZM9,81C6.86,81,4.92,80.16,3.48,78.79L39.35,46.91C43.14,43.54,48.85,43.54,52.64,46.91L88.52,78.79C87.08,80.16,85.14,81,83,81ZM88.52,78.79L52.64,46.91C48.85,43.54,43.14,43.54,39.35,46.91L3.48,78.79C3.54,78.84,3.59,78.89,3.64,78.94L41.7,49.34C44.23,47.38,47.77,47.38,50.3,49.34L88.36,78.94C88.41,78.89,88.46,78.84,88.52,78.79ZM1,51C1.7,56.45,1.85,60.92,2,65.4C2.07,67.33,2.13,69.25,2.24,71.25C2.51,76.18,6.64,79.89,11.58,80.01L51,81L9,81C4.58,81,1,77.42,1,73ZM91,72C90.12,62.01,89.93,53.81,89.74,45.6C89.61,39.93,89.48,34.26,89.12,28.01C88.83,22.97,84.7,19.06,79.66,18.88L28,17L83,17C87.42,17,91,20.58,91,25Z"/></svg>