<svg xmlns="http://www.w3.org/2000/svg" viewBox="0 0 90 90"><path d="M8,16C3.58,16,0,19.58,0,24L0,72C0,76.42,3.58,80,8,80L82,80C86.42,80,90,76.42,90,72L90,24C90,19.58,86.42,16,82,16Z" fill="#749BBF"/><path d="M8,12C3.58,12,0,15.58,0,20L0,68C0,72.42,3.58,76,8,76L82,76C86.42,76,90,72.42,90,68L90,20C90,15.58,86.42,12,82,12Z" fill="#AED0F0"/><path d="M8,12C3.58,12,0,15.58,0,20L0,68C0,72.42,3.58,76,8,76L82,76C86.42,76,90,72.42,90,68L90,20C90,15.58,86.42,12,82,12Z" fill="#AED0F0"/><path d="M82,76C84.14,76,86.08,75.16,87.52,73.79L51.64,41.91C47.85,38.54,42.14,38.54,38.35,41.91L2.48,73.79C3.92,75.16,5.86,76,8,76Z" fill="#D0E6FB"/><path d="M88.63,15.52L56.66,49.57C50.34,56.31,39.65,56.31,33.33,49.57L1.37,15.52C2.07,14.48,3.02,13.61,4.12,13L85.88,13C86.98,13.61,87.93,14.48,88.63,15.52Z" fill="#749BBF"/><path d="M8,12C5.86,12,3.92,12.84,2.48,14.21L38.35,46.09C42.14,49.46,47.85,49.46,51.64,46.09L87.52,14.21C86.08,12.84,84.14,12,82,12Z" fill="#E5F6FF"/><path d="M87.52,14.21L51.64,46.09C47.85,49.46,42.14,49.46,38.35,46.09L2.48,14.21C2.54,14.16,2.59,14.11,2.64,14.06L40.7,43.66C43.23,45.62,46.77,45.62,49.3,43.66L87.36,14.06C87.41,14.11,87.46,14.16,87.52,14.21Z" fill="#F2FCFF"/><path d="M0,42C0.7,36.55,0.85,32.08,1,27.6C1.07,25.67,1.13,23.75,1.24,21.75C1.51,16.82,5.64,13.11,10.58,12.99L50,12L8,12C3.58,12,0,15.58,0,20Z" fill="#F2FCFF"/><path d="M90,21C89.12,30.99,88.93,39.19,88.74,47.4C88.61,53.07,88.48,58.74,88.12,64.99C87.83,70.03,83.7,73.94,78.66,74.12L27,76L82,76C86.42,76,90,72.42,90,68Z" fill="#F2FCFF"/></svg>