<svg xmlns="http://www.w3.org/2000/svg" viewBox="0 0 90 90"><path d="M63.04,17.4C61.59,16.73,60.15,16.09,58.77,15.47C58.08,14.3,55.35,16.22,53.28,15.29L51.19,18.48L51.69,14.63C51.48,14.56,51.27,14.48,51.06,14.42L50.06,16.41L49.83,14.03C49.36,13.89,48.89,13.76,48.4,13.64L46.86,15.09L46.69,13.25C44.58,12.83,42.32,12.59,40.07,12.53L40.07,12.5C39.92,12.5,39.77,12.51,39.61,12.51C39.59,12.51,39.56,12.51,39.53,12.51L39.53,17.63C39.06,16.62,38.73,15.54,38.57,14.43C38.37,14.5,38.17,14.56,37.97,14.63L38.47,18.48L36.38,15.29C34.31,16.22,31.59,14.3,30.89,15.47C29.45,16.11,27.99,16.75,26.52,17.39C18.87,7.82,8.98,-1.31,4.96,0.43C-0.46,2.77,2,27.27,5.35,39.44C3.77,42.78,3.57,45.93,3.93,48.56L4.46,48.47L7.25,49.94L4.1,49.54C4.1,49.54,4.1,49.56,4.1,49.56L6.59,51L4.65,51.68C4.95,52.58,5.28,53.37,5.59,54.01L7.38,54.46L6.2,55.16C6.5,55.67,6.7,55.95,6.7,55.95C6.7,55.95,6.86,56.64,7.1,57.73L9.24,58.44L7.38,58.99C8.37,63.48,10.12,71.36,10.1,71.19C11.23,76.33,18.3,79.58,22.43,82.59L22.34,82.73L28.74,85.57L27.5,88.75L30.51,86.45L30.34,88.75L32.11,87.34L32.11,89.82L33.7,88.22L37.43,89.82L38.84,88.76L42.21,89.82L43.27,88.58L46.82,88.93L49.12,88.76L51.07,90L52.49,87.7L55.15,89.82L58.52,88.41L59.4,86.81L61.35,87.34L61.71,85.57L64.55,86.99L64.55,84.68L67.5,82.94C67.42,82.82,67.34,82.71,67.25,82.6C71.37,79.58,78.45,76.34,79.58,71.2C79.68,71.41,80.54,67.59,81.36,63.72L79.43,62.71L81.64,62.4C82.05,60.48,82.42,58.66,82.67,57.45L81.83,56.99L82.9,56.36C82.95,56.1,82.98,55.96,82.98,55.96C82.98,55.96,83.73,54.84,84.47,52.9L83.29,52.61L84.92,51.58C84.98,51.38,85.04,51.19,85.1,50.98L82.62,50.88L85.32,50.1C86.03,47.09,86.32,43.12,84.98,38.61C88.2,26.09,90.3,2.55,84.93,0.23L84.91,0.22C80.8,-1.56,70.78,7.74,63.04,17.4Z" fill="currentColor"/><path d="M44.79,71.43C44.75,71.43,44.71,71.43,44.68,71.43C44.64,71.43,44.6,71.43,44.55,71.43C36.64,71.01,29.93,70.68,31.35,77.98C31.81,80.32,35.05,80.86,38.43,83.05C39.59,84.21,42.1,85.34,44.67,85.34C47.24,85.34,49.87,84.21,51.04,83.05C54.41,80.86,57.36,80.46,58.11,77.98C60.26,70.87,52.82,71.01,44.91,71.43L44.91,71.43C44.87,71.43,44.83,71.43,44.79,71.43Z" fill="currentColor"/><path d="M73.03,75.68C65.76,78.34,63.11,76.92,64.52,78.34C65.94,79.76,53.36,79.94,53.36,79.94L56.54,74.09C56.54,74.09,77.64,74.62,76.75,60.62L76.76,60.62C76.76,60.62,80.3,73.03,73.03,75.68Z" fill="currentColor" opacity="0.45"/><path d="M15.77,75.68C23.03,78.34,25.69,76.92,24.28,78.34C22.86,79.76,35.44,79.94,35.44,79.94L32.25,74.09C32.25,74.09,11.16,74.62,12.05,60.62L12.04,60.62C12.04,60.62,8.5,73.02,15.77,75.68Z" fill="currentColor" opacity="0.45"/><path d="M65.57,40.05C61.32,43.32,60.79,46.41,60.08,43.49C59.36,40.57,58.48,39.88,57.59,41.6C56.71,43.32,53.69,37.13,53.16,42.63C52.63,48.14,51.75,51.24,50.51,50.72C49.26,50.21,49.79,60.71,49.79,60.71C49.79,60.71,59.01,72.92,66.1,68.8C73.19,64.66,78.69,65.35,71.42,49.69L71.42,49.69C71.42,49.69,69.83,36.78,65.57,40.05Z" fill="currentColor" opacity="0.45"/><path d="M24.4,40.05C28.65,43.32,29.18,46.41,29.89,43.49C30.61,40.57,31.49,39.88,32.38,41.6C33.26,43.32,36.28,37.13,36.81,42.63C37.34,48.14,38.22,51.24,39.46,50.72C40.71,50.21,40.18,60.71,40.18,60.71C40.18,60.71,30.96,72.92,23.87,68.8C16.78,64.66,11.29,65.35,18.55,49.69L18.55,49.69C18.55,49.69,20.14,36.78,24.4,40.05Z" fill="currentColor" opacity="0.45"/><path d="M21.27,49.71C23.63,49.09,30.54,48.11,32.44,49C37.05,52.17,37.41,60.44,37.41,60.44C37.41,60.44,34.74,62.27,33.54,63.39C30.17,66.52,25.01,66.47,21.24,63.96C16.72,60.96,16.29,54.35,20.17,50.55L20.17,50.55C20.53,50.2,20.9,49.91,21.27,49.71Z" fill="currentColor"/><path d="M36.55,57.49C36.21,60.07,34.62,62.4,32.29,63.55C26.64,66.36,18.02,63.24,17.38,55.67C20.97,48.45,33.59,45.59,36.55,57.49Z" fill="currentColor"/><path d="M34.11,56.82C34.11,53.13,31.12,50.14,27.43,50.14C23.74,50.14,20.75,53.13,20.75,56.82C20.75,60.51,23.74,63.5,27.43,63.5C31.12,63.5,34.11,60.51,34.11,56.82Z" fill="currentColor"/><path d="M31.21,54.78C31.21,53.84,30.45,53.08,29.51,53.08C28.58,53.08,27.82,53.84,27.82,54.78C27.82,55.71,28.58,56.47,29.51,56.47C30.45,56.47,31.21,55.71,31.21,54.78Z" fill="currentColor"/><path d="M68.37,49.71C66.01,49.09,59.1,48.11,57.21,49C52.6,52.17,52.24,60.44,52.24,60.44C52.24,60.44,54.9,62.27,56.11,63.39C59.48,66.52,64.63,66.47,68.41,63.96C72.93,60.96,73.36,54.35,69.48,50.55L69.47,50.55C69.12,50.2,68.75,49.91,68.37,49.71Z" fill="currentColor"/><path d="M53.1,57.49C53.44,60.07,55.03,62.4,57.36,63.55C63.01,66.36,71.63,63.24,72.27,55.67C68.68,48.45,56.06,45.59,53.1,57.49Z" fill="currentColor"/><path d="M68.9,56.82C68.9,53.13,65.91,50.14,62.22,50.14C58.53,50.14,55.54,53.13,55.54,56.82C55.54,60.51,58.53,63.5,62.22,63.5C65.91,63.5,68.9,60.51,68.9,56.82Z" fill="currentColor"/><path d="M65.25,54.78C65.25,53.84,64.49,53.08,63.56,53.08C62.62,53.08,61.87,53.84,61.87,54.78C61.87,55.71,62.62,56.47,63.56,56.47C64.49,56.47,65.25,55.71,65.25,54.78Z" fill="currentColor"/><path d="M85,0.24C80.91,-1.49,70.91,7.8,63.15,17.37C61.66,16.72,60.17,16.09,58.7,15.44C58,14.28,55.4,16.22,53.3,15.28L51.19,18.47L51.7,14.61L51.06,14.41C51.06,14.41,50.53,15.38,50.04,16.38L49.84,13.99C49.82,13.99,48.43,13.62,48.43,13.62C48.45,13.64,46.88,15.03,46.88,15.03L46.72,13.26C46.72,13.26,45.68,13.02,44.7,12.89L44.69,13.93L44.69,12.89C43.18,12.67,41.62,12.53,40.07,12.5L40.07,12.47C39.92,12.47,39.77,12.48,39.61,12.48C39.59,12.48,39.56,12.48,39.53,12.48L39.53,17.59C39.06,16.59,38.73,15.5,38.57,14.4C38.37,14.46,38.17,14.53,37.98,14.6L38.47,18.45L36.38,15.25C34.31,16.19,31.59,14.27,30.89,15.44C29.45,16.08,27.99,16.72,26.52,17.36C18.87,7.79,8.98,-1.34,4.96,0.4C3.58,1,2.71,3.04,2.24,5.94L11.02,15.22L9.78,37.55C9.78,37.55,14.92,41.1,16.34,42.16C17.75,43.22,18.64,41.28,17.58,38.44C16.52,35.6,19.35,34.89,20.06,35.42C20.77,35.95,20.42,34.71,20.24,34.18C20.06,33.65,23.25,35.42,23.25,35.42L22.01,31.7L25.02,33.83L25.02,30.1L28.56,32.59C28.56,32.59,26.08,22.66,28.74,28.51L31.4,34.36L32.28,29.93L34.77,39.5C34.77,39.5,35.12,33.48,35.3,34.19C35.47,34.9,36.89,40.04,36.89,40.04L37.6,35.43C37.6,35.43,40.79,37.91,40.26,43.23C40.26,43.23,42.39,55.64,40.97,61.84C39.56,68.04,39.56,71.67,39.56,71.67L44.7,71.32L44.7,70.6L49.93,71.23C49.93,71.23,49.93,68.04,48.49,61.83C47.05,55.63,49.21,43.22,49.21,43.22C48.67,37.91,51.91,35.42,51.91,35.42L52.63,40.03C52.63,40.03,54.07,34.89,54.25,34.18C54.43,33.47,54.79,39.5,54.79,39.5L57.31,29.93L58.21,34.36L60.91,28.51C63.61,22.66,61.09,32.58,61.09,32.58L64.69,30.1L64.69,33.82L67.75,31.69L66.49,35.42C66.49,35.42,69.73,33.65,69.56,34.18C69.38,34.71,69.01,35.95,69.74,35.42C70.46,34.89,73.33,35.59,72.26,38.43C71.18,41.27,72.07,43.22,73.51,42.16C74.95,41.1,81.53,35.77,81.53,35.77L78.91,15.21L87.83,5.94L87.79,5.95C87.31,3.04,86.4,0.84,85,0.24Z" fill="currentColor"/><path d="M7.03,3.14C7.03,3.14,3.44,4.07,4.51,16.04C5.57,28,6.77,32.12,6.77,32.12L10.76,33.05C10.76,33.05,6.5,33.58,7.17,37.04C7.83,40.5,10.76,39.7,10.76,39.7L9.43,35.58L12.89,36.78L10.76,34.78L13.81,35.31L12.22,33.98L15.81,35.04L10.63,28.26L17.14,32.52L13.68,28.39L17.54,30.65L15.81,27.47L21.52,29.73L17.93,24.94L20.46,25.6L18.86,23.21L22.85,24.81L20.85,21.35L25.77,24.27L24.98,20.81L24.98,20.82C24.98,20.82,14.88,3.01,7.03,3.14Z" fill="currentColor"/><path d="M83.28,3.14C83.28,3.14,86.87,4.07,85.8,16.04C84.74,28,83.54,32.12,83.54,32.12L79.55,33.05C79.55,33.05,83.81,33.58,83.14,37.04C82.48,40.5,79.55,39.7,79.55,39.7L80.88,35.58L77.42,36.78L79.55,34.78L76.5,35.31L78.09,33.98L74.5,35.04L79.68,28.26L73.17,32.52L76.63,28.39L72.77,30.65L74.5,27.47L68.79,29.73L72.38,24.94L69.85,25.6L71.45,23.21L67.46,24.81L69.46,21.35L64.54,24.27L65.33,20.81L65.33,20.82C65.33,20.82,75.43,3.01,83.28,3.14Z" fill="currentColor"/><path d="M14.63,55.23C15.56,55.37,13.97,55.41,14.54,55.67C15.1,56.57,14.81,55.98,14.44,55.45C14.64,55.3,15.05,56.17,14.69,55.35C15,55.53,15.19,56.13,14.83,55.32C15.4,55.01,15.07,54.11,14.88,53.45C16.41,56.53,14.85,52.28,15.86,54.17C15.76,54.79,16.15,54.19,16.02,53.85C16.73,53.59,16.45,53.91,15.91,52.48C17.43,55.17,16,52.3,16.94,53.72C16.48,52.47,16.88,53.86,17.16,53.59C17.17,53.61,16.74,52.76,16.81,52.65C17.67,54.33,15.9,49.96,17.37,53.39C17.9,54.01,17.77,53.63,17.57,53.11C17.8,54.21,17.11,52.52,17.3,52.6C18.04,53.63,17.96,52.89,17.02,51.58C19.05,54.1,16.93,51.07,18.38,52.11C18.77,52.48,17.71,51.21,18.17,51.24C18.3,49.89,18.47,52.36,18.82,51.17C18.29,50.46,19.15,51.05,18.8,50.68C18.5,49.67,18.67,51.08,17.94,50.46C15.98,50.78,16.47,52.89,14.33,52.24C14.4,52.63,14.16,54.72,13.16,52.91C12.22,54.47,11.52,56.64,10.85,56.58C8.67,61.82,11.73,58.7,12.05,57.29C12.56,57.54,12.17,57.65,12.58,57.77C12.04,57.07,13.56,57.96,12.58,57.36C13.8,57.61,12.69,57.16,13.04,57.09C12.87,56.68,12.86,56.82,13.33,57.09C13.4,56.83,12.8,56.56,13.26,56.67C13.75,57.38,13.64,56.22,14.5,56.4C13.78,56,14.33,55.92,14.31,55.95L14.32,55.93C15.49,57.01,13.84,54.69,14.63,55.23Z" fill="currentColor"/><path d="M14.42,55.54C14.27,55.25,14.36,55.38,14.44,55.44C14.45,55.5,14.51,55.68,14.42,55.54Z" fill="currentColor"/><path d="M18.12,50.58C18.04,50.53,18.08,50.55,18.12,50.57Z" fill="currentColor"/><path d="M13.99,63.54C14.19,63.52,12.27,64.81,13.9,63.86C13.34,64.59,14.84,64.78,15.92,64.23C13.69,65.48,16.65,64.74,15.17,65.19C14.92,65.62,15.37,65.31,15.68,65.29C14.88,65.94,15.77,65.18,15.73,65.39C15.78,65.95,15.91,65.97,17,64.91C14.81,67.31,17.14,64.99,16.13,66.26C17.08,65.32,15.97,66.63,16.39,66.3C16.44,66.45,17.03,65.69,17.1,65.79C15.84,67.42,17.5,65.44,17.79,65.23C17.25,66.2,15.51,67.74,17.31,66.23C16.09,68.64,19.28,63.79,17.42,66.88C17.82,66.7,18.56,65.81,18.2,67.11C18.44,66.09,19.71,66,18.81,66.59C19.32,66.99,19.85,66.32,19.7,65.82C19.16,66.92,19.1,64.31,18.32,65.03C18.23,65.51,17.8,64.59,17.93,64.52C17.16,65.06,17.28,64.52,17.08,64.57C16.65,64.54,17.3,63.41,16.76,63.7C17.91,62.85,15.62,64.32,16.45,63.72C16.21,63.33,14.82,63.59,16.47,62.66C14.45,61.22,15.11,60.85,14.19,56.79C13.17,58.58,13.22,59.82,13.72,60.24C12.55,60.13,13.73,60.44,12.95,60.49C12.97,60.79,12.71,60.63,13.29,60.56C13.01,60.95,12.52,60.96,13.4,61.05C13.22,61.32,12.69,62.16,13.32,62.92L13.32,62.92C11.94,63.27,14.38,63.32,13.99,63.54Z" fill="currentColor"/><path d="M13.81,63.81C14.1,63.68,13.97,63.77,13.91,63.85C13.84,63.86,13.67,63.91,13.81,63.81Z" fill="currentColor"/><path d="M77.54,52.41C77.17,53.52,76.76,53.06,77.15,52.52C76.56,53.17,76.01,53.46,76.31,52.67C75.39,53.31,74.71,54.53,75.77,52.94C75.94,52.13,75.22,53.42,75.49,52.28C74.55,53.63,75.45,50.94,73.8,53.33C75.37,50.66,73.77,53.3,74.23,51.71C73.77,52.29,73.37,52.79,73.97,51.7C71.87,54.14,73.7,52.27,74.07,51.06C73.1,53,74.05,49.86,72.5,52.73C73.93,49.91,71.84,53.05,72.44,51.09C72.28,52.03,70.58,52.12,71.63,51.66C72.03,50.69,70.73,51.86,71.07,51.47C70.5,51.45,70.58,52.17,71.17,51.83C70.76,52.81,73.35,54.08,73.52,53.39C73.36,53.77,74.31,53.5,74.22,54.6C74.39,55.4,75.02,53.84,74.84,54.47C76.02,54.43,75.8,54.78,75.57,55.71C76.18,53.95,76.13,56.98,77.44,56.64C78.29,55.87,76.99,56.99,77.72,57.63C78.13,57.25,78,57.6,77.79,57.8C78.62,57.45,81.17,61.79,80.15,58.45C78.89,56.92,79.51,57.3,79.15,56.89C78.34,57.26,79.74,55.92,79.02,56.38C79.82,55.28,78.38,56.28,78.88,55.74C78.79,55.56,78.51,55.44,78.72,55.5C79.38,55.1,78.03,55.51,78.98,55.03C79.13,55.01,78.15,54.62,78.72,54.25C78.1,54.8,78.23,54.24,78.23,54.28L78.23,54.28C79.06,53.43,76.99,54.88,77.54,52.41Z" fill="currentColor"/><path d="M74.42,62.32C73.82,62.1,74.56,62.74,74.48,62.71C73.77,62.26,74.08,62.42,73.86,62.49C72.65,61.94,73.9,62.44,74.09,62.73C73.89,62.67,73.05,62.32,73.84,62.86C73.6,63.43,75.26,65,73.9,63.86C72.95,63.18,73.97,64.2,74.13,64.65C72.83,63.1,73.76,64.66,73.33,64.05C73.14,63.96,73.82,64.77,73.27,64.27C72.72,64.69,74.78,66.37,72.79,64.5C73.04,64.67,73.42,65.5,72.7,64.58C73.32,65.69,72.77,64.5,72.53,64.7C72.52,64.68,73.05,65.47,72.99,65.59C71.85,64.04,73.49,66.37,73.22,66.54C72.61,65.06,71.95,64.51,72.16,64.76C72.99,66.29,72.07,64.79,72.03,65.23C71.46,64.59,72.86,66.53,72.85,66.66C71.26,63.83,72.11,68.32,71.5,66.86C70.78,66.21,71.28,67.09,70.87,67.63C71.27,67.71,71.26,67.96,71.31,67.31C71.5,67.71,73.28,67.78,73.19,67.07C72.81,66.6,73.82,67.01,73.8,66.66C74.21,66.75,73.63,65.49,74.17,66.11C73.67,65.8,74.85,65.34,75.54,65.43C75.2,64.77,75.26,63.79,75.62,63.86C75.1,63.56,77.39,64.65,76.1,63.86C77.36,64.67,75.55,62.84,76.58,62.82C76.85,60.19,77.39,60.72,76.2,57.06C74.98,59.33,76.33,59.97,74.73,60.45C75.78,60.98,74.02,60.82,74.27,61.87L74.28,61.88C73.25,61.48,74.09,61.88,74.42,62.32Z" fill="currentColor"/><path d="M74.03,62.55C74.31,62.71,74.17,62.65,74.07,62.63C74.02,62.59,73.87,62.48,74.03,62.55Z" fill="currentColor"/><path d="M57.38,69.62C56.77,70.35,57.31,69.98,57.07,70.29C56.75,71.51,57.09,70.09,57.42,70.02C56.99,70.5,58.04,70.97,59.04,69.18C59.36,69.16,57.63,71.75,59.37,69.67C58.3,71.4,59.47,70.03,59.07,70.63C58.96,71.06,59.42,70.03,59.34,70.39C59.15,70.93,60.11,69.99,59.55,70.9C61.04,67.83,59.1,72.28,60.18,70.35C59.66,71.77,60.49,69.68,60.03,71.11C60.9,70.05,60.13,71.49,61.12,69.45C61.09,70.06,59.66,72.71,60.95,70.54C60.61,72.5,61.32,70.36,61.47,69.63C61.27,71.72,61.23,70.84,61.73,70.44C62.29,71.76,61.83,69.96,62.64,69.88C62.55,70.58,62.24,70.82,62.78,70.54C63.05,70.01,63.35,69.7,63.08,69.96C62.98,69.06,62.89,70.66,62.66,69.42C62.14,70.05,62.03,68.25,61.75,69.01C61.34,69.46,61.36,68.97,61.05,68.93C60.96,68.68,60.87,69.34,60.84,68.85C60.44,69.62,59.74,68.82,59.77,68.11C59.29,68.61,58.4,68.88,58.5,68.43C58.26,69.06,58.7,67.67,58.82,67.61C58.9,67.25,58.63,67.94,58.52,67.98C59,67.06,58.57,67.86,58.43,67.62C57.22,68.7,57.49,65.69,56.17,67.76C57.18,66.65,52.85,65,53.27,65.69C53.93,67.43,54.78,66.99,54.68,67.78C54.83,68.09,55.37,67.11,55.09,67.81C54.66,68.32,55,68.82,55.65,68.38C55.31,68.67,55.37,68.96,55.82,68.52C55.74,68.71,55.53,69.05,55.63,68.78C55.16,69.37,56.23,68.52,55.53,69.31C55.44,69.41,56.34,69.31,56.03,69.91C56.39,69.17,56.46,69.69,56.45,69.68L56.45,69.7C55.76,70.69,57.16,69.56,57.38,69.62Z" fill="currentColor"/><path d="M31.83,68.08C30.83,66.31,31.8,68.33,31.16,67.4C31.62,68.64,30.64,66.59,31.2,67.86C30.23,68.47,31.94,70.54,30.42,68.35C30.88,70.03,30.47,69.33,30.31,68.39C30.14,68.67,30.4,68.58,30.26,69.06C29.96,68.04,30.31,69.37,30.17,68.98C29.85,68.82,29.95,69.72,29.71,68.81L30.12,70.39C29.94,70.1,29.59,68.62,29.51,68.91C29.75,69.43,29.78,69.6,29.42,68.95C29.82,70.28,29.01,67.8,29.35,70.01C28.75,67.97,29.57,71.11,29.32,70.74C29.19,71.13,29.12,68.7,28.69,68.69C29,69.67,29.15,69.75,28.57,69.35C28.41,69.12,29.29,72.39,28.44,69.51C28.42,69.56,28.36,71.3,27.87,69.83C28.03,71.56,27.9,71.1,27.31,70.47C27.38,71.56,27.3,70.79,27,71.39C27.54,71.82,27.17,70.92,27.81,71.69C28.77,71.49,30.19,71.7,29.98,70.55C31.93,71.17,31.09,70.03,32.21,69.65C31.92,69.12,33.25,71.26,32.58,69.91C32.86,70.89,33.07,68.67,34.16,68.99C35,69.35,33.65,67.45,34.19,68.09C35.8,68.44,35.04,67.52,36.93,65.6C35.67,64.84,34.91,67.4,34.36,66.47C34.31,67.25,34.58,66.72,33.94,66.57C33.79,66.84,33.43,66.17,33.63,67.02C33.24,66.48,33.68,67.18,33.55,67.15C33.39,66.74,33.11,66.68,33.37,67.25C32.99,66.78,32.94,66.51,33.11,67.17C32.09,65.97,32.57,67.92,32.15,67.27L32.15,67.27C31.61,66.14,32.01,68.02,31.83,68.08Z" fill="currentColor"/><path d="M41.09,40.71C42.43,40.69,42.48,40.52,41.43,40.41C43.21,39.91,38.6,38.52,41.01,38.92C42.03,38.55,40.6,38.58,40.17,38.3C42.33,38.57,40.33,37.91,41.15,38.09C41.29,37.94,40.31,37.97,41.01,37.78C40.98,36.71,38.79,37.78,41.1,37.01C40.9,37.08,39.91,36.93,41.06,36.83C39.67,36.71,41.23,36.94,41.02,36.52C41.04,36.52,40.09,36.56,40.01,36.43C42.05,36.15,39.48,36.39,39.1,36.27C39.65,35.98,42.86,36.14,40.14,35.88C41.9,35.4,40.31,35.36,39.08,35.73C42.1,34.8,38.4,35.41,40.17,34.38C38.67,34.56,38.86,34.55,39.42,33.61C38.29,33.85,38.94,32.83,38.17,33.82C38.96,33.55,38.28,34.67,38.34,35.34C37.43,35.94,39.32,35.6,38.69,36.2C38.79,37.14,39.12,37.15,39.44,37.55C38,39.02,39.89,38.88,39.37,39.89C40.73,40.1,37.71,40.3,39.12,40.39C38.16,40.33,38.85,40.66,39.27,40.74C39.32,41.17,38.8,41.69,39.52,42.29C38.33,42.72,39.88,44.19,38.9,44.55C39.83,44.4,37.99,50.03,39.67,47.63C40.72,44.76,40.22,44.92,41.36,44.03C40.36,43.54,42.13,42.87,41.6,41.74L41.6,41.74C42.84,42.02,41.14,40.88,41.09,40.71Z" fill="currentColor"/><path d="M51.33,41.31C50.38,40.53,50.99,40.82,51.97,40.43C50.13,40.69,52.35,40.24,50.62,39.63C52.37,39.11,48.09,38.83,50.18,38.89C50.31,39.17,51.81,38.92,49.91,38.31C50.99,38.4,50.69,38.74,51.13,38.38C50.24,38.32,50.79,37.97,50.91,38.27C51.12,38.15,50.07,38.03,50.83,37.96C50.76,37.35,50.99,37.7,49.46,37.18C52.43,37.63,49.37,36.9,51.17,36.99C50.45,36.17,50.75,36.87,49.4,35.88C50.99,36.53,51.53,36.55,51.41,36.41C49.17,35.9,53.09,36.15,49.56,35.47C52.64,35.78,49.1,34.86,51.14,34.71C49.17,33.99,50.67,34.14,50.49,33.17C49.44,32.69,50.45,33.44,49.5,33.72C49.34,34.78,48.71,34.89,49.03,35.72C48.37,36.57,49.76,36.99,48.96,37C49.5,36.83,49.08,38.1,48.48,38.31C48.39,38.82,49.16,39.12,49.22,39.85C49.83,39.87,48.85,40,49.09,40.11C49.68,40.11,47.18,40.32,48.68,40.38C47.7,40.24,48.61,40.96,49.11,41.28C48.78,41.8,48.37,43.17,49.33,43.43C50.44,43.11,48.71,43.65,49.12,44.63C49.58,44.43,49.48,46.36,50.96,48.61C51.32,46.34,50.37,45.35,50.93,44.73C50.01,44.36,52.14,43.91,50.69,43.34C51.36,43.19,51.43,42.09,51.21,41.6L51.2,41.61C52.58,41.66,51.08,41.4,51.33,41.31Z" fill="currentColor"/><path d="M51.13,40.59C50.8,40.57,50.96,40.55,51.05,40.52C51.11,40.54,51.29,40.58,51.13,40.59Z" fill="currentColor"/><path d="M55.12,21.93C56.47,22.19,55.94,21.98,55.6,21.8C56.23,21.79,56.22,22.04,55.44,21.58C55.98,21.68,55.52,21.58,55.17,21.44C56.74,21.6,53.76,20.8,54.34,20.88C54.52,20.9,55.45,21.25,55.42,21.16C55.93,21.11,53.61,20.4,55.39,20.9C55.09,20.93,56.26,21.27,55.21,20.74C56.17,21.07,55.07,20.71,55.26,20.7C56.01,20.63,55.38,20.5,54.2,19.98C57.07,21.03,54.37,19.9,55.74,20.4C54.56,19.89,56.03,20.47,55.65,20.26C55.75,20.23,54.86,19.88,54.92,19.83C56.88,20.65,53.91,19.34,54.34,19.42C56.61,20.58,56.81,20.17,54.35,19.13C55.19,19.25,56.06,19.96,55.6,19.45C54.32,18.89,56.02,19.2,55.53,19.12C53.45,17.77,56.3,19.13,55.11,18.35C54.77,17.88,55.35,18.47,55.21,18.2C54.6,17.77,54.62,17.92,54.63,18.02C55.19,18.45,54.52,18.03,54.31,18.15C54.24,18.18,54.57,18.57,54.15,18.47C53.5,18.69,53.65,19.72,54.15,19.96C54.05,19.84,52.98,20.5,53.32,20.51C52.36,20.24,53.52,20.64,53.88,20.82C52.86,20.53,53.97,21.11,53.79,21.14C53.53,21.14,53.5,21.22,53.78,21.26C54.42,21.39,53.1,21.28,53.79,21.37C53.83,21.48,51.76,21.03,53.21,21.41C51.82,21.07,54.23,22.07,53.1,22.05C53,23.24,53.6,22.7,53.14,23.58C53.5,23.64,53.13,24.47,54.1,25.6C54.55,24.5,54.92,23.98,54.27,23.92C54.55,23.89,55.27,23.78,54.59,23.7C54.09,23.64,54.99,23.63,55.09,23.7C54.5,23.39,55.91,23.61,54.81,23.15C55.66,23.24,54.75,23.07,55.06,23.01C55.48,23.15,55.57,23.07,55.07,22.94C56.29,23.05,55.24,22.61,55.56,22.45L55.57,22.44C56.85,22.72,55.07,22.05,55.12,21.93Z" fill="currentColor"/><path d="M55.59,21.97C55.27,21.9,55.43,21.92,55.52,21.93C55.58,21.95,55.76,22,55.59,21.97Z" fill="currentColor"/><path d="M54.98,21.02C54.96,21,54.97,21,55.04,21C55.13,21.04,55.08,21.04,54.98,21.02Z" fill="currentColor"/><path d="M46.51,26.46C46.67,26.77,47.17,27.22,46.57,26.8C45.77,27.04,45.65,26.74,46.54,27.17C45.61,27.15,46.41,28.54,47.98,28.91C45.25,28.3,47.98,29.33,46.19,29.25C47.07,29.34,46.52,29.68,46.4,29.38C46.2,29.49,47.22,29.65,46.47,29.69C46.15,30.08,47.49,30.24,46.24,30.05L47.83,30.45C47.15,30.36,45.25,30.21,46.86,30.42C45.94,30.5,46.53,30.48,46.92,30.63C46.23,30.55,46.09,30.52,46.84,30.74C45.54,30.6,46.57,30.9,47.14,31.16C45.03,30.91,48.24,31.43,47.81,31.54C48.25,31.76,44.24,30.73,46.32,31.55L45.95,31.32C47.65,31.63,44.46,31.95,47.87,32.05C45.41,31.9,47.37,32.88,46.76,33C49.1,33.66,46.27,33.41,47.18,33.99C47.25,33.77,48.05,34.27,47.41,34.22C48.17,34.5,48,34.22,47.86,33.9C48.66,33.27,48.37,32.12,48.47,31.28C48.9,31.15,47.28,30.29,48.48,30.51C47.24,30.27,49.25,29.46,48.67,29.16C50.08,29.44,47.46,28.68,48.46,28.88C48.81,28.71,48.03,28.36,48.19,28.2C48.49,28.1,48.47,27.97,48.21,27.97C47.6,27.86,48.59,27.88,48.37,27.75C47.77,27.66,50.28,27.86,48.81,27.57C49.87,27.74,48.9,27.53,49.13,27.28C48.32,27.05,49.33,26.61,48.75,26C49.75,23.8,49.01,23.8,49.79,19.77C48.18,20.59,48.7,22.96,47.84,22.89C47.52,23.19,48.81,23.34,47.94,23.38C47.59,22.95,47.6,23.09,47.74,23.44C46.9,23.6,47.2,23.81,47.57,24.33C46.94,23.94,47.37,24.82,47.18,24.5C46.55,24.48,46.65,25.65,46.57,25.9L46.58,25.9C45.03,25.46,47.32,26.6,46.51,26.46Z" fill="currentColor"/><path d="M46.44,26.96C46.75,27.04,46.6,27.03,46.5,27.05C46.44,27.02,46.27,26.95,46.44,26.96Z" fill="currentColor"/><path d="M36.1,21.59C37.84,21.21,36.38,21.39,36.42,20.97C34.92,20.55,34.96,21.26,36.24,20.47C33.49,20.83,37.35,20.26,35.59,20.32C36.13,20.17,36,19.76,34.32,20.31C35.94,19.75,35.68,19.86,35.8,19.66C34.14,20.23,36.69,19.35,35.17,19.8C36.4,19.35,35.33,19.62,34.77,19.73C36.76,18.98,33.7,20.07,34.07,19.85C33.59,19.94,37.46,18.75,35.42,19.22C36.54,19.03,34.7,19.55,34.88,19.42C35.5,19.12,35.57,19.19,35.4,19.04C35.61,18.84,32.54,20.26,35.25,18.97C34.35,19.13,34.02,19.23,34.88,18.62C32.7,19.88,35.02,17.62,33.08,19.03C34,18.41,33.1,19.46,33.02,19.99C33.7,19.69,33.64,20.05,33.39,20.35C33.45,20.32,34.91,20.21,33.71,20.54C34.76,20.23,33.6,21.15,33.55,21.23C34.08,21.2,35.74,21.48,33.68,21.88C34.45,21.96,34.62,22.95,34.95,24.8C35.55,26.62,36.52,24.09,35.76,24.06C36.52,23.93,36.33,23.75,35.82,23.58C36.56,23.65,36.9,23.26,36.29,23.4C37.13,22.99,36.23,23.19,36.39,22.81C36.92,22.83,36.92,22.19,36.72,22.02L36.72,22.01C38.06,21.88,36.38,21.81,36.1,21.59Z" fill="currentColor"/><path d="M36.56,21.45C36.24,21.5,36.39,21.46,36.48,21.42C36.54,21.42,36.72,21.41,36.56,21.45Z" fill="currentColor"/><path d="M40.61,27.2C40.83,27.26,38.59,27.86,40.44,27.49C40.63,27.71,39.41,27.94,40.43,27.94C41.07,28.67,40.57,28.78,42.4,28.78C39.62,28.92,42.52,29.2,40.76,29.56C42.22,29.54,39.74,30.44,42.64,30.35C39.49,30.56,42.86,30.5,41.07,30.76C42.42,30.92,40.95,30.65,41.08,31.05C42.51,31.27,43.64,31.66,41.17,31.36C39.62,31.8,42.82,31.42,41.16,31.73C41.5,31.81,41.31,31.89,41.14,31.81C41.02,31.89,41.61,31.89,41.3,32C40.47,32.24,42.83,31.87,42.95,31.96C40.59,32.6,42.34,32.55,43.04,33.63C41.03,33.33,43.7,34.97,43.3,34.01C42.44,34.17,44.37,32.26,43.61,32.06C42.87,31.55,43.93,30.8,43.25,30.92C42.8,30.32,43.01,30.1,43.14,28.85C44.13,28.72,42.9,28.75,42.49,28.65C43.48,28.5,41.87,27.82,42.44,27.53C42.33,27.27,43.69,27.57,43,26.81C41.21,23.8,42.43,23.65,39.9,19.87C39,20.15,40.91,23.53,39.99,23.33C39.85,23.73,41.06,23.25,40.31,23.68C39.52,23.44,40.36,23.76,39.95,23.88C40.22,23.84,39.24,24.34,40.16,23.97C40.1,24.27,39.24,24.56,40.09,24.41C40.03,24.67,40.55,24.49,40.17,24.73C39.67,24.83,40.24,24.9,40.45,24.93C40.28,25.02,39.88,25.14,40.13,24.98C39.6,24.95,40.23,25.92,39.66,26.23C40.53,25.96,40.06,26.5,40.12,26.43L40.11,26.44C38.71,26.57,40.78,26.89,40.61,27.2Z" fill="currentColor"/><path d="M40.36,27.42C40.68,27.39,40.53,27.44,40.44,27.49C40.38,27.48,40.19,27.46,40.36,27.42Z" fill="currentColor"/><path d="M44.74,79.85L44.72,72.15Z" fill="currentColor"/><path d="M44.72,72.15L44.74,79.85" fill="none" stroke="currentColor" stroke-width="0.439188" stroke-linecap="round" stroke-linejoin="round"/><path d="M50.6,81.54C47.2,79.79,43.13,79.94,39.71,81.54C42.77,79.13,47.55,79.09,50.6,81.54Z" fill="currentColor"/><path d="M49.02,69.62L46.24,64.96C45.26,64.73,44.23,64.73,43.25,64.96L40.47,69.62C39.09,69.62,37.98,70.61,37.98,71.82C37.98,72.21,44.81,75.61,44.81,75.61C44.81,75.61,51.52,72.2,51.52,71.82C51.52,70.61,50.4,69.62,49.02,69.62Z" fill="currentColor"/><path d="M46.94,72.74C46.89,73.49,47.29,73.97,48.07,74.16L50.47,72.67C50.38,71.9,49.7,71.29,48.81,71.25C47.83,71.2,46.98,71.87,46.94,72.74Z" fill="currentColor"/><path d="M42.66,72.74C42.7,73.49,42.51,73.99,41.73,74.19L39.12,72.66C39.21,71.9,39.89,71.28,40.78,71.24L40.78,71.25C41.77,71.2,42.61,71.87,42.66,72.74Z" fill="currentColor"/><path d="M44.95,74.9L44.68,74.9C45.73,74.4,46.77,73.9,47.84,73.43C48.9,72.96,49.98,72.51,51.07,72.12C50.58,72.44,50.07,72.72,49.57,73.02C48.06,73.89,46.52,74.69,44.96,75.46C44.87,75.5,44.77,75.5,44.69,75.46C42.4,74.34,40.13,73.17,37.96,71.83L37.96,71.83C40.34,72.72,42.66,73.79,44.95,74.9Z" fill="currentColor"/><path d="M56.16,78.12C53.23,79.01,49.98,78.33,47.12,77.45C50.16,77.59,53.12,78.24,56.16,78.12Z" fill="currentColor"/><path d="M56.43,75.72C53.75,76.71,50.72,76.28,48.05,75.46C50.86,75.53,53.62,75.96,56.43,75.72Z" fill="currentColor"/><path d="M32.89,78.12C35.93,78.24,38.89,77.59,41.93,77.45C39.08,78.33,35.81,79.01,32.89,78.12Z" fill="currentColor"/><path d="M32.63,75.72C35.44,75.96,38.2,75.53,41.01,75.46C38.34,76.28,35.3,76.71,32.63,75.72Z" fill="currentColor"/><path d="M21.14,15.29C19.86,13.55,18.53,11.85,17.1,10.25C15.66,8.65,14.14,7.12,12.45,5.81C11.6,5.16,10.7,4.57,9.74,4.13C8.79,3.69,7.76,3.39,6.73,3.41L6.8,3.4C6.61,3.47,6.35,3.67,6.17,3.87C5.97,4.08,5.79,4.32,5.65,4.58C5.34,5.09,5.12,5.66,4.94,6.25C4.59,7.42,4.41,8.66,4.33,9.9C4.15,12.38,4.32,14.88,4.55,17.38C4.77,19.87,5.05,22.37,5.41,24.84C5.78,27.32,6.19,29.8,6.93,32.21C6.48,31.04,6.17,29.81,5.88,28.59C5.6,27.36,5.35,26.13,5.14,24.89C4.71,22.42,4.39,19.92,4.12,17.42C3.84,14.92,3.67,12.39,3.83,9.86C3.91,8.6,4.08,7.33,4.43,6.09C4.62,5.48,4.84,4.87,5.18,4.3C5.35,4.02,5.54,3.74,5.78,3.5C6.03,3.25,6.26,3.03,6.67,2.89L6.69,2.88L6.73,2.88C7.87,2.87,8.97,3.2,9.96,3.67C10.97,4.15,11.88,4.76,12.75,5.42C14.48,6.77,16,8.34,17.41,9.99C18.81,11.64,20.12,13.37,21.35,15.15C22.57,16.94,23.74,18.76,24.8,20.65L24.79,20.64C23.63,18.81,22.43,17.03,21.14,15.29Z" fill="currentColor"/><path d="M68.55,15.28C69.77,13.48,71.07,11.74,72.46,10.07C73.86,8.41,75.37,6.82,77.09,5.46C77.95,4.78,78.86,4.16,79.86,3.68C80.86,3.21,81.96,2.87,83.1,2.87L83.15,2.87L83.17,2.88C83.57,3.03,83.8,3.25,84.05,3.49C84.17,3.62,84.27,3.75,84.38,3.88C84.47,4.01,84.56,4.15,84.65,4.29C84.97,4.86,85.22,5.46,85.39,6.07C85.74,7.3,85.93,8.56,85.99,9.82C86.16,12.33,85.98,14.85,85.72,17.33C85.46,19.81,85.17,22.29,84.81,24.77C84.62,26,84.42,27.23,84.19,28.46C83.95,29.69,83.71,30.92,83.36,32.12C83.9,29.68,84.22,27.21,84.52,24.73C84.83,22.25,85.07,19.77,85.28,17.29C85.49,14.8,85.67,12.32,85.48,9.85C85.41,8.62,85.21,7.39,84.87,6.23C84.71,5.64,84.46,5.08,84.17,4.56C84.09,4.44,84.02,4.32,83.93,4.19C83.84,4.08,83.76,3.96,83.65,3.86C83.47,3.66,83.21,3.47,83.03,3.39L83.09,3.4C82.06,3.39,81.03,3.69,80.08,4.14C79.12,4.59,78.23,5.19,77.38,5.84C75.7,7.16,74.19,8.71,72.76,10.33C71.34,11.95,70.02,13.66,68.75,15.42C67.49,17.17,66.29,18.97,65.15,20.82L65.15,20.82C66.19,18.93,67.34,17.08,68.55,15.28Z" fill="currentColor"/><path d="M78.04,68.41L51.46,75.68Z" fill="currentColor"/><path d="M51.46,75.68L78.04,68.41" fill="none" stroke="currentColor" stroke-width="0.103808" stroke-linecap="round" stroke-linejoin="round"/><path d="M77.86,74.62L53.58,76.21Z" fill="currentColor"/><path d="M53.58,76.21L77.86,74.62" fill="none" stroke="currentColor" stroke-width="0.103808" stroke-linecap="round" stroke-linejoin="round"/><path d="M11.93,68.41L38.52,75.68Z" fill="currentColor"/><path d="M38.52,75.68L11.93,68.41" fill="none" stroke="currentColor" stroke-width="0.103808" stroke-linecap="round" stroke-linejoin="round"/><path d="M12.11,74.62L36.39,76.21Z" fill="currentColor"/><path d="M36.39,76.21L12.11,74.62" fill="none" stroke="currentColor" stroke-width="0.103808" stroke-linecap="round" stroke-linejoin="round"/><path d="M31.28,42.61C32,42.34,31.37,42.69,32.1,42.43L31.95,42.5C31.95,42.5,31.91,42.51,31.92,42.5C31.57,42.66,32.46,42.34,32.37,42.43C32.32,42.47,32.21,42.52,32.12,42.54L32.32,42.52C32.32,42.52,32.17,42.57,32.18,42.56L32.26,42.6L32.24,42.6C32.36,42.58,32.54,42.54,32.62,42.53C32.52,42.58,32.54,42.54,32.45,42.58L32.64,42.56C32.44,42.63,32.25,42.66,32.27,42.63C31.52,42.9,32.47,42.6,32.04,42.81C31.66,42.84,31.62,42.98,31.4,43.05C31.55,43,32.07,42.77,32.27,42.75C32.21,42.78,32.19,42.8,32.35,42.77C32.08,42.85,32.15,42.85,32.17,42.87L31.81,42.98C31.92,42.97,32.1,42.92,32.27,42.89C32.24,42.92,31.96,43.01,31.72,43.08C31.67,43.14,32.17,42.93,32.25,42.96C32.12,43.04,32.28,43.02,32.51,43.01C32.39,43.07,32.28,43.07,32.18,43.1L32.48,43.05C32.48,43.05,32.39,43.08,32.34,43.09C32.46,43.08,32.71,43,32.82,43C33.23,42.91,32.24,43.22,32.71,43.15C32.61,43.18,32.48,43.2,32.34,43.23C32.65,43.22,32.56,43.23,32.99,43.18L32.76,43.28C33.2,43.18,33.74,43.07,34.16,43.06C34.1,43.08,33.97,43.1,33.81,43.13L33.9,43.13C33.77,43.17,33.55,43.2,33.34,43.23C33.42,43.21,33.49,43.18,33.57,43.16C33.34,43.19,33.08,43.23,32.87,43.28C32.91,43.27,32.95,43.27,32.98,43.28C32.85,43.3,32.71,43.33,32.97,43.3L32.56,43.39L32.72,43.36L32.48,43.48C32.91,43.44,33.53,43.37,33.72,43.43C33.41,43.46,33.22,43.51,32.86,43.57C33.23,43.48,32.69,43.54,32.75,43.49C32.71,43.51,32.54,43.54,32.48,43.55L32.84,43.55C32.55,43.61,32.62,43.61,32.51,43.65C33.08,43.53,32.9,43.64,33.09,43.64C32.9,43.67,32.7,43.7,32.73,43.66C32.31,43.77,33.43,43.6,33.06,43.7C33.06,43.69,33.08,43.68,32.99,43.69C33.16,43.69,33.04,43.76,32.87,43.77L32.87,43.76C32.8,43.83,32.89,43.94,33.38,43.89C33.31,43.9,32.79,43.95,32.7,43.97L34.33,43.88C33.67,43.95,31.78,44.19,33.36,44.02C32.91,44.11,33.12,44.08,32.74,44.16C32.83,44.14,33.47,44.08,33.46,44.11C33.36,44.12,32.82,44.17,32.76,44.18L33.4,44.18C33.28,44.17,32.87,44.22,32.7,44.25C32.81,44.26,32.69,44.35,32.9,44.27C32.82,44.34,33.77,44.26,33.75,44.33C33.63,44.33,32.98,44.37,32.91,44.41C33.23,44.4,34.41,44.37,34.63,44.43L34.46,44.45L34.65,44.48C34.12,44.51,33.05,44.36,32.66,44.5C32.5,44.52,32.41,44.5,32.39,44.49L32.31,44.57C32.67,44.55,32.68,44.61,32.97,44.6L32.59,44.53C32.94,44.5,33.6,44.52,33.55,44.58C33.41,44.61,32.93,44.61,32.8,44.62C33.15,44.65,32.9,44.69,32.77,44.65C32.65,44.69,33.24,44.69,32.92,44.74C32.09,44.86,34.46,44.67,34.57,44.71C34.23,44.86,33.42,44.83,33.04,44.84C33.13,44.84,33.24,44.84,33.28,44.85C33.21,44.87,33,44.85,33.05,44.88C33.38,44.88,33.03,44.95,33.33,44.89C33.43,44.92,33.27,44.93,33.29,44.97C33.5,44.95,34.01,44.99,34.1,45.03C34.02,45.03,33.92,45.03,33.86,45.04C33.84,45.1,33.7,45.14,33.7,45.21C33.63,45.21,33.54,45.24,33.41,45.23C33.46,45.24,33.57,45.25,33.58,45.26C33.32,45.3,33.53,45.22,33.22,45.24C33.45,45.29,33.94,45.37,33.51,45.23C33.89,45.21,34.77,45.39,34.25,45.4C34.17,45.5,34.85,45.5,34.57,45.58C34.34,45.61,34.14,45.57,33.98,45.57C33.9,45.52,34.12,45.5,34.12,45.47L34.01,45.5C33.94,45.49,33.89,45.45,33.95,45.44C33.75,45.46,33.9,45.61,33.73,45.68C33.8,45.69,33.87,45.72,33.95,45.71L33.92,45.69C34.09,45.67,34.15,45.75,34.22,45.72C34.58,45.83,34.36,45.87,34.17,45.85C34.24,45.85,34.31,45.83,34.25,45.8C34.34,45.83,33.94,45.86,34.21,45.9L34.37,45.88C34.47,45.92,34.68,45.98,34.59,46.02C34.8,46.02,34.57,46.01,34.82,45.99C34.51,46,34.89,45.88,34.55,45.9C34.85,45.89,34.69,45.85,34.97,45.83C34.89,45.83,34.82,45.83,34.87,45.8C34.85,45.8,34.82,45.79,34.81,45.79L34.81,45.79C34.81,45.79,34.78,45.79,34.8,45.79C34.66,45.84,34.52,45.73,34.45,45.69C34.49,45.67,34.53,45.71,34.62,45.7L34.5,45.66C34.67,45.67,34.81,45.62,34.89,45.67L34.93,45.62C35.04,45.6,35.1,45.57,35.03,45.54C35.08,45.52,34.85,45.48,34.98,45.5L34.89,45.42L34.94,45.42C34.99,45.35,34.66,45.27,35.04,45.19C34.85,45.09,35.13,45.08,35.19,45.09C35.14,45.06,35.4,44.99,35.22,44.98C35.73,44.94,35.38,44.81,35.48,44.75L35.23,44.75C35.28,44.64,34.96,44.62,34.87,44.64C34.68,44.61,35.04,44.53,35.03,44.46C35.12,44.46,35.09,44.48,35.04,44.49C35.58,44.38,34.68,44.35,35.07,44.25C34.98,44.24,35.01,44.22,35.07,44.21C35.07,44.21,35.07,44.21,35.08,44.21C35.12,44.19,35.17,44.18,35.21,44.17C35.15,44.18,35.11,44.19,35.08,44.2C35.08,44.18,35.05,44.17,34.98,44.15L35.24,44.12L35.24,44.12C35.37,44.07,34.88,44.16,34.76,44.12C35.19,44.06,34.62,44.08,35.07,44.01C34.85,44.02,34.9,43.92,34.43,43.96C34.5,43.96,34.52,43.95,34.53,43.96C34.58,43.93,34.63,43.9,34.5,43.9L34.84,43.85L34.38,43.85C34.59,43.8,34.71,43.77,34.97,43.77C34.56,43.75,34.82,43.73,34.41,43.72L34.63,43.69C34.63,43.69,34.32,43.68,34.51,43.64C34.93,43.53,34.55,43.4,34.93,43.2C34.26,43.34,35.22,43.09,34.7,43.17C34.86,43.14,34.95,43.1,35.09,43.1C34.92,43.06,35.33,42.95,34.88,42.99C35.04,42.95,35.12,42.96,35.21,42.93C35,42.93,35.32,42.88,35.37,42.89C35.33,42.83,34.84,42.92,34.37,43.01C34.58,42.93,34.55,42.92,34.24,42.96C34.39,42.92,34.54,42.87,34.61,42.89C34.62,42.87,34.8,42.7,34.43,42.79C34.52,42.76,34.45,42.75,34.41,42.75C34.42,42.7,34.45,42.69,34.41,42.65C34.04,42.75,34.12,42.73,34.18,42.63C34.54,42.49,34.07,42.61,34.41,42.44L34.13,42.52C33.54,42.67,34.46,42.35,34.21,42.36L34.07,42.43C33.99,42.35,36.01,41.78,34.57,42.12C34.76,42.05,35.06,41.99,35.08,41.94C35.23,41.87,34.43,42.01,34.77,41.85C34.63,41.91,34.48,41.96,34.37,41.97C34.3,41.95,34.88,41.68,34.41,41.8L34.52,41.76C34.39,41.77,34.28,41.73,34.03,41.79C34.92,41.44,33.52,41.77,34.34,41.48L34.26,41.4L34.34,41.37C34.37,41.29,34.17,41.35,33.97,41.41C34.01,41.37,34.09,41.35,34.13,41.34C34.26,41.19,34.21,41.2,33.8,41.29L34.04,41.18C33.9,41.22,34.36,40.89,34.03,40.95C34.06,40.94,34.1,40.91,34.14,40.9C33.81,40.95,34.64,40.39,33.78,40.77L33.54,40.81C33.52,40.91,33.18,40.98,33.06,41.08C33,41.08,33.26,40.88,33.33,40.9L33.29,40.92C33.73,40.72,33.39,40.76,33.67,40.62C33.55,40.49,33.65,40.25,33.55,40.12L33.29,40.3L33.27,40.25C33.32,40.2,33.47,40.1,33.49,40.14C33.63,40.03,33.31,40.17,33.25,40.2C33.31,40.08,33.59,40.03,33.58,40.01L33.54,40C33.45,40.07,33.26,40.14,33.25,40.1C33.28,40.05,33.4,39.99,33.4,39.97C33.42,39.96,33.43,39.95,33.4,39.96L33.37,39.9C33.18,40.09,33.2,39.97,32.95,40.16C33.26,39.9,32.88,39.9,32.96,39.82C32.8,39.87,32.78,39.84,32.76,39.8C32.73,39.83,32.55,39.97,32.55,39.92C32.93,39.66,32.65,39.75,32.87,39.54C32.73,39.68,32.72,39.49,32.54,39.7C32.54,39.66,32.67,39.6,32.72,39.52C32.53,39.56,32.62,39.35,32.47,39.34C32.44,39.36,32.4,39.42,32.33,39.45L32.44,39.29C32.4,39.29,32.25,39.43,32.31,39.32C32.29,39.34,32.26,39.38,32.24,39.38C32.17,39.19,31.83,39.21,31.7,39.03C31.72,39.05,31.69,39.05,31.67,39.05C31.68,39.05,31.65,39.07,31.64,39.08C31.63,39.06,31.6,39.04,31.57,39.03C31.54,39.05,31.47,39.01,31.45,39.02L31.48,39.02C31.44,39.02,31.5,39.08,31.47,39.11C31.52,39.11,31.47,39.27,31.54,39.27C31.54,39.3,31.52,39.28,31.51,39.31C31.54,39.3,31.56,39.31,31.56,39.35L31.55,39.35C31.6,39.44,31.59,39.52,31.59,39.67L31.64,39.61C31.64,39.64,31.63,39.66,31.61,39.69C31.72,39.63,31.59,39.61,31.7,39.55C31.59,39.69,31.77,39.71,31.61,39.88C31.62,39.93,31.7,39.79,31.71,39.84L31.66,39.89L31.73,39.84C31.73,39.87,31.66,39.94,31.62,39.99C31.62,39.97,31.6,39.98,31.6,39.97C31.54,40.07,31.64,40.05,31.61,40.08L31.64,40.01C31.73,40.07,31.64,40.28,31.82,40.26L31.87,40.21C32.01,40.2,31.83,40.31,31.91,40.35L31.9,40.35C31.96,40.33,32,40.33,32,40.35C31.92,40.38,31.87,40.49,31.78,40.53C31.93,40.51,31.89,40.49,32.15,40.37L32.04,40.46C32.15,40.4,32.2,40.37,32.25,40.38C32.14,40.42,32.09,40.53,31.94,40.59C31.71,40.84,32.25,40.53,31.86,40.82C32.3,40.56,32.07,40.49,32.36,40.51C32.36,40.53,31.93,40.84,31.95,40.9C31.95,40.89,31.93,40.91,31.93,40.9C31.84,40.98,32.07,40.86,31.93,40.99C32.16,40.87,31.93,41.04,32.22,40.86L32.13,40.84C32.22,40.83,32.58,40.65,32.43,40.81C32.29,40.87,32.23,40.87,32.22,40.95C31.92,41.13,32.13,40.92,31.9,41.02C31.77,41.12,32.12,40.96,31.8,41.14C32.22,40.91,31.76,41.23,32.09,41.08L31.91,41.19C31.94,41.18,32.03,41.14,32.03,41.16L31.78,41.27C31.99,41.19,31.61,41.44,31.73,41.41C31.71,41.35,31.95,41.26,32.09,41.16C32.37,41.1,31.59,41.49,31.7,41.53C31.67,41.53,31.81,41.42,31.91,41.39C31.87,41.43,31.8,41.5,31.69,41.57C31.75,41.6,31.9,41.44,32.03,41.4C31.78,41.56,32.13,41.38,32.23,41.36L32.01,41.48C31.89,41.62,32.46,41.26,32.31,41.42L32,41.55L32.09,41.55L31.84,41.66C32.03,41.6,31.99,41.64,31.92,41.7C32.08,41.62,32.33,41.51,32.34,41.54C32.21,41.62,32.12,41.63,32.17,41.66C32.02,41.72,31.84,41.79,32.04,41.68C31.96,41.71,31.65,41.83,31.81,41.86C31.82,41.81,32.15,41.75,32.19,41.73C32.11,41.78,32.04,41.81,31.97,41.83C32,41.83,32.11,41.79,32.13,41.8C31.94,41.88,31.74,41.97,31.65,41.99L31.87,41.95C31.79,42,31.65,42.09,31.57,42.11C31.46,42.2,31.96,42.02,31.82,42.13C31.86,42.12,31.9,42.11,31.93,42.11C31.89,42.17,31.65,42.3,31.93,42.24L31.57,42.42C31.83,42.3,32.61,42.04,31.76,42.4C32.02,42.28,32.36,42.34,32,42.38L32,42.34C31.71,42.52,31.54,42.46,31.28,42.61Z" fill="currentColor"/><path d="M32.19,42.73C32.51,42.64,32.36,42.7,32.27,42.74C32.21,42.75,32.03,42.78,32.19,42.73Z" fill="currentColor"/><path d="M33.17,43.27C33.2,43.27,33.19,43.29,33.12,43.31C33.02,43.32,33.06,43.3,33.17,43.27Z" fill="currentColor"/><path d="M33.28,40.04C33.21,40.05,33.26,40.03,33.32,40Z" fill="currentColor"/><path d="M58.81,41.05C59.53,41.33,58.8,41.24,59.53,41.51L59.36,41.49C59.36,41.49,59.33,41.47,59.34,41.46C58.96,41.39,59.85,41.69,59.72,41.71C59.65,41.71,59.54,41.7,59.45,41.65L59.62,41.76C59.62,41.76,59.47,41.73,59.49,41.71L59.52,41.82L59.5,41.82C59.61,41.86,59.79,41.94,59.86,41.98C59.74,41.96,59.78,41.94,59.69,41.92L59.86,42.02C59.65,41.98,59.47,41.88,59.51,41.86C58.74,41.66,59.69,41.95,59.21,41.91C58.9,41.68,58.77,41.83,58.55,41.78C58.69,41.8,59.26,41.88,59.44,41.99C59.37,41.99,59.34,42,59.48,42.07C59.21,41.99,59.27,42.03,59.27,42.07L58.91,41.96C59,42.03,59.19,42.08,59.35,42.15C59.3,42.18,59.01,42.11,58.77,42.05C58.69,42.1,59.24,42.13,59.29,42.22C59.13,42.24,59.27,42.31,59.47,42.43C59.34,42.43,59.25,42.37,59.14,42.35L59.43,42.46C59.43,42.46,59.33,42.44,59.28,42.43C59.39,42.48,59.65,42.52,59.74,42.58C60.14,42.7,59.12,42.53,59.58,42.69C59.47,42.68,59.35,42.63,59.21,42.6C59.5,42.74,59.42,42.71,59.81,42.86L59.56,42.86C60,42.95,60.53,43.07,60.93,43.23C60.87,43.22,60.74,43.19,60.59,43.15L60.68,43.17C60.53,43.17,60.32,43.11,60.12,43.05C60.2,43.06,60.27,43.07,60.35,43.08C60.13,43.01,59.89,42.95,59.66,42.91C59.71,42.92,59.74,42.94,59.76,42.95C59.63,42.92,59.5,42.89,59.74,42.96L59.33,42.89L59.49,42.93L59.22,42.97C59.63,43.11,60.23,43.27,60.38,43.39C60.08,43.32,59.89,43.3,59.53,43.24C59.91,43.28,59.38,43.14,59.47,43.1C59.43,43.12,59.26,43.08,59.2,43.06L59.53,43.22C59.23,43.16,59.3,43.19,59.18,43.2C59.77,43.29,59.56,43.33,59.73,43.4C59.53,43.37,59.34,43.33,59.39,43.29C58.95,43.27,60.06,43.47,59.68,43.45C59.68,43.44,59.71,43.44,59.61,43.42C59.78,43.47,59.64,43.51,59.47,43.47L59.47,43.46C59.4,43.52,59.46,43.68,59.94,43.75C59.87,43.74,59.36,43.67,59.26,43.65L60.86,43.97C60.46,43.92,59.47,43.84,59.25,43.75C58.96,43.85,59.87,43.85,59.89,43.89C59.44,43.88,59.65,43.89,59.26,43.91C59.35,43.9,59.99,43.99,59.96,44.01C59.87,44,59.34,43.95,59.27,43.93L59.89,44.06C59.78,44.04,59.36,44.01,59.19,44.01C59.3,44.04,59.14,44.13,59.38,44.08C59.29,44.15,60.24,44.23,60.21,44.29C60.08,44.28,59.43,44.21,59.36,44.25C59.67,44.29,60.84,44.43,61.07,44.5L60.89,44.5L61.08,44.56C60.57,44.55,59.49,44.22,59.1,44.32C58.94,44.32,58.84,44.28,58.83,44.26L58.75,44.36C59.1,44.38,59.11,44.46,59.4,44.48L59.02,44.35C59.38,44.37,60.04,44.47,59.97,44.54C59.83,44.55,59.35,44.49,59.23,44.48C59.57,44.56,59.34,44.58,59.2,44.53C59.08,44.56,59.66,44.61,59.34,44.65C58.51,44.72,60.88,44.7,60.99,44.75C60.64,44.86,59.83,44.8,59.45,44.78C59.54,44.78,59.66,44.8,59.7,44.81C59.62,44.82,59.42,44.79,59.46,44.83C59.8,44.84,59.45,44.9,59.75,44.86C59.85,44.89,59.69,44.89,59.71,44.93C59.92,44.92,60.43,44.98,60.51,45.01C60.43,45.01,60.33,45.01,60.27,45.02C60.24,45.09,60.1,45.13,60.1,45.19C60.03,45.2,59.94,45.23,59.81,45.22C59.86,45.23,59.97,45.24,59.97,45.26C59.72,45.3,59.93,45.21,59.62,45.25C59.83,45.3,60.34,45.37,59.91,45.23C60.28,45.21,61.16,45.34,60.65,45.37C60.59,45.47,61.26,45.43,60.99,45.52C60.77,45.57,60.56,45.54,60.4,45.56C60.32,45.51,60.54,45.48,60.53,45.45C60.5,45.5,60.26,45.49,60.36,45.44C60.16,45.47,60.33,45.61,60.16,45.7C60.23,45.71,60.31,45.73,60.39,45.71L60.35,45.69C60.52,45.66,60.58,45.73,60.66,45.69C61.02,45.76,60.8,45.82,60.62,45.82C60.68,45.82,60.75,45.78,60.69,45.77C60.78,45.78,60.39,45.86,60.67,45.86C60.74,45.8,61.14,45.85,61.05,45.92C61.26,45.88,61.03,45.91,61.28,45.86C60.98,45.91,61.34,45.76,61,45.82C61.3,45.77,61.13,45.76,61.4,45.71C61.33,45.71,61.26,45.73,61.31,45.69C61.29,45.69,61.26,45.69,61.25,45.69L61.25,45.69C61.25,45.69,61.22,45.69,61.24,45.69C61.11,45.75,60.95,45.67,60.88,45.64C60.93,45.62,60.97,45.64,61.06,45.63L60.93,45.61C61.1,45.6,61.24,45.55,61.33,45.59L61.35,45.55C61.46,45.52,61.52,45.48,61.45,45.47C61.49,45.44,61.26,45.42,61.39,45.43L61.29,45.38L61.34,45.38C61.38,45.31,61.04,45.25,61.43,45.18C61.24,45.1,61.54,45.09,61.59,45.1C61.53,45.07,61.8,45.03,61.62,45.01C62.13,44.99,61.79,44.89,61.89,44.85L61.64,44.84C61.69,44.75,61.36,44.72,61.28,44.73C61.1,44.69,61.46,44.65,61.45,44.6C61.54,44.61,61.52,44.62,61.46,44.62C62.01,44.59,61.1,44.46,61.51,44.43C61.42,44.41,61.45,44.4,61.52,44.4C61.52,44.4,61.52,44.4,61.53,44.4C61.57,44.39,61.62,44.39,61.66,44.38C61.6,44.38,61.55,44.38,61.53,44.39C61.53,44.38,61.5,44.36,61.44,44.34L61.71,44.35L61.7,44.35C61.83,44.33,61.34,44.33,61.23,44.28C61.66,44.3,61.1,44.22,61.56,44.25C61.34,44.21,61.41,44.15,60.94,44.09C61,44.09,61.03,44.09,61.03,44.1C61.09,44.09,61.15,44.08,61.02,44.04L61.36,44.08L60.91,43.98C61.12,43.98,61.25,43.98,61.51,44.04C61.12,43.93,61.37,43.97,60.97,43.87L61.19,43.9C61.19,43.9,60.89,43.81,61.08,43.83C61.52,43.85,61.17,43.63,61.61,43.6C60.93,43.5,61.92,43.61,61.4,43.51C61.56,43.53,61.65,43.54,61.79,43.58C61.64,43.5,62.06,43.56,61.63,43.44C61.79,43.47,61.86,43.49,61.96,43.51C61.76,43.44,62.08,43.51,62.12,43.53C62.1,43.48,61.61,43.38,61.15,43.28C61.37,43.3,61.35,43.28,61.05,43.19C61.2,43.22,61.36,43.24,61.41,43.28C61.44,43.26,61.65,43.22,61.29,43.13C61.38,43.15,61.32,43.11,61.28,43.09C61.31,43.06,61.34,43.06,61.31,43.01C60.96,42.94,60.99,42.95,61.11,42.9C61.49,42.96,61.02,42.83,61.4,42.87L61.12,42.8C60.53,42.63,61.49,42.82,61.28,42.72C60.62,42.58,62.04,42.82,62.13,42.9C62.49,42.94,61.77,42.79,61.7,42.72C61.89,42.77,62.19,42.87,62.23,42.86C62.38,42.89,61.63,42.58,62,42.65C61.85,42.62,61.7,42.58,61.6,42.52C61.56,42.47,62.17,42.62,61.72,42.44L61.83,42.47C61.72,42.4,61.66,42.32,61.42,42.22C62.32,42.52,61.04,41.91,61.86,42.21L61.83,42.12L61.91,42.16C61.97,42.13,61.79,42.04,61.6,41.94C61.85,42.04,62.07,42.05,61.54,41.76L61.79,41.86C61.65,41.78,62.21,41.93,61.94,41.74C61.97,41.75,62.01,41.77,62.05,41.79C61.8,41.59,62.73,41.92,61.9,41.49L61.72,41.33C61.63,41.37,61.37,41.14,61.22,41.1C61.19,41.05,61.49,41.16,61.52,41.22L61.48,41.2C61.9,41.43,61.66,41.19,61.94,41.34C61.96,41.19,62.22,41.18,62.25,41.07L61.97,40.91L62,40.88C62.07,40.9,62.22,40.99,62.21,41.01C62.36,41.09,62.09,40.88,62.03,40.84C62.16,40.84,62.34,41.06,62.35,41.05L62.33,41.01C62.23,40.95,62.08,40.82,62.11,40.81C62.17,40.82,62.27,40.9,62.29,40.89C62.31,40.9,62.32,40.91,62.3,40.88L62.34,40.84C62.09,40.74,62.2,40.72,61.92,40.57C62.29,40.76,62.12,40.44,62.23,40.48C62.11,40.36,62.13,40.32,62.16,40.3C62.13,40.28,61.94,40.16,61.98,40.14C62.34,40.43,62.17,40.19,62.44,40.35C62.26,40.25,62.44,40.21,62.2,40.08C62.24,40.07,62.32,40.18,62.41,40.21C62.32,40.05,62.52,40.1,62.51,39.96C62.48,39.93,62.42,39.91,62.38,39.85L62.55,39.93C62.54,39.9,62.38,39.76,62.5,39.82C62.47,39.8,62.43,39.77,62.43,39.75C62.59,39.66,62.55,39.35,62.73,39.24C62.71,39.25,62.71,39.23,62.72,39.21C62.7,39.22,62.69,39.19,62.68,39.18C62.7,39.16,62.73,39.15,62.74,39.12C62.73,39.08,62.77,39.03,62.77,39L62.76,39.03C62.78,38.99,62.71,39.04,62.68,39C62.68,39.06,62.52,38.98,62.51,39.07C62.48,39.06,62.51,39.04,62.48,39.03C62.48,39.06,62.48,39.08,62.42,39.08L62.42,39.07C62.32,39.12,62.25,39.11,62.09,39.13L62.15,39.17C62.12,39.17,62.09,39.16,62.07,39.15C62.13,39.25,62.15,39.13,62.22,39.23C62.06,39.13,62.05,39.32,61.86,39.18C61.82,39.2,61.96,39.26,61.92,39.27L61.86,39.24L61.91,39.3C61.88,39.3,61.8,39.25,61.75,39.21C61.77,39.21,61.76,39.2,61.77,39.18C61.66,39.15,61.68,39.24,61.65,39.23L61.72,39.24C61.66,39.34,61.43,39.33,61.48,39.51L61.55,39.55C61.59,39.68,61.43,39.55,61.4,39.64L61.39,39.63C61.44,39.69,61.45,39.73,61.43,39.74C61.37,39.67,61.25,39.66,61.19,39.58C61.24,39.73,61.25,39.68,61.45,39.9L61.33,39.83C61.42,39.91,61.47,39.95,61.47,40.01C61.39,39.91,61.27,39.91,61.17,39.79C60.83,39.68,61.33,40.06,60.9,39.84C61.31,40.13,61.29,39.88,61.39,40.17C61.36,40.18,60.91,39.91,60.85,39.97C60.86,39.97,60.83,39.95,60.84,39.95C60.73,39.91,60.93,40.07,60.75,40C60.96,40.16,60.7,40.03,60.99,40.21L60.97,40.12C61.02,40.2,61.34,40.44,61.13,40.38C61.01,40.29,60.99,40.22,60.91,40.27C60.61,40.08,60.9,40.16,60.7,39.99C60.57,39.93,60.86,40.18,60.56,39.97C60.94,40.24,60.44,40,60.73,40.23L60.55,40.12C60.55,40.12,60.65,40.21,60.64,40.21L60.41,40.05C60.59,40.2,60.17,40.01,60.25,40.11C60.31,40.04,60.49,40.22,60.66,40.27C60.85,40.5,60.12,40.03,60.11,40.18C60.09,40.16,60.28,40.2,60.35,40.27C60.29,40.27,60.19,40.25,60.07,40.2C60.05,40.29,60.29,40.3,60.39,40.4C60.12,40.29,60.47,40.48,60.52,40.55L60.31,40.44C60.12,40.44,60.74,40.69,60.53,40.68L60.25,40.49L60.3,40.57L60.06,40.44C60.21,40.57,60.16,40.56,60.06,40.56C60.22,40.63,60.46,40.77,60.44,40.8C60.3,40.76,60.24,40.69,60.24,40.75C60.1,40.67,59.94,40.57,60.16,40.65C60.07,40.6,59.79,40.43,59.86,40.6C59.91,40.56,60.16,40.81,60.2,40.83C60.1,40.8,60.04,40.76,59.98,40.72C59.99,40.74,60.09,40.8,60.1,40.83C59.91,40.74,59.72,40.65,59.65,40.58L59.81,40.74C59.73,40.71,59.56,40.68,59.49,40.63C59.35,40.62,59.8,40.9,59.62,40.88C59.65,40.9,59.69,40.92,59.71,40.95C59.64,40.98,59.36,40.92,59.61,41.09L59.22,40.98C59.48,41.08,60.24,41.44,59.37,41.13C59.54,41.23,59.9,41.42,59.56,41.36C59.5,41.32,59.56,41.33,59.54,41.3L59.53,41.33C59.18,41.32,59.11,41.09,58.81,41.05Z" fill="currentColor"/><path d="M59.38,41.92C59.69,42.03,59.54,42,59.44,41.99C59.39,41.96,59.22,41.88,59.38,41.92Z" fill="currentColor"/><path d="M59.94,43.05C59.96,43.06,59.95,43.07,59.87,43.07C59.78,43.05,59.83,43.04,59.94,43.05Z" fill="currentColor"/><path d="M62.18,40.85C62.14,40.8,62.18,40.83,62.23,40.87Z" fill="currentColor"/></svg>