<svg xmlns="http://www.w3.org/2000/svg" viewBox="0 0 90 90"><path d="M64.04,72.05C62.59,72.71,61.15,73.36,59.77,73.98C59.08,75.14,56.35,73.22,54.28,74.16L52.19,70.96L52.69,74.81C52.48,74.88,52.27,74.96,52.06,75.03L51.06,73.03L50.83,75.41C50.36,75.55,49.89,75.68,49.4,75.8L47.86,74.35L47.69,76.19C45.58,76.61,43.32,76.86,41.07,76.92L41.07,76.94C40.92,76.94,40.77,76.93,40.61,76.93C40.59,76.93,40.56,76.93,40.53,76.93L40.53,71.82C40.06,72.82,39.73,73.91,39.57,75.02C39.37,74.95,39.17,74.88,38.97,74.81L39.47,70.96L37.38,74.16C35.31,73.22,32.59,75.14,31.89,73.98C30.45,73.33,28.99,72.69,27.52,72.05C19.87,81.62,9.98,90.75,5.96,89.01C0.54,86.67,3,62.17,6.35,50C4.77,46.67,4.57,43.52,4.93,40.88L5.46,40.97L8.25,39.51L5.1,39.9C5.1,39.9,5.1,39.89,5.1,39.88L7.59,38.44L5.65,37.76C5.95,36.86,6.28,36.07,6.59,35.44L8.38,34.99L7.2,34.28C7.5,33.77,7.7,33.49,7.7,33.49C7.7,33.49,7.86,32.8,8.1,31.72L10.24,31L8.38,30.46C9.37,25.96,11.12,18.08,11.1,18.25C12.23,13.11,19.3,9.87,23.43,6.85L23.34,6.72L29.74,3.88L28.5,0.69L31.51,2.99L31.34,0.69L33.11,2.11L33.11,-0.38L34.7,1.22L38.43,-0.38L39.84,0.68L43.21,-0.38L44.27,0.86L47.82,0.51L50.12,0.68L52.07,-0.56L53.49,1.74L56.15,-0.38L59.52,1.03L60.4,2.63L62.35,2.1L62.71,3.87L65.55,2.46L65.55,4.76L68.5,6.5C68.42,6.62,68.34,6.73,68.25,6.84C72.37,9.86,79.45,13.1,80.58,18.24C80.68,18.04,81.54,21.86,82.36,25.72L80.43,26.74L82.64,27.04C83.05,28.96,83.42,30.78,83.67,31.99L82.83,32.46L83.9,33.08C83.95,33.34,83.98,33.48,83.98,33.48C83.98,33.48,84.73,34.6,85.47,36.55L84.29,36.84L85.92,37.87C85.98,38.06,86.04,38.25,86.1,38.46L83.62,38.56L86.32,39.35C87.03,42.35,87.32,46.32,85.98,50.83C89.2,63.36,91.3,86.89,85.93,89.21L85.91,89.22C81.8,91,71.78,81.71,64.04,72.05Z" fill="currentColor"/><path d="M45.79,18.02C45.75,18.02,45.71,18.02,45.68,18.02C45.64,18.02,45.6,18.02,45.55,18.02C37.64,18.43,30.93,18.76,32.35,11.46C32.81,9.12,36.05,8.58,39.43,6.4C40.59,5.23,43.1,4.11,45.67,4.11C48.24,4.11,50.87,5.24,52.04,6.4C55.41,8.58,58.36,8.99,59.11,11.46C61.26,18.58,53.82,18.43,45.91,18.01L45.91,18.02C45.87,18.02,45.83,18.02,45.79,18.02Z" fill="currentColor"/><path d="M74.03,13.76C66.76,11.1,64.11,12.52,65.52,11.1C66.94,9.69,54.36,9.51,54.36,9.51L57.54,15.36C57.54,15.36,78.64,14.83,77.75,28.83L77.76,28.83C77.76,28.83,81.3,16.42,74.03,13.76Z" fill="currentColor" opacity="0.45"/><path d="M16.77,13.76C24.03,11.1,26.69,12.52,25.28,11.1C23.86,9.69,36.44,9.51,36.44,9.51L33.25,15.36C33.25,15.36,12.16,14.83,13.05,28.83L13.04,28.83C13.04,28.83,9.5,16.42,16.77,13.76Z" fill="currentColor" opacity="0.45"/><path d="M66.57,49.39C62.32,46.13,61.79,43.03,61.08,45.95C60.36,48.87,59.48,49.56,58.59,47.85C57.71,46.13,54.69,52.32,54.16,46.81C53.63,41.3,52.75,38.21,51.51,38.72C50.26,39.24,50.79,28.74,50.79,28.74C50.79,28.74,60.01,16.52,67.1,20.65C74.19,24.78,79.69,24.09,72.42,39.75L72.42,39.76C72.42,39.76,70.83,52.66,66.57,49.39Z" fill="currentColor" opacity="0.45"/><path d="M25.4,49.39C29.65,46.13,30.18,43.03,30.89,45.95C31.61,48.87,32.49,49.56,33.38,47.85C34.26,46.13,37.28,52.32,37.81,46.81C38.34,41.3,39.22,38.21,40.46,38.72C41.71,39.24,41.18,28.74,41.18,28.74C41.18,28.74,31.96,16.52,24.87,20.65C17.78,24.78,12.29,24.09,19.55,39.75L19.55,39.76C19.55,39.76,21.14,52.66,25.4,49.39Z" fill="currentColor" opacity="0.45"/><path d="M22.27,39.73C24.63,40.35,31.54,41.34,33.44,40.44C38.05,37.28,38.41,29.01,38.41,29.01C38.41,29.01,35.74,27.17,34.54,26.06C31.17,22.92,26.01,22.97,22.24,25.48C17.72,28.48,17.29,35.09,21.17,38.89L21.17,38.89C21.53,39.24,21.9,39.53,22.27,39.73Z" fill="currentColor"/><path d="M37.55,31.95C37.21,29.37,35.62,27.04,33.29,25.89C27.64,23.09,19.02,26.21,18.38,33.77C21.97,41,34.59,43.85,37.55,31.95Z" fill="currentColor"/><path d="M35.11,32.62C35.11,36.31,32.12,39.3,28.43,39.3C24.74,39.3,21.75,36.31,21.75,32.62C21.75,28.94,24.74,25.95,28.43,25.95C32.12,25.95,35.11,28.94,35.11,32.62Z" fill="currentColor"/><path d="M32.21,34.67C32.21,35.6,31.45,36.36,30.51,36.36C29.58,36.36,28.82,35.6,28.82,34.67C28.82,33.73,29.58,32.97,30.51,32.97C31.45,32.97,32.21,33.73,32.21,34.67Z" fill="currentColor"/><path d="M69.37,39.73C67.01,40.35,60.1,41.34,58.21,40.44C53.6,37.28,53.24,29.01,53.24,29.01C53.24,29.01,55.9,27.17,57.11,26.06C60.48,22.92,65.63,22.97,69.41,25.48C73.93,28.48,74.36,35.09,70.48,38.89L70.47,38.89C70.12,39.24,69.75,39.53,69.37,39.73Z" fill="currentColor"/><path d="M54.1,31.95C54.44,29.37,56.03,27.04,58.36,25.89C64.01,23.09,72.63,26.21,73.27,33.77C69.68,41,57.06,43.85,54.1,31.95Z" fill="currentColor"/><path d="M69.9,32.62C69.9,36.31,66.91,39.3,63.22,39.3C59.53,39.3,56.54,36.31,56.54,32.62C56.54,28.94,59.53,25.95,63.22,25.95C66.91,25.95,69.9,28.94,69.9,32.62Z" fill="currentColor"/><path d="M66.25,34.67C66.25,35.6,65.49,36.36,64.56,36.36C63.62,36.36,62.87,35.6,62.87,34.67C62.87,33.73,63.62,32.97,64.56,32.97C65.49,32.97,66.25,33.73,66.25,34.67Z" fill="currentColor"/><path d="M86,89.2C81.91,90.94,71.91,81.65,64.15,72.08C62.66,72.72,61.17,73.35,59.7,74C59,75.16,56.4,73.22,54.3,74.16L52.19,70.97L52.7,74.83L52.06,75.03C52.06,75.03,51.53,74.06,51.04,73.06L50.84,75.45C50.82,75.45,49.43,75.83,49.43,75.83C49.45,75.81,47.88,74.41,47.88,74.41L47.72,76.18C47.72,76.18,46.68,76.43,45.7,76.55L45.69,75.51L45.69,76.55C44.18,76.77,42.62,76.91,41.07,76.95L41.07,76.97C40.92,76.97,40.77,76.96,40.61,76.96C40.59,76.96,40.56,76.96,40.53,76.96L40.53,71.85C40.06,72.85,39.73,73.94,39.57,75.05C39.37,74.98,39.17,74.91,38.98,74.84L39.47,70.99L37.38,74.19C35.31,73.25,32.59,75.17,31.89,74.01C30.45,73.36,28.99,72.72,27.52,72.08C19.87,81.65,9.98,90.78,5.96,89.04C4.58,88.45,3.71,86.4,3.24,83.5L12.02,74.22L10.78,51.89C10.78,51.89,15.92,48.35,17.34,47.28C18.75,46.22,19.64,48.17,18.58,51.01C17.52,53.84,20.35,54.55,21.06,54.02C21.77,53.49,21.42,54.73,21.24,55.26C21.06,55.79,24.25,54.02,24.25,54.02L23.01,57.74L26.02,55.62L26.02,59.34L29.56,56.86C29.56,56.86,27.08,66.78,29.74,60.93L32.4,55.08L33.28,59.51L35.77,49.94C35.77,49.94,36.12,55.97,36.3,55.25C36.47,54.54,37.89,49.4,37.89,49.4L38.6,54.01C38.6,54.01,41.79,51.53,41.26,46.22C41.26,46.22,43.39,33.81,41.97,27.61C40.56,21.4,40.56,17.77,40.56,17.77L45.7,18.13L45.7,18.84L50.93,18.22C50.93,18.22,50.93,21.4,49.49,27.61C48.05,33.81,50.21,46.22,50.21,46.22C49.67,51.54,52.91,54.02,52.91,54.02L53.63,49.41C53.63,49.41,55.07,54.55,55.25,55.26C55.43,55.97,55.79,49.94,55.79,49.94L58.31,59.51L59.21,55.08L61.91,60.94C64.61,66.79,62.09,56.86,62.09,56.86L65.69,59.34L65.69,55.62L68.75,57.75L67.49,54.02C67.49,54.02,70.73,55.8,70.56,55.27C70.38,54.73,70.01,53.49,70.74,54.02C71.46,54.55,74.33,53.85,73.26,51.01C72.18,48.17,73.07,46.23,74.51,47.29C75.95,48.35,82.53,53.67,82.53,53.67L79.91,74.23L88.83,83.5L88.79,83.49C88.31,86.4,87.4,88.6,86,89.2Z" fill="currentColor"/><path d="M8.03,86.3C8.03,86.3,4.44,85.37,5.51,73.4C6.57,61.44,7.77,57.32,7.77,57.32L11.76,56.39C11.76,56.39,7.5,55.86,8.17,52.4C8.83,48.94,11.76,49.74,11.76,49.74L10.43,53.87L13.89,52.67L11.76,54.66L14.81,54.13L13.22,55.46L16.81,54.4L11.63,61.18L18.14,56.93L14.68,61.05L18.54,58.79L16.81,61.98L22.52,59.72L18.93,64.5L21.46,63.84L19.86,66.23L23.85,64.63L21.85,68.09L26.77,65.17L25.98,68.63L25.98,68.62C25.98,68.62,15.88,86.43,8.03,86.3Z" fill="currentColor"/><path d="M84.28,86.3C84.28,86.3,87.87,85.37,86.8,73.4C85.74,61.44,84.54,57.32,84.54,57.32L80.55,56.39C80.55,56.39,84.81,55.86,84.14,52.4C83.48,48.94,80.55,49.74,80.55,49.74L81.88,53.87L78.42,52.67L80.55,54.66L77.5,54.13L79.09,55.46L75.5,54.4L80.68,61.18L74.17,56.93L77.63,61.05L73.77,58.79L75.5,61.98L69.79,59.72L73.38,64.5L70.85,63.84L72.45,66.23L68.46,64.63L70.46,68.09L65.54,65.17L66.33,68.63L66.33,68.62C66.33,68.62,76.43,86.43,84.28,86.3Z" fill="currentColor"/><path d="M15.63,34.22C16.56,34.07,14.97,34.04,15.54,33.77C16.1,32.87,15.81,33.46,15.44,33.99C15.64,34.14,16.05,33.28,15.69,34.09C16,33.91,16.19,33.31,15.83,34.13C16.4,34.43,16.07,35.33,15.88,35.99C17.41,32.92,15.85,37.16,16.86,35.28C16.76,34.65,17.15,35.26,17.02,35.59C17.73,35.86,17.45,35.53,16.91,36.96C18.43,34.27,17,37.14,17.94,35.72C17.48,36.98,17.88,35.59,18.16,35.85C18.17,35.83,17.74,36.68,17.81,36.79C18.67,35.11,16.9,39.48,18.37,36.06C18.9,35.44,18.77,35.81,18.57,36.33C18.8,35.23,18.11,36.93,18.3,36.84C19.04,35.81,18.96,36.55,18.02,37.87C20.05,35.35,17.93,38.38,19.38,37.34C19.77,36.96,18.71,38.23,19.17,38.2C19.3,39.55,19.47,37.09,19.82,38.27C19.29,38.98,20.15,38.39,19.8,38.76C19.5,39.77,19.67,38.36,18.94,38.99C16.98,38.66,17.47,36.56,15.33,37.2C15.4,36.82,15.16,34.72,14.16,36.53C13.22,34.97,12.52,32.81,11.85,32.86C9.67,27.62,12.73,30.74,13.05,32.15C13.56,31.9,13.17,31.8,13.58,31.67C13.04,32.37,14.56,31.48,13.58,32.08C14.8,31.83,13.69,32.28,14.04,32.35C13.87,32.76,13.86,32.63,14.33,32.35C14.4,32.61,13.8,32.88,14.26,32.77C14.75,32.06,14.64,33.22,15.5,33.04C14.78,33.45,15.33,33.52,15.31,33.5L15.32,33.51C16.49,32.43,14.84,34.75,15.63,34.22Z" fill="currentColor"/><path d="M15.42,33.9C15.27,34.19,15.36,34.06,15.44,34C15.45,33.94,15.51,33.76,15.42,33.9Z" fill="currentColor"/><path d="M19.12,38.86C19.04,38.91,19.08,38.9,19.12,38.87Z" fill="currentColor"/><path d="M14.99,25.9C15.19,25.92,13.27,24.64,14.9,25.59C14.34,24.85,15.84,24.66,16.92,25.21C14.69,23.96,17.65,24.7,16.17,24.25C15.92,23.82,16.37,24.14,16.68,24.15C15.88,23.5,16.77,24.26,16.73,24.05C16.78,23.5,16.91,23.47,18,24.53C15.81,22.14,18.14,24.46,17.13,23.18C18.08,24.13,16.97,22.81,17.39,23.14C17.44,22.99,18.03,23.75,18.1,23.65C16.84,22.03,18.5,24,18.79,24.21C18.25,23.25,16.51,21.7,18.31,23.21C17.09,20.81,20.28,25.65,18.42,22.56C18.82,22.74,19.56,23.63,19.2,22.33C19.44,23.35,20.71,23.45,19.81,22.85C20.32,22.45,20.85,23.12,20.7,23.62C20.16,22.52,20.1,25.13,19.32,24.41C19.23,23.94,18.8,24.85,18.93,24.93C18.16,24.39,18.28,24.92,18.08,24.87C17.65,24.91,18.3,26.04,17.76,25.74C18.91,26.59,16.62,25.12,17.45,25.72C17.21,26.11,15.82,25.86,17.47,26.78C15.45,28.23,16.11,28.59,15.19,32.66C14.17,30.86,14.22,29.62,14.72,29.2C13.55,29.31,14.73,29,13.95,28.95C13.97,28.66,13.71,28.82,14.29,28.89C14.01,28.49,13.52,28.49,14.4,28.4C14.22,28.13,13.69,27.28,14.32,26.52L14.32,26.52C12.94,26.17,15.38,26.12,14.99,25.9Z" fill="currentColor"/><path d="M14.81,25.63C15.1,25.76,14.97,25.67,14.91,25.59C14.84,25.58,14.67,25.53,14.81,25.63Z" fill="currentColor"/><path d="M78.54,37.03C78.17,35.92,77.76,36.39,78.15,36.92C77.56,36.27,77.01,35.98,77.31,36.77C76.39,36.13,75.71,34.92,76.77,36.5C76.94,37.31,76.22,36.02,76.49,37.17C75.55,35.81,76.45,38.5,74.8,36.11C76.37,38.78,74.77,36.15,75.23,37.73C74.77,37.16,74.37,36.66,74.97,37.74C72.87,35.3,74.7,37.17,75.07,38.39C74.1,36.44,75.05,39.59,73.5,36.71C74.93,39.54,72.84,36.39,73.44,38.35C73.28,37.41,71.58,37.33,72.63,37.79C73.03,38.76,71.73,37.59,72.07,37.97C71.5,37.99,71.58,37.27,72.17,37.62C71.76,36.63,74.35,35.36,74.52,36.05C74.36,35.67,75.31,35.95,75.22,34.84C75.39,34.05,76.02,35.61,75.84,34.98C77.02,35.02,76.8,34.67,76.57,33.73C77.18,35.49,77.13,32.47,78.44,32.8C79.29,33.57,77.99,32.46,78.72,31.81C79.13,32.19,79,31.84,78.79,31.64C79.62,31.99,82.17,27.65,81.15,30.99C79.89,32.52,80.51,32.15,80.15,32.56C79.34,32.18,80.74,33.53,80.02,33.07C80.82,34.16,79.38,33.16,79.88,33.71C79.79,33.88,79.51,34,79.72,33.94C80.38,34.34,79.03,33.93,79.98,34.41C80.13,34.43,79.15,34.82,79.72,35.19C79.1,34.65,79.23,35.2,79.23,35.16L79.23,35.17C80.06,36.01,77.99,34.56,78.54,37.03Z" fill="currentColor"/><path d="M75.42,27.12C74.82,27.34,75.56,26.7,75.48,26.74C74.77,27.18,75.08,27.02,74.86,26.95C73.65,27.51,74.9,27.01,75.09,26.72C74.89,26.77,74.05,27.12,74.84,26.58C74.6,26.01,76.26,24.44,74.9,25.58C73.95,26.26,74.97,25.24,75.13,24.79C73.83,26.34,74.76,24.78,74.33,25.39C74.14,25.48,74.82,24.67,74.27,25.17C73.72,24.75,75.78,23.07,73.79,24.94C74.04,24.77,74.42,23.94,73.7,24.86C74.32,23.75,73.77,24.94,73.53,24.74C73.52,24.76,74.05,23.97,73.99,23.85C72.85,25.4,74.49,23.08,74.22,22.9C73.61,24.39,72.95,24.93,73.16,24.68C73.99,23.15,73.07,24.65,73.03,24.21C72.46,24.85,73.86,22.92,73.85,22.78C72.26,25.61,73.11,21.12,72.5,22.58C71.78,23.24,72.28,22.35,71.87,21.81C72.27,21.73,72.26,21.48,72.31,22.13C72.5,21.73,74.28,21.66,74.19,22.38C73.81,22.84,74.82,22.43,74.8,22.78C75.21,22.69,74.63,23.96,75.17,23.33C74.67,23.64,75.85,24.1,76.54,24.02C76.2,24.67,76.26,25.65,76.62,25.59C76.1,25.88,78.39,24.8,77.1,25.59C78.36,24.77,76.55,26.6,77.58,26.62C77.85,29.25,78.39,28.72,77.2,32.39C75.98,30.12,77.33,29.47,75.73,28.99C76.78,28.47,75.02,28.62,75.27,27.57L75.28,27.56C74.25,27.96,75.09,27.56,75.42,27.12Z" fill="currentColor"/><path d="M75.03,26.9C75.31,26.73,75.17,26.79,75.07,26.81C75.02,26.85,74.87,26.96,75.03,26.9Z" fill="currentColor"/><path d="M58.38,19.82C57.77,19.09,58.31,19.46,58.07,19.15C57.75,17.94,58.09,19.36,58.42,19.42C57.99,18.94,59.04,18.48,60.04,20.26C60.36,20.29,58.63,17.7,60.37,19.77C59.3,18.05,60.47,19.41,60.07,18.82C59.96,18.38,60.42,19.42,60.34,19.05C60.15,18.51,61.11,19.45,60.55,18.55C62.04,21.61,60.1,17.16,61.18,19.09C60.66,17.67,61.49,19.77,61.03,18.33C61.9,19.39,61.13,17.96,62.12,19.99C62.09,19.38,60.66,16.74,61.95,18.91C61.61,16.94,62.32,19.08,62.47,19.81C62.27,17.72,62.23,18.6,62.73,19.01C63.29,17.68,62.83,19.48,63.64,19.56C63.55,18.86,63.24,18.63,63.78,18.91C64.05,19.44,64.35,19.74,64.08,19.48C63.98,20.38,63.89,18.78,63.66,20.03C63.14,19.39,63.03,21.19,62.75,20.43C62.34,19.98,62.36,20.48,62.05,20.51C61.96,20.76,61.87,20.1,61.84,20.59C61.44,19.82,60.74,20.62,60.77,21.34C60.29,20.83,59.4,20.57,59.5,21.02C59.26,20.39,59.7,21.78,59.82,21.83C59.9,22.19,59.63,21.51,59.52,21.46C60,22.38,59.57,21.58,59.43,21.82C58.22,20.75,58.49,23.75,57.17,21.69C58.18,22.79,53.85,24.44,54.27,23.75C54.93,22.01,55.78,22.45,55.68,21.66C55.83,21.35,56.37,22.33,56.09,21.63C55.66,21.12,56,20.62,56.65,21.06C56.31,20.77,56.37,20.48,56.82,20.92C56.74,20.73,56.53,20.39,56.63,20.66C56.16,20.07,57.23,20.92,56.53,20.14C56.44,20.03,57.34,20.14,57.03,19.54C57.39,20.27,57.46,19.75,57.45,19.77L57.45,19.74C56.76,18.76,58.16,19.88,58.38,19.82Z" fill="currentColor"/><path d="M32.83,21.37C31.83,23.13,32.8,21.11,32.16,22.05C32.62,20.8,31.64,22.85,32.2,21.58C31.23,20.97,32.94,18.9,31.42,21.09C31.88,19.41,31.47,20.12,31.31,21.05C31.14,20.77,31.4,20.86,31.26,20.39C30.96,21.4,31.31,20.07,31.17,20.47C30.85,20.62,30.95,19.72,30.71,20.64L31.12,19.05C30.94,19.35,30.59,20.83,30.51,20.53C30.75,20.01,30.78,19.85,30.42,20.5C30.82,19.17,30.01,21.64,30.35,19.43C29.75,21.47,30.57,18.33,30.32,18.7C30.19,18.31,30.12,20.75,29.69,20.76C30,19.78,30.15,19.69,29.57,20.09C29.41,20.32,30.29,17.05,29.44,19.93C29.42,19.88,29.36,18.14,28.87,19.62C29.03,17.88,28.9,18.34,28.31,18.98C28.38,17.89,28.3,18.66,28,18.05C28.54,17.62,28.17,18.52,28.81,17.75C29.77,17.96,31.19,17.74,30.98,18.9C32.93,18.27,32.09,19.41,33.21,19.79C32.92,20.32,34.25,18.18,33.58,19.53C33.86,18.55,34.07,20.77,35.16,20.46C36,20.09,34.65,21.99,35.19,21.35C36.8,21,36.04,21.92,37.93,23.84C36.67,24.6,35.91,22.04,35.36,22.97C35.31,22.19,35.58,22.72,34.94,22.87C34.79,22.6,34.43,23.28,34.63,22.42C34.24,22.96,34.68,22.26,34.55,22.29C34.39,22.7,34.11,22.76,34.37,22.2C33.99,22.66,33.94,22.93,34.11,22.27C33.09,23.47,33.57,21.53,33.15,22.17L33.15,22.17C32.61,23.3,33.01,21.43,32.83,21.37Z" fill="currentColor"/><path d="M42.09,48.74C43.43,48.76,43.48,48.92,42.43,49.03C44.21,49.54,39.6,50.93,42.01,50.52C43.03,50.9,41.6,50.86,41.17,51.14C43.33,50.87,41.33,51.54,42.15,51.35C42.29,51.51,41.31,51.47,42.01,51.66C41.98,52.73,39.79,51.66,42.1,52.43C41.9,52.36,40.91,52.51,42.06,52.61C40.67,52.73,42.23,52.5,42.02,52.92C42.04,52.92,41.09,52.88,41.01,53.01C43.05,53.29,40.48,53.05,40.1,53.17C40.65,53.46,43.86,53.3,41.14,53.56C42.9,54.04,41.31,54.08,40.08,53.71C43.1,54.65,39.4,54.03,41.17,55.06C39.67,54.88,39.86,54.89,40.42,55.83C39.29,55.59,39.94,56.61,39.17,55.63C39.96,55.89,39.28,54.77,39.34,54.1C38.43,53.5,40.32,53.84,39.69,53.25C39.79,52.3,40.12,52.29,40.44,51.89C39,50.42,40.89,50.57,40.37,49.55C41.73,49.34,38.71,49.14,40.12,49.05C39.16,49.11,39.85,48.78,40.27,48.7C40.32,48.27,39.8,47.75,40.52,47.15C39.33,46.72,40.88,45.26,39.9,44.89C40.83,45.04,38.99,39.41,40.67,41.81C41.72,44.68,41.22,44.52,42.36,45.41C41.36,45.9,43.13,46.57,42.6,47.71L42.6,47.7C43.84,47.43,42.14,48.57,42.09,48.74Z" fill="currentColor"/><path d="M52.33,48.14C51.38,48.91,51.99,48.62,52.97,49.01C51.13,48.75,53.35,49.2,51.62,49.81C53.37,50.33,49.09,50.61,51.18,50.55C51.31,50.27,52.81,50.52,50.91,51.13C51.99,51.04,51.69,50.7,52.13,51.06C51.24,51.12,51.79,51.47,51.91,51.17C52.12,51.29,51.07,51.41,51.83,51.48C51.76,52.09,51.99,51.74,50.46,52.26C53.43,51.81,50.37,52.54,52.17,52.45C51.45,53.28,51.75,52.57,50.4,53.56C51.99,52.91,52.53,52.9,52.41,53.03C50.17,53.54,54.09,53.29,50.56,53.98C53.64,53.66,50.1,54.59,52.14,54.73C50.17,55.45,51.67,55.3,51.49,56.27C50.44,56.75,51.45,56,50.5,55.72C50.34,54.67,49.71,54.55,50.03,53.72C49.37,52.87,50.76,52.45,49.96,52.44C50.5,52.61,50.08,51.34,49.48,51.13C49.39,50.62,50.16,50.33,50.22,49.6C50.83,49.57,49.85,49.45,50.09,49.34C50.68,49.34,48.18,49.12,49.68,49.07C48.7,49.2,49.61,48.49,50.11,48.16C49.78,47.64,49.37,46.27,50.33,46.01C51.44,46.33,49.71,45.79,50.12,44.81C50.58,45.02,50.48,43.08,51.96,40.84C52.32,43.1,51.37,44.09,51.93,44.71C51.01,45.09,53.14,45.53,51.69,46.1C52.36,46.25,52.43,47.35,52.21,47.84L52.2,47.83C53.58,47.79,52.08,48.05,52.33,48.14Z" fill="currentColor"/><path d="M52.13,48.85C51.8,48.87,51.96,48.89,52.05,48.93C52.11,48.91,52.29,48.86,52.13,48.85Z" fill="currentColor"/><path d="M56.12,67.52C57.47,67.26,56.94,67.46,56.6,67.64C57.23,67.65,57.22,67.4,56.44,67.87C56.98,67.77,56.52,67.87,56.17,68C57.74,67.85,54.76,68.65,55.34,68.57C55.52,68.55,56.45,68.19,56.42,68.28C56.93,68.33,54.61,69.04,56.39,68.54C56.09,68.51,57.26,68.17,56.21,68.7C57.17,68.37,56.07,68.73,56.26,68.74C57.01,68.82,56.38,68.94,55.2,69.46C58.07,68.41,55.37,69.54,56.74,69.04C55.56,69.55,57.03,68.97,56.65,69.19C56.75,69.21,55.86,69.56,55.92,69.61C57.88,68.79,54.91,70.1,55.34,70.03C57.61,68.86,57.81,69.28,55.35,70.32C56.19,70.19,57.06,69.48,56.6,69.99C55.32,70.56,57.02,70.24,56.53,70.32C54.45,71.68,57.3,70.31,56.11,71.09C55.77,71.56,56.35,70.97,56.21,71.25C55.6,71.67,55.62,71.52,55.63,71.42C56.19,70.99,55.52,71.41,55.31,71.29C55.24,71.27,55.57,70.87,55.15,70.97C54.5,70.76,54.65,69.72,55.15,69.48C55.05,69.61,53.98,68.94,54.32,68.93C53.36,69.2,54.52,68.81,54.88,68.62C53.86,68.92,54.97,68.33,54.79,68.31C54.53,68.31,54.5,68.23,54.78,68.18C55.42,68.06,54.1,68.16,54.79,68.07C54.83,67.97,52.76,68.41,54.21,68.04C52.82,68.38,55.23,67.37,54.1,67.39C54,66.2,54.6,66.75,54.14,65.86C54.5,65.8,54.13,64.98,55.1,63.85C55.55,64.94,55.92,65.46,55.27,65.53C55.55,65.55,56.27,65.66,55.59,65.74C55.09,65.8,55.99,65.81,56.09,65.74C55.5,66.05,56.91,65.83,55.81,66.29C56.66,66.2,55.75,66.38,56.06,66.43C56.48,66.3,56.57,66.37,56.07,66.5C57.29,66.4,56.24,66.84,56.56,66.99L56.57,67C57.85,66.72,56.07,67.39,56.12,67.52Z" fill="currentColor"/><path d="M56.59,67.47C56.27,67.54,56.43,67.52,56.52,67.52C56.58,67.5,56.76,67.44,56.59,67.47Z" fill="currentColor"/><path d="M55.98,68.42C55.96,68.44,55.97,68.44,56.04,68.44C56.13,68.41,56.08,68.41,55.98,68.42Z" fill="currentColor"/><path d="M47.51,62.98C47.67,62.67,48.17,62.23,47.57,62.64C46.77,62.4,46.65,62.7,47.54,62.27C46.61,62.29,47.41,60.9,48.98,60.53C46.25,61.14,48.98,60.11,47.19,60.19C48.07,60.1,47.52,59.76,47.4,60.07C47.2,59.95,48.22,59.79,47.47,59.75C47.15,59.37,48.49,59.2,47.24,59.39L48.83,58.99C48.15,59.09,46.25,59.23,47.86,59.03C46.94,58.95,47.53,58.96,47.92,58.81C47.23,58.89,47.09,58.92,47.84,58.7C46.54,58.85,47.57,58.54,48.14,58.28C46.03,58.53,49.24,58.01,48.81,57.9C49.25,57.68,45.24,58.71,47.32,57.89L46.95,58.12C48.65,57.82,45.46,57.49,48.87,57.39C46.41,57.54,48.37,56.56,47.76,56.44C50.1,55.78,47.27,56.03,48.18,55.46C48.25,55.67,49.05,55.17,48.41,55.22C49.17,54.94,49,55.22,48.86,55.54C49.66,56.17,49.37,57.32,49.47,58.16C49.9,58.29,48.28,59.15,49.48,58.93C48.24,59.17,50.25,59.99,49.67,60.28C51.08,60,48.46,60.76,49.46,60.56C49.81,60.73,49.03,61.09,49.19,61.24C49.49,61.34,49.47,61.47,49.21,61.47C48.6,61.58,49.59,61.56,49.37,61.7C48.77,61.79,51.28,61.58,49.81,61.88C50.87,61.71,49.9,61.91,50.13,62.16C49.32,62.39,50.33,62.83,49.75,63.45C50.75,65.64,50.01,65.64,50.79,69.67C49.18,68.85,49.7,66.48,48.84,66.55C48.52,66.25,49.81,66.1,48.94,66.07C48.59,66.49,48.6,66.35,48.74,66C47.9,65.84,48.2,65.63,48.57,65.12C47.94,65.5,48.37,64.62,48.18,64.94C47.55,64.96,47.65,63.79,47.57,63.55L47.58,63.54C46.03,63.98,48.32,62.84,47.51,62.98Z" fill="currentColor"/><path d="M47.44,62.49C47.75,62.41,47.6,62.41,47.5,62.39C47.44,62.42,47.27,62.5,47.44,62.49Z" fill="currentColor"/><path d="M37.1,67.86C38.84,68.24,37.38,68.05,37.42,68.47C35.92,68.89,35.96,68.18,37.24,68.97C34.49,68.61,38.35,69.18,36.59,69.12C37.13,69.28,37,69.69,35.32,69.13C36.94,69.7,36.68,69.58,36.8,69.78C35.14,69.21,37.69,70.09,36.17,69.64C37.4,70.09,36.33,69.82,35.77,69.71C37.76,70.47,34.7,69.38,35.07,69.6C34.59,69.5,38.46,70.69,36.42,70.23C37.54,70.41,35.7,69.89,35.88,70.02C36.5,70.32,36.57,70.25,36.4,70.41C36.61,70.6,33.54,69.19,36.25,70.48C35.35,70.32,35.02,70.22,35.88,70.83C33.7,69.56,36.02,71.82,34.08,70.42C35,71.03,34.1,69.98,34.02,69.45C34.7,69.75,34.64,69.39,34.39,69.09C34.45,69.12,35.91,69.23,34.71,68.9C35.76,69.21,34.6,68.3,34.55,68.22C35.08,68.25,36.74,67.97,34.68,67.56C35.45,67.48,35.62,66.5,35.95,64.64C36.55,62.82,37.52,65.35,36.76,65.38C37.52,65.52,37.33,65.69,36.82,65.87C37.56,65.8,37.9,66.18,37.29,66.04C38.13,66.45,37.23,66.25,37.39,66.63C37.92,66.61,37.92,67.25,37.72,67.43L37.72,67.44C39.06,67.56,37.38,67.63,37.1,67.86Z" fill="currentColor"/><path d="M37.56,67.99C37.24,67.95,37.39,67.98,37.48,68.02C37.54,68.02,37.72,68.04,37.56,67.99Z" fill="currentColor"/><path d="M41.61,62.24C41.83,62.18,39.59,61.58,41.44,61.96C41.63,61.73,40.41,61.5,41.43,61.51C42.07,60.77,41.57,60.66,43.4,60.66C40.62,60.52,43.52,60.24,41.76,59.88C43.22,59.9,40.74,59,43.64,59.09C40.49,58.88,43.86,58.94,42.07,58.68C43.42,58.52,41.95,58.79,42.08,58.4C43.51,58.17,44.64,57.79,42.17,58.08C40.62,57.64,43.82,58.03,42.16,57.71C42.5,57.63,42.31,57.55,42.14,57.63C42.02,57.55,42.61,57.55,42.3,57.44C41.47,57.2,43.83,57.57,43.95,57.48C41.59,56.84,43.34,56.89,44.04,55.81C42.03,56.12,44.7,54.48,44.3,55.44C43.44,55.27,45.37,57.19,44.61,57.38C43.87,57.89,44.93,58.64,44.25,58.52C43.8,59.12,44.01,59.35,44.14,60.59C45.13,60.72,43.9,60.69,43.49,60.79C44.48,60.94,42.87,61.62,43.44,61.91C43.33,62.17,44.69,61.88,44,62.63C42.21,65.64,43.43,65.79,40.9,69.57C40,69.29,41.91,65.91,40.99,66.12C40.85,65.72,42.06,66.2,41.31,65.76C40.52,66,41.36,65.68,40.95,65.56C41.22,65.6,40.24,65.11,41.16,65.47C41.1,65.18,40.24,64.88,41.09,65.03C41.03,64.77,41.55,64.95,41.17,64.71C40.67,64.61,41.24,64.54,41.45,64.51C41.28,64.42,40.88,64.31,41.13,64.46C40.6,64.49,41.23,63.52,40.66,63.21C41.53,63.48,41.06,62.94,41.12,63.01L41.11,63C39.71,62.87,41.78,62.56,41.61,62.24Z" fill="currentColor"/><path d="M41.36,62.02C41.68,62.05,41.53,62,41.44,61.96C41.38,61.97,41.19,61.98,41.36,62.02Z" fill="currentColor"/><path d="M45.74,9.6L45.72,17.29Z" fill="currentColor"/><path d="M45.72,17.29L45.74,9.6" fill="none" stroke="currentColor" stroke-width="0.439188" stroke-linecap="round" stroke-linejoin="round"/><path d="M51.6,7.9C48.2,9.66,44.13,9.5,40.71,7.9C43.77,10.31,48.55,10.36,51.6,7.9Z" fill="currentColor"/><path d="M50.02,19.82L47.24,24.48C46.26,24.71,45.23,24.71,44.25,24.48L41.47,19.82C40.09,19.82,38.98,18.84,38.98,17.62C38.98,17.23,45.81,13.83,45.81,13.83C45.81,13.83,52.52,17.24,52.52,17.62C52.52,18.84,51.4,19.82,50.02,19.82Z" fill="currentColor"/><path d="M47.94,16.7C47.89,15.95,48.29,15.47,49.07,15.28L51.47,16.77C51.38,17.54,50.7,18.15,49.81,18.2C48.83,18.24,47.98,17.57,47.94,16.7Z" fill="currentColor"/><path d="M43.66,16.7C43.7,15.95,43.51,15.45,42.73,15.26L40.12,16.78C40.21,17.54,40.89,18.16,41.78,18.2L41.78,18.2C42.77,18.24,43.61,17.57,43.66,16.7Z" fill="currentColor"/><path d="M45.95,14.54L45.68,14.54C46.73,15.04,47.77,15.54,48.84,16.01C49.9,16.48,50.98,16.93,52.07,17.33C51.58,17.01,51.07,16.73,50.57,16.42C49.06,15.55,47.52,14.75,45.96,13.98C45.87,13.94,45.77,13.94,45.69,13.98C43.4,15.1,41.13,16.28,38.96,17.61L38.96,17.61C41.34,16.72,43.66,15.65,45.95,14.54Z" fill="currentColor"/><path d="M57.16,11.33C54.23,10.43,50.98,11.11,48.12,11.99C51.16,11.85,54.12,11.2,57.16,11.33Z" fill="currentColor"/><path d="M57.43,13.72C54.75,12.73,51.72,13.17,49.05,13.98C51.86,13.91,54.62,13.49,57.43,13.72Z" fill="currentColor"/><path d="M33.89,11.33C36.93,11.2,39.89,11.85,42.93,11.99C40.08,11.11,36.81,10.43,33.89,11.33Z" fill="currentColor"/><path d="M33.63,13.72C36.44,13.49,39.2,13.91,42.01,13.98C39.34,13.17,36.3,12.73,33.63,13.72Z" fill="currentColor"/><path d="M22.14,74.15C20.86,75.89,19.53,77.59,18.1,79.2C16.66,80.79,15.14,82.33,13.45,83.63C12.6,84.28,11.7,84.87,10.74,85.31C9.79,85.75,8.76,86.05,7.73,86.03L7.8,86.04C7.61,85.98,7.35,85.78,7.17,85.57C6.97,85.37,6.79,85.12,6.65,84.86C6.34,84.35,6.12,83.78,5.94,83.2C5.59,82.02,5.41,80.78,5.33,79.55C5.15,77.06,5.32,74.56,5.55,72.07C5.77,69.57,6.05,67.08,6.41,64.6C6.78,62.12,7.19,59.64,7.93,57.23C7.48,58.41,7.17,59.63,6.88,60.85C6.6,62.08,6.35,63.31,6.14,64.55C5.71,67.03,5.39,69.53,5.12,72.02C4.84,74.52,4.67,77.05,4.83,79.58C4.91,80.85,5.08,82.11,5.43,83.35C5.62,83.97,5.84,84.58,6.18,85.14C6.35,85.42,6.54,85.7,6.78,85.94C7.03,86.19,7.26,86.41,7.67,86.55L7.69,86.57L7.73,86.57C8.87,86.58,9.97,86.24,10.96,85.77C11.97,85.3,12.88,84.68,13.75,84.02C15.48,82.68,17,81.11,18.41,79.46C19.81,77.81,21.12,76.08,22.35,74.3C23.57,72.51,24.74,70.68,25.8,68.79L25.79,68.8C24.63,70.63,23.43,72.42,22.14,74.15Z" fill="currentColor"/><path d="M69.55,74.16C70.77,75.96,72.07,77.7,73.46,79.37C74.86,81.03,76.37,82.62,78.09,83.98C78.95,84.66,79.86,85.28,80.86,85.76C81.86,86.24,82.96,86.58,84.1,86.57L84.15,86.57L84.17,86.56C84.57,86.41,84.8,86.19,85.05,85.95C85.17,85.83,85.27,85.7,85.38,85.57C85.47,85.44,85.56,85.29,85.65,85.15C85.97,84.59,86.22,83.99,86.39,83.37C86.74,82.15,86.93,80.88,86.99,79.63C87.16,77.11,86.98,74.6,86.72,72.11C86.46,69.63,86.17,67.15,85.81,64.68C85.62,63.44,85.42,62.21,85.19,60.98C84.95,59.75,84.71,58.52,84.36,57.32C84.9,59.76,85.22,62.24,85.52,64.71C85.83,67.19,86.07,69.67,86.28,72.16C86.49,74.64,86.67,77.12,86.48,79.59C86.41,80.83,86.21,82.05,85.87,83.22C85.71,83.8,85.46,84.36,85.17,84.88C85.09,85,85.02,85.13,84.93,85.25C84.84,85.36,84.76,85.48,84.65,85.58C84.47,85.79,84.21,85.98,84.03,86.05L84.09,86.04C83.06,86.06,82.03,85.75,81.08,85.3C80.12,84.86,79.23,84.26,78.38,83.6C76.7,82.28,75.19,80.73,73.76,79.12C72.34,77.49,71.02,75.78,69.75,74.02C68.49,72.27,67.29,70.47,66.15,68.62L66.15,68.62C67.19,70.52,68.34,72.36,69.55,74.16Z" fill="currentColor"/><path d="M79.04,21.03L52.46,13.77Z" fill="currentColor"/><path d="M52.46,13.77L79.04,21.03" fill="none" stroke="currentColor" stroke-width="0.103808"/><path d="M78.86,14.83L54.58,13.23Z" fill="currentColor"/><path d="M54.58,13.23L78.86,14.83" fill="none" stroke="currentColor" stroke-width="0.103808"/><path d="M12.93,21.03L39.52,13.77Z" fill="currentColor"/><path d="M39.52,13.77L12.93,21.03" fill="none" stroke="currentColor" stroke-width="0.103808"/><path d="M13.11,14.83L37.39,13.23Z" fill="currentColor"/><path d="M37.39,13.23L13.11,14.83" fill="none" stroke="currentColor" stroke-width="0.103808"/><path d="M32.28,46.84C33,47.11,32.37,46.76,33.1,47.02L32.95,46.94C32.95,46.94,32.91,46.94,32.92,46.94C32.57,46.78,33.46,47.1,33.37,47.01C33.32,46.97,33.21,46.93,33.12,46.91L33.32,46.93C33.32,46.93,33.17,46.87,33.18,46.88L33.26,46.84L33.24,46.84C33.36,46.86,33.54,46.9,33.62,46.92C33.52,46.86,33.54,46.9,33.45,46.86L33.64,46.88C33.44,46.81,33.25,46.78,33.27,46.81C32.52,46.54,33.47,46.84,33.04,46.63C32.66,46.6,32.62,46.47,32.4,46.4C32.55,46.44,33.07,46.67,33.27,46.69C33.21,46.67,33.19,46.65,33.35,46.67C33.08,46.59,33.15,46.59,33.17,46.57L32.81,46.47C32.92,46.47,33.1,46.52,33.27,46.56C33.24,46.52,32.96,46.43,32.72,46.36C32.67,46.3,33.17,46.51,33.25,46.48C33.12,46.41,33.28,46.42,33.51,46.43C33.39,46.37,33.28,46.37,33.18,46.34L33.48,46.39C33.48,46.39,33.39,46.36,33.34,46.35C33.46,46.36,33.71,46.44,33.82,46.44C34.23,46.53,33.24,46.23,33.71,46.3C33.61,46.26,33.48,46.25,33.34,46.21C33.65,46.23,33.56,46.21,33.99,46.26L33.76,46.16C34.2,46.26,34.74,46.37,35.16,46.38C35.1,46.36,34.97,46.34,34.81,46.32L34.9,46.32C34.77,46.27,34.55,46.24,34.34,46.22C34.42,46.24,34.49,46.26,34.57,46.28C34.34,46.25,34.08,46.21,33.87,46.16C33.91,46.17,33.95,46.17,33.98,46.16C33.85,46.14,33.71,46.12,33.97,46.15L33.56,46.05L33.72,46.08L33.48,45.97C33.91,46,34.53,46.07,34.72,46.01C34.41,45.98,34.22,45.93,33.86,45.87C34.23,45.96,33.69,45.9,33.75,45.96C33.71,45.93,33.54,45.9,33.48,45.89L33.84,45.89C33.55,45.83,33.62,45.83,33.51,45.79C34.08,45.91,33.9,45.8,34.09,45.8C33.9,45.77,33.7,45.74,33.73,45.79C33.31,45.67,34.43,45.84,34.06,45.74C34.06,45.75,34.08,45.76,33.99,45.75C34.16,45.75,34.04,45.68,33.87,45.67L33.87,45.68C33.8,45.61,33.89,45.5,34.38,45.55C34.31,45.55,33.79,45.49,33.7,45.47L35.33,45.56C34.67,45.49,32.78,45.26,34.36,45.42C33.91,45.33,34.12,45.37,33.74,45.28C33.83,45.3,34.47,45.36,34.46,45.33C34.36,45.32,33.82,45.27,33.76,45.27L34.4,45.27C34.28,45.28,33.87,45.22,33.7,45.19C33.81,45.18,33.69,45.09,33.9,45.17C33.82,45.1,34.77,45.18,34.75,45.11C34.63,45.11,33.98,45.07,33.91,45.03C34.23,45.04,35.41,45.08,35.63,45.02L35.46,45L35.65,44.96C35.12,44.93,34.05,45.08,33.66,44.94C33.5,44.92,33.41,44.94,33.39,44.95L33.31,44.87C33.67,44.89,33.68,44.83,33.97,44.85L33.59,44.92C33.94,44.94,34.6,44.93,34.55,44.86C34.41,44.84,33.93,44.84,33.8,44.83C34.15,44.79,33.9,44.76,33.77,44.79C33.65,44.75,34.24,44.76,33.92,44.7C33.09,44.58,35.46,44.77,35.57,44.74C35.23,44.59,34.42,44.61,34.04,44.6C34.13,44.6,34.24,44.6,34.28,44.59C34.21,44.58,34,44.59,34.05,44.56C34.38,44.56,34.03,44.49,34.33,44.55C34.43,44.52,34.27,44.51,34.29,44.48C34.5,44.49,35.01,44.45,35.1,44.42C35.02,44.42,34.92,44.41,34.86,44.41C34.84,44.34,34.7,44.3,34.7,44.24C34.63,44.23,34.54,44.2,34.41,44.22C34.46,44.21,34.57,44.19,34.58,44.18C34.32,44.15,34.53,44.22,34.22,44.2C34.45,44.15,34.94,44.07,34.51,44.21C34.89,44.23,35.77,44.06,35.25,44.05C35.17,43.95,35.85,43.94,35.57,43.86C35.34,43.83,35.14,43.88,34.98,43.88C34.9,43.92,35.12,43.94,35.12,43.97L35.01,43.94C34.94,43.96,34.89,43.99,34.95,44C34.75,43.98,34.9,43.83,34.73,43.76C34.8,43.75,34.87,43.72,34.95,43.73L34.92,43.75C35.09,43.77,35.15,43.7,35.22,43.72C35.58,43.62,35.36,43.57,35.17,43.6C35.24,43.6,35.31,43.62,35.25,43.64C35.34,43.61,34.94,43.58,35.21,43.54L35.37,43.56C35.47,43.52,35.68,43.46,35.59,43.43C35.8,43.43,35.57,43.44,35.82,43.45C35.51,43.45,35.89,43.56,35.55,43.54C35.85,43.55,35.69,43.59,35.97,43.62C35.89,43.62,35.82,43.61,35.87,43.64C35.85,43.64,35.82,43.65,35.81,43.65L35.81,43.65C35.81,43.65,35.78,43.65,35.8,43.65C35.66,43.6,35.52,43.71,35.45,43.75C35.49,43.77,35.53,43.73,35.62,43.74L35.5,43.78C35.67,43.78,35.81,43.82,35.89,43.77L35.93,43.82C36.04,43.84,36.1,43.88,36.03,43.9C36.08,43.92,35.85,43.97,35.98,43.94L35.89,44.02L35.94,44.02C35.99,44.09,35.66,44.17,36.04,44.25C35.85,44.35,36.13,44.36,36.19,44.35C36.14,44.39,36.4,44.45,36.22,44.47C36.73,44.51,36.38,44.63,36.48,44.69L36.23,44.69C36.28,44.8,35.96,44.82,35.87,44.8C35.68,44.83,36.04,44.92,36.03,44.98C36.12,44.98,36.09,44.96,36.04,44.95C36.58,45.06,35.68,45.09,36.07,45.19C35.98,45.2,36.01,45.22,36.07,45.23C36.07,45.23,36.07,45.23,36.08,45.23C36.12,45.26,36.17,45.27,36.21,45.28C36.15,45.26,36.11,45.25,36.08,45.25C36.08,45.26,36.05,45.28,35.98,45.29L36.24,45.32L36.24,45.32C36.37,45.37,35.88,45.29,35.76,45.32C36.19,45.38,35.62,45.37,36.07,45.43C35.85,45.43,35.9,45.52,35.43,45.48C35.5,45.48,35.52,45.49,35.53,45.48C35.58,45.51,35.63,45.54,35.5,45.55L35.84,45.6L35.38,45.6C35.59,45.64,35.71,45.67,35.97,45.67C35.56,45.7,35.82,45.72,35.41,45.72L35.63,45.75C35.63,45.75,35.32,45.76,35.51,45.8C35.93,45.91,35.55,46.05,35.93,46.24C35.26,46.1,36.22,46.35,35.7,46.27C35.86,46.31,35.95,46.34,36.09,46.34C35.92,46.38,36.33,46.49,35.88,46.45C36.04,46.49,36.12,46.49,36.21,46.51C36,46.51,36.32,46.57,36.37,46.55C36.33,46.61,35.84,46.52,35.37,46.43C35.58,46.51,35.55,46.52,35.24,46.48C35.39,46.52,35.54,46.58,35.61,46.55C35.62,46.58,35.8,46.74,35.43,46.66C35.52,46.68,35.45,46.69,35.41,46.69C35.42,46.74,35.45,46.76,35.41,46.79C35.04,46.69,35.12,46.71,35.18,46.81C35.54,46.95,35.07,46.84,35.41,47L35.13,46.92C34.54,46.77,35.46,47.09,35.21,47.08L35.07,47.02C34.99,47.09,37.01,47.66,35.57,47.32C35.76,47.39,36.06,47.46,36.08,47.5C36.23,47.57,35.43,47.43,35.77,47.6C35.63,47.54,35.48,47.48,35.37,47.47C35.3,47.49,35.88,47.76,35.41,47.64L35.52,47.69C35.39,47.67,35.28,47.72,35.03,47.65C35.92,48,34.52,47.67,35.34,47.97L35.26,48.04L35.34,48.07C35.37,48.15,35.17,48.09,34.97,48.04C35.01,48.07,35.09,48.09,35.13,48.1C35.26,48.25,35.21,48.25,34.8,48.15L35.04,48.26C34.9,48.22,35.36,48.55,35.03,48.5C35.06,48.51,35.1,48.53,35.14,48.54C34.81,48.49,35.64,49.05,34.78,48.68L34.54,48.63C34.52,48.53,34.18,48.46,34.06,48.36C34,48.36,34.26,48.56,34.33,48.54L34.29,48.52C34.73,48.72,34.39,48.68,34.67,48.83C34.55,48.95,34.65,49.19,34.55,49.32L34.29,49.14L34.27,49.2C34.32,49.24,34.47,49.34,34.49,49.3C34.63,49.41,34.31,49.28,34.25,49.24C34.31,49.37,34.59,49.41,34.58,49.43L34.54,49.44C34.45,49.37,34.26,49.3,34.25,49.34C34.28,49.39,34.4,49.45,34.4,49.47C34.42,49.48,34.43,49.49,34.4,49.48L34.37,49.55C34.18,49.35,34.2,49.47,33.95,49.28C34.26,49.54,33.88,49.54,33.96,49.63C33.8,49.57,33.78,49.6,33.76,49.64C33.73,49.61,33.55,49.47,33.55,49.52C33.93,49.78,33.65,49.7,33.87,49.9C33.73,49.76,33.72,49.95,33.54,49.74C33.54,49.79,33.67,49.84,33.72,49.92C33.53,49.88,33.62,50.09,33.47,50.1C33.44,50.08,33.4,50.02,33.33,49.99L33.44,50.16C33.4,50.16,33.25,50.01,33.31,50.13C33.29,50.1,33.26,50.06,33.24,50.06C33.17,50.25,32.83,50.24,32.7,50.41C32.72,50.39,32.69,50.39,32.67,50.4C32.68,50.39,32.65,50.37,32.64,50.36C32.63,50.38,32.6,50.4,32.57,50.41C32.54,50.4,32.47,50.43,32.45,50.42L32.48,50.42C32.44,50.42,32.5,50.36,32.47,50.33C32.52,50.33,32.47,50.17,32.54,50.17C32.54,50.14,32.52,50.16,32.51,50.14C32.54,50.14,32.56,50.14,32.56,50.09L32.55,50.09C32.6,50,32.59,49.92,32.59,49.77L32.64,49.83C32.64,49.8,32.63,49.78,32.61,49.75C32.72,49.81,32.59,49.83,32.7,49.89C32.59,49.75,32.77,49.73,32.61,49.56C32.62,49.52,32.7,49.65,32.71,49.61L32.66,49.55L32.73,49.6C32.73,49.57,32.66,49.5,32.62,49.46C32.62,49.47,32.6,49.46,32.6,49.47C32.54,49.38,32.64,49.39,32.61,49.36L32.64,49.43C32.73,49.37,32.64,49.16,32.82,49.19L32.87,49.23C33.01,49.24,32.83,49.13,32.91,49.09L32.9,49.09C32.96,49.11,33,49.12,33,49.09C32.92,49.06,32.87,48.95,32.78,48.92C32.93,48.93,32.89,48.95,33.15,49.08L33.04,48.98C33.15,49.04,33.2,49.08,33.25,49.06C33.14,49.02,33.09,48.92,32.94,48.86C32.71,48.6,33.25,48.92,32.86,48.62C33.3,48.88,33.07,48.95,33.36,48.94C33.36,48.91,32.93,48.6,32.95,48.54C32.95,48.55,32.93,48.53,32.93,48.54C32.84,48.47,33.07,48.58,32.93,48.45C33.16,48.58,32.93,48.41,33.22,48.58L33.13,48.6C33.22,48.61,33.58,48.79,33.43,48.63C33.29,48.57,33.23,48.57,33.22,48.49C32.92,48.32,33.13,48.52,32.9,48.42C32.77,48.33,33.12,48.49,32.8,48.31C33.22,48.53,32.76,48.21,33.09,48.36L32.91,48.25C32.94,48.26,33.03,48.3,33.03,48.28L32.78,48.17C32.99,48.25,32.61,48,32.73,48.03C32.71,48.09,32.95,48.18,33.09,48.28C33.37,48.34,32.59,47.95,32.7,47.91C32.67,47.91,32.81,48.02,32.91,48.05C32.87,48.01,32.8,47.95,32.69,47.88C32.75,47.84,32.9,48,33.03,48.04C32.78,47.89,33.13,48.06,33.23,48.08L33.01,47.97C32.89,47.82,33.46,48.18,33.31,48.02L33,47.9L33.09,47.9L32.84,47.79C33.03,47.84,32.99,47.81,32.92,47.74C33.08,47.82,33.33,47.93,33.34,47.9C33.21,47.82,33.12,47.81,33.17,47.78C33.02,47.72,32.84,47.65,33.04,47.76C32.97,47.73,32.65,47.62,32.81,47.58C32.82,47.64,33.15,47.7,33.19,47.71C33.11,47.66,33.04,47.64,32.97,47.61C33,47.61,33.11,47.65,33.13,47.64C32.94,47.56,32.74,47.47,32.65,47.45L32.87,47.49C32.79,47.45,32.65,47.36,32.57,47.33C32.46,47.24,32.96,47.42,32.82,47.31C32.86,47.32,32.9,47.34,32.93,47.34C32.89,47.28,32.65,47.14,32.93,47.2L32.57,47.03C32.83,47.14,33.61,47.4,32.76,47.04C33.02,47.16,33.36,47.11,33,47.06L33,47.11C32.71,46.92,32.54,46.99,32.28,46.84Z" fill="currentColor"/><path d="M33.19,46.71C33.51,46.8,33.36,46.75,33.27,46.7C33.21,46.69,33.03,46.66,33.19,46.71Z" fill="currentColor"/><path d="M34.17,46.17C34.2,46.17,34.19,46.16,34.12,46.13C34.02,46.12,34.06,46.14,34.17,46.17Z" fill="currentColor"/><path d="M34.28,49.4C34.21,49.39,34.26,49.41,34.32,49.44Z" fill="currentColor"/><path d="M59.81,48.39C60.53,48.12,59.8,48.2,60.53,47.93L60.36,47.96C60.36,47.96,60.33,47.98,60.34,47.98C59.96,48.06,60.85,47.75,60.72,47.73C60.65,47.73,60.54,47.74,60.45,47.79L60.62,47.68C60.62,47.68,60.47,47.72,60.49,47.73L60.52,47.63L60.5,47.63C60.61,47.58,60.79,47.5,60.86,47.46C60.74,47.48,60.78,47.5,60.69,47.52L60.86,47.42C60.65,47.46,60.47,47.56,60.51,47.58C59.74,47.78,60.69,47.49,60.21,47.54C59.9,47.76,59.77,47.62,59.55,47.66C59.69,47.64,60.26,47.56,60.44,47.45C60.37,47.45,60.34,47.45,60.48,47.37C60.21,47.45,60.27,47.41,60.27,47.37L59.91,47.48C60,47.41,60.19,47.36,60.35,47.29C60.3,47.27,60.01,47.34,59.77,47.39C59.69,47.35,60.24,47.31,60.29,47.22C60.13,47.2,60.27,47.13,60.47,47.01C60.34,47.01,60.25,47.08,60.14,47.09L60.43,46.99C60.43,46.99,60.33,47.01,60.28,47.02C60.39,46.96,60.65,46.92,60.74,46.86C61.14,46.75,60.12,46.92,60.58,46.75C60.47,46.76,60.35,46.81,60.21,46.84C60.5,46.7,60.42,46.73,60.81,46.58L60.56,46.58C61,46.5,61.53,46.37,61.93,46.22C61.87,46.22,61.74,46.25,61.59,46.3L61.68,46.27C61.53,46.27,61.32,46.33,61.12,46.39C61.2,46.38,61.27,46.38,61.35,46.36C61.13,46.43,60.89,46.49,60.66,46.53C60.71,46.52,60.74,46.51,60.76,46.49C60.63,46.52,60.5,46.56,60.74,46.48L60.33,46.55L60.49,46.51L60.22,46.48C60.63,46.33,61.23,46.17,61.38,46.05C61.08,46.13,60.89,46.14,60.53,46.21C60.91,46.16,60.38,46.31,60.47,46.34C60.43,46.32,60.26,46.36,60.2,46.38L60.53,46.23C60.23,46.28,60.3,46.25,60.18,46.24C60.77,46.16,60.56,46.11,60.73,46.05C60.53,46.07,60.34,46.12,60.39,46.15C59.95,46.17,61.06,45.98,60.68,45.99C60.68,46,60.71,46,60.61,46.02C60.78,45.97,60.64,45.93,60.47,45.97L60.47,45.98C60.4,45.92,60.46,45.76,60.94,45.69C60.87,45.7,60.36,45.78,60.26,45.79L61.86,45.47C61.46,45.53,60.47,45.6,60.25,45.69C59.96,45.59,60.87,45.59,60.89,45.55C60.44,45.56,60.65,45.55,60.26,45.54C60.35,45.55,60.99,45.46,60.96,45.43C60.87,45.45,60.34,45.49,60.27,45.51L60.89,45.38C60.78,45.4,60.36,45.43,60.19,45.44C60.3,45.4,60.14,45.31,60.38,45.37C60.29,45.29,61.24,45.21,61.21,45.15C61.08,45.17,60.43,45.23,60.36,45.2C60.67,45.15,61.84,45.01,62.07,44.94L61.89,44.94L62.08,44.88C61.57,44.89,60.49,45.22,60.1,45.12C59.94,45.12,59.84,45.17,59.83,45.18L59.75,45.08C60.1,45.06,60.11,44.98,60.4,44.96L60.02,45.1C60.38,45.08,61.04,44.97,60.97,44.91C60.83,44.89,60.35,44.95,60.23,44.96C60.57,44.88,60.34,44.86,60.2,44.92C60.08,44.88,60.66,44.83,60.34,44.79C59.51,44.72,61.88,44.75,61.99,44.69C61.64,44.58,60.83,44.65,60.45,44.66C60.54,44.66,60.66,44.64,60.7,44.64C60.62,44.62,60.42,44.65,60.46,44.61C60.8,44.6,60.45,44.54,60.75,44.59C60.85,44.55,60.69,44.55,60.71,44.51C60.92,44.52,61.43,44.46,61.51,44.43C61.43,44.43,61.33,44.43,61.27,44.42C61.24,44.35,61.1,44.32,61.1,44.25C61.03,44.24,60.94,44.21,60.81,44.22C60.86,44.21,60.97,44.21,60.97,44.18C60.72,44.14,60.93,44.23,60.62,44.19C60.83,44.15,61.34,44.07,60.91,44.21C61.28,44.23,62.16,44.1,61.65,44.07C61.59,43.97,62.26,44.01,61.99,43.92C61.77,43.88,61.56,43.9,61.4,43.89C61.32,43.93,61.54,43.96,61.53,43.99C61.5,43.95,61.26,43.95,61.36,44C61.16,43.97,61.33,43.83,61.16,43.74C61.23,43.73,61.31,43.71,61.39,43.73L61.35,43.75C61.52,43.78,61.58,43.71,61.66,43.75C62.02,43.69,61.8,43.63,61.62,43.62C61.68,43.62,61.75,43.66,61.69,43.67C61.78,43.66,61.39,43.58,61.67,43.58C61.74,43.64,62.14,43.6,62.05,43.53C62.26,43.56,62.03,43.53,62.28,43.58C61.98,43.53,62.34,43.68,62,43.62C62.3,43.67,62.13,43.68,62.4,43.73C62.33,43.73,62.26,43.71,62.31,43.75C62.29,43.75,62.26,43.75,62.25,43.75L62.25,43.75C62.25,43.75,62.22,43.75,62.24,43.75C62.11,43.69,61.95,43.77,61.88,43.8C61.93,43.82,61.97,43.8,62.06,43.81L61.93,43.83C62.1,43.84,62.24,43.9,62.33,43.86L62.35,43.9C62.46,43.92,62.52,43.96,62.45,43.98C62.49,44,62.26,44.02,62.39,44.01L62.29,44.07L62.34,44.07C62.38,44.13,62.04,44.19,62.43,44.26C62.24,44.34,62.54,44.35,62.59,44.34C62.53,44.37,62.8,44.42,62.62,44.43C63.13,44.45,62.79,44.55,62.89,44.59L62.64,44.6C62.69,44.69,62.36,44.73,62.28,44.71C62.1,44.76,62.46,44.79,62.45,44.85C62.54,44.84,62.52,44.83,62.46,44.82C63.01,44.85,62.1,44.98,62.51,45.01C62.42,45.03,62.45,45.04,62.52,45.04C62.52,45.04,62.52,45.04,62.53,45.04C62.57,45.05,62.62,45.05,62.66,45.06C62.6,45.06,62.55,45.06,62.53,45.05C62.53,45.06,62.5,45.09,62.44,45.11L62.71,45.09L62.7,45.09C62.83,45.11,62.34,45.11,62.23,45.17C62.66,45.14,62.1,45.22,62.56,45.2C62.34,45.23,62.41,45.29,61.94,45.36C62,45.35,62.03,45.36,62.03,45.34C62.09,45.36,62.15,45.37,62.02,45.4L62.36,45.37L61.91,45.46C62.12,45.46,62.25,45.46,62.51,45.4C62.12,45.51,62.37,45.47,61.97,45.57L62.19,45.54C62.19,45.54,61.89,45.63,62.08,45.62C62.52,45.6,62.17,45.81,62.61,45.84C61.93,45.94,62.92,45.83,62.4,45.93C62.56,45.91,62.65,45.9,62.79,45.86C62.64,45.94,63.06,45.88,62.63,46C62.79,45.97,62.86,45.96,62.96,45.93C62.76,46,63.08,45.93,63.12,45.91C63.1,45.96,62.61,46.07,62.15,46.16C62.37,46.15,62.35,46.16,62.05,46.25C62.2,46.23,62.36,46.21,62.41,46.16C62.44,46.18,62.65,46.23,62.29,46.31C62.38,46.3,62.32,46.33,62.28,46.35C62.31,46.39,62.34,46.38,62.31,46.43C61.96,46.5,61.99,46.49,62.11,46.54C62.49,46.49,62.02,46.61,62.4,46.58L62.12,46.65C61.53,46.81,62.49,46.62,62.28,46.73C61.62,46.86,63.04,46.62,63.13,46.54C63.49,46.5,62.77,46.66,62.7,46.73C62.89,46.68,63.19,46.57,63.23,46.59C63.38,46.55,62.63,46.86,63,46.79C62.85,46.83,62.7,46.86,62.6,46.92C62.56,46.97,63.17,46.83,62.72,47.01L62.83,46.97C62.72,47.04,62.66,47.12,62.42,47.22C63.32,46.92,62.04,47.53,62.86,47.23L62.83,47.32L62.91,47.29C62.97,47.31,62.79,47.4,62.6,47.5C62.85,47.4,63.07,47.39,62.54,47.68L62.79,47.58C62.65,47.66,63.21,47.51,62.94,47.71C62.97,47.69,63.01,47.67,63.05,47.65C62.8,47.86,63.73,47.52,62.9,47.96L62.72,48.11C62.63,48.07,62.37,48.3,62.22,48.34C62.19,48.39,62.49,48.28,62.52,48.23L62.48,48.24C62.9,48.01,62.66,48.25,62.94,48.1C62.96,48.25,63.22,48.26,63.25,48.38L62.97,48.53L63,48.57C63.07,48.54,63.22,48.45,63.21,48.43C63.36,48.35,63.09,48.56,63.03,48.6C63.16,48.6,63.34,48.38,63.35,48.4L63.33,48.43C63.23,48.49,63.08,48.62,63.11,48.63C63.17,48.62,63.27,48.54,63.29,48.55C63.31,48.54,63.32,48.53,63.3,48.56L63.34,48.6C63.09,48.7,63.2,48.72,62.92,48.87C63.29,48.68,63.12,49,63.23,48.96C63.11,49.08,63.13,49.12,63.16,49.14C63.13,49.16,62.94,49.29,62.98,49.3C63.34,49.02,63.17,49.25,63.44,49.09C63.26,49.19,63.44,49.23,63.2,49.36C63.24,49.37,63.32,49.27,63.41,49.23C63.32,49.39,63.52,49.35,63.51,49.48C63.48,49.51,63.42,49.54,63.38,49.6L63.55,49.51C63.54,49.55,63.38,49.68,63.5,49.63C63.47,49.64,63.43,49.67,63.43,49.69C63.59,49.78,63.55,50.09,63.73,50.2C63.71,50.19,63.71,50.21,63.72,50.23C63.7,50.22,63.69,50.25,63.68,50.26C63.7,50.28,63.73,50.3,63.74,50.32C63.73,50.36,63.77,50.42,63.77,50.44L63.76,50.41C63.78,50.45,63.71,50.4,63.68,50.44C63.68,50.39,63.52,50.47,63.51,50.37C63.48,50.38,63.51,50.4,63.48,50.41C63.48,50.38,63.48,50.36,63.42,50.36L63.42,50.37C63.32,50.32,63.25,50.33,63.09,50.32L63.15,50.27C63.12,50.27,63.09,50.28,63.07,50.29C63.13,50.19,63.15,50.32,63.22,50.22C63.06,50.32,63.05,50.12,62.86,50.26C62.82,50.24,62.96,50.18,62.92,50.17L62.86,50.21L62.91,50.15C62.88,50.15,62.8,50.19,62.75,50.23C62.77,50.23,62.76,50.25,62.77,50.26C62.66,50.3,62.68,50.2,62.65,50.21L62.72,50.2C62.66,50.1,62.43,50.12,62.48,49.93L62.55,49.89C62.59,49.76,62.43,49.89,62.4,49.8L62.39,49.81C62.44,49.75,62.45,49.72,62.43,49.71C62.37,49.78,62.25,49.78,62.19,49.86C62.24,49.71,62.25,49.76,62.45,49.55L62.33,49.62C62.42,49.53,62.47,49.49,62.47,49.44C62.39,49.53,62.27,49.54,62.17,49.65C61.83,49.76,62.33,49.38,61.9,49.61C62.31,49.31,62.29,49.56,62.39,49.28C62.36,49.26,61.91,49.53,61.85,49.47C61.86,49.47,61.83,49.49,61.84,49.49C61.73,49.53,61.93,49.37,61.75,49.44C61.96,49.29,61.7,49.41,61.99,49.23L61.97,49.32C62.02,49.25,62.34,49.01,62.13,49.06C62.01,49.15,61.99,49.22,61.91,49.18C61.61,49.36,61.9,49.28,61.7,49.45C61.57,49.51,61.86,49.26,61.56,49.47C61.94,49.2,61.44,49.45,61.73,49.21L61.55,49.32C61.55,49.32,61.65,49.23,61.64,49.23L61.41,49.39C61.59,49.24,61.17,49.44,61.25,49.34C61.31,49.4,61.49,49.22,61.66,49.17C61.85,48.94,61.12,49.41,61.11,49.26C61.09,49.29,61.28,49.25,61.35,49.17C61.29,49.17,61.19,49.19,61.07,49.24C61.05,49.15,61.29,49.14,61.39,49.04C61.12,49.15,61.47,48.96,61.52,48.89L61.31,49C61.12,49,61.74,48.75,61.53,48.77L61.25,48.95L61.3,48.87L61.06,49.01C61.21,48.87,61.16,48.88,61.06,48.88C61.22,48.81,61.46,48.68,61.44,48.64C61.3,48.68,61.24,48.76,61.24,48.69C61.1,48.77,60.94,48.87,61.16,48.79C61.07,48.84,60.79,49.01,60.86,48.84C60.91,48.88,61.16,48.63,61.2,48.61C61.1,48.65,61.04,48.68,60.98,48.73C60.99,48.7,61.09,48.64,61.1,48.61C60.91,48.7,60.72,48.79,60.65,48.86L60.81,48.7C60.73,48.73,60.56,48.77,60.49,48.81C60.35,48.82,60.8,48.54,60.62,48.56C60.65,48.54,60.69,48.52,60.71,48.5C60.64,48.47,60.36,48.52,60.61,48.35L60.22,48.46C60.48,48.36,61.24,48,60.37,48.31C60.54,48.21,60.9,48.02,60.56,48.08C60.5,48.12,60.56,48.12,60.54,48.14L60.53,48.11C60.18,48.13,60.11,48.35,59.81,48.39Z" fill="currentColor"/><path d="M60.38,47.52C60.69,47.41,60.54,47.45,60.44,47.45C60.39,47.48,60.22,47.56,60.38,47.52Z" fill="currentColor"/><path d="M60.94,46.4C60.96,46.38,60.95,46.37,60.87,46.37C60.78,46.4,60.83,46.4,60.94,46.4Z" fill="currentColor"/><path d="M63.18,48.59C63.14,48.64,63.18,48.61,63.23,48.57Z" fill="currentColor"/></svg>