<svg xmlns="http://www.w3.org/2000/svg" viewBox="0 0 90 90"><path d="M53.09,29.35C51.38,32.66,49.74,36.26,48.76,39.99C47.66,43.43,46.53,51.25,46.53,51.25L40.69,51.29C41.29,45.96,42.33,39.99,44.56,34.33L52.17,18.61L52.18,18.61C52.71,17.62,53,16.66,53.19,15.69C53.36,15.04,53.47,14.36,53.47,13.64C53.47,8.87,49.52,5,44.68,5C39.84,5,35.89,8.87,35.89,13.64C35.89,15.86,36.81,18.89,36.81,18.89C36.81,18.89,23.71,30.3,23.71,47.23C23.71,58.83,29.41,67.45,31.75,70.24L58.19,70.24C60.56,67.38,66.18,58.81,66.18,47.28C66.18,35.75,60.6,27.53,56.72,22.82L56.73,22.82Z" fill="currentColor"/><path d="M60.24,27.74C71.2,58.33,42.03,70.18,42.03,70.18L43.69,70.24L58.2,70.24C60.57,67.38,66.19,58.81,66.19,47.28L66.19,47.29C66.19,39.34,63.3,32.64,60.24,27.74Z" fill="currentColor" opacity="0.5"/><path d="M44.69,5C39.83,5,35.9,8.87,35.9,13.64C35.9,14.09,35.94,14.58,36,15.06C36.08,15.52,36.1,16,36.23,16.44C37.07,10.4,41.83,6,45.23,5.05L45.24,5.05C45.05,5.04,44.88,5,44.69,5Z" fill="currentColor"/><path d="M44.56,34.33L52.17,18.61L52.18,18.61C52.71,17.62,53,16.66,53.19,15.69C53.36,15.04,53.47,14.36,53.47,13.64C53.47,11.01,52.24,8.68,50.36,7.1C55.52,17.46,32.82,34.84,40.69,51.29C41.29,45.96,42.33,39.99,44.56,34.33Z" fill="currentColor" opacity="0.5"/><path d="M23.71,47.23C23.71,51.03,24.35,54.46,25.25,57.52C25.23,47.74,27.36,33.48,38.53,19.5C38.53,19.5,37.78,19.24,36.81,18.89C36.81,18.89,23.71,30.3,23.71,47.23Z" fill="currentColor"/><path d="M29.95,69.9C14.98,69.9,15.04,79.97,15.04,79.97L15.04,85L74.86,85L74.86,79.97C74.86,79.97,74.93,69.9,59.95,69.9L59.96,69.9Z" fill="currentColor"/><path d="M29.95,69.9L59.96,69.9C67.85,69.9,71.54,72.69,73.29,75.34C71.36,74.63,64.99,73.18,45.16,73.18C22.55,73.18,17.44,75.07,16.46,75.59L16.46,75.58C18.14,72.87,21.82,69.9,29.95,69.9Z" fill="currentColor"/><path d="M0.19,39.52L11.18,46.26L11.18,42.52L20.42,42.52L11.18,36.14L11.18,39.52Z" fill="currentColor"/><path d="M4.36,69.03L16.75,66.08L14.18,63.51L20.82,56.87L9.6,58.93L12.03,61.36Z" fill="currentColor"/><path d="M4.36,12.22L16.75,15.17L14.18,17.74L20.82,24.38L9.6,22.32L12.03,19.89Z" fill="currentColor"/><path d="M89.81,39.52L78.82,46.26L78.82,42.52L69.58,42.52L78.82,36.14L78.82,39.52Z" fill="currentColor"/><path d="M85.64,69.03L73.25,66.08L75.82,63.51L69.18,56.87L80.4,58.93L77.97,61.36Z" fill="currentColor"/><path d="M85.64,12.22L73.25,15.17L75.82,17.74L69.18,24.38L80.4,22.32L77.97,19.89Z" fill="currentColor"/></svg>