<svg xmlns="http://www.w3.org/2000/svg" viewBox="0 0 90 90"><path d="M88,46C88,69.2,69.2,88,46,88C22.8,88,4,69.2,4,46C4,22.8,22.8,4,46,4C69.2,4,88,22.8,88,46Z" fill="currentColor"/><path d="M88,49C88,72.2,69.2,91,46,91C22.8,91,4,72.2,4,49C4,25.8,22.8,7,46,7C69.2,7,88,25.8,88,49Z" fill="currentColor"/><path d="M46,7C69.2,7,88,25.8,88,49C88,55.31,86.61,61.29,84.12,66.65C75.44,39.99,53.84,19.23,26.63,11.72C32.43,8.71,39.02,7,46,7Z" fill="currentColor" opacity="0.2"/><path d="M4.79,57.13C8.42,75.66,24.24,89.82,43.55,90.93C25.36,87.21,10.79,74.2,4.79,57.13Z" fill="currentColor"/><path d="M87.99,49.87C88,49.58,88,49.29,88,49C88,25.8,69.2,7,46,7C68.24,9.74,85.8,27.57,87.99,49.87Z" fill="currentColor"/><path d="M40.35,24.8C39.51,23.96,38.58,23.96,37.74,24.8L17.52,45.03C16.76,45.87,16.76,46.88,17.52,47.72L23.92,54.13C24.77,54.97,25.78,54.89,26.53,54.13L39.09,41.66L65.46,67.95C66.22,68.79,67.23,68.79,68.08,67.95L74.48,61.54C75.41,60.7,74.99,59.44,74.48,58.93Z" fill="currentColor"/><path d="M40.35,27.43C39.51,26.59,38.58,26.59,37.74,27.43L17.52,47.65C16.76,48.49,16.76,49.51,17.52,50.35L23.92,56.75C24.77,57.59,25.78,57.51,26.53,56.75L39.09,44.28L65.46,70.57C66.22,71.41,67.23,71.41,68.08,70.57L74.48,64.17C75.41,63.32,74.99,62.06,74.48,61.56Z" fill="currentColor"/></svg>