<svg xmlns="http://www.w3.org/2000/svg" viewBox="0 0 90 90"><path d="M73.94,29.54C73.94,31.14,74.67,32.62,75.22,33.5L66.26,43.05L65.22,21.01C68.27,19.99,70.47,16.95,70.47,13.53C70.47,8.87,66.82,5.22,62.16,5.22C57.5,5.22,53.85,8.95,53.85,13.53C53.85,15.96,55.03,18.3,56.93,19.75L50.45,38.43L47.74,30.61L43.97,19.75C45.87,18.31,47.05,15.96,47.05,13.53C47.05,8.95,43.32,5.22,38.74,5.22C34.16,5.22,30.43,8.87,30.43,13.53C30.43,17.02,32.58,20.02,35.68,21.02L35.22,35.12L25.94,42.73L30.89,68.89C21.53,70.63,21.55,76.26,21.56,82.73L21.56,83.65L21.56,84.79L79.36,84.79L79.36,82.73C79.38,76.26,79.39,70.64,70.04,68.89L83.16,37.33C86.64,36.86,89.75,33.29,89.75,29.54C89.75,25.16,86.19,21.6,81.81,21.6L81.78,21.6C77.6,21.6,73.94,25.31,73.94,29.54Z" fill="currentColor"/><path d="M87.98,24.59C88.62,27.07,87.08,30.29,85.75,31.53C84.07,33.1,81.28,33.41,80.24,35.79C80.24,35.79,74.02,48.43,65.47,57.68C56.52,67.37,50.5,68.19,50.5,68.19L70.03,68.82L83.13,37.32C86.61,36.85,89.72,33.28,89.72,29.53L89.72,29.54C89.72,27.67,89.07,25.95,87.98,24.59Z" fill="currentColor" opacity="0.5"/><path d="M31.29,33.78C29.63,33.78,28.29,35.12,28.29,36.78L28.29,40.1C28.29,41.76,29.63,43.1,31.29,43.1L40.75,43.1L22.4,61.45L33.92,72.97L52.27,54.62L52.27,65.39C52.27,67.05,53.61,68.39,55.27,68.39L58.59,68.39C60.25,68.39,61.59,67.05,61.59,65.39L61.59,36.78C61.59,35.12,60.25,33.78,58.59,33.78Z" fill="currentColor"/><path d="M81.79,21.61C77.61,21.61,73.95,25.32,73.95,29.55C73.95,30.77,74.37,31.91,74.82,32.77C75.17,25.89,80.4,22.49,83.66,21.84L83.65,21.84C83.05,21.69,82.43,21.61,81.79,21.61Z" fill="currentColor"/><path d="M38.72,5.21C34.06,5.21,30.41,8.86,30.41,13.52C30.41,14.97,30.8,16.33,31.46,17.5C32.39,10.44,36.57,6.46,39.95,5.3L39.95,5.31C39.55,5.25,39.14,5.21,38.72,5.21Z" fill="currentColor"/><path d="M62.15,5.22C57.57,5.22,53.84,8.95,53.84,13.53C53.84,14.89,54.22,16.21,54.88,17.38C55.82,10.09,60.35,6.18,63.71,5.36L63.7,5.36C63.2,5.27,62.68,5.22,62.15,5.22Z" fill="currentColor"/><path d="M32.84,60.72L35.59,60.72L36.72,58.62L36.99,58.12L37.17,57.8C37.84,56.57,38.6,55.17,38.6,52.61L38.6,49.94L36.8,48.75L36.37,48.47L34.53,47.26C35.91,44.97,36.66,42.33,36.66,39.57C36.66,37.51,36.24,35.54,35.47,33.76L32.22,33.78L29.69,33.78L22.9,42.73L27.85,68.89C18.49,70.63,18.51,76.26,18.52,82.73L18.52,83.65L18.52,84.79L47.31,84.79L47.31,83.84C47.31,76.9,44.44,71.12,39.44,67.98L39.46,67.98C35.63,65.58,33.77,62.95,32.84,60.72Z" fill="currentColor"/><path d="M35.59,60.71L36.72,58.61L36.99,58.11L37.17,57.79C37.84,56.56,38.6,55.16,38.6,52.6L38.6,49.93L36.8,48.74L36.37,48.46L35.77,48.06L25.8,58.03L27.39,66.43L33.91,72.95L39.12,67.74C35.53,65.4,33.73,62.87,32.83,60.7L32.84,60.71Z" fill="currentColor"/><path d="M28.29,40.1C28.29,41.76,29.63,43.1,31.29,43.1L36.24,43.1C36.52,41.96,36.67,40.78,36.67,39.57C36.67,37.52,36.25,35.56,35.49,33.78L31.29,33.78C29.63,33.78,28.29,35.12,28.29,36.78Z" fill="currentColor"/><path d="M10.94,39.57C10.94,42.91,12.47,46.04,15.07,48.09L9.43,51.81L9,52.09L9,52.6C9,54.15,9.38,54.84,9.95,55.88L10.14,56.22L10.41,56.72L15.75,56.72C15.51,59.37,14.79,66.02,6.28,71.37C2.47,73.76,0.29,78.31,0.29,83.85L0.29,84.8L43.34,84.8L43.34,83.85C43.34,78.31,41.16,73.77,37.35,71.37C28.86,66.04,28.12,59.37,27.88,56.72L33.22,56.72L33.49,56.22L33.68,55.88C34.25,54.84,34.63,54.15,34.63,52.6L34.63,52.09L34.2,51.81L28.56,48.09C31.16,46.03,32.69,42.9,32.69,39.57C32.69,33.58,27.82,28.71,21.82,28.71L21.8,28.71C15.81,28.71,10.94,33.58,10.94,39.57Z" fill="currentColor"/><path d="M15.07,48.09L9.01,52.09L16.01,52.09C16.32,49.98,15.02,48.14,15.07,48.09Z" fill="currentColor"/><path d="M39.98,73.68C39.21,72.78,38.33,71.99,37.34,71.37C28.85,66.04,28.11,59.37,27.87,56.72L33.21,56.72L33.48,56.22L33.67,55.88C34.24,54.84,34.62,54.15,34.62,52.6L34.62,52.09L34.19,51.81L28.55,48.09C31.15,46.03,32.68,42.9,32.68,39.57C32.68,34.92,29.74,30.96,25.63,29.41C29.24,31.96,31.7,38.54,28.3,43.33C25.69,47.01,20.59,48.12,20.59,48.12L26.88,48.12C26.96,48.19,31.32,52.86,26.83,55.77L9.9,55.77C9.9,55.77,9.94,55.84,9.96,55.88L10.15,56.22L10.42,56.72L15.76,56.72C15.76,56.8,15.74,56.89,15.74,56.98C16.05,57.3,22.11,63.43,27.16,68.19L27.15,68.19C31.54,72.33,38.42,73.47,39.98,73.68Z" fill="currentColor" opacity="0.5"/><path d="M21.8,28.71C15.81,28.71,10.94,33.58,10.94,39.57C10.94,41.13,11.29,42.64,11.91,44.02C12.79,34.37,18.85,29.49,23.01,28.78L23,28.78C22.61,28.74,22.21,28.71,21.8,28.71Z" fill="currentColor"/><path d="M14.6,61.9C13.46,64.82,11.15,68.3,6.28,71.36C2.53,73.72,0.36,78.17,0.3,83.6C2.36,77.05,5.26,76.14,10.56,72.28L10.56,72.29C14.01,69.78,14.57,62.37,14.6,61.9Z" fill="currentColor"/></svg>