<svg xmlns="http://www.w3.org/2000/svg" viewBox="0 0 90 90"><path d="M87,48C87,24.8,68.2,6,45,6C21.8,6,3,24.8,3,48C3,71.2,21.8,90,45,90C68.2,90,87,71.2,87,48Z" fill="currentColor"/><path d="M87,45C87,21.8,68.2,3,45,3C21.8,3,3,21.8,3,45C3,68.2,21.8,87,45,87C68.2,87,87,68.2,87,45Z" fill="currentColor"/><path d="M45,87C68.2,87,87,68.2,87,45C87,38.69,85.61,32.71,83.12,27.35C74.44,54.01,52.84,74.77,25.63,82.28C31.43,85.29,38.02,87,45,87Z" fill="currentColor" opacity="0.2"/><path d="M3.79,36.87C7.42,18.34,23.24,4.18,42.55,3.07C24.36,6.79,9.79,19.8,3.79,36.87Z" fill="currentColor"/><path d="M86.99,44.13C87,44.42,87,44.71,87,45C87,68.2,68.2,87,45,87C67.24,84.26,84.8,66.43,86.99,44.13Z" fill="currentColor"/><path d="M24.81,61.67C23.96,61.67,23.46,61.24,23.2,60.48L16.29,37.46C15.7,35.35,16.79,34.42,18.73,35.61L32.23,44.12C33.15,44.71,34,44.38,34.5,43.53L43.53,27.26C44.37,25.74,45.72,25.82,46.48,27.26L55.34,43.53C55.84,44.38,56.68,44.71,57.61,44.12L71.11,35.61C73.3,34.26,74.31,35.02,73.55,37.46L66.55,60.48C66.3,61.24,65.79,61.67,65.03,61.67Z" fill="currentColor"/><path d="M24.8,59.52C23.96,59.52,23.45,59.09,23.2,58.34L16.28,35.31C15.69,33.2,16.79,32.28,18.73,33.46L32.22,41.97C33.15,42.56,34,42.23,34.5,41.38L43.53,25.11C44.37,23.59,45.72,23.67,46.48,25.11L55.33,41.38C55.84,42.23,56.68,42.56,57.61,41.97L71.1,33.46C73.3,32.11,74.31,32.87,73.55,35.31L66.55,58.34C66.3,59.09,65.79,59.52,65.03,59.52Z" fill="currentColor"/></svg>