<svg xmlns="http://www.w3.org/2000/svg" viewBox="0 0 90 90"><path d="M87,48C87,24.8,68.2,6,45,6C21.8,6,3,24.8,3,48C3,71.2,21.8,90,45,90C68.2,90,87,71.2,87,48Z" fill="currentColor"/><path d="M87,45C87,21.8,68.2,3,45,3C21.8,3,3,21.8,3,45C3,68.2,21.8,87,45,87C68.2,87,87,68.2,87,45Z" fill="currentColor"/><path d="M45,87C68.2,87,87,68.2,87,45C87,38.69,85.61,32.71,83.12,27.35C74.44,54.01,52.84,74.77,25.63,82.28C31.43,85.29,38.02,87,45,87Z" fill="currentColor" opacity="0.2"/><path d="M3.79,36.87C7.42,18.34,23.24,4.18,42.55,3.07C24.36,6.79,9.79,19.8,3.79,36.87Z" fill="currentColor"/><path d="M86.99,44.13C87,44.42,87,44.71,87,45C87,68.2,68.2,87,45,87C67.24,84.26,84.8,66.43,86.99,44.13Z" fill="currentColor"/><path d="M50.39,73.91C49.55,73.91,48.96,73.33,48.96,72.4L48.96,63.89C48.96,63.05,49.55,62.46,50.39,62.46L59.24,62.46C60.08,62.46,60.67,63.05,60.67,63.89L60.67,72.4C60.67,73.33,60.08,73.91,59.16,73.91Z" fill="currentColor"/><path d="M26.71,73.91C25.96,73.91,25.03,72.99,25.03,72.31L25.03,63.47C25.03,62.2,25.96,61.95,26.71,61.95L35.9,61.95C37.08,61.95,37.42,62.79,37.42,63.47L37.42,72.31C37.42,73.16,36.74,73.91,35.9,73.91Z" fill="currentColor"/><path d="M50.81,56.22C50.06,56.22,49.38,55.97,49.38,54.79L49.38,53.1C49.38,48.64,51.91,44.93,53.59,43.58L55.95,41.64C56.97,40.72,58.06,39.7,58.99,38.69C59.75,37.77,60.17,36.67,60.17,35.49C60.17,32.96,57.98,31.53,55.45,31.53C54.02,31.53,51.57,32.04,49.38,33.89C48.71,34.56,48.12,34.48,47.19,33.55L42.56,27.91C41.97,27.23,42.22,26.56,42.72,26.05C46.35,22.43,51.91,20.83,56.04,20.83C64.89,20.83,71.63,26.56,71.63,34.65C71.63,40.46,69.6,42.57,64.63,47.54L61.6,50.49C60.76,51.42,60.34,52.6,60.34,53.78L60.34,54.79C60.34,55.71,59.83,56.22,58.9,56.22Z" fill="currentColor"/><path d="M27.14,55.46C26.38,55.46,25.7,54.7,25.7,53.94L24.78,22.35C24.78,21.42,25.45,20.83,26.38,20.83L36.24,20.83C37.42,20.83,37.75,21.59,37.75,22.35L37.08,53.94C37.08,54.96,36.41,55.46,35.48,55.46Z" fill="currentColor"/><path d="M50.39,71.29C49.55,71.29,48.96,70.7,48.96,69.77L48.96,61.26C48.96,60.42,49.55,59.83,50.39,59.83L59.24,59.83C60.08,59.83,60.67,60.42,60.67,61.26L60.67,69.77C60.67,70.7,60.08,71.29,59.16,71.29Z" fill="currentColor"/><path d="M26.71,71.29C25.96,71.29,25.03,70.36,25.03,69.69L25.03,60.84C25.03,59.58,25.96,59.32,26.71,59.32L35.9,59.32C37.08,59.32,37.42,60.17,37.42,60.84L37.42,69.69C37.42,70.53,36.74,71.29,35.9,71.29Z" fill="currentColor"/><path d="M50.81,53.59C50.06,53.59,49.38,53.34,49.38,52.16L49.38,50.48C49.38,46.01,51.91,42.3,53.59,40.96L55.95,39.02C56.97,38.09,58.06,37.08,58.99,36.07C59.75,35.14,60.17,34.05,60.17,32.87C60.17,30.34,57.98,28.91,55.45,28.91C54.02,28.91,51.57,29.41,49.38,31.27C48.71,31.94,48.12,31.85,47.19,30.93L42.56,25.28C41.97,24.61,42.22,23.93,42.72,23.43C46.35,19.81,51.91,18.2,56.04,18.2C64.89,18.2,71.63,23.93,71.63,32.02C71.63,37.84,69.6,39.94,64.63,44.92L61.6,47.86C60.76,48.79,60.34,49.97,60.34,51.15L60.34,52.16C60.34,53.09,59.83,53.59,58.9,53.59Z" fill="currentColor"/><path d="M27.14,52.84C26.38,52.84,25.7,52.08,25.7,51.32L24.78,19.72C24.78,18.79,25.45,18.2,26.38,18.2L36.24,18.2C37.42,18.2,37.75,18.96,37.75,19.72L37.08,51.32C37.08,52.33,36.41,52.84,35.48,52.84Z" fill="currentColor"/></svg>