<svg xmlns="http://www.w3.org/2000/svg" viewBox="0 0 90 90"><path d="M87,48C87,24.8,68.2,6,45,6C21.8,6,3,24.8,3,48C3,71.2,21.8,90,45,90C68.2,90,87,71.2,87,48Z" fill="currentColor"/><path d="M87,45C87,21.8,68.2,3,45,3C21.8,3,3,21.8,3,45C3,68.2,21.8,87,45,87C68.2,87,87,68.2,87,45Z" fill="currentColor"/><path d="M45,87C68.2,87,87,68.2,87,45C87,38.69,85.61,32.71,83.12,27.35C74.44,54.01,52.84,74.77,25.63,82.28C31.43,85.29,38.02,87,45,87Z" fill="currentColor" opacity="0.2"/><path d="M3.79,36.87C7.42,18.34,23.24,4.18,42.55,3.07C24.36,6.79,9.79,19.8,3.79,36.87Z" fill="currentColor"/><path d="M86.99,44.13C87,44.42,87,44.71,87,45C87,68.2,68.2,87,45,87C67.24,84.26,84.8,66.43,86.99,44.13Z" fill="currentColor"/><path d="M27.52,73.94C26.68,73.94,26.08,73.35,26.08,72.42L26.08,63.9C26.08,63.06,26.68,62.47,27.52,62.47L36.37,62.47C37.22,62.47,37.81,63.06,37.81,63.9L37.81,72.42C37.81,73.35,37.22,73.94,36.29,73.94Z" fill="currentColor"/><path d="M55.1,73.94C54.25,73.94,53.58,73.18,53.58,72.34L53.58,63.48C53.58,62.81,53.92,61.96,55.1,61.96L64.29,61.96C65.05,61.96,65.98,62.22,65.98,63.48L65.98,72.34C65.98,73.01,65.05,73.94,64.29,73.94Z" fill="currentColor"/><path d="M27.94,56.23C27.18,56.23,26.51,55.97,26.51,54.79L26.51,53.11C26.51,48.64,29.04,44.93,30.72,43.58L33.08,41.64C34.1,40.71,35.19,39.7,36.12,38.69C36.88,37.76,37.3,36.66,37.3,35.48C37.3,32.95,35.11,31.52,32.58,31.52C31.14,31.52,28.7,32.02,26.51,33.88C25.83,34.55,25.24,34.47,24.31,33.54L19.68,27.89C19.08,27.22,19.34,26.54,19.84,26.03C23.47,22.41,29.04,20.81,33.17,20.81C42.02,20.81,48.77,26.54,48.77,34.64C48.77,40.46,46.75,42.56,41.77,47.54L38.74,50.49C37.89,51.42,37.47,52.6,37.47,53.78L37.47,54.79C37.47,55.72,36.96,56.23,36.04,56.23Z" fill="currentColor"/><path d="M55.52,55.47C54.59,55.47,53.92,54.96,53.92,53.95L53.24,22.32C53.24,21.56,53.58,20.81,54.76,20.81L64.63,20.81C65.55,20.81,66.23,21.4,66.23,22.32L65.3,53.95C65.3,54.71,64.63,55.47,63.87,55.47Z" fill="currentColor"/><path d="M27.52,71.88C26.68,71.88,26.08,71.29,26.08,70.36L26.08,61.85C26.08,61,26.68,60.41,27.52,60.41L36.37,60.41C37.22,60.41,37.81,61,37.81,61.85L37.81,70.36C37.81,71.29,37.22,71.88,36.29,71.88Z" fill="currentColor"/><path d="M55.1,71.88C54.25,71.88,53.58,71.12,53.58,70.28L53.58,61.42C53.58,60.75,53.92,59.91,55.1,59.91L64.29,59.91C65.05,59.91,65.98,60.16,65.98,61.42L65.98,70.28C65.98,70.95,65.05,71.88,64.29,71.88Z" fill="currentColor"/><path d="M27.94,54.17C27.18,54.17,26.51,53.92,26.51,52.74L26.51,51.05C26.51,46.58,29.04,42.87,30.72,41.52L33.08,39.58C34.1,38.65,35.19,37.64,36.12,36.63C36.88,35.7,37.3,34.61,37.3,33.42C37.3,30.89,35.11,29.46,32.58,29.46C31.14,29.46,28.7,29.97,26.51,31.82C25.83,32.5,25.24,32.41,24.31,31.48L19.68,25.83C19.08,25.16,19.34,24.48,19.84,23.98C23.47,20.35,29.04,18.75,33.17,18.75C42.02,18.75,48.77,24.48,48.77,32.58C48.77,38.4,46.75,40.51,41.77,45.48L38.74,48.44C37.89,49.36,37.47,50.55,37.47,51.73L37.47,52.74C37.47,53.67,36.96,54.17,36.04,54.17Z" fill="currentColor"/><path d="M55.52,53.41C54.59,53.41,53.92,52.91,53.92,51.89L53.24,20.27C53.24,19.51,53.58,18.75,54.76,18.75L64.63,18.75C65.55,18.75,66.23,19.34,66.23,20.27L65.3,51.89C65.3,52.65,64.63,53.41,63.87,53.41Z" fill="currentColor"/></svg>