<svg xmlns="http://www.w3.org/2000/svg" viewBox="0 0 90 90"><path d="M88,46C88,69.2,69.2,88,46,88C22.8,88,4,69.2,4,46C4,22.8,22.8,4,46,4C69.2,4,88,22.8,88,46Z" fill="currentColor"/><path d="M88,49C88,72.2,69.2,91,46,91C22.8,91,4,72.2,4,49C4,25.8,22.8,7,46,7C69.2,7,88,25.8,88,49Z" fill="currentColor"/><path d="M46,7C69.2,7,88,25.8,88,49C88,55.31,86.61,61.29,84.12,66.65C75.44,39.99,53.84,19.23,26.63,11.72C32.43,8.71,39.02,7,46,7Z" fill="currentColor" opacity="0.2"/><path d="M4.79,57.13C8.42,75.66,24.24,89.82,43.55,90.93C25.36,87.21,10.79,74.2,4.79,57.13Z" fill="currentColor"/><path d="M87.99,49.87C88,49.58,88,49.29,88,49C88,25.8,69.2,7,46,7C68.24,9.74,85.8,27.57,87.99,49.87Z" fill="currentColor"/><path d="M28.29,25.04L32.67,41.65L19.35,52.45C17.58,53.88,19.01,56.24,20.61,56.41L37.82,57.34L43.98,73.36C44.31,74.21,45.16,74.8,46.08,74.8C46.93,74.8,47.77,74.29,48.11,73.36L54.26,57.34L71.38,56.41C73.58,56.33,74.08,53.63,72.65,52.53L59.32,41.65L63.71,25.04C64.3,22.93,61.85,21.75,60.42,22.68L46,31.95L31.58,22.68C29.81,21.5,27.7,23.01,28.29,25.04Z" fill="currentColor"/><path d="M28.29,27.66L32.67,44.28L19.35,55.07C17.58,56.51,19.01,58.87,20.61,59.04L37.82,59.96L43.98,75.99C44.31,76.83,45.16,77.42,46.08,77.42C46.93,77.42,47.77,76.92,48.11,75.99L54.26,59.96L71.38,59.04C73.58,58.95,74.08,56.25,72.65,55.16L59.32,44.28L63.71,27.66C64.3,25.55,61.85,24.37,60.42,25.3L46,34.58L31.58,25.3C29.81,24.12,27.7,25.64,28.29,27.66Z" fill="currentColor"/></svg>