<svg xmlns="http://www.w3.org/2000/svg" viewBox="0 0 90 90"><path d="M27,9.23C27.01,8.84,27.01,8.46,27.01,8.07L27.01,6L90.99,6L90.99,8.07C90.99,8.46,90.99,8.84,91,9.23C91.04,15.23,91.07,20.42,80.99,21.94C80.97,21.94,80.96,21.95,80.94,21.95L76.36,59.7C81.31,61.59,83.38,64.2,83.74,68.35L85,81.32C83.74,81.95,81.94,82.49,80.23,82.94C78.07,83.48,76.81,83.75,75.19,83.93L71.67,72.94L67.71,72.94L65.73,85.37C63.48,85.73,61.14,86,58.88,86C56.63,86,54.29,85.73,52.04,85.37L50.15,72.94L46.09,72.94L42.58,83.93C39.88,83.93,36.19,82.76,32.94,81.5L34.03,68.35C34.39,64.47,35.83,61.86,41.5,59.7L37.01,21.94C26.93,20.5,26.96,15.24,27,9.23Z" fill="currentColor"/><path d="M80.95,21.88L80.95,21.87L80.95,21.87C78.79,22.14,76.63,22.32,74.47,22.41C74.02,24.5,73.61,26.53,73.2,28.51C69.42,47.19,66.71,60.57,45.28,60.24C52.76,61.77,63.84,61.95,70.14,61.05C77.45,62.57,79.69,74.81,80.96,82.74C82.42,82.34,83.88,81.87,84.96,81.34C84.97,81.33,84.99,81.32,85,81.32L83.74,68.35C83.74,68.33,83.74,68.32,83.74,68.31C83.37,64.19,81.3,61.59,76.36,59.7Z" fill="currentColor" opacity="0.5"/><path d="M50.15,72.94L52.04,85.37C54.29,85.73,56.63,86,58.88,86C53.36,84.1,50.81,75.25,50.21,73.17C50.19,73.08,50.17,73,50.15,72.94Z" fill="currentColor"/><path d="M36.76,62.35C34.91,63.98,34.25,65.91,34.03,68.33L34.03,68.35L32.94,81.5C35.07,82.32,37.39,83.11,39.5,83.56C35.95,81.22,35.12,70.34,36.76,62.35Z" fill="currentColor"/><path d="M75.19,83.93L71.67,72.94C72.62,74.75,75.74,80.35,79.47,83.13C77.77,83.54,76.64,83.76,75.24,83.92Z" fill="currentColor"/><path d="M90.53,15.46C87.01,17.8,80.89,18.43,58.99,18.43C37.18,18.43,30.69,17.89,27.45,15.55C28.26,18.61,30.69,20.95,37,21.94C40.07,22.39,49.53,22.48,58.99,22.48C61.2,22.48,63.17,22.49,64.96,22.49C72.96,22.52,77.15,22.53,80.98,21.94C87.37,20.95,89.72,18.61,90.53,15.46Z" fill="currentColor"/><path d="M37.01,21.94L38.44,34.01L39.87,46L40.86,54.34L47.9,47.3C52.5,42.8,52.5,37.2,47.9,32.7L27.7,12.5C27.46,12.26,27.24,12.04,27.02,11.84C27.18,16.71,28.42,20.71,37.01,21.94Z" fill="currentColor"/><path d="M41.5,40L41.5,52L7,52C2,52,1,51,1,46C1,41.1,2,40.1,7,40.1Z" fill="currentColor"/><path d="M38.3,46L19.3,26.9C15.8,23.4,15.8,22,19.3,18.5C22.8,15,24.2,15,27.7,18.5L47.9,38.7C52.5,43.2,52.5,48.8,47.9,53.3L27.7,73.5C24.2,77,22.8,77,19.3,73.5C15.8,70,15.8,68.6,19.3,65.1Z" fill="currentColor"/></svg>