<svg xmlns="http://www.w3.org/2000/svg" viewBox="0 0 90 90"><path d="M88,46C88,69.2,69.2,88,46,88C22.8,88,4,69.2,4,46C4,22.8,22.8,4,46,4C69.2,4,88,22.8,88,46Z" fill="currentColor"/><path d="M88,49C88,72.2,69.2,91,46,91C22.8,91,4,72.2,4,49C4,25.8,22.8,7,46,7C69.2,7,88,25.8,88,49Z" fill="currentColor"/><path d="M46,7C69.2,7,88,25.8,88,49C88,55.31,86.61,61.29,84.12,66.65C75.44,39.99,53.84,19.23,26.63,11.72C32.43,8.71,39.02,7,46,7Z" fill="currentColor" opacity="0.2"/><path d="M4.79,57.13C8.42,75.66,24.24,89.82,43.55,90.93C25.36,87.21,10.79,74.2,4.79,57.13Z" fill="currentColor"/><path d="M87.99,49.87C88,49.58,88,49.29,88,49C88,25.8,69.2,7,46,7C68.24,9.74,85.8,27.57,87.99,49.87Z" fill="currentColor"/><path d="M28.52,20.06C27.68,20.06,27.08,20.65,27.08,21.58L27.08,30.1C27.08,30.94,27.68,31.53,28.52,31.53L37.37,31.53C38.22,31.53,38.81,30.94,38.81,30.1L38.81,21.58C38.81,20.65,38.22,20.06,37.29,20.06Z" fill="currentColor"/><path d="M56.1,20.06C55.25,20.06,54.58,20.82,54.58,21.66L54.58,30.52C54.58,31.19,54.92,32.04,56.1,32.04L65.29,32.04C66.05,32.04,66.98,31.78,66.98,30.52L66.98,21.66C66.98,20.99,66.05,20.06,65.29,20.06Z" fill="currentColor"/><path d="M28.94,37.77C28.18,37.77,27.51,38.03,27.51,39.21L27.51,40.89C27.51,45.36,30.04,49.07,31.72,50.42L34.08,52.36C35.1,53.29,36.19,54.3,37.12,55.31C37.88,56.24,38.3,57.34,38.3,58.52C38.3,61.05,36.11,62.48,33.58,62.48C32.14,62.48,29.7,61.98,27.51,60.12C26.83,59.45,26.24,59.53,25.31,60.46L20.68,66.11C20.08,66.78,20.34,67.46,20.84,67.97C24.47,71.59,30.04,73.19,34.17,73.19C43.02,73.19,49.77,67.46,49.77,59.36C49.77,53.54,47.75,51.44,42.77,46.46L39.74,43.51C38.89,42.58,38.47,41.4,38.47,40.22L38.47,39.21C38.47,38.28,37.96,37.77,37.04,37.77Z" fill="currentColor"/><path d="M56.52,38.53C55.59,38.53,54.92,39.04,54.92,40.05L54.24,71.68C54.24,72.44,54.58,73.19,55.76,73.19L65.63,73.19C66.55,73.19,67.23,72.6,67.23,71.68L66.3,40.05C66.3,39.29,65.63,38.53,64.87,38.53Z" fill="currentColor"/><path d="M28.52,22.12C27.68,22.12,27.08,22.71,27.08,23.64L27.08,32.15C27.08,33,27.68,33.59,28.52,33.59L37.37,33.59C38.22,33.59,38.81,33,38.81,32.15L38.81,23.64C38.81,22.71,38.22,22.12,37.29,22.12Z" fill="currentColor"/><path d="M56.1,22.12C55.25,22.12,54.58,22.88,54.58,23.72L54.58,32.58C54.58,33.25,54.92,34.09,56.1,34.09L65.29,34.09C66.05,34.09,66.98,33.84,66.98,32.58L66.98,23.72C66.98,23.05,66.05,22.12,65.29,22.12Z" fill="currentColor"/><path d="M28.94,39.83C28.18,39.83,27.51,40.08,27.51,41.26L27.51,42.95C27.51,47.42,30.04,51.13,31.72,52.48L34.08,54.42C35.1,55.35,36.19,56.36,37.12,57.37C37.88,58.3,38.3,59.39,38.3,60.58C38.3,63.11,36.11,64.54,33.58,64.54C32.14,64.54,29.7,64.03,27.51,62.18C26.83,61.5,26.24,61.59,25.31,62.52L20.68,68.17C20.08,68.84,20.34,69.52,20.84,70.02C24.47,73.65,30.04,75.25,34.17,75.25C43.02,75.25,49.77,69.52,49.77,61.42C49.77,55.6,47.75,53.49,42.77,48.52L39.74,45.56C38.89,44.64,38.47,43.45,38.47,42.27L38.47,41.26C38.47,40.33,37.96,39.83,37.04,39.83Z" fill="currentColor"/><path d="M56.52,40.59C55.59,40.59,54.92,41.09,54.92,42.11L54.24,73.73C54.24,74.49,54.58,75.25,55.76,75.25L65.63,75.25C66.55,75.25,67.23,74.66,67.23,73.73L66.3,42.11C66.3,41.35,65.63,40.59,64.87,40.59Z" fill="currentColor"/></svg>