<svg xmlns="http://www.w3.org/2000/svg" viewBox="0 0 90 90"><path d="M74.74,6.13L75.84,13.03L78.04,13.03L79.99,6.93C80.89,7.03,81.59,7.18,82.79,7.48C83.75,7.73,84.75,8.03,85.45,8.38L84.75,15.59C84.55,17.89,83.39,19.34,80.64,20.39L83.19,41.36C83.2,41.36,83.21,41.36,83.22,41.37C89.17,42.27,88.77,45.47,88.77,49.07L88.77,50.22L53.23,50.22L53.23,49.07C53.23,45.47,52.83,42.22,58.78,41.37L61.28,20.39C58.13,19.19,57.33,17.74,57.12,15.59L56.53,8.28C58.33,7.58,60.38,6.93,61.88,6.93L63.83,13.03L66.08,13.03L67.13,6.13C68.38,5.93,69.68,5.78,70.94,5.78C72.19,5.78,73.49,5.93,74.74,6.13Z" fill="currentColor"/><path d="M83.19,41.4L83.19,41.4L83.19,41.4C81.99,41.25,80.79,41.15,79.59,41.1C79.34,39.95,79.11,38.82,78.89,37.72C76.79,27.34,75.28,19.91,63.38,20.09C67.53,19.24,73.69,19.14,77.19,19.64C81.25,18.8,82.49,12,83.2,7.59C84.01,7.81,84.82,8.07,85.42,8.37C85.43,8.37,85.44,8.38,85.45,8.38L84.75,15.59C84.75,15.59,84.74,15.6,84.74,15.61C84.54,17.9,83.39,19.34,80.64,20.39Z" fill="currentColor" opacity="0.5"/><path d="M83.21,41.37C86.76,41.92,88.07,43.22,88.52,44.97C86.56,43.67,83.16,43.32,70.99,43.32C58.88,43.32,55.27,43.62,53.47,44.92C53.92,43.22,55.27,41.92,58.78,41.37C60.48,41.12,65.74,41.06,70.99,41.06C77.7,41.06,80.61,40.97,83.21,41.37Z" fill="currentColor"/><path d="M58.64,18.92C57.62,18.01,57.25,16.94,57.13,15.6C57.13,15.59,57.13,15.59,57.13,15.58L56.52,8.28C57.71,7.82,59,7.38,60.17,7.14C58.2,8.43,57.73,14.48,58.64,18.92Z" fill="currentColor"/><path d="M82.37,7.37C80.3,8.92,78.57,12.03,78.04,13.03L79.99,6.93C80,6.93,80.01,6.93,80.02,6.93C80.8,7.02,81.43,7.15,82.37,7.37Z" fill="currentColor"/><path d="M66.08,13.03L67.13,6.13C68.38,5.93,69.69,5.78,70.94,5.78C67.73,6.88,66.33,12.18,66.08,13.03Z" fill="currentColor"/><path d="M24.74,6.13L25.84,13.03L28.04,13.03L29.99,6.93C30.89,7.03,31.59,7.18,32.79,7.48C33.75,7.73,34.75,8.03,35.45,8.38L34.75,15.59C34.55,17.89,33.39,19.34,30.64,20.39L33.19,41.36C33.2,41.36,33.21,41.36,33.22,41.37C39.17,42.27,38.77,45.47,38.77,49.07L38.77,50.22L3.23,50.22L3.23,49.07C3.23,45.47,2.83,42.22,8.78,41.37L11.28,20.39C8.13,19.19,7.32,17.74,7.12,15.59L6.53,8.28C8.33,7.58,10.38,6.93,11.88,6.93L13.83,13.03L16.08,13.03L17.13,6.13C18.38,5.93,19.68,5.78,20.94,5.78C22.19,5.78,23.49,5.93,24.74,6.13Z" fill="currentColor"/><path d="M33.19,41.4L33.19,41.4L33.19,41.4C31.99,41.25,30.79,41.15,29.59,41.1C29.34,39.95,29.11,38.82,28.89,37.72C26.79,27.34,25.28,19.91,13.38,20.09C17.53,19.24,23.69,19.14,27.19,19.64C31.25,18.8,32.49,12,33.2,7.59C34.01,7.81,34.82,8.07,35.42,8.37C35.43,8.37,35.44,8.38,35.45,8.38L34.75,15.59C34.75,15.59,34.74,15.6,34.74,15.61C34.54,17.9,33.39,19.34,30.64,20.39Z" fill="currentColor" opacity="0.5"/><path d="M33.21,41.37C36.76,41.92,38.07,43.22,38.52,44.97C36.56,43.67,33.16,43.32,20.99,43.32C8.88,43.32,5.27,43.62,3.47,44.92C3.92,43.22,5.27,41.92,8.78,41.37C10.48,41.12,15.74,41.06,20.99,41.06C27.7,41.06,30.61,40.97,33.21,41.37Z" fill="currentColor"/><path d="M8.64,18.92C7.62,18.01,7.25,16.94,7.13,15.6C7.13,15.59,7.13,15.59,7.13,15.58L6.52,8.28C7.71,7.82,9,7.38,10.17,7.14C8.2,8.43,7.73,14.48,8.64,18.92Z" fill="currentColor"/><path d="M32.37,7.37C30.3,8.92,28.57,12.03,28.04,13.03L29.99,6.93C30,6.93,30.01,6.93,30.02,6.93C30.8,7.02,31.43,7.15,32.37,7.37Z" fill="currentColor"/><path d="M16.08,13.03L17.13,6.13C18.38,5.93,19.68,5.78,20.94,5.78C17.73,6.88,16.33,12.18,16.08,13.03Z" fill="currentColor"/><path d="M18.16,66.37L18,66.17L10.89,58.11L10.76,57.99C10.53,57.75,10.28,57.62,9.97,57.62C9.64,57.62,9.4,57.74,9.13,57.99L1.98,66.18L1.98,66.18C1.49,66.74,1.48,67.07,1.51,67.17C1.53,67.23,1.67,67.43,2.3,67.43L17.59,67.43C18.27,67.43,18.42,67.22,18.44,67.16C18.48,67.07,18.48,66.81,18.16,66.37Z" fill="currentColor" stroke="currentColor" stroke-width="1"/><path d="M10,62.88L10,77.88C10,81.75,13.13,84.88,17,84.88L29,84.88" fill="none" stroke="currentColor" stroke-width="6"/><path d="M73.84,66.37L74,66.17L81.11,58.11L81.24,57.99C81.47,57.75,81.72,57.62,82.03,57.62C82.36,57.62,82.6,57.74,82.87,57.99L90.02,66.18L90.02,66.18C90.51,66.74,90.52,67.07,90.49,67.17C90.47,67.23,90.33,67.43,89.7,67.43L74.42,67.43C73.73,67.43,73.58,67.22,73.56,67.16C73.52,67.07,73.52,66.81,73.84,66.37Z" fill="currentColor" stroke="currentColor" stroke-width="1"/><path d="M82,62.88L82,77.88C82,81.75,78.87,84.88,75,84.88L63,84.88" fill="none" stroke="currentColor" stroke-width="6"/><path d="M69.36,55.57C69.36,60.67,66.13,70.09,65.55,72.88C65.55,72.88,65.3,73.75,65.15,75.21C74.17,76.72,74.16,83.47,74.16,83.52L74.16,87.83L22.52,87.83L22.52,83.52C22.52,83.47,22.51,76.04,32.93,75.02L33.03,72.88C33.68,66.37,39.62,61.63,43.01,58.88C45.12,57.17,47.28,55.23,48.05,52.53C48.88,49.61,46.99,46.98,46.31,46.16L44.55,48.19C42.78,50.05,39.62,53.29,36.06,53.31C31.44,53.33,31.33,56.56,29.16,58.66L29.18,58.67C28.68,59.15,23.04,57.76,21.07,56.09C19.59,54.84,19.41,52.5,20.79,50.79L26.17,43.23C28.57,39.74,28.68,37.87,30.06,34.35C30.45,33.36,30.9,31.99,32.65,30.54C34.4,29.09,35.53,27.96,36.22,26.28L36.89,23.05C37.12,22.07,37.99,21.18,38.83,21.18L44.77,27.1C56.37,27.88,69.36,36.33,69.36,55.57Z" fill="currentColor"/><path d="M69.36,55.57C69.36,59.25,67.68,65.17,66.52,69.24C66.08,70.81,65.71,72.1,65.55,72.88C65.54,72.91,65.32,73.81,65.17,75.21C65.17,75.21,55.65,74.7,53.47,74.9C54.34,71.7,56.08,68.94,57.9,66.05C60.86,61.34,64.04,56.3,64.04,48.49C64.04,31.8,48.83,27.84,45.25,27.14C56.73,28.12,69.36,36.6,69.36,55.57Z" fill="currentColor"/><path d="M37.32,53.16C36.91,53.25,36.49,53.3,36.06,53.3C31.44,53.32,31.33,56.55,29.16,58.65C29.04,58.76,28.64,58.77,28.09,58.7C28.54,57.93,29.82,56.53,30.78,53.64C32.34,48.95,33.4,51.15,37.32,53.16Z" fill="currentColor"/><path d="M37.32,53.16C37.32,53.16,37.33,53.16,37.33,53.16L37.33,53.17C37.33,53.16,37.32,53.16,37.32,53.16Z" fill="currentColor"/><path d="M50.12,44.14C50.14,45.42,49.33,49.01,48.1,52.23C48.73,49.43,46.97,46.95,46.31,46.16L46.16,46.33C46.18,46.24,46.2,46.19,46.2,46.18C46.2,46.18,48.27,42.94,49.1,41.34C49.93,39.74,50.1,42.74,50.12,44.14Z" fill="currentColor"/><path d="M44.5,27.01C44.56,27.01,44.61,27,44.67,27L44.7,27.04C44.57,27.02,44.5,27.01,44.5,27.01Z" fill="currentColor"/><path d="M72.81,79.57C71.14,78.96,65.64,77.72,48.52,77.72C28.99,77.72,24.58,79.33,23.73,79.78C25.18,77.45,28.36,74.91,35.38,74.91L61.3,74.91C68.12,74.91,71.3,77.3,72.81,79.57Z" fill="currentColor"/><path d="M37.39,29.48C30.3,33.89,31.59,39.29,29.53,42.03C28.52,43.39,21.33,52.26,19.94,53.97C19.76,52.91,19.98,51.74,20.78,50.77L20.78,50.78L26.16,43.22C28.56,39.73,28.67,37.86,30.05,34.33C30.43,33.34,30.88,31.98,32.64,30.53C34.39,29.08,35.52,27.94,36.21,26.27L36.88,23.03C37.06,22.3,37.58,21.62,38.18,21.32C38.32,21.29,38.44,21.26,38.58,21.26C38.58,21.26,41.08,27.19,37.39,29.48Z" fill="currentColor"/></svg>