<svg xmlns="http://www.w3.org/2000/svg" viewBox="0 0 90 90"><path d="M87,48C87,24.8,68.2,6,45,6C21.8,6,3,24.8,3,48C3,71.2,21.8,90,45,90C68.2,90,87,71.2,87,48Z" fill="currentColor"/><path d="M87,45C87,21.8,68.2,3,45,3C21.8,3,3,21.8,3,45C3,68.2,21.8,87,45,87C68.2,87,87,68.2,87,45Z" fill="currentColor"/><path d="M45,87C68.2,87,87,68.2,87,45C87,38.69,85.61,32.71,83.12,27.35C74.44,54.01,52.84,74.77,25.63,82.28C31.43,85.29,38.02,87,45,87Z" fill="currentColor" opacity="0.2"/><path d="M3.79,36.87C7.42,18.34,23.24,4.18,42.55,3.07C24.36,6.79,9.79,19.8,3.79,36.87Z" fill="currentColor"/><path d="M86.99,44.13C87,44.42,87,44.71,87,45C87,68.2,68.2,87,45,87C67.24,84.26,84.8,66.43,86.99,44.13Z" fill="currentColor"/><path d="M23.07,67.02C21.81,67.02,20.71,66.01,20.71,64.75L20.71,43.41C20.71,42.14,21.81,41.05,23.07,41.05L28.64,41.05C29.9,41.05,30.92,42.14,30.92,43.41L30.92,64.75C30.92,66.01,29.9,67.02,28.64,67.02Z" fill="currentColor"/><path d="M46.77,67.95C44.24,67.61,42.47,67.02,40.03,66.43C38,66.01,35.98,65.67,33.87,65.59L33.87,42.56C38.93,40.63,45.42,36.16,48.29,27.38C49.13,25.02,48.63,19.46,52.51,20.55C58.5,22.07,57.06,29.24,56.13,31.85C55.29,34.3,53.52,38.69,55.29,39.87C56.47,40.54,64.06,39.87,64.99,39.95C67.6,40.2,68.62,41.47,68.95,44.08C69.12,46.28,68.11,47.37,68.11,47.96C68.11,48.64,69.21,49.9,69.21,51.84C69.21,53.78,67.6,55.3,67.35,56.23C67.1,57.16,67.86,58.5,67.27,60.36C66.59,62.13,65.5,62.22,64.9,63.56C64.74,63.99,64.65,64.49,64.57,64.91C63.98,67.36,62.29,68.2,59.84,68.63C57.57,68.96,56.64,68.71,54.36,68.71C51.58,68.71,49.56,68.37,46.77,67.95Z" fill="currentColor"/><path d="M23.07,64.4C21.81,64.4,20.71,63.39,20.71,62.12L20.71,40.78C20.71,39.52,21.81,38.42,23.07,38.42L28.64,38.42C29.9,38.42,30.92,39.52,30.92,40.78L30.92,62.12C30.92,63.39,29.9,64.4,28.64,64.4Z" fill="currentColor"/><path d="M46.77,65.33C44.24,64.99,42.47,64.4,40.03,63.81C38,63.39,35.98,63.05,33.87,62.96L33.87,39.94C38.93,38,45.42,33.53,48.29,24.76C49.13,22.4,48.63,16.83,52.51,17.93C58.5,19.45,57.06,26.61,56.13,29.23C55.29,31.67,53.52,36.06,55.29,37.24C56.47,37.92,64.06,37.24,64.99,37.33C67.6,37.58,68.62,38.84,68.95,41.46C69.12,43.65,68.11,44.75,68.11,45.34C68.11,46.01,69.21,47.28,69.21,49.22C69.21,51.16,67.6,52.67,67.35,53.6C67.1,54.53,67.86,55.88,67.27,57.73C66.59,59.51,65.5,59.59,64.9,60.94C64.74,61.36,64.65,61.87,64.57,62.29C63.98,64.73,62.29,65.58,59.84,66C57.57,66.34,56.64,66.08,54.36,66.08C51.58,66.08,49.56,65.75,46.77,65.33Z" fill="currentColor"/></svg>