<svg xmlns="http://www.w3.org/2000/svg" viewBox="0 0 90 90"><path d="M87,48C87,24.8,68.2,6,45,6C21.8,6,3,24.8,3,48C3,71.2,21.8,90,45,90C68.2,90,87,71.2,87,48Z" fill="currentColor"/><path d="M87,45C87,21.8,68.2,3,45,3C21.8,3,3,21.8,3,45C3,68.2,21.8,87,45,87C68.2,87,87,68.2,87,45Z" fill="currentColor"/><path d="M45,87C68.2,87,87,68.2,87,45C87,38.69,85.61,32.71,83.12,27.35C74.44,54.01,52.84,74.77,25.63,82.28C31.43,85.29,38.02,87,45,87Z" fill="currentColor" opacity="0.2"/><path d="M3.79,36.87C7.42,18.34,23.24,4.18,42.55,3.07C24.36,6.79,9.79,19.8,3.79,36.87Z" fill="currentColor"/><path d="M86.99,44.13C87,44.42,87,44.71,87,45C87,68.2,68.2,87,45,87C67.24,84.26,84.8,66.43,86.99,44.13Z" fill="currentColor"/><path d="M39.02,74.93C38.18,74.93,37.59,74.34,37.59,73.41L37.59,64.9C37.59,64.06,38.18,63.47,39.02,63.47L47.87,63.47C48.71,63.47,49.3,64.06,49.3,64.9L49.3,73.41C49.3,74.34,48.71,74.93,47.78,74.93Z" fill="currentColor"/><path d="M39.44,57.23C38.68,57.23,38.01,56.98,38.01,55.8L38.01,54.11C38.01,49.65,40.53,45.94,42.22,44.59L44.58,42.65C45.59,41.73,46.69,40.72,47.61,39.7C48.37,38.78,48.79,37.68,48.79,36.5C48.79,33.97,46.6,32.54,44.07,32.54C42.64,32.54,40.2,33.05,38.01,34.9C37.33,35.58,36.74,35.49,35.82,34.56L31.18,28.92C30.59,28.24,30.84,27.57,31.35,27.06C34.97,23.44,40.53,21.84,44.66,21.84C53.51,21.84,60.25,27.57,60.25,35.66C60.25,41.47,58.23,43.58,53.26,48.55L50.23,51.5C49.38,52.43,48.96,53.61,48.96,54.79L48.96,55.8C48.96,56.73,48.46,57.23,47.53,57.23Z" fill="currentColor"/><path d="M39.02,72.3C38.18,72.3,37.59,71.71,37.59,70.78L37.59,62.27C37.59,61.43,38.18,60.84,39.02,60.84L47.87,60.84C48.71,60.84,49.3,61.43,49.3,62.27L49.3,70.78C49.3,71.71,48.71,72.3,47.78,72.3Z" fill="currentColor"/><path d="M39.44,54.61C38.68,54.61,38.01,54.35,38.01,53.17L38.01,51.49C38.01,47.02,40.53,43.31,42.22,41.97L44.58,40.03C45.59,39.1,46.69,38.09,47.61,37.08C48.37,36.15,48.79,35.06,48.79,33.88C48.79,31.35,46.6,29.92,44.07,29.92C42.64,29.92,40.2,30.42,38.01,32.28C37.33,32.95,36.74,32.87,35.82,31.94L31.18,26.29C30.59,25.62,30.84,24.95,31.35,24.44C34.97,20.82,40.53,19.22,44.66,19.22C53.51,19.22,60.25,24.95,60.25,33.03C60.25,38.85,58.23,40.96,53.26,45.93L50.23,48.88C49.38,49.8,48.96,50.98,48.96,52.16L48.96,53.17C48.96,54.1,48.46,54.61,47.53,54.61Z" fill="currentColor"/></svg>