<svg xmlns="http://www.w3.org/2000/svg" viewBox="0 0 90 90"><path d="M87,48C87,24.8,68.2,6,45,6C21.8,6,3,24.8,3,48C3,71.2,21.8,90,45,90C68.2,90,87,71.2,87,48Z" fill="currentColor"/><path d="M87,45C87,21.8,68.2,3,45,3C21.8,3,3,21.8,3,45C3,68.2,21.8,87,45,87C68.2,87,87,68.2,87,45Z" fill="currentColor"/><path d="M45,87C68.2,87,87,68.2,87,45C87,38.69,85.61,32.71,83.12,27.35C74.44,54.01,52.84,74.77,25.63,82.28C31.43,85.29,38.02,87,45,87Z" fill="currentColor" opacity="0.2"/><path d="M3.79,36.87C7.42,18.34,23.24,4.18,42.55,3.07C24.36,6.79,9.79,19.8,3.79,36.87Z" fill="currentColor"/><path d="M86.99,44.13C87,44.42,87,44.71,87,45C87,68.2,68.2,87,45,87C67.24,84.26,84.8,66.43,86.99,44.13Z" fill="currentColor"/><path d="M42.47,71.83C37.66,68.54,30.75,66.43,19.87,66.43L17.17,66.43L17.17,25.7L19.87,25.7C30.66,25.7,37.66,27.3,42.47,30.84Z" fill="currentColor"/><path d="M47.53,30.84C52.34,27.3,59.34,25.7,70.13,25.7L72.83,25.7L72.83,66.43L70.13,66.43C59.25,66.43,52.25,68.46,47.53,71.83Z" fill="currentColor"/><path d="M42.47,69.2C37.66,65.92,30.75,63.81,19.87,63.81L17.17,63.81L17.17,23.07L19.87,23.07C30.66,23.07,37.66,24.67,42.47,28.22Z" fill="currentColor"/><path d="M47.53,28.22C52.34,24.67,59.34,23.07,70.13,23.07L72.83,23.07L72.83,63.81L70.13,63.81C59.25,63.81,52.25,65.83,47.53,69.2Z" fill="currentColor"/></svg>