<svg xmlns="http://www.w3.org/2000/svg" viewBox="0 0 90 90"><path d="M36.71,16.03L36.71,16.03L44.77,9.31L44.9,9.19C45.14,8.97,45.26,8.74,45.26,8.47C45.26,8.18,45.15,7.96,44.9,7.71L36.71,0.96L36.71,0.96C36.16,0.49,35.82,0.48,35.7,0.51C35.64,0.53,35.45,0.65,35.45,1.23L35.45,15.66C35.45,16.29,35.65,16.42,35.71,16.44C35.83,16.48,36.16,16.47,36.71,16.03Z" fill="currentColor"/><path d="M57.29,73.97L57.29,73.97L49.23,80.69L49.1,80.81C48.86,81.03,48.74,81.26,48.74,81.53C48.74,81.82,48.85,82.04,49.1,82.29L57.29,89.04L57.29,89.04C57.84,89.51,58.18,89.52,58.3,89.49C58.36,89.47,58.55,89.35,58.55,88.77L58.55,74.34C58.55,73.71,58.35,73.58,58.29,73.56C58.17,73.52,57.84,73.53,57.29,73.97Z" fill="currentColor"/><path d="M58,81L73,81C76.87,81,80,77.87,80,74L80,58" fill="none" stroke="currentColor" stroke-width="6" stroke-linecap="round" stroke-linejoin="round"/><path d="M73.49,0.75L74.81,9.04L77.45,9.04L79.79,1.71C80.87,1.83,81.71,2.01,83.15,2.38C84.29,2.68,85.5,3.04,86.34,3.46L85.49,12.1C85.25,14.86,83.87,16.61,80.57,17.87L83.63,43.03C83.64,43.03,83.65,43.04,83.66,43.04C90.81,44.12,90.33,47.96,90.33,52.29L90.33,53.67L47.67,53.67L47.67,52.29C47.67,47.96,47.19,44.06,54.34,43.04L57.33,17.87C53.55,16.43,52.59,14.68,52.35,12.1L51.63,3.34C53.79,2.5,56.25,1.71,58.05,1.71L60.4,9.04L63.1,9.04L64.36,0.75C65.86,0.51,67.42,0.33,68.92,0.33C70.42,0.33,71.98,0.51,73.49,0.75Z" fill="currentColor"/><path d="M83.63,43.08L83.63,43.09L83.63,43.09C82.19,42.91,80.75,42.79,79.31,42.73C79.01,41.34,78.74,39.98,78.47,38.66C75.95,26.21,74.14,17.29,59.86,17.51C64.84,16.49,72.23,16.37,76.43,16.97C81.3,15.96,82.79,7.8,83.64,2.51C84.61,2.77,85.58,3.09,86.3,3.44C86.31,3.45,86.33,3.45,86.34,3.46L85.5,12.1C85.49,12.11,85.49,12.12,85.49,12.13C85.25,14.87,83.86,16.61,80.57,17.87Z" fill="currentColor"/><path d="M83.65,43.04C87.92,43.7,89.48,45.26,90.02,47.36C87.68,45.8,83.59,45.38,68.99,45.38C54.45,45.38,50.13,45.74,47.97,47.3C48.51,45.26,50.13,43.7,54.33,43.04C56.38,42.74,62.69,42.68,68.99,42.68C77.04,42.68,80.53,42.56,83.65,43.04Z" fill="currentColor"/><path d="M54.17,16.1C52.94,15.01,52.5,13.73,52.35,12.11C52.35,12.11,52.35,12.11,52.35,12.1L51.63,3.34C53.05,2.78,54.6,2.26,56,1.96C53.64,3.52,53.08,10.77,54.17,16.1Z" fill="currentColor"/><path d="M63.1,9.04L64.36,0.75C65.86,0.51,67.42,0.33,68.92,0.33C65.08,1.65,63.4,8.02,63.1,9.04Z" fill="currentColor"/><path d="M82.65,2.25C80.16,4.1,78.08,7.84,77.45,9.04L79.79,1.71C79.8,1.72,79.82,1.72,79.83,1.72C80.76,1.82,81.52,1.97,82.65,2.25Z" fill="currentColor"/><path d="M12.25,62.05C15.09,62.03,17.62,59.44,19.04,57.95L20.45,56.33C20.99,56.99,22.51,59.09,21.84,61.43C21.22,63.58,19.5,65.14,17.81,66.5C15.09,68.7,10.34,72.5,9.83,77.71L9.64,81.4L35.42,81.4C35.42,79.17,35.84,77.71,35.84,77.71C36.3,75.47,38.89,67.94,38.89,63.85C38.89,48.47,28.5,41.71,19.21,41.08L14.47,36.34C13.79,36.34,13.1,37.05,12.91,37.84L12.37,40.43C11.83,41.77,10.92,42.67,9.52,43.83C8.12,44.99,7.76,46.09,7.45,46.88C6.34,49.7,6.25,51.19,4.33,53.99L0.03,60.03C-1.07,61.4,-0.93,63.27,0.26,64.27C1.83,65.61,6.35,66.72,6.74,66.33L6.73,66.33C8.47,64.65,8.55,62.07,12.25,62.05Z" fill="currentColor"/><path d="M11.71,79.33C1.37,79.33,1.41,86.22,1.41,86.22L1.41,89.67L42.73,89.67L42.73,86.22C42.73,86.22,42.77,79.33,32.43,79.33Z" fill="currentColor"/><path d="M19,41.01C19.05,41,19.09,41,19.14,41L19.16,41.03C19.06,41.01,19,41.01,19,41.01Z" fill="currentColor"/><path d="M35.84,77.71C35.97,77.08,36.26,76.05,36.62,74.79C37.54,71.54,38.89,66.8,38.89,63.85C38.89,48.68,28.79,41.9,19.6,41.11C22.47,41.67,34.63,44.84,34.63,58.19C34.63,64.44,32.09,68.47,29.72,72.24C28.26,74.55,26.87,76.76,26.17,79.32C27.92,79.16,35.53,79.57,35.53,79.57C35.66,78.43,35.84,77.71,35.84,77.71Z" fill="currentColor"/><path d="M13.26,61.93L13.27,61.93L13.27,61.93Z" fill="currentColor"/><path d="M11.53,60.93C9.74,59.82,9,59.36,8.02,62.31C7.42,64.12,6.67,65.2,6.2,65.87C6.06,66.07,5.95,66.22,5.87,66.36C6.31,66.41,6.63,66.41,6.73,66.32C7.25,65.82,7.62,65.24,7.98,64.67C8.84,63.33,9.65,62.05,12.25,62.04C12.59,62.04,12.93,62,13.26,61.93C12.59,61.58,12.02,61.23,11.53,60.93Z" fill="currentColor"/><path d="M22.68,52.47C22.01,53.75,20.36,56.35,20.36,56.35C20.36,56.35,20.35,56.39,20.33,56.46L20.45,56.33C20.97,56.96,22.38,58.94,21.88,61.18C22.86,58.61,23.51,55.74,23.5,54.71C23.48,53.59,23.35,51.19,22.68,52.47Z" fill="currentColor"/><path d="M0.03,60.02L0.02,60.01C-0.61,60.79,-0.79,61.73,-0.65,62.58C0.47,61.21,6.21,54.11,7.03,53.03C7.55,52.32,7.81,51.4,8.09,50.36C8.7,48.15,9.46,45.38,13.31,42.99C16.27,41.15,14.27,36.41,14.27,36.41C14.18,36.41,14.1,36.42,14.01,36.44C13.99,36.44,13.97,36.45,13.95,36.45C13.47,36.69,13.05,37.24,12.91,37.83L12.37,40.41C11.82,41.75,10.91,42.66,9.51,43.82C8.19,44.91,7.79,45.95,7.49,46.73C7.47,46.78,7.46,46.82,7.44,46.87C7.12,47.69,6.88,48.4,6.66,49.07C6.13,50.67,5.69,52,4.33,53.97Z" fill="currentColor"/><path d="M2.39,83.22C3.07,82.87,6.59,81.57,22.21,81.57C35.91,81.57,40.31,82.57,41.65,83.05C40.44,81.24,37.89,79.33,32.44,79.33L11.71,79.33C6.09,79.33,3.55,81.36,2.39,83.22Z" fill="currentColor"/><path d="M37,8.5C37,10.16,35.66,11.5,34,11.5L17,11.5C14.79,11.5,13,13.29,13,15.5L13,38.41C10.84,39.42,8.84,40.74,7,42.37L7,15.5C7,9.98,11.48,5.5,17,5.5L34,5.5C35.66,5.5,37,6.84,37,8.5Z" fill="currentColor"/></svg>