<svg xmlns="http://www.w3.org/2000/svg" viewBox="0 0 90 90"><path d="M88,46C88,69.2,69.2,88,46,88C22.8,88,4,69.2,4,46C4,22.8,22.8,4,46,4C69.2,4,88,22.8,88,46Z" fill="currentColor"/><path d="M88,49C88,72.2,69.2,91,46,91C22.8,91,4,72.2,4,49C4,25.8,22.8,7,46,7C69.2,7,88,25.8,88,49Z" fill="currentColor"/><path d="M46,7C69.2,7,88,25.8,88,49C88,55.31,86.61,61.29,84.12,66.65C75.44,39.99,53.84,19.23,26.63,11.72C32.43,8.71,39.02,7,46,7Z" fill="currentColor" opacity="0.2"/><path d="M4.79,57.13C8.42,75.66,24.24,89.82,43.55,90.93C25.36,87.21,10.79,74.2,4.79,57.13Z" fill="currentColor"/><path d="M87.99,49.87C88,49.58,88,49.29,88,49C88,25.8,69.2,7,46,7C68.24,9.74,85.8,27.57,87.99,49.87Z" fill="currentColor"/><path d="M46,91C22.8,91,4,72.2,4,49C4,25.8,22.8,7,46,7C69.2,7,88,25.8,88,49C88,72.2,69.2,91,46,91Z" fill="currentColor"/><path d="M27.28,37.44L38.49,37.44L54.85,50.25L54.85,37.44L66.24,37.44L46.67,13.31Z" fill="currentColor"/><path d="M38.75,55.31L27.28,55.31L46.93,79.44L66.24,55.31L55.02,55.31L38.75,42.5Z" fill="currentColor"/><path d="M27.28,40.06L38.49,40.06L54.85,52.88L54.85,40.06L66.24,40.06L46.67,15.94Z" fill="currentColor"/><path d="M38.75,57.94L27.28,57.94L46.93,82.06L66.24,57.94L55.02,57.94L38.75,45.12Z" fill="currentColor"/></svg>