<svg xmlns="http://www.w3.org/2000/svg" viewBox="0 0 90 90"><path d="M35.03,12.04C35.03,14.1,34.54,16.03,33.72,17.78L51.8,12.51L64.13,5.39L33.22,5.39C34.34,7.37,35.03,9.62,35.03,12.04Z" fill="currentColor"/><path d="M71.59,8.55C70.56,7.96,69.29,7.96,68.26,8.55L54.21,16.67C53.18,17.26,52.55,18.36,52.55,19.55L52.55,35.78C52.55,36.97,53.18,38.07,54.21,38.66L57.38,40.49C57.09,39.42,56.89,38.31,56.89,37.15C56.89,34.02,58.05,31.18,59.89,28.93L59.89,23.79C59.89,22.6,60.52,21.5,61.55,20.91L68.26,17.04C69.29,16.45,70.56,16.45,71.59,17.04L78.3,20.91C79.33,21.5,79.96,22.6,79.96,23.79L79.96,28.92C81.81,31.17,82.96,34.01,82.96,37.14C82.96,38.3,82.76,39.41,82.47,40.48L85.63,38.65C86.66,38.06,87.29,36.96,87.29,35.77L87.29,19.54C87.29,18.35,86.66,17.25,85.63,16.66L85.65,16.67Z" fill="currentColor"/><path d="M54.17,21.9C54.17,20.71,54.8,19.61,55.83,19.02L69.88,10.9C70.91,10.31,72.18,10.31,73.21,10.9L87.18,18.96C87.02,17.98,86.53,17.08,85.65,16.58L71.59,8.46C70.56,7.87,69.29,7.87,68.26,8.46L54.21,16.58C53.18,17.17,52.55,18.27,52.55,19.46L52.55,35.69C52.55,36.88,53.18,37.98,54.21,38.57L54.3,38.62C54.27,38.45,54.17,38.3,54.17,38.12L54.17,38.13Z" fill="currentColor"/><path d="M29.9,64.81C29.9,60.12,26.1,56.32,21.41,56.32C16.72,56.32,12.92,60.12,12.92,64.81C12.92,69.5,16.72,73.3,21.41,73.3C26.1,73.3,29.9,69.5,29.9,64.81Z" fill="currentColor"/><path d="M24.31,64.81C24.31,63.21,23.01,61.91,21.41,61.91C19.81,61.91,18.51,63.21,18.51,64.81C18.51,66.41,19.81,67.71,21.41,67.71C23.01,67.71,24.31,66.41,24.31,64.81Z" fill="currentColor"/><path d="M29.9,12.04C29.9,7.35,26.1,3.55,21.41,3.55C16.72,3.55,12.92,7.35,12.92,12.04C12.92,16.73,16.72,20.53,21.41,20.53C26.1,20.53,29.9,16.73,29.9,12.04Z" fill="currentColor"/><path d="M28.5,10.63C28.5,15.32,24.7,19.12,20.01,19.12C18.02,19.12,16.22,18.41,14.77,17.27C16.33,19.24,18.71,20.52,21.41,20.52C26.1,20.52,29.9,16.72,29.9,12.03C29.9,9.33,28.61,6.94,26.64,5.39L26.65,5.39C27.79,6.84,28.5,8.64,28.5,10.63Z" fill="currentColor"/><path d="M28.5,63.4C28.5,68.09,24.7,71.89,20.01,71.89C18.02,71.89,16.22,71.18,14.77,70.04C16.33,72.01,18.71,73.29,21.41,73.29C26.1,73.29,29.9,69.49,29.9,64.8C29.9,62.1,28.61,59.71,26.64,58.16L26.65,58.16C27.79,59.61,28.5,61.41,28.5,63.4Z" fill="currentColor"/><path d="M24.31,12.04C24.31,10.44,23.01,9.14,21.41,9.14C19.81,9.14,18.51,10.44,18.51,12.04C18.51,13.64,19.81,14.94,21.41,14.94C23.01,14.94,24.31,13.64,24.31,12.04Z" fill="currentColor"/><path d="M78.52,68.34L61.35,68.34L66.37,45.67L73.5,45.67Z" fill="currentColor"/><path d="M78.52,68.34L64.81,52.73L66.37,45.67L73.5,45.67Z" fill="currentColor"/><path d="M56.77,63.67L56.77,71.75L83.1,71.75L83.1,63.67Z" fill="currentColor"/><path d="M77.58,36.65C77.58,32.43,74.16,29.01,69.94,29.01C65.72,29.01,62.3,32.43,62.3,36.65C62.3,40.87,65.72,44.29,69.94,44.29C74.16,44.29,77.58,40.87,77.58,36.65Z" fill="currentColor"/><path d="M75.63,35.36C75.63,31.85,72.79,29.01,69.28,29.01C65.77,29.01,62.93,31.85,62.93,35.36C62.93,38.87,65.77,41.71,69.28,41.71C72.79,41.71,75.63,38.87,75.63,35.36Z" fill="currentColor"/><path d="M58.37,45.19L58.37,51.04L81.5,51.04L81.5,45.19Z" fill="currentColor"/><path d="M28.36,53.16L28.36,23.68C26.32,24.9,23.96,25.65,21.41,25.65C19.1,25.65,16.96,25.02,15.05,24L15.05,52.84C16.96,51.82,19.1,51.19,21.41,51.19C23.96,51.19,26.32,51.94,28.36,53.16Z" fill="currentColor"/><path d="M15.05,24.01L15.05,26.51C17.48,28.79,20.73,30.21,24.32,30.21C25.74,30.21,27.08,29.93,28.37,29.53L28.37,23.7C26.33,24.92,23.97,25.67,21.42,25.67L21.41,25.66C19.1,25.66,16.96,25.03,15.05,24.01Z" fill="currentColor"/><path d="M33.26,71.39C30.93,75.56,26.52,78.43,21.41,78.43C16.3,78.43,11.89,75.57,9.57,71.39L0,86.45L90,86.45L90,82.42L40.27,82.42L40.27,82.43Z" fill="currentColor"/><path d="M35.39,74.74L33.26,71.39C30.93,75.56,26.52,78.43,21.41,78.43C16.94,78.43,13.1,76.17,10.63,72.83C12.49,78.14,17.5,81.96,23.43,81.96L23.44,81.96C28.63,81.96,33.09,79.01,35.39,74.74Z" fill="currentColor"/></svg>