<svg xmlns="http://www.w3.org/2000/svg" viewBox="0 0 90 90"><path d="M87,48C87,24.8,68.2,6,45,6C21.8,6,3,24.8,3,48C3,71.2,21.8,90,45,90C68.2,90,87,71.2,87,48Z" fill="currentColor"/><path d="M87,45C87,21.8,68.2,3,45,3C21.8,3,3,21.8,3,45C3,68.2,21.8,87,45,87C68.2,87,87,68.2,87,45Z" fill="currentColor"/><path d="M45,87C68.2,87,87,68.2,87,45C87,38.69,85.61,32.71,83.12,27.35C74.44,54.01,52.84,74.77,25.63,82.28C31.43,85.29,38.02,87,45,87Z" fill="currentColor" opacity="0.2"/><path d="M3.79,36.87C7.42,18.34,23.24,4.18,42.55,3.07C24.36,6.79,9.79,19.8,3.79,36.87Z" fill="currentColor"/><path d="M86.99,44.13C87,44.42,87,44.71,87,45C87,68.2,68.2,87,45,87C67.24,84.26,84.8,66.43,86.99,44.13Z" fill="currentColor"/><path d="M28.13,70.73L21.72,64.32C20.88,63.48,20.88,62.47,21.72,61.71L35.98,47.29L21.72,33.03C20.96,32.28,20.96,31.35,21.81,30.5L28.13,24.09C28.98,23.34,29.99,23.34,30.75,24.09L45,38.35L59.25,24.09C60.01,23.25,61.02,23.25,61.87,24.09L68.28,30.5C69.12,31.35,69.12,32.36,68.28,33.12L54.02,47.37L68.28,61.79C69.04,62.55,69.04,63.48,68.19,64.32L61.87,70.73C61.02,71.49,60.01,71.49,59.25,70.73L45,56.4L30.75,70.73C29.99,71.58,28.98,71.58,28.13,70.73Z" fill="currentColor"/><path d="M28.13,68.11L21.72,61.7C20.88,60.86,20.88,59.84,21.72,59.08L35.98,44.66L21.72,30.41C20.96,29.65,20.96,28.72,21.81,27.88L28.13,21.47C28.98,20.71,29.99,20.71,30.75,21.47L45,35.72L59.25,21.47C60.01,20.63,61.02,20.63,61.87,21.47L68.28,27.88C69.12,28.72,69.12,29.73,68.28,30.49L54.02,44.75L68.28,59.17C69.04,59.93,69.04,60.86,68.19,61.7L61.87,68.11C61.02,68.87,60.01,68.87,59.25,68.11L45,53.77L30.75,68.11C29.99,68.95,28.98,68.95,28.13,68.11Z" fill="currentColor"/></svg>