<svg xmlns="http://www.w3.org/2000/svg" viewBox="0 0 90 90" fill="currentColor"><path d="M39.1,48.36C43.37,48.38,47.16,52.27,49.29,54.5L51.4,56.94C52.22,55.95,54.49,52.8,53.49,49.29C53.18,48.21,52.7,47.25,52.08,46.33C50.95,44.67,49.34,43.21,47.44,41.68C43.37,38.38,36.24,32.68,35.47,24.87L35.19,19.61C35.19,19.61,73.86,15.71,73.86,19.05C73.86,22.39,74.49,24.87,74.49,24.87C75.18,28.22,79.06,39.52,79.06,45.65C79.06,68.73,63.48,78.87,49.55,79.81L42.43,86.92C41.42,86.92,40.38,85.85,40.1,84.67L39.29,80.79C38.47,78.78,37.11,77.42,35.01,75.68C32.91,73.94,32.37,72.3,31.9,71.11C30.24,66.88,30.11,64.64,27.23,60.45L20.78,51.38C19.12,49.33,19.34,46.52,21.12,45.02C23.48,43.02,30.25,41.35,30.84,41.93L30.82,41.94C33.43,44.46,33.56,48.33,39.1,48.36ZM38.28,22.44C22.77,22.44,22.84,12.1,22.84,12.1L22.84,6.93L84.82,6.93L84.82,12.1C84.82,12.1,84.89,22.44,69.38,22.44L69.37,22.44C64.95,22.44,42.7,22.44,38.28,22.44ZM27.21,60.47C30.09,64.66,30.22,66.9,31.88,71.13C32.34,72.32,32.88,73.96,34.99,75.7C37.09,77.44,38.45,78.8,39.27,80.81L40.08,84.69C40.29,85.57,40.92,86.39,41.64,86.75C41.8,86.78,41.95,86.82,42.12,86.82C42.12,86.82,45.12,79.7,40.69,76.95C32.18,71.66,33.73,65.18,31.26,61.89C30.04,60.26,21.42,49.62,19.75,47.56C19.53,48.84,19.8,50.24,20.75,51.41L20.76,51.4ZM39.1,48.37C33.56,48.34,33.43,44.47,30.82,41.95C30.68,41.82,30.2,41.81,29.54,41.89C30.08,42.81,31.61,44.49,32.76,47.96C34.64,53.6,35.91,50.95,40.63,48.53L40.63,48.54C40.13,48.43,39.62,48.37,39.1,48.37ZM38.28,22.44C42.7,22.44,64.95,22.44,69.38,22.44C77.56,22.44,81.38,19.57,83.19,16.85C81.19,17.58,74.59,19.07,54.04,19.07C30.61,19.07,25.32,17.13,24.3,16.6C26.04,19.39,29.85,22.44,38.28,22.44ZM55.32,55.39C55.75,57.14,55.99,58.6,55.97,59.37C55.94,61.05,55.74,64.65,54.74,62.73C53.74,60.81,51.38,56.95,51.38,56.95C52.2,55.97,54.47,52.81,53.47,49.3C53.16,48.22,52.68,47.26,52.06,46.34C50.93,44.68,49.32,43.22,47.42,41.69C43.35,38.39,36.22,32.69,35.45,24.88L35.31,22.31C22.77,21.08,22.83,12.11,22.83,12.11L22.83,6.94L71.24,6.94C71.24,6.94,60.59,48.19,59.79,50.35L59.8,50.34C59,52.5,55.32,55.39,55.32,55.39ZM47.43,41.69C43.36,38.39,36.23,32.69,35.46,24.88L35.18,19.62C35.18,19.62,49.38,18.19,60.58,17.8C58.45,28.39,55.44,43.11,54.94,44.48L50.22,44.17L50.21,44.16C49.38,43.33,48.45,42.52,47.43,41.69ZM39.17,27.53L33.58,24.18L23.34,11.73L22.84,6.94L62.75,6.94C62.75,6.94,55.73,42.32,54.93,44.48L48.27,44.04L48.27,44.03ZM20.65,7.46C23.88,8.27,26.55,10.5,27.91,13.52L32.87,8.96L33.24,8.62L33.74,8.74C35.24,9.11,36.78,9.89,37.65,10.69L37.61,10.87L37.54,11.13L37.4,11.68L36.25,16.31C38.88,16.72,45.36,17.57,52.58,10.63C55.82,7.52,60.75,6.13,66.12,7.47L67.04,8.07L66.81,8.99L56.87,48.86L56.64,49.78L55.72,49.55C50.36,48.21,46.48,45,45.08,40.73C41.96,31.19,35.84,28.92,33.33,28.05L32.18,32.68L32.04,33.23L31.98,33.49L31.94,33.67C30.79,33.97,29.07,33.93,27.57,33.55L27.07,33.43L26.9,32.95L24.66,26.59C22.04,28.61,18.63,29.33,15.4,28.53C9.6,27.08,6.05,21.19,7.5,15.38L7.5,15.36C8.95,9.56,14.85,6.01,20.65,7.46ZM26.12,20.55L26.94,17.15C27.03,17.09,32.07,13.86,33.81,18.91L30.12,33.82L30.21,33.82C30.85,33.82,31.45,33.78,31.94,33.65L31.98,33.47L32.05,33.21L32.19,32.66L33.34,28.03C33.34,28.03,33.45,28.07,33.5,28.09L33.66,27.45C33.66,27.45,41.4,22.93,47.39,19.08C51.92,16.17,54.49,10.76,55.38,8.59C54.36,9.14,53.42,9.82,52.59,10.62C45.37,17.56,38.89,16.7,36.26,16.3L37.41,11.67L37.55,11.12L37.62,10.86L37.66,10.68C36.79,9.88,35.25,9.1,33.75,8.73L33.27,8.61L32.98,8.86L32.88,8.95L27.92,13.51C26.56,10.5,23.89,8.26,20.66,7.45C16.14,6.32,11.58,8.23,9.09,11.86C9.07,11.9,9.06,11.92,9.06,11.92C12.01,8.48,19.46,7.17,23.57,11.96L23.57,11.98C26.51,15.4,26.12,20.55,26.12,20.55ZM24.65,26.58L26.89,32.94L27.06,33.42L27.49,33.53L28.73,28.55C26.76,27.75,24.65,26.58,24.62,26.53L24.63,26.52ZM18.56,28.8C18.71,28.76,18.79,28.72,18.79,28.72C10.03,25.82,7.07,19.03,7.55,15.22C7.54,15.26,7.52,15.31,7.51,15.35C6.06,21.16,9.61,27.05,15.41,28.5L15.41,28.51C16.45,28.77,17.51,28.85,18.56,28.8ZM47.06,36.58C45.41,32.5,37.93,30.14,37.93,30.14C37.83,30.09,37.98,30.26,38.26,30.57C40.7,32.39,43.35,35.44,45.08,40.72C45.98,43.47,47.91,45.78,50.61,47.43C53.58,49.02,56.45,49.81,55.75,49.39C49.69,45.76,49.55,42.73,47.06,36.58Z"/></svg>