<svg xmlns="http://www.w3.org/2000/svg" viewBox="0 0 90 90"><path d="M87,48C87,24.8,68.2,6,45,6C21.8,6,3,24.8,3,48C3,71.2,21.8,90,45,90C68.2,90,87,71.2,87,48Z" fill="currentColor"/><path d="M87,45C87,21.8,68.2,3,45,3C21.8,3,3,21.8,3,45C3,68.2,21.8,87,45,87C68.2,87,87,68.2,87,45Z" fill="currentColor"/><path d="M45,87C68.2,87,87,68.2,87,45C87,38.69,85.61,32.71,83.12,27.35C74.44,54.01,52.84,74.77,25.63,82.28C31.43,85.29,38.02,87,45,87Z" fill="currentColor" opacity="0.2"/><path d="M3.79,36.87C7.42,18.34,23.24,4.18,42.55,3.07C24.36,6.79,9.79,19.8,3.79,36.87Z" fill="currentColor"/><path d="M86.99,44.13C87,44.42,87,44.71,87,45C87,68.2,68.2,87,45,87C67.24,84.26,84.8,66.43,86.99,44.13Z" fill="currentColor"/><path d="M45,3C21.8,3,3,21.8,3,45C3,68.2,21.8,87,45,87C68.2,87,87,68.2,87,45C87,21.8,68.2,3,45,3Z" fill="currentColor"/><path d="M27.79,65.67C26.61,65.67,25.94,65,25.94,63.82L25.94,54.79C25.94,53.61,26.61,52.94,27.79,52.94L62.2,52.94C63.38,52.94,64.06,53.61,64.06,54.79L64.06,63.82C64.06,65,63.38,65.67,62.2,65.67Z" fill="currentColor"/><path d="M27.79,42.31C26.61,42.31,25.94,41.64,25.94,40.46L25.94,31.43C25.94,30.25,26.61,29.58,27.79,29.58L62.2,29.58C63.38,29.58,64.06,30.25,64.06,31.43L64.06,40.46C64.06,41.64,63.38,42.31,62.2,42.31Z" fill="currentColor"/><path d="M27.79,63.05C26.61,63.05,25.94,62.37,25.94,61.19L25.94,52.17C25.94,50.99,26.61,50.31,27.79,50.31L62.2,50.31C63.38,50.31,64.06,50.99,64.06,52.17L64.06,61.19C64.06,62.37,63.38,63.05,62.2,63.05Z" fill="currentColor"/><path d="M27.79,39.69C26.61,39.69,25.94,39.01,25.94,37.83L25.94,28.81C25.94,27.63,26.61,26.95,27.79,26.95L62.2,26.95C63.38,26.95,64.06,27.63,64.06,28.81L64.06,37.83C64.06,39.01,63.38,39.69,62.2,39.69Z" fill="currentColor"/></svg>