<svg xmlns="http://www.w3.org/2000/svg" viewBox="0 0 90 90"><path d="M43.71,74.97L43.71,74.97L51.77,81.69L51.9,81.81C52.14,82.03,52.26,82.26,52.26,82.53C52.26,82.82,52.15,83.04,51.9,83.29L43.71,90.04L43.71,90.04C43.16,90.51,42.82,90.52,42.7,90.49C42.64,90.47,42.45,90.35,42.45,89.77L42.45,75.34C42.45,74.71,42.65,74.58,42.71,74.56C42.83,74.52,43.16,74.53,43.71,74.97Z" fill="currentColor" stroke="currentColor" stroke-width="1"/><path d="M58.29,17.03L58.29,17.03L50.23,10.31L50.1,10.19C49.86,9.97,49.74,9.74,49.74,9.47C49.74,9.18,49.85,8.96,50.1,8.71L58.29,1.96L58.29,1.96C58.84,1.49,59.18,1.48,59.3,1.51C59.36,1.53,59.55,1.65,59.55,2.23L59.55,16.66C59.55,17.29,59.35,17.42,59.29,17.44C59.17,17.48,58.84,17.47,58.29,17.03Z" fill="currentColor" stroke="currentColor" stroke-width="1"/><path d="M59,10L74,10C77.87,10,81,13.13,81,17L81,33" fill="none" stroke="currentColor" stroke-width="6"/><path d="M76.62,84.91C76.62,83.79,76.28,82.57,75.76,81.59L70.68,71.11C69.19,67.34,68.5,63.36,68.1,59.81L71.99,59.83C71.99,59.83,72.75,65.05,73.48,67.34C74.13,69.83,75.23,72.23,76.37,74.43L78.79,78.78C81.38,75.64,85.09,70.16,85.09,62.48C85.09,55.08,81.62,49.5,79.95,47.4L80.94,47.4C90.93,47.4,90.88,40.69,90.88,40.69L90.88,37.33L51,37.33L51,40.69C51,40.69,50.96,47.4,60.94,47.4L61.96,47.4C60.3,49.47,56.78,55.07,56.78,62.51C56.78,73.8,65.51,81.41,65.51,81.41C65.5,81.44,64.9,83.44,64.9,84.91C64.9,88.09,67.53,90.67,70.76,90.67C73.99,90.67,76.62,88.09,76.62,84.91Z" fill="currentColor"/><path d="M78.79,78.79L78.79,78.79L78.79,78.78C78.79,78.78,78.79,78.79,78.79,78.79Z" fill="currentColor"/><path d="M85.09,62.48C85.09,55.08,81.62,49.5,79.95,47.4L69.41,47.4C72.19,48.71,87.78,56.96,81.16,75.53C83.19,72.34,85.09,67.97,85.09,62.48Z" fill="currentColor"/><path d="M71.54,77.74C73.93,82.2,76.08,86.19,74.55,89.27C74.55,89.28,74.55,89.28,74.55,89.29C75.82,88.24,76.62,86.66,76.62,84.91C76.62,84.43,76.55,83.97,76.43,83.54C76.31,82.89,76.11,82.25,75.76,81.59L75.75,81.59L70.68,71.11C69.19,67.34,68.5,63.36,68.1,59.81C65.19,65.89,68.56,72.17,71.54,77.74Z" fill="currentColor"/><path d="M70.76,90.67C67.53,90.67,64.9,88.09,64.9,84.91C64.9,84.32,65,83.64,65.11,83.04C65.7,86.99,68.86,89.99,71.11,90.66C70.99,90.66,70.88,90.67,70.76,90.67Z" fill="currentColor"/><path d="M56.78,62.51C56.78,59.98,57.21,57.69,57.81,55.65C57.79,62.17,59.21,71.68,66.66,81C66.66,81,66.16,81.17,65.51,81.41C65.51,81.41,56.78,73.8,56.78,62.51Z" fill="currentColor"/><path d="M60.93,47.4L80.94,47.4C86.2,47.4,88.66,45.54,89.83,43.77C88.54,44.25,84.29,45.21,71.07,45.21C56,45.21,52.59,43.95,51.94,43.61L51.94,43.61C53.06,45.42,55.51,47.4,60.93,47.4Z" fill="currentColor"/><path d="M13.25,28.95C16.09,28.97,18.62,31.56,20.04,33.05L21.45,34.67C21.99,34.01,23.51,31.91,22.84,29.57C22.22,27.42,20.5,25.86,18.81,24.5C16.09,22.3,11.34,18.5,10.83,13.29L10.64,9.6L36.42,9.6C36.42,11.83,36.84,13.29,36.84,13.29C37.3,15.53,39.89,23.06,39.89,27.15C39.89,42.53,29.5,49.29,20.21,49.92L15.47,54.66C14.79,54.66,14.1,53.95,13.91,53.16L13.37,50.57C12.83,49.23,11.92,48.33,10.52,47.17C9.12,46.01,8.76,44.91,8.45,44.12C7.34,41.3,7.25,39.81,5.33,37.01L1.03,30.97C-0.07,29.6,0.07,27.73,1.26,26.73C2.83,25.39,7.35,24.28,7.74,24.67L7.73,24.67C9.47,26.35,9.55,28.93,13.25,28.95Z" fill="currentColor"/><path d="M12.71,11.67C2.37,11.67,2.41,4.78,2.41,4.78L2.41,1.33L43.73,1.33L43.73,4.78C43.73,4.78,43.77,11.67,33.43,11.67Z" fill="currentColor"/><path d="M20,49.99C20.05,50,20.09,50,20.14,50L20.16,49.97C20.06,49.99,20,49.99,20,49.99Z" fill="currentColor"/><path d="M36.84,13.29C36.97,13.92,37.26,14.95,37.62,16.21C38.54,19.46,39.89,24.2,39.89,27.15C39.89,42.32,29.79,49.1,20.6,49.89C23.47,49.33,35.63,46.16,35.63,32.81C35.63,26.56,33.09,22.53,30.72,18.76C29.26,16.45,27.87,14.24,27.17,11.68C28.92,11.84,36.53,11.43,36.53,11.43C36.66,12.57,36.84,13.29,36.84,13.29Z" fill="currentColor"/><path d="M14.26,29.07L14.27,29.07L14.27,29.07Z" fill="currentColor"/><path d="M12.53,30.07C10.74,31.18,10,31.64,9.02,28.69C8.42,26.88,7.67,25.8,7.2,25.13C7.06,24.93,6.95,24.77,6.87,24.64C7.31,24.59,7.63,24.59,7.73,24.68C8.25,25.18,8.62,25.76,8.98,26.33C9.84,27.67,10.65,28.95,13.25,28.96C13.59,28.96,13.93,29,14.26,29.07C13.59,29.42,13.02,29.77,12.53,30.07Z" fill="currentColor"/><path d="M23.68,38.53C23.01,37.25,21.36,34.65,21.36,34.65C21.36,34.65,21.35,34.61,21.33,34.54L21.45,34.67C21.97,34.04,23.38,32.06,22.88,29.82C23.86,32.39,24.51,35.26,24.5,36.29C24.48,37.41,24.35,39.81,23.68,38.53Z" fill="currentColor"/><path d="M1.03,30.98L1.02,30.99C0.39,30.21,0.21,29.27,0.35,28.42C1.47,29.79,7.21,36.89,8.03,37.97C8.55,38.68,8.81,39.6,9.09,40.64C9.7,42.85,10.46,45.62,14.31,48.01C17.27,49.85,15.27,54.59,15.27,54.59C15.18,54.59,15.1,54.58,15.01,54.56C14.99,54.56,14.97,54.55,14.95,54.55C14.47,54.31,14.05,53.76,13.91,53.17L13.37,50.59C12.82,49.25,11.91,48.34,10.51,47.18C9.19,46.09,8.79,45.05,8.49,44.27C8.47,44.22,8.46,44.18,8.44,44.13C8.12,43.31,7.88,42.6,7.66,41.93C7.13,40.33,6.69,39,5.33,37.03Z" fill="currentColor"/><path d="M3.39,7.78C4.07,8.13,7.59,9.43,23.21,9.43C36.91,9.43,41.31,8.43,42.65,7.95C41.44,9.76,38.89,11.67,33.44,11.67L12.71,11.67C7.09,11.67,4.55,9.64,3.39,7.78Z" fill="currentColor"/><path d="M48,82.5C48,80.84,46.66,79.5,45,79.5L18,79.5C15.79,79.5,14,77.71,14,75.5L14,52.59C11.84,51.58,9.84,50.26,8,48.63L8,75.5C8,81.02,12.48,85.5,18,85.5L45,85.5C46.66,85.5,48,84.16,48,82.5Z" fill="currentColor"/></svg>