<svg xmlns="http://www.w3.org/2000/svg" viewBox="0 0 90 90"><path d="M84.15,48.05C84.15,44.4,84.15,41.27,78.95,40.32L86.25,22.68C88.19,22.43,89.94,20.43,89.94,18.33C89.94,15.98,87.99,13.93,85.5,13.93C83.15,13.93,81.1,15.98,81.1,18.33C81.1,19.23,81.55,20.08,81.85,20.58L76.85,25.88L76.25,13.58C77.95,13.03,79.2,11.33,79.2,9.38C79.2,7.18,77.5,4.78,74.55,4.78C71.9,4.78,69.9,7.03,69.9,9.38C69.9,10.73,70.55,12.03,71.6,12.88L68,23.33L64.4,12.88C65.45,12.03,66.1,10.73,66.1,9.38C66.1,6.88,64.1,4.78,61.45,4.78C58.5,4.78,56.8,7.08,56.8,9.43C56.8,11.38,58.05,13.03,59.75,13.58L59.15,25.88L54.15,20.58C54.45,20.08,54.9,19.23,54.9,18.33C54.9,15.98,52.85,13.93,50.5,13.93C48.05,13.93,46.06,15.93,46.06,18.33C46.06,20.43,47.81,22.43,49.75,22.68L57.1,40.32C51.85,41.27,51.85,44.45,51.85,48.05L51.85,49.22L84.15,49.22Z" fill="currentColor"/><path d="M88.94,15.58C89.94,19.68,86.25,20.98,84.65,21.83C84.65,21.83,81.15,28.87,76.4,34.07C71.35,39.52,68,40.02,68,40.02C74.1,40.02,76.55,40.02,78.95,40.32L86.25,22.68C88.19,22.43,89.94,20.43,89.94,18.33C89.94,17.33,89.59,16.38,88.94,15.58Z" fill="currentColor" opacity="0.5"/><path d="M78.95,40.32C81.5,40.77,82.8,41.77,83.45,43.07C82.85,42.82,82.1,42.67,81.2,42.52C78.3,42.27,75.4,42.27,68.05,42.27C62.15,42.27,56.8,42.42,54.85,42.52C54,42.67,53.25,42.82,52.6,43.07C53.3,41.77,54.6,40.77,57.1,40.32C58.75,40.22,63.15,40.02,68.05,40.02C74.15,40.02,76.55,40.02,78.95,40.32Z" fill="currentColor"/><path d="M48.2,22.13C47.01,21.28,46.06,19.93,46.06,18.33C46.06,15.93,48.06,13.93,50.5,13.93C47.41,15.48,46.41,19.33,48.2,22.13Z" fill="currentColor"/><path d="M86.65,14.08C84.29,14.38,81.8,16.28,81.6,20.13C81.35,19.68,81.1,19.03,81.1,18.33C81.1,15.98,83.15,13.93,85.5,13.93C85.85,13.93,86.4,14.03,86.65,14.08Z" fill="currentColor"/><path d="M57.4,11.63C57,10.93,56.8,10.18,56.8,9.43C56.8,7.08,58.5,4.78,61.45,4.78C59.8,5.43,57.8,7.63,57.4,11.63Z" fill="currentColor"/><path d="M70.45,11.53C70.1,10.88,69.9,10.13,69.9,9.38C69.9,7.03,71.9,4.78,74.55,4.78C73,5.58,70.7,7.83,70.45,11.53Z" fill="currentColor"/><path d="M37.59,35.57C35.94,37.08,34.52,38.83,33.38,40.75C36.99,41.72,37.59,44.16,37.59,47.56L37.59,49.22L6.41,49.22L6.41,47.56C6.41,44.26,6.91,41.76,10.66,40.75C9.51,38.82,8.07,37.08,6.41,35.57C3.83,33.04,1.17,30.38,1.17,26.22C1.07,20.73,5.44,15.99,11.02,16.08C13.54,15.99,16.05,16.61,18.24,17.88L19.13,13.98L15.56,13.98L15.56,8.48L19.23,8.48L19.23,4.78L24.76,4.78L24.76,8.58L28.43,8.58L28.43,14.04L24.86,14.04L25.75,17.94C27.93,16.65,30.44,16.01,32.97,16.08C38.82,15.93,42.96,20.51,42.83,26.22C42.83,30.35,40.18,33.01,37.59,35.57Z" fill="currentColor"/><path d="M33.69,27.29C34.16,24.06,30.57,23.94,30.56,23.94C28.58,23.94,26.13,25.69,26.13,25.69L26.13,33.33C26.98,33.37,27.56,33.42,28.54,33.48C29.28,32.54,30.16,31.71,30.97,30.94C32.32,29.66,33.51,28.52,33.69,27.29Z" fill="currentColor"/><path d="M13.42,23.94C13.42,23.94,9.86,24.07,10.28,27.29C10.46,28.52,11.65,29.65,12.99,30.93C13.81,31.71,14.69,32.54,15.43,33.48C16.41,33.42,17.01,33.33,17.84,33.33L17.84,25.69C17.84,25.69,15.39,23.94,13.42,23.94Z" fill="currentColor"/><path d="M42.83,26.22C42.83,30.35,40.18,33.01,37.59,35.57C35.94,37.08,34.52,38.83,33.38,40.75C33.43,40.76,33.47,40.78,33.52,40.79C32.32,40.45,30.97,40.34,29.69,40.34L29.61,40.34L38.76,31.16C43.28,26.63,40.27,19.73,39.73,18.59C39.75,18.59,39.76,18.59,39.78,18.59C41.75,20.45,42.9,23.17,42.83,26.22Z" fill="currentColor" opacity="0.5"/><path d="M33.38,40.75L33.38,40.75C33.67,40.83,33.94,40.91,34.19,41.01C34.73,41.22,35.22,41.48,35.66,41.82C36.34,42.35,36.79,43.02,37.09,43.8C36.09,43.36,32.72,42.48,21.99,42.48C11.32,42.48,7.92,43.37,6.91,43.8C7.2,43.03,7.65,42.37,8.33,41.84C8.86,41.44,9.46,41.14,10.11,40.92C10.26,40.87,10.41,40.82,10.57,40.78C11.8,40.44,13.14,40.34,14.35,40.34L29.69,40.34C30.92,40.34,32.22,40.43,33.38,40.75Z" fill="currentColor"/><path d="M2.68,31.28C1.7,29.78,1.17,28.02,1.17,26.22C1.12,23.51,2.14,20.88,4,18.92C4.92,18,6.02,17.28,7.22,16.79C8.43,16.31,9.72,16.06,11.02,16.08L11.6,16.08C4.1,17.32,0.45,24.43,2.68,31.28Z" fill="currentColor"/><path d="M11.6,16.08C11.61,16.08,11.62,16.08,11.63,16.08L11.63,16.08Z" fill="currentColor"/><path d="M23.92,5.7L20.15,5.7L20.15,9.39L16.48,9.39L16.48,13.14L15.65,13.98L15.56,13.98L15.56,8.48L19.23,8.48L19.23,4.78L24.76,4.78L24.76,4.87Z" fill="currentColor"/><path d="M23.93,9.39L24.76,8.48L28.44,8.48L28.44,9.39Z" fill="currentColor"/><path d="M17.16,65.37L17,65.17L9.89,57.11L9.76,56.99C9.53,56.75,9.28,56.62,8.97,56.62C8.64,56.62,8.4,56.74,8.13,56.99L0.98,65.18L0.98,65.18C0.49,65.74,0.48,66.07,0.51,66.17C0.53,66.23,0.67,66.43,1.3,66.43L16.59,66.43C17.27,66.43,17.42,66.22,17.44,66.16C17.48,66.07,17.48,65.81,17.16,65.37Z" fill="currentColor"/><path d="M9,61.88L9,76.88C9,80.75,12.13,83.88,16,83.88L28,83.88" fill="none" stroke="currentColor" stroke-width="6" stroke-linecap="round" stroke-linejoin="round"/><path d="M72.84,65.37L73,65.17L80.11,57.11L80.24,56.99C80.47,56.75,80.72,56.62,81.03,56.62C81.36,56.62,81.6,56.74,81.87,56.99L89.02,65.18L89.02,65.18C89.51,65.74,89.52,66.07,89.49,66.17C89.47,66.23,89.33,66.43,88.7,66.43L73.42,66.43C72.73,66.43,72.58,66.22,72.56,66.16C72.52,66.07,72.52,65.81,72.84,65.37Z" fill="currentColor"/><path d="M81,61.88L81,76.88C81,80.75,77.87,83.88,74,83.88L62,83.88" fill="none" stroke="currentColor" stroke-width="6" stroke-linecap="round" stroke-linejoin="round"/><path d="M68.36,54.57C68.36,59.67,65.13,69.09,64.55,71.88C64.55,71.88,64.3,72.75,64.15,74.21C73.17,75.72,73.16,82.47,73.16,82.52L73.16,86.83L21.52,86.83L21.52,82.52C21.52,82.47,21.51,75.04,31.93,74.02L32.03,71.88C32.68,65.37,38.62,60.63,42.01,57.88C44.12,56.17,46.28,54.23,47.05,51.53C47.88,48.61,45.99,45.98,45.31,45.16L43.55,47.19C41.78,49.05,38.62,52.29,35.06,52.31C30.44,52.33,30.33,55.56,28.16,57.66L28.18,57.67C27.68,58.15,22.04,56.76,20.07,55.09C18.59,53.84,18.41,51.5,19.79,49.79L25.17,42.23C27.57,38.74,27.68,36.87,29.06,33.35C29.45,32.36,29.9,30.99,31.65,29.54C33.4,28.09,34.53,26.96,35.22,25.28L35.89,22.05C36.12,21.07,36.99,20.18,37.83,20.18L43.77,26.1C55.37,26.88,68.36,35.33,68.36,54.57Z" fill="currentColor"/><path d="M68.36,54.57C68.36,58.25,66.68,64.17,65.52,68.24C65.08,69.81,64.71,71.1,64.55,71.88C64.54,71.91,64.32,72.81,64.17,74.21C64.17,74.21,54.65,73.7,52.47,73.9C53.34,70.7,55.08,67.94,56.9,65.05C59.86,60.34,63.04,55.3,63.04,47.49C63.04,30.8,47.83,26.84,44.25,26.14C55.73,27.12,68.36,35.6,68.36,54.57Z" fill="currentColor"/><path d="M36.32,52.16C35.91,52.25,35.49,52.3,35.06,52.3C30.44,52.32,30.33,55.55,28.16,57.65C28.04,57.76,27.64,57.77,27.09,57.7C27.54,56.93,28.82,55.53,29.78,52.64C31.34,47.95,32.4,50.15,36.32,52.16Z" fill="currentColor"/><path d="M36.32,52.16C36.32,52.16,36.33,52.16,36.33,52.16L36.33,52.17C36.33,52.16,36.32,52.16,36.32,52.16Z" fill="currentColor"/><path d="M49.12,43.14C49.14,44.42,48.33,48.01,47.1,51.23C47.73,48.43,45.97,45.95,45.31,45.16L45.16,45.33C45.18,45.24,45.2,45.19,45.2,45.18C45.2,45.18,47.27,41.94,48.1,40.34C48.93,38.74,49.1,41.74,49.12,43.14Z" fill="currentColor"/><path d="M43.5,26.01C43.56,26.01,43.61,26,43.67,26L43.7,26.04C43.57,26.02,43.5,26.01,43.5,26.01Z" fill="currentColor"/><path d="M71.81,78.57C70.14,77.96,64.64,76.72,47.52,76.72C27.99,76.72,23.58,78.33,22.73,78.78C24.18,76.45,27.36,73.91,34.38,73.91L60.3,73.91C67.12,73.91,70.3,76.3,71.81,78.57Z" fill="currentColor"/><path d="M36.39,28.48C29.3,32.89,30.59,38.29,28.53,41.03C27.52,42.39,20.33,51.26,18.94,52.97C18.76,51.91,18.98,50.74,19.78,49.77L19.78,49.78L25.16,42.22C27.56,38.73,27.67,36.86,29.05,33.33C29.43,32.34,29.88,30.98,31.64,29.53C33.39,28.08,34.52,26.94,35.21,25.27L35.88,22.03C36.06,21.3,36.58,20.62,37.18,20.32C37.32,20.29,37.44,20.26,37.58,20.26C37.58,20.26,40.08,26.19,36.39,28.48Z" fill="currentColor"/></svg>