<svg xmlns="http://www.w3.org/2000/svg" viewBox="0 0 90 90"><path d="M38.1,43.57C42.37,43.55,46.16,39.66,48.29,37.43L50.4,34.99C51.22,35.98,53.49,39.13,52.49,42.64C52.18,43.72,51.7,44.68,51.08,45.6C49.95,47.26,48.34,48.72,46.44,50.25C42.37,53.55,35.24,59.25,34.47,67.06L34.19,72.32C34.19,72.32,72.86,76.22,72.86,72.88C72.86,69.54,73.49,67.06,73.49,67.06C74.18,63.71,78.06,52.41,78.06,46.28C78.06,23.2,62.48,13.06,48.55,12.12L41.43,5.01C40.42,5.01,39.38,6.08,39.1,7.26L38.29,11.14C37.47,13.15,36.11,14.51,34.01,16.25C31.91,17.99,31.37,19.63,30.9,20.82C29.24,25.05,29.11,27.29,26.23,31.48L19.78,40.55C18.12,42.6,18.34,45.41,20.12,46.91C22.48,48.91,29.25,50.58,29.84,50L29.82,49.99C32.43,47.47,32.56,43.6,38.1,43.57Z" fill="currentColor"/><path d="M37.28,69.49C21.77,69.49,21.84,79.83,21.84,79.83L21.84,85L83.82,85L83.82,79.83C83.82,79.83,83.89,69.49,68.38,69.49L68.37,69.49C63.95,69.49,41.7,69.49,37.28,69.49Z" fill="currentColor"/><path d="M26.21,31.46C29.09,27.27,29.22,25.03,30.88,20.8C31.34,19.61,31.88,17.97,33.99,16.23C36.09,14.49,37.45,13.13,38.27,11.12L39.08,7.24C39.29,6.36,39.92,5.54,40.64,5.18C40.8,5.15,40.95,5.11,41.12,5.11C41.12,5.11,44.12,12.23,39.69,14.98C31.18,20.27,32.73,26.75,30.26,30.04C29.04,31.67,20.42,42.31,18.75,44.37C18.53,43.09,18.8,41.69,19.75,40.52L19.76,40.53Z" fill="currentColor"/><path d="M38.1,43.56C32.56,43.59,32.43,47.46,29.82,49.98C29.68,50.11,29.2,50.12,28.54,50.04C29.08,49.12,30.61,47.44,31.76,43.97C33.64,38.33,34.91,40.98,39.63,43.4L39.63,43.39C39.13,43.5,38.62,43.56,38.1,43.56Z" fill="currentColor"/><path d="M37.28,69.49C41.7,69.49,63.95,69.49,68.38,69.49C76.56,69.49,80.38,72.36,82.19,75.08C80.19,74.35,73.59,72.86,53.04,72.86C29.61,72.86,24.32,74.8,23.3,75.33C25.04,72.54,28.85,69.49,37.28,69.49Z" fill="currentColor"/><path d="M54.32,36.54C54.75,34.79,54.99,33.33,54.97,32.56C54.94,30.88,54.74,27.28,53.74,29.2C52.74,31.12,50.38,34.98,50.38,34.98C51.2,35.96,53.47,39.12,52.47,42.63C52.16,43.71,51.68,44.67,51.06,45.59C49.93,47.25,48.32,48.71,46.42,50.24C42.35,53.54,35.22,59.24,34.45,67.05L34.31,69.62C21.77,70.85,21.83,79.82,21.83,79.82L21.83,84.99L70.24,84.99C70.24,84.99,59.59,43.74,58.79,41.58L58.8,41.59C58,39.43,54.32,36.54,54.32,36.54Z" fill="currentColor"/><path d="M46.43,50.24C42.36,53.54,35.23,59.24,34.46,67.05L34.18,72.31C34.18,72.31,48.38,73.74,59.58,74.13C57.45,63.54,54.44,48.82,53.94,47.45L49.22,47.76L49.21,47.77C48.38,48.6,47.45,49.41,46.43,50.24Z" fill="currentColor"/><path d="M38.17,64.4L32.58,67.75L22.34,80.2L21.84,84.99L61.75,84.99C61.75,84.99,54.73,49.61,53.93,47.45L47.27,47.89L47.27,47.9Z" fill="currentColor"/><path d="M19.65,84.47C22.88,83.66,25.55,81.43,26.91,78.41L31.87,82.97L32.24,83.31L32.74,83.19C34.24,82.82,35.78,82.04,36.65,81.24L36.61,81.06L36.54,80.8L36.4,80.25L35.25,75.62C37.88,75.21,44.36,74.36,51.58,81.3C54.82,84.41,59.75,85.8,65.12,84.46L66.04,83.86L65.81,82.94L55.87,43.07L55.64,42.15L54.72,42.38C49.36,43.72,45.48,46.93,44.08,51.2C40.96,60.74,34.84,63.01,32.33,63.88L31.18,59.25L31.04,58.7L30.98,58.44L30.94,58.26C29.79,57.96,28.07,58,26.57,58.38L26.07,58.5L25.9,58.98L23.66,65.34C21.04,63.32,17.63,62.6,14.4,63.4C8.6,64.85,5.05,70.74,6.5,76.55L6.5,76.57C7.95,82.37,13.85,85.92,19.65,84.47Z" fill="currentColor"/><path d="M25.12,71.38L25.94,74.78C26.03,74.84,31.07,78.07,32.81,73.02L29.12,58.11L29.21,58.11C29.85,58.11,30.45,58.15,30.94,58.28L30.98,58.46L31.05,58.72L31.19,59.27L32.34,63.9C32.34,63.9,32.45,63.86,32.5,63.84L32.66,64.48C32.66,64.48,40.4,69,46.39,72.85C50.92,75.76,53.49,81.17,54.38,83.34C53.36,82.79,52.42,82.11,51.59,81.31C44.37,74.37,37.89,75.23,35.26,75.63L36.41,80.26L36.55,80.81L36.62,81.07L36.66,81.25C35.79,82.05,34.25,82.83,32.75,83.2L32.27,83.32L31.98,83.07L31.88,82.98L26.92,78.42C25.56,81.43,22.89,83.67,19.66,84.48C15.14,85.61,10.58,83.7,8.09,80.07C8.07,80.03,8.06,80.01,8.06,80.01C11.01,83.45,18.46,84.76,22.57,79.97L22.57,79.95C25.51,76.53,25.12,71.38,25.12,71.38Z" fill="currentColor"/><path d="M23.65,65.35L25.89,58.99L26.06,58.51L26.49,58.4L27.73,63.38C25.76,64.18,23.65,65.35,23.62,65.4L23.63,65.41Z" fill="currentColor"/><path d="M17.56,63.13C17.71,63.17,17.79,63.21,17.79,63.21C9.03,66.11,6.07,72.9,6.55,76.71C6.54,76.67,6.52,76.62,6.51,76.58C5.06,70.77,8.61,64.88,14.41,63.43L14.41,63.42C15.45,63.16,16.51,63.08,17.56,63.13Z" fill="currentColor"/><path d="M46.06,55.35C44.41,59.43,36.93,61.79,36.93,61.79C36.83,61.84,36.98,61.67,37.26,61.36C39.7,59.54,42.35,56.49,44.08,51.21C44.98,48.46,46.91,46.15,49.61,44.5C52.58,42.91,55.45,42.12,54.75,42.54C48.69,46.17,48.55,49.2,46.06,55.35Z" fill="currentColor"/></svg>