<svg xmlns="http://www.w3.org/2000/svg" viewBox="0 0 90 90"><path d="M88,46C88,69.2,69.2,88,46,88C22.8,88,4,69.2,4,46C4,22.8,22.8,4,46,4C69.2,4,88,22.8,88,46Z" fill="currentColor"/><path d="M88,49C88,72.2,69.2,91,46,91C22.8,91,4,72.2,4,49C4,25.8,22.8,7,46,7C69.2,7,88,25.8,88,49Z" fill="currentColor"/><path d="M46,7C69.2,7,88,25.8,88,49C88,55.31,86.61,61.29,84.12,66.65C75.44,39.99,53.84,19.23,26.63,11.72C32.43,8.71,39.02,7,46,7Z" fill="currentColor" opacity="0.2"/><path d="M4.79,57.13C8.42,75.66,24.24,89.82,43.55,90.93C25.36,87.21,10.79,74.2,4.79,57.13Z" fill="currentColor"/><path d="M87.99,49.87C88,49.58,88,49.29,88,49C88,25.8,69.2,7,46,7C68.24,9.74,85.8,27.57,87.99,49.87Z" fill="currentColor"/><path d="M46,91C22.8,91,4,72.2,4,49C4,25.8,22.8,7,46,7C69.2,7,88,25.8,88,49C88,72.2,69.2,91,46,91Z" fill="currentColor"/><path d="M28.79,28.33C27.61,28.33,26.94,29,26.94,30.18L26.94,39.21C26.94,40.39,27.61,41.06,28.79,41.06L63.2,41.06C64.38,41.06,65.06,40.39,65.06,39.21L65.06,30.18C65.06,29,64.38,28.33,63.2,28.33Z" fill="currentColor"/><path d="M28.79,51.69C27.61,51.69,26.94,52.36,26.94,53.54L26.94,62.57C26.94,63.75,27.61,64.42,28.79,64.42L63.2,64.42C64.38,64.42,65.06,63.75,65.06,62.57L65.06,53.54C65.06,52.36,64.38,51.69,63.2,51.69Z" fill="currentColor"/><path d="M28.79,30.95C27.61,30.95,26.94,31.63,26.94,32.81L26.94,41.83C26.94,43.01,27.61,43.69,28.79,43.69L63.2,43.69C64.38,43.69,65.06,43.01,65.06,41.83L65.06,32.81C65.06,31.63,64.38,30.95,63.2,30.95Z" fill="currentColor"/><path d="M28.79,54.31C27.61,54.31,26.94,54.99,26.94,56.17L26.94,65.19C26.94,66.37,27.61,67.05,28.79,67.05L63.2,67.05C64.38,67.05,65.06,66.37,65.06,65.19L65.06,56.17C65.06,54.99,64.38,54.31,63.2,54.31Z" fill="currentColor"/></svg>