<svg xmlns="http://www.w3.org/2000/svg" viewBox="0 0 90 90"><path d="M88,46C88,69.2,69.2,88,46,88C22.8,88,4,69.2,4,46C4,22.8,22.8,4,46,4C69.2,4,88,22.8,88,46Z" fill="currentColor"/><path d="M88,49C88,72.2,69.2,91,46,91C22.8,91,4,72.2,4,49C4,25.8,22.8,7,46,7C69.2,7,88,25.8,88,49Z" fill="currentColor"/><path d="M46,7C69.2,7,88,25.8,88,49C88,55.31,86.61,61.29,84.12,66.65C75.44,39.99,53.84,19.23,26.63,11.72C32.43,8.71,39.02,7,46,7Z" fill="currentColor" opacity="0.2"/><path d="M4.79,57.13C8.42,75.66,24.24,89.82,43.55,90.93C25.36,87.21,10.79,74.2,4.79,57.13Z" fill="currentColor"/><path d="M87.99,49.87C88,49.58,88,49.29,88,49C88,25.8,69.2,7,46,7C68.24,9.74,85.8,27.57,87.99,49.87Z" fill="currentColor"/><path d="M40.02,19.07C39.18,19.07,38.59,19.66,38.59,20.59L38.59,29.1C38.59,29.94,39.18,30.53,40.02,30.53L48.87,30.53C49.71,30.53,50.3,29.94,50.3,29.1L50.3,20.59C50.3,19.66,49.71,19.07,48.78,19.07Z" fill="currentColor"/><path d="M40.44,36.77C39.68,36.77,39.01,37.02,39.01,38.2L39.01,39.89C39.01,44.35,41.53,48.06,43.22,49.41L45.58,51.35C46.59,52.27,47.69,53.28,48.61,54.3C49.37,55.22,49.79,56.32,49.79,57.5C49.79,60.03,47.6,61.46,45.07,61.46C43.64,61.46,41.2,60.95,39.01,59.1C38.33,58.42,37.74,58.51,36.82,59.44L32.18,65.08C31.59,65.76,31.84,66.43,32.35,66.94C35.97,70.56,41.53,72.16,45.66,72.16C54.51,72.16,61.25,66.43,61.25,58.34C61.25,52.53,59.23,50.42,54.26,45.45L51.23,42.5C50.38,41.57,49.96,40.39,49.96,39.21L49.96,38.2C49.96,37.27,49.46,36.77,48.53,36.77Z" fill="currentColor"/><path d="M40.02,21.7C39.18,21.7,38.59,22.29,38.59,23.22L38.59,31.73C38.59,32.57,39.18,33.16,40.02,33.16L48.87,33.16C49.71,33.16,50.3,32.57,50.3,31.73L50.3,23.22C50.3,22.29,49.71,21.7,48.78,21.7Z" fill="currentColor"/><path d="M40.44,39.39C39.68,39.39,39.01,39.65,39.01,40.83L39.01,42.51C39.01,46.98,41.53,50.69,43.22,52.03L45.58,53.97C46.59,54.9,47.69,55.91,48.61,56.92C49.37,57.85,49.79,58.94,49.79,60.12C49.79,62.65,47.6,64.08,45.07,64.08C43.64,64.08,41.2,63.58,39.01,61.72C38.33,61.05,37.74,61.13,36.82,62.06L32.18,67.71C31.59,68.38,31.84,69.05,32.35,69.56C35.97,73.18,41.53,74.78,45.66,74.78C54.51,74.78,61.25,69.05,61.25,60.97C61.25,55.15,59.23,53.04,54.26,48.07L51.23,45.12C50.38,44.2,49.96,43.02,49.96,41.84L49.96,40.83C49.96,39.9,49.46,39.39,48.53,39.39Z" fill="currentColor"/></svg>