<svg xmlns="http://www.w3.org/2000/svg" viewBox="0 0 90 90"><path d="M44.03,22.66C42.88,21.6,47.11,21.6,45.97,22.66L20.77,45.86C19.55,46.98,17.65,46.9,16.53,45.68L9.47,38.27C8.35,37.05,8.43,35.15,9.65,34.03L42.97,3.35C44.12,2.29,45.89,2.29,47.03,3.35L80.36,34.03C81.58,35.15,81.66,37.05,80.54,38.27L73.48,45.68C72.36,46.9,70.46,46.98,69.24,45.86L69.23,45.86Z" fill="#666564"/><path d="M30.23,84.36L30.23,24.64L43.85,14.45L59.77,24.64L59.77,84.36Z" fill="#666564"/><path d="M36.4,43.94C36.4,47.27,37.94,50.39,40.54,52.44L34.92,56.16L34.49,56.44L34.49,56.95C34.49,58.49,34.87,60.17,35.45,61.22L41.23,61.22C41,63.86,40.29,70.34,31.8,75.7C28,78.09,61.42,74.77,61.42,74.77C54.69,68.95,53.58,63.84,53.33,61.19L59.11,61.19C59.68,60.14,59.77,58.46,59.76,56.91L59.76,56.4L59.62,56.12L53.98,52.42C56.57,50.36,58.09,47.23,58.08,43.9C58.07,37.92,53.19,33.06,47.21,33.07L47.23,33.07C41.25,33.08,36.39,37.96,36.4,43.94Z" fill="#4B4847"/><path d="M33.89,42.27C33.89,45.6,35.43,48.72,38.03,50.77L32.41,54.49L31.98,54.77L31.98,55.28C31.98,56.82,32.36,58.5,32.94,59.55L33.12,59.55L33.39,59.55L33.95,59.55L38.72,59.54C38.49,62.19,37.78,68.67,29.29,74.03C25.49,76.42,23.32,80.97,23.33,86.5L23.33,87.44L24.28,87.44L65.37,87.36L66.31,87.36L66.67,86.32C66.67,80.79,64.11,76.35,60.31,73.96C51.82,68.65,51.07,62.16,50.83,59.51L55.6,59.51L56.16,59.5L56.43,59.5L56.61,59.5C57.18,58.46,57.55,56.78,57.55,55.23L57.55,54.72L57.12,54.44L51.48,50.74C54.07,48.68,55.59,45.55,55.58,42.22C55.57,36.24,50.69,31.38,44.71,31.39L44.72,31.4C38.74,31.41,33.88,36.29,33.89,42.27Z" fill="#E7E6E5"/><path d="M44.23,50.72L50.51,50.72C50.59,50.78,54.95,54.88,50.47,57.8L32.32,57.83L32.32,57.92C32.49,58.54,32.69,59.11,32.93,59.55L33.11,59.55L33.38,59.55L33.94,59.55L38.71,59.54C38.71,59.59,38.7,59.65,38.69,59.71L39.35,59.71C39.35,59.71,45.62,66.11,50.81,70.99C54.74,74.68,60.61,75.85,62.93,76.19C62.14,75.33,61.26,74.59,60.29,73.98C51.8,68.67,51.05,62.18,50.81,59.53L55.58,59.53L56.14,59.52L56.41,59.52L56.59,59.52C57.16,58.48,57.53,56.8,57.53,55.25L57.53,54.76L57.21,54.54L57.1,54.47L51.46,50.77C54.05,48.71,55.57,45.58,55.56,42.25C55.56,37.6,52.59,33.64,48.46,32.11C48.42,32.11,48.39,32.1,48.39,32.1C52.45,34.12,55.53,41.03,51.89,46.19L51.92,46.16C49.32,49.84,44.23,50.72,44.23,50.72Z" fill="#BEBDB9"/><path d="M38.02,50.77L32.4,54.49L31.97,54.77L31.97,55.21L37.11,55.21C37.41,53.1,38.02,50.78,38.07,50.74L38.08,50.73Z" fill="#F1F1F1"/><path d="M34.37,45.39C34.45,45.52,34.5,45.6,34.5,45.6C35.18,36.4,41.04,31.87,44.85,31.41C44.8,31.41,44.76,31.41,44.71,31.41C38.73,31.42,33.87,36.3,33.88,42.28L33.89,42.27C33.89,43.34,34.07,44.39,34.37,45.39Z" fill="#F1F1F1"/><path d="M33.79,74.94C37.35,72.34,37.81,64.52,37.81,64.52C37.83,64.41,37.71,64.59,37.48,64.95C36.31,67.76,34,71.07,29.3,74.04C26.85,75.58,25.09,78.02,24.14,81.04C23.32,84.31,23.26,87.29,23.49,86.51L23.48,86.49C25.53,79.73,28.43,78.85,33.79,74.94Z" fill="#F1F1F1"/></svg>