<svg xmlns="http://www.w3.org/2000/svg" viewBox="0 0 90 90"><path d="M74.94,61.47C74.94,59.87,75.67,58.39,76.22,57.51L67.26,47.96L66.22,70C69.27,71.02,71.47,74.06,71.47,77.48C71.47,82.14,67.82,85.79,63.16,85.79C58.5,85.79,54.85,82.06,54.85,77.48C54.85,75.05,56.03,72.71,57.93,71.26L51.45,52.58L48.74,60.4L44.97,71.26C46.87,72.7,48.05,75.05,48.05,77.48C48.05,82.06,44.32,85.79,39.74,85.79C35.16,85.79,31.43,82.14,31.43,77.48C31.43,73.99,33.58,70.99,36.68,69.99L36.22,55.89L26.94,48.28L31.89,22.12C22.53,20.38,22.55,14.75,22.56,8.28L22.56,7.36L22.56,6.22L80.36,6.22L80.36,8.28C80.38,14.75,80.39,20.37,71.04,22.12L84.16,53.68C87.64,54.15,90.75,57.72,90.75,61.47C90.75,65.85,87.19,69.41,82.81,69.41L82.78,69.41C78.6,69.41,74.94,65.7,74.94,61.47Z" fill="currentColor"/><path d="M88.98,66.42C89.62,63.94,88.08,60.72,86.75,59.48C85.07,57.91,82.28,57.6,81.24,55.22C81.24,55.22,75.02,42.58,66.47,33.33C57.52,23.64,51.5,22.82,51.5,22.82L71.03,22.19L84.13,53.69C87.61,54.16,90.72,57.73,90.72,61.48L90.72,61.47C90.72,63.34,90.07,65.06,88.98,66.42Z" fill="currentColor" opacity="0.5"/><path d="M32.29,57.23C30.63,57.23,29.29,55.89,29.29,54.23L29.29,50.91C29.29,49.25,30.63,47.91,32.29,47.91L41.75,47.91L23.4,29.56L34.92,18.04L53.27,36.39L53.27,25.62C53.27,23.96,54.61,22.62,56.27,22.62L59.59,22.62C61.25,22.62,62.59,23.96,62.59,25.62L62.59,54.23C62.59,55.89,61.25,57.23,59.59,57.23Z" fill="currentColor"/><path d="M82.79,69.4C78.61,69.4,74.95,65.69,74.95,61.46C74.95,60.24,75.37,59.1,75.82,58.24C76.17,65.12,81.4,68.52,84.66,69.17L84.65,69.17C84.05,69.32,83.43,69.4,82.79,69.4Z" fill="currentColor"/><path d="M39.72,85.8C35.06,85.8,31.41,82.15,31.41,77.49C31.41,76.04,31.8,74.68,32.46,73.51C33.39,80.57,37.57,84.55,40.95,85.71L40.95,85.7C40.55,85.76,40.14,85.8,39.72,85.8Z" fill="currentColor"/><path d="M63.15,85.79C58.57,85.79,54.84,82.06,54.84,77.48C54.84,76.12,55.22,74.8,55.88,73.63C56.82,80.92,61.35,84.83,64.71,85.65L64.7,85.65C64.2,85.74,63.68,85.79,63.15,85.79Z" fill="currentColor"/><path d="M33.84,30.29L36.59,30.29L37.72,32.39L37.99,32.89L38.17,33.21C38.84,34.44,39.6,35.84,39.6,38.4L39.6,41.07L37.8,42.26L37.37,42.54L35.53,43.75C36.91,46.04,37.66,48.68,37.66,51.44C37.66,53.5,37.24,55.47,36.47,57.25L33.22,57.23L30.69,57.23L23.9,48.28L28.85,22.12C19.49,20.38,19.51,14.75,19.52,8.28L19.52,7.36L19.52,6.22L48.31,6.22L48.31,7.17C48.31,14.11,45.44,19.89,40.44,23.03L40.46,23.03C36.63,25.43,34.77,28.06,33.84,30.29Z" fill="currentColor"/><path d="M36.59,30.3L37.72,32.4L37.99,32.9L38.17,33.22C38.84,34.45,39.6,35.85,39.6,38.41L39.6,41.08L37.8,42.27L37.37,42.55L36.77,42.95L26.8,32.98L28.39,24.58L34.91,18.06L40.12,23.27C36.53,25.61,34.73,28.14,33.83,30.31L33.84,30.3Z" fill="currentColor"/><path d="M29.29,50.91C29.29,49.25,30.63,47.91,32.29,47.91L37.24,47.91C37.52,49.05,37.67,50.23,37.67,51.44C37.67,53.49,37.25,55.45,36.49,57.23L32.29,57.23C30.63,57.23,29.29,55.89,29.29,54.23Z" fill="currentColor"/><path d="M11.94,51.44C11.94,48.1,13.47,44.97,16.07,42.92L10.43,39.2L10,38.92L10,38.41C10,36.86,10.38,36.17,10.95,35.13L11.14,34.79L11.41,34.29L16.75,34.29C16.51,31.64,15.79,24.99,7.28,19.64C3.47,17.25,1.29,12.7,1.29,7.16L1.29,6.21L44.34,6.21L44.34,7.16C44.34,12.7,42.16,17.24,38.35,19.64C29.86,24.97,29.12,31.64,28.88,34.29L34.22,34.29L34.49,34.79L34.68,35.13C35.25,36.17,35.63,36.86,35.63,38.41L35.63,38.92L35.2,39.2L29.56,42.92C32.16,44.98,33.69,48.11,33.69,51.44C33.69,57.43,28.82,62.3,22.82,62.3L22.8,62.3C16.81,62.3,11.94,57.43,11.94,51.44Z" fill="currentColor"/><path d="M16.07,42.92L10.01,38.92L17.01,38.92C17.32,41.03,16.02,42.87,16.07,42.92Z" fill="currentColor"/><path d="M40.98,17.33C40.21,18.23,39.33,19.02,38.34,19.64C29.85,24.97,29.11,31.64,28.87,34.29L34.21,34.29L34.48,34.79L34.67,35.13C35.24,36.17,35.62,36.86,35.62,38.41L35.62,38.92L35.19,39.2L29.55,42.92C32.15,44.98,33.68,48.11,33.68,51.44C33.68,56.09,30.74,60.05,26.63,61.6C30.24,59.05,32.7,52.47,29.3,47.68C26.69,44,21.59,42.89,21.59,42.89L27.88,42.89C27.96,42.82,32.32,38.15,27.83,35.24L10.9,35.24C10.9,35.24,10.94,35.17,10.96,35.13L11.15,34.79L11.42,34.29L16.76,34.29C16.76,34.21,16.74,34.12,16.74,34.03C17.05,33.71,23.11,27.58,28.16,22.82L28.15,22.82C32.54,18.68,39.42,17.54,40.98,17.33Z" fill="currentColor" opacity="0.5"/><path d="M22.8,62.3C16.81,62.3,11.94,57.43,11.94,51.44C11.94,49.88,12.29,48.37,12.91,46.99C13.79,56.64,19.85,61.52,24.01,62.23L24,62.23C23.61,62.27,23.21,62.3,22.8,62.3Z" fill="currentColor"/><path d="M15.6,29.11C14.46,26.19,12.15,22.71,7.28,19.65C3.53,17.29,1.36,12.84,1.3,7.41C3.36,13.96,6.26,14.87,11.56,18.73L11.56,18.72C15.01,21.23,15.57,28.64,15.6,29.11Z" fill="currentColor"/></svg>