<svg xmlns="http://www.w3.org/2000/svg" viewBox="0 0 90 90"><path d="M87,48C87,24.8,68.2,6,45,6C21.8,6,3,24.8,3,48C3,71.2,21.8,90,45,90C68.2,90,87,71.2,87,48Z" fill="currentColor"/><path d="M87,45C87,21.8,68.2,3,45,3C21.8,3,3,21.8,3,45C3,68.2,21.8,87,45,87C68.2,87,87,68.2,87,45Z" fill="currentColor"/><path d="M45,87C68.2,87,87,68.2,87,45C87,38.69,85.61,32.71,83.12,27.35C74.44,54.01,52.84,74.77,25.63,82.28C31.43,85.29,38.02,87,45,87Z" fill="currentColor" opacity="0.2"/><path d="M3.79,36.87C7.42,18.34,23.24,4.18,42.55,3.07C24.36,6.79,9.79,19.8,3.79,36.87Z" fill="currentColor"/><path d="M86.99,44.13C87,44.42,87,44.71,87,45C87,68.2,68.2,87,45,87C67.24,84.26,84.8,66.43,86.99,44.13Z" fill="currentColor"/><path d="M29.73,73.01C28.89,73.01,28.22,72.25,28.22,71.41L28.22,62.55C28.22,61.88,28.55,61.03,29.73,61.03L38.93,61.03C39.69,61.03,40.61,61.29,40.61,62.55L40.61,71.41C40.61,72.08,39.69,73.01,38.93,73.01Z" fill="currentColor"/><path d="M51.16,73.01C50.4,73.01,49.47,72.08,49.47,71.41L49.47,62.55C49.47,61.29,50.4,61.03,51.16,61.03L60.35,61.03C61.53,61.03,61.87,61.88,61.87,62.55L61.87,71.41C61.87,72.25,61.19,73.01,60.35,73.01Z" fill="currentColor"/><path d="M30.16,54.54C29.23,54.54,28.55,54.03,28.55,53.02L27.88,21.4C27.88,20.64,28.22,19.88,29.4,19.88L39.26,19.88C40.19,19.88,40.87,20.47,40.87,21.4L39.94,53.02C39.94,53.78,39.26,54.54,38.51,54.54Z" fill="currentColor"/><path d="M51.49,54.54C50.73,54.54,50.06,53.78,50.06,53.02L49.13,21.4C49.13,20.47,49.81,19.88,50.73,19.88L60.6,19.88C61.78,19.88,62.12,20.64,62.12,21.4L61.45,53.02C61.45,54.03,60.77,54.54,59.84,54.54Z" fill="currentColor"/><path d="M29.73,70.39C28.89,70.39,28.22,69.63,28.22,68.78L28.22,59.93C28.22,59.25,28.55,58.41,29.73,58.41L38.93,58.41C39.69,58.41,40.61,58.66,40.61,59.93L40.61,68.78C40.61,69.46,39.69,70.39,38.93,70.39Z" fill="currentColor"/><path d="M51.16,70.39C50.4,70.39,49.47,69.46,49.47,68.78L49.47,59.93C49.47,58.66,50.4,58.41,51.16,58.41L60.35,58.41C61.53,58.41,61.87,59.25,61.87,59.93L61.87,68.78C61.87,69.63,61.19,70.39,60.35,70.39Z" fill="currentColor"/><path d="M30.16,51.92C29.23,51.92,28.55,51.41,28.55,50.4L27.88,18.77C27.88,18.01,28.22,17.25,29.4,17.25L39.26,17.25C40.19,17.25,40.87,17.84,40.87,18.77L39.94,50.4C39.94,51.16,39.26,51.92,38.51,51.92Z" fill="currentColor"/><path d="M51.49,51.92C50.73,51.92,50.06,51.16,50.06,50.4L49.13,18.77C49.13,17.84,49.81,17.25,50.73,17.25L60.6,17.25C61.78,17.25,62.12,18.01,62.12,18.77L61.45,50.4C61.45,51.41,60.77,51.92,59.84,51.92Z" fill="currentColor"/></svg>