<svg xmlns="http://www.w3.org/2000/svg" viewBox="0 0 90 90"><path d="M59.65,22.82L55.19,60.52L55.69,60.71C59.97,62.3,62.14,64.91,62.71,69.19L63.78,82.29C63.78,82.29,57.66,84.77,54.47,84.77L54.04,84.77L50.51,73.77L46.45,73.77L44.49,86.19C44.49,86.19,40.3,86.77,37.57,86.77L37.55,86.77C34.81,86.77,30.63,86.19,30.63,86.19L28.67,73.77L24.61,73.77L21.08,84.77L20.65,84.77C17.46,84.77,11.34,82.29,11.34,82.29L12.41,69.21C12.99,64.93,15.15,62.3,19.43,60.72L19.93,60.53L15.47,22.83L15.16,22.81C8.22,22.81,6.05,13.65,6.07,6.77L69.07,6.77C69.09,13.66,67.07,22.72,60.13,22.72L60.11,22.71Z" fill="currentColor"/><path d="M15.45,22.82L15.14,22.8C11.41,22.8,9.07,20.14,7.69,16.63C13.19,18.4,20,18.62,20.45,18.64L24.81,18.64L25.91,23.15Z" fill="currentColor"/><path d="M11.33,82.28L12.4,69.2C12.71,66.91,13.49,65.11,14.78,63.67C14.63,64.73,12.8,78.72,17.69,84.33L17.7,84.34C14.67,83.63,11.33,82.28,11.33,82.28Z" fill="currentColor"/><path d="M37.56,86.76L37.54,86.76C34.8,86.76,30.62,86.17,30.62,86.17L28.75,74.36C29.16,75.82,31.94,84.83,38.22,86.75C38,86.75,37.77,86.76,37.56,86.76Z" fill="currentColor"/><path d="M54.47,84.76L54.04,84.76L50.78,74.6C51.65,76.3,54.59,81.64,58.33,84.11C56.94,84.48,55.54,84.76,54.47,84.76Z" fill="currentColor"/><path d="M59.66,22.82L55.2,60.52L55.7,60.71C59.98,62.3,62.15,64.91,62.72,69.19L63.77,82.03C63.76,82.09,63.75,82.12,63.75,82.12L63,82.59C62.23,82.88,60.98,83.33,59.6,83.75C58.52,77.22,57.09,67.84,54,65.15C51.04,62.58,49.24,61.98,48.79,61.86C47.93,61.97,47.01,62.07,46.01,62.16C36.91,62.98,23.66,60.41,23.66,60.41C23.66,60.41,37.08,61.22,43.94,52.71C44.59,51.9,45.19,50.86,45.74,49.88C40.33,49.88,32.45,49.88,32.45,49.88L21.91,6.76L69.08,6.76C69.1,13.65,67.08,22.71,60.14,22.71L60.12,22.71Z" fill="currentColor" opacity="0.5"/><path d="M77.72,28.51C74.49,29.32,71.09,28.59,68.46,26.57L66.22,32.93L66.05,33.41L65.55,33.53C64.05,33.9,62.33,33.95,61.18,33.65L61.14,33.47L61.08,33.21L60.94,32.66L59.79,28.03C57.28,28.9,51.16,31.17,48.04,40.71C46.64,44.98,42.76,48.19,37.4,49.53L36.48,49.76L36.25,48.84L26.31,8.97L26.08,8.05L27,7.45C32.36,6.11,37.3,7.5,40.54,10.61C47.76,17.55,54.24,16.69,56.87,16.29L55.72,11.66L55.58,11.11L55.51,10.85L55.47,10.67C56.34,9.87,57.88,9.09,59.38,8.72L59.88,8.6L60.25,8.94L65.21,13.5C66.57,10.49,69.24,8.25,72.47,7.44C78.27,5.99,84.17,9.54,85.62,15.34L85.62,15.36C87.07,21.17,83.52,27.06,77.72,28.51Z" fill="currentColor"/><path d="M67,20.54L65.48,14.44C65.39,14.38,60.35,11.15,58.61,16.2L63,33.81L62.91,33.81C62.27,33.81,61.67,33.77,61.18,33.64L61.14,33.46L61.07,33.2L60.93,32.65L59.78,28.02C59.78,28.02,59.67,28.06,59.62,28.08L59.46,27.44C59.46,27.44,51.72,22.92,45.73,19.07C41.2,16.16,38.63,10.75,37.74,8.58C38.76,9.13,39.7,9.81,40.53,10.61C47.75,17.55,54.23,16.69,56.86,16.29L55.71,11.66L55.57,11.11L55.5,10.85L55.46,10.67C56.33,9.87,57.87,9.09,59.37,8.72L59.85,8.6L60.14,8.85L60.24,8.94L65.2,13.5C66.56,10.49,69.23,8.25,72.46,7.44C76.98,6.31,81.54,8.22,84.03,11.85C84.05,11.89,84.06,11.91,84.06,11.91C81.11,8.47,73.66,7.16,69.55,11.95L69.55,11.97C66.61,15.39,67,20.54,67,20.54Z" fill="currentColor"/><path d="M68.47,26.57L66.23,32.93L66.06,33.41L65.63,33.52L64.39,28.54C66.36,27.74,68.47,26.57,68.5,26.52L68.49,26.51Z" fill="currentColor"/><path d="M74.57,28.8C74.42,28.76,74.34,28.72,74.34,28.72C83.1,25.82,86.06,19.03,85.58,15.22C85.59,15.26,85.61,15.31,85.62,15.35C87.07,21.16,83.52,27.05,77.72,28.5L77.72,28.51C76.68,28.77,75.62,28.85,74.57,28.8Z" fill="currentColor"/><path d="M46.06,36.58C47.71,32.5,55.19,30.14,55.19,30.14C55.29,30.09,55.14,30.26,54.86,30.57C52.42,32.39,49.77,35.44,48.04,40.72C47.14,43.47,45.21,45.78,42.51,47.43C39.54,49.02,36.67,49.81,37.37,49.39C43.43,45.76,43.57,42.73,46.06,36.58Z" fill="currentColor"/></svg>