<svg xmlns="http://www.w3.org/2000/svg" viewBox="0 0 90 90"><path d="M87,48C87,24.8,68.2,6,45,6C21.8,6,3,24.8,3,48C3,71.2,21.8,90,45,90C68.2,90,87,71.2,87,48Z" fill="currentColor"/><path d="M87,45C87,21.8,68.2,3,45,3C21.8,3,3,21.8,3,45C3,68.2,21.8,87,45,87C68.2,87,87,68.2,87,45Z" fill="currentColor"/><path d="M45,87C68.2,87,87,68.2,87,45C87,38.69,85.61,32.71,83.12,27.35C74.44,54.01,52.84,74.77,25.63,82.28C31.43,85.29,38.02,87,45,87Z" fill="currentColor" opacity="0.2"/><path d="M3.79,36.87C7.42,18.34,23.24,4.18,42.55,3.07C24.36,6.79,9.79,19.8,3.79,36.87Z" fill="currentColor"/><path d="M86.99,44.13C87,44.42,87,44.71,87,45C87,68.2,68.2,87,45,87C67.24,84.26,84.8,66.43,86.99,44.13Z" fill="currentColor"/><path d="M39.35,69.22C38.59,69.97,37.41,69.97,36.73,69.22L16.49,48.97C15.73,48.3,15.73,47.03,16.49,46.28L22.9,39.87C23.58,39.19,24.76,39.19,25.52,39.87L38.08,52.35L64.48,26.03C65.24,25.36,66.42,25.36,67.1,26.03L73.51,32.44C74.26,33.12,74.26,34.3,73.51,35.06Z" fill="currentColor"/><path d="M39.35,66.59C38.59,67.35,37.41,67.35,36.73,66.59L16.49,46.35C15.73,45.67,15.73,44.41,16.49,43.65L22.9,37.24C23.58,36.57,24.76,36.57,25.52,37.24L38.08,49.72L64.48,23.41C65.24,22.74,66.42,22.74,67.1,23.41L73.51,29.82C74.26,30.49,74.26,31.67,73.51,32.43Z" fill="currentColor"/></svg>