<svg xmlns="http://www.w3.org/2000/svg" viewBox="0 0 90 90"><path d="M88,46C88,69.2,69.2,88,46,88C22.8,88,4,69.2,4,46C4,22.8,22.8,4,46,4C69.2,4,88,22.8,88,46Z" fill="currentColor"/><path d="M88,49C88,72.2,69.2,91,46,91C22.8,91,4,72.2,4,49C4,25.8,22.8,7,46,7C69.2,7,88,25.8,88,49Z" fill="currentColor"/><path d="M46,7C69.2,7,88,25.8,88,49C88,55.31,86.61,61.29,84.12,66.65C75.44,39.99,53.84,19.23,26.63,11.72C32.43,8.71,39.02,7,46,7Z" fill="currentColor" opacity="0.2"/><path d="M4.79,57.13C8.42,75.66,24.24,89.82,43.55,90.93C25.36,87.21,10.79,74.2,4.79,57.13Z" fill="currentColor"/><path d="M87.99,49.87C88,49.58,88,49.29,88,49C88,25.8,69.2,7,46,7C68.24,9.74,85.8,27.57,87.99,49.87Z" fill="currentColor"/><path d="M43.47,22.17C38.66,25.46,31.75,27.57,20.87,27.57L18.17,27.57L18.17,68.3L20.87,68.3C31.66,68.3,38.66,66.7,43.47,63.16Z" fill="currentColor"/><path d="M48.53,63.16C53.34,66.7,60.34,68.3,71.13,68.3L73.83,68.3L73.83,27.57L71.13,27.57C60.25,27.57,53.25,25.54,48.53,22.17Z" fill="currentColor"/><path d="M43.47,24.8C38.66,28.08,31.75,30.19,20.87,30.19L18.17,30.19L18.17,70.93L20.87,70.93C31.66,70.93,38.66,69.33,43.47,65.78Z" fill="currentColor"/><path d="M48.53,65.78C53.34,69.33,60.34,70.93,71.13,70.93L73.83,70.93L73.83,30.19L71.13,30.19C60.25,30.19,53.25,28.17,48.53,24.8Z" fill="currentColor"/></svg>