<svg xmlns="http://www.w3.org/2000/svg" viewBox="0 0 90 90"><path d="M36.71,16.03L36.71,16.03L44.77,9.31L44.9,9.19C45.14,8.97,45.26,8.74,45.26,8.47C45.26,8.18,45.15,7.96,44.9,7.71L36.71,0.96L36.71,0.96C36.16,0.49,35.82,0.48,35.7,0.51C35.64,0.53,35.45,0.65,35.45,1.23L35.45,15.66C35.45,16.29,35.65,16.42,35.71,16.44C35.83,16.48,36.16,16.47,36.71,16.03Z" fill="currentColor"/><path d="M57.29,73.97L57.29,73.97L49.23,80.69L49.1,80.81C48.86,81.03,48.74,81.26,48.74,81.53C48.74,81.82,48.85,82.04,49.1,82.29L57.29,89.04L57.29,89.04C57.84,89.51,58.18,89.52,58.3,89.49C58.36,89.47,58.55,89.35,58.55,88.77L58.55,74.34C58.55,73.71,58.35,73.58,58.29,73.56C58.17,73.52,57.84,73.53,57.29,73.97Z" fill="currentColor"/><path d="M58,81L73,81C76.87,81,80,77.87,80,74L80,58" fill="none" stroke="currentColor" stroke-width="6" stroke-linecap="round" stroke-linejoin="round"/><path d="M83.89,27.85C83.89,31.94,81.3,39.47,80.84,41.71C80.84,41.71,80.64,42.4,80.52,43.56C87.75,44.78,87.73,50.2,87.73,50.22L87.73,53.67L46.41,53.67L46.41,50.22C46.41,50.2,46.39,44.23,54.74,43.42L54.83,41.71C55.34,36.5,60.09,32.7,62.81,30.5C64.5,29.14,66.22,27.58,66.84,25.43C67.51,23.09,65.99,20.99,65.45,20.33L64.04,21.95C62.62,23.44,60.09,26.03,57.25,26.05C53.55,26.07,53.47,28.65,51.73,30.33L51.74,30.33C51.35,30.72,46.83,29.61,45.26,28.27C44.07,27.27,43.93,25.4,45.03,24.03L49.33,17.99C51.25,15.19,51.34,13.7,52.45,10.88C52.76,10.09,53.12,8.99,54.52,7.83C55.92,6.67,56.83,5.77,57.37,4.43L57.91,1.84C58.1,1.05,58.79,0.34,59.47,0.34L64.21,5.08C73.5,5.71,83.89,12.47,83.89,27.85Z" fill="currentColor"/><path d="M83.89,27.85C83.89,30.8,82.54,35.54,81.62,38.79C81.26,40.05,80.97,41.08,80.84,41.71C80.84,41.71,80.66,42.43,80.53,43.57C80.48,43.56,72.92,43.16,71.17,43.32C71.87,40.76,73.26,38.55,74.72,36.24C77.09,32.47,79.63,28.44,79.63,22.19C79.63,8.84,67.47,5.67,64.6,5.11C73.79,5.9,83.89,12.68,83.89,27.85Z" fill="currentColor"/><path d="M58.26,25.93C57.93,26,57.59,26.04,57.25,26.04C53.55,26.06,53.47,28.64,51.73,30.32C51.63,30.41,51.31,30.41,50.87,30.36C51.23,29.75,52.25,28.63,53.02,26.31C54.27,22.56,55.12,24.32,58.26,25.93Z" fill="currentColor"/><path d="M58.26,25.93C58.26,25.93,58.26,25.93,58.27,25.93L58.27,25.93C58.26,25.93,58.26,25.93,58.26,25.93Z" fill="currentColor"/><path d="M68.5,18.71C68.51,19.74,67.86,22.61,66.88,25.18C67.38,22.94,65.97,20.96,65.45,20.33L65.33,20.46C65.35,20.39,65.36,20.35,65.36,20.35C65.38,20.32,67.02,17.75,67.68,16.47C68.35,15.19,68.48,17.59,68.5,18.71Z" fill="currentColor"/><path d="M64,5.01C64.05,5,64.09,5,64.14,5L64.16,5.03C64.06,5.01,64,5.01,64,5.01Z" fill="currentColor"/><path d="M86.65,47.05C85.31,46.57,80.91,45.57,67.21,45.57C51.6,45.57,48.07,46.87,47.39,47.22C48.55,45.36,51.09,43.33,56.71,43.33L77.44,43.33C82.89,43.33,85.44,45.24,86.65,47.05Z" fill="currentColor"/><path d="M58.31,6.99C52.64,10.51,53.67,14.83,52.03,17.03C51.21,18.11,45.47,25.21,44.35,26.58C44.21,25.73,44.39,24.79,45.02,24.01L45.03,24.02L49.33,17.97C51.25,15.18,51.33,13.69,52.44,10.87C52.75,10.07,53.11,8.98,54.51,7.82C55.91,6.66,56.82,5.75,57.37,4.41L57.91,1.83C58.05,1.24,58.47,0.69,58.95,0.45C59.05,0.43,59.15,0.41,59.27,0.41C59.27,0.41,61.27,5.15,58.31,6.99Z" fill="currentColor"/><path d="M12.25,62.05C15.09,62.03,17.62,59.44,19.04,57.95L20.45,56.33C20.99,56.99,22.51,59.09,21.84,61.43C21.22,63.58,19.5,65.14,17.81,66.5C15.09,68.7,10.34,72.5,9.83,77.71L9.64,81.4L35.42,81.4C35.42,79.17,35.84,77.71,35.84,77.71C36.3,75.47,38.89,67.94,38.89,63.85C38.89,48.47,28.5,41.71,19.21,41.08L14.47,36.34C13.79,36.34,13.1,37.05,12.91,37.84L12.37,40.43C11.83,41.77,10.92,42.67,9.52,43.83C8.12,44.99,7.76,46.09,7.45,46.88C6.34,49.7,6.25,51.19,4.33,53.99L0.03,60.03C-1.07,61.4,-0.93,63.27,0.26,64.27C1.83,65.61,6.35,66.72,6.74,66.33L6.73,66.33C8.47,64.65,8.55,62.07,12.25,62.05Z" fill="currentColor"/><path d="M11.71,79.33C1.37,79.33,1.41,86.22,1.41,86.22L1.41,89.67L42.73,89.67L42.73,86.22C42.73,86.22,42.77,79.33,32.43,79.33Z" fill="currentColor"/><path d="M19,41.01C19.05,41,19.09,41,19.14,41L19.16,41.03C19.06,41.01,19,41.01,19,41.01Z" fill="currentColor"/><path d="M35.84,77.71C35.97,77.08,36.26,76.05,36.62,74.79C37.54,71.54,38.89,66.8,38.89,63.85C38.89,48.68,28.79,41.9,19.6,41.11C22.47,41.67,34.63,44.84,34.63,58.19C34.63,64.44,32.09,68.47,29.72,72.24C28.26,74.55,26.87,76.76,26.17,79.32C27.92,79.16,35.53,79.57,35.53,79.57C35.66,78.43,35.84,77.71,35.84,77.71Z" fill="currentColor"/><path d="M13.26,61.93L13.27,61.93L13.27,61.93Z" fill="currentColor"/><path d="M11.53,60.93C9.74,59.82,9,59.36,8.02,62.31C7.42,64.12,6.67,65.2,6.2,65.87C6.06,66.07,5.95,66.22,5.87,66.36C6.31,66.41,6.63,66.41,6.73,66.32C7.25,65.82,7.62,65.24,7.98,64.67C8.84,63.33,9.65,62.05,12.25,62.04C12.59,62.04,12.93,62,13.26,61.93C12.59,61.58,12.02,61.23,11.53,60.93Z" fill="currentColor"/><path d="M22.68,52.47C22.01,53.75,20.36,56.35,20.36,56.35C20.36,56.35,20.35,56.39,20.33,56.46L20.45,56.33C20.97,56.96,22.38,58.94,21.88,61.18C22.86,58.61,23.51,55.74,23.5,54.71C23.48,53.59,23.35,51.19,22.68,52.47Z" fill="currentColor"/><path d="M0.03,60.02L0.02,60.01C-0.61,60.79,-0.79,61.73,-0.65,62.58C0.47,61.21,6.21,54.11,7.03,53.03C7.55,52.32,7.81,51.4,8.09,50.36C8.7,48.15,9.46,45.38,13.31,42.99C16.27,41.15,14.27,36.41,14.27,36.41C14.18,36.41,14.1,36.42,14.01,36.44C13.99,36.44,13.97,36.45,13.95,36.45C13.47,36.69,13.05,37.24,12.91,37.83L12.37,40.41C11.82,41.75,10.91,42.66,9.51,43.82C8.19,44.91,7.79,45.95,7.49,46.73C7.47,46.78,7.46,46.82,7.44,46.87C7.12,47.69,6.88,48.4,6.66,49.07C6.13,50.67,5.69,52,4.33,53.97Z" fill="currentColor"/><path d="M2.39,83.22C3.07,82.87,6.59,81.57,22.21,81.57C35.91,81.57,40.31,82.57,41.65,83.05C40.44,81.24,37.89,79.33,32.44,79.33L11.71,79.33C6.09,79.33,3.55,81.36,2.39,83.22Z" fill="currentColor"/><path d="M37,8.5C37,10.16,35.66,11.5,34,11.5L17,11.5C14.79,11.5,13,13.29,13,15.5L13,38.41C10.84,39.42,8.84,40.74,7,42.37L7,15.5C7,9.98,11.48,5.5,17,5.5L34,5.5C35.66,5.5,37,6.84,37,8.5Z" fill="currentColor"/></svg>