<svg xmlns="http://www.w3.org/2000/svg" viewBox="0 0 90 90"><path d="M88,46C88,69.2,69.2,88,46,88C22.8,88,4,69.2,4,46C4,22.8,22.8,4,46,4C69.2,4,88,22.8,88,46Z" fill="currentColor"/><path d="M88,49C88,72.2,69.2,91,46,91C22.8,91,4,72.2,4,49C4,25.8,22.8,7,46,7C69.2,7,88,25.8,88,49Z" fill="currentColor"/><path d="M46,7C69.2,7,88,25.8,88,49C88,55.31,86.61,61.29,84.12,66.65C75.44,39.99,53.84,19.23,26.63,11.72C32.43,8.71,39.02,7,46,7Z" fill="currentColor" opacity="0.2"/><path d="M4.79,57.13C8.42,75.66,24.24,89.82,43.55,90.93C25.36,87.21,10.79,74.2,4.79,57.13Z" fill="currentColor"/><path d="M87.99,49.87C88,49.58,88,49.29,88,49C88,25.8,69.2,7,46,7C68.24,9.74,85.8,27.57,87.99,49.87Z" fill="currentColor"/><path d="M25.81,32.33C24.96,32.33,24.46,32.76,24.2,33.52L17.29,56.54C16.7,58.65,17.79,59.58,19.73,58.39L33.23,49.88C34.15,49.29,35,49.62,35.5,50.47L44.53,66.74C45.37,68.26,46.72,68.18,47.48,66.74L56.34,50.47C56.84,49.62,57.68,49.29,58.61,49.88L72.11,58.39C74.3,59.74,75.31,58.98,74.55,56.54L67.55,33.52C67.3,32.76,66.79,32.33,66.03,32.33Z" fill="currentColor"/><path d="M25.8,34.48C24.96,34.48,24.45,34.91,24.2,35.66L17.28,58.69C16.69,60.8,17.79,61.72,19.73,60.54L33.22,52.03C34.15,51.44,35,51.77,35.5,52.62L44.53,68.89C45.37,70.41,46.72,70.33,47.48,68.89L56.33,52.62C56.84,51.77,57.68,51.44,58.61,52.03L72.1,60.54C74.3,61.89,75.31,61.13,74.55,58.69L67.55,35.66C67.3,34.91,66.79,34.48,66.03,34.48Z" fill="currentColor"/></svg>