<svg xmlns="http://www.w3.org/2000/svg" viewBox="0 0 90 90"><path d="M88,46C88,69.2,69.2,88,46,88C22.8,88,4,69.2,4,46C4,22.8,22.8,4,46,4C69.2,4,88,22.8,88,46Z" fill="currentColor"/><path d="M88,49C88,72.2,69.2,91,46,91C22.8,91,4,72.2,4,49C4,25.8,22.8,7,46,7C69.2,7,88,25.8,88,49Z" fill="currentColor"/><path d="M46,7C69.2,7,88,25.8,88,49C88,55.31,86.61,61.29,84.12,66.65C75.44,39.99,53.84,19.23,26.63,11.72C32.43,8.71,39.02,7,46,7Z" fill="currentColor" opacity="0.2"/><path d="M4.79,57.13C8.42,75.66,24.24,89.82,43.55,90.93C25.36,87.21,10.79,74.2,4.79,57.13Z" fill="currentColor"/><path d="M87.99,49.87C88,49.58,88,49.29,88,49C88,25.8,69.2,7,46,7C68.24,9.74,85.8,27.57,87.99,49.87Z" fill="currentColor"/><path d="M40.35,24.78C39.59,24.03,38.41,24.03,37.73,24.78L17.49,45.03C16.73,45.7,16.73,46.97,17.49,47.72L23.9,54.13C24.58,54.81,25.76,54.81,26.52,54.13L39.08,41.65L65.48,67.97C66.24,68.64,67.42,68.64,68.1,67.97L74.51,61.56C75.26,60.88,75.26,59.7,74.51,58.94Z" fill="currentColor"/><path d="M40.35,27.41C39.59,26.65,38.41,26.65,37.73,27.41L17.49,47.65C16.73,48.33,16.73,49.59,17.49,50.35L23.9,56.76C24.58,57.43,25.76,57.43,26.52,56.76L39.08,44.28L65.48,70.59C66.24,71.26,67.42,71.26,68.1,70.59L74.51,64.18C75.26,63.51,75.26,62.33,74.51,61.57Z" fill="currentColor"/></svg>