<svg xmlns="http://www.w3.org/2000/svg" viewBox="0 0 90 90"><path d="M87,48C87,24.8,68.2,6,45,6C21.8,6,3,24.8,3,48C3,71.2,21.8,90,45,90C68.2,90,87,71.2,87,48Z" fill="currentColor"/><path d="M87,45C87,21.8,68.2,3,45,3C21.8,3,3,21.8,3,45C3,68.2,21.8,87,45,87C68.2,87,87,68.2,87,45Z" fill="currentColor"/><path d="M45,87C68.2,87,87,68.2,87,45C87,38.69,85.61,32.71,83.12,27.35C74.44,54.01,52.84,74.77,25.63,82.28C31.43,85.29,38.02,87,45,87Z" fill="currentColor" opacity="0.2"/><path d="M3.79,36.87C7.42,18.34,23.24,4.18,42.55,3.07C24.36,6.79,9.79,19.8,3.79,36.87Z" fill="currentColor"/><path d="M86.99,44.13C87,44.42,87,44.71,87,45C87,68.2,68.2,87,45,87C67.24,84.26,84.8,66.43,86.99,44.13Z" fill="currentColor"/><path d="M17.42,55.64C16.49,55.64,15.74,54.88,15.74,53.95L15.74,42.73C15.74,41.81,16.49,41.05,17.42,41.05L72.49,41.05C73.42,41.05,74.18,41.81,74.18,42.73L74.18,53.95C74.18,54.88,73.42,55.64,72.49,55.64Z" fill="currentColor"/><path d="M17.42,53.01C16.49,53.01,15.74,52.25,15.74,51.33L15.74,40.11C15.74,39.18,16.49,38.42,17.42,38.42L72.49,38.42C73.42,38.42,74.18,39.18,74.18,40.11L74.18,51.33C74.18,52.25,73.42,53.01,72.49,53.01Z" fill="currentColor"/></svg>