<svg xmlns="http://www.w3.org/2000/svg" viewBox="0 0 90 90"><path d="M73.74,5.13L74.84,12.03L77.04,12.03L78.99,5.93C79.89,6.03,80.59,6.18,81.79,6.48C82.75,6.73,83.75,7.03,84.45,7.38L83.75,14.59C83.55,16.89,82.39,18.34,79.64,19.39L82.19,40.36C82.2,40.36,82.21,40.36,82.22,40.37C88.17,41.27,87.77,44.47,87.77,48.07L87.77,49.22L52.23,49.22L52.23,48.07C52.23,44.47,51.83,41.22,57.78,40.37L60.28,19.39C57.13,18.19,56.33,16.74,56.12,14.59L55.53,7.28C57.33,6.58,59.38,5.93,60.88,5.93L62.83,12.03L65.08,12.03L66.13,5.13C67.38,4.93,68.68,4.78,69.94,4.78C71.19,4.78,72.49,4.93,73.74,5.13Z" fill="currentColor"/><path d="M82.19,40.4L82.19,40.4L82.19,40.4C80.99,40.25,79.79,40.15,78.59,40.1C78.34,38.95,78.11,37.82,77.89,36.72C75.79,26.34,74.28,18.91,62.38,19.09C66.53,18.24,72.69,18.14,76.19,18.64C80.25,17.8,81.49,11,82.2,6.59C83.01,6.81,83.82,7.07,84.42,7.37C84.43,7.37,84.44,7.38,84.45,7.38L83.75,14.59C83.75,14.59,83.74,14.6,83.74,14.61C83.54,16.9,82.39,18.34,79.64,19.39Z" fill="currentColor" opacity="0.5"/><path d="M82.21,40.37C85.76,40.92,87.07,42.22,87.52,43.97C85.56,42.67,82.16,42.32,69.99,42.32C57.88,42.32,54.27,42.62,52.47,43.92C52.92,42.22,54.27,40.92,57.78,40.37C59.48,40.12,64.74,40.06,69.99,40.06C76.7,40.06,79.61,39.97,82.21,40.37Z" fill="currentColor"/><path d="M57.64,17.92C56.62,17.01,56.25,15.94,56.13,14.6C56.13,14.59,56.13,14.59,56.13,14.58L55.52,7.28C56.71,6.82,58,6.38,59.17,6.14C57.2,7.43,56.73,13.48,57.64,17.92Z" fill="currentColor"/><path d="M81.37,6.37C79.3,7.92,77.57,11.03,77.04,12.03L78.99,5.93C79,5.93,79.01,5.93,79.02,5.93C79.8,6.02,80.43,6.15,81.37,6.37Z" fill="currentColor"/><path d="M65.08,12.03L66.13,5.13C67.38,4.93,68.69,4.78,69.94,4.78C66.73,5.88,65.33,11.18,65.08,12.03Z" fill="currentColor"/><path d="M23.74,5.13L24.84,12.03L27.04,12.03L28.99,5.93C29.89,6.03,30.59,6.18,31.79,6.48C32.75,6.73,33.75,7.03,34.45,7.38L33.75,14.59C33.55,16.89,32.39,18.34,29.64,19.39L32.19,40.36C32.2,40.36,32.21,40.36,32.22,40.37C38.17,41.27,37.77,44.47,37.77,48.07L37.77,49.22L2.23,49.22L2.23,48.07C2.23,44.47,1.83,41.22,7.78,40.37L10.28,19.39C7.13,18.19,6.32,16.74,6.12,14.59L5.53,7.28C7.33,6.58,9.38,5.93,10.88,5.93L12.83,12.03L15.08,12.03L16.13,5.13C17.38,4.93,18.68,4.78,19.94,4.78C21.19,4.78,22.49,4.93,23.74,5.13Z" fill="currentColor"/><path d="M32.19,40.4L32.19,40.4L32.19,40.4C30.99,40.25,29.79,40.15,28.59,40.1C28.34,38.95,28.11,37.82,27.89,36.72C25.79,26.34,24.28,18.91,12.38,19.09C16.53,18.24,22.69,18.14,26.19,18.64C30.25,17.8,31.49,11,32.2,6.59C33.01,6.81,33.82,7.07,34.42,7.37C34.43,7.37,34.44,7.38,34.45,7.38L33.75,14.59C33.75,14.59,33.74,14.6,33.74,14.61C33.54,16.9,32.39,18.34,29.64,19.39Z" fill="currentColor" opacity="0.5"/><path d="M32.21,40.37C35.76,40.92,37.07,42.22,37.52,43.97C35.56,42.67,32.16,42.32,19.99,42.32C7.88,42.32,4.27,42.62,2.47,43.92C2.92,42.22,4.27,40.92,7.78,40.37C9.48,40.12,14.74,40.06,19.99,40.06C26.7,40.06,29.61,39.97,32.21,40.37Z" fill="currentColor"/><path d="M7.64,17.92C6.62,17.01,6.25,15.94,6.13,14.6C6.13,14.59,6.13,14.59,6.13,14.58L5.52,7.28C6.71,6.82,8,6.38,9.17,6.14C7.2,7.43,6.73,13.48,7.64,17.92Z" fill="currentColor"/><path d="M31.37,6.37C29.3,7.92,27.57,11.03,27.04,12.03L28.99,5.93C29,5.93,29.01,5.93,29.02,5.93C29.8,6.02,30.43,6.15,31.37,6.37Z" fill="currentColor"/><path d="M15.08,12.03L16.13,5.13C17.38,4.93,18.68,4.78,19.94,4.78C16.73,5.88,15.33,11.18,15.08,12.03Z" fill="currentColor"/><path d="M17.16,65.37L17,65.17L9.89,57.11L9.76,56.99C9.53,56.75,9.28,56.62,8.97,56.62C8.64,56.62,8.4,56.74,8.13,56.99L0.98,65.18L0.98,65.18C0.49,65.74,0.48,66.07,0.51,66.17C0.53,66.23,0.67,66.43,1.3,66.43L16.59,66.43C17.27,66.43,17.42,66.22,17.44,66.16C17.48,66.07,17.48,65.81,17.16,65.37Z" fill="currentColor"/><path d="M9,61.88L9,76.88C9,80.75,12.13,83.88,16,83.88L28,83.88" fill="none" stroke="currentColor" stroke-width="6" stroke-linecap="round" stroke-linejoin="round"/><path d="M72.84,65.37L73,65.17L80.11,57.11L80.24,56.99C80.47,56.75,80.72,56.62,81.03,56.62C81.36,56.62,81.6,56.74,81.87,56.99L89.02,65.18L89.02,65.18C89.51,65.74,89.52,66.07,89.49,66.17C89.47,66.23,89.33,66.43,88.7,66.43L73.42,66.43C72.73,66.43,72.58,66.22,72.56,66.16C72.52,66.07,72.52,65.81,72.84,65.37Z" fill="currentColor"/><path d="M81,61.88L81,76.88C81,80.75,77.87,83.88,74,83.88L62,83.88" fill="none" stroke="currentColor" stroke-width="6" stroke-linecap="round" stroke-linejoin="round"/><path d="M68.36,54.57C68.36,59.67,65.13,69.09,64.55,71.88C64.55,71.88,64.3,72.75,64.15,74.21C73.17,75.72,73.16,82.47,73.16,82.52L73.16,86.83L21.52,86.83L21.52,82.52C21.52,82.47,21.51,75.04,31.93,74.02L32.03,71.88C32.68,65.37,38.62,60.63,42.01,57.88C44.12,56.17,46.28,54.23,47.05,51.53C47.88,48.61,45.99,45.98,45.31,45.16L43.55,47.19C41.78,49.05,38.62,52.29,35.06,52.31C30.44,52.33,30.33,55.56,28.16,57.66L28.18,57.67C27.68,58.15,22.04,56.76,20.07,55.09C18.59,53.84,18.41,51.5,19.79,49.79L25.17,42.23C27.57,38.74,27.68,36.87,29.06,33.35C29.45,32.36,29.9,30.99,31.65,29.54C33.4,28.09,34.53,26.96,35.22,25.28L35.89,22.05C36.12,21.07,36.99,20.18,37.83,20.18L43.77,26.1C55.37,26.88,68.36,35.33,68.36,54.57Z" fill="currentColor"/><path d="M68.36,54.57C68.36,58.25,66.68,64.17,65.52,68.24C65.08,69.81,64.71,71.1,64.55,71.88C64.54,71.91,64.32,72.81,64.17,74.21C64.17,74.21,54.65,73.7,52.47,73.9C53.34,70.7,55.08,67.94,56.9,65.05C59.86,60.34,63.04,55.3,63.04,47.49C63.04,30.8,47.83,26.84,44.25,26.14C55.73,27.12,68.36,35.6,68.36,54.57Z" fill="currentColor"/><path d="M36.32,52.16C35.91,52.25,35.49,52.3,35.06,52.3C30.44,52.32,30.33,55.55,28.16,57.65C28.04,57.76,27.64,57.77,27.09,57.7C27.54,56.93,28.82,55.53,29.78,52.64C31.34,47.95,32.4,50.15,36.32,52.16Z" fill="currentColor"/><path d="M36.32,52.16C36.32,52.16,36.33,52.16,36.33,52.16L36.33,52.17C36.33,52.16,36.32,52.16,36.32,52.16Z" fill="currentColor"/><path d="M49.12,43.14C49.14,44.42,48.33,48.01,47.1,51.23C47.73,48.43,45.97,45.95,45.31,45.16L45.16,45.33C45.18,45.24,45.2,45.19,45.2,45.18C45.2,45.18,47.27,41.94,48.1,40.34C48.93,38.74,49.1,41.74,49.12,43.14Z" fill="currentColor"/><path d="M43.5,26.01C43.56,26.01,43.61,26,43.67,26L43.7,26.04C43.57,26.02,43.5,26.01,43.5,26.01Z" fill="currentColor"/><path d="M71.81,78.57C70.14,77.96,64.64,76.72,47.52,76.72C27.99,76.72,23.58,78.33,22.73,78.78C24.18,76.45,27.36,73.91,34.38,73.91L60.3,73.91C67.12,73.91,70.3,76.3,71.81,78.57Z" fill="currentColor"/><path d="M36.39,28.48C29.3,32.89,30.59,38.29,28.53,41.03C27.52,42.39,20.33,51.26,18.94,52.97C18.76,51.91,18.98,50.74,19.78,49.77L19.78,49.78L25.16,42.22C27.56,38.73,27.67,36.86,29.05,33.33C29.43,32.34,29.88,30.98,31.64,29.53C33.39,28.08,34.52,26.94,35.21,25.27L35.88,22.03C36.06,21.3,36.58,20.62,37.18,20.32C37.32,20.29,37.44,20.26,37.58,20.26C37.58,20.26,40.08,26.19,36.39,28.48Z" fill="currentColor"/></svg>