<svg xmlns="http://www.w3.org/2000/svg" viewBox="0 0 90 90"><path d="M88,46C88,69.2,69.2,88,46,88C22.8,88,4,69.2,4,46C4,22.8,22.8,4,46,4C69.2,4,88,22.8,88,46Z" fill="currentColor"/><path d="M88,49C88,72.2,69.2,91,46,91C22.8,91,4,72.2,4,49C4,25.8,22.8,7,46,7C69.2,7,88,25.8,88,49Z" fill="currentColor"/><path d="M46,7C69.2,7,88,25.8,88,49C88,55.31,86.61,61.29,84.12,66.65C75.44,39.99,53.84,19.23,26.63,11.72C32.43,8.71,39.02,7,46,7Z" fill="currentColor" opacity="0.2"/><path d="M4.79,57.13C8.42,75.66,24.24,89.82,43.55,90.93C25.36,87.21,10.79,74.2,4.79,57.13Z" fill="currentColor"/><path d="M87.99,49.87C88,49.58,88,49.29,88,49C88,25.8,69.2,7,46,7C68.24,9.74,85.8,27.57,87.99,49.87Z" fill="currentColor"/><path d="M18.42,38.36C17.49,38.36,16.74,39.12,16.74,40.05L16.74,51.27C16.74,52.19,17.49,52.95,18.42,52.95L73.49,52.95C74.42,52.95,75.18,52.19,75.18,51.27L75.18,40.05C75.18,39.12,74.42,38.36,73.49,38.36Z" fill="currentColor"/><path d="M18.42,40.99C17.49,40.99,16.74,41.75,16.74,42.67L16.74,53.89C16.74,54.82,17.49,55.58,18.42,55.58L73.49,55.58C74.42,55.58,75.18,54.82,75.18,53.89L75.18,42.67C75.18,41.75,74.42,40.99,73.49,40.99Z" fill="currentColor"/></svg>