<svg xmlns="http://www.w3.org/2000/svg" viewBox="0 0 90 90"><path d="M87,48C87,24.8,68.2,6,45,6C21.8,6,3,24.8,3,48C3,71.2,21.8,90,45,90C68.2,90,87,71.2,87,48Z" fill="currentColor"/><path d="M87,45C87,21.8,68.2,3,45,3C21.8,3,3,21.8,3,45C3,68.2,21.8,87,45,87C68.2,87,87,68.2,87,45Z" fill="currentColor"/><path d="M45,87C68.2,87,87,68.2,87,45C87,38.69,85.61,32.71,83.12,27.35C74.44,54.01,52.84,74.77,25.63,82.28C31.43,85.29,38.02,87,45,87Z" fill="currentColor" opacity="0.2"/><path d="M3.79,36.87C7.42,18.34,23.24,4.18,42.55,3.07C24.36,6.79,9.79,19.8,3.79,36.87Z" fill="currentColor"/><path d="M86.99,44.13C87,44.42,87,44.71,87,45C87,68.2,68.2,87,45,87C67.24,84.26,84.8,66.43,86.99,44.13Z" fill="currentColor"/><path d="M39.35,69.2C38.51,70.04,37.58,70.04,36.74,69.2L16.52,48.97C15.76,48.13,15.76,47.12,16.52,46.28L22.92,39.87C23.77,39.03,24.78,39.11,25.53,39.87L38.09,52.34L64.46,26.05C65.22,25.21,66.23,25.21,67.08,26.05L73.48,32.46C74.41,33.3,73.99,34.56,73.48,35.07Z" fill="currentColor"/><path d="M39.35,66.57C38.51,67.41,37.58,67.41,36.74,66.57L16.52,46.35C15.76,45.51,15.76,44.49,16.52,43.65L22.92,37.25C23.77,36.41,24.78,36.49,25.53,37.25L38.09,49.72L64.46,23.43C65.22,22.59,66.23,22.59,67.08,23.43L73.48,29.83C74.41,30.68,73.99,31.94,73.48,32.44Z" fill="currentColor"/></svg>