<svg xmlns="http://www.w3.org/2000/svg" viewBox="0 0 90 90"><path d="M85.15,49.05C85.15,45.4,85.15,42.27,79.95,41.32L87.25,23.68C89.19,23.43,90.94,21.43,90.94,19.33C90.94,16.98,88.99,14.93,86.5,14.93C84.15,14.93,82.1,16.98,82.1,19.33C82.1,20.23,82.55,21.08,82.85,21.58L77.85,26.88L77.25,14.58C78.95,14.03,80.2,12.33,80.2,10.38C80.2,8.18,78.5,5.78,75.55,5.78C72.9,5.78,70.9,8.03,70.9,10.38C70.9,11.73,71.55,13.03,72.6,13.88L69,24.33L65.4,13.88C66.45,13.03,67.1,11.73,67.1,10.38C67.1,7.88,65.1,5.78,62.45,5.78C59.5,5.78,57.8,8.08,57.8,10.43C57.8,12.38,59.05,14.03,60.75,14.58L60.15,26.88L55.15,21.58C55.45,21.08,55.9,20.23,55.9,19.33C55.9,16.98,53.85,14.93,51.5,14.93C49.05,14.93,47.06,16.93,47.06,19.33C47.06,21.43,48.81,23.43,50.75,23.68L58.1,41.32C52.85,42.27,52.85,45.45,52.85,49.05L52.85,50.22L85.15,50.22Z" fill="currentColor"/><path d="M89.94,16.58C90.94,20.68,87.25,21.98,85.65,22.83C85.65,22.83,82.15,29.87,77.4,35.07C72.35,40.52,69,41.02,69,41.02C75.1,41.02,77.55,41.02,79.95,41.32L87.25,23.68C89.19,23.43,90.94,21.43,90.94,19.33C90.94,18.33,90.59,17.38,89.94,16.58Z" fill="currentColor" opacity="0.5"/><path d="M79.95,41.32C82.5,41.77,83.8,42.77,84.45,44.07C83.85,43.82,83.1,43.67,82.2,43.52C79.3,43.27,76.4,43.27,69.05,43.27C63.15,43.27,57.8,43.42,55.85,43.52C55,43.67,54.25,43.82,53.6,44.07C54.3,42.77,55.6,41.77,58.1,41.32C59.75,41.22,64.15,41.02,69.05,41.02C75.15,41.02,77.55,41.02,79.95,41.32Z" fill="currentColor"/><path d="M49.2,23.13C48.01,22.28,47.06,20.93,47.06,19.33C47.06,16.93,49.06,14.93,51.5,14.93C48.41,16.48,47.41,20.33,49.2,23.13Z" fill="currentColor"/><path d="M87.65,15.08C85.29,15.38,82.8,17.28,82.6,21.13C82.35,20.68,82.1,20.03,82.1,19.33C82.1,16.98,84.15,14.93,86.5,14.93C86.85,14.93,87.4,15.03,87.65,15.08Z" fill="currentColor"/><path d="M58.4,12.63C58,11.93,57.8,11.18,57.8,10.43C57.8,8.08,59.5,5.78,62.45,5.78C60.8,6.43,58.8,8.63,58.4,12.63Z" fill="currentColor"/><path d="M71.45,12.53C71.1,11.88,70.9,11.13,70.9,10.38C70.9,8.03,72.9,5.78,75.55,5.78C74,6.58,71.7,8.83,71.45,12.53Z" fill="currentColor"/><path d="M38.59,36.57C36.94,38.08,35.52,39.83,34.38,41.75C37.99,42.72,38.59,45.16,38.59,48.56L38.59,50.22L7.41,50.22L7.41,48.56C7.41,45.26,7.91,42.76,11.66,41.75C10.51,39.82,9.07,38.08,7.41,36.57C4.83,34.04,2.17,31.38,2.17,27.22C2.07,21.73,6.44,16.99,12.02,17.08C14.54,16.99,17.05,17.61,19.24,18.88L20.13,14.98L16.56,14.98L16.56,9.48L20.23,9.48L20.23,5.78L25.76,5.78L25.76,9.58L29.43,9.58L29.43,15.04L25.86,15.04L26.75,18.94C28.93,17.65,31.44,17.01,33.97,17.08C39.82,16.93,43.96,21.51,43.83,27.22C43.83,31.35,41.18,34.01,38.59,36.57Z" fill="currentColor"/><path d="M34.69,28.29C35.16,25.06,31.57,24.94,31.56,24.94C29.58,24.94,27.13,26.69,27.13,26.69L27.13,34.33C27.98,34.37,28.56,34.42,29.54,34.48C30.28,33.54,31.16,32.71,31.97,31.94C33.32,30.66,34.51,29.52,34.69,28.29Z" fill="currentColor"/><path d="M14.42,24.94C14.42,24.94,10.86,25.07,11.28,28.29C11.46,29.52,12.65,30.65,13.99,31.93C14.81,32.71,15.69,33.54,16.43,34.48C17.41,34.42,18.01,34.33,18.84,34.33L18.84,26.69C18.84,26.69,16.39,24.94,14.42,24.94Z" fill="currentColor"/><path d="M43.83,27.22C43.83,31.35,41.18,34.01,38.59,36.57C36.94,38.08,35.52,39.83,34.38,41.75C34.43,41.76,34.47,41.78,34.52,41.79C33.32,41.45,31.97,41.34,30.69,41.34L30.61,41.34L39.76,32.16C44.28,27.63,41.27,20.73,40.73,19.59C40.75,19.59,40.76,19.59,40.78,19.59C42.75,21.45,43.9,24.17,43.83,27.22Z" fill="currentColor" opacity="0.5"/><path d="M34.38,41.75L34.38,41.75C34.67,41.83,34.94,41.91,35.19,42.01C35.73,42.22,36.22,42.48,36.66,42.82C37.34,43.35,37.79,44.02,38.09,44.8C37.09,44.36,33.72,43.48,22.99,43.48C12.32,43.48,8.92,44.37,7.91,44.8C8.2,44.03,8.65,43.37,9.33,42.84C9.86,42.44,10.46,42.14,11.11,41.92C11.26,41.87,11.41,41.82,11.57,41.78C12.8,41.44,14.14,41.34,15.35,41.34L30.69,41.34C31.92,41.34,33.22,41.43,34.38,41.75Z" fill="currentColor"/><path d="M3.68,32.28C2.7,30.78,2.17,29.02,2.17,27.22C2.12,24.51,3.14,21.88,5,19.92C5.92,19,7.02,18.28,8.22,17.79C9.43,17.31,10.72,17.06,12.02,17.08L12.6,17.08C5.1,18.32,1.45,25.43,3.68,32.28Z" fill="currentColor"/><path d="M12.6,17.08C12.61,17.08,12.62,17.08,12.63,17.08L12.63,17.08Z" fill="currentColor"/><path d="M24.92,6.7L21.15,6.7L21.15,10.39L17.48,10.39L17.48,14.14L16.65,14.98L16.56,14.98L16.56,9.48L20.23,9.48L20.23,5.78L25.76,5.78L25.76,5.87Z" fill="currentColor"/><path d="M24.93,10.39L25.76,9.48L29.44,9.48L29.44,10.39Z" fill="currentColor"/><path d="M18.16,66.37L18,66.17L10.89,58.11L10.76,57.99C10.53,57.75,10.28,57.62,9.97,57.62C9.64,57.62,9.4,57.74,9.13,57.99L1.98,66.18L1.98,66.18C1.49,66.74,1.48,67.07,1.51,67.17C1.53,67.23,1.67,67.43,2.3,67.43L17.59,67.43C18.27,67.43,18.42,67.22,18.44,67.16C18.48,67.07,18.48,66.81,18.16,66.37Z" fill="currentColor" stroke="currentColor" stroke-width="1"/><path d="M10,62.88L10,77.88C10,81.75,13.13,84.88,17,84.88L29,84.88" fill="none" stroke="currentColor" stroke-width="6"/><path d="M73.84,66.37L74,66.17L81.11,58.11L81.24,57.99C81.47,57.75,81.72,57.62,82.03,57.62C82.36,57.62,82.6,57.74,82.87,57.99L90.02,66.18L90.02,66.18C90.51,66.74,90.52,67.07,90.49,67.17C90.47,67.23,90.33,67.43,89.7,67.43L74.42,67.43C73.73,67.43,73.58,67.22,73.56,67.16C73.52,67.07,73.52,66.81,73.84,66.37Z" fill="currentColor" stroke="currentColor" stroke-width="1"/><path d="M82,62.88L82,77.88C82,81.75,78.87,84.88,75,84.88L63,84.88" fill="none" stroke="currentColor" stroke-width="6"/><path d="M69.36,55.57C69.36,60.67,66.13,70.09,65.55,72.88C65.55,72.88,65.3,73.75,65.15,75.21C74.17,76.72,74.16,83.47,74.16,83.52L74.16,87.83L22.52,87.83L22.52,83.52C22.52,83.47,22.51,76.04,32.93,75.02L33.03,72.88C33.68,66.37,39.62,61.63,43.01,58.88C45.12,57.17,47.28,55.23,48.05,52.53C48.88,49.61,46.99,46.98,46.31,46.16L44.55,48.19C42.78,50.05,39.62,53.29,36.06,53.31C31.44,53.33,31.33,56.56,29.16,58.66L29.18,58.67C28.68,59.15,23.04,57.76,21.07,56.09C19.59,54.84,19.41,52.5,20.79,50.79L26.17,43.23C28.57,39.74,28.68,37.87,30.06,34.35C30.45,33.36,30.9,31.99,32.65,30.54C34.4,29.09,35.53,27.96,36.22,26.28L36.89,23.05C37.12,22.07,37.99,21.18,38.83,21.18L44.77,27.1C56.37,27.88,69.36,36.33,69.36,55.57Z" fill="currentColor"/><path d="M69.36,55.57C69.36,59.25,67.68,65.17,66.52,69.24C66.08,70.81,65.71,72.1,65.55,72.88C65.54,72.91,65.32,73.81,65.17,75.21C65.17,75.21,55.65,74.7,53.47,74.9C54.34,71.7,56.08,68.94,57.9,66.05C60.86,61.34,64.04,56.3,64.04,48.49C64.04,31.8,48.83,27.84,45.25,27.14C56.73,28.12,69.36,36.6,69.36,55.57Z" fill="currentColor"/><path d="M37.32,53.16C36.91,53.25,36.49,53.3,36.06,53.3C31.44,53.32,31.33,56.55,29.16,58.65C29.04,58.76,28.64,58.77,28.09,58.7C28.54,57.93,29.82,56.53,30.78,53.64C32.34,48.95,33.4,51.15,37.32,53.16Z" fill="currentColor"/><path d="M37.32,53.16C37.32,53.16,37.33,53.16,37.33,53.16L37.33,53.17C37.33,53.16,37.32,53.16,37.32,53.16Z" fill="currentColor"/><path d="M50.12,44.14C50.14,45.42,49.33,49.01,48.1,52.23C48.73,49.43,46.97,46.95,46.31,46.16L46.16,46.33C46.18,46.24,46.2,46.19,46.2,46.18C46.2,46.18,48.27,42.94,49.1,41.34C49.93,39.74,50.1,42.74,50.12,44.14Z" fill="currentColor"/><path d="M44.5,27.01C44.56,27.01,44.61,27,44.67,27L44.7,27.04C44.57,27.02,44.5,27.01,44.5,27.01Z" fill="currentColor"/><path d="M72.81,79.57C71.14,78.96,65.64,77.72,48.52,77.72C28.99,77.72,24.58,79.33,23.73,79.78C25.18,77.45,28.36,74.91,35.38,74.91L61.3,74.91C68.12,74.91,71.3,77.3,72.81,79.57Z" fill="currentColor"/><path d="M37.39,29.48C30.3,33.89,31.59,39.29,29.53,42.03C28.52,43.39,21.33,52.26,19.94,53.97C19.76,52.91,19.98,51.74,20.78,50.77L20.78,50.78L26.16,43.22C28.56,39.73,28.67,37.86,30.05,34.33C30.43,33.34,30.88,31.98,32.64,30.53C34.39,29.08,35.52,27.94,36.21,26.27L36.88,23.03C37.06,22.3,37.58,21.62,38.18,21.32C38.32,21.29,38.44,21.26,38.58,21.26C38.58,21.26,41.08,27.19,37.39,29.48Z" fill="currentColor"/></svg>