<svg xmlns="http://www.w3.org/2000/svg" viewBox="0 0 90 90"><path d="M37.71,17.03L37.71,17.03L45.77,10.31L45.9,10.19C46.14,9.97,46.26,9.74,46.26,9.47C46.26,9.18,46.15,8.96,45.9,8.71L37.71,1.96L37.71,1.96C37.16,1.49,36.82,1.48,36.7,1.51C36.64,1.53,36.45,1.65,36.45,2.23L36.45,16.66C36.45,17.29,36.65,17.42,36.71,17.44C36.83,17.48,37.16,17.47,37.71,17.03Z" fill="currentColor" stroke="currentColor" stroke-width="1"/><path d="M58.29,74.97L58.29,74.97L50.23,81.69L50.1,81.81C49.86,82.03,49.74,82.26,49.74,82.53C49.74,82.82,49.85,83.04,50.1,83.29L58.29,90.04L58.29,90.04C58.84,90.51,59.18,90.52,59.3,90.49C59.36,90.47,59.55,90.35,59.55,89.77L59.55,75.34C59.55,74.71,59.35,74.58,59.29,74.56C59.17,74.52,58.84,74.53,58.29,74.97Z" fill="currentColor" stroke="currentColor" stroke-width="1"/><path d="M59,82L74,82C77.87,82,81,78.87,81,75L81,59" fill="none" stroke="currentColor" stroke-width="6"/><path d="M74.49,1.75L75.81,10.04L78.45,10.04L80.79,2.71C81.87,2.83,82.71,3.01,84.15,3.38C85.29,3.68,86.5,4.04,87.34,4.46L86.49,13.1C86.25,15.86,84.87,17.61,81.57,18.87L84.63,44.03C84.64,44.03,84.65,44.04,84.66,44.04C91.81,45.12,91.33,48.96,91.33,53.29L91.33,54.67L48.67,54.67L48.67,53.29C48.67,48.96,48.19,45.06,55.34,44.04L58.33,18.87C54.55,17.43,53.59,15.68,53.35,13.1L52.63,4.34C54.79,3.5,57.25,2.71,59.05,2.71L61.4,10.04L64.1,10.04L65.36,1.75C66.86,1.51,68.42,1.33,69.92,1.33C71.42,1.33,72.98,1.51,74.49,1.75Z" fill="currentColor"/><path d="M84.63,44.08L84.63,44.09L84.63,44.09C83.19,43.91,81.75,43.79,80.31,43.73C80.01,42.34,79.74,40.98,79.47,39.66C76.95,27.21,75.14,18.29,60.86,18.51C65.84,17.49,73.23,17.37,77.43,17.97C82.3,16.96,83.79,8.8,84.64,3.51C85.61,3.77,86.58,4.09,87.3,4.44C87.31,4.45,87.33,4.45,87.34,4.46L86.5,13.1C86.49,13.11,86.49,13.12,86.49,13.13C86.25,15.87,84.86,17.61,81.57,18.87Z" fill="currentColor"/><path d="M84.65,44.04C88.92,44.7,90.48,46.26,91.02,48.36C88.68,46.8,84.59,46.38,69.99,46.38C55.45,46.38,51.13,46.74,48.97,48.3C49.51,46.26,51.13,44.7,55.33,44.04C57.38,43.74,63.69,43.68,69.99,43.68C78.04,43.68,81.53,43.56,84.65,44.04Z" fill="currentColor"/><path d="M55.17,17.1C53.94,16.01,53.5,14.73,53.35,13.11C53.35,13.11,53.35,13.11,53.35,13.1L52.63,4.34C54.05,3.78,55.6,3.26,57,2.96C54.64,4.52,54.08,11.77,55.17,17.1Z" fill="currentColor"/><path d="M64.1,10.04L65.36,1.75C66.86,1.51,68.42,1.33,69.92,1.33C66.08,2.65,64.4,9.02,64.1,10.04Z" fill="currentColor"/><path d="M83.65,3.25C81.16,5.1,79.08,8.84,78.45,10.04L80.79,2.71C80.8,2.72,80.82,2.72,80.83,2.72C81.76,2.82,82.52,2.97,83.65,3.25Z" fill="currentColor"/><path d="M13.25,63.05C16.09,63.03,18.62,60.44,20.04,58.95L21.45,57.33C21.99,57.99,23.51,60.09,22.84,62.43C22.22,64.58,20.5,66.14,18.81,67.5C16.09,69.7,11.34,73.5,10.83,78.71L10.64,82.4L36.42,82.4C36.42,80.17,36.84,78.71,36.84,78.71C37.3,76.47,39.89,68.94,39.89,64.85C39.89,49.47,29.5,42.71,20.21,42.08L15.47,37.34C14.79,37.34,14.1,38.05,13.91,38.84L13.37,41.43C12.83,42.77,11.92,43.67,10.52,44.83C9.12,45.99,8.76,47.09,8.45,47.88C7.34,50.7,7.25,52.19,5.33,54.99L1.03,61.03C-0.07,62.4,0.07,64.27,1.26,65.27C2.83,66.61,7.35,67.72,7.74,67.33L7.73,67.33C9.47,65.65,9.55,63.07,13.25,63.05Z" fill="currentColor"/><path d="M12.71,80.33C2.37,80.33,2.41,87.22,2.41,87.22L2.41,90.67L43.73,90.67L43.73,87.22C43.73,87.22,43.77,80.33,33.43,80.33Z" fill="currentColor"/><path d="M20,42.01C20.05,42,20.09,42,20.14,42L20.16,42.03C20.06,42.01,20,42.01,20,42.01Z" fill="currentColor"/><path d="M36.84,78.71C36.97,78.08,37.26,77.05,37.62,75.79C38.54,72.54,39.89,67.8,39.89,64.85C39.89,49.68,29.79,42.9,20.6,42.11C23.47,42.67,35.63,45.84,35.63,59.19C35.63,65.44,33.09,69.47,30.72,73.24C29.26,75.55,27.87,77.76,27.17,80.32C28.92,80.16,36.53,80.57,36.53,80.57C36.66,79.43,36.84,78.71,36.84,78.71Z" fill="currentColor"/><path d="M14.26,62.93L14.27,62.93L14.27,62.93Z" fill="currentColor"/><path d="M12.53,61.93C10.74,60.82,10,60.36,9.02,63.31C8.42,65.12,7.67,66.2,7.2,66.87C7.06,67.07,6.95,67.22,6.87,67.36C7.31,67.41,7.63,67.41,7.73,67.32C8.25,66.82,8.62,66.24,8.98,65.67C9.84,64.33,10.65,63.05,13.25,63.04C13.59,63.04,13.93,63,14.26,62.93C13.59,62.58,13.02,62.23,12.53,61.93Z" fill="currentColor"/><path d="M23.68,53.47C23.01,54.75,21.36,57.35,21.36,57.35C21.36,57.35,21.35,57.39,21.33,57.46L21.45,57.33C21.97,57.96,23.38,59.94,22.88,62.18C23.86,59.61,24.51,56.74,24.5,55.71C24.48,54.59,24.35,52.19,23.68,53.47Z" fill="currentColor"/><path d="M1.03,61.02L1.02,61.01C0.39,61.79,0.21,62.73,0.35,63.58C1.47,62.21,7.21,55.11,8.03,54.03C8.55,53.32,8.81,52.4,9.09,51.36C9.7,49.15,10.46,46.38,14.31,43.99C17.27,42.15,15.27,37.41,15.27,37.41C15.18,37.41,15.1,37.42,15.01,37.44C14.99,37.44,14.97,37.45,14.95,37.45C14.47,37.69,14.05,38.24,13.91,38.83L13.37,41.41C12.82,42.75,11.91,43.66,10.51,44.82C9.19,45.91,8.79,46.95,8.49,47.73C8.47,47.78,8.46,47.82,8.44,47.87C8.12,48.69,7.88,49.4,7.66,50.07C7.13,51.67,6.69,53,5.33,54.97Z" fill="currentColor"/><path d="M3.39,84.22C4.07,83.87,7.59,82.57,23.21,82.57C36.91,82.57,41.31,83.57,42.65,84.05C41.44,82.24,38.89,80.33,33.44,80.33L12.71,80.33C7.09,80.33,4.55,82.36,3.39,84.22Z" fill="currentColor"/><path d="M38,9.5C38,11.16,36.66,12.5,35,12.5L18,12.5C15.79,12.5,14,14.29,14,16.5L14,39.41C11.84,40.42,9.84,41.74,8,43.37L8,16.5C8,10.98,12.48,6.5,18,6.5L35,6.5C36.66,6.5,38,7.84,38,9.5Z" fill="currentColor"/></svg>