<svg xmlns="http://www.w3.org/2000/svg" viewBox="0 0 90 90"><path d="M54.09,61.65C52.38,58.34,50.74,54.74,49.76,51.01C48.66,47.57,47.53,39.75,47.53,39.75L41.69,39.71C42.29,45.04,43.33,51.01,45.56,56.67L53.17,72.39L53.18,72.39C53.71,73.38,54,74.34,54.19,75.31C54.36,75.96,54.47,76.64,54.47,77.36C54.47,82.13,50.52,86,45.68,86C40.84,86,36.89,82.13,36.89,77.36C36.89,75.14,37.81,72.11,37.81,72.11C37.81,72.11,24.71,60.7,24.71,43.77C24.71,32.17,30.41,23.55,32.75,20.76L59.19,20.76C61.56,23.62,67.18,32.19,67.18,43.72C67.18,55.25,61.6,63.47,57.72,68.18L57.73,68.18Z" fill="currentColor"/><path d="M61.24,63.26C72.2,32.67,43.03,20.82,43.03,20.82L44.69,20.76L59.2,20.76C61.57,23.62,67.19,32.19,67.19,43.72L67.19,43.71C67.19,51.66,64.3,58.36,61.24,63.26Z" fill="currentColor" opacity="0.5"/><path d="M45.69,86C40.83,86,36.9,82.13,36.9,77.36C36.9,76.91,36.94,76.42,37,75.94C37.08,75.48,37.1,75,37.23,74.56C38.07,80.6,42.83,85,46.23,85.95L46.24,85.95C46.05,85.96,45.88,86,45.69,86Z" fill="currentColor"/><path d="M45.56,56.67L53.17,72.39L53.18,72.39C53.71,73.38,54,74.34,54.19,75.31C54.36,75.96,54.47,76.64,54.47,77.36C54.47,79.99,53.24,82.32,51.36,83.9C56.52,73.54,33.82,56.16,41.69,39.71C42.29,45.04,43.33,51.01,45.56,56.67Z" fill="currentColor" opacity="0.5"/><path d="M24.71,43.77C24.71,39.97,25.35,36.54,26.25,33.48C26.23,43.26,28.36,57.52,39.53,71.5C39.53,71.5,38.78,71.76,37.81,72.11C37.81,72.11,24.71,60.7,24.71,43.77Z" fill="currentColor"/><path d="M30.95,21.1C15.98,21.1,16.04,11.03,16.04,11.03L16.04,6L75.86,6L75.86,11.03C75.86,11.03,75.93,21.1,60.95,21.1L60.96,21.1Z" fill="currentColor"/><path d="M30.95,21.1L60.96,21.1C68.85,21.1,72.54,18.31,74.29,15.66C72.36,16.37,65.99,17.82,46.16,17.82C23.55,17.82,18.44,15.93,17.46,15.41L17.46,15.42C19.14,18.13,22.82,21.1,30.95,21.1Z" fill="currentColor"/><path d="M1.19,51.48L12.18,44.74L12.18,48.48L21.42,48.48L12.18,54.86L12.18,51.48Z" fill="currentColor"/><path d="M5.36,21.97L17.75,24.92L15.18,27.49L21.82,34.13L10.6,32.07L13.03,29.64Z" fill="currentColor"/><path d="M5.36,78.78L17.75,75.83L15.18,73.26L21.82,66.62L10.6,68.68L13.03,71.11Z" fill="currentColor"/><path d="M90.81,51.48L79.82,44.74L79.82,48.48L70.58,48.48L79.82,54.86L79.82,51.48Z" fill="currentColor"/><path d="M86.64,21.97L74.25,24.92L76.82,27.49L70.18,34.13L81.4,32.07L78.97,29.64Z" fill="currentColor"/><path d="M86.64,78.78L74.25,75.83L76.82,73.26L70.18,66.62L81.4,68.68L78.97,71.11Z" fill="currentColor"/></svg>