<svg xmlns="http://www.w3.org/2000/svg" viewBox="0 0 90 90"><path d="M74.74,6.13L75.84,13.03L78.04,13.03L79.99,6.93C80.89,7.03,81.59,7.18,82.79,7.48C83.75,7.73,84.75,8.03,85.45,8.38L84.75,15.59C84.55,17.89,83.39,19.34,80.64,20.39L83.19,41.36C83.2,41.36,83.21,41.36,83.22,41.37C89.17,42.27,88.77,45.47,88.77,49.07L88.77,50.22L53.23,50.22L53.23,49.07C53.23,45.47,52.83,42.22,58.78,41.37L61.28,20.39C58.13,19.19,57.33,17.74,57.12,15.59L56.53,8.28C58.33,7.58,60.38,6.93,61.88,6.93L63.83,13.03L66.08,13.03L67.13,6.13C68.38,5.93,69.68,5.78,70.94,5.78C72.19,5.78,73.49,5.93,74.74,6.13Z" fill="currentColor"/><path d="M83.19,41.4L83.19,41.4L83.19,41.4C81.99,41.25,80.79,41.15,79.59,41.1C79.34,39.95,79.11,38.82,78.89,37.72C76.79,27.34,75.28,19.91,63.38,20.09C67.53,19.24,73.69,19.14,77.19,19.64C81.25,18.8,82.49,12,83.2,7.59C84.01,7.81,84.82,8.07,85.42,8.37C85.43,8.37,85.44,8.38,85.45,8.38L84.75,15.59C84.75,15.59,84.74,15.6,84.74,15.61C84.54,17.9,83.39,19.34,80.64,20.39Z" fill="currentColor" opacity="0.5"/><path d="M83.21,41.37C86.76,41.92,88.07,43.22,88.52,44.97C86.56,43.67,83.16,43.32,70.99,43.32C58.88,43.32,55.27,43.62,53.47,44.92C53.92,43.22,55.27,41.92,58.78,41.37C60.48,41.12,65.74,41.06,70.99,41.06C77.7,41.06,80.61,40.97,83.21,41.37Z" fill="currentColor"/><path d="M58.64,18.92C57.62,18.01,57.25,16.94,57.13,15.6C57.13,15.59,57.13,15.59,57.13,15.58L56.52,8.28C57.71,7.82,59,7.38,60.17,7.14C58.2,8.43,57.73,14.48,58.64,18.92Z" fill="currentColor"/><path d="M82.37,7.37C80.3,8.92,78.57,12.03,78.04,13.03L79.99,6.93C80,6.93,80.01,6.93,80.02,6.93C80.8,7.02,81.43,7.15,82.37,7.37Z" fill="currentColor"/><path d="M66.08,13.03L67.13,6.13C68.38,5.93,69.69,5.78,70.94,5.78C67.73,6.88,66.33,12.18,66.08,13.03Z" fill="currentColor"/><path d="M39.59,36.57C37.94,38.08,36.52,39.83,35.38,41.75C38.99,42.72,39.59,45.16,39.59,48.56L39.59,50.22L8.41,50.22L8.41,48.56C8.41,45.26,8.91,42.76,12.66,41.75C11.51,39.82,10.07,38.08,8.41,36.57C5.83,34.04,3.17,31.38,3.17,27.22C3.07,21.73,7.44,16.99,13.02,17.08C15.54,16.99,18.05,17.61,20.24,18.88L21.13,14.98L17.56,14.98L17.56,9.48L21.23,9.48L21.23,5.78L26.76,5.78L26.76,9.58L30.43,9.58L30.43,15.04L26.86,15.04L27.75,18.94C29.93,17.65,32.44,17.01,34.97,17.08C40.82,16.93,44.96,21.51,44.83,27.22C44.83,31.35,42.18,34.01,39.59,36.57Z" fill="currentColor"/><path d="M35.69,28.29C36.16,25.06,32.57,24.94,32.56,24.94C30.58,24.94,28.13,26.69,28.13,26.69L28.13,34.33C28.98,34.37,29.56,34.42,30.54,34.48C31.28,33.54,32.16,32.71,32.97,31.94C34.32,30.66,35.51,29.52,35.69,28.29Z" fill="currentColor"/><path d="M15.42,24.94C15.42,24.94,11.86,25.07,12.28,28.29C12.46,29.52,13.65,30.65,14.99,31.93C15.81,32.71,16.69,33.54,17.43,34.48C18.41,34.42,19.01,34.33,19.84,34.33L19.84,26.69C19.84,26.69,17.39,24.94,15.42,24.94Z" fill="currentColor"/><path d="M44.83,27.22C44.83,31.35,42.18,34.01,39.59,36.57C37.94,38.08,36.52,39.83,35.38,41.75C35.43,41.76,35.47,41.78,35.52,41.79C34.32,41.45,32.97,41.34,31.69,41.34L31.61,41.34L40.76,32.16C45.28,27.63,42.27,20.73,41.73,19.59C41.75,19.59,41.76,19.59,41.78,19.59C43.75,21.45,44.9,24.17,44.83,27.22Z" fill="currentColor" opacity="0.5"/><path d="M35.38,41.75L35.38,41.75C35.67,41.83,35.94,41.91,36.19,42.01C36.73,42.22,37.22,42.48,37.66,42.82C38.34,43.35,38.79,44.02,39.09,44.8C38.09,44.36,34.72,43.48,23.99,43.48C13.32,43.48,9.92,44.37,8.91,44.8C9.2,44.03,9.65,43.37,10.33,42.84C10.86,42.44,11.46,42.14,12.11,41.92C12.26,41.87,12.41,41.82,12.57,41.78C13.8,41.44,15.14,41.34,16.35,41.34L31.69,41.34C32.92,41.34,34.22,41.43,35.38,41.75Z" fill="currentColor"/><path d="M4.68,32.28C3.7,30.78,3.17,29.02,3.17,27.22C3.12,24.51,4.14,21.88,6,19.92C6.92,19,8.02,18.28,9.22,17.79C10.43,17.31,11.72,17.06,13.02,17.08L13.6,17.08C6.1,18.32,2.45,25.43,4.68,32.28Z" fill="currentColor"/><path d="M13.6,17.08C13.61,17.08,13.62,17.08,13.63,17.08L13.63,17.08Z" fill="currentColor"/><path d="M25.92,6.7L22.15,6.7L22.15,10.39L18.48,10.39L18.48,14.14L17.65,14.98L17.56,14.98L17.56,9.48L21.23,9.48L21.23,5.78L26.76,5.78L26.76,5.87Z" fill="currentColor"/><path d="M25.93,10.39L26.76,9.48L30.44,9.48L30.44,10.39Z" fill="currentColor"/><path d="M18.16,66.37L18,66.17L10.89,58.11L10.76,57.99C10.53,57.75,10.28,57.62,9.97,57.62C9.64,57.62,9.4,57.74,9.13,57.99L1.98,66.18L1.98,66.18C1.49,66.74,1.48,67.07,1.51,67.17C1.53,67.23,1.67,67.43,2.3,67.43L17.59,67.43C18.27,67.43,18.42,67.22,18.44,67.16C18.48,67.07,18.48,66.81,18.16,66.37Z" fill="currentColor" stroke="currentColor" stroke-width="1"/><path d="M10,62.88L10,77.88C10,81.75,13.13,84.88,17,84.88L29,84.88" fill="none" stroke="currentColor" stroke-width="6"/><path d="M73.84,66.37L74,66.17L81.11,58.11L81.24,57.99C81.47,57.75,81.72,57.62,82.03,57.62C82.36,57.62,82.6,57.74,82.87,57.99L90.02,66.18L90.02,66.18C90.51,66.74,90.52,67.07,90.49,67.17C90.47,67.23,90.33,67.43,89.7,67.43L74.42,67.43C73.73,67.43,73.58,67.22,73.56,67.16C73.52,67.07,73.52,66.81,73.84,66.37Z" fill="currentColor" stroke="currentColor" stroke-width="1"/><path d="M82,62.88L82,77.88C82,81.75,78.87,84.88,75,84.88L63,84.88" fill="none" stroke="currentColor" stroke-width="6"/><path d="M69.36,55.57C69.36,60.67,66.13,70.09,65.55,72.88C65.55,72.88,65.3,73.75,65.15,75.21C74.17,76.72,74.16,83.47,74.16,83.52L74.16,87.83L22.52,87.83L22.52,83.52C22.52,83.47,22.51,76.04,32.93,75.02L33.03,72.88C33.68,66.37,39.62,61.63,43.01,58.88C45.12,57.17,47.28,55.23,48.05,52.53C48.88,49.61,46.99,46.98,46.31,46.16L44.55,48.19C42.78,50.05,39.62,53.29,36.06,53.31C31.44,53.33,31.33,56.56,29.16,58.66L29.18,58.67C28.68,59.15,23.04,57.76,21.07,56.09C19.59,54.84,19.41,52.5,20.79,50.79L26.17,43.23C28.57,39.74,28.68,37.87,30.06,34.35C30.45,33.36,30.9,31.99,32.65,30.54C34.4,29.09,35.53,27.96,36.22,26.28L36.89,23.05C37.12,22.07,37.99,21.18,38.83,21.18L44.77,27.1C56.37,27.88,69.36,36.33,69.36,55.57Z" fill="currentColor"/><path d="M69.36,55.57C69.36,59.25,67.68,65.17,66.52,69.24C66.08,70.81,65.71,72.1,65.55,72.88C65.54,72.91,65.32,73.81,65.17,75.21C65.17,75.21,55.65,74.7,53.47,74.9C54.34,71.7,56.08,68.94,57.9,66.05C60.86,61.34,64.04,56.3,64.04,48.49C64.04,31.8,48.83,27.84,45.25,27.14C56.73,28.12,69.36,36.6,69.36,55.57Z" fill="currentColor"/><path d="M37.32,53.16C36.91,53.25,36.49,53.3,36.06,53.3C31.44,53.32,31.33,56.55,29.16,58.65C29.04,58.76,28.64,58.77,28.09,58.7C28.54,57.93,29.82,56.53,30.78,53.64C32.34,48.95,33.4,51.15,37.32,53.16Z" fill="currentColor"/><path d="M37.32,53.16C37.32,53.16,37.33,53.16,37.33,53.16L37.33,53.17C37.33,53.16,37.32,53.16,37.32,53.16Z" fill="currentColor"/><path d="M50.12,44.14C50.14,45.42,49.33,49.01,48.1,52.23C48.73,49.43,46.97,46.95,46.31,46.16L46.16,46.33C46.18,46.24,46.2,46.19,46.2,46.18C46.2,46.18,48.27,42.94,49.1,41.34C49.93,39.74,50.1,42.74,50.12,44.14Z" fill="currentColor"/><path d="M44.5,27.01C44.56,27.01,44.61,27,44.67,27L44.7,27.04C44.57,27.02,44.5,27.01,44.5,27.01Z" fill="currentColor"/><path d="M72.81,79.57C71.14,78.96,65.64,77.72,48.52,77.72C28.99,77.72,24.58,79.33,23.73,79.78C25.18,77.45,28.36,74.91,35.38,74.91L61.3,74.91C68.12,74.91,71.3,77.3,72.81,79.57Z" fill="currentColor"/><path d="M37.39,29.48C30.3,33.89,31.59,39.29,29.53,42.03C28.52,43.39,21.33,52.26,19.94,53.97C19.76,52.91,19.98,51.74,20.78,50.77L20.78,50.78L26.16,43.22C28.56,39.73,28.67,37.86,30.05,34.33C30.43,33.34,30.88,31.98,32.64,30.53C34.39,29.08,35.52,27.94,36.21,26.27L36.88,23.03C37.06,22.3,37.58,21.62,38.18,21.32C38.32,21.29,38.44,21.26,38.58,21.26C38.58,21.26,41.08,27.19,37.39,29.48Z" fill="currentColor"/></svg>