<svg xmlns="http://www.w3.org/2000/svg" viewBox="0 0 90 90" fill="currentColor"><path d="M36.03,78.96C36.03,76.9,35.54,74.97,34.72,73.22L52.8,78.49L65.13,85.61L34.22,85.61C35.34,83.63,36.03,81.38,36.03,78.96ZM72.59,82.45C71.56,83.04,70.29,83.04,69.26,82.45L55.21,74.33C54.18,73.74,53.55,72.64,53.55,71.45L53.55,55.22C53.55,54.03,54.18,52.93,55.21,52.34L58.38,50.51C58.09,51.58,57.89,52.69,57.89,53.85C57.89,56.98,59.05,59.82,60.89,62.07L60.89,67.21C60.89,68.4,61.52,69.5,62.55,70.09L69.26,73.96C70.29,74.55,71.56,74.55,72.59,73.96L79.3,70.09C80.33,69.5,80.96,68.4,80.96,67.21L80.96,62.08C82.81,59.83,83.96,56.99,83.96,53.86C83.96,52.7,83.76,51.59,83.47,50.52L86.63,52.35C87.66,52.94,88.29,54.04,88.29,55.23L88.29,71.46C88.29,72.65,87.66,73.75,86.63,74.34L86.65,74.33ZM55.17,69.1C55.17,70.29,55.8,71.39,56.83,71.98L70.88,80.1C71.91,80.69,73.18,80.69,74.21,80.1L88.18,72.04C88.02,73.02,87.53,73.92,86.65,74.42L72.59,82.54C71.56,83.13,70.29,83.13,69.26,82.54L55.21,74.42C54.18,73.83,53.55,72.73,53.55,71.54L53.55,55.31C53.55,54.12,54.18,53.02,55.21,52.43L55.3,52.38C55.27,52.55,55.17,52.7,55.17,52.88L55.17,52.87ZM30.9,26.19C30.9,30.88,27.1,34.68,22.41,34.68C17.72,34.68,13.92,30.88,13.92,26.19C13.92,21.5,17.72,17.7,22.41,17.7C27.1,17.7,30.9,21.5,30.9,26.19ZM25.31,26.19C25.31,27.79,24.01,29.09,22.41,29.09C20.81,29.09,19.51,27.79,19.51,26.19C19.51,24.59,20.81,23.29,22.41,23.29C24.01,23.29,25.31,24.59,25.31,26.19ZM30.9,78.96C30.9,83.65,27.1,87.45,22.41,87.45C17.72,87.45,13.92,83.65,13.92,78.96C13.92,74.27,17.72,70.47,22.41,70.47C27.1,70.47,30.9,74.27,30.9,78.96ZM29.5,80.37C29.5,75.68,25.7,71.88,21.01,71.88C19.02,71.88,17.22,72.59,15.77,73.73C17.33,71.76,19.71,70.48,22.41,70.48C27.1,70.48,30.9,74.28,30.9,78.97C30.9,81.67,29.61,84.06,27.64,85.61L27.65,85.61C28.79,84.16,29.5,82.36,29.5,80.37ZM29.5,27.6C29.5,22.91,25.7,19.11,21.01,19.11C19.02,19.11,17.22,19.82,15.77,20.96C17.33,18.99,19.71,17.71,22.41,17.71C27.1,17.71,30.9,21.51,30.9,26.2C30.9,28.9,29.61,31.29,27.64,32.84L27.65,32.84C28.79,31.39,29.5,29.59,29.5,27.6ZM25.31,78.96C25.31,80.56,24.01,81.86,22.41,81.86C20.81,81.86,19.51,80.56,19.51,78.96C19.51,77.36,20.81,76.06,22.41,76.06C24.01,76.06,25.31,77.36,25.31,78.96ZM79.52,22.66L62.35,22.66L67.37,45.33L74.5,45.33ZM79.52,22.66L65.81,38.27L67.37,45.33L74.5,45.33ZM57.77,27.33L57.77,19.25L84.1,19.25L84.1,27.33ZM78.58,54.35C78.58,58.57,75.16,61.99,70.94,61.99C66.72,61.99,63.3,58.57,63.3,54.35C63.3,50.13,66.72,46.71,70.94,46.71C75.16,46.71,78.58,50.13,78.58,54.35ZM76.63,55.64C76.63,59.15,73.79,61.99,70.28,61.99C66.77,61.99,63.93,59.15,63.93,55.64C63.93,52.13,66.77,49.29,70.28,49.29C73.79,49.29,76.63,52.13,76.63,55.64ZM59.37,45.81L59.37,39.96L82.5,39.96L82.5,45.81ZM29.36,37.84L29.36,67.32C27.32,66.1,24.96,65.35,22.41,65.35C20.1,65.35,17.96,65.98,16.05,67L16.05,38.16C17.96,39.18,20.1,39.81,22.41,39.81C24.96,39.81,27.32,39.06,29.36,37.84ZM16.05,66.99L16.05,64.49C18.48,62.21,21.73,60.79,25.32,60.79C26.74,60.79,28.08,61.07,29.37,61.47L29.37,67.3C27.33,66.08,24.97,65.33,22.42,65.33L22.41,65.34C20.1,65.34,17.96,65.97,16.05,66.99ZM34.26,19.61C31.93,15.44,27.52,12.57,22.41,12.57C17.3,12.57,12.89,15.43,10.57,19.61L1,4.55L91,4.55L91,8.58L41.27,8.58L41.27,8.57ZM36.39,16.26L34.26,19.61C31.93,15.44,27.52,12.57,22.41,12.57C17.94,12.57,14.1,14.83,11.63,18.17C13.49,12.86,18.5,9.04,24.43,9.04L24.44,9.04C29.63,9.04,34.09,11.99,36.39,16.26Z"/></svg>