<svg xmlns="http://www.w3.org/2000/svg" viewBox="0 0 90 90"><path d="M88,46C88,69.2,69.2,88,46,88C22.8,88,4,69.2,4,46C4,22.8,22.8,4,46,4C69.2,4,88,22.8,88,46Z" fill="currentColor"/><path d="M88,49C88,72.2,69.2,91,46,91C22.8,91,4,72.2,4,49C4,25.8,22.8,7,46,7C69.2,7,88,25.8,88,49Z" fill="currentColor"/><path d="M46,7C69.2,7,88,25.8,88,49C88,55.31,86.61,61.29,84.12,66.65C75.44,39.99,53.84,19.23,26.63,11.72C32.43,8.71,39.02,7,46,7Z" fill="currentColor" opacity="0.2"/><path d="M4.79,57.13C8.42,75.66,24.24,89.82,43.55,90.93C25.36,87.21,10.79,74.2,4.79,57.13Z" fill="currentColor"/><path d="M87.99,49.87C88,49.58,88,49.29,88,49C88,25.8,69.2,7,46,7C68.24,9.74,85.8,27.57,87.99,49.87Z" fill="currentColor"/><path d="M24.07,26.98C22.81,26.98,21.71,27.99,21.71,29.25L21.71,50.59C21.71,51.86,22.81,52.95,24.07,52.95L29.64,52.95C30.9,52.95,31.92,51.86,31.92,50.59L31.92,29.25C31.92,27.99,30.9,26.98,29.64,26.98Z" fill="currentColor"/><path d="M47.77,26.05C45.24,26.39,43.47,26.98,41.03,27.57C39,27.99,36.98,28.33,34.87,28.41L34.87,51.44C39.93,53.37,46.42,57.84,49.29,66.62C50.13,68.98,49.63,74.54,53.51,73.45C59.5,71.93,58.06,64.76,57.13,62.15C56.29,59.7,54.52,55.31,56.29,54.13C57.47,53.46,65.06,54.13,65.99,54.05C68.6,53.8,69.62,52.53,69.95,49.92C70.12,47.72,69.11,46.63,69.11,46.04C69.11,45.36,70.21,44.1,70.21,42.16C70.21,40.22,68.6,38.7,68.35,37.77C68.1,36.84,68.86,35.5,68.27,33.64C67.59,31.87,66.5,31.78,65.9,30.44C65.74,30.01,65.65,29.51,65.57,29.09C64.98,26.64,63.29,25.8,60.84,25.37C58.57,25.04,57.64,25.29,55.36,25.29C52.58,25.29,50.56,25.63,47.77,26.05Z" fill="currentColor"/><path d="M24.07,29.6C22.81,29.6,21.71,30.61,21.71,31.88L21.71,53.22C21.71,54.48,22.81,55.58,24.07,55.58L29.64,55.58C30.9,55.58,31.92,54.48,31.92,53.22L31.92,31.88C31.92,30.61,30.9,29.6,29.64,29.6Z" fill="currentColor"/><path d="M47.77,28.67C45.24,29.01,43.47,29.6,41.03,30.19C39,30.61,36.98,30.95,34.87,31.04L34.87,54.06C39.93,56,46.42,60.47,49.29,69.24C50.13,71.6,49.63,77.17,53.51,76.07C59.5,74.55,58.06,67.39,57.13,64.77C56.29,62.33,54.52,57.94,56.29,56.76C57.47,56.08,65.06,56.76,65.99,56.67C68.6,56.42,69.62,55.16,69.95,52.54C70.12,50.35,69.11,49.25,69.11,48.66C69.11,47.99,70.21,46.72,70.21,44.78C70.21,42.84,68.6,41.33,68.35,40.4C68.1,39.47,68.86,38.12,68.27,36.27C67.59,34.49,66.5,34.41,65.9,33.06C65.74,32.64,65.65,32.13,65.57,31.71C64.98,29.27,63.29,28.42,60.84,28C58.57,27.66,57.64,27.92,55.36,27.92C52.58,27.92,50.56,28.25,47.77,28.67Z" fill="currentColor"/></svg>