<svg xmlns="http://www.w3.org/2000/svg" viewBox="0 0 90 90" fill="currentColor"><path d="M45.03,23.66C43.88,22.6,48.11,22.6,46.97,23.66L21.77,46.86C20.55,47.98,18.65,47.9,17.53,46.68L10.47,39.27C9.35,38.05,9.43,36.15,10.65,35.03L43.97,4.35C45.12,3.29,46.89,3.29,48.03,4.35L81.36,35.03C82.58,36.15,82.66,38.05,81.54,39.27L74.48,46.68C73.36,47.9,71.46,47.98,70.24,46.86L70.23,46.86ZM31.23,85.36L31.23,25.64L44.85,15.45L60.77,25.64L60.77,85.36ZM37.4,44.94C37.4,48.27,38.94,51.39,41.54,53.44L35.92,57.16L35.49,57.44L35.49,57.95C35.49,59.49,35.87,61.17,36.45,62.22L42.23,62.22C42,64.86,41.29,71.34,32.8,76.7C29,79.09,62.42,75.77,62.42,75.77C55.69,69.95,54.58,64.84,54.33,62.19L60.11,62.19C60.68,61.14,60.77,59.46,60.76,57.91L60.76,57.4L60.62,57.12L54.98,53.42C57.57,51.36,59.09,48.23,59.08,44.9C59.07,38.92,54.19,34.06,48.21,34.07L48.23,34.07C42.25,34.08,37.39,38.96,37.4,44.94ZM34.89,43.27C34.89,46.6,36.43,49.72,39.03,51.77L33.41,55.49L32.98,55.77L32.98,56.28C32.98,57.82,33.36,59.5,33.94,60.55L34.12,60.55L34.39,60.55L34.95,60.55L39.72,60.54C39.49,63.19,38.78,69.67,30.29,75.03C26.49,77.42,24.32,81.97,24.33,87.5L24.33,88.44L25.28,88.44L66.37,88.36L67.31,88.36L67.67,87.32C67.67,81.79,65.11,77.35,61.31,74.96C52.82,69.65,52.07,63.16,51.83,60.51L56.6,60.51L57.16,60.5L57.43,60.5L57.61,60.5C58.18,59.46,58.55,57.78,58.55,56.23L58.55,55.72L58.12,55.44L52.48,51.74C55.07,49.68,56.59,46.55,56.58,43.22C56.57,37.24,51.69,32.38,45.71,32.39L45.72,32.4C39.74,32.41,34.88,37.29,34.89,43.27ZM45.23,51.72L51.51,51.72C51.59,51.78,55.95,55.88,51.47,58.8L33.32,58.83L33.32,58.92C33.49,59.54,33.69,60.11,33.93,60.55L34.11,60.55L34.38,60.55L34.94,60.55L39.71,60.54C39.71,60.59,39.7,60.65,39.69,60.71L40.35,60.71C40.35,60.71,46.62,67.11,51.81,71.99C55.74,75.68,61.61,76.85,63.93,77.19C63.14,76.33,62.26,75.59,61.29,74.98C52.8,69.67,52.05,63.18,51.81,60.53L56.58,60.53L57.14,60.52L57.41,60.52L57.59,60.52C58.16,59.48,58.53,57.8,58.53,56.25L58.53,55.76L58.21,55.54L58.1,55.47L52.46,51.77C55.05,49.71,56.57,46.58,56.56,43.25C56.56,38.6,53.59,34.64,49.46,33.11C49.42,33.11,49.39,33.1,49.39,33.1C53.45,35.12,56.53,42.03,52.89,47.19L52.92,47.16C50.32,50.84,45.23,51.72,45.23,51.72ZM39.02,51.77L33.4,55.49L32.97,55.77L32.97,56.21L38.11,56.21C38.41,54.1,39.02,51.78,39.07,51.74L39.08,51.73ZM35.37,46.39C35.45,46.52,35.5,46.6,35.5,46.6C36.18,37.4,42.04,32.87,45.85,32.41C45.8,32.41,45.76,32.41,45.71,32.41C39.73,32.42,34.87,37.3,34.88,43.28L34.89,43.27C34.89,44.34,35.07,45.39,35.37,46.39ZM34.79,75.94C38.35,73.34,38.81,65.52,38.81,65.52C38.83,65.41,38.71,65.59,38.48,65.95C37.31,68.76,35,72.07,30.3,75.04C27.85,76.58,26.09,79.02,25.14,82.04C24.32,85.31,24.26,88.29,24.49,87.51L24.48,87.49C26.53,80.73,29.43,79.85,34.79,75.94Z"/></svg>