<svg xmlns="http://www.w3.org/2000/svg" viewBox="0 0 90 90" fill="currentColor"><path d="M90.34,70.57L90.34,70.59C90.73,70.19,90.98,69.77,90.98,69.18C90.98,68.63,90.74,68.17,90.34,67.81L80.08,59.26C78.61,58.07,77.48,58.46,77.48,60.2L77.48,66.06L71.28,66.06C68.87,66.06,66.85,64.35,64.68,61.66L62.76,59.1L60.32,62.47C59.64,63.36,58.9,65.59,58.95,65.65C59.25,66.02,59.56,66.4,59.85,66.75C60.17,67.14,60.47,67.5,60.71,67.8C62.79,70.41,66.91,73.02,71.28,73.02L77.48,73.02L77.48,78.21C77.48,79.86,78.61,80.25,80.08,79.03ZM90.34,32.1L90.34,32.11C90.73,31.75,90.98,31.29,90.98,30.74C90.98,30.15,90.74,29.73,90.34,29.33L80.08,20.87C78.61,19.64,77.48,20.04,77.48,21.69L77.48,26.88L71.28,26.88C67.9,26.88,64.42,28.58,62.66,30.85L56.86,38.1C56.86,38.1,60.28,38.53,64.09,40.07L65.69,37.97C67.79,35.47,69.38,33.85,71.43,33.85L77.48,33.85L77.48,39.71C77.48,41.45,78.61,41.84,80.08,40.65ZM55.41,41.02L55.39,41.01C55.98,40.43,62.75,42.1,65.11,44.1C66.89,45.6,67.11,48.41,65.45,50.46L59,59.53C56.96,62.49,56.3,64.48,55.5,66.89C55.17,67.89,54.82,68.95,54.33,70.19C54.3,70.27,54.27,70.35,54.24,70.43C53.78,71.59,53.18,73.13,51.22,74.76C49.12,76.5,47.76,77.86,46.94,79.87L46.13,83.75C45.85,84.93,44.81,86,43.8,86L36.68,78.89C22.75,77.95,7.17,67.81,7.17,44.73C7.17,40.31,9.19,33.2,10.57,28.33C11.11,26.44,11.55,24.88,11.74,23.95C11.74,23.95,12.04,22.91,12.23,21.16C1.35,19.34,1.41,11.18,1.41,11.18L1.41,6.01L63.38,6.01L63.38,11.18C63.38,11.18,63.44,20.16,50.89,21.38L50.76,23.95C50,31.67,43.02,37.33,38.92,40.65C38.88,40.69,38.83,40.72,38.79,40.76C36.26,42.8,33.67,45.14,32.74,48.37C31.74,51.88,34.01,55.03,34.83,56.02L36.94,53.58C39.07,51.35,42.86,47.46,47.13,47.44C51.02,47.42,52.24,45.51,53.53,43.5C54.07,42.64,54.63,41.77,55.41,41.02ZM37,79C36.93,79,36.86,79,36.8,79.01L36.75,78.96C36.91,78.99,37,79,37,79ZM11.74,23.95C11.55,24.89,11.11,26.44,10.57,28.33C9.19,33.2,7.17,40.31,7.17,44.73C7.17,67.49,22.32,77.67,36.1,78.85C31.8,78,13.55,73.25,13.55,53.23C13.55,43.85,17.36,37.8,20.92,32.15C23.1,28.68,25.19,25.37,26.24,21.53C23.62,21.77,12.2,21.16,12.2,21.16C12.02,22.86,11.74,23.95,11.74,23.95ZM45.61,47.62C46.62,48.13,47.47,48.66,48.2,49.12C50.89,50.79,51.99,51.47,53.47,47.04C54.37,44.33,55.49,42.72,56.2,41.7C56.4,41.41,56.57,41.17,56.69,40.97C56.03,40.89,55.55,40.9,55.41,41.03C54.63,41.78,54.07,42.65,53.53,43.51C52.24,45.52,51.02,47.43,47.13,47.45C46.61,47.45,46.11,47.51,45.61,47.62L45.6,47.61L45.6,47.62ZM31.48,61.8C32.48,59.88,34.96,55.99,34.96,55.99C34.96,55.99,34.98,55.92,35.01,55.82L34.83,56.02C34.04,55.07,31.93,52.1,32.68,48.74C31.21,52.6,30.23,56.9,30.25,58.44C30.28,60.12,30.48,63.72,31.48,61.8ZM65.46,50.48L65.47,50.49C66.42,49.32,66.69,47.92,66.47,46.64C64.8,48.7,56.18,59.34,54.96,60.97C54.17,62.02,53.79,63.41,53.36,64.97C52.45,68.29,51.31,72.43,45.53,76.03C41.1,78.78,44.1,85.9,44.1,85.9C44.23,85.9,44.35,85.88,44.48,85.85C44.51,85.84,44.55,85.84,44.58,85.83C45.3,85.47,45.93,84.65,46.14,83.77L46.95,79.89C47.77,77.88,49.13,76.52,51.23,74.78C53.22,73.14,53.81,71.59,54.26,70.42C54.29,70.35,54.31,70.28,54.34,70.21C54.83,68.97,55.18,67.91,55.51,66.91C56.31,64.5,56.97,62.51,59.01,59.55ZM61.92,15.68C60.9,16.21,55.61,18.15,32.18,18.15C11.63,18.15,5.03,16.66,3.03,15.93C4.84,18.65,8.66,21.52,16.84,21.52L47.94,21.52C56.37,21.52,60.18,18.47,61.92,15.68Z"/></svg>