<svg xmlns="http://www.w3.org/2000/svg" viewBox="0 0 90 90"><path d="M88,46C88,69.2,69.2,88,46,88C22.8,88,4,69.2,4,46C4,22.8,22.8,4,46,4C69.2,4,88,22.8,88,46Z" fill="currentColor"/><path d="M88,49C88,72.2,69.2,91,46,91C22.8,91,4,72.2,4,49C4,25.8,22.8,7,46,7C69.2,7,88,25.8,88,49Z" fill="currentColor"/><path d="M46,7C69.2,7,88,25.8,88,49C88,55.31,86.61,61.29,84.12,66.65C75.44,39.99,53.84,19.23,26.63,11.72C32.43,8.71,39.02,7,46,7Z" fill="currentColor" opacity="0.2"/><path d="M4.79,57.13C8.42,75.66,24.24,89.82,43.55,90.93C25.36,87.21,10.79,74.2,4.79,57.13Z" fill="currentColor"/><path d="M87.99,49.87C88,49.58,88,49.29,88,49C88,25.8,69.2,7,46,7C68.24,9.74,85.8,27.57,87.99,49.87Z" fill="currentColor"/><path d="M51.39,20.09C50.55,20.09,49.96,20.67,49.96,21.6L49.96,30.11C49.96,30.95,50.55,31.54,51.39,31.54L60.24,31.54C61.08,31.54,61.67,30.95,61.67,30.11L61.67,21.6C61.67,20.67,61.08,20.09,60.16,20.09Z" fill="currentColor"/><path d="M27.71,20.09C26.96,20.09,26.03,21.01,26.03,21.69L26.03,30.53C26.03,31.8,26.96,32.05,27.71,32.05L36.9,32.05C38.08,32.05,38.42,31.21,38.42,30.53L38.42,21.69C38.42,20.84,37.74,20.09,36.9,20.09Z" fill="currentColor"/><path d="M51.81,37.78C51.06,37.78,50.38,38.03,50.38,39.21L50.38,40.9C50.38,45.36,52.91,49.07,54.59,50.42L56.95,52.36C57.97,53.28,59.06,54.3,59.99,55.31C60.75,56.23,61.17,57.33,61.17,58.51C61.17,61.04,58.98,62.47,56.45,62.47C55.02,62.47,52.57,61.96,50.38,60.11C49.71,59.44,49.12,59.52,48.19,60.45L43.56,66.09C42.97,66.77,43.22,67.44,43.72,67.95C47.35,71.57,52.91,73.17,57.04,73.17C65.89,73.17,72.63,67.44,72.63,59.35C72.63,53.54,70.6,51.43,65.63,46.46L62.6,43.51C61.76,42.58,61.34,41.4,61.34,40.22L61.34,39.21C61.34,38.29,60.83,37.78,59.9,37.78Z" fill="currentColor"/><path d="M28.14,38.54C27.38,38.54,26.7,39.3,26.7,40.06L25.78,71.65C25.78,72.58,26.45,73.17,27.38,73.17L37.24,73.17C38.42,73.17,38.75,72.41,38.75,71.65L38.08,40.06C38.08,39.04,37.41,38.54,36.48,38.54Z" fill="currentColor"/><path d="M51.39,22.71C50.55,22.71,49.96,23.3,49.96,24.23L49.96,32.74C49.96,33.58,50.55,34.17,51.39,34.17L60.24,34.17C61.08,34.17,61.67,33.58,61.67,32.74L61.67,24.23C61.67,23.3,61.08,22.71,60.16,22.71Z" fill="currentColor"/><path d="M27.71,22.71C26.96,22.71,26.03,23.64,26.03,24.31L26.03,33.16C26.03,34.42,26.96,34.68,27.71,34.68L36.9,34.68C38.08,34.68,38.42,33.83,38.42,33.16L38.42,24.31C38.42,23.47,37.74,22.71,36.9,22.71Z" fill="currentColor"/><path d="M51.81,40.41C51.06,40.41,50.38,40.66,50.38,41.84L50.38,43.52C50.38,47.99,52.91,51.7,54.59,53.04L56.95,54.98C57.97,55.91,59.06,56.92,59.99,57.93C60.75,58.86,61.17,59.95,61.17,61.13C61.17,63.66,58.98,65.09,56.45,65.09C55.02,65.09,52.57,64.59,50.38,62.73C49.71,62.06,49.12,62.15,48.19,63.07L43.56,68.72C42.97,69.39,43.22,70.07,43.72,70.57C47.35,74.19,52.91,75.8,57.04,75.8C65.89,75.8,72.63,70.07,72.63,61.98C72.63,56.16,70.6,54.06,65.63,49.08L62.6,46.14C61.76,45.21,61.34,44.03,61.34,42.85L61.34,41.84C61.34,40.91,60.83,40.41,59.9,40.41Z" fill="currentColor"/><path d="M28.14,41.16C27.38,41.16,26.7,41.92,26.7,42.68L25.78,74.28C25.78,75.21,26.45,75.8,27.38,75.8L37.24,75.8C38.42,75.8,38.75,75.04,38.75,74.28L38.08,42.68C38.08,41.67,37.41,41.16,36.48,41.16Z" fill="currentColor"/></svg>