<svg xmlns="http://www.w3.org/2000/svg" viewBox="0 0 90 90" fill="currentColor"><path d="M80.08,12.98C78.61,11.76,77.48,12.15,77.48,13.8L77.48,18.99L71.28,18.99C66.91,18.99,62.79,21.6,60.71,24.21C60.26,24.77,59.6,25.56,58.95,26.36C58.9,26.42,59.64,28.65,60.32,29.54L62.76,32.91L64.68,30.35C66.85,27.66,68.87,25.95,71.28,25.95L77.48,25.95L77.48,31.81C77.48,33.55,78.61,33.94,80.08,32.75L90.34,24.2C90.74,23.84,90.98,23.38,90.98,22.83C90.98,22.24,90.73,21.82,90.34,21.42L90.34,21.44ZM80.08,51.36C78.61,50.17,77.48,50.56,77.48,52.3L77.48,58.16L71.43,58.16C69.38,58.16,67.79,56.54,65.69,54.04L64.09,51.94C60.28,53.48,56.86,53.91,56.86,53.91L62.66,61.16C64.42,63.43,67.9,65.13,71.28,65.13L77.48,65.13L77.48,70.32C77.48,71.97,78.61,72.37,80.08,71.14L90.34,62.68C90.74,62.28,90.98,61.86,90.98,61.27C90.98,60.72,90.73,60.26,90.34,59.9L90.34,59.91ZM46.74,44.57C42.47,44.55,38.68,40.66,36.55,38.43L34.44,35.99C33.62,36.98,31.35,40.13,32.35,43.64C32.66,44.72,33.14,45.68,33.76,46.6C34.89,48.26,36.5,49.72,38.4,51.25C42.47,54.55,49.6,60.25,50.37,68.06L50.65,73.32C50.65,73.32,11.98,77.22,11.98,73.88C11.98,70.54,11.35,68.06,11.35,68.06C10.66,64.71,6.78,53.41,6.78,47.28C6.78,24.2,22.36,14.06,36.29,13.12L43.41,6.01C44.42,6.01,45.46,7.08,45.74,8.26L46.55,12.14C47.37,14.15,48.73,15.51,50.83,17.25C52.93,18.99,53.47,20.63,53.94,21.82C55.6,26.05,55.73,28.29,58.61,32.48L65.06,41.55C66.72,43.6,66.5,46.41,64.72,47.91C62.36,49.91,55.59,51.58,55,51L55.02,50.99C52.41,48.47,52.28,44.6,46.74,44.57ZM47.55,70.49C63.06,70.49,62.99,80.83,62.99,80.83L62.99,86L1.02,86L1.02,80.83C1.02,80.83,0.95,70.49,16.46,70.49ZM58.63,32.46C55.75,28.27,55.62,26.03,53.96,21.8C53.5,20.61,52.96,18.97,50.85,17.23C48.75,15.49,47.39,14.13,46.57,12.12L45.76,8.24C45.55,7.36,44.92,6.54,44.2,6.18C44.04,6.15,43.89,6.11,43.72,6.11C43.72,6.11,40.72,13.23,45.15,15.98C53.66,21.27,52.11,27.75,54.58,31.04C55.8,32.67,64.42,43.31,66.09,45.37C66.31,44.09,66.04,42.69,65.09,41.52L65.08,41.53ZM46.74,44.56C52.28,44.59,52.41,48.46,55.02,50.98C55.16,51.11,55.64,51.12,56.3,51.04C55.76,50.12,54.23,48.44,53.08,44.97C51.2,39.33,49.93,41.98,45.21,44.4L45.21,44.39C45.71,44.5,46.22,44.56,46.74,44.56ZM29.86,33.57C29.84,35.11,30.82,39.41,32.29,43.27C31.54,39.91,33.65,36.94,34.44,35.99L34.62,36.19C34.59,36.09,34.57,36.02,34.57,36.02C34.57,36.02,32.09,32.13,31.09,30.21C30.09,28.29,29.89,31.89,29.86,33.57ZM47.56,70.49L16.46,70.49C8.28,70.49,4.46,73.36,2.65,76.08C4.65,75.35,11.25,73.86,31.8,73.86C55.23,73.86,60.52,75.8,61.54,76.33C59.8,73.54,55.99,70.49,47.56,70.49Z"/></svg>