<svg xmlns="http://www.w3.org/2000/svg" viewBox="0 0 90 90"><path d="M37.71,17.03L37.71,17.03L45.77,10.31L45.9,10.19C46.14,9.97,46.26,9.74,46.26,9.47C46.26,9.18,46.15,8.96,45.9,8.71L37.71,1.96L37.71,1.96C37.16,1.49,36.82,1.48,36.7,1.51C36.64,1.53,36.45,1.65,36.45,2.23L36.45,16.66C36.45,17.29,36.65,17.42,36.71,17.44C36.83,17.48,37.16,17.47,37.71,17.03Z" fill="currentColor" stroke="currentColor" stroke-width="1"/><path d="M58.29,74.97L58.29,74.97L50.23,81.69L50.1,81.81C49.86,82.03,49.74,82.26,49.74,82.53C49.74,82.82,49.85,83.04,50.1,83.29L58.29,90.04L58.29,90.04C58.84,90.51,59.18,90.52,59.3,90.49C59.36,90.47,59.55,90.35,59.55,89.77L59.55,75.34C59.55,74.71,59.35,74.58,59.29,74.56C59.17,74.52,58.84,74.53,58.29,74.97Z" fill="currentColor" stroke="currentColor" stroke-width="1"/><path d="M59,82L74,82C77.87,82,81,78.87,81,75L81,59" fill="none" stroke="currentColor" stroke-width="6"/><path d="M84.89,28.85C84.89,32.94,82.3,40.47,81.84,42.71C81.84,42.71,81.64,43.4,81.52,44.56C88.75,45.78,88.73,51.2,88.73,51.22L88.73,54.67L47.41,54.67L47.41,51.22C47.41,51.2,47.39,45.23,55.74,44.42L55.83,42.71C56.34,37.5,61.09,33.7,63.81,31.5C65.5,30.14,67.22,28.58,67.84,26.43C68.51,24.09,66.99,21.99,66.45,21.33L65.04,22.95C63.62,24.44,61.09,27.03,58.25,27.05C54.55,27.07,54.47,29.65,52.73,31.33L52.74,31.33C52.35,31.72,47.83,30.61,46.26,29.27C45.07,28.27,44.93,26.4,46.03,25.03L50.33,18.99C52.25,16.19,52.34,14.7,53.45,11.88C53.76,11.09,54.12,9.99,55.52,8.83C56.92,7.67,57.83,6.77,58.37,5.43L58.91,2.84C59.1,2.05,59.79,1.34,60.47,1.34L65.21,6.08C74.5,6.71,84.89,13.47,84.89,28.85Z" fill="currentColor"/><path d="M84.89,28.85C84.89,31.8,83.54,36.54,82.62,39.79C82.26,41.05,81.97,42.08,81.84,42.71C81.84,42.71,81.66,43.43,81.53,44.57C81.48,44.56,73.92,44.16,72.17,44.32C72.87,41.76,74.26,39.55,75.72,37.24C78.09,33.47,80.63,29.44,80.63,23.19C80.63,9.84,68.47,6.67,65.6,6.11C74.79,6.9,84.89,13.68,84.89,28.85Z" fill="currentColor"/><path d="M59.26,26.93C58.93,27,58.59,27.04,58.25,27.04C54.55,27.06,54.47,29.64,52.73,31.32C52.63,31.41,52.31,31.41,51.87,31.36C52.23,30.75,53.25,29.63,54.02,27.31C55.27,23.56,56.12,25.32,59.26,26.93Z" fill="currentColor"/><path d="M59.26,26.93C59.26,26.93,59.26,26.93,59.27,26.93L59.27,26.93C59.26,26.93,59.26,26.93,59.26,26.93Z" fill="currentColor"/><path d="M69.5,19.71C69.51,20.74,68.86,23.61,67.88,26.18C68.38,23.94,66.97,21.96,66.45,21.33L66.33,21.46C66.35,21.39,66.36,21.35,66.36,21.35C66.38,21.32,68.02,18.75,68.68,17.47C69.35,16.19,69.48,18.59,69.5,19.71Z" fill="currentColor"/><path d="M65,6.01C65.05,6,65.09,6,65.14,6L65.16,6.03C65.06,6.01,65,6.01,65,6.01Z" fill="currentColor"/><path d="M87.65,48.05C86.31,47.57,81.91,46.57,68.21,46.57C52.6,46.57,49.07,47.87,48.39,48.22C49.55,46.36,52.09,44.33,57.71,44.33L78.44,44.33C83.89,44.33,86.44,46.24,87.65,48.05Z" fill="currentColor"/><path d="M59.31,7.99C53.64,11.51,54.67,15.83,53.03,18.03C52.21,19.11,46.47,26.21,45.35,27.58C45.21,26.73,45.39,25.79,46.02,25.01L46.03,25.02L50.33,18.97C52.25,16.18,52.33,14.69,53.44,11.87C53.75,11.07,54.11,9.98,55.51,8.82C56.91,7.66,57.82,6.75,58.37,5.41L58.91,2.83C59.05,2.24,59.47,1.69,59.95,1.45C60.05,1.43,60.15,1.41,60.27,1.41C60.27,1.41,62.27,6.15,59.31,7.99Z" fill="currentColor"/><path d="M13.25,63.05C16.09,63.03,18.62,60.44,20.04,58.95L21.45,57.33C21.99,57.99,23.51,60.09,22.84,62.43C22.22,64.58,20.5,66.14,18.81,67.5C16.09,69.7,11.34,73.5,10.83,78.71L10.64,82.4L36.42,82.4C36.42,80.17,36.84,78.71,36.84,78.71C37.3,76.47,39.89,68.94,39.89,64.85C39.89,49.47,29.5,42.71,20.21,42.08L15.47,37.34C14.79,37.34,14.1,38.05,13.91,38.84L13.37,41.43C12.83,42.77,11.92,43.67,10.52,44.83C9.12,45.99,8.76,47.09,8.45,47.88C7.34,50.7,7.25,52.19,5.33,54.99L1.03,61.03C-0.07,62.4,0.07,64.27,1.26,65.27C2.83,66.61,7.35,67.72,7.74,67.33L7.73,67.33C9.47,65.65,9.55,63.07,13.25,63.05Z" fill="currentColor"/><path d="M12.71,80.33C2.37,80.33,2.41,87.22,2.41,87.22L2.41,90.67L43.73,90.67L43.73,87.22C43.73,87.22,43.77,80.33,33.43,80.33Z" fill="currentColor"/><path d="M20,42.01C20.05,42,20.09,42,20.14,42L20.16,42.03C20.06,42.01,20,42.01,20,42.01Z" fill="currentColor"/><path d="M36.84,78.71C36.97,78.08,37.26,77.05,37.62,75.79C38.54,72.54,39.89,67.8,39.89,64.85C39.89,49.68,29.79,42.9,20.6,42.11C23.47,42.67,35.63,45.84,35.63,59.19C35.63,65.44,33.09,69.47,30.72,73.24C29.26,75.55,27.87,77.76,27.17,80.32C28.92,80.16,36.53,80.57,36.53,80.57C36.66,79.43,36.84,78.71,36.84,78.71Z" fill="currentColor"/><path d="M14.26,62.93L14.27,62.93L14.27,62.93Z" fill="currentColor"/><path d="M12.53,61.93C10.74,60.82,10,60.36,9.02,63.31C8.42,65.12,7.67,66.2,7.2,66.87C7.06,67.07,6.95,67.22,6.87,67.36C7.31,67.41,7.63,67.41,7.73,67.32C8.25,66.82,8.62,66.24,8.98,65.67C9.84,64.33,10.65,63.05,13.25,63.04C13.59,63.04,13.93,63,14.26,62.93C13.59,62.58,13.02,62.23,12.53,61.93Z" fill="currentColor"/><path d="M23.68,53.47C23.01,54.75,21.36,57.35,21.36,57.35C21.36,57.35,21.35,57.39,21.33,57.46L21.45,57.33C21.97,57.96,23.38,59.94,22.88,62.18C23.86,59.61,24.51,56.74,24.5,55.71C24.48,54.59,24.35,52.19,23.68,53.47Z" fill="currentColor"/><path d="M1.03,61.02L1.02,61.01C0.39,61.79,0.21,62.73,0.35,63.58C1.47,62.21,7.21,55.11,8.03,54.03C8.55,53.32,8.81,52.4,9.09,51.36C9.7,49.15,10.46,46.38,14.31,43.99C17.27,42.15,15.27,37.41,15.27,37.41C15.18,37.41,15.1,37.42,15.01,37.44C14.99,37.44,14.97,37.45,14.95,37.45C14.47,37.69,14.05,38.24,13.91,38.83L13.37,41.41C12.82,42.75,11.91,43.66,10.51,44.82C9.19,45.91,8.79,46.95,8.49,47.73C8.47,47.78,8.46,47.82,8.44,47.87C8.12,48.69,7.88,49.4,7.66,50.07C7.13,51.67,6.69,53,5.33,54.97Z" fill="currentColor"/><path d="M3.39,84.22C4.07,83.87,7.59,82.57,23.21,82.57C36.91,82.57,41.31,83.57,42.65,84.05C41.44,82.24,38.89,80.33,33.44,80.33L12.71,80.33C7.09,80.33,4.55,82.36,3.39,84.22Z" fill="currentColor"/><path d="M38,9.5C38,11.16,36.66,12.5,35,12.5L18,12.5C15.79,12.5,14,14.29,14,16.5L14,39.41C11.84,40.42,9.84,41.74,8,43.37L8,16.5C8,10.98,12.48,6.5,18,6.5L35,6.5C36.66,6.5,38,7.84,38,9.5Z" fill="currentColor"/></svg>