<svg xmlns="http://www.w3.org/2000/svg" viewBox="0 0 90 90"><path d="M87,48C87,24.8,68.2,6,45,6C21.8,6,3,24.8,3,48C3,71.2,21.8,90,45,90C68.2,90,87,71.2,87,48Z" fill="currentColor"/><path d="M87,45C87,21.8,68.2,3,45,3C21.8,3,3,21.8,3,45C3,68.2,21.8,87,45,87C68.2,87,87,68.2,87,45Z" fill="currentColor"/><path d="M45,87C68.2,87,87,68.2,87,45C87,38.69,85.61,32.71,83.12,27.35C74.44,54.01,52.84,74.77,25.63,82.28C31.43,85.29,38.02,87,45,87Z" fill="currentColor" opacity="0.2"/><path d="M3.79,36.87C7.42,18.34,23.24,4.18,42.55,3.07C24.36,6.79,9.79,19.8,3.79,36.87Z" fill="currentColor"/><path d="M86.99,44.13C87,44.42,87,44.71,87,45C87,68.2,68.2,87,45,87C67.24,84.26,84.8,66.43,86.99,44.13Z" fill="currentColor"/><path d="M27.29,68.96L31.67,52.35L18.35,41.55C16.58,40.12,18.01,37.76,19.61,37.59L36.82,36.66L42.98,20.64C43.31,19.79,44.16,19.2,45.08,19.2C45.93,19.2,46.77,19.71,47.11,20.64L53.26,36.66L70.38,37.59C72.58,37.67,73.08,40.37,71.65,41.47L58.32,52.35L62.71,68.96C63.3,71.07,60.85,72.25,59.42,71.32L45,62.05L30.58,71.32C28.81,72.5,26.7,70.99,27.29,68.96Z" fill="currentColor"/><path d="M27.29,66.34L31.67,49.72L18.35,38.93C16.58,37.49,18.01,35.13,19.61,34.96L36.82,34.04L42.98,18.01C43.31,17.17,44.16,16.58,45.08,16.58C45.93,16.58,46.77,17.08,47.11,18.01L53.26,34.04L70.38,34.96C72.58,35.05,73.08,37.75,71.65,38.84L58.32,49.72L62.71,66.34C63.3,68.45,60.85,69.63,59.42,68.7L45,59.42L30.58,68.7C28.81,69.88,26.7,68.36,27.29,66.34Z" fill="currentColor"/></svg>