<svg xmlns="http://www.w3.org/2000/svg" viewBox="0 0 90 90"><path d="M58.65,68.94L54.19,31.24L54.69,31.05C58.97,29.46,61.14,26.85,61.71,22.57L62.78,9.47C62.78,9.47,56.66,6.99,53.47,6.99L53.04,6.99L49.51,17.99L45.45,17.99L43.49,5.57C43.49,5.57,39.3,4.99,36.57,4.99L36.55,4.99C33.81,4.99,29.63,5.57,29.63,5.57L27.67,17.99L23.61,17.99L20.08,6.99L19.65,6.99C16.46,6.99,10.34,9.47,10.34,9.47L11.41,22.55C11.99,26.83,14.15,29.46,18.43,31.04L18.93,31.23L14.47,68.93L14.16,68.95C7.22,68.95,5.05,78.11,5.07,84.99L68.07,84.99C68.09,78.1,66.07,69.04,59.13,69.04L59.11,69.05Z" fill="currentColor"/><path d="M14.45,68.94L14.14,68.96C10.41,68.96,8.07,71.62,6.69,75.13C12.19,73.36,19,73.14,19.45,73.12L23.81,73.12L24.91,68.61Z" fill="currentColor"/><path d="M10.33,9.48L11.4,22.56C11.71,24.85,12.49,26.65,13.78,28.09C13.63,27.03,11.8,13.04,16.69,7.43L16.7,7.42C13.67,8.13,10.33,9.48,10.33,9.48Z" fill="currentColor"/><path d="M36.56,5L36.54,5C33.8,5,29.62,5.59,29.62,5.59L27.75,17.4C28.16,15.94,30.94,6.93,37.22,5.01C37,5.01,36.77,5,36.56,5Z" fill="currentColor"/><path d="M53.47,7L53.04,7L49.78,17.16C50.65,15.46,53.59,10.12,57.33,7.65C55.94,7.28,54.54,7,53.47,7Z" fill="currentColor"/><path d="M58.66,68.94L54.2,31.24L54.7,31.05C58.98,29.46,61.15,26.85,61.72,22.57L62.77,9.73C62.76,9.67,62.75,9.64,62.75,9.64L62,9.17C61.23,8.88,59.98,8.43,58.6,8.01C57.52,14.54,56.09,23.92,53,26.61C50.04,29.18,48.24,29.78,47.79,29.9C46.93,29.79,46.01,29.69,45.01,29.6C35.91,28.78,22.66,31.35,22.66,31.35C22.66,31.35,36.08,30.54,42.94,39.05C43.59,39.86,44.19,40.9,44.74,41.88C39.33,41.88,31.45,41.88,31.45,41.88L20.91,85L68.08,85C68.1,78.11,66.08,69.05,59.14,69.05L59.12,69.05Z" fill="currentColor" opacity="0.5"/><path d="M76.72,63.25C73.49,62.44,70.09,63.17,67.46,65.19L65.22,58.83L65.05,58.35L64.55,58.23C63.05,57.86,61.33,57.81,60.18,58.11L60.14,58.29L60.08,58.55L59.94,59.1L58.79,63.73C56.28,62.86,50.16,60.59,47.04,51.05C45.64,46.78,41.76,43.57,36.4,42.23L35.48,42L35.25,42.92L25.31,82.79L25.08,83.71L26,84.31C31.36,85.65,36.3,84.26,39.54,81.15C46.76,74.21,53.24,75.07,55.87,75.47L54.72,80.1L54.58,80.65L54.51,80.91L54.47,81.09C55.34,81.89,56.88,82.67,58.38,83.04L58.88,83.16L59.25,82.82L64.21,78.26C65.57,81.27,68.24,83.51,71.47,84.32C77.27,85.77,83.17,82.22,84.62,76.42L84.62,76.4C86.07,70.59,82.52,64.7,76.72,63.25Z" fill="currentColor"/><path d="M66,71.22L64.48,77.32C64.39,77.38,59.35,80.61,57.61,75.56L62,57.95L61.91,57.95C61.27,57.95,60.67,57.99,60.18,58.12L60.14,58.3L60.07,58.56L59.93,59.11L58.78,63.74C58.78,63.74,58.67,63.7,58.62,63.68L58.46,64.32C58.46,64.32,50.72,68.84,44.73,72.69C40.2,75.6,37.63,81.01,36.74,83.18C37.76,82.63,38.7,81.95,39.53,81.15C46.75,74.21,53.23,75.07,55.86,75.47L54.71,80.1L54.57,80.65L54.5,80.91L54.46,81.09C55.33,81.89,56.87,82.67,58.37,83.04L58.85,83.16L59.14,82.91L59.24,82.82L64.2,78.26C65.56,81.27,68.23,83.51,71.46,84.32C75.98,85.45,80.54,83.54,83.03,79.91C83.05,79.87,83.06,79.85,83.06,79.85C80.11,83.29,72.66,84.6,68.55,79.81L68.55,79.79C65.61,76.37,66,71.22,66,71.22Z" fill="currentColor"/><path d="M67.47,65.19L65.23,58.83L65.06,58.35L64.63,58.24L63.39,63.22C65.36,64.02,67.47,65.19,67.5,65.24L67.49,65.25Z" fill="currentColor"/><path d="M73.57,62.96C73.42,63,73.34,63.04,73.34,63.04C82.1,65.94,85.06,72.73,84.58,76.54C84.59,76.5,84.61,76.45,84.62,76.41C86.07,70.6,82.52,64.71,76.72,63.26L76.72,63.25C75.68,62.99,74.62,62.91,73.57,62.96Z" fill="currentColor"/><path d="M45.06,55.18C46.71,59.26,54.19,61.62,54.19,61.62C54.29,61.67,54.14,61.5,53.86,61.19C51.42,59.37,48.77,56.32,47.04,51.04C46.14,48.29,44.21,45.98,41.51,44.33C38.54,42.74,35.67,41.95,36.37,42.37C42.43,46,42.57,49.03,45.06,55.18Z" fill="currentColor"/></svg>