<svg xmlns="http://www.w3.org/2000/svg" viewBox="0 0 90 90"><path d="M88,46C88,69.2,69.2,88,46,88C22.8,88,4,69.2,4,46C4,22.8,22.8,4,46,4C69.2,4,88,22.8,88,46Z" fill="currentColor"/><path d="M88,49C88,72.2,69.2,91,46,91C22.8,91,4,72.2,4,49C4,25.8,22.8,7,46,7C69.2,7,88,25.8,88,49Z" fill="currentColor"/><path d="M46,7C69.2,7,88,25.8,88,49C88,55.31,86.61,61.29,84.12,66.65C75.44,39.99,53.84,19.23,26.63,11.72C32.43,8.71,39.02,7,46,7Z" fill="currentColor" opacity="0.2"/><path d="M4.79,57.13C8.42,75.66,24.24,89.82,43.55,90.93C25.36,87.21,10.79,74.2,4.79,57.13Z" fill="currentColor"/><path d="M87.99,49.87C88,49.58,88,49.29,88,49C88,25.8,69.2,7,46,7C68.24,9.74,85.8,27.57,87.99,49.87Z" fill="currentColor"/><path d="M29.13,23.27L22.72,29.68C21.88,30.52,21.88,31.53,22.72,32.29L36.98,46.71L22.72,60.97C21.96,61.72,21.96,62.65,22.81,63.5L29.13,69.91C29.98,70.66,30.99,70.66,31.75,69.91L46,55.65L60.25,69.91C61.01,70.75,62.02,70.75,62.87,69.91L69.28,63.5C70.12,62.65,70.12,61.64,69.28,60.88L55.02,46.63L69.28,32.21C70.04,31.45,70.04,30.52,69.19,29.68L62.87,23.27C62.02,22.51,61.01,22.51,60.25,23.27L46,37.6L31.75,23.27C30.99,22.42,29.98,22.42,29.13,23.27Z" fill="currentColor"/><path d="M29.13,25.89L22.72,32.3C21.88,33.14,21.88,34.16,22.72,34.92L36.98,49.34L22.72,63.59C21.96,64.35,21.96,65.28,22.81,66.12L29.13,72.53C29.98,73.29,30.99,73.29,31.75,72.53L46,58.28L60.25,72.53C61.01,73.37,62.02,73.37,62.87,72.53L69.28,66.12C70.12,65.28,70.12,64.27,69.28,63.51L55.02,49.25L69.28,34.83C70.04,34.07,70.04,33.14,69.19,32.3L62.87,25.89C62.02,25.13,61.01,25.13,60.25,25.89L46,40.23L31.75,25.89C30.99,25.05,29.98,25.05,29.13,25.89Z" fill="currentColor"/></svg>