<svg xmlns="http://www.w3.org/2000/svg" viewBox="0 0 90 90"><path d="M89.34,20.44L89.34,20.42C89.73,20.82,89.98,21.24,89.98,21.83C89.98,22.38,89.74,22.84,89.34,23.2L79.08,31.75C77.61,32.94,76.48,32.55,76.48,30.81L76.48,24.95L70.28,24.95C67.87,24.95,65.85,26.66,63.68,29.35L61.76,31.91L59.32,28.54C58.64,27.65,57.9,25.42,57.95,25.36C58.25,24.99,58.56,24.61,58.85,24.26C59.17,23.87,59.47,23.51,59.71,23.21C61.79,20.6,65.91,17.99,70.28,17.99L76.48,17.99L76.48,12.8C76.48,11.15,77.61,10.76,79.08,11.98Z" fill="currentColor"/><path d="M89.34,58.91L89.34,58.9C89.73,59.26,89.98,59.72,89.98,60.27C89.98,60.86,89.74,61.28,89.34,61.68L79.08,70.14C77.61,71.37,76.48,70.97,76.48,69.32L76.48,64.13L70.28,64.13C66.9,64.13,63.42,62.43,61.66,60.16L55.86,52.91C55.86,52.91,59.28,52.48,63.09,50.94L64.69,53.04C66.79,55.54,68.38,57.16,70.43,57.16L76.48,57.16L76.48,51.3C76.48,49.56,77.61,49.17,79.08,50.36Z" fill="currentColor"/><path d="M54.41,49.99L54.39,50C54.98,50.58,61.75,48.91,64.11,46.91C65.89,45.41,66.11,42.6,64.45,40.55L58,31.48C55.96,28.52,55.3,26.53,54.5,24.12C54.17,23.12,53.82,22.06,53.33,20.82C53.3,20.74,53.27,20.66,53.24,20.58C52.78,19.42,52.18,17.88,50.22,16.25C48.12,14.51,46.76,13.15,45.94,11.14L45.13,7.26C44.85,6.08,43.81,5.01,42.8,5.01L35.68,12.12C21.75,13.06,6.17,23.2,6.17,46.28C6.17,50.7,8.19,57.81,9.57,62.68C10.11,64.57,10.55,66.13,10.74,67.06C10.74,67.06,11.04,68.1,11.23,69.85C0.35,71.67,0.41,79.83,0.41,79.83L0.41,85L62.38,85L62.38,79.83C62.38,79.83,62.44,70.85,49.89,69.63L49.76,67.06C49,59.34,42.02,53.68,37.92,50.36C37.88,50.32,37.83,50.29,37.79,50.25C35.26,48.21,32.67,45.87,31.74,42.64C30.74,39.13,33.01,35.98,33.83,34.99L35.94,37.43C38.07,39.66,41.86,43.55,46.13,43.57C50.02,43.59,51.24,45.5,52.53,47.51C53.07,48.37,53.63,49.24,54.41,49.99Z" fill="currentColor"/><path d="M36,12.01C35.93,12.01,35.86,12.01,35.8,12L35.75,12.05C35.91,12.02,36,12.01,36,12.01Z" fill="currentColor"/><path d="M10.74,67.06C10.55,66.12,10.11,64.57,9.57,62.68C8.19,57.81,6.17,50.7,6.17,46.28C6.17,23.52,21.32,13.34,35.1,12.16C30.8,13.01,12.55,17.76,12.55,37.78C12.55,47.16,16.36,53.21,19.92,58.86C22.1,62.33,24.19,65.64,25.24,69.48C22.62,69.24,11.2,69.85,11.2,69.85C11.02,68.15,10.74,67.06,10.74,67.06Z" fill="currentColor"/><path d="M44.61,43.39C45.62,42.88,46.47,42.35,47.2,41.89C49.89,40.22,50.99,39.54,52.47,43.97C53.37,46.68,54.49,48.29,55.2,49.31C55.4,49.6,55.57,49.84,55.69,50.04C55.03,50.12,54.55,50.11,54.41,49.98C53.63,49.23,53.07,48.36,52.53,47.5C51.24,45.49,50.02,43.58,46.13,43.56C45.61,43.56,45.11,43.5,44.61,43.39L44.6,43.4L44.6,43.39Z" fill="currentColor"/><path d="M30.48,29.21C31.48,31.13,33.96,35.02,33.96,35.02C33.96,35.02,33.98,35.09,34.01,35.19L33.83,34.99C33.04,35.94,30.93,38.91,31.68,42.27C30.21,38.41,29.23,34.11,29.25,32.57C29.28,30.89,29.48,27.29,30.48,29.21Z" fill="currentColor"/><path d="M64.46,40.53L64.47,40.52C65.42,41.69,65.69,43.09,65.47,44.37C63.8,42.31,55.18,31.67,53.96,30.04C53.17,28.99,52.79,27.61,52.36,26.04C51.45,22.72,50.31,18.58,44.53,14.98C40.1,12.23,43.1,5.11,43.1,5.11C43.23,5.11,43.35,5.13,43.48,5.16C43.51,5.17,43.55,5.17,43.58,5.18C44.3,5.54,44.93,6.36,45.14,7.24L45.95,11.12C46.77,13.13,48.13,14.49,50.23,16.23C52.22,17.87,52.81,19.42,53.26,20.59C53.29,20.66,53.31,20.73,53.34,20.8C53.83,22.04,54.18,23.1,54.51,24.1C55.31,26.51,55.97,28.5,58.01,31.46Z" fill="currentColor"/><path d="M60.92,75.33C59.9,74.8,54.61,72.86,31.18,72.86C10.63,72.86,4.03,74.35,2.03,75.08C3.84,72.36,7.66,69.49,15.84,69.49L46.94,69.49C55.37,69.49,59.18,72.54,60.92,75.33Z" fill="currentColor"/></svg>