<svg xmlns="http://www.w3.org/2000/svg" viewBox="0 0 90 90"><path d="M79.08,11.98C77.61,10.76,76.48,11.15,76.48,12.8L76.48,17.99L70.28,17.99C65.91,17.99,61.79,20.6,59.71,23.21C59.26,23.77,58.6,24.56,57.95,25.36C57.9,25.42,58.64,27.65,59.32,28.54L61.76,31.91L63.68,29.35C65.85,26.66,67.87,24.95,70.28,24.95L76.48,24.95L76.48,30.81C76.48,32.55,77.61,32.94,79.08,31.75L89.34,23.2C89.74,22.84,89.98,22.38,89.98,21.83C89.98,21.24,89.73,20.82,89.34,20.42L89.34,20.44Z" fill="currentColor"/><path d="M79.08,50.36C77.61,49.17,76.48,49.56,76.48,51.3L76.48,57.16L70.43,57.16C68.38,57.16,66.79,55.54,64.69,53.04L63.09,50.94C59.28,52.48,55.86,52.91,55.86,52.91L61.66,60.16C63.42,62.43,66.9,64.13,70.28,64.13L76.48,64.13L76.48,69.32C76.48,70.97,77.61,71.37,79.08,70.14L89.34,61.68C89.74,61.28,89.98,60.86,89.98,60.27C89.98,59.72,89.73,59.26,89.34,58.9L89.34,58.91Z" fill="currentColor"/><path d="M45.74,43.57C41.47,43.55,37.68,39.66,35.55,37.43L33.44,34.99C32.62,35.98,30.35,39.13,31.35,42.64C31.66,43.72,32.14,44.68,32.76,45.6C33.89,47.26,35.5,48.72,37.4,50.25C41.47,53.55,48.6,59.25,49.37,67.06L49.65,72.32C49.65,72.32,10.98,76.22,10.98,72.88C10.98,69.54,10.35,67.06,10.35,67.06C9.66,63.71,5.78,52.41,5.78,46.28C5.78,23.2,21.36,13.06,35.29,12.12L42.41,5.01C43.42,5.01,44.46,6.08,44.74,7.26L45.55,11.14C46.37,13.15,47.73,14.51,49.83,16.25C51.93,17.99,52.47,19.63,52.94,20.82C54.6,25.05,54.73,27.29,57.61,31.48L64.06,40.55C65.72,42.6,65.5,45.41,63.72,46.91C61.36,48.91,54.59,50.58,54,50L54.02,49.99C51.41,47.47,51.28,43.6,45.74,43.57Z" fill="currentColor"/><path d="M46.55,69.49C62.06,69.49,61.99,79.83,61.99,79.83L61.99,85L0.02,85L0.02,79.83C0.02,79.83,-0.05,69.49,15.46,69.49Z" fill="currentColor"/><path d="M57.63,31.46C54.75,27.27,54.62,25.03,52.96,20.8C52.5,19.61,51.96,17.97,49.85,16.23C47.75,14.49,46.39,13.13,45.57,11.12L44.76,7.24C44.55,6.36,43.92,5.54,43.2,5.18C43.04,5.15,42.89,5.11,42.72,5.11C42.72,5.11,39.72,12.23,44.15,14.98C52.66,20.27,51.11,26.75,53.58,30.04C54.8,31.67,63.42,42.31,65.09,44.37C65.31,43.09,65.04,41.69,64.09,40.52L64.08,40.53Z" fill="currentColor"/><path d="M45.74,43.56C51.28,43.59,51.41,47.46,54.02,49.98C54.16,50.11,54.64,50.12,55.3,50.04C54.76,49.12,53.23,47.44,52.08,43.97C50.2,38.33,48.93,40.98,44.21,43.4L44.21,43.39C44.71,43.5,45.22,43.56,45.74,43.56Z" fill="currentColor"/><path d="M28.86,32.57C28.84,34.11,29.82,38.41,31.29,42.27C30.54,38.91,32.65,35.94,33.44,34.99L33.62,35.19C33.59,35.09,33.57,35.02,33.57,35.02C33.57,35.02,31.09,31.13,30.09,29.21C29.09,27.29,28.89,30.89,28.86,32.57Z" fill="currentColor"/><path d="M46.56,69.49L15.46,69.49C7.28,69.49,3.46,72.36,1.65,75.08C3.65,74.35,10.25,72.86,30.8,72.86C54.23,72.86,59.52,74.8,60.54,75.33C58.8,72.54,54.99,69.49,46.56,69.49Z" fill="currentColor"/></svg>