<svg xmlns="http://www.w3.org/2000/svg" viewBox="0 0 90 90"><path d="M87,48C87,24.8,68.2,6,45,6C21.8,6,3,24.8,3,48C3,71.2,21.8,90,45,90C68.2,90,87,71.2,87,48Z" fill="currentColor"/><path d="M87,45C87,21.8,68.2,3,45,3C21.8,3,3,21.8,3,45C3,68.2,21.8,87,45,87C68.2,87,87,68.2,87,45Z" fill="currentColor"/><path d="M45,87C68.2,87,87,68.2,87,45C87,38.69,85.61,32.71,83.12,27.35C74.44,54.01,52.84,74.77,25.63,82.28C31.43,85.29,38.02,87,45,87Z" fill="currentColor" opacity="0.2"/><path d="M3.79,36.87C7.42,18.34,23.24,4.18,42.55,3.07C24.36,6.79,9.79,19.8,3.79,36.87Z" fill="currentColor"/><path d="M86.99,44.13C87,44.42,87,44.71,87,45C87,68.2,68.2,87,45,87C67.24,84.26,84.8,66.43,86.99,44.13Z" fill="currentColor"/><path d="M45,3C21.8,3,3,21.8,3,45C3,68.2,21.8,87,45,87C68.2,87,87,68.2,87,45C87,21.8,68.2,3,45,3Z" fill="currentColor"/><path d="M26.28,56.56L37.49,56.56L53.85,43.75L53.85,56.56L65.24,56.56L45.67,80.69Z" fill="currentColor"/><path d="M37.75,38.69L26.28,38.69L45.93,14.56L65.24,38.69L54.02,38.69L37.75,51.5Z" fill="currentColor"/><path d="M26.28,53.94L37.49,53.94L53.85,41.12L53.85,53.94L65.24,53.94L45.67,78.06Z" fill="currentColor"/><path d="M37.75,36.06L26.28,36.06L45.93,11.94L65.24,36.06L54.02,36.06L37.75,48.88Z" fill="currentColor"/></svg>