<svg xmlns="http://www.w3.org/2000/svg" viewBox="0 0 90 90"><path d="M89,46C89,69.75,69.75,89,46,89C22.25,89,3,69.75,3,46C3,22.25,22.25,3,46,3C69.75,3,89,22.25,89,46Z" fill="currentColor"/><path d="M89,46C89,22.25,69.75,3,46,3C36.3,3,27.35,6.21,20.16,11.63C24.78,9.93,29.78,9,35,9C58.75,9,78,28.25,78,52C78,66.05,71.26,78.52,60.84,86.37C77.28,80.33,89,64.53,89,46Z" fill="currentColor" opacity="0.5"/><path d="M89,46C89,22.25,69.75,3,46,3C45.5,3,45,3.01,44.5,3.03C67.55,3.82,86,22.75,86,46C86,69.25,67.55,88.18,44.5,88.97C45,88.99,45.5,89,46,89C69.75,89,89,69.75,89,46Z" fill="currentColor"/><path d="M3.31,51.16C5.77,71.69,22.69,87.78,43.59,88.93C24.37,84.03,9.3,69.62,3.31,51.16Z" fill="currentColor"/><path d="M24.97,63.23L68.06,63.23C74.39,63.23,79.52,58.1,79.52,51.77C79.52,45.03,73.73,39.75,67.02,40.36L56.2,41.35C49.76,41.93,43.28,41.93,36.84,41.35L26.01,40.36C19.3,39.75,13.52,45.03,13.52,51.77C13.52,58.1,18.64,63.23,24.97,63.23Z" fill="currentColor"/><path d="M77.52,49.8C77.52,47.09,76.57,44.61,75.01,42.67C72.82,40.99,70.01,40.09,67.02,40.36L56.2,41.34C49.76,41.93,43.28,41.93,36.84,41.34L26.01,40.36C23.02,40.09,20.21,40.99,18.02,42.67C16.46,44.61,15.52,47.09,15.52,49.8C15.52,56.11,20.63,61.23,26.94,61.23L66.09,61.23C72.4,61.23,77.52,56.11,77.52,49.8Z" fill="currentColor"/><path d="M31.44,41.92C27.91,41.92,25,44.76,25,48.77C25,53.98,27.88,58.23,31.44,58.23C35.01,58.23,37.85,53.98,37.85,48.77C37.85,44.76,34.97,41.92,31.44,41.92Z" fill="currentColor"/><path d="M60.44,41.92C56.91,41.92,54,44.76,54,48.77C54,53.98,56.88,58.23,60.44,58.23C64.01,58.23,66.85,53.98,66.85,48.77C66.85,44.76,63.97,41.92,60.44,41.92Z" fill="currentColor"/><path d="M31.44,43.92C28.46,43.92,26,48.16,26,52.15C26,56.14,28.43,59.38,31.44,59.38C34.45,59.38,36.85,56.14,36.85,52.15C36.85,48.16,34.42,43.92,31.44,43.92Z" fill="currentColor"/><path d="M60.59,43.92C57.61,43.92,55.18,48.16,55.18,52.15C55.18,56.14,57.61,59.38,60.59,59.38C63.57,59.38,66,56.14,66,52.15C66,48.16,63.57,43.92,60.59,43.92Z" fill="currentColor"/><path d="M50.88,49.55C50.88,49.55,50.88,49.66,50.88,49.85C50.88,50.04,50.91,50.35,50.97,50.68C51.03,51.03,51.12,51.47,51.24,51.94C51.37,52.41,51.55,52.96,51.83,53.51C52.07,54.09,52.38,54.66,52.74,55.27C53.11,55.87,53.57,56.48,54.09,57.06C54.61,57.63,55.22,58.21,55.86,58.71C56.53,59.2,57.23,59.67,58,60.03C58.76,60.41,59.52,60.71,60.35,60.93C61.14,61.15,61.94,61.29,62.7,61.37C63.47,61.43,64.2,61.43,64.9,61.37C65.24,61.37,65.57,61.32,65.91,61.26C66.21,61.21,66.55,61.18,66.83,61.1C67.99,60.82,68.9,60.49,69.51,60.22C70.13,59.94,70.46,59.75,70.46,59.75C70.83,59.56,70.98,59.06,70.8,58.71C70.67,58.43,70.4,58.29,70.16,58.29L70.09,58.29C70.09,58.29,69.73,58.29,69.12,58.29C68.81,58.29,68.44,58.29,68.02,58.29C67.59,58.29,67.13,58.27,66.61,58.24C66.37,58.24,66.09,58.18,65.82,58.16C65.54,58.16,65.27,58.1,64.99,58.05C64.44,57.96,63.86,57.85,63.28,57.72C62.7,57.55,62.12,57.39,61.54,57.17C61.27,57.06,60.96,56.95,60.69,56.81C60.41,56.7,60.14,56.53,59.86,56.4C57.69,55.19,55.89,53.34,54.54,51.83C54.21,51.45,53.9,51.09,53.63,50.76C53.35,50.43,53.11,50.13,52.93,49.88C52.74,49.63,52.59,49.44,52.47,49.3C52.38,49.16,52.31,49.11,52.31,49.11C52.19,48.7,51.76,48.48,51.37,48.61C50.97,48.75,50.76,49.16,50.88,49.58" fill="currentColor"/><path d="M41.12,49.55C41.12,49.55,41.12,49.66,41.12,49.85C41.12,50.04,41.09,50.35,41.03,50.68C40.97,51.03,40.87,51.47,40.75,51.94C40.6,52.41,40.45,52.96,40.17,53.51C39.93,54.09,39.62,54.66,39.26,55.27C38.89,55.87,38.43,56.48,37.91,57.06C37.39,57.63,36.78,58.21,36.14,58.71C35.47,59.2,34.76,59.67,34,60.03C33.24,60.41,32.47,60.71,31.68,60.93C30.88,61.15,30.09,61.29,29.33,61.37C28.56,61.43,27.83,61.43,27.13,61.37C26.79,61.37,26.45,61.32,26.12,61.26C25.81,61.21,25.48,61.18,25.2,61.1C24.04,60.82,23.12,60.49,22.51,60.22C21.9,59.94,21.57,59.75,21.57,59.75C21.2,59.56,21.05,59.06,21.23,58.71C21.35,58.43,21.63,58.29,21.87,58.29L21.93,58.29C21.93,58.29,22.3,58.29,22.91,58.29C23.22,58.29,23.58,58.29,24.01,58.29C24.44,58.29,24.9,58.27,25.42,58.24C25.66,58.24,25.93,58.18,26.21,58.16C26.48,58.16,26.76,58.1,27.03,58.05C27.58,57.96,28.17,57.85,28.75,57.72C29.33,57.55,29.91,57.39,30.49,57.17C30.76,57.06,31.07,56.95,31.34,56.81C31.62,56.7,31.89,56.53,32.17,56.4C34.34,55.19,36.14,53.34,37.48,51.83C37.82,51.45,38.12,51.09,38.4,50.76C38.67,50.43,38.92,50.13,39.1,49.88C39.29,49.63,39.44,49.44,39.56,49.3C39.65,49.16,39.71,49.11,39.71,49.11C39.84,48.7,40.26,48.48,40.66,48.61C41.06,48.75,41.27,49.16,41.15,49.58" fill="currentColor"/><path d="M29.77,23.65C29.38,23.19,29.43,22.47,29.91,22.09C30.22,21.86,30.64,21.82,30.99,21.97C35.28,23.85,41.85,24,46,24C50.15,24,56.72,23.85,61.01,21.97C61.37,21.82,61.78,21.86,62.09,22.09C62.57,22.47,62.62,23.19,62.22,23.65C59.4,27.01,55.23,33.96,46.02,33.96C36.8,33.96,32.6,27.01,29.77,23.65Z" fill="currentColor"/><path d="M28.63,24.03C28.24,23.53,28.24,22.84,28.6,22.32C29.09,21.6,30.08,21.45,30.8,21.94C35.99,25.42,41.77,26.31,46,26.31C50.23,26.31,56.01,25.42,61.2,21.93C61.92,21.45,62.91,21.6,63.4,22.32C63.76,22.84,63.76,23.54,63.36,24.03C59.29,29.15,52.89,32,46.02,32C39.14,32,32.7,29.15,28.63,24.03Z" fill="currentColor"/></svg>