<svg xmlns="http://www.w3.org/2000/svg" viewBox="0 0 90 90"><path d="M27,9.23C27.01,8.84,27.01,8.46,27.01,8.07L27.01,6L90.99,6L90.99,8.07C90.99,8.46,90.99,8.84,91,9.23C91.04,15.23,91.07,20.42,80.99,21.94C80.97,21.94,80.96,21.95,80.94,21.95L76.36,59.7C81.31,61.59,83.38,64.2,83.74,68.35L85,81.32C83.74,81.95,81.94,82.49,80.23,82.94C78.07,83.48,76.81,83.75,75.19,83.93L71.67,72.94L67.71,72.94L65.73,85.37C63.48,85.73,61.14,86,58.88,86C56.63,86,54.29,85.73,52.04,85.37L50.15,72.94L46.09,72.94L42.58,83.93C39.88,83.93,36.19,82.76,32.94,81.5L34.03,68.35C34.39,64.47,35.83,61.86,41.5,59.7L37.01,21.94C26.93,20.5,26.96,15.24,27,9.23Z" fill="currentColor"/><path d="M80.95,21.88L80.95,21.87L80.95,21.87C78.79,22.14,76.63,22.32,74.47,22.41C74.02,24.5,73.61,26.53,73.2,28.51C69.42,47.19,66.71,60.57,45.28,60.24C52.76,61.77,63.84,61.95,70.14,61.05C77.45,62.57,79.69,74.81,80.96,82.74C82.42,82.34,83.88,81.87,84.96,81.34C84.97,81.33,84.99,81.32,85,81.32L83.74,68.35C83.74,68.33,83.74,68.32,83.74,68.31C83.37,64.19,81.3,61.59,76.36,59.7Z" fill="currentColor" opacity="0.5"/><path d="M50.15,72.94L52.04,85.37C54.29,85.73,56.63,86,58.88,86C53.36,84.1,50.81,75.25,50.21,73.17C50.19,73.08,50.17,73,50.15,72.94Z" fill="currentColor"/><path d="M36.76,62.35C34.91,63.98,34.25,65.91,34.03,68.33L34.03,68.35L32.94,81.5C35.07,82.32,37.39,83.11,39.5,83.56C35.95,81.22,35.12,70.34,36.76,62.35Z" fill="currentColor"/><path d="M75.19,83.93L71.67,72.94C72.62,74.75,75.74,80.35,79.47,83.13C77.77,83.54,76.64,83.76,75.24,83.92Z" fill="currentColor"/><path d="M90.53,15.46C87.01,17.8,80.89,18.43,58.99,18.43C37.18,18.43,30.69,17.89,27.45,15.55C28.26,18.61,30.69,20.95,37,21.94C40.07,22.39,49.53,22.48,58.99,22.48C61.2,22.48,63.17,22.49,64.96,22.49C72.96,22.52,77.15,22.53,80.98,21.94C87.37,20.95,89.72,18.61,90.53,15.46Z" fill="currentColor"/><path d="M38.8,22.73C42.28,19.17,43.55,19.17,47.11,22.65C50.67,26.14,50.67,27.48,47.19,30.97L39.07,39.3L37.28,24.27Z" fill="currentColor"/><path d="M47.35,54.87C50.91,58.44,50.91,59.7,47.35,63.27C43.86,66.75,42.52,66.75,39.03,63.27L37.5,61.75C38.52,61.02,39.83,60.34,41.5,59.7L40.06,47.59Z" fill="currentColor"/><path d="M27.08,39.61L38.8,27.73C42.28,24.17,43.55,24.17,47.11,27.65C50.67,31.14,50.67,32.48,47.19,35.97L35.47,48L47.35,59.87C50.91,63.44,50.91,64.7,47.35,68.27C43.86,71.75,42.52,71.75,39.03,68.27L27.08,56.47L15.2,68.35C11.64,71.91,10.38,71.91,6.81,68.35C3.33,64.86,3.33,63.52,6.81,60.03L18.61,48L6.73,36.2C3.17,32.64,3.17,31.37,6.73,27.81C10.22,24.33,11.48,24.33,15.05,27.81Z" fill="currentColor"/></svg>