<svg xmlns="http://www.w3.org/2000/svg" viewBox="0 0 90 90"><path d="M26,81.77C26.01,82.16,26.01,82.54,26.01,82.93L26.01,85L89.99,85L89.99,82.93C89.99,82.54,89.99,82.16,90,81.77C90.04,75.77,90.07,70.58,79.99,69.06C79.97,69.06,79.96,69.05,79.94,69.05L75.36,31.3C80.31,29.41,82.38,26.8,82.74,22.65L84,9.68C82.74,9.05,80.94,8.51,79.23,8.06C77.07,7.52,75.81,7.25,74.19,7.07L70.67,18.06L66.71,18.06L64.73,5.63C62.48,5.27,60.14,5,57.88,5C55.63,5,53.29,5.27,51.04,5.63L49.15,18.06L45.09,18.06L41.58,7.07C38.88,7.07,35.19,8.24,31.94,9.5L33.03,22.65C33.39,26.53,34.83,29.14,40.5,31.3L36.01,69.06C25.93,70.5,25.96,75.76,26,81.77Z" fill="currentColor"/><path d="M79.95,69.12L79.95,69.13L79.95,69.13C77.79,68.86,75.63,68.68,73.47,68.59C73.02,66.5,72.61,64.47,72.2,62.49C68.42,43.81,65.71,30.43,44.28,30.76C51.76,29.23,62.84,29.05,69.14,29.95C76.45,28.43,78.69,16.19,79.96,8.26C81.42,8.66,82.88,9.13,83.96,9.66C83.97,9.67,83.99,9.68,84,9.68L82.74,22.65C82.74,22.67,82.74,22.68,82.74,22.69C82.37,26.81,80.3,29.41,75.36,31.3Z" fill="currentColor" opacity="0.5"/><path d="M49.15,18.06L51.04,5.63C53.29,5.27,55.63,5,57.88,5C52.36,6.9,49.81,15.75,49.21,17.83C49.19,17.92,49.17,18,49.15,18.06Z" fill="currentColor"/><path d="M35.76,28.65C33.91,27.02,33.25,25.09,33.03,22.67L33.03,22.65L31.94,9.5C34.07,8.68,36.39,7.89,38.5,7.44C34.95,9.78,34.12,20.66,35.76,28.65Z" fill="currentColor"/><path d="M74.19,7.07L70.67,18.06C71.62,16.25,74.74,10.65,78.47,7.87C76.77,7.46,75.64,7.24,74.24,7.08Z" fill="currentColor"/><path d="M89.53,75.54C86.01,73.2,79.89,72.57,57.99,72.57C36.18,72.57,29.69,73.11,26.45,75.45C27.26,72.39,29.69,70.05,36,69.06C39.07,68.61,48.53,68.52,57.99,68.52C60.2,68.52,62.17,68.51,63.96,68.51C71.96,68.48,76.15,68.47,79.98,69.06C86.37,70.05,88.72,72.39,89.53,75.54Z" fill="currentColor"/><path d="M37.8,68.27C41.28,71.83,42.55,71.83,46.11,68.35C49.67,64.86,49.67,63.52,46.19,60.03L38.07,51.7L36.28,66.73Z" fill="currentColor"/><path d="M46.35,36.13C49.91,32.56,49.91,31.3,46.35,27.73C42.86,24.25,41.52,24.25,38.03,27.73L36.5,29.25C37.52,29.98,38.83,30.66,40.5,31.3L39.06,43.41Z" fill="currentColor"/><path d="M26.08,51.39L37.8,63.27C41.28,66.83,42.55,66.83,46.11,63.35C49.67,59.86,49.67,58.52,46.19,55.03L34.47,43L46.35,31.13C49.91,27.56,49.91,26.3,46.35,22.73C42.86,19.25,41.52,19.25,38.03,22.73L26.08,34.53L14.2,22.65C10.64,19.09,9.38,19.09,5.81,22.65C2.33,26.14,2.33,27.48,5.81,30.97L17.61,43L5.73,54.8C2.17,58.36,2.17,59.63,5.73,63.19C9.22,66.67,10.48,66.67,14.05,63.19Z" fill="currentColor"/></svg>