<svg xmlns="http://www.w3.org/2000/svg" viewBox="0 0 90 90" fill="currentColor"><path d="M14,6L62.03,6C65.21,6,68.26,7.26,70.51,9.51L82.49,21.49C84.74,23.74,86,26.79,86,29.97L86,78C86,82.42,82.42,86,78,86L14,86C9.58,86,6,82.42,6,78L6,14C6,9.58,9.58,6,14,6ZM14,10L62.69,10C64.81,10,66.84,10.84,68.34,12.34L83.66,27.66C85.16,29.16,86,31.19,86,33.31L86,80C86,84.42,82.42,88,78,88L14,88C9.58,88,6,84.42,6,80L6,18C6,13.58,9.58,10,14,10ZM6,80C6,84.42,9.58,88,14,88L76,88L15.45,86.22C11.25,86.1,7.86,82.75,7.69,78.56L6,38ZM60.29,21.95C59.2,26.73,62.64,31.35,67.53,31.7L86,33C86,31.23,85.3,29.52,84.04,28.27L67.73,11.96C66.47,10.7,64.77,10,63,10ZM63,25C63,29.42,66.58,33,71,33L86,33C86,31.23,85.3,29.52,84.04,28.27L67.73,11.96C66.48,10.7,64.77,10,63,10ZM63,25C63,29.42,66.58,33,71,33L86,33L71.68,31.31C68.01,30.87,65.11,27.97,64.68,24.29L63,10Z"/></svg>