<svg xmlns="http://www.w3.org/2000/svg" viewBox="0 0 90 90"><path d="M13,87L61.03,87C64.21,87,67.26,85.74,69.51,83.49L81.49,71.51C83.74,69.26,85,66.21,85,63.03L85,15C85,10.58,81.42,7,77,7L13,7C8.58,7,5,10.58,5,15L5,79C5,83.42,8.58,87,13,87Z" fill="currentColor"/><path d="M13,83L61.69,83C63.81,83,65.84,82.16,67.34,80.66L82.66,65.34C84.16,63.84,85,61.81,85,59.69L85,13C85,8.58,81.42,5,77,5L13,5C8.58,5,5,8.58,5,13L5,75C5,79.42,8.58,83,13,83Z" fill="currentColor"/><path d="M5,13C5,8.58,8.58,5,13,5L75,5L14.45,6.78C10.25,6.9,6.86,10.25,6.69,14.44L5,55Z" fill="currentColor"/><path d="M59.29,71.05C58.2,66.27,61.64,61.65,66.53,61.3L85,60C85,61.77,84.3,63.48,83.04,64.73L66.73,81.04C65.47,82.3,63.77,83,62,83Z" fill="currentColor"/><path d="M62,68C62,63.58,65.58,60,70,60L85,60C85,61.77,84.3,63.48,83.04,64.73L66.73,81.04C65.48,82.3,63.77,83,62,83Z" fill="currentColor"/><path d="M62,68C62,63.58,65.58,60,70,60L85,60L70.68,61.69C67.01,62.13,64.11,65.03,63.68,68.71L62,83Z" fill="currentColor"/><path d="M42,17L42,25L73,25L73,17Z" fill="currentColor"/><path d="M42,33L42,41L73,41L73,33Z" fill="currentColor"/><path d="M73,49L73,57L17,57L17,49Z" fill="currentColor"/><path d="M17,65L17,73L29,73L32,65Z" fill="currentColor"/><path d="M78.61,23.39L84.87,29.64L80.76,33.75L74.5,27.5Z" fill="currentColor"/><path d="M33.76,70.49L85,21L85,41.96L46.43,73L29,73Z" fill="currentColor"/><path d="M66.31,57L47.73,57L56.01,49L73,49L73,51.62Z" fill="currentColor"/><path d="M26.77,41C32.7,41,35.82,38.43,35.82,34.38C35.82,31.64,34.45,29.69,32.22,28.69C34.04,27.66,35.17,25.85,35.17,23.48C35.17,19.61,32.19,17,26.43,17L17,17L17,41Z" fill="currentColor"/><path d="M22.52,31.06L26.22,31.06C28.79,31.06,30.3,31.81,30.3,33.59C30.3,35.45,28.79,36.3,26.22,36.3L22.52,36.3Z" fill="currentColor"/><path d="M22.52,21.7L25.71,21.7C28.18,21.7,29.65,22.55,29.65,24.3C29.65,26.05,28.14,26.81,25.71,26.81L22.52,26.81Z" fill="currentColor"/><path d="M32.51,56.97L29,73L45.03,69.49L38.77,63.23Z" fill="currentColor"/><path d="M29,73L45.03,69.49L38.77,63.23Z" fill="currentColor"/><path d="M32.51,56.98L45.03,69.5L82.81,31.71L70.29,19.19Z" fill="currentColor"/><path d="M38.77,63.23L45.03,69.49L82.81,31.7L76.55,25.45Z" fill="currentColor"/><path d="M89.24,25.29C89.42,25.11,89.56,24.92,89.67,24.72C89.89,24.32,90,23.9,90,23.45C90,23.11,89.93,22.74,89.79,22.41C89.74,22.31,89.69,22.22,89.63,22.12C89.52,21.93,89.39,21.76,89.22,21.59C88.47,20.84,81.11,13.48,80.4,12.77C80.2,12.57,79.98,12.41,79.73,12.29C79.64,12.25,79.54,12.19,79.44,12.16C79.16,12.05,78.86,12.01,78.56,12C78.12,12,77.68,12.11,77.29,12.34C77.08,12.45,76.89,12.59,76.71,12.77C75.26,14.22,73.81,15.67,72.35,17.12C72.58,17.36,84.59,29.37,84.87,29.64L84.88,29.64C86.33,28.19,87.78,26.74,89.24,25.29Z" fill="currentColor"/><path d="M78.62,23.38C78.62,23.38,84.73,29.5,84.88,29.64C86.33,28.19,87.78,26.74,89.24,25.29C89.42,25.11,89.56,24.92,89.67,24.72C89.89,24.32,90,23.9,90,23.45C90,23.11,89.93,22.74,89.79,22.41C89.74,22.31,89.69,22.22,89.63,22.12C89.52,21.93,89.39,21.76,89.22,21.59C88.84,21.22,86.84,19.21,84.82,17.2" fill="none" stroke="currentColor" stroke-width="2" stroke-linecap="round" stroke-linejoin="round"/><path d="M68.25,21.23L80.77,33.75L84.87,29.65L72.35,17.13Z" fill="currentColor"/><path d="M74.5,27.5L80.76,33.75L84.87,29.64L78.61,23.39Z" fill="currentColor"/></svg>