<svg xmlns="http://www.w3.org/2000/svg" viewBox="0 0 90 90" fill="currentColor"><path d="M9,6L53,6C57.42,6,61,9.58,61,14L61,58C61,62.42,57.42,66,53,66L9,66C4.58,66,1,62.42,1,58L1,14C1,9.58,4.58,6,9,6ZM9,6L53,6C57.42,6,61,9.58,61,14L61,54C61,58.42,57.42,62,53,62L9,62C4.58,62,1,58.42,1,54L1,14C1,9.58,4.58,6,9,6ZM1,14C1,9.58,4.58,6,9,6L41,6L9.59,6.97C5.4,7.1,2.01,10.45,1.85,14.65L1,36ZM61,54C61,58.42,57.42,62,53,62L11,62L52.12,60.65C56.32,60.51,59.69,57.15,59.85,52.95L61,22ZM36,16L36,24L51,24L51,16ZM51,30L51,38L39,38L39,30ZM51,44L51,52L11,52L11,44ZM25.83,15.95L35.97,38L28.32,38L20.69,19.86L22.21,19.86L14.68,38L7.15,38L17.2,15.95ZM27.44,28.55L29.39,34.06L13.92,34.06L15.84,28.55ZM31,62L22,62L31,34ZM27.79,44L31,44L31,52L25.21,52ZM34,62L34,66L22,66L22,62ZM39,24L83,24C87.42,24,91,27.58,91,32L91,76C91,80.42,87.42,84,83,84L39,84C34.58,84,31,80.42,31,76L31,32C31,27.58,34.58,24,39,24ZM39,24L83,24C87.42,24,91,27.58,91,32L91,72C91,76.42,87.42,80,83,80L39,80C34.58,80,31,76.42,31,72L31,32C31,27.58,34.58,24,39,24ZM31,32C31,27.58,34.58,24,39,24L71,24L39.59,24.97C35.4,25.1,32.01,28.45,31.85,32.65L31,54ZM91,72C91,76.42,87.42,80,83,80L41,80L82.12,78.65C86.32,78.51,89.69,75.15,89.85,70.95L91,40ZM65,34L65,42L81,42L81,34ZM81,48L81,56L65,56L65,48ZM81,62L81,70L41,70L41,62ZM53.58,37.04L54.47,39.81L40.64,39.81L40.64,33.95L60.45,33.95L60.45,38.45L47.41,52.91L46.53,50.14L60.45,50.14L60.45,56L40.64,56L40.64,51.5Z"/></svg>