<svg xmlns="http://www.w3.org/2000/svg" viewBox="0 0 90 90" fill="currentColor"><path d="M14,7L62.03,7C65.21,7,68.26,8.26,70.51,10.51L82.49,22.49C84.74,24.74,86,27.79,86,30.97L86,79C86,83.42,82.42,87,78,87L14,87C9.58,87,6,83.42,6,79L6,15C6,10.58,9.58,7,14,7ZM14,11L62.69,11C64.81,11,66.84,11.84,68.34,13.34L83.66,28.66C85.16,30.16,86,32.19,86,34.31L86,81C86,85.42,82.42,89,78,89L14,89C9.58,89,6,85.42,6,81L6,19C6,14.58,9.58,11,14,11ZM6,81C6,85.42,9.58,89,14,89L76,89L15.45,87.22C11.25,87.1,7.86,83.75,7.69,79.56L6,39ZM60.29,22.95C59.2,27.73,62.64,32.35,67.53,32.7L86,34C86,32.23,85.3,30.52,84.04,29.27L67.73,12.96C66.47,11.7,64.77,11,63,11ZM63,26C63,30.42,66.58,34,71,34L86,34C86,32.23,85.3,30.52,84.04,29.27L67.73,12.96C66.48,11.7,64.77,11,63,11ZM63,26C63,30.42,66.58,34,71,34L86,34L71.68,32.31C68.01,31.87,65.11,28.97,64.68,25.29L63,11ZM74,78L74,70L18,70L18,78ZM18,62L18,54L74,54L74,62ZM18,46L18,38L53.63,38L53.63,46Z"/></svg>