<svg xmlns="http://www.w3.org/2000/svg" viewBox="0 0 90 90"><path d="M13,87L61.03,87C64.21,87,67.26,85.74,69.51,83.49L81.49,71.51C83.74,69.26,85,66.21,85,63.03L85,15C85,10.58,81.42,7,77,7L13,7C8.58,7,5,10.58,5,15L5,79C5,83.42,8.58,87,13,87Z" fill="currentColor"/><path d="M13,83L61.69,83C63.81,83,65.84,82.16,67.34,80.66L82.66,65.34C84.16,63.84,85,61.81,85,59.69L85,13C85,8.58,81.42,5,77,5L13,5C8.58,5,5,8.58,5,13L5,75C5,79.42,8.58,83,13,83Z" fill="currentColor"/><path d="M5,13C5,8.58,8.58,5,13,5L75,5L14.45,6.78C10.25,6.9,6.86,10.25,6.69,14.44L5,55Z" fill="currentColor"/><path d="M59.29,71.05C58.2,66.27,61.64,61.65,66.53,61.3L85,60C85,61.77,84.3,63.48,83.04,64.73L66.73,81.04C65.47,82.3,63.77,83,62,83Z" fill="currentColor"/><path d="M62,68C62,63.58,65.58,60,70,60L85,60C85,61.77,84.3,63.48,83.04,64.73L66.73,81.04C65.48,82.3,63.77,83,62,83Z" fill="currentColor"/><path d="M62,68C62,63.58,65.58,60,70,60L85,60L70.68,61.69C67.01,62.13,64.11,65.03,63.68,68.71L62,83Z" fill="currentColor"/><path d="M33.76,69.49L84.87,20L84.86,40.96L46.43,72L29,72Z" fill="currentColor"/><path d="M17,64L17,72L29,72L32,64Z" fill="currentColor"/><path d="M32.51,55.97L29,72L45.03,68.49L38.77,62.23Z" fill="currentColor"/><path d="M29,72L45.03,68.49L38.77,62.23Z" fill="currentColor"/><path d="M32.51,55.98L45.03,68.5L82.81,30.71L70.29,18.19Z" fill="currentColor"/><path d="M38.77,62.23L45.03,68.49L82.81,30.7L76.55,24.45Z" fill="currentColor"/><path d="M89.24,24.29C89.42,24.11,89.56,23.92,89.67,23.72C89.89,23.32,90,22.9,90,22.45C90,22.11,89.93,21.74,89.79,21.41C89.74,21.31,89.69,21.22,89.63,21.12C89.52,20.93,89.39,20.76,89.22,20.59C88.47,19.84,81.11,12.48,80.4,11.77C80.2,11.57,79.98,11.41,79.73,11.29C79.64,11.25,79.54,11.19,79.44,11.16C79.16,11.05,78.86,11.01,78.56,11C78.12,11,77.68,11.11,77.29,11.34C77.08,11.45,76.89,11.59,76.71,11.77C75.26,13.22,73.81,14.67,72.35,16.12C72.58,16.36,84.59,28.37,84.87,28.64L84.88,28.64C86.33,27.19,87.78,25.74,89.24,24.29Z" fill="currentColor"/><path d="M78.62,22.38C78.62,22.38,84.73,28.5,84.88,28.64C86.33,27.19,87.78,25.74,89.24,24.29C89.42,24.11,89.56,23.92,89.67,23.72C89.89,23.32,90,22.9,90,22.45C90,22.11,89.93,21.74,89.79,21.41C89.74,21.31,89.69,21.22,89.63,21.12C89.52,20.93,89.39,20.76,89.22,20.59C88.84,20.22,86.84,18.21,84.82,16.2" fill="none" stroke="currentColor" stroke-width="2" stroke-linecap="round" stroke-linejoin="round"/><path d="M68.25,20.23L80.77,32.75L84.87,28.65L72.35,16.13Z" fill="currentColor"/><path d="M74.5,26.5L80.76,32.75L84.87,28.64L78.61,22.39Z" fill="currentColor"/></svg>