<svg xmlns="http://www.w3.org/2000/svg" viewBox="0 0 90 90" fill="currentColor"><path d="M14,6L62.03,6C65.21,6,68.26,7.26,70.51,9.51L82.49,21.49C84.74,23.74,86,26.79,86,29.97L86,78C86,82.42,82.42,86,78,86L14,86C9.58,86,6,82.42,6,78L6,14C6,9.58,9.58,6,14,6ZM14,5L62.69,5C64.81,5,66.84,5.84,68.34,7.34L83.66,22.66C85.16,24.16,86,26.19,86,28.31L86,75C86,79.42,82.42,83,78,83L14,83C9.58,83,6,79.42,6,75L6,13C6,8.58,9.58,5,14,5ZM6,75C6,79.42,9.58,83,14,83L76,83L15.45,81.22C11.25,81.1,7.86,77.75,7.69,73.56L6,33ZM60.29,16.95C59.2,21.73,62.64,26.35,67.53,26.7L86,28C86,26.23,85.3,24.52,84.04,23.27L67.73,6.96C66.47,5.7,64.77,5,63,5ZM63,20C63,24.42,66.58,28,71,28L86,28C86,26.23,85.3,24.52,84.04,23.27L67.73,6.96C66.48,5.7,64.77,5,63,5ZM63,20C63,24.42,66.58,28,71,28L86,28L71.68,26.31C68.01,25.87,65.11,22.97,64.68,19.29L63,5ZM18,32L18,40L41.6,40L41.6,32ZM18,48L18,56L41.6,56L41.6,48ZM18,16L18,24L54.31,24L54.31,16ZM18,64L18,72L74,72L74,64ZM50,32L50,56L74,56L74,32ZM50,32L50,44L62,44L62,32ZM62,44L62,56L74,56L74,44Z"/></svg>