<svg xmlns="http://www.w3.org/2000/svg" viewBox="0 0 90 90" fill="currentColor"><path d="M14,6L62.03,6C65.21,6,68.26,7.26,70.51,9.51L82.49,21.49C84.74,23.74,86,26.79,86,29.97L86,78C86,82.42,82.42,86,78,86L14,86C9.58,86,6,82.42,6,78L6,14C6,9.58,9.58,6,14,6ZM14,10L62.69,10C64.81,10,66.84,10.84,68.34,12.34L83.66,27.66C85.16,29.16,86,31.19,86,33.31L86,80C86,84.42,82.42,88,78,88L14,88C9.58,88,6,84.42,6,80L6,18C6,13.58,9.58,10,14,10ZM6,80C6,84.42,9.58,88,14,88L76,88L15.45,86.22C11.25,86.1,7.86,82.75,7.69,78.56L6,38ZM60.29,21.95C59.2,26.73,62.64,31.35,67.53,31.7L86,33C86,31.23,85.3,29.52,84.04,28.27L67.73,11.96C66.47,10.7,64.77,10,63,10ZM63,25C63,29.42,66.58,33,71,33L86,33C86,31.23,85.3,29.52,84.04,28.27L67.73,11.96C66.48,10.7,64.77,10,63,10ZM63,25C63,29.42,66.58,33,71,33L86,33L71.68,31.31C68.01,30.87,65.11,27.97,64.68,24.29L63,10ZM43,76L43,68L74,68L74,76ZM43,60L43,52L74,52L74,60ZM74,44L74,36L18,36L18,44ZM18,28L18,20L30,20L33,28ZM79.61,69.61L85.87,63.36L81.76,59.25L75.5,65.5ZM34.76,22.51L86,72L86,51.04L47.43,20L30,20ZM67.31,36L48.73,36L57.01,44L74,44L74,41.38ZM27.77,52C33.7,52,36.82,54.57,36.82,58.62C36.82,61.36,35.45,63.31,33.22,64.31C35.04,65.34,36.17,67.15,36.17,69.52C36.17,73.39,33.19,76,27.43,76L18,76L18,52ZM23.52,61.94L27.22,61.94C29.79,61.94,31.3,61.19,31.3,59.41C31.3,57.55,29.79,56.7,27.22,56.7L23.52,56.7ZM23.52,71.3L26.71,71.3C29.18,71.3,30.65,70.45,30.65,68.7C30.65,66.95,29.14,66.19,26.71,66.19L23.52,66.19ZM33.51,36.03L30,20L46.03,23.51L39.77,29.77ZM30,20L46.03,23.51L39.77,29.77ZM33.51,36.02L46.03,23.5L83.81,61.29L71.29,73.81ZM39.77,29.77L46.03,23.51L83.81,61.3L77.55,67.55ZM90.24,67.71C90.42,67.89,90.56,68.08,90.67,68.28C90.89,68.68,91,69.1,91,69.55C91,69.89,90.93,70.26,90.79,70.59C90.74,70.69,90.69,70.78,90.63,70.88C90.52,71.07,90.39,71.24,90.22,71.41C89.47,72.16,82.11,79.52,81.4,80.23C81.2,80.43,80.98,80.59,80.73,80.71C80.64,80.75,80.54,80.81,80.44,80.84C80.16,80.95,79.86,80.99,79.56,81C79.12,81,78.68,80.89,78.29,80.66C78.08,80.55,77.89,80.41,77.71,80.23C76.26,78.78,74.81,77.33,73.35,75.88C73.58,75.64,85.59,63.63,85.87,63.36L85.88,63.36C87.33,64.81,88.78,66.26,90.24,67.71ZM79.62,69.62C79.62,69.62,85.73,63.5,85.88,63.36C87.33,64.81,88.78,66.26,90.24,67.71C90.42,67.89,90.56,68.08,90.67,68.28C90.89,68.67,91,69.1,91,69.55C91,69.89,90.93,70.26,90.79,70.59C90.74,70.69,90.69,70.78,90.63,70.88C90.52,71.07,90.39,71.24,90.22,71.41C89.84,71.78,87.84,73.79,85.82,75.8M69.25,71.77L81.77,59.25L85.87,63.35L73.35,75.87ZM75.5,65.5L81.76,59.25L85.87,63.36L79.61,69.61Z"/></svg>