<svg xmlns="http://www.w3.org/2000/svg" viewBox="0 0 90 90"><path d="M13,7L77,7C81.42,7,85,10.58,85,15L85,77C85,81.42,81.42,85,77,85L13,85C8.58,85,5,81.42,5,77L5,15C5,10.58,8.58,7,13,7Z" fill="currentColor"/><path d="M13,5L77,5C81.42,5,85,8.58,85,13L85,73C85,77.42,81.42,81,77,81L13,81C8.58,81,5,77.42,5,73L5,13C5,8.58,8.58,5,13,5Z" fill="currentColor"/><path d="M5,13C5,8.58,8.58,5,13,5L75,5L16.38,6.29C11.11,6.41,6.83,10.61,6.61,15.88L5,55Z" fill="currentColor"/><path d="M85,73C85,77.42,81.42,81,77,81L54,81L65.86,79.94C75.4,79.08,83,71.58,83.97,62.05L85,52Z" fill="currentColor"/><path d="M49,24.25L49,20.5L53,20.5L53,16.75L45,16.75L45,13L41,13L41,16.75L37,16.75L37,20.5L41,20.5L41,24.25Z" fill="currentColor"/><path d="M41,24.25L41,31.75L37,31.75L37,24.25Z" fill="currentColor"/><path d="M21,46.75L21,39.25L25,39.25L25,43L29,43L29,39.25L25,39.25L25,35.5L13,35.5L13,39.25L17,39.25L17,43L13,43L13,50.5L17,50.5L17,46.75Z" fill="currentColor"/><path d="M33,43L33,39.25L29,39.25L29,35.5L45,35.5L45,46.75L37,46.75L37,43Z" fill="currentColor"/><path d="M53,35.5L53,28L49,28L49,39.25L53,39.25L53,43L49,43L49,50.5L65,50.5L65,61.75L53,61.75L53,65.5L49,65.5L49,73L57,73L57,69.25L61,69.25L61,65.5L65,65.5L65,69.25L69,69.25L69,73L77,73L77,69.25L73,69.25L73,65.5L77,65.5L77,61.75L73,61.75L73,65.5L69,65.5L69,58L77,58L77,39.25L73,39.25L73,54.25L69,54.25L69,58L69,43L57,43L57,35.5Z" fill="currentColor"/><path d="M53,43L57,43L57,46.75L53,46.75Z" fill="currentColor"/><path d="M65,35.5L65,39.25L61,39.25L61,35.5Z" fill="currentColor"/><path d="M69,39.25L73,39.25L73,35.5L69,35.5Z" fill="currentColor"/><path d="M33,46.75L33,50.5L29,50.5L29,46.75Z" fill="currentColor"/><path d="M53,58L53,54.25L41,54.25L41,50.5L37,50.5L37,58L45,58L45,61.75L37,61.75L37,73L45,73L45,61.75L49,61.75L49,58Z" fill="currentColor"/><path d="M61,54.25L61,58L57,58L57,54.25Z" fill="currentColor"/><path d="M21,20.5L21,24.25L25,24.25L25,20.5Z" fill="currentColor"/><path d="M33,13L33,31.75L13,31.75L13,13Z" fill="currentColor"/><path d="M29,28L29,16.75L17,16.75L17,28Z" fill="currentColor"/><path d="M65,20.5L65,24.25L69,24.25L69,20.5Z" fill="currentColor"/><path d="M57,13L77,13L77,31.75L57,31.75Z" fill="currentColor"/><path d="M73,28L73,16.75L61,16.75L61,28Z" fill="currentColor"/><path d="M21,61.75L21,65.5L25,65.5L25,61.75Z" fill="currentColor"/><path d="M13,73L13,54.25L33,54.25L33,73Z" fill="currentColor"/><path d="M17,58L17,69.25L29,69.25L29,58Z" fill="currentColor"/></svg>