<svg xmlns="http://www.w3.org/2000/svg" viewBox="0 0 90 90"><path d="M13,5L61.03,5C64.21,5,67.26,6.26,69.51,8.51L81.49,20.49C83.74,22.74,85,25.79,85,28.97L85,77C85,81.42,81.42,85,77,85L13,85C8.58,85,5,81.42,5,77L5,13C5,8.58,8.58,5,13,5Z" fill="currentColor"/><path d="M13,4L61.69,4C63.81,4,65.84,4.84,67.34,6.34L82.66,21.66C84.16,23.16,85,25.19,85,27.31L85,74C85,78.42,81.42,82,77,82L13,82C8.58,82,5,78.42,5,74L5,12C5,7.58,8.58,4,13,4Z" fill="currentColor"/><path d="M5,74C5,78.42,8.58,82,13,82L75,82L14.45,80.22C10.25,80.1,6.86,76.75,6.69,72.56L5,32Z" fill="currentColor"/><path d="M59.29,15.95C58.2,20.73,61.64,25.35,66.53,25.7L85,27C85,25.23,84.3,23.52,83.04,22.27L66.73,5.96C65.47,4.7,63.77,4,62,4Z" fill="currentColor"/><path d="M62,19C62,23.42,65.58,27,70,27L85,27C85,25.23,84.3,23.52,83.04,22.27L66.73,5.96C65.48,4.7,63.77,4,62,4Z" fill="currentColor"/><path d="M62,19C62,23.42,65.58,27,70,27L85,27L70.68,25.31C67.01,24.87,64.11,21.97,63.68,18.29L62,4Z" fill="currentColor"/><path d="M17,31L17,39L40.6,39L40.6,31Z" fill="currentColor"/><path d="M17,47L17,55L40.6,55L40.6,47Z" fill="currentColor"/><path d="M17,15L17,23L53.31,23L53.31,15Z" fill="currentColor"/><path d="M17,63L17,71L73,71L73,63Z" fill="currentColor"/><path d="M49,31L49,55L73,55L73,31Z" fill="currentColor"/><path d="M49,31L49,43L61,43L61,31Z" fill="currentColor"/><path d="M61,43L61,55L73,55L73,43Z" fill="currentColor"/></svg>