<svg xmlns="http://www.w3.org/2000/svg" viewBox="0 0 90 90" fill="currentColor"><path d="M14,8L78,8C82.42,8,86,11.58,86,16L86,78C86,82.42,82.42,86,78,86L14,86C9.58,86,6,82.42,6,78L6,16C6,11.58,9.58,8,14,8ZM14,6L78,6C82.42,6,86,9.58,86,14L86,74C86,78.42,82.42,82,78,82L14,82C9.58,82,6,78.42,6,74L6,14C6,9.58,9.58,6,14,6ZM6,14C6,9.58,9.58,6,14,6L76,6L17.38,7.29C12.11,7.41,7.83,11.61,7.61,16.88L6,56ZM86,74C86,78.42,82.42,82,78,82L55,82L66.86,80.94C76.4,80.08,84,72.58,84.97,63.05L86,53ZM50,25.25L50,21.5L54,21.5L54,17.75L46,17.75L46,14L42,14L42,17.75L38,17.75L38,21.5L42,21.5L42,25.25ZM42,25.25L42,32.75L38,32.75L38,25.25ZM22,47.75L22,40.25L26,40.25L26,44L30,44L30,40.25L26,40.25L26,36.5L14,36.5L14,40.25L18,40.25L18,44L14,44L14,51.5L18,51.5L18,47.75ZM34,44L34,40.25L30,40.25L30,36.5L46,36.5L46,47.75L38,47.75L38,44ZM54,36.5L54,29L50,29L50,40.25L54,40.25L54,44L50,44L50,51.5L66,51.5L66,62.75L54,62.75L54,66.5L50,66.5L50,74L58,74L58,70.25L62,70.25L62,66.5L66,66.5L66,70.25L70,70.25L70,74L78,74L78,70.25L74,70.25L74,66.5L78,66.5L78,62.75L74,62.75L74,66.5L70,66.5L70,59L78,59L78,40.25L74,40.25L74,55.25L70,55.25L70,59L70,44L58,44L58,36.5ZM54,44L58,44L58,47.75L54,47.75ZM66,36.5L66,40.25L62,40.25L62,36.5ZM70,40.25L74,40.25L74,36.5L70,36.5ZM34,47.75L34,51.5L30,51.5L30,47.75ZM54,59L54,55.25L42,55.25L42,51.5L38,51.5L38,59L46,59L46,62.75L38,62.75L38,74L46,74L46,62.75L50,62.75L50,59ZM62,55.25L62,59L58,59L58,55.25ZM22,21.5L22,25.25L26,25.25L26,21.5ZM34,14L34,32.75L14,32.75L14,14ZM30,29L30,17.75L18,17.75L18,29ZM66,21.5L66,25.25L70,25.25L70,21.5ZM58,14L78,14L78,32.75L58,32.75ZM74,29L74,17.75L62,17.75L62,29ZM22,62.75L22,66.5L26,66.5L26,62.75ZM14,74L14,55.25L34,55.25L34,74ZM18,59L18,70.25L30,70.25L30,59Z"/></svg>