<svg xmlns="http://www.w3.org/2000/svg" viewBox="0 0 90 90"><path d="M13,88L61.03,88C64.21,88,67.26,86.74,69.51,84.49L81.49,72.51C83.74,70.26,85,67.21,85,64.03L85,16C85,11.58,81.42,8,77,8L13,8C8.58,8,5,11.58,5,16L5,80C5,84.42,8.58,88,13,88Z" fill="currentColor"/><path d="M13,84L61.69,84C63.81,84,65.84,83.16,67.34,81.66L82.66,66.34C84.16,64.84,85,62.81,85,60.69L85,14C85,9.58,81.42,6,77,6L13,6C8.58,6,5,9.58,5,14L5,76C5,80.42,8.58,84,13,84Z" fill="currentColor"/><path d="M5,14C5,9.58,8.58,6,13,6L75,6L14.45,7.78C10.25,7.9,6.86,11.25,6.69,15.44L5,56Z" fill="currentColor"/><path d="M59.29,72.05C58.2,67.27,61.64,62.65,66.53,62.3L85,61C85,62.77,84.3,64.48,83.04,65.73L66.73,82.04C65.47,83.3,63.77,84,62,84Z" fill="currentColor"/><path d="M62,69C62,64.58,65.58,61,70,61L85,61C85,62.77,84.3,64.48,83.04,65.73L66.73,82.04C65.48,83.3,63.77,84,62,84Z" fill="currentColor"/><path d="M62,69C62,64.58,65.58,61,70,61L85,61L70.68,62.69C67.01,63.13,64.11,66.03,63.68,69.71L62,84Z" fill="currentColor"/><path d="M73,17L73,25L17,25L17,17Z" fill="currentColor"/><path d="M17,33L17,41L73,41L73,33Z" fill="currentColor"/><path d="M17,49L17,57L52.63,57L52.63,49Z" fill="currentColor"/></svg>