<svg xmlns="http://www.w3.org/2000/svg" viewBox="0 0 90 90"><path d="M13,87L61.03,87C64.21,87,67.26,85.74,69.51,83.49L81.49,71.51C83.74,69.26,85,66.21,85,63.03L85,15C85,10.58,81.42,7,77,7L13,7C8.58,7,5,10.58,5,15L5,79C5,83.42,8.58,87,13,87Z" fill="currentColor"/><path d="M13,83L61.69,83C63.81,83,65.84,82.16,67.34,80.66L82.66,65.34C84.16,63.84,85,61.81,85,59.69L85,13C85,8.58,81.42,5,77,5L13,5C8.58,5,5,8.58,5,13L5,75C5,79.42,8.58,83,13,83Z" fill="currentColor"/><path d="M5,13C5,8.58,8.58,5,13,5L75,5L14.45,6.78C10.25,6.9,6.86,10.25,6.69,14.44L5,55Z" fill="currentColor"/><path d="M59.29,71.05C58.2,66.27,61.64,61.65,66.53,61.3L85,60C85,61.77,84.3,63.48,83.04,64.73L66.73,81.04C65.47,82.3,63.77,83,62,83Z" fill="currentColor"/><path d="M62,68C62,63.58,65.58,60,70,60L85,60C85,61.77,84.3,63.48,83.04,64.73L66.73,81.04C65.48,82.3,63.77,83,62,83Z" fill="currentColor"/><path d="M62,68C62,63.58,65.58,60,70,60L85,60L70.68,61.69C67.01,62.13,64.11,65.03,63.68,68.71L62,83Z" fill="currentColor"/></svg>