<svg xmlns="http://www.w3.org/2000/svg" viewBox="0 0 90 90" fill="currentColor"><path d="M14,6L62.03,6C65.21,6,68.26,7.26,70.51,9.51L82.49,21.49C84.74,23.74,86,26.79,86,29.97L86,78C86,82.42,82.42,86,78,86L14,86C9.58,86,6,82.42,6,78L6,14C6,9.58,9.58,6,14,6ZM14,10L62.69,10C64.81,10,66.84,10.84,68.34,12.34L83.66,27.66C85.16,29.16,86,31.19,86,33.31L86,80C86,84.42,82.42,88,78,88L14,88C9.58,88,6,84.42,6,80L6,18C6,13.58,9.58,10,14,10ZM6,80C6,84.42,9.58,88,14,88L76,88L15.45,86.22C11.25,86.1,7.86,82.75,7.69,78.56L6,38ZM60.29,21.95C59.2,26.73,62.64,31.35,67.53,31.7L86,33C86,31.23,85.3,29.52,84.04,28.27L67.73,11.96C66.47,10.7,64.77,10,63,10ZM63,25C63,29.42,66.58,33,71,33L86,33C86,31.23,85.3,29.52,84.04,28.27L67.73,11.96C66.48,10.7,64.77,10,63,10ZM63,25C63,29.42,66.58,33,71,33L86,33L71.68,31.31C68.01,30.87,65.11,27.97,64.68,24.29L63,10ZM34.76,23.51L85.87,73L85.86,52.04L47.43,21L30,21ZM18,29L18,21L30,21L33,29ZM33.51,37.03L30,21L46.03,24.51L39.77,30.77ZM30,21L46.03,24.51L39.77,30.77ZM33.51,37.02L46.03,24.5L83.81,62.29L71.29,74.81ZM39.77,30.77L46.03,24.51L83.81,62.3L77.55,68.55ZM90.24,68.71C90.42,68.89,90.56,69.08,90.67,69.28C90.89,69.68,91,70.1,91,70.55C91,70.89,90.93,71.26,90.79,71.59C90.74,71.69,90.69,71.78,90.63,71.88C90.52,72.07,90.39,72.24,90.22,72.41C89.47,73.16,82.11,80.52,81.4,81.23C81.2,81.43,80.98,81.59,80.73,81.71C80.64,81.75,80.54,81.81,80.44,81.84C80.16,81.95,79.86,81.99,79.56,82C79.12,82,78.68,81.89,78.29,81.66C78.08,81.55,77.89,81.41,77.71,81.23C76.26,79.78,74.81,78.33,73.35,76.88C73.58,76.64,85.59,64.63,85.87,64.36L85.88,64.36C87.33,65.81,88.78,67.26,90.24,68.71ZM79.62,70.62C79.62,70.62,85.73,64.5,85.88,64.36C87.33,65.81,88.78,67.26,90.24,68.71C90.42,68.89,90.56,69.08,90.67,69.28C90.89,69.67,91,70.1,91,70.55C91,70.89,90.93,71.26,90.79,71.59C90.74,71.69,90.69,71.78,90.63,71.88C90.52,72.07,90.39,72.24,90.22,72.41C89.84,72.78,87.84,74.79,85.82,76.8M69.25,72.77L81.77,60.25L85.87,64.35L73.35,76.87ZM75.5,66.5L81.76,60.25L85.87,64.36L79.61,70.61Z"/></svg>