<svg xmlns="http://www.w3.org/2000/svg" viewBox="0 0 90 90"><path d="M13,87L61.03,87C64.21,87,67.26,85.74,69.51,83.49L81.49,71.51C83.74,69.26,85,66.21,85,63.03L85,15C85,10.58,81.42,7,77,7L13,7C8.58,7,5,10.58,5,15L5,79C5,83.42,8.58,87,13,87Z" fill="currentColor"/><path d="M13,83L61.69,83C63.81,83,65.84,82.16,67.34,80.66L82.66,65.34C84.16,63.84,85,61.81,85,59.69L85,13C85,8.58,81.42,5,77,5L13,5C8.58,5,5,8.58,5,13L5,75C5,79.42,8.58,83,13,83Z" fill="currentColor"/><path d="M5,13C5,8.58,8.58,5,13,5L75,5L14.45,6.78C10.25,6.9,6.86,10.25,6.69,14.44L5,55Z" fill="currentColor"/><path d="M62,68C62,63.58,65.58,60,70,60L85,60C85,61.77,84.3,63.48,83.04,64.73L66.73,81.04C65.48,82.3,63.77,83,62,83Z" fill="currentColor"/><path d="M62,68C62,63.58,65.58,60,70,60L85,60L70.68,61.69C67.01,62.13,64.11,65.03,63.68,68.71L62,83Z" fill="currentColor"/><path d="M49,32L49,40L72.6,40L72.6,32Z" fill="currentColor"/><path d="M49,48L49,56L72.6,56L72.6,48Z" fill="currentColor"/><path d="M17,16L17,24L73,24L73,16Z" fill="currentColor"/><path d="M17,64L17,72L73,72L73,64Z" fill="currentColor"/><path d="M17,32L17,56L41,56L41,32Z" fill="currentColor"/><path d="M29,34C31.6,34,34.68,35.83,34.68,40.2C34.68,42.83,33.79,44.43,33.08,45.71C32.62,46.54,32.23,47.24,32.23,48C32.23,49.48,33.5,49.77,35.01,50.11C37.24,50.61,40,51.23,40,56L18,56C18,51.23,20.76,50.61,22.99,50.11C24.5,49.77,25.77,49.48,25.77,48C25.77,47.24,25.38,46.54,24.92,45.71C24.21,44.43,23.32,42.83,23.32,40.2C23.32,35.83,26.4,34,29,34Z" fill="currentColor"/><path d="M5,13C5,8.58,8.58,5,13,5L75,5L14.45,6.78C10.25,6.9,6.86,10.25,6.69,14.44L5,55Z" fill="currentColor"/><path d="M62,68C62,63.58,65.58,60,70,60L85,60C85,61.77,84.3,63.48,83.04,64.73L66.73,81.04C65.48,82.3,63.77,83,62,83Z" fill="currentColor"/><path d="M62,68C62,63.58,65.58,60,70,60L85,60L70.68,61.69C67.01,62.13,64.11,65.03,63.68,68.71L62,83Z" fill="currentColor"/></svg>