<svg xmlns="http://www.w3.org/2000/svg" viewBox="0 0 90 90"><path d="M8,5L52,5C56.42,5,60,8.58,60,13L60,57C60,61.42,56.42,65,52,65L8,65C3.58,65,0,61.42,0,57L0,13C0,8.58,3.58,5,8,5Z" fill="currentColor"/><path d="M8,5L52,5C56.42,5,60,8.58,60,13L60,53C60,57.42,56.42,61,52,61L8,61C3.58,61,0,57.42,0,53L0,13C0,8.58,3.58,5,8,5Z" fill="currentColor"/><path d="M0,13C0,8.58,3.58,5,8,5L40,5L8.59,5.97C4.4,6.1,1.01,9.45,0.85,13.65L0,35Z" fill="currentColor"/><path d="M60,53C60,57.42,56.42,61,52,61L10,61L51.12,59.65C55.32,59.51,58.69,56.15,58.85,51.95L60,21Z" fill="currentColor"/><path d="M35,15L35,23L50,23L50,15Z" fill="currentColor"/><path d="M50,29L50,37L38,37L38,29Z" fill="currentColor"/><path d="M50,43L50,51L10,51L10,43Z" fill="currentColor"/><path d="M24.83,14.95L34.97,37L27.32,37L19.69,18.86L21.21,18.86L13.68,37L6.15,37L16.2,14.95Z" fill="currentColor"/><path d="M26.44,27.55L28.39,33.06L12.92,33.06L14.84,27.55Z" fill="currentColor"/><path d="M30,61L21,61L30,33Z" fill="currentColor"/><path d="M26.79,43L30,43L30,51L24.21,51Z" fill="currentColor"/><path d="M33,61L33,65L21,65L21,61Z" fill="currentColor"/><path d="M38,23L82,23C86.42,23,90,26.58,90,31L90,75C90,79.42,86.42,83,82,83L38,83C33.58,83,30,79.42,30,75L30,31C30,26.58,33.58,23,38,23Z" fill="currentColor"/><path d="M38,23L82,23C86.42,23,90,26.58,90,31L90,71C90,75.42,86.42,79,82,79L38,79C33.58,79,30,75.42,30,71L30,31C30,26.58,33.58,23,38,23Z" fill="currentColor"/><path d="M30,31C30,26.58,33.58,23,38,23L70,23L38.59,23.97C34.4,24.1,31.01,27.45,30.85,31.65L30,53Z" fill="currentColor"/><path d="M90,71C90,75.42,86.42,79,82,79L40,79L81.12,77.65C85.32,77.51,88.69,74.15,88.85,69.95L90,39Z" fill="currentColor"/><path d="M64,33L64,41L80,41L80,33Z" fill="currentColor"/><path d="M80,47L80,55L64,55L64,47Z" fill="currentColor"/><path d="M80,61L80,69L40,69L40,61Z" fill="currentColor"/><path d="M52.58,36.04L53.47,38.81L39.64,38.81L39.64,32.95L59.45,32.95L59.45,37.45L46.41,51.91L45.53,49.14L59.45,49.14L59.45,55L39.64,55L39.64,50.5Z" fill="currentColor"/></svg>