<svg xmlns="http://www.w3.org/2000/svg" viewBox="0 0 90 90"><path d="M52.84,39.45L61.78,39.45C62.83,37.51,63.36,35.71,63.36,33.47L53.22,26.79C56.74,24.24,59.04,20.1,59.04,15.42C59.04,9.53,55.41,4.48,50.26,2.4C48.63,1.74,37.15,39.45,37.15,39.45C37.11,40.31,37.1,41.45,37.1,42.8C37.1,46.55,46.31,45.98,45.82,49.29C45.08,54.24,44.93,58,40.67,69.88C37.79,77.9,18.62,69.88,17.25,73.82C16.3,76.56,15.79,79.63,15.79,82.94C15.79,83.29,16.56,88.6,45,88.6C73.44,88.6,74.21,83.29,74.21,82.94C74.21,74.88,71.2,68.23,66.07,64.32L66.06,64.32C51.4,53.14,53.03,43.44,52.84,39.45Z" fill="currentColor"/><path d="M48.32,49.89C49.38,44.16,40.68,43.13,37.11,42.61C36.95,47.5,35.58,55.45,23.93,64.33C20.79,66.72,18.45,70.15,17.1,74.29C20.24,75.82,24.44,76.74,30.91,76.74C35.06,76.74,42.74,77.24,44.48,69.36L44.48,69.34C46.06,62.15,47.46,54.48,48.32,49.89Z" fill="currentColor"/><path d="M51.79,33.47L46.05,26.79C52.16,24.18,55.83,19.29,55.83,13.58C55.83,9.03,53.66,4.98,50.3,2.41C48.66,1.74,46.88,1.37,45,1.37C37.24,1.37,30.96,7.66,30.96,15.41C30.96,20.09,33.26,24.23,36.78,26.78L26.64,33.46C26.64,35.7,27.17,37.5,28.22,39.44L50.59,39.44L50.59,39.45C51.97,35.87,51.79,33.47,51.79,33.47Z" fill="currentColor"/><path d="M36.74,14.45C33.19,14.03,36.61,3.06,44.2,4.24C52.3,5.5,40.47,14.9,36.74,14.45Z" fill="currentColor"/><path d="M78.79,1.97C78.21,1.97,77.74,2.44,77.74,3.02L77.74,11.41C77.74,11.99,78.21,12.46,78.79,12.46L82.65,12.46C82.65,15.6,80.68,18.17,78.18,18.42C78.05,18.43,77.78,18.49,77.78,18.84L77.78,22.36C77.78,22.9,78.11,22.88,78.27,22.88C83.47,22.61,87.61,18.05,87.61,12.47L87.61,3.02C87.61,2.44,87.14,1.97,86.56,1.97L86.58,1.97Z" fill="currentColor"/><path d="M65.44,1.97C64.86,1.97,64.39,2.44,64.39,3.02L64.39,11.41C64.39,11.99,64.86,12.46,65.44,12.46L69.3,12.46C69.3,15.6,67.33,18.17,64.83,18.42C64.7,18.43,64.43,18.49,64.43,18.84L64.43,22.36C64.43,22.9,64.76,22.88,64.92,22.88C70.12,22.61,74.26,18.05,74.26,12.47L74.26,3.02C74.26,2.44,73.79,1.97,73.21,1.97L73.23,1.97Z" fill="currentColor"/><path d="M11.03,22.87C11.61,22.87,12.08,22.4,12.08,21.82L12.08,13.43C12.08,12.85,11.61,12.38,11.03,12.38L7.17,12.38C7.17,9.24,9.14,6.67,11.64,6.42C11.77,6.41,12.04,6.35,12.04,6L12.04,2.48C12.04,1.94,11.71,1.96,11.55,1.96C6.34,2.25,2.2,6.81,2.2,12.39L2.2,21.83C2.2,22.41,2.67,22.88,3.25,22.88L3.24,22.87Z" fill="currentColor"/><path d="M24.37,22.87C24.95,22.87,25.42,22.4,25.42,21.82L25.42,13.43C25.42,12.85,24.95,12.38,24.37,12.38L20.51,12.38C20.51,9.24,22.48,6.67,24.98,6.42C25.11,6.41,25.38,6.35,25.38,6L25.38,2.48C25.38,1.94,25.05,1.96,24.89,1.96C19.69,2.23,15.55,6.79,15.55,12.37L15.55,21.81C15.55,22.39,16.02,22.86,16.6,22.86L16.58,22.87Z" fill="currentColor"/></svg>