<svg xmlns="http://www.w3.org/2000/svg" viewBox="0 0 90 90"><path d="M53.05,39.29L62.23,39.29C63.31,37.29,63.86,35.43,63.86,33.12L53.44,26.23C57.06,23.6,59.42,19.32,59.42,14.5C59.42,8.42,55.69,3.21,50.4,1.06C48.73,0.38,36.94,39.29,36.94,39.29C36.9,40.18,36.89,41.35,36.89,42.75C36.89,46.61,46.35,46.03,45.84,49.44C45.08,54.55,44.93,58.43,40.55,70.69C37.59,78.96,17.91,70.69,16.5,74.75C15.52,77.58,15,80.75,15,84.16C15,84.52,15.79,90,45,90C74.21,90,75,84.52,75,84.16C75,75.84,71.91,68.98,66.64,64.95L66.63,64.95C51.57,53.41,53.25,43.41,53.05,39.29Z" fill="currentColor"/><path d="M48.41,50.06C49.5,44.15,40.56,43.09,36.9,42.55C36.73,47.59,35.33,55.8,23.36,64.96C20.14,67.42,17.73,70.96,16.35,75.24C19.57,76.81,23.88,77.76,30.53,77.76C34.79,77.76,42.68,78.28,44.47,70.15L44.47,70.13C46.09,62.71,47.53,54.8,48.41,50.06Z" fill="currentColor"/><path d="M51.97,33.12L46.08,26.23C52.35,23.53,56.12,18.49,56.12,12.6C56.12,7.9,53.89,3.72,50.44,1.07C48.76,0.38,46.93,0,45,0C37.03,0,30.58,6.49,30.58,14.49C30.58,19.31,32.94,23.59,36.56,26.22L26.14,33.11C26.14,35.42,26.69,37.28,27.77,39.28L50.74,39.28L50.74,39.29C52.16,35.6,51.97,33.12,51.97,33.12Z" fill="currentColor"/><path d="M36.52,13.5C32.87,13.06,36.38,1.74,44.18,2.96C52.5,4.26,40.35,13.96,36.52,13.5Z" fill="currentColor"/></svg>