<svg xmlns="http://www.w3.org/2000/svg" viewBox="0 0 90 90" fill="currentColor"><path d="M53.84,51.52L62.78,51.52C63.83,53.46,64.36,55.26,64.36,57.5L54.22,64.18C57.74,66.73,60.04,70.87,60.04,75.55C60.04,81.44,56.41,86.49,51.26,88.57C49.63,89.23,38.15,51.52,38.15,51.52C38.11,50.66,38.1,49.52,38.1,48.17C38.1,44.42,47.31,44.99,46.82,41.68C46.08,36.73,45.93,32.97,41.67,21.09C38.79,13.07,19.62,21.09,18.25,17.15C17.3,14.41,16.79,11.34,16.79,8.03C16.79,7.68,17.56,2.37,46,2.37C74.44,2.37,75.21,7.68,75.21,8.03C75.21,16.09,72.2,22.74,67.07,26.65L67.06,26.65C52.4,37.83,54.03,47.53,53.84,51.52ZM49.32,41.08C50.38,46.81,41.68,47.84,38.11,48.36C37.95,43.47,36.58,35.52,24.93,26.64C21.79,24.25,19.45,20.82,18.1,16.68C21.24,15.15,25.44,14.23,31.91,14.23C36.06,14.23,43.74,13.73,45.48,21.61L45.48,21.63C47.06,28.82,48.46,36.49,49.32,41.08ZM52.79,57.5L47.05,64.18C53.16,66.79,56.83,71.68,56.83,77.39C56.83,81.94,54.66,85.99,51.3,88.56C49.66,89.23,47.88,89.6,46,89.6C38.24,89.6,31.96,83.31,31.96,75.56C31.96,70.88,34.26,66.74,37.78,64.19L27.64,57.51C27.64,55.27,28.17,53.47,29.22,51.53L51.59,51.53L51.59,51.52C52.97,55.1,52.79,57.5,52.79,57.5ZM37.74,76.52C34.19,76.94,37.61,87.91,45.2,86.73C53.3,85.47,41.47,76.07,37.74,76.52ZM79.79,89C79.21,89,78.74,88.53,78.74,87.95L78.74,79.56C78.74,78.98,79.21,78.51,79.79,78.51L83.65,78.51C83.65,75.37,81.68,72.8,79.18,72.55C79.05,72.54,78.78,72.48,78.78,72.13L78.78,68.61C78.78,68.07,79.11,68.09,79.27,68.09C84.47,68.36,88.61,72.92,88.61,78.5L88.61,87.95C88.61,88.53,88.14,89,87.56,89L87.58,89ZM66.44,89C65.86,89,65.39,88.53,65.39,87.95L65.39,79.56C65.39,78.98,65.86,78.51,66.44,78.51L70.3,78.51C70.3,75.37,68.33,72.8,65.83,72.55C65.7,72.54,65.43,72.48,65.43,72.13L65.43,68.61C65.43,68.07,65.76,68.09,65.92,68.09C71.12,68.36,75.26,72.92,75.26,78.5L75.26,87.95C75.26,88.53,74.79,89,74.21,89L74.23,89ZM12.03,68.1C12.61,68.1,13.08,68.57,13.08,69.15L13.08,77.54C13.08,78.12,12.61,78.59,12.03,78.59L8.17,78.59C8.17,81.73,10.14,84.3,12.64,84.55C12.77,84.56,13.04,84.62,13.04,84.97L13.04,88.49C13.04,89.03,12.71,89.01,12.55,89.01C7.34,88.72,3.2,84.16,3.2,78.58L3.2,69.14C3.2,68.56,3.67,68.09,4.25,68.09L4.24,68.1ZM25.37,68.1C25.95,68.1,26.42,68.57,26.42,69.15L26.42,77.54C26.42,78.12,25.95,78.59,25.37,78.59L21.51,78.59C21.51,81.73,23.48,84.3,25.98,84.55C26.11,84.56,26.38,84.62,26.38,84.97L26.38,88.49C26.38,89.03,26.05,89.01,25.89,89.01C20.69,88.74,16.55,84.18,16.55,78.6L16.55,69.16C16.55,68.58,17.02,68.11,17.6,68.11L17.58,68.1Z"/></svg>