<svg xmlns="http://www.w3.org/2000/svg" viewBox="0 0 90 90" fill="currentColor"><path d="M21,28L21,37L71,37L71,28C71,26.19,73.2,25.31,74.45,26.62L89.69,42.62C90.42,43.39,90.42,44.61,89.69,45.38L74.45,61.38C73.2,62.69,71,61.81,71,60L71,52L21,52L21,60C21,61.81,18.8,62.69,17.55,61.38L2.31,45.38C1.58,44.61,1.58,43.39,2.31,42.62L17.55,26.62C18.8,25.31,21,26.19,21,28ZM64,39.49C64,43.01,63.61,46.51,62.83,49.94L62.36,52L29.64,52L29.17,49.94C28.39,46.51,28,43.01,28,39.49ZM15,86L15,84.56C15,73.76,20.15,69.84,25.5,65.76C30.86,61.68,36.43,57.44,37.25,46L29.04,46C27.91,43.92,27.75,41.6,27.75,39.28L36.42,34C32.49,30.88,30.48,25.92,30.48,21.44C30.48,12.96,37.38,6.08,46.04,6C54.62,6.08,61.52,12.96,61.52,21.44C61.52,25.92,59.51,30.88,55.58,34L64.25,39.28C64.25,41.6,64.09,43.92,62.96,46L54.75,46C55.57,57.44,61.14,61.68,66.5,65.76C71.85,69.84,77,73.76,77,84.56L77,86ZM51.29,6.94C57.27,9.11,61.52,14.78,61.52,21.44C61.52,25.92,59.52,30.88,55.58,34L64.25,39.28C64.25,41.6,64.09,43.92,62.96,46L54.75,46C55.57,57.44,61.14,61.68,66.5,65.76C68.25,67.1,69.98,68.41,71.51,69.96C58.56,68,49.94,58.76,41.39,49.6C40.26,48.39,39.13,47.19,38,46L37.25,46L29.04,46C28.65,45.28,28.37,44.52,28.18,43.75L54,43.75C60.22,39.73,54.34,34.47,53.84,34.03C53.83,34.01,53.82,34,53.81,34L45,34C45,34,52.25,32.37,55.97,27.11C60.93,20.08,56.72,10.33,51.29,6.94ZM31.02,25.55C32.25,12.91,40.4,6.67,45.73,6.02L45.54,6.02C45.47,6.02,45.4,6.02,45.33,6.02C37,6.46,30.48,13.19,30.48,21.44C30.48,22.79,30.66,24.18,31.02,25.55ZM27.75,39.28L36.41,34L34.53,39.99L27.76,40C27.75,39.76,27.75,39.52,27.75,39.28ZM15,86C17.72,77.01,21.7,74.12,28.42,69.25C28.91,68.9,29.41,68.53,29.93,68.15C34.21,65.02,35.07,59.13,35.64,53.84C33.43,59.72,29.41,62.79,25.5,65.76C20.15,69.84,15,73.76,15,84.56Z"/></svg>