<svg xmlns="http://www.w3.org/2000/svg" viewBox="0 0 90 90" fill="currentColor"><path d="M54.05,51.71L63.23,51.71C64.31,53.71,64.86,55.57,64.86,57.88L54.44,64.77C58.06,67.4,60.42,71.68,60.42,76.5C60.42,82.58,56.69,87.79,51.4,89.94C49.73,90.62,37.94,51.71,37.94,51.71C37.9,50.82,37.89,49.65,37.89,48.25C37.89,44.39,47.35,44.97,46.84,41.56C46.08,36.45,45.93,32.57,41.55,20.31C38.59,12.04,18.91,20.31,17.5,16.25C16.52,13.42,16,10.25,16,6.84C16,6.48,16.79,1,46,1C75.21,1,76,6.48,76,6.84C76,15.16,72.91,22.02,67.64,26.05L67.63,26.05C52.57,37.59,54.25,47.59,54.05,51.71ZM49.41,40.94C50.5,46.85,41.56,47.91,37.9,48.45C37.73,43.41,36.33,35.2,24.36,26.04C21.14,23.58,18.73,20.04,17.35,15.76C20.57,14.19,24.88,13.24,31.53,13.24C35.79,13.24,43.68,12.72,45.47,20.85L45.47,20.87C47.09,28.29,48.53,36.2,49.41,40.94ZM52.97,57.88L47.08,64.77C53.35,67.47,57.12,72.51,57.12,78.4C57.12,83.1,54.89,87.28,51.44,89.93C49.76,90.62,47.93,91,46,91C38.03,91,31.58,84.51,31.58,76.51C31.58,71.69,33.94,67.41,37.56,64.78L27.14,57.89C27.14,55.58,27.69,53.72,28.77,51.72L51.74,51.72L51.74,51.71C53.16,55.4,52.97,57.88,52.97,57.88ZM37.52,77.5C33.87,77.94,37.38,89.26,45.18,88.04C53.5,86.74,41.35,77.04,37.52,77.5Z"/></svg>