<svg xmlns="http://www.w3.org/2000/svg" viewBox="0 0 90 90" fill="currentColor"><path d="M48.83,2.17L49.54,2.88L55.19,8.54L55.2,8.54L89.37,42.72C90.94,44.28,90.94,46.81,89.37,48.37L83.01,54.74C81.45,56.3,78.91,56.3,77.35,54.74L65,42.38L65,86L27,86L27,42.38L15.36,54.03C13.79,55.59,11.26,55.59,9.7,54.03L3.33,47.67C1.77,46.1,1.77,43.57,3.33,42.01L43.17,2.17C44.73,0.61,47.27,0.61,48.83,2.17ZM86.64,48.41C88.01,46.43,87.77,43.76,86.08,42.05L47.42,3.01C46.64,2.22,45.36,2.22,44.58,3.01L5.92,42.05C4.23,43.76,3.99,46.43,5.36,48.41L8.25,52.58L3.33,47.67C1.77,46.1,1.77,43.57,3.33,42.01L43.17,2.17C44.73,0.61,47.27,0.61,48.83,2.17L49.54,2.88L55.19,8.54L55.2,8.54L89.37,42.72C90.94,44.28,90.94,46.81,89.37,48.37L83.01,54.74C82.61,55.14,82.14,55.44,81.64,55.64ZM65,80.18L27,80.18L27,70.74C27.41,70.42,27.82,70.11,28.24,69.79C32.88,66.26,37.7,62.58,38.42,52.66L31.3,52.66C30.32,50.86,30.19,48.85,30.19,46.84L37.69,42.27C34.29,39.56,32.55,35.26,32.55,31.38C32.55,29.41,32.98,27.54,33.75,25.86L58.25,25.86C59.02,27.54,59.45,29.41,59.45,31.38C59.45,35.26,57.71,39.56,54.31,42.27L61.81,46.84C61.81,48.85,61.68,50.86,60.7,52.66L53.58,52.66C54.3,62.58,59.12,66.26,63.76,69.79C64.18,70.11,64.59,70.42,65,70.74ZM17.07,86L17.07,84.65C17.07,74.58,21.87,70.92,26.87,67.11C31.87,63.3,37.06,59.35,37.83,48.66L30.17,48.66C29.12,46.72,28.97,44.56,28.97,42.39L37.05,37.47C33.39,34.55,31.51,29.92,31.51,25.74C31.51,17.83,37.95,11.41,46.04,11.33C54.05,11.41,60.49,17.83,60.49,25.74C60.49,29.92,58.61,34.55,54.95,37.47L63.03,42.39C63.03,44.56,62.88,46.72,61.83,48.66L54.17,48.66C54.94,59.35,60.13,63.3,65.13,67.11C70.13,70.92,74.93,74.58,74.93,84.65L74.93,86ZM50.94,12.21C56.52,14.24,60.49,19.53,60.49,25.74C60.49,29.92,58.61,34.55,54.95,37.47L45.07,37.47C45.07,37.47,51.83,35.94,55.3,31.03C59.93,24.47,56,15.37,50.94,12.21ZM38.53,48.67C39.59,49.77,40.64,50.9,41.69,52.02C49.68,60.58,57.73,69.2,69.81,71.03C68.38,69.58,66.76,68.36,65.13,67.11C60.13,63.3,54.94,59.35,54.17,48.67L61.83,48.66C62.88,46.72,63.03,44.56,63.03,42.39L54.95,37.47L53.29,37.47C53.29,37.47,53.3,37.48,53.32,37.49C53.78,37.9,59.27,42.81,53.47,46.57L29.37,46.57C29.55,47.29,29.8,47.99,30.17,48.66L37.83,48.67ZM32.02,29.57C33.17,17.78,40.77,11.95,45.74,11.35L45.57,11.35C45.5,11.35,45.44,11.35,45.38,11.35C37.6,11.76,31.51,18.04,31.51,25.74C31.51,27,31.68,28.3,32.02,29.57ZM28.97,42.39L37.05,37.47L35.29,43.05L28.98,43.06C28.97,42.84,28.97,42.62,28.97,42.39ZM17.07,86C19.61,77.6,23.32,74.91,29.59,70.37C30.05,70.03,30.52,69.69,31,69.34C34.99,66.42,35.8,60.92,36.33,55.98C34.27,61.47,30.52,64.33,26.87,67.11C21.87,70.92,17.07,74.58,17.07,84.65Z"/></svg>