<svg xmlns="http://www.w3.org/2000/svg" viewBox="0 0 90 90"><path d="M47.83,1.17L48.54,1.88L54.19,7.54L54.2,7.54L88.37,41.72C89.94,43.28,89.94,45.81,88.37,47.37L82.01,53.74C80.45,55.3,77.91,55.3,76.35,53.74L64,41.38L64,85L26,85L26,41.38L14.36,53.03C12.79,54.59,10.26,54.59,8.7,53.03L2.33,46.67C0.77,45.1,0.77,42.57,2.33,41.01L42.17,1.17C43.73,-0.39,46.27,-0.39,47.83,1.17Z" fill="currentColor"/><path d="M85.64,47.41C87.01,45.43,86.77,42.76,85.08,41.05L46.42,2.01C45.64,1.22,44.36,1.22,43.58,2.01L4.92,41.05C3.23,42.76,2.99,45.43,4.36,47.41L7.25,51.58L2.33,46.67C0.77,45.1,0.77,42.57,2.33,41.01L42.17,1.17C43.73,-0.39,46.27,-0.39,47.83,1.17L48.54,1.88L54.19,7.54L54.2,7.54L88.37,41.72C89.94,43.28,89.94,45.81,88.37,47.37L82.01,53.74C81.61,54.14,81.14,54.44,80.64,54.64Z" fill="currentColor"/><path d="M64,79.18L26,79.18L26,69.74C26.41,69.42,26.82,69.11,27.24,68.79C31.88,65.26,36.7,61.58,37.42,51.66L30.3,51.66C29.32,49.86,29.19,47.85,29.19,45.84L36.69,41.27C33.29,38.56,31.55,34.26,31.55,30.38C31.55,28.41,31.98,26.54,32.75,24.86L57.25,24.86C58.02,26.54,58.45,28.41,58.45,30.38C58.45,34.26,56.71,38.56,53.31,41.27L60.81,45.84C60.81,47.85,60.68,49.86,59.7,51.66L52.58,51.66C53.3,61.58,58.12,65.26,62.76,68.79C63.18,69.11,63.59,69.42,64,69.74Z" fill="currentColor"/><path d="M16.07,85L16.07,83.65C16.07,73.58,20.87,69.92,25.87,66.11C30.87,62.3,36.06,58.35,36.83,47.66L29.17,47.66C28.12,45.72,27.97,43.56,27.97,41.39L36.05,36.47C32.39,33.55,30.51,28.92,30.51,24.74C30.51,16.83,36.95,10.41,45.04,10.33C53.05,10.41,59.49,16.83,59.49,24.74C59.49,28.92,57.61,33.55,53.95,36.47L62.03,41.39C62.03,43.56,61.88,45.72,60.83,47.66L53.17,47.66C53.94,58.35,59.13,62.3,64.13,66.11C69.13,69.92,73.93,73.58,73.93,83.65L73.93,85Z" fill="currentColor"/><path d="M49.94,11.21C55.52,13.24,59.49,18.53,59.49,24.74C59.49,28.92,57.61,33.55,53.95,36.47L44.07,36.47C44.07,36.47,50.83,34.94,54.3,30.03C58.93,23.47,55,14.37,49.94,11.21Z" fill="currentColor"/><path d="M37.53,47.67C38.59,48.77,39.64,49.9,40.69,51.02C48.68,59.58,56.73,68.2,68.81,70.03C67.38,68.58,65.76,67.36,64.13,66.11C59.13,62.3,53.94,58.35,53.17,47.67L60.83,47.66C61.88,45.72,62.03,43.56,62.03,41.39L53.95,36.47L52.29,36.47C52.29,36.47,52.3,36.48,52.32,36.49C52.78,36.9,58.27,41.81,52.47,45.57L28.37,45.57C28.55,46.29,28.8,46.99,29.17,47.66L36.83,47.67Z" fill="currentColor"/><path d="M31.02,28.57C32.17,16.78,39.77,10.95,44.74,10.35L44.57,10.35C44.5,10.35,44.44,10.35,44.38,10.35C36.6,10.76,30.51,17.04,30.51,24.74C30.51,26,30.68,27.3,31.02,28.57Z" fill="currentColor"/><path d="M27.97,41.39L36.05,36.47L34.29,42.05L27.98,42.06C27.97,41.84,27.97,41.62,27.97,41.39Z" fill="currentColor"/><path d="M16.07,85C18.61,76.6,22.32,73.91,28.59,69.37C29.05,69.03,29.52,68.69,30,68.34C33.99,65.42,34.8,59.92,35.33,54.98C33.27,60.47,29.52,63.33,25.87,66.11C20.87,69.92,16.07,73.58,16.07,83.65Z" fill="currentColor"/></svg>