<svg xmlns="http://www.w3.org/2000/svg" viewBox="0 0 90 90" fill="currentColor"><path d="M82.69,44.97C82.69,45.1,82.7,44.82,82.7,44.97C82.7,67.53,64.41,85.82,41.84,85.82C19.28,85.82,1,67.53,1,44.97C1,22.4,19.29,4.11,41.85,4.11L41.85,16.4C26.09,16.4,13.3,29.19,13.3,44.95C13.3,60.72,26.09,73.51,41.85,73.51C57.62,73.51,70.41,60.73,70.41,44.97C70.41,45.11,70.41,44.83,70.41,44.97L64.57,44.97C62.87,44.97,61.91,43.01,62.95,41.66L74.92,26.15C75.74,25.09,77.34,25.09,78.16,26.15L90.08,41.67C91.12,43.01,90.16,44.97,88.46,44.97L82.71,44.97L82.7,44.97ZM42.88,84.79C20.32,84.79,2.02,66.5,2.02,43.94C2.02,32.92,6.39,22.91,13.48,15.57C5.79,23,1,33.42,1,44.96C1,67.53,19.29,85.82,41.86,85.82C53.4,85.82,63.82,81.03,71.25,73.34C63.91,80.43,53.9,84.79,42.88,84.79ZM41.85,73.51C48.44,73.51,54.51,71.28,59.34,67.53C59.51,68.48,59.59,69.45,59.59,70.44C59.59,76.23,56.67,81.35,52.19,84.5C48.88,85.36,45.42,85.82,41.84,85.82C38.19,85.82,34.65,85.34,31.28,84.44C26.84,81.29,23.96,76.19,23.96,70.44C23.96,69.41,24.05,68.4,24.23,67.42C29.08,71.23,35.2,73.51,41.85,73.51ZM8.74,21.04C16.16,10.78,28.23,4.11,41.85,4.11L41.85,16.4C31.29,16.4,22.06,22.14,17.13,30.67C13.58,28.18,10.69,24.88,8.74,21.04ZM41.89,16.4C51.88,16.4,60.67,21.54,65.78,29.32C66.11,29.03,66.45,28.72,66.73,28.38L66.73,28.35C69.47,25.54,71.25,21.71,71.85,17.2C64.4,9.15,53.73,4.1,41.89,4.1L41.89,4.11ZM12.02,13.1L12.02,14.49C12.02,24.88,16.97,28.65,22.13,32.58C27.28,36.51,32.64,40.59,33.43,51.6L25.53,51.6C24.45,53.6,24.29,55.83,24.29,58.07L32.63,63.15C28.85,66.15,26.92,70.93,26.92,75.24C26.92,83.4,33.56,90.02,41.89,90.1C50.15,90.02,56.79,83.4,56.79,75.24C56.79,70.93,54.86,66.15,51.08,63.15L59.42,58.07C59.42,55.83,59.26,53.6,58.18,51.6L50.28,51.6C51.07,40.59,56.43,36.51,61.58,32.58C66.74,28.65,71.69,24.88,71.69,14.49L71.69,13.1C53.64,1,30.07,1,12.02,13.1ZM51.45,69.78C47.87,64.72,40.89,63.15,40.89,63.15L49.37,63.15C49.37,63.15,49.37,63.15,49.38,63.15C49.38,63.14,49.39,63.13,49.4,63.12C49.88,62.7,55.54,57.64,49.55,53.77L24.7,53.77C24.89,53.02,25.15,52.3,25.53,51.6L33.43,51.6L34.15,51.6C35.25,50.46,36.33,49.3,37.41,48.14C45.65,39.31,53.95,30.43,66.41,28.54C64.93,30.03,63.27,31.29,61.58,32.58C56.43,36.51,51.07,40.59,50.28,51.6L58.18,51.6C59.26,53.6,59.42,55.83,59.42,58.07L51.08,63.15C54.86,66.15,56.79,70.93,56.79,75.24C56.79,81.65,52.7,87.1,46.95,89.19C52.17,85.94,56.22,76.55,51.45,69.78ZM27.44,71.29C28.62,83.45,36.46,89.46,41.59,90.08L41.41,90.08C41.34,90.08,41.28,90.08,41.21,90.08C33.2,89.66,26.92,83.18,26.92,75.24C26.92,73.94,27.09,72.61,27.44,71.29ZM24.29,58.07L32.63,63.15L30.81,57.39L24.3,57.38C24.29,57.61,24.29,57.84,24.29,58.07ZM12.02,13.1C14.64,21.76,18.47,24.53,24.93,29.22L24.93,29.22L24.93,29.22C25.4,29.56,25.89,29.91,26.38,30.28C30.5,33.29,31.34,38.97,31.88,44.05C29.76,38.39,25.89,35.44,22.12,32.58C16.97,28.65,12.02,24.88,12.02,14.49Z"/></svg>