<svg xmlns="http://www.w3.org/2000/svg" viewBox="0 0 90 90"><path d="M81.69,45.13C81.69,45,81.7,45.28,81.7,45.13C81.7,22.57,63.41,4.28,40.84,4.28C18.28,4.28,0,22.57,0,45.13C0,67.7,18.29,85.99,40.85,85.99L40.85,73.7C25.09,73.7,12.3,60.91,12.3,45.15C12.3,29.38,25.09,16.59,40.85,16.59C56.62,16.59,69.41,29.37,69.41,45.13C69.41,44.99,69.41,45.27,69.41,45.13L63.57,45.13C61.87,45.13,60.91,47.09,61.95,48.44L73.92,63.95C74.74,65.01,76.34,65.01,77.16,63.95L89.08,48.43C90.12,47.09,89.16,45.13,87.46,45.13L81.71,45.13L81.7,45.13Z" fill="currentColor"/><path d="M41.88,5.31C19.32,5.31,1.02,23.6,1.02,46.16C1.02,57.18,5.39,67.19,12.48,74.53C4.79,67.1,0,56.68,0,45.14C0,22.57,18.29,4.28,40.86,4.28C52.4,4.28,62.82,9.07,70.25,16.76C62.91,9.67,52.9,5.31,41.88,5.31Z" fill="currentColor"/><path d="M40.85,16.59C47.44,16.59,53.51,18.82,58.34,22.57C58.51,21.62,58.59,20.65,58.59,19.66C58.59,13.87,55.67,8.75,51.19,5.6C47.88,4.74,44.42,4.28,40.84,4.28C37.19,4.28,33.65,4.76,30.28,5.66C25.84,8.81,22.96,13.91,22.96,19.66C22.96,20.69,23.05,21.7,23.23,22.68C28.08,18.87,34.2,16.59,40.85,16.59Z" fill="currentColor"/><path d="M7.74,69.06C15.16,79.32,27.23,85.99,40.85,85.99L40.85,73.7C30.29,73.7,21.06,67.96,16.13,59.43C12.58,61.92,9.69,65.22,7.74,69.06Z" fill="currentColor"/><path d="M40.89,73.7C50.88,73.7,59.67,68.56,64.78,60.78C65.11,61.07,65.45,61.38,65.73,61.72L65.73,61.75C68.47,64.56,70.25,68.39,70.85,72.9C63.4,80.95,52.73,86,40.89,86L40.89,85.99Z" fill="currentColor"/><path d="M11.02,77L11.02,75.61C11.02,65.22,15.97,61.45,21.13,57.52C26.28,53.59,31.64,49.51,32.43,38.5L24.53,38.5C23.45,36.5,23.29,34.27,23.29,32.03L31.63,26.95C27.85,23.95,25.92,19.17,25.92,14.86C25.92,6.7,32.56,0.08,40.89,0C49.15,0.08,55.79,6.7,55.79,14.86C55.79,19.17,53.86,23.95,50.08,26.95L58.42,32.03C58.42,34.27,58.26,36.5,57.18,38.5L49.28,38.5C50.07,49.51,55.43,53.59,60.58,57.52C65.74,61.45,70.69,65.22,70.69,75.61L70.69,77C52.64,89.1,29.07,89.1,11.02,77Z" fill="currentColor"/><path d="M50.45,20.32C46.87,25.38,39.89,26.95,39.89,26.95L48.37,26.95C48.37,26.95,48.37,26.95,48.38,26.95C48.38,26.96,48.39,26.97,48.4,26.98C48.88,27.4,54.54,32.46,48.55,36.33L23.7,36.33C23.89,37.08,24.15,37.8,24.53,38.5L32.43,38.5L33.15,38.5C34.25,39.64,35.33,40.8,36.41,41.96C44.65,50.79,52.95,59.67,65.41,61.56C63.93,60.07,62.27,58.81,60.58,57.52C55.43,53.59,50.07,49.51,49.28,38.5L57.18,38.5C58.26,36.5,58.42,34.27,58.42,32.03L50.08,26.95C53.86,23.95,55.79,19.17,55.79,14.86C55.79,8.45,51.7,3,45.95,0.91C51.17,4.16,55.22,13.55,50.45,20.32Z" fill="currentColor"/><path d="M26.44,18.81C27.62,6.65,35.46,0.64,40.59,0.02L40.41,0.02C40.34,0.02,40.28,0.02,40.21,0.02C32.2,0.44,25.92,6.92,25.92,14.86C25.92,16.16,26.09,17.49,26.44,18.81Z" fill="currentColor"/><path d="M23.29,32.03L31.63,26.95L29.81,32.71L23.3,32.72C23.29,32.49,23.29,32.26,23.29,32.03Z" fill="currentColor"/><path d="M11.02,77C13.64,68.34,17.47,65.57,23.93,60.88L23.93,60.88L23.93,60.88C24.4,60.54,24.89,60.19,25.38,59.82C29.5,56.81,30.34,51.13,30.88,46.05C28.76,51.71,24.89,54.66,21.12,57.52C15.97,61.45,11.02,65.22,11.02,75.61Z" fill="currentColor"/></svg>