<svg xmlns="http://www.w3.org/2000/svg" viewBox="0 0 90 90"><path d="M85,85L85,77.44L7.83,77.44L5,85Z" fill="currentColor"/><path d="M9.89,62.67L5,85L27.33,80.11L18.61,71.39Z" fill="currentColor"/><path d="M5,85L27.33,80.11L18.61,71.39Z" fill="currentColor"/><path d="M9.89,62.67L27.33,80.12L79.98,27.47L62.53,10.03Z" fill="currentColor"/><path d="M18.61,71.39L27.33,80.1L79.98,27.46L71.26,18.74Z" fill="currentColor"/><path d="M88.95,18.51C89.19,18.27,89.39,18,89.54,17.73C89.84,17.17,90,16.58,90,15.95C90,15.48,89.9,14.96,89.7,14.51C89.64,14.37,89.57,14.24,89.49,14.1C89.33,13.84,89.14,13.6,88.92,13.37C87.86,12.31,77.61,2.07,76.62,1.07C76.35,0.8,76.03,0.57,75.69,0.4C75.56,0.34,75.42,0.27,75.29,0.23C74.89,0.07,74.48,0.01,74.05,0C73.44,0,72.83,0.16,72.28,0.47C72,0.63,71.73,0.83,71.49,1.07C69.46,3.09,67.44,5.12,65.4,7.14C65.73,7.47,82.46,24.2,82.85,24.59L82.86,24.59C84.88,22.56,86.91,20.54,88.95,18.51Z" fill="currentColor"/><path d="M74.14,15.86C74.14,15.86,82.66,24.39,82.86,24.59C84.88,22.56,86.91,20.54,88.95,18.51C89.19,18.27,89.39,18,89.54,17.73C89.84,17.17,90,16.58,90,15.95C90,15.48,89.9,14.97,89.7,14.51C89.64,14.37,89.57,14.24,89.49,14.1C89.33,13.84,89.14,13.6,88.92,13.37C88.39,12.84,85.6,10.05,82.79,7.24" fill="none" stroke="currentColor" stroke-width="2" stroke-linecap="round" stroke-linejoin="round"/><path d="M59.69,12.87L77.13,30.31L82.86,24.59L65.41,7.14Z" fill="currentColor"/><path d="M68.41,21.59L77.13,30.31L82.85,24.59L74.13,15.87Z" fill="currentColor"/></svg>