<svg xmlns="http://www.w3.org/2000/svg" viewBox="0 0 90 90" fill="currentColor"><path d="M86,1L86,8.56L8.83,8.56L6,1ZM10.89,23.33L6,1L28.33,5.89L19.61,14.61ZM6,1L28.33,5.89L19.61,14.61ZM10.89,23.33L28.33,5.88L80.98,58.53L63.53,75.97ZM19.61,14.61L28.33,5.9L80.98,58.54L72.26,67.26ZM89.95,67.49C90.19,67.73,90.39,68,90.54,68.27C90.84,68.83,91,69.42,91,70.05C91,70.52,90.9,71.04,90.7,71.49C90.64,71.63,90.57,71.76,90.49,71.9C90.33,72.16,90.14,72.4,89.92,72.63C88.86,73.69,78.61,83.93,77.62,84.93C77.35,85.2,77.03,85.43,76.69,85.6C76.56,85.66,76.42,85.73,76.29,85.77C75.89,85.93,75.48,85.99,75.05,86C74.44,86,73.83,85.84,73.28,85.53C73,85.37,72.73,85.17,72.49,84.93C70.46,82.91,68.44,80.88,66.4,78.86C66.73,78.53,83.46,61.8,83.85,61.41L83.86,61.41C85.88,63.44,87.91,65.46,89.95,67.49ZM75.14,70.14C75.14,70.14,83.66,61.61,83.86,61.41C85.88,63.44,87.91,65.46,89.95,67.49C90.19,67.73,90.39,68,90.54,68.27C90.84,68.83,91,69.42,91,70.05C91,70.52,90.9,71.03,90.7,71.49C90.64,71.63,90.57,71.76,90.49,71.9C90.33,72.16,90.14,72.4,89.92,72.63C89.39,73.16,86.6,75.95,83.79,78.76M60.69,73.13L78.13,55.69L83.86,61.41L66.41,78.86ZM69.41,64.41L78.13,55.69L83.85,61.41L75.13,70.13Z"/></svg>