<svg xmlns="http://www.w3.org/2000/svg" viewBox="0 0 90 90" fill="currentColor"><path d="M57.4,35.68C58.53,35.68,59.44,34.77,59.44,33.65L59.44,29.9L34,29.9L34,33.65C34,34.77,34.92,35.68,36.04,35.68ZM55.22,55.57C55.22,60.22,51.42,64,46.72,64C42.03,64,38.22,60.22,38.22,55.57C38.22,50.91,42.03,47.14,46.72,47.14C51.42,47.14,55.22,50.91,55.22,55.57ZM40.58,49.69C39.58,49.69,38.78,48.89,38.78,47.91C38.78,46.92,39.58,46.12,40.58,46.12L52.87,46.12C53.86,46.12,54.67,46.92,54.67,47.91C54.67,48.89,53.86,49.69,52.87,49.69ZM52.87,46.12L40.58,46.12C40.58,37.52,37.07,35.68,37.07,35.68L56.38,35.68C56.38,35.68,52.87,37.52,52.87,46.12ZM59.44,29.9C59.44,30.95,53.75,31.8,46.72,31.8C39.7,31.8,34,30.95,34,29.9C34,28.85,39.7,28,46.72,28C53.75,28,59.44,28.85,59.44,29.9Z"/></svg>