<svg xmlns="http://www.w3.org/2000/svg" viewBox="0 0 90 90" fill="currentColor"><path d="M78.45,31.4L78.46,31.4C81.81,34.96,83.61,39.7,83.5,44.59C83.5,52.03,78.72,56.81,74.07,61.43C71.1,64.15,68.54,67.29,66.49,70.75C72.98,72.49,74.07,76.89,74.07,83L74.07,85.99L17.93,85.99L17.93,83C17.93,77.07,18.84,72.56,25.58,70.76C23.51,67.28,20.93,64.14,17.93,61.43C13.3,56.87,8.51,52.08,8.51,44.59C8.42,39.71,10.25,34.99,13.6,31.45C15.26,29.8,17.23,28.5,19.4,27.62C21.57,26.75,23.89,26.31,26.23,26.35C30.78,26.18,35.29,27.3,39.23,29.58L40.84,22.56L34.4,22.56L34.4,12.67L41.02,12.67L41.02,6L50.96,6L50.96,12.85L57.58,12.85L57.58,22.67L51.14,22.67L52.75,29.69C56.68,27.37,61.19,26.22,65.75,26.35C68.09,26.29,70.43,26.71,72.61,27.58C74.8,28.45,76.78,29.75,78.45,31.4ZM67.04,46.53C67.88,40.71,61.43,40.49,61.4,40.49C57.85,40.49,53.43,43.65,53.43,43.65L53.43,57.4C54.42,57.44,55.21,57.49,56.12,57.56C56.61,57.59,57.15,57.63,57.78,57.67C59.11,55.98,60.68,54.48,62.15,53.08C64.58,50.78,66.72,48.74,67.04,46.53ZM30.55,40.49C30.55,40.49,24.14,40.72,24.91,46.53C25.23,48.73,27.37,50.77,29.79,53.07C31.26,54.47,32.84,55.97,34.17,57.67C34.74,57.63,35.24,57.59,35.7,57.55C36.68,57.47,37.5,57.4,38.52,57.4L38.52,43.65C38.52,43.65,34.11,40.49,30.55,40.49ZM78.45,31.4L78.46,31.4C81.81,34.96,83.61,39.7,83.5,44.59C83.5,52.03,78.72,56.81,74.07,61.43C71.1,64.15,68.54,67.29,66.49,70.75C64.39,70.19,62.06,70.01,59.84,70.01L59.69,70.01L76.17,53.49C84.27,45.38,78.93,33.05,77.92,30.9C78.1,31.06,78.28,31.23,78.45,31.4ZM50.96,6.15L50.96,6.16L49.46,7.66L42.68,7.66L42.68,14.31L36.06,14.31L36.06,21.06L34.57,22.56L34.4,22.56L34.4,12.67L41.02,12.67L41.02,6L50.96,6ZM49.47,14.31L50.97,12.67L57.59,12.67L57.59,14.31ZM27.28,26.35L27.34,26.34L27.34,26.35ZM11.23,53.71C9.46,51,8.51,47.83,8.51,44.59C8.42,39.71,10.25,34.99,13.6,31.45C15.26,29.8,17.23,28.5,19.4,27.62C21.57,26.75,23.89,26.31,26.23,26.35L27.28,26.35C13.78,28.57,7.21,41.37,11.23,53.71ZM18.83,76.24C20.66,75.46,26.77,73.86,45.98,73.86C65.31,73.86,71.37,75.44,73.16,76.25C72.62,74.8,71.77,73.56,70.47,72.58C69.33,71.73,67.96,71.14,66.49,70.75C64.39,70.19,62.06,70.01,59.84,70.01L32.23,70.01C28.53,70.01,24.14,70.51,21.25,72.83C20.09,73.77,19.33,74.92,18.83,76.24Z"/></svg>