<svg xmlns="http://www.w3.org/2000/svg" viewBox="0 0 90 90"><path d="M13.01,81.77C13.01,82.16,13.01,82.54,13.01,82.93L13.01,85L76.99,85L76.99,82.93C76.99,82.54,76.99,82.16,77,81.77C77.04,75.77,77.07,70.58,66.99,69.06C66.97,69.06,66.96,69.05,66.94,69.05L62.36,31.3C67.31,29.41,69.38,26.8,69.74,22.65L71,9.68C69.74,9.05,67.94,8.51,66.23,8.06C64.07,7.52,62.81,7.25,61.19,7.07L57.67,18.06L53.71,18.06L51.73,5.63C49.48,5.27,47.14,5,44.88,5C42.63,5,40.29,5.27,38.04,5.63L36.15,18.06L32.09,18.06L28.58,7.07C25.88,7.07,22.19,8.24,18.94,9.5L20.03,22.65C20.39,26.53,21.83,29.14,27.5,31.3L23.01,69.06C12.93,70.5,12.96,75.76,13.01,81.77Z" fill="currentColor"/><path d="M66.95,69.12L66.95,69.13L66.95,69.13C64.79,68.86,62.63,68.68,60.47,68.59C60.02,66.5,59.61,64.47,59.2,62.49C55.42,43.81,52.71,30.43,31.28,30.76C38.76,29.23,49.84,29.05,56.14,29.95C63.45,28.43,65.69,16.19,66.96,8.26C68.42,8.66,69.88,9.13,70.96,9.66C70.97,9.67,70.99,9.68,71,9.68L69.74,22.65C69.74,22.67,69.74,22.68,69.74,22.69C69.37,26.81,67.3,29.41,62.36,31.3Z" fill="currentColor" opacity="0.5"/><path d="M36.15,18.06L38.04,5.63C40.29,5.27,42.63,5,44.88,5C39.36,6.9,36.81,15.75,36.21,17.83C36.19,17.92,36.17,18,36.15,18.06Z" fill="currentColor"/><path d="M22.76,28.65C20.91,27.02,20.25,25.09,20.03,22.67L20.03,22.65L18.94,9.5C21.07,8.68,23.39,7.89,25.5,7.44C21.95,9.78,21.12,20.66,22.76,28.65Z" fill="currentColor"/><path d="M61.19,7.07L57.67,18.06C58.62,16.25,61.74,10.65,65.47,7.87C63.77,7.46,62.64,7.24,61.24,7.08Z" fill="currentColor"/><path d="M76.53,75.54C73.01,73.2,66.89,72.57,44.99,72.57C23.18,72.57,16.69,73.11,13.45,75.45C14.26,72.39,16.69,70.05,23,69.06C26.07,68.61,35.53,68.52,44.99,68.52C47.2,68.52,49.17,68.51,50.96,68.51C58.96,68.48,63.15,68.47,66.98,69.06C73.37,70.05,75.72,72.39,76.53,75.54Z" fill="currentColor"/></svg>