<svg xmlns="http://www.w3.org/2000/svg" viewBox="0 0 90 90"><path d="M14,85L14,83.56C14,72.76,19.15,68.84,24.5,64.76C29.86,60.68,35.43,56.44,36.25,45L28.04,45C26.91,42.92,26.75,40.6,26.75,38.28L35.42,33C31.49,29.88,29.48,24.92,29.48,20.44C29.48,11.96,36.38,5.08,45.04,5C53.62,5.08,60.52,11.96,60.52,20.44C60.52,24.92,58.51,29.88,54.58,33L63.25,38.28C63.25,40.6,63.09,42.92,61.96,45L53.75,45C54.57,56.44,60.14,60.68,65.5,64.76C70.85,68.84,76,72.76,76,83.56L76,85Z" fill="currentColor"/><path d="M50.29,5.94C56.27,8.11,60.52,13.78,60.52,20.44C60.52,24.92,58.52,29.88,54.58,33L63.25,38.28C63.25,40.6,63.09,42.92,61.96,45L53.75,45C54.57,56.44,60.14,60.68,65.5,64.76C67.25,66.1,68.98,67.41,70.51,68.96C57.56,67,48.94,57.76,40.39,48.6C39.26,47.39,38.13,46.19,37,45L36.25,45L28.04,45C27.65,44.28,27.37,43.52,27.18,42.75L53,42.75C59.22,38.73,53.34,33.47,52.84,33.03C52.83,33.01,52.82,33,52.81,33L44,33C44,33,51.25,31.37,54.97,26.11C59.93,19.08,55.72,9.33,50.29,5.94Z" fill="currentColor"/><path d="M30.02,24.55C31.25,11.91,39.4,5.67,44.73,5.02L44.54,5.02C44.47,5.02,44.4,5.02,44.33,5.02C36,5.46,29.48,12.19,29.48,20.44C29.48,21.79,29.66,23.18,30.02,24.55Z" fill="currentColor"/><path d="M26.75,38.28L35.41,33L33.53,38.99L26.76,39C26.75,38.76,26.75,38.52,26.75,38.28Z" fill="currentColor"/><path d="M14,85C16.72,76.01,20.7,73.12,27.42,68.25C27.91,67.9,28.41,67.53,28.93,67.15C33.21,64.02,34.07,58.13,34.64,52.84C32.43,58.72,28.41,61.79,24.5,64.76C19.15,68.84,14,72.76,14,83.56Z" fill="currentColor"/></svg>