<svg xmlns="http://www.w3.org/2000/svg" viewBox="0 0 90 90"><path d="M59.5,16.26L49.04,14.45L49.04,19Z" fill="currentColor"/><path d="M59.5,67L62.6,62.37L77.45,64.77Z" fill="currentColor"/><path d="M90.5,45L65.53,49C65.58,47.77,65.61,46.55,65.6,45.32L65.61,45.31C65.61,43.95,65.58,42.59,65.51,41.22L89.97,44.92Z" fill="currentColor"/><path d="M66.72,32C66.72,32,63.28,27.71,62.5,26L78.5,27.48Z" fill="currentColor"/><path d="M49.08,11.85L49.08,21.67L42.64,21.67L44.25,28.69C48.18,26.37,52.69,25.22,57.25,25.35C59.59,25.29,61.93,25.71,64.11,26.58C66.3,27.45,68.28,28.75,69.95,30.4L69.96,30.4C71.91,32.47,73.34,34.95,74.17,37.62L57.5,40L75,42.65C75.01,42.96,75.01,43.28,75,43.59C75,49.84,71.62,54.22,67.78,58.2L49.5,60.26L63.45,62.51C61.34,64.75,59.48,67.22,57.91,69.88C65.57,71.77,65.57,77.04,65.57,83L65.57,84.99L9.43,84.99L9.43,83C9.43,77.03,9.43,71.83,17.12,69.82C15.04,66.32,12.45,63.16,9.43,60.43C4.8,55.87,0.01,51.08,0.01,43.59C-0.08,38.71,1.75,33.99,5.1,30.45C6.76,28.8,8.73,27.5,10.9,26.62C13.07,25.75,15.39,25.31,17.73,25.35C22.28,25.18,26.79,26.3,30.73,28.58L32.34,21.56L25.9,21.56L25.9,11.67L32.52,11.67L32.52,5L42.46,5L42.46,11.85Z" fill="currentColor"/><path d="M16.41,45.53C16.93,49.08,22.16,52.19,25.67,56.67C27.44,56.55,28.52,56.4,30.02,56.4L30.02,42.65C29.98,42.62,25.59,39.49,22.05,39.49C21.99,39.49,15.64,39.75,16.41,45.53Z" fill="currentColor"/><path d="M44.93,42.65L44.93,56.4C46.47,56.46,47.51,56.56,49.28,56.67C52.79,52.2,58.03,49.08,58.54,45.53C59.38,39.73,52.97,39.49,52.9,39.49C49.35,39.49,44.93,42.65,44.93,42.65Z" fill="currentColor"/><path d="M64.72,75.27L64.71,75.27C62.98,74.47,56.98,72.86,37.48,72.86C17.98,72.86,11.98,74.51,10.25,75.27C12.23,69.97,18.64,69.01,23.73,69.01L51.34,69.01C56.78,69.01,62.82,70.06,64.72,75.27Z" fill="currentColor"/><path d="M18.78,25.35C5.28,27.57,-1.29,40.37,2.73,52.71C0.96,50,0.01,46.83,0.01,43.59C-0.08,38.71,1.75,33.99,5.1,30.45C6.76,28.8,8.73,27.5,10.9,26.62C13.07,25.75,15.39,25.31,17.73,25.35Z" fill="currentColor"/><path d="M18.78,25.35C18.8,25.35,18.82,25.34,18.84,25.34L18.84,25.35Z" fill="currentColor"/><path d="M40.96,6.66L34.18,6.66L34.18,13.31L27.56,13.31L27.56,20.06L26.07,21.56L25.9,21.56L25.9,11.67L32.52,11.67L32.52,5L42.46,5L42.46,5.16Z" fill="currentColor"/><path d="M40.97,13.31L42.47,11.67L49.09,11.67L49.09,13.31Z" fill="currentColor"/><path d="M57.99,69.75C55.89,69.19,53.56,69.01,51.34,69.01L51.19,69.01L58.47,61.71L63.45,62.51C61.37,64.71,59.54,67.14,57.99,69.75Z" fill="currentColor" opacity="0.5"/><path d="M75,43.59C75,49.84,71.62,54.22,67.78,58.2L61.24,58.94L67.67,52.49C70.75,49.41,71.88,45.72,72.06,42.21L75,42.65C75.01,42.96,75.01,43.28,75,43.59Z" fill="currentColor" opacity="0.5"/><path d="M69.96,30.4C71.91,32.47,73.34,34.95,74.17,37.62L71.84,37.95C71.27,34.05,69.89,30.89,69.43,29.9C69.6,30.07,69.78,30.23,69.95,30.4Z" fill="currentColor" opacity="0.5"/></svg>