<svg xmlns="http://www.w3.org/2000/svg" viewBox="0 0 90 90" fill="currentColor"><path d="M52.73,6.63L54.71,19.06L58.67,19.06L62.19,8.07C63.81,8.25,65.07,8.52,67.23,9.06C68.94,9.51,70.74,10.05,72,10.68L70.74,23.65C70.38,27.8,68.31,30.41,63.36,32.3L67.94,70.05C67.96,70.05,67.97,70.06,67.99,70.06C78.71,71.68,77.99,77.44,77.99,83.93L77.99,86L14.01,86L14.01,83.93C14.01,77.45,13.29,71.59,24.01,70.06L28.5,32.3C22.83,30.14,21.39,27.53,21.02,23.65L19.94,10.5C23.19,9.24,26.88,8.07,29.58,8.07L33.09,19.06L37.15,19.06L39.04,6.63C41.29,6.27,43.63,6,45.88,6C48.13,6,50.48,6.27,52.73,6.63ZM67.95,70.12L67.95,70.13L67.95,70.13C65.79,69.86,63.63,69.68,61.47,69.59C61.02,67.5,60.61,65.47,60.2,63.49C56.42,44.81,53.71,31.43,32.28,31.76C39.76,30.23,50.84,30.05,57.14,30.95C64.45,29.43,66.69,17.19,67.96,9.26C69.42,9.66,70.88,10.13,71.96,10.66C71.97,10.67,71.99,10.68,72,10.68L70.74,23.65C70.74,23.67,70.74,23.68,70.74,23.69C70.37,27.81,68.3,30.41,63.36,32.3ZM67.98,70.06C74.37,71.05,76.72,73.39,77.53,76.54C74.01,74.2,67.89,73.57,45.99,73.57C24.18,73.57,17.69,74.11,14.45,76.45C15.26,73.39,17.69,71.05,24,70.06C27.07,69.61,36.53,69.52,45.99,69.52C58.06,69.52,63.29,69.34,67.98,70.06ZM23.76,29.65C21.91,28.02,21.25,26.09,21.03,23.67C21.03,23.66,21.03,23.66,21.03,23.65L19.94,10.5C22.07,9.68,24.39,8.89,26.5,8.44C22.95,10.78,22.12,21.66,23.76,29.65ZM37.15,19.06L39.04,6.63C41.29,6.27,43.63,6,45.88,6C40.12,7.98,37.6,17.53,37.15,19.06ZM66.47,8.87C62.74,11.65,59.62,17.25,58.67,19.06L62.19,8.07C62.2,8.07,62.22,8.08,62.24,8.08C63.64,8.24,64.77,8.46,66.47,8.87Z"/></svg>