<svg xmlns="http://www.w3.org/2000/svg" viewBox="0 0 90 90"><path d="M1,29C1,13.54,13.54,1,29,1C44.46,1,57,13.54,57,29C57,44.46,44.46,57,29,57C13.54,57,1,44.46,1,29Z" fill="currentColor"/><path d="M1,31.8C1,16.34,13.54,3.8,29,3.8C44.46,3.8,57,16.34,57,31.8C57,47.26,44.46,59.8,29,59.8C13.54,59.8,1,47.26,1,31.8Z" fill="currentColor"/><path d="M8.78,31.8C8.78,20.63,17.83,11.58,29,11.58C40.17,11.58,49.22,20.63,49.22,31.8C49.22,42.97,40.17,52.02,29,52.02C17.83,52.02,8.78,42.97,8.78,31.8Z" fill="currentColor" opacity="0.5"/><path d="M8.78,29.8C8.78,18.63,17.83,9.58,29,9.58C40.17,9.58,49.22,18.63,49.22,29.8C49.22,40.97,40.17,50.02,29,50.02C17.83,50.02,8.78,40.97,8.78,29.8Z" fill="currentColor" opacity="0.5"/><path d="M28.17,59.55C14.96,55.56,4.7,45.09,1,31.8C1,47.26,13.54,59.8,29,59.8Z" fill="currentColor"/><path d="M57,31.8C57,16.34,44.46,3.8,29,3.8C42.4,6.14,53.15,16.18,56.4,29.38Z" fill="currentColor"/><path d="M33.78,56C33.78,40.54,46.32,28,61.78,28C77.24,28,89.78,40.54,89.78,56C89.78,71.46,77.24,84,61.78,84C46.32,84,33.78,71.46,33.78,56Z" fill="currentColor"/><path d="M35,60.2C35,44.74,47.54,32.2,63,32.2C78.46,32.2,91,44.74,91,60.2C91,75.66,78.46,88.2,63,88.2C47.54,88.2,35,75.66,35,60.2Z" fill="currentColor"/><path d="M35,63C35,47.54,47.54,35,63,35C78.46,35,91,47.54,91,63C91,78.46,78.46,91,63,91C47.54,91,35,78.46,35,63Z" fill="currentColor"/><path d="M42.78,63C42.78,51.83,51.83,42.78,63,42.78C74.17,42.78,83.22,51.83,83.22,63C83.22,74.17,74.17,83.22,63,83.22C51.83,83.22,42.78,74.17,42.78,63Z" fill="currentColor" opacity="0.5"/><path d="M42.78,61C42.78,49.83,51.83,40.78,63,40.78C74.17,40.78,83.22,49.83,83.22,61C83.22,72.17,74.17,81.22,63,81.22C51.83,81.22,42.78,72.17,42.78,61Z" fill="currentColor"/><path d="M62.17,90.75C48.96,86.76,38.7,76.29,35,63C35,78.46,47.54,91,63,91Z" fill="currentColor"/><path d="M91,63C91,47.54,78.46,35,63,35C76.4,37.34,87.15,47.38,90.4,60.58Z" fill="currentColor"/></svg>