<svg xmlns="http://www.w3.org/2000/svg" viewBox="0 0 90 90"><path d="M77,6L77,7.44C77,29.04,56.4,23.12,54.75,46L62.96,46C64.09,48.08,64.25,50.4,64.25,52.72L55.58,58C59.51,61.12,61.52,66.08,61.52,70.56C61.52,79.04,54.62,85.92,46.04,86C37.38,85.92,30.48,79.04,30.48,70.56C30.48,66.08,32.49,61.12,36.42,58L27.75,52.72C27.75,50.4,27.91,48.08,29.04,46L37.25,46C35.6,23.12,15,29.04,15,7.44L15,6Z" fill="currentColor"/><path d="M55.97,64.89C52.25,59.63,45,58,45,58L54.33,57.51C55.76,56.06,59.33,51.7,54,48.25L28.18,48.25C28.37,47.48,28.65,46.72,29.04,46L37.25,46L38,46C39.13,44.81,40.26,43.61,41.39,42.4C49.94,33.24,58.56,24,71.51,22.04C69.98,23.59,68.25,24.9,66.5,26.24C61.14,30.32,55.57,34.56,54.75,46L62.96,46C63.1,46.25,63.22,46.5,63.32,46.75C64.12,48.63,64.25,50.67,64.25,52.72L56.59,57.39L55.58,58C59.52,61.12,61.52,66.08,61.52,70.56C61.52,77.22,57.27,82.89,51.29,85.06C56.72,81.67,60.93,71.92,55.97,64.89Z" fill="currentColor" opacity="0.5"/><path d="M31.02,66.45C30.66,67.82,30.48,69.21,30.48,70.56C30.48,78.81,37,85.54,45.33,85.98C45.4,85.98,45.47,85.98,45.54,85.98L45.73,85.98C40.4,85.33,32.25,79.09,31.02,66.45Z" fill="currentColor"/><path d="M34.53,52.01L36.41,58L27.75,52.72C27.75,52.48,27.75,52.24,27.76,52Z" fill="currentColor"/><path d="M35.64,38.16C35.07,32.87,34.21,26.98,29.93,23.85C29.41,23.47,28.91,23.1,28.42,22.75C21.7,17.88,17.72,14.99,15,6L15,7.44C15,18.24,20.15,22.16,25.5,26.24C29.41,29.21,33.43,32.28,35.64,38.16Z" fill="currentColor"/></svg>