<svg xmlns="http://www.w3.org/2000/svg" viewBox="0 0 90 90"><path d="M31.87,43.57C36.14,43.55,39.93,39.66,42.06,37.43L44.17,34.99C44.99,35.98,47.26,39.13,46.26,42.64C45.33,45.87,42.74,48.21,40.21,50.25C36.14,53.55,29.01,59.25,28.24,67.06L27.96,72.6L66.63,72.6C66.63,69.26,67.26,67.06,67.26,67.06C67.95,63.71,71.83,52.41,71.83,46.28C71.83,23.2,56.25,13.06,42.32,12.12L35.2,5.01C34.19,5.01,33.15,6.08,32.87,7.26L32.06,11.14C31.24,13.15,29.88,14.51,27.78,16.25C25.68,17.99,25.14,19.63,24.67,20.82C23.01,25.05,22.88,27.29,20,31.48L13.55,40.55C11.89,42.6,12.11,45.41,13.89,46.91C16.25,48.91,23.02,50.58,23.61,50L23.59,49.99C26.2,47.47,26.33,43.6,31.87,43.57Z" fill="currentColor"/><path d="M31.06,69.49C15.55,69.49,15.62,79.83,15.62,79.83L15.62,85L77.59,85L77.59,79.83C77.59,79.83,77.66,69.49,62.15,69.49Z" fill="currentColor"/><path d="M42,12.01C42.07,12.01,42.14,12.01,42.2,12L42.25,12.05C42.09,12.02,42,12.01,42,12.01Z" fill="currentColor"/><path d="M67.26,67.06C67.45,66.12,67.89,64.57,68.43,62.68C69.81,57.81,71.83,50.7,71.83,46.28C71.83,23.52,56.68,13.34,42.9,12.16C47.2,13.01,65.45,17.76,65.45,37.78C65.45,47.16,61.64,53.21,58.08,58.86C55.9,62.33,53.81,65.64,52.76,69.48C55.38,69.24,66.8,69.85,66.8,69.85C66.98,68.15,67.26,67.06,67.26,67.06Z" fill="currentColor"/><path d="M33.39,43.39L33.4,43.4L33.4,43.39Z" fill="currentColor"/><path d="M30.8,41.89C28.11,40.22,27.01,39.54,25.53,43.97C24.63,46.68,23.51,48.29,22.8,49.31C22.6,49.6,22.43,49.84,22.31,50.04C22.97,50.12,23.45,50.11,23.59,49.98C24.37,49.23,24.93,48.36,25.47,47.5C26.76,45.49,27.98,43.58,31.87,43.56C32.39,43.56,32.89,43.5,33.39,43.39C32.38,42.88,31.53,42.35,30.8,41.89Z" fill="currentColor"/><path d="M47.52,29.21C46.52,31.13,44.04,35.02,44.04,35.02C44.04,35.02,44.02,35.09,43.99,35.19L44.17,34.99C44.96,35.94,47.07,38.91,46.32,42.27C47.79,38.41,48.77,34.11,48.75,32.57C48.72,30.89,48.52,27.29,47.52,29.21Z" fill="currentColor"/><path d="M13.54,40.53L13.53,40.52C12.58,41.69,12.31,43.09,12.53,44.37C14.2,42.31,22.82,31.67,24.04,30.04C24.83,28.99,25.21,27.61,25.64,26.04C26.55,22.72,27.69,18.58,33.47,14.98C37.9,12.23,34.9,5.11,34.9,5.11C34.77,5.11,34.65,5.13,34.52,5.16C34.49,5.17,34.45,5.17,34.42,5.18C33.7,5.54,33.07,6.36,32.86,7.24L32.05,11.12C31.23,13.13,29.87,14.49,27.77,16.23C25.78,17.87,25.19,19.42,24.74,20.59C24.71,20.66,24.69,20.73,24.66,20.8C24.17,22.04,23.82,23.1,23.49,24.1C22.69,26.51,22.03,28.5,19.99,31.46Z" fill="currentColor"/><path d="M17.08,75.33C18.1,74.8,23.39,72.86,46.82,72.86C67.37,72.86,73.97,74.35,75.97,75.08C74.16,72.36,70.34,69.49,62.16,69.49L31.06,69.49C22.63,69.49,18.82,72.54,17.08,75.33Z" fill="currentColor"/></svg>