<svg xmlns="http://www.w3.org/2000/svg" viewBox="0 0 90 90"><path d="M76,85L76,83.56C76,61.96,55.4,67.88,53.75,45L61.96,45C63.09,42.92,63.25,40.6,63.25,38.28L54.58,33C58.51,29.88,60.52,24.92,60.52,20.44C60.52,11.96,53.62,5.08,45.04,5C36.38,5.08,29.48,11.96,29.48,20.44C29.48,24.92,31.49,29.88,35.42,33L26.75,38.28C26.75,40.6,26.91,42.92,28.04,45L36.25,45C34.6,67.88,14,61.96,14,83.56L14,85Z" fill="currentColor"/><path d="M54.97,26.11C51.25,31.37,44,33,44,33L53.33,33.49C54.76,34.94,58.33,39.3,53,42.75L27.18,42.75C27.37,43.52,27.65,44.28,28.04,45L36.25,45L37,45C38.13,46.19,39.26,47.39,40.39,48.6C48.94,57.76,57.56,67,70.51,68.96C68.98,67.41,67.25,66.1,65.5,64.76C60.14,60.68,54.57,56.44,53.75,45L61.96,45C62.1,44.75,62.22,44.5,62.32,44.25C63.12,42.37,63.25,40.33,63.25,38.28L55.59,33.61L54.58,33C58.52,29.88,60.52,24.92,60.52,20.44C60.52,13.78,56.27,8.11,50.29,5.94C55.72,9.33,59.93,19.08,54.97,26.11Z" fill="currentColor" opacity="0.5"/><path d="M30.02,24.55C29.66,23.18,29.48,21.79,29.48,20.44C29.48,12.19,36,5.46,44.33,5.02C44.4,5.02,44.47,5.02,44.54,5.02L44.73,5.02C39.4,5.67,31.25,11.91,30.02,24.55Z" fill="currentColor"/><path d="M33.53,38.99L35.41,33L26.75,38.28C26.75,38.52,26.75,38.76,26.76,39Z" fill="currentColor"/><path d="M34.64,52.84C34.07,58.13,33.21,64.02,28.93,67.15C28.41,67.53,27.91,67.9,27.42,68.25C20.7,73.12,16.72,76.01,14,85L14,83.56C14,72.76,19.15,68.84,24.5,64.76C28.41,61.79,32.43,58.72,34.64,52.84Z" fill="currentColor"/></svg>