<svg xmlns="http://www.w3.org/2000/svg" viewBox="0 0 90 90"><path d="M60.5,17.26L50.04,15.45L50.04,20Z" fill="currentColor"/><path d="M60.5,68L63.6,63.37L78.45,65.77Z" fill="currentColor"/><path d="M91.5,46L66.53,50C66.58,48.77,66.61,47.55,66.6,46.32L66.61,46.31C66.61,44.95,66.58,43.59,66.51,42.22L90.97,45.92Z" fill="currentColor"/><path d="M67.72,33C67.72,33,64.28,28.71,63.5,27L79.5,28.48Z" fill="currentColor"/><path d="M50.08,12.85L50.08,22.67L43.64,22.67L45.25,29.69C49.18,27.37,53.69,26.22,58.25,26.35C60.59,26.29,62.93,26.71,65.11,27.58C67.3,28.45,69.28,29.75,70.95,31.4L70.96,31.4C72.91,33.47,74.34,35.95,75.17,38.62L58.5,41L76,43.65C76.01,43.96,76.01,44.28,76,44.59C76,50.84,72.62,55.22,68.78,59.2L50.5,61.26L64.45,63.51C62.34,65.75,60.48,68.22,58.91,70.88C66.57,72.77,66.57,78.04,66.57,84L66.57,85.99L10.43,85.99L10.43,84C10.43,78.03,10.43,72.83,18.12,70.82C16.04,67.32,13.45,64.16,10.43,61.43C5.8,56.87,1.01,52.08,1.01,44.59C0.92,39.71,2.75,34.99,6.1,31.45C7.76,29.8,9.73,28.5,11.9,27.62C14.07,26.75,16.39,26.31,18.73,26.35C23.28,26.18,27.79,27.3,31.73,29.58L33.34,22.56L26.9,22.56L26.9,12.67L33.52,12.67L33.52,6L43.46,6L43.46,12.85Z" fill="currentColor"/><path d="M17.41,46.53C17.93,50.08,23.16,53.19,26.67,57.67C28.44,57.55,29.52,57.4,31.02,57.4L31.02,43.65C30.98,43.62,26.59,40.49,23.05,40.49C22.99,40.49,16.64,40.75,17.41,46.53Z" fill="currentColor"/><path d="M45.93,43.65L45.93,57.4C47.47,57.46,48.51,57.56,50.28,57.67C53.79,53.2,59.03,50.08,59.54,46.53C60.38,40.73,53.97,40.49,53.9,40.49C50.35,40.49,45.93,43.65,45.93,43.65Z" fill="currentColor"/><path d="M65.72,76.27L65.71,76.27C63.98,75.47,57.98,73.86,38.48,73.86C18.98,73.86,12.98,75.51,11.25,76.27C13.23,70.97,19.64,70.01,24.73,70.01L52.34,70.01C57.78,70.01,63.82,71.06,65.72,76.27Z" fill="currentColor"/><path d="M19.78,26.35C6.28,28.57,-0.29,41.37,3.73,53.71C1.96,51,1.01,47.83,1.01,44.59C0.92,39.71,2.75,34.99,6.1,31.45C7.76,29.8,9.73,28.5,11.9,27.62C14.07,26.75,16.39,26.31,18.73,26.35Z" fill="currentColor"/><path d="M19.78,26.35C19.8,26.35,19.82,26.34,19.84,26.34L19.84,26.35Z" fill="currentColor"/><path d="M41.96,7.66L35.18,7.66L35.18,14.31L28.56,14.31L28.56,21.06L27.07,22.56L26.9,22.56L26.9,12.67L33.52,12.67L33.52,6L43.46,6L43.46,6.16Z" fill="currentColor"/><path d="M41.97,14.31L43.47,12.67L50.09,12.67L50.09,14.31Z" fill="currentColor"/><path d="M58.99,70.75C56.89,70.19,54.56,70.01,52.34,70.01L52.19,70.01L59.47,62.71L64.45,63.51C62.37,65.71,60.54,68.14,58.99,70.75Z" fill="currentColor" opacity="0.5"/><path d="M76,44.59C76,50.84,72.62,55.22,68.78,59.2L62.24,59.94L68.67,53.49C71.75,50.41,72.88,46.72,73.06,43.21L76,43.65C76.01,43.96,76.01,44.28,76,44.59Z" fill="currentColor" opacity="0.5"/><path d="M70.96,31.4C72.91,33.47,74.34,35.95,75.17,38.62L72.84,38.95C72.27,35.05,70.89,31.89,70.43,30.9C70.6,31.07,70.78,31.23,70.95,31.4Z" fill="currentColor" opacity="0.5"/></svg>