<svg xmlns="http://www.w3.org/2000/svg" viewBox="0 0 90 90"><path d="M14,85L14,83.56C14,72.76,19.15,68.84,24.5,64.76C29.86,60.68,35.43,56.44,36.25,45L28.04,45C26.91,42.92,26.75,40.6,26.75,38.28L35.42,33C31.49,29.88,29.48,24.92,29.48,20.44C29.48,11.96,36.38,5.08,45.04,5C53.62,5.08,60.52,11.96,60.52,20.44C60.52,24.92,58.51,29.88,54.58,33L63.25,38.28C63.25,40.6,63.09,42.92,61.96,45L53.75,45C54.57,56.44,60.14,60.68,65.5,64.76C70.85,68.84,76,72.76,76,83.56L76,85Z" fill="currentColor"/><path d="M61.96,45L53.75,45C54.84,60.18,64.28,62.68,70.5,68.96C55.86,66.73,46.75,55.21,37,45L28.04,45C27.65,44.28,27.37,43.52,27.18,42.75L53,42.75C59.43,38.59,52.92,33.11,52.81,33L44,33C44,33,51.25,31.37,54.97,26.11C59.93,19.08,55.72,9.33,50.29,5.95C56.27,8.12,60.52,13.79,60.52,20.44C60.52,24.92,58.51,29.88,54.59,33L63.25,38.28C63.25,40.6,63.09,42.92,61.96,45Z" fill="currentColor"/><path d="M28.93,67.15C21.29,72.73,16.92,75.35,14,85L14,83.56C14,72.76,19.15,68.84,24.5,64.76C28.41,61.78,32.43,58.72,34.64,52.83C34.08,58.12,33.21,64.02,28.93,67.15Z" fill="currentColor"/><path d="M26.76,39C26.76,38.76,26.75,38.52,26.75,38.28L35.41,33L33.53,38.99Z" fill="currentColor"/><path d="M30.02,24.54C29.66,23.17,29.48,21.79,29.48,20.44C29.48,12.2,35.99,5.47,44.31,5.02C44.38,5.02,44.46,5.02,44.54,5.02L44.73,5.02C39.4,5.67,31.25,11.91,30.02,24.54Z" fill="currentColor"/></svg>