<svg xmlns="http://www.w3.org/2000/svg" viewBox="0 0 90 90"><path d="M56.4,55.32C57.53,55.32,58.44,56.23,58.44,57.35L58.44,61.1L33,61.1L33,57.35C33,56.23,33.92,55.32,35.04,55.32Z" fill="currentColor"/><path d="M54.22,35.43C54.22,30.78,50.42,27,45.72,27C41.03,27,37.22,30.78,37.22,35.43C37.22,40.09,41.03,43.86,45.72,43.86C50.42,43.86,54.22,40.09,54.22,35.43Z" fill="currentColor"/><path d="M39.58,41.31C38.58,41.31,37.78,42.11,37.78,43.09C37.78,44.08,38.58,44.88,39.58,44.88L51.87,44.88C52.86,44.88,53.67,44.08,53.67,43.09C53.67,42.11,52.86,41.31,51.87,41.31Z" fill="currentColor"/><path d="M51.87,44.88L39.58,44.88C39.58,53.48,36.07,55.32,36.07,55.32L55.38,55.32C55.38,55.32,51.87,53.48,51.87,44.88Z" fill="currentColor"/><path d="M58.44,61.1C58.44,60.05,52.75,59.2,45.72,59.2C38.7,59.2,33,60.05,33,61.1C33,62.15,38.7,63,45.72,63C52.75,63,58.44,62.15,58.44,61.1Z" fill="currentColor"/></svg>