<svg xmlns="http://www.w3.org/2000/svg" viewBox="0 0 90 90" fill="currentColor"><path d="M24.59,50.99L24.61,51C24.02,51.58,17.25,49.91,14.89,47.91C13.11,46.41,12.89,43.6,14.55,41.55L21,32.48C23.04,29.52,23.7,27.53,24.5,25.12C24.83,24.12,25.18,23.06,25.67,21.82C25.7,21.74,25.73,21.66,25.76,21.58C26.22,20.42,26.82,18.88,28.78,17.25C30.88,15.51,32.24,14.15,33.06,12.14L33.87,8.26C34.15,7.08,35.19,6.01,36.2,6.01L43.32,13.12C57.25,14.06,72.83,24.2,72.83,47.28C72.83,51.7,70.81,58.81,69.43,63.68C68.89,65.57,68.45,67.13,68.26,68.06C68.26,68.06,67.96,69.1,67.77,70.85C78.65,72.67,78.59,80.83,78.59,80.83L78.59,86L16.62,86L16.62,80.83C16.62,80.83,16.56,71.85,29.11,70.63L29.24,68.06C30,60.34,36.98,54.68,41.08,51.36C41.12,51.32,41.17,51.29,41.21,51.25C43.74,49.21,46.33,46.87,47.26,43.64C48.26,40.13,45.99,36.98,45.17,35.99L43.06,38.43C40.93,40.66,37.14,44.55,32.87,44.57C28.98,44.59,27.76,46.5,26.47,48.51C25.93,49.37,25.37,50.24,24.59,50.99ZM43,13.01C43.07,13.01,43.14,13.01,43.2,13L43.25,13.05C43.09,13.02,43,13.01,43,13.01ZM68.26,68.06C68.45,67.12,68.89,65.57,69.43,63.68C70.81,58.81,72.83,51.7,72.83,47.28C72.83,24.52,57.68,14.34,43.9,13.16C48.2,14.01,66.45,18.76,66.45,38.78C66.45,48.16,62.64,54.21,59.08,59.86C56.9,63.33,54.81,66.64,53.76,70.48C56.38,70.24,67.8,70.85,67.8,70.85C67.98,69.15,68.26,68.06,68.26,68.06ZM34.39,44.39C33.38,43.88,32.53,43.35,31.8,42.89C29.11,41.22,28.01,40.54,26.53,44.97C25.63,47.68,24.51,49.29,23.8,50.31C23.6,50.6,23.43,50.84,23.31,51.04C23.97,51.12,24.45,51.11,24.59,50.98C25.37,50.23,25.93,49.36,26.47,48.5C27.76,46.49,28.98,44.58,32.87,44.56C33.39,44.56,33.89,44.5,34.39,44.39L34.4,44.4L34.4,44.39ZM48.52,30.21C47.52,32.13,45.04,36.02,45.04,36.02C45.04,36.02,45.02,36.09,44.99,36.19L45.17,35.99C45.96,36.94,48.07,39.91,47.32,43.27C48.79,39.41,49.77,35.11,49.75,33.57C49.72,31.89,49.52,28.29,48.52,30.21ZM14.54,41.53L14.53,41.52C13.58,42.69,13.31,44.09,13.53,45.37C15.2,43.31,23.82,32.67,25.04,31.04C25.83,29.99,26.21,28.61,26.64,27.04C27.55,23.72,28.69,19.58,34.47,15.98C38.9,13.23,35.9,6.11,35.9,6.11C35.77,6.11,35.65,6.13,35.52,6.16C35.49,6.17,35.45,6.17,35.42,6.18C34.7,6.54,34.07,7.36,33.86,8.24L33.05,12.12C32.23,14.13,30.87,15.49,28.77,17.23C26.78,18.87,26.19,20.42,25.74,21.59C25.71,21.66,25.69,21.73,25.66,21.8C25.17,23.04,24.82,24.1,24.49,25.1C23.69,27.51,23.03,29.5,20.99,32.46ZM18.08,76.33C19.1,75.8,24.39,73.86,47.82,73.86C68.37,73.86,74.97,75.35,76.97,76.08C75.16,73.36,71.34,70.49,63.16,70.49L32.06,70.49C23.63,70.49,19.82,73.54,18.08,76.33Z"/></svg>