<svg xmlns="http://www.w3.org/2000/svg" viewBox="0 0 90 90" fill="currentColor"><path d="M72.83,47.28C72.83,53.41,68.95,64.71,68.26,68.06C68.26,68.06,67.96,69.1,67.77,70.85C78.65,72.67,78.59,80.83,78.59,80.83L78.59,86L16.62,86L16.62,80.83C16.62,80.83,16.56,71.85,29.11,70.63L29.24,68.06C30.01,60.25,37.14,54.55,41.21,51.25C43.74,49.21,46.33,46.87,47.26,43.64C48.26,40.13,45.99,36.98,45.17,35.99L43.06,38.43C40.93,40.66,37.14,44.55,32.87,44.57C27.33,44.6,27.2,48.47,24.59,50.99L24.61,51C24.02,51.58,17.25,49.91,14.89,47.91C13.11,46.41,12.89,43.6,14.55,41.55L21,32.48C23.88,28.29,24.01,26.05,25.67,21.82C26.14,20.63,26.68,18.99,28.78,17.25C30.88,15.51,32.24,14.15,33.06,12.14L33.87,8.26C34.15,7.08,35.19,6.01,36.2,6.01L43.32,13.12C57.25,14.06,72.83,24.2,72.83,47.28ZM72.83,47.28C72.83,51.7,70.81,58.81,69.43,63.68C68.89,65.57,68.45,67.12,68.26,68.06C68.26,68.06,67.98,69.15,67.8,70.85C67.78,70.85,56.38,70.24,53.76,70.48C54.81,66.64,56.9,63.33,59.08,59.86C62.64,54.21,66.45,48.15,66.45,38.78C66.45,18.76,48.2,14.01,43.9,13.16C57.68,14.34,72.83,24.52,72.83,47.28ZM34.38,44.39C33.89,44.5,33.38,44.56,32.87,44.56C27.33,44.59,27.2,48.46,24.59,50.98C24.45,51.11,23.97,51.12,23.31,51.04C23.85,50.12,25.38,48.44,26.53,44.97C28.41,39.34,29.68,41.97,34.38,44.39ZM34.38,44.39C34.39,44.39,34.39,44.39,34.4,44.39L34.4,44.4C34.39,44.4,34.39,44.39,34.38,44.39ZM49.75,33.57C49.77,35.11,48.79,39.41,47.32,43.27C48.07,39.91,45.96,36.94,45.17,35.99L44.99,36.19C45.02,36.09,45.04,36.03,45.04,36.02C45.04,36.02,47.52,32.13,48.52,30.21C49.52,28.29,49.72,31.89,49.75,33.57ZM43,13.01C43.07,13.01,43.14,13.01,43.2,13L43.25,13.05C43.09,13.02,43,13.01,43,13.01ZM76.97,76.08C74.97,75.35,68.37,73.86,47.82,73.86C24.39,73.86,19.1,75.8,18.08,76.33C19.82,73.54,23.63,70.49,32.06,70.49L63.16,70.49C71.34,70.49,75.16,73.36,76.97,76.08ZM34.47,15.98C25.96,21.27,27.51,27.75,25.04,31.04C23.82,32.67,15.2,43.31,13.53,45.37C13.31,44.09,13.58,42.69,14.53,41.52L14.54,41.53L20.99,32.46C23.87,28.27,24,26.03,25.66,21.8C26.12,20.61,26.66,18.97,28.77,17.23C30.87,15.49,32.23,14.13,33.05,12.12L33.86,8.24C34.07,7.36,34.7,6.54,35.42,6.18C35.58,6.15,35.73,6.11,35.9,6.11C35.91,6.14,38.89,13.24,34.47,15.98Z"/></svg>