<svg xmlns="http://www.w3.org/2000/svg" viewBox="0 0 90 90"><path d="M14.01,9.23C14.01,8.84,14.01,8.46,14.01,8.07L14.01,6L77.99,6L77.99,8.07C77.99,8.46,77.99,8.84,78,9.23C78.04,15.23,78.07,20.42,67.99,21.94C67.97,21.94,67.96,21.95,67.94,21.95L63.36,59.7C68.31,61.59,70.38,64.2,70.74,68.35L72,81.32C70.74,81.95,68.94,82.49,67.23,82.94C65.07,83.48,63.81,83.75,62.19,83.93L58.67,72.94L54.71,72.94L52.73,85.37C50.48,85.73,48.14,86,45.88,86C43.63,86,41.29,85.73,39.04,85.37L37.15,72.94L33.09,72.94L29.58,83.93C26.88,83.93,23.19,82.76,19.94,81.5L21.03,68.35C21.39,64.47,22.83,61.86,28.5,59.7L24.01,21.94C13.93,20.5,13.96,15.24,14.01,9.23Z" fill="currentColor"/><path d="M67.95,21.88L67.95,21.87L67.95,21.87C65.79,22.14,63.63,22.32,61.47,22.41C61.02,24.5,60.61,26.53,60.2,28.51C56.42,47.19,53.71,60.57,32.28,60.24C39.76,61.77,50.84,61.95,57.14,61.05C64.45,62.57,66.69,74.81,67.96,82.74C69.42,82.34,70.88,81.87,71.96,81.34C71.97,81.33,71.99,81.32,72,81.32L70.74,68.35C70.74,68.33,70.74,68.32,70.74,68.31C70.37,64.19,68.3,61.59,63.36,59.7Z" fill="currentColor" opacity="0.5"/><path d="M37.15,72.94L39.04,85.37C41.29,85.73,43.63,86,45.88,86C40.36,84.1,37.81,75.25,37.21,73.17C37.19,73.08,37.17,73,37.15,72.94Z" fill="currentColor"/><path d="M23.76,62.35C21.91,63.98,21.25,65.91,21.03,68.33L21.03,68.35L19.94,81.5C22.07,82.32,24.39,83.11,26.5,83.56C22.95,81.22,22.12,70.34,23.76,62.35Z" fill="currentColor"/><path d="M62.19,83.93L58.67,72.94C59.62,74.75,62.74,80.35,66.47,83.13C64.77,83.54,63.64,83.76,62.24,83.92Z" fill="currentColor"/><path d="M77.53,15.46C74.01,17.8,67.89,18.43,45.99,18.43C24.18,18.43,17.69,17.89,14.45,15.55C15.26,18.61,17.69,20.95,24,21.94C27.07,22.39,36.53,22.48,45.99,22.48C48.2,22.48,50.17,22.49,51.96,22.49C59.96,22.52,64.15,22.53,67.98,21.94C74.37,20.95,76.72,18.61,77.53,15.46Z" fill="currentColor"/></svg>