<svg xmlns="http://www.w3.org/2000/svg" viewBox="0 0 90 90" fill="currentColor"><path d="M57.69,68.18L57.68,68.18C57.68,68.18,57.68,68.18,57.69,68.17ZM67.14,43.72C67.14,55.24,61.57,63.46,57.69,68.17L54.05,61.65C52.34,58.34,50.7,54.74,49.72,51.01C48.62,47.57,47.49,39.75,47.49,39.75L41.65,39.71C42.25,45.04,43.29,51.01,45.52,56.67L53.14,72.39C53.92,73.85,54.43,75.69,54.43,77.36C54.43,82.13,50.48,86,45.64,86C40.8,86,36.85,82.13,36.85,77.36C36.85,75.14,37.77,72.11,37.77,72.11C37.77,72.11,24.67,60.7,24.67,43.77C24.67,32.61,29.95,24.2,32.43,21.1L30.91,21.1C15.94,21.1,16,11.03,16,11.03L16,6L75.82,6L75.82,11.03C75.82,11.03,75.89,21.1,60.91,21.1L59.43,21.1C61.93,24.26,67.14,32.62,67.14,43.72ZM67.14,43.72C67.14,32.62,61.93,24.26,59.43,21.1L43.62,21.1C47.79,23.06,71.17,35.44,61.25,63.3C64.29,58.51,67.14,51.96,67.14,43.72ZM46.81,66.61C50.4,73.29,53.62,79.29,51.32,83.9C51.32,83.91,51.33,83.93,51.33,83.94C53.23,82.35,54.43,79.99,54.43,77.36C54.43,76.64,54.32,75.96,54.15,75.31C53.96,74.34,53.67,73.38,53.14,72.39L53.13,72.39L45.52,56.67C43.29,51.01,42.25,45.04,41.65,39.71C37.28,48.84,42.33,58.26,46.81,66.61ZM45.64,86C40.8,86,36.85,82.13,36.85,77.36C36.85,76.47,37,75.46,37.17,74.56C38.05,80.49,42.79,84.99,46.16,85.98C45.99,85.99,45.81,86,45.64,86ZM24.67,43.77C24.67,39.97,25.31,36.54,26.21,33.48C26.19,43.26,28.32,57.52,39.49,71.5C39.49,71.5,38.74,71.76,37.77,72.11C37.77,72.11,24.67,60.7,24.67,43.77ZM30.9,21.1L60.91,21.1C68.8,21.1,72.49,18.31,74.24,15.66C72.31,16.37,65.94,17.82,46.11,17.82C23.5,17.82,18.39,15.93,17.41,15.41L17.41,15.42C19.09,18.13,22.77,21.1,30.9,21.1Z"/></svg>