<svg xmlns="http://www.w3.org/2000/svg" viewBox="0 0 90 90"><path d="M74.06,82.89C74.06,76.32,74.06,70.69,64.7,68.98L77.84,37.22C81.35,36.77,84.5,33.17,84.5,29.39C84.5,25.16,80.99,21.47,76.49,21.47C72.26,21.47,68.57,25.16,68.57,29.39C68.57,31.01,69.38,32.54,69.92,33.44L60.93,42.98L59.85,20.84C62.91,19.85,65.15,16.79,65.15,13.28C65.15,9.32,62.1,5,56.79,5C52.02,5,48.42,9.05,48.42,13.28C48.42,15.71,49.59,18.05,51.48,19.58L45,38.39L38.52,19.58C40.41,18.05,41.58,15.71,41.58,13.28C41.58,8.78,37.98,5,33.21,5C27.9,5,24.85,9.14,24.85,13.37C24.85,16.88,27.09,19.85,30.15,20.84L29.07,42.98L20.08,33.44C20.62,32.54,21.43,31.01,21.43,29.39C21.43,25.16,17.74,21.47,13.51,21.47C9.1,21.47,5.5,25.07,5.5,29.39C5.5,33.17,8.65,36.77,12.16,37.22L25.39,68.98C15.94,70.69,15.94,76.41,15.94,82.89L15.94,85L74.06,85Z" fill="currentColor"/><path d="M82.7,24.44C84.5,31.82,77.84,34.16,74.96,35.69C74.96,35.69,68.66,48.37,60.12,57.73C51.03,67.54,45,68.44,45,68.44C55.98,68.44,60.39,68.44,64.7,68.98L77.84,37.22C81.35,36.77,84.5,33.17,84.5,29.39C84.5,27.59,83.87,25.88,82.7,24.44Z" fill="currentColor" opacity="0.5"/><path d="M78.56,21.74C74.32,22.28,69.83,25.7,69.47,32.63C69.02,31.82,68.57,30.65,68.57,29.39C68.57,25.16,72.26,21.47,76.49,21.47C77.12,21.47,78.11,21.65,78.56,21.74Z" fill="currentColor"/><path d="M25.92,17.33C25.2,16.07,24.85,14.72,24.85,13.37C24.85,9.14,27.9,5,33.21,5C30.24,6.17,26.64,10.13,25.92,17.33Z" fill="currentColor"/><path d="M49.41,17.15C48.78,15.98,48.42,14.63,48.42,13.28C48.42,9.05,52.02,5,56.79,5C54,6.44,49.86,10.49,49.41,17.15Z" fill="currentColor"/><path d="M9.37,36.23C7.21,34.7,5.5,32.27,5.5,29.39C5.5,25.07,9.1,21.47,13.51,21.47C7.93,24.26,6.13,31.19,9.37,36.23Z" fill="currentColor"/><path d="M17.29,73.93C18.46,73.48,19.81,73.21,21.34,72.94C24.85,72.76,34.47,72.49,45.09,72.49C58.32,72.49,63.54,72.49,68.75,72.94C70.37,73.21,71.72,73.48,72.8,73.93C71.63,71.59,69.29,69.79,64.71,68.98C60.39,68.44,56.07,68.44,45.09,68.44C36.27,68.44,28.35,68.8,25.39,68.98C20.89,69.79,18.55,71.59,17.29,73.93Z" fill="currentColor"/></svg>