<svg xmlns="http://www.w3.org/2000/svg" viewBox="0 0 90 90" fill="currentColor"><path d="M15,86L15,84.56C15,73.76,20.15,69.84,25.5,65.76C30.86,61.68,36.43,57.44,37.25,46L29.04,46C27.91,43.92,27.75,41.6,27.75,39.28L36.42,34C32.49,30.88,30.48,25.92,30.48,21.44C30.48,12.96,37.38,6.08,46.04,6C54.62,6.08,61.52,12.96,61.52,21.44C61.52,25.92,59.51,30.88,55.58,34L64.25,39.28C64.25,41.6,64.09,43.92,62.96,46L54.75,46C55.57,57.44,61.14,61.68,66.5,65.76C71.85,69.84,77,73.76,77,84.56L77,86ZM62.96,46L54.75,46C55.84,61.18,65.28,63.68,71.5,69.96C56.86,67.73,47.75,56.21,38,46L29.04,46C28.65,45.28,28.37,44.52,28.18,43.75L54,43.75C60.43,39.59,53.92,34.11,53.81,34L45,34C45,34,52.25,32.37,55.97,27.11C60.93,20.08,56.72,10.33,51.29,6.95C57.27,9.12,61.52,14.79,61.52,21.44C61.52,25.92,59.51,30.88,55.59,34L64.25,39.28C64.25,41.6,64.09,43.92,62.96,46ZM29.93,68.15C22.29,73.73,17.92,76.35,15,86L15,84.56C15,73.76,20.15,69.84,25.5,65.76C29.41,62.78,33.43,59.72,35.64,53.83C35.08,59.12,34.21,65.02,29.93,68.15ZM27.76,40C27.76,39.76,27.75,39.52,27.75,39.28L36.41,34L34.53,39.99ZM31.02,25.54C30.66,24.17,30.48,22.79,30.48,21.44C30.48,13.2,36.99,6.47,45.31,6.02C45.38,6.02,45.46,6.02,45.54,6.02L45.73,6.02C40.4,6.67,32.25,12.91,31.02,25.54Z"/></svg>