<svg xmlns="http://www.w3.org/2000/svg" viewBox="0 0 90 90"><path d="M51.73,5.63L53.71,18.06L57.67,18.06L61.19,7.07C62.81,7.25,64.07,7.52,66.23,8.06C67.94,8.51,69.74,9.05,71,9.68L69.74,22.65C69.38,26.8,67.31,29.41,62.36,31.3L66.94,69.05C66.96,69.05,66.97,69.06,66.99,69.06C77.71,70.68,76.99,76.44,76.99,82.93L76.99,85L13.01,85L13.01,82.93C13.01,76.45,12.29,70.59,23.01,69.06L27.5,31.3C21.83,29.14,20.39,26.53,20.02,22.65L18.94,9.5C22.19,8.24,25.88,7.07,28.58,7.07L32.09,18.06L36.15,18.06L38.04,5.63C40.29,5.27,42.63,5,44.88,5C47.13,5,49.48,5.27,51.73,5.63Z" fill="currentColor"/><path d="M66.95,69.12L66.95,69.13L66.95,69.13C64.79,68.86,62.63,68.68,60.47,68.59C60.02,66.5,59.61,64.47,59.2,62.49C55.42,43.81,52.71,30.43,31.28,30.76C38.76,29.23,49.84,29.05,56.14,29.95C63.45,28.43,65.69,16.19,66.96,8.26C68.42,8.66,69.88,9.13,70.96,9.66C70.97,9.67,70.99,9.68,71,9.68L69.74,22.65C69.74,22.67,69.74,22.68,69.74,22.69C69.37,26.81,67.3,29.41,62.36,31.3Z" fill="currentColor"/><path d="M66.98,69.06C73.37,70.05,75.72,72.39,76.53,75.54C73.01,73.2,66.89,72.57,44.99,72.57C23.18,72.57,16.69,73.11,13.45,75.45C14.26,72.39,16.69,70.05,23,69.06C26.07,68.61,35.53,68.52,44.99,68.52C57.06,68.52,62.29,68.34,66.98,69.06Z" fill="currentColor"/><path d="M22.76,28.65C20.91,27.02,20.25,25.09,20.03,22.67C20.03,22.66,20.03,22.66,20.03,22.65L18.94,9.5C21.07,8.68,23.39,7.89,25.5,7.44C21.95,9.78,21.12,20.66,22.76,28.65Z" fill="currentColor"/><path d="M36.15,18.06L38.04,5.63C40.29,5.27,42.63,5,44.88,5C39.12,6.98,36.6,16.53,36.15,18.06Z" fill="currentColor"/><path d="M65.47,7.87C61.74,10.65,58.62,16.25,57.67,18.06L61.19,7.07C61.2,7.07,61.22,7.08,61.24,7.08C62.64,7.24,63.77,7.46,65.47,7.87Z" fill="currentColor"/></svg>