<svg xmlns="http://www.w3.org/2000/svg" viewBox="0 0 90 90"><path d="M74.07,61.43C71.1,64.15,68.54,67.29,66.49,70.75C72.98,72.49,74.07,76.89,74.07,83L74.07,85.99L17.93,85.99L17.93,83C17.93,77.07,18.84,72.56,25.58,70.76C23.51,67.28,20.93,64.14,17.93,61.43C13.3,56.87,8.51,52.08,8.51,44.59C8.33,34.71,16.2,26.18,26.23,26.35C30.78,26.18,35.29,27.3,39.23,29.58L40.84,22.56L34.4,22.56L34.4,12.67L41.02,12.67L41.02,6L50.96,6L50.96,12.85L57.58,12.85L57.58,22.67L51.14,22.67L52.75,29.69C56.68,27.37,61.19,26.22,65.75,26.35C76.28,26.08,83.73,34.32,83.5,44.59C83.5,52.03,78.72,56.81,74.07,61.43Z" fill="currentColor"/><path d="M67.04,46.53C67.88,40.71,61.43,40.49,61.4,40.49C57.85,40.49,53.43,43.65,53.43,43.65L53.43,57.4C54.97,57.46,56.01,57.56,57.78,57.67C59.11,55.98,60.68,54.48,62.15,53.08C64.58,50.78,66.72,48.74,67.04,46.53Z" fill="currentColor"/><path d="M30.55,40.49C30.55,40.49,24.14,40.72,24.91,46.53C25.23,48.73,27.37,50.77,29.79,53.07C31.26,54.47,32.84,55.97,34.17,57.67C35.94,57.55,37.02,57.4,38.52,57.4L38.52,43.65C38.52,43.65,34.11,40.49,30.55,40.49Z" fill="currentColor"/><path d="M83.5,44.59C83.62,39.11,81.56,34.21,78.01,30.87C77.98,30.87,77.94,30.87,77.91,30.87C78.88,32.92,84.31,45.34,76.17,53.49L59.69,70.01L59.84,70.01C62.22,70.01,64.72,70.21,66.94,70.88C66.94,70.88,66.94,70.88,66.94,70.88C66.79,70.83,66.64,70.79,66.49,70.75C68.54,67.29,71.1,64.15,74.07,61.43C78.72,56.81,83.5,52.03,83.5,44.59Z" fill="currentColor" opacity="0.5"/><path d="M50.96,6.15L50.96,6.16L49.46,7.66L42.68,7.66L42.68,14.31L36.06,14.31L36.06,21.06L34.57,22.56L34.4,22.56L34.4,12.67L41.02,12.67L41.02,6L50.96,6Z" fill="currentColor"/><path d="M49.47,14.31L50.97,12.67L57.59,12.67L57.59,14.31Z" fill="currentColor"/><path d="M27.28,26.35L27.34,26.34L27.34,26.35Z" fill="currentColor"/><path d="M11.23,53.71C9.46,51,8.51,47.83,8.51,44.59C8.42,39.71,10.25,34.99,13.6,31.45C15.26,29.8,17.23,28.5,19.4,27.62C21.57,26.75,23.89,26.31,26.23,26.35L27.28,26.35C13.78,28.57,7.21,41.37,11.23,53.71Z" fill="currentColor"/><path d="M18.83,76.24C20.66,75.46,26.77,73.86,45.98,73.86C65.31,73.86,71.37,75.44,73.16,76.25C72.62,74.79,71.77,73.56,70.47,72.58C69.36,71.75,68.04,71.18,66.61,70.78C66.57,70.77,66.53,70.76,66.49,70.75C64.39,70.19,62.06,70.01,59.84,70.01L32.23,70.01C28.53,70.01,24.13,70.52,21.25,72.83C20.09,73.77,19.33,74.92,18.83,76.24Z" fill="currentColor"/></svg>