<svg xmlns="http://www.w3.org/2000/svg" viewBox="0 0 90 90" fill="currentColor"><path d="M32.87,47.44C37.14,47.46,40.93,51.35,43.06,53.58L45.17,56.02C45.99,55.03,48.26,51.88,47.26,48.37C46.33,45.14,43.74,42.8,41.21,40.76C37.14,37.46,30.01,31.76,29.24,23.95L28.96,18.41L67.63,18.41C67.63,21.75,68.26,23.95,68.26,23.95C68.95,27.3,72.83,38.6,72.83,44.73C72.83,67.81,57.25,77.95,43.32,78.89L36.2,86C35.19,86,34.15,84.93,33.87,83.75L33.06,79.87C32.24,77.86,30.88,76.5,28.78,74.76C26.68,73.02,26.14,71.38,25.67,70.19C24.01,65.96,23.88,63.72,21,59.53L14.55,50.46C12.89,48.41,13.11,45.6,14.89,44.1C17.25,42.1,24.02,40.43,24.61,41.01L24.59,41.02C27.2,43.54,27.33,47.41,32.87,47.44ZM32.06,21.52C16.55,21.52,16.62,11.18,16.62,11.18L16.62,6.01L78.59,6.01L78.59,11.18C78.59,11.18,78.66,21.52,63.15,21.52ZM43,79C43.07,79,43.14,79,43.2,79.01L43.25,78.96C43.09,78.99,43,79,43,79ZM68.26,23.95C68.45,24.89,68.89,26.44,69.43,28.33C70.81,33.2,72.83,40.31,72.83,44.73C72.83,67.49,57.68,77.67,43.9,78.85C48.2,78,66.45,73.25,66.45,53.23C66.45,43.85,62.64,37.8,59.08,32.15C56.9,28.68,54.81,25.37,53.76,21.53C56.38,21.77,67.8,21.16,67.8,21.16C67.98,22.86,68.26,23.95,68.26,23.95ZM34.39,47.62L34.4,47.61L34.4,47.62ZM31.8,49.12C29.11,50.79,28.01,51.47,26.53,47.04C25.63,44.33,24.51,42.72,23.8,41.7C23.6,41.41,23.43,41.17,23.31,40.97C23.97,40.89,24.45,40.9,24.59,41.03C25.37,41.78,25.93,42.65,26.47,43.51C27.76,45.52,28.98,47.43,32.87,47.45C33.39,47.45,33.89,47.51,34.39,47.62C33.38,48.13,32.53,48.66,31.8,49.12ZM48.52,61.8C47.52,59.88,45.04,55.99,45.04,55.99C45.04,55.99,45.02,55.92,44.99,55.82L45.17,56.02C45.96,55.07,48.07,52.1,47.32,48.74C48.79,52.6,49.77,56.9,49.75,58.44C49.72,60.12,49.52,63.72,48.52,61.8ZM14.54,50.48L14.53,50.49C13.58,49.32,13.31,47.92,13.53,46.64C15.2,48.7,23.82,59.34,25.04,60.97C25.83,62.02,26.21,63.41,26.64,64.97C27.55,68.29,28.69,72.43,34.47,76.03C38.9,78.78,35.9,85.9,35.9,85.9C35.77,85.9,35.65,85.88,35.52,85.85C35.49,85.84,35.45,85.84,35.42,85.83C34.7,85.47,34.07,84.65,33.86,83.77L33.05,79.89C32.23,77.88,30.87,76.52,28.77,74.78C26.78,73.14,26.19,71.59,25.74,70.42C25.71,70.35,25.69,70.28,25.66,70.21C25.17,68.97,24.82,67.91,24.49,66.91C23.69,64.5,23.03,62.51,20.99,59.55ZM18.08,15.68C19.1,16.21,24.39,18.15,47.82,18.15C68.37,18.15,74.97,16.66,76.97,15.93C75.16,18.65,71.34,21.52,63.16,21.52L32.06,21.52C23.63,21.52,19.82,18.47,18.08,15.68Z"/></svg>