<svg xmlns="http://www.w3.org/2000/svg" viewBox="0 0 90 90"><path d="M6,44C6,21.91,23.91,4,46,4C68.09,4,86,21.91,86,44C86,66.09,68.09,84,46,84C23.91,84,6,66.09,6,44Z" fill="currentColor"/><path d="M6,48C6,25.91,23.91,8,46,8C68.09,8,86,25.91,86,48C86,70.09,68.09,88,46,88C23.91,88,6,70.09,6,48Z" fill="currentColor"/><path d="M17.11,48C17.11,32.05,30.05,19.11,46,19.11C61.95,19.11,74.89,32.05,74.89,48C74.89,63.95,61.95,76.89,46,76.89C30.05,76.89,17.11,63.95,17.11,48Z" fill="currentColor" opacity="0.5"/><path d="M17.11,45.14C17.11,29.19,30.05,16.25,46,16.25C61.95,16.25,74.89,29.19,74.89,45.14C74.89,61.1,61.95,74.03,46,74.03C30.05,74.03,17.11,61.1,17.11,45.14Z" fill="currentColor" opacity="0.5"/><path d="M46,88C23.91,88,6,70.09,6,48C9.28,68.58,25.42,84.72,46,88Z" fill="currentColor"/><path d="M86,48C86,25.91,68.09,8,46,8C65.14,11.34,80.5,25.68,85.15,44.55Z" fill="currentColor"/></svg>