<svg xmlns="http://www.w3.org/2000/svg" viewBox="0 0 90 90"><path d="M73.07,60.43C70.1,63.15,67.54,66.29,65.49,69.75C71.98,71.49,73.07,75.89,73.07,82L73.07,84.99L16.93,84.99L16.93,82C16.93,76.07,17.84,71.56,24.58,69.76C22.51,66.28,19.93,63.14,16.93,60.43C12.3,55.87,7.51,51.08,7.51,43.59C7.33,33.71,15.2,25.18,25.23,25.35C29.78,25.18,34.29,26.3,38.23,28.58L39.84,21.56L33.4,21.56L33.4,11.67L40.02,11.67L40.02,5L49.96,5L49.96,11.85L56.58,11.85L56.58,21.67L50.14,21.67L51.75,28.69C55.68,26.37,60.19,25.22,64.75,25.35C75.28,25.08,82.73,33.32,82.5,43.59C82.5,51.03,77.72,55.81,73.07,60.43Z" fill="currentColor"/><path d="M66.04,45.53C66.88,39.71,60.43,39.49,60.4,39.49C56.85,39.49,52.43,42.65,52.43,42.65L52.43,56.4C53.97,56.46,55.01,56.56,56.78,56.67C58.11,54.98,59.68,53.48,61.15,52.08C63.58,49.78,65.72,47.74,66.04,45.53Z" fill="currentColor"/><path d="M29.55,39.49C29.55,39.49,23.14,39.72,23.91,45.53C24.23,47.73,26.37,49.77,28.79,52.07C30.26,53.47,31.84,54.97,33.17,56.67C34.94,56.55,36.02,56.4,37.52,56.4L37.52,42.65C37.52,42.65,33.11,39.49,29.55,39.49Z" fill="currentColor"/><path d="M82.5,43.59C82.62,38.11,80.56,33.21,77.01,29.87C76.98,29.87,76.94,29.87,76.91,29.87C77.88,31.92,83.31,44.34,75.17,52.49L58.69,69.01L58.84,69.01C61.22,69.01,63.72,69.21,65.94,69.88C65.94,69.88,65.94,69.88,65.94,69.88C65.79,69.83,65.64,69.79,65.49,69.75C67.54,66.29,70.1,63.15,73.07,60.43C77.72,55.81,82.5,51.03,82.5,43.59Z" fill="currentColor" opacity="0.5"/><path d="M49.96,5.15L49.96,5.16L48.46,6.66L41.68,6.66L41.68,13.31L35.06,13.31L35.06,20.06L33.57,21.56L33.4,21.56L33.4,11.67L40.02,11.67L40.02,5L49.96,5Z" fill="currentColor"/><path d="M48.47,13.31L49.97,11.67L56.59,11.67L56.59,13.31Z" fill="currentColor"/><path d="M26.28,25.35L26.34,25.34L26.34,25.35Z" fill="currentColor"/><path d="M10.23,52.71C8.46,50,7.51,46.83,7.51,43.59C7.42,38.71,9.25,33.99,12.6,30.45C14.26,28.8,16.23,27.5,18.4,26.62C20.57,25.75,22.89,25.31,25.23,25.35L26.28,25.35C12.78,27.57,6.21,40.37,10.23,52.71Z" fill="currentColor"/><path d="M17.83,75.24C19.66,74.46,25.77,72.86,44.98,72.86C64.31,72.86,70.37,74.44,72.16,75.25C71.62,73.79,70.77,72.56,69.47,71.58C68.36,70.75,67.04,70.18,65.61,69.78C65.57,69.77,65.53,69.76,65.49,69.75C63.39,69.19,61.06,69.01,58.84,69.01L31.23,69.01C27.53,69.01,23.13,69.52,20.25,71.83C19.09,72.77,18.33,73.92,17.83,75.24Z" fill="currentColor"/></svg>