<svg xmlns="http://www.w3.org/2000/svg" viewBox="0 0 90 90"><path d="M0,62C0,77.46,12.54,90,28,90C43.46,90,56,77.46,56,62C56,46.54,43.46,34,28,34C12.54,34,0,46.54,0,62Z" fill="currentColor"/><path d="M0,59.2C0,74.66,12.54,87.2,28,87.2C43.46,87.2,56,74.66,56,59.2C56,43.74,43.46,31.2,28,31.2C12.54,31.2,0,43.74,0,59.2Z" fill="currentColor"/><path d="M7.78,59.2C7.78,70.37,16.83,79.42,28,79.42C39.17,79.42,48.22,70.37,48.22,59.2C48.22,48.03,39.17,38.98,28,38.98C16.83,38.98,7.78,48.03,7.78,59.2Z" fill="currentColor" opacity="0.5"/><path d="M7.78,61.2C7.78,72.37,16.83,81.42,28,81.42C39.17,81.42,48.22,72.37,48.22,61.2C48.22,50.03,39.17,40.98,28,40.98C16.83,40.98,7.78,50.03,7.78,61.2Z" fill="currentColor" opacity="0.5"/><path d="M27.17,31.45C13.96,35.44,3.7,45.91,0,59.2C0,43.74,12.54,31.2,28,31.2Z" fill="currentColor"/><path d="M56,59.2C56,74.66,43.46,87.2,28,87.2C41.4,84.86,52.15,74.82,55.4,61.62Z" fill="currentColor"/><path d="M32.78,35C32.78,50.46,45.32,63,60.78,63C76.24,63,88.78,50.46,88.78,35C88.78,19.54,76.24,7,60.78,7C45.32,7,32.78,19.54,32.78,35Z" fill="currentColor"/><path d="M34,30.8C34,46.26,46.54,58.8,62,58.8C77.46,58.8,90,46.26,90,30.8C90,15.34,77.46,2.8,62,2.8C46.54,2.8,34,15.34,34,30.8Z" fill="currentColor"/><path d="M34,28C34,43.46,46.54,56,62,56C77.46,56,90,43.46,90,28C90,12.54,77.46,0,62,0C46.54,0,34,12.54,34,28Z" fill="currentColor"/><path d="M41.78,28C41.78,39.17,50.83,48.22,62,48.22C73.17,48.22,82.22,39.17,82.22,28C82.22,16.83,73.17,7.78,62,7.78C50.83,7.78,41.78,16.83,41.78,28Z" fill="currentColor" opacity="0.5"/><path d="M41.78,30C41.78,41.17,50.83,50.22,62,50.22C73.17,50.22,82.22,41.17,82.22,30C82.22,18.83,73.17,9.78,62,9.78C50.83,9.78,41.78,18.83,41.78,30Z" fill="currentColor"/><path d="M61.17,0.25C47.96,4.24,37.7,14.71,34,28C34,12.54,46.54,0,62,0Z" fill="currentColor"/><path d="M90,28C90,43.46,77.46,56,62,56C75.4,53.66,86.15,43.62,89.4,30.42Z" fill="currentColor"/></svg>