<svg xmlns="http://www.w3.org/2000/svg" viewBox="0 0 90 90" fill="currentColor"><path d="M75.06,8.11C75.06,14.68,75.06,20.31,65.7,22.02L78.84,53.78C82.35,54.23,85.5,57.83,85.5,61.61C85.5,65.84,81.99,69.53,77.49,69.53C73.26,69.53,69.57,65.84,69.57,61.61C69.57,59.99,70.38,58.46,70.92,57.56L61.93,48.02L60.85,70.16C63.91,71.15,66.15,74.21,66.15,77.72C66.15,81.68,63.1,86,57.79,86C53.02,86,49.42,81.95,49.42,77.72C49.42,75.29,50.59,72.95,52.48,71.42L46,52.61L39.52,71.42C41.41,72.95,42.58,75.29,42.58,77.72C42.58,82.22,38.98,86,34.21,86C28.9,86,25.85,81.86,25.85,77.63C25.85,74.12,28.09,71.15,31.15,70.16L30.07,48.02L21.08,57.56C21.62,58.46,22.43,59.99,22.43,61.61C22.43,65.84,18.74,69.53,14.51,69.53C10.1,69.53,6.5,65.93,6.5,61.61C6.5,57.83,9.65,54.23,13.16,53.78L26.39,22.02C16.94,20.31,16.94,14.59,16.94,8.11L16.94,6L75.06,6ZM83.7,66.56C85.5,59.18,78.84,56.84,75.96,55.31C75.96,55.31,69.66,42.63,61.12,33.27C52.03,23.46,46,22.56,46,22.56C56.98,22.56,61.39,22.56,65.7,22.02L78.84,53.78C82.35,54.23,85.5,57.83,85.5,61.61C85.5,63.41,84.87,65.12,83.7,66.56ZM65.71,22.02C70.29,21.21,72.63,19.41,73.8,17.07C72.72,17.52,71.37,17.79,69.75,18.06C64.54,18.51,59.32,18.51,46.09,18.51C35.47,18.51,25.84,18.24,22.34,18.06C20.81,17.79,19.46,17.52,18.29,17.07C19.55,19.41,21.89,21.21,26.38,22.02C29.35,22.2,37.27,22.56,46.09,22.56C57.07,22.56,61.39,22.56,65.71,22.02ZM10.37,54.77C8.21,56.3,6.5,58.73,6.5,61.61C6.5,65.93,10.1,69.53,14.51,69.53C8.93,66.74,7.13,59.81,10.37,54.77ZM79.56,69.26C75.32,68.72,70.83,65.3,70.47,58.37C70.02,59.18,69.57,60.35,69.57,61.61C69.57,65.84,73.26,69.53,77.49,69.53C78.12,69.53,79.11,69.35,79.56,69.26ZM26.92,73.67C26.21,74.93,25.84,76.28,25.84,77.63C25.84,81.86,28.9,86,34.21,86C31.24,84.83,27.64,80.87,26.92,73.67ZM50.41,73.85C49.78,75.02,49.42,76.37,49.42,77.72C49.42,81.95,53.02,86,57.79,86C55,84.56,50.86,80.51,50.41,73.85Z"/></svg>