<svg xmlns="http://www.w3.org/2000/svg" viewBox="0 0 90 90" fill="currentColor"><path d="M54.43,14.64C54.43,16.31,53.92,18.15,53.14,19.61L45.52,35.33C43.29,40.99,42.25,46.96,41.65,52.29L47.49,52.25C47.49,52.23,48.62,44.43,49.72,40.99C50.7,37.26,52.34,33.66,54.05,30.35L57.69,23.83C61.57,28.54,67.14,36.76,67.14,48.28C67.14,59.39,61.92,67.75,59.42,70.9L60.91,70.9C75.84,70.9,75.82,80.91,75.82,80.97L75.82,86L16,86L16,80.97C16,80.91,15.99,70.9,30.91,70.9L32.44,70.9C29.95,67.8,24.67,59.4,24.67,48.23C24.67,31.33,37.73,19.93,37.77,19.89C37.76,19.85,36.85,16.84,36.85,14.64C36.85,9.87,40.8,6,45.64,6C50.48,6,54.43,9.87,54.43,14.64ZM57.68,23.82L57.69,23.82L57.69,23.83C57.68,23.83,57.68,23.82,57.68,23.82ZM67.14,48.28C67.14,59.38,61.93,67.74,59.43,70.9L43.62,70.9C47.79,68.94,71.17,56.56,61.25,28.7C64.29,33.49,67.14,40.04,67.14,48.28ZM46.81,25.39C50.4,18.71,53.62,12.71,51.32,8.1C51.32,8.09,51.33,8.07,51.33,8.06C53.23,9.65,54.43,12.01,54.43,14.64C54.43,15.36,54.32,16.04,54.15,16.69C53.96,17.66,53.67,18.62,53.14,19.61L53.13,19.61L45.52,35.33C43.29,40.99,42.25,46.96,41.65,52.29C37.28,43.16,42.33,33.74,46.81,25.39ZM45.64,6C40.8,6,36.85,9.87,36.85,14.64C36.85,15.53,37,16.54,37.17,17.44C38.05,11.51,42.79,7.01,46.16,6.01C45.99,6.01,45.81,6,45.64,6ZM24.67,48.23C24.67,52.03,25.31,55.46,26.21,58.52C26.19,48.74,28.32,34.48,39.49,20.5C39.49,20.5,38.74,20.24,37.77,19.89C37.77,19.89,24.67,31.3,24.67,48.23ZM30.9,70.9L60.91,70.9C68.8,70.9,72.49,73.69,74.24,76.34C72.31,75.63,65.94,74.18,46.11,74.18C23.5,74.18,18.39,76.07,17.41,76.59L17.41,76.58C19.09,73.87,22.77,70.9,30.9,70.9Z"/></svg>