<svg xmlns="http://www.w3.org/2000/svg" viewBox="0 0 90 90"><path d="M56.69,22.82L56.68,22.82C56.68,22.82,56.68,22.82,56.69,22.83Z" fill="currentColor"/><path d="M66.14,47.28C66.14,35.76,60.57,27.54,56.69,22.83L53.05,29.35C51.34,32.66,49.7,36.26,48.72,39.99C47.62,43.43,46.49,51.25,46.49,51.25L40.65,51.29C41.25,45.96,42.29,39.99,44.52,34.33L52.14,18.61C52.92,17.15,53.43,15.31,53.43,13.64C53.43,8.87,49.48,5,44.64,5C39.8,5,35.85,8.87,35.85,13.64C35.85,15.86,36.77,18.89,36.77,18.89C36.77,18.89,23.67,30.3,23.67,47.23C23.67,58.39,28.95,66.8,31.43,69.9L29.91,69.9C14.94,69.9,15,79.97,15,79.97L15,85L74.82,85L74.82,79.97C74.82,79.97,74.89,69.9,59.91,69.9L58.43,69.9C60.93,66.74,66.14,58.38,66.14,47.28Z" fill="currentColor"/><path d="M66.14,47.28C66.14,58.38,60.93,66.74,58.43,69.9L42.62,69.9C46.79,67.94,70.17,55.56,60.25,27.7C63.29,32.49,66.14,39.04,66.14,47.28Z" fill="currentColor"/><path d="M45.81,24.39C49.4,17.71,52.62,11.71,50.32,7.1C50.32,7.09,50.33,7.07,50.33,7.06C52.23,8.65,53.43,11.01,53.43,13.64C53.43,14.36,53.32,15.04,53.15,15.69C52.96,16.66,52.67,17.62,52.14,18.61L52.13,18.61L44.52,34.33C42.29,39.99,41.25,45.96,40.65,51.29C36.28,42.16,41.33,32.74,45.81,24.39Z" fill="currentColor"/><path d="M44.64,5C39.8,5,35.85,8.87,35.85,13.64C35.85,14.53,36,15.54,36.17,16.44C37.05,10.51,41.79,6.01,45.16,5.01C44.99,5.01,44.81,5,44.64,5Z" fill="currentColor"/><path d="M23.67,47.23C23.67,51.03,24.31,54.46,25.21,57.52C25.19,47.74,27.32,33.48,38.49,19.5C38.49,19.5,37.74,19.24,36.77,18.89C36.77,18.89,23.67,30.3,23.67,47.23Z" fill="currentColor"/><path d="M29.9,69.9L59.91,69.9C67.8,69.9,71.49,72.69,73.24,75.34C71.31,74.63,64.94,73.18,45.11,73.18C22.5,73.18,17.39,75.07,16.41,75.59L16.41,75.58C18.09,72.87,21.77,69.9,29.9,69.9Z" fill="currentColor"/></svg>