<svg xmlns="http://www.w3.org/2000/svg" viewBox="0 0 90 90"><path d="M71.83,46.28C71.83,52.41,67.95,63.71,67.26,67.06C67.26,67.06,66.96,68.1,66.77,69.85C77.65,71.67,77.59,79.83,77.59,79.83L77.59,85L15.62,85L15.62,79.83C15.62,79.83,15.56,70.85,28.11,69.63L28.24,67.06C29.01,59.25,36.14,53.55,40.21,50.25C42.74,48.21,45.33,45.87,46.26,42.64C47.26,39.13,44.99,35.98,44.17,34.99L42.06,37.43C39.93,39.66,36.14,43.55,31.87,43.57C26.33,43.6,26.2,47.47,23.59,49.99L23.61,50C23.02,50.58,16.25,48.91,13.89,46.91C12.11,45.41,11.89,42.6,13.55,40.55L20,31.48C22.88,27.29,23.01,25.05,24.67,20.82C25.14,19.63,25.68,17.99,27.78,16.25C29.88,14.51,31.24,13.15,32.06,11.14L32.87,7.26C33.15,6.08,34.19,5.01,35.2,5.01L42.32,12.12C56.25,13.06,71.83,23.2,71.83,46.28Z" fill="currentColor"/><path d="M71.83,46.28C71.83,50.7,69.81,57.81,68.43,62.68C67.89,64.57,67.45,66.12,67.26,67.06C67.26,67.06,66.98,68.15,66.8,69.85C66.78,69.85,55.38,69.24,52.76,69.48C53.81,65.64,55.9,62.33,58.08,58.86C61.64,53.21,65.45,47.15,65.45,37.78C65.45,17.76,47.2,13.01,42.9,12.16C56.68,13.34,71.83,23.52,71.83,46.28Z" fill="currentColor"/><path d="M33.38,43.39C32.89,43.5,32.38,43.56,31.87,43.56C26.33,43.59,26.2,47.46,23.59,49.98C23.45,50.11,22.97,50.12,22.31,50.04C22.85,49.12,24.38,47.44,25.53,43.97C27.41,38.34,28.68,40.97,33.38,43.39Z" fill="currentColor"/><path d="M33.38,43.39C33.39,43.39,33.39,43.39,33.4,43.39L33.4,43.4C33.39,43.4,33.39,43.39,33.38,43.39Z" fill="currentColor"/><path d="M48.75,32.57C48.77,34.11,47.79,38.41,46.32,42.27C47.07,38.91,44.96,35.94,44.17,34.99L43.99,35.19C44.02,35.09,44.04,35.03,44.04,35.02C44.04,35.02,46.52,31.13,47.52,29.21C48.52,27.29,48.72,30.89,48.75,32.57Z" fill="currentColor"/><path d="M42,12.01C42.07,12.01,42.14,12.01,42.2,12L42.25,12.05C42.09,12.02,42,12.01,42,12.01Z" fill="currentColor"/><path d="M75.97,75.08C73.97,74.35,67.37,72.86,46.82,72.86C23.39,72.86,18.1,74.8,17.08,75.33C18.82,72.54,22.63,69.49,31.06,69.49L62.16,69.49C70.34,69.49,74.16,72.36,75.97,75.08Z" fill="currentColor"/><path d="M33.47,14.98C24.96,20.27,26.51,26.75,24.04,30.04C22.82,31.67,14.2,42.31,12.53,44.37C12.31,43.09,12.58,41.69,13.53,40.52L13.54,40.53L19.99,31.46C22.87,27.27,23,25.03,24.66,20.8C25.12,19.61,25.66,17.97,27.77,16.23C29.87,14.49,31.23,13.13,32.05,11.12L32.86,7.24C33.07,6.36,33.7,5.54,34.42,5.18C34.58,5.15,34.73,5.11,34.9,5.11C34.91,5.14,37.89,12.24,33.47,14.98Z" fill="currentColor"/></svg>