<svg xmlns="http://www.w3.org/2000/svg" viewBox="0 0 90 90" fill="currentColor"><path d="M64.11,64.42C61.93,65.29,59.59,65.71,57.25,65.65C52.69,65.78,48.18,64.63,44.25,62.31L42.64,69.33L49.08,69.33L49.08,79.15L42.46,79.15L42.46,86L32.52,86L32.52,79.33L25.9,79.33L25.9,69.44L32.34,69.44L30.73,62.42C26.79,64.7,22.28,65.82,17.73,65.65C15.39,65.69,13.07,65.25,10.9,64.38C8.73,63.5,6.76,62.2,5.1,60.55C1.75,57.01,-0.08,52.29,0.01,47.41C0.01,39.92,4.8,35.13,9.43,30.57C12.45,27.84,15.04,24.68,17.12,21.18C9.43,19.17,9.43,13.97,9.43,8L9.43,6.01L65.57,6.01L65.57,8C65.57,13.96,65.57,19.23,57.91,21.12C59.98,24.63,62.56,27.82,65.57,30.57C70.22,35.19,75,39.97,75,47.41C75.11,52.3,73.31,57.04,69.96,60.6L69.95,60.6C68.28,62.25,66.3,63.55,64.11,64.42ZM49.28,34.33C47.51,34.44,46.47,34.54,44.93,34.6L44.93,48.35C44.93,48.35,49.35,51.51,52.9,51.51C52.93,51.51,59.38,51.29,58.54,45.47C58.03,41.92,52.79,38.8,49.28,34.33ZM30.02,48.35L30.02,34.6C28.52,34.6,27.44,34.45,25.67,34.33C22.16,38.81,16.93,41.92,16.41,45.47C15.64,51.28,22.05,51.51,22.05,51.51C25.61,51.51,30.02,48.35,30.02,48.35ZM69.95,60.6L69.96,60.6C73.31,57.04,75.11,52.3,75,47.41C75,39.97,70.22,35.19,65.57,30.57C62.6,27.85,60.05,24.71,57.99,21.25C55.89,21.81,53.56,21.99,51.34,21.99L51.19,21.99L67.67,38.51C75.77,46.62,70.44,58.95,69.43,61.1C69.6,60.93,69.78,60.77,69.95,60.6ZM64.72,15.73L64.71,15.73C62.98,16.53,56.98,18.14,37.48,18.14C17.98,18.14,11.98,16.49,10.25,15.73C12.23,21.03,18.64,21.99,23.73,21.99L51.34,21.99C56.78,21.99,62.82,20.94,64.72,15.73ZM18.78,65.65C5.28,63.43,-1.29,50.63,2.73,38.29C0.96,41,0.01,44.17,0.01,47.41C-0.08,52.29,1.75,57.01,5.1,60.55C6.76,62.2,8.73,63.5,10.9,64.38C13.07,65.25,15.39,65.69,17.73,65.65ZM18.78,65.65C18.8,65.65,18.82,65.66,18.84,65.66L18.84,65.65ZM40.96,84.34L34.18,84.34L34.18,77.69L27.56,77.69L27.56,70.94L26.07,69.44L25.9,69.44L25.9,79.33L32.52,79.33L32.52,86L42.46,86L42.46,85.84ZM40.97,77.69L42.47,79.33L49.09,79.33L49.09,77.69ZM51.28,35.56L77.72,35.56L77.72,30.89L74.51,6L54.49,6L51.28,30.89ZM69.94,37.11L65.39,6.76C65.33,6.32,64.95,6,64.51,6C64.06,6,63.68,6.33,63.62,6.78L59.83,37.11ZM51.03,16.11L60.89,7.45L48.94,11.71ZM56.6,21.56L59.66,14.99L53.64,18.6ZM75.39,21.56L71.48,19.09L73.52,23.42ZM81.81,20.22L77.4,18.84L80.49,22.5ZM78.33,15.27L67.87,7.53L75.37,18.22ZM62.94,23.89L64.5,6C64.06,6,63.68,6.33,63.63,6.77L61.39,24.67ZM69.69,35.4L67.86,23.2C66.75,23.14,65.63,23.11,64.5,23.11C63.52,23.11,62.54,23.14,61.57,23.18L60.04,35.44C61.49,35.52,62.98,35.56,64.5,35.56C66.28,35.56,68.02,35.5,69.69,35.4ZM42.72,30.89L86.28,30.89C87.14,30.89,87.83,31.59,87.83,32.44L87.83,37.59C87.83,38.24,87.43,38.82,86.82,39.04L77.41,42.56C69.71,44.11,81.61,63.43,83.11,67.99C85.37,74.86,77.33,76,64.5,76C51.67,75.61,43.63,74.86,45.89,67.99C47.39,63.43,59.29,44.11,51.59,42.56L42.18,39.04C41.57,38.82,41.17,38.24,41.17,37.59L41.17,32.44C41.17,31.59,41.86,30.89,42.72,30.89ZM83.4,71L79.98,71.34C69.68,72.37,59.31,72.37,49.02,71.34L45.6,71C46.51,75.11,53.85,75.68,64.5,76C75.17,76,82.53,75.21,83.4,71ZM41.6,38.67C41.76,38.83,41.96,38.96,42.18,39.04L51.59,42.56C52.96,42.83,53.71,43.67,54,44.89L59.9,44.89L73.8,38.67ZM70.48,75.88C61.22,75.43,55.2,74.26,56.93,67.99C58.19,63.43,67.55,43.33,61.72,41.78L54.61,39.05C54.01,38.82,53.61,38.24,53.61,37.6L53.61,32.44C53.61,31.59,54.31,30.89,55.17,30.89L42.72,30.89C41.86,30.89,41.17,31.59,41.17,32.44L41.17,37.59C41.17,38.24,41.57,38.82,42.18,39.04L51.59,42.56C59.29,44.11,47.39,63.43,45.89,67.99C43.63,74.86,51.67,75.61,64.5,76C66.64,76,68.64,75.97,70.48,75.88Z"/></svg>