<svg xmlns="http://www.w3.org/2000/svg" viewBox="0 0 90 90"><path d="M63.11,26.58C60.93,25.71,58.59,25.29,56.25,25.35C51.69,25.22,47.18,26.37,43.25,28.69L41.64,21.67L48.08,21.67L48.08,11.85L41.46,11.85L41.46,5L31.52,5L31.52,11.67L24.9,11.67L24.9,21.56L31.34,21.56L29.73,28.58C25.79,26.3,21.28,25.18,16.73,25.35C14.39,25.31,12.07,25.75,9.9,26.62C7.73,27.5,5.76,28.8,4.1,30.45C0.75,33.99,-1.08,38.71,-0.99,43.59C-0.99,51.08,3.8,55.87,8.43,60.43C11.45,63.16,14.04,66.32,16.12,69.82C8.43,71.83,8.43,77.03,8.43,83L8.43,84.99L64.57,84.99L64.57,83C64.57,77.04,64.57,71.77,56.91,69.88C58.98,66.37,61.56,63.18,64.57,60.43C69.22,55.81,74,51.03,74,43.59C74.11,38.7,72.31,33.96,68.96,30.4L68.95,30.4C67.28,28.75,65.3,27.45,63.11,26.58Z" fill="currentColor"/><path d="M48.28,56.67C46.51,56.56,45.47,56.46,43.93,56.4L43.93,42.65C43.93,42.65,48.35,39.49,51.9,39.49C51.93,39.49,58.38,39.71,57.54,45.53C57.03,49.08,51.79,52.2,48.28,56.67Z" fill="currentColor"/><path d="M29.02,42.65L29.02,56.4C27.52,56.4,26.44,56.55,24.67,56.67C21.16,52.19,15.93,49.08,15.41,45.53C14.64,39.72,21.05,39.49,21.05,39.49C24.61,39.49,29.02,42.65,29.02,42.65Z" fill="currentColor"/><path d="M68.95,30.4L68.96,30.4C72.31,33.96,74.11,38.7,74,43.59C74,51.03,69.22,55.81,64.57,60.43C61.6,63.15,59.05,66.29,56.99,69.75C54.89,69.19,52.56,69.01,50.34,69.01L50.19,69.01L66.67,52.49C74.77,44.38,69.44,32.05,68.43,29.9C68.6,30.07,68.78,30.23,68.95,30.4Z" fill="currentColor"/><path d="M63.72,75.27L63.71,75.27C61.98,74.47,55.98,72.86,36.48,72.86C16.98,72.86,10.98,74.51,9.25,75.27C11.23,69.97,17.64,69.01,22.73,69.01L50.34,69.01C55.78,69.01,61.82,70.06,63.72,75.27Z" fill="currentColor"/><path d="M17.78,25.35C4.28,27.57,-2.29,40.37,1.73,52.71C-0.04,50,-0.99,46.83,-0.99,43.59C-1.08,38.71,0.75,33.99,4.1,30.45C5.76,28.8,7.73,27.5,9.9,26.62C12.07,25.75,14.39,25.31,16.73,25.35Z" fill="currentColor"/><path d="M17.78,25.35C17.8,25.35,17.82,25.34,17.84,25.34L17.84,25.35Z" fill="currentColor"/><path d="M39.96,6.66L33.18,6.66L33.18,13.31L26.56,13.31L26.56,20.06L25.07,21.56L24.9,21.56L24.9,11.67L31.52,11.67L31.52,5L41.46,5L41.46,5.16Z" fill="currentColor"/><path d="M39.97,13.31L41.47,11.67L48.09,11.67L48.09,13.31Z" fill="currentColor"/><path d="M50.28,55.44L76.72,55.44L76.72,60.11L73.51,85L53.49,85L50.28,60.11Z" fill="currentColor"/><path d="M68.94,53.89L64.39,84.24C64.33,84.68,63.95,85,63.51,85C63.06,85,62.68,84.67,62.62,84.22L58.83,53.89Z" fill="currentColor"/><path d="M50.03,74.89L59.89,83.55L47.94,79.29Z" fill="currentColor"/><path d="M55.6,69.44L58.66,76.01L52.64,72.4Z" fill="currentColor"/><path d="M74.39,69.44L70.48,71.91L72.52,67.58Z" fill="currentColor"/><path d="M80.81,70.78L76.4,72.16L79.49,68.5Z" fill="currentColor"/><path d="M77.33,75.73L66.87,83.47L74.37,72.78Z" fill="currentColor"/><path d="M61.94,67.11L63.5,85C63.06,85,62.68,84.67,62.63,84.23L60.39,66.33Z" fill="currentColor"/><path d="M68.69,55.6L66.86,67.8C65.75,67.86,64.63,67.89,63.5,67.89C62.52,67.89,61.54,67.86,60.57,67.82L59.04,55.56C60.49,55.48,61.98,55.44,63.5,55.44C65.28,55.44,67.02,55.5,68.69,55.6Z" fill="currentColor"/><path d="M41.72,60.11L85.28,60.11C86.14,60.11,86.83,59.41,86.83,58.56L86.83,53.41C86.83,52.76,86.43,52.18,85.82,51.96L76.41,48.44C68.71,46.89,80.61,27.57,82.11,23.01C84.37,16.14,76.33,15,63.5,15C50.67,15.39,42.63,16.14,44.89,23.01C46.39,27.57,58.29,46.89,50.59,48.44L41.18,51.96C40.57,52.18,40.17,52.76,40.17,53.41L40.17,58.56C40.17,59.41,40.86,60.11,41.72,60.11Z" fill="currentColor"/><path d="M82.4,20L78.98,19.66C68.68,18.63,58.31,18.63,48.02,19.66L44.6,20C45.51,15.89,52.85,15.32,63.5,15C74.17,15,81.53,15.79,82.4,20Z" fill="currentColor"/><path d="M40.6,52.33C40.76,52.17,40.96,52.04,41.18,51.96L50.59,48.44C51.96,48.17,52.71,47.33,53,46.11L58.9,46.11L72.8,52.33Z" fill="currentColor"/><path d="M69.48,15.12C60.22,15.57,54.2,16.74,55.93,23.01C57.19,27.57,66.55,47.67,60.72,49.22L53.61,51.95C53.01,52.18,52.61,52.76,52.61,53.4L52.61,58.56C52.61,59.41,53.31,60.11,54.17,60.11L41.72,60.11C40.86,60.11,40.17,59.41,40.17,58.56L40.17,53.41C40.17,52.76,40.57,52.18,41.18,51.96L50.59,48.44C58.29,46.89,46.39,27.57,44.89,23.01C42.63,16.14,50.67,15.39,63.5,15C65.64,15,67.64,15.03,69.48,15.12Z" fill="currentColor"/></svg>