<svg xmlns="http://www.w3.org/2000/svg" viewBox="0 0 90 90"><path d="M66.56,8.11C66.56,14.68,66.56,20.31,57.2,22.02L70.34,53.78C73.85,54.23,77,57.83,77,61.61C77,65.84,73.49,69.53,68.99,69.53C64.76,69.53,61.07,65.84,61.07,61.61C61.07,59.99,61.88,58.46,62.42,57.56L53.43,48.02L52.35,70.16C55.41,71.15,57.65,74.21,57.65,77.72C57.65,81.68,54.6,86,49.29,86C44.52,86,40.92,81.95,40.92,77.72C40.92,75.29,42.09,72.95,43.98,71.42L37.5,52.61L31.02,71.42C32.91,72.95,34.08,75.29,34.08,77.72C34.08,82.22,30.48,86,25.71,86C20.4,86,17.35,81.86,17.35,77.63C17.35,74.12,19.59,71.15,22.65,70.16L21.57,48.02L12.58,57.56C13.12,58.46,13.93,59.99,13.93,61.61C13.93,65.84,10.24,69.53,6.01,69.53C1.6,69.53,-2,65.93,-2,61.61C-2,57.83,1.15,54.23,4.66,53.78L17.89,22.02C8.44,20.31,8.44,14.59,8.44,8.11L8.44,6L66.56,6Z" fill="currentColor"/><path d="M68.99,69.53C64.76,69.53,61.07,65.84,61.07,61.61C61.07,60.35,61.52,59.18,61.97,58.37C62.33,65.3,66.82,68.72,71.06,69.26C70.61,69.35,69.62,69.53,68.99,69.53Z" fill="currentColor"/><path d="M25.71,86C20.4,86,17.35,81.86,17.35,77.63C17.35,76.28,17.7,74.93,18.42,73.67C19.14,80.87,22.74,84.83,25.71,86Z" fill="currentColor"/><path d="M49.29,86C44.52,86,40.92,81.95,40.92,77.72C40.92,76.37,41.28,75.02,41.91,73.85C42.36,80.51,46.5,84.56,49.29,86Z" fill="currentColor"/><path d="M6.01,69.53C1.6,69.53,-2,65.93,-2,61.61C-2,58.73,-0.29,56.3,1.87,54.77C-1.37,59.81,0.43,66.74,6.01,69.53Z" fill="currentColor"/><path d="M17.89,22.02C20.85,22.2,28.77,22.56,37.59,22.56C48.57,22.56,52.89,22.56,57.21,22.02C61.79,21.21,64.13,19.41,65.3,17.07C64.22,17.52,62.87,17.79,61.25,18.06C56.04,18.51,50.82,18.51,37.59,18.51C26.97,18.51,17.35,18.24,13.84,18.06C12.31,17.79,10.96,17.52,9.79,17.07C11.05,19.41,13.39,21.21,17.89,22.02Z" fill="currentColor"/><path d="M75.2,66.56C77,59.18,70.34,56.84,67.46,55.31C67.46,55.31,61.16,42.63,52.62,33.27C43.53,23.46,37.5,22.56,37.5,22.56C48.48,22.56,52.89,22.56,57.2,22.02L70.34,53.78C73.85,54.23,77,57.83,77,61.61C77,63.41,76.37,65.12,75.2,66.56Z" fill="currentColor" opacity="0.5"/><path d="M51.28,35.56L77.72,35.56L77.72,30.89L74.51,6L54.49,6L51.28,30.89Z" fill="currentColor"/><path d="M69.94,37.11L65.39,6.76C65.33,6.32,64.95,6,64.51,6C64.06,6,63.68,6.33,63.62,6.78L59.83,37.11Z" fill="currentColor"/><path d="M51.03,16.11L60.89,7.45L48.94,11.71Z" fill="currentColor"/><path d="M56.6,21.56L59.66,14.99L53.64,18.6Z" fill="currentColor"/><path d="M75.39,21.56L71.48,19.09L73.52,23.42Z" fill="currentColor"/><path d="M81.81,20.22L77.4,18.84L80.49,22.5Z" fill="currentColor"/><path d="M78.33,15.27L67.87,7.53L75.37,18.22Z" fill="currentColor"/><path d="M62.94,23.89L64.5,6C64.06,6,63.68,6.33,63.63,6.77L61.39,24.67Z" fill="currentColor"/><path d="M69.69,35.4L67.86,23.2C66.75,23.14,65.63,23.11,64.5,23.11C63.52,23.11,62.54,23.14,61.57,23.18L60.04,35.44C61.49,35.52,62.98,35.56,64.5,35.56C66.28,35.56,68.02,35.5,69.69,35.4Z" fill="currentColor"/><path d="M42.72,30.89L86.28,30.89C87.14,30.89,87.83,31.59,87.83,32.44L87.83,37.59C87.83,38.24,87.43,38.82,86.82,39.04L77.41,42.56C69.71,44.11,81.61,63.43,83.11,67.99C85.37,74.86,77.33,76,64.5,76C51.67,75.61,43.63,74.86,45.89,67.99C47.39,63.43,59.29,44.11,51.59,42.56L42.18,39.04C41.57,38.82,41.17,38.24,41.17,37.59L41.17,32.44C41.17,31.59,41.86,30.89,42.72,30.89Z" fill="currentColor"/><path d="M83.4,71L79.98,71.34C69.68,72.37,59.31,72.37,49.02,71.34L45.6,71C46.51,75.11,53.85,75.68,64.5,76C75.17,76,82.53,75.21,83.4,71Z" fill="currentColor"/><path d="M41.6,38.67C41.76,38.83,41.96,38.96,42.18,39.04L51.59,42.56C52.96,42.83,53.71,43.67,54,44.89L59.9,44.89L73.8,38.67Z" fill="currentColor"/><path d="M70.48,75.88C61.22,75.43,55.2,74.26,56.93,67.99C58.19,63.43,67.55,43.33,61.72,41.78L54.61,39.05C54.01,38.82,53.61,38.24,53.61,37.6L53.61,32.44C53.61,31.59,54.31,30.89,55.17,30.89L42.72,30.89C41.86,30.89,41.17,31.59,41.17,32.44L41.17,37.59C41.17,38.24,41.57,38.82,42.18,39.04L51.59,42.56C59.29,44.11,47.39,63.43,45.89,67.99C43.63,74.86,51.67,75.61,64.5,76C66.64,76,68.64,75.97,70.48,75.88Z" fill="currentColor"/></svg>