<svg xmlns="http://www.w3.org/2000/svg" viewBox="0 0 90 90"><path d="M8,82L8,73.31L16.69,73.31L16.69,82Z" fill="currentColor" opacity="0.4"/><path d="M24.78,82L24.78,73.78L32.87,73.78L32.87,82Z" fill="currentColor" opacity="0.4"/><path d="M40.96,82L40.96,73.78L49.04,73.78L49.04,82Z" fill="currentColor" opacity="0.4"/><path d="M57.13,82L57.13,73.78L65.22,73.78L65.22,82Z" fill="currentColor" opacity="0.4"/><path d="M73.31,82L73.31,73.31L82,73.31L82,82Z" fill="currentColor" opacity="0.4"/><path d="M8,65.22L8,57.13L16.22,57.13L16.22,65.22Z" fill="currentColor" opacity="0.4"/><path d="M73.78,65.22L73.78,57.13L82,57.13L82,65.22Z" fill="currentColor" opacity="0.4"/><path d="M8,49.04L8,40.96L16.22,40.96L16.22,49.04Z" fill="currentColor" opacity="0.4"/><path d="M73.78,49.04L73.78,40.96L82,40.96L82,49.04Z" fill="currentColor" opacity="0.4"/><path d="M8,32.87L8,24.78L16.22,24.78L16.22,32.87Z" fill="currentColor" opacity="0.4"/><path d="M73.78,32.87L73.78,24.78L82,24.78L82,32.87Z" fill="currentColor" opacity="0.4"/><path d="M8,16.69L8,8L16.69,8L16.69,16.69Z" fill="currentColor" opacity="0.4"/><path d="M73.31,16.69L73.31,8L82,8L82,16.69Z" fill="currentColor" opacity="0.4"/><path d="M24.78,16.22L24.78,8L32.87,8L32.87,16.22Z" fill="currentColor" opacity="0.4"/><path d="M40.96,16.22L40.96,8L49.04,8L49.04,16.22Z" fill="currentColor" opacity="0.4"/><path d="M57.13,16.22L57.13,8L65.22,8L65.22,16.22Z" fill="currentColor" opacity="0.4"/></svg>