<svg xmlns="http://www.w3.org/2000/svg" viewBox="0 0 90 90"><path d="M9,83L9,74.31L17.69,74.31L17.69,83Z" fill="currentColor" opacity="0.16000000000000003"/><path d="M25.78,83L25.78,74.78L33.87,74.78L33.87,83Z" fill="currentColor" opacity="0.16000000000000003"/><path d="M41.96,83L41.96,74.78L50.04,74.78L50.04,83Z" fill="currentColor" opacity="0.16000000000000003"/><path d="M58.13,83L58.13,74.78L66.22,74.78L66.22,83Z" fill="currentColor" opacity="0.16000000000000003"/><path d="M74.31,83L74.31,74.31L83,74.31L83,83Z" fill="currentColor" opacity="0.16000000000000003"/><path d="M9,66.22L9,58.13L17.22,58.13L17.22,66.22Z" fill="currentColor" opacity="0.16000000000000003"/><path d="M74.78,66.22L74.78,58.13L83,58.13L83,66.22Z" fill="currentColor" opacity="0.16000000000000003"/><path d="M9,50.04L9,41.96L17.22,41.96L17.22,50.04Z" fill="currentColor" opacity="0.16000000000000003"/><path d="M74.78,50.04L74.78,41.96L83,41.96L83,50.04Z" fill="currentColor" opacity="0.16000000000000003"/><path d="M9,33.87L9,25.78L17.22,25.78L17.22,33.87Z" fill="currentColor" opacity="0.16000000000000003"/><path d="M74.78,33.87L74.78,25.78L83,25.78L83,33.87Z" fill="currentColor" opacity="0.16000000000000003"/><path d="M9,17.69L9,9L17.69,9L17.69,17.69Z" fill="currentColor" opacity="0.16000000000000003"/><path d="M74.31,17.69L74.31,9L83,9L83,17.69Z" fill="currentColor" opacity="0.16000000000000003"/><path d="M25.78,17.22L25.78,9L33.87,9L33.87,17.22Z" fill="currentColor" opacity="0.16000000000000003"/><path d="M41.96,17.22L41.96,9L50.04,9L50.04,17.22Z" fill="currentColor" opacity="0.16000000000000003"/><path d="M58.13,17.22L58.13,9L66.22,9L66.22,17.22Z" fill="currentColor" opacity="0.16000000000000003"/></svg>