<svg xmlns="http://www.w3.org/2000/svg" viewBox="0 0 90 90"><path d="M5,65.26L5,13C5,8.58,8.58,5,13,5L77,5C81.42,5,85,8.58,85,13L85,65.26C85,68.26,83.33,71,80.67,72.37L48.67,88.89C46.37,90.07,43.63,90.07,41.33,88.89L9.33,72.37C6.67,71,5,68.26,5,65.26Z" fill="#008CD1"/><path d="M5,65.26L5,13C5,8.58,8.58,5,13,5L45,5L45,84.21C45,87.21,41.83,89.14,39.17,87.77L9.33,72.37C6.67,71,5,68.26,5,65.26Z" fill="#009FD9"/><path d="M9,65.46L9,13C9,10.79,10.79,9,13,9L77,9C79.21,9,81,10.79,81,13L81,65.46C81,66.99,80.14,68.37,78.78,69.05L46.78,84.9C45.66,85.45,44.34,85.45,43.22,84.9L11.22,69.05C9.86,68.37,9,66.99,9,65.46Z" fill="#0B548C"/><path d="M12,64.48L12,14C12,12.9,12.9,12,14,12L76,12C77.1,12,78,12.9,78,14L78,64.48C78,65.25,77.56,65.94,76.87,66.28L45.87,81.35C45.32,81.62,44.68,81.62,44.13,81.35L13.13,66.28C12.44,65.94,12,65.25,12,64.48Z" fill="#0069AB"/><path d="M12,64.48L12,14C12,12.9,12.9,12,14,12L45,12L45,81.78L13.13,66.28C12.44,65.94,12,65.25,12,64.48Z" fill="#008CD1"/><path d="M68.25,21.43L60.56,21.43L60.56,18L29.43,18L29.43,21.44L21.77,21.44C19.12,21.44,16.87,23.53,17.2,26.16C18.14,33.58,22.4,40.13,30.72,40.24C32.55,44.48,36.19,47.73,40.68,49.04L40.68,54.27C40.61,59.02,36.76,62.85,31.99,62.85L31.46,62.85L31.46,68L58.5,68L58.5,62.85L57.95,62.85C53.16,62.85,49.27,58.96,49.27,54.16L49.27,49.07C53.79,47.78,57.48,44.52,59.32,40.25C67.65,40.14,71.87,33.41,72.8,26.13C73.14,23.5,70.89,21.43,68.25,21.43Z" fill="#4DC3EA"/><path d="M29.43,25.74L29.43,34.06C29.43,34.66,29.46,35.26,29.54,35.84C23.74,35.17,22.09,31.63,21.33,25.74Z" fill="#4DC3EA"/><path d="M60.57,34.06L60.57,25.74L68.68,25.74C68.09,30.49,65.7,35.24,60.47,35.84C60.53,35.27,60.57,34.67,60.57,34.06Z" fill="#4DC3EA"/><path d="M58.5,68L58.5,62.85L57.95,62.85C53.16,62.85,49.27,58.96,49.27,54.16L49.27,49.07C53.79,47.78,57.48,44.52,59.32,40.25C67.65,40.14,71.87,33.41,72.8,26.13C73.14,23.5,70.89,21.43,68.25,21.43L60.56,21.43L60.56,18L45.02,18L45.02,68Z" fill="#009FD9"/><path d="M60.47,35.84C65.7,35.24,68.09,30.49,68.68,25.74L60.57,25.74L60.57,34.06C60.57,34.67,60.53,35.27,60.47,35.84Z" fill="#009FD9"/><path d="M13,5L46,5L13.91,6.09C9.91,6.22,6.63,9.28,6.22,13.25L5,25L5,13C5,8.58,8.58,5,13,5Z" fill="#4DC3EA"/></svg>