<svg xmlns="http://www.w3.org/2000/svg" viewBox="0 0 90 90" fill="currentColor"><path d="M6,66.26L6,14C6,9.58,9.58,6,14,6L78,6C82.42,6,86,9.58,86,14L86,66.26C86,69.26,84.33,72,81.67,73.37L49.67,89.89C47.37,91.07,44.63,91.07,42.33,89.89L10.33,73.37C7.67,72,6,69.26,6,66.26ZM6,66.26L6,14C6,9.58,9.58,6,14,6L46,6L46,85.21C46,88.21,42.83,90.14,40.17,88.77L10.33,73.37C7.67,72,6,69.26,6,66.26ZM10,66.46L10,14C10,11.79,11.79,10,14,10L78,10C80.21,10,82,11.79,82,14L82,66.46C82,67.99,81.14,69.37,79.78,70.05L47.78,85.9C46.66,86.45,45.34,86.45,44.22,85.9L12.22,70.05C10.86,69.37,10,67.99,10,66.46ZM13,65.48L13,15C13,13.9,13.9,13,15,13L77,13C78.1,13,79,13.9,79,15L79,65.48C79,66.25,78.56,66.94,77.87,67.28L46.87,82.35C46.32,82.62,45.68,82.62,45.13,82.35L14.13,67.28C13.44,66.94,13,66.25,13,65.48ZM13,65.48L13,15C13,13.9,13.9,13,15,13L46,13L46,82.78L14.13,67.28C13.44,66.94,13,66.25,13,65.48ZM69.25,22.43L61.56,22.43L61.56,19L30.43,19L30.43,22.44L22.77,22.44C20.12,22.44,17.87,24.53,18.2,27.16C19.14,34.58,23.4,41.13,31.72,41.24C33.55,45.48,37.19,48.73,41.68,50.04L41.68,55.27C41.61,60.02,37.76,63.85,32.99,63.85L32.46,63.85L32.46,69L59.5,69L59.5,63.85L58.95,63.85C54.16,63.85,50.27,59.96,50.27,55.16L50.27,50.07C54.79,48.78,58.48,45.52,60.32,41.25C68.65,41.14,72.87,34.41,73.8,27.13C74.14,24.5,71.89,22.43,69.25,22.43ZM30.43,26.74L30.43,35.06C30.43,35.66,30.46,36.26,30.54,36.84C24.74,36.17,23.09,32.63,22.33,26.74ZM61.57,35.06L61.57,26.74L69.68,26.74C69.09,31.49,66.7,36.24,61.47,36.84C61.53,36.27,61.57,35.67,61.57,35.06ZM59.5,69L59.5,63.85L58.95,63.85C54.16,63.85,50.27,59.96,50.27,55.16L50.27,50.07C54.79,48.78,58.48,45.52,60.32,41.25C68.65,41.14,72.87,34.41,73.8,27.13C74.14,24.5,71.89,22.43,69.25,22.43L61.56,22.43L61.56,19L46.02,19L46.02,69ZM61.47,36.84C66.7,36.24,69.09,31.49,69.68,26.74L61.57,26.74L61.57,35.06C61.57,35.67,61.53,36.27,61.47,36.84ZM14,6L47,6L14.91,7.09C10.91,7.22,7.63,10.28,7.22,14.25L6,26L6,14C6,9.58,9.58,6,14,6Z"/></svg>