<svg xmlns="http://www.w3.org/2000/svg" viewBox="0 0 90 90"><path d="M36.74,56.19L41.62,56.19C41.62,56.19,43.42,53.77,43.42,51.11L43.42,50.06L37.91,46.46C40.13,44.24,41.5,41.17,41.5,37.89C41.5,31.33,36.11,26.04,29.54,26.04C22.98,26.04,17.59,31.33,17.59,37.89C17.59,41.17,18.96,44.24,21.18,46.46L15.67,50.06L15.67,51.11C15.67,53.65,17.47,56.19,17.47,56.19L22.35,56.19C22.03,59.15,20.54,64.66,13.35,69.21C9.22,71.85,6.89,76.73,6.89,82.66C6.89,83.71,7.59,84.47,8.79,84.56C9.99,84.65,18.44,85,29.53,85C40.63,85,49.17,84.68,50.39,84.56C51.6,84.44,52.29,83.71,52.29,82.66C52.29,76.73,49.86,71.86,45.73,69.21L45.74,69.21C38.54,64.66,37.17,59.16,36.74,56.19Z" fill="currentColor"/><path d="M49.22,72.49C48.26,71.19,47.09,70.08,45.74,69.21C38.54,64.66,37.17,59.16,36.74,56.19L41.62,56.19C41.62,56.19,43.42,53.77,43.42,51.11L43.42,50.06L37.91,46.46C40.13,44.24,41.5,41.17,41.5,37.89C41.5,32.93,38.41,28.69,34.07,26.93C38.12,29.39,40.98,36.38,37.26,41.65C34.49,45.58,29.06,46.51,29.06,46.51L35.71,46.51C35.78,46.56,38.98,51.65,34.62,54.5L16.54,54.53C17,55.52,17.47,56.19,17.48,56.21L26.38,56.21C26.38,56.21,32.47,62.71,37.53,67.46L37.53,67.44C41.3,70.97,46.89,72.14,49.22,72.49Z" fill="currentColor"/><path d="M29.54,26.03C25.38,26.53,18.98,31.46,18.15,41.48C17.78,40.33,17.59,39.12,17.59,37.88C17.59,31.32,22.98,26.03,29.54,26.03Z" fill="currentColor"/><path d="M21.17,46.46C21.17,46.45,21.18,46.44,21.18,46.44L21.19,46.45Z" fill="currentColor"/><path d="M20.43,50.1L15.68,50.07L15.68,50.05L21.17,46.46C21.1,46.69,20.66,48.46,20.43,50.1Z" fill="currentColor"/><path d="M21.4,60.05C20.31,62.86,18.05,66.23,13.36,69.2C9.23,71.84,6.9,76.72,6.9,82.64C8.6,77.04,11.01,75.38,14.84,72.74C15.62,72.2,16.46,71.62,17.37,70.95C20.63,68.58,21.31,61.27,21.4,60.05Z" fill="currentColor"/><path d="M45.05,49.34L58.16,42.29L81.15,33.26C89.61,29.33,89.94,6.2,82.08,4.66C69.47,2.22,54.65,1.13,41.55,1C39.7,0.98,37.86,1.21,36.13,1.84C28.27,4.67,15.51,11.47,11.39,16.58C8.74,19.86,5.06,29.63,4.05,34.22C3.81,35.34,4.42,36.42,5.49,36.81C15.96,40.65,20.01,25.88,20.32,23.92C25.06,23,29.66,21.47,34,19.37L34.61,19.08C38.98,20.15,43.54,20.16,47.92,19.12L48.19,19.06L53.22,23.14C54.2,23.93,54.23,25.42,53.29,26.26L46.6,32.16L38.13,38.29C35.11,40.47,34.53,44.72,36.84,47.64C38.8,50.12,42.27,50.84,45.05,49.34Z" fill="currentColor"/><path d="M36.84,47.64C36.81,47.61,36.79,47.58,36.76,47.54L36.53,46.67C38.82,48.55,42.04,48.82,44.61,47.34L57.99,39.61L76.07,31.63C82,29.01,86.3,23.76,87.74,17.53C87.7,24.15,85.5,31.24,81.15,33.26L58.16,42.29L45.05,49.34C42.27,50.84,38.8,50.12,36.84,47.64Z" fill="currentColor"/><path d="M4,34.54C5.19,35.32,6.61,35.71,8.03,35.63L8.72,35.6L9.47,33.88C13.02,33.88,16.08,31.4,16.81,27.93L18.32,20.77L20.1,20.52C24.77,19.88,29.22,18.17,33.12,15.54L34.66,14.49L37.34,15.33C41.43,16.61,45.73,17.02,49.98,16.54L53.74,16.11L54.99,19.64C55.84,22.01,55.15,24.66,53.25,26.32L49.74,29.39L53.29,26.26C54.23,25.42,54.2,23.93,53.22,23.14L48.19,19.06L47.92,19.12C43.54,20.16,38.98,20.15,34.61,19.08L34,19.37C29.66,21.47,25.06,23,20.32,23.92C20.01,25.88,15.96,40.65,5.49,36.81C4.52,36.46,3.93,35.54,4,34.54Z" fill="currentColor"/><path d="M12.38,16.59L13.31,15.89C20.27,10.64,27.87,6.31,35.94,3.01C37.79,2.26,39.78,1.9,41.77,1.97L53.38,2.39C65,2.8,76.4,5.58,86.88,10.55C85.98,7.42,84.38,5.11,82.08,4.66C69.47,2.22,54.65,1.13,41.55,1C39.7,0.98,37.86,1.21,36.13,1.84C28.27,4.67,15.51,11.47,11.39,16.58C10.01,18.28,8.36,21.73,6.95,25.3C7.46,25.41,7.95,25.59,8.41,25.83L9.29,26.3Z" fill="currentColor"/><path d="M37.83,41.05C38.94,43.34,40.81,45.19,43.13,46.29C43.18,46.32,43.17,46.39,43.12,46.4C39.84,47.21,36.8,44.48,37.31,41.11C37.35,40.86,37.72,40.82,37.83,41.05Z" fill="currentColor" opacity="0.5"/></svg>