<svg xmlns="http://www.w3.org/2000/svg" viewBox="0 0 90 90"><path d="M21.36,79.49L68.64,79.49C69.75,79.49,70.64,80.39,70.64,81.49L70.64,88C70.64,89.1,69.75,90,68.64,90L21.36,90C20.25,90,19.36,89.1,19.36,88L19.36,81.49C19.36,80.39,20.25,79.49,21.36,79.49Z" fill="currentColor"/><path d="M29.6,55.25L38.71,42.51C36.58,41.97,35.01,40.12,35.01,37.93C35.01,35.22,37.4,33.18,40.03,33.18C39.7,30.34,42.26,28,45,28C47.74,28,50.3,30.34,49.97,33.18C52.59,33.18,54.99,35.22,54.99,37.93C54.99,40.12,53.42,41.97,51.29,42.51L60.4,55.25L70.37,48.7C66.54,42.9,74.68,37.85,80.03,42L70.44,72.6C70.18,73.43,69.4,74,68.53,74L21.47,74C20.59,74,19.82,73.43,19.56,72.6L9.97,42C15.32,37.85,23.46,42.9,19.63,48.7Z" fill="currentColor"/><path d="M74.73,18.69C76.39,20.14,78.92,19.97,80.37,18.3C81.82,16.64,81.65,14.11,79.98,12.66C60.61,-4.22,29.39,-4.22,10.02,12.66C8.35,14.11,8.18,16.64,9.63,18.3C11.08,19.97,13.61,20.14,15.27,18.69C31.64,4.44,58.37,4.44,74.73,18.69Z" fill="currentColor"/><path d="M64.15,28.51C65.81,29.96,68.34,29.78,69.79,28.11C71.24,26.45,71.06,23.92,69.39,22.47C55.87,10.71,34.13,10.71,20.61,22.47C18.94,23.92,18.76,26.45,20.21,28.11C21.66,29.78,24.19,29.96,25.85,28.51C36.37,19.36,53.63,19.36,64.15,28.51Z" fill="currentColor"/><path d="M21.36,79.49L68.64,79.49C69.75,79.49,70.64,80.39,70.64,81.49L70.64,81.88C70.64,82.97,69.14,83.26,68.73,82.25C68.43,81.5,67.69,81,66.88,81L23.12,81C22.31,81,21.57,81.5,21.27,82.25C20.86,83.26,19.36,82.97,19.36,81.88L19.36,81.49C19.36,80.39,20.25,79.49,21.36,79.49Z" fill="currentColor"/><path d="M21.3,70.48C21.92,72.14,23.23,73.41,24.83,74L21.44,74C20.57,74,19.79,73.43,19.53,72.6L9.94,42C15.29,37.85,23.43,42.9,19.6,48.7L29.57,55.25L38.68,42.51C36.55,41.97,34.98,40.12,34.98,37.93C34.98,35.22,37.38,33.18,40,33.18C39.67,30.34,42.23,28,44.97,28C47.71,28,50.27,30.34,49.94,33.18C52.57,33.18,54.96,35.22,54.96,37.93C54.96,40.12,53.39,41.97,51.26,42.51L60.37,55.25L70.34,48.7C66.51,42.9,74.65,37.85,80,42L70.41,72.6C70.15,73.43,69.38,74,68.5,74L65.17,74C66.77,73.41,68.08,72.14,68.7,70.48L79.19,42.5L78.93,42.37C76.97,41.35,74.6,41.57,72.86,42.92L72.61,43.11C70.67,44.63,70.04,47.3,71.11,49.53L61.43,57C60.44,57.77,59,57.45,58.43,56.34L51.24,42.5L52.68,41.5C53.66,40.82,54.24,39.71,54.24,38.52C54.24,36.52,52.62,34.89,50.61,34.89L49.68,34.89L49.68,34.67C49.68,32.08,47.59,29.99,45,29.99C42.41,29.99,40.32,32.08,40.32,34.67L40.32,34.89L39.39,34.89C37.38,34.89,35.76,36.52,35.76,38.52C35.76,39.71,36.34,40.82,37.32,41.5L38.76,42.5L31.57,56.34C31,57.45,29.56,57.77,28.57,57L18.89,49.53C19.96,47.3,19.33,44.63,17.39,43.11L17.14,42.92C15.4,41.57,13.03,41.35,11.07,42.37L10.81,42.5Z" fill="currentColor"/><path d="M81.23,16.68C81.6,15.26,81.16,13.69,79.98,12.66C60.61,-4.22,29.39,-4.22,10.02,12.66C8.84,13.69,8.41,15.26,8.77,16.68C8.97,15.92,9.38,15.21,10.02,14.66C29.39,-2.22,60.61,-2.22,79.98,14.66C80.62,15.21,81.04,15.92,81.23,16.68Z" fill="currentColor"/><path d="M70.64,26.49C71.01,25.07,70.58,23.5,69.39,22.47C55.87,10.71,34.13,10.71,20.61,22.47C19.42,23.5,18.99,25.07,19.36,26.49C19.55,25.73,19.97,25.02,20.61,24.47C34.13,12.71,55.87,12.71,69.39,24.47C70.03,25.02,70.45,25.73,70.64,26.49Z" fill="currentColor"/></svg>