<svg xmlns="http://www.w3.org/2000/svg" viewBox="0 0 90 90"><path d="M83,42.87L71.47,42.87C69.98,28.59,57.89,17.45,43.2,17.45C27.49,17.45,14.77,30.16,14.77,45.84C14.77,61.53,27.49,74.24,43.2,74.24C45.58,74.24,47.89,73.94,50.1,73.39L50.1,85.25C47.81,85.65,45.46,85.87,43.06,85.87C20.93,85.87,3,67.96,3,45.86C3,23.77,20.93,5.86,43.06,5.86C64.17,5.86,81.47,22.18,83,42.87Z" fill="currentColor"/><path d="M71.88,18.09C64.67,11.14,54.87,6.87,44.06,6.87C21.94,6.87,4,24.78,4,46.87C4,57.65,8.28,67.44,15.23,74.63C7.69,67.36,3,57.16,3,45.86C3,23.77,20.93,5.86,43.06,5.86C54.37,5.86,64.6,10.55,71.88,18.09Z" fill="currentColor"/><path d="M68.72,15.15C66.23,18.19,63.02,20.65,59.31,22.45C54.73,19.3,49.18,17.45,43.2,17.45C37.06,17.45,31.37,19.4,26.72,22.7C22.95,20.99,19.77,18.51,17.42,15.13C24.37,9.34,33.31,5.86,43.06,5.86C52.82,5.86,61.77,9.35,68.72,15.15Z" fill="currentColor"/><path d="M43.25,74.24C45.63,74.24,47.94,73.94,50.15,73.39L50.15,85.25C48.53,85.54,46.87,85.72,45.18,85.81C41.92,84.57,37.92,82.67,34.27,80.58C30.42,78.37,26.55,75.71,24.49,73.16C23.1,71.45,21.67,68.41,20.55,65.62C19.76,63.66,19.04,61.61,18.51,59.84C23.4,68.44,32.65,74.24,43.25,74.24Z" fill="currentColor"/><path d="M50.24,35.17L55.18,35.17C55.18,35.17,57.01,37.63,57.01,40.34L57.01,41.41L51.43,45.07C53.68,47.33,55.07,50.46,55.07,53.79C55.07,60.47,49.6,65.85,42.95,65.85C36.3,65.85,30.84,60.47,30.84,53.79C30.84,50.46,32.23,47.33,34.48,45.07L28.9,41.41L28.9,40.34C28.9,37.76,30.72,35.17,30.72,35.17L35.66,35.17C35.34,32.16,33.84,26.56,26.54,21.92C22.36,19.24,20,14.28,20,8.25C20,7.17,20.72,6.4,21.93,6.31C23.14,6.22,31.7,5.86,42.94,5.86C54.19,5.86,62.84,6.18,64.07,6.31C65.29,6.43,66,7.17,66,8.25C66,14.28,63.53,19.23,59.35,21.92L59.36,21.92C52.07,26.56,50.68,32.15,50.24,35.17Z" fill="currentColor"/><path d="M62.89,18.59C61.91,19.91,60.73,21.04,59.36,21.92C52.07,26.56,50.68,32.15,50.24,35.17L55.18,35.17C55.18,35.17,57.01,37.63,57.01,40.34L57.01,41.41L51.43,45.07C53.68,47.33,55.07,50.46,55.07,53.79C55.07,58.84,51.94,63.15,47.54,64.94C51.65,62.43,54.54,55.33,50.77,49.97C47.96,45.97,42.47,45.02,42.47,45.02L49.2,45.02C49.27,44.97,52.52,39.79,48.1,36.89L29.78,36.86C30.25,35.85,30.72,35.17,30.73,35.15L39.75,35.15C39.75,35.15,45.92,28.54,51.04,23.71L51.04,23.73C54.86,20.13,60.52,18.94,62.89,18.59Z" fill="currentColor"/><path d="M42.95,65.86C38.73,65.35,32.25,60.33,31.41,50.14C31.04,51.31,30.84,52.54,30.84,53.8C30.84,60.48,36.31,65.86,42.95,65.86Z" fill="currentColor"/><path d="M34.47,45.07C34.48,45.08,34.48,45.09,34.48,45.09L34.49,45.08Z" fill="currentColor"/><path d="M33.72,41.37L28.91,41.4L28.91,41.42L34.47,45.07C34.4,44.84,33.96,43.04,33.72,41.37Z" fill="currentColor"/><path d="M34.71,31.25C33.6,28.38,31.31,24.96,26.56,21.93C22.38,19.25,20.01,14.29,20.01,8.26C21.73,13.96,24.18,15.65,28.05,18.34C28.85,18.89,29.7,19.48,30.62,20.15C33.92,22.57,34.61,30.01,34.71,31.25Z" fill="currentColor"/><path d="M54.93,46.55L65.63,52.3L84.39,59.66C91.28,62.87,91.56,81.74,85.14,83C74.85,84.99,62.76,85.88,52.07,85.98C50.57,86,49.07,85.81,47.65,85.3C41.24,82.99,30.83,77.45,27.47,73.27C25.31,70.6,22.3,62.62,21.48,58.88C21.28,57.97,21.78,57.09,22.65,56.77C31.2,53.64,34.5,65.69,34.76,67.28C38.62,68.04,42.38,69.29,45.92,71L46.41,71.24C49.98,70.36,53.7,70.35,57.27,71.2L57.49,71.25L61.6,67.93C62.4,67.27,62.43,66.06,61.65,65.38L56.2,60.56L49.29,55.56C46.83,53.78,46.35,50.31,48.23,47.93C49.83,45.91,52.66,45.32,54.93,46.55Z" fill="currentColor"/><path d="M48.23,47.93C48.21,47.96,48.19,47.98,48.17,48.01L47.98,48.72C49.85,47.19,52.48,46.97,54.57,48.18L65.49,54.48L80.24,60.99C85.08,63.13,88.59,67.42,89.76,72.5C89.73,67.1,87.93,61.31,84.39,59.66L65.63,52.3L54.93,46.55C52.66,45.32,49.83,45.91,48.23,47.93Z" fill="currentColor"/><path d="M21.44,58.62C22.41,57.98,23.57,57.67,24.73,57.73L25.29,57.76L25.91,59.16C28.8,59.16,31.29,61.18,31.89,64.01L33.12,69.85L34.58,70.06C38.38,70.58,42.02,71.97,45.2,74.13L46.46,74.98L48.64,74.29C51.98,73.25,55.49,72.92,58.96,73.31L62.02,73.66L63.05,70.78C63.73,68.84,63.17,66.68,61.63,65.33L58.76,62.82L61.65,65.38C62.43,66.06,62.4,67.27,61.6,67.92L57.49,71.25L57.27,71.2C53.7,70.35,49.98,70.36,46.41,71.24L45.92,71C42.38,69.29,38.62,68.04,34.76,67.28C34.5,65.69,31.2,53.64,22.65,56.77C21.86,57.06,21.38,57.81,21.44,58.62Z" fill="currentColor"/><path d="M28.28,73.26L29.04,73.84C34.71,78.12,40.92,81.65,47.5,84.34C49.01,84.96,50.63,85.25,52.26,85.19L61.73,84.86C71.21,84.52,80.51,82.25,89.06,78.19C88.33,80.75,87.02,82.63,85.14,83C74.85,84.99,62.76,85.88,52.07,85.98C50.57,86,49.07,85.81,47.65,85.3C41.24,82.99,30.83,77.45,27.47,73.27C26.35,71.88,25,69.07,23.84,66.16C24.26,66.07,24.66,65.92,25.04,65.72L25.75,65.34Z" fill="currentColor"/><path d="M49.04,53.31C49.95,51.44,51.47,49.93,53.37,49.03C53.41,49.01,53.4,48.96,53.36,48.94C50.68,48.28,48.2,50.51,48.62,53.26C48.65,53.46,48.95,53.5,49.04,53.31Z" fill="currentColor" opacity="0.5"/><path d="M73.68,61.67L63.4,50.44L66.86,52.3L82.42,58.41L79.46,61.66C77.91,63.36,75.23,63.37,73.68,61.67Z" fill="currentColor"/><path d="M82.59,40.97L82.6,40.97L88.23,40.97C89.9,40.97,90.84,42.88,89.83,44.2L78.15,59.38C77.35,60.43,75.78,60.43,74.97,59.39L63.26,44.2C62.24,42.88,63.18,40.97,64.85,40.97L70.56,40.97L82.58,40.97C82.58,40.9,82.58,40.93,82.59,40.97Z" fill="currentColor"/><path d="M63.74,44.83L76.56,59.23L89.33,44.83L78.15,59.38C77.35,60.43,75.77,60.43,74.97,59.39Z" fill="currentColor"/></svg>