<svg xmlns="http://www.w3.org/2000/svg" viewBox="0 0 90 90" fill="currentColor"><path d="M22.36,80.49L69.64,80.49C70.75,80.49,71.64,81.39,71.64,82.49L71.64,89C71.64,90.1,70.75,91,69.64,91L22.36,91C21.25,91,20.36,90.1,20.36,89L20.36,82.49C20.36,81.39,21.25,80.49,22.36,80.49ZM30.6,56.25L39.71,43.51C37.58,42.97,36.01,41.12,36.01,38.93C36.01,36.22,38.4,34.18,41.03,34.18C40.7,31.34,43.26,29,46,29C48.74,29,51.3,31.34,50.97,34.18C53.59,34.18,55.99,36.22,55.99,38.93C55.99,41.12,54.42,42.97,52.29,43.51L61.4,56.25L71.37,49.7C67.54,43.9,75.68,38.85,81.03,43L71.44,73.6C71.18,74.43,70.4,75,69.53,75L22.47,75C21.59,75,20.82,74.43,20.56,73.6L10.97,43C16.32,38.85,24.46,43.9,20.63,49.7ZM75.73,19.69C77.39,21.14,79.92,20.97,81.37,19.3C82.82,17.64,82.65,15.11,80.98,13.66C61.61,-3.22,30.39,-3.22,11.02,13.66C9.35,15.11,9.18,17.64,10.63,19.3C12.08,20.97,14.61,21.14,16.27,19.69C32.64,5.44,59.37,5.44,75.73,19.69ZM65.15,29.51C66.81,30.96,69.34,30.78,70.79,29.11C72.24,27.45,72.06,24.92,70.39,23.47C56.87,11.71,35.13,11.71,21.61,23.47C19.94,24.92,19.76,27.45,21.21,29.11C22.66,30.78,25.19,30.96,26.85,29.51C37.37,20.36,54.63,20.36,65.15,29.51ZM22.36,80.49L69.64,80.49C70.75,80.49,71.64,81.39,71.64,82.49L71.64,82.88C71.64,83.97,70.14,84.26,69.73,83.25C69.43,82.5,68.69,82,67.88,82L24.12,82C23.31,82,22.57,82.5,22.27,83.25C21.86,84.26,20.36,83.97,20.36,82.88L20.36,82.49C20.36,81.39,21.25,80.49,22.36,80.49ZM22.3,71.48C22.92,73.14,24.23,74.41,25.83,75L22.44,75C21.57,75,20.79,74.43,20.53,73.6L10.94,43C16.29,38.85,24.43,43.9,20.6,49.7L30.57,56.25L39.68,43.51C37.55,42.97,35.98,41.12,35.98,38.93C35.98,36.22,38.38,34.18,41,34.18C40.67,31.34,43.23,29,45.97,29C48.71,29,51.27,31.34,50.94,34.18C53.57,34.18,55.96,36.22,55.96,38.93C55.96,41.12,54.39,42.97,52.26,43.51L61.37,56.25L71.34,49.7C67.51,43.9,75.65,38.85,81,43L71.41,73.6C71.15,74.43,70.38,75,69.5,75L66.17,75C67.77,74.41,69.08,73.14,69.7,71.48L80.19,43.5L79.93,43.37C77.97,42.35,75.6,42.57,73.86,43.92L73.61,44.11C71.67,45.63,71.04,48.3,72.11,50.53L62.43,58C61.44,58.77,60,58.45,59.43,57.34L52.24,43.5L53.68,42.5C54.66,41.82,55.24,40.71,55.24,39.52C55.24,37.52,53.62,35.89,51.61,35.89L50.68,35.89L50.68,35.67C50.68,33.08,48.59,30.99,46,30.99C43.41,30.99,41.32,33.08,41.32,35.67L41.32,35.89L40.39,35.89C38.38,35.89,36.76,37.52,36.76,39.52C36.76,40.71,37.34,41.82,38.32,42.5L39.76,43.5L32.57,57.34C32,58.45,30.56,58.77,29.57,58L19.89,50.53C20.96,48.3,20.33,45.63,18.39,44.11L18.14,43.92C16.4,42.57,14.03,42.35,12.07,43.37L11.81,43.5ZM82.23,17.68C82.6,16.26,82.16,14.69,80.98,13.66C61.61,-3.22,30.39,-3.22,11.02,13.66C9.84,14.69,9.41,16.26,9.77,17.68C9.97,16.92,10.38,16.21,11.02,15.66C30.39,-1.22,61.61,-1.22,80.98,15.66C81.62,16.21,82.04,16.92,82.23,17.68ZM71.64,27.49C72.01,26.07,71.58,24.5,70.39,23.47C56.87,11.71,35.13,11.71,21.61,23.47C20.42,24.5,19.99,26.07,20.36,27.49C20.55,26.73,20.97,26.02,21.61,25.47C35.13,13.71,56.87,13.71,70.39,25.47C71.03,26.02,71.45,26.73,71.64,27.49Z"/></svg>