<svg xmlns="http://www.w3.org/2000/svg" viewBox="0 0 90 90"><path d="M37.74,30.79L42.62,30.79C42.62,30.79,44.42,33.21,44.42,35.87L44.42,36.93L38.91,40.52C41.13,42.74,42.5,45.81,42.5,49.09C42.5,55.65,37.11,60.95,30.54,60.95C23.98,60.95,18.59,55.65,18.59,49.09C18.59,45.81,19.96,42.74,22.18,40.52L16.67,36.93L16.67,35.87C16.67,33.33,18.47,30.79,18.47,30.79L23.35,30.79C23.03,27.83,21.54,22.33,14.35,17.77C10.22,15.13,7.89,10.25,7.89,4.33C7.89,3.27,8.59,2.51,9.79,2.42C10.99,2.33,19.44,1.98,30.53,1.98C41.63,1.98,50.17,2.3,51.39,2.42C52.6,2.55,53.29,3.27,53.29,4.33C53.29,10.25,50.86,15.12,46.73,17.77L46.74,17.77C39.54,22.33,38.17,27.82,37.74,30.79Z" fill="currentColor"/><path d="M50.22,14.49C49.26,15.79,48.09,16.9,46.74,17.77C39.54,22.33,38.17,27.82,37.74,30.79L42.62,30.79C42.62,30.79,44.42,33.21,44.42,35.87L44.42,36.93L38.91,40.52C41.13,42.74,42.5,45.81,42.5,49.09C42.5,54.06,39.41,58.29,35.07,60.06C39.12,57.59,41.98,50.61,38.26,45.33C35.49,41.4,30.06,40.47,30.06,40.47L36.71,40.47C36.78,40.42,39.98,35.33,35.62,32.48L17.54,32.45C18,31.46,18.47,30.79,18.48,30.77L27.38,30.77C27.38,30.77,33.47,24.27,38.53,19.52L38.53,19.54C42.3,16.01,47.89,14.84,50.22,14.49Z" fill="currentColor"/><path d="M30.54,60.96C26.38,60.45,19.98,55.52,19.15,45.51C18.78,46.65,18.59,47.86,18.59,49.1C18.59,55.66,23.98,60.96,30.54,60.96Z" fill="currentColor"/><path d="M22.17,40.52C22.17,40.53,22.18,40.54,22.18,40.54L22.19,40.53Z" fill="currentColor"/><path d="M21.43,36.89L16.68,36.92L16.68,36.94L22.17,40.52C22.1,40.29,21.66,38.53,21.43,36.89Z" fill="currentColor"/><path d="M22.4,26.93C21.31,24.12,19.05,20.75,14.36,17.78C10.23,15.14,7.9,10.27,7.9,4.34C9.6,9.94,12.01,11.6,15.84,14.24C16.62,14.78,17.46,15.36,18.37,16.03C21.63,18.4,22.31,25.72,22.4,26.93Z" fill="currentColor"/><path d="M46.05,37.64L59.16,44.69L82.15,53.72C90.61,57.65,90.94,80.78,83.08,82.32C70.47,84.77,55.65,85.85,42.55,85.98C40.7,86,38.86,85.77,37.13,85.15C29.27,82.32,16.51,75.52,12.39,70.4C9.74,67.12,6.06,57.35,5.05,52.76C4.81,51.65,5.42,50.56,6.49,50.17C16.96,46.34,21.01,61.1,21.32,63.06C26.06,63.98,30.66,65.51,35,67.62L35.61,67.91C39.98,66.83,44.54,66.82,48.92,67.86L49.19,67.93L54.22,63.85C55.2,63.05,55.23,61.56,54.29,60.72L47.6,54.82L39.13,48.69C36.11,46.51,35.53,42.26,37.84,39.34C39.8,36.86,43.27,36.14,46.05,37.64Z" fill="currentColor"/><path d="M37.84,39.34C37.81,39.37,37.79,39.41,37.76,39.44L37.53,40.31C39.82,38.43,43.04,38.16,45.61,39.65L58.99,47.37L77.07,55.35C83,57.97,87.3,63.22,88.74,69.46C88.7,62.83,86.5,55.74,82.15,53.72L59.16,44.69L46.05,37.64C43.27,36.14,39.8,36.86,37.84,39.34Z" fill="currentColor"/><path d="M5,52.44C6.19,51.66,7.61,51.27,9.03,51.35L9.72,51.39L10.47,53.1C14.02,53.1,17.08,55.59,17.81,59.05L19.32,66.21L21.1,66.46C25.77,67.1,30.22,68.81,34.12,71.45L35.66,72.49L38.34,71.65C42.43,70.37,46.73,69.96,50.98,70.44L54.74,70.87L55.99,67.34C56.84,64.97,56.15,62.33,54.25,60.67L50.74,57.59L54.29,60.72C55.23,61.56,55.2,63.05,54.22,63.85L49.19,67.93L48.92,67.86C44.54,66.82,39.98,66.83,35.61,67.91L35,67.62C30.66,65.51,26.06,63.98,21.32,63.06C21.01,61.1,16.96,46.34,6.49,50.17C5.52,50.53,4.93,51.45,5,52.44Z" fill="currentColor"/><path d="M13.38,70.39L14.31,71.09C21.27,76.34,28.87,80.67,36.94,83.97C38.79,84.72,40.78,85.08,42.77,85.01L54.38,84.6C66,84.19,77.4,81.4,87.88,76.43C86.98,79.56,85.38,81.87,83.08,82.32C70.47,84.77,55.65,85.85,42.55,85.98C40.7,86,38.86,85.77,37.13,85.14C29.27,82.32,16.51,75.51,12.39,70.4C11.01,68.7,9.36,65.25,7.95,61.68C8.46,61.57,8.95,61.39,9.41,61.15L10.29,60.68Z" fill="currentColor"/><path d="M38.83,45.93C39.94,43.64,41.81,41.79,44.13,40.69C44.18,40.67,44.17,40.6,44.12,40.58C40.84,39.77,37.8,42.5,38.31,45.87C38.35,46.12,38.72,46.17,38.83,45.93Z" fill="currentColor" opacity="0.5"/></svg>