<svg xmlns="http://www.w3.org/2000/svg" viewBox="0 0 90 90"><path d="M25.84,45.99L25.84,37.14L76.7,45.99Z" fill="currentColor" opacity="0.5"/><path d="M24.84,16.99L24.84,8.14L75.7,16.99Z" fill="currentColor" opacity="0.5"/><path d="M25.84,31.99L25.84,23.14L90.61,31.99Z" fill="currentColor" opacity="0.5"/><path d="M27.54,26.59L31.87,26.59C31.87,26.59,33.47,28.74,33.47,31.11L33.47,32.05L28.58,35.24C30.55,37.22,31.77,39.95,31.77,42.86C31.77,48.69,26.97,53.4,21.14,53.4C15.31,53.4,10.51,48.69,10.51,42.86C10.51,39.95,11.73,37.22,13.7,35.24L8.81,32.05L8.81,31.11C8.81,28.85,10.41,26.59,10.41,26.59L14.74,26.59C14.46,23.96,13.14,19.07,6.74,15.02C3.08,12.67,1,8.34,1,3.07C1,2.13,1.63,1.46,2.69,1.38C3.76,1.29,11.27,0.98,21.13,0.98C31,0.98,38.59,1.27,39.67,1.38C40.74,1.48,41.36,2.13,41.36,3.07C41.36,8.34,39.2,12.66,35.53,15.02L35.54,15.02C29.14,19.07,27.92,23.96,27.54,26.59Z" fill="currentColor"/><path d="M38.63,12.11C37.78,13.26,36.74,14.24,35.54,15.02C29.14,19.07,27.92,23.95,27.54,26.59L31.87,26.59C31.87,26.59,33.47,28.74,33.47,31.11L33.47,32.05L28.58,35.24C30.55,37.22,31.77,39.95,31.77,42.86C31.77,47.27,29.02,51.04,25.16,52.6C28.77,50.41,31.31,44.2,28,39.52C25.54,36.02,20.71,35.19,20.71,35.19L26.62,35.19C26.68,35.15,29.53,30.63,25.65,28.1L9.58,28.07C9.99,27.19,10.41,26.59,10.42,26.58L18.33,26.58C18.33,26.58,23.74,20.8,28.24,16.57L28.24,16.59C31.59,13.45,36.56,12.41,38.63,12.11Z" fill="currentColor"/><path d="M21.14,53.41C17.44,52.96,11.75,48.57,11.01,39.67C10.68,40.69,10.51,41.77,10.51,42.87C10.51,48.7,15.31,53.41,21.14,53.41Z" fill="currentColor"/><path d="M13.7,35.24C13.7,35.25,13.7,35.26,13.71,35.26L13.71,35.25Z" fill="currentColor"/><path d="M13.04,32.01L8.82,32.04L8.82,32.05L13.7,35.24C13.63,35.04,13.25,33.47,13.04,32.01Z" fill="currentColor"/><path d="M13.91,23.16C12.93,20.66,10.92,17.67,6.75,15.03C3.08,12.68,1.01,8.35,1.01,3.08C2.52,8.06,4.66,9.53,8.07,11.88C8.76,12.36,9.51,12.88,10.32,13.47C13.21,15.58,13.82,22.08,13.91,23.16Z" fill="currentColor"/><path d="M33.47,31.11C33.47,28.75,31.89,26.61,31.87,26.59L27.54,26.59C27.6,26.17,27.69,25.68,27.81,25.15C28.45,22.39,30.18,18.41,35.54,15.02L35.53,15.02C37.2,13.94,38.56,12.46,39.54,10.67C33.01,9.49,28.34,8.78,27.43,8.68C26.32,8.55,25.11,8.74,24.06,9.46C23,10.19,22.38,11.28,22.16,12.42C21,18.35,22.33,24.12,26.39,27.99L26.4,28C28.67,30.14,29.88,32.2,30.51,33.98L33.47,32.05Z" fill="currentColor"/><path d="M29.45,12C28.91,11.92,28.45,11.85,28.08,11.79C28.35,11.83,28.66,11.88,29.01,11.93C29.15,11.95,29.3,11.98,29.45,12Z" fill="currentColor"/><path d="M27.09,11.66C27.25,11.67,27.57,11.72,28.02,11.78C27.57,11.72,27.25,11.67,27.09,11.66C26.95,11.64,26.83,11.64,26.7,11.64L26.89,11.64C26.95,11.64,27.02,11.65,27.09,11.66Z" fill="currentColor"/><path d="M31.77,42.86C31.77,39.95,30.55,37.21,28.58,35.24L28.87,35.05C28.47,35.19,28.09,35.41,27.78,35.71L29.85,37.88C29.85,37.88,29.84,37.9,29.81,37.93C29.83,37.9,29.85,37.89,29.85,37.88L27.78,35.71L27.78,35.71L27.77,35.72C27.77,35.73,27.76,35.73,27.76,35.73L27.62,35.87C27.54,35.95,27.44,36.06,27.31,36.2C27.06,36.47,26.73,36.86,26.38,37.34C25.71,38.24,24.81,39.7,24.47,41.44L24.29,42.36C24.1,43.35,24.42,44.38,25.15,45.08L27.04,46.91C25.55,48.62,24.46,50.7,23.96,53.02C28.44,51.79,31.77,47.72,31.77,42.86Z" fill="currentColor"/><path d="M29.57,38.17C29.55,38.19,29.53,38.22,29.51,38.24C29.51,38.23,29.52,38.23,29.53,38.22C29.55,38.2,29.56,38.19,29.57,38.17Z" fill="currentColor"/><path d="M45.6,43.59L49.79,44.71C49.79,44.71,50.78,47.2,50.17,49.49L49.92,50.39L44.37,52.21C45.77,54.63,46.24,57.58,45.48,60.4C43.97,66.03,38.12,69.34,32.49,67.83C26.85,66.32,23.44,60.53,24.95,54.9C25.7,52.08,27.59,49.76,30,48.36L26.1,44.01L26.34,43.11C26.93,40.93,29.06,39.16,29.06,39.16L33.24,40.28C33.65,37.67,33.65,32.6,28.51,27.03C25.58,23.81,24.7,19.09,26.06,14C26.3,13.09,27.08,12.61,28.13,12.8C29.18,13,36.51,14.64,46.04,17.2C55.57,19.75,62.83,21.99,63.85,22.37C64.86,22.76,65.29,23.54,65.05,24.45C63.68,29.54,60.47,33.15,56.32,34.48L56.33,34.48C49.1,36.74,46.66,41.14,45.6,43.59Z" fill="currentColor"/><path d="M60.07,32.47C58.94,33.36,57.69,34.05,56.33,34.48C49.1,36.74,46.66,41.14,45.6,43.59L49.79,44.71C49.79,44.71,50.78,47.2,50.17,49.49L49.92,50.39L44.37,52.21C45.77,54.63,46.24,57.58,45.48,60.4C44.34,64.66,40.71,67.59,36.58,68.1C40.63,66.92,44.69,61.58,42.71,56.2C41.23,52.18,36.79,50.13,36.79,50.13L42.49,51.66C42.56,51.64,46.49,48,43.4,44.56L27.88,40.37C28.5,39.62,29.06,39.16,29.07,39.15L36.71,41.19C36.71,41.19,43.44,37.01,48.87,34.1L48.87,34.11C52.92,31.95,57.99,32.23,60.07,32.47Z" fill="currentColor"/><path d="M32.49,67.84C29.02,66.45,24.66,60.74,26.26,51.95C25.68,52.85,25.23,53.84,24.95,54.9C23.44,60.54,26.85,66.33,32.49,67.84Z" fill="currentColor"/><path d="M30,48.36C30,48.37,30,48.38,30,48.38L30.01,48.38Z" fill="currentColor"/><path d="M30.2,45.07L26.11,44L26.11,44.02L30,48.36C29.98,48.15,30.02,46.53,30.2,45.07Z" fill="currentColor"/><path d="M33.32,36.75C33.03,34.08,31.86,30.67,28.52,27.04C25.58,23.82,24.7,19.1,26.07,14.01C26.24,19.21,27.92,21.2,30.6,24.34C31.15,24.99,31.74,25.68,32.37,26.46C34.62,29.25,33.52,35.68,33.32,36.75Z" fill="currentColor"/><path d="M53.05,48.02L64.71,54.28L85.14,62.31C92.66,65.8,92.95,86.36,85.96,87.73C74.75,89.9,61.58,90.86,49.94,90.98C48.3,91,46.66,90.8,45.12,90.24C38.14,87.73,26.8,81.68,23.13,77.13C20.77,74.22,17.5,65.53,16.61,61.45C16.39,60.46,16.93,59.5,17.88,59.15C27.19,55.74,30.79,68.87,31.07,70.61C35.28,71.43,39.37,72.79,43.23,74.66L43.77,74.92C47.65,73.96,51.71,73.95,55.6,74.88L55.84,74.94L60.31,71.31C61.19,70.6,61.22,69.28,60.37,68.53L54.43,63.28L46.9,57.84C44.22,55.9,43.7,52.12,45.75,49.53C47.5,47.32,50.58,46.68,53.05,48.02Z" fill="currentColor"/><path d="M45.75,49.53C45.73,49.55,45.7,49.58,45.68,49.61L45.48,50.39C47.51,48.71,50.38,48.48,52.66,49.8L64.55,56.66L80.62,63.76C85.89,66.08,89.72,70.75,91,76.29C90.96,70.41,89,64.1,85.14,62.31L64.71,54.28L53.05,48.02C50.58,46.68,47.5,47.32,45.75,49.53Z" fill="currentColor"/><path d="M16.57,61.17C17.62,60.47,18.88,60.13,20.15,60.2L20.76,60.23L21.43,61.76C24.58,61.76,27.3,63.96,27.95,67.05L29.29,73.41L30.88,73.63C35.02,74.2,38.98,75.72,42.44,78.06L43.82,78.99L46.2,78.25C49.83,77.11,53.66,76.74,57.44,77.17L60.78,77.55L61.89,74.42C62.64,72.31,62.03,69.96,60.34,68.48L57.22,65.75L60.37,68.53C61.22,69.27,61.19,70.6,60.31,71.31L55.84,74.93L55.6,74.88C51.71,73.95,47.65,73.96,43.77,74.92L43.23,74.66C39.37,72.79,35.28,71.43,31.07,70.61C30.79,68.87,27.19,55.74,17.88,59.15C17.02,59.47,16.5,60.29,16.57,61.17Z" fill="currentColor"/><path d="M24.01,77.12L24.84,77.75C31.02,82.42,37.78,86.26,44.95,89.19C46.6,89.87,48.36,90.18,50.14,90.12L60.46,89.75C70.78,89.39,80.92,86.91,90.23,82.49C89.43,85.28,88.01,87.33,85.96,87.73C74.75,89.9,61.58,90.86,49.94,90.98C48.3,91,46.66,90.8,45.12,90.24C38.14,87.73,26.79,81.68,23.13,77.13C21.91,75.62,20.44,72.55,19.18,69.38C19.63,69.29,20.07,69.13,20.48,68.91L21.26,68.49Z" fill="currentColor"/><path d="M46.63,55.39C47.62,53.35,49.28,51.7,51.35,50.72C51.39,50.7,51.38,50.64,51.34,50.63C48.42,49.91,45.71,52.34,46.17,55.33C46.21,55.55,46.53,55.59,46.63,55.39Z" fill="currentColor" opacity="0.5"/></svg>