<svg xmlns="http://www.w3.org/2000/svg" viewBox="0 0 90 90"><path d="M82,47.99L70.47,47.99C68.98,62.27,56.89,73.41,42.2,73.41C26.49,73.41,13.77,60.7,13.77,45.02C13.77,29.34,26.49,16.62,42.2,16.62C44.58,16.62,46.89,16.92,49.1,17.47L49.1,5.61C46.81,5.21,44.46,5,42.06,5C19.93,5,2,22.91,2,45C2,67.09,19.93,85,42.06,85C63.17,85,80.47,68.69,82,47.99Z" fill="currentColor"/><path d="M70.88,72.77C63.67,79.72,53.87,84,43.06,84C20.94,84,3,66.09,3,43.99C3,33.21,7.28,23.42,14.23,16.23C6.69,23.5,2,33.7,2,45C2,67.09,19.93,85,42.06,85C53.37,85,63.6,80.31,70.88,72.77Z" fill="currentColor"/><path d="M67.72,75.71C65.23,72.67,62.02,70.21,58.31,68.41C53.73,71.56,48.18,73.41,42.2,73.41C36.06,73.41,30.37,71.47,25.72,68.16C21.95,69.87,18.77,72.35,16.42,75.74C23.37,81.52,32.31,85,42.06,85C51.82,85,60.77,81.51,67.72,75.71Z" fill="currentColor"/><path d="M42.25,16.62C44.63,16.62,46.94,16.92,49.15,17.47L49.15,5.61C47.53,5.33,45.87,5.14,44.18,5.05C40.92,6.29,36.92,8.19,33.27,10.29C29.42,12.49,25.55,15.15,23.49,17.7C22.1,19.42,20.67,22.46,19.55,25.25C18.76,27.2,18.04,29.25,17.51,31.02C22.4,22.42,31.65,16.62,42.25,16.62Z" fill="currentColor"/><path d="M49.24,55.69L54.18,55.69C54.18,55.69,56.01,53.23,56.01,50.52L56.01,49.45L50.43,45.79C52.68,43.53,54.07,40.41,54.07,37.07C54.07,30.4,48.6,25.01,41.95,25.01C35.3,25.01,29.84,30.4,29.84,37.07C29.84,40.41,31.23,43.53,33.48,45.79L27.9,49.45L27.9,50.52C27.9,53.1,29.72,55.69,29.72,55.69L34.66,55.69C34.34,58.7,32.84,64.3,25.54,68.94C21.36,71.63,19,76.58,19,82.61C19,83.69,19.72,84.46,20.93,84.55C22.14,84.65,30.7,85,41.94,85C53.19,85,61.84,84.68,63.07,84.55C64.29,84.43,65,83.69,65,82.61C65,76.58,62.53,71.64,58.35,68.94L58.36,68.94C51.07,64.3,49.68,58.71,49.24,55.69Z" fill="currentColor"/><path d="M61.89,72.27C60.91,70.95,59.73,69.82,58.36,68.94C51.07,64.3,49.68,58.71,49.24,55.69L54.18,55.69C54.18,55.69,56.01,53.23,56.01,50.52L56.01,49.45L50.43,45.79C52.68,43.53,54.07,40.41,54.07,37.07C54.07,32.02,50.94,27.71,46.54,25.92C50.65,28.43,53.54,35.53,49.77,40.9C46.96,44.9,41.47,45.84,41.47,45.84L48.2,45.84C48.27,45.9,51.52,51.07,47.1,53.97L28.78,54C29.25,55.01,29.72,55.69,29.73,55.71L38.75,55.71C38.75,55.71,44.92,62.32,50.04,67.16L50.04,67.14C53.86,70.73,59.52,71.92,61.89,72.27Z" fill="currentColor"/><path d="M41.95,25C37.73,25.51,31.25,30.53,30.41,40.72C30.04,39.55,29.84,38.32,29.84,37.06C29.84,30.39,35.31,25,41.95,25Z" fill="currentColor"/><path d="M33.47,45.79C33.48,45.78,33.48,45.77,33.48,45.77L33.49,45.78Z" fill="currentColor"/><path d="M32.72,49.49L27.91,49.46L27.91,49.44L33.47,45.79C33.4,46.02,32.96,47.82,32.72,49.49Z" fill="currentColor"/><path d="M33.71,59.61C32.6,62.48,30.31,65.91,25.56,68.93C21.38,71.61,19.01,76.57,19.01,82.6C20.73,76.91,23.18,75.21,27.05,72.53C27.85,71.98,28.7,71.38,29.62,70.71C32.92,68.29,33.61,60.85,33.71,59.61Z" fill="currentColor"/><path d="M53.93,44.32L64.63,38.56L83.39,31.2C90.28,27.99,90.56,9.12,84.14,7.86C73.85,5.87,61.76,4.99,51.07,4.88C49.57,4.86,48.07,5.05,46.65,5.56C40.24,7.87,29.83,13.42,26.47,17.59C24.31,20.27,21.3,28.24,20.48,31.98C20.28,32.89,20.78,33.77,21.65,34.09C30.2,37.22,33.5,25.17,33.76,23.58C37.62,22.83,41.38,21.58,44.92,19.86L45.41,19.62C48.98,20.5,52.7,20.51,56.27,19.66L56.49,19.61L60.6,22.94C61.4,23.59,61.43,24.8,60.65,25.49L55.2,30.3L48.29,35.3C45.83,37.08,45.35,40.55,47.23,42.93C48.83,44.96,51.66,45.54,53.93,44.32Z" fill="currentColor"/><path d="M47.23,42.93C47.21,42.9,47.19,42.88,47.17,42.85L46.98,42.14C48.85,43.68,51.48,43.89,53.57,42.68L64.49,36.38L79.24,29.87C84.08,27.73,87.59,23.45,88.76,18.36C88.73,23.76,86.93,29.55,83.39,31.2L64.63,38.56L53.93,44.32C51.66,45.54,48.83,44.96,47.23,42.93Z" fill="currentColor"/><path d="M20.44,32.24C21.41,32.88,22.57,33.19,23.73,33.13L24.29,33.1L24.91,31.7C27.8,31.7,30.29,29.68,30.89,26.85L32.12,21.01L33.58,20.81C37.38,20.28,41.02,18.89,44.2,16.74L45.46,15.88L47.64,16.57C50.98,17.61,54.49,17.95,57.96,17.55L61.02,17.2L62.05,20.08C62.73,22.02,62.17,24.18,60.63,25.53L57.76,28.04L60.65,25.49C61.43,24.8,61.4,23.59,60.6,22.94L56.49,19.61L56.27,19.66C52.7,20.51,48.98,20.5,45.41,19.62L44.92,19.86C41.38,21.58,37.62,22.83,33.76,23.58C33.5,25.17,30.2,37.22,21.65,34.09C20.86,33.8,20.38,33.05,20.44,32.24Z" fill="currentColor"/><path d="M27.28,17.6L28.04,17.02C33.71,12.74,39.92,9.21,46.5,6.52C48.01,5.9,49.63,5.61,51.26,5.67L60.73,6.01C70.21,6.34,79.51,8.61,88.06,12.67C87.33,10.11,86.02,8.23,84.14,7.86C73.85,5.87,61.76,4.99,51.07,4.88C49.57,4.86,48.07,5.05,46.65,5.56C40.24,7.87,29.83,13.42,26.47,17.59C25.35,18.98,24,21.79,22.84,24.7C23.26,24.79,23.66,24.94,24.04,25.14L24.75,25.52Z" fill="currentColor"/><path d="M48.04,37.55C48.95,39.42,50.47,40.93,52.37,41.83C52.41,41.85,52.4,41.91,52.36,41.92C49.68,42.58,47.2,40.35,47.62,37.61C47.65,37.4,47.95,37.36,48.04,37.55Z" fill="currentColor" opacity="0.5"/><path d="M72.68,29.19L62.4,40.42L65.86,38.56L81.42,32.45L78.46,29.2C76.91,27.5,74.23,27.49,72.68,29.19Z" fill="currentColor"/><path d="M81.59,49.9L81.6,49.9L87.23,49.9C88.9,49.9,89.84,47.99,88.83,46.67L77.15,31.48C76.35,30.43,74.78,30.43,73.97,31.48L62.26,46.66C61.24,47.98,62.18,49.9,63.85,49.9L69.56,49.9L81.58,49.9C81.58,49.96,81.58,49.93,81.59,49.9Z" fill="currentColor"/><path d="M62.74,46.03L75.56,31.63L88.33,46.03L77.15,31.48C76.35,30.43,74.77,30.43,73.97,31.48Z" fill="currentColor"/></svg>