<svg xmlns="http://www.w3.org/2000/svg" viewBox="0 0 90 90"><path d="M24.84,45L24.84,53.85L75.7,45Z" fill="currentColor" opacity="0.5"/><path d="M23.84,74L23.84,82.85L74.7,74Z" fill="currentColor" opacity="0.5"/><path d="M24.84,59L24.84,67.85L89.61,59Z" fill="currentColor" opacity="0.5"/><path d="M26.54,64.39L30.87,64.39C30.87,64.39,32.47,62.24,32.47,59.88L32.47,58.94L27.58,55.74C29.55,53.77,30.77,51.04,30.77,48.13C30.77,42.29,25.97,37.59,20.14,37.59C14.31,37.59,9.51,42.29,9.51,48.13C9.51,51.04,10.73,53.77,12.7,55.74L7.81,58.94L7.81,59.88C7.81,62.13,9.41,64.39,9.41,64.39L13.74,64.39C13.46,67.02,12.14,71.92,5.74,75.97C2.08,78.31,0,82.65,0,87.92C0,88.85,0.63,89.53,1.69,89.61C2.76,89.69,10.27,90,20.13,90C30,90,37.59,89.72,38.67,89.61C39.74,89.5,40.36,88.85,40.36,87.92C40.36,82.65,38.2,78.32,34.53,75.97L34.54,75.97C28.14,71.92,26.92,67.03,26.54,64.39Z" fill="currentColor"/><path d="M37.63,78.88C36.78,77.72,35.74,76.74,34.54,75.97C28.14,71.92,26.92,67.03,26.54,64.39L30.87,64.39C30.87,64.39,32.47,62.24,32.47,59.88L32.47,58.94L27.58,55.74C29.55,53.77,30.77,51.04,30.77,48.13C30.77,43.71,28.02,39.94,24.16,38.38C27.77,40.57,30.31,46.78,27,51.47C24.54,54.96,19.71,55.79,19.71,55.79L25.62,55.79C25.68,55.84,28.53,60.36,24.65,62.89L8.58,62.92C8.99,63.8,9.41,64.39,9.42,64.41L17.33,64.41C17.33,64.41,22.74,70.19,27.24,74.41L27.24,74.39C30.59,77.53,35.56,78.57,37.63,78.88Z" fill="currentColor"/><path d="M20.14,37.58C16.44,38.02,10.75,42.41,10.01,51.31C9.68,50.29,9.51,49.22,9.51,48.12C9.51,42.28,14.31,37.58,20.14,37.58Z" fill="currentColor"/><path d="M12.7,55.75C12.7,55.73,12.7,55.73,12.71,55.73L12.71,55.74Z" fill="currentColor"/><path d="M12.04,58.98L7.82,58.95L7.82,58.93L12.7,55.75C12.63,55.94,12.25,57.52,12.04,58.98Z" fill="currentColor"/><path d="M12.91,67.82C11.93,70.32,9.92,73.32,5.75,75.96C2.08,78.31,0.01,82.64,0.01,87.91C1.52,82.93,3.66,81.45,7.07,79.1C7.76,78.62,8.51,78.1,9.32,77.51C12.21,75.4,12.82,68.9,12.91,67.82Z" fill="currentColor"/><path d="M32.47,59.88C32.47,62.23,30.89,64.37,30.87,64.39L26.54,64.39C26.6,64.82,26.69,65.3,26.81,65.84C27.45,68.59,29.18,72.57,34.54,75.97L34.53,75.97C36.2,77.04,37.56,78.52,38.54,80.32C32.01,81.5,27.34,82.2,26.43,82.31C25.32,82.44,24.11,82.24,23.06,81.52C22,80.79,21.38,79.7,21.16,78.56C20,72.63,21.33,66.86,25.39,62.99L25.4,62.98C27.67,60.84,28.88,58.78,29.51,57.01L32.47,58.94Z" fill="currentColor"/><path d="M28.45,78.98C27.91,79.07,27.45,79.14,27.08,79.19C27.35,79.15,27.66,79.11,28.01,79.05C28.15,79.03,28.3,79.01,28.45,78.98Z" fill="currentColor"/><path d="M26.09,79.33C26.25,79.31,26.57,79.27,27.02,79.2C26.57,79.27,26.25,79.31,26.09,79.33C25.95,79.34,25.83,79.35,25.7,79.34L25.89,79.34C25.95,79.34,26.02,79.34,26.09,79.33Z" fill="currentColor"/><path d="M30.77,48.13C30.77,51.04,29.55,53.77,27.58,55.74L27.87,55.93C27.47,55.8,27.09,55.57,26.78,55.27L28.85,53.1C28.85,53.1,28.84,53.08,28.81,53.06C28.83,53.08,28.85,53.1,28.85,53.1L26.78,55.27L26.78,55.27L26.77,55.26C26.77,55.26,26.76,55.25,26.76,55.25L26.62,55.12C26.54,55.04,26.44,54.93,26.31,54.79C26.06,54.51,25.73,54.12,25.38,53.65C24.71,52.74,23.81,51.29,23.47,49.55L23.29,48.63C23.1,47.63,23.42,46.61,24.15,45.9L26.04,44.07C24.55,42.37,23.46,40.28,22.96,37.97C27.44,39.19,30.77,43.27,30.77,48.13Z" fill="currentColor"/><path d="M28.57,52.81C28.55,52.79,28.53,52.77,28.51,52.74C28.51,52.75,28.52,52.76,28.53,52.77C28.55,52.78,28.56,52.8,28.57,52.81Z" fill="currentColor"/><path d="M44.6,47.39L48.79,46.27C48.79,46.27,49.78,43.78,49.17,41.49L48.92,40.59L43.37,38.77C44.77,36.35,45.24,33.4,44.48,30.59C42.97,24.95,37.12,21.65,31.49,23.16C25.85,24.67,22.44,30.45,23.95,36.09C24.7,38.9,26.59,41.22,29,42.62L25.1,46.97L25.34,47.88C25.93,50.06,28.06,51.82,28.06,51.82L32.24,50.7C32.65,53.32,32.65,58.39,27.51,63.96C24.58,67.17,23.7,71.89,25.06,76.98C25.3,77.89,26.08,78.38,27.13,78.18C28.18,77.98,35.51,76.34,45.04,73.79C54.57,71.23,61.83,69,62.85,68.61C63.86,68.23,64.29,67.44,64.05,66.54C62.68,61.45,59.47,57.83,55.32,56.5L55.33,56.5C48.1,54.25,45.66,49.84,44.6,47.39Z" fill="currentColor"/><path d="M59.07,58.51C57.94,57.62,56.69,56.94,55.33,56.5C48.1,54.25,45.66,49.84,44.6,47.39L48.79,46.27C48.79,46.27,49.78,43.78,49.17,41.49L48.92,40.59L43.37,38.77C44.77,36.35,45.24,33.4,44.48,30.59C43.34,26.32,39.71,23.39,35.58,22.88C39.63,24.07,43.69,29.41,41.71,34.79C40.23,38.8,35.79,40.85,35.79,40.85L41.49,39.32C41.56,39.35,45.49,42.98,42.4,46.43L26.88,50.61C27.5,51.36,28.06,51.82,28.07,51.84L35.71,49.79C35.71,49.79,42.44,53.97,47.87,56.89L47.87,56.87C51.92,59.04,56.99,58.75,59.07,58.51Z" fill="currentColor"/><path d="M31.49,23.15C28.02,24.54,23.66,30.25,25.26,39.04C24.68,38.14,24.23,37.14,23.95,36.08C22.44,30.44,25.85,24.66,31.49,23.15Z" fill="currentColor"/><path d="M29,42.62C29,42.61,29,42.6,29,42.6L29.01,42.61Z" fill="currentColor"/><path d="M29.2,45.91L25.11,46.98L25.11,46.96L29,42.62C28.98,42.83,29.02,44.45,29.2,45.91Z" fill="currentColor"/><path d="M32.32,54.23C32.03,56.9,30.86,60.32,27.52,63.94C24.58,67.16,23.7,71.88,25.07,76.97C25.24,71.77,26.92,69.79,29.6,66.64C30.15,66,30.74,65.3,31.37,64.52C33.62,61.74,32.52,55.3,32.32,54.23Z" fill="currentColor"/><path d="M52.05,42.97L63.71,36.7L84.14,28.68C91.66,25.18,91.95,4.62,84.96,3.25C73.75,1.08,60.58,0.12,48.94,0C47.3,-0.02,45.66,0.19,44.12,0.74C37.14,3.26,25.8,9.3,22.13,13.85C19.77,16.77,16.5,25.45,15.61,29.53C15.39,30.52,15.93,31.48,16.88,31.83C26.19,35.24,29.79,22.11,30.07,20.38C34.28,19.56,38.37,18.19,42.23,16.33L42.77,16.07C46.65,17.02,50.71,17.03,54.6,16.11L54.84,16.05L59.31,19.68C60.19,20.39,60.22,21.71,59.37,22.45L53.43,27.7L45.9,33.15C43.22,35.08,42.7,38.87,44.75,41.46C46.5,43.67,49.58,44.3,52.05,42.97Z" fill="currentColor"/><path d="M44.75,41.46C44.73,41.43,44.7,41.4,44.68,41.37L44.48,40.6C46.51,42.27,49.38,42.51,51.66,41.19L63.55,34.32L79.62,27.23C84.89,24.9,88.72,20.23,90,14.69C89.96,20.58,88,26.88,84.14,28.68L63.71,36.7L52.05,42.97C49.58,44.3,46.5,43.67,44.75,41.46Z" fill="currentColor"/><path d="M15.57,29.81C16.62,30.51,17.88,30.85,19.15,30.78L19.76,30.75L20.43,29.23C23.58,29.23,26.3,27.02,26.95,23.94L28.29,17.57L29.88,17.36C34.02,16.78,37.98,15.27,41.44,12.92L42.82,11.99L45.2,12.74C48.83,13.87,52.66,14.24,56.44,13.81L59.78,13.43L60.89,16.57C61.64,18.68,61.03,21.03,59.34,22.5L56.22,25.24L59.37,22.45C60.22,21.71,60.19,20.39,59.31,19.68L54.84,16.05L54.6,16.11C50.71,17.03,46.65,17.02,42.77,16.07L42.23,16.33C38.37,18.19,34.28,19.56,30.07,20.38C29.79,22.11,26.19,35.24,16.88,31.83C16.02,31.52,15.5,30.7,15.57,29.81Z" fill="currentColor"/><path d="M23.01,13.86L23.84,13.24C30.02,8.57,36.78,4.72,43.95,1.79C45.6,1.12,47.36,0.8,49.14,0.87L59.46,1.23C69.78,1.6,79.92,4.07,89.23,8.49C88.43,5.7,87.01,3.65,84.96,3.25C73.75,1.08,60.58,0.12,48.94,0C47.3,-0.02,45.66,0.19,44.12,0.74C37.14,3.26,25.79,9.3,22.13,13.85C20.91,15.36,19.44,18.43,18.18,21.6C18.63,21.7,19.07,21.86,19.48,22.08L20.26,22.49Z" fill="currentColor"/><path d="M45.63,35.6C46.62,37.64,48.28,39.28,50.35,40.26C50.39,40.28,50.38,40.34,50.34,40.35C47.42,41.08,44.71,38.65,45.17,35.66C45.21,35.43,45.53,35.39,45.63,35.6Z" fill="currentColor" opacity="0.5"/></svg>