<svg xmlns="http://www.w3.org/2000/svg" viewBox="0 0 90 90"><path d="M24,40.44C24,38.19,24.52,35.97,25.51,33.94L28.49,27.86C31.2,22.33,36.6,18.64,42.73,18.11C50.53,17.43,57.83,22.01,60.62,29.33L61.17,30.76C62.28,33.69,62.86,36.8,62.86,39.94L62.86,45.22C62.86,48.22,59.97,50.31,57.18,49.49C57.01,53.49,53.11,56.13,49.45,55.08C48.48,58.88,43.7,60.65,40.46,57.92L39.93,57.47L37.72,74.13C37.43,76.31,35.58,77.94,33.38,77.94C30.83,77.94,28.81,75.76,29.01,73.22L30.56,53.42C26.64,51.96,24,48.21,24,43.97Z" fill="currentColor" stroke="currentColor" stroke-width="2" opacity="0.25"/><path d="M60.94,15.06L60.94,16L60.94,22.84L63.11,26.28C66.92,32.33,68.94,39.32,68.94,46.47C68.94,49.68,65.78,51.9,62.79,50.9C62.73,55.33,58.36,58.25,54.36,56.94C53.1,61.18,47.64,62.86,44.2,59.65L44.12,59.57L41.7,77.94C41.4,80.23,39.46,81.94,37.15,81.94C34.47,81.94,32.36,79.65,32.58,76.98L34.39,54.54C31.89,55.83,28.68,54.06,28.68,51.02L28.68,39.18C28.68,33.58,31.01,28.23,35.11,24.41L37.06,22.59L37.06,16L37.06,15.06L38,15.06L60,15.06Z" fill="currentColor" stroke="currentColor" stroke-width="1.875"/><path d="M35.5,54.5L35.22,55.98L33.51,77.05C33.34,79.18,35.02,81,37.15,81C37.9,81,38.6,80.77,39.18,80.38C36.83,80.52,34.81,78.57,34.96,76.14L35.5,67.5Z" fill="currentColor"/><path d="M41.61,23.33L42.33,24.13L36.78,28.11C33.12,30.74,30.95,34.97,30.95,39.48L30.95,53.51C30.17,52.99,29.62,52.12,29.62,51.02L29.62,39.18C29.62,33.84,31.84,28.74,35.75,25.09L38,23L38,16L40.37,16C39.32,18.48,39.8,21.34,41.61,23.33Z" fill="currentColor"/><path d="M60,16L60,23.11L62.31,26.78C63.98,29.42,65.29,32.25,66.23,35.19C63.75,31.42,60.59,28.09,56.87,25.36L55,24L56.83,22.17C57.58,21.42,58,20.4,58,19.34L58,16Z" fill="currentColor"/><path d="M62.84,49.92L61.86,49.52L61.86,45.69L62.71,47.71C63.22,48.91,64.24,49.73,65.4,50.03C64.6,50.29,63.7,50.28,62.84,49.92Z" fill="currentColor"/><path d="M53.67,55.61L53.67,49.4L55.09,53.3C55.57,54.59,56.53,55.59,57.72,56.14C56.43,56.48,54.99,56.35,53.67,55.61Z" fill="currentColor"/><path d="M45.09,55.79L43.94,50.56L43.43,57.64L44.84,58.96C46.17,60.2,47.85,60.58,49.38,60.29C47.27,59.72,45.58,58.01,45.09,55.79Z" fill="currentColor"/><path d="M35.5,52.5L35.81,38.56L34.42,46.04C33.91,48.79,32.83,51.4,31.26,53.69C32.2,54.17,33.39,54.17,34.36,53.47L35.5,52.5Z" fill="currentColor"/></svg>