<svg xmlns="http://www.w3.org/2000/svg" viewBox="0 0 90 90" fill="currentColor"><path d="M6,86L17.81,86L23.09,77.84L13.83,77.84L6,79.62ZM86,83.22L86,86L74.19,86L68.91,77.84L78.17,77.84L86.01,79.62L86,79.62C86,80.18,86,83.17,86,83.22ZM19.62,38.05C10.58,46.67,6,60.66,6,79.62L14,79.62C14,63.04,17.7,51.04,25,43.97C31.83,37.35,39.41,37.52,39.75,37.53L40.1,29.54C40.1,29.54,39.91,29.54,39.68,29.54L39.68,29.52C37.56,29.52,28.06,29.99,19.62,38.05ZM51.91,29.52L52.29,37.51C52.57,37.5,60.18,37.34,67.01,43.95C74.31,51.02,78.01,63.02,78.01,79.6L86.01,79.6C86.01,60.64,81.43,46.65,72.39,38.03C63.96,29.98,54.46,29.5,52.33,29.5L52.33,29.52C52.1,29.52,51.95,29.52,51.91,29.52ZM26.93,19.52L27.61,19.52C33.63,19.52,37.11,24.36,37.2,30.35L37.2,37.86L54.79,37.86L54.79,33.67L54.79,30.35C54.88,24.36,58.37,19.53,64.38,19.53L65.06,19.53L65.06,14.85C66.15,14.4,73.41,12.99,73.41,12.99L73.41,6.01L49.73,6.01L46.26,6.01L18.58,6.01L18.58,12.99C18.58,12.99,25.84,14.4,26.93,14.85L26.93,14.84ZM69.3,86L22.7,86L22.7,80.55C22.7,61.57,22.3,56.76,24.7,50.79C27.11,44.83,34.75,35.02,45.99,35.02C57.23,35.02,64.87,44.82,67.28,50.79C69.69,56.76,69.28,61.57,69.28,80.55L69.3,80.55ZM22.7,86L22.7,80.55C22.7,61.57,22.3,56.76,24.7,50.79C26,47.58,28.82,43.27,32.89,39.96C41.15,52.1,45.99,66.73,45.99,82.49C45.99,82.69,45.99,84.15,45.97,86L45.98,86ZM22.7,77.84L22.7,76L69.3,76L69.3,77.84ZM18.58,12.98L18.58,6L73.41,6L73.41,12.98ZM26.93,19.52L26.93,14.84L65.07,14.84L65.07,19.52Z"/></svg>