<svg xmlns="http://www.w3.org/2000/svg" viewBox="0 0 90 90"><path d="M23,55.56C23,57.81,23.52,60.03,24.51,62.06L27.49,68.14C30.2,73.67,35.6,77.36,41.73,77.89C49.53,78.57,56.83,73.99,59.62,66.67L60.17,65.24C61.28,62.31,61.86,59.2,61.86,56.06L61.86,50.78C61.86,47.78,58.97,45.69,56.18,46.51C56.01,42.51,52.11,39.87,48.45,40.92C47.48,37.12,42.7,35.35,39.46,38.08L38.93,38.53L36.72,21.87C36.43,19.69,34.58,18.06,32.38,18.06C29.83,18.06,27.81,20.24,28.01,22.78L29.56,42.58C25.64,44.04,23,47.79,23,52.03Z" fill="currentColor" opacity="0.25"/><path d="M59.94,80.94L59.94,80L59.94,73.16L62.11,69.72C65.92,63.67,67.94,56.68,67.94,49.53C67.94,46.32,64.78,44.1,61.79,45.1C61.73,40.67,57.36,37.75,53.36,39.06C52.1,34.82,46.64,33.14,43.2,36.35L43.12,36.43L40.7,18.06C40.4,15.77,38.46,14.06,36.15,14.06C33.47,14.06,31.36,16.35,31.58,19.02L33.39,41.46C30.89,40.17,27.68,41.94,27.68,44.98L27.68,56.82C27.68,62.42,30.01,67.77,34.11,71.59L36.06,73.41L36.06,80L36.06,80.94L37,80.94L59,80.94Z" fill="currentColor"/><path d="M34.5,41.5L34.22,40.02L32.51,18.95C32.34,16.82,34.02,15,36.15,15C36.9,15,37.6,15.23,38.18,15.62C35.83,15.48,33.81,17.43,33.96,19.86L34.5,28.5Z" fill="currentColor"/><path d="M40.61,72.67L41.33,71.88L35.78,67.89C32.12,65.26,29.95,61.03,29.95,56.52L29.95,42.49C29.17,43.01,28.62,43.88,28.62,44.98L28.62,56.82C28.62,62.16,30.84,67.26,34.75,70.91L37,73L37,80L39.37,80C38.32,77.52,38.8,74.66,40.61,72.67Z" fill="currentColor"/><path d="M59,80L59,72.89L61.31,69.22C62.98,66.58,64.29,63.75,65.23,60.81C62.75,64.58,59.59,67.91,55.87,70.64L54,72L55.83,73.83C56.58,74.58,57,75.6,57,76.66L57,80Z" fill="currentColor"/><path d="M61.84,46.08L60.86,46.48L60.86,50.31L61.71,48.29C62.22,47.09,63.24,46.27,64.4,45.97C63.6,45.71,62.7,45.72,61.84,46.08Z" fill="currentColor"/><path d="M52.67,40.39L52.67,46.6L54.09,42.7C54.57,41.41,55.53,40.41,56.72,39.86C55.43,39.52,53.99,39.65,52.67,40.39Z" fill="currentColor"/><path d="M44.09,40.21L42.94,45.44L42.43,38.36L43.84,37.04C45.17,35.8,46.85,35.42,48.38,35.71C46.27,36.28,44.58,37.99,44.09,40.21Z" fill="currentColor"/><path d="M34.5,43.5L34.81,57.44L33.42,49.96C32.91,47.21,31.83,44.6,30.26,42.31C31.2,41.83,32.39,41.83,33.36,42.53L34.5,43.5Z" fill="currentColor"/></svg>