<svg xmlns="http://www.w3.org/2000/svg" viewBox="0 0 90 90"><path d="M5,5L16.81,5L22.09,13.16L12.83,13.16L5,11.38Z" fill="#E3AA24"/><path d="M85,7.78L85,5L73.19,5L67.91,13.16L77.17,13.16L85.01,11.38L85,11.38C85,10.82,85,7.83,85,7.78Z" fill="#E3AA24"/><path d="M18.62,52.95C9.58,44.33,5,30.34,5,11.38L13,11.38C13,27.96,16.7,39.96,24,47.03C30.83,53.65,38.41,53.48,38.75,53.47L39.1,61.46C39.1,61.46,38.91,61.46,38.68,61.46L38.68,61.48C36.56,61.48,27.06,61.01,18.62,52.95Z" fill="#E3AA24"/><path d="M50.91,61.48L51.29,53.49C51.57,53.5,59.18,53.66,66.01,47.05C73.31,39.98,77.01,27.98,77.01,11.4L85.01,11.4C85.01,30.36,80.43,44.35,71.39,52.97C62.96,61.02,53.46,61.5,51.33,61.5L51.33,61.48C51.1,61.48,50.95,61.48,50.91,61.48Z" fill="#E3AA24"/><path d="M25.93,71.48L26.61,71.48C32.63,71.48,36.11,66.64,36.2,60.65L36.2,53.14L53.79,53.14L53.79,57.33L53.79,60.65C53.88,66.64,57.37,71.47,63.38,71.47L64.06,71.47L64.06,76.15C65.15,76.6,72.41,78.01,72.41,78.01L72.41,84.99L48.73,84.99L45.26,84.99L17.58,84.99L17.58,78.01C17.58,78.01,24.84,76.6,25.93,76.15L25.93,76.16Z" fill="#F7C631"/><path d="M68.3,5L21.7,5L21.7,10.45C21.7,29.43,21.3,34.24,23.7,40.21C26.11,46.17,33.75,55.98,44.99,55.98C56.23,55.98,63.87,46.18,66.28,40.21C68.69,34.24,68.28,29.43,68.28,10.45L68.3,10.45Z" fill="#F7C631"/><path d="M21.7,5L21.7,10.45C21.7,29.43,21.3,34.24,23.7,40.21C25,43.42,27.82,47.73,31.89,51.04C40.15,38.9,44.99,24.27,44.99,8.51C44.99,8.31,44.99,6.85,44.97,5L44.98,5Z" fill="#FCE26A"/><path d="M21.7,13.16L21.7,15L68.3,15L68.3,13.16Z" fill="#E3AA24"/><path d="M17.58,78.02L17.58,85L72.41,85L72.41,78.02Z" fill="#FCE26A"/><path d="M25.93,71.48L25.93,76.16L64.07,76.16L64.07,71.48Z" fill="#FCE26A"/></svg>