<svg xmlns="http://www.w3.org/2000/svg" viewBox="0 0 90 90"><path d="M45.33,84.49C45.33,84.49,37.63,79.73,30.07,73.08C25.64,69.17,22.09,65.38,19.53,61.77C16.32,57.24,14.66,52.98,14.66,49.18L14.66,9.28L15.16,9.17C15.32,9.14,31.96,5.26,45.63,5.26C59.3,5.26,75.94,9.14,76.1,9.17L76.59,9.28L76.59,49.21C76.59,53.03,74.97,57.27,71.73,61.8C69.17,65.41,65.65,69.2,61.2,73.1C53.66,79.73,46.02,84.46,45.93,84.52L45.6,84.74L45.66,84.71Z" fill="currentColor"/><path d="M45.68,5.26C32.02,5.26,15.35,9.11,15.19,9.17L14.69,9.28L14.69,12.25L15.19,12.14C15.35,12.11,31.99,8.23,45.66,8.23C59.32,8.23,75.96,12.11,76.13,12.14L76.62,12.25L76.62,9.28L76.13,9.17L76.15,9.17C75.99,9.14,59.35,5.26,45.68,5.26Z" fill="currentColor" opacity="0.2"/><path d="M23.27,35.59C22.67,35.59,22.2,35.1,22.2,34.47C22.2,33.84,22.67,33.37,23.27,33.37C23.63,33.37,23.99,33.56,24.26,33.89L24.87,33.17C24.48,32.76,23.85,32.49,23.27,32.49C22.06,32.49,21.16,33.34,21.16,34.49C21.16,35.65,22.04,36.53,23.25,36.53C23.82,36.53,24.45,36.26,24.89,35.79L24.29,35.13C24.02,35.4,23.63,35.59,23.3,35.59" fill="none" stroke="currentColor" stroke-width="2" stroke-linecap="round" stroke-linejoin="round"/><path d="M26.66,34.11L26.66,32.52L25.64,32.52L25.64,36.48L26.66,36.48L26.66,34.94L28.25,34.94L28.25,36.48L29.3,36.48L29.3,32.52L28.25,32.52L28.25,34.11Z" fill="currentColor"/><path d="M33.2,34.91L33.2,34.08L31.3,34.08L31.3,33.34L33.39,33.34L33.39,32.52L30.28,32.52L30.28,36.48L33.45,36.48L33.45,35.65L31.3,35.65L31.3,34.91Z" fill="currentColor"/><path d="M35.98,33.31C36.31,33.31,36.83,33.51,37.24,33.73L37.63,32.9C37.22,32.63,36.64,32.46,36.06,32.46C35.1,32.46,34.49,32.93,34.49,33.67C34.49,35.07,36.58,34.66,36.58,35.35C36.58,35.57,36.39,35.68,36.09,35.68C35.68,35.68,35.07,35.43,34.66,35.07L34.25,35.87C34.71,36.26,35.4,36.5,36.06,36.5C36.94,36.5,37.66,36.09,37.66,35.29C37.66,33.86,35.57,34.25,35.57,33.59C35.57,33.4,35.73,33.31,35.98,33.31Z" fill="currentColor"/><path d="M40.08,33.31C40.41,33.31,40.93,33.51,41.34,33.73L41.73,32.9C41.31,32.63,40.73,32.46,40.16,32.46C39.2,32.46,38.59,32.93,38.59,33.67C38.59,35.07,40.68,34.66,40.68,35.35C40.68,35.57,40.49,35.68,40.19,35.68C39.77,35.68,39.17,35.43,38.76,35.07L38.34,35.87C38.81,36.26,39.5,36.5,40.16,36.5C41.04,36.5,41.75,36.09,41.75,35.29C41.75,33.86,39.66,34.25,39.66,33.59C39.66,33.4,39.83,33.31,40.08,33.31Z" fill="currentColor"/><path d="M44.25,32.52L44.25,36.48L46.98,36.48L46.98,35.59L45.3,35.59L45.3,32.52Z" fill="currentColor"/><path d="M50.8,34.91L50.8,34.08L48.93,34.08L48.93,33.34L50.99,33.34L50.99,32.52L47.88,32.52L47.88,36.48L51.08,36.48L51.08,35.65L48.93,35.65L48.93,34.91Z" fill="currentColor"/><path d="M51.84,36.48L52.92,36.48L53.19,35.79L54.9,35.79L55.17,36.48L56.27,36.48L54.62,32.52L53.55,32.52Z" fill="currentColor"/><path d="M54.05,33.59L54.59,34.99L53.49,34.99Z" fill="currentColor"/><path d="M58.66,33.37C59.02,33.37,59.43,33.53,59.71,33.81L60.29,33.09C59.87,32.73,59.24,32.52,58.66,32.52C57.4,32.52,56.49,33.37,56.49,34.52C56.49,35.68,57.4,36.53,58.61,36.53C59.16,36.53,59.85,36.31,60.26,36.03L60.26,34.47L59.38,34.47L59.38,35.46C59.13,35.57,58.88,35.65,58.69,35.65C58.06,35.65,57.56,35.16,57.56,34.52C57.56,33.89,58.03,33.4,58.69,33.4" fill="none" stroke="currentColor" stroke-width="2" stroke-linecap="round" stroke-linejoin="round"/><path d="M63.04,35.62C62.57,35.62,62.24,35.32,62.24,34.8L62.24,32.49L61.2,32.49L61.2,34.8C61.2,35.84,61.91,36.5,63.04,36.5C64.17,36.5,64.85,35.84,64.85,34.8L64.85,32.49L63.81,32.49L63.81,34.8C63.81,35.32,63.51,35.62,63.04,35.62Z" fill="currentColor"/><path d="M66.81,34.91L68.7,34.91L68.7,34.08L66.81,34.08L66.81,33.34L68.89,33.34L68.89,32.52L65.76,32.52L65.76,36.48L68.95,36.48L68.95,35.65L66.81,35.65Z" fill="currentColor"/><path d="M28.08,13.65L20.88,13.65L20.88,29L25.97,29L25.97,25.01L28.08,25.01C30.09,25.01,31.63,24.48,32.73,23.47C33.83,22.45,34.38,20.99,34.38,19.15C34.38,17.39,33.83,16.04,32.73,15.08C31.63,14.12,30.09,13.65,28.08,13.65Z" fill="currentColor"/><path d="M27.81,21.16L25.94,21.16L25.94,17.5L27.81,17.5C28.36,17.5,28.8,17.66,29.1,17.97C29.4,18.27,29.54,18.71,29.54,19.29C29.54,19.86,29.4,20.33,29.1,20.66C28.8,20.99,28.39,21.16,27.81,21.16Z" fill="currentColor"/><path d="M51.21,19.12C51.21,17.36,50.63,16.02,49.51,15.05C48.38,14.09,46.76,13.62,44.67,13.62L37.24,13.62L37.24,28.97L42.33,28.97L42.33,24.98L44.23,24.98L46.07,28.97L51.79,28.97L48.76,23.99C50.39,23,51.18,21.38,51.18,19.12" fill="none" stroke="currentColor" stroke-width="2" stroke-linecap="round" stroke-linejoin="round"/><path d="M44.64,21.13L42.3,21.13L42.3,17.47L44.64,17.47C45.19,17.47,45.63,17.64,45.93,17.94C46.23,18.24,46.37,18.68,46.37,19.26C46.37,19.84,46.23,20.31,45.93,20.64C45.63,20.97,45.22,21.13,44.64,21.13Z" fill="currentColor"/><path d="M68.04,15.69C66.45,14.2,64.44,13.48,61.99,13.48C59.55,13.48,57.54,14.23,55.94,15.69C54.35,17.14,53.55,19.01,53.55,21.3C53.55,23.58,54.35,25.48,55.94,26.96C57.54,28.45,59.55,29.19,61.99,29.19C64.44,29.19,66.45,28.45,68.04,26.93C69.64,25.45,70.44,23.55,70.44,21.27C70.44,18.98,69.64,17.14,68.04,15.66" fill="none" stroke="currentColor" stroke-width="2" stroke-linecap="round" stroke-linejoin="round"/><path d="M64.3,23.88C63.7,24.57,62.95,24.93,62.08,24.93C61.2,24.93,60.42,24.57,59.77,23.88C59.1,23.19,58.8,22.31,58.8,21.27C58.8,20.22,59.13,19.37,59.77,18.68C60.4,18,61.17,17.66,62.08,17.66C62.98,17.66,63.73,18,64.33,18.68C64.94,19.37,65.24,20.22,65.24,21.27C65.24,22.31,64.94,23.16,64.33,23.88" fill="none" stroke="currentColor" stroke-width="2" stroke-linecap="round" stroke-linejoin="round"/><path d="M67.82,5.95C57.95,4.13,50.31,3.75,45.6,3.75C37.11,3.75,28.86,4.96,23.41,5.95C17.53,7.05,13.57,8.18,13.54,8.18L13.15,8.29L13.15,48.77C13.1,49.23,12.8,53.44,16.45,59.99C18.65,63.92,21.84,67.91,25.94,71.84C31.06,76.73,37.6,81.52,45.38,86.11L45.66,86.28L45.93,86.14C45.93,86.14,53.94,81.66,61.8,74.86C66.42,70.88,70.13,66.83,72.83,62.9C76.21,57.95,78,53.11,78.08,48.52L78.08,8.29L77.7,8.18C77.7,8.18,73.71,7.05,67.82,5.95Z" fill="currentColor"/><path d="M45.66,82.76C43.82,81.58,37.44,77.39,31.17,71.87C26.82,68.05,23.36,64.33,20.91,60.84C17.88,56.58,16.34,52.67,16.34,49.21L16.34,10.6C19.78,9.83,33.86,6.91,45.66,6.91C57.46,6.91,71.54,9.86,74.97,10.6L74.97,49.21C74.97,52.67,73.43,56.58,70.41,60.84C67.93,64.33,64.5,68.05,60.15,71.87C53.88,77.39,47.5,81.58,45.66,82.76Z" fill="currentColor"/><path d="M45.63,3.75C37.13,3.75,28.88,4.96,23.44,5.95C17.53,7.05,13.57,8.18,13.54,8.18L13.15,8.29L13.15,9.61L13.54,9.5C13.54,9.5,17.53,8.37,23.41,7.27C28.86,6.25,37.11,5.07,45.6,5.07C50.28,5.07,57.95,5.46,67.8,7.27C73.68,8.37,77.64,9.47,77.67,9.5L78.05,9.61L78.05,8.29L77.67,8.18C77.67,8.18,73.68,7.05,67.8,5.95L67.82,5.95C57.95,4.13,50.31,3.75,45.63,3.75Z" fill="currentColor"/><path d="M62.02,14.37C59.79,14.37,58,15,56.57,16.34C55.97,16.89,55.5,17.5,55.17,18.16C54.95,18.6,55.25,19.12,55.78,19.12L58.09,19.12C58.31,19.12,58.53,19.01,58.66,18.79C58.8,18.57,58.99,18.32,59.19,18.13C59.98,17.28,61,16.84,62.13,16.84C63.26,16.84,64.25,17.28,65.02,18.16C65.18,18.35,65.35,18.57,65.48,18.79C65.59,18.98,65.81,19.12,66.06,19.12L68.32,19.12C68.81,19.12,69.14,18.6,68.92,18.16C68.59,17.5,68.12,16.89,67.52,16.34L67.46,16.34C66.03,15.03,64.25,14.37,62.02,14.37Z" fill="currentColor"/><path d="M44.67,14.5L38.12,14.5L38.12,18.46C38.12,18.82,38.43,19.12,38.78,19.12L40.79,19.12C41.15,19.12,41.45,18.82,41.45,18.46L41.45,16.62L44.67,16.62C45.47,16.62,46.1,16.87,46.57,17.36C46.87,17.69,47.09,18.1,47.2,18.57C47.25,18.87,47.53,19.12,47.86,19.12L49.65,19.12C50.03,19.12,50.36,18.76,50.31,18.38C50.17,17.25,49.73,16.37,48.96,15.74C48,14.91,46.54,14.5,44.67,14.5Z" fill="currentColor"/><path d="M28.09,14.53L21.76,14.53L21.76,18.49C21.76,18.85,22.06,19.15,22.42,19.15L24.43,19.15C24.79,19.15,25.09,18.85,25.09,18.49L25.09,16.65L27.81,16.65C28.61,16.65,29.24,16.89,29.71,17.39C30.01,17.72,30.23,18.13,30.34,18.6C30.39,18.9,30.67,19.15,31,19.15L32.79,19.15C33.17,19.15,33.5,18.82,33.45,18.41C33.31,17.28,32.9,16.4,32.16,15.74C31.22,14.94,29.87,14.53,28.09,14.53Z" fill="currentColor"/><path d="M31.16,73.52C37.44,79.05,43.81,83.22,45.66,84.41C47.5,83.22,53.88,79.02,60.15,73.52C64.5,69.69,67.96,65.98,70.41,62.49C73.43,58.23,74.97,54.32,74.97,50.86L74.97,49.21C74.97,52.67,73.43,56.58,70.41,60.84C67.93,64.33,64.5,68.05,60.15,71.87C53.88,77.39,47.5,81.58,45.66,82.76C43.81,81.58,37.44,77.39,31.16,71.87C26.82,68.05,23.36,64.33,20.91,60.84C17.88,56.58,16.34,52.67,16.34,49.21L16.34,50.86C16.34,54.32,17.88,58.23,20.91,62.49C23.38,65.98,26.82,69.69,31.16,73.52Z" fill="currentColor"/><path d="M31.5,55.04L29.71,53.47C31.72,48.47,37.41,44.78,43.6,43.63C46.76,43.02,49.78,41.78,52.42,39.94L52.62,39.8C53.03,41.26,52.84,43.21,52.04,44.62L54.62,46.62C55.81,47.53,56.49,48.93,56.49,50.45L63.45,59.38C63.95,60.02,63.92,60.92,63.37,61.53L61.97,63.07C61.61,63.42,61.14,63.65,60.65,63.65L59.02,63.65C57.59,63.65,56.44,62.52,56.33,61.14C56.33,61.14,49.54,60.34,47.64,56.05C47.64,56.05,44.23,59.47,52.31,63.67C54.51,64.83,59.57,67.96,60.01,72.06C53.8,77.5,47.5,81.66,45.69,82.81C43.84,81.63,37.46,77.45,31.19,71.92C31.11,71.87,31.03,71.78,30.97,71.73C29.3,67.52,30.01,63.92,30.01,63.92L28.09,63.18L28.06,63.09C28.06,58.45,31.5,55.04,31.5,55.04Z" fill="currentColor"/><path d="M62.82,60.67C62.9,60.59,62.93,60.51,62.98,60.4C63.01,60.26,62.93,60.13,62.79,60.13L62.32,60.13C62.05,60.13,61.8,60.34,61.8,60.65L61.8,61.28C61.8,61.47,62.02,61.55,62.16,61.42L62.13,61.42C62.35,61.17,62.6,60.92,62.82,60.67Z" fill="currentColor"/><path d="M54.87,50.39L51.68,48.91L52.64,50.28C53.16,51.05,54.29,51.1,54.87,50.39Z" fill="currentColor"/><path d="M60.01,71.98C59.57,67.88,54.51,64.75,52.31,63.59C44.23,59.38,47.64,55.97,47.64,55.97C49.53,60.26,56.3,61.06,56.33,61.06C56.41,62.46,57.59,63.56,59.02,63.56L60.65,63.56C61.14,63.56,61.63,63.37,61.97,62.98L62.9,61.97L59.22,61.97C58.5,61.97,57.95,61.39,57.95,60.7C57.95,60.04,57.45,59.52,56.82,59.44C46.9,58.26,48.49,51.27,48.49,51.27C47.77,52.51,47.47,53.58,47.42,54.52C46.87,54.82,44.83,56.16,44.83,58.97C44.83,64.47,51.21,67.66,51.21,73.71C51.21,79.02,45.66,82.73,45.66,82.73L45.69,82.73C47.53,81.55,53.8,77.42,60.01,71.98Z" fill="currentColor"/><path d="M31.19,71.81C33.2,73.57,35.21,75.19,37.08,76.63C32.98,73.27,28.52,61.97,37.08,56.38C37.08,56.38,30.31,57.07,28.09,63.04L30.01,63.78C30.01,63.78,29.3,67.39,30.97,71.59L30.97,71.62C30.97,71.62,31.14,71.76,31.19,71.81Z" fill="currentColor"/><path d="M29.71,53.44L31.5,55.01C33.67,52.67,35.95,50.77,40.63,49.78L40.65,49.78C40.65,49.78,34.3,48.16,29.71,53.44Z" fill="currentColor"/><path d="M52.31,40.55L51.13,42.94C50.85,43.46,51.1,44.12,51.63,44.37L51.65,44.34C52.26,43.24,52.51,41.78,52.31,40.55Z" fill="currentColor"/></svg>