<svg xmlns="http://www.w3.org/2000/svg" viewBox="0 0 90 90"><path d="M46.33,85.49C46.33,85.49,38.63,80.73,31.07,74.08C26.64,70.17,23.09,66.38,20.53,62.77C17.32,58.24,15.66,53.98,15.66,50.18L15.66,10.28L16.16,10.17C16.32,10.14,32.96,6.26,46.63,6.26C60.3,6.26,76.94,10.14,77.1,10.17L77.59,10.28L77.59,50.21C77.59,54.03,75.97,58.27,72.73,62.8C70.17,66.41,66.65,70.2,62.2,74.1C54.66,80.73,47.02,85.46,46.93,85.52L46.6,85.74L46.66,85.71Z" fill="currentColor"/><path d="M46.68,6.26C33.02,6.26,16.35,10.11,16.19,10.17L15.69,10.28L15.69,13.25L16.19,13.14C16.35,13.11,32.99,9.23,46.66,9.23C60.32,9.23,76.96,13.11,77.13,13.14L77.62,13.25L77.62,10.28L77.13,10.17L77.15,10.17C76.99,10.14,60.35,6.26,46.68,6.26Z" fill="currentColor" opacity="0.2"/><path d="M24.27,36.59C23.67,36.59,23.2,36.1,23.2,35.47C23.2,34.84,23.67,34.37,24.27,34.37C24.63,34.37,24.99,34.56,25.26,34.89L25.87,34.17C25.48,33.76,24.85,33.49,24.27,33.49C23.06,33.49,22.16,34.34,22.16,35.49C22.16,36.65,23.04,37.53,24.25,37.53C24.82,37.53,25.45,37.26,25.89,36.79L25.29,36.13C25.02,36.4,24.63,36.59,24.3,36.59" fill="currentColor"/><path d="M27.66,35.11L27.66,33.52L26.64,33.52L26.64,37.48L27.66,37.48L27.66,35.94L29.25,35.94L29.25,37.48L30.3,37.48L30.3,33.52L29.25,33.52L29.25,35.11Z" fill="currentColor"/><path d="M34.2,35.91L34.2,35.08L32.3,35.08L32.3,34.34L34.39,34.34L34.39,33.52L31.28,33.52L31.28,37.48L34.45,37.48L34.45,36.65L32.3,36.65L32.3,35.91Z" fill="currentColor"/><path d="M36.98,34.31C37.31,34.31,37.83,34.51,38.24,34.73L38.63,33.9C38.22,33.63,37.64,33.46,37.06,33.46C36.1,33.46,35.49,33.93,35.49,34.67C35.49,36.07,37.58,35.66,37.58,36.35C37.58,36.57,37.39,36.68,37.09,36.68C36.68,36.68,36.07,36.43,35.66,36.07L35.25,36.87C35.71,37.26,36.4,37.5,37.06,37.5C37.94,37.5,38.66,37.09,38.66,36.29C38.66,34.86,36.57,35.25,36.57,34.59C36.57,34.4,36.73,34.31,36.98,34.31Z" fill="currentColor"/><path d="M41.08,34.31C41.41,34.31,41.93,34.51,42.34,34.73L42.73,33.9C42.31,33.63,41.73,33.46,41.16,33.46C40.2,33.46,39.59,33.93,39.59,34.67C39.59,36.07,41.68,35.66,41.68,36.35C41.68,36.57,41.49,36.68,41.19,36.68C40.77,36.68,40.17,36.43,39.76,36.07L39.34,36.87C39.81,37.26,40.5,37.5,41.16,37.5C42.04,37.5,42.75,37.09,42.75,36.29C42.75,34.86,40.66,35.25,40.66,34.59C40.66,34.4,40.83,34.31,41.08,34.31Z" fill="currentColor"/><path d="M45.25,33.52L45.25,37.48L47.98,37.48L47.98,36.59L46.3,36.59L46.3,33.52Z" fill="currentColor"/><path d="M51.8,35.91L51.8,35.08L49.93,35.08L49.93,34.34L51.99,34.34L51.99,33.52L48.88,33.52L48.88,37.48L52.08,37.48L52.08,36.65L49.93,36.65L49.93,35.91Z" fill="currentColor"/><path d="M52.84,37.48L53.92,37.48L54.19,36.79L55.9,36.79L56.17,37.48L57.27,37.48L55.62,33.52L54.55,33.52Z" fill="currentColor"/><path d="M55.05,34.59L55.59,35.99L54.49,35.99Z" fill="currentColor"/><path d="M59.66,34.37C60.02,34.37,60.43,34.53,60.71,34.81L61.29,34.09C60.87,33.73,60.24,33.52,59.66,33.52C58.4,33.52,57.49,34.37,57.49,35.52C57.49,36.68,58.4,37.53,59.61,37.53C60.16,37.53,60.85,37.31,61.26,37.03L61.26,35.47L60.38,35.47L60.38,36.46C60.13,36.57,59.88,36.65,59.69,36.65C59.06,36.65,58.56,36.16,58.56,35.52C58.56,34.89,59.03,34.4,59.69,34.4" fill="currentColor"/><path d="M64.04,36.62C63.57,36.62,63.24,36.32,63.24,35.8L63.24,33.49L62.2,33.49L62.2,35.8C62.2,36.84,62.91,37.5,64.04,37.5C65.17,37.5,65.85,36.84,65.85,35.8L65.85,33.49L64.81,33.49L64.81,35.8C64.81,36.32,64.51,36.62,64.04,36.62Z" fill="currentColor"/><path d="M67.81,35.91L69.7,35.91L69.7,35.08L67.81,35.08L67.81,34.34L69.89,34.34L69.89,33.52L66.76,33.52L66.76,37.48L69.95,37.48L69.95,36.65L67.81,36.65Z" fill="currentColor"/><path d="M29.08,14.65L21.88,14.65L21.88,30L26.97,30L26.97,26.01L29.08,26.01C31.09,26.01,32.63,25.48,33.73,24.47C34.83,23.45,35.38,21.99,35.38,20.15C35.38,18.39,34.83,17.04,33.73,16.08C32.63,15.12,31.09,14.65,29.08,14.65Z" fill="currentColor"/><path d="M28.81,22.16L26.94,22.16L26.94,18.5L28.81,18.5C29.36,18.5,29.8,18.66,30.1,18.97C30.4,19.27,30.54,19.71,30.54,20.29C30.54,20.86,30.4,21.33,30.1,21.66C29.8,21.99,29.39,22.16,28.81,22.16Z" fill="currentColor"/><path d="M52.21,20.12C52.21,18.36,51.63,17.02,50.51,16.05C49.38,15.09,47.76,14.62,45.67,14.62L38.24,14.62L38.24,29.97L43.33,29.97L43.33,25.98L45.23,25.98L47.07,29.97L52.79,29.97L49.76,24.99C51.39,24,52.18,22.38,52.18,20.12" fill="currentColor"/><path d="M45.64,22.13L43.3,22.13L43.3,18.47L45.64,18.47C46.19,18.47,46.63,18.64,46.93,18.94C47.23,19.24,47.37,19.68,47.37,20.26C47.37,20.84,47.23,21.31,46.93,21.64C46.63,21.97,46.22,22.13,45.64,22.13Z" fill="currentColor"/><path d="M69.04,16.69C67.45,15.2,65.44,14.48,62.99,14.48C60.55,14.48,58.54,15.23,56.94,16.69C55.35,18.14,54.55,20.01,54.55,22.3C54.55,24.58,55.35,26.48,56.94,27.96C58.54,29.45,60.55,30.19,62.99,30.19C65.44,30.19,67.45,29.45,69.04,27.93C70.64,26.45,71.44,24.55,71.44,22.27C71.44,19.98,70.64,18.14,69.04,16.66" fill="currentColor"/><path d="M65.3,24.88C64.7,25.57,63.95,25.93,63.08,25.93C62.2,25.93,61.42,25.57,60.77,24.88C60.1,24.19,59.8,23.31,59.8,22.27C59.8,21.22,60.13,20.37,60.77,19.68C61.4,19,62.17,18.66,63.08,18.66C63.98,18.66,64.73,19,65.33,19.68C65.94,20.37,66.24,21.22,66.24,22.27C66.24,23.31,65.94,24.16,65.33,24.88" fill="currentColor"/><path d="M68.82,6.95C58.95,5.13,51.31,4.75,46.6,4.75C38.11,4.75,29.86,5.96,24.41,6.95C18.53,8.05,14.57,9.18,14.54,9.18L14.15,9.29L14.15,49.77C14.1,50.23,13.8,54.44,17.45,60.99C19.65,64.92,22.84,68.91,26.94,72.84C32.06,77.73,38.6,82.52,46.38,87.11L46.66,87.28L46.93,87.14C46.93,87.14,54.94,82.66,62.8,75.86C67.42,71.88,71.13,67.83,73.83,63.9C77.21,58.95,79,54.11,79.08,49.52L79.08,9.29L78.7,9.18C78.7,9.18,74.71,8.05,68.82,6.95Z" fill="currentColor"/><path d="M46.66,83.76C44.82,82.58,38.44,78.39,32.17,72.87C27.82,69.05,24.36,65.33,21.91,61.84C18.88,57.58,17.34,53.67,17.34,50.21L17.34,11.6C20.78,10.83,34.86,7.91,46.66,7.91C58.46,7.91,72.54,10.86,75.97,11.6L75.97,50.21C75.97,53.67,74.43,57.58,71.41,61.84C68.93,65.33,65.5,69.05,61.15,72.87C54.88,78.39,48.5,82.58,46.66,83.76Z" fill="currentColor"/><path d="M46.63,4.75C38.13,4.75,29.88,5.96,24.44,6.95C18.53,8.05,14.57,9.18,14.54,9.18L14.15,9.29L14.15,10.61L14.54,10.5C14.54,10.5,18.53,9.37,24.41,8.27C29.86,7.25,38.11,6.07,46.6,6.07C51.28,6.07,58.95,6.46,68.8,8.27C74.68,9.37,78.64,10.47,78.67,10.5L79.05,10.61L79.05,9.29L78.67,9.18C78.67,9.18,74.68,8.05,68.8,6.95L68.82,6.95C58.95,5.13,51.31,4.75,46.63,4.75Z" fill="currentColor"/><path d="M63.02,15.37C60.79,15.37,59,16,57.57,17.34C56.97,17.89,56.5,18.5,56.17,19.16C55.95,19.6,56.25,20.12,56.78,20.12L59.09,20.12C59.31,20.12,59.53,20.01,59.66,19.79C59.8,19.57,59.99,19.32,60.19,19.13C60.98,18.28,62,17.84,63.13,17.84C64.26,17.84,65.25,18.28,66.02,19.16C66.18,19.35,66.35,19.57,66.48,19.79C66.59,19.98,66.81,20.12,67.06,20.12L69.32,20.12C69.81,20.12,70.14,19.6,69.92,19.16C69.59,18.5,69.12,17.89,68.52,17.34L68.46,17.34C67.03,16.02,65.25,15.37,63.02,15.37Z" fill="currentColor"/><path d="M45.67,15.5L39.12,15.5L39.12,19.46C39.12,19.82,39.43,20.12,39.78,20.12L41.79,20.12C42.15,20.12,42.45,19.82,42.45,19.46L42.45,17.62L45.67,17.62C46.47,17.62,47.1,17.87,47.57,18.36C47.87,18.69,48.09,19.1,48.2,19.57C48.25,19.87,48.53,20.12,48.86,20.12L50.65,20.12C51.03,20.12,51.36,19.76,51.31,19.38C51.17,18.25,50.73,17.37,49.96,16.74C49,15.91,47.54,15.5,45.67,15.5Z" fill="currentColor"/><path d="M29.09,15.53L22.76,15.53L22.76,19.49C22.76,19.85,23.06,20.15,23.42,20.15L25.43,20.15C25.79,20.15,26.09,19.85,26.09,19.49L26.09,17.65L28.81,17.65C29.61,17.65,30.24,17.89,30.71,18.39C31.01,18.72,31.23,19.13,31.34,19.6C31.39,19.9,31.67,20.15,32,20.15L33.79,20.15C34.17,20.15,34.5,19.82,34.45,19.41C34.31,18.28,33.9,17.4,33.16,16.74C32.22,15.94,30.87,15.53,29.09,15.53Z" fill="currentColor"/><path d="M32.16,74.52C38.44,80.05,44.81,84.22,46.66,85.41C48.5,84.22,54.88,80.02,61.15,74.52C65.5,70.69,68.96,66.98,71.41,63.49C74.43,59.23,75.97,55.32,75.97,51.86L75.97,50.21C75.97,53.67,74.43,57.58,71.41,61.84C68.93,65.33,65.5,69.05,61.15,72.87C54.88,78.39,48.5,82.58,46.66,83.76C44.81,82.58,38.44,78.39,32.16,72.87C27.82,69.05,24.36,65.33,21.91,61.84C18.88,57.58,17.34,53.67,17.34,50.21L17.34,51.86C17.34,55.32,18.88,59.23,21.91,63.49C24.38,66.98,27.82,70.69,32.16,74.52Z" fill="currentColor"/><path d="M32.5,56.04L30.71,54.47C32.72,49.47,38.41,45.78,44.6,44.63C47.76,44.02,50.78,42.78,53.42,40.94L53.62,40.8C54.03,42.26,53.84,44.21,53.04,45.62L55.62,47.62C56.81,48.53,57.49,49.93,57.49,51.45L64.45,60.38C64.95,61.02,64.92,61.92,64.37,62.53L62.97,64.07C62.61,64.42,62.14,64.65,61.65,64.65L60.02,64.65C58.59,64.65,57.44,63.52,57.33,62.14C57.33,62.14,50.54,61.34,48.64,57.05C48.64,57.05,45.23,60.47,53.31,64.67C55.51,65.83,60.57,68.96,61.01,73.06C54.8,78.5,48.5,82.66,46.69,83.81C44.84,82.63,38.46,78.45,32.19,72.92C32.11,72.87,32.03,72.78,31.97,72.73C30.3,68.52,31.01,64.92,31.01,64.92L29.09,64.18L29.06,64.09C29.06,59.45,32.5,56.04,32.5,56.04Z" fill="currentColor"/><path d="M63.82,61.67C63.9,61.59,63.93,61.51,63.98,61.4C64.01,61.26,63.93,61.13,63.79,61.13L63.32,61.13C63.05,61.13,62.8,61.34,62.8,61.65L62.8,62.28C62.8,62.47,63.02,62.55,63.16,62.42L63.13,62.42C63.35,62.17,63.6,61.92,63.82,61.67Z" fill="currentColor"/><path d="M55.87,51.39L52.68,49.91L53.64,51.28C54.16,52.05,55.29,52.1,55.87,51.39Z" fill="currentColor"/><path d="M61.01,72.98C60.57,68.88,55.51,65.75,53.31,64.59C45.23,60.38,48.64,56.97,48.64,56.97C50.53,61.26,57.3,62.06,57.33,62.06C57.41,63.46,58.59,64.56,60.02,64.56L61.65,64.56C62.14,64.56,62.63,64.37,62.97,63.98L63.9,62.97L60.22,62.97C59.5,62.97,58.95,62.39,58.95,61.7C58.95,61.04,58.45,60.52,57.82,60.44C47.9,59.26,49.49,52.27,49.49,52.27C48.77,53.51,48.47,54.58,48.42,55.52C47.87,55.82,45.83,57.16,45.83,59.97C45.83,65.47,52.21,68.66,52.21,74.71C52.21,80.02,46.66,83.73,46.66,83.73L46.69,83.73C48.53,82.55,54.8,78.42,61.01,72.98Z" fill="currentColor"/><path d="M32.19,72.81C34.2,74.57,36.21,76.19,38.08,77.63C33.98,74.27,29.52,62.97,38.08,57.38C38.08,57.38,31.31,58.07,29.09,64.04L31.01,64.78C31.01,64.78,30.3,68.39,31.97,72.59L31.97,72.62C31.97,72.62,32.14,72.76,32.19,72.81Z" fill="currentColor"/><path d="M30.71,54.44L32.5,56.01C34.67,53.67,36.95,51.77,41.63,50.78L41.65,50.78C41.65,50.78,35.3,49.16,30.71,54.44Z" fill="currentColor"/><path d="M53.31,41.55L52.13,43.94C51.85,44.46,52.1,45.12,52.63,45.37L52.65,45.34C53.26,44.24,53.51,42.78,53.31,41.55Z" fill="currentColor"/></svg>