<svg xmlns="http://www.w3.org/2000/svg" viewBox="0 0 90 90"><path d="M44.71,85.7C44.63,85.65,36.77,80.8,28.99,73.96C24.42,69.93,20.77,66.02,18.15,62.32C14.83,57.63,13.15,53.26,13.15,49.34L13.15,8.18L13.66,8.06C13.83,8.02,30.98,4.02,45.06,4.02C59.14,4.02,76.29,8.02,76.46,8.06L76.97,8.18L76.97,49.32C76.97,53.25,75.29,57.61,71.97,62.3C69.35,66,65.7,69.92,61.13,73.94C53.36,80.78,45.49,85.64,45.41,85.68L45.06,85.89L45.06,85.91Z" fill="currentColor"/><path d="M45.06,4.02C30.98,4.02,13.83,8.02,13.66,8.06L13.15,8.18L13.15,11.24L13.66,11.12C13.83,11.08,30.98,7.08,45.06,7.08C59.14,7.08,76.29,11.08,76.46,11.12L76.97,11.24L76.97,8.18L76.46,8.06C76.29,8.02,59.14,4.02,45.06,4.02Z" fill="currentColor" opacity="0.2"/><path d="M27.96,12.68L20.54,12.68L20.54,28.48L25.77,28.48L25.77,24.38L27.96,24.38C30.02,24.38,31.61,23.85,32.74,22.79C33.87,21.73,34.43,20.25,34.43,18.34C34.43,16.54,33.87,15.14,32.74,14.16C31.61,13.18,30.02,12.68,27.96,12.68Z" fill="currentColor"/><path d="M27.69,20.42L25.77,20.42L25.77,16.66L27.69,16.66C28.26,16.66,28.7,16.82,29.01,17.14C29.32,17.46,29.47,17.92,29.47,18.5C29.47,19.08,29.32,19.57,29.01,19.91C28.7,20.25,28.26,20.42,27.69,20.42Z" fill="currentColor"/><path d="M50.03,14.16C48.86,13.18,47.2,12.68,45.05,12.68L37.41,12.68L37.41,28.48L42.64,28.48L42.64,24.38L44.6,24.38L46.49,28.48L52.4,28.48L49.29,23.34C50.96,22.32,51.79,20.65,51.79,18.34C51.79,16.54,51.2,15.14,50.03,14.16Z" fill="currentColor"/><path d="M45.05,20.42L42.64,20.42L42.64,16.66L45.05,16.66C45.62,16.66,46.06,16.82,46.37,17.14C46.68,17.46,46.83,17.92,46.83,18.5C46.83,19.08,46.68,19.57,46.37,19.91C46.06,20.25,45.62,20.42,45.05,20.42Z" fill="currentColor"/><path d="M62.9,12.52C60.39,12.52,58.32,13.28,56.68,14.79C55.04,16.3,54.22,18.23,54.22,20.57C54.22,22.91,55.04,24.88,56.68,26.41C58.32,27.94,60.39,28.71,62.9,28.71C65.41,28.71,67.48,27.94,69.12,26.4C70.76,24.86,71.58,22.92,71.58,20.57C71.58,18.22,70.76,16.32,69.12,14.8C67.48,13.28,65.41,12.52,62.9,12.52Z" fill="currentColor"/><path d="M62.97,24.35C62.07,24.35,61.26,23.99,60.59,23.27C59.92,22.55,59.59,21.65,59.59,20.59C59.59,19.53,59.92,18.64,60.58,17.93C61.24,17.22,62.04,16.87,62.97,16.87C63.9,16.87,64.66,17.22,65.28,17.93C65.9,18.64,66.22,19.52,66.22,20.59C66.22,21.66,65.9,22.55,65.27,23.27C64.64,23.99,63.87,24.35,62.97,24.35Z" fill="currentColor"/><path d="M67.88,4.77C57.72,2.89,49.83,2.49,45,2.49C36.25,2.49,27.74,3.73,22.13,4.77C16.06,5.9,12,7.04,11.96,7.05L11.56,7.16L11.56,48.87C11.51,49.34,11.2,53.68,14.96,60.42C17.22,64.48,20.52,68.59,24.74,72.63C30,77.66,36.75,82.61,44.78,87.33L45.05,87.49L45.32,87.34C45.4,87.29,53.56,82.72,61.66,75.72C66.43,71.6,70.25,67.45,73.02,63.4C76.51,58.29,78.34,53.3,78.44,48.57L78.44,7.17L78.04,7.06L78.06,7.05C78.06,7.05,73.95,5.9,67.88,4.77Z" fill="currentColor"/><path d="M45.06,83.89C43.15,82.67,36.59,78.35,30.13,72.66C25.66,68.72,22.1,64.9,19.55,61.31C16.44,56.92,14.86,52.88,14.86,49.32L14.86,9.55C18.4,8.77,32.92,5.74,45.06,5.74C57.2,5.74,71.72,8.77,75.26,9.55L75.26,49.33C75.26,52.9,73.68,56.93,70.57,61.32C68.02,64.91,64.47,68.73,59.99,72.67L59.99,72.66C53.53,78.34,46.96,82.67,45.06,83.89Z" fill="currentColor"/><path d="M62.91,13.42C60.62,13.42,58.78,14.08,57.29,15.45C56.68,16.02,56.19,16.64,55.84,17.33C55.61,17.79,55.94,18.33,56.45,18.33L58.82,18.33C59.06,18.33,59.28,18.21,59.4,18C59.55,17.76,59.73,17.53,59.93,17.32C60.76,16.43,61.79,15.98,62.97,15.98C64.15,15.98,65.15,16.44,65.95,17.34C66.13,17.55,66.29,17.76,66.43,17.99C66.55,18.2,66.78,18.32,67.02,18.32L69.35,18.32C69.86,18.32,70.2,17.78,69.96,17.32C69.61,16.64,69.13,16.01,68.52,15.45L68.52,15.46C67.04,14.09,65.2,13.42,62.91,13.42Z" fill="currentColor"/><path d="M45.04,13.57L38.29,13.57L38.29,17.64C38.29,18.02,38.6,18.33,38.98,18.33L41.05,18.33C41.43,18.33,41.74,18.02,41.74,17.64L41.74,15.75L45.05,15.75C45.87,15.75,46.53,16.01,47.02,16.51C47.34,16.85,47.56,17.27,47.66,17.77C47.73,18.09,48.01,18.32,48.33,18.32L50.17,18.32C50.58,18.32,50.9,17.96,50.85,17.56C50.71,16.4,50.25,15.5,49.45,14.83L49.45,14.84C48.45,14,46.97,13.57,45.04,13.57Z" fill="currentColor"/><path d="M27.96,13.57L21.44,13.57L21.44,17.64C21.44,18.02,21.75,18.33,22.13,18.33L24.2,18.33C24.58,18.33,24.89,18.02,24.89,17.64L24.89,15.75L27.7,15.75C28.52,15.75,29.18,16.01,29.67,16.51C29.99,16.85,30.21,17.27,30.31,17.77C30.38,18.09,30.66,18.32,30.98,18.32L32.82,18.32C33.23,18.32,33.55,17.97,33.5,17.56C33.37,16.39,32.93,15.49,32.16,14.82L32.15,14.83C31.2,14,29.79,13.57,27.96,13.57Z" fill="currentColor"/><path d="M27.8,50.13L25.61,48.21C28.06,42.12,34.97,37.63,42.52,36.21C46.39,35.48,50.07,33.97,53.29,31.71L53.54,31.53C54.06,33.3,53.8,35.68,52.85,37.38L55.99,39.83C57.42,40.95,58.26,42.66,58.26,44.47L66.74,55.36C67.35,56.14,67.3,57.25,66.63,57.98L64.92,59.84C64.5,60.28,63.91,60.53,63.3,60.53L61.32,60.53C59.59,60.53,58.16,59.17,58.05,57.47C58.05,57.46,49.78,56.5,47.48,51.28C47.48,51.28,43.33,55.43,53.17,60.56C55.84,61.96,62.01,65.78,62.55,70.78C54.98,77.42,47.32,82.45,45.09,83.88C42.84,82.44,35.07,77.33,27.44,70.61C27.35,70.53,27.25,70.44,27.16,70.36C25.13,65.23,25.99,60.86,25.99,60.86L23.65,59.95L23.62,59.95C23.62,54.3,27.8,50.13,27.8,50.13Z" fill="currentColor"/><path d="M65.93,56.98C66.02,56.88,66.08,56.76,66.12,56.64C66.17,56.48,66.05,56.32,65.88,56.32L65.31,56.32C64.96,56.32,64.68,56.6,64.68,56.95L64.68,57.72C64.68,57.95,64.96,58.06,65.12,57.89L65.11,57.9C65.39,57.59,65.67,57.29,65.93,56.98Z" fill="currentColor"/><path d="M56.26,44.47L52.37,42.67L53.53,44.35L53.54,44.34C54.19,45.27,55.54,45.33,56.26,44.47Z" fill="currentColor"/><path d="M62.53,70.78C61.99,65.78,55.83,61.96,53.15,60.56C43.31,55.42,47.46,51.28,47.46,51.28C49.76,56.5,58.03,57.46,58.03,57.47C58.14,59.17,59.57,60.53,61.3,60.53L63.28,60.53C63.89,60.53,64.48,60.28,64.9,59.84L66.04,58.6L61.57,58.6C60.71,58.6,60.01,57.9,60.01,57.04C60.01,56.25,59.42,55.59,58.64,55.5C46.55,54.05,48.51,45.56,48.51,45.56C47.64,47.05,47.26,48.36,47.22,49.52C46.57,49.89,44.06,51.52,44.06,54.93C44.06,61.63,51.84,65.51,51.84,72.89C51.84,79.37,45.07,83.88,45.07,83.88C47.31,82.45,54.96,77.41,62.53,70.78Z" fill="currentColor"/><path d="M27.41,70.61C29.84,72.75,32.29,74.73,34.57,76.48C29.58,72.4,24.15,58.64,34.57,51.84C34.57,51.84,26.33,52.67,23.62,59.95L25.96,60.86C25.96,60.86,25.1,65.23,27.13,70.36C27.22,70.44,27.32,70.53,27.41,70.61Z" fill="currentColor"/><path d="M25.6,48.2L27.79,50.12C30.45,47.28,33.23,44.95,38.92,43.74L38.92,43.75C38.92,43.75,31.17,41.77,25.6,48.2Z" fill="currentColor"/><path d="M52.34,37.1C53.07,35.8,53.37,34.01,53.15,32.49L51.71,35.39C51.39,36.04,51.66,36.82,52.32,37.13Z" fill="currentColor"/></svg>