<svg xmlns="http://www.w3.org/2000/svg" viewBox="0 0 90 90"><path d="M45.71,86.7C45.63,86.65,37.77,81.8,29.99,74.96C25.42,70.93,21.77,67.02,19.15,63.32C15.83,58.63,14.15,54.26,14.15,50.34L14.15,9.18L14.66,9.06C14.83,9.02,31.98,5.02,46.06,5.02C60.14,5.02,77.29,9.02,77.46,9.06L77.97,9.18L77.97,50.32C77.97,54.25,76.29,58.61,72.97,63.3C70.35,67,66.7,70.92,62.13,74.94C54.36,81.78,46.49,86.64,46.41,86.68L46.06,86.89L46.06,86.91Z" fill="currentColor"/><path d="M46.06,5.02C31.98,5.02,14.83,9.02,14.66,9.06L14.15,9.18L14.15,12.24L14.66,12.12C14.83,12.08,31.98,8.08,46.06,8.08C60.14,8.08,77.29,12.08,77.46,12.12L77.97,12.24L77.97,9.18L77.46,9.06C77.29,9.02,60.14,5.02,46.06,5.02Z" fill="currentColor" opacity="0.2"/><path d="M28.96,13.68L21.54,13.68L21.54,29.48L26.77,29.48L26.77,25.38L28.96,25.38C31.02,25.38,32.61,24.85,33.74,23.79C34.87,22.73,35.43,21.25,35.43,19.34C35.43,17.54,34.87,16.14,33.74,15.16C32.61,14.18,31.02,13.68,28.96,13.68Z" fill="currentColor"/><path d="M28.69,21.42L26.77,21.42L26.77,17.66L28.69,17.66C29.26,17.66,29.7,17.82,30.01,18.14C30.32,18.46,30.47,18.92,30.47,19.5C30.47,20.08,30.32,20.57,30.01,20.91C29.7,21.25,29.26,21.42,28.69,21.42Z" fill="currentColor"/><path d="M51.03,15.16C49.86,14.18,48.2,13.68,46.05,13.68L38.41,13.68L38.41,29.48L43.64,29.48L43.64,25.38L45.6,25.38L47.49,29.48L53.4,29.48L50.29,24.34C51.96,23.32,52.79,21.65,52.79,19.34C52.79,17.54,52.2,16.14,51.03,15.16Z" fill="currentColor"/><path d="M46.05,21.42L43.64,21.42L43.64,17.66L46.05,17.66C46.62,17.66,47.06,17.82,47.37,18.14C47.68,18.46,47.83,18.92,47.83,19.5C47.83,20.08,47.68,20.57,47.37,20.91C47.06,21.25,46.62,21.42,46.05,21.42Z" fill="currentColor"/><path d="M63.9,13.52C61.39,13.52,59.32,14.28,57.68,15.79C56.04,17.3,55.22,19.23,55.22,21.57C55.22,23.91,56.04,25.88,57.68,27.41C59.32,28.94,61.39,29.71,63.9,29.71C66.41,29.71,68.48,28.94,70.12,27.4C71.76,25.86,72.58,23.92,72.58,21.57C72.58,19.22,71.76,17.32,70.12,15.8C68.48,14.28,66.41,13.52,63.9,13.52Z" fill="currentColor"/><path d="M63.97,25.35C63.07,25.35,62.26,24.99,61.59,24.27C60.92,23.55,60.59,22.65,60.59,21.59C60.59,20.53,60.92,19.64,61.58,18.93C62.24,18.22,63.04,17.87,63.97,17.87C64.9,17.87,65.66,18.22,66.28,18.93C66.9,19.64,67.22,20.52,67.22,21.59C67.22,22.66,66.9,23.55,66.27,24.27C65.64,24.99,64.87,25.35,63.97,25.35Z" fill="currentColor"/><path d="M68.88,5.77C58.72,3.89,50.83,3.49,46,3.49C37.25,3.49,28.74,4.73,23.13,5.77C17.06,6.9,13,8.04,12.96,8.05L12.56,8.16L12.56,49.87C12.51,50.34,12.2,54.68,15.96,61.42C18.22,65.48,21.52,69.59,25.74,73.63C31,78.66,37.75,83.61,45.78,88.33L46.05,88.49L46.32,88.34C46.4,88.29,54.56,83.72,62.66,76.72C67.43,72.6,71.25,68.45,74.02,64.4C77.51,59.29,79.34,54.3,79.44,49.57L79.44,8.17L79.04,8.06L79.06,8.05C79.06,8.05,74.95,6.9,68.88,5.77Z" fill="currentColor"/><path d="M46.06,84.89C44.15,83.67,37.59,79.35,31.13,73.66C26.66,69.72,23.1,65.9,20.55,62.31C17.44,57.92,15.86,53.88,15.86,50.32L15.86,10.55C19.4,9.77,33.92,6.74,46.06,6.74C58.2,6.74,72.72,9.77,76.26,10.55L76.26,50.33C76.26,53.9,74.68,57.93,71.57,62.32C69.02,65.91,65.47,69.73,60.99,73.67L60.99,73.66C54.53,79.34,47.96,83.67,46.06,84.89Z" fill="currentColor"/><path d="M63.91,14.42C61.62,14.42,59.78,15.08,58.29,16.45C57.68,17.02,57.19,17.64,56.84,18.33C56.61,18.79,56.94,19.33,57.45,19.33L59.82,19.33C60.06,19.33,60.28,19.21,60.4,19C60.55,18.76,60.73,18.53,60.93,18.32C61.76,17.43,62.79,16.98,63.97,16.98C65.15,16.98,66.15,17.44,66.95,18.34C67.13,18.55,67.29,18.76,67.43,18.99C67.55,19.2,67.78,19.32,68.02,19.32L70.35,19.32C70.86,19.32,71.2,18.78,70.96,18.32C70.61,17.64,70.13,17.01,69.52,16.45L69.52,16.46C68.04,15.09,66.2,14.42,63.91,14.42Z" fill="currentColor"/><path d="M46.04,14.57L39.29,14.57L39.29,18.64C39.29,19.02,39.6,19.33,39.98,19.33L42.05,19.33C42.43,19.33,42.74,19.02,42.74,18.64L42.74,16.75L46.05,16.75C46.87,16.75,47.53,17.01,48.02,17.51C48.34,17.85,48.56,18.27,48.66,18.77C48.73,19.09,49.01,19.32,49.33,19.32L51.17,19.32C51.58,19.32,51.9,18.96,51.85,18.56C51.71,17.4,51.25,16.5,50.45,15.83L50.45,15.84C49.45,15,47.97,14.57,46.04,14.57Z" fill="currentColor"/><path d="M28.96,14.57L22.44,14.57L22.44,18.64C22.44,19.02,22.75,19.33,23.13,19.33L25.2,19.33C25.58,19.33,25.89,19.02,25.89,18.64L25.89,16.75L28.7,16.75C29.52,16.75,30.18,17.01,30.67,17.51C30.99,17.85,31.21,18.27,31.31,18.77C31.38,19.09,31.66,19.32,31.98,19.32L33.82,19.32C34.23,19.32,34.55,18.97,34.5,18.56C34.37,17.39,33.93,16.49,33.16,15.82L33.15,15.83C32.2,15,30.79,14.57,28.96,14.57Z" fill="currentColor"/><path d="M28.8,51.13L26.61,49.21C29.06,43.12,35.97,38.63,43.52,37.21C47.39,36.48,51.07,34.97,54.29,32.71L54.54,32.53C55.06,34.3,54.8,36.68,53.85,38.38L56.99,40.83C58.42,41.95,59.26,43.66,59.26,45.47L67.74,56.36C68.35,57.14,68.3,58.25,67.63,58.98L65.92,60.84C65.5,61.28,64.91,61.53,64.3,61.53L62.32,61.53C60.59,61.53,59.16,60.17,59.05,58.47C59.05,58.46,50.78,57.5,48.48,52.28C48.48,52.28,44.33,56.43,54.17,61.56C56.84,62.96,63.01,66.78,63.55,71.78C55.98,78.42,48.32,83.45,46.09,84.88C43.84,83.44,36.07,78.33,28.44,71.61C28.35,71.53,28.25,71.44,28.16,71.36C26.13,66.23,26.99,61.86,26.99,61.86L24.65,60.95L24.62,60.95C24.62,55.3,28.8,51.13,28.8,51.13Z" fill="currentColor"/><path d="M66.93,57.98C67.02,57.88,67.08,57.76,67.12,57.64C67.17,57.48,67.05,57.32,66.88,57.32L66.31,57.32C65.96,57.32,65.68,57.6,65.68,57.95L65.68,58.72C65.68,58.95,65.96,59.06,66.12,58.89L66.11,58.9C66.39,58.59,66.67,58.29,66.93,57.98Z" fill="currentColor"/><path d="M57.26,45.47L53.37,43.67L54.53,45.35L54.54,45.34C55.19,46.27,56.54,46.33,57.26,45.47Z" fill="currentColor"/><path d="M63.53,71.78C62.99,66.78,56.83,62.96,54.15,61.56C44.31,56.42,48.46,52.28,48.46,52.28C50.76,57.5,59.03,58.46,59.03,58.47C59.14,60.17,60.57,61.53,62.3,61.53L64.28,61.53C64.89,61.53,65.48,61.28,65.9,60.84L67.04,59.6L62.57,59.6C61.71,59.6,61.01,58.9,61.01,58.04C61.01,57.25,60.42,56.59,59.64,56.5C47.55,55.05,49.51,46.56,49.51,46.56C48.64,48.05,48.26,49.36,48.22,50.52C47.57,50.89,45.06,52.52,45.06,55.93C45.06,62.63,52.84,66.51,52.84,73.89C52.84,80.37,46.07,84.88,46.07,84.88C48.31,83.45,55.96,78.41,63.53,71.78Z" fill="currentColor"/><path d="M28.41,71.61C30.84,73.75,33.29,75.73,35.57,77.48C30.58,73.4,25.15,59.64,35.57,52.84C35.57,52.84,27.33,53.67,24.62,60.95L26.96,61.86C26.96,61.86,26.1,66.23,28.13,71.36C28.22,71.44,28.32,71.53,28.41,71.61Z" fill="currentColor"/><path d="M26.6,49.2L28.79,51.12C31.45,48.28,34.23,45.95,39.92,44.74L39.92,44.75C39.92,44.75,32.17,42.77,26.6,49.2Z" fill="currentColor"/><path d="M53.34,38.1C54.07,36.8,54.37,35.01,54.15,33.49L52.71,36.39C52.39,37.04,52.66,37.82,53.32,38.13Z" fill="currentColor"/></svg>