<svg xmlns="http://www.w3.org/2000/svg" viewBox="0 0 90 90"><path d="M67.88,32.19L75.33,32.19C79.8,32.19,85,29.26,85,24.27L85,15.1L67.88,15.1Z" fill="currentColor"/><path d="M29.5,29.26C29.5,32.06,32.13,32.66,34.33,32.66C39.33,32.66,45.24,36.06,45.24,41.61L46.24,41.61L46.24,20.09L29.5,20.09Z" fill="currentColor"/><path d="M5,40.97L44.97,50.97L84.93,40.97L84.93,50.04C84.93,51.52,84.24,53,82.86,54.13L49.9,81.13C48.52,82.26,46.71,82.83,44.9,82.83C43.09,82.83,41.28,82.26,39.9,81.13L7.07,54.23C5.69,53.1,5,51.62,5,50.14Z" fill="currentColor"/><path d="M79.66,41.85L52.36,69.14C48.78,72.72,47.1,77.6,47.52,82.42C48.38,82.13,49.2,81.7,49.9,81.13L82.86,54.13C84.24,53,84.93,51.52,84.93,50.04L84.93,40.87C84.93,40.87,84.06,40.39,82.99,40.01C81.78,40.28,80.62,40.88,79.66,41.85Z" fill="currentColor"/><path d="M84.97,15.74C84.45,21.05,78.83,22.98,74.24,22.98C71.81,22.98,69.42,25.77,71.83,27.73L82.85,36.76C84.23,37.89,84.92,39.33,84.92,40.97C84.92,42.61,84.23,43.82,82.85,44.95L49.89,71.95C48.51,73.08,46.7,73.65,44.89,73.65C43.08,73.65,41.27,73.08,39.89,71.95L7.07,45.06C5.77,43.99,5.01,42.56,5.01,40.97C5.01,39.38,5.61,38.06,7.07,36.87L15.58,29.89C18.88,27.18,23.59,29.52,23.59,32.03C23.59,37.72,29.45,41.22,34.52,41.22C39.62,41.22,45.54,37.76,45.23,32.03C44.94,26.65,39.2,23.48,34.33,23.48C32.16,23.48,29.53,21.98,29.5,20C29.5,19.24,29.55,18.46,30.54,17.64L40.02,9.87C42.78,7.61,47.26,7.61,50.02,9.87L59.89,17.95C61.76,19.48,66.03,18.72,65.69,15.74C65.17,10.45,70.65,7.17,75.33,7.17L75.33,7.18C80,7.18,85.49,10.45,84.97,15.74Z" fill="currentColor"/><path d="M49.89,71.95C48.51,73.08,46.7,73.65,44.89,73.65C43.08,73.65,41.27,73.08,39.89,71.95L21.83,57.16L40.17,67.49C43.44,69.34,47.47,69.19,50.6,67.12L77.79,49.09Z" fill="currentColor"/><path d="M82.85,36.76C84.23,37.89,84.92,39.33,84.92,40.97C84.92,42.61,84.23,43.82,82.85,44.95L49.89,71.95C48.51,73.08,46.7,73.65,44.89,73.65C43.08,73.65,41.27,73.08,39.89,71.95L7.07,45.06C5.77,43.99,5.01,42.56,5.01,40.97C5.01,40.72,5.02,40.47,5.05,40.23L18.97,50.94C30.21,59.58,46.51,55.99,53.07,43.43C56.2,37.45,61.8,33.16,68.39,31.72L74.94,30.28Z" fill="currentColor" opacity="0.5"/><path d="M51.5,12.05C48.16,9.89,43.86,9.92,40.55,12.12L29.52,19.43C29.58,18.85,29.79,18.26,30.54,17.64L40.02,9.87C42.78,7.61,47.26,7.61,50.02,9.87L57.07,15.64Z" fill="currentColor" opacity="0.5"/></svg>