<svg xmlns="http://www.w3.org/2000/svg" viewBox="0 0 90 90"><path d="M43,0L43,11L47,11L47,0Z" fill="currentColor"/><path d="M58.14,13.95L62.28,16.36L67.91,6.71L63.76,4.3Z" fill="currentColor"/><path d="M69.73,23.85L72.12,28L81.81,22.45L79.42,18.29Z" fill="currentColor"/><path d="M22.91,6.71L28.53,16.37L32.67,13.96L27.05,4.3Z" fill="currentColor"/><path d="M18.69,28L21.08,23.85L11.39,18.29L9,22.45Z" fill="currentColor"/><path d="M45.44,90C48.18,90,51.55,90,51.55,84.65L39.33,84.65C39.33,90,42.7,90,45.44,90Z" fill="currentColor"/><path d="M58,72L58,76.56C58,82.82,56.06,86,45.11,86C34.16,86,32,82.89,32,76.56L32,72Z" fill="currentColor"/><path d="M32,72L32,76.56C32,82.61,33.98,85.72,43.72,85.98C41.77,84.03,40.66,81.29,40.82,78.38L41.17,72Z" fill="currentColor"/><path d="M45,15C58.81,15,70,25.61,70,39.99C70,48.19,65.88,54.34,62.47,58.02C59.93,60.77,58,64.25,58,68L32,68C32,64.25,30.07,60.77,27.53,58.02C24.12,54.34,20,48.19,20,39.99C20,25.64,31.2,15,45,15Z" fill="currentColor"/><path d="M20,39.99C20,48.19,24.12,54.34,27.53,58.02C30.07,60.77,32,64.25,32,68L38.5,68L38.5,66.41C38.5,62.65,36.88,59.08,34.05,56.61C21.43,45.59,22.95,27.26,33.85,17.52C25.64,21.49,20,29.8,20,39.99Z" fill="currentColor"/><path d="M51.5,66.41C51.5,62.65,53.12,59.08,55.95,56.61C68.58,45.58,67.05,27.24,56.13,17.5C64.35,21.46,70,29.78,70,39.99C70,48.19,65.88,54.34,62.47,58.02C59.93,60.77,58,64.25,58,68L51.5,68Z" fill="currentColor"/><path d="M45,28C51.63,28,57,32.9,57,40.68C57,43.33,55.76,45.55,54.15,47.3C50.54,51.24,46.89,55.76,46.89,61.1L46.89,68L43.11,68L43.11,61.1C43.11,55.76,39.46,51.24,35.85,47.3C34.24,45.55,33,43.33,33,40.68C33,32.92,38.38,28,45,28Z" fill="currentColor"/><path d="M45,15C58.81,15,70,25.61,70,39.99C65,9.99,25,9.99,20,39.99C20,25.64,31.2,15,45,15Z" fill="currentColor"/><path d="M52,40C52,36.13,48.87,33,45,33C41.13,33,38,36.13,38,40C38,43.87,41.13,47,45,47C48.87,47,52,43.87,52,40Z" fill="currentColor"/><path d="M58,67L58,72C49.38,73.33,40.62,73.33,32,72L32,67C40.62,68.33,49.38,68.33,58,67Z" fill="currentColor"/></svg>