<svg xmlns="http://www.w3.org/2000/svg" viewBox="0 0 90 90"><path d="M68.88,33.19L76.33,33.19C80.8,33.19,86,30.26,86,25.27L86,16.1L68.88,16.1Z" fill="currentColor"/><path d="M30.5,30.26C30.5,33.06,33.13,33.66,35.33,33.66C40.33,33.66,46.24,37.06,46.24,42.61L47.24,42.61L47.24,21.09L30.5,21.09Z" fill="currentColor"/><path d="M6,41.97L45.97,51.97L85.93,41.97L85.93,51.04C85.93,52.52,85.24,54,83.86,55.13L50.9,82.13C49.52,83.26,47.71,83.83,45.9,83.83C44.09,83.83,42.28,83.26,40.9,82.13L8.07,55.23C6.69,54.1,6,52.62,6,51.14Z" fill="currentColor"/><path d="M80.66,42.85L53.36,70.14C49.78,73.72,48.1,78.6,48.52,83.42C49.38,83.13,50.2,82.7,50.9,82.13L83.86,55.13C85.24,54,85.93,52.52,85.93,51.04L85.93,41.87C85.93,41.87,85.06,41.39,83.99,41.01C82.78,41.28,81.62,41.88,80.66,42.85Z" fill="currentColor"/><path d="M85.97,16.74C85.45,22.05,79.83,23.98,75.24,23.98C72.81,23.98,70.42,26.77,72.83,28.73L83.85,37.76C85.23,38.89,85.92,40.33,85.92,41.97C85.92,43.61,85.23,44.82,83.85,45.95L50.89,72.95C49.51,74.08,47.7,74.65,45.89,74.65C44.08,74.65,42.27,74.08,40.89,72.95L8.07,46.06C6.77,44.99,6.01,43.56,6.01,41.97C6.01,40.38,6.61,39.06,8.07,37.87L16.58,30.89C19.88,28.18,24.59,30.52,24.59,33.03C24.59,38.72,30.45,42.22,35.52,42.22C40.62,42.22,46.54,38.76,46.23,33.03C45.94,27.65,40.2,24.48,35.33,24.48C33.16,24.48,30.53,22.98,30.5,21C30.5,20.24,30.55,19.46,31.54,18.64L41.02,10.87C43.78,8.61,48.26,8.61,51.02,10.87L60.89,18.95C62.76,20.48,67.03,19.72,66.69,16.74C66.17,11.45,71.65,8.17,76.33,8.17L76.33,8.18C81,8.18,86.49,11.45,85.97,16.74Z" fill="currentColor"/><path d="M50.89,72.95C49.51,74.08,47.7,74.65,45.89,74.65C44.08,74.65,42.27,74.08,40.89,72.95L22.83,58.16L41.17,68.49C44.44,70.34,48.47,70.19,51.6,68.12L78.79,50.09Z" fill="currentColor"/><path d="M83.85,37.76C85.23,38.89,85.92,40.33,85.92,41.97C85.92,43.61,85.23,44.82,83.85,45.95L50.89,72.95C49.51,74.08,47.7,74.65,45.89,74.65C44.08,74.65,42.27,74.08,40.89,72.95L8.07,46.06C6.77,44.99,6.01,43.56,6.01,41.97C6.01,41.72,6.02,41.47,6.05,41.23L19.97,51.94C31.21,60.58,47.51,56.99,54.07,44.43C57.2,38.45,62.8,34.16,69.39,32.72L75.94,31.28Z" fill="currentColor" opacity="0.5"/><path d="M52.5,13.05C49.16,10.89,44.86,10.92,41.55,13.12L30.52,20.43C30.58,19.85,30.79,19.26,31.54,18.64L41.02,10.87C43.78,8.61,48.26,8.61,51.02,10.87L58.07,16.64Z" fill="currentColor" opacity="0.5"/></svg>