<svg xmlns="http://www.w3.org/2000/svg" viewBox="0 0 90 90"><path d="M69.44,30.64C70.4,32.23,77.07,32.02,77.33,32.02C79.81,32.02,82.28,31.25,84.17,29.7C86.06,28.15,87,26.13,87,24.1L87,14.93C87,14.93,81.67,12.58,79.4,13.47C72.63,16.11,66.74,26.19,69.44,30.64Z" fill="currentColor"/><path d="M31.31,29.09C31.31,31.98,34.13,32.49,36.33,32.49C41.33,32.49,47.24,35.89,47.24,41.44L50.72,41.44L50.72,20.26L31.31,19.92Z" fill="currentColor"/><path d="M43,79.5L84.86,53.96C86.47,52.96,86.93,51.35,86.93,49.87L86.93,40.7L81.6,40.7Z" fill="currentColor"/><path d="M87,14.67C87.23,20.49,81.07,22.81,76.24,22.81C75.37,22.81,74.5,23.08,73.83,23.62C72.5,24.71,72.5,26.48,73.83,27.56L84.85,36.59C87.61,38.85,87.61,42.52,84.85,44.78L43.95,78.87C43.26,79.45,42.21,78.88,42.32,77.98L44.23,63L7.41,84.43C6.46,84.98,5.45,83.83,6.12,82.96L24.59,59L4.6,63.19C3.68,63.38,3.02,62.3,3.63,61.57L17.58,44.78L1.89,44.87C0.95,44.88,0.53,43.7,1.25,43.1L17.58,29.72C20.05,27.7,25.59,28.62,25.59,31.86C25.59,37.55,31.45,41.05,36.52,41.05C41.62,41.05,47.54,37.59,47.23,31.86C46.94,26.48,41.2,23.31,36.33,23.31C34.93,23.31,33.82,23.44,32.63,22.48C30.88,21.04,30.88,18.84,32.54,17.47L42.02,9.7C43.4,8.57,45.21,8,47.02,8C48.83,8,50.64,8.57,52.02,9.7L61.89,17.78C62.55,18.32,63.43,18.6,64.3,18.6C65.17,18.6,66.04,18.33,66.71,17.78C67.45,17.17,67.78,16.36,67.69,15.57C67.17,10.28,72.65,7,77.33,7L77.33,7.01C81.72,7.01,86.8,9.81,87,14.67Z" fill="currentColor"/><path d="M84.85,44.78L43.95,78.87C43.26,79.45,42.21,78.88,42.32,77.98L44.23,63L7.41,84.43C6.46,84.98,5.45,83.83,6.12,82.96L24.59,59L4.6,63.19C3.68,63.38,3.02,62.3,3.63,61.57L17.58,44.78L1.89,44.87C0.95,44.88,0.53,43.7,1.25,43.1L17.58,29.72C20.05,27.7,25.59,28.62,25.59,31.86C25.59,37.55,31.45,41.05,36.52,41.05C41.62,41.05,47.54,37.59,47.23,31.86C46.94,26.48,41.2,23.31,36.33,23.31C36.17,23.31,36.02,23.31,35.87,23.31C34.68,23.33,33.69,23.34,32.63,22.48C31.28,21.37,30.97,19.81,31.66,18.52L41.2,21.07C47.95,22.88,51.52,30.25,48.75,36.67C46.63,41.58,49.82,47.15,55.13,47.79L63,48.75L85.07,44.59C85,44.65,84.93,44.72,84.85,44.78Z" fill="currentColor" opacity="0.4"/><path d="M25.59,31.86C25.59,37.55,31.45,41.05,36.52,41.05C41.62,41.05,47.54,37.59,47.23,31.86C46.94,26.48,41.2,23.31,36.33,23.31C36.17,23.31,36.02,23.31,35.87,23.31C34.68,23.33,33.69,23.34,32.63,22.48C32.01,21.97,31.61,21.36,31.42,20.72L39.92,15.14C48.59,9.44,59.61,17.82,56.42,27.7C54.36,34.09,60.91,39.88,67,37.03L69.85,35.7C74.29,33.63,79.56,34.56,83.02,38.02L86.79,41.79C86.53,42.89,85.89,43.93,84.85,44.78L43.95,78.87C43.26,79.45,42.21,78.88,42.32,77.98L44.23,63L7.41,84.43C6.46,84.98,5.45,83.83,6.12,82.96L24.59,59L4.6,63.19C3.68,63.38,3.02,62.3,3.63,61.57L17.58,44.78L1.89,44.87C0.95,44.88,0.53,43.7,1.25,43.1L13.98,32.67L19.64,28.79C22.28,28.24,25.59,29.36,25.59,31.86Z" fill="currentColor" opacity="0.2"/><path d="M43.95,78.87C43.26,79.45,42.21,78.88,42.32,77.98L44.23,63L7.41,84.43C6.46,84.98,5.45,83.83,6.12,82.96L24.59,59L4.6,63.19C3.68,63.38,3.02,62.3,3.63,61.57L17.58,44.78L1.89,44.87C0.95,44.88,0.53,43.7,1.25,43.1L17.58,29.72C18.42,29.03,19.61,28.69,20.82,28.66C20.02,38.04,26.63,47.27,37,48.5L48,50.83C51.14,51.5,53.28,54.41,52.99,57.6C52.77,60.01,55.23,61.77,57.44,60.77L75.36,52.69Z" fill="currentColor"/><path d="M43.95,78.87C43.26,79.45,42.21,78.88,42.32,77.98L44.23,63L7.41,84.43C6.46,84.98,5.45,83.83,6.12,82.96L24.59,59L4.6,63.19C3.68,63.38,3.02,62.3,3.63,61.57L17.58,44.78L1.89,44.87C0.95,44.88,0.53,43.7,1.25,43.1L12.94,33.52L12.23,38.59C12.1,39.55,12.67,40.47,13.6,40.77L18.74,42.43C19.73,42.75,20.31,43.78,20.07,44.8L18.37,51.91C18.06,53.2,19.08,54.44,20.41,54.37L26.24,54.09C27.24,54.04,28.13,54.75,28.3,55.74L29.35,61.7C29.56,62.91,30.8,63.65,31.96,63.25L45.43,58.7C46.54,58.32,47.74,58.98,48.02,60.12L49.31,65.42C49.56,66.45,50.56,67.1,51.6,66.92L60.14,65.38Z" fill="currentColor"/></svg>