<svg xmlns="http://www.w3.org/2000/svg" viewBox="0 0 90 90"><path d="M70.44,31.64C71.4,33.23,78.07,33.02,78.33,33.02C80.81,33.02,83.28,32.25,85.17,30.7C87.06,29.15,88,27.13,88,25.1L88,15.93C88,15.93,82.67,13.58,80.4,14.47C73.63,17.11,67.74,27.19,70.44,31.64Z" fill="currentColor"/><path d="M32.31,30.09C32.31,32.98,35.13,33.49,37.33,33.49C42.33,33.49,48.24,36.89,48.24,42.44L51.72,42.44L51.72,21.26L32.31,20.92Z" fill="currentColor"/><path d="M44,80.5L85.86,54.96C87.47,53.96,87.93,52.35,87.93,50.87L87.93,41.7L82.6,41.7Z" fill="currentColor"/><path d="M88,15.67C88.23,21.49,82.07,23.81,77.24,23.81C76.37,23.81,75.5,24.08,74.83,24.62C73.5,25.71,73.5,27.48,74.83,28.56L85.85,37.59C88.61,39.85,88.61,43.52,85.85,45.78L44.95,79.87C44.26,80.45,43.21,79.88,43.32,78.98L45.23,64L8.41,85.43C7.46,85.98,6.45,84.83,7.12,83.96L25.59,60L5.6,64.19C4.68,64.38,4.02,63.3,4.63,62.57L18.58,45.78L2.89,45.87C1.95,45.88,1.53,44.7,2.25,44.1L18.58,30.72C21.05,28.7,26.59,29.62,26.59,32.86C26.59,38.55,32.45,42.05,37.52,42.05C42.62,42.05,48.54,38.59,48.23,32.86C47.94,27.48,42.2,24.31,37.33,24.31C35.93,24.31,34.82,24.44,33.63,23.48C31.88,22.04,31.88,19.84,33.54,18.47L43.02,10.7C44.4,9.57,46.21,9,48.02,9C49.83,9,51.64,9.57,53.02,10.7L62.89,18.78C63.55,19.32,64.43,19.6,65.3,19.6C66.17,19.6,67.04,19.33,67.71,18.78C68.45,18.17,68.78,17.36,68.69,16.57C68.17,11.28,73.65,8,78.33,8L78.33,8.01C82.72,8.01,87.8,10.81,88,15.67Z" fill="currentColor"/><path d="M85.85,45.78L44.95,79.87C44.26,80.45,43.21,79.88,43.32,78.98L45.23,64L8.41,85.43C7.46,85.98,6.45,84.83,7.12,83.96L25.59,60L5.6,64.19C4.68,64.38,4.02,63.3,4.63,62.57L18.58,45.78L2.89,45.87C1.95,45.88,1.53,44.7,2.25,44.1L18.58,30.72C21.05,28.7,26.59,29.62,26.59,32.86C26.59,38.55,32.45,42.05,37.52,42.05C42.62,42.05,48.54,38.59,48.23,32.86C47.94,27.48,42.2,24.31,37.33,24.31C37.17,24.31,37.02,24.31,36.87,24.31C35.68,24.33,34.69,24.34,33.63,23.48C32.28,22.37,31.97,20.81,32.66,19.52L42.2,22.07C48.95,23.88,52.52,31.25,49.75,37.67C47.63,42.58,50.82,48.15,56.13,48.79L64,49.75L86.07,45.59C86,45.65,85.93,45.72,85.85,45.78Z" fill="currentColor" opacity="0.4"/><path d="M26.59,32.86C26.59,38.55,32.45,42.05,37.52,42.05C42.62,42.05,48.54,38.59,48.23,32.86C47.94,27.48,42.2,24.31,37.33,24.31C37.17,24.31,37.02,24.31,36.87,24.31C35.68,24.33,34.69,24.34,33.63,23.48C33.01,22.97,32.61,22.36,32.42,21.72L40.92,16.14C49.59,10.44,60.61,18.82,57.42,28.7C55.36,35.09,61.91,40.88,68,38.03L70.85,36.7C75.29,34.63,80.56,35.56,84.02,39.02L87.79,42.79C87.53,43.89,86.89,44.93,85.85,45.78L44.95,79.87C44.26,80.45,43.21,79.88,43.32,78.98L45.23,64L8.41,85.43C7.46,85.98,6.45,84.83,7.12,83.96L25.59,60L5.6,64.19C4.68,64.38,4.02,63.3,4.63,62.57L18.58,45.78L2.89,45.87C1.95,45.88,1.53,44.7,2.25,44.1L14.98,33.67L20.64,29.79C23.28,29.24,26.59,30.36,26.59,32.86Z" fill="currentColor" opacity="0.2"/><path d="M44.95,79.87C44.26,80.45,43.21,79.88,43.32,78.98L45.23,64L8.41,85.43C7.46,85.98,6.45,84.83,7.12,83.96L25.59,60L5.6,64.19C4.68,64.38,4.02,63.3,4.63,62.57L18.58,45.78L2.89,45.87C1.95,45.88,1.53,44.7,2.25,44.1L18.58,30.72C19.42,30.03,20.61,29.69,21.82,29.66C21.02,39.04,27.63,48.27,38,49.5L49,51.83C52.14,52.5,54.28,55.41,53.99,58.6C53.77,61.01,56.23,62.77,58.44,61.77L76.36,53.69Z" fill="currentColor"/><path d="M44.95,79.87C44.26,80.45,43.21,79.88,43.32,78.98L45.23,64L8.41,85.43C7.46,85.98,6.45,84.83,7.12,83.96L25.59,60L5.6,64.19C4.68,64.38,4.02,63.3,4.63,62.57L18.58,45.78L2.89,45.87C1.95,45.88,1.53,44.7,2.25,44.1L13.94,34.52L13.23,39.59C13.1,40.55,13.67,41.47,14.6,41.77L19.74,43.43C20.73,43.75,21.31,44.78,21.07,45.8L19.37,52.91C19.06,54.2,20.08,55.44,21.41,55.37L27.24,55.09C28.24,55.04,29.13,55.75,29.3,56.74L30.35,62.7C30.56,63.91,31.8,64.65,32.96,64.25L46.43,59.7C47.54,59.32,48.74,59.98,49.02,61.12L50.31,66.42C50.56,67.45,51.56,68.1,52.6,67.92L61.14,66.38Z" fill="currentColor"/></svg>