<svg xmlns="http://www.w3.org/2000/svg" viewBox="0 0 90 90" fill="currentColor"><path d="M44,1L44,12L48,12L48,1ZM59.14,14.95L63.28,17.36L68.91,7.71L64.76,5.3ZM70.73,24.85L73.12,29L82.81,23.45L80.42,19.29ZM23.91,7.71L29.53,17.37L33.67,14.96L28.05,5.3ZM19.69,29L22.08,24.85L12.39,19.29L10,23.45ZM46.44,91C49.18,91,52.55,91,52.55,85.65L40.33,85.65C40.33,91,43.7,91,46.44,91ZM59,73L59,77.56C59,83.82,57.06,87,46.11,87C35.16,87,33,83.89,33,77.56L33,73ZM33,73L33,77.56C33,83.61,34.98,86.72,44.72,86.98C42.77,85.03,41.66,82.29,41.82,79.38L42.17,73ZM46,16C59.81,16,71,26.61,71,40.99C71,49.19,66.88,55.34,63.47,59.02C60.93,61.77,59,65.25,59,69L33,69C33,65.25,31.07,61.77,28.53,59.02C25.12,55.34,21,49.19,21,40.99C21,26.64,32.2,16,46,16ZM21,40.99C21,49.19,25.12,55.34,28.53,59.02C31.07,61.77,33,65.25,33,69L39.5,69L39.5,67.41C39.5,63.65,37.88,60.08,35.05,57.61C22.43,46.59,23.95,28.26,34.85,18.52C26.64,22.49,21,30.8,21,40.99ZM52.5,67.41C52.5,63.65,54.12,60.08,56.95,57.61C69.58,46.58,68.05,28.24,57.13,18.5C65.35,22.46,71,30.78,71,40.99C71,49.19,66.88,55.34,63.47,59.02C60.93,61.77,59,65.25,59,69L52.5,69ZM46,29C52.63,29,58,33.9,58,41.68C58,44.33,56.76,46.55,55.15,48.3C51.54,52.24,47.89,56.76,47.89,62.1L47.89,69L44.11,69L44.11,62.1C44.11,56.76,40.46,52.24,36.85,48.3C35.24,46.55,34,44.33,34,41.68C34,33.92,39.38,29,46,29ZM46,16C59.81,16,71,26.61,71,40.99C66,10.99,26,10.99,21,40.99C21,26.64,32.2,16,46,16ZM53,41C53,37.13,49.87,34,46,34C42.13,34,39,37.13,39,41C39,44.87,42.13,48,46,48C49.87,48,53,44.87,53,41ZM59,68L59,73C50.38,74.33,41.62,74.33,33,73L33,68C41.62,69.33,50.38,69.33,59,68Z"/></svg>