<svg xmlns="http://www.w3.org/2000/svg" viewBox="0 0 90 90"><path d="M41,40L25,40L25,48L41,48Z" fill="currentColor"/><path d="M41,48L25,48C25,60.56,16.15,68,5,68L5,84C24.12,84,41,70.25,41,48Z" fill="currentColor"/><path d="M8,14C6.34,14,5,15.34,5,17L5,45C5,46.66,6.34,48,8,48L38,48C39.66,48,41,46.66,41,45L41,17C41,15.34,39.66,14,38,14Z" fill="currentColor"/><path d="M8,10C6.34,10,5,11.34,5,13L5,41C5,42.66,6.34,44,8,44L38,44C39.66,44,41,42.66,41,41L41,13C41,11.34,39.66,10,38,10Z" fill="currentColor"/><path d="M5,13C5,11.34,6.34,10,8,10L35,10L12.22,11.14C9.29,11.29,6.9,13.54,6.56,16.45L5,30Z" fill="currentColor"/><path d="M41,36L25,36L25,44L41,44Z" fill="currentColor"/><path d="M41,44L25,44C25,56.56,16.15,64,5,64L5,80C24.12,80,41,66.25,41,44Z" fill="currentColor"/><path d="M85,40L69,40L69,48L85,48Z" fill="currentColor"/><path d="M85,48L69,48C69,61.12,60.51,68,51,68L51,84C69.6,84,85,69.7,85,48Z" fill="currentColor"/><path d="M52,14C50.34,14,49,15.34,49,17L49,45C49,46.66,50.34,48,52,48L82,48C83.66,48,85,46.66,85,45L85,17C85,15.34,83.66,14,82,14Z" fill="currentColor"/><path d="M52,10C50.34,10,49,11.34,49,13L49,41C49,42.66,50.34,44,52,44L82,44C83.66,44,85,42.66,85,41L85,13C85,11.34,83.66,10,82,10Z" fill="currentColor"/><path d="M49,13C49,11.34,50.34,10,52,10L79,10L56.22,11.14C53.29,11.29,50.9,13.54,50.56,16.45L49,30Z" fill="currentColor"/><path d="M85,36L69,36L69,44L85,44Z" fill="currentColor"/><path d="M85,44L69,44C69,57.12,60.51,64,51,64L51,80C69.6,80,85,65.7,85,44Z" fill="currentColor"/></svg>