<svg xmlns="http://www.w3.org/2000/svg" viewBox="0 0 90 90" fill="currentColor"><path d="M42,55L26,55L26,47L42,47ZM42,47L26,47C26,34.44,17.15,27,6,27L6,11C25.12,11,42,24.75,42,47ZM9,81C7.34,81,6,79.66,6,78L6,50C6,48.34,7.34,47,9,47L39,47C40.66,47,42,48.34,42,50L42,78C42,79.66,40.66,81,39,81ZM9,85C7.34,85,6,83.66,6,82L6,54C6,52.34,7.34,51,9,51L39,51C40.66,51,42,52.34,42,54L42,82C42,83.66,40.66,85,39,85ZM6,82C6,83.66,7.34,85,9,85L36,85L13.22,83.86C10.29,83.71,7.9,81.46,7.56,78.55L6,65ZM42,59L26,59L26,51L42,51ZM42,51L26,51C26,38.44,17.15,31,6,31L6,15C25.12,15,42,28.75,42,51ZM86,55L70,55L70,47L86,47ZM86,47L70,47C70,33.88,61.51,27,52,27L52,11C70.6,11,86,25.3,86,47ZM53,81C51.34,81,50,79.66,50,78L50,50C50,48.34,51.34,47,53,47L83,47C84.66,47,86,48.34,86,50L86,78C86,79.66,84.66,81,83,81ZM53,85C51.34,85,50,83.66,50,82L50,54C50,52.34,51.34,51,53,51L83,51C84.66,51,86,52.34,86,54L86,82C86,83.66,84.66,85,83,85ZM50,82C50,83.66,51.34,85,53,85L80,85L57.22,83.86C54.29,83.71,51.9,81.46,51.56,78.55L50,65ZM86,59L70,59L70,51L86,51ZM86,51L70,51C70,37.88,61.51,31,52,31L52,15C70.6,15,86,29.3,86,51Z"/></svg>