<svg xmlns="http://www.w3.org/2000/svg" viewBox="0 0 90 90" fill="currentColor"><path d="M6.33,84.49C2.41,84.49,0.01,80.18,2.08,76.85L40.65,14.78C42.99,11.01,48.46,11,50.82,14.75L89.85,76.83C91.94,80.16,89.55,84.49,85.62,84.49ZM6.33,84.49C2.41,84.49,0.01,80.19,2.08,76.85L33.62,26.09L6.91,75.22C5.54,77.75,7.19,80.85,10.04,81.12L45.71,84.49ZM31,57.49L61,57.49C62.1,57.49,63,56.6,63,55.49L63,49.49C63,48.39,62.1,47.49,61,47.49L31,47.49C29.9,47.49,29,48.39,29,49.49L29,55.49C29,56.6,29.9,57.49,31,57.49ZM31,60.49L61,60.49C62.1,60.49,63,59.6,63,58.49L63,52.49C63,51.39,62.1,50.49,61,50.49L31,50.49C29.9,50.49,29,51.39,29,52.49L29,58.49C29,59.6,29.9,60.49,31,60.49ZM31,60.49L57,60.49L31.64,59.67C30.66,59.63,29.85,58.9,29.72,57.93L29,52.49L29,58.49C29,59.6,29.9,60.49,31,60.49Z"/></svg>