<svg xmlns="http://www.w3.org/2000/svg" viewBox="0 0 90 90" fill="currentColor"><path d="M5,2.16L23,2.16C25.21,2.16,27,3.95,27,6.16L27,27.16L1,27.16L1,6.16C1,3.95,2.79,2.16,5,2.16ZM1,28.16C1,30.37,2.79,32.16,5,32.16L23,32.16C25.21,32.16,27,30.37,27,28.16L27,27.16L1,27.16ZM1.01,27.16L27,27.16L16.83,27.09C8.45,27.04,1.54,20.52,1,12.16L1.01,12.16ZM33,38.16C33,40.37,34.79,42.16,37,42.16L55,42.16C57.21,42.16,59,40.37,59,38.16L59,37.16L33,37.16ZM55,2.16L37,2.16C34.79,2.16,33,3.95,33,6.16L33,37.16L59,37.16L59,6.16C59,3.95,57.21,2.16,55,2.16ZM33.01,37.16L59,37.16L52.78,37.11C42.21,37.02,33.54,28.72,33,18.16L33.01,18.16ZM65,78.16C65,80.37,66.79,82.16,69,82.16L87,82.16C89.21,82.16,91,80.37,91,78.16L91,77.16L65,77.16ZM65,77.16L65,6.16C65,3.95,66.79,2.16,69,2.16L87,2.16C89.21,2.16,91,3.95,91,6.16L91,77.16ZM65.01,77.16L91,77.16C77,76.94,65.66,65.73,65.29,51.74L65,41.17L65.01,41.16ZM53.12,74.75C56.4,78.03,56.4,79.34,53.12,82.63C49.74,86,48.43,86,45.15,82.63L20.62,58.09L11.43,67.28C8.15,70.56,6.84,70.56,3.46,67.28C0.18,63.91,0.18,62.59,3.46,59.31L17.52,45.16C19.77,43,21.27,42.91,23.52,45.16ZM5.24,66C6.4,67.21,8.33,67.23,9.52,66.06L20.68,55.03L47.47,81.48C48.54,82.54,50.22,82.64,51.41,81.71L55.57,78.49C55.67,79.71,54.85,80.89,53.12,82.63C49.74,86,48.43,86,45.15,82.63L20.62,58.09L11.43,67.28C8.15,70.56,6.84,70.56,3.46,67.28C1.2,64.96,0.5,63.61,1.35,61.93ZM59,37.16L57.83,7.43C57.75,5.28,55.98,3.58,53.84,3.58L38.21,3.58C36.06,3.58,34.3,5.28,34.21,7.42L33,37.16L33,6.16C33,3.95,34.79,2.16,37,2.16L55,2.16C57.21,2.16,59,3.95,59,6.16ZM91,37.16L89.83,7.43C89.75,5.28,87.98,3.58,85.84,3.58L70.21,3.58C68.06,3.58,66.3,5.28,66.21,7.42L65,37.16L65,6.16C65,3.95,66.79,2.16,69,2.16L87,2.16C89.21,2.16,91,3.95,91,6.16ZM27,27.16L25.89,6.96C25.77,4.84,24.02,3.18,21.9,3.18L6.09,3.18C3.99,3.18,2.25,4.8,2.1,6.89L1,22.05L1,6.16C1,3.95,2.79,2.16,5,2.16L23,2.16C25.21,2.16,27,3.95,27,6.16Z"/></svg>