<svg xmlns="http://www.w3.org/2000/svg" viewBox="0 0 90 90" fill="currentColor"><path d="M5,86L23,86C25.21,86,27,84.21,27,82L27,61L1,61L1,82C1,84.21,2.79,86,5,86ZM1,60C1,57.79,2.79,56,5,56L23,56C25.21,56,27,57.79,27,60L27,61L1,61ZM1.01,61L27,61L23.74,61.03C11.53,61.14,1.54,70.79,1,82.99L1.01,83ZM37,86L55,86C57.21,86,59,84.21,59,82L59,61L33,61L33,82C33,84.21,34.79,86,37,86ZM33,60C33,57.79,34.79,56,37,56L55,56C57.21,56,59,57.79,59,60L59,61L33,61ZM33.01,61L59,61L55.74,61.03C43.53,61.14,33.54,70.79,33,82.99L33.01,83ZM69,86L87,86C89.21,86,91,84.21,91,82L91,61L65,61L65,82C65,84.21,66.79,86,69,86ZM65,60C65,57.79,66.79,56,69,56L87,56C89.21,56,91,57.79,91,60L91,61L65,61ZM65.01,61L91,61L87.74,61.03C75.53,61.14,65.54,70.79,65,82.99L65.01,83ZM27,71L26.02,81.36C25.83,83.41,24.11,84.98,22.04,84.98L5.8,84.98C3.83,84.98,2.15,83.54,1.85,81.59L1,76.1L1,82C1,84.21,2.79,86,5,86L23,86C25.21,86,27,84.21,27,82ZM59,71L58.02,81.36C57.83,83.41,56.11,84.98,54.04,84.98L37.8,84.98C35.83,84.98,34.15,83.54,33.85,81.59L33,76.1L33,82C33,84.21,34.79,86,37,86L55,86C57.21,86,59,84.21,59,82ZM91,71L90.02,81.36C89.83,83.41,88.11,84.98,86.04,84.98L69.8,84.98C67.83,84.98,66.15,83.54,65.85,81.59L65,76.1L65,82C65,84.21,66.79,86,69,86L87,86C89.21,86,91,84.21,91,82ZM59.28,45.36L46.2,32.28L33.12,45.36C31.95,46.54,30.05,46.54,28.88,45.36L24.64,41.12C23.46,39.95,23.46,38.05,24.64,36.88L37.72,23.8L24.64,10.72C23.46,9.54,23.46,7.64,24.64,6.47L28.88,2.23C30.05,1.06,31.95,1.06,33.12,2.23L46.2,15.31L59.28,2.23C60.46,1.06,62.36,1.06,63.53,2.23L67.77,6.47C68.94,7.64,68.94,9.54,67.77,10.72L54.69,23.8L67.77,36.88C68.94,38.05,68.94,39.95,67.77,41.12L63.53,45.36C62.35,46.54,60.46,46.54,59.28,45.36ZM29.71,2.41L26.76,4.35L28.88,2.23C30.05,1.06,31.95,1.06,33.12,2.23L45.86,14.97L32.15,2.6C31.47,1.99,30.47,1.91,29.71,2.41ZM62.7,2.41L65.65,4.35L63.53,2.23C62.36,1.06,60.46,1.06,59.28,2.23L46.54,14.97L60.26,2.6C60.93,1.99,61.94,1.91,62.7,2.41Z"/></svg>