<svg xmlns="http://www.w3.org/2000/svg" viewBox="0 0 90 90"><path d="M13.65,6C8.87,6,5,9.88,5,14.65L5,76.35C5,81.13,8.87,85,13.65,85L76.35,85C81.13,85,85,81.13,85,76.35L85,14.65C85,9.88,81.13,6,76.35,6Z" fill="#312E2B"/><path d="M13.65,5C8.87,5,5,8.87,5,13.65L5,76.35C5,81.13,8.87,85,13.65,85L76.35,85C81.13,85,85,81.13,85,76.35L85,13.65C85,8.87,81.13,5,76.35,5Z" fill="#4B4847"/><path d="M13.65,47C8.87,47,5,50.87,5,55.65L5,76.35C5,81.13,8.87,85,13.65,85L76.35,85C81.13,85,85,81.13,85,76.35L85,55.65C85,50.87,81.13,47,76.35,47Z" fill="#0B548C"/><path d="M13.65,81L76.35,81C81.13,81,85,77.13,85,72.35L85,16.24C85,13.22,81.98,11.13,79.15,12.19L7.81,38.95C6.12,39.58,5,41.2,5,43L5,72.35C5,77.13,8.87,81,13.65,81Z" fill="#009FD9"/><path d="M85,72.35C85,77.13,81.13,81,76.35,81L45,81L75.32,78.61C79.7,78.26,83.12,74.69,83.29,70.3L85,24Z" fill="#4DC3EA"/><path d="M5,72.35C5,77.13,8.87,81,13.65,81L45,81L14.75,79.62C10.34,79.42,6.79,75.93,6.5,71.52L5,48Z" fill="#4DC3EA"/><path d="M5,13.65C5,8.87,8.87,5,13.65,5L65,5L15.76,7.59C11.34,7.82,7.81,11.34,7.57,15.75L5,62Z" fill="#666564"/><path d="M79.92,41.51C77.93,45.72,71.93,45.7,69.97,41.48L66.91,34.92L11.31,60.95C9.19,61.94,6.82,61.69,5,60.5L5,51L85,21L85,30.8Z" fill="#0069AB"/><path d="M28,81L28,50L33,50L33,81Z" fill="#008CD1"/><path d="M57,81L57,36L62,36L62,81Z" fill="#008CD1"/><path d="M28,53.14L28,43L33,43L33,50.8Z" fill="#0B548C"/><path d="M57,39.56L57,30L62,30L62,37.22Z" fill="#0B548C"/><path d="M28,85L28,81L33,81L33,85Z" fill="#083A66"/><path d="M57,85L57,81L62,81L62,85Z" fill="#083A66"/><path d="M59.94,0.22L86.36,6.48C89.08,7.12,90.49,10.13,89.23,12.63L77.04,36.89C76.22,38.51,73.91,38.47,73.14,36.84L69.11,28.2L8.76,56.44C7.67,56.95,6.39,56.48,5.88,55.4L0.48,43.81C-0.03,42.73,0.44,41.44,1.53,40.94L61.92,12.77L57.48,3.24C56.71,1.6,58.18,-0.19,59.94,0.22Z" fill="#DAD8D6"/><path d="M59.92,0.21L86.27,6.36C89,7,90.41,10.03,89.15,12.53L81.96,26.73L88.49,11.4C89.03,10.14,88.27,8.7,86.93,8.43L63.71,3.8C62.29,3.52,61,4.68,61.14,6.13L61.73,12.36L57.47,3.23C56.71,1.59,58.17,-0.2,59.92,0.21Z" fill="#E7E6E5"/><path d="M2.54,45.48L5.52,54.45L0.55,43.8C0.05,42.71,0.51,41.43,1.6,40.92L60.59,13.4L4.18,41.56C2.73,42.28,2.04,43.95,2.54,45.48Z" fill="#E7E6E5"/></svg>