<svg xmlns="http://www.w3.org/2000/svg" viewBox="0 0 90 90" fill="currentColor"><path d="M15.23,49C10.9,49,8.61,54.13,11.51,57.34L39.1,88.01C42.66,91.97,48.86,91.98,52.45,88.05L80.38,57.37C83.31,54.16,81.03,49,76.69,49ZM15.23,49C10.9,49,8.61,54.13,11.51,57.34L35.31,83.8L14.47,57.32C12.47,54.79,14.13,51.07,17.35,50.86L45.75,49ZM15.23,43C10.9,43,8.61,37.87,11.51,34.66L39.1,3.99C42.66,0.03,48.86,0.02,52.45,3.95L80.38,34.63C83.31,37.84,81.03,43,76.69,43ZM15.23,43C10.9,43,8.61,37.87,11.51,34.66L35.31,8.2L14.47,34.68C12.47,37.21,14.13,40.93,17.35,41.14L45.75,43ZM44.05,13.19L47.94,13.19C49.05,13.19,49.94,14.08,49.94,15.19L49.94,38.21C49.94,39.32,49.05,40.21,47.94,40.21L44.05,40.21C42.95,40.21,42.05,39.32,42.05,38.21L42.05,15.19C42.05,14.08,42.95,13.19,44.05,13.19ZM34.02,22.99L57.98,22.99C59.08,22.99,59.98,23.88,59.98,24.99L59.98,28.41C59.98,29.52,59.08,30.41,57.98,30.41L34.02,30.41C32.91,30.41,32.02,29.52,32.02,28.41L32.02,24.99C32.02,23.88,32.91,22.99,34.02,22.99ZM44.05,10.19L47.94,10.19C49.05,10.19,49.94,11.08,49.94,12.19L49.94,35.21C49.94,36.32,49.05,37.21,47.94,37.21L44.05,37.21C42.95,37.21,42.05,36.32,42.05,35.21L42.05,12.19C42.05,11.08,42.95,10.19,44.05,10.19ZM34.02,19.99L57.98,19.99C59.08,19.99,59.98,20.88,59.98,21.99L59.98,25.41C59.98,26.52,59.08,27.41,57.98,27.41L34.02,27.41C32.91,27.41,32.02,26.52,32.02,25.41L32.02,21.99C32.02,20.88,32.91,19.99,34.02,19.99ZM34.02,19.99C32.91,19.99,32.02,20.88,32.02,21.99L32.02,25.41L32.72,22.67C32.94,21.82,33.69,21.21,34.57,21.17L42.72,20.82L42.05,19.99ZM57.98,19.99L49.94,19.99L49.94,20.45ZM44.05,10.19C42.95,10.19,42.05,11.08,42.05,12.19L42.05,19.99L42.72,20.82L43.01,12.73C43.04,11.8,43.71,11.02,44.62,10.84L47.94,10.19ZM42.05,27.41L42.05,37.21L42.43,27.41ZM34.02,64.99L57.98,64.99C59.08,64.99,59.98,65.88,59.98,66.99L59.98,70.41C59.98,71.52,59.08,72.41,57.98,72.41L34.02,72.41C32.91,72.41,32.02,71.52,32.02,70.41L32.02,66.99C32.02,65.88,32.91,64.99,34.02,64.99ZM34.02,61.99L57.98,61.99C59.08,61.99,59.98,62.88,59.98,63.99L59.98,67.41C59.98,68.52,59.08,69.41,57.98,69.41L34.02,69.41C32.91,69.41,32.02,68.52,32.02,67.41L32.02,63.99C32.02,62.88,32.91,61.99,34.02,61.99ZM34.02,61.99L57.98,61.99L34.56,62.65C33.62,62.68,32.83,63.34,32.65,64.26L32.02,67.41L32.02,63.99C32.02,62.88,32.91,61.99,34.02,61.99Z"/></svg>