<svg xmlns="http://www.w3.org/2000/svg" viewBox="0 0 90 90"><path d="M4,85L22,85C24.21,85,26,83.21,26,81L26,49L0,49L0,81C0,83.21,1.79,85,4,85Z" fill="#008CD1"/><path d="M0,48C0,45.79,1.79,44,4,44L22,44C24.21,44,26,45.79,26,48L26,49L0,49Z" fill="#4DC3EA"/><path d="M0.01,49L26,49C12,49.21,0.66,60.42,0.29,74.41L0,84.99L0.01,85Z" fill="#009FD9"/><path d="M54,85L36,85C33.79,85,32,83.21,32,81L32,31L58,31L58,81C58,83.21,56.21,85,54,85Z" fill="#008CD1"/><path d="M32,30C32,27.79,33.79,26,36,26L54,26C56.21,26,58,27.79,58,30L58,31L32,31Z" fill="#4DC3EA"/><path d="M32.01,31L58,31C44,31.21,32.66,42.42,32.29,56.41L32,66.99L32.01,67Z" fill="#009FD9"/><path d="M64,10L64,81C64,83.21,65.79,85,68,85L86,85C88.21,85,90,83.21,90,81L90,10Z" fill="#008CD1"/><path d="M64,9C64,6.79,65.79,5,68,5L86,5C88.21,5,90,6.79,90,9L90,10L64,10Z" fill="#4DC3EA"/><path d="M64.01,10L90,10C76,10.21,64.66,21.42,64.29,35.41L64,45.99L64.01,46Z" fill="#009FD9"/><path d="M58,50L56.83,79.73C56.75,81.87,54.98,83.57,52.84,83.57L37.21,83.57C35.06,83.57,33.3,81.88,33.21,79.73L32,50L32,81C32,83.21,33.79,85,36,85L54,85C56.21,85,58,83.21,58,81Z" fill="#009FD9"/><path d="M90,50L88.83,79.73C88.75,81.87,86.98,83.57,84.84,83.57L69.21,83.57C67.06,83.57,65.3,81.88,65.21,79.73L64,50L64,81C64,83.21,65.79,85,68,85L86,85C88.21,85,90,83.21,90,81Z" fill="#009FD9"/><path d="M26,60L24.89,80.2C24.77,82.32,23.02,83.98,20.9,83.98L5.09,83.98C2.99,83.98,1.25,82.36,1.1,80.27L0,65.1L0,81C0,83.21,1.79,85,4,85L22,85C24.21,85,26,83.21,26,81Z" fill="#009FD9"/></svg>