<svg xmlns="http://www.w3.org/2000/svg" viewBox="0 0 90 90"><path d="M14.23,48C9.9,48,7.61,53.13,10.51,56.34L38.1,87.01C41.66,90.97,47.86,90.98,51.45,87.05L79.38,56.37C82.31,53.16,80.03,48,75.69,48Z" fill="#E02828"/><path d="M14.23,48C9.9,48,7.61,53.13,10.51,56.34L34.31,82.8L13.47,56.32C11.47,53.79,13.13,50.07,16.35,49.86L44.75,48Z" fill="#FF6352"/><path d="M14.23,42C9.9,42,7.61,36.87,10.51,33.66L38.1,2.99C41.66,-0.97,47.86,-0.98,51.45,2.95L79.38,33.63C82.31,36.84,80.03,42,75.69,42Z" fill="#5D9948"/><path d="M14.23,42C9.9,42,7.61,36.87,10.51,33.66L34.31,7.2L13.47,33.68C11.47,36.21,13.13,39.93,16.35,40.14L44.75,42Z" fill="#81B64C"/><path d="M43.05,12.19L46.94,12.19C48.05,12.19,48.94,13.08,48.94,14.19L48.94,37.21C48.94,38.32,48.05,39.21,46.94,39.21L43.05,39.21C41.95,39.21,41.05,38.32,41.05,37.21L41.05,14.19C41.05,13.08,41.95,12.19,43.05,12.19Z" fill="#45753C"/><path d="M33.02,21.99L56.98,21.99C58.08,21.99,58.98,22.88,58.98,23.99L58.98,27.41C58.98,28.52,58.08,29.41,56.98,29.41L33.02,29.41C31.91,29.41,31.02,28.52,31.02,27.41L31.02,23.99C31.02,22.88,31.91,21.99,33.02,21.99Z" fill="#45753C"/><path d="M43.05,9.19L46.94,9.19C48.05,9.19,48.94,10.08,48.94,11.19L48.94,34.21C48.94,35.32,48.05,36.21,46.94,36.21L43.05,36.21C41.95,36.21,41.05,35.32,41.05,34.21L41.05,11.19C41.05,10.08,41.95,9.19,43.05,9.19Z" fill="#D8FA9D"/><path d="M33.02,18.99L56.98,18.99C58.08,18.99,58.98,19.88,58.98,20.99L58.98,24.41C58.98,25.52,58.08,26.41,56.98,26.41L33.02,26.41C31.91,26.41,31.02,25.52,31.02,24.41L31.02,20.99C31.02,19.88,31.91,18.99,33.02,18.99Z" fill="#D8FA9D"/><path d="M33.02,18.99C31.91,18.99,31.02,19.88,31.02,20.99L31.02,24.41L31.72,21.67C31.94,20.82,32.69,20.21,33.57,20.17L41.72,19.82L41.05,18.99Z" fill="#F3FFCF"/><path d="M56.98,18.99L48.94,18.99L48.94,19.45Z" fill="#F3FFCF"/><path d="M43.05,9.19C41.95,9.19,41.05,10.08,41.05,11.19L41.05,18.99L41.72,19.82L42.01,11.73C42.04,10.8,42.71,10.02,43.62,9.84L46.94,9.19Z" fill="#F3FFCF"/><path d="M41.05,26.41L41.05,36.21L41.43,26.41Z" fill="#F3FFCF"/><path d="M33.02,63.99L56.98,63.99C58.08,63.99,58.98,64.88,58.98,65.99L58.98,69.41C58.98,70.52,58.08,71.41,56.98,71.41L33.02,71.41C31.91,71.41,31.02,70.52,31.02,69.41L31.02,65.99C31.02,64.88,31.91,63.99,33.02,63.99Z" fill="#AD1F24"/><path d="M33.02,60.99L56.98,60.99C58.08,60.99,58.98,61.88,58.98,62.99L58.98,66.41C58.98,67.52,58.08,68.41,56.98,68.41L33.02,68.41C31.91,68.41,31.02,67.52,31.02,66.41L31.02,62.99C31.02,61.88,31.91,60.99,33.02,60.99Z" fill="#FFB196"/><path d="M33.02,60.99L56.98,60.99L33.56,61.65C32.62,61.68,31.83,62.34,31.65,63.26L31.02,66.41L31.02,62.99C31.02,61.88,31.91,60.99,33.02,60.99Z" fill="#FFE0CA"/></svg>