<svg xmlns="http://www.w3.org/2000/svg" viewBox="0 0 90 90"><path d="M5.33,79.87C1.41,79.87,-0.99,75.56,1.08,72.23L39.65,10.15C41.99,6.39,47.46,6.37,49.82,10.13L88.85,72.2C90.94,75.53,88.55,79.87,84.62,79.87Z" fill="#5D9948"/><path d="M5.33,79.87C1.41,79.87,-0.99,75.56,1.08,72.23L32.62,21.47L5.91,70.6C4.54,73.12,6.19,76.22,9.04,76.49L44.71,79.87Z" fill="#81B64C"/><path d="M42.05,35L47.94,35C49.05,35,49.94,35.9,49.94,37L49.94,66.03C49.94,67.13,49.05,68.03,47.94,68.03L42.05,68.03C40.95,68.03,40.05,67.13,40.05,66.03L40.05,37C40.05,35.9,40.95,35,42.05,35Z" fill="#45753C"/><path d="M30.02,46.8L59.98,46.8C61.08,46.8,61.98,47.7,61.98,48.8L61.98,54.23C61.98,55.33,61.08,56.23,59.98,56.23L30.02,56.23C28.91,56.23,28.02,55.33,28.02,54.23L28.02,48.8C28.02,47.7,28.91,46.8,30.02,46.8Z" fill="#45753C"/><path d="M42,32L48,32C49.1,32,50,32.9,50,34L50,64C50,65.1,49.1,66,48,66L42,66C40.9,66,40,65.1,40,64L40,34C40,32.9,40.9,32,42,32Z" fill="#D8FA9D"/><path d="M30,44L60,44C61.1,44,62,44.9,62,46L62,52C62,53.1,61.1,54,60,54L30,54C28.9,54,28,53.1,28,52L28,46C28,44.9,28.9,44,30,44Z" fill="#D8FA9D"/><path d="M30.02,44C28.91,44,28.02,44.9,28.02,46L28.02,51.23L28.8,46.84C28.97,45.91,29.76,45.22,30.7,45.19L40.72,44.83L40,44Z" fill="#F3FFCF"/><path d="M59.98,44L49.94,44L49.94,44.47Z" fill="#F3FFCF"/><path d="M42,32C40.9,32,40,32.9,40,34L40,44L40.72,44.83L41.02,34.65C41.04,33.68,41.77,32.86,42.74,32.73L47.94,32Z" fill="#F3FFCF"/><path d="M40,54L40,63.03L40.43,54Z" fill="#F3FFCF"/></svg>