<svg xmlns="http://www.w3.org/2000/svg" viewBox="0 0 90 90"><path d="M4,85L22,85C24.21,85,26,83.21,26,81L26,60L0,60L0,81C0,83.21,1.79,85,4,85Z" fill="currentColor"/><path d="M0,59C0,56.79,1.79,55,4,55L22,55C24.21,55,26,56.79,26,59L26,60L0,60Z" fill="currentColor"/><path d="M0.01,60L26,60L22.74,60.03C10.53,60.14,0.54,69.79,0,81.99L0.01,82Z" fill="currentColor"/><path d="M36,85L54,85C56.21,85,58,83.21,58,81L58,60L32,60L32,81C32,83.21,33.79,85,36,85Z" fill="currentColor"/><path d="M32,59C32,56.79,33.79,55,36,55L54,55C56.21,55,58,56.79,58,59L58,60L32,60Z" fill="currentColor"/><path d="M32.01,60L58,60L54.74,60.03C42.53,60.14,32.54,69.79,32,81.99L32.01,82Z" fill="currentColor"/><path d="M68,85L86,85C88.21,85,90,83.21,90,81L90,60L64,60L64,81C64,83.21,65.79,85,68,85Z" fill="currentColor"/><path d="M64,59C64,56.79,65.79,55,68,55L86,55C88.21,55,90,56.79,90,59L90,60L64,60Z" fill="currentColor"/><path d="M64.01,60L90,60L86.74,60.03C74.53,60.14,64.54,69.79,64,81.99L64.01,82Z" fill="currentColor"/><path d="M26,70L25.02,80.36C24.83,82.41,23.11,83.98,21.04,83.98L4.8,83.98C2.83,83.98,1.15,82.54,0.85,80.59L0,75.1L0,81C0,83.21,1.79,85,4,85L22,85C24.21,85,26,83.21,26,81Z" fill="currentColor"/><path d="M58,70L57.02,80.36C56.83,82.41,55.11,83.98,53.04,83.98L36.8,83.98C34.83,83.98,33.15,82.54,32.85,80.59L32,75.1L32,81C32,83.21,33.79,85,36,85L54,85C56.21,85,58,83.21,58,81Z" fill="currentColor"/><path d="M90,70L89.02,80.36C88.83,82.41,87.11,83.98,85.04,83.98L68.8,83.98C66.83,83.98,65.15,82.54,64.85,80.59L64,75.1L64,81C64,83.21,65.79,85,68,85L86,85C88.21,85,90,83.21,90,81Z" fill="currentColor"/><path d="M58.28,44.36L45.2,31.28L32.12,44.36C30.95,45.54,29.05,45.54,27.88,44.36L23.64,40.12C22.46,38.95,22.46,37.05,23.64,35.88L36.72,22.8L23.64,9.72C22.46,8.54,22.46,6.64,23.64,5.47L27.88,1.23C29.05,0.06,30.95,0.06,32.12,1.23L45.2,14.31L58.28,1.23C59.46,0.06,61.36,0.06,62.53,1.23L66.77,5.47C67.94,6.64,67.94,8.54,66.77,9.72L53.69,22.8L66.77,35.88C67.94,37.05,67.94,38.95,66.77,40.12L62.53,44.36C61.35,45.54,59.46,45.54,58.28,44.36Z" fill="currentColor"/><path d="M28.71,1.41L25.76,3.35L27.88,1.23C29.05,0.06,30.95,0.06,32.12,1.23L44.86,13.97L31.15,1.6C30.47,0.99,29.47,0.91,28.71,1.41Z" fill="currentColor"/><path d="M61.7,1.41L64.65,3.35L62.53,1.23C61.36,0.06,59.46,0.06,58.28,1.23L45.54,13.97L59.26,1.6C59.93,0.99,60.94,0.91,61.7,1.41Z" fill="currentColor"/></svg>