<svg xmlns="http://www.w3.org/2000/svg" viewBox="0 0 90 90" fill="currentColor"><path d="M6.33,80.87C2.41,80.87,0.01,76.56,2.08,73.23L40.65,11.15C42.99,7.39,48.46,7.37,50.82,11.13L89.85,73.2C91.94,76.53,89.55,80.87,85.62,80.87ZM6.33,80.87C2.41,80.87,0.01,76.56,2.08,73.23L33.62,22.47L6.91,71.6C5.54,74.12,7.19,77.22,10.04,77.49L45.71,80.87ZM43.05,36L48.94,36C50.05,36,50.94,36.9,50.94,38L50.94,67.03C50.94,68.13,50.05,69.03,48.94,69.03L43.05,69.03C41.95,69.03,41.05,68.13,41.05,67.03L41.05,38C41.05,36.9,41.95,36,43.05,36ZM31.02,47.8L60.98,47.8C62.08,47.8,62.98,48.7,62.98,49.8L62.98,55.23C62.98,56.33,62.08,57.23,60.98,57.23L31.02,57.23C29.91,57.23,29.02,56.33,29.02,55.23L29.02,49.8C29.02,48.7,29.91,47.8,31.02,47.8ZM43,33L49,33C50.1,33,51,33.9,51,35L51,65C51,66.1,50.1,67,49,67L43,67C41.9,67,41,66.1,41,65L41,35C41,33.9,41.9,33,43,33ZM31,45L61,45C62.1,45,63,45.9,63,47L63,53C63,54.1,62.1,55,61,55L31,55C29.9,55,29,54.1,29,53L29,47C29,45.9,29.9,45,31,45ZM31.02,45C29.91,45,29.02,45.9,29.02,47L29.02,52.23L29.8,47.84C29.97,46.91,30.76,46.22,31.7,46.19L41.72,45.83L41,45ZM60.98,45L50.94,45L50.94,45.47ZM43,33C41.9,33,41,33.9,41,35L41,45L41.72,45.83L42.02,35.65C42.04,34.68,42.77,33.86,43.74,33.73L48.94,33ZM41,55L41,64.03L41.43,55Z"/></svg>