<svg xmlns="http://www.w3.org/2000/svg" viewBox="0 0 90 90" fill="currentColor"><path d="M14.65,79.8C9.87,79.8,6,75.92,6,71.14L6,9.45C6,4.67,9.87,0.8,14.65,0.8L77.35,0.8C82.13,0.8,86,4.67,86,9.45L86,71.14C86,75.92,82.13,79.8,77.35,79.8ZM14.65,80.8C9.87,80.8,6,76.92,6,72.14L6,9.45C6,4.67,9.87,0.8,14.65,0.8L77.35,0.8C82.13,0.8,86,4.67,86,9.45L86,72.14C86,76.92,82.13,80.8,77.35,80.8ZM14.65,38.8C9.87,38.8,6,34.92,6,30.14L6,9.45C6,4.67,9.87,0.8,14.65,0.8L77.35,0.8C82.13,0.8,86,4.67,86,9.45L86,30.14C86,34.92,82.13,38.8,77.35,38.8ZM14.65,4.8L77.35,4.8C82.13,4.8,86,8.67,86,13.45L86,69.55C86,72.57,82.98,74.66,80.15,73.6L8.81,46.85C7.12,46.22,6,44.6,6,42.8L6,13.45C6,8.67,9.87,4.8,14.65,4.8ZM86,13.45C86,8.67,82.13,4.8,77.35,4.8L46,4.8L76.32,7.19C80.7,7.54,84.12,11.11,84.29,15.5L86,61.8ZM6,13.45C6,8.67,9.87,4.8,14.65,4.8L46,4.8L15.75,6.18C11.34,6.38,7.79,9.87,7.5,14.27L6,37.8ZM6,72.14C6,76.92,9.87,80.8,14.65,80.8L66,80.8L16.76,78.2C12.34,77.97,8.81,74.45,8.57,70.04L6,23.8ZM80.92,44.29C78.93,40.08,72.93,40.1,70.97,44.32L67.91,50.87L12.31,24.85C10.19,23.86,7.82,24.11,6,25.3L6,34.8L86,64.8L86,55ZM29,4.8L29,35.8L34,35.8L34,4.8ZM58,4.8L58,49.8L63,49.8L63,4.8ZM29,32.66L29,42.8L34,42.8L34,35ZM58,46.23L58,55.8L63,55.8L63,48.57ZM29,0.8L29,4.8L34,4.8L34,0.8ZM58,0.8L58,4.8L63,4.8L63,0.8ZM60.94,85.57L87.36,79.32C90.08,78.68,91.49,75.66,90.23,73.17L78.04,48.9C77.22,47.29,74.91,47.32,74.14,48.96L70.11,57.6L9.76,29.36C8.67,28.85,7.39,29.32,6.88,30.4L1.48,41.98C0.97,43.07,1.44,44.35,2.53,44.86L62.92,73.02L58.48,82.55C57.71,84.19,59.18,85.99,60.94,85.57ZM60.92,85.59L87.27,79.43C90,78.8,91.41,75.77,90.15,73.27L82.96,59.07L89.49,74.39C90.03,75.66,89.27,77.09,87.93,77.36L64.71,82C63.29,82.28,62,81.11,62.14,79.67L62.73,73.43L58.47,82.57C57.71,84.2,59.17,86,60.92,85.59ZM3.54,40.32L6.52,31.35L1.55,42C1.05,43.08,1.51,44.37,2.6,44.87L61.59,72.4L5.18,44.24C3.73,43.52,3.04,41.85,3.54,40.32Z"/></svg>