<svg xmlns="http://www.w3.org/2000/svg" viewBox="0 0 90 90" fill="currentColor"><path d="M5,6L23,6C25.21,6,27,7.79,27,10L27,42L1,42L1,10C1,7.79,2.79,6,5,6ZM1,43C1,45.21,2.79,47,5,47L23,47C25.21,47,27,45.21,27,43L27,42L1,42ZM1.01,42L27,42C13,41.79,1.66,30.58,1.29,16.59L1,6.01L1.01,6ZM55,6L37,6C34.79,6,33,7.79,33,10L33,60L59,60L59,10C59,7.79,57.21,6,55,6ZM33,61C33,63.21,34.79,65,37,65L55,65C57.21,65,59,63.21,59,61L59,60L33,60ZM33.01,60L59,60C45,59.79,33.66,48.58,33.29,34.59L33,24.01L33.01,24ZM65,81L65,10C65,7.79,66.79,6,69,6L87,6C89.21,6,91,7.79,91,10L91,81ZM65,82C65,84.21,66.79,86,69,86L87,86C89.21,86,91,84.21,91,82L91,81L65,81ZM65.01,81L91,81C77,80.79,65.66,69.58,65.29,55.59L65,45.01L65.01,45ZM59,41L57.83,11.27C57.75,9.13,55.98,7.43,53.84,7.43L38.21,7.43C36.06,7.43,34.3,9.12,34.21,11.27L33,41L33,10C33,7.79,34.79,6,37,6L55,6C57.21,6,59,7.79,59,10ZM91,41L89.83,11.27C89.75,9.13,87.98,7.43,85.84,7.43L70.21,7.43C68.06,7.43,66.3,9.12,66.21,11.27L65,41L65,10C65,7.79,66.79,6,69,6L87,6C89.21,6,91,7.79,91,10ZM27,31L25.89,10.8C25.77,8.68,24.02,7.02,21.9,7.02L6.09,7.02C3.99,7.02,2.25,8.64,2.1,10.73L1,25.9L1,10C1,7.79,2.79,6,5,6L23,6C25.21,6,27,7.79,27,10Z"/></svg>