<svg xmlns="http://www.w3.org/2000/svg" viewBox="0 0 90 90"><path d="M5.33,10C1.41,10,-0.99,14.31,1.08,17.64L39.65,79.71C41.99,83.48,47.46,83.49,49.82,79.74L88.85,17.66C90.94,14.33,88.55,10,84.62,10Z" fill="currentColor"/><path d="M5.33,10C1.41,10,-0.99,14.31,1.08,17.64L32.62,68.4L5.91,19.27C4.54,16.75,6.19,13.65,9.04,13.38L44.71,10Z" fill="currentColor"/><path d="M30,37L60,37C61.1,37,62,37.9,62,39L62,45C62,46.1,61.1,47,60,47L30,47C28.9,47,28,46.1,28,45L28,39C28,37.9,28.9,37,30,37Z" fill="currentColor"/><path d="M30,34L60,34C61.1,34,62,34.9,62,36L62,42C62,43.1,61.1,44,60,44L30,44C28.9,44,28,43.1,28,42L28,36C28,34.9,28.9,34,30,34Z" fill="currentColor"/><path d="M30,34L56,34L30.64,34.83C29.66,34.86,28.85,35.59,28.72,36.56L28,42L28,36C28,34.9,28.9,34,30,34Z" fill="currentColor"/></svg>