<svg xmlns="http://www.w3.org/2000/svg" viewBox="0 0 90 90"><path d="M4,85L22,85C24.21,85,26,83.21,26,81L26,60L0,60L0,81C0,83.21,1.79,85,4,85Z" fill="currentColor"/><path d="M0,59C0,56.79,1.79,55,4,55L22,55C24.21,55,26,56.79,26,59L26,60L0,60Z" fill="currentColor"/><path d="M0.01,60L26,60L15.83,60.06C7.45,60.12,0.54,66.64,0,74.99L0.01,75Z" fill="currentColor"/><path d="M32,49C32,46.79,33.79,45,36,45L54,45C56.21,45,58,46.79,58,49L58,50L32,50Z" fill="currentColor"/><path d="M54,85L36,85C33.79,85,32,83.21,32,81L32,50L58,50L58,81C58,83.21,56.21,85,54,85Z" fill="currentColor"/><path d="M32.01,50L58,50L51.78,50.05C41.21,50.14,32.54,58.44,32,68.99L32.01,69Z" fill="currentColor"/><path d="M64,9C64,6.79,65.79,5,68,5L86,5C88.21,5,90,6.79,90,9L90,10L64,10Z" fill="currentColor"/><path d="M64,10L64,81C64,83.21,65.79,85,68,85L86,85C88.21,85,90,83.21,90,81L90,10Z" fill="currentColor"/><path d="M64.01,10L90,10C76,10.21,64.66,21.42,64.29,35.41L64,45.99L64.01,46Z" fill="currentColor"/><path d="M52.12,12.41C55.4,9.13,55.4,7.81,52.12,4.53C48.74,1.16,47.43,1.16,44.15,4.53L19.62,29.06L10.43,19.88C7.15,16.59,5.84,16.59,2.46,19.88C-0.82,23.25,-0.82,24.56,2.46,27.84L16.52,42C18.77,44.16,20.27,44.25,22.52,42Z" fill="currentColor"/><path d="M4.24,21.16C5.4,19.95,7.33,19.92,8.52,21.1L19.68,32.13L46.47,5.68C47.54,4.62,49.22,4.52,50.41,5.44L54.57,8.67C54.67,7.45,53.85,6.27,52.12,4.53C48.74,1.16,47.43,1.16,44.15,4.53L19.62,29.06L10.43,19.88C7.15,16.59,5.84,16.59,2.46,19.88C0.2,22.2,-0.5,23.54,0.35,25.23Z" fill="currentColor"/><path d="M58,50L56.83,79.73C56.75,81.87,54.98,83.57,52.84,83.57L37.21,83.57C35.06,83.57,33.3,81.88,33.21,79.73L32,50L32,81C32,83.21,33.79,85,36,85L54,85C56.21,85,58,83.21,58,81Z" fill="currentColor"/><path d="M90,50L88.83,79.73C88.75,81.87,86.98,83.57,84.84,83.57L69.21,83.57C67.06,83.57,65.3,81.88,65.21,79.73L64,50L64,81C64,83.21,65.79,85,68,85L86,85C88.21,85,90,83.21,90,81Z" fill="currentColor"/><path d="M26,60L24.89,80.2C24.77,82.32,23.02,83.98,20.9,83.98L5.09,83.98C2.99,83.98,1.25,82.36,1.1,80.27L0,65.1L0,81C0,83.21,1.79,85,4,85L22,85C24.21,85,26,83.21,26,81Z" fill="currentColor"/></svg>