<svg xmlns="http://www.w3.org/2000/svg" viewBox="0 0 90 90"><path d="M8.62,19.66C8.03,20.12,8.14,21.04,8.83,21.34C19.62,26,25.58,37.67,23.03,49.14L20.25,61.62C19.94,63.04,21.54,64.11,22.74,63.27L28.29,59.34C36.61,53.46,46.96,51.19,56.98,53.03L60.89,53.75C71.28,55.67,81.91,52.1,89.04,44.32C89.67,43.64,89.86,42.67,89.54,41.81L83.84,26.47C82.74,23.5,81.91,20.44,81.35,17.33L78.58,1.74C78.28,0.05,76.2,-0.59,75,0.64C68.88,6.9,60.04,9.71,51.43,8.13L45.47,7.03C34.95,5.09,24.1,7.72,15.63,14.25Z" fill="#E7E6E5"/><path d="M58.4,10.55L59.24,14.6C61.88,27.46,70.88,38.09,83.12,42.82C84.93,43.52,86.74,41.82,86.17,39.97L82.04,26.75L75.98,2.6C71.24,7.36,64.96,10.14,58.4,10.55Z" fill="#DAD8D6"/><path d="M27.77,57.48L23.61,60.5C22.47,61.32,20.97,60.17,21.46,58.86L24.78,49.97C29.01,38.67,24.32,25.99,13.76,20.16C13.15,19.83,13.08,18.97,13.64,18.54L15.87,16.82C20.58,16.7,25.12,19.07,27.68,23.21L44.67,50.67C38.63,51.53,32.82,53.84,27.77,57.48Z" fill="#DAD8D6"/><path d="M4.4,16.31C6.65,15.7,8.97,17.04,9.58,19.3L27.1,84.67C27.7,86.93,26.36,89.25,24.1,89.85C21.85,90.46,19.53,89.12,18.92,86.86L1.41,21.49C0.8,19.23,2.14,16.91,4.4,16.31Z" fill="#9D6C3E"/><path d="M1.41,21.49L18.92,86.86C19.53,89.12,21.85,90.46,24.1,89.85C26.36,89.25,27.7,86.93,27.1,84.67L9.58,19.3C8.97,17.04,6.65,15.7,4.4,16.31C2.14,16.91,0.8,19.23,1.41,21.49Z" fill="#CA9350"/><path d="M3.11,19.96L21.17,87.37C21.55,88.78,23,89.62,24.41,89.24C25.82,88.87,26.66,87.42,26.28,86.01L8.22,18.59C7.84,17.18,6.39,16.34,4.98,16.72C3.57,17.1,2.73,18.55,3.11,19.96Z" fill="#CA9350"/><path d="M2.64,26.1C2.66,26.08,2.67,26.06,2.68,26.04C4.36,23.3,7.76,22.22,10.68,23.42L9.73,19.88C6.81,19.42,3.81,20.32,1.64,22.35Z" fill="#9D6C3E"/><path d="M13.86,67.96C13.87,67.93,13.89,67.91,13.9,67.89C15.58,65.15,18.98,64.08,21.9,65.27L20.95,61.73C18.03,61.27,15.03,62.18,12.85,64.2Z" fill="#9D6C3E"/><path d="M0.56,21.32C-0.15,22.76,0.74,24.27,2.21,24.44C3.46,21.92,7.86,20.42,10.3,21.97C11.73,21.61,12.14,19.61,10.5,18.68C7.05,16.73,2.11,18.21,0.56,21.32Z" fill="#4A352E"/><path d="M11.78,63.18C11.07,64.62,11.96,66.12,13.43,66.29C14.68,63.78,19.08,62.27,21.52,63.83C22.95,63.46,23.36,61.46,21.72,60.54C18.26,58.59,13.33,60.06,11.78,63.18Z" fill="#4A352E"/></svg>