<svg xmlns="http://www.w3.org/2000/svg" viewBox="0 0 90 90"><path d="M13,5C8.58,5,5,8.58,5,13L5,77C5,81.42,8.58,85,13,85L77,85C81.42,85,85,81.42,85,77L85,13C85,8.58,81.42,5,77,5Z" fill="currentColor"/><path d="M13,5C8.58,5,5,8.58,5,13L5,73C5,77.42,8.58,81,13,81L77,81C81.42,81,85,77.42,85,73L85,13C85,8.58,81.42,5,77,5Z" fill="currentColor"/><path d="M79.31,50.53L85,12L85,73C85,77.42,81.42,81,77,81L14,81L53.48,75.91C66.8,74.19,77.35,63.82,79.31,50.53Z" fill="currentColor" opacity="0.2"/><path d="M5,13C5,8.58,8.58,5,13,5L75,5L16.31,6.73C11.06,6.88,6.83,11.06,6.61,16.31L5,55Z" fill="currentColor"/><path d="M85,73C85,77.42,81.42,81,77,81L54,81L73.3,78.86C77.83,78.35,81.45,74.85,82.1,70.33L85,50Z" fill="currentColor"/><path d="M77,5C81.42,5,85,8.58,85,13L85,77C85,81.42,81.42,85,77,85L32,85L32,82.33C32,81.45,32.15,80.57,32.43,79.74L58,5Z" fill="currentColor"/><path d="M77,5C81.42,5,85,8.58,85,13L85,73C85,77.42,81.42,81,77,81L32,81L58,5Z" fill="currentColor"/><path d="M85,13L85,73C85,73.14,85,73.28,84.99,73.41C84.78,77.5,81.5,80.78,77.41,80.99C77.28,81,77.14,81,77,81L32,81L32.83,78.57L53.48,75.91C66.8,74.19,77.35,63.82,79.32,50.53L84.96,12.25C84.99,12.49,85,12.75,85,13Z" fill="currentColor" opacity="0.2"/><path d="M58,5L75,5L57.83,5.5Z" fill="currentColor"/><path d="M85,73C85,77.42,81.42,81,77,81L54,81L73.3,78.86C77.83,78.35,81.45,74.85,82.1,70.33L85,50Z" fill="currentColor"/><path d="M32.58,24.79L15.52,32.17L15.52,23.54L26.81,18.6L32.63,18.6L32.63,55L23.53,55L23.53,20.89Z" fill="currentColor"/><path d="M64.35,54.33C65.11,53.36,65.72,52.49,66.17,51.73C66.62,50.93,66.95,50.21,67.16,49.55C67.36,48.85,67.47,48.18,67.47,47.52C67.47,46.76,67.31,46.1,67,45.54C66.72,44.95,66.27,44.52,65.65,44.24C65.06,43.93,64.33,43.78,63.46,43.78C62.25,43.78,60.92,44.07,59.46,44.66C58.04,45.21,56.46,46.03,54.73,47.1C54.42,47.31,54.09,47.54,53.74,47.78L53.74,39.36C55.4,38.28,57.12,37.47,58.89,36.91C60.69,36.32,62.58,36.03,64.56,36.03C66.74,36.03,68.66,36.44,70.33,37.28C72.03,38.11,73.34,39.34,74.28,40.97C75.25,42.56,75.74,44.43,75.74,46.58C75.74,47.8,75.58,48.98,75.27,50.12C74.96,51.26,74.44,52.49,73.71,53.81C72.98,55.09,71.97,56.53,70.69,58.13L62.37,68.53L61.02,65.98L76.1,65.98L76.1,73L53.74,73L53.74,66.92Z" fill="currentColor"/><path d="M32.58,21.79L15.52,29.17L15.52,20.54L26.81,15.6L32.63,15.6L32.63,52L23.53,52L23.53,17.89Z" fill="currentColor"/><path d="M64.35,51.33C65.11,50.36,65.72,49.49,66.17,48.73C66.62,47.93,66.95,47.21,67.16,46.55C67.36,45.85,67.47,45.18,67.47,44.52C67.47,43.76,67.31,43.1,67,42.54C66.72,41.95,66.27,41.52,65.65,41.24C65.06,40.93,64.33,40.78,63.46,40.78C62.25,40.78,60.92,41.07,59.46,41.66C58.04,42.21,56.46,43.03,54.73,44.1C54.42,44.31,54.09,44.54,53.74,44.78L53.74,36.36C55.4,35.28,57.12,34.47,58.89,33.91C60.69,33.32,62.58,33.03,64.56,33.03C66.74,33.03,68.66,33.44,70.33,34.28C72.03,35.11,73.34,36.34,74.28,37.97C75.25,39.56,75.74,41.43,75.74,43.58C75.74,44.8,75.58,45.98,75.27,47.12C74.96,48.26,74.44,49.49,73.71,50.81C72.98,52.09,71.97,53.53,70.69,55.13L62.37,65.53L61.02,62.98L76.1,62.98L76.1,70L53.74,70L53.74,63.92Z" fill="currentColor"/></svg>