<svg xmlns="http://www.w3.org/2000/svg" viewBox="0 0 90 90" fill="currentColor"><path d="M21,82L21,71L10,71C7.79,71,6,69.21,6,67L6,59C6,56.79,7.79,55,10,55L21,55L21,37L10,37C7.79,37,6,35.21,6,33L6,25C6,22.79,7.79,21,10,21L21,21L21,10C21,7.79,22.79,6,25,6L33,6C35.21,6,37,7.79,37,10L37,21L55,21L55,10C55,7.79,56.79,6,59,6L67,6C69.21,6,71,7.79,71,10L71,21L82,21C84.21,21,86,22.79,86,25L86,33C86,35.21,84.21,37,82,37L71,37L71,55L82,55C84.21,55,86,56.79,86,59L86,67C86,69.21,84.21,71,82,71L71,71L71,82C71,84.21,69.21,86,67,86L59,86C56.79,86,55,84.21,55,82L55,71L37,71L37,82C37,84.21,35.21,86,33,86L25,86C22.79,86,21,84.21,21,82ZM37,37L55,37L55,55L37,55ZM17,71L21,55L21,71ZM37,55L41,71L37,71ZM55,51L55,55L71,55L71,51ZM75,37L71,37L71,21ZM55,21L51,37L55,37ZM21,21L21,17L37,17L37,21ZM71,41L69.83,11.27C69.75,9.13,67.98,7.43,65.84,7.43L60.21,7.43C58.06,7.43,56.3,9.12,56.21,11.27L55,41L55,10C55,7.79,56.79,6,59,6L67,6C69.21,6,71,7.79,71,10ZM21,51L22.17,80.73C22.25,82.87,24.02,84.57,26.16,84.57L31.79,84.57C33.94,84.57,35.7,82.88,35.79,80.73L37,51L37,82C37,84.21,35.21,86,33,86L25,86C22.79,86,21,84.21,21,82ZM55,82C55,84.21,56.79,86,59,86L67,86C69.21,86,71,84.21,71,82L71,73.5L70.07,81.06C69.82,83.07,68.11,84.57,66.1,84.57L59.87,84.57C57.84,84.57,56.14,83.06,55.9,81.04L55,73.5ZM10,55C7.79,55,6,56.79,6,59L6,67C6,69.21,7.79,71,10,71L13,71L10.47,70.38C8.69,69.94,7.43,68.34,7.43,66.5L7.43,59.92C7.43,57.87,8.98,56.16,11.01,55.94L20,55ZM82,71C84.21,71,86,69.21,86,67L86,59C86,56.79,84.21,55,82,55L51,55L80.73,56.21C82.88,56.3,84.57,58.06,84.57,60.21L84.57,65.84C84.57,67.98,82.87,69.75,80.73,69.83L51,71ZM72,21L80.99,21.94C83.03,22.16,84.57,23.87,84.57,25.92L84.57,32.49C84.57,34.34,83.31,35.94,81.53,36.38L79,37L82,37C84.21,37,86,35.21,86,33L86,25C86,22.79,84.21,21,82,21ZM21,15L21.74,10.74C22.07,8.83,23.74,7.43,25.68,7.43L32.29,7.43C34.22,7.43,35.88,8.81,36.23,10.72L37,15L37,10C37,7.79,35.21,6,33,6L25,6C22.79,6,21,7.79,21,10ZM10,21C7.79,21,6,22.79,6,25L6,33C6,35.21,7.79,37,10,37L41,37L11.27,35.79C9.12,35.7,7.43,33.94,7.43,31.79L7.43,26.16C7.43,24.02,9.13,22.25,11.27,22.17L41,21Z"/></svg>