<svg xmlns="http://www.w3.org/2000/svg" viewBox="0 0 90 90"><path d="M10.76,54.48C9.35,52.92,8.34,49.25,7.76,48.52C6.76,47.27,4.94,45.65,2.65,43.97C-0.05,42,-0.43,39.21,0.58,36.18L7.19,17.26C8.4,14.23,11.66,12.89,14.63,14.42C17.53,15.9,20.46,17.34,23.41,18.72L46.37,27.03L46.92,27.32C50.21,29.1,56.38,32.37,60.57,34.34C63.07,35.49,67.4,38.73,72.38,42.53C74.85,44.42,77.33,46.19,79.92,47.88C85.45,52.59,84.01,61.79,75.83,61.38C75.83,66.53,69.92,68.97,65.49,68C65.06,72.59,60.41,75.16,56.07,74.66C54.09,80.67,46.83,80.52,42.59,76.87C42.59,76.87,12.17,56.02,10.76,54.48Z" fill="#8D694B"/><path d="M2.65,43.97C4.94,45.65,6.76,47.27,7.76,48.52C7.98,48.8,8.26,49.5,8.61,50.35C9.17,51.73,9.89,53.51,10.76,54.48C11,54.75,12.15,55.62,13.88,56.87L10.37,49.41C9.95,48.52,9.29,47.78,8.46,47.27L2.6,43.67C2.13,43.37,1.68,43.04,1.28,42.67C1.64,43.14,2.1,43.57,2.65,43.97Z" fill="#6B4D3A"/><path d="M42.59,76.87C46.83,80.52,54.09,80.67,56.07,74.66C60.41,75.16,65.06,72.59,65.49,68C69.92,68.97,75.83,66.53,75.83,61.38C81.73,61.68,84.12,56.98,82.93,52.57C83.14,56.95,77.18,61.02,70.26,56.35C74.9,61.41,66.19,67.59,59.6,62.95C63.46,68.74,53.92,73.62,49.24,69.25C50.84,73.62,43.86,78.2,39.58,73.62L29.05,67.54C36.15,72.45,42.59,76.87,42.59,76.87Z" fill="#6B4D3A"/><path d="M79.92,47.88C77.33,46.19,74.85,44.42,72.38,42.53C67.57,38.86,63.37,35.71,60.84,34.46L80.5,48.42C80.51,48.43,80.52,48.44,80.53,48.45C80.34,48.25,80.14,48.06,79.92,47.88Z" fill="#6B4D3A"/><path d="M46.91,27.32L25.14,19.34C19.99,23.53,19.29,32.55,19.41,37.26C19.44,38.68,20.19,40.03,21.5,40.59C28.11,43.42,33.79,36.88,35.14,30.13C35.14,30.13,43.87,29.11,46.13,28.86C48.19,29.75,55.98,33.05,60.88,34.78L60.88,34.79C64.09,35.95,49.38,28.64,46.91,27.32Z" fill="#6B4D3A"/><path d="M60.41,34.69C55.69,32.49,48.24,28.48,46.27,27.42C44,27.46,37.52,27.59,35.22,27.67C33.24,31.13,31.68,35.7,27.67,37.3C24.6,38.53,20.93,38.33,18.83,35.53C19.28,32.87,19.53,30.19,20.06,27.54C21.44,20.67,23,18.64,24.04,17.71C27.5,14.65,30.25,13.74,34.77,12.98C35.98,12.77,37.57,12.37,39.29,11.94C43.24,10.94,47.32,9.91,50.11,9.91C50.91,9.91,51.57,9.99,52.15,10.16C54.62,10.88,60.14,12.42,63.47,13.08C65.27,13.43,67.14,14.23,68.79,14.95C69.92,15.44,71.32,16.04,71.89,16.08C72.57,16.03,75.1,14.82,76.45,14.18C79.29,12.85,82.64,14.62,83.37,17.63L89.66,37.19C90.58,40.06,88.95,42.7,87.54,43.64C85.17,45.2,82.97,46.94,80.61,48.49C80.61,48.49,76.94,46.15,72.04,42.42L72.05,42.42C68.01,39.34,63.08,35.93,60.41,34.69Z" fill="#E3C29C"/><path d="M24.04,17.71C27.5,14.65,30.25,13.74,34.77,12.98C35.84,12.79,37.21,12.46,38.71,12.09C38.9,12.04,39.09,11.99,39.29,11.94L39.36,11.93C43.29,10.93,47.33,9.91,50.11,9.91C50.91,9.91,51.57,9.99,52.15,10.16C54.62,10.88,60.14,12.42,63.47,13.08C65.27,13.43,67.14,14.23,68.79,14.95C69.92,15.44,71.32,16.04,71.89,16.08C72.55,16.03,74.95,14.9,76.32,14.24L76.45,14.18C79.29,12.85,82.64,14.62,83.37,17.63L89.66,37.19C89.75,37.48,89.82,37.76,89.86,38.05L81.61,18.37C80.66,16.12,77.94,15.23,75.85,16.5L72.4,18.6L65.17,15.05L53.04,12.43C51.47,12.09,49.85,12.13,48.3,12.55L35.5,16.03C31.87,17.02,29.1,19.96,28.34,23.65L27.26,28.84L24.99,27.16C24.21,26.58,23.23,26.33,22.27,26.45C21.41,26.56,20.65,26.95,20.07,27.53C21.44,20.67,23,18.64,24.04,17.71Z" fill="#FADAAE"/><path d="M48.97,25.45C44.82,25.31,35.21,27.66,35.21,27.66C37.51,27.59,44,27.45,46.26,27.41C48.23,28.48,55.67,32.48,60.4,34.68C63.07,35.93,68,39.33,72.04,42.41C72.04,42.41,81.05,32.15,73.84,32.95L73.84,32.96C62.34,34.24,53.11,25.61,48.97,25.45Z" fill="#D5A47D"/><path d="M26.65,35.78L26.41,36.86C26.25,37.58,25.74,38.16,25.07,38.41L23.92,38.83C22.07,39.51,20,38.82,18.93,37.15C18.7,36.81,18.62,36.39,18.7,35.98L18.93,34.86C20.61,36.54,23.08,37.08,25.29,36.27Z" fill="#D5A47D"/><path d="M80.6,48.49L82.31,47.37C82.39,47.3,83.13,46.52,87.53,43.64C87.84,43.43,88.07,43.23,88.29,43.02C84.94,43.98,76.28,45.53,76.27,45.53L76.27,45.52C78.89,47.39,80.6,48.49,80.6,48.49Z" fill="#D5A47D"/><path d="M22.87,72.24C19.86,73.12,15.31,69.58,14.71,66.34C9.81,66.52,8.06,61.18,8.93,57.24C9.6,54.2,12.47,51.04,16.12,51.04C18.74,51.04,20.99,52.81,21.99,55.18C25.25,54.29,28.99,55.62,30.11,59.04C34.57,58.11,38.24,61.88,37.91,66.34C42.52,67.11,44.58,71.46,43.51,75.83C42.05,81.73,34.8,81.59,32.07,77.28C28.95,79.16,23.34,76.24,22.87,72.24Z" fill="#D5A47D"/><path d="M22.87,72.24C19.86,73.12,15.31,69.58,14.71,66.34C9.81,66.52,8.06,61.18,8.93,57.24C9.6,54.2,12.47,51.04,16.12,51.04C18.74,51.04,20.99,52.81,21.99,55.18C25.25,54.29,28.99,55.62,30.11,59.04C34.57,58.11,38.24,61.88,37.91,66.34C42.52,67.11,44.58,71.46,43.51,75.83C42.05,81.73,34.8,81.59,32.07,77.28C28.95,79.16,23.34,76.24,22.87,72.24Z" fill="#D5A47D"/><path d="M37.9,66.35C38,66.36,38.1,66.38,38.2,66.39C40.53,66.87,42.18,68.29,43.05,70.15C43.23,70.72,43.31,71.32,43.3,71.96C42.56,80.16,31.79,77.88,33.76,71.38C29.59,75.78,23.69,71.88,25.41,65.54C23.1,68.91,15.95,67.45,17.68,61.71C13.1,64.02,8.96,60.47,9.64,56.13C9.72,55.63,9.86,55.1,10.07,54.59C11.38,52.6,13.56,51.04,16.12,51.04C16.95,51.04,17.75,51.22,18.49,51.54C20.04,52.41,21.4,53.82,21.98,55.19C22.45,55.06,22.94,54.97,23.44,54.93C25.85,54.76,28.28,55.74,29.55,57.82C29.77,58.2,29.95,58.62,30.09,59.05C30.84,58.9,31.59,58.87,32.32,58.96C35.48,59.4,37.83,62.21,37.93,65.57C37.93,65.82,37.92,66.09,37.9,66.35Z" fill="#E3C29C"/><path d="M37.32,67.3C37.32,60.04,32.14,59.76,29.73,60.23C29.27,56.45,23.87,54.84,21.13,56.55C20.05,51.16,14.96,50.5,12.3,52.32L12.31,52.26C13.4,51.51,14.69,51.04,16.09,51.04C16.98,51.04,17.82,51.24,18.59,51.6C19.91,52.36,21.08,53.51,21.73,54.69C21.81,54.85,21.89,55.01,21.96,55.18L21.97,55.18L21.98,55.19C22.49,55.05,23.02,54.96,23.55,54.92C26.35,54.77,29.14,56.17,30.08,59.04L30.09,59.04L30.09,59.05C30.78,58.91,31.47,58.88,32.15,58.94C35.62,59.34,38.16,62.59,37.88,66.34L37.9,66.34L37.9,66.35C37.96,66.36,38.03,66.37,38.09,66.38C40.54,66.85,42.24,68.35,43.1,70.31C43.13,70.42,43.16,70.53,43.18,70.64C41.93,68.56,39.23,67.3,37.32,67.3Z" fill="#FADAAE"/><path d="M11.3,54.15C12.96,56.42,15.42,57.97,18.2,58.47L18.35,58.5C15.43,60.23,11.77,58.41,11.4,55.06Z" fill="#FADAAE"/><path d="M19.19,59.26C20.85,61.54,23.32,63.09,26.09,63.59L26.24,63.62C23.32,65.34,19.66,63.53,19.29,60.18Z" fill="#FADAAE"/><path d="M27.01,64.34C28.67,66.61,31.14,68.16,33.92,68.66L34.06,68.69C31.15,70.42,27.48,68.6,27.11,65.25Z" fill="#FADAAE"/><path d="M34.68,69.31C36.34,71.59,38.81,73.13,41.59,73.64L41.73,73.66C38.82,75.39,35.15,73.58,34.78,70.22Z" fill="#FADAAE"/></svg>