<svg xmlns="http://www.w3.org/2000/svg" viewBox="0 0 90 90" fill="currentColor"><path d="M43.91,46.56L29.45,46.56L29.45,42.56L36.85,42.56L36.85,33.9C34.47,32.51,31.73,31.82,28.61,31.82C25.81,31.82,23.34,32.42,21.12,33.66C18.92,34.89,17.21,36.57,15.98,38.71C14.74,40.84,14.11,43.25,14.11,45.92C14.11,48.6,14.74,51.13,15.98,53.26C17.21,55.4,18.95,57.08,21.12,58.25C23.31,59.43,25.81,60.03,28.64,60.03C32.97,60.03,36.64,58.49,39.7,55.46L44.39,60.03C42.53,62.16,40.21,63.79,37.45,64.9C34.71,66.01,31.64,66.55,28.28,66.55C24.16,66.55,20.43,65.68,17.15,63.88C13.84,62.1,11.26,59.64,9.39,56.51C7.53,53.38,6.59,49.83,6.59,45.89C6.59,41.96,7.53,38.44,9.39,35.31C11.26,32.18,13.84,29.72,17.12,27.94C20.4,26.17,24.1,25.27,28.16,25.27C31.07,25.27,33.9,25.69,36.64,26.59C39.37,27.46,41.78,28.72,43.85,30.38L43.85,42.53L43.91,42.56ZM70.04,42.53L77.44,42.53L77.44,33.87C75.06,32.48,72.33,31.79,69.2,31.79C66.4,31.79,63.94,32.39,61.71,33.63C59.52,34.86,57.8,36.54,56.57,38.68C55.34,40.81,54.71,43.22,54.71,45.89C54.71,48.57,55.34,51.1,56.57,53.23C57.8,55.37,59.55,57.05,61.71,58.22C63.91,59.4,66.4,60,69.23,60C73.56,60,77.23,58.46,80.3,55.43L84.99,60C83.12,62.13,80.81,63.76,78.04,64.87C75.31,65.98,72.24,66.52,68.87,66.52C64.75,66.52,61.02,65.65,57.74,63.85C54.44,62.07,51.85,59.61,49.99,56.48C48.12,53.35,47.19,49.8,47.19,45.86C47.19,41.93,48.12,38.41,49.99,35.28C51.85,32.15,54.44,29.69,57.71,27.91C60.99,26.14,64.69,25.24,68.75,25.24C71.67,25.24,74.49,25.66,77.23,26.56C79.97,27.43,82.37,28.69,84.45,30.35L84.45,46.5L69.98,46.5L70.04,46.53ZM29.69,71.09C30.86,71.72,32.06,72.3,33.3,72.78L27.28,87.72C25.54,87,23.83,86.22,22.14,85.32ZM61.92,71.09C60.75,71.72,59.55,72.3,58.32,72.78L64.36,87.72C66.1,87,67.82,86.22,69.5,85.32L69.47,85.32ZM47.64,74.79L48.45,90.91C46.56,91,44.66,91,42.77,90.91L43.61,74.82L43.64,74.79C44.96,74.85,46.29,74.85,47.64,74.79ZM29.69,20.82C30.86,20.18,32.06,19.61,33.3,19.13L27.25,4.19C25.51,4.91,23.8,5.69,22.11,6.59L22.14,6.59ZM61.92,20.82C60.75,20.18,59.55,19.61,58.32,19.13L64.36,4.19C66.1,4.91,67.82,5.69,69.5,6.59L69.47,6.59ZM47.64,17.15L48.48,1.06C46.59,0.97,44.69,0.97,42.8,1.06L43.64,17.15C44.96,17.09,46.29,17.09,47.64,17.15Z"/></svg>