<svg xmlns="http://www.w3.org/2000/svg" viewBox="0 0 90 90"><path d="M13,5C8.58,5,5,8.58,5,13L5,77C5,81.42,8.58,85,13,85L77,85C81.42,85,85,81.42,85,77L85,13C85,8.58,81.42,5,77,5Z" fill="currentColor"/><path d="M13,5C8.58,5,5,8.58,5,13L5,73C5,77.42,8.58,81,13,81L77,81C81.42,81,85,77.42,85,73L85,13C85,8.58,81.42,5,77,5Z" fill="currentColor"/><path d="M79.31,50.53L85,12L85,73C85,77.42,81.42,81,77,81L14,81L53.48,75.91C66.8,74.19,77.35,63.82,79.31,50.53Z" fill="currentColor" opacity="0.2"/><path d="M5,13C5,8.58,8.58,5,13,5L75,5L16.31,6.73C11.06,6.88,6.83,11.06,6.61,16.31L5,55Z" fill="currentColor"/><path d="M85,73C85,77.42,81.42,81,77,81L54,81L73.3,78.86C77.83,78.35,81.45,74.85,82.1,70.33L85,50Z" fill="currentColor"/><path d="M77,5C81.42,5,85,8.58,85,13L85,77C85,81.42,81.42,85,77,85L45,85L45,5Z" fill="currentColor"/><path d="M77,5C81.42,5,85,8.58,85,13L85,73C85,77.42,81.42,81,77,81L45,81L45,5Z" fill="currentColor"/><path d="M85,13L85,73C85,73.14,85,73.28,84.99,73.41C84.78,77.5,81.5,80.78,77.41,80.99C77.28,81,77.14,81,77,81L45,81L45,77L53.48,75.91C66.8,74.19,77.35,63.82,79.32,50.53L84.96,12.25C84.99,12.49,85,12.75,85,13Z" fill="currentColor" opacity="0.2"/><path d="M45,5L75,5L45,5.88Z" fill="currentColor"/><path d="M85,73C85,77.42,81.42,81,77,81L54,81L73.3,78.86C77.83,78.35,81.45,74.85,82.1,70.33L85,50Z" fill="currentColor"/><path d="M58.04,62.39C56.03,60.93,54.45,58.8,53.3,55.99C52.16,53.18,51.59,49.79,51.59,45.8C51.59,41.81,52.16,38.42,53.3,35.61C54.45,32.8,56.03,30.69,58.04,29.26C60.05,27.81,62.37,27.08,65,27.08C67.6,27.08,69.91,27.81,71.92,29.26C73.97,30.69,75.56,32.8,76.7,35.61C77.88,38.42,78.47,41.81,78.47,45.8C78.47,49.79,77.88,53.18,76.7,55.99C75.56,58.8,73.97,60.93,71.92,62.39C69.91,63.81,67.6,64.52,65,64.52C62.37,64.52,60.05,63.81,58.04,62.39Z" fill="currentColor"/><path d="M67.6,55.68C68.33,54.92,68.89,53.74,69.27,52.14C69.65,50.51,69.84,48.4,69.84,45.8C69.84,43.2,69.65,41.1,69.27,39.51C68.89,37.88,68.33,36.68,67.6,35.92C66.91,35.16,66.04,34.78,65,34.78C63.96,34.78,63.08,35.16,62.35,35.92C61.66,36.68,61.12,37.88,60.74,39.51C60.36,41.1,60.17,43.2,60.17,45.8C60.17,48.4,60.36,50.51,60.74,52.14C61.12,53.74,61.66,54.92,62.35,55.68C63.08,56.44,63.95,56.82,64.95,56.82C66.03,56.82,66.91,56.44,67.6,55.68Z" fill="currentColor"/><path d="M32.58,33.79L15.52,41.17L15.52,32.54L26.81,27.6L32.63,27.6L32.63,64L23.53,64L23.53,29.89Z" fill="currentColor"/><path d="M58.04,59.39C56.03,57.93,54.45,55.8,53.3,52.99C52.16,50.18,51.59,46.79,51.59,42.8C51.59,38.81,52.16,35.42,53.3,32.61C54.45,29.8,56.03,27.69,58.04,26.26C60.05,24.81,62.37,24.08,65,24.08C67.6,24.08,69.91,24.81,71.92,26.26C73.97,27.69,75.56,29.8,76.7,32.61C77.88,35.42,78.47,38.81,78.47,42.8C78.47,46.79,77.88,50.18,76.7,52.99C75.56,55.8,73.97,57.93,71.92,59.39C69.91,60.81,67.6,61.52,65,61.52C62.37,61.52,60.05,60.81,58.04,59.39Z" fill="currentColor"/><path d="M67.6,52.68C68.33,51.92,68.89,50.74,69.27,49.14C69.65,47.51,69.84,45.4,69.84,42.8C69.84,40.2,69.65,38.1,69.27,36.51C68.89,34.88,68.33,33.68,67.6,32.92C66.91,32.16,66.04,31.78,65,31.78C63.96,31.78,63.08,32.16,62.35,32.92C61.66,33.68,61.12,34.88,60.74,36.51C60.36,38.1,60.17,40.2,60.17,42.8C60.17,45.4,60.36,47.51,60.74,49.14C61.12,50.74,61.66,51.92,62.35,52.68C63.08,53.44,63.95,53.82,64.95,53.82C66.03,53.82,66.91,53.44,67.6,52.68Z" fill="currentColor"/><path d="M32.58,30.79L15.52,38.17L15.52,29.54L26.81,24.6L32.63,24.6L32.63,61L23.53,61L23.53,26.89Z" fill="currentColor"/></svg>