<svg xmlns="http://www.w3.org/2000/svg" viewBox="0 0 90 90"><path d="M42.91,44.41L28.45,44.41L28.45,48.41L35.85,48.41L35.85,57.07C33.47,58.46,30.73,59.15,27.61,59.15C24.81,59.15,22.34,58.55,20.12,57.31C17.92,56.08,16.21,54.4,14.98,52.26C13.74,50.13,13.11,47.72,13.11,45.05C13.11,42.37,13.74,39.84,14.98,37.71C16.21,35.57,17.95,33.89,20.12,32.72C22.31,31.54,24.81,30.94,27.64,30.94C31.97,30.94,35.64,32.48,38.7,35.51L43.39,30.94C41.53,28.81,39.21,27.18,36.45,26.07C33.71,24.96,30.64,24.42,27.28,24.42C23.16,24.42,19.43,25.29,16.15,27.09C12.84,28.87,10.26,31.33,8.39,34.46C6.53,37.59,5.59,41.14,5.59,45.08C5.59,49.01,6.53,52.53,8.39,55.66C10.26,58.79,12.84,61.25,16.12,63.03C19.4,64.8,23.1,65.7,27.16,65.7C30.07,65.7,32.9,65.28,35.64,64.38C38.37,63.51,40.78,62.25,42.85,60.59L42.85,48.44L42.91,48.41Z" fill="#81B64C"/><path d="M69.04,48.44L76.44,48.44L76.44,57.1C74.06,58.49,71.33,59.18,68.2,59.18C65.4,59.18,62.94,58.58,60.71,57.34C58.52,56.11,56.8,54.43,55.57,52.29C54.34,50.16,53.71,47.75,53.71,45.08C53.71,42.4,54.34,39.87,55.57,37.74C56.8,35.6,58.55,33.92,60.71,32.75C62.91,31.57,65.4,30.97,68.23,30.97C72.56,30.97,76.23,32.51,79.3,35.54L83.99,30.97C82.12,28.84,79.81,27.21,77.04,26.1C74.31,24.99,71.24,24.45,67.87,24.45C63.75,24.45,60.02,25.32,56.74,27.12C53.44,28.9,50.85,31.36,48.99,34.49C47.12,37.62,46.19,41.17,46.19,45.11C46.19,49.04,47.12,52.56,48.99,55.69C50.85,58.82,53.44,61.28,56.71,63.06C59.99,64.83,63.69,65.73,67.75,65.73C70.67,65.73,73.49,65.31,76.23,64.41C78.97,63.54,81.37,62.28,83.45,60.62L83.45,44.47L68.98,44.47L69.04,44.44Z" fill="#81B64C"/><path d="M28.69,19.88C29.86,19.24,31.06,18.67,32.3,18.19L26.28,3.25C24.54,3.97,22.83,4.75,21.14,5.65Z" fill="#B2E068"/><path d="M60.92,19.88C59.75,19.24,58.55,18.67,57.32,18.19L63.36,3.25C65.1,3.97,66.82,4.75,68.5,5.65L68.47,5.65Z" fill="#B2E068"/><path d="M46.64,16.18L47.45,0.06C45.56,-0.03,43.66,-0.03,41.77,0.06L42.61,16.15L42.64,16.18C43.96,16.12,45.29,16.12,46.64,16.18Z" fill="#B2E068"/><path d="M28.69,70.15C29.86,70.79,31.06,71.36,32.3,71.84L26.25,86.78C24.51,86.06,22.8,85.28,21.11,84.38L21.14,84.38Z" fill="#B2E068"/><path d="M60.92,70.15C59.75,70.79,58.55,71.36,57.32,71.84L63.36,86.78C65.1,86.06,66.82,85.28,68.5,84.38L68.47,84.38Z" fill="#B2E068"/><path d="M46.64,73.82L47.48,89.91C45.59,90,43.69,90,41.8,89.91L42.64,73.82C43.96,73.88,45.29,73.88,46.64,73.82Z" fill="#B2E068"/></svg>