<svg xmlns="http://www.w3.org/2000/svg" viewBox="0 0 90 90"><path d="M88,46C88,69.2,69.2,88,46,88C22.8,88,4,69.2,4,46C4,22.8,22.8,4,46,4C69.2,4,88,22.8,88,46Z" fill="currentColor"/><path d="M88,49C88,72.2,69.2,91,46,91C22.8,91,4,72.2,4,49C4,25.8,22.8,7,46,7C69.2,7,88,25.8,88,49Z" fill="currentColor"/><path d="M46,7C69.2,7,88,25.8,88,49C88,55.31,86.61,61.29,84.12,66.65C75.44,39.99,53.84,19.23,26.63,11.72C32.43,8.71,39.02,7,46,7Z" fill="currentColor" opacity="0.33"/><path d="M4.79,57.13C8.42,75.66,24.24,89.82,43.55,90.93C25.36,87.21,10.79,74.2,4.79,57.13Z" fill="currentColor"/><path d="M87.99,49.87C88,49.58,88,49.29,88,49C88,25.8,69.2,7,46,7C68.24,9.74,85.8,27.57,87.99,49.87Z" fill="currentColor"/><path d="M30.73,20.99C29.89,20.99,29.22,21.75,29.22,22.59L29.22,31.45C29.22,32.12,29.55,32.97,30.73,32.97L39.93,32.97C40.69,32.97,41.61,32.71,41.61,31.45L41.61,22.59C41.61,21.92,40.69,20.99,39.93,20.99Z" fill="currentColor"/><path d="M52.16,20.99C51.4,20.99,50.47,21.92,50.47,22.59L50.47,31.45C50.47,32.71,51.4,32.97,52.16,32.97L61.35,32.97C62.53,32.97,62.87,32.12,62.87,31.45L62.87,22.59C62.87,21.75,62.19,20.99,61.35,20.99Z" fill="currentColor"/><path d="M31.16,39.46C30.23,39.46,29.55,39.97,29.55,40.98L28.88,72.6C28.88,73.36,29.22,74.12,30.4,74.12L40.26,74.12C41.19,74.12,41.87,73.53,41.87,72.6L40.94,40.98C40.94,40.22,40.26,39.46,39.51,39.46Z" fill="currentColor"/><path d="M52.49,39.46C51.73,39.46,51.06,40.22,51.06,40.98L50.13,72.6C50.13,73.53,50.81,74.12,51.73,74.12L61.6,74.12C62.78,74.12,63.12,73.36,63.12,72.6L62.45,40.98C62.45,39.97,61.77,39.46,60.84,39.46Z" fill="currentColor"/><path d="M30.73,23.61C29.89,23.61,29.22,24.37,29.22,25.22L29.22,34.07C29.22,34.75,29.55,35.59,30.73,35.59L39.93,35.59C40.69,35.59,41.61,35.34,41.61,34.07L41.61,25.22C41.61,24.54,40.69,23.61,39.93,23.61Z" fill="currentColor"/><path d="M52.16,23.61C51.4,23.61,50.47,24.54,50.47,25.22L50.47,34.07C50.47,35.34,51.4,35.59,52.16,35.59L61.35,35.59C62.53,35.59,62.87,34.75,62.87,34.07L62.87,25.22C62.87,24.37,62.19,23.61,61.35,23.61Z" fill="currentColor"/><path d="M31.16,42.08C30.23,42.08,29.55,42.59,29.55,43.6L28.88,75.23C28.88,75.99,29.22,76.75,30.4,76.75L40.26,76.75C41.19,76.75,41.87,76.16,41.87,75.23L40.94,43.6C40.94,42.84,40.26,42.08,39.51,42.08Z" fill="currentColor"/><path d="M52.49,42.08C51.73,42.08,51.06,42.84,51.06,43.6L50.13,75.23C50.13,76.16,50.81,76.75,51.73,76.75L61.6,76.75C62.78,76.75,63.12,75.99,63.12,75.23L62.45,43.6C62.45,42.59,61.77,42.08,60.84,42.08Z" fill="currentColor"/></svg>