<svg xmlns="http://www.w3.org/2000/svg" viewBox="0 0 90 90"><path d="M87,48C87,24.8,68.2,6,45,6C21.8,6,3,24.8,3,48C3,71.2,21.8,90,45,90C68.2,90,87,71.2,87,48Z" fill="#AD1F24"/><path d="M87,45C87,21.8,68.2,3,45,3C21.8,3,3,21.8,3,45C3,68.2,21.8,87,45,87C68.2,87,87,68.2,87,45Z" fill="#FA412D"/><path d="M45,87C68.2,87,87,68.2,87,45C87,38.69,85.61,32.71,83.12,27.35C74.44,54.01,52.84,74.77,25.63,82.28C31.43,85.29,38.02,87,45,87Z" fill="#FF6352"/><path d="M3.79,36.87C7.42,18.34,23.24,4.18,42.55,3.07C24.36,6.79,9.79,19.8,3.79,36.87Z" fill="#FF6352"/><path d="M86.99,44.13C87,44.42,87,44.71,87,45C87,68.2,68.2,87,45,87C67.24,84.26,84.8,66.43,86.99,44.13Z" fill="#FF6352"/><path d="M46.27,24.35C49.55,21.9,54.11,20.81,57.57,20.81C66.42,20.81,73.17,26.54,73.17,34.64C73.17,40.46,71.14,42.56,66.17,47.54L63.13,50.49C62.29,51.42,61.87,52.6,61.87,53.78L61.87,54.79C61.87,55.72,61.36,56.23,60.43,56.23L52.34,56.23C51.58,56.23,50.9,55.97,50.9,54.79L50.9,53.11C50.9,48.64,53.43,44.93,55.12,43.58L57.48,41.64C58.49,40.71,59.59,39.7,60.52,38.69C61.28,37.76,61.7,36.66,61.7,35.48C61.7,32.95,59.51,31.52,56.98,31.52C55.54,31.52,53.1,32.02,50.9,33.88C50.65,34.13,50.23,34.3,49.98,34.3C49.81,30.08,48.88,27.81,46.27,24.35Z" fill="#AD1F24"/><path d="M25.77,73.94C24.93,73.94,24.34,73.35,24.34,72.42L24.34,63.9C24.34,63.06,24.93,62.47,25.77,62.47L34.63,62.47C35.47,62.47,36.06,63.06,36.06,63.9L36.06,72.42C36.06,73.35,35.47,73.94,34.54,73.94Z" fill="#AD1F24"/><path d="M26.19,56.23C25.43,56.23,24.76,55.97,24.76,54.79L24.76,53.11C24.76,48.64,27.29,44.93,28.98,43.58L31.34,41.64C32.35,40.71,33.45,39.7,34.37,38.69C35.13,37.76,35.55,36.66,35.55,35.48C35.55,32.95,33.36,31.52,30.83,31.52C29.4,31.52,26.95,32.02,24.76,33.88C24.08,34.55,23.49,34.47,22.57,33.54L17.93,27.89C17.34,27.22,17.59,26.54,18.1,26.03C21.72,22.41,27.29,20.81,31.42,20.81C40.28,20.81,47.02,26.54,47.02,34.64C47.02,40.46,45,42.56,40.02,47.54L36.99,50.49C36.14,51.42,35.72,52.6,35.72,53.78L35.72,54.79C35.72,55.72,35.22,56.23,34.29,56.23Z" fill="#AD1F24"/><path d="M51.92,73.94C51.07,73.94,50.48,73.35,50.48,72.42L50.48,63.9C50.48,63.06,51.07,62.47,51.92,62.47L60.77,62.47C61.61,62.47,62.2,63.06,62.2,63.9L62.2,72.42C62.2,73.35,61.61,73.94,60.69,73.94Z" fill="#AD1F24"/><path d="M46.27,21.72C49.55,19.28,54.11,18.18,57.57,18.18C66.42,18.18,73.17,23.92,73.17,32.01C73.17,37.83,71.14,39.94,66.17,44.92L63.13,47.87C62.29,48.8,61.87,49.98,61.87,51.16L61.87,52.17C61.87,53.1,61.36,53.6,60.43,53.6L52.34,53.6C51.58,53.6,50.9,53.35,50.9,52.17L50.9,50.48C50.9,46.01,53.43,42.3,55.12,40.95L57.48,39.01C58.49,38.08,59.59,37.07,60.52,36.06C61.28,35.13,61.7,34.04,61.7,32.86C61.7,30.33,59.51,28.89,56.98,28.89C55.54,28.89,53.1,29.4,50.9,31.25C50.65,31.51,50.23,31.67,49.98,31.67C49.81,27.46,48.88,25.18,46.27,21.72Z" fill="white"/><path d="M25.77,71.31C24.93,71.31,24.34,70.72,24.34,69.8L24.34,61.28C24.34,60.43,24.93,59.84,25.77,59.84L34.63,59.84C35.47,59.84,36.06,60.43,36.06,61.28L36.06,69.8C36.06,70.72,35.47,71.31,34.54,71.31Z" fill="white"/><path d="M26.19,53.6C25.43,53.6,24.76,53.35,24.76,52.17L24.76,50.48C24.76,46.01,27.29,42.3,28.98,40.95L31.34,39.01C32.35,38.08,33.45,37.07,34.37,36.06C35.13,35.13,35.55,34.04,35.55,32.86C35.55,30.33,33.36,28.89,30.83,28.89C29.4,28.89,26.95,29.4,24.76,31.25C24.08,31.93,23.49,31.84,22.57,30.92L17.93,25.27C17.34,24.59,17.59,23.92,18.1,23.41C21.72,19.78,27.29,18.18,31.42,18.18C40.28,18.18,47.02,23.92,47.02,32.01C47.02,37.83,45,39.94,40.02,44.92L36.99,47.87C36.14,48.8,35.72,49.98,35.72,51.16L35.72,52.17C35.72,53.1,35.22,53.6,34.29,53.6Z" fill="white"/><path d="M51.92,71.31C51.07,71.31,50.48,70.72,50.48,69.8L50.48,61.28C50.48,60.43,51.07,59.84,51.92,59.84L60.77,59.84C61.61,59.84,62.2,60.43,62.2,61.28L62.2,69.8C62.2,70.72,61.61,71.31,60.69,71.31Z" fill="white"/></svg>