<svg xmlns="http://www.w3.org/2000/svg" viewBox="0 0 90 90" fill="currentColor"><path d="M11.76,55.48C10.35,53.92,9.34,50.25,8.76,49.52C7.76,48.27,5.94,46.65,3.65,44.97C0.95,43,0.57,40.21,1.58,37.18L8.19,18.26C9.4,15.23,12.66,13.89,15.63,15.42C18.53,16.9,21.46,18.34,24.41,19.72L47.37,28.03L47.92,28.32C51.21,30.1,57.38,33.37,61.57,35.34C64.07,36.49,68.4,39.73,73.38,43.53C75.85,45.42,78.33,47.19,80.92,48.88C86.45,53.59,85.01,62.79,76.83,62.38C76.83,67.53,70.92,69.97,66.49,69C66.06,73.59,61.41,76.16,57.07,75.66C55.09,81.67,47.83,81.52,43.59,77.87C43.59,77.87,13.17,57.02,11.76,55.48ZM3.65,44.97C5.94,46.65,7.76,48.27,8.76,49.52C8.98,49.8,9.26,50.5,9.61,51.35C10.17,52.73,10.89,54.51,11.76,55.48C12,55.75,13.15,56.62,14.88,57.87L11.37,50.41C10.95,49.52,10.29,48.78,9.46,48.27L3.6,44.67C3.13,44.37,2.68,44.04,2.28,43.67C2.64,44.14,3.1,44.57,3.65,44.97ZM43.59,77.87C47.83,81.52,55.09,81.67,57.07,75.66C61.41,76.16,66.06,73.59,66.49,69C70.92,69.97,76.83,67.53,76.83,62.38C82.73,62.68,85.12,57.98,83.93,53.57C84.14,57.95,78.18,62.02,71.26,57.35C75.9,62.41,67.19,68.59,60.6,63.95C64.46,69.74,54.92,74.62,50.24,70.25C51.84,74.62,44.86,79.2,40.58,74.62L30.05,68.54C37.15,73.45,43.59,77.87,43.59,77.87ZM80.92,48.88C78.33,47.19,75.85,45.42,73.38,43.53C68.57,39.86,64.37,36.71,61.84,35.46L81.5,49.42C81.51,49.43,81.52,49.44,81.53,49.45C81.34,49.25,81.14,49.06,80.92,48.88ZM47.91,28.32L26.14,20.34C20.99,24.53,20.29,33.55,20.41,38.26C20.44,39.68,21.19,41.03,22.5,41.59C29.11,44.42,34.79,37.88,36.14,31.13C36.14,31.13,44.87,30.11,47.13,29.86C49.19,30.75,56.98,34.05,61.88,35.78L61.88,35.79C65.09,36.95,50.38,29.64,47.91,28.32ZM61.41,35.69C56.69,33.49,49.24,29.48,47.27,28.42C45,28.46,38.52,28.59,36.22,28.67C34.24,32.13,32.68,36.7,28.67,38.3C25.6,39.53,21.93,39.33,19.83,36.53C20.28,33.87,20.53,31.19,21.06,28.54C22.44,21.67,24,19.64,25.04,18.71C28.5,15.65,31.25,14.74,35.77,13.98C36.98,13.77,38.57,13.37,40.29,12.94C44.24,11.94,48.32,10.91,51.11,10.91C51.91,10.91,52.57,10.99,53.15,11.16C55.62,11.88,61.14,13.42,64.47,14.08C66.27,14.43,68.14,15.23,69.79,15.95C70.92,16.44,72.32,17.04,72.89,17.08C73.57,17.03,76.1,15.82,77.45,15.18C80.29,13.85,83.64,15.62,84.37,18.63L90.66,38.19C91.58,41.06,89.95,43.7,88.54,44.64C86.17,46.2,83.97,47.94,81.61,49.49C81.61,49.49,77.94,47.15,73.04,43.42L73.05,43.42C69.01,40.34,64.08,36.93,61.41,35.69ZM25.04,18.71C28.5,15.65,31.25,14.74,35.77,13.98C36.84,13.79,38.21,13.46,39.71,13.09C39.9,13.04,40.09,12.99,40.29,12.94L40.36,12.93C44.29,11.93,48.33,10.91,51.11,10.91C51.91,10.91,52.57,10.99,53.15,11.16C55.62,11.88,61.14,13.42,64.47,14.08C66.27,14.43,68.14,15.23,69.79,15.95C70.92,16.44,72.32,17.04,72.89,17.08C73.55,17.03,75.95,15.9,77.32,15.24L77.45,15.18C80.29,13.85,83.64,15.62,84.37,18.63L90.66,38.19C90.75,38.48,90.82,38.76,90.86,39.05L82.61,19.37C81.66,17.12,78.94,16.23,76.85,17.5L73.4,19.6L66.17,16.05L54.04,13.43C52.47,13.09,50.85,13.13,49.3,13.55L36.5,17.03C32.87,18.02,30.1,20.96,29.34,24.65L28.26,29.84L25.99,28.16C25.21,27.58,24.23,27.33,23.27,27.45C22.41,27.56,21.65,27.95,21.07,28.53C22.44,21.67,24,19.64,25.04,18.71ZM49.97,26.45C45.82,26.31,36.21,28.66,36.21,28.66C38.51,28.59,45,28.45,47.26,28.41C49.23,29.48,56.67,33.48,61.4,35.68C64.07,36.93,69,40.33,73.04,43.41C73.04,43.41,82.05,33.15,74.84,33.95L74.84,33.96C63.34,35.24,54.11,26.61,49.97,26.45ZM27.65,36.78L27.41,37.86C27.25,38.58,26.74,39.16,26.07,39.41L24.92,39.83C23.07,40.51,21,39.82,19.93,38.15C19.7,37.81,19.62,37.39,19.7,36.98L19.93,35.86C21.61,37.54,24.08,38.08,26.29,37.27ZM81.6,49.49L83.31,48.37C83.39,48.3,84.13,47.52,88.53,44.64C88.84,44.43,89.07,44.23,89.29,44.02C85.94,44.98,77.28,46.53,77.27,46.53L77.27,46.52C79.89,48.39,81.6,49.49,81.6,49.49ZM23.87,73.24C20.86,74.12,16.31,70.58,15.71,67.34C10.81,67.52,9.06,62.18,9.93,58.24C10.6,55.2,13.47,52.04,17.12,52.04C19.74,52.04,21.99,53.81,22.99,56.18C26.25,55.29,29.99,56.62,31.11,60.04C35.57,59.11,39.24,62.88,38.91,67.34C43.52,68.11,45.58,72.46,44.51,76.83C43.05,82.73,35.8,82.59,33.07,78.28C29.95,80.16,24.34,77.24,23.87,73.24ZM23.87,73.24C20.86,74.12,16.31,70.58,15.71,67.34C10.81,67.52,9.06,62.18,9.93,58.24C10.6,55.2,13.47,52.04,17.12,52.04C19.74,52.04,21.99,53.81,22.99,56.18C26.25,55.29,29.99,56.62,31.11,60.04C35.57,59.11,39.24,62.88,38.91,67.34C43.52,68.11,45.58,72.46,44.51,76.83C43.05,82.73,35.8,82.59,33.07,78.28C29.95,80.16,24.34,77.24,23.87,73.24ZM38.9,67.35C39,67.36,39.1,67.38,39.2,67.39C41.53,67.87,43.18,69.29,44.05,71.15C44.23,71.72,44.31,72.32,44.3,72.96C43.56,81.16,32.79,78.88,34.76,72.38C30.59,76.78,24.69,72.88,26.41,66.54C24.1,69.91,16.95,68.45,18.68,62.71C14.1,65.02,9.96,61.47,10.64,57.13C10.72,56.63,10.86,56.1,11.07,55.59C12.38,53.6,14.56,52.04,17.12,52.04C17.95,52.04,18.75,52.22,19.49,52.54C21.04,53.41,22.4,54.82,22.98,56.19C23.45,56.06,23.94,55.97,24.44,55.93C26.85,55.76,29.28,56.74,30.55,58.82C30.77,59.2,30.95,59.62,31.09,60.05C31.84,59.9,32.59,59.87,33.32,59.96C36.48,60.4,38.83,63.21,38.93,66.57C38.93,66.82,38.92,67.09,38.9,67.35ZM38.32,68.3C38.32,61.04,33.14,60.76,30.73,61.23C30.27,57.45,24.87,55.84,22.13,57.55C21.05,52.16,15.96,51.5,13.3,53.32L13.31,53.26C14.4,52.51,15.69,52.04,17.09,52.04C17.98,52.04,18.82,52.24,19.59,52.6C20.91,53.36,22.08,54.51,22.73,55.69C22.81,55.85,22.89,56.01,22.96,56.18L22.97,56.18L22.98,56.19C23.49,56.05,24.02,55.96,24.55,55.92C27.35,55.77,30.14,57.17,31.08,60.04L31.09,60.04L31.09,60.05C31.78,59.91,32.47,59.88,33.15,59.94C36.62,60.34,39.16,63.59,38.88,67.34L38.9,67.34L38.9,67.35C38.96,67.36,39.03,67.37,39.09,67.38C41.54,67.85,43.24,69.35,44.1,71.31C44.13,71.42,44.16,71.53,44.18,71.64C42.93,69.56,40.23,68.3,38.32,68.3ZM12.3,55.15C13.96,57.42,16.42,58.97,19.2,59.47L19.35,59.5C16.43,61.23,12.77,59.41,12.4,56.06ZM20.19,60.26C21.85,62.54,24.32,64.09,27.09,64.59L27.24,64.62C24.32,66.34,20.66,64.53,20.29,61.18ZM28.01,65.34C29.67,67.61,32.14,69.16,34.92,69.66L35.06,69.69C32.15,71.42,28.48,69.6,28.11,66.25ZM35.68,70.31C37.34,72.59,39.81,74.13,42.59,74.64L42.73,74.66C39.82,76.39,36.15,74.58,35.78,71.22Z"/></svg>