<svg xmlns="http://www.w3.org/2000/svg" viewBox="0 0 90 90"><path d="M27.21,29.41L16.54,29.41L16.54,43.71L3.75,43.71L3.75,3.75L16.54,3.75L16.54,17.53L27.21,17.53L27.21,3.75L39.99,3.75L39.99,43.71L27.21,43.71Z" fill="currentColor"/><path d="M34.63,38.56L28.45,38.56L28.45,24.27L11.18,24.27L11.18,38.56L4.99,38.56L4.99,5.21L11.18,5.21L11.18,18.98L28.42,18.98L28.42,5.21L34.6,5.21L34.63,5.21Z" fill="currentColor"/><path d="M51.98,29.82L36.34,3.92L50.66,3.92L58.58,17.09L66.59,3.92L80.39,3.92L64.8,29.74L64.8,43.87L51.98,43.87Z" fill="currentColor"/><path d="M61.09,39.55L54.9,39.55L54.9,27.87L41.78,6.2L48.41,6.2L58.17,22.45L68.05,6.2L74.15,6.2L61.09,27.79Z" fill="currentColor"/><path d="M73.63,7.05L74.12,6.2L68.05,6.2L58.17,22.45L58.86,23.61L68.76,7.05Z" fill="currentColor"/><path d="M48.91,7.05L48.41,6.2L41.78,6.2L54.87,27.89L54.87,39.58L55.95,39.58L55.89,27.7L43.43,7.05Z" fill="currentColor"/><path d="M3.75,46.27L20.77,46.27C24.1,46.27,27.1,46.84,29.66,47.97C32.41,49.18,34.55,50.99,36.03,53.3C37.52,55.64,38.29,58.37,38.29,61.42C38.29,64.47,37.55,67.17,36.06,69.5C34.58,71.84,32.43,73.66,29.68,74.86C27.13,76.02,24.13,76.57,20.77,76.57L16.54,76.57L16.54,86.19L3.75,86.19L3.75,86.22Z" fill="currentColor"/><path d="M24.57,63.76C24.98,63.42,25.45,62.85,25.45,61.39C25.45,59.93,24.98,59.38,24.57,59.02C23.8,58.39,22.39,58.06,20.5,58.06L16.57,58.06L16.57,64.72L20.5,64.72L20.5,64.75C22.37,64.75,23.77,64.42,24.57,63.76Z" fill="currentColor"/><path d="M32.29,54.21C33.45,56,34,58.12,34,60.56C34,63.01,33.42,65.08,32.29,66.89C31.17,68.7,29.52,70.05,27.37,71.02C25.23,71.98,22.7,72.44,19.81,72.44L12.27,72.44L12.27,82.07L6.09,82.07L6.09,48.71L19.81,48.71C22.7,48.71,25.23,49.18,27.37,50.14L27.37,50.12C29.52,51.08,31.17,52.42,32.29,54.21Z" fill="currentColor"/><path d="M27.76,60.54C27.76,58.39,27.07,56.77,25.67,55.62C24.26,54.46,22.23,53.91,19.51,53.91L12.25,53.91L12.25,67.17L19.51,67.17C22.2,67.17,24.26,66.59,25.67,65.43L25.67,65.46C27.07,64.31,27.76,62.68,27.76,60.54Z" fill="currentColor"/><path d="M19.51,67.19L12.25,67.19L12.25,68.1L19.92,68.1C22.62,68.1,24.68,67.52,26.08,66.37C27.48,65.21,28.17,63.59,28.17,61.45C28.17,60.15,27.84,59.11,27.32,58.2C27.57,58.91,27.76,59.69,27.76,60.56C27.76,62.71,27.07,64.33,25.67,65.49L25.67,65.46C24.27,66.61,22.23,67.19,19.51,67.19Z" fill="currentColor"/><path d="M28.47,51.08C29.35,51.46,30.07,51.96,30.78,52.48C29.82,51.55,28.75,50.72,27.37,50.12C25.23,49.18,22.7,48.69,19.81,48.69L6.09,48.69L6.09,82.04L7.19,82.04L7.19,49.65L20.91,49.65C23.8,49.65,26.33,50.12,28.47,51.08Z" fill="currentColor"/><path d="M34.99,46.24L65.95,46.24L65.95,58.01L47.78,58.01L47.78,60.1L63.89,60.1L63.89,71.78L47.78,71.78L47.78,74.4L66.61,74.4L66.61,86.19L34.99,86.19Z" fill="currentColor"/><path d="M61.25,81.05L36.23,81.05L36.23,47.69L60.59,47.69L60.59,52.89L42.44,52.89L42.44,61.58L58.56,61.58L58.56,66.67L42.44,66.67L42.44,75.85L61.28,75.85L61.25,75.85Z" fill="currentColor"/><path d="M60.56,47.67L36.23,47.67L36.23,81.05L37.11,81.05L37.11,48.66L60.56,48.66Z" fill="currentColor"/><path d="M42.41,61.56L42.41,62.52L58.53,62.52L58.53,61.56Z" fill="currentColor"/><path d="M42.41,75.86L42.41,76.82L61.25,76.82L61.25,75.86Z" fill="currentColor"/><path d="M69.31,83.28C67.96,81.71,67.33,79.7,67.52,77.56C67.71,75.39,68.7,73.57,70.38,72.25C71.78,71.13,73.46,70.55,75.33,70.55C75.61,70.55,75.91,70.55,76.18,70.58C78.33,70.77,80.17,71.7,81.52,73.27C82.89,74.86,83.5,76.84,83.31,78.99C83.11,81.14,82.15,82.98,80.53,84.3C79.13,85.45,77.42,86.08,75.55,86.08L74.75,86.08L74.75,86.06C72.53,85.86,70.66,84.9,69.31,83.28Z" fill="currentColor"/><path d="M70.38,78.03C70.49,76.76,71.04,75.75,72,74.97C72.97,74.2,74.09,73.9,75.44,74.01C76.79,74.12,77.78,74.64,78.58,75.58C79.38,76.52,79.7,77.59,79.59,78.85C79.48,80.12,78.96,81.14,78,81.93C77.06,82.73,75.94,83.06,74.64,82.92C73.35,82.78,72.22,82.26,71.43,81.33C70.63,80.39,70.27,79.29,70.38,78.03Z" fill="currentColor"/><path d="M71.4,22.39L86.25,23.74L80.64,67.58L68.92,66.5Z" fill="currentColor"/><path d="M80.47,24.87L75.72,62.16L70.33,61.66L72.42,24.16Z" fill="currentColor"/><path d="M76.19,74.86C77.23,74.95,78.08,75.39,78.8,75.99C78.72,75.86,78.69,75.72,78.58,75.58C77.78,74.64,76.74,74.15,75.44,74.01C74.1,73.9,72.94,74.2,72.01,74.97C71.04,75.75,70.52,76.76,70.38,78.03C70.27,79.29,70.6,80.39,71.43,81.33C71.57,81.52,71.79,81.6,71.95,81.74C71.37,80.89,71.04,79.95,71.15,78.85C71.26,77.59,71.81,76.57,72.78,75.8L72.75,75.83C73.71,75.06,74.84,74.75,76.19,74.86Z" fill="currentColor"/><path d="M80.47,24.87L72.42,24.16L70.33,61.66L71.29,61.75L73.32,25.34L80.34,25.97Z" fill="currentColor"/><path d="M11.18,18.98L11.18,19.75L29.13,19.75L29.13,18.98Z" fill="currentColor"/><path d="M11.18,6.12L11.18,5.21L4.99,5.21L4.99,38.56L5.68,38.56L5.68,6.12Z" fill="currentColor"/><path d="M28.42,18.98L29.13,18.98L29.13,6.12L34.63,6.12L34.63,5.21L28.42,5.21Z" fill="currentColor"/><path d="M28.42,24.18L28.42,38.56L29.13,38.56L29.13,24.18Z" fill="currentColor"/></svg>