<svg xmlns="http://www.w3.org/2000/svg" viewBox="0 0 90 90" fill="currentColor"><path d="M28.21,30.41L17.54,30.41L17.54,44.71L4.75,44.71L4.75,4.75L17.54,4.75L17.54,18.53L28.21,18.53L28.21,4.75L40.99,4.75L40.99,44.71L28.21,44.71ZM35.63,39.56L29.45,39.56L29.45,25.27L12.18,25.27L12.18,39.56L5.99,39.56L5.99,6.21L12.18,6.21L12.18,19.98L29.42,19.98L29.42,6.21L35.6,6.21L35.63,6.21ZM52.98,30.82L37.34,4.92L51.66,4.92L59.58,18.09L67.59,4.92L81.39,4.92L65.8,30.74L65.8,44.87L52.98,44.87ZM62.09,40.55L55.9,40.55L55.9,28.87L42.78,7.2L49.41,7.2L59.17,23.45L69.05,7.2L75.15,7.2L62.09,28.79ZM74.63,8.05L75.12,7.2L69.05,7.2L59.17,23.45L59.86,24.61L69.76,8.05ZM49.91,8.05L49.41,7.2L42.78,7.2L55.87,28.89L55.87,40.58L56.95,40.58L56.89,28.7L44.43,8.05ZM4.75,47.27L21.77,47.27C25.1,47.27,28.1,47.84,30.66,48.97C33.41,50.18,35.55,51.99,37.03,54.3C38.52,56.64,39.29,59.37,39.29,62.42C39.29,65.47,38.55,68.17,37.06,70.5C35.58,72.84,33.43,74.66,30.68,75.86C28.13,77.02,25.13,77.57,21.77,77.57L17.54,77.57L17.54,87.19L4.75,87.19L4.75,87.22ZM25.57,64.75C25.98,64.42,26.45,63.85,26.45,62.39C26.45,60.93,25.98,60.38,25.57,60.02C24.8,59.39,23.39,59.06,21.5,59.06L17.57,59.06L17.57,65.72L21.5,65.72L21.5,65.75C23.37,65.75,24.77,65.42,25.57,64.75ZM33.29,55.21C34.45,57,35,59.12,35,61.56C35,64.01,34.42,66.08,33.29,67.89C32.17,69.7,30.52,71.05,28.37,72.02C26.23,72.98,23.7,73.44,20.81,73.44L13.27,73.44L13.27,83.07L7.09,83.07L7.09,49.71L20.81,49.71C23.7,49.71,26.23,50.18,28.37,51.14L28.37,51.12C30.52,52.08,32.17,53.42,33.29,55.21ZM28.76,61.54C28.76,59.39,28.07,57.77,26.67,56.62C25.26,55.46,23.23,54.91,20.51,54.91L13.25,54.91L13.25,68.17L20.51,68.17C23.2,68.17,25.26,67.59,26.67,66.43L26.67,66.46C28.07,65.31,28.76,63.68,28.76,61.54ZM20.51,68.19L13.25,68.19L13.25,69.1L20.92,69.1C23.62,69.1,25.68,68.52,27.08,67.37C28.48,66.21,29.17,64.59,29.17,62.45C29.17,61.15,28.84,60.11,28.32,59.2C28.57,59.91,28.76,60.69,28.76,61.56C28.76,63.71,28.07,65.33,26.67,66.49L26.67,66.46C25.27,67.61,23.23,68.19,20.51,68.19ZM29.47,52.08C30.35,52.46,31.07,52.96,31.78,53.48C30.82,52.55,29.75,51.72,28.37,51.12C26.23,50.18,23.7,49.69,20.81,49.69L7.09,49.69L7.09,83.04L8.19,83.04L8.19,50.65L21.91,50.65C24.8,50.65,27.33,51.12,29.47,52.08ZM35.99,47.24L66.95,47.24L66.95,59.01L48.78,59.01L48.78,61.1L64.89,61.1L64.89,72.78L48.78,72.78L48.78,75.4L67.61,75.4L67.61,87.19L35.99,87.19ZM62.25,82.05L37.23,82.05L37.23,48.69L61.59,48.69L61.59,53.89L43.44,53.89L43.44,62.58L59.56,62.58L59.56,67.67L43.44,67.67L43.44,76.85L62.28,76.85L62.25,76.85ZM61.56,48.67L37.23,48.67L37.23,82.05L38.11,82.05L38.11,49.66L61.56,49.66ZM43.41,62.56L43.41,63.52L59.53,63.52L59.53,62.56ZM43.41,76.86L43.41,77.82L62.25,77.82L62.25,76.86ZM70.31,84.28C68.96,82.71,68.33,80.7,68.52,78.56C68.71,76.39,69.7,74.57,71.38,73.25C72.78,72.13,74.46,71.55,76.33,71.55C76.61,71.55,76.91,71.55,77.18,71.58C79.33,71.77,81.17,72.7,82.52,74.27C83.89,75.86,84.5,77.84,84.31,79.99C84.11,82.14,83.15,83.98,81.53,85.3C80.13,86.45,78.42,87.08,76.55,87.08L75.75,87.08L75.75,87.06C73.53,86.86,71.66,85.9,70.31,84.28ZM71.38,79.03C71.49,77.76,72.04,76.75,73,75.97C73.97,75.2,75.09,74.9,76.44,75.01C77.79,75.12,78.78,75.64,79.58,76.58C80.38,77.52,80.7,78.59,80.59,79.85C80.48,81.12,79.96,82.14,79,82.93C78.06,83.73,76.94,84.06,75.64,83.92C74.35,83.78,73.22,83.26,72.43,82.33C71.63,81.39,71.27,80.29,71.38,79.03ZM72.4,23.39L87.25,24.74L81.64,68.58L69.92,67.5ZM81.47,25.87L76.72,63.16L71.33,62.66L73.42,25.16ZM77.19,75.86C78.23,75.95,79.08,76.39,79.8,76.99C79.72,76.86,79.69,76.72,79.58,76.58C78.78,75.64,77.74,75.15,76.44,75.01C75.1,74.9,73.94,75.2,73.01,75.97C72.04,76.75,71.52,77.76,71.38,79.03C71.27,80.29,71.6,81.39,72.43,82.33C72.57,82.52,72.79,82.6,72.95,82.74C72.37,81.89,72.04,80.95,72.15,79.85C72.26,78.59,72.81,77.57,73.78,76.8L73.75,76.83C74.71,76.06,75.84,75.75,77.19,75.86ZM81.47,25.87L73.42,25.16L71.33,62.66L72.29,62.75L74.32,26.34L81.34,26.97ZM12.18,19.98L12.18,20.75L30.13,20.75L30.13,19.98ZM12.18,7.12L12.18,6.21L5.99,6.21L5.99,39.56L6.68,39.56L6.68,7.12ZM29.42,19.98L30.13,19.98L30.13,7.12L35.63,7.12L35.63,6.21L29.42,6.21ZM29.42,25.18L29.42,39.56L30.13,39.56L30.13,25.18Z"/></svg>