<svg xmlns="http://www.w3.org/2000/svg" viewBox="0 0 90 90"><path d="M13,5C8.58,5,5,8.58,5,13L5,77C5,81.42,8.58,85,13,85L77,85C81.42,85,85,81.42,85,77L85,13C85,8.58,81.42,5,77,5Z" fill="#312E2B"/><path d="M13,5C8.58,5,5,8.58,5,13L5,73C5,77.42,8.58,81,13,81L77,81C81.42,81,85,77.42,85,73L85,13C85,8.58,81.42,5,77,5Z" fill="#4B4847"/><path d="M79.31,50.53L85,12L85,73C85,77.42,81.42,81,77,81L14,81L53.48,75.91C66.8,74.19,77.35,63.82,79.31,50.53Z" fill="#666564" opacity="0.2"/><path d="M5,13C5,8.58,8.58,5,13,5L75,5L16.31,6.73C11.06,6.88,6.83,11.06,6.61,16.31L5,55Z" fill="#666564"/><path d="M85,73C85,77.42,81.42,81,77,81L54,81L73.3,78.86C77.83,78.35,81.45,74.85,82.1,70.33L85,50Z" fill="#666564"/><path d="M77,5C81.42,5,85,8.58,85,13L85,77C85,81.42,81.42,85,77,85L45,85L45,5Z" fill="#8B8987"/><path d="M77,5C81.42,5,85,8.58,85,13L85,73C85,77.42,81.42,81,77,81L45,81L45,5Z" fill="#E7E6E5"/><path d="M85,13L85,73C85,73.14,85,73.28,84.99,73.41C84.78,77.5,81.5,80.78,77.41,80.99C77.28,81,77.14,81,77,81L45,81L45,77L53.48,75.91C66.8,74.19,77.35,63.82,79.32,50.53L84.96,12.25C84.99,12.49,85,12.75,85,13Z" fill="#F1F1F1" opacity="0.2"/><path d="M45,5L75,5L45,5.88Z" fill="#F1F1F1"/><path d="M85,73C85,77.42,81.42,81,77,81L54,81L73.3,78.86C77.83,78.35,81.45,74.85,82.1,70.33L85,50Z" fill="#F1F1F1"/><path d="M18.04,62.39C16.03,60.93,14.45,58.8,13.3,55.99C12.16,53.18,11.59,49.79,11.59,45.8C11.59,41.81,12.16,38.42,13.3,35.61C14.45,32.8,16.03,30.69,18.04,29.26C20.05,27.81,22.37,27.08,25,27.08C27.6,27.08,29.91,27.81,31.92,29.26C33.97,30.69,35.56,32.8,36.7,35.61C37.88,38.42,38.47,41.81,38.47,45.8C38.47,49.79,37.88,53.18,36.7,55.99C35.56,58.8,33.97,60.93,31.92,62.39C29.91,63.81,27.6,64.52,25,64.52C22.37,64.52,20.05,63.81,18.04,62.39Z" fill="#312E2B"/><path d="M27.6,55.68C28.33,54.92,28.89,53.74,29.27,52.14C29.65,50.51,29.84,48.4,29.84,45.8C29.84,43.2,29.65,41.1,29.27,39.51C28.89,37.88,28.33,36.68,27.6,35.92C26.91,35.16,26.04,34.78,25,34.78C23.96,34.78,23.08,35.16,22.35,35.92C21.66,36.68,21.12,37.88,20.74,39.51C20.36,41.1,20.17,43.2,20.17,45.8C20.17,48.4,20.36,50.51,20.74,52.14C21.12,53.74,21.66,54.92,22.35,55.68C23.08,56.44,23.95,56.82,24.95,56.82C26.03,56.82,26.91,56.44,27.6,55.68Z" fill="#312E2B"/><path d="M72.58,33.79L55.52,41.17L55.52,32.54L66.81,27.6L72.63,27.6L72.63,64L63.53,64L63.53,29.89Z" fill="#BEBDB9"/><path d="M18.04,59.39C16.03,57.93,14.45,55.8,13.3,52.99C12.16,50.18,11.59,46.79,11.59,42.8C11.59,38.81,12.16,35.42,13.3,32.61C14.45,29.8,16.03,27.69,18.04,26.26C20.05,24.81,22.37,24.08,25,24.08C27.6,24.08,29.91,24.81,31.92,26.26C33.97,27.69,35.56,29.8,36.7,32.61C37.88,35.42,38.47,38.81,38.47,42.8C38.47,46.79,37.88,50.18,36.7,52.99C35.56,55.8,33.97,57.93,31.92,59.39C29.91,60.81,27.6,61.52,25,61.52C22.37,61.52,20.05,60.81,18.04,59.39Z" fill="#F1F1F1"/><path d="M27.6,52.68C28.33,51.92,28.89,50.74,29.27,49.14C29.65,47.51,29.84,45.4,29.84,42.8C29.84,40.2,29.65,38.1,29.27,36.51C28.89,34.88,28.33,33.68,27.6,32.92C26.91,32.16,26.04,31.78,25,31.78C23.96,31.78,23.08,32.16,22.35,32.92C21.66,33.68,21.12,34.88,20.74,36.51C20.36,38.1,20.17,40.2,20.17,42.8C20.17,45.4,20.36,47.51,20.74,49.14C21.12,50.74,21.66,51.92,22.35,52.68C23.08,53.44,23.95,53.82,24.95,53.82C26.03,53.82,26.91,53.44,27.6,52.68Z" fill="#F1F1F1"/><path d="M72.58,30.79L55.52,38.17L55.52,29.54L66.81,24.6L72.63,24.6L72.63,61L63.53,61L63.53,26.89Z" fill="#4B4847"/></svg>