<svg xmlns="http://www.w3.org/2000/svg" viewBox="0 0 90 90" fill="currentColor"><path d="M15.92,69.02L15.45,68.41L15.89,67.78L21.44,60.85L18.17,57.58L11.57,61.84L10.91,62.17L10.39,61.65C8.44,59.7,7.06,57.38,6.26,54.8L6.07,54.14L6.59,53.7L14.65,46.88L14.65,46.85C17.68,44.54,20.7,44.27,24.36,45.95C27.16,42.4,40.28,25.79,43.33,21.83C39.24,15.23,42.76,11.71,46.83,7.69L47.43,7.09L48.17,6.34L48.92,7.09L84.89,43.06L85.63,43.8L84.89,44.54L84.28,45.15C80.24,49.19,76.75,52.74,70.12,48.64C66.16,51.72,49.55,64.84,46,67.61C47.68,71.27,47.4,74.3,45.09,77.32L45.09,77.35L38.27,85.38L37.83,85.9L37.17,85.71C34.56,84.94,32.25,83.54,30.33,81.58L29.8,81.06L30.13,80.4L34.4,73.8L31.12,70.53L24.19,76.09L23.56,76.53L22.96,76.06C22.96,76.06,20.73,74.46,19.11,72.84L19.13,72.87C17.51,71.25,16,69.13,15.92,69.02ZM43,13.94L42.78,13.72C39.76,18.17,47.65,26.92,47.65,26.92L65.03,44.3C65.03,44.3,73.94,52.63,78.28,49.22L78.06,49C78.06,49,74.65,49.11,58.79,33.21C42.89,17.32,43,13.94,43,13.94ZM46.85,72.21C48.56,75.53,37.61,86.37,37.61,86.37C37.61,86.37,29.61,82.24,31.51,82.6C38.19,83.84,46.85,72.21,46.85,72.21ZM31.84,70.09C29.77,72.67,22.95,76.36,22.95,76.36C22.95,76.36,16.96,70.17,18.45,71.19L18.47,71.19C23.7,74.79,31.84,70.09,31.84,70.09ZM19,57.22C17.07,59.14,10,62.2,10,62.2C10,62.2,6.4,57.55,8.02,58.07L8.02,58.05C12.39,59.39,19,57.22,19,57.22ZM6.54,54.03L7.39,57.85C11.93,54.61,18.78,49.41,22.35,49.63C25.62,49.85,28.26,50.98,28.62,51.17C29.06,51.75,29.69,51.39,30.22,52.02C35.08,57.85,43,64.62,43,64.62C43,64.62,34.64,57.22,35.66,48.12C36.68,39.1,47.21,27.69,47.21,27.69C45.07,24.55,43.64,22.05,43.64,22.05L24.94,45.73C24.94,45.73,22.32,45.64,21.83,45.12L21.86,45.15C18.03,41.13,6.54,54.03,6.54,54.03ZM23.61,75.23L31.26,69.18L35.66,73.58L31.07,80.87C32.91,82.71,35.05,83.98,37.5,84.72L44.32,76.69C46.27,74.11,46.88,71.44,44.73,67.31C44.73,67.31,67.34,49.47,70.09,47.35C76.69,51.8,79.63,48.34,84.17,43.8L48.2,7.83C43.66,12.37,40.2,15.28,44.65,21.91C42.53,24.69,24.69,47.27,24.69,47.27C20.59,45.12,17.89,45.73,15.31,47.68L7.28,54.5C8.02,56.95,9.29,59.09,11.13,60.93L18.42,56.34L22.82,60.74L16.77,68.39C16.77,68.39,18.31,70.53,19.88,72.13C21.44,73.69,23.61,75.23,23.61,75.23ZM15.06,69.62L14.15,68.36L15.12,67.12L20.01,60.93L18.09,59.01L12.23,62.72L10.83,63.6L9.64,62.42C7.58,60.36,6.1,57.88,5.27,55.1L4.89,53.78L5.93,52.9L14.04,46.03C17.21,43.64,20.34,43.2,24.05,44.68C27.49,40.34,38.6,26.25,42.09,21.77C38.19,14.84,42.2,10.83,46.11,6.95L46.72,6.34L48.2,4.86L49.69,6.34L85.66,42.31L87.14,43.8L85.66,45.28L85.05,45.89C81.17,49.8,77.16,53.81,70.23,49.91C65.72,53.42,51.66,64.53,47.32,67.94C48.8,71.66,48.37,74.82,45.92,78.04L39.07,86.07L38.19,87.11L36.9,86.73C34.12,85.9,31.67,84.42,29.58,82.36L28.4,81.17L29.28,79.77L32.99,73.91L31.07,71.99L24.88,76.88L23.64,77.84L22.38,76.94C22.38,76.94,20.07,75.29,18.39,73.61C16.71,71.93,15.12,69.7,15.06,69.62ZM71.05,47.98L69.93,49.71C69.16,49.24,68.33,48.7,67.48,48.03C63.77,45.17,59.72,41.52,55.1,36.9C50.48,32.28,46.85,28.23,43.97,24.52C43.33,23.7,42.81,22.93,42.37,22.19L44.08,20.97C44.49,21.69,45.01,22.43,45.64,23.23C48.59,27.02,52.24,31.07,56.59,35.41C60.93,39.76,64.98,43.44,68.77,46.36L68.74,46.38C69.57,47.02,70.34,47.54,71.05,47.98ZM87.25,64.37L64.37,87.25L4.75,27.63L27.63,4.75ZM33.05,17.21L20.78,29.47L16.3,24.99C16.13,24.85,15.94,24.74,15.72,24.74C15.5,24.74,15.28,24.82,15.14,24.99L12.15,27.99C11.82,28.32,11.82,28.84,12.15,29.14L25.95,42.95C26.12,43.11,26.31,43.19,26.53,43.19C26.75,43.19,26.94,43.11,27.11,42.95L30.1,39.95C30.27,39.78,30.35,39.59,30.35,39.37C30.35,39.15,30.27,38.93,30.1,38.79L25.62,34.31L37.89,22.05C38.22,21.72,38.22,21.19,37.89,20.89L34.23,17.23C34.06,17.07,33.87,16.99,33.65,16.99L33.62,16.96C33.4,16.96,33.21,17.04,33.05,17.21ZM15.7,25.57L12.7,28.54L26.5,42.34L29.5,39.37L24.44,34.31L37.28,21.44L33.63,17.78L20.75,30.63ZM46.14,30.3L30.3,46.14C29.97,46.47,29.97,46.99,30.3,47.29L33.95,50.95C34.12,51.09,34.31,51.2,34.53,51.2C34.75,51.2,34.97,51.12,35.11,50.95L50.95,35.11C51.12,34.95,51.2,34.75,51.2,34.53C51.2,34.31,51.12,34.09,50.95,33.95L47.29,30.3C47.13,30.13,46.94,30.05,46.72,30.05C46.5,30.05,46.3,30.13,46.14,30.3ZM34.53,50.37L50.37,34.53L46.72,30.88L30.88,46.72ZM55.13,39.29L39.29,55.13C39.13,55.29,39.04,55.49,39.04,55.71C39.04,55.93,39.13,56.15,39.29,56.28L42.95,59.94C43.11,60.11,43.3,60.19,43.52,60.19C43.74,60.19,43.94,60.11,44.1,59.94L56.37,47.68L63.74,55.05C63.9,55.18,64.09,55.29,64.31,55.29C64.53,55.29,64.75,55.21,64.89,55.05L67.89,52.05C68.22,51.72,68.22,51.2,67.89,50.89L56.28,39.29C56.12,39.15,55.93,39.04,55.71,39.04C55.49,39.04,55.27,39.12,55.13,39.29ZM43.55,59.39L56.39,46.52L64.34,54.47L67.31,51.47L55.71,39.87L39.87,55.71ZM70.31,54.47L58.05,66.73L53.56,62.25C53.4,62.11,53.21,62,52.99,62C52.77,62,52.55,62.09,52.41,62.25L49.41,65.25C49.25,65.41,49.16,65.61,49.16,65.83C49.16,66.05,49.25,66.27,49.41,66.41L63.22,80.21C63.38,80.38,63.57,80.46,63.79,80.46C64.01,80.46,64.21,80.38,64.37,80.21L67.37,77.21C67.53,77.05,67.62,76.86,67.62,76.63C67.62,76.41,67.53,76.19,67.37,76.06L62.89,71.58L75.15,59.31C75.48,58.98,75.48,58.46,75.15,58.16L71.49,54.5C71.33,54.33,71.14,54.25,70.92,54.25L70.89,54.22C70.67,54.22,70.48,54.3,70.31,54.47ZM52.96,62.83L49.96,65.8L63.77,79.61L66.76,76.63L61.7,71.55L74.55,58.7L70.89,55.05L58.02,67.89Z"/></svg>