<svg xmlns="http://www.w3.org/2000/svg" viewBox="0 0 90 90"><path d="M14.92,21.98L14.45,22.59L14.89,23.22L20.44,30.15L17.17,33.42L10.57,29.16L9.91,28.83L9.39,29.35C7.44,31.3,6.06,33.62,5.26,36.2L5.07,36.86L5.59,37.3L13.65,44.12L13.65,44.15C16.68,46.46,19.7,46.73,23.36,45.05C26.16,48.6,39.28,65.21,42.33,69.17C38.24,75.77,41.76,79.29,45.83,83.31L46.43,83.91L47.17,84.66L47.92,83.91L83.89,47.94L84.63,47.2L83.89,46.46L83.28,45.85C79.24,41.81,75.75,38.26,69.12,42.36C65.16,39.28,48.55,26.16,45,23.39C46.68,19.73,46.4,16.7,44.09,13.68L44.09,13.65L37.27,5.62L36.83,5.1L36.17,5.29C33.56,6.06,31.25,7.46,29.33,9.42L28.8,9.94L29.13,10.6L33.4,17.2L30.12,20.47L23.19,14.91L22.56,14.47L21.96,14.94C21.96,14.94,19.73,16.54,18.11,18.16L18.13,18.13C16.51,19.75,15,21.87,14.92,21.98Z" fill="currentColor"/><path d="M42,77.06L41.78,77.28C38.76,72.83,46.65,64.08,46.65,64.08L64.03,46.7C64.03,46.7,72.94,38.37,77.28,41.78L77.06,42C77.06,42,73.65,41.89,57.79,57.79C41.89,73.68,42,77.06,42,77.06Z" fill="currentColor"/><path d="M45.85,18.79C47.56,15.46,36.61,4.63,36.61,4.63C36.61,4.63,28.61,8.76,30.51,8.4C37.19,7.16,45.85,18.79,45.85,18.79Z" fill="currentColor"/><path d="M30.84,20.91C28.77,18.32,21.95,14.64,21.95,14.64C21.95,14.64,15.96,20.83,17.45,19.81L17.47,19.81C22.7,16.21,30.84,20.91,30.84,20.91Z" fill="currentColor"/><path d="M18,33.78C16.07,31.86,9,28.8,9,28.8C9,28.8,5.4,33.45,7.02,32.93L7.02,32.95C11.39,31.61,18,33.78,18,33.78Z" fill="currentColor"/><path d="M5.54,36.97L6.39,33.15C10.93,36.39,17.78,41.59,21.35,41.37C24.62,41.15,27.26,40.02,27.62,39.83C28.06,39.25,28.69,39.61,29.22,38.98C34.08,33.15,42,26.38,42,26.38C42,26.38,33.64,33.78,34.66,42.88C35.68,51.9,46.21,63.31,46.21,63.31C44.07,66.45,42.64,68.95,42.64,68.95L23.94,45.27C23.94,45.27,21.32,45.36,20.83,45.88L20.86,45.85C17.03,49.87,5.54,36.97,5.54,36.97Z" fill="currentColor"/><path d="M22.61,15.77L30.26,21.82L34.66,17.42L30.07,10.13C31.91,8.29,34.05,7.02,36.5,6.28L43.32,14.31C45.27,16.89,45.88,19.56,43.73,23.69C43.73,23.69,66.34,41.53,69.09,43.65C75.69,39.2,78.63,42.66,83.17,47.2L47.2,83.17C42.66,78.63,39.2,75.72,43.65,69.09C41.53,66.31,23.69,43.73,23.69,43.73C19.59,45.88,16.89,45.27,14.31,43.32L6.28,36.5C7.02,34.05,8.29,31.91,10.13,30.07L17.42,34.66L21.82,30.26L15.77,22.61C15.77,22.61,17.31,20.47,18.88,18.88C20.44,17.31,22.61,15.77,22.61,15.77Z" fill="currentColor"/><path d="M14.06,21.38L13.15,22.64L14.12,23.88L19.01,30.07L17.09,31.99L11.23,28.28L9.83,27.4L8.64,28.58C6.58,30.64,5.1,33.12,4.27,35.9L3.89,37.22L4.93,38.1L13.04,44.97C16.21,47.36,19.34,47.8,23.05,46.32C26.49,50.66,37.6,64.75,41.09,69.23C37.19,76.16,41.2,80.17,45.11,84.05L45.72,84.66L47.2,86.14L48.69,84.66L84.66,48.69L86.14,47.2L84.66,45.72L84.05,45.11C80.17,41.2,76.16,37.19,69.23,41.09C64.72,37.58,50.66,26.46,46.32,23.05C47.8,19.34,47.37,16.18,44.92,12.96L38.07,4.93L37.19,3.89L35.9,4.27C33.12,5.1,30.67,6.58,28.58,8.64L27.4,9.83L28.28,11.23L31.99,17.09L30.07,19.01L23.88,14.12L22.64,13.15L21.38,14.06C21.38,14.06,19.07,15.71,17.39,17.39C15.71,19.07,14.12,21.3,14.06,21.38Z" fill="currentColor"/><path d="M70.05,43.02L68.93,41.29C68.16,41.76,67.33,42.3,66.48,42.97C62.77,45.83,58.72,49.48,54.1,54.1C49.48,58.72,45.85,62.77,42.97,66.48C42.33,67.3,41.81,68.07,41.37,68.81L43.08,70.03C43.49,69.31,44.01,68.57,44.64,67.77C47.59,63.98,51.24,59.93,55.59,55.59C59.93,51.24,63.98,47.56,67.77,44.64L67.74,44.62C68.57,43.98,69.34,43.46,70.05,43.02Z" fill="currentColor"/><path d="M86.25,26.63L63.37,3.75L3.75,63.37L26.63,86.25Z" fill="currentColor"/><path d="M32.05,73.79L19.78,61.53L15.3,66.01C15.13,66.15,14.94,66.26,14.72,66.26C14.5,66.26,14.28,66.18,14.14,66.01L11.15,63.01C10.82,62.68,10.82,62.16,11.15,61.86L24.95,48.05C25.12,47.89,25.31,47.81,25.53,47.81C25.75,47.81,25.94,47.89,26.11,48.05L29.1,51.05C29.27,51.22,29.35,51.41,29.35,51.63C29.35,51.85,29.27,52.07,29.1,52.21L24.62,56.69L36.89,68.95C37.22,69.28,37.22,69.81,36.89,70.11L33.23,73.77C33.06,73.93,32.87,74.01,32.65,74.01L32.62,74.04C32.4,74.04,32.21,73.96,32.05,73.79Z" fill="currentColor"/><path d="M14.7,65.43L11.7,62.46L25.5,48.66L28.5,51.63L23.44,56.69L36.28,69.56L32.63,73.22L19.75,60.37Z" fill="currentColor"/><path d="M45.14,60.7L29.3,44.86C28.97,44.53,28.97,44.01,29.3,43.71L32.95,40.05C33.12,39.91,33.31,39.8,33.53,39.8C33.75,39.8,33.97,39.88,34.11,40.05L49.95,55.89C50.12,56.05,50.2,56.25,50.2,56.47C50.2,56.69,50.12,56.91,49.95,57.05L46.29,60.7C46.13,60.87,45.94,60.95,45.72,60.95C45.5,60.95,45.3,60.87,45.14,60.7Z" fill="currentColor"/><path d="M33.53,40.63L49.37,56.47L45.72,60.12L29.88,44.28Z" fill="currentColor"/><path d="M54.13,51.71L38.29,35.87C38.13,35.71,38.04,35.51,38.04,35.29C38.04,35.07,38.13,34.85,38.29,34.72L41.95,31.06C42.11,30.89,42.3,30.81,42.52,30.81C42.74,30.81,42.94,30.89,43.1,31.06L55.37,43.32L62.74,35.95C62.9,35.82,63.09,35.71,63.31,35.71C63.53,35.71,63.76,35.79,63.89,35.95L66.89,38.95C67.22,39.28,67.22,39.8,66.89,40.11L55.28,51.71C55.12,51.85,54.93,51.96,54.71,51.96C54.49,51.96,54.27,51.88,54.13,51.71Z" fill="currentColor"/><path d="M42.55,31.61L55.39,44.48L63.34,36.53L66.31,39.53L54.71,51.13L38.87,35.29Z" fill="currentColor"/><path d="M69.31,36.53L57.05,24.27L52.56,28.75C52.4,28.89,52.21,29,51.99,29C51.77,29,51.55,28.91,51.41,28.75L48.41,25.75C48.25,25.59,48.16,25.39,48.16,25.17C48.16,24.95,48.25,24.73,48.41,24.59L62.22,10.79C62.38,10.63,62.57,10.54,62.79,10.54C63.01,10.54,63.21,10.63,63.37,10.79L66.37,13.79C66.53,13.95,66.62,14.14,66.62,14.37C66.62,14.59,66.53,14.8,66.37,14.94L61.89,19.43L74.15,31.69C74.48,32.02,74.48,32.54,74.15,32.84L70.49,36.5C70.33,36.67,70.14,36.75,69.92,36.75L69.89,36.78C69.67,36.78,69.48,36.7,69.31,36.53Z" fill="currentColor"/><path d="M51.96,28.17L48.96,25.2L62.77,11.39L65.76,14.37L60.7,19.45L73.55,32.3L69.89,35.95L57.02,23.11Z" fill="currentColor"/></svg>