<svg xmlns="http://www.w3.org/2000/svg" viewBox="0 0 90 90"><path d="M14,86C9.58,86,6,82.42,6,78L6,14C6,9.58,9.58,6,14,6L78,6C82.42,6,86,9.58,86,14L86,78C86,82.42,82.42,86,78,86Z" fill="currentColor"/><path d="M14,86C9.58,86,6,82.42,6,78L6,18C6,13.58,9.58,10,14,10L78,10C82.42,10,86,13.58,86,18L86,78C86,82.42,82.42,86,78,86Z" fill="currentColor"/><path d="M80.31,40.47L86,79L86,18C86,13.58,82.42,10,78,10L15,10L54.48,15.09C67.8,16.81,78.35,27.18,80.31,40.47Z" fill="currentColor" opacity="0.2"/><path d="M6,78C6,82.42,9.58,86,14,86L76,86L17.31,84.27C12.06,84.12,7.83,79.94,7.61,74.69L6,36Z" fill="currentColor"/><path d="M86,18C86,13.58,82.42,10,78,10L55,10L74.3,12.14C78.83,12.65,82.45,16.15,83.1,20.67L86,41Z" fill="currentColor"/><path d="M78,86C82.42,86,86,82.42,86,78L86,14C86,9.58,82.42,6,78,6L46,6L46,86Z" fill="currentColor"/><path d="M78,86C82.42,86,86,82.42,86,78L86,18C86,13.58,82.42,10,78,10L46,10L46,86Z" fill="currentColor"/><path d="M86,78L86,18C86,17.86,86,17.72,85.99,17.59C85.78,13.5,82.5,10.22,78.41,10.01C78.28,10,78.14,10,78,10L46,10L46,14L54.48,15.09C67.8,16.81,78.35,27.18,80.32,40.47L85.96,78.75C85.99,78.51,86,78.25,86,78Z" fill="currentColor" opacity="0.2"/><path d="M46,86L76,86L46,85.12Z" fill="currentColor"/><path d="M86,18C86,13.58,82.42,10,78,10L55,10L74.3,12.14C78.83,12.65,82.45,16.15,83.1,20.67L86,41Z" fill="currentColor"/><path d="M19.04,28.61C17.03,30.07,15.45,32.2,14.3,35.01C13.16,37.82,12.59,41.21,12.59,45.2C12.59,49.19,13.16,52.58,14.3,55.39C15.45,58.2,17.03,60.31,19.04,61.74C21.05,63.19,23.37,63.92,26,63.92C28.6,63.92,30.91,63.19,32.92,61.74C34.97,60.31,36.56,58.2,37.7,55.39C38.88,52.58,39.47,49.19,39.47,45.2C39.47,41.21,38.88,37.82,37.7,35.01C36.56,32.2,34.97,30.07,32.92,28.61C30.91,27.19,28.6,26.48,26,26.48C23.37,26.48,21.05,27.19,19.04,28.61Z" fill="currentColor"/><path d="M28.6,35.32C29.33,36.08,29.89,37.26,30.27,38.86C30.65,40.49,30.84,42.6,30.84,45.2C30.84,47.8,30.65,49.9,30.27,51.49C29.89,53.12,29.33,54.32,28.6,55.08C27.91,55.84,27.04,56.22,26,56.22C24.96,56.22,24.08,55.84,23.35,55.08C22.66,54.32,22.12,53.12,21.74,51.49C21.36,49.9,21.17,47.8,21.17,45.2C21.17,42.6,21.36,40.49,21.74,38.86C22.12,37.26,22.66,36.08,23.35,35.32C24.08,34.56,24.95,34.18,25.95,34.18C27.03,34.18,27.91,34.56,28.6,35.32Z" fill="currentColor"/><path d="M73.58,57.21L56.52,49.83L56.52,58.46L67.81,63.4L73.63,63.4L73.63,27L64.53,27L64.53,61.11Z" fill="currentColor"/><path d="M19.04,31.61C17.03,33.07,15.45,35.2,14.3,38.01C13.16,40.82,12.59,44.21,12.59,48.2C12.59,52.19,13.16,55.58,14.3,58.39C15.45,61.2,17.03,63.31,19.04,64.74C21.05,66.19,23.37,66.92,26,66.92C28.6,66.92,30.91,66.19,32.92,64.74C34.97,63.31,36.56,61.2,37.7,58.39C38.88,55.58,39.47,52.19,39.47,48.2C39.47,44.21,38.88,40.82,37.7,38.01C36.56,35.2,34.97,33.07,32.92,31.61C30.91,30.19,28.6,29.48,26,29.48C23.37,29.48,21.05,30.19,19.04,31.61Z" fill="currentColor"/><path d="M28.6,38.32C29.33,39.08,29.89,40.26,30.27,41.86C30.65,43.49,30.84,45.6,30.84,48.2C30.84,50.8,30.65,52.9,30.27,54.49C29.89,56.12,29.33,57.32,28.6,58.08C27.91,58.84,27.04,59.22,26,59.22C24.96,59.22,24.08,58.84,23.35,58.08C22.66,57.32,22.12,56.12,21.74,54.49C21.36,52.9,21.17,50.8,21.17,48.2C21.17,45.6,21.36,43.49,21.74,41.86C22.12,40.26,22.66,39.08,23.35,38.32C24.08,37.56,24.95,37.18,25.95,37.18C27.03,37.18,27.91,37.56,28.6,38.32Z" fill="currentColor"/><path d="M73.58,60.21L56.52,52.83L56.52,61.46L67.81,66.4L73.63,66.4L73.63,30L64.53,30L64.53,64.11Z" fill="currentColor"/></svg>