<svg xmlns="http://www.w3.org/2000/svg" viewBox="0 0 90 90" fill="currentColor"><path d="M88,46C88,69.2,69.2,88,46,88C22.8,88,4,69.2,4,46C4,22.8,22.8,4,46,4C69.2,4,88,22.8,88,46ZM88,49C88,72.2,69.2,91,46,91C22.8,91,4,72.2,4,49C4,25.8,22.8,7,46,7C69.2,7,88,25.8,88,49ZM46,7C69.2,7,88,25.8,88,49C88,55.31,86.61,61.29,84.12,66.65C75.44,39.99,53.84,19.23,26.63,11.72C32.43,8.71,39.02,7,46,7ZM4.79,57.13C8.42,75.66,24.24,89.82,43.55,90.93C25.36,87.21,10.79,74.2,4.79,57.13ZM87.99,49.87C88,49.58,88,49.29,88,49C88,25.8,69.2,7,46,7C68.24,9.74,85.8,27.57,87.99,49.87ZM47.27,69.65C50.55,72.1,55.11,73.19,58.57,73.19C67.42,73.19,74.17,67.46,74.17,59.36C74.17,53.54,72.14,51.44,67.17,46.46L64.13,43.51C63.29,42.58,62.87,41.4,62.87,40.22L62.87,39.21C62.87,38.28,62.36,37.77,61.43,37.77L53.34,37.77C52.58,37.77,51.9,38.03,51.9,39.21L51.9,40.89C51.9,45.36,54.43,49.07,56.12,50.42L58.48,52.36C59.49,53.29,60.59,54.3,61.52,55.31C62.28,56.24,62.7,57.34,62.7,58.52C62.7,61.05,60.51,62.48,57.98,62.48C56.54,62.48,54.1,61.98,51.9,60.12C51.65,59.87,51.23,59.7,50.98,59.7C50.81,63.92,49.88,66.19,47.27,69.65ZM26.77,20.06C25.93,20.06,25.34,20.65,25.34,21.58L25.34,30.1C25.34,30.94,25.93,31.53,26.77,31.53L35.63,31.53C36.47,31.53,37.06,30.94,37.06,30.1L37.06,21.58C37.06,20.65,36.47,20.06,35.54,20.06ZM27.19,37.77C26.43,37.77,25.76,38.03,25.76,39.21L25.76,40.89C25.76,45.36,28.29,49.07,29.98,50.42L32.34,52.36C33.35,53.29,34.45,54.3,35.37,55.31C36.13,56.24,36.55,57.34,36.55,58.52C36.55,61.05,34.36,62.48,31.83,62.48C30.4,62.48,27.95,61.98,25.76,60.12C25.08,59.45,24.49,59.53,23.57,60.46L18.93,66.11C18.34,66.78,18.59,67.46,19.1,67.97C22.72,71.59,28.29,73.19,32.42,73.19C41.28,73.19,48.02,67.46,48.02,59.36C48.02,53.54,46,51.44,41.02,46.46L37.99,43.51C37.14,42.58,36.72,41.4,36.72,40.22L36.72,39.21C36.72,38.28,36.22,37.77,35.29,37.77ZM52.92,20.06C52.07,20.06,51.48,20.65,51.48,21.58L51.48,30.1C51.48,30.94,52.07,31.53,52.92,31.53L61.77,31.53C62.61,31.53,63.2,30.94,63.2,30.1L63.2,21.58C63.2,20.65,62.61,20.06,61.69,20.06ZM47.27,72.28C50.55,74.72,55.11,75.82,58.57,75.82C67.42,75.82,74.17,70.08,74.17,61.99C74.17,56.17,72.14,54.06,67.17,49.08L64.13,46.13C63.29,45.2,62.87,44.02,62.87,42.84L62.87,41.83C62.87,40.9,62.36,40.4,61.43,40.4L53.34,40.4C52.58,40.4,51.9,40.65,51.9,41.83L51.9,43.52C51.9,47.99,54.43,51.7,56.12,53.05L58.48,54.99C59.49,55.92,60.59,56.93,61.52,57.94C62.28,58.87,62.7,59.96,62.7,61.14C62.7,63.67,60.51,65.11,57.98,65.11C56.54,65.11,54.1,64.6,51.9,62.75C51.65,62.49,51.23,62.33,50.98,62.33C50.81,66.54,49.88,68.82,47.27,72.28ZM26.77,22.69C25.93,22.69,25.34,23.28,25.34,24.2L25.34,32.72C25.34,33.57,25.93,34.16,26.77,34.16L35.63,34.16C36.47,34.16,37.06,33.57,37.06,32.72L37.06,24.2C37.06,23.28,36.47,22.69,35.54,22.69ZM27.19,40.4C26.43,40.4,25.76,40.65,25.76,41.83L25.76,43.52C25.76,47.99,28.29,51.7,29.98,53.05L32.34,54.99C33.35,55.92,34.45,56.93,35.37,57.94C36.13,58.87,36.55,59.96,36.55,61.14C36.55,63.67,34.36,65.11,31.83,65.11C30.4,65.11,27.95,64.6,25.76,62.75C25.08,62.07,24.49,62.16,23.57,63.08L18.93,68.73C18.34,69.41,18.59,70.08,19.1,70.59C22.72,74.22,28.29,75.82,32.42,75.82C41.28,75.82,48.02,70.08,48.02,61.99C48.02,56.17,46,54.06,41.02,49.08L37.99,46.13C37.14,45.2,36.72,44.02,36.72,42.84L36.72,41.83C36.72,40.9,36.22,40.4,35.29,40.4ZM52.92,22.69C52.07,22.69,51.48,23.28,51.48,24.2L51.48,32.72C51.48,33.57,52.07,34.16,52.92,34.16L61.77,34.16C62.61,34.16,63.2,33.57,63.2,32.72L63.2,24.2C63.2,23.28,62.61,22.69,61.69,22.69Z"/></svg>