<svg xmlns="http://www.w3.org/2000/svg" viewBox="0 0 90 90"><path d="M14,86C9.58,86,6,82.42,6,78L6,14C6,9.58,9.58,6,14,6L78,6C82.42,6,86,9.58,86,14L86,78C86,82.42,82.42,86,78,86Z" fill="currentColor"/><path d="M14,86C9.58,86,6,82.42,6,78L6,18C6,13.58,9.58,10,14,10L78,10C82.42,10,86,13.58,86,18L86,78C86,82.42,82.42,86,78,86Z" fill="currentColor"/><path d="M80.31,40.47L86,79L86,18C86,13.58,82.42,10,78,10L15,10L54.48,15.09C67.8,16.81,78.35,27.18,80.31,40.47Z" fill="currentColor" opacity="0.2"/><path d="M6,78C6,82.42,9.58,86,14,86L76,86L17.31,84.27C12.06,84.12,7.83,79.94,7.61,74.69L6,36Z" fill="currentColor"/><path d="M86,18C86,13.58,82.42,10,78,10L55,10L74.3,12.14C78.83,12.65,82.45,16.15,83.1,20.67L86,41Z" fill="currentColor"/><path d="M78,86C82.42,86,86,82.42,86,78L86,14C86,9.58,82.42,6,78,6L33,6L33,8.67C33,9.55,33.15,10.43,33.43,11.26L59,86Z" fill="currentColor"/><path d="M78,86C82.42,86,86,82.42,86,78L86,18C86,13.58,82.42,10,78,10L33,10L59,86Z" fill="currentColor"/><path d="M86,78L86,18C86,17.86,86,17.72,85.99,17.59C85.78,13.5,82.5,10.22,78.41,10.01C78.28,10,78.14,10,78,10L33,10L33.83,12.43L54.48,15.09C67.8,16.81,78.35,27.18,80.32,40.47L85.96,78.75C85.99,78.51,86,78.25,86,78Z" fill="currentColor" opacity="0.2"/><path d="M59,86L76,86L58.83,85.5Z" fill="currentColor"/><path d="M86,18C86,13.58,82.42,10,78,10L55,10L74.3,12.14C78.83,12.65,82.45,16.15,83.1,20.67L86,41Z" fill="currentColor"/><path d="M33.58,66.21L16.52,58.83L16.52,67.46L27.81,72.4L33.63,72.4L33.63,36L24.53,36L24.53,70.11Z" fill="currentColor"/><path d="M65.35,36.67C66.11,37.64,66.72,38.51,67.17,39.27C67.62,40.07,67.95,40.79,68.16,41.45C68.36,42.15,68.47,42.82,68.47,43.48C68.47,44.24,68.31,44.9,68,45.46C67.72,46.05,67.27,46.48,66.65,46.76C66.06,47.07,65.33,47.22,64.46,47.22C63.25,47.22,61.92,46.93,60.46,46.34C59.04,45.79,57.46,44.97,55.73,43.9C55.42,43.69,55.09,43.46,54.74,43.22L54.74,51.64C56.4,52.72,58.12,53.53,59.89,54.09C61.69,54.68,63.58,54.97,65.56,54.97C67.74,54.97,69.66,54.56,71.33,53.72C73.03,52.89,74.34,51.66,75.28,50.03C76.25,48.44,76.74,46.57,76.74,44.42C76.74,43.2,76.58,42.02,76.27,40.88C75.96,39.74,75.44,38.51,74.71,37.19C73.98,35.91,72.97,34.47,71.69,32.87L63.37,22.47L62.02,25.02L77.1,25.02L77.1,18L54.74,18L54.74,24.08Z" fill="currentColor"/><path d="M33.58,69.21L16.52,61.83L16.52,70.46L27.81,75.4L33.63,75.4L33.63,39L24.53,39L24.53,73.11Z" fill="currentColor"/><path d="M65.35,39.67C66.11,40.64,66.72,41.51,67.17,42.27C67.62,43.07,67.95,43.79,68.16,44.45C68.36,45.15,68.47,45.82,68.47,46.48C68.47,47.24,68.31,47.9,68,48.46C67.72,49.05,67.27,49.48,66.65,49.76C66.06,50.07,65.33,50.22,64.46,50.22C63.25,50.22,61.92,49.93,60.46,49.34C59.04,48.79,57.46,47.97,55.73,46.9C55.42,46.69,55.09,46.46,54.74,46.22L54.74,54.64C56.4,55.72,58.12,56.53,59.89,57.09C61.69,57.68,63.58,57.97,65.56,57.97C67.74,57.97,69.66,57.56,71.33,56.72C73.03,55.89,74.34,54.66,75.28,53.03C76.25,51.44,76.74,49.57,76.74,47.42C76.74,46.2,76.58,45.02,76.27,43.88C75.96,42.74,75.44,41.51,74.71,40.19C73.98,38.91,72.97,37.47,71.69,35.87L63.37,25.47L62.02,28.02L77.1,28.02L77.1,21L54.74,21L54.74,27.08Z" fill="currentColor"/></svg>