<svg xmlns="http://www.w3.org/2000/svg" viewBox="0 0 90 90"><path d="M14,86C9.58,86,6,82.42,6,78L6,14C6,9.58,9.58,6,14,6L78,6C82.42,6,86,9.58,86,14L86,78C86,82.42,82.42,86,78,86Z" fill="currentColor"/><path d="M14,86C9.58,86,6,82.42,6,78L6,18C6,13.58,9.58,10,14,10L78,10C82.42,10,86,13.58,86,18L86,78C86,82.42,82.42,86,78,86Z" fill="currentColor"/><path d="M80.31,40.47L86,79L86,18C86,13.58,82.42,10,78,10L15,10L54.48,15.09C67.8,16.81,78.35,27.18,80.31,40.47Z" fill="currentColor" opacity="0.2"/><path d="M6,78C6,82.42,9.58,86,14,86L76,86L17.31,84.27C12.06,84.12,7.83,79.94,7.61,74.69L6,36Z" fill="currentColor"/><path d="M86,18C86,13.58,82.42,10,78,10L55,10L74.3,12.14C78.83,12.65,82.45,16.15,83.1,20.67L86,41Z" fill="currentColor"/><path d="M78,86C82.42,86,86,82.42,86,78L86,14C86,9.58,82.42,6,78,6L46,6L46,86Z" fill="currentColor"/><path d="M78,86C82.42,86,86,82.42,86,78L86,18C86,13.58,82.42,10,78,10L46,10L46,86Z" fill="currentColor"/><path d="M86,78L86,18C86,17.86,86,17.72,85.99,17.59C85.78,13.5,82.5,10.22,78.41,10.01C78.28,10,78.14,10,78,10L46,10L46,14L54.48,15.09C67.8,16.81,78.35,27.18,80.32,40.47L85.96,78.75C85.99,78.51,86,78.25,86,78Z" fill="currentColor" opacity="0.2"/><path d="M46,86L76,86L46,85.12Z" fill="currentColor"/><path d="M86,18C86,13.58,82.42,10,78,10L55,10L74.3,12.14C78.83,12.65,82.45,16.15,83.1,20.67L86,41Z" fill="currentColor"/><path d="M59.04,28.61C57.03,30.07,55.45,32.2,54.3,35.01C53.16,37.82,52.59,41.21,52.59,45.2C52.59,49.19,53.16,52.58,54.3,55.39C55.45,58.2,57.03,60.31,59.04,61.74C61.05,63.19,63.37,63.92,66,63.92C68.6,63.92,70.91,63.19,72.92,61.74C74.97,60.31,76.56,58.2,77.7,55.39C78.88,52.58,79.47,49.19,79.47,45.2C79.47,41.21,78.88,37.82,77.7,35.01C76.56,32.2,74.97,30.07,72.92,28.61C70.91,27.19,68.6,26.48,66,26.48C63.37,26.48,61.05,27.19,59.04,28.61Z" fill="currentColor"/><path d="M68.6,35.32C69.33,36.08,69.89,37.26,70.27,38.86C70.65,40.49,70.84,42.6,70.84,45.2C70.84,47.8,70.65,49.9,70.27,51.49C69.89,53.12,69.33,54.32,68.6,55.08C67.91,55.84,67.04,56.22,66,56.22C64.96,56.22,64.08,55.84,63.35,55.08C62.66,54.32,62.12,53.12,61.74,51.49C61.36,49.9,61.17,47.8,61.17,45.2C61.17,42.6,61.36,40.49,61.74,38.86C62.12,37.26,62.66,36.08,63.35,35.32C64.08,34.56,64.95,34.18,65.95,34.18C67.03,34.18,67.91,34.56,68.6,35.32Z" fill="currentColor"/><path d="M33.58,57.21L16.52,49.83L16.52,58.46L27.81,63.4L33.63,63.4L33.63,27L24.53,27L24.53,61.11Z" fill="currentColor"/><path d="M59.04,31.61C57.03,33.07,55.45,35.2,54.3,38.01C53.16,40.82,52.59,44.21,52.59,48.2C52.59,52.19,53.16,55.58,54.3,58.39C55.45,61.2,57.03,63.31,59.04,64.74C61.05,66.19,63.37,66.92,66,66.92C68.6,66.92,70.91,66.19,72.92,64.74C74.97,63.31,76.56,61.2,77.7,58.39C78.88,55.58,79.47,52.19,79.47,48.2C79.47,44.21,78.88,40.82,77.7,38.01C76.56,35.2,74.97,33.07,72.92,31.61C70.91,30.19,68.6,29.48,66,29.48C63.37,29.48,61.05,30.19,59.04,31.61Z" fill="currentColor"/><path d="M68.6,38.32C69.33,39.08,69.89,40.26,70.27,41.86C70.65,43.49,70.84,45.6,70.84,48.2C70.84,50.8,70.65,52.9,70.27,54.49C69.89,56.12,69.33,57.32,68.6,58.08C67.91,58.84,67.04,59.22,66,59.22C64.96,59.22,64.08,58.84,63.35,58.08C62.66,57.32,62.12,56.12,61.74,54.49C61.36,52.9,61.17,50.8,61.17,48.2C61.17,45.6,61.36,43.49,61.74,41.86C62.12,40.26,62.66,39.08,63.35,38.32C64.08,37.56,64.95,37.18,65.95,37.18C67.03,37.18,67.91,37.56,68.6,38.32Z" fill="currentColor"/><path d="M33.58,60.21L16.52,52.83L16.52,61.46L27.81,66.4L33.63,66.4L33.63,30L24.53,30L24.53,64.11Z" fill="currentColor"/></svg>