<svg xmlns="http://www.w3.org/2000/svg" viewBox="0 0 90 90"><path d="M40.43,7.44C60.42,7.44,76.62,9.03,76.62,11C76.62,12.97,60.41,14.55,40.43,14.55C20.45,14.55,4.24,12.96,4.24,11C4.24,9.04,20.44,7.44,40.43,7.44Z" fill="currentColor" opacity="0.5"/><path d="M40.43,7.44C60.42,7.44,76.62,9.03,76.62,11C76.62,12.97,60.41,14.55,40.43,14.55C20.45,14.55,4.24,12.96,4.24,11C4.24,9.04,20.44,7.44,40.43,7.44Z" fill="currentColor" opacity="0.5"/><path d="M71.82,33C70.47,39.02,67.8,42.62,65.94,44.5L72.24,47.51L73.6,41.46L82.93,43.55L81.53,49.77L87.75,51.16L85.65,60.49L79.43,59.11L78.04,65.31L68.71,63.22L70.06,57.17L63.08,57.19C63.96,59.69,64.83,64.08,63.47,70.1C62.42,74.76,59.76,78.62,55.99,80.95C52.2,83.29,47.42,83.98,42.56,82.89C35.51,81.3,32.03,75.79,28.67,70.46C26.61,67.19,24.47,63.8,21.49,61.25C18.03,68.06,13.14,66.97,7.54,65.68L6.71,65.49L5.67,65.26L5.9,64.22L17.27,13.67L17.5,12.63L18.53,12.86L19.37,13.05C24.98,14.29,29.87,15.37,30.08,23.02C33.87,21.98,37.24,19.85,40.51,17.77C45.83,14.4,51.33,10.9,58.38,12.5C63.24,13.59,67.26,16.24,69.69,19.99L69.7,19.99C72.11,23.71,72.86,28.33,71.82,33Z" fill="currentColor"/><path d="M40.68,33.85C40.41,35.53,40.27,36.56,40.01,37.99L52.92,40.88C52.92,40.88,56.81,37.41,57.57,34.07C57.57,34.07,58.71,27.94,53.09,27.5L53.1,27.5C49.67,27.22,45.62,31.5,40.68,33.85Z" fill="currentColor"/><path d="M49.79,54.84L36.88,51.95C36.5,53.33,36.19,54.34,35.72,55.97C39.18,60.22,41,65.8,44.23,67.02C49.49,69.01,51.08,62.99,51.08,62.99L51.07,62.99C51.82,59.66,49.79,54.84,49.79,54.84Z" fill="currentColor"/><path d="M71.82,33C70.47,39.02,67.8,42.62,65.94,44.5L72.24,47.51L73.6,41.46L82.93,43.55L81.53,49.77L87.75,51.16L85.65,60.49L79.43,59.11L78.04,65.31L68.71,63.22L70.06,57.17L63.08,57.19C63.96,59.69,64.83,64.08,63.47,70.1C62.42,74.76,59.76,78.62,55.99,80.95C52.2,83.29,47.42,83.98,42.56,82.89C35.51,81.3,32.03,75.79,28.67,70.46C26.61,67.19,24.47,63.8,21.49,61.25C18.03,68.06,13.14,66.97,7.54,65.68L6.71,65.49L5.67,65.26L5.9,64.22L17.27,13.67L17.5,12.63L18.53,12.86L19.37,13.05C24.98,14.29,29.87,15.37,30.08,23.02C33.87,21.98,37.24,19.85,40.51,17.77C45.83,14.4,51.33,10.9,58.38,12.5C63.24,13.59,67.26,16.24,69.69,19.99L69.7,19.99C72.11,23.71,72.86,28.33,71.82,33Z" fill="currentColor"/><path d="M40.68,33.85C40.41,35.53,40.27,36.56,40.01,37.99L52.92,40.88C52.92,40.88,56.81,37.41,57.57,34.07C57.57,34.07,58.71,27.94,53.09,27.5L53.1,27.5C49.67,27.22,45.62,31.5,40.68,33.85Z" fill="currentColor"/><path d="M49.79,54.84L36.88,51.95C36.5,53.33,36.19,54.34,35.72,55.97C39.18,60.22,41,65.8,44.23,67.02C49.49,69.01,51.08,62.99,51.08,62.99L51.07,62.99C51.82,59.66,49.79,54.84,49.79,54.84Z" fill="currentColor"/><path d="M79.44,59.11L78.05,65.31L69.84,63.47L71.21,57.58C75.28,57.13,81.8,57.25,86.5,51.97C86.81,51.61,87.14,51.33,87.45,51.09L87.77,51.16L85.67,60.49L85.66,60.49Z" fill="currentColor"/><path d="M42.57,82.89C35.52,81.3,32.04,75.79,28.68,70.46C26.81,67.5,24.85,64.47,22.28,62.03L24.33,56.96C30.71,61.55,36.46,63.98,41.58,64.81C42.39,65.83,43.23,66.64,44.22,67.01C47.66,68.31,49.51,66.21,50.39,64.59C55.27,63.47,59.81,60.93,63.08,57.19L63.68,59.33C64.24,61.91,64.5,65.52,63.47,70.1C62.42,74.76,59.76,78.62,55.99,80.95L56,80.95C52.21,83.29,47.43,83.98,42.57,82.89Z" fill="currentColor"/><path d="M7.55,65.69L6.72,65.5L5.68,65.27L5.91,64.23L7.58,56.82C8.21,56.92,8.63,56.98,8.63,56.98C8.63,56.98,20.63,58.58,25.28,44.34L21.51,61.26C21.32,61.08,21.71,61.43,21.51,61.26L21.5,61.26C18.04,68.07,13.15,66.98,7.55,65.69Z" fill="currentColor"/><path d="M79.44,59.11L78.05,65.31L69.84,63.47L71.21,57.58C75.28,57.13,81.8,57.25,86.5,51.97C86.81,51.61,87.14,51.33,87.45,51.09L87.77,51.16L85.67,60.49L85.66,60.49Z" fill="currentColor"/><path d="M42.57,82.89C35.52,81.3,32.04,75.79,28.68,70.46C26.81,67.5,24.85,64.47,22.28,62.03L24.33,56.96C30.71,61.55,36.46,63.98,41.58,64.81C42.39,65.83,43.23,66.64,44.22,67.01C47.66,68.31,49.51,66.21,50.39,64.59C55.27,63.47,59.81,60.93,63.08,57.19L63.68,59.33C64.24,61.91,64.5,65.52,63.47,70.1C62.42,74.76,59.76,78.62,55.99,80.95L56,80.95C52.21,83.29,47.43,83.98,42.57,82.89Z" fill="currentColor"/><path d="M7.55,65.69L6.72,65.5L5.68,65.27L5.91,64.23L7.58,56.82C8.21,56.92,8.63,56.98,8.63,56.98C8.63,56.98,20.63,58.58,25.28,44.34L21.51,61.26C21.32,61.08,21.71,61.43,21.51,61.26L21.5,61.26C18.04,68.07,13.15,66.98,7.55,65.69Z" fill="currentColor"/><path d="M29.64,29.66L30.08,23.03C33.87,21.99,37.24,19.86,40.52,17.78C45.84,14.41,51.34,10.91,58.39,12.51C63.25,13.6,67.27,16.25,69.7,20C70.16,20.71,70.51,21.48,70.85,22.26C68.47,20.08,59.3,12.73,48.55,17.75L48.54,17.74Z" fill="currentColor" opacity="0.5"/><path d="M29.64,29.66L30.08,23.03C33.87,21.99,37.24,19.86,40.52,17.78C45.84,14.41,51.34,10.91,58.39,12.51C63.25,13.6,67.27,16.25,69.7,20C70.16,20.71,70.51,21.48,70.85,22.26C68.47,20.08,59.3,12.73,48.55,17.75L48.54,17.74Z" fill="currentColor" opacity="0.5"/></svg>