<svg xmlns="http://www.w3.org/2000/svg" viewBox="0 0 90 90"><path d="M3,45C3,68.19,21.81,87,45,87C68.19,87,87,68.19,87,45C87,21.81,68.19,3,45,3C21.81,3,3,21.81,3,45Z" fill="currentColor"/><path d="M12.19,45C12.19,26.88,26.88,12.19,45,12.19C63.12,12.19,77.81,26.88,77.81,45C77.81,63.12,63.12,77.81,45,77.81C26.88,77.81,12.19,63.12,12.19,45Z" fill="currentColor"/><path d="M47,65C49.2,65,50,64.2,50,62L50,50.07L62,50.07C64.2,50.07,65,49.27,65,47.07L65,43.07C65,40.87,64.2,40.07,62,40.07L50,40.07L50,28C50,25.8,49.2,25,47,25L43,25C40.8,25,40,25.8,40,28L40,40.07L28,40.07C25.8,40.07,25,40.87,25,43.07L25,47.07C25,49.27,25.8,50.07,28,50.07L40,50.07L40,62C40,64.2,40.8,65,43,65Z" fill="currentColor"/><path d="M49.93,39.96C47.09,43.8,43.7,47.18,39.85,50.01L27.08,50.01C25.57,49.78,25,48.93,25,47.07L25,43.07C25,40.87,25.8,40.07,28,40.07L40,40.07L40,28C40,25.8,40.8,25,43,25L47,25C48.83,25,49.69,25.55,49.93,27.01Z" fill="currentColor"/><path d="M3,45C3,21.8,21.8,3,45,3C22.6,4.82,4.82,22.6,3,45Z" fill="currentColor"/><path d="M87,45C87,68.2,68.2,87,45,87C67.4,85.18,85.18,67.4,87,45Z" fill="currentColor"/></svg>