<svg xmlns="http://www.w3.org/2000/svg" viewBox="0 0 90 90" fill="currentColor"><path d="M6,46C6,23.91,23.91,6,46,6C68.09,6,86,23.91,86,46C86,68.09,68.09,86,46,86C23.91,86,6,68.09,6,46ZM14.75,46C14.75,63.26,28.74,77.25,46,77.25C63.26,77.25,77.25,63.26,77.25,46C77.25,28.74,63.26,14.75,46,14.75C28.74,14.75,14.75,28.74,14.75,46ZM48,26C50.2,26,51,26.8,51,29L51,40.93L63,40.93C65.2,40.93,66,41.73,66,43.93L66,47.93C66,50.13,65.2,50.93,63,50.93L51,50.93L51,63C51,65.2,50.2,66,48,66L44,66C41.8,66,41,65.2,41,63L41,50.93L29,50.93C26.8,50.93,26,50.13,26,47.93L26,43.93C26,41.73,26.8,40.93,29,40.93L41,40.93L41,29C41,26.8,41.8,26,44,26ZM50.93,51.04C48.09,47.2,44.7,43.82,40.85,40.99L28.08,40.99C26.57,41.22,26,42.07,26,43.93L26,47.93C26,50.13,26.8,50.93,29,50.93L41,50.93L41,63C41,65.2,41.8,66,44,66L48,66C49.83,66,50.69,65.45,50.93,63.99Z"/></svg>