<svg xmlns="http://www.w3.org/2000/svg" viewBox="0 0 90 90" fill="currentColor"><path d="M4,46C4,22.81,22.81,4,46,4C69.19,4,88,22.81,88,46C88,69.19,69.19,88,46,88C22.81,88,4,69.19,4,46ZM13.19,46C13.19,64.12,27.88,78.81,46,78.81C64.12,78.81,78.81,64.12,78.81,46C78.81,27.88,64.12,13.19,46,13.19C27.88,13.19,13.19,27.88,13.19,46ZM48,26C50.2,26,51,26.8,51,29L51,40.93L63,40.93C65.2,40.93,66,41.73,66,43.93L66,47.93C66,50.13,65.2,50.93,63,50.93L51,50.93L51,63C51,65.2,50.2,66,48,66L44,66C41.8,66,41,65.2,41,63L41,50.93L29,50.93C26.8,50.93,26,50.13,26,47.93L26,43.93C26,41.73,26.8,40.93,29,40.93L41,40.93L41,29C41,26.8,41.8,26,44,26ZM50.93,51.04C48.09,47.2,44.7,43.82,40.85,40.99L28.08,40.99C26.57,41.22,26,42.07,26,43.93L26,47.93C26,50.13,26.8,50.93,29,50.93L41,50.93L41,63C41,65.2,41.8,66,44,66L48,66C49.83,66,50.69,65.45,50.93,63.99ZM4,46C4,69.2,22.8,88,46,88C23.6,86.18,5.82,68.4,4,46ZM88,46C88,22.8,69.2,4,46,4C68.4,5.82,86.18,23.6,88,46Z"/></svg>