<svg xmlns="http://www.w3.org/2000/svg" viewBox="0 0 90 90"><path d="M5,45C5,67.09,22.91,85,45,85C67.09,85,85,67.09,85,45C85,22.91,67.09,5,45,5C22.91,5,5,22.91,5,45Z" fill="currentColor"/><path d="M13.75,45C13.75,27.74,27.74,13.75,45,13.75C62.26,13.75,76.25,27.74,76.25,45C76.25,62.26,62.26,76.25,45,76.25C27.74,76.25,13.75,62.26,13.75,45Z" fill="currentColor"/><path d="M47,65C49.2,65,50,64.2,50,62L50,50.07L62,50.07C64.2,50.07,65,49.27,65,47.07L65,43.07C65,40.87,64.2,40.07,62,40.07L50,40.07L50,28C50,25.8,49.2,25,47,25L43,25C40.8,25,40,25.8,40,28L40,40.07L28,40.07C25.8,40.07,25,40.87,25,43.07L25,47.07C25,49.27,25.8,50.07,28,50.07L40,50.07L40,62C40,64.2,40.8,65,43,65Z" fill="currentColor"/><path d="M49.93,39.96C47.09,43.8,43.7,47.18,39.85,50.01L27.08,50.01C25.57,49.78,25,48.93,25,47.07L25,43.07C25,40.87,25.8,40.07,28,40.07L40,40.07L40,28C40,25.8,40.8,25,43,25L47,25C48.83,25,49.69,25.55,49.93,27.01Z" fill="currentColor"/></svg>