<svg xmlns="http://www.w3.org/2000/svg" viewBox="0 0 90 90"><path d="M19.56,7.85L25.5,4.42C28.32,2.79,31.9,3.32,34.12,5.71L37.89,9.75C38.51,10.41,39.29,10.89,40.14,11.14L45.03,11.25L49.92,11.14C50.77,10.89,51.55,10.41,52.17,9.75L55.94,5.71C58.16,3.32,61.73,2.79,64.56,4.42L70.5,7.85C73.32,9.48,74.65,12.84,73.69,15.96L72.08,21.24C71.82,22.08,71.79,22.95,71.98,23.79L74.63,28.65L76.77,32.16C77.43,32.82,78.26,33.29,79.19,33.5L84.58,34.75C87.75,35.48,90,38.31,90,41.57L90,48.43C90,51.69,87.75,54.52,84.58,55.25L79.19,56.49C78.4,56.68,77.67,57.05,77.06,57.57L73.56,63.31L72.09,66.01C71.79,66.96,71.78,67.99,72.08,68.96L73.69,74.25C74.65,77.37,73.32,80.73,70.5,82.36L64.56,85.79C61.73,87.42,58.16,86.89,55.94,84.5L52.17,80.46C51.55,79.8,50.77,79.32,49.92,79.07L45.03,78.95L40.14,79.07C39.29,79.32,38.51,79.8,37.89,80.46L34.12,84.5C31.9,86.89,28.32,87.42,25.5,85.79L19.56,82.36C16.73,80.73,15.41,77.37,16.36,74.25L17.98,68.96C18.24,68.1,18.27,67.18,18.06,66.32L15.71,62.03L13.17,57.85C12.52,57.24,11.72,56.8,10.84,56.6L5.45,55.36C2.28,54.62,0.03,51.79,0.03,48.53L0.03,41.67C0.03,38.41,2.28,35.58,5.45,34.85L10.84,33.61C11.72,33.4,12.52,32.97,13.17,32.35L15.71,28.18L18.06,23.89C18.27,23.02,18.24,22.11,17.98,21.24L16.36,15.96C15.41,12.84,16.73,9.48,19.56,7.85Z" fill="currentColor"/><path d="M54.55,39.6C51.52,34.34,44.79,32.54,39.53,35.58C34.27,38.61,32.46,45.34,35.5,50.6C38.54,55.86,45.27,57.67,50.53,54.63C55.79,51.59,57.59,44.86,54.55,39.6Z" fill="currentColor"/><path d="M19.56,7.85C16.73,9.48,15.41,12.84,16.36,15.96L17.98,21.24C18.24,22.11,18.27,23.02,18.06,23.89L15.71,28.18L13.17,32.35C12.52,32.97,11.72,33.4,10.84,33.61L5.45,34.85C2.28,35.58,0.03,38.41,0.03,41.67L0.03,48.53C0.03,51.79,2.28,54.62,5.45,55.36L10.84,56.6C11.72,56.8,12.52,57.24,13.17,57.85L15.71,62.03L18.06,66.32C18.27,67.18,18.24,68.1,17.98,68.96L16.36,74.25C15.41,77.37,16.73,80.73,19.56,82.36L21.57,83.52C25.63,80.37,29.25,76.4,32.19,71.62C35.56,66.14,37.65,60.1,38.44,53.91C37.28,53.05,36.27,51.94,35.5,50.6C32.92,46.14,33.83,40.62,37.38,37.19C36.53,33.88,35.29,30.64,33.65,27.54L22.4,6.21Z" fill="currentColor"/><path d="M90,49.16C89.74,52.15,87.57,54.67,84.6,55.36L79.72,56.48C81.43,49.02,81.45,41.21,79.77,33.74L84.6,34.85C87.57,35.54,89.74,38.06,90,41.05Z" fill="currentColor"/><path d="M73.13,17.79L73.69,15.96C74.65,12.84,73.32,9.48,70.5,7.85L64.56,4.42C62.95,3.49,61.09,3.26,59.38,3.68C65.1,7.58,69.68,12.4,73.13,17.79Z" fill="currentColor"/><path d="M73.69,74.25C74.65,77.37,73.32,80.73,70.5,82.36L64.56,85.79C62.88,86.76,60.93,86.96,59.16,86.47C64.96,82.56,69.6,77.7,73.09,72.28Z" fill="currentColor"/><path d="M70.03,45.1C70.03,31.3,58.84,20.1,45.03,20.1C31.22,20.1,20.03,31.3,20.03,45.1C20.03,58.91,31.22,70.1,45.03,70.1C58.84,70.1,70.03,58.91,70.03,45.1Z" fill="currentColor"/><path d="M59.03,45.1C59.03,37.37,52.76,31.1,45.03,31.1C37.3,31.1,31.03,37.37,31.03,45.1C31.03,52.84,37.3,59.1,45.03,59.1C52.76,59.1,59.03,52.84,59.03,45.1Z" fill="currentColor"/><path d="M67.03,45.1C67.03,32.95,57.18,23.1,45.03,23.1C32.88,23.1,23.03,32.95,23.03,45.1C23.03,57.25,32.88,67.1,45.03,67.1C57.18,67.1,67.03,57.25,67.03,45.1Z" fill="currentColor"/><path d="M59.03,45.1C59.03,37.37,52.76,31.1,45.03,31.1C37.3,31.1,31.03,37.37,31.03,45.1C31.03,52.84,37.3,59.1,45.03,59.1C52.76,59.1,59.03,52.84,59.03,45.1Z" fill="currentColor"/><path d="M64.08,34.1C58.01,23.58,44.55,19.98,34.03,26.05C23.51,32.13,19.9,45.58,25.98,56.1C32.05,66.63,45.51,70.23,56.03,64.16C66.55,58.08,70.16,44.63,64.08,34.1Z" fill="currentColor"/><path d="M59.03,45.1C59.03,37.37,52.76,31.1,45.03,31.1C37.3,31.1,31.03,37.37,31.03,45.1C31.03,52.84,37.3,59.1,45.03,59.1C52.76,59.1,59.03,52.84,59.03,45.1Z" fill="currentColor"/><path d="M62.76,36.05C65.59,43.06,65.64,50.77,63.09,57.67C67.8,50.89,68.48,41.73,64.08,34.1C62.92,32.09,61.48,30.33,59.85,28.84Z" fill="currentColor"/><path d="M57.15,38.1C53.29,31.41,44.72,29.11,38.03,32.98C31.33,36.84,29.04,45.41,32.9,52.1C36.77,58.8,45.33,61.09,52.03,57.23C58.72,53.36,61.02,44.8,57.15,38.1Z" fill="currentColor"/><path d="M54.55,39.6C51.52,34.34,44.79,32.54,39.53,35.58C34.27,38.61,32.46,45.34,35.5,50.6C38.54,55.86,45.27,57.67,50.53,54.63C55.79,51.59,57.59,44.86,54.55,39.6Z" fill="currentColor"/><path d="M52.03,57.23C58.72,53.36,61.02,44.8,57.15,38.1C55.51,35.27,53.03,33.22,50.21,32.1C50.66,33.4,51.02,34.72,51.29,36.06C52.59,36.95,53.71,38.15,54.55,39.6C57.59,44.86,55.79,51.59,50.53,54.63C49.92,54.98,49.29,55.27,48.65,55.49C48.04,56.71,47.34,57.89,46.55,59.02C48.43,58.82,50.29,58.23,52.03,57.23Z" fill="currentColor"/><path d="M19.56,7.85L25.5,4.42C28.32,2.79,31.9,3.32,34.12,5.7L37.81,9.67C38.83,10.76,40.28,11.34,41.77,11.25L50.58,10.72L56.19,5.41C58.39,3.34,61.66,2.9,64.31,4.33L70.53,7.67C73.6,9.32,75,12.97,73.79,16.25L72.75,19.08L73.4,16.58C74.22,13.41,72.74,10.1,69.83,8.6L64.33,5.77C61.63,4.37,58.33,4.89,56.18,7.04L51.28,11.93L38.84,12.38L34.16,7.14C32.27,5.02,29.15,4.52,26.69,5.94L20.35,9.6C17.89,11.02,16.76,13.98,17.66,16.68L19.86,23.33L13.17,33.93L6.23,35.87C3.21,36.72,1.12,39.48,1.12,42.62L1.12,48.49C1.13,51.52,3.09,54.21,5.98,55.14L9.7,56.34L5.55,55.45C2.3,54.75,-0.01,51.87,0.01,48.55L0.06,41.61C0.09,38.54,2.11,35.84,5.05,34.96L12.47,32.72L17.34,25.36C18.16,24.11,18.38,22.56,17.95,21.14L16.36,15.96C15.41,12.84,16.73,9.48,19.56,7.85Z" fill="currentColor"/></svg>