<svg xmlns="http://www.w3.org/2000/svg" viewBox="0 0 90 90" fill="currentColor"><path d="M20.56,83.36L26.5,86.79C29.32,88.42,32.9,87.89,35.12,85.5L38.89,81.46C39.51,80.8,40.29,80.32,41.14,80.07L46.03,79.95L50.92,80.07C51.77,80.32,52.55,80.8,53.17,81.46L56.94,85.5C59.16,87.89,62.73,88.42,65.56,86.79L71.5,83.36C74.32,81.73,75.65,78.37,74.69,75.25L73.08,69.96C72.82,69.13,72.79,68.25,72.98,67.42L75.63,62.56L77.77,59.05C78.43,58.39,79.26,57.92,80.19,57.7L85.58,56.46C88.75,55.73,91,52.9,91,49.64L91,42.78C91,39.52,88.75,36.69,85.58,35.96L80.19,34.71C79.4,34.53,78.67,34.16,78.06,33.64L74.56,27.9L73.09,25.2C72.79,24.24,72.78,23.21,73.08,22.24L74.69,16.96C75.65,13.84,74.32,10.48,71.5,8.85L65.56,5.42C62.73,3.79,59.16,4.32,56.94,6.71L53.17,10.75C52.55,11.41,51.77,11.89,50.92,12.14L46.03,12.25L41.14,12.14C40.29,11.89,39.51,11.41,38.89,10.75L35.12,6.71C32.9,4.32,29.32,3.79,26.5,5.42L20.56,8.85C17.73,10.48,16.41,13.84,17.36,16.96L18.98,22.24C19.24,23.11,19.27,24.02,19.06,24.89L16.71,29.18L14.17,33.35C13.52,33.97,12.72,34.4,11.84,34.61L6.45,35.85C3.28,36.58,1.03,39.41,1.03,42.67L1.03,49.53C1.03,52.79,3.28,55.62,6.45,56.36L11.84,57.6C12.72,57.8,13.52,58.24,14.17,58.85L16.71,63.03L19.06,67.32C19.27,68.18,19.24,69.1,18.98,69.96L17.36,75.25C16.41,78.37,17.73,81.73,20.56,83.36ZM55.55,51.6C52.52,56.86,45.79,58.67,40.53,55.63C35.27,52.59,33.46,45.86,36.5,40.6C39.54,35.34,46.27,33.54,51.53,36.58C56.79,39.61,58.59,46.34,55.55,51.6ZM20.56,83.36C17.73,81.73,16.41,78.37,17.36,75.25L18.98,69.96C19.24,69.1,19.27,68.18,19.06,67.32L16.71,63.03L14.17,58.85C13.52,58.24,12.72,57.8,11.84,57.6L6.45,56.36C3.28,55.62,1.03,52.79,1.03,49.53L1.03,42.67C1.03,39.41,3.28,36.58,6.45,35.85L11.84,34.61C12.72,34.4,13.52,33.97,14.17,33.35L16.71,29.18L19.06,24.89C19.27,24.02,19.24,23.11,18.98,22.24L17.36,16.96C16.41,13.84,17.73,10.48,20.56,8.85L22.57,7.68C26.63,10.84,30.25,14.81,33.19,19.59C36.56,25.07,38.65,31.11,39.44,37.29C38.28,38.16,37.27,39.27,36.5,40.6C33.92,45.07,34.83,50.59,38.38,54.02C37.53,57.33,36.29,60.56,34.65,63.66L23.4,85ZM91,42.05C90.74,39.06,88.57,36.54,85.6,35.85L80.72,34.72C82.43,42.19,82.45,50,80.77,57.47L85.6,56.36C88.57,55.67,90.74,53.15,91,50.16ZM74.13,73.42L74.69,75.25C75.65,78.37,74.32,81.73,71.5,83.36L65.56,86.79C63.95,87.72,62.09,87.95,60.38,87.53C66.1,83.63,70.68,78.8,74.13,73.42ZM74.69,16.96C75.65,13.84,74.32,10.48,71.5,8.85L65.56,5.42C63.88,4.45,61.93,4.24,60.16,4.74C65.96,8.65,70.6,13.5,74.09,18.93ZM71.03,46.1C71.03,59.91,59.84,71.1,46.03,71.1C32.22,71.1,21.03,59.91,21.03,46.1C21.03,32.3,32.22,21.1,46.03,21.1C59.84,21.1,71.03,32.3,71.03,46.1ZM60.03,46.1C60.03,53.84,53.76,60.1,46.03,60.1C38.3,60.1,32.03,53.84,32.03,46.1C32.03,38.37,38.3,32.1,46.03,32.1C53.76,32.1,60.03,38.37,60.03,46.1ZM68.03,46.1C68.03,58.25,58.18,68.1,46.03,68.1C33.88,68.1,24.03,58.25,24.03,46.1C24.03,33.95,33.88,24.1,46.03,24.1C58.18,24.1,68.03,33.95,68.03,46.1ZM60.03,46.1C60.03,53.84,53.76,60.1,46.03,60.1C38.3,60.1,32.03,53.84,32.03,46.1C32.03,38.37,38.3,32.1,46.03,32.1C53.76,32.1,60.03,38.37,60.03,46.1ZM65.08,57.1C59.01,67.63,45.55,71.23,35.03,65.16C24.51,59.08,20.9,45.63,26.98,35.1C33.05,24.58,46.51,20.98,57.03,27.05C67.55,33.13,71.16,46.58,65.08,57.1ZM60.03,46.1C60.03,53.84,53.76,60.1,46.03,60.1C38.3,60.1,32.03,53.84,32.03,46.1C32.03,38.37,38.3,32.1,46.03,32.1C53.76,32.1,60.03,38.37,60.03,46.1ZM63.76,55.16C66.59,48.15,66.64,40.43,64.09,33.53C68.8,40.31,69.48,49.48,65.08,57.1C63.92,59.12,62.48,60.88,60.85,62.37ZM58.15,53.1C54.29,59.8,45.72,62.09,39.03,58.23C32.33,54.36,30.04,45.8,33.9,39.1C37.77,32.41,46.33,30.11,53.03,33.98C59.72,37.85,62.02,46.41,58.15,53.1ZM55.55,51.6C52.52,56.86,45.79,58.67,40.53,55.63C35.27,52.59,33.46,45.86,36.5,40.6C39.54,35.34,46.27,33.54,51.53,36.58C56.79,39.61,58.59,46.34,55.55,51.6ZM53.03,33.98C59.72,37.85,62.02,46.41,58.15,53.1C56.51,55.94,54.03,57.99,51.21,59.11C51.66,57.81,52.02,56.48,52.29,55.15C53.59,54.25,54.71,53.06,55.55,51.6C58.59,46.34,56.79,39.61,51.53,36.58C50.92,36.23,50.29,35.94,49.65,35.72C49.04,34.5,48.34,33.32,47.55,32.18C49.43,32.39,51.29,32.98,53.03,33.98ZM20.56,83.36L26.5,86.79C29.32,88.42,32.9,87.89,35.12,85.5L38.81,81.54C39.83,80.45,41.28,79.87,42.77,79.96L51.58,80.49L57.19,85.79C59.39,87.87,62.66,88.3,65.31,86.88L71.53,83.54C74.6,81.89,76,78.23,74.79,74.96L73.75,72.13L74.4,74.62C75.22,77.79,73.74,81.11,70.83,82.6L65.33,85.44C62.63,86.83,59.33,86.32,57.18,84.17L52.28,79.28L39.84,78.83L35.16,84.06C33.27,86.18,30.15,86.68,27.69,85.26L21.35,81.61C18.89,80.18,17.76,77.23,18.66,74.53L20.86,67.87L14.17,57.28L7.23,55.33C4.21,54.49,2.12,51.73,2.12,48.59L2.12,42.72C2.13,39.68,4.09,36.99,6.98,36.06L10.7,34.87L6.55,35.76C3.3,36.46,0.99,39.34,1.01,42.66L1.06,49.6C1.09,52.67,3.11,55.36,6.05,56.25L13.47,58.49L18.34,65.85C19.16,67.1,19.38,68.64,18.95,70.07L17.36,75.25C16.41,78.37,17.73,81.73,20.56,83.36Z"/></svg>