<svg xmlns="http://www.w3.org/2000/svg" viewBox="0 0 90 90"><path d="M80.05,14.43C68.63,13.85,57.42,10.44,46.34,1.15C45.57,0.5,44.43,0.5,43.66,1.15C32.58,10.46,21.37,14.04,9.95,14.64C8.87,14.7,8,15.58,8,16.67L8,46.96C8,66.15,22.06,74.33,43.86,89.22C44.54,89.69,45.46,89.69,46.14,89.22C67.94,74.34,82,66.15,82,46.96L82,16.45C82,15.37,81.13,14.48,80.05,14.43Z" fill="currentColor"/><path d="M46.34,1.15C50.93,5,55.55,7.84,60.19,9.88C56.26,36.38,37.06,57.86,17.38,69.31C11.37,63.11,8,56.36,8,46.96L8,16.67C8,15.58,8.87,14.7,9.95,14.64C21.37,14.04,32.58,10.46,43.66,1.15C44.43,0.5,45.57,0.5,46.34,1.15Z" fill="currentColor"/><path d="M46.14,89.22C45.8,89.45,45.4,89.57,45,89.57L45,45L82,45L82,46.96C82,66.15,67.94,74.34,46.14,89.22Z" fill="currentColor"/><path d="M45,45L8,45L8,16.67C8,15.58,8.87,14.7,9.95,14.64C21.37,14.04,32.58,10.46,43.66,1.15C44.05,0.83,44.53,0.67,45,0.67Z" fill="currentColor"/><path d="M46.14,89.22C45.99,89.32,45.83,89.4,45.66,89.46L69.39,70.08C74.24,66.13,77.72,60.76,79.37,54.72L82,45.04L82,46.96C82,66.15,67.94,74.34,46.14,89.22Z" fill="currentColor"/><path d="M14.79,15.62C11.96,15.96,9.69,18.17,9.44,21.01C8.73,29.02,9.07,35.26,8,43.88L8,16.67C8,15.58,8.87,14.7,9.95,14.64C21.37,14.04,32.58,10.46,43.66,1.15C44,0.87,44.41,0.71,44.83,0.67L44.59,0.92C36.61,9.06,26.1,14.25,14.79,15.62Z" fill="currentColor"/><path d="M45,45.61L45.61,45L59.69,45L45,59.69Z" fill="currentColor"/><path d="M28.88,45L22.2,45C24.99,42.34,26.17,42.35,28.88,45Z" fill="currentColor"/><path d="M37.25,53.36L45,45.61L45,59.69L39.83,64.86C37.83,66.86,36.5,66.78,34.5,64.86L22,52.28C19.08,49.36,19.08,48.19,22,45.19C22.07,45.13,22.14,45.06,22.2,45L28.88,45C28.95,45.06,29.02,45.13,29.08,45.19Z" fill="currentColor"/><path d="M67.92,29.78C70.83,32.69,70.83,33.86,67.92,36.78L59.69,45L45.61,45L61.36,29.25C63.9,26.79,65.1,26.97,67.92,29.78Z" fill="currentColor"/><path d="M67.92,33.22C70.83,30.31,70.83,29.14,67.92,26.22C64.92,23.22,63.75,23.22,60.83,26.22L37.25,49.81L29.08,41.64C26.17,38.72,25,38.72,22,41.64C19.08,44.64,19.08,45.81,22,48.72L34.5,61.31C36.5,63.22,37.83,63.31,39.83,61.31Z" fill="currentColor"/></svg>