<svg xmlns="http://www.w3.org/2000/svg" viewBox="0 0 90 90"><path d="M59.41,54.42C56.71,56.89,54.39,59.75,52.52,62.89C58.42,64.47,59.41,68.47,59.41,74.03L59.41,76.74L8.39,76.74L8.39,74.03C8.39,68.64,9.21,64.54,15.34,62.9C13.46,59.74,11.12,56.89,8.39,54.42C4.18,50.28,-0.17,45.92,-0.17,39.12C-0.34,30.14,6.81,22.38,15.93,22.54C20.07,22.39,24.16,23.4,27.75,25.48L29.21,19.1L23.36,19.1L23.36,10.11L29.37,10.11L29.37,4.04L38.41,4.04L38.41,10.27L44.42,10.27L44.42,19.2L38.57,19.2L40.03,25.58C43.61,23.47,47.7,22.42,51.85,22.54C61.42,22.29,68.19,29.78,67.98,39.12C67.98,45.88,63.64,50.22,59.41,54.42Z" fill="currentColor"/><path d="M53.02,40.88C53.78,35.59,47.92,35.39,47.9,35.39C44.67,35.39,40.65,38.26,40.65,38.26L40.65,50.76C42.05,50.81,43,50.91,44.61,51.01C45.81,49.47,47.24,48.11,48.58,46.84C50.78,44.74,52.73,42.89,53.02,40.88Z" fill="currentColor"/><path d="M19.86,35.39C19.86,35.39,14.03,35.6,14.73,40.88C15.02,42.88,16.97,44.73,19.16,46.82C20.5,48.1,21.94,49.46,23.15,51.01C24.76,50.9,25.74,50.76,27.1,50.76L27.1,38.26C27.1,38.26,23.09,35.39,19.86,35.39Z" fill="currentColor"/><path d="M67.98,39.12C67.98,45.88,63.64,50.22,59.41,54.42C56.71,56.89,54.39,59.75,52.52,62.89C52.53,62.89,52.54,62.9,52.54,62.9C50.63,62.38,48.51,62.22,46.48,62.22L46.34,62.22L61.32,47.21C68.72,39.8,63.78,28.51,62.9,26.65C62.93,26.65,62.96,26.65,62.99,26.65C66.22,29.68,68.09,34.14,67.98,39.12Z" fill="currentColor" opacity="0.5"/><path d="M52.66,62.93C53.07,63.04,53.45,63.17,53.81,63.31C54.6,63.61,55.33,63.98,55.98,64.45C57.25,65.35,58.07,66.51,58.58,67.89C56.95,67.16,51.43,65.72,33.88,65.72C16.42,65.72,10.87,67.18,9.2,67.88C9.68,66.63,10.42,65.55,11.55,64.67C12.42,64,13.43,63.51,14.52,63.15C14.76,63.07,15.01,62.99,15.27,62.92C17.26,62.38,19.43,62.22,21.38,62.22L46.48,62.22C48.55,62.22,50.72,62.39,52.66,62.93Z" fill="currentColor"/><path d="M16.89,22.54C4.62,24.55,-1.36,36.19,2.3,47.41C0.69,44.94,-0.17,42.06,-0.17,39.12C-0.26,34.68,1.41,30.39,4.45,27.18C5.96,25.68,7.75,24.49,9.72,23.69C11.7,22.9,13.8,22.5,15.93,22.54Z" fill="currentColor"/><path d="M16.89,22.54C16.91,22.54,16.92,22.53,16.94,22.53L16.94,22.54Z" fill="currentColor"/><path d="M37.04,5.55L30.88,5.55L30.88,11.6L24.86,11.6L24.86,17.73L23.51,19.1L23.36,19.1L23.36,10.11L29.37,10.11L29.37,4.04L38.41,4.04L38.41,4.19Z" fill="currentColor"/><path d="M37.05,11.6L38.42,10.11L44.43,10.11L44.43,11.6Z" fill="currentColor"/><path d="M75.71,63.62C73.01,66.09,70.69,68.95,68.82,72.09C74.72,73.67,75.71,77.67,75.71,83.23L75.71,85.95L24.69,85.95L24.69,83.23C24.69,77.84,25.52,73.74,31.64,72.1C29.76,68.94,27.42,66.09,24.69,63.62C20.48,59.48,16.13,55.13,16.13,48.32C15.96,39.34,23.11,31.59,32.23,31.74C36.37,31.59,40.47,32.61,44.05,34.68L45.51,28.3L39.66,28.3L39.66,19.31L45.68,19.31L45.68,13.25L54.71,13.25L54.71,19.47L60.73,19.47L60.73,28.4L54.87,28.4L56.34,34.78C59.91,32.67,64.01,31.62,68.15,31.74C77.72,31.5,84.49,38.98,84.28,48.32C84.28,55.08,79.94,59.43,75.71,63.62Z" fill="currentColor"/><path d="M69.32,50.08C70.09,44.79,64.23,44.59,64.2,44.59C60.97,44.59,56.95,47.47,56.95,47.47L56.95,59.96C58.35,60.02,59.3,60.11,60.91,60.21C62.11,58.67,63.54,57.31,64.88,56.04C67.08,53.95,69.04,52.09,69.32,50.08Z" fill="currentColor"/><path d="M36.16,44.59C36.16,44.59,30.33,44.8,31.03,50.08C31.33,52.09,33.27,53.93,35.46,56.02C36.81,57.3,38.24,58.66,39.45,60.21C41.06,60.1,42.04,59.96,43.4,59.96L43.4,47.47C43.4,47.47,39.4,44.59,36.16,44.59Z" fill="currentColor"/><path d="M80.83,63.62C78.12,66.09,75.8,68.95,73.93,72.09C79.83,73.67,80.83,77.67,80.83,83.23L80.83,85.95L29.8,85.95L29.8,83.23C29.8,77.84,30.63,73.74,36.76,72.1C34.87,68.94,32.53,66.09,29.8,63.62C25.59,59.48,21.24,55.13,21.24,48.32C21.07,39.34,28.23,31.59,37.35,31.74C41.48,31.59,45.58,32.61,49.16,34.68L50.62,28.3L44.77,28.3L44.77,19.31L50.79,19.31L50.79,13.25L59.82,13.25L59.82,19.47L65.84,19.47L65.84,28.4L59.99,28.4L61.45,34.78C65.02,32.67,69.12,31.62,73.26,31.74C82.83,31.5,89.61,38.98,89.4,48.32C89.4,55.08,85.05,59.43,80.83,63.62Z" fill="currentColor"/><path d="M74.44,50.08C75.2,44.79,69.34,44.59,69.31,44.59C66.08,44.59,62.07,47.47,62.07,47.47L62.07,59.96C63.47,60.02,64.41,60.11,66.02,60.21C67.23,58.67,68.66,57.31,69.99,56.04C72.2,53.95,74.15,52.09,74.44,50.08Z" fill="currentColor"/><path d="M41.27,44.59C41.27,44.59,35.45,44.8,36.15,50.08C36.44,52.09,38.38,53.93,40.58,56.02C41.92,57.3,43.35,58.66,44.56,60.21C46.17,60.1,47.15,59.96,48.52,59.96L48.52,47.47C48.52,47.47,44.51,44.59,41.27,44.59Z" fill="currentColor"/><path d="M89.4,48.32C89.4,55.08,85.05,59.43,80.83,63.62C78.12,66.09,75.8,68.95,73.93,72.09C73.94,72.1,73.95,72.1,73.96,72.1C72.04,71.58,69.92,71.42,67.89,71.42L67.76,71.42L82.73,56.41C90.13,49,85.2,37.71,84.32,35.85C84.35,35.85,84.38,35.85,84.41,35.85C87.63,38.89,89.51,43.34,89.4,48.32Z" fill="currentColor"/><path d="M74.05,72.13C74.47,72.24,74.86,72.37,75.24,72.51C76.02,72.81,76.74,73.19,77.4,73.65C78.66,74.56,79.48,75.72,80,77.09C78.37,76.36,72.85,74.92,55.3,74.92C37.83,74.92,32.28,76.38,30.62,77.08C31.09,75.83,31.83,74.75,32.96,73.87C33.83,73.2,34.85,72.71,35.93,72.35C36.18,72.27,36.42,72.19,36.68,72.12C38.67,71.58,40.84,71.42,42.8,71.42L67.89,71.42C69.95,71.42,72.11,71.59,74.05,72.13Z" fill="currentColor"/><path d="M38.3,31.74C26.03,33.76,20.05,45.39,23.71,56.61C22.1,54.15,21.24,51.26,21.24,48.32C21.16,43.88,22.82,39.59,25.87,36.38C27.38,34.88,29.17,33.7,31.14,32.9C33.11,32.11,35.22,31.71,37.35,31.74Z" fill="currentColor"/><path d="M38.3,31.74C38.32,31.74,38.34,31.74,38.35,31.73L38.35,31.74Z" fill="currentColor"/><path d="M58.46,14.76L52.3,14.76L52.3,20.8L46.28,20.8L46.28,26.93L44.92,28.3L44.77,28.3L44.77,19.31L50.79,19.31L50.79,13.25L59.82,13.25L59.82,13.39Z" fill="currentColor"/><path d="M58.47,20.8L59.83,19.31L65.85,19.31L65.85,20.8Z" fill="currentColor"/></svg>