<svg xmlns="http://www.w3.org/2000/svg" viewBox="0 0 90 90"><path d="M85.71,40.38L78.12,59.15C77.51,60.67,76.04,61.66,74.41,61.66L17.59,61.66C15.96,61.66,14.49,60.67,13.88,59.15L6.29,40.38C6.1,39.9,6,39.39,6,38.88L6,10C6,7.79,7.79,6,10,6L82,6C84.21,6,86,7.79,86,10L86,38.88C86,39.39,85.9,39.9,85.71,40.38Z" fill="currentColor"/><path d="M74.16,58L18.8,58L13.94,43.16L78.06,43.16Z" fill="currentColor"/><path d="M74.16,58L18.8,58L18.8,43.16L74.16,43.16Z" fill="currentColor"/><path d="M82,6L10,6C7.79,6,6,7.79,6,10L6,37.66C6,38.76,6.9,39.66,8,39.66L84,39.66C85.1,39.66,86,38.76,86,37.66L86,10C86,7.79,84.21,6,82,6Z" fill="currentColor"/><path d="M86,35.66L86,10C86,9.96,86,9.91,86,9.87L84.15,34.05C83.99,36.09,82.32,37.68,80.28,37.74L14.9,39.66L82,39.66C84.21,39.66,86,37.87,86,35.66Z" fill="currentColor"/><path d="M11.72,7.91L77.07,6L10,6C7.79,6,6,7.79,6,10L6,35.66C6,35.7,6,35.74,6,35.79L7.85,11.61C8.01,9.57,9.68,7.97,11.72,7.91Z" fill="currentColor"/><path d="M52.26,18.82L53.95,29.45L57.34,29.45L60.35,20.05C61.74,20.2,62.81,20.44,64.66,20.9C66.13,21.28,67.67,21.75,68.75,22.28L67.67,33.38C67.36,36.93,65.59,39.16,61.35,40.78L65.27,73.08C65.28,73.08,65.3,73.08,65.31,73.08C74.49,74.47,73.87,79.4,73.87,84.95L73.87,86.72L19.13,86.72L19.13,84.95C19.13,79.4,18.51,74.39,27.68,73.08L31.53,40.78C26.67,38.93,25.44,36.69,25.13,33.38L24.21,22.13C26.98,21.05,30.14,20.05,32.45,20.05L35.46,29.45L38.93,29.45L40.54,18.82C42.47,18.51,44.47,18.28,46.4,18.28C48.33,18.28,50.33,18.51,52.26,18.82Z" fill="currentColor"/><path d="M65.28,73.14L65.28,73.14L65.28,73.14C63.43,72.91,61.58,72.76,59.73,72.68C59.35,70.9,59,69.16,58.65,67.47C55.41,51.48,53.09,40.04,34.76,40.32C41.16,39.01,50.64,38.85,56.03,39.62C62.28,38.33,64.2,27.86,65.29,21.07C66.53,21.41,67.78,21.81,68.71,22.26C68.72,22.27,68.73,22.28,68.75,22.29L67.67,33.38C67.67,33.39,67.67,33.4,67.67,33.41C67.35,36.94,65.58,39.17,61.35,40.78Z" fill="currentColor" opacity="0.5"/><path d="M65.3,73.08C70.78,73.93,72.78,75.93,73.47,78.63C70.47,76.63,65.23,76.09,46.49,76.09C27.83,76.09,22.28,76.55,19.51,78.55C20.2,75.93,22.28,73.93,27.68,73.08C30.3,72.7,38.4,72.62,46.49,72.62C56.82,72.62,61.29,72.47,65.3,73.08Z" fill="currentColor"/><path d="M27.47,38.52C25.89,37.12,25.33,35.47,25.13,33.4C25.13,33.39,25.13,33.39,25.13,33.38L24.21,22.13C26.03,21.42,28.02,20.75,29.82,20.37C26.78,22.37,26.07,31.68,27.47,38.52Z" fill="currentColor"/><path d="M64.01,20.74C60.82,23.11,58.15,27.91,57.34,29.45L60.35,20.05C60.36,20.05,60.38,20.05,60.4,20.06C61.59,20.19,62.56,20.38,64.01,20.74Z" fill="currentColor"/><path d="M38.93,29.45L40.54,18.82C42.47,18.51,44.47,18.28,46.4,18.28C41.47,19.97,39.31,28.14,38.93,29.45Z" fill="currentColor"/><path d="M62.27,56.66L63.32,57.01L61.35,40.78C65.59,39.16,67.36,36.93,67.67,33.38L68.75,22.29C67.67,21.75,66.13,21.28,64.66,20.9C62.81,20.44,61.74,20.2,60.35,20.05L57.34,29.45L53.95,29.45L52.26,18.82C50.33,18.51,48.33,18.28,46.4,18.28C44.47,18.28,42.47,18.51,40.54,18.82L38.93,29.45L35.46,29.45L32.45,20.05C30.14,20.05,26.98,21.05,24.21,22.13L25.13,33.38C25.44,36.69,26.67,38.93,31.53,40.78L29.58,57.19L29.88,57.08C40.33,53.35,51.72,53.2,62.27,56.66Z" fill="currentColor"/><path d="M62.18,47.64L61.35,40.78C65.59,39.16,67.36,36.93,67.67,33.38L68.75,22.29C67.67,21.75,66.13,21.28,64.66,20.9C62.81,20.44,61.74,20.2,60.35,20.05L57.34,29.45L53.95,29.45L52.26,18.82C50.33,18.51,48.33,18.28,46.4,18.28C44.47,18.28,42.47,18.51,40.54,18.82L38.93,29.45L35.46,29.45L32.45,20.05C30.14,20.05,26.98,21.05,24.21,22.13L25.13,33.38C25.44,36.69,26.67,38.93,31.53,40.78L30.69,47.8C40.89,44.35,51.94,44.29,62.18,47.64Z" fill="currentColor"/></svg>