<svg xmlns="http://www.w3.org/2000/svg" viewBox="0 0 90 90"><path d="M48.13,10.86C46.48,8.96,43.52,8.96,41.87,10.86L25.87,29.29L11.52,17.97C9.3,16.22,6.04,17.9,6.19,20.73L7.49,44.82C7.67,48.07,11.97,51.79,15.22,51.79L74.76,51.79C78.01,51.79,82.32,48.07,82.49,44.82L83.79,20.73C83.94,17.9,80.69,16.21,78.46,17.97L64.11,29.29L64.13,29.29Z" fill="currentColor"/><path d="M69.37,25.16L82.5,44.82L7.5,44.82L20.75,25.25L25.87,29.29L64.13,29.29Z" fill="currentColor"/><path d="M48.13,10.86C46.48,8.96,43.52,8.96,41.87,10.86L25.87,29.29C25.87,29.29,16.48,39.64,7.5,44.83L8.48,62.96C8.66,66.21,11.98,70.81,15.23,70.81L74.77,70.81C78.02,70.81,81.35,66.21,81.52,62.96L82.5,44.83C73.51,39.64,64.13,29.29,64.13,29.29Z" fill="currentColor"/><path d="M8.63,65.72L81.37,65.72L81.52,62.96L8.48,62.96Z" fill="currentColor"/><path d="M66.8,35.63C64.16,33.08,62.42,31.17,62.25,30.99L62.23,30.97L62.21,30.95L46.21,12.52C45.79,12.04,45.27,11.97,45,11.97C44.73,11.97,44.2,12.04,43.79,12.52L27.79,30.95L27.77,30.97L27.75,30.99C27.38,31.4,18.88,40.72,10.12,46.21L11.03,62.96L48.3,62.96L48.29,62.96C57.23,56.29,63.86,46.72,66.8,35.63Z" fill="currentColor"/><path d="M81.37,65.73L8.63,65.73L9.12,74.78C9.18,75.9,9.54,76.93,10.12,77.8L11.12,78.8L78.89,78.8L79.89,77.8C80.47,76.92,80.83,75.89,80.89,74.78L80.88,74.78Z" fill="currentColor"/><path d="M10.12,77.8C11.22,79.47,13.1,80.57,15.24,80.57L74.78,80.57C76.91,80.57,78.8,79.47,79.9,77.8L79.88,77.8Z" fill="currentColor"/><path d="M11.31,68.27L11.53,72.4C13.77,72.71,16.06,72.87,18.38,72.87C25.87,72.87,32.98,71.22,39.36,68.27Z" fill="currentColor"/></svg>