<svg xmlns="http://www.w3.org/2000/svg" viewBox="0 0 90 90" fill="currentColor"><path d="M24.07,11.1C17.4,4.42,6.02,5.13,6.02,5.13C6.02,5.13,5.32,16.51,11.99,23.18L50.22,61.4L56.42,55.52L62.25,49.27L62.25,49.28ZM62.25,49.28L24.07,11.1C17.4,4.42,6.02,5.13,6.02,5.13L56.42,55.53ZM22.29,33.48L15.94,27.13L15.96,27.11C18.3,24.95,18.56,21.42,16.74,18.82C14.99,16.32,13.31,12.17,14.31,5.98C17.6,6.77,21.26,8.27,24.08,11.09L37,24.01L37.01,24.03ZM53.46,33.71L53.46,43.25L40.1,27.13ZM29.64,28.75L14.44,13.55C13.97,11.47,13.83,8.97,14.31,5.98C14.36,5.99,14.41,6.01,14.47,6.02C14.79,6.1,15.11,6.18,15.44,6.28C15.58,6.32,15.72,6.36,15.86,6.41C16.06,6.47,16.27,6.54,16.48,6.61C16.73,6.69,16.97,6.78,17.22,6.87C17.41,6.94,17.61,7.01,17.8,7.09C18,7.17,18.19,7.25,18.39,7.33C18.55,7.4,18.7,7.47,18.86,7.54C19.17,7.68,19.48,7.83,19.78,7.99C19.9,8.05,20.02,8.12,20.14,8.18C20.48,8.37,20.82,8.57,21.15,8.78C21.26,8.85,21.36,8.91,21.47,8.98C21.68,9.12,21.89,9.26,22.09,9.41C22.11,9.42,22.13,9.44,22.15,9.46C22.56,9.76,22.96,10.08,23.34,10.42C23.43,10.5,23.52,10.58,23.61,10.66C23.77,10.81,23.93,10.95,24.08,11.11L37.01,24.04L37,24.03ZM65.77,64.81C59.35,64.81,55.1,62.93,52.77,61.47L51.15,68.55L57.59,68.55L57.59,78.5L50.97,78.5L50.97,85.12L41.03,85.12L41.03,78.5L34.41,78.5L34.41,68.56L40.85,68.56L39.23,61.48C38.2,62.12,36.8,62.85,35,63.46C33.9,57.71,33.8,53.03,33.95,49.91C36.44,48.98,38.58,47.46,38.58,47.46L38.58,33.71C38.41,33.71,38.25,33.7,38.08,33.69L40.1,27.14L34.14,33.27C31.23,35.91,28.88,38.47,26.97,40.94C26.46,41.52,26.02,42.1,25.68,42.68C19.39,51.6,18.91,59.05,19.57,63.63C17.27,62.76,15.21,61.45,13.51,59.71C10.27,56.39,8.49,51.71,8.49,46.54C8.49,39.03,13.28,34.25,17.92,29.63C20.77,26.79,23.72,23.85,25.62,20.25C17.92,18.29,17.93,13.09,17.95,7.12L17.95,5.13L74.01,5.13L74.01,7.12C74.03,13.09,74.04,18.29,66.34,20.25C68.25,23.85,71.18,26.78,74.04,29.63C78.68,34.25,83.47,39.03,83.47,46.54C83.47,51.71,81.68,56.39,78.45,59.71L78.47,59.7C75.25,62.99,70.74,64.81,65.77,64.81ZM57.81,33.43C56.05,33.55,54.96,33.63,53.47,33.7L53.47,47.45C53.47,47.45,57.88,50.61,61.43,50.61C61.43,50.61,67.9,50.38,67.07,44.58C66.56,41.03,61.32,37.91,57.81,33.43ZM46.01,21.39C38.77,21.53,31.08,21.32,25.65,20.23C20.33,18.88,18.7,15.98,18.19,12.35C18.19,12.35,22.7,16.71,46,16.71C69.3,16.71,73.81,12.36,73.81,12.35C73.31,15.99,71.67,18.88,66.35,20.23L66.37,20.23C60.94,21.32,53.25,21.54,46.01,21.39ZM19.6,63.62C17.31,62.75,15.25,61.44,13.55,59.7C10.31,56.38,8.53,51.7,8.53,46.53C8.53,42.81,9.71,39.75,11.46,37.05C11.46,37.07,7.77,51.14,19.39,59.57L19.39,59.58C19.33,61.1,19.43,62.45,19.6,63.62ZM83.18,50.17C83.11,50.58,83.03,50.97,82.93,51.37C82.93,51.42,82.9,51.49,82.89,51.54C82.79,51.93,82.69,52.31,82.57,52.69C82.55,52.75,82.53,52.81,82.52,52.87C82.4,53.23,82.27,53.6,82.13,53.95C82.1,54.01,82.09,54.08,82.06,54.15C81.92,54.51,81.76,54.85,81.59,55.2C81.49,55.4,81.39,55.59,81.29,55.78C81.17,56.01,81.06,56.23,80.93,56.46C80.24,57.64,79.42,58.74,78.47,59.7C76.09,62.14,72.99,63.76,69.53,64.45L62.25,55.92L70.97,43.25C70.97,43.25,76.24,43.65,79.68,45.42C78.32,41.03,75.62,36.14,70.31,32.43C61.89,26.53,59.12,22.38,58.45,21.19C61.35,21,64.06,20.7,66.35,20.24C68.26,23.84,71.19,26.77,74.05,29.62C78.69,34.24,83.48,39.02,83.48,46.53C83.48,47.76,83.37,48.96,83.17,50.12L83.2,50.14L83.18,50.12C83.18,50.12,83.18,50.16,83.18,50.17ZM37.26,36.37L34.16,33.26C31.85,35.36,29.88,37.41,28.21,39.4L34.41,45.6L50.21,61.41L56.41,55.53L56.42,55.53ZM40.1,27.13L34.16,33.25L37.26,36.37L56.42,55.53L62.25,49.28ZM72.92,44.19C71.78,43.05,69.94,42.92,68.65,43.92C66.61,45.51,64.45,47.31,62.25,49.27C62.25,49.27,54.47,56.23,50.21,61.39C48.25,63.59,46.45,65.75,44.86,67.79C43.86,69.08,43.99,70.92,45.13,72.06C46.27,73.2,49.01,75.51,49.86,74.79L75.65,48.91L75.65,48.92C76.37,48.07,74.06,45.33,72.92,44.19ZM84.45,72.18C87.59,75.32,85.49,78.31,82.35,81.45C79.21,84.59,76.22,86.69,73.08,83.55C71.41,81.88,73.19,80.04,73.19,80.04L80.95,72.28L80.94,72.29C80.94,72.29,82.78,70.51,84.45,72.18ZM80.86,72.41L73.1,80.16L57.74,66.96L67.61,57ZM28.21,39.4C29.88,37.41,31.85,35.36,34.16,33.26L40.11,27.14C40.11,27.14,33.19,35.94,33.51,44.7L33.51,44.69ZM36.05,31.3L40.1,27.13C40.1,27.13,37.6,30.33,35.68,34.77L34.17,33.25L34.16,33.26Z"/></svg>