<svg xmlns="http://www.w3.org/2000/svg" viewBox="0 0 90 90"><path d="M80.05,14.43C68.63,13.85,57.42,10.44,46.34,1.15C45.57,0.5,44.43,0.5,43.66,1.15C32.58,10.46,21.37,14.04,9.95,14.64C8.87,14.7,8,15.58,8,16.67L8,46.96C8,66.15,22.06,74.33,43.86,89.22C44.55,89.69,45.46,89.69,46.14,89.22C67.94,74.34,82,66.15,82,46.96L82,16.45C82,15.37,81.13,14.48,80.05,14.43Z" fill="currentColor"/><path d="M46.34,1.15C50.93,5,55.55,7.84,60.19,9.88C56.26,36.38,37.06,57.86,17.38,69.31C11.37,63.11,8,56.36,8,46.96L8,16.67C8,15.58,8.87,14.7,9.95,14.64C21.37,14.04,32.58,10.46,43.66,1.15C44.43,0.5,45.57,0.5,46.34,1.15Z" fill="currentColor"/><path d="M46.14,89.22C45.8,89.45,45.4,89.57,45,89.57L45,45L82,45L82,46.96C82,66.15,67.94,74.34,46.14,89.22Z" fill="currentColor"/><path d="M45,45L8,45L8,16.67C8,15.58,8.87,14.7,9.95,14.64C21.37,14.04,32.58,10.46,43.66,1.15C44.05,0.83,44.53,0.67,45,0.67Z" fill="currentColor"/><path d="M46.14,89.22C45.99,89.32,45.83,89.4,45.66,89.46L69.39,70.08C74.24,66.13,77.72,60.76,79.37,54.72L82,45.04L82,46.96C82,66.15,67.94,74.34,46.14,89.22Z" fill="currentColor"/><path d="M14.79,15.62C11.96,15.96,9.69,18.17,9.44,21.01C8.73,29.02,9.07,35.26,8,43.88L8,16.67C8,15.58,8.87,14.7,9.95,14.64C21.37,14.04,32.58,10.46,43.66,1.15C44,0.87,44.41,0.71,44.83,0.67L44.59,0.92C36.61,9.06,26.1,14.25,14.79,15.62Z" fill="currentColor"/></svg>