<svg xmlns="http://www.w3.org/2000/svg" viewBox="0 0 90 90"><path d="M60.41,55.42C57.71,57.89,55.39,60.75,53.52,63.89C59.42,65.47,60.41,69.47,60.41,75.03L60.41,77.74L9.39,77.74L9.39,75.03C9.39,69.64,10.21,65.54,16.34,63.9C14.46,60.74,12.12,57.89,9.39,55.42C5.18,51.28,0.83,46.92,0.83,40.12C0.66,31.14,7.81,23.38,16.93,23.54C21.07,23.39,25.16,24.4,28.75,26.48L30.21,20.1L24.36,20.1L24.36,11.11L30.37,11.11L30.37,5.04L39.41,5.04L39.41,11.27L45.42,11.27L45.42,20.2L39.57,20.2L41.03,26.58C44.61,24.47,48.7,23.42,52.85,23.54C62.42,23.29,69.19,30.78,68.98,40.12C68.98,46.88,64.64,51.22,60.41,55.42Z" fill="currentColor"/><path d="M54.02,41.88C54.78,36.59,48.92,36.39,48.9,36.39C45.67,36.39,41.65,39.26,41.65,39.26L41.65,51.76C43.05,51.81,44,51.91,45.61,52.01C46.81,50.47,48.24,49.11,49.58,47.84C51.78,45.74,53.73,43.89,54.02,41.88Z" fill="currentColor"/><path d="M20.86,36.39C20.86,36.39,15.03,36.6,15.73,41.88C16.02,43.88,17.97,45.73,20.16,47.82C21.5,49.1,22.94,50.46,24.15,52.01C25.76,51.9,26.74,51.76,28.1,51.76L28.1,39.26C28.1,39.26,24.09,36.39,20.86,36.39Z" fill="currentColor"/><path d="M68.98,40.12C68.98,46.88,64.64,51.22,60.41,55.42C57.71,57.89,55.39,60.75,53.52,63.89C53.53,63.89,53.54,63.9,53.54,63.9C51.63,63.38,49.51,63.22,47.48,63.22L47.34,63.22L62.32,48.21C69.72,40.8,64.78,29.51,63.9,27.65C63.93,27.65,63.96,27.65,63.99,27.65C67.22,30.68,69.09,35.14,68.98,40.12Z" fill="currentColor" opacity="0.5"/><path d="M53.66,63.93C54.07,64.04,54.45,64.17,54.81,64.31C55.6,64.61,56.33,64.98,56.98,65.45C58.25,66.35,59.07,67.51,59.58,68.89C57.95,68.16,52.43,66.72,34.88,66.72C17.42,66.72,11.87,68.18,10.2,68.88C10.68,67.63,11.42,66.55,12.55,65.67C13.42,65,14.43,64.51,15.52,64.15C15.76,64.07,16.01,63.99,16.27,63.92C18.26,63.38,20.43,63.22,22.38,63.22L47.48,63.22C49.55,63.22,51.72,63.39,53.66,63.93Z" fill="currentColor"/><path d="M17.89,23.54C5.62,25.55,-0.36,37.19,3.3,48.41C1.69,45.94,0.83,43.06,0.83,40.12C0.74,35.68,2.41,31.39,5.45,28.18C6.96,26.68,8.75,25.49,10.72,24.69C12.7,23.9,14.8,23.5,16.93,23.54Z" fill="currentColor"/><path d="M17.89,23.54C17.91,23.54,17.92,23.53,17.94,23.53L17.94,23.54Z" fill="currentColor"/><path d="M38.04,6.55L31.88,6.55L31.88,12.6L25.86,12.6L25.86,18.73L24.51,20.1L24.36,20.1L24.36,11.11L30.37,11.11L30.37,5.04L39.41,5.04L39.41,5.19Z" fill="currentColor"/><path d="M38.05,12.6L39.42,11.11L45.43,11.11L45.43,12.6Z" fill="currentColor"/><path d="M76.71,64.62C74.01,67.09,71.69,69.95,69.82,73.09C75.72,74.67,76.71,78.67,76.71,84.23L76.71,86.95L25.69,86.95L25.69,84.23C25.69,78.84,26.52,74.74,32.64,73.1C30.76,69.94,28.42,67.09,25.69,64.62C21.48,60.48,17.13,56.13,17.13,49.32C16.96,40.34,24.11,32.59,33.23,32.74C37.37,32.59,41.47,33.61,45.05,35.68L46.51,29.3L40.66,29.3L40.66,20.31L46.68,20.31L46.68,14.25L55.71,14.25L55.71,20.47L61.73,20.47L61.73,29.4L55.87,29.4L57.34,35.78C60.91,33.67,65.01,32.62,69.15,32.74C78.72,32.5,85.49,39.98,85.28,49.32C85.28,56.08,80.94,60.43,76.71,64.62Z" fill="currentColor"/><path d="M70.32,51.08C71.09,45.79,65.23,45.59,65.2,45.59C61.97,45.59,57.95,48.47,57.95,48.47L57.95,60.96C59.35,61.02,60.3,61.11,61.91,61.21C63.11,59.67,64.54,58.31,65.88,57.04C68.08,54.95,70.04,53.09,70.32,51.08Z" fill="currentColor"/><path d="M37.16,45.59C37.16,45.59,31.33,45.8,32.03,51.08C32.33,53.09,34.27,54.93,36.46,57.02C37.81,58.3,39.24,59.66,40.45,61.21C42.06,61.1,43.04,60.96,44.4,60.96L44.4,48.47C44.4,48.47,40.4,45.59,37.16,45.59Z" fill="currentColor"/><path d="M81.83,64.62C79.12,67.09,76.8,69.95,74.93,73.09C80.83,74.67,81.83,78.67,81.83,84.23L81.83,86.95L30.8,86.95L30.8,84.23C30.8,78.84,31.63,74.74,37.76,73.1C35.87,69.94,33.53,67.09,30.8,64.62C26.59,60.48,22.24,56.13,22.24,49.32C22.07,40.34,29.23,32.59,38.35,32.74C42.48,32.59,46.58,33.61,50.16,35.68L51.62,29.3L45.77,29.3L45.77,20.31L51.79,20.31L51.79,14.25L60.82,14.25L60.82,20.47L66.84,20.47L66.84,29.4L60.99,29.4L62.45,35.78C66.02,33.67,70.12,32.62,74.26,32.74C83.83,32.5,90.61,39.98,90.4,49.32C90.4,56.08,86.05,60.43,81.83,64.62Z" fill="currentColor"/><path d="M75.44,51.08C76.2,45.79,70.34,45.59,70.31,45.59C67.08,45.59,63.07,48.47,63.07,48.47L63.07,60.96C64.47,61.02,65.41,61.11,67.02,61.21C68.23,59.67,69.66,58.31,70.99,57.04C73.2,54.95,75.15,53.09,75.44,51.08Z" fill="currentColor"/><path d="M42.27,45.59C42.27,45.59,36.45,45.8,37.15,51.08C37.44,53.09,39.38,54.93,41.58,57.02C42.92,58.3,44.35,59.66,45.56,61.21C47.17,61.1,48.15,60.96,49.52,60.96L49.52,48.47C49.52,48.47,45.51,45.59,42.27,45.59Z" fill="currentColor"/><path d="M90.4,49.32C90.4,56.08,86.05,60.43,81.83,64.62C79.12,67.09,76.8,69.95,74.93,73.09C74.94,73.1,74.95,73.1,74.96,73.1C73.04,72.58,70.92,72.42,68.89,72.42L68.76,72.42L83.73,57.41C91.13,50,86.2,38.71,85.32,36.85C85.35,36.85,85.38,36.85,85.41,36.85C88.63,39.89,90.51,44.34,90.4,49.32Z" fill="currentColor"/><path d="M75.05,73.13C75.47,73.24,75.86,73.37,76.24,73.51C77.02,73.81,77.74,74.19,78.4,74.65C79.66,75.56,80.48,76.72,81,78.09C79.37,77.36,73.85,75.92,56.3,75.92C38.83,75.92,33.28,77.38,31.62,78.08C32.09,76.83,32.83,75.75,33.96,74.87C34.83,74.2,35.85,73.71,36.93,73.35C37.18,73.27,37.42,73.19,37.68,73.12C39.67,72.58,41.84,72.42,43.8,72.42L68.89,72.42C70.95,72.42,73.11,72.59,75.05,73.13Z" fill="currentColor"/><path d="M39.3,32.74C27.03,34.76,21.05,46.39,24.71,57.61C23.1,55.15,22.24,52.26,22.24,49.32C22.16,44.88,23.82,40.59,26.87,37.38C28.38,35.88,30.17,34.7,32.14,33.9C34.11,33.11,36.22,32.71,38.35,32.74Z" fill="currentColor"/><path d="M39.3,32.74C39.32,32.74,39.34,32.74,39.35,32.73L39.35,32.74Z" fill="currentColor"/><path d="M59.46,15.76L53.3,15.76L53.3,21.8L47.28,21.8L47.28,27.93L45.92,29.3L45.77,29.3L45.77,20.31L51.79,20.31L51.79,14.25L60.82,14.25L60.82,14.39Z" fill="currentColor"/><path d="M59.47,21.8L60.83,20.31L66.85,20.31L66.85,21.8Z" fill="currentColor"/></svg>