<svg xmlns="http://www.w3.org/2000/svg" viewBox="0 0 90 90" fill="currentColor"><path d="M73.55,70.26C62.13,70.84,50.92,74.25,39.84,83.54C39.07,84.19,37.93,84.19,37.16,83.54C26.08,74.24,14.87,70.65,3.45,70.05C2.37,69.99,1.5,69.11,1.5,68.02L1.5,37.73C1.5,18.54,15.56,10.37,37.36,-4.53C38.05,-5,38.96,-5,39.64,-4.53C61.44,10.35,75.5,18.54,75.5,37.73L75.5,68.24C75.5,69.32,74.63,70.21,73.55,70.26ZM39.84,83.54C44.43,79.69,49.05,76.85,53.69,74.81C49.76,48.32,30.56,26.83,10.88,15.38C4.87,21.58,1.5,28.34,1.5,37.73L1.5,68.02C1.5,69.11,2.37,69.99,3.45,70.05C14.87,70.65,26.08,74.24,37.16,83.54C37.93,84.19,39.07,84.19,39.84,83.54ZM39.64,-4.53C39.3,-4.76,38.9,-4.88,38.5,-4.88L38.5,39.69L75.5,39.69L75.5,37.73C75.5,18.54,61.44,10.35,39.64,-4.53ZM38.5,39.69L1.5,39.69L1.5,68.02C1.5,69.11,2.37,69.99,3.45,70.05C14.87,70.65,26.08,74.24,37.16,83.54C37.55,83.86,38.03,84.02,38.5,84.02ZM39.64,-4.53C39.49,-4.63,39.33,-4.71,39.16,-4.77L62.89,14.61C67.74,18.57,71.22,23.94,72.87,29.97L75.5,39.65L75.5,37.73C75.5,18.54,61.44,10.35,39.64,-4.53ZM8.29,69.07C5.46,68.73,3.19,66.52,2.94,63.68C2.23,55.67,2.57,49.43,1.5,40.81L1.5,68.02C1.5,69.11,2.37,69.99,3.45,70.05C14.87,70.65,26.08,74.24,37.16,83.54C37.5,83.83,37.91,83.98,38.33,84.02L38.09,83.77C30.11,75.63,19.6,70.45,8.29,69.07ZM38.5,39.08L39.11,39.69L53.19,39.69L38.5,25ZM22.38,39.69L15.71,39.69C18.49,42.35,19.68,42.35,22.38,39.69ZM22.58,39.5L30.75,31.33L38.5,39.08L38.5,25L33.33,19.83C31.33,17.83,30,17.91,28,19.83L15.5,32.41C12.58,35.33,12.58,36.5,15.5,39.5C15.57,39.56,15.64,39.63,15.71,39.69L22.38,39.69C22.45,39.63,22.52,39.56,22.58,39.5ZM61.42,54.91C64.33,52,64.33,50.83,61.42,47.91L53.19,39.69L39.11,39.69L54.86,55.44C57.4,57.9,58.6,57.73,61.42,54.91ZM61.42,51.47C64.33,54.39,64.33,55.55,61.42,58.47C58.42,61.47,57.25,61.47,54.33,58.47L30.75,34.89L22.58,43.05C19.67,45.97,18.5,45.97,15.5,43.05C12.58,40.05,12.58,38.89,15.5,35.97L28,23.39C30,21.47,31.33,21.39,33.33,23.39Z"/></svg>