<svg xmlns="http://www.w3.org/2000/svg" viewBox="0 0 90 90"><path d="M77.24,18.98C65.82,18.4,54.62,14.99,43.53,5.7C42.76,5.05,41.63,5.05,40.85,5.7C29.77,15.01,18.56,18.59,7.14,19.19C6.06,19.25,5.19,20.13,5.19,21.22L5.19,51.51C5.19,70.7,19.25,78.88,41.05,93.77C41.74,94.24,42.65,94.24,43.33,93.77C65.13,78.89,79.19,70.7,79.19,51.51L79.19,21C79.19,19.92,78.32,19.03,77.24,18.98Z" fill="currentColor"/><path d="M43.53,5.7C48.14,9.57,52.77,12.41,57.43,14.46C53.73,41.37,35.44,63.35,16.27,75.54C9.21,68.87,5.19,61.76,5.19,51.51L5.19,21.22C5.19,20.13,6.06,19.25,7.14,19.19C18.56,18.59,29.77,15.01,40.85,5.7C41.63,5.05,42.76,5.05,43.53,5.7Z" fill="currentColor"/><path d="M43.33,93.77C42.99,94,42.59,94.12,42.2,94.12L42.2,49.55L79.19,49.55L79.19,51.51C79.19,70.7,65.13,78.89,43.33,93.77Z" fill="currentColor" opacity="0.45"/><path d="M42.2,49.55L5.19,49.55L5.19,21.22C5.19,20.13,6.06,19.25,7.14,19.19C18.56,18.59,29.77,15.01,40.85,5.7C41.24,5.38,41.72,5.22,42.2,5.22Z" fill="currentColor" opacity="0.45"/><path d="M11.98,20.17C9.15,20.51,6.88,22.72,6.63,25.56C5.93,33.57,6.27,39.81,5.19,48.43L5.19,21.22C5.19,20.13,6.06,19.25,7.14,19.19C18.56,18.59,29.77,15.01,40.85,5.7C41.19,5.42,41.61,5.26,42.02,5.22L41.78,5.47C33.81,13.61,23.29,18.8,11.98,20.17Z" fill="currentColor"/><path d="M48.47,37.08L35.76,49.8L58.1,80.08L73.78,63.11L73.78,63.12Z" fill="currentColor"/><path d="M95.46,5.27L90.36,18.06L73.56,18.56C72.99,18.58,72.41,18.55,71.83,18.46L67.07,17.77C66.34,17.67,65.62,17.97,65.18,18.56L24.86,73.19C22.46,76.44,22.25,80.81,24.33,84.27L29.83,93.43L-6,68.59L13.39,74.41C15.6,75.07,17.99,74.13,19.15,72.12L52.48,14.52C53,13.63,52.75,12.48,51.91,11.89L45.47,7.34L50.01,-5Z" fill="currentColor"/><path d="M56.91,2.35L40.28,5.77L39.27,6.68C30.14,14.87,18.22,19.23,5.97,18.87L-1.2,7.77L38.34,-23.52L128.93,70.07L85.88,104.87L1.3,102.19L53.19,13.3C53.33,13.06,53.44,12.81,53.53,12.54Z" fill="currentColor"/><path d="M89.18,78.34L80.05,87.46L61.98,71.93L73.59,60.21Z" fill="currentColor"/><path d="M92.91,78.07C96.6,81.77,94.13,85.28,90.44,88.98C86.74,92.68,83.22,95.15,79.53,91.45C77.56,89.49,79.66,87.32,79.66,87.32L88.79,78.19L88.78,78.2C88.78,78.2,90.94,76.11,92.91,78.07Z" fill="currentColor"/><path d="M31.33,15.17C23.48,7.31,10.09,8.15,10.09,8.15C10.09,8.15,9.27,21.54,17.12,29.39L59.63,71.88L66.92,64.96L73.78,57.61L73.78,57.62Z" fill="currentColor"/><path d="M73.78,57.62L31.33,15.17C23.48,7.31,10.09,8.15,10.09,8.15L66.92,64.98Z" fill="currentColor"/><path d="M77.92,51.58C68.57,58.31,60.31,66.68,53.6,76.01C51.39,79.1,58.67,86.69,60.64,85.1L87.01,58.62L87.01,58.63C88.59,56.66,81.01,49.38,77.92,51.58Z" fill="currentColor"/><path d="M42.9,26.74L30.9,43.16L37.6,49.86L50.6,34.44Z" fill="currentColor" opacity="0.9"/><path d="M62.35,7.99L50.84,26.63L58.37,5.83Z" fill="currentColor"/><path d="M66.59,14.53L55.14,24.97L64.13,12.64Z" fill="currentColor"/></svg>