<svg xmlns="http://www.w3.org/2000/svg" viewBox="0 0 90 90" fill="currentColor"><path d="M49.13,79.67C47.48,81.57,44.52,81.57,42.87,79.67L26.87,61.24L12.52,72.56C10.3,74.31,7.04,72.63,7.19,69.8L8.49,45.71C8.67,42.46,12.97,38.74,16.22,38.74L75.76,38.74C79.01,38.74,83.32,42.46,83.49,45.71L84.79,69.8C84.94,72.63,81.69,74.32,79.46,72.56L65.11,61.24L65.13,61.24ZM70.37,65.37L83.5,45.71L8.5,45.71L21.75,65.28L26.87,61.24L65.13,61.24ZM49.13,79.67C47.48,81.57,44.52,81.57,42.87,79.67L26.87,61.24C26.87,61.24,17.48,50.89,8.5,45.7L9.48,27.57C9.66,24.32,12.98,19.72,16.23,19.72L75.77,19.72C79.02,19.72,82.35,24.32,82.52,27.57L83.5,45.7C74.51,50.89,65.13,61.24,65.13,61.24ZM9.63,24.81L82.37,24.81L82.52,27.57L9.48,27.57ZM67.8,54.9C65.16,57.45,63.42,59.36,63.25,59.54L63.23,59.56L63.21,59.58L47.21,78.01C46.79,78.49,46.27,78.56,46,78.56C45.73,78.56,45.2,78.49,44.79,78.01L28.79,59.58L28.77,59.56L28.75,59.54C28.38,59.13,19.88,49.81,11.12,44.32L12.03,27.57L49.3,27.57L49.29,27.57C58.23,34.24,64.86,43.81,67.8,54.9ZM82.37,24.8L9.63,24.8L10.12,15.75C10.18,14.63,10.54,13.6,11.12,12.73L12.12,11.73L79.89,11.73L80.89,12.73C81.47,13.61,81.83,14.64,81.89,15.75L81.88,15.75ZM11.12,12.73C12.22,11.06,14.1,9.96,16.24,9.96L75.78,9.96C77.91,9.96,79.8,11.06,80.9,12.73L80.88,12.73ZM12.31,22.26L12.53,18.13C14.77,17.82,17.06,17.66,19.38,17.66C26.87,17.66,33.98,19.31,40.36,22.26Z"/></svg>