<svg xmlns="http://www.w3.org/2000/svg" viewBox="0 0 90 90"><path d="M84.71,39.38L77.12,58.15C76.51,59.67,75.04,60.66,73.41,60.66L16.59,60.66C14.96,60.66,13.49,59.67,12.88,58.15L5.29,39.38C5.1,38.9,5,38.39,5,37.88L5,9C5,6.79,6.79,5,9,5L81,5C83.21,5,85,6.79,85,9L85,37.88C85,38.39,84.9,38.9,84.71,39.38Z" fill="currentColor"/><path d="M73.16,57L17.8,57L12.94,42.16L77.06,42.16Z" fill="currentColor"/><path d="M73.16,57L17.8,57L17.8,42.16L73.16,42.16Z" fill="currentColor"/><path d="M81,5L9,5C6.79,5,5,6.79,5,9L5,36.66C5,37.76,5.9,38.66,7,38.66L83,38.66C84.1,38.66,85,37.76,85,36.66L85,9C85,6.79,83.21,5,81,5Z" fill="currentColor"/><path d="M85,34.66L85,9C85,8.96,85,8.91,85,8.87L83.15,33.05C82.99,35.09,81.32,36.68,79.28,36.74L13.9,38.66L81,38.66C83.21,38.66,85,36.87,85,34.66Z" fill="currentColor"/><path d="M10.72,6.91L76.07,5L9,5C6.79,5,5,6.79,5,9L5,34.66C5,34.7,5,34.74,5,34.79L6.85,10.61C7.01,8.57,8.68,6.97,10.72,6.91Z" fill="currentColor"/><path d="M90,42.16L90,90L0,90L0,42.16Z" fill="currentColor"/><path d="M51.26,17.82L52.95,28.45L56.34,28.45L59.35,19.05C60.74,19.2,61.81,19.44,63.66,19.9C65.13,20.28,66.67,20.75,67.75,21.28L66.67,32.38C66.36,35.93,64.59,38.16,60.35,39.78L64.27,72.08C64.28,72.08,64.3,72.08,64.31,72.08C73.49,73.47,72.87,78.4,72.87,83.95L72.87,85.72L18.13,85.72L18.13,83.95C18.13,78.4,17.51,73.39,26.68,72.08L30.53,39.78C25.67,37.93,24.44,35.69,24.13,32.38L23.21,21.13C25.98,20.05,29.14,19.05,31.45,19.05L34.46,28.45L37.93,28.45L39.54,17.82C41.47,17.51,43.47,17.28,45.4,17.28C47.33,17.28,49.33,17.51,51.26,17.82Z" fill="currentColor"/><path d="M64.28,72.14L64.28,72.14L64.28,72.14C62.43,71.91,60.58,71.76,58.73,71.68C58.35,69.9,58,68.16,57.65,66.47C54.41,50.48,52.09,39.04,33.76,39.32C40.16,38.01,49.64,37.85,55.03,38.62C61.28,37.33,63.2,26.86,64.29,20.07C65.53,20.41,66.78,20.81,67.71,21.26C67.72,21.27,67.73,21.28,67.75,21.29L66.67,32.38C66.67,32.39,66.67,32.4,66.67,32.41C66.35,35.94,64.58,38.17,60.35,39.78Z" fill="currentColor" opacity="0.5"/><path d="M64.3,72.08C69.78,72.93,71.78,74.93,72.47,77.63C69.47,75.63,64.23,75.09,45.49,75.09C26.83,75.09,21.28,75.55,18.51,77.55C19.2,74.93,21.28,72.93,26.68,72.08C29.3,71.7,37.4,71.62,45.49,71.62C55.82,71.62,60.29,71.47,64.3,72.08Z" fill="currentColor"/><path d="M26.47,37.52C24.89,36.12,24.33,34.47,24.13,32.4C24.13,32.39,24.13,32.39,24.13,32.38L23.21,21.13C25.03,20.42,27.02,19.75,28.82,19.37C25.78,21.37,25.07,30.68,26.47,37.52Z" fill="currentColor"/><path d="M63.01,19.74C59.82,22.11,57.15,26.91,56.34,28.45L59.35,19.05C59.36,19.05,59.38,19.05,59.4,19.06C60.59,19.19,61.56,19.38,63.01,19.74Z" fill="currentColor"/><path d="M37.93,28.45L39.54,17.82C41.47,17.51,43.47,17.28,45.4,17.28C40.47,18.97,38.31,27.14,37.93,28.45Z" fill="currentColor"/><path d="M61.27,55.66L62.32,56.01L60.35,39.78C64.59,38.16,66.36,35.93,66.67,32.38L67.75,21.29C66.67,20.75,65.13,20.28,63.66,19.9C61.81,19.44,60.74,19.2,59.35,19.05L56.34,28.45L52.95,28.45L51.26,17.82C49.33,17.51,47.33,17.28,45.4,17.28C43.47,17.28,41.47,17.51,39.54,17.82L37.93,28.45L34.46,28.45L31.45,19.05C29.14,19.05,25.98,20.05,23.21,21.13L24.13,32.38C24.44,35.69,25.67,37.93,30.53,39.78L28.58,56.19L28.88,56.08C39.33,52.35,50.72,52.2,61.27,55.66Z" fill="currentColor"/><path d="M61.18,46.64L60.35,39.78C64.59,38.16,66.36,35.93,66.67,32.38L67.75,21.29C66.67,20.75,65.13,20.28,63.66,19.9C61.81,19.44,60.74,19.2,59.35,19.05L56.34,28.45L52.95,28.45L51.26,17.82C49.33,17.51,47.33,17.28,45.4,17.28C43.47,17.28,41.47,17.51,39.54,17.82L37.93,28.45L34.46,28.45L31.45,19.05C29.14,19.05,25.98,20.05,23.21,21.13L24.13,32.38C24.44,35.69,25.67,37.93,30.53,39.78L29.69,46.8C39.89,43.35,50.94,43.29,61.18,46.64Z" fill="currentColor"/></svg>