<svg xmlns="http://www.w3.org/2000/svg" viewBox="0 0 90 90"><path d="M23.07,79.01C16.4,85.69,5.02,84.98,5.02,84.98C5.02,84.98,4.32,73.6,10.99,66.93L49.22,28.71L55.42,34.59L61.25,40.84L61.25,40.83Z" fill="currentColor"/><path d="M61.25,40.83L23.07,79.01C16.4,85.69,5.02,84.98,5.02,84.98L55.42,34.58Z" fill="currentColor"/><path d="M21.29,56.63L14.94,62.98L14.96,63C17.3,65.16,17.56,68.69,15.74,71.29C13.99,73.79,12.31,77.94,13.31,84.13C16.6,83.34,20.26,81.84,23.08,79.02L36,66.1L36.01,66.08Z" fill="currentColor"/><path d="M52.46,56.4L52.46,46.86L39.1,62.98Z" fill="currentColor"/><path d="M28.64,61.36L13.44,76.56C12.97,78.64,12.83,81.14,13.31,84.13C13.36,84.12,13.41,84.1,13.47,84.09C13.79,84.01,14.11,83.93,14.44,83.83C14.58,83.79,14.72,83.75,14.86,83.7C15.06,83.64,15.27,83.57,15.48,83.5C15.73,83.42,15.97,83.33,16.22,83.24C16.41,83.17,16.61,83.1,16.8,83.02C17,82.94,17.19,82.86,17.39,82.78C17.55,82.71,17.7,82.64,17.86,82.57C18.17,82.43,18.48,82.28,18.78,82.12C18.9,82.06,19.02,81.99,19.14,81.93C19.48,81.74,19.82,81.54,20.15,81.33C20.26,81.26,20.36,81.2,20.47,81.13C20.68,80.99,20.89,80.85,21.09,80.7C21.11,80.69,21.13,80.67,21.15,80.65C21.56,80.35,21.96,80.03,22.34,79.69C22.43,79.61,22.52,79.53,22.61,79.45C22.77,79.3,22.93,79.16,23.08,79L36.01,66.07L36,66.08Z" fill="currentColor"/><path d="M64.77,25.3C58.35,25.3,54.1,27.18,51.77,28.64L50.15,21.56L56.59,21.56L56.59,11.61L49.97,11.61L49.97,4.99L40.03,4.99L40.03,11.61L33.41,11.61L33.41,21.55L39.85,21.55L38.23,28.63C37.2,27.99,35.8,27.26,34,26.65C32.9,32.4,32.8,37.08,32.95,40.2C35.44,41.13,37.58,42.65,37.58,42.65L37.58,56.4C37.41,56.4,37.25,56.41,37.08,56.42L39.1,62.97L33.14,56.84C30.23,54.2,27.88,51.64,25.97,49.17C25.46,48.59,25.02,48.01,24.68,47.43C18.39,38.51,17.91,31.06,18.57,26.48C16.27,27.35,14.21,28.66,12.51,30.4C9.27,33.72,7.49,38.4,7.49,43.57C7.49,51.08,12.28,55.86,16.92,60.48C19.77,63.32,22.72,66.26,24.62,69.86C16.92,71.82,16.93,77.02,16.95,82.99L16.95,84.98L73.01,84.98L73.01,82.99C73.03,77.02,73.04,71.82,65.34,69.86C67.25,66.26,70.18,63.33,73.04,60.48C77.68,55.86,82.47,51.08,82.47,43.57C82.47,38.4,80.68,33.72,77.45,30.4L77.47,30.41C74.25,27.12,69.74,25.3,64.77,25.3Z" fill="currentColor"/><path d="M56.81,56.68C55.05,56.56,53.96,56.48,52.47,56.41L52.47,42.66C52.47,42.66,56.88,39.5,60.43,39.5C60.43,39.5,66.9,39.73,66.07,45.53C65.56,49.08,60.32,52.2,56.81,56.68Z" fill="currentColor"/><path d="M45.01,68.72C37.77,68.58,30.08,68.79,24.65,69.88C19.33,71.23,17.7,74.13,17.19,77.76C17.19,77.76,21.7,73.4,45,73.4C68.3,73.4,72.81,77.75,72.81,77.76C72.31,74.12,70.67,71.23,65.35,69.88L65.37,69.88C59.94,68.79,52.25,68.57,45.01,68.72Z" fill="currentColor"/><path d="M18.6,26.49C16.31,27.36,14.25,28.67,12.55,30.41C9.31,33.73,7.53,38.41,7.53,43.58C7.53,47.3,8.71,50.36,10.46,53.06C10.46,53.04,6.77,38.97,18.39,30.54L18.39,30.53C18.33,29.01,18.43,27.66,18.6,26.49Z" fill="currentColor"/><path d="M82.18,39.94C82.11,39.53,82.03,39.14,81.93,38.74C81.93,38.69,81.9,38.62,81.89,38.57C81.79,38.18,81.69,37.8,81.57,37.42C81.55,37.36,81.53,37.3,81.52,37.24C81.4,36.88,81.27,36.51,81.13,36.16C81.1,36.1,81.09,36.03,81.06,35.96C80.92,35.6,80.76,35.26,80.59,34.91C80.49,34.71,80.39,34.52,80.29,34.33C80.17,34.1,80.06,33.88,79.93,33.65C79.24,32.47,78.42,31.37,77.47,30.41C75.09,27.97,71.99,26.35,68.53,25.66L61.25,34.19L69.97,46.86C69.97,46.86,75.24,46.46,78.68,44.69C77.32,49.08,74.62,53.97,69.31,57.68C60.89,63.58,58.12,67.73,57.45,68.92C60.35,69.11,63.06,69.41,65.35,69.87C67.26,66.27,70.19,63.34,73.05,60.49C77.69,55.87,82.48,51.09,82.48,43.58C82.48,42.35,82.37,41.15,82.17,39.99L82.2,39.97L82.18,39.99C82.18,39.99,82.18,39.95,82.18,39.94Z" fill="currentColor"/><path d="M36.26,53.74L33.16,56.85C30.85,54.75,28.88,52.7,27.21,50.71L33.41,44.51L49.21,28.7L55.41,34.58L55.42,34.58Z" fill="currentColor"/><path d="M39.1,62.98L33.16,56.86L36.26,53.74L55.42,34.58L61.25,40.83Z" fill="currentColor"/><path d="M71.92,45.92C70.78,47.06,68.94,47.19,67.65,46.19C65.61,44.6,63.45,42.8,61.25,40.84C61.25,40.84,53.47,33.88,49.21,28.72C47.25,26.52,45.45,24.36,43.86,22.32C42.86,21.03,42.99,19.19,44.13,18.05C45.27,16.91,48.01,14.6,48.86,15.32L74.65,41.2L74.65,41.19C75.37,42.04,73.06,44.78,71.92,45.92Z" fill="currentColor"/><path d="M83.45,17.93C86.59,14.79,84.49,11.8,81.35,8.66C78.21,5.52,75.22,3.42,72.08,6.56C70.41,8.23,72.19,10.07,72.19,10.07L79.95,17.83L79.94,17.82C79.94,17.82,81.78,19.6,83.45,17.93Z" fill="currentColor"/><path d="M79.86,17.7L72.1,9.95L56.74,23.15L66.61,33.11Z" fill="currentColor"/><path d="M27.21,50.71C28.88,52.7,30.85,54.75,33.16,56.85L39.11,62.97C39.11,62.97,32.19,54.17,32.51,45.41L32.51,45.42Z" fill="currentColor"/><path d="M35.05,58.81L39.1,62.98C39.1,62.98,36.6,59.78,34.68,55.34L33.17,56.86L33.16,56.85Z" fill="currentColor"/></svg>