<svg xmlns="http://www.w3.org/2000/svg" viewBox="0 0 90 90"><path d="M72.55,7.93C61.13,7.35,49.92,3.94,38.84,-5.35C38.07,-6,36.93,-6,36.16,-5.35C25.08,3.96,13.87,7.54,2.45,8.14C1.37,8.2,0.5,9.08,0.5,10.17L0.5,40.46C0.5,59.65,14.56,67.83,36.36,82.72C37.05,83.19,37.96,83.19,38.64,82.72C60.44,67.84,74.5,59.65,74.5,40.46L74.5,9.95C74.5,8.87,73.63,7.98,72.55,7.93Z" fill="currentColor"/><path d="M38.84,-5.35C43.43,-1.5,48.05,1.34,52.69,3.38C48.76,29.88,29.56,51.36,9.88,62.81C3.87,56.61,0.5,49.86,0.5,40.46L0.5,10.17C0.5,9.08,1.37,8.2,2.45,8.14C13.87,7.54,25.08,3.96,36.16,-5.35C36.93,-6,38.07,-6,38.84,-5.35Z" fill="currentColor"/><path d="M38.64,82.72C38.3,82.95,37.9,83.07,37.5,83.07L37.5,38.5L74.5,38.5L74.5,40.46C74.5,59.65,60.44,67.84,38.64,82.72Z" fill="currentColor"/><path d="M37.5,38.5L0.5,38.5L0.5,10.17C0.5,9.08,1.37,8.2,2.45,8.14C13.87,7.54,25.08,3.96,36.16,-5.35C36.55,-5.67,37.03,-5.83,37.5,-5.83Z" fill="currentColor"/><path d="M38.64,82.72C38.49,82.82,38.33,82.9,38.16,82.96L61.89,63.58C66.74,59.63,70.22,54.26,71.87,48.22L74.5,38.54L74.5,40.46C74.5,59.65,60.44,67.84,38.64,82.72Z" fill="currentColor"/><path d="M7.29,9.12C4.46,9.46,2.19,11.67,1.94,14.51C1.23,22.52,1.57,28.76,0.5,37.38L0.5,10.17C0.5,9.08,1.37,8.2,2.45,8.14C13.87,7.54,25.08,3.96,36.16,-5.35C36.5,-5.63,36.91,-5.79,37.33,-5.83L37.09,-5.58C29.11,2.56,18.6,7.75,7.29,9.12Z" fill="currentColor"/><path d="M37.5,39.11L38.11,38.5L52.19,38.5L37.5,53.19Z" fill="currentColor"/><path d="M21.38,38.5L14.71,38.5C17.49,35.85,18.68,35.85,21.38,38.5Z" fill="currentColor"/><path d="M21.58,38.69L29.75,46.86L37.5,39.11L37.5,53.19L32.33,58.36C30.33,60.36,29,60.28,27,58.36L14.5,45.78C11.58,42.86,11.58,41.69,14.5,38.69C14.57,38.63,14.64,38.56,14.71,38.5L21.38,38.5C21.45,38.56,21.52,38.63,21.58,38.69Z" fill="currentColor"/><path d="M60.42,23.28C63.33,26.19,63.33,27.36,60.42,30.28L52.19,38.5L38.11,38.5L53.86,22.75C56.4,20.29,57.6,20.47,60.42,23.28Z" fill="currentColor"/><path d="M60.42,26.72C63.33,23.81,63.33,22.64,60.42,19.72C57.42,16.72,56.25,16.72,53.33,19.72L29.75,43.31L21.58,35.14C18.67,32.22,17.5,32.22,14.5,35.14C11.58,38.14,11.58,39.31,14.5,42.22L27,54.81C29,56.72,30.33,56.81,32.33,54.81Z" fill="currentColor"/></svg>