<svg xmlns="http://www.w3.org/2000/svg" viewBox="0 0 90 90" fill="currentColor"><path d="M81.05,76.76C69.63,77.34,58.42,80.75,47.34,90.04C46.57,90.69,45.43,90.69,44.66,90.04C33.58,80.74,22.37,77.15,10.95,76.55C9.87,76.49,9,75.61,9,74.52L9,44.23C9,25.04,23.06,16.87,44.86,1.97C45.55,1.5,46.46,1.5,47.14,1.97C68.94,16.85,83,25.04,83,44.23L83,74.74C83,75.82,82.13,76.71,81.05,76.76ZM47.34,90.04C51.93,86.19,56.55,83.35,61.19,81.31C57.26,54.82,38.06,33.33,18.38,21.88C12.37,28.08,9,34.84,9,44.23L9,74.52C9,75.61,9.87,76.49,10.95,76.55C22.37,77.15,33.58,80.74,44.66,90.04C45.43,90.69,46.57,90.69,47.34,90.04ZM47.14,1.97C46.8,1.74,46.4,1.62,46,1.62L46,46.19L83,46.19L83,44.23C83,25.04,68.94,16.85,47.14,1.97ZM46,46.19L9,46.19L9,74.52C9,75.61,9.87,76.49,10.95,76.55C22.37,77.15,33.58,80.74,44.66,90.04C45.05,90.36,45.53,90.52,46,90.52ZM47.14,1.97C46.99,1.87,46.83,1.79,46.66,1.73L70.39,21.11C75.24,25.07,78.72,30.44,80.37,36.47L83,46.15L83,44.23C83,25.04,68.94,16.85,47.14,1.97ZM15.79,75.57C12.96,75.23,10.69,73.02,10.44,70.18C9.73,62.17,10.07,55.93,9,47.31L9,74.52C9,75.61,9.87,76.49,10.95,76.55C22.37,77.15,33.58,80.74,44.66,90.04C45,90.33,45.41,90.48,45.83,90.52L45.59,90.27C37.61,82.13,27.1,76.95,15.79,75.57Z"/></svg>