<svg xmlns="http://www.w3.org/2000/svg" viewBox="0 0 90 90"><path d="M33.63,23.37L35.17,33.01L38.25,33.01L40.97,24.49C42.23,24.63,43.21,24.84,44.88,25.26C46.21,25.6,47.61,26.02,48.59,26.51L47.61,36.58C47.33,39.79,45.72,41.82,41.88,43.28L45.44,72.57C45.45,72.58,45.46,72.58,45.47,72.58C53.79,73.84,53.23,78.31,53.23,83.34L53.23,84.95L3.59,84.95L3.59,83.34C3.59,78.31,3.03,73.77,11.35,72.58L14.84,43.28C10.43,41.61,9.32,39.58,9.04,36.58L8.2,26.37C10.71,25.4,13.58,24.49,15.68,24.49L18.4,33.01L21.54,33.01L23.01,23.37C24.76,23.09,26.58,22.88,28.32,22.88C30.07,22.88,31.89,23.09,33.63,23.37Z" fill="currentColor"/><path d="M45.44,72.63L45.44,72.63L45.44,72.63C43.77,72.42,42.09,72.28,40.41,72.21C40.07,70.6,39.75,69.02,39.43,67.49C36.5,52.99,34.39,42.61,17.77,42.87C23.57,41.68,32.17,41.54,37.06,42.24C42.73,41.06,44.47,31.56,45.45,25.41C46.58,25.72,47.71,26.08,48.55,26.49C48.56,26.5,48.58,26.51,48.59,26.51L47.61,36.58C47.61,36.59,47.61,36.59,47.61,36.6C47.32,39.8,45.71,41.82,41.88,43.28Z" fill="currentColor"/><path d="M45.46,72.58C50.43,73.35,52.25,75.16,52.88,77.61C50.15,75.79,45.39,75.3,28.41,75.3C11.49,75.3,6.45,75.72,3.94,77.54C4.56,75.16,6.45,73.35,11.35,72.58C13.72,72.23,21.06,72.16,28.41,72.16C37.77,72.16,41.83,72.02,45.46,72.58Z" fill="currentColor"/><path d="M11.16,41.23C9.72,39.96,9.21,38.47,9.04,36.59C9.04,36.58,9.04,36.58,9.04,36.58L8.2,26.37C9.85,25.73,11.65,25.12,13.29,24.77C10.53,26.59,9.88,35.03,11.16,41.23Z" fill="currentColor"/><path d="M21.54,33.01L23.01,23.37C24.76,23.09,26.58,22.88,28.32,22.88C23.85,24.42,21.89,31.82,21.54,33.01Z" fill="currentColor"/><path d="M44.29,25.11C41.4,27.26,38.98,31.61,38.25,33.01L40.97,24.49C40.99,24.49,41,24.49,41.02,24.49C42.1,24.61,42.98,24.79,44.29,25.11Z" fill="currentColor"/><path d="M55.72,48.13C56.19,21.31,52.62,16.12,31.56,11.89C43.81,12.6,53.58,19.17,55.72,15.29C57.85,11.41,46.4,3.93,25.09,1C51.84,1.93,77.83,13.66,70.5,50.3Z" fill="currentColor" opacity="0.5"/><path d="M70.13,45.23C69.33,22.58,63.92,12.57,43.17,3.82C57.3,6.45,66.27,17.54,69.03,16.09C71.79,14.64,70.13,10.15,52.58,1C68.95,6.87,84.23,15.62,81.93,45.23Z" fill="currentColor" opacity="0.5"/><path d="M47.92,44.57C43.34,27.41,41.72,21.82,30.3,19.41C38.34,19.41,48.04,26.25,49.56,23.48C51.09,20.7,44.2,15.51,31.85,12.2C45.56,12.4,61.64,22.41,64.51,45.95Z" fill="currentColor" opacity="0.5"/><path d="M80.98,66.06C78.67,68.16,76.69,70.6,75.1,73.29C80.13,74.64,80.98,78.05,80.98,82.79L80.98,85.11L37.42,85.11L37.42,82.79C37.42,78.19,38.13,74.7,43.36,73.29C41.75,70.6,39.75,68.16,37.42,66.06C33.83,62.52,30.11,58.8,30.11,52.99C29.97,45.33,36.08,38.71,43.86,38.84C47.39,38.71,50.89,39.58,53.95,41.35L55.2,35.9L50.2,35.9L50.2,28.23L55.34,28.23L55.34,23.05L63.05,23.05L63.05,28.37L68.18,28.37L68.18,35.99L63.19,35.99L64.44,41.43C67.49,39.63,70.99,38.74,74.52,38.84C82.69,38.63,88.47,45.02,88.3,52.99C88.3,58.76,84.59,62.47,80.98,66.06Z" fill="currentColor"/><path d="M75.52,54.5C76.18,49.98,71.17,49.81,71.15,49.81C68.39,49.81,64.97,52.26,64.97,52.26L64.97,62.93C66.16,62.98,66.97,63.06,68.34,63.14C69.37,61.83,70.59,60.67,71.73,59.58C73.61,57.79,75.28,56.21,75.52,54.5Z" fill="currentColor"/><path d="M47.21,49.81C47.21,49.81,42.24,49.99,42.84,54.5C43.09,56.21,44.75,57.79,46.62,59.57C47.76,60.66,48.99,61.82,50.02,63.14C51.4,63.05,52.23,62.93,53.4,62.93L53.4,52.26C53.4,52.26,49.98,49.81,47.21,49.81Z" fill="currentColor"/><path d="M85.34,66.06C83.04,68.16,81.06,70.6,79.46,73.29C84.49,74.64,85.34,78.05,85.34,82.79L85.34,85.11L41.79,85.11L41.79,82.79C41.79,78.19,42.49,74.7,47.72,73.29C46.11,70.6,44.12,68.16,41.79,66.06C38.19,62.52,34.48,58.8,34.48,52.99C34.34,45.33,40.44,38.71,48.23,38.84C51.76,38.71,55.26,39.58,58.31,41.35L59.56,35.9L54.56,35.9L54.56,28.23L59.7,28.23L59.7,23.05L67.41,23.05L67.41,28.37L72.55,28.37L72.55,35.99L67.55,35.99L68.8,41.43C71.85,39.63,75.35,38.74,78.89,38.84C87.06,38.63,92.84,45.02,92.66,52.99C92.66,58.76,88.95,62.47,85.34,66.06Z" fill="currentColor"/><path d="M79.89,54.5C80.54,49.98,75.54,49.81,75.51,49.81C72.76,49.81,69.33,52.26,69.33,52.26L69.33,62.93C70.52,62.98,71.33,63.06,72.7,63.14C73.73,61.83,74.95,60.67,76.1,59.58C77.98,57.79,79.64,56.21,79.89,54.5Z" fill="currentColor"/><path d="M51.58,49.81C51.58,49.81,46.6,49.99,47.2,54.5C47.45,56.21,49.11,57.79,50.98,59.57C52.13,60.66,53.35,61.82,54.39,63.14C55.76,63.05,56.6,62.93,57.76,62.93L57.76,52.26C57.76,52.26,54.34,49.81,51.58,49.81Z" fill="currentColor"/><path d="M92.66,52.99C92.66,58.76,88.95,62.47,85.34,66.06C83.04,68.16,81.06,70.6,79.46,73.29C79.47,73.29,79.47,73.29,79.48,73.29C77.84,72.85,76.03,72.72,74.3,72.72L74.19,72.72L86.97,59.9C93.29,53.57,89.07,43.94,88.32,42.35C88.35,42.35,88.37,42.35,88.4,42.35C91.15,44.94,92.75,48.74,92.66,52.99Z" fill="currentColor"/><path d="M79.84,73.4C80.1,73.47,80.33,73.56,80.56,73.64C81.31,73.93,82,74.3,82.61,74.76C83.58,75.51,84.22,76.45,84.64,77.55C83.24,76.93,78.54,75.7,63.55,75.7C48.64,75.7,43.91,76.94,42.48,77.55C42.89,76.48,43.52,75.56,44.48,74.81C45.22,74.24,46.07,73.82,46.99,73.51C47.2,73.45,47.41,73.38,47.63,73.32C49.33,72.85,51.2,72.71,52.88,72.71L74.3,72.71C76.17,72.71,78.12,72.87,79.84,73.4Z" fill="currentColor"/><path d="M49.04,38.84C38.57,40.56,33.47,50.49,36.59,60.07C35.21,57.97,34.48,55.51,34.48,52.99C34.41,49.21,35.83,45.54,38.43,42.8C39.71,41.52,41.24,40.51,42.93,39.83C44.61,39.15,46.41,38.81,48.23,38.84Z" fill="currentColor"/><path d="M49.04,38.84C49.06,38.84,49.07,38.84,49.09,38.83L49.09,38.84Z" fill="currentColor"/><path d="M66.25,24.34L60.99,24.34L60.99,29.5L55.85,29.5L55.85,34.74L54.7,35.9L54.56,35.9L54.56,28.23L59.7,28.23L59.7,23.05L67.41,23.05L67.41,23.18Z" fill="currentColor"/><path d="M66.26,29.5L67.42,28.23L72.56,28.23L72.56,29.5Z" fill="currentColor"/></svg>