<svg xmlns="http://www.w3.org/2000/svg" viewBox="0 0 90 90"><path d="M78.24,72.17C66.82,72.75,55.62,76.16,44.53,85.45C43.76,86.09,42.63,86.09,41.85,85.44C30.77,76.14,19.56,72.56,8.14,71.96C7.06,71.9,6.19,71.02,6.19,69.93L6.19,39.64C6.19,20.45,20.25,12.27,42.05,-2.62C42.74,-3.09,43.65,-3.09,44.33,-2.63C66.13,12.26,80.19,20.45,80.19,39.64L80.19,70.14C80.19,71.23,79.32,72.11,78.24,72.17Z" fill="currentColor"/><path d="M44.53,85.45C49.14,81.58,53.77,78.74,58.43,76.69C54.73,49.78,36.44,27.8,17.27,15.61C10.21,22.28,6.19,29.39,6.19,39.64L6.19,69.93C6.19,71.02,7.06,71.9,8.14,71.96C19.56,72.55,30.77,76.14,41.85,85.44C42.63,86.09,43.76,86.09,44.53,85.45Z" fill="currentColor"/><path d="M44.33,-2.63C43.99,-2.86,43.59,-2.97,43.2,-2.97L43.2,41.6L80.19,41.6L80.19,39.64C80.19,20.45,66.13,12.26,44.33,-2.63Z" fill="currentColor" opacity="0.45"/><path d="M43.2,41.6L6.19,41.6L6.19,69.93C6.19,71.02,7.06,71.9,8.14,71.96C19.56,72.56,30.77,76.14,41.85,85.45C42.24,85.77,42.72,85.93,43.2,85.93Z" fill="currentColor" opacity="0.45"/><path d="M12.98,70.98C10.15,70.64,7.88,68.43,7.63,65.58C6.93,57.58,7.27,51.34,6.19,42.72L6.19,69.93C6.19,71.02,7.06,71.9,8.14,71.96C19.56,72.55,30.77,76.14,41.85,85.44C42.19,85.73,42.61,85.89,43.02,85.92L42.78,85.68C34.81,77.53,24.29,72.35,12.98,70.98Z" fill="currentColor"/><path d="M49.47,54.06L36.76,41.35L59.1,11.06L74.78,28.04L74.78,28.03Z" fill="currentColor"/><path d="M96.46,85.88L91.36,73.08L74.56,72.59C73.99,72.57,73.41,72.6,72.83,72.68L68.07,73.37C67.34,73.48,66.62,73.18,66.18,72.58L25.86,17.96C23.46,14.71,23.25,10.34,25.33,6.87L30.83,-2.28L-5,22.56L14.39,16.74C16.6,16.08,18.99,17.02,20.15,19.03L53.48,76.62C54,77.52,53.75,78.66,52.91,79.26L46.47,83.81L51.01,96.15Z" fill="currentColor"/><path d="M90.18,12.81L81.05,3.68L62.98,19.22L74.59,30.94Z" fill="currentColor"/><path d="M93.91,13.08C97.6,9.38,95.13,5.86,91.44,2.17C87.74,-1.53,84.22,-4,80.53,-0.3C78.56,1.66,80.66,3.83,80.66,3.83L89.79,12.96L89.78,12.95C89.78,12.95,91.94,15.04,93.91,13.08Z" fill="currentColor"/><path d="M32.33,75.98C24.48,83.84,11.09,83,11.09,83C11.09,83,10.27,69.61,18.12,61.76L60.63,19.26L67.92,26.18L74.78,33.54L74.78,33.53Z" fill="currentColor"/><path d="M74.78,33.53L32.33,75.98C24.48,83.84,11.09,83,11.09,83L67.92,26.17Z" fill="currentColor"/><path d="M78.92,39.56C69.57,32.84,61.31,24.47,54.6,15.13C52.39,12.04,59.67,4.46,61.64,6.04L88.01,32.53L88.01,32.52C89.59,34.48,82.01,41.77,78.92,39.56Z" fill="currentColor"/><path d="M43.9,64.41L31.9,47.98L38.6,41.29L51.6,56.71Z" fill="currentColor" opacity="0.9"/><path d="M63.35,83.16L51.84,64.52L59.37,85.32Z" fill="currentColor"/><path d="M67.59,76.61L56.14,66.18L65.13,78.5Z" fill="currentColor"/></svg>