<svg xmlns="http://www.w3.org/2000/svg" viewBox="0 0 90 90"><path d="M32.63,22.37L34.17,32.01L37.25,32.01L39.97,23.49C41.23,23.63,42.21,23.84,43.88,24.26C45.21,24.6,46.61,25.02,47.59,25.51L46.61,35.58C46.33,38.79,44.72,40.82,40.88,42.28L44.44,71.57C44.45,71.58,44.46,71.58,44.47,71.58C52.79,72.84,52.23,77.31,52.23,82.34L52.23,83.95L2.59,83.95L2.59,82.34C2.59,77.31,2.03,72.77,10.35,71.58L13.84,42.28C9.43,40.61,8.32,38.58,8.04,35.58L7.2,25.37C9.71,24.4,12.58,23.49,14.68,23.49L17.4,32.01L20.54,32.01L22.01,22.37C23.76,22.09,25.58,21.88,27.32,21.88C29.07,21.88,30.89,22.09,32.63,22.37Z" fill="currentColor"/><path d="M44.44,71.63L44.44,71.63L44.44,71.63C42.77,71.42,41.09,71.28,39.41,71.21C39.07,69.6,38.75,68.02,38.43,66.49C35.5,51.99,33.39,41.61,16.77,41.87C22.57,40.68,31.17,40.54,36.06,41.24C41.73,40.06,43.47,30.56,44.45,24.41C45.58,24.72,46.71,25.08,47.55,25.49C47.56,25.5,47.58,25.51,47.59,25.51L46.61,35.58C46.61,35.59,46.61,35.59,46.61,35.6C46.32,38.8,44.71,40.82,40.88,42.28Z" fill="currentColor"/><path d="M44.46,71.58C49.43,72.35,51.25,74.16,51.88,76.61C49.15,74.79,44.39,74.3,27.41,74.3C10.49,74.3,5.45,74.72,2.94,76.54C3.56,74.16,5.45,72.35,10.35,71.58C12.72,71.23,20.06,71.16,27.41,71.16C36.77,71.16,40.83,71.02,44.46,71.58Z" fill="currentColor"/><path d="M10.16,40.23C8.72,38.96,8.21,37.47,8.04,35.59C8.04,35.58,8.04,35.58,8.04,35.58L7.2,25.37C8.85,24.73,10.65,24.12,12.29,23.77C9.53,25.59,8.88,34.03,10.16,40.23Z" fill="currentColor"/><path d="M20.54,32.01L22.01,22.37C23.76,22.09,25.58,21.88,27.32,21.88C22.85,23.42,20.89,30.82,20.54,32.01Z" fill="currentColor"/><path d="M43.29,24.11C40.4,26.26,37.98,30.61,37.25,32.01L39.97,23.49C39.99,23.49,40,23.49,40.02,23.49C41.1,23.61,41.98,23.79,43.29,24.11Z" fill="currentColor"/><path d="M54.72,47.13C55.19,20.31,51.62,15.12,30.56,10.89C42.81,11.6,52.58,18.17,54.72,14.29C56.85,10.41,45.4,2.93,24.09,0C50.84,0.93,76.83,12.66,69.5,49.3Z" fill="currentColor" opacity="0.5"/><path d="M69.13,44.23C68.33,21.58,62.92,11.57,42.17,2.82C56.3,5.45,65.27,16.54,68.03,15.09C70.79,13.64,69.13,9.15,51.58,0C67.95,5.87,83.23,14.62,80.93,44.23Z" fill="currentColor" opacity="0.5"/><path d="M46.92,43.57C42.34,26.41,40.72,20.82,29.3,18.41C37.34,18.41,47.04,25.25,48.56,22.48C50.09,19.7,43.2,14.51,30.85,11.2C44.56,11.4,60.64,21.41,63.51,44.95Z" fill="currentColor" opacity="0.5"/><path d="M79.98,65.06C77.67,67.16,75.69,69.6,74.1,72.29C79.13,73.64,79.98,77.05,79.98,81.79L79.98,84.11L36.42,84.11L36.42,81.79C36.42,77.19,37.13,73.7,42.36,72.29C40.75,69.6,38.75,67.16,36.42,65.06C32.83,61.52,29.11,57.8,29.11,51.99C28.97,44.33,35.08,37.71,42.86,37.84C46.39,37.71,49.89,38.58,52.95,40.35L54.2,34.9L49.2,34.9L49.2,27.23L54.34,27.23L54.34,22.05L62.05,22.05L62.05,27.37L67.18,27.37L67.18,34.99L62.19,34.99L63.44,40.43C66.49,38.63,69.99,37.74,73.52,37.84C81.69,37.63,87.47,44.02,87.3,51.99C87.3,57.76,83.59,61.47,79.98,65.06Z" fill="currentColor"/><path d="M74.52,53.5C75.18,48.98,70.17,48.81,70.15,48.81C67.39,48.81,63.97,51.26,63.97,51.26L63.97,61.93C65.16,61.98,65.97,62.06,67.34,62.14C68.37,60.83,69.59,59.67,70.73,58.58C72.61,56.79,74.28,55.21,74.52,53.5Z" fill="currentColor"/><path d="M46.21,48.81C46.21,48.81,41.24,48.99,41.84,53.5C42.09,55.21,43.75,56.79,45.62,58.57C46.76,59.66,47.99,60.82,49.02,62.14C50.4,62.05,51.23,61.93,52.4,61.93L52.4,51.26C52.4,51.26,48.98,48.81,46.21,48.81Z" fill="currentColor"/><path d="M84.34,65.06C82.04,67.16,80.06,69.6,78.46,72.29C83.49,73.64,84.34,77.05,84.34,81.79L84.34,84.11L40.79,84.11L40.79,81.79C40.79,77.19,41.49,73.7,46.72,72.29C45.11,69.6,43.12,67.16,40.79,65.06C37.19,61.52,33.48,57.8,33.48,51.99C33.34,44.33,39.44,37.71,47.23,37.84C50.76,37.71,54.26,38.58,57.31,40.35L58.56,34.9L53.56,34.9L53.56,27.23L58.7,27.23L58.7,22.05L66.41,22.05L66.41,27.37L71.55,27.37L71.55,34.99L66.55,34.99L67.8,40.43C70.85,38.63,74.35,37.74,77.89,37.84C86.06,37.63,91.84,44.02,91.66,51.99C91.66,57.76,87.95,61.47,84.34,65.06Z" fill="currentColor"/><path d="M78.89,53.5C79.54,48.98,74.54,48.81,74.51,48.81C71.76,48.81,68.33,51.26,68.33,51.26L68.33,61.93C69.52,61.98,70.33,62.06,71.7,62.14C72.73,60.83,73.95,59.67,75.1,58.58C76.98,56.79,78.64,55.21,78.89,53.5Z" fill="currentColor"/><path d="M50.58,48.81C50.58,48.81,45.6,48.99,46.2,53.5C46.45,55.21,48.11,56.79,49.98,58.57C51.13,59.66,52.35,60.82,53.39,62.14C54.76,62.05,55.6,61.93,56.76,61.93L56.76,51.26C56.76,51.26,53.34,48.81,50.58,48.81Z" fill="currentColor"/><path d="M91.66,51.99C91.66,57.76,87.95,61.47,84.34,65.06C82.04,67.16,80.06,69.6,78.46,72.29C78.47,72.29,78.47,72.29,78.48,72.29C76.84,71.85,75.03,71.72,73.3,71.72L73.19,71.72L85.97,58.9C92.29,52.57,88.07,42.94,87.32,41.35C87.35,41.35,87.37,41.35,87.4,41.35C90.15,43.94,91.75,47.74,91.66,51.99Z" fill="currentColor"/><path d="M78.84,72.4C79.1,72.47,79.33,72.56,79.56,72.64C80.31,72.93,81,73.3,81.61,73.76C82.58,74.51,83.22,75.45,83.64,76.55C82.24,75.93,77.54,74.7,62.55,74.7C47.64,74.7,42.91,75.94,41.48,76.55C41.89,75.48,42.52,74.56,43.48,73.81C44.22,73.24,45.07,72.82,45.99,72.51C46.2,72.45,46.41,72.38,46.63,72.32C48.33,71.85,50.2,71.71,51.88,71.71L73.3,71.71C75.17,71.71,77.12,71.87,78.84,72.4Z" fill="currentColor"/><path d="M48.04,37.84C37.57,39.56,32.47,49.49,35.59,59.07C34.21,56.97,33.48,54.51,33.48,51.99C33.41,48.21,34.83,44.54,37.43,41.8C38.71,40.52,40.24,39.51,41.93,38.83C43.61,38.15,45.41,37.81,47.23,37.84Z" fill="currentColor"/><path d="M48.04,37.84C48.06,37.84,48.07,37.84,48.09,37.83L48.09,37.84Z" fill="currentColor"/><path d="M65.25,23.34L59.99,23.34L59.99,28.5L54.85,28.5L54.85,33.74L53.7,34.9L53.56,34.9L53.56,27.23L58.7,27.23L58.7,22.05L66.41,22.05L66.41,22.18Z" fill="currentColor"/><path d="M65.26,28.5L66.42,27.23L71.56,27.23L71.56,28.5Z" fill="currentColor"/></svg>