<svg xmlns="http://www.w3.org/2000/svg" viewBox="0 0 90 90"><path d="M38.5,78.5L92.5,78.5C94.16,78.5,95.5,77.16,95.5,75.5L95.5,1.5C95.5,-0.16,94.16,-1.5,92.5,-1.5L38.5,-1.5C36.84,-1.5,35.5,-0.16,35.5,1.5L35.5,75.5C35.5,77.16,36.84,78.5,38.5,78.5Z" fill="currentColor"/><path d="M42.5,75.5L42.5,5.5L88.5,5.5L88.5,75.5Z" fill="currentColor"/><path d="M37.23,3.88L35.5,68.5L35.5,2.5C35.5,0.29,37.29,-1.5,39.5,-1.5L90.5,-1.5L41.11,-0.01C38.99,0.05,37.29,1.76,37.23,3.88Z" fill="currentColor" opacity="0.5"/><path d="M42.5,13.44L42.5,33.12L34.5,33.12L34.5,14.94Z" fill="currentColor"/><path d="M33.12,18.26L37.57,26.98L40.5,26.03L40.46,17.05C41.7,16.8,42.7,16.69,44.43,16.57C45.8,16.5,47.26,16.46,48.35,16.63L50.53,26.52C51.26,29.67,50.36,32.1,47.15,34.69L59.61,61.52C59.62,61.51,59.64,61.51,59.65,61.51C67.97,60.13,68.82,64.57,70.38,69.37L70.88,70.9L23.55,86.28L23.06,84.74C21.5,79.95,19.56,75.79,27.11,72.08L21.37,43.07C16.65,42.84,14.95,41.25,13.76,38.47L9.8,29C11.89,27.29,14.34,25.54,16.34,24.89L21.58,32.17L24.58,31.2L22.99,21.55C24.57,20.74,26.24,19.98,27.9,19.44C29.57,18.9,31.37,18.54,33.12,18.26Z" fill="currentColor"/><path d="M59.64,61.57L59.64,61.57L59.64,61.57C57.97,61.89,56.33,62.28,54.71,62.73C53.88,61.3,53.09,59.89,52.31,58.53C45.02,45.62,39.8,36.37,24.03,41.76C29.2,38.83,37.35,36.04,42.23,35.19C47.27,32.31,45.98,22.72,45.02,16.54C46.19,16.49,47.38,16.49,48.31,16.62C48.32,16.62,48.34,16.62,48.35,16.63L50.53,26.52C50.54,26.53,50.54,26.54,50.54,26.55C51.26,29.69,50.35,32.11,47.15,34.69Z" fill="currentColor" opacity="0.5"/><path d="M59.64,61.51C64.61,60.71,66.91,61.88,68.27,64.02C65.1,63.13,60.42,64.13,44.22,69.4C28.09,74.64,23.42,76.6,21.58,79.11C21.45,76.65,22.69,74.33,27.11,72.08C29.27,71.01,36.25,68.67,43.25,66.4C52.18,63.5,56,62.11,59.64,61.51Z" fill="currentColor"/><path d="M17.22,42.25C15.46,41.49,14.51,40.22,13.76,38.48C13.76,38.48,13.76,38.48,13.76,38.47L9.8,29C11.17,27.88,12.7,26.74,14.15,25.9C12.09,28.49,14.09,36.73,17.22,42.25Z" fill="currentColor"/><path d="M24.58,31.2L22.99,21.55C24.57,20.74,26.24,19.98,27.9,19.44C24.12,22.29,24.54,29.96,24.58,31.2Z" fill="currentColor"/><path d="M43.82,16.62C41.73,19.57,40.77,24.46,40.5,26.03L40.46,17.05C40.47,17.05,40.49,17.05,40.5,17.04C41.57,16.83,42.47,16.72,43.82,16.62Z" fill="currentColor"/><path d="M43.87,87.75C42.65,87.88,41.6,86.89,41.66,85.67L45.24,12.69C45.28,11.72,46.03,10.92,47,10.81L88.58,6L88.58,83Z" fill="currentColor"/><path d="M88.05,77.91L51.81,88.27C51.29,88.42,50.74,88.35,50.27,88.08L48.51,87.08C47.88,86.72,47.5,86.06,47.5,85.34L47.5,15.06C47.5,14.14,48.12,13.34,49.01,13.12L79.16,5.5L87.5,5.5C88.6,5.5,89.5,6.4,89.5,7.5L89.5,75.99C89.5,76.88,88.91,77.67,88.05,77.91Z" fill="currentColor"/><path d="M88.05,77.91L51.81,88.27C51.29,88.42,50.74,88.35,50.27,88.08L48.51,87.08C47.88,86.72,47.5,86.06,47.5,85.34L47.5,15.35C47.5,14.55,48.38,14.08,49.05,14.51L81.16,35.5L89.5,35.5L89.5,75.99C89.5,76.88,88.91,77.67,88.05,77.91Z" fill="currentColor" opacity="0.5"/><path d="M88.05,77.91L52.27,88.14C51.64,88.32,51,87.84,51,87.17L51,17.05C51,16.14,51.62,15.34,52.5,15.11L88.25,5.83C88.88,5.66,89.5,6.14,89.5,6.79L89.5,75.99C89.5,76.88,88.91,77.67,88.05,77.91Z" fill="currentColor"/><path d="M83.25,13.64L57.25,20.39L57.25,48.95C56.94,48.84,56.6,48.77,56.25,48.77C54.58,48.77,53.23,50.13,53.23,51.79C53.23,53.46,54.58,54.82,56.25,54.82C56.6,54.82,56.94,54.75,57.25,54.64L57.25,79.86L83.25,72.43Z" fill="currentColor" opacity="0.2"/></svg>