<svg xmlns="http://www.w3.org/2000/svg" viewBox="0 0 90 90"><path d="M37.5,77.5L91.5,77.5C93.16,77.5,94.5,76.16,94.5,74.5L94.5,0.5C94.5,-1.16,93.16,-2.5,91.5,-2.5L37.5,-2.5C35.84,-2.5,34.5,-1.16,34.5,0.5L34.5,74.5C34.5,76.16,35.84,77.5,37.5,77.5Z" fill="currentColor"/><path d="M41.5,74.5L41.5,4.5L87.5,4.5L87.5,74.5Z" fill="currentColor"/><path d="M36.23,2.88L34.5,67.5L34.5,1.5C34.5,-0.71,36.29,-2.5,38.5,-2.5L89.5,-2.5L40.11,-1.01C37.99,-0.95,36.29,0.76,36.23,2.88Z" fill="currentColor" opacity="0.5"/><path d="M41.5,12.44L41.5,32.12L33.5,32.12L33.5,13.94Z" fill="currentColor"/><path d="M32.12,17.26L36.57,25.98L39.5,25.03L39.46,16.05C40.7,15.8,41.7,15.69,43.43,15.57C44.8,15.5,46.26,15.46,47.35,15.63L49.53,25.52C50.26,28.67,49.36,31.1,46.15,33.69L58.61,60.52C58.62,60.51,58.64,60.51,58.65,60.51C66.97,59.13,67.82,63.57,69.38,68.37L69.88,69.9L22.55,85.28L22.06,83.74C20.5,78.95,18.56,74.79,26.11,71.08L20.37,42.07C15.65,41.84,13.95,40.25,12.76,37.47L8.8,28C10.89,26.29,13.34,24.54,15.34,23.89L20.58,31.17L23.58,30.2L21.99,20.55C23.57,19.74,25.24,18.98,26.9,18.44C28.57,17.9,30.37,17.54,32.12,17.26Z" fill="currentColor"/><path d="M58.64,60.57L58.64,60.57L58.64,60.57C56.97,60.89,55.33,61.28,53.71,61.73C52.88,60.3,52.09,58.89,51.31,57.53C44.02,44.62,38.8,35.37,23.03,40.76C28.2,37.83,36.35,35.04,41.23,34.19C46.27,31.31,44.98,21.72,44.02,15.54C45.19,15.49,46.38,15.49,47.31,15.62C47.32,15.62,47.34,15.62,47.35,15.63L49.53,25.52C49.54,25.53,49.54,25.54,49.54,25.55C50.26,28.69,49.35,31.11,46.15,33.69Z" fill="currentColor" opacity="0.5"/><path d="M58.64,60.51C63.61,59.71,65.91,60.88,67.27,63.02C64.1,62.13,59.42,63.13,43.22,68.4C27.09,73.64,22.42,75.6,20.58,78.11C20.45,75.65,21.69,73.33,26.11,71.08C28.27,70.01,35.25,67.67,42.25,65.4C51.18,62.5,55,61.11,58.64,60.51Z" fill="currentColor"/><path d="M16.22,41.25C14.46,40.49,13.51,39.22,12.76,37.48C12.76,37.48,12.76,37.48,12.76,37.47L8.8,28C10.17,26.88,11.7,25.74,13.15,24.9C11.09,27.49,13.09,35.73,16.22,41.25Z" fill="currentColor"/><path d="M23.58,30.2L21.99,20.55C23.57,19.74,25.24,18.98,26.9,18.44C23.12,21.29,23.54,28.96,23.58,30.2Z" fill="currentColor"/><path d="M42.82,15.62C40.73,18.57,39.77,23.46,39.5,25.03L39.46,16.05C39.47,16.05,39.49,16.05,39.5,16.04C40.57,15.83,41.47,15.72,42.82,15.62Z" fill="currentColor"/><path d="M42.87,86.75C41.65,86.88,40.6,85.89,40.66,84.67L44.24,11.69C44.28,10.72,45.03,9.92,46,9.81L87.58,5L87.58,82Z" fill="currentColor"/><path d="M87.05,76.91L50.81,87.27C50.29,87.42,49.74,87.35,49.27,87.08L47.51,86.08C46.88,85.72,46.5,85.06,46.5,84.34L46.5,14.06C46.5,13.14,47.12,12.34,48.01,12.12L78.16,4.5L86.5,4.5C87.6,4.5,88.5,5.4,88.5,6.5L88.5,74.99C88.5,75.88,87.91,76.67,87.05,76.91Z" fill="currentColor"/><path d="M87.05,76.91L50.81,87.27C50.29,87.42,49.74,87.35,49.27,87.08L47.51,86.08C46.88,85.72,46.5,85.06,46.5,84.34L46.5,14.35C46.5,13.55,47.38,13.08,48.05,13.51L80.16,34.5L88.5,34.5L88.5,74.99C88.5,75.88,87.91,76.67,87.05,76.91Z" fill="currentColor" opacity="0.5"/><path d="M87.05,76.91L51.27,87.14C50.64,87.32,50,86.84,50,86.17L50,16.05C50,15.14,50.62,14.34,51.5,14.11L87.25,4.83C87.88,4.66,88.5,5.14,88.5,5.79L88.5,74.99C88.5,75.88,87.91,76.67,87.05,76.91Z" fill="currentColor"/><path d="M82.25,12.64L56.25,19.39L56.25,47.95C55.94,47.84,55.6,47.77,55.25,47.77C53.58,47.77,52.23,49.13,52.23,50.79C52.23,52.46,53.58,53.82,55.25,53.82C55.6,53.82,55.94,53.75,56.25,53.64L56.25,78.86L82.25,71.43Z" fill="currentColor" opacity="0.2"/></svg>