<svg xmlns="http://www.w3.org/2000/svg" viewBox="0 0 90 90"><path d="M44.05,85.77L6.26,47.95C5.19,46.88,5.19,45.12,6.26,44.05L44.05,6.24C44.57,5.71,45.26,5.44,46,5.44C46.74,5.44,47.43,5.71,47.95,6.24L85.77,44.05C86.84,45.12,86.84,46.88,85.77,47.95L47.95,85.77C47.43,86.29,46.74,86.56,46,86.56C45.26,86.56,44.57,86.29,44.05,85.77Z" fill="currentColor"/><path d="M47.57,6.84C46.72,5.99,45.31,5.99,44.43,6.84L25.62,25.65L46,46L66.38,25.65L66.38,25.62Z" fill="currentColor"/><path d="M44.43,85.19C45.28,86.04,46.72,86.04,47.57,85.19L66.38,66.38L46,46L25.62,66.38Z" fill="currentColor"/><path d="M47.46,6.73L66.35,25.62L85.24,44.52C86.04,45.31,86.04,46.63,85.24,47.43L66.35,66.32L47.46,85.22C47.05,85.63,46.52,85.82,46,85.82C45.48,85.82,44.93,85.63,44.54,85.22L25.65,66.32L6.73,47.46C5.93,46.66,5.93,45.34,6.73,44.54L25.62,25.65L44.54,6.73C44.95,6.32,45.48,6.13,46,6.13C46.52,6.13,47.07,6.32,47.46,6.73Z" fill="currentColor"/><path d="M43.55,5.77L24.66,24.66L5.77,43.55C5.11,44.21,4.75,45.06,4.75,46C4.75,46.94,5.11,47.79,5.77,48.45L24.66,67.34L43.55,86.23C44.21,86.89,45.06,87.25,46,87.25C46.94,87.25,47.79,86.89,48.45,86.23L67.34,67.34L86.23,48.45C87.58,47.1,87.58,44.9,86.23,43.58L67.34,24.69L48.45,5.77C47.79,5.11,46.94,4.75,46,4.75C45.06,4.75,44.21,5.11,43.55,5.77Z" fill="currentColor"/><path d="M58.7,17.4L61.67,19.6L53.12,41.88L70.12,41.44L47.98,81.12C47.98,81.12,47.35,82.47,45.86,82.47C44.79,82.47,44.24,81.83,44.16,80.7L45.45,59.94L28.84,62.01L32.44,20.01L32.47,20.01Z" fill="currentColor" opacity="0.3"/><path d="M41.05,70.17L37.75,70.2L39.29,73L37.37,72.95L41.71,79.03L40.53,74.77L42.09,74.79Z" fill="currentColor"/><path d="M39.76,74.27L41.35,74.27L40.01,69.48L36.35,69.51L38.35,72.65L35.85,72.65L41.71,79.03Z" fill="currentColor"/><path d="M57.3,77.32L52.82,79.39L53.87,80.62L48.97,82.22L57.63,82.49L56.01,80.62L59.7,80.1Z" fill="currentColor"/><path d="M61.26,7.72L53.65,34.59L69.79,32.88L47.65,80.81C47.65,80.81,47.02,82.16,45.53,82.16C44.46,82.16,43.83,81.01,43.74,79.85L43.55,52.93L30.63,54.69L29.39,12.37L29.39,12.34Z" fill="currentColor"/></svg>