<svg xmlns="http://www.w3.org/2000/svg" viewBox="0 0 90 90"><path d="M43.05,84.77L5.26,46.95C4.19,45.88,4.19,44.12,5.26,43.05L43.05,5.24C43.57,4.71,44.26,4.44,45,4.44C45.74,4.44,46.43,4.71,46.95,5.24L84.77,43.05C85.84,44.12,85.84,45.88,84.77,46.95L46.95,84.77C46.43,85.29,45.74,85.56,45,85.56C44.26,85.56,43.57,85.29,43.05,84.77Z" fill="#9D6C3E"/><path d="M46.57,5.84C45.72,4.99,44.31,4.99,43.43,5.84L24.62,24.65L45,45L65.38,24.65L65.38,24.62Z" fill="#D5A47D"/><path d="M43.43,84.19C44.28,85.04,45.72,85.04,46.57,84.19L65.38,65.38L45,45L24.62,65.38Z" fill="#D5A47D"/><path d="M46.46,5.73L65.35,24.62L84.24,43.52C85.04,44.31,85.04,45.63,84.24,46.43L65.35,65.32L46.46,84.22C46.05,84.63,45.52,84.82,45,84.82C44.48,84.82,43.93,84.63,43.54,84.22L24.65,65.32L5.73,46.46C4.93,45.66,4.93,44.34,5.73,43.54L24.62,24.65L43.54,5.73C43.95,5.32,44.48,5.13,45,5.13C45.52,5.13,46.07,5.32,46.46,5.73Z" fill="#6A4632"/><path d="M42.55,4.77L23.66,23.66L4.77,42.55C4.11,43.21,3.75,44.06,3.75,45C3.75,45.94,4.11,46.79,4.77,47.45L23.66,66.34L42.55,85.23C43.21,85.89,44.06,86.25,45,86.25C45.94,86.25,46.79,85.89,47.45,85.23L66.34,66.34L85.23,47.45C86.58,46.1,86.58,43.9,85.23,42.58L66.34,23.69L47.45,4.77C46.79,4.11,45.94,3.75,45,3.75C44.06,3.75,43.21,4.11,42.55,4.77Z" fill="#6A4632"/><path d="M57.7,16.4L60.67,18.6L52.12,40.88L69.12,40.44L46.98,80.12C46.98,80.12,46.35,81.47,44.86,81.47C43.79,81.47,43.24,80.83,43.16,79.7L44.45,58.94L27.84,61.01L31.44,19.01L31.47,19.01Z" fill="#231F20" opacity="0.3"/><path d="M40.05,69.17L36.75,69.2L38.29,72L36.37,71.95L40.71,78.03L39.53,73.77L41.09,73.79Z" fill="#F9D983"/><path d="M38.76,73.27L40.35,73.27L39.01,68.48L35.35,68.51L37.35,71.65L34.85,71.65L40.71,78.03Z" fill="#F7C631"/><path d="M56.3,76.32L51.82,78.39L52.87,79.62L47.97,81.22L56.63,81.49L55.01,79.62L58.7,79.1Z" fill="#F7C631"/><path d="M60.26,6.72L52.65,33.59L68.79,31.88L46.65,79.81C46.65,79.81,46.02,81.16,44.53,81.16C43.46,81.16,42.83,80.01,42.74,78.85L42.55,51.93L29.63,53.69L28.39,11.37L28.39,11.34Z" fill="#FAD541"/></svg>