<svg xmlns="http://www.w3.org/2000/svg" viewBox="0 0 90 90"><path d="M50.78,37.92C50.78,37.92,49.98,31.68,52.21,25.96C54.3,20.58,53.24,7.73,45.04,5.3C43.83,4.94,42.53,4.9,41.32,5.26C40.37,5.54,39.35,6.1,38.82,7.2C38.82,7.2,40.97,18.56,40.16,19.92C39.55,20.95,28.31,37.79,24.14,44.02C23.14,45.52,22.6,47.28,22.6,49.09L22.6,51.03L22.6,51.79L22.6,62.92L22.6,63.94L22.6,74.82L22.6,75.33L22.6,83.31C22.6,84.24,23.36,85,24.29,85L66.93,85C69.57,85,71.72,82.74,71.72,79.96L71.72,79.86C71.72,77.87,70.62,76.15,69.02,75.33L70.03,75.33C73.14,75.33,75.67,72.58,75.67,69.19L75.67,69.07C75.67,66.93,74.66,65.04,73.13,63.94C76.37,63.84,78.97,61.02,78.97,57.55L78.97,57.42C78.97,54.95,77.65,52.81,75.73,51.75C79.16,51.37,81.83,48.46,81.83,44.93L81.83,44.79C81.83,41,78.76,37.92,74.96,37.92Z" fill="currentColor"/><path d="M38.82,7.19C38.82,7.19,40.32,15.14,40.34,18.54C40.34,18.54,43.13,9.13,39.2,6.59C39.06,6.77,38.93,6.97,38.82,7.19Z" fill="currentColor"/><path d="M15.12,85C11.28,85,8.17,81.89,8.17,78.05L8.17,49.2C8.17,45.36,11.28,42.25,15.12,42.25L22.98,42.25C23.57,42.25,24.04,42.73,24.04,43.31L24.04,84.99L24.04,85Z" fill="currentColor"/><path d="M18.18,77.08C17.84,75.59,16.36,74.65,14.87,74.99C13.37,75.33,12.44,76.81,12.77,78.3C13.11,79.79,14.59,80.73,16.09,80.39C17.58,80.06,18.51,78.58,18.18,77.08Z" fill="currentColor"/><path d="M44.17,37.92L52.28,25.79C52.26,25.85,52.24,25.9,52.22,25.96C49.99,31.69,50.79,37.92,50.79,37.92L50.78,37.92Z" fill="currentColor"/></svg>