<svg xmlns="http://www.w3.org/2000/svg" viewBox="0 0 90 90" fill="currentColor"><path d="M51.78,52.98C51.78,52.98,50.98,59.22,53.21,64.94C55.3,70.32,54.24,83.17,46.04,85.6C44.83,85.96,43.53,86,42.32,85.64C41.37,85.36,40.35,84.8,39.82,83.7C39.82,83.7,41.97,72.34,41.16,70.98C40.55,69.95,29.31,53.11,25.14,46.88C24.14,45.38,23.6,43.62,23.6,41.81L23.6,39.87L23.6,39.11L23.6,27.98L23.6,26.96L23.6,16.08L23.6,15.57L23.6,7.59C23.6,6.66,24.36,5.9,25.29,5.9L67.93,5.9C70.57,5.9,72.72,8.16,72.72,10.94L72.72,11.04C72.72,13.03,71.62,14.75,70.02,15.57L71.03,15.57C74.14,15.57,76.67,18.32,76.67,21.71L76.67,21.83C76.67,23.97,75.66,25.86,74.13,26.96C77.37,27.06,79.97,29.88,79.97,33.35L79.97,33.48C79.97,35.95,78.65,38.09,76.73,39.15C80.16,39.53,82.83,42.44,82.83,45.97L82.83,46.11C82.83,49.9,79.76,52.98,75.96,52.98ZM39.82,83.71C39.82,83.71,41.32,75.76,41.34,72.36C41.34,72.36,44.13,81.77,40.2,84.31C40.06,84.13,39.93,83.93,39.82,83.71ZM16.12,5.9C12.28,5.9,9.17,9.01,9.17,12.85L9.17,41.7C9.17,45.54,12.28,48.65,16.12,48.65L23.98,48.65C24.57,48.65,25.04,48.17,25.04,47.59L25.04,5.91L25.04,5.9ZM19.18,13.82C18.84,15.31,17.36,16.25,15.87,15.91C14.37,15.57,13.44,14.09,13.77,12.6C14.11,11.11,15.59,10.17,17.09,10.51C18.58,10.84,19.51,12.33,19.18,13.82ZM45.17,52.98L53.28,65.11C53.26,65.05,53.24,65,53.22,64.94C50.99,59.21,51.79,52.98,51.79,52.98L51.78,52.98Z"/></svg>