<svg xmlns="http://www.w3.org/2000/svg" viewBox="0 0 90 90"><path d="M14,86C9.58,86,6,82.42,6,78L6,14C6,9.58,9.58,6,14,6L78,6C82.42,6,86,9.58,86,14L86,78C86,82.42,82.42,86,78,86Z" fill="currentColor"/><path d="M14,86C9.58,86,6,82.42,6,78L6,18C6,13.58,9.58,10,14,10L78,10C82.42,10,86,13.58,86,18L86,78C86,82.42,82.42,86,78,86Z" fill="currentColor"/><path d="M80.31,40.47L86,79L86,18C86,13.58,82.42,10,78,10L15,10L54.48,15.09C67.8,16.81,78.35,27.18,80.31,40.47Z" fill="currentColor" opacity="0.2"/><path d="M6,78C6,82.42,9.58,86,14,86L76,86L17.31,84.27C12.06,84.12,7.83,79.94,7.61,74.69L6,36Z" fill="currentColor"/><path d="M86,18C86,13.58,82.42,10,78,10L55,10L74.3,12.14C78.83,12.65,82.45,16.15,83.1,20.67L86,41Z" fill="currentColor"/><path d="M46.08,36.39L58.42,23.89C62.08,20.14,63.42,20.14,67.17,23.81C70.92,27.47,70.92,28.89,67.25,32.56L54.92,45.22L67.42,57.72C71.17,61.47,71.17,62.81,67.42,66.56C63.75,70.22,62.33,70.22,58.67,66.56L46.08,54.14L33.58,66.64C29.83,70.39,28.5,70.39,24.75,66.64C21.08,62.97,21.08,61.56,24.75,57.89L37.17,45.22L24.67,32.81C20.92,29.06,20.92,27.72,24.67,23.97C28.33,20.31,29.67,20.31,33.42,23.97Z" fill="currentColor"/><path d="M46.08,39.94L58.42,27.44C62.08,23.69,63.42,23.69,67.17,27.36C70.92,31.03,70.92,32.44,67.25,36.11L54.92,48.78L67.42,61.28C71.17,65.03,71.17,66.36,67.42,70.11C63.75,73.78,62.33,73.78,58.67,70.11L46.08,57.69L33.58,70.19C29.83,73.94,28.5,73.94,24.75,70.19C21.08,66.53,21.08,65.11,24.75,61.44L37.17,48.78L24.67,36.36C20.92,32.61,20.92,31.28,24.67,27.53C28.33,23.86,29.67,23.86,33.42,27.53Z" fill="currentColor"/></svg>