<svg xmlns="http://www.w3.org/2000/svg" viewBox="0 0 90 90"><path d="M13,5C8.58,5,5,8.58,5,13L5,77C5,81.42,8.58,85,13,85L77,85C81.42,85,85,81.42,85,77L85,13C85,8.58,81.42,5,77,5Z" fill="currentColor"/><path d="M13,5C8.58,5,5,8.58,5,13L5,73C5,77.42,8.58,81,13,81L77,81C81.42,81,85,77.42,85,73L85,13C85,8.58,81.42,5,77,5Z" fill="currentColor"/><path d="M79.31,50.53L85,12L85,73C85,77.42,81.42,81,77,81L14,81L53.48,75.91C66.8,74.19,77.35,63.82,79.31,50.53Z" fill="currentColor" opacity="0.2"/><path d="M5,13C5,8.58,8.58,5,13,5L75,5L16.31,6.73C11.06,6.88,6.83,11.06,6.61,16.31L5,55Z" fill="currentColor"/><path d="M85,73C85,77.42,81.42,81,77,81L54,81L73.3,78.86C77.83,78.35,81.45,74.85,82.1,70.33L85,50Z" fill="currentColor"/><path d="M33.76,26.57L64.53,43.06C67.15,44.47,67.15,46.76,64.53,48.16L33.76,64.65C31.13,66.06,29,64.77,29,61.8L29,29.42C29,26.45,31.14,25.17,33.76,26.57Z" fill="currentColor"/><path d="M33.76,22.57L64.53,39.06C67.15,40.47,67.15,42.76,64.53,44.16L33.76,60.65C31.13,62.06,29,60.77,29,57.8L29,25.42C29,22.45,31.14,21.17,33.76,22.57Z" fill="currentColor"/><path d="M33.76,22.57C31.13,21.17,29,22.45,29,25.42L29,50.68C35.96,37.08,47.49,33.46,64.54,39.07L64.53,39.06Z" fill="currentColor"/></svg>