<svg xmlns="http://www.w3.org/2000/svg" viewBox="0 0 90 90"><path d="M14,86C9.58,86,6,82.42,6,78L6,14C6,9.58,9.58,6,14,6L78,6C82.42,6,86,9.58,86,14L86,78C86,82.42,82.42,86,78,86Z" fill="currentColor"/><path d="M14,86C9.58,86,6,82.42,6,78L6,18C6,13.58,9.58,10,14,10L78,10C82.42,10,86,13.58,86,18L86,78C86,82.42,82.42,86,78,86Z" fill="currentColor"/><path d="M80.31,40.47L86,79L86,18C86,13.58,82.42,10,78,10L15,10L54.48,15.09C67.8,16.81,78.35,27.18,80.31,40.47Z" fill="currentColor" opacity="0.2"/><path d="M6,78C6,82.42,9.58,86,14,86L76,86L17.31,84.27C12.06,84.12,7.83,79.94,7.61,74.69L6,36Z" fill="currentColor"/><path d="M86,18C86,13.58,82.42,10,78,10L55,10L74.3,12.14C78.83,12.65,82.45,16.15,83.1,20.67L86,41Z" fill="currentColor"/><path d="M70.06,55.63C73.12,58.7,73.12,59.92,70.06,62.98C66.91,66.13,65.69,66.13,62.62,62.98L37.86,38.22L29.29,46.8C26.22,49.86,25,49.86,21.85,46.8C18.79,43.65,18.79,42.42,21.85,39.36L34.97,26.15C37.07,24.13,38.47,24.05,40.57,26.15Z" fill="currentColor"/><path d="M70.06,59.37C73.12,62.43,73.12,63.65,70.06,66.72C66.91,69.87,65.69,69.87,62.62,66.72L37.86,41.95L29.29,50.53C26.22,53.59,25,53.59,21.85,50.53C18.79,47.38,18.79,46.15,21.85,43.09L34.97,29.88C37.07,27.87,38.47,27.78,40.57,29.88Z" fill="currentColor"/></svg>