<svg xmlns="http://www.w3.org/2000/svg" viewBox="0 0 90 90"><path d="M14,86C9.58,86,6,82.42,6,78L6,14C6,9.58,9.58,6,14,6L78,6C82.42,6,86,9.58,86,14L86,78C86,82.42,82.42,86,78,86Z" fill="currentColor"/><path d="M14,86C9.58,86,6,82.42,6,78L6,18C6,13.58,9.58,10,14,10L78,10C82.42,10,86,13.58,86,18L86,78C86,82.42,82.42,86,78,86Z" fill="currentColor"/><path d="M80.31,40.47L86,79L86,18C86,13.58,82.42,10,78,10L15,10L54.48,15.09C67.8,16.81,78.35,27.18,80.31,40.47Z" fill="currentColor" opacity="0.2"/><path d="M6,78C6,82.42,9.58,86,14,86L76,86L17.31,84.27C12.06,84.12,7.83,79.94,7.61,74.69L6,36Z" fill="currentColor"/><path d="M86,18C86,13.58,82.42,10,78,10L55,10L74.3,12.14C78.83,12.65,82.45,16.15,83.1,20.67L86,41Z" fill="currentColor"/><path d="M33.76,64.43L64.53,47.94C67.15,46.53,67.15,44.24,64.53,42.84L33.76,26.35C31.13,24.94,29,26.23,29,29.2L29,61.58C29,64.55,31.14,65.83,33.76,64.43Z" fill="currentColor"/><path d="M33.76,68.43L64.53,51.94C67.15,50.53,67.15,48.24,64.53,46.84L33.76,30.35C31.13,28.94,29,30.23,29,33.2L29,65.58C29,68.55,31.14,69.83,33.76,68.43Z" fill="currentColor"/><path d="M33.76,68.43C31.13,69.83,29,68.55,29,65.58L29,40.32C35.96,53.92,47.49,57.54,64.54,51.93L64.53,51.94Z" fill="currentColor"/></svg>