<svg xmlns="http://www.w3.org/2000/svg" viewBox="0 0 90 90"><path d="M13,5C8.58,5,5,8.58,5,13L5,77C5,81.42,8.58,85,13,85L77,85C81.42,85,85,81.42,85,77L85,13C85,8.58,81.42,5,77,5Z" fill="currentColor"/><path d="M13,5C8.58,5,5,8.58,5,13L5,73C5,77.42,8.58,81,13,81L77,81C81.42,81,85,77.42,85,73L85,13C85,8.58,81.42,5,77,5Z" fill="currentColor"/><path d="M79.31,50.53L85,12L85,73C85,77.42,81.42,81,77,81L14,81L53.48,75.91C66.8,74.19,77.35,63.82,79.31,50.53Z" fill="currentColor" opacity="0.2"/><path d="M5,13C5,8.58,8.58,5,13,5L75,5L16.31,6.73C11.06,6.88,6.83,11.06,6.61,16.31L5,55Z" fill="currentColor"/><path d="M85,73C85,77.42,81.42,81,77,81L54,81L73.3,78.86C77.83,78.35,81.45,74.85,82.1,70.33L85,50Z" fill="currentColor"/><path d="M69.06,35.37C72.12,32.3,72.12,31.08,69.06,28.02C65.91,24.87,64.69,24.87,61.62,28.02L36.86,52.78L28.29,44.2C25.22,41.14,24,41.14,20.85,44.2C17.79,47.35,17.79,48.58,20.85,51.64L33.97,64.85C36.07,66.87,37.47,66.95,39.57,64.85Z" fill="currentColor"/><path d="M69.06,31.63C72.12,28.57,72.12,27.35,69.06,24.28C65.91,21.13,64.69,21.13,61.62,24.28L36.86,49.05L28.29,40.47C25.22,37.41,24,37.41,20.85,40.47C17.79,43.62,17.79,44.85,20.85,47.91L33.97,61.12C36.07,63.13,37.47,63.22,39.57,61.12Z" fill="currentColor"/></svg>