<svg xmlns="http://www.w3.org/2000/svg" viewBox="0 0 90 90"><path d="M14,86C9.58,86,6,82.42,6,78L6,14C6,9.58,9.58,6,14,6L78,6C82.42,6,86,9.58,86,14L86,78C86,82.42,82.42,86,78,86Z" fill="currentColor"/><path d="M14,86C9.58,86,6,82.42,6,78L6,18C6,13.58,9.58,10,14,10L78,10C82.42,10,86,13.58,86,18L86,78C86,82.42,82.42,86,78,86Z" fill="currentColor"/><path d="M80.31,40.47L86,79L86,18C86,13.58,82.42,10,78,10L15,10L54.48,15.09C67.8,16.81,78.35,27.18,80.31,40.47Z" fill="currentColor" opacity="0.2"/><path d="M6,78C6,82.42,9.58,86,14,86L76,86L17.31,84.27C12.06,84.12,7.83,79.94,7.61,74.69L6,36Z" fill="currentColor"/><path d="M86,18C86,13.58,82.42,10,78,10L55,10L74.3,12.14C78.83,12.65,82.45,16.15,83.1,20.67L86,41Z" fill="currentColor"/><path d="M47.31,18.88C50.2,18.88,51.25,19.85,51.25,22.56L51.25,39.88L68.58,39.88C71.29,39.88,72.25,40.93,72.25,43.82L72.25,46.45C72.25,49.33,71.29,50.38,68.58,50.38L51.25,50.38L51.25,67.71C51.25,70.42,50.2,71.38,47.31,71.38L44.69,71.38C41.8,71.38,40.75,70.42,40.75,67.71L40.75,50.38L23.43,50.38C20.71,50.38,19.75,49.33,19.75,46.45L19.75,43.82C19.75,40.93,20.71,39.88,23.43,39.88L40.75,39.88L40.75,22.82C40.75,19.93,41.71,18.88,44.42,18.88Z" fill="currentColor"/><path d="M47.31,22.62C50.2,22.62,51.25,23.58,51.25,26.29L51.25,43.62L68.58,43.62C71.29,43.62,72.25,44.67,72.25,47.55L72.25,50.18C72.25,53.07,71.29,54.12,68.58,54.12L51.25,54.12L51.25,71.44C51.25,74.15,50.2,75.12,47.31,75.12L44.69,75.12C41.8,75.12,40.75,74.15,40.75,71.44L40.75,54.12L23.43,54.12C20.71,54.12,19.75,53.07,19.75,50.18L19.75,47.55C19.75,44.67,20.71,43.62,23.43,43.62L40.75,43.62L40.75,26.55C40.75,23.67,41.71,22.62,44.42,22.62Z" fill="currentColor"/></svg>