<svg xmlns="http://www.w3.org/2000/svg" viewBox="0 0 90 90"><path d="M13,5C8.58,5,5,8.58,5,13L5,77C5,81.42,8.58,85,13,85L77,85C81.42,85,85,81.42,85,77L85,13C85,8.58,81.42,5,77,5Z" fill="currentColor"/><path d="M13,5C8.58,5,5,8.58,5,13L5,73C5,77.42,8.58,81,13,81L77,81C81.42,81,85,77.42,85,73L85,13C85,8.58,81.42,5,77,5Z" fill="currentColor"/><path d="M79.31,50.53L85,12L85,73C85,77.42,81.42,81,77,81L14,81L53.48,75.91C66.8,74.19,77.35,63.82,79.31,50.53Z" fill="currentColor" opacity="0.2"/><path d="M5,13C5,8.58,8.58,5,13,5L75,5L16.31,6.73C11.06,6.88,6.83,11.06,6.61,16.31L5,55Z" fill="currentColor"/><path d="M85,73C85,77.42,81.42,81,77,81L54,81L73.3,78.86C77.83,78.35,81.45,74.85,82.1,70.33L85,50Z" fill="currentColor"/><path d="M45.08,54.61L57.42,67.11C61.08,70.86,62.42,70.86,66.17,67.19C69.92,63.53,69.92,62.11,66.25,58.44L53.92,45.78L66.42,33.28C70.17,29.53,70.17,28.19,66.42,24.44C62.75,20.78,61.33,20.78,57.67,24.44L45.08,36.86L32.58,24.36C28.83,20.61,27.5,20.61,23.75,24.36C20.08,28.03,20.08,29.44,23.75,33.11L36.17,45.78L23.67,58.19C19.92,61.94,19.92,63.28,23.67,67.03C27.33,70.69,28.67,70.69,32.42,67.03Z" fill="currentColor"/><path d="M45.08,51.06L57.42,63.56C61.08,67.31,62.42,67.31,66.17,63.64C69.92,59.97,69.92,58.56,66.25,54.89L53.92,42.22L66.42,29.72C70.17,25.97,70.17,24.64,66.42,20.89C62.75,17.22,61.33,17.22,57.67,20.89L45.08,33.31L32.58,20.81C28.83,17.06,27.5,17.06,23.75,20.81C20.08,24.47,20.08,25.89,23.75,29.56L36.17,42.22L23.67,54.64C19.92,58.39,19.92,59.72,23.67,63.47C27.33,67.14,28.67,67.14,32.42,63.47Z" fill="currentColor"/></svg>