<svg xmlns="http://www.w3.org/2000/svg" viewBox="0 0 90 90"><path d="M14,86C9.58,86,6,82.42,6,78L6,14C6,9.58,9.58,6,14,6L78,6C82.42,6,86,9.58,86,14L86,78C86,82.42,82.42,86,78,86Z" fill="currentColor"/><path d="M14,86C9.58,86,6,82.42,6,78L6,18C6,13.58,9.58,10,14,10L78,10C82.42,10,86,13.58,86,18L86,78C86,82.42,82.42,86,78,86Z" fill="currentColor"/><path d="M80.31,40.47L86,79L86,18C86,13.58,82.42,10,78,10L15,10L54.48,15.09C67.8,16.81,78.35,27.18,80.31,40.47Z" fill="currentColor" opacity="0.2"/><path d="M6,78C6,82.42,9.58,86,14,86L76,86L17.31,84.27C12.06,84.12,7.83,79.94,7.61,74.69L6,36Z" fill="currentColor"/><path d="M86,18C86,13.58,82.42,10,78,10L55,10L74.3,12.14C78.83,12.65,82.45,16.15,83.1,20.67L86,41Z" fill="currentColor"/><path d="M48.36,36.65C50.11,36.65,50.99,37.52,50.99,39.27C51.07,43.12,51.77,43.56,55.54,46.36C58.16,48.37,62.62,51.17,62.62,58.35C62.62,67.1,55.71,72.26,46.87,72.26C42.32,72.26,38.21,70.95,33.49,67.18C32.17,66.05,32.09,64.65,33.31,62.98L35.67,59.75C36.72,58.35,38.04,58.26,39.61,59.48C42.59,61.58,45.04,62.46,47.14,62.46C50.2,62.46,52.74,60.8,52.74,58.08C52.74,55.98,51.25,54.58,48.01,52.31C41.8,48.02,41.27,47.85,41.19,39.27C41.19,37.52,42.06,36.65,43.81,36.65Z" fill="currentColor"/><path d="M51.16,23.87C51.16,28.95,50.99,29.03,46.09,29.03C41.1,29.03,40.92,28.86,40.92,23.96C40.92,18.8,41.1,18.8,46.09,18.8C50.99,18.8,51.16,18.97,51.16,23.87Z" fill="currentColor"/><path d="M48.36,40.38C50.11,40.38,50.99,41.25,50.99,43C51.07,46.85,51.77,47.29,55.54,50.09C58.16,52.1,62.62,54.9,62.62,62.08C62.62,70.83,55.71,75.99,46.87,75.99C42.32,75.99,38.21,74.68,33.49,70.92C32.17,69.78,32.09,68.38,33.31,66.72L35.67,63.48C36.72,62.08,38.04,61.99,39.61,63.22C42.59,65.32,45.04,66.19,47.14,66.19C50.2,66.19,52.74,64.53,52.74,61.82C52.74,59.72,51.25,58.32,48.01,56.04C41.8,51.75,41.27,51.58,41.19,43C41.19,41.25,42.06,40.38,43.81,40.38Z" fill="currentColor"/><path d="M51.16,27.6C51.16,32.68,50.99,32.77,46.09,32.77C41.1,32.77,40.92,32.59,40.92,27.69C40.92,22.53,41.1,22.53,46.09,22.53C50.99,22.53,51.16,22.7,51.16,27.6Z" fill="currentColor"/></svg>