<svg xmlns="http://www.w3.org/2000/svg" viewBox="0 0 90 90"><path d="M14,86C9.58,86,6,82.42,6,78L6,14C6,9.58,9.58,6,14,6L78,6C82.42,6,86,9.58,86,14L86,78C86,82.42,82.42,86,78,86Z" fill="currentColor"/><path d="M14,86C9.58,86,6,82.42,6,78L6,18C6,13.58,9.58,10,14,10L78,10C82.42,10,86,13.58,86,18L86,78C86,82.42,82.42,86,78,86Z" fill="currentColor"/><path d="M86,18C86,13.58,82.42,10,78,10L33,10L86,60Z" fill="currentColor" opacity="0.2"/><path d="M6,78C6,82.42,9.58,86,14,86L76,86L17.31,84.27C12.06,84.12,7.83,79.94,7.61,74.69L6,36Z" fill="currentColor"/><path d="M86,18C86,13.58,82.42,10,78,10L55,10L74.3,12.14C78.83,12.65,82.45,16.15,83.1,20.67L86,41Z" fill="currentColor"/><path d="M34.76,64.43L65.53,47.94C68.15,46.53,68.15,44.24,65.53,42.84L34.76,26.35C32.13,24.94,30,26.23,30,29.2L30,61.58C30,64.55,32.14,65.83,34.76,64.43Z" fill="currentColor"/><path d="M34.76,68.43L65.53,51.94C68.15,50.53,68.15,48.24,65.53,46.84L34.76,30.35C32.13,28.94,30,30.23,30,33.2L30,65.58C30,68.55,32.14,69.83,34.76,68.43Z" fill="currentColor"/><path d="M34.76,68.43C32.13,69.83,30,68.55,30,65.58L30,40.32C36.96,53.92,48.49,57.54,65.54,51.93L65.53,51.94Z" fill="currentColor"/></svg>