<svg xmlns="http://www.w3.org/2000/svg" viewBox="0 0 90 90"><path d="M13,5C8.58,5,5,8.58,5,13L5,77C5,81.42,8.58,85,13,85L77,85C81.42,85,85,81.42,85,77L85,13C85,8.58,81.42,5,77,5Z" fill="currentColor"/><path d="M13,5C8.58,5,5,8.58,5,13L5,73C5,77.42,8.58,81,13,81L77,81C81.42,81,85,77.42,85,73L85,13C85,8.58,81.42,5,77,5Z" fill="currentColor"/><path d="M79.31,50.53L85,12L85,73C85,77.42,81.42,81,77,81L14,81L53.48,75.91C66.8,74.19,77.35,63.82,79.31,50.53Z" fill="currentColor" opacity="0.2"/><path d="M5,13C5,8.58,8.58,5,13,5L75,5L16.31,6.73C11.06,6.88,6.83,11.06,6.61,16.31L5,55Z" fill="currentColor"/><path d="M85,73C85,77.42,81.42,81,77,81L54,81L73.3,78.86C77.83,78.35,81.45,74.85,82.1,70.33L85,50Z" fill="currentColor"/><path d="M47.89,53.74C49.64,53.74,50.51,52.87,50.6,51.12L51.91,22.24C52,20.49,51.13,19.62,49.46,19.62L40.63,19.62C38.88,19.62,38,20.49,38.09,22.15L39.49,51.12C39.58,52.87,40.45,53.74,42.2,53.74Z" fill="currentColor"/><path d="M51.04,66.17C51.04,60.22,51.04,60.22,45,60.22C39.05,60.22,39.05,60.22,39.05,66.17C39.05,72.2,39.05,72.2,45,72.2C51.04,72.2,51.04,72.2,51.04,66.17Z" fill="currentColor"/><path d="M47.89,50.01C49.64,50.01,50.51,49.13,50.6,47.38L51.91,18.51C52,16.76,51.13,15.88,49.46,15.88L40.63,15.88C38.88,15.88,38,16.76,38.09,18.42L39.49,47.38C39.58,49.13,40.45,50.01,42.2,50.01Z" fill="currentColor"/><path d="M51.04,62.43C51.04,56.48,51.04,56.48,45,56.48C39.05,56.48,39.05,56.48,39.05,62.43C39.05,68.47,39.05,68.47,45,68.47C51.04,68.47,51.04,68.47,51.04,62.43Z" fill="currentColor"/></svg>