<svg xmlns="http://www.w3.org/2000/svg" viewBox="0 0 90 90"><path d="M13,5C8.58,5,5,8.58,5,13L5,77C5,81.42,8.58,85,13,85L77,85C81.42,85,85,81.42,85,77L85,13C85,8.58,81.42,5,77,5Z" fill="currentColor"/><path d="M13,5C8.58,5,5,8.58,5,13L5,73C5,77.42,8.58,81,13,81L77,81C81.42,81,85,77.42,85,73L85,13C85,8.58,81.42,5,77,5Z" fill="currentColor"/><path d="M79.31,50.53L85,12L85,73C85,77.42,81.42,81,77,81L14,81L53.48,75.91C66.8,74.19,77.35,63.82,79.31,50.53Z" fill="currentColor" opacity="0.2"/><path d="M5,13C5,8.58,8.58,5,13,5L75,5L16.31,6.73C11.06,6.88,6.83,11.06,6.61,16.31L5,55Z" fill="currentColor"/><path d="M85,73C85,77.42,81.42,81,77,81L54,81L73.3,78.86C77.83,78.35,81.45,74.85,82.1,70.33L85,50Z" fill="currentColor"/><path d="M47.36,54.35C49.11,54.35,49.99,53.48,49.99,51.73C50.07,47.88,50.77,47.44,54.54,44.64C57.16,42.63,61.62,39.83,61.62,32.65C61.62,23.9,54.71,18.74,45.87,18.74C41.32,18.74,37.21,20.05,32.49,23.82C31.17,24.95,31.09,26.35,32.31,28.02L34.67,31.25C35.72,32.65,37.04,32.74,38.61,31.52C41.59,29.42,44.04,28.54,46.14,28.54C49.2,28.54,51.74,30.2,51.74,32.92C51.74,35.02,50.25,36.42,47.01,38.69C40.8,42.98,40.27,43.15,40.19,51.73C40.19,53.48,41.06,54.35,42.81,54.35Z" fill="currentColor"/><path d="M50.16,67.13C50.16,62.05,49.99,61.97,45.09,61.97C40.1,61.97,39.92,62.14,39.92,67.04C39.92,72.2,40.1,72.2,45.09,72.2C49.99,72.2,50.16,72.03,50.16,67.13Z" fill="currentColor"/><path d="M47.36,50.62C49.11,50.62,49.99,49.75,49.99,48C50.07,44.15,50.77,43.71,54.54,40.91C57.16,38.9,61.62,36.1,61.62,28.92C61.62,20.17,54.71,15.01,45.87,15.01C41.32,15.01,37.21,16.32,32.49,20.08C31.17,21.22,31.09,22.62,32.31,24.28L34.67,27.52C35.72,28.92,37.04,29.01,38.61,27.78C41.59,25.68,44.04,24.81,46.14,24.81C49.2,24.81,51.74,26.47,51.74,29.18C51.74,31.28,50.25,32.68,47.01,34.96C40.8,39.25,40.27,39.42,40.19,48C40.19,49.75,41.06,50.62,42.81,50.62Z" fill="currentColor"/><path d="M50.16,63.4C50.16,58.32,49.99,58.23,45.09,58.23C40.1,58.23,39.92,58.41,39.92,63.31C39.92,68.47,40.1,68.47,45.09,68.47C49.99,68.47,50.16,68.3,50.16,63.4Z" fill="currentColor"/></svg>