<svg xmlns="http://www.w3.org/2000/svg" viewBox="0 0 90 90"><path d="M14,86C9.58,86,6,82.42,6,78L6,14C6,9.58,9.58,6,14,6L78,6C82.42,6,86,9.58,86,14L86,78C86,82.42,82.42,86,78,86Z" fill="currentColor"/><path d="M14,86C9.58,86,6,82.42,6,78L6,18C6,13.58,9.58,10,14,10L78,10C82.42,10,86,13.58,86,18L86,78C86,82.42,82.42,86,78,86Z" fill="currentColor"/><path d="M80.31,40.47L86,79L86,18C86,13.58,82.42,10,78,10L15,10L54.48,15.09C67.8,16.81,78.35,27.18,80.31,40.47Z" fill="currentColor" opacity="0.2"/><path d="M6,78C6,82.42,9.58,86,14,86L76,86L17.31,84.27C12.06,84.12,7.83,79.94,7.61,74.69L6,36Z" fill="currentColor"/><path d="M86,18C86,13.58,82.42,10,78,10L55,10L74.3,12.14C78.83,12.65,82.45,16.15,83.1,20.67L86,41Z" fill="currentColor"/><path d="M48.89,37.26C50.64,37.26,51.51,38.13,51.6,39.88L52.91,68.76C53,70.51,52.13,71.38,50.46,71.38L41.63,71.38C39.88,71.38,39,70.51,39.09,68.85L40.49,39.88C40.58,38.13,41.45,37.26,43.2,37.26Z" fill="currentColor"/><path d="M52.04,24.83C52.04,30.78,52.04,30.78,46,30.78C40.05,30.78,40.05,30.78,40.05,24.83C40.05,18.8,40.05,18.8,46,18.8C52.04,18.8,52.04,18.8,52.04,24.83Z" fill="currentColor"/><path d="M48.89,40.99C50.64,40.99,51.51,41.87,51.6,43.62L52.91,72.49C53,74.24,52.13,75.12,50.46,75.12L41.63,75.12C39.88,75.12,39,74.24,39.09,72.58L40.49,43.62C40.58,41.87,41.45,40.99,43.2,40.99Z" fill="currentColor"/><path d="M52.04,28.57C52.04,34.52,52.04,34.52,46,34.52C40.05,34.52,40.05,34.52,40.05,28.57C40.05,22.53,40.05,22.53,46,22.53C52.04,22.53,52.04,22.53,52.04,28.57Z" fill="currentColor"/></svg>