<svg xmlns="http://www.w3.org/2000/svg" viewBox="0 0 90 90"><path d="M13,5C8.58,5,5,8.58,5,13L5,77C5,81.42,8.58,85,13,85L77,85C81.42,85,85,81.42,85,77L85,13C85,8.58,81.42,5,77,5Z" fill="currentColor"/><path d="M13,5C8.58,5,5,8.58,5,13L5,73C5,77.42,8.58,81,13,81L77,81C81.42,81,85,77.42,85,73L85,13C85,8.58,81.42,5,77,5Z" fill="currentColor"/><path d="M79.31,50.53L85,12L85,73C85,77.42,81.42,81,77,81L14,81L53.48,75.91C66.8,74.19,77.35,63.82,79.31,50.53Z" fill="currentColor" opacity="0.2"/><path d="M5,13C5,8.58,8.58,5,13,5L75,5L16.31,6.73C11.06,6.88,6.83,11.06,6.61,16.31L5,55Z" fill="currentColor"/><path d="M85,73C85,77.42,81.42,81,77,81L54,81L73.3,78.86C77.83,78.35,81.45,74.85,82.1,70.33L85,50Z" fill="currentColor"/><path d="M46.31,72.12C49.2,72.12,50.25,71.15,50.25,68.44L50.25,51.12L67.58,51.12C70.29,51.12,71.25,50.07,71.25,47.18L71.25,44.55C71.25,41.67,70.29,40.62,67.58,40.62L50.25,40.62L50.25,23.29C50.25,20.58,49.2,19.62,46.31,19.62L43.69,19.62C40.8,19.62,39.75,20.58,39.75,23.29L39.75,40.62L22.43,40.62C19.71,40.62,18.75,41.67,18.75,44.55L18.75,47.18C18.75,50.07,19.71,51.12,22.43,51.12L39.75,51.12L39.75,68.18C39.75,71.07,40.71,72.12,43.42,72.12Z" fill="currentColor"/><path d="M46.31,68.38C49.2,68.38,50.25,67.42,50.25,64.71L50.25,47.38L67.58,47.38C70.29,47.38,71.25,46.33,71.25,43.45L71.25,40.82C71.25,37.93,70.29,36.88,67.58,36.88L50.25,36.88L50.25,19.56C50.25,16.85,49.2,15.88,46.31,15.88L43.69,15.88C40.8,15.88,39.75,16.85,39.75,19.56L39.75,36.88L22.43,36.88C19.71,36.88,18.75,37.93,18.75,40.82L18.75,43.45C18.75,46.33,19.71,47.38,22.43,47.38L39.75,47.38L39.75,64.45C39.75,67.33,40.71,68.38,43.42,68.38Z" fill="currentColor"/></svg>