<svg xmlns="http://www.w3.org/2000/svg" viewBox="0 0 90 90" fill="currentColor"><path d="M56.52,48.37L35.47,48.37L35.42,45.78C35.42,41.68,47.42,42.3,46.89,38.69C46.09,33.29,45.92,35.4,41.3,22.43C38.17,13.68,17.34,23.43,15.85,19.13C14.81,16.14,14.26,11.79,14.26,8.18C14.26,7.8,15.1,1,46,1C76.9,1,77.74,7.8,77.74,8.18C77.74,16.98,74.47,24.24,68.89,28.5L68.88,28.5C54.95,39.71,56.73,44.02,56.52,48.37ZM49.61,38.04C50.76,44.29,39.31,45.42,35.43,45.98C35.25,40.65,33.76,38.19,23.11,29.49C19.78,26.78,17.15,23.14,15.68,18.62C19.1,16.95,23.66,15.95,30.69,15.95C35.2,15.95,43.54,15.4,45.44,24L45.44,24.02C47.15,31.87,48.67,33.03,49.61,38.04ZM64.23,48.37L36.47,48.37C36.47,48.37,49.94,90.6,51.72,89.88C57.31,87.61,61.26,82.09,61.26,75.66C61.26,70.55,58.76,66.04,54.93,63.25L65.95,56.96C65.95,54.51,65.37,50.49,64.23,48.37ZM53.38,55.96L47.14,63.25C53.78,66.1,57.77,71.44,57.77,77.67C57.77,82.64,55.41,87.06,51.76,89.86C49.98,90.6,48.04,91,46,91C37.57,91,30.74,84.13,30.74,75.67C30.74,70.57,33.24,66.05,37.07,63.26L26.05,56.97C26.05,54.53,26.63,50.5,27.77,48.39L52.07,48.39L52.07,48.37C53.57,52.28,53.38,55.96,53.38,55.96ZM37.02,76.72C33.17,77.18,36.88,89.16,45.13,87.87C53.93,86.49,41.08,76.23,37.02,76.72Z"/></svg>