<svg xmlns="http://www.w3.org/2000/svg" viewBox="0 0 90 90"><path d="M88,46C88,69.2,69.2,88,46,88C22.8,88,4,69.2,4,46C4,22.8,22.8,4,46,4C69.2,4,88,22.8,88,46Z" fill="currentColor"/><path d="M88,49C88,72.2,69.2,91,46,91C22.8,91,4,72.2,4,49C4,25.8,22.8,7,46,7C69.2,7,88,25.8,88,49Z" fill="currentColor"/><path d="M46,7C69.2,7,88,25.8,88,49C88,55.31,86.61,61.29,84.12,66.65C75.44,39.99,53.84,19.23,26.63,11.72C32.43,8.71,39.02,7,46,7Z" fill="currentColor" opacity="0.2"/><path d="M4.79,57.13C8.42,75.66,24.24,89.82,43.55,90.93C25.36,87.21,10.79,74.2,4.79,57.13Z" fill="currentColor"/><path d="M87.99,49.87C88,49.58,88,49.29,88,49C88,25.8,69.2,7,46,7C68.24,9.74,85.8,27.57,87.99,49.87Z" fill="currentColor"/><path d="M46.09,37.7L61.22,22.3C64.29,19.15,65.51,19.15,68.66,22.21C71.72,25.27,71.72,26.5,68.66,29.65L53.52,45.13L69.01,60.62C72.16,63.68,72.16,64.91,69.01,67.97C65.95,71.12,64.72,71.12,61.66,67.97L46.09,52.57L30.6,68.15C27.54,71.3,26.31,71.3,23.16,68.23C20.1,65.08,20.1,63.86,23.16,60.8L38.65,45.13L23.16,29.73C20.01,26.67,20.01,25.45,23.07,22.38C26.22,19.23,27.45,19.23,30.51,22.38Z" fill="currentColor"/><path d="M46.09,41.43L61.22,26.03C64.29,22.88,65.51,22.88,68.66,25.94C71.72,29,71.72,30.23,68.66,33.38L53.52,48.87L69.01,64.35C72.16,67.42,72.16,68.64,69.01,71.7C65.95,74.85,64.72,74.85,61.66,71.7L46.09,56.3L30.6,71.88C27.54,75.03,26.31,75.03,23.16,71.97C20.1,68.82,20.1,67.59,23.16,64.53L38.65,48.87L23.16,33.47C20.01,30.4,20.01,29.18,23.07,26.12C26.22,22.97,27.45,22.97,30.51,26.12Z" fill="currentColor"/></svg>