<svg xmlns="http://www.w3.org/2000/svg" viewBox="0 0 90 90"><path d="M55.52,42.63L34.47,42.63L34.42,45.22C34.42,49.32,46.42,48.7,45.89,52.31C45.09,57.71,44.92,55.6,40.3,68.57C37.17,77.32,16.34,67.57,14.85,71.87C13.81,74.86,13.26,79.21,13.26,82.82C13.26,83.2,14.1,90,45,90C75.9,90,76.74,83.2,76.74,82.82C76.74,74.02,73.47,66.76,67.89,62.5L67.88,62.5C53.95,51.29,55.73,46.98,55.52,42.63Z" fill="#5D9948"/><path d="M48.61,52.96C49.76,46.71,38.31,45.58,34.43,45.02C34.25,50.35,32.76,52.81,22.11,61.51C18.78,64.22,16.15,67.86,14.68,72.38C18.1,74.05,22.66,75.05,29.69,75.05C34.2,75.05,42.54,75.6,44.44,67L44.44,66.98C46.15,59.13,47.67,57.97,48.61,52.96Z" fill="#81B64C"/><path d="M63.23,42.63L35.47,42.63C35.47,42.63,48.94,0.4,50.72,1.12C56.31,3.39,60.26,8.91,60.26,15.34C60.26,20.45,57.76,24.96,53.93,27.75L64.95,34.04C64.95,36.49,64.37,40.51,63.23,42.63Z" fill="#5D9948"/><path d="M52.38,35.04L46.14,27.75C52.78,24.9,56.77,19.56,56.77,13.33C56.77,8.36,54.41,3.94,50.76,1.14C48.98,0.4,47.04,0,45,0C36.57,0,29.74,6.87,29.74,15.33C29.74,20.43,32.24,24.95,36.07,27.74L25.05,34.03C25.05,36.47,25.63,40.5,26.77,42.61L51.07,42.61L51.07,42.63C52.57,38.72,52.38,35.04,52.38,35.04Z" fill="#81B64C"/><path d="M36.02,14.28C32.17,13.82,35.88,1.84,44.13,3.13C52.93,4.51,40.08,14.77,36.02,14.28Z" fill="#B2E068"/></svg>