<svg xmlns="http://www.w3.org/2000/svg" viewBox="0 0 90 90"><path d="M54.05,39.29L63.23,39.29C64.31,37.29,64.86,35.43,64.86,33.12L54.44,26.23C58.06,23.6,60.42,19.32,60.42,14.5C60.42,8.42,56.69,3.21,51.4,1.06C49.73,0.38,37.94,39.29,37.94,39.29C37.9,40.18,37.89,41.35,37.89,42.75C37.89,46.61,47.35,46.03,46.84,49.44C46.08,54.55,45.93,58.43,41.55,70.69C38.59,78.96,18.91,70.69,17.5,74.75C16.52,77.58,16,80.75,16,84.16C16,84.52,16.79,90,46,90C75.21,90,76,84.52,76,84.16C76,75.84,72.91,68.98,67.64,64.95L67.63,64.95C52.57,53.41,54.25,43.41,54.05,39.29Z" fill="currentColor"/><path d="M49.41,50.06C50.5,44.15,41.56,43.09,37.9,42.55C37.73,47.59,36.33,55.8,24.36,64.96C21.14,67.42,18.73,70.96,17.35,75.24C20.57,76.81,24.88,77.76,31.53,77.76C35.79,77.76,43.68,78.28,45.47,70.15L45.47,70.13C47.09,62.71,48.53,54.8,49.41,50.06Z" fill="currentColor"/><path d="M52.97,33.12L47.08,26.23C53.35,23.53,57.12,18.49,57.12,12.6C57.12,7.9,54.89,3.72,51.44,1.07C49.76,0.38,47.93,0,46,0C38.03,0,31.58,6.49,31.58,14.49C31.58,19.31,33.94,23.59,37.56,26.22L27.14,33.11C27.14,35.42,27.69,37.28,28.77,39.28L51.74,39.28L51.74,39.29C53.16,35.6,52.97,33.12,52.97,33.12Z" fill="currentColor"/><path d="M37.52,13.5C33.87,13.06,37.38,1.74,45.18,2.96C53.5,4.26,41.35,13.96,37.52,13.5Z" fill="currentColor"/></svg>