<svg xmlns="http://www.w3.org/2000/svg" viewBox="0 0 90 90" fill="currentColor"><path d="M4,46C4,22.81,22.81,4,46,4C69.19,4,88,22.81,88,46C88,46.05,88,46.09,88,46.15C87.92,69.29,69.14,88,46,88C22.81,88,4,69.19,4,46ZM46,76.38C52.07,76.37,58,74.49,62.98,71.01L21.27,29.17C17.8,34.15,15.93,40.08,15.91,46.15L15.92,46.15C15.92,62.79,29.37,76.3,46,76.38ZM29.02,21.27L70.87,63.13C74.3,58.13,76.11,52.21,76.08,46.15C76.08,29.54,62.61,16.06,46,16.06C39.94,16.03,34.02,17.85,29.02,21.27ZM46,4C68.4,5.82,86.18,23.6,88,46C88,22.8,69.2,4,46,4ZM4,46C4,69.2,22.8,88,46,88C23.6,86.18,5.82,68.4,4,46Z"/></svg>