<svg xmlns="http://www.w3.org/2000/svg" viewBox="0 0 90 90" fill="currentColor"><path d="M55.05,51.71L64.23,51.71C65.31,53.71,65.86,55.57,65.86,57.88L55.44,64.77C59.06,67.4,61.42,71.68,61.42,76.5C61.42,82.58,57.69,87.79,52.4,89.94C50.73,90.62,38.94,51.71,38.94,51.71C38.9,50.82,38.89,49.65,38.89,48.25C38.89,44.39,48.35,44.97,47.84,41.56C47.08,36.45,46.93,32.57,42.55,20.31C39.59,12.04,19.91,20.31,18.5,16.25C17.52,13.42,17,10.25,17,6.84C17,6.48,17.79,1,47,1C76.21,1,77,6.48,77,6.84C77,15.16,73.91,22.02,68.64,26.05L68.63,26.05C53.57,37.59,55.25,47.59,55.05,51.71ZM50.41,40.94C51.5,46.85,42.56,47.91,38.9,48.45C38.73,43.41,37.33,35.2,25.36,26.04C22.14,23.58,19.73,20.04,18.35,15.76C21.57,14.19,25.88,13.24,32.53,13.24C36.79,13.24,44.68,12.72,46.47,20.85L46.47,20.87C48.09,28.29,49.53,36.2,50.41,40.94ZM53.97,57.88L48.08,64.77C54.35,67.47,58.12,72.51,58.12,78.4C58.12,83.1,55.89,87.28,52.44,89.93C50.76,90.62,48.93,91,47,91C39.03,91,32.58,84.51,32.58,76.51C32.58,71.69,34.94,67.41,38.56,64.78L28.14,57.89C28.14,55.58,28.69,53.72,29.77,51.72L52.74,51.72L52.74,51.71C54.16,55.4,53.97,57.88,53.97,57.88ZM38.52,77.5C34.87,77.94,38.38,89.26,46.18,88.04C54.5,86.74,42.35,77.04,38.52,77.5Z"/></svg>