<svg xmlns="http://www.w3.org/2000/svg" viewBox="0 0 90 90"><path d="M87,48C87,24.8,68.2,6,45,6C21.8,6,3,24.8,3,48C3,71.2,21.8,90,45,90C68.2,90,87,71.2,87,48Z" fill="#881822"/><path d="M87,45C87,21.8,68.2,3,45,3C21.8,3,3,21.8,3,45C3,68.2,21.8,87,45,87C68.2,87,87,68.2,87,45Z" fill="#FA412D"/><path d="M45,87C68.2,87,87,68.2,87,45C87,38.69,85.61,32.71,83.12,27.35C74.44,54.01,52.84,74.77,25.63,82.28C31.43,85.29,38.02,87,45,87Z" fill="#FF6352" opacity="0.2"/><path d="M3.79,36.87C7.42,18.34,23.24,4.18,42.55,3.07C24.36,6.79,9.79,19.8,3.79,36.87Z" fill="#FF6352"/><path d="M86.99,44.13C87,44.42,87,44.71,87,45C87,68.2,68.2,87,45,87C67.24,84.26,84.8,66.43,86.99,44.13Z" fill="#FF6352"/><path d="M45.09,56.3L60.22,71.7C63.29,74.85,64.51,74.85,67.66,71.79C70.72,68.73,70.72,67.5,67.66,64.35L52.52,48.87L68.01,33.38C71.16,30.32,71.16,29.09,68.01,26.03C64.95,22.88,63.72,22.88,60.66,26.03L45.09,41.43L29.6,25.85C26.54,22.7,25.31,22.7,22.16,25.77C19.1,28.92,19.1,30.14,22.16,33.2L37.65,48.87L22.16,64.27C19.01,67.33,19.01,68.55,22.07,71.62C25.22,74.77,26.45,74.77,29.51,71.62Z" fill="#AD1F24"/><path d="M45.09,52.57L60.22,67.97C63.29,71.12,64.51,71.12,67.66,68.06C70.72,65,70.72,63.77,67.66,60.62L52.52,45.13L68.01,29.65C71.16,26.58,71.16,25.36,68.01,22.3C64.95,19.15,63.72,19.15,60.66,22.3L45.09,37.7L29.6,22.12C26.54,18.97,25.31,18.97,22.16,22.03C19.1,25.18,19.1,26.41,22.16,29.47L37.65,45.13L22.16,60.53C19.01,63.6,19.01,64.82,22.07,67.88C25.22,71.03,26.45,71.03,29.51,67.88Z" fill="white"/></svg>