<svg xmlns="http://www.w3.org/2000/svg" viewBox="0 0 90 90"><path d="M52.06,3.76L36.63,13.24C35.14,14.15,32.65,14.23,31.1,13.43L9.83,2.34C8.27,1.53,7,2.21,7,3.86L7,70.32C7,71.96,8.24,74.02,9.76,74.9L31.18,87.24C32.69,88.12,35.09,88.01,36.5,87L52.2,75.88C53.62,74.87,56.04,74.73,57.59,75.55L80.19,87.64C81.74,88.47,83,87.8,83,86.16L83,19.05C83,17.41,81.71,15.42,80.14,14.64L57.64,3.52L57.63,3.52C56.05,2.74,53.55,2.85,52.06,3.76Z" fill="#81B64C"/><path d="M36.77,13.44C35.99,13.83,34.96,14.03,33.93,14.03L33.93,87.89C34.91,87.88,35.9,87.64,36.64,87.19L52.06,75.71C52.8,75.26,53.78,75.02,54.78,74.99L54.78,2.95C53.75,2.95,52.72,3.16,51.94,3.56L51.93,3.56Z" fill="#45753C"/><path d="M33.93,41.25L33.93,20.95L11.78,9L11.78,29.31Z" fill="#E7E6E5"/><path d="M33.93,61.56L33.93,41.25L11.78,29.31L11.78,49.62Z" fill="#81B64C"/><path d="M33.93,81.87L33.93,61.56L11.78,49.62L11.78,69.92Z" fill="#E7E6E5"/><path d="M23.53,71.59L23.53,63.12L19.66,61.04L19.66,69.51Z" fill="#4B4847"/><path d="M54.77,28.41L54.77,8.1L78.21,20.04L78.21,40.35Z" fill="#E7E6E5"/><path d="M54.77,48.71L54.77,28.41L78.21,40.35L78.21,60.66Z" fill="#81B64C"/><path d="M54.77,69.02L54.77,48.71L78.21,60.66L78.21,80.96Z" fill="#E7E6E5"/><path d="M54.77,28.41L54.77,8.1L33.93,20.95L33.93,41.25Z" fill="#45753C"/><path d="M54.77,48.71L54.77,28.41L33.93,41.25L33.93,61.56Z" fill="#BEBDB9"/><path d="M54.77,69.02L54.77,48.71L33.93,61.56L33.93,81.87Z" fill="#45753C"/><path d="M25.12,46.95C23.55,45.29,21.18,44.82,19.82,45.9C18.46,46.97,18.63,49.2,20.2,50.86C21.77,52.52,24.15,52.99,25.51,51.92C26.86,50.84,26.69,48.61,25.12,46.95Z" fill="#4B4847"/><path d="M25.13,35.4C23.56,33.74,21.19,33.27,19.83,34.34C18.47,35.42,18.64,37.65,20.21,39.31C21.78,40.97,24.16,41.44,25.52,40.36C26.88,39.29,26.7,37.06,25.13,35.4Z" fill="#4B4847"/><path d="M25.13,23.84C23.56,22.18,21.18,21.71,19.82,22.79C18.46,23.86,18.64,26.09,20.21,27.75C21.78,29.41,24.15,29.88,25.51,28.81C26.87,27.73,26.7,25.5,25.13,23.84Z" fill="#4B4847"/><path d="M52.8,17.44C51.44,16.36,49.06,16.83,47.49,18.49C45.92,20.16,45.75,22.38,47.11,23.46C48.47,24.54,50.84,24.06,52.41,22.4C53.98,20.74,54.16,18.52,52.8,17.44Z" fill="#383532"/><path d="M41.7,24.17C40.34,23.09,37.97,23.56,36.4,25.22C34.83,26.88,34.66,29.11,36.01,30.19C37.37,31.26,39.75,30.79,41.32,29.13C42.89,27.47,43.06,25.24,41.7,24.17Z" fill="#383532"/><path d="M16.56,61.13L26.8,65.5L21.98,56.88Z" fill="#4B4847"/><path d="M65.18,30.33L65.18,16.48L62.64,15.12L62.64,28.96Z" fill="#4B4847"/><path d="M70.28,33.08L70.28,19.23L67.73,17.86L67.73,31.7Z" fill="#4B4847"/><path d="M60.04,22.1L73.09,29.06L73.1,31.77L60.05,24.8Z" fill="#4B4847"/><path d="M60,16.68L73.05,23.65L73.08,26.36L60.02,19.39Z" fill="#4B4847"/></svg>