<svg xmlns="http://www.w3.org/2000/svg" viewBox="0 0 90 90" fill="currentColor"><path d="M53.06,87.25L37.63,77.77C36.14,76.86,33.65,76.77,32.1,77.58L10.83,88.66C9.27,89.47,8,88.8,8,87.15L8,20.69C8,19.05,9.24,16.99,10.76,16.11L32.18,3.76C33.69,2.89,36.09,3,37.5,4L53.2,15.13C54.62,16.14,57.04,16.27,58.59,15.45L81.19,3.36C82.74,2.53,84,3.21,84,4.84L84,71.96C84,73.6,82.71,75.59,81.14,76.36L58.64,87.49L58.63,87.49C57.05,88.27,54.55,88.16,53.06,87.25ZM37.77,77.57C36.99,77.17,35.96,76.97,34.93,76.97L34.93,3.12C35.91,3.13,36.9,3.36,37.64,3.82L53.06,15.3C53.8,15.75,54.78,15.99,55.78,16.02L55.78,88.06C54.75,88.06,53.72,87.85,52.94,87.45L52.93,87.45ZM34.93,49.75L34.93,70.06L12.78,82L12.78,61.7ZM34.93,29.45L34.93,49.75L12.78,61.7L12.78,41.39ZM34.93,9.14L34.93,29.45L12.78,41.39L12.78,21.09ZM24.53,19.42L24.53,27.88L20.66,29.96L20.66,21.5ZM55.77,62.6L55.77,82.91L79.21,70.96L79.21,50.66ZM55.77,42.3L55.77,62.6L79.21,50.66L79.21,30.35ZM55.77,21.99L55.77,42.3L79.21,30.35L79.21,10.04ZM55.77,62.6L55.77,82.91L34.93,70.06L34.93,49.75ZM55.77,42.3L55.77,62.6L34.93,49.75L34.93,29.45ZM55.77,21.99L55.77,42.3L34.93,29.45L34.93,9.14ZM26.12,44.05C24.55,45.72,22.18,46.19,20.82,45.11C19.46,44.03,19.63,41.81,21.2,40.15C22.77,38.49,25.15,38.01,26.51,39.09C27.86,40.17,27.69,42.39,26.12,44.05ZM26.13,55.61C24.56,57.27,22.19,57.74,20.83,56.66C19.47,55.58,19.64,53.36,21.21,51.7C22.78,50.04,25.16,49.56,26.52,50.64C27.88,51.72,27.7,53.94,26.13,55.61ZM26.13,67.16C24.56,68.83,22.18,69.3,20.82,68.22C19.46,67.14,19.64,64.92,21.21,63.26C22.78,61.6,25.15,61.12,26.51,62.2C27.87,63.28,27.7,65.5,26.13,67.16ZM53.8,73.57C52.44,74.65,50.06,74.18,48.49,72.51C46.92,70.85,46.75,68.63,48.11,67.55C49.47,66.47,51.84,66.94,53.41,68.61C54.98,70.27,55.16,72.49,53.8,73.57ZM42.7,66.84C41.34,67.92,38.97,67.45,37.4,65.78C35.83,64.12,35.66,61.9,37.01,60.82C38.37,59.74,40.75,60.22,42.32,61.88C43.89,63.54,44.06,65.76,42.7,66.84ZM17.56,29.88L27.8,25.51L22.98,34.12ZM66.18,60.68L66.18,74.53L63.64,75.89L63.64,62.04ZM71.28,57.93L71.28,71.77L68.73,73.15L68.73,59.3ZM61.04,68.9L74.09,61.95L74.1,59.24L61.05,66.21ZM61,74.33L74.05,67.36L74.08,64.65L61.02,71.62Z"/></svg>