<svg xmlns="http://www.w3.org/2000/svg" viewBox="0 0 90 90" fill="currentColor"><path d="M72.54,2.6C92.28,23.86,92.28,58.19,72.54,79.46C70.66,81.48,67.5,81.6,65.47,79.72C63.45,77.84,63.33,74.67,65.21,72.65C81.39,55.23,81.39,26.83,65.21,9.4C63.33,7.38,63.45,4.22,65.47,2.34C67.5,0.46,70.66,0.57,72.54,2.6ZM58.3,19.89C69.03,31.61,69.03,50.45,58.3,62.17C56.43,64.2,53.27,64.34,51.24,62.48C49.2,60.61,49.06,57.45,50.92,55.41C58.16,47.51,58.16,34.54,50.92,26.64C49.06,24.6,49.2,21.44,51.24,19.58C53.27,17.71,56.43,17.85,58.3,19.89ZM72.05,2.14C70.48,1.76,68.75,2.15,67.47,3.34C65.45,5.21,65.33,8.38,67.21,10.4C83.39,27.83,83.39,56.22,67.21,73.65C65.33,75.67,65.45,78.84,67.47,80.72C67.55,80.79,67.62,80.85,67.7,80.91C66.89,80.72,66.12,80.32,65.47,79.72C63.45,77.84,63.33,74.67,65.21,72.65C81.39,55.22,81.39,26.83,65.21,9.4C63.33,7.38,63.45,4.21,65.47,2.34C67.33,0.61,70.15,0.57,72.05,2.14ZM57.79,19.4C56.23,19.03,54.51,19.41,53.24,20.58C51.2,22.44,51.06,25.6,52.92,27.64C60.16,35.54,60.16,48.51,52.92,56.41C51.06,58.45,51.2,61.61,53.24,63.48C53.3,63.54,53.37,63.59,53.43,63.65C52.64,63.46,51.88,63.07,51.24,62.48C49.2,60.61,49.06,57.45,50.92,55.41C58.16,47.51,58.16,34.54,50.92,26.64C49.06,24.6,49.2,21.44,51.24,19.58C53.1,17.87,55.9,17.84,57.79,19.4ZM3.58,86L3.58,84.91C3.58,76.76,7.47,73.79,11.51,70.71C15.56,67.63,19.77,64.43,20.39,55.78L14.18,55.78C13.33,54.21,13.21,52.46,13.21,50.7L19.76,46.71C16.79,44.36,15.27,40.61,15.27,37.22C15.27,30.82,20.49,25.62,27.03,25.56C33.51,25.62,38.73,30.82,38.73,37.22C38.73,40.61,37.21,44.36,34.24,46.71L40.79,50.7C40.79,52.46,40.67,54.21,39.82,55.78L33.61,55.78C34.23,64.43,38.44,67.63,42.49,70.71C46.53,73.79,50.42,76.76,50.42,84.91L50.42,86ZM33.68,56.58C34.77,67.34,41.67,69.25,46.27,73.88C35.2,72.2,28.32,63.49,20.96,55.78L33.61,55.78ZM38.73,37.22C38.73,40.61,37.21,44.36,34.24,46.71L26.24,46.71C26.26,46.71,31.72,45.47,34.53,41.51C38.28,36.19,35.09,28.82,30.99,26.27C35.51,27.9,38.73,32.19,38.73,37.22ZM14.86,72.52C9.08,76.73,5.78,78.71,3.58,86L3.58,84.91C3.58,76.76,7.47,73.79,11.51,70.71C14.47,68.46,17.5,66.15,19.17,61.71C18.74,65.7,18.09,70.15,14.86,72.52ZM40.79,50.7C40.79,52.46,40.66,54.21,39.82,55.78L14.18,55.78C13.89,55.23,13.68,54.66,13.54,54.08L33.04,54.08C37.9,50.94,33,46.81,32.9,46.71L34.24,46.71ZM13.22,51.25C13.22,51.06,13.21,50.88,13.21,50.7L19.76,46.71L18.33,51.24ZM15.68,40.32C15.41,39.29,15.27,38.24,15.27,37.22C15.27,31,20.2,25.91,26.48,25.58C26.54,25.58,26.59,25.57,26.65,25.57L26.79,25.57C22.77,26.06,16.61,30.78,15.68,40.32Z"/></svg>