<svg xmlns="http://www.w3.org/2000/svg" viewBox="0 0 90 90"><path d="M71.54,1.6C91.28,22.86,91.28,57.19,71.54,78.46C69.66,80.48,66.5,80.6,64.47,78.72C62.45,76.84,62.33,73.67,64.21,71.65C80.39,54.23,80.39,25.83,64.21,8.4C62.33,6.38,62.45,3.22,64.47,1.34C66.5,-0.54,69.66,-0.43,71.54,1.6Z" fill="#9881F2"/><path d="M57.3,18.89C68.03,30.61,68.03,49.45,57.3,61.17C55.43,63.2,52.27,63.34,50.24,61.48C48.2,59.61,48.06,56.45,49.92,54.41C57.16,46.51,57.16,33.54,49.92,25.64C48.06,23.6,48.2,20.44,50.24,18.58C52.27,16.71,55.43,16.85,57.3,18.89Z" fill="#9881F2"/><path d="M71.05,1.14C69.48,0.76,67.75,1.15,66.47,2.34C64.45,4.21,64.33,7.38,66.21,9.4C82.39,26.83,82.39,55.22,66.21,72.65C64.33,74.67,64.45,77.84,66.47,79.72C66.55,79.79,66.62,79.85,66.7,79.91C65.89,79.72,65.12,79.32,64.47,78.72C62.45,76.84,62.33,73.67,64.21,71.65C80.39,54.22,80.39,25.83,64.21,8.4C62.33,6.38,62.45,3.21,64.47,1.34C66.33,-0.39,69.15,-0.43,71.05,1.14Z" fill="#C9ACFF"/><path d="M56.79,18.4C55.23,18.03,53.51,18.41,52.24,19.58C50.2,21.44,50.06,24.6,51.92,26.64C59.16,34.54,59.16,47.51,51.92,55.41C50.06,57.45,50.2,60.61,52.24,62.48C52.3,62.54,52.37,62.59,52.43,62.65C51.64,62.46,50.88,62.07,50.24,61.48C48.2,59.61,48.06,56.45,49.92,54.41C57.16,46.51,57.16,33.54,49.92,25.64C48.06,23.6,48.2,20.44,50.24,18.58C52.1,16.87,54.9,16.84,56.79,18.4Z" fill="#C9ACFF"/><path d="M2.58,85L2.58,83.91C2.58,75.76,6.47,72.79,10.51,69.71C14.56,66.63,18.77,63.43,19.39,54.78L13.18,54.78C12.33,53.21,12.21,51.46,12.21,49.7L18.76,45.71C15.79,43.36,14.27,39.61,14.27,36.22C14.27,29.82,19.49,24.62,26.03,24.56C32.51,24.62,37.73,29.82,37.73,36.22C37.73,39.61,36.21,43.36,33.24,45.71L39.79,49.7C39.79,51.46,39.67,53.21,38.82,54.78L32.61,54.78C33.23,63.43,37.44,66.63,41.49,69.71C45.53,72.79,49.42,75.76,49.42,83.91L49.42,85Z" fill="#9881F2"/><path d="M32.68,55.58C33.77,66.34,40.67,68.25,45.27,72.88C34.2,71.2,27.32,62.49,19.96,54.78L32.61,54.78Z" fill="#5E53D9"/><path d="M37.73,36.22C37.73,39.61,36.21,43.36,33.24,45.71L25.24,45.71C25.26,45.71,30.72,44.47,33.53,40.51C37.28,35.19,34.09,27.82,29.99,25.27C34.51,26.9,37.73,31.19,37.73,36.22Z" fill="#5E53D9"/><path d="M13.86,71.52C8.08,75.73,4.78,77.71,2.58,85L2.58,83.91C2.58,75.76,6.47,72.79,10.51,69.71C13.47,67.46,16.5,65.15,18.17,60.71C17.74,64.7,17.09,69.15,13.86,71.52Z" fill="#C9ACFF"/><path d="M39.79,49.7C39.79,51.46,39.66,53.21,38.82,54.78L13.18,54.78C12.89,54.23,12.68,53.66,12.54,53.08L32.04,53.08C36.9,49.94,32,45.81,31.9,45.71L33.24,45.71Z" fill="#5E53D9"/><path d="M12.22,50.25C12.22,50.06,12.21,49.88,12.21,49.7L18.76,45.71L17.33,50.24Z" fill="#C9ACFF"/><path d="M14.68,39.32C14.41,38.29,14.27,37.24,14.27,36.22C14.27,30,19.2,24.91,25.48,24.58C25.54,24.58,25.59,24.57,25.65,24.57L25.79,24.57C21.77,25.06,15.61,29.78,14.68,39.32Z" fill="#C9ACFF"/></svg>