<svg xmlns="http://www.w3.org/2000/svg" viewBox="0 0 90 90"><path d="M46.09,61.08C47.8,62.67,48.87,64.83,49.09,67.16L49.56,71.95C49.69,73.34,48.45,74.47,47.08,74.21C45.79,73.96,45.04,72.59,45.53,71.37L46.15,69.82C47.55,66.33,45.92,62.36,42.47,60.86L33.35,56.9L41.59,56.9Z" fill="currentColor" opacity="0.5"/><path d="M74.63,23.4C80.73,26.51,91.43,23.03,91.43,12.94C91.43,5.6,86.33,0.99,80.1,0.99C69.02,0.99,65.54,11.07,68.77,17.55L1.79,87.4C-0.2,89.39,2.66,92.38,4.78,90.26Z" fill="currentColor"/><path d="M74.75,12.82C74.75,10.2,76.87,7.96,79.61,7.96C82.22,7.96,84.46,10.2,84.46,12.82C84.46,15.56,82.22,17.67,79.61,17.67C76.87,17.67,74.75,15.56,74.75,12.82Z" fill="currentColor"/><path d="M70.1,18.32L2.33,87.95C1.58,88.72,1.54,89.91,2.2,90.72C1.13,90.11,0.61,88.58,1.79,87.4L68.77,17.55C65.79,11.58,68.52,2.54,77.66,1.17C70.61,3.02,66.39,11.19,70.1,18.32Z" fill="currentColor"/><path d="M13.99,81.44L10,78.83L18.19,70.29L22.28,73.51Z" fill="currentColor"/><path d="M44.86,51.9L39.48,48.09L47.83,39.39L53.37,43.75Z" fill="currentColor"/><path d="M35.02,33.94L45.76,26.26C46.03,26.07,46.26,25.84,46.46,25.57L54.13,14.83C55.21,13.32,57.38,13.14,58.69,14.45L77.73,33.49C79.04,34.8,78.86,36.98,77.35,38.06L70.27,43.12C67.58,45.04,65.23,47.39,63.31,50.08L58.25,57.16C57.17,58.67,55,58.85,53.68,57.54L34.64,38.5C33.33,37.19,33.51,35.02,35.02,33.94Z" fill="currentColor"/><path d="M44.63,40.74C52.01,37.69,57.88,31.82,60.93,24.44L63.19,18.95L71.23,27L59.91,33.18C53.15,36.87,48.46,43.45,47.19,51.04L39.14,43Z" fill="currentColor" opacity="0.5"/><path d="M49.06,52.57C53.17,55.12,58.53,54.36,61.77,50.76L70.74,40.79C72.9,38.39,73.77,35.1,73.07,31.94L72.19,27.95L77.73,33.49C79.04,34.8,78.86,36.98,77.36,38.06L70.27,43.12C67.58,45.04,65.23,47.39,63.31,50.08L58.25,57.16C57.17,58.67,55,58.85,53.68,57.54L48.15,52Z" fill="currentColor" opacity="0.5"/><path d="M35.02,33.94L40.75,29.85C44.34,27.28,47.47,24.14,50.04,20.56L54.13,14.83C55.21,13.32,57.38,13.14,58.69,14.45L76.23,32L57.92,17.36C57.01,16.63,55.66,16.84,55.01,17.82L52.64,21.37C49.71,25.76,45.95,29.52,41.56,32.45L38.01,34.82C37.03,35.47,36.82,36.82,37.55,37.73L52.19,56.04L34.64,38.5C33.33,37.19,33.51,35.02,35.02,33.94Z" fill="currentColor"/><path d="M4.92,65.8L14.94,57.22C15.19,57,15.41,56.75,15.58,56.46L22.29,45.1C23.23,43.5,25.38,43.13,26.8,44.33L47.42,61.63C48.85,62.82,48.86,65.01,47.45,66.21L40.83,71.87C38.32,74.02,36.18,76.57,34.5,79.42L30.08,86.91C29.14,88.51,26.98,88.88,25.56,87.68L4.94,70.38C3.52,69.19,3.51,67,4.92,65.8Z" fill="currentColor"/><path d="M19.99,74.07C30.11,71.01,36.07,60.56,33.55,50.3L42.86,57.81L40.89,58.95C36.94,61.23,33.57,64.38,31.02,68.16L20.42,83.88L11.7,76.57Z" fill="currentColor" opacity="0.5"/><path d="M30.07,54.63C27.71,55.5,25.85,57.36,24.97,59.71L24.11,62.01C23.69,63.13,22.41,63.66,21.33,63.16C19.91,62.5,19.72,60.57,20.98,59.64L24.67,56.93C25.71,56.17,26.59,55.2,27.24,54.09L30.26,48.98L34.89,52.85Z" fill="currentColor" opacity="0.5"/><path d="M32.16,78.44L32.86,77.01C35.02,72.62,38.71,69.18,43.23,67.33L45.95,66.21C47.2,65.7,47.6,64.13,46.74,63.09L41.42,56.6L47.43,61.63C48.85,62.82,48.86,65.01,47.45,66.21L40.83,71.87C38.32,74.02,36.18,76.57,34.5,79.42L30.08,86.91C29.14,88.51,26.99,88.88,25.57,87.68L19.56,82.65C24.2,84.99,29.86,83.1,32.16,78.44Z" fill="currentColor" opacity="0.5"/><path d="M4.92,65.8L10.27,61.22C13.61,58.36,16.47,54.96,18.71,51.16L22.29,45.1C23.23,43.5,25.38,43.13,26.8,44.33L41.47,56.63L27.18,47.14C26.24,46.51,24.97,46.79,24.38,47.75L21.55,52.3C18.9,56.56,15.47,60.29,11.44,63.28L7.08,66.52C6.12,67.23,6,68.63,6.83,69.5L18.53,81.78L4.94,70.38C3.52,69.19,3.51,67,4.92,65.8Z" fill="currentColor"/><path d="M57.05,59.23C56.06,61.29,55.92,63.66,56.65,65.82L57.6,68.67C58.09,70.12,57.01,71.63,55.47,71.63C53.94,71.63,52.85,70.12,53.34,68.67L54.3,65.82C55.02,63.66,54.88,61.29,53.9,59.23L51.35,53.9L59.59,53.9Z" fill="currentColor" opacity="0.5"/></svg>