<svg xmlns="http://www.w3.org/2000/svg" viewBox="0 0 90 90"><path d="M42.6,15.82C65.99,31.25,51.98,46.28,59.7,52.71L82.32,71.99C86.56,75.72,89,79.83,89,83.68C89,85.87,88.23,87.93,86.43,89.85C84.5,91.65,82.44,92.42,80.26,92.42C76.4,92.42,72.29,89.98,68.56,85.74L49.29,63.12C42.73,55.28,27.82,69.42,12.4,46.03L4.56,34.2C0.58,28.16,4.95,23.66,9.57,29.32L19.85,41.91C22.3,44.87,25.51,44.87,27.18,43.07C29.11,41.14,28.72,38.57,26.02,35.62L15.48,24.05C10.21,18.27,14.84,13.64,20.63,18.91L32.19,29.45C35.15,32.15,37.72,32.53,39.65,30.6C41.45,28.93,41.45,25.72,38.49,23.28L25.89,13C20.24,8.37,24.74,4,30.78,7.98Z" fill="currentColor"/><path d="M86.43,89.85C88.23,87.93,89,85.87,89,83.68C89,79.83,86.56,75.72,82.31,71.99L59.69,52.71C51.98,46.28,65.99,31.25,42.6,15.82L30.78,7.98C24.74,4,20.24,8.37,25.89,13L38.49,23.28C41.44,25.72,41.44,28.93,39.65,30.6C37.72,32.53,35.15,32.15,32.19,29.45L20.62,18.91C14.84,13.64,10.21,18.27,15.48,24.05L22.17,31.39C35.12,33.12,46.91,40.1,54.64,50.85L83.94,91.59C84.79,91.18,85.62,90.61,86.43,89.85Z" fill="currentColor" opacity="0.5"/><path d="M3.14,30.97L10.92,30.97L9.57,29.32C5.83,24.74,2.25,26.81,3.14,30.97Z" fill="currentColor" opacity="0.5"/><path d="M86.08,90.17C80.59,92.15,74.29,90.56,70.42,85.91L50.96,62.45C49.17,60.29,46.53,59.03,43.73,59L37.93,58.92C28.84,58.8,20.35,54.39,15.04,47.02L3.04,30.37C3.17,31.5,3.64,32.81,4.56,34.2L12.4,46.03C27.82,69.42,42.73,55.28,49.29,63.12L68.56,85.74C72.29,89.98,76.4,92.42,80.26,92.42C82.31,92.42,84.25,91.74,86.08,90.17Z" fill="currentColor"/></svg>