<svg xmlns="http://www.w3.org/2000/svg" viewBox="0 0 90 90" fill="currentColor"><path d="M14,81L26,81L26,1L14,1C9.58,1,6,4.58,6,9L6,73C6,77.42,9.58,81,14,81ZM66,81L66,1L46,1L46,81ZM78,81L66,81L66,1L78,1C82.42,1,86,4.58,86,9L86,73C86,77.42,82.42,81,78,81ZM26,81L26,1L46,1L46,81ZM14,81C9.58,81,6,77.42,6,73L6,13C6,8.58,9.58,5,14,5L78,5C82.42,5,86,8.58,86,13L86,73C86,77.42,82.42,81,78,81ZM6,73L6,62L26,62L26,43L6,43L6,24L26,24L26,5L46,5L46,24L66,24L66,5L78,5C82.42,5,86,8.58,86,13L86,24L66,24L66,43L86,43L86,62L66,62L66,81L46,81L46,62L26,62L26,81L14,81C9.58,81,6,77.42,6,73ZM46,24L26,24L26,43L46,43ZM46,62L66,62L66,43L46,43ZM46,81L46,62L26,62L26,81ZM6,43L6,62L26,62L26,43ZM26,43L26,24L6,24L6,13C6,8.58,9.58,5,14,5L26,5L26,24L46,24L46,5L66,5L66,24L86,24L86,43L66,43L66,62L86,62L86,73C86,77.42,82.42,81,78,81L66,81L66,62L46,62L46,43ZM66,43L66,24L46,24L46,43ZM14,81L26,81L26,78.89L16.17,78.38C12.09,78.16,8.83,74.91,8.6,70.83L8.11,62L6,62L6,73C6,77.14,9.15,80.55,13.18,80.96C13.45,80.99,13.72,81,14,81ZM6,24L7.06,43L6,43ZM46,81L66,81L46,79.95ZM46,5L26,5L46,6.05ZM66,5L78,5C82.42,5,86,8.58,86,13L86,24L83.89,24L83.4,15.17C83.17,11.09,79.91,7.84,75.83,7.62L66,7.11ZM86,43L86,62L84.94,43ZM46,81L26,81L26,78.89L46,79.95ZM6,62L6,43L7.06,43L8.11,62ZM66,5L66,7.11L46,6.05L46,5ZM86,24L86,43L84.94,43L83.89,24ZM46,77L26,77L26,72.33L26.26,72.27C32.73,70.76,39.36,70,46,70ZM66,72.33L66,77L46,77L46,70C52.64,70,59.27,70.76,65.74,72.27ZM38.5,83.5L38.5,81L26,81L26,73L38.5,73L53.5,73L66,73L66,81L53.5,81L53.5,83.5C53.5,87.64,49.75,91,45.61,91C41.47,91,38.5,87.64,38.5,83.5ZM48.5,83.5C48.5,84.88,47.38,86,46,86C44.62,86,43.5,84.88,43.5,83.5C43.5,82.12,44.62,81,46,81C47.38,81,48.5,82.12,48.5,83.5ZM68,62L68,40.24C68,38.46,65.85,37.56,64.59,38.82L57.24,46.17L30.92,19.84C28.96,17.89,25.8,17.89,23.85,19.84C21.89,21.8,21.89,24.96,23.85,26.92L50.17,53.24L42.82,60.59C41.56,61.85,42.46,64,44.24,64L66,64C67.1,64,68,63.1,68,62Z"/></svg>