<svg xmlns="http://www.w3.org/2000/svg" viewBox="0 0 90 90" fill="currentColor"><path d="M76.68,86L15.28,86C12.77,86,10.88,83.72,11.35,81.25L20.64,32.37L70.89,32.37L80.61,81.22C81.1,83.69,79.2,86,76.68,86ZM15.28,86C12.77,86,10.88,83.72,11.35,81.25L20.64,32.37L46,32.37L46,86ZM15.28,86C12.77,86,10.88,83.72,11.35,81.25L20.64,32.37L23,32.37L17,86ZM70.08,27.26L21.45,27.26L19.06,40.34L72.47,40.34ZM8.44,6L83.56,6L81.56,27.86C81.56,31.68,78.22,34.78,74.12,34.78L17.88,34.78C13.78,34.78,10.44,31.68,10.44,27.86ZM17.88,34.78C13.78,34.78,10.44,31.68,10.44,27.86L8.44,6L46,6L46,34.78ZM16.53,34.66C13.07,34.07,10.44,31.25,10.44,27.86L8.44,6L11.89,6L13,25.14C13,29.16,14.41,32.69,16.53,34.66ZM55,54L55,66L37,66L37,54C37,49.03,41.03,45,46,45C50.97,45,55,49.03,55,54ZM37,53.89L37,61.27C37,56.37,41.03,52.39,46,52.39C50.97,52.39,55,56.37,55,61.27L55,53.89C55,48.98,50.97,45,46,45C41.03,45,37,48.98,37,53.89ZM55,80.45L55,66L37,66L37,80.45L46,72.54ZM29.23,6L30.15,18.44L21.18,18.44L18.44,6ZM51.85,6L50.93,18.44L41,18.44L40.15,6ZM73.56,6L70.82,18.44L61.85,18.44L62.77,6Z"/></svg>