<svg xmlns="http://www.w3.org/2000/svg" viewBox="0 0 90 90"><path d="M13,10L25,10L25,90L13,90C8.58,90,5,86.42,5,82L5,18C5,13.58,8.58,10,13,10Z" fill="#40241A"/><path d="M65,10L65,90L45,90L45,10Z" fill="#40241A"/><path d="M77,10L65,10L65,90L77,90C81.42,90,85,86.42,85,82L85,18C85,13.58,81.42,10,77,10Z" fill="#543426"/><path d="M25,10L25,90L45,90L45,10Z" fill="#543426"/><path d="M13,10C8.58,10,5,13.58,5,18L5,78C5,82.42,8.58,86,13,86L77,86C81.42,86,85,82.42,85,78L85,18C85,13.58,81.42,10,77,10Z" fill="#9D6C3E"/><path d="M5,18L5,29L25,29L25,48L5,48L5,67L25,67L25,86L45,86L45,67L65,67L65,86L77,86C81.42,86,85,82.42,85,78L85,67L65,67L65,48L85,48L85,29L65,29L65,10L45,10L45,29L25,29L25,10L13,10C8.58,10,5,13.58,5,18Z" fill="#9D6C3E"/><path d="M45,67L25,67L25,48L45,48Z" fill="#9D6C3E"/><path d="M45,29L65,29L65,48L45,48Z" fill="#9D6C3E"/><path d="M45,10L45,29L25,29L25,10Z" fill="#6A4632"/><path d="M5,48L5,29L25,29L25,48Z" fill="#6A4632"/><path d="M25,48L25,67L5,67L5,78C5,82.42,8.58,86,13,86L25,86L25,67L45,67L45,86L65,86L65,67L85,67L85,48L65,48L65,29L85,29L85,18C85,13.58,81.42,10,77,10L65,10L65,29L45,29L45,48Z" fill="#6A4632"/><path d="M65,48L65,67L45,67L45,48Z" fill="#6A4632"/><path d="M13,10L25,10L25,12.11L15.17,12.62C11.09,12.84,7.83,16.09,7.6,20.17L7.11,29L5,29L5,18C5,13.86,8.15,10.45,12.18,10.04C12.45,10.01,12.72,10,13,10Z" fill="#CA9350"/><path d="M5,67L6.06,48L5,48Z" fill="#CA9350"/><path d="M45,10L65,10L45,11.05Z" fill="#CA9350"/><path d="M45,86L25,86L45,84.95Z" fill="#CA9350"/><path d="M65,86L77,86C81.42,86,85,82.42,85,78L85,67L82.89,67L82.4,75.83C82.17,79.91,78.91,83.16,74.83,83.38L65,83.89Z" fill="#CA9350"/><path d="M85,48L85,29L83.94,48Z" fill="#CA9350"/><path d="M45,10L25,10L25,12.11L45,11.05Z" fill="#9D6C3E"/><path d="M5,29L5,48L6.06,48L7.11,29Z" fill="#9D6C3E"/><path d="M65,86L65,83.89L45,84.95L45,86Z" fill="#9D6C3E"/><path d="M85,67L85,48L83.94,48L82.89,67Z" fill="#9D6C3E"/><path d="M17,24L17,39.86C17,41.64,19.15,42.54,20.41,41.28L24.85,36.85L42.59,54.59C43.49,55.49,44.72,56,46,56C47.28,56,48.51,55.49,49.41,54.59L49.59,54.41C50.49,53.51,51,52.28,51,51C51,49.72,50.49,48.49,49.59,47.59L31.85,29.85L36.28,25.41C37.54,24.15,36.64,22,34.86,22L19,22C17.9,22,17,22.9,17,24Z" fill="#F7C631"/><path d="M19,78L34.86,78C36.64,78,37.54,75.85,36.28,74.59L31.85,70.15L49.59,52.41C50.49,51.51,51,50.28,51,49C51,47.72,50.49,46.49,49.59,45.59L49.41,45.41C48.51,44.51,47.28,44,46,44C44.72,44,43.49,44.51,42.59,45.41L24.85,63.15L20.41,58.72C19.15,57.46,17,58.36,17,60.14L17,76C17,77.1,17.9,78,19,78Z" fill="#F7C631"/><path d="M73,76L73,60.14C73,58.36,70.85,57.46,69.59,58.72L65.15,63.15L47.41,45.41C46.51,44.51,45.28,44,44,44C42.72,44,41.49,44.51,40.59,45.41L40.41,45.59C39.51,46.49,39,47.72,39,49C39,50.28,39.51,51.51,40.41,52.41L58.15,70.15L53.72,74.59C52.46,75.85,53.36,78,55.14,78L71,78C72.1,78,73,77.1,73,76Z" fill="#F7C631"/><path d="M71,22L55.14,22C53.36,22,52.46,24.15,53.72,25.41L58.15,29.85L40.41,47.59C39.51,48.49,39,49.72,39,51C39,52.28,39.51,53.51,40.41,54.41L40.59,54.59C41.49,55.49,42.72,56,44,56C45.28,56,46.51,55.49,47.41,54.59L65.15,36.85L69.59,41.28C70.85,42.54,73,41.64,73,39.86L73,24C73,22.9,72.1,22,71,22Z" fill="#F7C631"/><path d="M45,14L25,14L25,18.67L25.26,18.73C31.73,20.24,38.36,21,45,21Z" fill="#543426"/><path d="M65,18.67L65,14L45,14L45,21C51.64,21,58.27,20.24,64.74,18.73Z" fill="#6A4632"/><path d="M37.5,7.5L37.5,10L25,10L25,18L37.5,18L52.5,18L65,18L65,10L52.5,10L52.5,7.5C52.5,3.36,48.75,0,44.61,0C40.47,0,37.5,3.36,37.5,7.5Z" fill="#BEBDB9"/><path d="M47.5,7.5C47.5,6.12,46.38,5,45,5C43.62,5,42.5,6.12,42.5,7.5C42.5,8.88,43.62,10,45,10C46.38,10,47.5,8.88,47.5,7.5Z" fill="#BEBDB9"/><path d="M55.26,46.81L41.81,60.26C41.07,56.71,38.29,53.93,34.74,53.19L48.19,39.74C48.93,43.29,51.71,46.07,55.26,46.81Z" fill="#E3AA24"/><path d="M32.63,37.63C34.58,35.67,37.74,35.67,39.7,37.63L57.37,55.3C59.33,57.26,59.33,60.42,57.37,62.37C55.42,64.33,52.26,64.33,50.3,62.37L32.63,44.7C30.67,42.74,30.67,39.58,32.63,37.63Z" fill="#F7C631"/></svg>