<svg xmlns="http://www.w3.org/2000/svg" viewBox="0 0 90 90"><path d="M28,52L62,52L62,58L57.88,90L32.13,90L28,58Z" fill="currentColor"/><path d="M52,50L46.15,89.02C46.06,89.58,45.58,90,45.01,90C44.43,90,43.95,89.57,43.87,89L39,50Z" fill="currentColor"/><path d="M27.69,77L40.35,88.13L25,82.65Z" fill="currentColor"/><path d="M34.84,70L38.78,78.45L31.04,73.8Z" fill="currentColor"/><path d="M59,70L53.98,73.17L56.6,67.6Z" fill="currentColor"/><path d="M67.26,71.72L61.58,73.49L65.56,68.78Z" fill="currentColor"/><path d="M62.78,78.09L49.33,88.03L58.98,74.29Z" fill="currentColor"/><path d="M43,67L45,90C44.43,90,43.95,89.57,43.88,89.01L41,66Z" fill="currentColor"/><path d="M51.67,52.2L49.32,67.88C47.89,67.96,46.45,68,45,68C43.74,68,42.48,67.97,41.24,67.91L39.27,52.15C41.12,52.05,43.04,52,45,52C47.29,52,49.52,52.07,51.67,52.2Z" fill="currentColor"/><path d="M17,58L73,58C74.1,58,75,57.1,75,56L75,49.39C75,48.55,74.48,47.81,73.7,47.51L61.6,43C51.7,41,67,16.17,68.93,10.29C71.83,1.46,61.5,0,45,0C28.5,0.5,18.17,1.46,21.07,10.29C23,16.17,38.3,41,28.4,43L16.3,47.51C15.52,47.81,15,48.55,15,49.39L15,56C15,57.1,15.9,58,17,58Z" fill="currentColor"/><path d="M69.3,6.43L64.9,5.99C51.66,4.67,38.33,4.67,25.1,5.99L20.7,6.43C21.86,1.15,31.31,0.41,45,0C58.72,0,68.18,1.01,69.3,6.43Z" fill="currentColor"/><path d="M15.56,48C15.76,47.79,16.01,47.62,16.3,47.51L28.4,43C30.16,42.64,31.12,41.57,31.51,40L39.08,40L56.96,48Z" fill="currentColor"/><path d="M52.66,0.15C40.76,0.73,33.04,2.24,35.26,10.29C36.88,16.17,48.92,42,41.43,44L32.28,47.51C31.51,47.8,31,48.55,31,49.38L31,56C31,57.1,31.9,58,33,58L17,58C15.9,58,15,57.1,15,56L15,49.39C15,48.55,15.52,47.81,16.3,47.51L28.4,43C38.3,41,23,16.17,21.07,10.29C18.17,1.46,28.5,0.5,45,0C47.73,0,50.3,0.04,52.66,0.15Z" fill="currentColor"/></svg>