<svg xmlns="http://www.w3.org/2000/svg" viewBox="0 0 90 90"><path d="M52,50L46.15,89.02C46.06,89.58,45.58,90,45.01,90C44.43,90,43.95,89.57,43.87,89L39,50Z" fill="currentColor"/><path d="M27.69,77L40.44,87.15C40.63,87.31,40.68,87.57,40.56,87.78C40.44,87.98,40.19,88.07,39.97,88L25,82.65Z" fill="currentColor"/><path d="M34.84,70L38.62,78.11C38.71,78.31,38.67,78.55,38.51,78.71C38.33,78.89,38.04,78.92,37.83,78.76L31.04,73.8Z" fill="currentColor"/><path d="M62.78,78.09L49.66,87.78C49.47,87.92,49.21,87.9,49.05,87.74C48.88,87.57,48.86,87.3,49.01,87.11L58.98,74.29Z" fill="currentColor"/><path d="M43,67L45,90C44.43,90,43.95,89.57,43.88,89.01L41,66Z" fill="currentColor"/><path d="M51.67,52.2L49.32,67.88C47.89,67.96,46.45,68,45,68C43.74,68,42.48,67.97,41.24,67.91L39.27,52.15C41.12,52.05,43.04,52,45,52C47.29,52,49.52,52.07,51.67,52.2Z" fill="currentColor"/><path d="M69.93,10.29C68,16.17,52.7,41,62.6,43L62.6,43C67.69,43.84,72.13,44.77,74.92,45.78C76.94,46.44,78,47.12,78,48L78,55.17C78,56.93,77.09,58.58,75.51,59.33C68.04,62.87,56.52,65,45,65C33.48,65,21.96,62.87,14.49,59.33C12.91,58.58,12,56.93,12,55.17C12,52.67,12,49.22,12,48C12,46.31,15.91,45.34,23.06,43.88C23.94,43.68,24.86,43.49,25.8,43.31L27.4,43C37.3,41,22,16.17,20.07,10.29C17.17,1.46,28.5,0.5,45,0C61.5,0,72.83,1.46,69.93,10.29Z" fill="currentColor"/><path d="M69.13,4.38C68.2,6.96,57.75,9,45,9C32.35,9,21.97,6.99,20.89,4.44C24.14,0.95,33.26,0.36,45,0C56.77,0,65.91,0.74,69.13,4.38Z" fill="currentColor"/><path d="M31.5,43.93L55.03,55.57C51.87,55.85,48.5,56,45,56C26.77,56,12,51.87,12,48C12,45.65,18.76,44.6,27.4,43C27.43,43.01,28.82,43.46,31.5,43.93Z" fill="currentColor"/><path d="M48.02,0.02C32.7,0.57,22.25,1.7,24.96,11.26C29.78,19.68,41.23,42.84,31.88,45.03C22.53,47.22,17,48.31,17,50.5C17,51.84,17,55.67,17,58.41C17,59.19,17.18,59.93,17.51,60.6C16.44,60.2,15.44,59.77,14.49,59.33C12.91,58.58,12,56.93,12,55.17C12,52.67,12,49.22,12,48C12,46,17.5,45,27.4,43C37.3,41,22,16.17,20.07,10.29C17.17,1.46,28.5,0.5,45,0C46.03,0,47.04,0,48.02,0.02Z" fill="currentColor"/></svg>