<svg xmlns="http://www.w3.org/2000/svg" viewBox="0 0 90 90"><path d="M41.6,79.6C64.99,64.18,50.98,49.14,58.7,42.71L81.32,23.44C85.56,19.71,88,15.6,88,11.74C88,9.55,87.23,7.5,85.43,5.57C83.5,3.77,81.44,3,79.26,3C75.4,3,71.29,5.44,67.56,9.68L48.29,32.3C41.73,40.14,26.82,26.01,11.4,49.4L3.56,61.22C-0.42,67.26,3.95,71.76,8.57,66.11L18.85,53.51C21.3,50.55,24.51,50.55,26.18,52.35C28.11,54.28,27.72,56.85,25.02,59.81L14.48,71.37C9.21,77.16,13.84,81.78,19.63,76.52L31.19,65.98C34.15,63.28,36.72,62.89,38.65,64.82C40.45,66.49,40.45,69.7,37.49,72.15L24.89,82.43C19.24,87.05,23.74,91.42,29.78,87.44Z" fill="currentColor"/><path d="M85.43,5.57C87.23,7.5,88,9.56,88,11.74C88,15.6,85.56,19.71,81.31,23.44L58.69,42.71C50.98,49.14,64.99,64.18,41.6,79.6L29.78,87.44C23.74,91.42,19.24,87.05,24.89,82.43L37.49,72.15C40.44,69.7,40.44,66.49,38.65,64.82C36.72,62.89,34.15,63.28,31.19,65.98L19.62,76.52C13.84,81.78,9.21,77.16,14.48,71.37L21.17,64.03C34.12,62.31,45.91,55.33,53.64,44.57L82.94,3.83C83.79,4.25,84.62,4.82,85.43,5.57Z" fill="currentColor" opacity="0.5"/><path d="M2.14,64.45L9.92,64.45L8.57,66.11C4.83,70.68,1.25,68.61,2.14,64.45Z" fill="currentColor" opacity="0.5"/><path d="M85.08,5.25C79.59,3.27,73.29,4.86,69.42,9.52L49.96,32.97C48.17,35.13,45.53,36.39,42.73,36.43L36.93,36.5C27.84,36.62,19.35,41.03,14.04,48.4L2.04,65.05C2.17,63.93,2.64,62.61,3.56,61.22L11.4,49.4C26.82,26.01,41.73,40.14,48.29,32.3L67.56,9.68C71.29,5.44,75.4,3,79.26,3C81.31,3,83.25,3.68,85.08,5.25Z" fill="currentColor"/></svg>