<svg xmlns="http://www.w3.org/2000/svg" viewBox="0 0 90 90"><path d="M45.09,60.08C46.8,61.67,47.87,63.83,48.09,66.16L48.56,70.95C48.69,72.34,47.45,73.47,46.08,73.21C44.79,72.96,44.04,71.59,44.53,70.37L45.15,68.82C46.55,65.33,44.92,61.36,41.47,59.86L32.35,55.9L40.59,55.9Z" fill="#6A4632" opacity="0.5"/><path d="M73.63,22.4C79.73,25.51,90.43,22.03,90.43,11.94C90.43,4.6,85.33,-0.01,79.1,-0.01C68.02,-0.01,64.54,10.07,67.77,16.55L0.79,86.4C-1.2,88.39,1.66,91.38,3.78,89.26Z" fill="#666564"/><path d="M73.75,11.82C73.75,9.2,75.87,6.96,78.61,6.96C81.22,6.96,83.46,9.2,83.46,11.82C83.46,14.56,81.22,16.67,78.61,16.67C75.87,16.67,73.75,14.56,73.75,11.82Z" fill="#666564"/><path d="M69.1,17.32L1.33,86.95C0.58,87.72,0.54,88.91,1.2,89.72C0.13,89.11,-0.39,87.58,0.79,86.4L67.77,16.55C64.79,10.58,67.52,1.54,76.66,0.17C69.61,2.02,65.39,10.19,69.1,17.32Z" fill="#BEBDB9"/><path d="M12.99,80.44L9,77.83L17.19,69.29L21.28,72.51Z" fill="#4B4847"/><path d="M43.86,50.9L38.48,47.09L46.83,38.39L52.37,42.75Z" fill="#4B4847"/><path d="M34.02,32.94L44.76,25.26C45.03,25.07,45.26,24.84,45.46,24.57L53.13,13.83C54.21,12.32,56.38,12.14,57.69,13.45L76.73,32.49C78.04,33.8,77.86,35.98,76.35,37.06L69.27,42.12C66.58,44.04,64.23,46.39,62.31,49.08L57.25,56.16C56.17,57.67,54,57.85,52.68,56.54L33.64,37.5C32.33,36.19,32.51,34.02,34.02,32.94Z" fill="#9D6C3E"/><path d="M43.63,39.74C51.01,36.69,56.88,30.82,59.93,23.44L62.19,17.95L70.23,26L58.91,32.18C52.15,35.87,47.46,42.45,46.19,50.04L38.14,42Z" fill="#6A4632" opacity="0.5"/><path d="M48.06,51.57C52.17,54.12,57.53,53.36,60.77,49.76L69.74,39.79C71.9,37.39,72.77,34.1,72.07,30.94L71.19,26.95L76.73,32.49C78.04,33.8,77.86,35.98,76.36,37.06L69.27,42.12C66.58,44.04,64.23,46.39,62.31,49.08L57.25,56.16C56.17,57.67,54,57.85,52.68,56.54L47.15,51Z" fill="#6A4632" opacity="0.5"/><path d="M34.02,32.94L39.75,28.85C43.34,26.28,46.47,23.14,49.04,19.56L53.13,13.83C54.21,12.32,56.38,12.14,57.69,13.45L75.23,31L56.92,16.36C56.01,15.63,54.66,15.84,54.01,16.82L51.64,20.37C48.71,24.76,44.95,28.52,40.56,31.45L37.01,33.82C36.03,34.47,35.82,35.82,36.55,36.73L51.19,55.04L33.64,37.5C32.33,36.19,32.51,34.02,34.02,32.94Z" fill="#CA9350"/><path d="M3.92,64.8L13.94,56.22C14.19,56,14.41,55.75,14.58,55.46L21.29,44.1C22.23,42.5,24.38,42.13,25.8,43.33L46.42,60.63C47.85,61.82,47.86,64.01,46.45,65.21L39.83,70.87C37.32,73.02,35.18,75.57,33.5,78.42L29.08,85.91C28.14,87.51,25.98,87.88,24.56,86.68L3.94,69.38C2.52,68.19,2.51,66,3.92,64.8Z" fill="#9D6C3E"/><path d="M18.99,73.07C29.11,70.01,35.07,59.56,32.55,49.3L41.86,56.81L39.89,57.95C35.94,60.23,32.57,63.38,30.02,67.16L19.42,82.88L10.7,75.57Z" fill="#6A4632" opacity="0.5"/><path d="M29.07,53.63C26.71,54.5,24.85,56.36,23.97,58.71L23.11,61.01C22.69,62.13,21.41,62.66,20.33,62.16C18.91,61.5,18.72,59.57,19.98,58.64L23.67,55.93C24.71,55.17,25.59,54.2,26.24,53.09L29.26,47.98L33.89,51.85Z" fill="#6A4632" opacity="0.5"/><path d="M31.16,77.44L31.86,76.01C34.02,71.62,37.71,68.18,42.23,66.33L44.95,65.21C46.2,64.7,46.6,63.13,45.74,62.09L40.42,55.6L46.43,60.63C47.85,61.82,47.86,64.01,46.45,65.21L39.83,70.87C37.32,73.02,35.18,75.57,33.5,78.42L29.08,85.91C28.14,87.51,25.99,87.88,24.57,86.68L18.56,81.65C23.2,83.99,28.86,82.1,31.16,77.44Z" fill="#6A4632" opacity="0.5"/><path d="M3.92,64.8L9.27,60.22C12.61,57.36,15.47,53.96,17.71,50.16L21.29,44.1C22.23,42.5,24.38,42.13,25.8,43.33L40.47,55.63L26.18,46.14C25.24,45.51,23.97,45.79,23.38,46.75L20.55,51.3C17.9,55.56,14.47,59.29,10.44,62.28L6.08,65.52C5.12,66.23,5,67.63,5.83,68.5L17.53,80.78L3.94,69.38C2.52,68.19,2.51,66,3.92,64.8Z" fill="#CA9350"/><path d="M56.05,58.23C55.06,60.29,54.92,62.66,55.65,64.82L56.6,67.67C57.09,69.12,56.01,70.63,54.47,70.63C52.94,70.63,51.85,69.12,52.34,67.67L53.3,64.82C54.02,62.66,53.88,60.29,52.9,58.23L50.35,52.9L58.59,52.9Z" fill="#6A4632" opacity="0.5"/></svg>