<svg xmlns="http://www.w3.org/2000/svg" viewBox="0 0 90 90"><path d="M75.68,85L14.28,85C11.77,85,9.88,82.72,10.35,80.25L19.64,31.37L69.89,31.37L79.61,80.22C80.1,82.69,78.2,85,75.68,85Z" fill="currentColor"/><path d="M14.28,85C11.77,85,9.88,82.72,10.35,80.25L19.64,31.37L45,31.37L45,85Z" fill="currentColor"/><path d="M14.28,85C11.77,85,9.88,82.72,10.35,80.25L19.64,31.37L22,31.37L16,85Z" fill="currentColor"/><path d="M69.08,26.26L20.45,26.26L18.06,39.34L71.47,39.34Z" fill="currentColor"/><path d="M7.44,5L82.56,5L80.56,26.86C80.56,30.68,77.22,33.78,73.12,33.78L16.88,33.78C12.78,33.78,9.44,30.68,9.44,26.86Z" fill="currentColor"/><path d="M16.88,33.78C12.78,33.78,9.44,30.68,9.44,26.86L7.44,5L45,5L45,33.78Z" fill="currentColor"/><path d="M15.53,33.66C12.07,33.07,9.44,30.25,9.44,26.86L7.44,5L10.89,5L12,24.14C12,28.16,13.41,31.69,15.53,33.66Z" fill="currentColor"/><path d="M54,53L54,65L36,65L36,53C36,48.03,40.03,44,45,44C49.97,44,54,48.03,54,53Z" fill="currentColor"/><path d="M36,52.89L36,60.27C36,55.37,40.03,51.39,45,51.39C49.97,51.39,54,55.37,54,60.27L54,52.89C54,47.98,49.97,44,45,44C40.03,44,36,47.98,36,52.89Z" fill="currentColor"/><path d="M54,79.45L54,65L36,65L36,79.45L45,71.54Z" fill="currentColor"/><path d="M28.23,5L29.15,17.44L20.18,17.44L17.44,5Z" fill="currentColor"/><path d="M50.85,5L49.93,17.44L40,17.44L39.15,5Z" fill="currentColor"/><path d="M72.56,5L69.82,17.44L60.85,17.44L61.77,5Z" fill="currentColor"/></svg>