<svg xmlns="http://www.w3.org/2000/svg" viewBox="0 0 90 90" fill="currentColor"><path d="M29,53L63,53L63,59L58.88,91L33.13,91L29,59ZM53,51L47.15,90.02C47.06,90.58,46.58,91,46.01,91C45.43,91,44.95,90.57,44.87,90L40,51ZM28.69,78L41.35,89.13L26,83.65ZM35.84,71L39.78,79.45L32.04,74.8ZM60,71L54.98,74.17L57.6,68.6ZM68.26,72.72L62.58,74.49L66.56,69.78ZM63.78,79.09L50.33,89.03L59.98,75.29ZM44,68L46,91C45.43,91,44.95,90.57,44.88,90.01L42,67ZM52.67,53.2L50.32,68.88C48.89,68.96,47.45,69,46,69C44.74,69,43.48,68.97,42.24,68.91L40.27,53.15C42.12,53.05,44.04,53,46,53C48.29,53,50.52,53.07,52.67,53.2ZM18,59L74,59C75.1,59,76,58.1,76,57L76,50.39C76,49.55,75.48,48.81,74.7,48.51L62.6,44C52.7,42,68,17.17,69.93,11.29C72.83,2.46,62.5,1,46,1C29.5,1.5,19.17,2.46,22.07,11.29C24,17.17,39.3,42,29.4,44L17.3,48.51C16.52,48.81,16,49.55,16,50.39L16,57C16,58.1,16.9,59,18,59ZM70.3,7.43L65.9,6.99C52.66,5.67,39.33,5.67,26.1,6.99L21.7,7.43C22.86,2.15,32.31,1.41,46,1C59.72,1,69.18,2.01,70.3,7.43ZM16.56,49C16.76,48.79,17.01,48.62,17.3,48.51L29.4,44C31.16,43.64,32.12,42.57,32.51,41L40.08,41L57.96,49ZM53.66,1.15C41.76,1.73,34.04,3.24,36.26,11.29C37.88,17.17,49.92,43,42.43,45L33.28,48.51C32.51,48.8,32,49.55,32,50.38L32,57C32,58.1,32.9,59,34,59L18,59C16.9,59,16,58.1,16,57L16,50.39C16,49.55,16.52,48.81,17.3,48.51L29.4,44C39.3,42,24,17.17,22.07,11.29C19.17,2.46,29.5,1.5,46,1C48.73,1,51.3,1.04,53.66,1.15Z"/></svg>