<svg xmlns="http://www.w3.org/2000/svg" viewBox="0 0 90 90" fill="currentColor"><path d="M14,81L26,81L26,1L14,1C9.58,1,6,4.58,6,9L6,73C6,77.42,9.58,81,14,81ZM66,81L66,1L46,1L46,81ZM78,81L66,81L66,1L78,1C82.42,1,86,4.58,86,9L86,73C86,77.42,82.42,81,78,81ZM26,81L26,1L46,1L46,81ZM14,81C9.58,81,6,77.42,6,73L6,13C6,8.58,9.58,5,14,5L78,5C82.42,5,86,8.58,86,13L86,73C86,77.42,82.42,81,78,81ZM6,73L6,62L26,62L26,43L6,43L6,24L26,24L26,5L46,5L46,24L66,24L66,5L78,5C82.42,5,86,8.58,86,13L86,24L66,24L66,43L86,43L86,62L66,62L66,81L46,81L46,62L26,62L26,81L14,81C9.58,81,6,77.42,6,73ZM46,24L26,24L26,43L46,43ZM46,62L66,62L66,43L46,43ZM46,81L46,62L26,62L26,81ZM6,43L6,62L26,62L26,43ZM26,43L26,24L6,24L6,13C6,8.58,9.58,5,14,5L26,5L26,24L46,24L46,5L66,5L66,24L86,24L86,43L66,43L66,62L86,62L86,73C86,77.42,82.42,81,78,81L66,81L66,62L46,62L46,43ZM66,43L66,24L46,24L46,43ZM14,81L26,81L26,78.89L16.17,78.38C12.09,78.16,8.83,74.91,8.6,70.83L8.11,62L6,62L6,73C6,77.14,9.15,80.55,13.18,80.96C13.45,80.99,13.72,81,14,81ZM6,24L7.06,43L6,43ZM46,81L66,81L46,79.95ZM46,5L26,5L46,6.05ZM66,5L78,5C82.42,5,86,8.58,86,13L86,24L83.89,24L83.4,15.17C83.17,11.09,79.91,7.84,75.83,7.62L66,7.11ZM86,43L86,62L84.94,43ZM46,81L26,81L26,78.89L46,79.95ZM6,62L6,43L7.06,43L8.11,62ZM66,5L66,7.11L46,6.05L46,5ZM86,24L86,43L84.94,43L83.89,24ZM18,67L18,51.14C18,49.36,20.15,48.46,21.41,49.72L25.85,54.15L43.59,36.41C44.49,35.51,45.72,35,47,35C48.28,35,49.51,35.51,50.41,36.41L50.59,36.59C51.49,37.49,52,38.72,52,40C52,41.28,51.49,42.51,50.59,43.41L32.85,61.15L37.28,65.59C38.54,66.85,37.64,69,35.86,69L20,69C18.9,69,18,68.1,18,67ZM20,13L35.86,13C37.64,13,38.54,15.15,37.28,16.41L32.85,20.85L50.59,38.59C51.49,39.49,52,40.72,52,42C52,43.28,51.49,44.51,50.59,45.41L50.41,45.59C49.51,46.49,48.28,47,47,47C45.72,47,44.49,46.49,43.59,45.59L25.85,27.85L21.41,32.28C20.15,33.54,18,32.64,18,30.86L18,15C18,13.9,18.9,13,20,13ZM74,15L74,30.86C74,32.64,71.85,33.54,70.59,32.28L66.15,27.85L48.41,45.59C47.51,46.49,46.28,47,45,47C43.72,47,42.49,46.49,41.59,45.59L41.41,45.41C40.51,44.51,40,43.28,40,42C40,40.72,40.51,39.49,41.41,38.59L59.15,20.85L54.72,16.41C53.46,15.15,54.36,13,56.14,13L72,13C73.1,13,74,13.9,74,15ZM72,69L56.14,69C54.36,69,53.46,66.85,54.72,65.59L59.15,61.15L41.41,43.41C40.51,42.51,40,41.28,40,40C40,38.72,40.51,37.49,41.41,36.59L41.59,36.41C42.49,35.51,43.72,35,45,35C46.28,35,47.51,35.51,48.41,36.41L66.15,54.15L70.59,49.72C71.85,48.46,74,49.36,74,51.14L74,67C74,68.1,73.1,69,72,69ZM46,77L26,77L26,72.33L26.26,72.27C32.73,70.76,39.36,70,46,70ZM66,72.33L66,77L46,77L46,70C52.64,70,59.27,70.76,65.74,72.27ZM38.5,83.5L38.5,81L26,81L26,73L38.5,73L53.5,73L66,73L66,81L53.5,81L53.5,83.5C53.5,87.64,49.75,91,45.61,91C41.47,91,38.5,87.64,38.5,83.5ZM48.5,83.5C48.5,84.88,47.38,86,46,86C44.62,86,43.5,84.88,43.5,83.5C43.5,82.12,44.62,81,46,81C47.38,81,48.5,82.12,48.5,83.5ZM56.26,44.19L42.81,30.74C42.07,34.29,39.29,37.07,35.74,37.81L49.19,51.26C49.93,47.71,52.71,44.93,56.26,44.19ZM33.63,53.37C35.58,55.33,38.74,55.33,40.7,53.37L58.37,35.7C60.33,33.74,60.33,30.58,58.37,28.63C56.42,26.67,53.26,26.67,51.3,28.63L33.63,46.3C31.67,48.26,31.67,51.42,33.63,53.37Z"/></svg>