<svg xmlns="http://www.w3.org/2000/svg" viewBox="0 0 90 90"><path d="M13,10L25,10L25,90L13,90C8.58,90,5,86.42,5,82L5,18C5,13.58,8.58,10,13,10Z" fill="currentColor"/><path d="M65,10L65,90L45,90L45,10Z" fill="currentColor"/><path d="M77,10L65,10L65,90L77,90C81.42,90,85,86.42,85,82L85,18C85,13.58,81.42,10,77,10Z" fill="currentColor"/><path d="M25,10L25,90L45,90L45,10Z" fill="currentColor"/><path d="M13,10C8.58,10,5,13.58,5,18L5,78C5,82.42,8.58,86,13,86L77,86C81.42,86,85,82.42,85,78L85,18C85,13.58,81.42,10,77,10Z" fill="currentColor"/><path d="M5,18L5,29L25,29L25,48L5,48L5,67L25,67L25,86L45,86L45,67L65,67L65,86L77,86C81.42,86,85,82.42,85,78L85,67L65,67L65,48L85,48L85,29L65,29L65,10L45,10L45,29L25,29L25,10L13,10C8.58,10,5,13.58,5,18Z" fill="currentColor"/><path d="M45,67L25,67L25,48L45,48Z" fill="currentColor"/><path d="M45,29L65,29L65,48L45,48Z" fill="currentColor"/><path d="M45,10L45,29L25,29L25,10Z" fill="currentColor"/><path d="M5,48L5,29L25,29L25,48Z" fill="currentColor"/><path d="M25,48L25,67L5,67L5,78C5,82.42,8.58,86,13,86L25,86L25,67L45,67L45,86L65,86L65,67L85,67L85,48L65,48L65,29L85,29L85,18C85,13.58,81.42,10,77,10L65,10L65,29L45,29L45,48Z" fill="currentColor"/><path d="M65,48L65,67L45,67L45,48Z" fill="currentColor"/><path d="M13,10L25,10L25,12.11L15.17,12.62C11.09,12.84,7.83,16.09,7.6,20.17L7.11,29L5,29L5,18C5,13.86,8.15,10.45,12.18,10.04C12.45,10.01,12.72,10,13,10Z" fill="currentColor"/><path d="M5,67L6.06,48L5,48Z" fill="currentColor"/><path d="M45,10L65,10L45,11.05Z" fill="currentColor"/><path d="M45,86L25,86L45,84.95Z" fill="currentColor"/><path d="M65,86L77,86C81.42,86,85,82.42,85,78L85,67L82.89,67L82.4,75.83C82.17,79.91,78.91,83.16,74.83,83.38L65,83.89Z" fill="currentColor"/><path d="M85,48L85,29L83.94,48Z" fill="currentColor"/><path d="M45,10L25,10L25,12.11L45,11.05Z" fill="currentColor"/><path d="M5,29L5,48L6.06,48L7.11,29Z" fill="currentColor"/><path d="M65,86L65,83.89L45,84.95L45,86Z" fill="currentColor"/><path d="M85,67L85,48L83.94,48L82.89,67Z" fill="currentColor"/><path d="M45,14L25,14L25,18.67L25.26,18.73C31.73,20.24,38.36,21,45,21Z" fill="currentColor"/><path d="M65,18.67L65,14L45,14L45,21C51.64,21,58.27,20.24,64.74,18.73Z" fill="currentColor"/><path d="M37.5,7.5L37.5,10L25,10L25,18L37.5,18L52.5,18L65,18L65,10L52.5,10L52.5,7.5C52.5,3.36,48.75,0,44.61,0C40.47,0,37.5,3.36,37.5,7.5Z" fill="currentColor"/><path d="M47.5,7.5C47.5,6.12,46.38,5,45,5C43.62,5,42.5,6.12,42.5,7.5C42.5,8.88,43.62,10,45,10C46.38,10,47.5,8.88,47.5,7.5Z" fill="currentColor"/><path d="M45,90L45,77.26C45,74.27,46.34,71.43,48.65,69.53L61.35,59.11C63.66,57.21,65,54.37,65,51.38L65,33.77" fill="none" stroke="currentColor" stroke-width="2" stroke-linecap="round" stroke-linejoin="round"/><path d="M45,90L45,77.26C45,74.27,46.34,71.43,48.65,69.53L61.35,59.11C63.66,57.21,65,54.37,65,51.38L65,33.77" fill="none" stroke="currentColor" stroke-width="10" stroke-linecap="round" stroke-linejoin="round"/><path d="M52.46,72.88L51.83,73.39C50.67,74.34,50,75.76,50,77.26L50,90L40,90L40,77.26C40,72.77,42.01,68.52,45.48,65.67L47.33,64.15C49.86,66.52,51.63,69.56,52.46,72.88Z" fill="currentColor"/><path d="M30,28.77L20,28.77L20,33.77L30,33.77Z" fill="currentColor"/><path d="M50,77.26L40,77.26L40,90L50,90Z" fill="currentColor"/><path d="M31.83,55.24L25.48,62.97L38.17,73.39L44.52,65.67Z" fill="currentColor"/><path d="M30,33.77L20,33.77L20,51.38L30,51.38Z" fill="currentColor"/><path d="M30,51.38L20,51.38C20,55.87,22.01,60.12,25.48,62.97L31.83,55.24C30.67,54.29,30,52.87,30,51.38Z" fill="currentColor"/><path d="M44.52,65.67L38.17,73.39C39.33,74.34,40,75.76,40,77.26L50,77.26C50,72.77,47.99,68.52,44.52,65.67Z" fill="currentColor"/><path d="M37.27,38.86C39.13,38.86,39.51,37.93,38.32,36.46L27.16,22.65C25.6,20.64,24.4,20.64,22.84,22.65L11.68,36.46C10.49,37.93,10.87,38.86,12.73,38.86Z" fill="currentColor"/><path d="M77.27,38.86C79.13,38.86,79.51,37.93,78.32,36.46L67.16,22.65C65.6,20.64,64.4,20.64,62.84,22.65L51.68,36.46C50.49,37.93,50.87,38.86,52.73,38.86Z" fill="currentColor"/><path d="M40,86L40,90L50,90L50,86Z" fill="currentColor"/><path d="M50,86L50,84.69L40,85.2L40,86Z" fill="currentColor"/></svg>