<svg xmlns="http://www.w3.org/2000/svg" viewBox="0 0 90 90" fill="currentColor"><path d="M14,81L26,81L26,1L14,1C9.58,1,6,4.58,6,9L6,73C6,77.42,9.58,81,14,81ZM66,81L66,1L46,1L46,81ZM78,81L66,81L66,1L78,1C82.42,1,86,4.58,86,9L86,73C86,77.42,82.42,81,78,81ZM26,81L26,1L46,1L46,81ZM14,81C9.58,81,6,77.42,6,73L6,13C6,8.58,9.58,5,14,5L78,5C82.42,5,86,8.58,86,13L86,73C86,77.42,82.42,81,78,81ZM6,73L6,62L26,62L26,43L6,43L6,24L26,24L26,5L46,5L46,24L66,24L66,5L78,5C82.42,5,86,8.58,86,13L86,24L66,24L66,43L86,43L86,62L66,62L66,81L46,81L46,62L26,62L26,81L14,81C9.58,81,6,77.42,6,73ZM46,24L26,24L26,43L46,43ZM46,62L66,62L66,43L46,43ZM46,81L46,62L26,62L26,81ZM6,43L6,62L26,62L26,43ZM26,43L26,24L6,24L6,13C6,8.58,9.58,5,14,5L26,5L26,24L46,24L46,5L66,5L66,24L86,24L86,43L66,43L66,62L86,62L86,73C86,77.42,82.42,81,78,81L66,81L66,62L46,62L46,43ZM66,43L66,24L46,24L46,43ZM14,81L26,81L26,78.89L16.17,78.38C12.09,78.16,8.83,74.91,8.6,70.83L8.11,62L6,62L6,73C6,77.14,9.15,80.55,13.18,80.96C13.45,80.99,13.72,81,14,81ZM6,24L7.06,43L6,43ZM46,81L66,81L46,79.95ZM46,5L26,5L46,6.05ZM66,5L78,5C82.42,5,86,8.58,86,13L86,24L83.89,24L83.4,15.17C83.17,11.09,79.91,7.84,75.83,7.62L66,7.11ZM86,43L86,62L84.94,43ZM46,81L26,81L26,78.89L46,79.95ZM6,62L6,43L7.06,43L8.11,62ZM66,5L66,7.11L46,6.05L46,5ZM86,24L86,43L84.94,43L83.89,24ZM46,77L26,77L26,72.33L26.26,72.27C32.73,70.76,39.36,70,46,70ZM66,72.33L66,77L46,77L46,70C52.64,70,59.27,70.76,65.74,72.27ZM38.5,83.5L38.5,81L26,81L26,73L38.5,73L53.5,73L66,73L66,81L53.5,81L53.5,83.5C53.5,87.64,49.75,91,45.61,91C41.47,91,38.5,87.64,38.5,83.5ZM48.5,83.5C48.5,84.88,47.38,86,46,86C44.62,86,43.5,84.88,43.5,83.5C43.5,82.12,44.62,81,46,81C47.38,81,48.5,82.12,48.5,83.5ZM28.42,63.99L14.53,46.23C13.5,44.92,14.44,43,16.1,43L25,43L25,21.67C25,18.91,27.24,16.67,30,16.67C32.76,16.67,35,18.91,35,21.67L35,43L43.89,43C45.56,43,46.5,44.92,45.47,46.23L31.57,63.99C30.77,65.01,29.22,65.01,28.42,63.99ZM75.89,37.43C77.56,37.43,78.5,35.51,77.47,34.19L63.57,16.44C62.77,15.42,61.22,15.42,60.42,16.44L46.53,34.19C45.5,35.51,46.44,37.43,48.1,37.43L57,37.43L57,58.93C57,61.69,59.24,63.93,62,63.93C64.76,63.93,67,61.69,67,58.93L67,37.43Z"/></svg>