<svg xmlns="http://www.w3.org/2000/svg" viewBox="0 0 90 90" fill="currentColor"><path d="M53,51L47.15,90.02C47.06,90.58,46.58,91,46.01,91C45.43,91,44.95,90.57,44.87,90L40,51ZM28.69,78L41.44,88.15C41.63,88.31,41.68,88.57,41.56,88.78C41.44,88.98,41.19,89.07,40.97,89L26,83.65ZM35.84,71L39.62,79.11C39.71,79.31,39.67,79.55,39.51,79.71C39.33,79.89,39.04,79.92,38.83,79.76L32.04,74.8ZM63.78,79.09L50.66,88.78C50.47,88.92,50.21,88.9,50.05,88.74C49.88,88.57,49.86,88.3,50.01,88.11L59.98,75.29ZM44,68L46,91C45.43,91,44.95,90.57,44.88,90.01L42,67ZM52.67,53.2L50.32,68.88C48.89,68.96,47.45,69,46,69C44.74,69,43.48,68.97,42.24,68.91L40.27,53.15C42.12,53.05,44.04,53,46,53C48.29,53,50.52,53.07,52.67,53.2ZM70.93,11.29C69,17.17,53.7,42,63.6,44L63.6,44C68.69,44.84,73.13,45.77,75.92,46.78C77.94,47.44,79,48.12,79,49L79,56.17C79,57.93,78.09,59.58,76.51,60.33C69.04,63.87,57.52,66,46,66C34.48,66,22.96,63.87,15.49,60.33C13.91,59.58,13,57.93,13,56.17C13,53.67,13,50.22,13,49C13,47.31,16.91,46.34,24.06,44.88C24.94,44.68,25.86,44.49,26.8,44.31L28.4,44C38.3,42,23,17.17,21.07,11.29C18.17,2.46,29.5,1.5,46,1C62.5,1,73.83,2.46,70.93,11.29ZM70.13,5.38C69.2,7.96,58.75,10,46,10C33.35,10,22.97,7.99,21.89,5.44C25.14,1.95,34.26,1.36,46,1C57.77,1,66.91,1.74,70.13,5.38ZM32.5,44.93L56.03,56.57C52.87,56.85,49.5,57,46,57C27.77,57,13,52.87,13,49C13,46.65,19.76,45.6,28.4,44C28.43,44.01,29.82,44.46,32.5,44.93ZM49.02,1.02C33.7,1.57,23.25,2.7,25.96,12.26C30.78,20.68,42.23,43.84,32.88,46.03C23.53,48.22,18,49.31,18,51.5C18,52.84,18,56.67,18,59.41C18,60.19,18.18,60.93,18.51,61.6C17.44,61.2,16.44,60.77,15.49,60.33C13.91,59.58,13,57.93,13,56.17C13,53.67,13,50.22,13,49C13,47,18.5,46,28.4,44C38.3,42,23,17.17,21.07,11.29C18.17,2.46,29.5,1.5,46,1C47.03,1,48.04,1,49.02,1.02Z"/></svg>