<svg xmlns="http://www.w3.org/2000/svg" viewBox="0 0 90 90"><path d="M14,81L26,81L26,1L14,1C9.58,1,6,4.58,6,9L6,73C6,77.42,9.58,81,14,81Z" fill="currentColor"/><path d="M66,81L66,1L46,1L46,81Z" fill="currentColor"/><path d="M78,81L66,81L66,1L78,1C82.42,1,86,4.58,86,9L86,73C86,77.42,82.42,81,78,81Z" fill="currentColor"/><path d="M26,81L26,1L46,1L46,81Z" fill="currentColor"/><path d="M14,81C9.58,81,6,77.42,6,73L6,13C6,8.58,9.58,5,14,5L78,5C82.42,5,86,8.58,86,13L86,73C86,77.42,82.42,81,78,81Z" fill="currentColor"/><path d="M6,73L6,62L26,62L26,43L6,43L6,24L26,24L26,5L46,5L46,24L66,24L66,5L78,5C82.42,5,86,8.58,86,13L86,24L66,24L66,43L86,43L86,62L66,62L66,81L46,81L46,62L26,62L26,81L14,81C9.58,81,6,77.42,6,73Z" fill="currentColor"/><path d="M46,24L26,24L26,43L46,43Z" fill="currentColor"/><path d="M46,62L66,62L66,43L46,43Z" fill="currentColor"/><path d="M46,81L46,62L26,62L26,81Z" fill="currentColor"/><path d="M6,43L6,62L26,62L26,43Z" fill="currentColor"/><path d="M26,43L26,24L6,24L6,13C6,8.58,9.58,5,14,5L26,5L26,24L46,24L46,5L66,5L66,24L86,24L86,43L66,43L66,62L86,62L86,73C86,77.42,82.42,81,78,81L66,81L66,62L46,62L46,43Z" fill="currentColor"/><path d="M66,43L66,24L46,24L46,43Z" fill="currentColor"/><path d="M14,81L26,81L26,78.89L16.17,78.38C12.09,78.16,8.83,74.91,8.6,70.83L8.11,62L6,62L6,73C6,77.14,9.15,80.55,13.18,80.96C13.45,80.99,13.72,81,14,81Z" fill="currentColor"/><path d="M6,24L7.06,43L6,43Z" fill="currentColor"/><path d="M46,81L66,81L46,79.95Z" fill="currentColor"/><path d="M46,5L26,5L46,6.05Z" fill="currentColor"/><path d="M66,5L78,5C82.42,5,86,8.58,86,13L86,24L83.89,24L83.4,15.17C83.17,11.09,79.91,7.84,75.83,7.62L66,7.11Z" fill="currentColor"/><path d="M86,43L86,62L84.94,43Z" fill="currentColor"/><path d="M46,81L26,81L26,78.89L46,79.95Z" fill="currentColor"/><path d="M6,62L6,43L7.06,43L8.11,62Z" fill="currentColor"/><path d="M66,5L66,7.11L46,6.05L46,5Z" fill="currentColor"/><path d="M86,24L86,43L84.94,43L83.89,24Z" fill="currentColor"/><path d="M46,77L26,77L26,72.33L26.26,72.27C32.73,70.76,39.36,70,46,70Z" fill="currentColor"/><path d="M66,72.33L66,77L46,77L46,70C52.64,70,59.27,70.76,65.74,72.27Z" fill="currentColor"/><path d="M38.5,83.5L38.5,81L26,81L26,73L38.5,73L53.5,73L66,73L66,81L53.5,81L53.5,83.5C53.5,87.64,49.75,91,45.61,91C41.47,91,38.5,87.64,38.5,83.5Z" fill="currentColor"/><path d="M48.5,83.5C48.5,84.88,47.38,86,46,86C44.62,86,43.5,84.88,43.5,83.5C43.5,82.12,44.62,81,46,81C47.38,81,48.5,82.12,48.5,83.5Z" fill="currentColor"/><path d="M46,1L46,13.74C46,16.73,47.34,19.57,49.65,21.47L62.35,31.89C64.66,33.79,66,36.63,66,39.62L66,57.23" fill="currentColor"/><path d="M46,1L46,13.74C46,16.73,47.34,19.57,49.65,21.47L62.35,31.89C64.66,33.79,66,36.63,66,39.62L66,57.23" fill="none" stroke="currentColor" stroke-width="10"/><path d="M53.46,18.12L52.83,17.61C51.67,16.66,51,15.24,51,13.74L51,1L41,1L41,13.74C41,18.23,43.01,22.48,46.48,25.33L48.33,26.85C50.86,24.48,52.63,21.44,53.46,18.12Z" fill="currentColor"/><path d="M31,62.23L21,62.23L21,57.23L31,57.23Z" fill="currentColor"/><path d="M51,13.74L41,13.74L41,1L51,1Z" fill="currentColor"/><path d="M32.83,35.76L26.48,28.03L39.17,17.61L45.52,25.33Z" fill="currentColor"/><path d="M31,57.23L21,57.23L21,39.62L31,39.62Z" fill="currentColor"/><path d="M31,39.62L21,39.62C21,35.13,23.01,30.88,26.48,28.03L32.83,35.76C31.67,36.71,31,38.13,31,39.62Z" fill="currentColor"/><path d="M45.52,25.33L39.17,17.61C40.33,16.66,41,15.24,41,13.74L51,13.74C51,18.23,48.99,22.48,45.52,25.33Z" fill="currentColor"/><path d="M38.27,52.14C40.13,52.14,40.51,53.07,39.32,54.54L28.16,68.35C26.6,70.36,25.4,70.36,23.84,68.35L12.68,54.54C11.49,53.07,11.87,52.14,13.73,52.14Z" fill="currentColor"/><path d="M78.27,52.14C80.13,52.14,80.51,53.07,79.32,54.54L68.16,68.35C66.6,70.36,65.4,70.36,63.84,68.35L52.68,54.54C51.49,53.07,51.87,52.14,53.73,52.14Z" fill="currentColor"/><path d="M41,5L41,1L51,1L51,5Z" fill="currentColor"/><path d="M51,5L51,6.31L41,5.8L41,5Z" fill="currentColor"/></svg>