<svg xmlns="http://www.w3.org/2000/svg" viewBox="0 0 90 90"><path d="M66.58,36.12C67.8,36.58,68.61,37.75,68.61,39.05L68.61,72.23L23.28,72.23L23.28,39.05C23.28,37.75,24.09,36.58,25.32,36.12C38.62,31.15,53.27,31.15,66.58,36.12Z" fill="currentColor"/><path d="M30.64,48.67L63.33,48.67C65.07,48.67,66.62,49.77,67.19,51.42L68.87,56.3C70.09,59.83,67.47,63.51,63.73,63.51L30.25,63.51C26.51,63.51,23.89,59.83,25.1,56.3L26.79,51.42C27.35,49.77,28.9,48.67,30.64,48.67Z" fill="currentColor"/><path d="M22.34,26.08L32.2,29.2L36.61,31.29C38.43,32.15,40.42,32.6,42.43,32.6L46.84,32.6L51.25,32.6C53.26,32.6,55.25,32.15,57.07,31.29L61.48,29.2L71.34,26.08C76.99,24.29,80.84,19.04,80.84,13.11L80.84,6.69C80.84,2.94,77.79,-0.11,74.04,-0.11L19.64,-0.11C15.88,-0.11,12.84,2.94,12.84,6.69L12.84,13.11C12.84,19.04,16.68,24.29,22.34,26.08Z" fill="currentColor"/><path d="M12.84,6.69L12.84,12.03L80.84,12.03L80.84,6.7C80.84,6.43,80.82,6.17,80.79,5.91L12.88,5.91C12.85,6.17,12.84,6.43,12.84,6.69Z" fill="currentColor" opacity="0.5"/><path d="M79.87,18.15L13.81,18.15C14.79,20.61,16.48,22.75,18.66,24.27L75.01,24.27C77.2,22.75,78.89,20.61,79.87,18.15Z" fill="currentColor" opacity="0.5"/><path d="M21.97,25.96L32.2,29.2L36.61,31.29C38.43,32.15,40.42,32.6,42.43,32.6L46.84,32.6L51.25,32.6C53.26,32.6,55.25,32.15,57.07,31.29L61.48,29.2L71.7,25.96C77.14,24.25,80.84,19.2,80.84,13.49L80.68,14.13C79.51,18.8,75.97,22.5,71.37,23.87L46.84,31.17L22.32,23.9C17.65,22.51,14.07,18.73,12.95,13.98L12.84,13.49C12.84,19.2,16.54,24.25,21.97,25.96Z" fill="currentColor"/><path d="M38.83,17.27L28.14,25.73C28.34,28.33,30.34,30.43,32.92,30.77L45.07,32.36C46.25,32.52,47.43,32.52,48.61,32.36L60.76,30.77C63.34,30.43,65.34,28.33,65.54,25.73L54.85,17.27C51.6,14.69,49.7,10.76,49.7,6.61L49.7,-0.11L43.98,-0.11L43.98,6.61C43.98,10.76,42.08,14.69,38.83,17.27Z" fill="currentColor"/><path d="M38.98,19L28.14,27.84L29.54,29.34C31.51,31.46,34.1,32.89,36.94,33.43L44.29,34.83C45.98,35.15,47.7,35.15,49.39,34.83L56.74,33.43C59.58,32.89,62.17,31.46,64.14,29.34L65.54,27.84L54.7,19C51.54,16.42,49.7,12.55,49.7,8.46L49.7,-0.1L43.98,-0.1L43.98,8.46C43.98,12.55,42.14,16.42,38.98,19Z" fill="currentColor"/><path d="M39.78,22.51C45.75,17.74,46.84,13.57,46.84,13.57C46.84,13.57,47.92,17.75,53.87,22.5C55.67,23.94,56.87,26.05,56.87,28.36L56.87,46.47L36.78,46.47L36.78,28.36C36.78,26.05,37.98,23.94,39.78,22.51Z" fill="currentColor" opacity="0.5"/><path d="M39.07,25.75C44.13,22.23,49.66,22.09,54.71,25.77C56.18,26.84,56.87,28.64,56.87,30.47L56.87,45.11L36.78,45.11L36.78,30.58C36.78,28.69,37.53,26.83,39.07,25.75Z" fill="currentColor"/><path d="M40.56,32.42C44.31,29.71,49.37,29.71,53.12,32.42C55.91,34.43,57.57,37.67,57.57,41.11L57.57,56.71L36.11,56.71L36.11,41.11C36.11,37.67,37.77,34.43,40.56,32.42Z" fill="currentColor" opacity="0.5"/><path d="M35.98,38.63L39.2,35.9C41.16,34.23,43.66,33.32,46.23,33.32L47.44,33.32C50.02,33.32,52.52,34.23,54.48,35.9L57.7,38.63C60.63,41.11,62.37,44.72,62.49,48.56L63.55,81.19L30.13,81.19L31.19,48.56C31.31,44.72,33.05,41.11,35.98,38.63Z" fill="currentColor"/><path d="M33.1,83.79L35.47,84.18L41.32,87.25C48.46,91,57.18,89.98,63.26,84.68C70.83,78.09,72.18,66.84,66.4,58.65L64.71,56.25L64.17,38.14C64.15,37.43,63.57,36.87,62.86,36.87C62.12,36.87,61.53,37.48,61.55,38.22L62.07,55.78C62.18,59.57,59.14,62.71,55.34,62.71L45.21,62.71C42.3,62.71,39.45,63.55,37.02,65.14L31.91,68.49L30.12,51.91L23.28,72.23C23.28,77.97,27.44,82.86,33.1,83.79Z" fill="currentColor"/><path d="M33.1,83.79L35.47,84.18L41.32,87.25C48.46,91,57.18,89.98,63.26,84.68C70.83,78.09,72.18,66.84,66.4,58.65L64.71,56.25L66.26,58.94C70.92,67.06,68.92,77.37,61.57,83.16C55.72,87.78,47.69,88.52,41.09,85.05L35.47,82.09L32.88,81.82C27.81,81.31,23.8,77.3,23.28,72.23C23.28,77.97,27.44,82.86,33.1,83.79Z" fill="currentColor"/></svg>