<svg xmlns="http://www.w3.org/2000/svg" viewBox="0 0 90 90"><path d="M19.43,65.46L23.16,64.17C27.1,62.8,30.9,61.05,34.49,58.92L36.76,57.59C38.69,56.45,40.89,55.85,43.13,55.85L46,55.85L48.87,55.85C51.11,55.85,53.31,56.45,55.24,57.59L57.51,58.92C61.1,61.05,64.9,62.8,68.84,64.17L72.57,65.46C77.62,67.21,81,71.96,81,77.3L81,84.73C81,88.19,78.19,91,74.73,91L17.27,91C13.81,91,11,88.19,11,84.73L11,77.3C11,71.96,14.38,67.21,19.43,65.46Z" fill="currentColor"/><path d="M29.71,64.88C29.19,62.91,30.03,60.83,31.76,59.76L38.43,55.66C38.91,55.36,39.46,55.21,40.02,55.21L46,55.21L51.98,55.21C52.54,55.21,53.09,55.36,53.57,55.66L60.24,59.76C61.97,60.83,62.8,62.91,62.29,64.88C62.07,65.72,61.56,66.45,60.85,66.95L52.97,72.5C48.79,75.45,43.21,75.45,39.03,72.5L31.15,66.95C30.44,66.45,29.93,65.72,29.71,64.88Z" fill="currentColor" opacity="0.5"/><path d="M69.9,65.89C75.82,67.43,80.21,72.41,81,78.47L81,77.3C81,71.96,77.62,67.21,72.57,65.46L68.84,64.17C66.4,63.32,64.01,62.33,61.69,61.19C62.22,62,62.49,62.96,62.43,63.95Z" fill="currentColor"/><path d="M23.16,64.17L19.43,65.46C14.38,67.21,11,71.96,11,77.3L11,78.47C11.79,72.41,16.18,67.43,22.1,65.89L29.57,63.95C29.51,62.96,29.78,62,30.3,61.19C27.99,62.33,25.6,63.32,23.16,64.17Z" fill="currentColor"/><path d="M42.08,72.36L42.08,91L39.59,91L39.59,72.36Z" fill="currentColor"/><path d="M52.04,72.36L52.04,91L49.55,91L49.55,72.36Z" fill="currentColor"/><path d="M32.85,66.43C30.09,61.98,31.48,56.13,35.94,53.39L37.53,52.42C37.89,52.2,38.3,52.09,38.71,52.09L46,52.09L53.29,52.09C53.7,52.09,54.11,52.2,54.47,52.42L56.06,53.39C60.52,56.13,61.91,61.98,59.15,66.43C58.86,66.89,58.51,67.31,58.1,67.68L52.64,72.52C48.85,75.88,43.15,75.88,39.36,72.52L33.9,67.68C33.49,67.31,33.14,66.89,32.85,66.43Z" fill="currentColor"/><path d="M36.28,53.07L37.59,52.35C37.91,52.18,38.26,52.09,38.62,52.09L46,52.09L53.37,52.09C53.73,52.09,54.09,52.18,54.41,52.35L55.72,53.07C60.81,55.85,62.23,62.51,58.71,67.13C61.14,62.23,59.26,56.29,54.46,53.68L53.92,53.39L38.07,53.39L37.7,53.61C32.95,56.3,31.04,62.16,33.28,67.13C29.76,62.51,31.18,55.85,36.28,53.07Z" fill="currentColor"/><path d="M29.64,45.03L62.36,45.03C63.3,45.03,64.18,44.58,64.74,43.82C68.52,38.63,64.81,31.35,58.39,31.35L33.61,31.35C27.19,31.35,23.49,38.63,27.26,43.82C27.82,44.58,28.7,45.03,29.64,45.03Z" fill="currentColor"/><path d="M38.31,64.78C41.64,67.52,46,70.9,46,70.9C46,70.9,50.46,67.54,53.8,64.75C55.14,63.62,55.86,61.95,55.86,60.2L55.86,46.82L36.14,46.82L36.14,60.1C36.14,61.91,36.91,63.63,38.31,64.78Z" fill="currentColor"/><path d="M39.87,60.8C43.46,63.65,48.54,63.65,52.13,60.8C54.49,58.93,55.86,56.09,55.86,53.07L55.86,36.58L36.14,36.58L36.14,53.07C36.14,56.09,37.51,58.93,39.87,60.8Z" fill="currentColor"/><path d="M33.91,53.64L38.02,57.06C39.82,58.57,42.09,59.39,44.44,59.39L46,59.39L47.56,59.39C49.91,59.39,52.18,58.57,53.98,57.06L58.09,53.64C60.18,51.89,61.47,49.36,61.66,46.64L63.86,15.27L28.14,15.27L30.34,46.64C30.53,49.36,31.82,51.89,33.91,53.64Z" fill="currentColor"/><path d="M65.33,35.77C64.66,36.45,63.78,36.85,62.85,37.07L62.09,37.25L61.58,29.66C61.43,27.44,59.84,25.57,57.63,25.27C50.66,24.33,41.41,24.37,34.42,25.29C32.19,25.58,30.57,27.46,30.42,29.71L29.91,37.25L29.53,37.16C28.36,36.89,27.27,36.31,26.54,35.36C18.53,24.93,20.03,1.11,46.28,1C73.37,0.89,74.43,26.52,65.33,35.77Z" fill="currentColor"/><path d="M64.26,36.74C71.9,27.75,73.21,3.73,46.28,3.73C19.36,3.73,20.69,28.01,27.74,36.74C18.44,27.24,18.79,1.11,46.28,1C74.38,0.88,74.47,27.38,64.26,36.74Z" fill="currentColor"/></svg>