<svg xmlns="http://www.w3.org/2000/svg" viewBox="0 0 90 90"><path d="M18.43,64.46L22.16,63.17C26.1,61.8,29.9,60.05,33.49,57.92L35.76,56.59C37.69,55.45,39.89,54.85,42.13,54.85L45,54.85L47.87,54.85C50.11,54.85,52.31,55.45,54.24,56.59L56.51,57.92C60.1,60.05,63.9,61.8,67.84,63.17L71.57,64.46C76.62,66.21,80,70.96,80,76.3L80,83.73C80,87.19,77.19,90,73.73,90L16.27,90C12.81,90,10,87.19,10,83.73L10,76.3C10,70.96,13.38,66.21,18.43,64.46Z" fill="currentColor"/><path d="M28.71,63.88C28.19,61.91,29.03,59.83,30.76,58.76L37.43,54.66C37.91,54.36,38.46,54.21,39.02,54.21L45,54.21L50.98,54.21C51.54,54.21,52.09,54.36,52.57,54.66L59.24,58.76C60.97,59.83,61.8,61.91,61.29,63.88C61.07,64.72,60.56,65.45,59.85,65.95L51.97,71.5C47.79,74.45,42.21,74.45,38.03,71.5L30.15,65.95C29.44,65.45,28.93,64.72,28.71,63.88Z" fill="currentColor" opacity="0.5"/><path d="M68.9,64.89C74.82,66.43,79.21,71.41,80,77.47L80,76.3C80,70.96,76.62,66.21,71.57,64.46L67.84,63.17C65.4,62.32,63.01,61.33,60.69,60.19C61.22,61,61.49,61.96,61.43,62.95Z" fill="currentColor"/><path d="M22.16,63.17L18.43,64.46C13.38,66.21,10,70.96,10,76.3L10,77.47C10.79,71.41,15.18,66.43,21.1,64.89L28.57,62.95C28.51,61.96,28.78,61,29.3,60.19C26.99,61.33,24.6,62.32,22.16,63.17Z" fill="currentColor"/><path d="M41.08,71.36L41.08,90L38.59,90L38.59,71.36Z" fill="currentColor"/><path d="M51.04,71.36L51.04,90L48.55,90L48.55,71.36Z" fill="currentColor"/><path d="M31.85,65.43C29.09,60.98,30.48,55.13,34.94,52.39L36.53,51.42C36.89,51.2,37.3,51.09,37.71,51.09L45,51.09L52.29,51.09C52.7,51.09,53.11,51.2,53.47,51.42L55.06,52.39C59.52,55.13,60.91,60.98,58.15,65.43C57.86,65.89,57.51,66.31,57.1,66.68L51.64,71.52C47.85,74.88,42.15,74.88,38.36,71.52L32.9,66.68C32.49,66.31,32.14,65.89,31.85,65.43Z" fill="currentColor"/><path d="M35.28,52.07L36.59,51.35C36.91,51.18,37.26,51.09,37.62,51.09L45,51.09L52.37,51.09C52.73,51.09,53.09,51.18,53.41,51.35L54.72,52.07C59.81,54.85,61.23,61.51,57.71,66.13C60.14,61.23,58.26,55.29,53.46,52.68L52.92,52.39L37.07,52.39L36.7,52.61C31.95,55.3,30.04,61.16,32.28,66.13C28.76,61.51,30.18,54.85,35.28,52.07Z" fill="currentColor"/><path d="M28.64,44.03L61.36,44.03C62.3,44.03,63.18,43.58,63.74,42.82C67.52,37.63,63.81,30.35,57.39,30.35L32.61,30.35C26.19,30.35,22.49,37.63,26.26,42.82C26.82,43.58,27.7,44.03,28.64,44.03Z" fill="currentColor"/><path d="M37.31,63.78C40.64,66.52,45,69.9,45,69.9C45,69.9,49.46,66.54,52.8,63.75C54.14,62.62,54.86,60.95,54.86,59.2L54.86,45.82L35.14,45.82L35.14,59.1C35.14,60.91,35.91,62.63,37.31,63.78Z" fill="currentColor"/><path d="M38.87,59.8C42.46,62.65,47.54,62.65,51.13,59.8C53.49,57.93,54.86,55.09,54.86,52.07L54.86,35.58L35.14,35.58L35.14,52.07C35.14,55.09,36.51,57.93,38.87,59.8Z" fill="currentColor"/><path d="M32.91,52.64L37.02,56.06C38.82,57.57,41.09,58.39,43.44,58.39L45,58.39L46.56,58.39C48.91,58.39,51.18,57.57,52.98,56.06L57.09,52.64C59.18,50.89,60.47,48.36,60.66,45.64L62.86,14.27L27.14,14.27L29.34,45.64C29.53,48.36,30.82,50.89,32.91,52.64Z" fill="currentColor"/><path d="M64.33,34.77C63.66,35.45,62.78,35.85,61.85,36.07L61.09,36.25L60.58,28.66C60.43,26.44,58.84,24.57,56.63,24.27C49.66,23.33,40.41,23.37,33.42,24.29C31.19,24.58,29.57,26.46,29.42,28.71L28.91,36.25L28.53,36.16C27.36,35.89,26.27,35.31,25.54,34.36C17.53,23.93,19.03,0.11,45.28,0C72.37,-0.11,73.43,25.52,64.33,34.77Z" fill="currentColor"/><path d="M63.26,35.74C70.9,26.75,72.21,2.73,45.28,2.73C18.36,2.73,19.69,27.01,26.74,35.74C17.44,26.24,17.79,0.11,45.28,0C73.38,-0.12,73.47,26.38,63.26,35.74Z" fill="currentColor"/></svg>