<svg xmlns="http://www.w3.org/2000/svg" viewBox="0 0 90 90"><path d="M65.58,53.78C66.8,53.32,67.61,52.15,67.61,50.84L67.61,17.67L22.28,17.67L22.28,50.84C22.28,52.15,23.09,53.32,24.32,53.78C37.62,58.75,52.27,58.75,65.58,53.78Z" fill="currentColor"/><path d="M29.64,41.23L62.33,41.23C64.07,41.23,65.62,40.12,66.19,38.48L67.87,33.59C69.09,30.06,66.47,26.38,62.73,26.38L29.25,26.38C25.51,26.38,22.89,30.06,24.1,33.59L25.79,38.48C26.35,40.12,27.9,41.23,29.64,41.23Z" fill="currentColor"/><path d="M21.34,63.81L31.2,60.7L35.61,58.61C37.43,57.75,39.42,57.3,41.43,57.3L45.84,57.3L50.25,57.3C52.26,57.3,54.25,57.75,56.07,58.61L60.48,60.7L70.34,63.81C75.99,65.6,79.84,70.85,79.84,76.78L79.84,83.2C79.84,86.96,76.79,90,73.04,90L18.64,90C14.88,90,11.84,86.96,11.84,83.2L11.84,76.78C11.84,70.85,15.68,65.6,21.34,63.81Z" fill="currentColor"/><path d="M11.84,83.2L11.84,77.86L79.84,77.86L79.84,83.2C79.84,83.46,79.82,83.73,79.79,83.98L11.88,83.98C11.85,83.73,11.84,83.46,11.84,83.2Z" fill="currentColor" opacity="0.5"/><path d="M78.87,71.74L12.81,71.74C13.79,69.28,15.48,67.15,17.66,65.62L74.01,65.62C76.2,67.15,77.89,69.28,78.87,71.74Z" fill="currentColor" opacity="0.5"/><path d="M20.97,63.93L31.2,60.7L35.61,58.61C37.43,57.75,39.42,57.3,41.43,57.3L45.84,57.3L50.25,57.3C52.26,57.3,54.25,57.75,56.07,58.61L60.48,60.7L70.7,63.93C76.14,65.65,79.84,70.7,79.84,76.4L79.68,75.76C78.51,71.1,74.97,67.4,70.37,66.03L45.84,58.72L21.32,66C16.65,67.38,13.07,71.17,11.95,75.91L11.84,76.4C11.84,70.7,15.54,65.65,20.97,63.93Z" fill="currentColor"/><path d="M37.83,72.62L27.14,64.16C27.34,61.56,29.34,59.46,31.92,59.12L44.07,57.53C45.25,57.38,46.43,57.38,47.61,57.53L59.76,59.12C62.34,59.46,64.34,61.56,64.54,64.16L53.85,72.62C50.6,75.2,48.7,79.13,48.7,83.29L48.7,90L42.98,90L42.98,83.29C42.98,79.13,41.08,75.2,37.83,72.62Z" fill="currentColor"/><path d="M37.98,70.9L27.14,62.06L28.54,60.55C30.51,58.44,33.1,57.01,35.94,56.46L43.29,55.06C44.98,54.74,46.7,54.74,48.39,55.06L55.74,56.46C58.58,57.01,61.17,58.44,63.14,60.55L64.54,62.06L53.7,70.9C50.54,73.48,48.7,77.35,48.7,81.44L48.7,90L42.98,90L42.98,81.44C42.98,77.35,41.14,73.48,37.98,70.9Z" fill="currentColor"/><path d="M38.78,67.39C44.75,72.16,45.84,76.33,45.84,76.33C45.84,76.33,46.92,72.15,52.87,67.39C54.67,65.95,55.87,63.84,55.87,61.54L55.87,43.42L35.78,43.42L35.78,61.54C35.78,63.84,36.98,65.95,38.78,67.39Z" fill="currentColor" opacity="0.5"/><path d="M38.07,64.14C43.13,67.66,48.66,67.81,53.71,64.13C55.18,63.05,55.87,61.25,55.87,59.43L55.87,44.78L35.78,44.78L35.78,59.32C35.78,61.21,36.53,63.06,38.07,64.14Z" fill="currentColor"/><path d="M39.56,57.48C43.31,60.19,48.37,60.19,52.12,57.48C54.91,55.46,56.57,52.23,56.57,48.79L56.57,33.18L35.11,33.18L35.11,48.79C35.11,52.23,36.77,55.46,39.56,57.48Z" fill="currentColor" opacity="0.5"/><path d="M34.98,51.27L38.2,54C40.16,55.66,42.66,56.58,45.23,56.58L46.44,56.58C49.02,56.58,51.52,55.66,53.48,54L56.7,51.27C59.63,48.78,61.37,45.18,61.49,41.34L62.55,8.7L29.13,8.7L30.19,41.34C30.31,45.18,32.05,48.78,34.98,51.27Z" fill="currentColor"/><path d="M32.1,6.11L34.47,5.72L40.32,2.65C47.46,-1.11,56.18,-0.08,62.26,5.22C69.83,11.81,71.18,23.05,65.4,31.25L63.71,33.65L63.17,51.75C63.15,52.46,62.57,53.02,61.86,53.02C61.12,53.02,60.53,52.41,60.55,51.67L61.07,34.12C61.18,30.32,58.14,27.19,54.34,27.19L44.21,27.19C41.3,27.19,38.45,26.34,36.02,24.75L30.91,21.41L29.12,37.98L22.28,17.67C22.28,11.93,26.44,7.04,32.1,6.11Z" fill="currentColor"/><path d="M32.1,6.11L34.47,5.72L40.32,2.65C47.46,-1.11,56.18,-0.08,62.26,5.22C69.83,11.81,71.18,23.05,65.4,31.25L63.71,33.65L65.26,30.95C69.92,22.83,67.92,12.53,60.57,6.73C54.72,2.11,46.69,1.38,40.09,4.85L34.47,7.81L31.88,8.07C26.81,8.59,22.8,12.6,22.28,17.67C22.28,11.93,26.44,7.04,32.1,6.11Z" fill="currentColor"/></svg>