<svg xmlns="http://www.w3.org/2000/svg" viewBox="0 0 90 90"><path d="M11.74,33.19L11.74,33.19C14.8,32.51,17.74,31.39,20.47,29.86L20.65,29.75L19.03,28.52L19.03,28.52C22.68,27.9,26.57,27.17,29.43,24.83C30.08,24.31,30.56,23.7,30.72,22.97L28.35,22.29L32.65,18.55L31,17.89L33.64,13.49L35.54,9.83L33.64,9.42C40.02,0.37,48.3,-0.11,55.04,0.01C68.23,0.25,84.89,5.49,82.52,27.14C82.21,29.95,82.14,32.81,82.7,35.58L82.7,35.58L80.8,35.68C80.8,35.68,81.02,40.27,81.17,42.36L77.82,41.74C80.72,46.78,80.78,51.55,80.35,57.28L77.55,56.5L77.55,56.5C77.55,60.36,76.74,64.19,75.17,67.72L75.03,68.03L71.23,64.3L71.19,64.4C69.99,67.56,68.11,70.43,65.69,72.79L65.69,72.79L64.71,67.54C60.62,76.02,50.54,74.05,46.72,66.83C39.03,74.28,32.64,71.97,28.62,65.03C22.59,69.86,14.45,67.54,12.63,60.77C6.29,60.77,4.83,56.17,4.9,49.24C4.96,43.02,6.76,38.36,13.22,35.05Z" fill="currentColor"/><path d="M74.84,5.72L74.44,13.09C74.35,14.73,73.71,16.29,72.63,17.52C68.32,22.41,68.67,29.86,73.35,34.38L77.94,41.69L68.31,34.38L70.2,48.64L64.93,44.01L63.08,55.95L52.87,56.48L54.43,38.49L34.63,56.48L38.85,35.82L20.01,51.93L23.89,35.82L9.32,45.97L5.18,45.65C5.89,41.19,8.07,37.69,13.22,35.05L11.74,33.19C14.8,32.51,17.74,31.39,20.47,29.86L20.65,29.75L19.03,28.52C22.68,27.9,26.57,27.17,29.43,24.83C29.69,24.63,29.92,24.4,30.11,24.17C33.2,22.92,35.41,20.05,35.74,16.62C36.09,13.06,37.47,9.69,39.73,6.91L44.34,1.23C48.01,0.04,51.71,-0.05,55.04,0.01C61.73,0.13,69.3,1.54,74.84,5.72Z" fill="currentColor"/><path d="M82.74,22.54C82.77,23.98,82.7,25.52,82.52,27.14C82.21,29.95,82.14,32.81,82.7,35.58L80.8,35.68C80.8,35.7,81.02,40.27,81.17,42.36L77.82,41.74C77.83,41.78,77.85,41.81,77.87,41.85L77.73,41.6C74.18,35.72,69.88,30.31,64.94,25.54C69.11,25.94,73.16,27.06,76.93,28.81C74.58,22.86,71.22,17.34,66.99,12.52C73.25,14.03,78.77,17.58,82.74,22.54Z" fill="currentColor"/><path d="M60.64,21.29L52.72,21.09C45.33,20.9,37.95,21.53,30.72,22.97L28.35,22.29L32.65,18.55L31,17.89L33.64,13.49L33.68,13.42C43.17,13.36,52.55,16.06,60.64,21.29Z" fill="currentColor"/><path d="M53.66,8.91C47.58,8.65,41.49,8.96,35.47,9.82L33.64,9.42C35.71,6.48,37.98,4.45,40.32,3.05C45.19,3.59,49.86,5.58,53.66,8.91Z" fill="currentColor"/><path d="M15.81,42.19C16.23,42.36,16.61,42.61,16.92,42.94L19.42,45.5C22.92,43.62,27.2,43.98,30.34,46.43L33.49,48.89C38.01,45.77,44.07,46.13,48.18,49.76L50.32,51.64C56.59,48.72,63.91,52.67,64.9,59.51L66.67,71.77C66.35,72.12,66.03,72.46,65.69,72.79L64.71,67.54C60.62,76.02,50.54,74.05,46.72,66.83C39.03,74.28,32.64,71.97,28.62,65.03C22.59,69.86,14.45,67.54,12.63,60.77C6.29,60.77,4.83,56.17,4.9,49.24C4.91,48.46,4.94,47.71,5.01,46.98C6.59,42.63,11.48,40.42,15.81,42.19Z" fill="currentColor"/><path d="M71.23,64.3L71.21,64.35L72.48,58.42L74.42,67.43Z" fill="currentColor"/><path d="M77.55,56.5C77.55,56.52,77.55,56.55,77.55,56.58L77.24,49.05L80.31,57.27Z" fill="currentColor"/><path d="M11.86,42.77C9.66,42.5,7.5,43.64,6.44,45.59C2.72,52.47,2.8,60.89,6.73,67.66L8.47,70.65C8.7,71.04,9.23,71.12,9.57,70.82L9.75,70.66C9.92,70.51,10.03,70.3,10.05,70.08L10.77,63.6C11.12,60.42,12.09,57.33,13.62,54.52L15.99,50.18C16.38,49.45,16.59,48.64,16.6,47.81C16.61,45.27,14.72,43.12,12.2,42.81Z" fill="currentColor"/><path d="M16.6,47.81C16.59,48.64,16.38,49.45,15.99,50.18L13.62,54.52C12.09,57.33,11.12,60.42,10.77,63.6L10.05,70.08C10.03,70.3,9.92,70.51,9.75,70.66L9.57,70.82C9.46,70.92,9.34,70.97,9.22,70.99L9.37,63.12C9.45,58.93,10.65,54.83,12.85,51.27C14.75,48.17,13.4,44.21,10.22,42.83C10.75,42.72,11.3,42.7,11.86,42.77L12.2,42.81C14.72,43.12,16.61,45.27,16.6,47.81Z" fill="currentColor"/><path d="M30.21,52.49C30.22,49.3,27.82,46.61,24.64,46.28C21.98,46,19.44,47.44,18.33,49.88L17.67,51.31C13.38,60.68,13.62,71.5,18.31,80.67L20.36,84.66C20.69,85.32,21.58,85.45,22.09,84.91L22.11,84.89C22.28,84.71,22.38,84.49,22.4,84.24L23.27,75.04C23.68,70.67,24.83,66.41,26.67,62.43L29.56,56.17C29.98,55.25,30.21,54.25,30.21,53.24Z" fill="currentColor"/><path d="M30.21,52.49L30.21,53.24C30.21,54.25,29.98,55.25,29.56,56.17L26.67,62.43C24.83,66.41,23.68,70.67,23.27,75.04L22.4,84.24C22.38,84.49,22.28,84.71,22.11,84.89L22.09,84.91C21.9,85.11,21.66,85.22,21.42,85.24L21.6,74C21.68,68.52,23.05,63.14,25.58,58.28C27.84,53.94,26.11,48.79,22.1,46.53C22.91,46.28,23.76,46.18,24.64,46.28C27.82,46.61,30.22,49.3,30.21,52.49Z" fill="currentColor"/><path d="M46.5,54.87C46.3,51.36,43.49,48.56,39.98,48.38C37.08,48.23,34.4,49.91,33.27,52.58L32.91,53.43C28.74,63.3,29.64,74.58,35.33,83.65L37.82,87.62C38.18,88.2,39.01,88.28,39.48,87.77L39.6,87.62C39.79,87.42,39.9,87.15,39.91,86.87L40.29,77.61C40.47,73.14,41.46,68.75,43.22,64.64L45.95,58.24C46.38,57.23,46.57,56.14,46.51,55.05Z" fill="currentColor"/><path d="M46.5,54.87L46.51,55.05C46.57,56.14,46.38,57.23,45.95,58.24L43.22,64.64C41.46,68.75,40.47,73.14,40.29,77.61L39.91,86.87C39.9,87.15,39.79,87.42,39.6,87.62L39.48,87.76C39.32,87.94,39.12,88.04,38.91,88.08L38.42,76.85C38.17,71.14,39.36,65.46,41.86,60.33C44.06,55.81,41.91,50.56,37.55,48.69C38.32,48.44,39.14,48.33,39.98,48.38C43.49,48.56,46.3,51.36,46.5,54.87Z" fill="currentColor"/><path d="M54.42,52.66C52.04,52.66,49.89,54.08,48.96,56.28C45.55,64.36,46.89,73.67,52.45,80.47L54.97,83.54C55.25,83.9,55.78,83.92,56.1,83.59L56.35,83.32C56.55,83.11,56.66,82.84,56.65,82.55L56.56,75.52C56.51,71.98,57.2,68.47,58.59,65.21L60.72,60.24C61.1,59.35,61.23,58.38,61.11,57.42C60.76,54.7,58.45,52.66,55.71,52.66Z" fill="currentColor"/><path d="M61.11,57.42C61.23,58.38,61.1,59.35,60.72,60.24L58.59,65.21C57.2,68.47,56.51,71.98,56.56,75.52L56.65,82.55C56.66,82.84,56.55,83.11,56.35,83.32L56.1,83.59C56.02,83.67,55.92,83.74,55.81,83.77L54.87,75.35C54.35,70.65,55.18,65.9,57.28,61.66C59.11,57.96,56.86,53.6,52.91,52.85C53.39,52.73,53.9,52.66,54.42,52.66L55.71,52.66C58.45,52.66,60.76,54.7,61.11,57.42Z" fill="currentColor"/><path d="M55.62,42.26L53.37,50.83L54.07,41.38C54.5,35.62,57.28,30.28,61.76,26.63C59.11,31.58,57.05,36.83,55.62,42.26Z" fill="currentColor"/><path d="M37.37,44.18L36.59,46.96L36.63,44.15C36.77,35.15,42.96,27.38,51.71,25.24C44.7,29.51,39.58,36.28,37.37,44.18Z" fill="currentColor"/><path d="M21.85,44.43C21.67,35.52,27.76,27.71,36.45,25.7L39.24,25.05L38.62,25.3C30.3,28.65,24.08,35.75,21.85,44.43Z" fill="currentColor"/><path d="M7.52,39.68C12.42,33.71,19.04,29.39,26.48,27.29L30.99,26.02C22.79,29.83,14.88,34.44,7.52,39.68Z" fill="currentColor"/></svg>