<svg xmlns="http://www.w3.org/2000/svg" viewBox="0 0 90 90" fill="currentColor"><path d="M33.03,86.58C37.16,88.64,42.05,88.44,46,86.05L46,1C38.28,1,31.29,5.58,28.21,12.66L28.01,13.13L21.92,17.84L17.31,12.15L16.09,21.35L10.8,16.59L12.27,27.27L6.23,22.55L8.85,34.74L3.03,30.56L5.98,42.19L1,40.14L2.28,49.92C3.12,56.33,5.54,62.44,9.32,67.69C6.18,73.12,4.29,79.18,3.77,85.43L3.31,91L6.8,91C14.19,91,21.34,88.36,26.97,83.56ZM33.03,86.58C37.16,88.64,42.06,88.44,46,86.05L46,57.62L39.59,57.62C34.83,63.16,29.32,68.01,23.23,72.04L20.24,74.01L25.67,77.73C19.72,84.03,12.15,88.57,3.79,90.87L3.31,91L6.8,91C14.19,91,21.34,88.36,26.97,83.56ZM7.17,82.52C7.54,77.68,9.15,73.01,11.85,68.97C14.08,72.74,17.37,75.77,21.31,77.69L21.66,77.86C19.8,79.13,17.61,79.8,15.37,79.8L12.96,79.8L14.61,81.85L8.87,82.94L10.7,84.7L6.79,87.54ZM28.94,59.22C27.8,59.71,26.99,60.75,26.8,61.98L26.42,64.48L26.2,64.33C23.77,62.67,22.53,59.74,23.03,56.84L20.08,60.75C17.21,56.5,19.24,50.69,24.13,49.16L38.54,44.63C39.56,50.32,36.52,55.96,31.2,58.25ZM30.26,54.15C29.9,54.31,29.48,54.22,29.13,54.04C27.51,53.2,25.76,54.77,26.25,55.98C27.29,58.55,32.44,54.89,33.35,52.78C33.35,52.78,31.87,53.42,30.26,54.15ZM35.66,44.61C27.36,40.69,21.93,46.91,21.93,53.3C37.77,49.83,37.26,47.84,38.5,44.61C38.5,41.27,36.19,41.14,35.66,44.61ZM34.36,48.78C32.79,45.3,27,45.95,27,50.73C27,50.85,27,50.96,27.01,51.07C30.63,50.93,32.47,50.08,34.36,48.78ZM31.58,50.39C31.75,50.31,31.93,50.23,32.11,50.14C32,47.4,30.87,45.23,30.87,45.23C30.87,45.23,29.63,47.62,29.63,50.56C29.63,50.76,29.63,50.96,29.64,51.15C30.26,50.95,30.91,50.71,31.58,50.39ZM2.28,49.92C3.12,56.33,5.54,62.44,9.32,67.69L14.83,60.76L8.77,63.69C5.99,59.94,4.08,55.62,3.17,51.05L1,40.14L5.98,44.12C6.46,42.86,6.55,41.48,6.23,40.17L4.56,33.25L7.51,34.72L7.34,33.15L7.51,33.25L6.23,22.55L12.27,27.83L12.22,27.24L12.27,27.27L12.16,26.53L11.54,18.59L16.79,21.99L17.31,12.15L21.4,19.1L20.21,22.55L29.03,17.09L29.42,15.23C31.09,7.42,38.02,1.86,46,1.91L46,1L42.84,1C35.43,1,28.94,5.97,27.01,13.13L21.92,17.84L17.31,12.15L16.09,21.35L10.8,16.59L12.16,26.53L12.22,27.24L6.23,22.55L7.34,33.15L3.03,30.56L5.98,42.19L1,40.14ZM46,7.75C43.46,7.75,41.14,9.16,39.97,11.41L32.41,25.89L32.68,22.98C33.2,17.24,33.22,11.46,32.74,5.71L32.5,2.81L35.65,4.06L36.41,1L38.93,2.81L41.19,1L43.39,2.81L46,1ZM46,32.62C43.66,27.84,35.44,29.54,29.52,32.62L34.09,21.97L35.63,8.88C36.68,7.75,38.15,7.12,39.69,7.12L46,7.12ZM46,16.08L46,14.07L44.42,14.07C42.37,14.07,40.6,15.51,40.18,17.52C39.94,18.71,40.54,19.91,41.64,20.41L41.76,20.47C43.43,21.23,45.36,20.19,45.65,18.38ZM44.47,12.72L46,11.66L46,8.86L45.06,8.86C42.4,8.86,39.76,9.2,37.19,9.87C36.29,11.28,36.18,13.05,36.9,14.57L37.3,15.41L39.68,12.22L41.18,12.91L42.86,11.61ZM44.47,23.22L42.86,25.33L41.18,23.03C40.19,24.13,39.5,25.47,39.17,26.91L39.16,26.93L38.16,23.19L36.98,19.52C35.22,21.38,34.05,23.72,33.63,26.25L33.1,29.39C37.12,28.3,41.27,27.75,45.43,27.75L46,27.75L46,25.33ZM41.55,10.04L42.43,10.29L42.61,10.15C43.59,9.37,44.97,9.32,46,10.04L46,8.86L45.06,8.86C42.4,8.86,39.76,9.2,37.19,9.87C36.99,10.19,36.83,10.52,36.7,10.87L36.94,10.85C38,10.77,39.03,11.22,39.69,12.06C39.25,10.88,40.34,9.7,41.55,10.04ZM45.43,27.75L46,27.75L46,25.33L45.86,25.14L45.69,25.38C44.99,26.39,43.49,26.28,42.94,25.22L42.86,25.33L42.8,25.24L42.51,25.65C41.79,26.69,40.32,26.79,39.46,25.93C39.34,26.25,39.24,26.57,39.17,26.91L39.16,26.93L38.89,25.9L36.25,27.22C35.26,27.72,34.05,27.25,33.66,26.21L33.63,26.25C33.63,26.25,33.63,26.25,33.63,26.25L33.1,29.39C37.12,28.3,41.27,27.75,45.43,27.75ZM46.13,37.11L45.87,37.11C44.71,37.11,43.56,37.24,42.43,37.5L39.88,38.09C38.93,38.3,38,37.67,37.85,36.71C37.74,35.96,38.14,35.22,38.84,34.92L40.69,34.12C41.24,32.15,43.03,30.79,45.08,30.79L46.13,30.79ZM46,53.72C44.24,53.72,42.53,53.19,41.08,52.19L40.71,51.94L41.91,47.57C42.32,46.09,42.02,44.5,41.1,43.26L40.41,42.33L46,40.59ZM32.18,41.37C30.73,41.08,29.22,41.27,27.89,41.91L29.21,38.97L25.34,38.2L30.53,35.46L27.89,34.07L28.43,33.26C31.62,28.47,38.09,27.2,42.86,30.41C41.28,30.97,39.98,32.12,39.24,33.63L39.14,33.82C36.69,34.4,34.95,36.59,34.95,39.11L34.95,41.91ZM23.38,33.75L18.17,38.93C13.57,43.51,11.94,50.28,13.95,56.44ZM25.38,25.75L17.98,30.1C15.07,31.81,14.15,35.59,15.95,38.44ZM1.02,40.16L5.94,42.21L9.94,50.12L5.94,48.62C4.64,51.86,4.37,55.43,5.17,58.84L5.94,62.12C3.26,56.07,1.66,49.6,1.21,43ZM3.04,30.57L8.75,33.29L11.38,40.57L6.95,36.34L9.3,43.83L5.77,43.06ZM6.22,22.58L10.75,26.07L11.52,35.02L7.29,33.43ZM10.87,16.64L14.95,20.45L15.93,25.31L13.32,24.53L12.41,28.72L10.43,26.79ZM17.34,12.15L21.91,17.87L20.41,22.62L18.26,19.43L16.78,22.8L14.19,21.72ZM41.43,43.87C41.75,45.19,42.2,46,42.97,46.55C43.75,47.11,44.38,47.98,44.41,48.94C44.44,50.01,43.58,50.87,42.51,50.82C41.45,50.77,40.41,50.69,39.31,50.46C39.91,52.27,41.26,53.38,42.98,53.8C43.8,54,44.48,54.67,44.48,55.52C44.48,56.43,43.71,57.15,42.8,57.08L37.29,56.66C38.36,59.08,40.39,59.92,42.67,60.16C43.67,60.27,44.48,61.06,44.48,62.07C44.48,63.1,43.62,63.94,42.58,63.87C38.79,63.62,35.45,63.1,30.88,61.21C33.35,65.63,37.68,67.28,42.38,67.57C43.24,67.62,43.95,68.32,43.95,69.19C43.95,70.08,43.21,70.79,42.32,70.75C37.61,70.53,34.2,70.06,27.86,68.43C30.76,72.97,36.23,74.47,41.41,74.77C42.55,74.83,43.48,75.75,43.48,76.9C43.48,77.92,42.74,78.8,41.73,78.84C38.11,78.97,33.6,77.89,27.58,75.56C29.84,79.51,33.92,81.54,38.26,82.36C41.31,82.95,42.9,86.82,46,86.82L46,44.93C44.08,44.93,43.14,44.69,41.43,43.87ZM58.97,86.58C54.84,88.64,49.95,88.44,46,86.05L46,1C53.72,1,60.71,5.58,63.79,12.66L63.99,13.13L70.08,17.84L74.69,12.15L75.91,21.35L81.2,16.59L79.73,27.27L85.77,22.55L83.15,34.74L88.97,30.56L86.02,42.19L91,40.14L89.72,49.92C88.88,56.33,86.46,62.44,82.68,67.69C85.82,73.12,87.71,79.18,88.23,85.43L88.69,91L85.2,91C77.81,91,70.66,88.36,65.03,83.56ZM58.97,86.58C54.84,88.64,49.95,88.44,46,86.05L46,57.62L52.41,57.62C57.17,63.16,62.68,68.01,68.77,72.04L71.76,74.01L66.33,77.73C72.28,84.03,79.85,88.57,88.21,90.87L88.69,91L85.2,91C77.81,91,70.66,88.36,65.03,83.56ZM84.83,82.52C84.46,77.68,82.85,73.01,80.15,68.97C77.92,72.74,74.63,75.77,70.69,77.69L70.34,77.86C72.2,79.13,74.39,79.8,76.63,79.8L79.04,79.8L77.39,81.85L83.13,82.94L81.3,84.7L85.21,87.54ZM63.06,59.22C64.2,59.71,65.01,60.75,65.2,61.98L65.58,64.48L65.8,64.33C68.23,62.67,69.47,59.74,68.97,56.84L71.92,60.75C74.79,56.5,72.76,50.69,67.87,49.16L53.46,44.63C52.44,50.32,55.48,55.96,60.8,58.25ZM61.74,54.15C62.1,54.31,62.52,54.22,62.87,54.04C64.49,53.2,66.24,54.77,65.75,55.98C64.71,58.55,59.56,54.89,58.65,52.78C58.65,52.78,60.13,53.42,61.74,54.15ZM56.34,44.61C64.64,40.69,70.07,46.91,70.07,53.3C54.23,49.83,54.74,47.84,53.5,44.61C53.5,41.27,55.81,41.14,56.34,44.61ZM57.64,48.78C59.21,45.3,65,45.95,65,50.73C65,50.85,65,50.96,64.99,51.07C61.37,50.93,59.53,50.08,57.64,48.78ZM60.42,50.39C60.25,50.31,60.07,50.23,59.89,50.14C60,47.4,61.13,45.23,61.13,45.23C61.13,45.23,62.37,47.62,62.37,50.56C62.37,50.76,62.37,50.96,62.36,51.15C61.74,50.95,61.09,50.71,60.42,50.39ZM89.72,49.92C88.88,56.33,86.46,62.44,82.68,67.69L77.17,60.76L83.23,63.69C86.01,59.94,87.92,55.62,88.83,51.05L91,40.14L86.02,44.12C85.54,42.86,85.45,41.48,85.77,40.17L87.44,33.25L84.49,34.72L84.66,33.15L84.49,33.25L85.77,22.55L79.73,27.83L79.78,27.24L79.73,27.27L79.84,26.53L80.46,18.59L75.21,21.99L74.69,12.15L70.6,19.1L71.79,22.55L62.97,17.09L62.58,15.23C60.91,7.42,53.98,1.86,46,1.91L46,1L49.16,1C56.57,1,63.06,5.97,64.99,13.13L70.08,17.84L74.69,12.15L75.91,21.35L81.2,16.59L79.84,26.53L79.78,27.24L85.77,22.55L84.66,33.15L88.97,30.56L86.02,42.19L91,40.14ZM46,7.75C48.54,7.75,50.86,9.16,52.03,11.41L59.59,25.89L59.32,22.98C58.8,17.24,58.78,11.46,59.26,5.71L59.5,2.81L56.35,4.06L55.59,1L53.07,2.81L50.81,1L48.61,2.81L46,1ZM46,32.62C48.34,27.84,56.56,29.54,62.48,32.62L57.91,21.97L56.37,8.88C55.32,7.75,53.85,7.12,52.31,7.12L46,7.12ZM46,16.08L46,14.07L47.58,14.07C49.63,14.07,51.4,15.51,51.82,17.52C52.06,18.71,51.46,19.91,50.36,20.41L50.24,20.47C48.57,21.23,46.64,20.19,46.35,18.38ZM47.53,12.72L46,11.66L46,8.86L46.94,8.86C49.6,8.86,52.24,9.2,54.81,9.87C55.71,11.28,55.82,13.05,55.1,14.57L54.7,15.41L52.32,12.22L50.82,12.91L49.14,11.61ZM47.53,23.22L49.14,25.33L50.82,23.03C51.81,24.13,52.5,25.47,52.83,26.91L52.84,26.93L53.84,23.19L55.02,19.52C56.78,21.38,57.95,23.72,58.37,26.25L58.9,29.39C54.88,28.3,50.73,27.75,46.57,27.75L46,27.75L46,25.33ZM50.45,10.04L49.57,10.29L49.39,10.15C48.41,9.37,47.03,9.32,46,10.04L46,8.86L46.94,8.86C49.6,8.86,52.24,9.2,54.81,9.87C55.01,10.19,55.17,10.52,55.3,10.87L55.06,10.85C54,10.77,52.97,11.22,52.31,12.06C52.75,10.88,51.66,9.7,50.45,10.04ZM46.57,27.75L46,27.75L46,25.33L46.14,25.14L46.31,25.38C47.01,26.39,48.51,26.28,49.06,25.22L49.14,25.33L49.2,25.24L49.49,25.65C50.21,26.69,51.68,26.79,52.54,25.93C52.66,26.25,52.76,26.57,52.83,26.91L52.84,26.93L53.11,25.9L55.75,27.22C56.74,27.72,57.95,27.25,58.34,26.21L58.37,26.25C58.37,26.25,58.37,26.25,58.37,26.25L58.9,29.39C54.88,28.3,50.73,27.75,46.57,27.75ZM45.87,37.11L46.13,37.11C47.29,37.11,48.44,37.24,49.57,37.5L52.12,38.09C53.07,38.3,54,37.67,54.15,36.71C54.26,35.96,53.86,35.22,53.16,34.92L51.31,34.12C50.76,32.15,48.97,30.79,46.92,30.79L45.87,30.79ZM46,53.72C47.76,53.72,49.47,53.19,50.92,52.19L51.29,51.94L50.09,47.57C49.68,46.09,49.98,44.5,50.9,43.26L51.59,42.33L46,40.59ZM59.82,41.37C61.27,41.08,62.78,41.27,64.11,41.91L62.79,38.97L66.66,38.2L61.47,35.46L64.11,34.07L63.57,33.26C60.38,28.47,53.91,27.2,49.14,30.41C50.72,30.97,52.02,32.12,52.76,33.63L52.86,33.82C55.31,34.4,57.05,36.59,57.05,39.11L57.05,41.91ZM68.62,33.75L73.83,38.93C78.43,43.51,80.06,50.28,78.05,56.44ZM66.62,25.75L74.02,30.1C76.93,31.81,77.85,35.59,76.05,38.44ZM90.98,40.16L86.06,42.21L82.06,50.12L86.06,48.62C87.36,51.86,87.63,55.43,86.83,58.84L86.06,62.12C88.74,56.07,90.34,49.6,90.79,43ZM88.96,30.57L83.25,33.29L80.62,40.57L85.05,36.34L82.7,43.83L86.23,43.06ZM85.78,22.58L81.25,26.07L80.48,35.02L84.71,33.43ZM81.13,16.64L77.05,20.45L76.07,25.31L78.68,24.53L79.59,28.72L81.57,26.79ZM74.66,12.15L70.09,17.87L71.59,22.62L73.74,19.43L75.22,22.8L77.81,21.72ZM50.57,43.87C50.25,45.19,49.8,46,49.03,46.55C48.25,47.11,47.62,47.98,47.59,48.94C47.56,50.01,48.42,50.87,49.49,50.82C50.55,50.77,51.59,50.69,52.69,50.46C52.09,52.27,50.74,53.38,49.02,53.8C48.2,54,47.52,54.67,47.52,55.52C47.52,56.43,48.29,57.15,49.2,57.08L54.71,56.66C53.64,59.08,51.61,59.92,49.33,60.16C48.33,60.27,47.52,61.06,47.52,62.07C47.52,63.1,48.38,63.94,49.42,63.87C53.21,63.62,56.55,63.1,61.12,61.21C58.65,65.63,54.32,67.28,49.62,67.57C48.76,67.62,48.05,68.32,48.05,69.19C48.05,70.08,48.79,70.79,49.68,70.75C54.39,70.53,57.8,70.06,64.14,68.43C61.24,72.97,55.77,74.47,50.59,74.77C49.45,74.83,48.52,75.75,48.52,76.9C48.52,77.92,49.26,78.8,50.27,78.84C53.89,78.97,58.4,77.89,64.42,75.56C62.16,79.51,58.08,81.54,53.74,82.36C50.69,82.95,49.1,86.82,46,86.82L46,44.93C47.92,44.93,48.86,44.69,50.57,43.87Z"/></svg>