<svg xmlns="http://www.w3.org/2000/svg" viewBox="0 0 90 90" fill="currentColor"><path d="M1,68.3L14.3,50.25C25.59,34.93,39.01,21.29,54.15,9.76L55.15,9C33.07,18.01,15.38,35.3,5.85,57.16ZM10.32,83.06L25.52,59.25C35.33,43.88,47.2,29.93,60.8,17.78L77.03,3.27C46.59,18.54,23.34,45.13,12.28,77.33ZM88.92,4.36C57.88,24.64,34.99,55.23,24.29,90.73L40.36,63.71C47.84,51.12,56.69,39.39,66.74,28.73L91,3ZM47.09,91L49.34,84.26C57.61,59.44,71.93,37.06,91,19.16C65.59,33.02,49.08,58.97,47.28,87.86ZM45.7,54.46C41.48,57.22,39.99,62.66,39.99,62.66C39.99,62.66,40.65,53.43,44.87,50.67C49.09,47.91,53.33,46.93,53.33,46.93C53.33,46.93,49.92,51.71,45.7,54.46ZM27.86,26.81C24.2,28.07,20.91,28.14,20.91,28.14C20.91,28.14,23.55,26.18,27.21,24.92C30.86,23.66,41.03,16.89,41.03,16.89C41.03,16.89,31.51,25.55,27.86,26.81ZM46.72,31.32C43.06,32.57,39.62,35.62,39.62,35.62C40.48,32.45,48.93,24.23,53.01,28.09C53.01,28.09,50.37,30.06,46.72,31.32ZM25.89,49.56C22.23,50.82,18.94,50.9,18.94,50.9C18.94,50.9,21.58,48.93,25.24,47.67C28.89,46.42,32.18,46.34,32.18,46.34C32.18,46.34,29.54,48.31,25.89,49.56ZM52.04,74.5C47.94,78.6,42.92,81.98,42.92,81.98C42.92,81.98,49.1,72.94,50.76,68.86C54.86,64.76,57.33,63.2,57.33,63.2C57.33,63.2,56.14,70.4,52.04,74.5ZM12.15,55.26C9.52,57.47,3.87,64.06,3.87,64.06C3.87,64.06,8.08,55.76,10.72,53.55C13.35,51.34,17.9,50.85,17.9,50.85C17.9,50.85,14.79,53.05,12.15,55.26ZM73.48,35.76C67.98,38.32,64.75,38.24,64.75,38.24C64.75,38.24,68.58,34.8,74.08,32.24C79.59,29.67,81.49,26.89,81.49,26.89C81.49,26.89,78.99,33.19,73.48,35.76ZM48.33,28.89C43.49,30.3,38.53,37.01,38.53,37.01C38.53,37.01,43.81,26.43,48.64,25.02C53.48,23.61,57.83,23.91,57.83,23.91C57.83,23.91,53.17,27.48,48.33,28.89Z"/></svg>