<svg xmlns="http://www.w3.org/2000/svg" viewBox="0 0 90 90"><path d="M32.03,4.42C36.16,2.36,41.05,2.56,45,4.95L45,90C37.28,90,30.29,85.42,27.21,78.34L27.01,77.88L20.92,73.16L16.31,78.85L15.09,69.65L9.8,74.41L11.27,63.73L5.23,68.45L7.85,56.26L2.03,60.44L4.98,48.81L0,50.86L1.28,41.08C2.12,34.67,4.54,28.56,8.32,23.31C5.18,17.88,3.29,11.82,2.77,5.57L2.31,0L5.8,0C13.19,0,20.34,2.64,25.97,7.44Z" fill="#5D9948"/><path d="M32.03,4.42C36.16,2.36,41.06,2.56,45,4.95L45,33.38L38.59,33.38C33.83,27.84,28.32,22.99,22.23,18.96L19.24,16.99L24.67,13.27C18.72,6.97,11.15,2.43,2.79,0.13L2.31,0L5.8,0C13.19,0,20.34,2.64,25.97,7.44Z" fill="#81B64C"/><path d="M6.17,8.48C6.54,13.32,8.15,17.99,10.85,22.03C13.08,18.26,16.37,15.23,20.31,13.31L20.66,13.14C18.8,11.87,16.61,11.2,14.37,11.2L11.96,11.2L13.61,9.15L7.87,8.06L9.7,6.3L5.79,3.46Z" fill="#45753C"/><path d="M27.94,31.78C26.8,31.29,25.99,30.25,25.8,29.02L25.42,26.52L25.2,26.67C22.77,28.33,21.53,31.26,22.03,34.16L19.08,30.25C16.21,34.5,18.24,40.31,23.13,41.84L37.54,46.37C38.56,40.68,35.52,35.04,30.2,32.75Z" fill="#D8FA9D"/><path d="M29.26,36.85C28.9,36.69,28.48,36.78,28.13,36.96C26.51,37.8,24.76,36.23,25.25,35.02C26.29,32.45,31.44,36.11,32.35,38.22C32.35,38.22,30.87,37.58,29.26,36.85Z" fill="#305730"/><path d="M34.66,46.39C26.36,50.31,20.93,44.09,20.93,37.7C36.77,41.17,36.26,43.16,37.5,46.39C37.5,49.73,35.19,49.86,34.66,46.39Z" fill="#162921"/><path d="M33.36,42.22C31.79,45.7,26,45.05,26,40.27C26,40.15,26,40.04,26.01,39.93C29.63,40.07,31.47,40.92,33.36,42.22Z" fill="#B2E068"/><path d="M30.58,40.61C30.75,40.69,30.93,40.77,31.11,40.86C31,43.6,29.87,45.77,29.87,45.77C29.87,45.77,28.63,43.38,28.63,40.44C28.63,40.24,28.63,40.04,28.64,39.85C29.26,40.05,29.91,40.29,30.58,40.61Z" fill="#162921"/><path d="M1.28,41.08C2.12,34.67,4.54,28.56,8.32,23.31L13.83,30.24L7.77,27.31C4.99,31.06,3.08,35.38,2.17,39.95L0,50.86L4.98,46.88C5.46,48.14,5.55,49.52,5.23,50.83L3.56,57.75L6.51,56.28L6.34,57.85L6.51,57.75L5.23,68.45L11.27,63.17L11.22,63.76L11.27,63.73L11.16,64.47L10.54,72.41L15.79,69.01L16.31,78.85L20.4,71.9L19.21,68.45L28.03,73.91L28.42,75.77C30.09,83.58,37.02,89.14,45,89.09L45,90L41.84,90C34.43,90,27.94,85.03,26.01,77.88L20.92,73.16L16.31,78.85L15.09,69.65L9.8,74.41L11.16,64.47L11.22,63.76L5.23,68.45L6.34,57.85L2.03,60.44L4.98,48.81L0,50.86Z" fill="#45753C"/><path d="M45,83.25C42.46,83.25,40.14,81.84,38.97,79.59L31.41,65.11L31.68,68.02C32.2,73.76,32.22,79.54,31.74,85.29L31.5,88.19L34.65,86.94L35.41,90L37.93,88.19L40.19,90L42.39,88.19L45,90Z" fill="#D8FA9D"/><path d="M45,58.38C42.66,63.16,34.44,61.46,28.52,58.38L33.09,69.03L34.63,82.12C35.68,83.25,37.15,83.88,38.69,83.88L45,83.88Z" fill="#162921"/><path d="M45,74.92L45,76.93L43.42,76.93C41.37,76.93,39.6,75.49,39.18,73.48C38.94,72.29,39.54,71.09,40.64,70.59L40.76,70.53C42.43,69.77,44.36,70.81,44.65,72.62Z" fill="#305730"/><path d="M43.47,78.28L45,79.34L45,82.14L44.06,82.14C41.4,82.14,38.76,81.8,36.19,81.13C35.29,79.72,35.18,77.95,35.9,76.43L36.3,75.59L38.68,78.78L40.18,78.09L41.86,79.39Z" fill="#D8FA9D"/><path d="M43.47,67.78L41.86,65.67L40.18,67.97C39.19,66.87,38.5,65.53,38.17,64.09L38.16,64.07L37.16,67.81L35.98,71.48C34.22,69.62,33.05,67.28,32.63,64.75L32.1,61.61C36.12,62.7,40.27,63.25,44.43,63.25L45,63.25L45,65.67Z" fill="#D8FA9D"/><path d="M40.55,80.96L41.43,80.71L41.61,80.85C42.59,81.63,43.97,81.68,45,80.96L45,82.14L44.06,82.14C41.4,82.14,38.76,81.8,36.19,81.13C35.99,80.81,35.83,80.48,35.7,80.13L35.94,80.15C37,80.23,38.03,79.78,38.69,78.94C38.25,80.12,39.34,81.3,40.55,80.96Z" fill="#305730"/><path d="M44.43,63.25L45,63.25L45,65.67L44.86,65.86L44.69,65.62C43.99,64.61,42.49,64.72,41.94,65.78L41.86,65.67L41.8,65.76L41.51,65.35C40.79,64.31,39.32,64.21,38.46,65.07C38.34,64.75,38.24,64.43,38.17,64.09L38.16,64.07L37.89,65.1L35.25,63.78C34.26,63.28,33.05,63.75,32.66,64.79L32.63,64.75C32.63,64.75,32.63,64.75,32.63,64.75L32.1,61.61C36.12,62.7,40.27,63.25,44.43,63.25Z" fill="#305730"/><path d="M45.13,53.89L44.87,53.89C43.71,53.89,42.56,53.76,41.43,53.5L38.88,52.91C37.93,52.7,37,53.33,36.85,54.29C36.74,55.04,37.14,55.78,37.84,56.08L39.69,56.88C40.24,58.85,42.03,60.21,44.08,60.21L45.13,60.21Z" fill="#305730"/><path d="M45,37.28C43.24,37.28,41.53,37.81,40.08,38.81L39.71,39.06L40.91,43.43C41.32,44.91,41.02,46.5,40.1,47.74L39.41,48.67L45,50.41Z" fill="#81B64C"/><path d="M31.18,49.63C29.73,49.92,28.22,49.73,26.89,49.09L28.21,52.03L24.34,52.8L29.53,55.54L26.89,56.93L27.43,57.74C30.62,62.53,37.09,63.8,41.86,60.59C40.28,60.03,38.98,58.88,38.24,57.37L38.14,57.18C35.69,56.6,33.95,54.41,33.95,51.89L33.95,49.09Z" fill="#D8FA9D"/><path d="M22.38,57.25L17.17,52.07C12.57,47.49,10.94,40.72,12.95,34.56Z" fill="#305730"/><path d="M24.38,65.25L16.98,60.9C14.07,59.19,13.15,55.41,14.95,52.56Z" fill="#305730"/><path d="M0.02,50.84L4.94,48.79L8.94,40.88L4.94,42.38C3.64,39.14,3.37,35.57,4.17,32.16L4.94,28.88C2.26,34.93,0.66,41.4,0.21,48Z" fill="#D8FA9D"/><path d="M2.04,60.43L7.75,57.71L10.38,50.43L5.95,54.66L8.3,47.17L4.77,47.94Z" fill="#D8FA9D"/><path d="M5.22,68.42L9.75,64.93L10.52,55.98L6.29,57.57Z" fill="#D8FA9D"/><path d="M9.87,74.36L13.95,70.55L14.93,65.69L12.32,66.47L11.41,62.28L9.43,64.21Z" fill="#D8FA9D"/><path d="M16.34,78.85L20.91,73.13L19.41,68.38L17.26,71.57L15.78,68.2L13.19,69.28Z" fill="#D8FA9D"/><path d="M40.43,47.13C40.75,45.81,41.2,45,41.97,44.45C42.75,43.89,43.38,43.02,43.41,42.06C43.44,40.99,42.58,40.13,41.51,40.18C40.45,40.23,39.41,40.31,38.31,40.54C38.91,38.73,40.26,37.62,41.98,37.2C42.8,37,43.48,36.33,43.48,35.48C43.48,34.57,42.71,33.85,41.8,33.92L36.29,34.34C37.36,31.92,39.39,31.08,41.67,30.84C42.67,30.73,43.48,29.94,43.48,28.93C43.48,27.9,42.62,27.06,41.58,27.13C37.79,27.38,34.45,27.9,29.88,29.79C32.35,25.37,36.68,23.72,41.38,23.43C42.24,23.38,42.95,22.68,42.95,21.81C42.95,20.92,42.21,20.21,41.32,20.25C36.61,20.47,33.2,20.94,26.86,22.57C29.76,18.03,35.23,16.53,40.41,16.23C41.55,16.17,42.48,15.25,42.48,14.1C42.48,13.08,41.74,12.2,40.73,12.16C37.11,12.03,32.6,13.11,26.58,15.44C28.84,11.49,32.92,9.46,37.26,8.64C40.31,8.05,41.9,4.18,45,4.18L45,46.07C43.08,46.07,42.14,46.31,40.43,47.13Z" fill="#305730"/><path d="M57.97,4.42C53.84,2.36,48.95,2.56,45,4.95L45,90C52.72,90,59.71,85.42,62.79,78.34L62.99,77.88L69.08,73.16L73.69,78.85L74.91,69.65L80.2,74.41L78.73,63.73L84.77,68.45L82.15,56.26L87.97,60.44L85.02,48.81L90,50.86L88.72,41.08C87.88,34.67,85.46,28.56,81.68,23.31C84.82,17.88,86.71,11.82,87.23,5.57L87.69,0L84.2,0C76.81,0,69.66,2.64,64.03,7.44Z" fill="#5D9948"/><path d="M57.97,4.42C53.84,2.36,48.95,2.56,45,4.95L45,33.38L51.41,33.38C56.17,27.84,61.68,22.99,67.77,18.96L70.76,16.99L65.33,13.27C71.28,6.97,78.85,2.43,87.21,0.13L87.69,0L84.2,0C76.81,0,69.66,2.64,64.03,7.44Z" fill="#81B64C"/><path d="M83.83,8.48C83.46,13.32,81.85,17.99,79.15,22.03C76.92,18.26,73.63,15.23,69.69,13.31L69.34,13.14C71.2,11.87,73.39,11.2,75.63,11.2L78.04,11.2L76.39,9.15L82.13,8.06L80.3,6.3L84.21,3.46Z" fill="#45753C"/><path d="M62.06,31.78C63.2,31.29,64.01,30.25,64.2,29.02L64.58,26.52L64.8,26.67C67.23,28.33,68.47,31.26,67.97,34.16L70.92,30.25C73.79,34.5,71.76,40.31,66.87,41.84L52.46,46.37C51.44,40.68,54.48,35.04,59.8,32.75Z" fill="#D8FA9D"/><path d="M60.74,36.85C61.1,36.69,61.52,36.78,61.87,36.96C63.49,37.8,65.24,36.23,64.75,35.02C63.71,32.45,58.56,36.11,57.65,38.22C57.65,38.22,59.13,37.58,60.74,36.85Z" fill="#305730"/><path d="M55.34,46.39C63.64,50.31,69.07,44.09,69.07,37.7C53.23,41.17,53.74,43.16,52.5,46.39C52.5,49.73,54.81,49.86,55.34,46.39Z" fill="#162921"/><path d="M56.64,42.22C58.21,45.7,64,45.05,64,40.27C64,40.15,64,40.04,63.99,39.93C60.37,40.07,58.53,40.92,56.64,42.22Z" fill="#B2E068"/><path d="M59.42,40.61C59.25,40.69,59.07,40.77,58.89,40.86C59,43.6,60.13,45.77,60.13,45.77C60.13,45.77,61.37,43.38,61.37,40.44C61.37,40.24,61.37,40.04,61.36,39.85C60.74,40.05,60.09,40.29,59.42,40.61Z" fill="#162921"/><path d="M88.72,41.08C87.88,34.67,85.46,28.56,81.68,23.31L76.17,30.24L82.23,27.31C85.01,31.06,86.92,35.38,87.83,39.95L90,50.86L85.02,46.88C84.54,48.14,84.45,49.52,84.77,50.83L86.44,57.75L83.49,56.28L83.66,57.85L83.49,57.75L84.77,68.45L78.73,63.17L78.78,63.76L78.73,63.73L78.84,64.47L79.46,72.41L74.21,69.01L73.69,78.85L69.6,71.9L70.79,68.45L61.97,73.91L61.58,75.77C59.91,83.58,52.98,89.14,45,89.09L45,90L48.16,90C55.57,90,62.06,85.03,63.99,77.88L69.08,73.16L73.69,78.85L74.91,69.65L80.2,74.41L78.84,64.47L78.78,63.76L84.77,68.45L83.66,57.85L87.97,60.44L85.02,48.81L90,50.86Z" fill="#45753C"/><path d="M45,83.25C47.54,83.25,49.86,81.84,51.03,79.59L58.59,65.11L58.32,68.02C57.8,73.76,57.78,79.54,58.26,85.29L58.5,88.19L55.35,86.94L54.59,90L52.07,88.19L49.81,90L47.61,88.19L45,90Z" fill="#D8FA9D"/><path d="M45,58.38C47.34,63.16,55.56,61.46,61.48,58.38L56.91,69.03L55.37,82.12C54.32,83.25,52.85,83.88,51.31,83.88L45,83.88Z" fill="#162921"/><path d="M45,74.92L45,76.93L46.58,76.93C48.63,76.93,50.4,75.49,50.82,73.48C51.06,72.29,50.46,71.09,49.36,70.59L49.24,70.53C47.57,69.77,45.64,70.81,45.35,72.62Z" fill="#305730"/><path d="M46.53,78.28L45,79.34L45,82.14L45.94,82.14C48.6,82.14,51.24,81.8,53.81,81.13C54.71,79.72,54.82,77.95,54.1,76.43L53.7,75.59L51.32,78.78L49.82,78.09L48.14,79.39Z" fill="#D8FA9D"/><path d="M46.53,67.78L48.14,65.67L49.82,67.97C50.81,66.87,51.5,65.53,51.83,64.09L51.84,64.07L52.84,67.81L54.02,71.48C55.78,69.62,56.95,67.28,57.37,64.75L57.9,61.61C53.88,62.7,49.73,63.25,45.57,63.25L45,63.25L45,65.67Z" fill="#D8FA9D"/><path d="M49.45,80.96L48.57,80.71L48.39,80.85C47.41,81.63,46.03,81.68,45,80.96L45,82.14L45.94,82.14C48.6,82.14,51.24,81.8,53.81,81.13C54.01,80.81,54.17,80.48,54.3,80.13L54.06,80.15C53,80.23,51.97,79.78,51.31,78.94C51.75,80.12,50.66,81.3,49.45,80.96Z" fill="#305730"/><path d="M45.57,63.25L45,63.25L45,65.67L45.14,65.86L45.31,65.62C46.01,64.61,47.51,64.72,48.06,65.78L48.14,65.67L48.2,65.76L48.49,65.35C49.21,64.31,50.68,64.21,51.54,65.07C51.66,64.75,51.76,64.43,51.83,64.09L51.84,64.07L52.11,65.1L54.75,63.78C55.74,63.28,56.95,63.75,57.34,64.79L57.37,64.75C57.37,64.75,57.37,64.75,57.37,64.75L57.9,61.61C53.88,62.7,49.73,63.25,45.57,63.25Z" fill="#305730"/><path d="M44.87,53.89L45.13,53.89C46.29,53.89,47.44,53.76,48.57,53.5L51.12,52.91C52.07,52.7,53,53.33,53.15,54.29C53.26,55.04,52.86,55.78,52.16,56.08L50.31,56.88C49.76,58.85,47.97,60.21,45.92,60.21L44.87,60.21Z" fill="#305730"/><path d="M45,37.28C46.76,37.28,48.47,37.81,49.92,38.81L50.29,39.06L49.09,43.43C48.68,44.91,48.98,46.5,49.9,47.74L50.59,48.67L45,50.41Z" fill="#81B64C"/><path d="M58.82,49.63C60.27,49.92,61.78,49.73,63.11,49.09L61.79,52.03L65.66,52.8L60.47,55.54L63.11,56.93L62.57,57.74C59.38,62.53,52.91,63.8,48.14,60.59C49.72,60.03,51.02,58.88,51.76,57.37L51.86,57.18C54.31,56.6,56.05,54.41,56.05,51.89L56.05,49.09Z" fill="#D8FA9D"/><path d="M67.62,57.25L72.83,52.07C77.43,47.49,79.06,40.72,77.05,34.56Z" fill="#305730"/><path d="M65.62,65.25L73.02,60.9C75.93,59.19,76.85,55.41,75.05,52.56Z" fill="#305730"/><path d="M89.98,50.84L85.06,48.79L81.06,40.88L85.06,42.38C86.36,39.14,86.63,35.57,85.83,32.16L85.06,28.88C87.74,34.93,89.34,41.4,89.79,48Z" fill="#D8FA9D"/><path d="M87.96,60.43L82.25,57.71L79.62,50.43L84.05,54.66L81.7,47.17L85.23,47.94Z" fill="#D8FA9D"/><path d="M84.78,68.42L80.25,64.93L79.48,55.98L83.71,57.57Z" fill="#D8FA9D"/><path d="M80.13,74.36L76.05,70.55L75.07,65.69L77.68,66.47L78.59,62.28L80.57,64.21Z" fill="#D8FA9D"/><path d="M73.66,78.85L69.09,73.13L70.59,68.38L72.74,71.57L74.22,68.2L76.81,69.28Z" fill="#D8FA9D"/><path d="M49.57,47.13C49.25,45.81,48.8,45,48.03,44.45C47.25,43.89,46.62,43.02,46.59,42.06C46.56,40.99,47.42,40.13,48.49,40.18C49.55,40.23,50.59,40.31,51.69,40.54C51.09,38.73,49.74,37.62,48.02,37.2C47.2,37,46.52,36.33,46.52,35.48C46.52,34.57,47.29,33.85,48.2,33.92L53.71,34.34C52.64,31.92,50.61,31.08,48.33,30.84C47.33,30.73,46.52,29.94,46.52,28.93C46.52,27.9,47.38,27.06,48.42,27.13C52.21,27.38,55.55,27.9,60.12,29.79C57.65,25.37,53.32,23.72,48.62,23.43C47.76,23.38,47.05,22.68,47.05,21.81C47.05,20.92,47.79,20.21,48.68,20.25C53.39,20.47,56.8,20.94,63.14,22.57C60.24,18.03,54.77,16.53,49.59,16.23C48.45,16.17,47.52,15.25,47.52,14.1C47.52,13.08,48.26,12.2,49.27,12.16C52.89,12.03,57.4,13.11,63.42,15.44C61.16,11.49,57.08,9.46,52.74,8.64C49.69,8.05,48.1,4.18,45,4.18L45,46.07C46.92,46.07,47.86,46.31,49.57,47.13Z" fill="#305730"/></svg>