<svg xmlns="http://www.w3.org/2000/svg" viewBox="0 0 90 90" fill="currentColor"><path d="M12.74,34.19L12.74,34.19C15.8,33.51,18.74,32.39,21.47,30.86L21.65,30.75L20.03,29.52L20.03,29.52C23.68,28.9,27.57,28.17,30.43,25.83C31.08,25.31,31.56,24.7,31.72,23.97L29.35,23.29L33.65,19.55L32,18.89L34.64,14.49L36.54,10.83L34.64,10.42C41.02,1.37,49.3,0.89,56.04,1.01C69.23,1.25,85.89,6.49,83.52,28.14C83.21,30.95,83.14,33.81,83.7,36.58L83.7,36.58L81.8,36.68C81.8,36.68,82.02,41.27,82.17,43.36L78.82,42.74C81.72,47.78,81.78,52.55,81.35,58.28L78.55,57.5L78.55,57.5C78.55,61.36,77.74,65.19,76.17,68.72L76.03,69.03L72.23,65.3L72.19,65.4C70.99,68.56,69.11,71.43,66.69,73.79L66.69,73.79L65.71,68.54C61.62,77.02,51.54,75.05,47.72,67.83C40.03,75.28,33.64,72.97,29.62,66.03C23.59,70.86,15.45,68.54,13.63,61.77C7.29,61.77,5.83,57.17,5.9,50.24C5.96,44.02,7.76,39.36,14.22,36.05ZM75.84,6.72L75.44,14.09C75.35,15.73,74.71,17.29,73.63,18.52C69.32,23.41,69.67,30.86,74.35,35.38L78.94,42.69L69.31,35.38L71.2,49.64L65.93,45.01L64.08,56.95L53.87,57.48L55.43,39.49L35.63,57.48L39.85,36.82L21.01,52.93L24.89,36.82L10.32,46.97L6.18,46.65C6.89,42.19,9.07,38.69,14.22,36.05L12.74,34.19C15.8,33.51,18.74,32.39,21.47,30.86L21.65,30.75L20.03,29.52C23.68,28.9,27.57,28.17,30.43,25.83C30.69,25.63,30.92,25.4,31.11,25.17C34.2,23.92,36.41,21.05,36.74,17.62C37.09,14.06,38.47,10.69,40.73,7.91L45.34,2.23C49.01,1.04,52.71,0.95,56.04,1.01C62.73,1.13,70.3,2.54,75.84,6.72ZM83.74,23.54C83.77,24.98,83.7,26.52,83.52,28.14C83.21,30.95,83.14,33.81,83.7,36.58L81.8,36.68C81.8,36.7,82.02,41.27,82.17,43.36L78.82,42.74C78.83,42.78,78.85,42.81,78.87,42.85L78.73,42.6C75.18,36.72,70.88,31.31,65.94,26.54C70.11,26.94,74.16,28.06,77.93,29.81C75.58,23.86,72.22,18.34,67.99,13.52C74.25,15.03,79.77,18.58,83.74,23.54ZM61.64,22.29L53.72,22.09C46.33,21.9,38.95,22.53,31.72,23.97L29.35,23.29L33.65,19.55L32,18.89L34.64,14.49L34.68,14.42C44.17,14.36,53.55,17.06,61.64,22.29ZM54.66,9.91C48.58,9.65,42.49,9.96,36.47,10.82L34.64,10.42C36.71,7.48,38.98,5.45,41.32,4.05C46.19,4.59,50.86,6.58,54.66,9.91ZM16.81,43.19C17.23,43.36,17.61,43.61,17.92,43.94L20.42,46.5C23.92,44.62,28.2,44.98,31.34,47.43L34.49,49.89C39.01,46.77,45.07,47.13,49.18,50.76L51.32,52.64C57.59,49.72,64.91,53.67,65.9,60.51L67.67,72.77C67.35,73.12,67.03,73.46,66.69,73.79L65.71,68.54C61.62,77.02,51.54,75.05,47.72,67.83C40.03,75.28,33.64,72.97,29.62,66.03C23.59,70.86,15.45,68.54,13.63,61.77C7.29,61.77,5.83,57.17,5.9,50.24C5.91,49.46,5.94,48.71,6.01,47.98C7.59,43.63,12.48,41.42,16.81,43.19ZM72.23,65.3L72.21,65.35L73.48,59.42L75.42,68.43ZM78.55,57.5C78.55,57.52,78.55,57.55,78.55,57.58L78.24,50.05L81.31,58.27ZM12.86,43.77C10.66,43.5,8.5,44.64,7.44,46.59C3.72,53.47,3.8,61.89,7.73,68.66L9.47,71.65C9.7,72.04,10.23,72.12,10.57,71.82L10.75,71.66C10.92,71.51,11.03,71.3,11.05,71.08L11.77,64.6C12.12,61.42,13.09,58.33,14.62,55.52L16.99,51.18C17.38,50.45,17.59,49.64,17.6,48.81C17.61,46.27,15.72,44.12,13.2,43.81ZM17.6,48.81C17.59,49.64,17.38,50.45,16.99,51.18L14.62,55.52C13.09,58.33,12.12,61.42,11.77,64.6L11.05,71.08C11.03,71.3,10.92,71.51,10.75,71.66L10.57,71.82C10.46,71.92,10.34,71.97,10.22,71.99L10.37,64.12C10.45,59.93,11.65,55.83,13.85,52.27C15.75,49.17,14.4,45.21,11.22,43.83C11.75,43.72,12.3,43.7,12.86,43.77L13.2,43.81C15.72,44.12,17.61,46.27,17.6,48.81ZM31.21,53.49C31.22,50.3,28.82,47.61,25.64,47.28C22.98,47,20.44,48.44,19.33,50.88L18.67,52.31C14.38,61.68,14.62,72.5,19.31,81.67L21.36,85.66C21.69,86.32,22.58,86.45,23.09,85.91L23.11,85.89C23.28,85.71,23.38,85.49,23.4,85.24L24.27,76.04C24.68,71.67,25.83,67.41,27.67,63.43L30.56,57.17C30.98,56.25,31.21,55.25,31.21,54.24ZM31.21,53.49L31.21,54.24C31.21,55.25,30.98,56.25,30.56,57.17L27.67,63.43C25.83,67.41,24.68,71.67,24.27,76.04L23.4,85.24C23.38,85.49,23.28,85.71,23.11,85.89L23.09,85.91C22.9,86.11,22.66,86.22,22.42,86.24L22.6,75C22.68,69.52,24.05,64.14,26.58,59.28C28.84,54.94,27.11,49.79,23.1,47.53C23.91,47.28,24.76,47.18,25.64,47.28C28.82,47.61,31.22,50.3,31.21,53.49ZM47.5,55.87C47.3,52.36,44.49,49.56,40.98,49.38C38.08,49.23,35.4,50.91,34.27,53.58L33.91,54.43C29.74,64.3,30.64,75.58,36.33,84.65L38.82,88.62C39.18,89.2,40.01,89.28,40.48,88.77L40.6,88.62C40.79,88.42,40.9,88.15,40.91,87.87L41.29,78.61C41.47,74.14,42.46,69.75,44.22,65.64L46.95,59.24C47.38,58.23,47.57,57.14,47.51,56.05ZM47.5,55.87L47.51,56.05C47.57,57.14,47.38,58.23,46.95,59.24L44.22,65.64C42.46,69.75,41.47,74.14,41.29,78.61L40.91,87.87C40.9,88.15,40.79,88.42,40.6,88.62L40.48,88.76C40.32,88.94,40.12,89.04,39.91,89.08L39.42,77.85C39.17,72.14,40.36,66.46,42.86,61.33C45.06,56.81,42.91,51.56,38.55,49.69C39.32,49.44,40.14,49.33,40.98,49.38C44.49,49.56,47.3,52.36,47.5,55.87ZM55.42,53.66C53.04,53.66,50.89,55.08,49.96,57.28C46.55,65.36,47.89,74.67,53.45,81.47L55.97,84.54C56.25,84.9,56.78,84.92,57.1,84.59L57.35,84.32C57.55,84.11,57.66,83.84,57.65,83.55L57.56,76.52C57.51,72.98,58.2,69.47,59.59,66.21L61.72,61.24C62.1,60.35,62.23,59.38,62.11,58.42C61.76,55.7,59.45,53.66,56.71,53.66ZM62.11,58.42C62.23,59.38,62.1,60.35,61.72,61.24L59.59,66.21C58.2,69.47,57.51,72.98,57.56,76.52L57.65,83.55C57.66,83.84,57.55,84.11,57.35,84.32L57.1,84.59C57.02,84.67,56.92,84.74,56.81,84.77L55.87,76.35C55.35,71.65,56.18,66.9,58.28,62.66C60.11,58.96,57.86,54.6,53.91,53.85C54.39,53.73,54.9,53.66,55.42,53.66L56.71,53.66C59.45,53.66,61.76,55.7,62.11,58.42ZM56.62,43.26L54.37,51.83L55.07,42.38C55.5,36.62,58.28,31.28,62.76,27.63C60.11,32.58,58.05,37.83,56.62,43.26ZM38.37,45.18L37.59,47.96L37.63,45.15C37.77,36.15,43.96,28.38,52.71,26.24C45.7,30.51,40.58,37.28,38.37,45.18ZM22.85,45.43C22.67,36.52,28.76,28.71,37.45,26.7L40.24,26.05L39.62,26.3C31.3,29.65,25.08,36.75,22.85,45.43ZM8.52,40.68C13.42,34.71,20.04,30.39,27.48,28.29L31.99,27.02C23.79,30.83,15.88,35.44,8.52,40.68Z"/></svg>