<svg xmlns="http://www.w3.org/2000/svg" viewBox="0 0 90 90"><path d="M0,67.3L13.3,49.25C24.59,33.93,38.01,20.29,53.15,8.76L54.15,8C32.07,17.01,14.38,34.3,4.85,56.16Z" fill="#81B64C"/><path d="M9.32,82.06L24.52,58.25C34.33,42.88,46.2,28.93,59.8,16.78L76.03,2.27C45.59,17.54,22.34,44.13,11.28,76.33Z" fill="#81B64C"/><path d="M87.92,3.36C56.88,23.64,33.99,54.23,23.29,89.73L39.36,62.71C46.84,50.12,55.69,38.39,65.74,27.73L90,2Z" fill="#81B64C"/><path d="M46.09,90L48.34,83.26C56.61,58.44,70.93,36.06,90,18.16C64.59,32.02,48.08,57.97,46.28,86.86Z" fill="#81B64C"/><path d="M44.7,53.46C40.48,56.22,38.99,61.66,38.99,61.66C38.99,61.66,39.65,52.43,43.87,49.67C48.09,46.91,52.33,45.93,52.33,45.93C52.33,45.93,48.92,50.71,44.7,53.46Z" fill="#81B64C"/><path d="M26.86,25.81C23.2,27.07,19.91,27.14,19.91,27.14C19.91,27.14,22.55,25.18,26.21,23.92C29.86,22.66,40.03,15.89,40.03,15.89C40.03,15.89,30.51,24.55,26.86,25.81Z" fill="#81B64C"/><path d="M45.72,30.32C42.06,31.57,38.62,34.62,38.62,34.62C39.48,31.45,47.93,23.23,52.01,27.09C52.01,27.09,49.37,29.06,45.72,30.32Z" fill="#262421"/><path d="M24.89,48.56C21.23,49.82,17.94,49.9,17.94,49.9C17.94,49.9,20.58,47.93,24.24,46.67C27.89,45.42,31.18,45.34,31.18,45.34C31.18,45.34,28.54,47.31,24.89,48.56Z" fill="#262421"/><path d="M51.04,73.5C46.94,77.6,41.92,80.98,41.92,80.98C41.92,80.98,48.1,71.94,49.76,67.86C53.86,63.76,56.33,62.2,56.33,62.2C56.33,62.2,55.14,69.4,51.04,73.5Z" fill="#81B64C"/><path d="M11.15,54.26C8.52,56.47,2.87,63.06,2.87,63.06C2.87,63.06,7.08,54.76,9.72,52.55C12.35,50.34,16.9,49.85,16.9,49.85C16.9,49.85,13.79,52.05,11.15,54.26Z" fill="#81B64C"/><path d="M72.48,34.76C66.98,37.32,63.75,37.24,63.75,37.24C63.75,37.24,67.58,33.8,73.08,31.24C78.59,28.67,80.49,25.89,80.49,25.89C80.49,25.89,77.99,32.19,72.48,34.76Z" fill="#81B64C"/><path d="M47.33,27.89C42.49,29.3,37.53,36.01,37.53,36.01C37.53,36.01,42.81,25.43,47.64,24.02C52.48,22.61,56.83,22.91,56.83,22.91C56.83,22.91,52.17,26.48,47.33,27.89Z" fill="#81B64C"/></svg>