<svg xmlns="http://www.w3.org/2000/svg" viewBox="0 0 90 90"><path d="M34.49,45.24C18.76,28.22,17.16,26.45,17,10.75C17,6.61,18.6,5,22.72,5L67.28,5C71.4,5,73,6.61,73,10.75C72.88,26.45,71.28,28.18,55.51,45.24C71.24,62.25,72.84,64.03,73,79.72C73,82.96,17,82.56,17,79.72C17.12,64.03,18.72,62.3,34.49,45.24Z" fill="currentColor"/><path d="M45,80C57.17,80,64,79,64,79C64,62.72,48.13,69.28,48.13,56.6L48.13,54.92C48.13,50.8,48.95,48,50.96,44.92L58.04,34.4C61.17,29.72,28.77,29.6,31.9,34.28L39.1,44.96C41.23,48.04,42.05,50.84,42.05,54.96L42.05,56.64C42.05,69.32,26,62.76,26,79.04L26,79C26,79,32.83,80,45,80Z" fill="currentColor"/><path d="M30.25,10.72C30.36,26.32,31.48,28.08,42.42,45C31.45,61.96,30.33,63.68,30.25,79.28C30.25,82.11,69.21,82.5,69.21,79.28C69.12,65.88,68.28,62.69,61.11,51.34C71.64,62.98,72.86,66.13,73,79.72C73,82.96,17,82.56,17,79.72C17.12,64.03,18.72,62.3,34.49,45.24C18.76,28.22,17.16,26.45,17,10.75C17,6.61,18.6,5,22.72,5L34.23,5C31.37,5,30.25,6.6,30.25,10.72Z" fill="currentColor" opacity="0.5"/><path d="M73,10.75C72.89,24.76,71.6,27.64,60.11,40.23C68.23,27.54,69.14,24.72,69.21,10.72C69.21,6.6,68.1,5,65.23,5L67.28,5C71.4,5,73,6.61,73,10.75Z" fill="currentColor" opacity="0.5"/><path d="M19.25,10.72C19.41,26.32,20.95,28.08,36.11,45C20.91,61.96,19.37,63.68,19.25,79.28C19.25,82,69.33,82.47,73,79.62C73,79.65,73,79.68,73,79.72C73,82.96,17,82.56,17,79.72C17.12,64.03,18.72,62.29,34.49,45.24C18.76,28.22,17.16,26.45,17,10.75C17,6.61,18.6,5,22.72,5L24.77,5C20.79,5,19.25,6.6,19.25,10.72Z" fill="currentColor" opacity="0.5"/><path d="M72.91,14.98C72.17,14.85,66.65,14,45,14C23.44,14,17.87,14.84,17.1,14.98C17.07,14.35,17.05,13.69,17.04,13L72.97,13C72.95,13.69,72.93,14.35,72.91,14.98Z" fill="currentColor"/><path d="M16,5C13.79,5,12,6.79,12,9C12,11.21,13.79,13,16,13L74,13C76.21,13,78,11.21,78,9C78,6.79,76.21,5,74,5Z" fill="currentColor"/><path d="M16,5L31,5C27.39,6.44,27.39,11.56,31,13L16,13C13.79,13,12,11.21,12,9C12,6.79,13.79,5,16,5Z" fill="currentColor" opacity="0.5"/><path d="M16,5L68,5L17.03,5.75C14.87,5.78,12.92,7.04,12,9C12,6.79,13.79,5,16,5Z" fill="currentColor"/><path d="M16,77C13.79,77,12,78.79,12,81C12,83.21,13.79,85,16,85L74,85C76.21,85,78,83.21,78,81C78,78.79,76.21,77,74,77Z" fill="currentColor"/><path d="M16,77L31,77C27.39,78.44,27.39,83.56,31,85L16,85C13.79,85,12,83.21,12,81C12,78.79,13.79,77,16,77Z" fill="currentColor" opacity="0.5"/><path d="M16,77L68,77L17.03,77.75C14.87,77.78,12.92,79.04,12,81C12,78.79,13.79,77,16,77Z" fill="currentColor"/></svg>