<svg xmlns="http://www.w3.org/2000/svg" viewBox="0 0 90 90"><path d="M35.49,46.24C19.76,29.22,18.16,27.45,18,11.75C18,7.61,19.6,6,23.72,6L68.28,6C72.4,6,74,7.61,74,11.75C73.88,27.45,72.28,29.18,56.51,46.24C72.24,63.25,73.84,65.03,74,80.72C74,83.96,18,83.56,18,80.72C18.12,65.03,19.72,63.3,35.49,46.24Z" fill="currentColor"/><path d="M46,81C58.17,81,65,80,65,80C65,63.72,49.13,70.28,49.13,57.6L49.13,55.92C49.13,51.8,49.95,49,51.96,45.92L59.04,35.4C62.17,30.72,29.77,30.6,32.9,35.28L40.1,45.96C42.23,49.04,43.05,51.84,43.05,55.96L43.05,57.64C43.05,70.32,27,63.76,27,80.04L27,80C27,80,33.83,81,46,81Z" fill="currentColor"/><path d="M31.25,11.72C31.36,27.32,32.48,29.08,43.42,46C32.45,62.96,31.33,64.68,31.25,80.28C31.25,83.11,70.21,83.5,70.21,80.28C70.12,66.88,69.28,63.69,62.11,52.34C72.64,63.98,73.86,67.13,74,80.72C74,83.96,18,83.56,18,80.72C18.12,65.03,19.72,63.3,35.49,46.24C19.76,29.22,18.16,27.45,18,11.75C18,7.61,19.6,6,23.72,6L35.23,6C32.37,6,31.25,7.6,31.25,11.72Z" fill="currentColor" opacity="0.5"/><path d="M74,11.75C73.89,25.76,72.6,28.64,61.11,41.23C69.23,28.54,70.14,25.72,70.21,11.72C70.21,7.6,69.1,6,66.23,6L68.28,6C72.4,6,74,7.61,74,11.75Z" fill="currentColor" opacity="0.5"/><path d="M20.25,11.72C20.41,27.32,21.95,29.08,37.11,46C21.91,62.96,20.37,64.68,20.25,80.28C20.25,83,70.33,83.47,74,80.62C74,80.65,74,80.68,74,80.72C74,83.96,18,83.56,18,80.72C18.12,65.03,19.72,63.29,35.49,46.24C19.76,29.22,18.16,27.45,18,11.75C18,7.61,19.6,6,23.72,6L25.77,6C21.79,6,20.25,7.6,20.25,11.72Z" fill="currentColor" opacity="0.25"/><path d="M73.91,15.98C73.17,15.85,67.65,15,46,15C24.44,15,18.87,15.84,18.1,15.98C18.07,15.35,18.05,14.69,18.04,14L73.97,14C73.95,14.69,73.93,15.35,73.91,15.98Z" fill="currentColor"/><path d="M17,6C14.79,6,13,7.79,13,10C13,12.21,14.79,14,17,14L75,14C77.21,14,79,12.21,79,10C79,7.79,77.21,6,75,6Z" fill="currentColor"/><path d="M17,6L32,6C28.39,7.44,28.39,12.56,32,14L17,14C14.79,14,13,12.21,13,10C13,7.79,14.79,6,17,6Z" fill="currentColor" opacity="0.5"/><path d="M17,6L69,6L18.03,6.75C15.87,6.78,13.92,8.04,13,10C13,7.79,14.79,6,17,6Z" fill="currentColor"/><path d="M17,78C14.79,78,13,79.79,13,82C13,84.21,14.79,86,17,86L75,86C77.21,86,79,84.21,79,82C79,79.79,77.21,78,75,78Z" fill="currentColor"/><path d="M17,78L32,78C28.39,79.44,28.39,84.56,32,86L17,86C14.79,86,13,84.21,13,82C13,79.79,14.79,78,17,78Z" fill="currentColor" opacity="0.5"/><path d="M17,78L69,78L18.03,78.75C15.87,78.78,13.92,80.04,13,82C13,79.79,14.79,78,17,78Z" fill="currentColor"/></svg>