<svg width="91" height="90" viewBox="0 0 91 90" fill="none" xmlns="http://www.w3.org/2000/svg">
<path d="M2.84824 46.9155C1.16908 46.1904 1.16908 43.8094 2.84824 43.0843L7.68896 40.994C13.461 38.5014 15.7335 31.5076 12.5288 26.0983L9.8413 21.5619C8.90903 19.9883 10.3085 18.062 12.0932 18.4624L17.2381 19.6166C23.3729 20.9928 29.3222 16.6704 29.9091 10.4106L30.4012 5.16078C30.572 3.33974 32.8364 2.60397 34.0449 3.97688L37.5288 7.93473C41.683 12.6541 49.0368 12.6541 53.191 7.93473L56.6749 3.97688C57.8834 2.60397 60.1479 3.33974 60.3186 5.16078L60.8108 10.4106C61.3976 16.6704 67.347 20.9928 73.4818 19.6166L78.6267 18.4624C80.4113 18.062 81.8108 19.9883 80.8786 21.5619L78.191 26.0983C74.9864 31.5076 77.2588 38.5014 83.0309 40.994L87.8716 43.0843C89.5508 43.8094 89.5508 46.1904 87.8716 46.9155L83.0309 49.0058C77.2588 51.4984 74.9864 58.4922 78.191 63.9015L80.8786 68.4379C81.8108 70.0115 80.4113 71.9378 78.6267 71.5374L73.4818 70.3832C67.347 69.007 61.3976 73.3294 60.8108 79.5893L60.3186 84.839C60.1479 86.66 57.8834 87.3958 56.6749 86.0229L53.191 82.0651C49.0368 77.3457 41.683 77.3457 37.5288 82.0651L34.0449 86.0229C32.8364 87.3958 30.572 86.66 30.4012 84.839L29.9091 79.5893C29.3222 73.3294 23.3729 69.007 17.2381 70.3832L12.0932 71.5374C10.3085 71.9378 8.90903 70.0115 9.8413 68.4379L12.5288 63.9015C15.7335 58.4922 13.461 51.4984 7.68896 49.0058L2.84824 46.9155Z" fill="#E3AA24"/>
<path fill-rule="evenodd" clip-rule="evenodd" d="M0.629684 44.0424C-0.209896 44.405 -0.209894 45.5955 0.629685 45.958L7.68845 49.0061C13.4606 51.4987 15.733 58.4926 12.5284 63.9018L8.60933 70.5168C8.1432 71.3036 8.84295 72.2668 9.73528 72.0666L17.2376 70.3835C23.3724 69.0073 29.3218 73.3297 29.9086 79.5896L30.6263 87.2448C30.7116 88.1553 31.8439 88.5232 32.4481 87.8367L37.5283 82.0654C41.6826 77.346 49.0364 77.346 53.1906 82.0654L58.2708 87.8367C58.875 88.5232 60.0073 88.1553 60.0926 87.2448L60.8103 79.5896C61.3972 73.3297 67.3465 69.0073 73.4813 70.3835L80.9836 72.0666C81.8759 72.2668 82.5757 71.3036 82.1096 70.5168L78.1906 63.9018C74.9859 58.4925 77.2584 51.4987 83.0305 49.0061L90.0892 45.958C90.9288 45.5955 90.9288 44.405 90.0892 44.0424L83.0305 40.9943C77.2584 38.5018 74.9859 31.5079 78.1906 26.0986L82.1096 19.4836C82.5757 18.6968 81.8759 17.7337 80.9836 17.9338L73.4813 19.6169C67.3465 20.9931 61.3972 16.6707 60.8103 10.4109L60.0926 2.75565C60.0073 1.84513 58.875 1.47725 58.2708 2.1637L53.1906 7.93506C49.0364 12.6544 41.6826 12.6544 37.5283 7.93505L32.4481 2.1637C31.8439 1.47725 30.7116 1.84513 30.6263 2.75565L29.9086 10.4109C29.3218 16.6707 23.3724 20.9931 17.2376 19.6169L9.73528 17.9338C8.84295 17.7337 8.1432 18.6968 8.60933 19.4836L12.5284 26.0986C15.733 31.5079 13.4606 38.5018 7.68844 40.9943L0.629684 44.0424ZM13.7568 22.0394C18.6966 30.3774 15.1937 41.158 6.29638 45.0001C15.1937 48.8422 18.6966 59.6228 13.7568 67.9608C23.2132 65.8394 32.3837 72.5022 33.2883 82.1513C39.6918 74.8767 51.0272 74.8767 57.4306 82.1513C58.3352 72.5022 67.5057 65.8394 76.9621 67.9608C72.0224 59.6228 75.5252 48.8422 84.4225 45.0001C75.5252 41.158 72.0224 30.3774 76.9621 22.0394C67.5057 24.1608 58.3352 17.498 57.4306 7.84894C51.0272 15.1235 39.6918 15.1235 33.2883 7.84894C32.3837 17.498 23.2132 24.1608 13.7568 22.0394Z" fill="#F7C631"/>
<path d="M45.3594 70C59.1665 70 70.3594 58.8071 70.3594 45C70.3594 31.1929 59.1665 20 45.3594 20C31.5523 20 20.3594 31.1929 20.3594 45C20.3594 58.8071 31.5523 70 45.3594 70Z" fill="#FAD541"/>
<path d="M45.3594 61C54.196 61 61.3594 53.8366 61.3594 45C61.3594 36.1634 54.196 29 45.3594 29C36.5228 29 29.3594 36.1634 29.3594 45C29.3594 53.8366 36.5228 61 45.3594 61Z" fill="#FFFFC7"/>
</svg>
