<svg xmlns="http://www.w3.org/2000/svg" viewBox="0 0 90 90"><path d="M12.48,24.11C25.98,6.78,34.82,2.98,42.84,3.55Z" fill="currentColor"/><path d="M85.45,46.28C85.99,54.17,82.34,63.12,64.88,76.49Z" fill="currentColor"/><path d="M34.1,41.39C29.59,36.88,15.42,51.56,-0.5,65.31C7.24,55.46,16.75,37.03,33.4,20.27C49.87,3.93,65.12,2.2,80.98,3.69C83.31,3.91,85.17,5.76,85.4,8.08C86.99,24.04,85.29,39.15,68.77,55.61C52.12,72.25,33.55,81.78,23.7,89.64C37.46,73.77,52.15,59.46,47.64,54.95C43.37,50.56,18.34,75.63,-0.2,89.2C13.42,70.8,38.5,45.78,34.1,41.39Z" fill="currentColor"/><path d="M59.01,64.48C45.29,75.86,31.65,83.3,23.7,89.64C37.46,73.77,52.15,59.46,47.64,54.95C43.37,50.56,18.33,75.63,-0.2,89.2C13.42,70.8,38.49,45.78,34.1,41.39C29.59,36.88,15.42,51.56,-0.5,65.31C5.76,57.34,13.18,43.77,24.59,30C35.14,24.3,43.8,21.38,47.05,24.63C50.57,28.14,48.38,36.05,43.4,45.63C52.98,40.65,60.89,38.47,64.4,41.98C67.66,45.24,64.72,53.91,59.01,64.48Z" fill="currentColor" opacity="0.5"/><path d="M51.97,70.01C45.95,74.51,40.14,78.33,35.02,81.71L32.74,79.43C43.02,67.92,51.15,58.46,47.64,54.95C45.07,52.32,35.01,60.31,23.37,70.06L19.01,65.7C28.76,54.09,36.74,44.02,34.1,41.39C30.58,37.87,21.18,46.04,9.65,56.33L7.34,54.03C10.71,48.91,14.53,43.09,19.05,37.05C25.62,34.7,32.14,33.68,35.42,36.96C39.1,40.65,38.26,46.91,35.91,53.12C42.12,50.77,48.39,49.93,52.07,53.61C55.36,56.9,54.33,63.43,51.97,70.01Z" fill="currentColor"/><path d="M36.7,80.6C31.61,83.97,27.13,86.9,23.7,89.64C30.6,81.67,37.74,74.1,42.57,67.96C41.66,71.32,39.55,75.7,36.7,80.6Z" fill="currentColor"/><path d="M20.28,68.75C25.05,65.79,29.46,63.43,33.13,62.1C23.35,69.72,10.49,81.37,-0.2,89.2C7.63,78.63,19.23,65.87,26.86,56.09C25.51,59.73,23.19,64.07,20.28,68.75Z" fill="currentColor"/><path d="M-0.5,65.31C2.2,61.87,5.12,57.39,8.47,52.3C13.41,49.44,17.81,47.32,21.17,46.43C15.06,51.25,7.5,58.4,-0.5,65.31Z" fill="currentColor"/><path d="M85.4,8.08C86.99,24.04,85.29,39.15,68.77,55.61C66.35,58.03,63.88,60.3,61.41,62.44C75.31,45.89,77.76,31.19,77.48,16C77.44,13.49,75.58,11.64,73.06,11.61C57.92,11.43,43.08,13.94,26.46,27.8C28.63,25.28,30.94,22.76,33.4,20.28C49.87,3.93,65.12,2.2,80.98,3.69C83.31,3.91,85.17,5.76,85.4,8.08Z" fill="currentColor" opacity="0.5"/><path d="M85.4,8.08C86.99,24.04,85.29,39.15,68.77,55.61C68.01,56.38,67.24,57.13,66.46,57.87C81.89,41.48,83.76,26.58,82.54,10.94C82.35,8.57,80.49,6.72,78.12,6.55C62.55,5.43,47.49,7.34,31.05,22.69C31.82,21.89,32.6,21.08,33.4,20.28C49.87,3.93,65.12,2.2,80.98,3.69C83.31,3.91,85.17,5.76,85.4,8.08Z" fill="currentColor"/></svg>