<svg xmlns="http://www.w3.org/2000/svg" viewBox="0 0 90 90" fill="currentColor"><path d="M3.35,47.92L8.19,50.01C13.96,52.5,16.23,59.49,13.03,64.9L10.34,69.44C9.41,71.01,10.81,72.94,12.59,72.54L17.74,71.38C23.87,70.01,29.82,74.33,30.41,80.59L30.9,85.84C31.07,87.66,33.34,88.4,34.54,87.02L38.03,83.07C42.18,78.35,49.54,78.35,53.69,83.07L57.17,87.02C58.38,88.4,60.65,87.66,60.82,85.84L61.31,80.59C61.9,74.33,67.85,70.01,73.98,71.38L79.13,72.54C80.91,72.94,82.31,71.01,81.38,69.44L78.69,64.9C75.49,59.49,77.76,52.5,83.53,50.01L88.37,47.92C90.05,47.19,90.05,44.81,88.37,44.08L83.53,41.99C77.76,39.5,75.49,32.51,78.69,27.1L81.38,22.56C82.31,20.99,80.91,19.06,79.13,19.46L73.98,20.62C67.85,21.99,61.9,17.67,61.31,11.41L60.82,6.16C60.65,4.34,58.38,3.6,57.17,4.98L53.69,8.94C49.54,13.65,42.18,13.65,38.03,8.94L34.54,4.98C33.34,3.6,31.07,4.34,30.9,6.16L30.41,11.41C29.82,17.67,23.87,21.99,17.74,20.62L12.59,19.46C10.81,19.06,9.41,20.99,10.34,22.56L13.03,27.1C16.23,32.51,13.96,39.5,8.19,41.99L3.35,44.08C1.67,44.81,1.67,47.19,3.35,47.92ZM1.13,45.04L8.19,41.99C13.96,39.5,16.23,32.51,13.03,27.1L9.11,20.48C8.64,19.7,9.34,18.73,10.24,18.93L17.74,20.62C23.87,21.99,29.82,17.67,30.41,11.41L31.13,3.76C31.21,2.85,32.34,2.48,32.95,3.16L38.03,8.94C42.18,13.65,49.54,13.65,53.69,8.94L58.77,3.16C59.38,2.48,60.51,2.85,60.59,3.76L61.31,11.41C61.9,17.67,67.85,21.99,73.98,20.62L81.48,18.93C82.38,18.73,83.08,19.7,82.61,20.48L78.69,27.1C75.49,32.51,77.76,39.5,83.53,41.99L90.59,45.04C91.43,45.4,91.43,46.6,90.59,46.96L83.53,50.01C77.76,52.5,75.49,59.49,78.69,64.9L82.61,71.52C83.08,72.3,82.38,73.27,81.48,73.07L73.98,71.38C67.85,70.01,61.9,74.33,61.31,80.59L60.59,88.24C60.51,89.16,59.38,89.52,58.77,88.84L53.69,83.07C49.54,78.35,42.18,78.35,38.03,83.07L32.95,88.84C32.34,89.52,31.21,89.16,31.13,88.24L30.41,80.59C29.82,74.33,23.87,70.01,17.74,71.38L10.24,73.07C9.34,73.27,8.64,72.3,9.11,71.52L13.03,64.9C16.23,59.49,13.96,52.5,8.19,50.01L1.13,46.96C0.29,46.6,0.29,45.4,1.13,45.04ZM6.8,46C15.69,42.16,19.2,31.38,14.26,23.04C23.71,25.16,32.88,18.5,33.79,8.85C40.19,16.12,51.53,16.12,57.93,8.85C58.84,18.5,68.01,25.16,77.46,23.04C72.52,31.38,76.03,42.16,84.92,46C76.03,49.84,72.52,60.62,77.46,68.96C68.01,66.84,58.84,73.5,57.93,83.15C51.53,75.88,40.19,75.88,33.79,83.15C32.88,73.5,23.71,66.84,14.26,68.96C19.2,60.62,15.69,49.84,6.8,46ZM70.86,46C70.86,59.81,59.67,71,45.86,71C32.05,71,20.86,59.81,20.86,46C20.86,32.19,32.05,21,45.86,21C59.67,21,70.86,32.19,70.86,46ZM61.86,46C61.86,54.84,54.7,62,45.86,62C37.02,62,29.86,54.84,29.86,46C29.86,37.16,37.02,30,45.86,30C54.7,30,61.86,37.16,61.86,46Z"/></svg>