<svg xmlns="http://www.w3.org/2000/svg" viewBox="0 0 90 90" fill="currentColor"><path d="M3.49,49.4L8.33,51.48C14.1,53.98,16.37,60.97,13.17,66.38L10.48,70.92C9.55,72.49,10.95,74.42,12.73,74.01L17.88,72.86C24.01,71.48,29.96,75.81,30.55,82.07L31.04,87.32C31.21,89.14,33.48,89.87,34.69,88.5L38.17,84.54C42.32,79.82,49.68,79.82,53.83,84.54L57.31,88.5C58.52,89.87,60.79,89.14,60.96,87.32L61.45,82.07C62.04,75.81,67.99,71.48,74.12,72.86L79.27,74.01C81.05,74.42,82.45,72.49,81.52,70.92L78.83,66.38C75.63,60.97,77.9,53.98,83.67,51.48L88.51,49.4C89.5,48.96,89.2,47.48,88.11,47.48L3.89,47.48C2.8,47.48,2.5,48.96,3.49,49.4ZM88.31,49.48L83.67,51.48C77.9,53.98,75.63,60.97,78.83,66.38L82.75,72.99C83.22,73.78,82.52,74.74,81.62,74.54L74.12,72.86C67.99,71.48,62.04,75.81,61.45,82.07L60.73,89.72C60.65,90.63,59.52,91,58.91,90.31L53.83,84.54C49.68,79.82,42.32,79.82,38.17,84.54L33.09,90.31C32.48,91,31.35,90.63,31.27,89.72L30.55,82.07C29.96,75.81,24.01,71.48,17.88,72.86L10.38,74.54C9.48,74.74,8.78,73.78,9.25,72.99L13.17,66.38C16.37,60.97,14.1,53.98,8.33,51.48L3.69,49.48C2.65,49.03,2.96,47.5,4.08,47.48L6.94,47.48C15.83,51.32,19.34,62.1,14.4,70.44C23.85,68.32,33.02,74.98,33.93,84.63C40.33,77.35,51.67,77.35,58.07,84.63C58.98,74.98,68.15,68.32,77.6,70.44C72.66,62.1,76.17,51.32,85.06,47.48L87.92,47.48C89.04,47.5,89.35,49.03,88.31,49.48ZM46,72.48C32.19,72.48,21,61.28,21,47.48L71,47.48C71,61.28,59.81,72.48,46,72.48ZM30,47.48C30,56.31,37.16,63.48,46,63.48C54.84,63.48,62,56.31,62,47.48ZM9,52.13C4.58,52.13,1,48.55,1,44.13L1,10.13C1,5.71,4.58,2.13,9,2.13L83,2.13C87.42,2.13,91,5.71,91,10.13L91,44.13C91,48.55,87.42,52.13,83,52.13ZM9,52.13L81,52.13L11.95,49.76C7.38,49.61,3.64,46.04,3.29,41.47L1,12.13L1,44.13C1,48.55,4.58,52.13,9,52.13ZM83,2.13L35.65,2.13L80.75,4.02C85.28,4.21,88.96,7.74,89.34,12.26L91,32.13L91,10.13C91,5.71,87.42,2.13,83,2.13ZM63,40.13L63,14.13C63,11.37,65.24,9.13,68,9.13L78,9.13C80.76,9.13,83,11.37,83,14.13L83,40.13C83,42.89,80.76,45.13,78,45.13L68,45.13C65.24,45.13,63,42.89,63,40.13ZM69,15.13L69,39.13L77,39.13L77,15.13ZM53,45.13L41,45.13C38.24,45.13,36,42.89,36,40.13L36,14.13C36,11.37,38.24,9.13,41,9.13L51,9.13C53.76,9.13,56,11.37,56,14.13L56,27.13C56,29.89,53.76,32.13,51,32.13L42,32.13L42,39.13L53,39.13C54.66,39.13,56,40.47,56,42.13C56,43.78,54.66,45.13,53,45.13ZM50,15.13L42,15.13L42,26.13L50,26.13ZM10,40.13L10,28.13C10,25.37,12.24,23.13,15,23.13L23,23.13L23,15.13L13,15.13C11.34,15.13,10,13.78,10,12.13C10,10.47,11.34,9.13,13,9.13L24,9.13C26.76,9.13,29,11.37,29,14.13L29,40.13C29,42.89,26.76,45.13,24,45.13L15,45.13C12.24,45.13,10,42.89,10,40.13ZM16,29.13L16,39.13L23,39.13L23,29.13ZM15,45.13L25,45.13L15.41,44.15C13.03,43.91,11.16,42.01,10.94,39.62L10,29.13L10,40.13C10,42.89,12.24,45.13,15,45.13ZM41,45.13L51,45.13L41.41,44.15C39.03,43.91,37.16,42.01,36.94,39.62L36,29.13L36,40.13C36,42.89,38.24,45.13,41,45.13ZM68,45.13L78,45.13L68.41,44.15C66.03,43.91,64.16,42.01,63.94,39.62L63,29.13L63,40.13C63,42.89,65.24,45.13,68,45.13Z"/></svg>