<svg xmlns="http://www.w3.org/2000/svg" viewBox="0 0 90 90" fill="currentColor"><path d="M3.49,43.73L8.33,41.64C14.1,39.15,16.37,32.16,13.17,26.75L10.48,22.21C9.55,20.64,10.95,18.71,12.73,19.11L17.88,20.27C24.01,21.64,29.96,17.32,30.55,11.06L31.04,5.81C31.21,3.99,33.48,3.25,34.69,4.63L38.17,8.58C42.32,13.3,49.68,13.3,53.83,8.58L57.31,4.63C58.52,3.25,60.79,3.99,60.96,5.81L61.45,11.06C62.04,17.32,67.99,21.64,74.12,20.27L79.27,19.11C81.05,18.71,82.45,20.64,81.52,22.21L78.83,26.75C75.63,32.16,77.9,39.15,83.67,41.64L88.51,43.73C89.5,44.16,89.2,45.65,88.11,45.65L3.89,45.65C2.8,45.65,2.5,44.16,3.49,43.73ZM88.31,43.65L83.67,41.64C77.9,39.15,75.63,32.16,78.83,26.75L82.75,20.13C83.22,19.35,82.52,18.38,81.62,18.58L74.12,20.27C67.99,21.64,62.04,17.32,61.45,11.06L60.73,3.41C60.65,2.5,59.52,2.13,58.91,2.81L53.83,8.59C49.68,13.3,42.32,13.3,38.17,8.59L33.09,2.81C32.48,2.13,31.35,2.5,31.27,3.41L30.55,11.06C29.96,17.32,24.01,21.64,17.88,20.27L10.38,18.58C9.48,18.38,8.78,19.35,9.25,20.13L13.17,26.75C16.37,32.16,14.1,39.15,8.33,41.64L3.69,43.65C2.65,44.1,2.96,45.63,4.08,45.65L6.94,45.65C15.83,41.81,19.34,31.03,14.4,22.69C23.85,24.81,33.02,18.15,33.93,8.5C40.33,15.77,51.67,15.77,58.07,8.5C58.98,18.15,68.15,24.81,77.6,22.69C72.66,31.03,76.17,41.81,85.06,45.65L87.92,45.65C89.04,45.63,89.35,44.1,88.31,43.65ZM46,20.65C32.19,20.65,21,31.84,21,45.65L71,45.65C71,31.84,59.81,20.65,46,20.65ZM30,45.65C30,36.81,37.16,29.65,46,29.65C54.84,29.65,62,36.81,62,45.65ZM44.41,40.1L26.43,63.79C25.44,65.11,26.37,67,28.03,67L39,67L39,84C39,87.87,42.13,91,46,91C49.87,91,53,87.87,53,84L53,67L63.97,67C65.63,67,66.56,65.11,65.57,63.79L47.59,40.1C46.79,39.05,45.21,39.05,44.41,40.1Z"/></svg>