<svg xmlns="http://www.w3.org/2000/svg" viewBox="0 0 90 90"><path d="M2.49,42.73L7.33,40.64C13.1,38.15,15.37,31.16,12.17,25.75L9.48,21.21C8.55,19.64,9.95,17.71,11.73,18.11L16.88,19.27C23.01,20.64,28.96,16.32,29.55,10.06L30.04,4.81C30.21,2.99,32.48,2.25,33.69,3.63L37.17,7.58C41.32,12.3,48.68,12.3,52.83,7.58L56.31,3.63C57.52,2.25,59.79,2.99,59.96,4.81L60.45,10.06C61.04,16.32,66.99,20.64,73.12,19.27L78.27,18.11C80.05,17.71,81.45,19.64,80.52,21.21L77.83,25.75C74.63,31.16,76.9,38.15,82.67,40.64L87.51,42.73C88.5,43.16,88.2,44.65,87.11,44.65L2.89,44.65C1.8,44.65,1.5,43.16,2.49,42.73Z" fill="currentColor"/><path d="M87.31,42.65L82.67,40.64C76.9,38.15,74.63,31.16,77.83,25.75L81.75,19.13C82.22,18.35,81.52,17.38,80.62,17.58L73.12,19.27C66.99,20.64,61.04,16.32,60.45,10.06L59.73,2.41C59.65,1.5,58.52,1.13,57.91,1.81L52.83,7.59C48.68,12.3,41.32,12.3,37.17,7.59L32.09,1.81C31.48,1.13,30.35,1.5,30.27,2.41L29.55,10.06C28.96,16.32,23.01,20.64,16.88,19.27L9.38,17.58C8.48,17.38,7.78,18.35,8.25,19.13L12.17,25.75C15.37,31.16,13.1,38.15,7.33,40.64L2.69,42.65C1.65,43.1,1.96,44.63,3.08,44.65L5.94,44.65C14.83,40.81,18.34,30.03,13.4,21.69C22.85,23.81,32.02,17.15,32.93,7.5C39.33,14.77,50.67,14.77,57.07,7.5C57.98,17.15,67.15,23.81,76.6,21.69C71.66,30.03,75.17,40.81,84.06,44.65L86.92,44.65C88.04,44.63,88.35,43.1,87.31,42.65Z" fill="currentColor"/><path d="M45,19.65C31.19,19.65,20,30.84,20,44.65L70,44.65C70,30.84,58.81,19.65,45,19.65Z" fill="currentColor"/><path d="M29,44.65C29,35.81,36.16,28.65,45,28.65C53.84,28.65,61,35.81,61,44.65Z" fill="currentColor"/><path d="M43.41,39.1L25.43,62.79C24.44,64.11,25.37,66,27.03,66L38,66L38,83C38,86.87,41.13,90,45,90C48.87,90,52,86.87,52,83L52,66L62.97,66C64.63,66,65.56,64.11,64.57,62.79L46.59,39.1C45.79,38.05,44.21,38.05,43.41,39.1Z" fill="currentColor"/></svg>