<svg xmlns="http://www.w3.org/2000/svg" viewBox="0 0 90 90"><path d="M2.35,43.08L7.19,40.99C12.96,38.5,15.23,31.51,12.03,26.1L9.34,21.56C8.41,19.99,9.81,18.06,11.59,18.46L16.74,19.62C22.87,20.99,28.82,16.67,29.41,10.41L29.9,5.16C30.07,3.34,32.34,2.6,33.54,3.98L37.03,7.93C41.18,12.65,48.54,12.65,52.69,7.93L56.17,3.98C57.38,2.6,59.65,3.34,59.82,5.16L60.31,10.41C60.9,16.67,66.85,20.99,72.98,19.62L78.13,18.46C79.91,18.06,81.31,19.99,80.38,21.56L77.69,26.1C74.49,31.51,76.76,38.5,82.53,40.99L87.37,43.08C89.05,43.81,89.05,46.19,87.37,46.92L82.53,49.01C76.76,51.5,74.49,58.49,77.69,63.9L80.38,68.44C81.31,70.01,79.91,71.94,78.13,71.54L72.98,70.38C66.85,69.01,60.9,73.33,60.31,79.59L59.82,84.84C59.65,86.66,57.38,87.4,56.17,86.02L52.69,82.07C48.54,77.35,41.18,77.35,37.03,82.07L33.54,86.02C32.34,87.4,30.07,86.66,29.9,84.84L29.41,79.59C28.82,73.33,22.87,69.01,16.74,70.38L11.59,71.54C9.81,71.94,8.41,70.01,9.34,68.44L12.03,63.9C15.23,58.49,12.96,51.5,7.19,49.01L2.35,46.92C0.67,46.19,0.67,43.81,2.35,43.08Z" fill="currentColor"/><path d="M0.13,45.96L7.19,49.01C12.96,51.5,15.23,58.49,12.03,63.9L8.11,70.52C7.64,71.3,8.34,72.27,9.24,72.07L16.74,70.38C22.87,69.01,28.82,73.33,29.41,79.59L30.13,87.24C30.21,88.16,31.34,88.52,31.95,87.84L37.03,82.07C41.18,77.35,48.54,77.35,52.69,82.07L57.77,87.84C58.38,88.52,59.51,88.16,59.59,87.24L60.31,79.59C60.9,73.33,66.85,69.01,72.98,70.38L80.48,72.07C81.38,72.27,82.08,71.3,81.61,70.52L77.69,63.9C74.49,58.49,76.76,51.5,82.53,49.01L89.59,45.96C90.43,45.6,90.43,44.41,89.59,44.04L82.53,40.99C76.76,38.5,74.49,31.51,77.69,26.1L81.61,19.48C82.08,18.7,81.38,17.73,80.48,17.93L72.98,19.62C66.85,20.99,60.9,16.67,60.31,10.41L59.59,2.76C59.51,1.85,58.38,1.48,57.77,2.16L52.69,7.94C48.54,12.65,41.18,12.65,37.03,7.94L31.95,2.16C31.34,1.48,30.21,1.85,30.13,2.76L29.41,10.41C28.82,16.67,22.87,20.99,16.74,19.62L9.24,17.93C8.34,17.73,7.64,18.7,8.11,19.48L12.03,26.1C15.23,31.51,12.96,38.5,7.19,40.99L0.13,44.04C-0.71,44.41,-0.71,45.6,0.13,45.96Z" fill="currentColor"/><path d="M5.8,45C14.69,48.84,18.2,59.62,13.26,67.96C22.71,65.84,31.88,72.5,32.79,82.15C39.19,74.88,50.53,74.88,56.93,82.15C57.84,72.5,67.01,65.84,76.46,67.96C71.52,59.62,75.03,48.84,83.92,45C75.03,41.16,71.52,30.38,76.46,22.04C67.01,24.16,57.84,17.5,56.93,7.85C50.53,15.12,39.19,15.12,32.79,7.85C31.88,17.5,22.71,24.16,13.26,22.04C18.2,30.38,14.69,41.16,5.8,45Z" fill="currentColor"/><path d="M69.86,45C69.86,31.19,58.67,20,44.86,20C31.05,20,19.86,31.19,19.86,45C19.86,58.81,31.05,70,44.86,70C58.67,70,69.86,58.81,69.86,45Z" fill="currentColor"/><path d="M60.86,45C60.86,36.16,53.7,29,44.86,29C36.02,29,28.86,36.16,28.86,45C28.86,53.84,36.02,61,44.86,61C53.7,61,60.86,53.84,60.86,45Z" fill="currentColor"/></svg>