<svg xmlns="http://www.w3.org/2000/svg" viewBox="0 0 90 90"><path d="M3.57,52.37L16.25,43.37C15.96,41.8,15.83,40.3,15.85,38.88Z" fill="#666564"/><path d="M25.07,61L3.67,86.86L29.5,65.49C28.76,64.85,28.05,64.2,27.38,63.51L27.37,63.51C26.57,62.71,25.81,61.88,25.07,61Z" fill="#666564"/><path d="M43.61,73.89L30.77,90L50.32,74.42L43.6,73.89C43.6,73.89,43.6,73.89,43.61,73.89Z" fill="#666564"/><path d="M82.92,7.43C76.48,0.99,50.25,3.37,38.95,14.67C38.93,14.69,38.92,14.7,38.9,14.72L21.67,31.95C15.9,37.72,20.74,51.85,29.61,60.73C35.54,66.66,50.63,76.44,58.39,68.68L75.67,51.4L75.67,51.39C86.96,40.1,89.35,13.86,82.92,7.43Z" fill="#F7C631"/><path d="M58.39,68.68L75.67,51.4L75.67,51.39C86.96,40.1,89.35,13.86,82.92,7.43C79.51,4.02,70.55,3.08,61.2,4.63L71.65,5.05C74.2,5.15,76.68,5.99,78.77,7.46C80.95,9,81.66,11.92,80.42,14.28C69.65,34.91,53.74,52.27,34.4,64.77C41.55,69.99,52.26,74.81,58.39,68.68Z" fill="#E3AA24"/><path d="M58.39,68.68L75.67,51.4L75.67,51.39C80.73,46.33,84,38.27,85.49,30.34C74.88,46.2,61.33,59.88,45.6,70.65C50.35,72.11,55.05,72.02,58.39,68.68Z" fill="#FAD541"/><path d="M75.46,8.54C55.43,7.31,36.69,20.83,25.92,37.41C45.5,24.3,57.44,14.99,75.46,8.54Z" fill="#FFF599"/><path d="M38.95,14.67L38.9,14.72L21.67,31.95C15.9,37.72,20.74,51.85,29.61,60.73C34.7,65.81,46.53,73.74,54.69,70.99L47.99,70.15C46.8,70,45.63,69.7,44.51,69.26C33.24,64.81,24.98,54.97,22.56,43.1L22.33,41.97C21.64,38.61,22.51,35.12,24.69,32.47L30.65,25.22C39.29,14.72,51.05,7.4,64.08,4.23C54.94,5.26,44.88,8.74,38.95,14.67Z" fill="#FCE26A"/><path d="M41.42,15.32C35.65,21.09,40.49,35.22,49.37,44.1C53.86,48.59,63.63,55.31,71.47,54.9C63.32,58.94,50.55,50.47,45.21,45.13C36.33,36.26,31.5,22.13,37.27,16.36L39.08,14.54C41.56,12.1,44.74,10.08,48.26,8.48Z" fill="#FCE26A"/><path d="M39.34,14.28C33.57,20.05,38.41,34.18,47.29,43.06C53.2,48.97,68.23,58.72,76.01,51.06L72.95,54.13C65.19,61.88,50.1,52.1,44.17,46.17C35.29,37.3,30.46,23.17,36.23,17.4L53.46,0.17L53.5,0.12C53.54,0.08,53.58,0.04,53.62,0Z" fill="#CF8D1B"/></svg>