<svg xmlns="http://www.w3.org/2000/svg" viewBox="0 0 90 90"><path d="M39.57,6.14L39.57,17.5L50.42,17.5L50.42,6.14Z" fill="#5D9948"/><path d="M39.57,6L39.57,12C43.06,10.64,46.93,10.64,50.42,12L50.42,6Z" fill="#305730"/><path d="M35,0L55,0C56.66,0,58,1.34,58,3L58,7C58,8.66,56.66,10,55,10L35,10C33.34,10,32,8.66,32,7L32,3C32,1.34,33.34,0,35,0Z" fill="#81B64C"/><path d="M32,3C32,1.34,33.34,0,35,0L49,0L37.72,0.56C35.08,0.7,32.87,2.62,32.39,5.22L32,7.29Z" fill="#B2E068"/><path d="M55,0C56.66,0,58,1.34,58,3L58,7C58,8.66,56.66,10,55,10L51,10C51.66,6.7,51.66,3.3,51,0Z" fill="#5D9948"/><path d="M82,53C82,32.57,65.43,16,45,16C24.57,16,8,32.57,8,53C8,73.43,24.57,90,45,90C65.43,90,82,73.43,82,53Z" fill="#204227"/><path d="M82,51C82,30.57,65.43,14,45,14C24.57,14,8,30.57,8,51C8,71.43,24.57,88,45,88C65.43,88,82,71.43,82,51Z" fill="#5D9948"/><path d="M45,14C24.57,14,8,30.57,8,51C8,59.85,11.1,67.97,16.28,74.33C43.12,70.22,63.85,47.55,64.95,19.84C59.2,16.14,52.35,14,45,14Z" fill="#81B64C"/><path d="M73,51C73,35.54,60.46,23,45,23C29.54,23,17,35.54,17,51C17,66.46,29.54,79,45,79C60.46,79,73,66.46,73,51Z" fill="#45753C"/><path d="M82,51C82,71.43,65.43,88,45,88C62.71,84.91,76.91,71.65,81.21,54.19Z" fill="#81B64C"/><path d="M43.97,14.15C25.06,16.95,10.34,32.03,8,51C8,30.57,24.57,14,45,14Z" fill="#B2E068"/><path d="M45,23C29.54,23,17,35.54,17,51C17,59.28,20.6,66.73,26.31,71.85C44.96,65.4,59.26,49.62,63.62,30.09C58.67,25.68,52.15,23,45,23Z" fill="#5D9948"/><path d="M70,51C70,37.19,58.81,26,45,26C31.19,26,20,37.19,20,51C20,64.81,31.19,76,45,76C58.81,76,70,64.81,70,51Z" fill="#DAD8D6"/><path d="M45,26C31.19,26,20,37.19,20,51C20,58.96,23.72,66.05,29.52,70.63C45.55,63.98,57.92,50.29,62.77,33.41C58.24,28.84,51.95,26,45,26Z" fill="white"/><path d="M44.02,29.24C44.31,27.95,46.11,27.82,46.57,29.07L55.12,52.4C57.04,57.66,53.32,63.28,47.73,63.56C42.98,63.8,39,60.02,39,55.26L39,52Z" fill="#DAD8D6"/><path d="M39,52.23L39,52.5C39,55.81,41.69,58.5,45,58.5C48.31,58.5,51,55.81,51,52.5L51,52.23C51,50.63,50.69,49.05,50.1,47.56L46.18,37.8C45.98,37.31,45.52,37,45,37C44.48,37,44.02,37.31,43.82,37.8L39.9,47.56C39.31,49.05,39,50.63,39,52.23Z" fill="#4B4847"/><path d="M39,50.92L39,51C39,54.31,41.69,57,45,57C48.31,57,51,54.31,51,51L51,50.92C51,49.94,50.88,48.97,50.65,48.02L45.97,28.96C45.72,27.94,44.28,27.94,44.03,28.96L39.35,48.02C39.12,48.97,39,49.94,39,50.92Z" fill="#666564"/><path d="M45,46C45,49.76,44.17,53.33,42.68,56.53C40.52,55.63,39,53.49,39,51L39,50.92C39,49.94,39.12,48.97,39.35,48.02L44.03,28.96C44.15,28.45,44.58,28.2,45,28.2Z" fill="#8B8987"/></svg>