<svg xmlns="http://www.w3.org/2000/svg" viewBox="0 0 90 90"><path d="M86.91,57.87C82.97,59.01,78.8,59.61,74.49,59.61C49.68,59.61,29.57,39.47,29.57,14.61C29.57,10.47,30.13,6.47,31.17,2.66C31.63,0.97,29.98,-0.6,28.43,0.22C14.2,7.78,4.5,22.77,4.5,40.02C4.5,64.88,24.61,85.03,49.42,85.03C66.83,85.03,81.93,75.1,89.39,60.58C90.19,59.02,88.6,57.39,86.91,57.87Z" fill="#5E53D9"/><path d="M86.91,57.87C82.97,59.01,78.8,59.61,74.49,59.61C49.68,59.61,29.57,39.47,29.57,14.61C29.57,10.47,30.13,6.47,31.17,2.66C31.63,0.97,29.98,-0.6,28.43,0.22C14.2,7.78,4.5,22.77,4.5,40.02C4.5,64.88,24.61,85.03,49.42,85.03C66.83,85.03,81.93,75.1,89.39,60.58C90.19,59.02,88.6,57.39,86.91,57.87Z" fill="#5E53D9"/><path d="M72.92,60.67C48.4,60.67,28.53,41,28.53,16.73C28.53,11.43,29.47,6.36,31.21,1.65C31.27,1.97,31.27,2.32,31.17,2.66C30.13,6.47,29.57,10.47,29.57,14.61C29.57,39.47,49.68,59.61,74.49,59.61C78.8,59.61,82.97,59.01,86.91,57.87C87.42,57.73,87.92,57.77,88.34,57.95C83.54,59.71,78.35,60.67,72.92,60.67Z" fill="#9881F2"/><path d="M52.08,76.69C43.17,71.68,35.57,64.43,29.96,55.6C24.36,46.76,20.92,36.62,19.95,26.04C19.29,18.94,19.77,11.79,21.34,4.89C11.07,13.14,4.5,25.81,4.5,40.02C4.5,64.88,24.61,85.03,49.42,85.03C54.99,85.03,60.32,84.01,65.24,82.16C60.69,80.88,56.27,79.05,52.08,76.69Z" fill="#7A66F4"/><path d="M50.46,83.97C25.66,83.97,5.54,63.82,5.54,38.97C5.54,26.9,10.28,15.95,17.99,7.87C9.67,16.04,4.5,27.43,4.5,40.02C4.5,64.88,24.61,85.03,49.42,85.03C62.18,85.03,73.7,79.7,81.88,71.13C73.78,79.07,62.69,83.97,50.46,83.97Z" fill="#9881F2"/></svg>