<svg xmlns="http://www.w3.org/2000/svg" viewBox="0 0 90 90" fill="currentColor"><path d="M3.49,44.08L8.33,41.99C14.1,39.5,16.37,32.51,13.17,27.1L10.48,22.56C9.55,20.99,10.95,19.06,12.73,19.46L17.88,20.62C24.01,21.99,29.96,17.67,30.55,11.41L31.04,6.16C31.21,4.34,33.48,3.6,34.69,4.98L38.17,8.93C42.32,13.65,49.68,13.65,53.83,8.93L57.31,4.98C58.52,3.6,60.79,4.34,60.96,6.16L61.45,11.41C62.04,17.67,67.99,21.99,74.12,20.62L79.27,19.46C81.05,19.06,82.45,20.99,81.52,22.56L78.83,27.1C75.63,32.51,77.9,39.5,83.67,41.99L88.51,44.08C89.5,44.51,89.2,46,88.11,46L3.89,46C2.8,46,2.5,44.51,3.49,44.08ZM88.31,44L83.67,41.99C77.9,39.5,75.63,32.51,78.83,27.1L82.75,20.48C83.22,19.7,82.52,18.73,81.62,18.93L74.12,20.62C67.99,21.99,62.04,17.67,61.45,11.41L60.73,3.76C60.65,2.85,59.52,2.48,58.91,3.16L53.83,8.94C49.68,13.65,42.32,13.65,38.17,8.94L33.09,3.16C32.48,2.48,31.35,2.85,31.27,3.76L30.55,11.41C29.96,17.67,24.01,21.99,17.88,20.62L10.38,18.93C9.48,18.73,8.78,19.7,9.25,20.48L13.17,27.1C16.37,32.51,14.1,39.5,8.33,41.99L3.69,44C2.65,44.45,2.96,45.98,4.08,46L6.94,46C15.83,42.16,19.34,31.38,14.4,23.04C23.85,25.16,33.02,18.5,33.93,8.85C40.33,16.12,51.67,16.12,58.07,8.85C58.98,18.5,68.15,25.16,77.6,23.04C72.66,31.38,76.17,42.16,85.06,46L87.92,46C89.04,45.98,89.35,44.45,88.31,44ZM46,21C32.19,21,21,32.19,21,46L71,46C71,32.19,59.81,21,46,21ZM30,46C30,37.16,37.16,30,46,30C54.84,30,62,37.16,62,46ZM63.97,63C65.63,63,66.57,64.89,65.57,66.21L47.59,89.9C46.79,90.95,45.21,90.95,44.41,89.9L26.43,66.21C25.44,64.89,26.37,63,28.03,63L39,63L39,46C39,42.13,42.13,39,46,39C49.87,39,53,42.13,53,46L53,63Z"/></svg>