<svg xmlns="http://www.w3.org/2000/svg" viewBox="0 0 90 90" fill="currentColor"><path d="M77.75,34.33L56.5,34.33L65.77,12.43C66.42,10.9,66.19,9.14,65.19,7.82C64.31,6.67,62.95,6,61.51,6L30.68,6C28.62,6,26.79,7.34,26.17,9.32L13.51,49.99C13.18,51.05,13.36,52.21,13.99,53.13C14.67,54.1,15.78,54.69,16.97,54.69L36.16,54.69L28.88,86.36C28.64,87.4,28.85,88.49,29.45,89.36L29.57,89.53C30.2,90.45,31.25,91,32.37,91C33.29,91,34.18,90.62,34.82,89.95L80.91,41.75C82.39,40.2,82.54,37.82,81.27,36.11C80.44,34.99,79.14,34.33,77.75,34.33ZM64.46,8.68L52.71,34.33L78.38,34.33C80.04,34.33,80.9,36.32,79.75,37.52L32.32,87.38C31.95,87.77,31.44,87.99,30.9,87.99C29.66,87.99,28.73,86.85,28.97,85.64L35.78,51.67L15.55,51.67C14.28,51.67,13.37,50.44,13.75,49.22L26.17,9.32C26.79,7.34,28.62,6,30.68,6L62.74,6C64.12,6,65.03,7.42,64.46,8.68ZM78.38,34.41C80.04,34.41,80.89,36.4,79.75,37.6L32.32,87.38C31.95,87.77,31.44,87.99,30.9,87.99C29.66,87.99,28.73,86.85,28.97,85.64L35.78,51.67L35.54,51.67L53.24,34.41ZM14.89,45.55C14.46,46.94,14.7,48.34,15.39,49.45L58.84,6.01C58.73,6,58.62,6,58.52,6L30.68,6C30.57,6,30.45,6,30.33,6.01L25.84,10.39ZM26.17,9.32C26.79,7.34,28.62,6,30.68,6L45.15,6L37.19,6.31C31.73,6.52,26.95,10.08,25.19,15.26L14.91,45.48ZM64.68,8.69C65.26,7.44,64.35,6,62.96,6L47.04,6L59.56,6.5C61.51,6.58,62.79,8.55,62.08,10.37L52.71,34.33ZM79.75,37.52L32.32,87.38C31.95,87.77,31.44,87.99,30.9,87.99C29.66,87.99,28.73,86.85,28.97,85.64L35.59,52.65L31.38,82.12C31.25,83.01,32.32,83.56,32.97,82.93L80.03,37.15C79.96,37.28,79.86,37.41,79.75,37.52Z"/></svg>