<svg xmlns="http://www.w3.org/2000/svg" viewBox="0 0 90 90"><path d="M13.48,25.11C26.98,7.78,35.82,3.98,43.84,4.55Z" fill="currentColor"/><path d="M86.45,47.28C86.99,55.17,83.34,64.12,65.88,77.49Z" fill="currentColor"/><path d="M35.1,42.39C30.59,37.88,16.42,52.56,0.5,66.31C8.24,56.46,17.75,38.03,34.4,21.27C50.87,4.93,66.12,3.2,81.98,4.69C84.31,4.91,86.17,6.76,86.4,9.08C87.99,25.04,86.29,40.15,69.77,56.61C53.12,73.25,34.55,82.78,24.7,90.64C38.46,74.77,53.15,60.46,48.64,55.95C44.37,51.56,19.34,76.63,0.8,90.2C14.42,71.8,39.5,46.78,35.1,42.39Z" fill="currentColor"/><path d="M60.01,65.48C46.29,76.86,32.65,84.3,24.7,90.64C38.46,74.77,53.15,60.46,48.64,55.95C44.37,51.56,19.33,76.63,0.8,90.2C14.42,71.8,39.49,46.78,35.1,42.39C30.59,37.88,16.42,52.56,0.5,66.31C6.76,58.34,14.18,44.77,25.59,31C36.14,25.3,44.8,22.38,48.05,25.63C51.57,29.14,49.38,37.05,44.4,46.63C53.98,41.65,61.89,39.47,65.4,42.98C68.66,46.24,65.72,54.91,60.01,65.48Z" fill="currentColor" opacity="0.5"/><path d="M52.97,71.01C46.95,75.51,41.14,79.33,36.02,82.71L33.74,80.43C44.02,68.92,52.15,59.46,48.64,55.95C46.07,53.32,36.01,61.31,24.37,71.06L20.01,66.7C29.76,55.09,37.74,45.02,35.1,42.39C31.58,38.87,22.18,47.04,10.65,57.33L8.34,55.03C11.71,49.91,15.53,44.09,20.05,38.05C26.62,35.7,33.14,34.68,36.42,37.96C40.1,41.65,39.26,47.91,36.91,54.12C43.12,51.77,49.39,50.93,53.07,54.61C56.36,57.9,55.33,64.43,52.97,71.01Z" fill="currentColor"/><path d="M37.7,81.6C32.61,84.97,28.13,87.9,24.7,90.64C31.6,82.67,38.74,75.1,43.57,68.96C42.66,72.32,40.55,76.7,37.7,81.6Z" fill="currentColor"/><path d="M21.28,69.75C26.05,66.79,30.46,64.43,34.13,63.1C24.35,70.72,11.49,82.37,0.8,90.2C8.63,79.63,20.23,66.87,27.86,57.09C26.51,60.73,24.19,65.07,21.28,69.75Z" fill="currentColor"/><path d="M0.5,66.31C3.2,62.87,6.12,58.39,9.47,53.3C14.41,50.44,18.81,48.32,22.17,47.43C16.06,52.25,8.5,59.4,0.5,66.31Z" fill="currentColor"/><path d="M86.4,9.08C87.99,25.04,86.29,40.15,69.77,56.61C67.35,59.03,64.88,61.3,62.41,63.44C76.31,46.89,78.76,32.19,78.48,17C78.44,14.49,76.58,12.64,74.06,12.61C58.92,12.43,44.08,14.94,27.46,28.8C29.63,26.28,31.94,23.76,34.4,21.28C50.87,4.93,66.12,3.2,81.98,4.69C84.31,4.91,86.17,6.76,86.4,9.08Z" fill="currentColor" opacity="0.5"/><path d="M86.4,9.08C87.99,25.04,86.29,40.15,69.77,56.61C69.01,57.38,68.24,58.13,67.46,58.87C82.89,42.48,84.76,27.58,83.54,11.94C83.35,9.57,81.49,7.72,79.12,7.55C63.55,6.43,48.49,8.34,32.05,23.69C32.82,22.89,33.6,22.08,34.4,21.28C50.87,4.93,66.12,3.2,81.98,4.69C84.31,4.91,86.17,6.76,86.4,9.08Z" fill="currentColor"/></svg>