<svg xmlns="http://www.w3.org/2000/svg" viewBox="0 0 90 90"><path d="M76.75,33.33L55.5,33.33L64.77,11.43C65.42,9.9,65.19,8.14,64.19,6.82C63.31,5.67,61.95,5,60.51,5L29.68,5C27.62,5,25.79,6.34,25.17,8.32L12.51,48.99C12.18,50.05,12.36,51.21,12.99,52.13C13.67,53.1,14.78,53.69,15.97,53.69L35.16,53.69L27.88,85.36C27.64,86.4,27.85,87.49,28.45,88.36L28.57,88.53C29.2,89.45,30.25,90,31.37,90C32.29,90,33.18,89.62,33.82,88.95L79.91,40.75C81.39,39.2,81.54,36.82,80.27,35.11C79.44,33.99,78.14,33.33,76.75,33.33Z" fill="#CF8D1B"/><path d="M63.46,7.68L51.71,33.33L77.38,33.33C79.04,33.33,79.9,35.32,78.75,36.52L31.32,86.38C30.95,86.77,30.44,86.99,29.9,86.99C28.66,86.99,27.73,85.85,27.97,84.64L34.78,50.67L14.55,50.67C13.28,50.67,12.37,49.44,12.75,48.22L25.17,8.32C25.79,6.34,27.62,5,29.68,5L61.74,5C63.12,5,64.03,6.42,63.46,7.68Z" fill="#F7C631"/><path d="M77.38,33.41C79.04,33.41,79.89,35.4,78.75,36.6L31.32,86.38C30.95,86.77,30.44,86.99,29.9,86.99C28.66,86.99,27.73,85.85,27.97,84.64L34.78,50.67L34.54,50.67L52.24,33.41Z" fill="#FAD541"/><path d="M13.89,44.55C13.46,45.94,13.7,47.34,14.39,48.45L57.84,5.01C57.73,5,57.62,5,57.52,5L29.68,5C29.57,5,29.45,5,29.33,5.01L24.84,9.39Z" fill="#FAD541"/><path d="M25.17,8.32C25.79,6.34,27.62,5,29.68,5L44.15,5L36.19,5.31C30.73,5.52,25.95,9.08,24.19,14.26L13.91,44.48Z" fill="#FFF599"/><path d="M63.68,7.69C64.26,6.44,63.35,5,61.96,5L46.04,5L58.56,5.5C60.51,5.58,61.79,7.55,61.08,9.37L51.71,33.33Z" fill="#FCE26A"/><path d="M78.75,36.52L31.32,86.38C30.95,86.77,30.44,86.99,29.9,86.99C28.66,86.99,27.73,85.85,27.97,84.64L34.59,51.65L30.38,81.12C30.25,82.01,31.32,82.56,31.97,81.93L79.03,36.15C78.96,36.28,78.86,36.41,78.75,36.52Z" fill="#FCE26A"/></svg>