<svg xmlns="http://www.w3.org/2000/svg" viewBox="0 0 90 90" fill="currentColor"><path d="M87.91,27.56C83.97,26.43,79.8,25.82,75.49,25.82C50.68,25.82,30.57,45.97,30.57,70.82C30.57,74.96,31.13,78.97,32.17,82.77C32.63,84.46,30.98,86.03,29.43,85.21C15.2,77.66,5.5,62.67,5.5,45.41C5.5,20.55,25.61,0.4,50.42,0.4C67.83,0.4,82.93,10.33,90.39,24.85C91.19,26.41,89.6,28.05,87.91,27.56ZM87.91,27.56C83.97,26.43,79.8,25.82,75.49,25.82C50.68,25.82,30.57,45.97,30.57,70.82C30.57,74.96,31.13,78.97,32.17,82.77C32.63,84.46,30.98,86.03,29.43,85.21C15.2,77.66,5.5,62.67,5.5,45.41C5.5,20.55,25.61,0.4,50.42,0.4C67.83,0.4,82.93,10.33,90.39,24.85C91.19,26.41,89.6,28.05,87.91,27.56ZM73.92,24.76C49.4,24.76,29.53,44.43,29.53,68.71C29.53,74,30.47,79.08,32.21,83.78C32.27,83.46,32.27,83.12,32.17,82.77C31.13,78.97,30.57,74.96,30.57,70.82C30.57,45.97,50.68,25.82,75.49,25.82C79.8,25.82,83.97,26.43,87.91,27.56C88.42,27.71,88.92,27.66,89.34,27.48C84.54,25.72,79.35,24.76,73.92,24.76ZM53.08,8.74C44.17,13.76,36.57,21,30.96,29.83C25.36,38.67,21.92,48.82,20.95,59.39C20.29,66.5,20.77,73.64,22.34,80.54C12.07,72.29,5.5,59.62,5.5,45.41C5.5,20.55,25.61,0.4,50.42,0.4C55.99,0.4,61.32,1.42,66.24,3.27C61.69,4.55,57.27,6.38,53.08,8.74ZM51.46,1.46C26.66,1.46,6.54,21.61,6.54,46.47C6.54,58.53,11.28,69.49,18.99,77.57C10.67,69.4,5.5,58.01,5.5,45.41C5.5,20.55,25.61,0.4,50.42,0.4C63.18,0.4,74.7,5.74,82.88,14.3C74.78,6.36,63.69,1.46,51.46,1.46Z"/></svg>