<svg xmlns="http://www.w3.org/2000/svg" viewBox="0 0 90 90" fill="currentColor"><path d="M40.57,84.86L40.57,73.5L51.42,73.5L51.42,84.86ZM40.57,85L40.57,79C44.06,80.36,47.93,80.36,51.42,79L51.42,85ZM36,91L56,91C57.66,91,59,89.66,59,88L59,84C59,82.34,57.66,81,56,81L36,81C34.34,81,33,82.34,33,84L33,88C33,89.66,34.34,91,36,91ZM33,88C33,89.66,34.34,91,36,91L50,91L38.72,90.44C36.08,90.3,33.87,88.38,33.39,85.78L33,83.71ZM56,91C57.66,91,59,89.66,59,88L59,84C59,82.34,57.66,81,56,81L52,81C52.66,84.3,52.66,87.7,52,91ZM83,38C83,58.43,66.43,75,46,75C25.57,75,9,58.43,9,38C9,17.57,25.57,1,46,1C66.43,1,83,17.57,83,38ZM83,40C83,60.43,66.43,77,46,77C25.57,77,9,60.43,9,40C9,19.57,25.57,3,46,3C66.43,3,83,19.57,83,40ZM46,77C25.57,77,9,60.43,9,40C9,31.15,12.1,23.03,17.28,16.67C44.12,20.78,64.85,43.45,65.95,71.16C60.2,74.86,53.35,77,46,77ZM74,40C74,55.46,61.46,68,46,68C30.54,68,18,55.46,18,40C18,24.54,30.54,12,46,12C61.46,12,74,24.54,74,40ZM83,40C83,19.57,66.43,3,46,3C63.71,6.09,77.91,19.35,82.21,36.81ZM44.97,76.85C26.06,74.05,11.34,58.97,9,40C9,60.43,25.57,77,46,77ZM46,68C30.54,68,18,55.46,18,40C18,31.72,21.6,24.27,27.31,19.15C45.96,25.6,60.26,41.38,64.62,60.91C59.67,65.32,53.15,68,46,68ZM71,40C71,53.81,59.81,65,46,65C32.19,65,21,53.81,21,40C21,26.19,32.19,15,46,15C59.81,15,71,26.19,71,40ZM46,65C32.19,65,21,53.81,21,40C21,32.04,24.72,24.95,30.52,20.37C46.55,27.02,58.92,40.71,63.77,57.59C59.24,62.16,52.95,65,46,65ZM45.02,61.76C45.31,63.05,47.11,63.18,47.57,61.93L56.12,38.6C58.04,33.34,54.32,27.72,48.73,27.44C43.98,27.2,40,30.98,40,35.74L40,39ZM40,38.77L40,38.5C40,35.19,42.69,32.5,46,32.5C49.31,32.5,52,35.19,52,38.5L52,38.77C52,40.37,51.69,41.95,51.1,43.44L47.18,53.2C46.98,53.69,46.52,54,46,54C45.48,54,45.02,53.69,44.82,53.2L40.9,43.44C40.31,41.95,40,40.37,40,38.77ZM40,40.08L40,40C40,36.69,42.69,34,46,34C49.31,34,52,36.69,52,40L52,40.08C52,41.06,51.88,42.03,51.65,42.98L46.97,62.04C46.72,63.06,45.28,63.06,45.03,62.04L40.35,42.98C40.12,42.03,40,41.06,40,40.08ZM46,45C46,41.24,45.17,37.67,43.68,34.47C41.52,35.37,40,37.51,40,40L40,40.08C40,41.06,40.12,42.03,40.35,42.98L45.03,62.04C45.15,62.55,45.58,62.8,46,62.8Z"/></svg>