<svg xmlns="http://www.w3.org/2000/svg" viewBox="0 0 90 90" fill="currentColor"><path d="M75.19,69.94L14.41,69.94C13.25,69.94,12.34,70.92,12.41,72.07L13.13,82.85C13.21,83.96,14.17,84.8,15.28,84.71L75.96,80.03C77.08,79.94,77.91,78.95,77.79,77.83L77.18,71.74C77.08,70.72,76.22,69.94,75.19,69.94ZM14.16,81.2L12.27,69.94L13.13,82.85C13.21,83.96,14.17,84.8,15.28,84.71L64.5,80.91L16.21,82.87C15.21,82.91,14.33,82.2,14.16,81.2ZM46,73.07C42.69,73.07,40,75.76,40,79.07L40,80C40,83.31,42.69,86,46,86C49.31,86,52,83.31,52,80L52,79.07C52,75.76,49.31,73.07,46,73.07ZM14,77C9.58,77,6,73.42,6,69L6,10C6,5.58,9.58,2,14,2L78,2C82.42,2,86,5.58,86,10L86,69C86,73.42,82.42,77,78,77ZM6,69C6,73.42,9.58,77,14,77L56,77L17.85,75.52C13.05,75.34,9.06,71.76,8.35,67.01L6,51.34ZM86,10C86,5.58,82.42,2,78,2L49,2L75.09,3C79.89,3.18,83.88,6.75,84.6,11.49L86,20.75ZM17,67C15.9,67,15,66.1,15,65L15,33C15,31.9,15.9,31,17,31L75,31C76.1,31,77,31.9,77,33L77,65C77,66.1,76.1,67,75,67ZM77,33C77,31.9,76.1,31,75,31L19,31L74.11,31.97C75.17,31.99,76.03,32.83,76.07,33.89L77,59ZM23.67,31L37,67L17,67C15.9,67,15,66.1,15,65L15,33C15,31.9,15.9,31,17,31ZM33.99,57L33.99,41C33.99,38.79,32.19,37,29.99,37L24,37C22.89,37,22,37.9,22,39C22,40.11,22.89,41,24,41L29.99,41L29.99,47L24,47C22.9,47,22,47.89,22,49C22,50.1,22.9,51,24,51L29.99,51L29.99,57L24,57C22.9,57,22,57.89,22,59C22,60.1,22.9,61,24,61L29.99,61C32.19,61,33.99,59.21,33.99,57ZM44,57L44,41C44,38.79,45.79,37,48,37L52,37C54.21,37,56,38.79,56,41L56,57C56,59.21,54.21,61,52,61L48,61C45.79,61,44,59.21,44,57ZM48,41L48,57L52,57L52,41ZM59,57L59,41C59,38.79,60.79,37,63,37L67,37C69.21,37,71,38.79,71,41L71,57C71,59.21,69.21,61,67,61L63,61C60.79,61,59,59.21,59,57ZM63,41L63,57L67,57L67,41ZM37,56L37,52L41,52L41,56ZM41,46L41,42L37,42L37,46ZM30,61L24,61C22.9,61,22,60.1,22,59C22,57.89,22.9,57,24,57L30,57L30,51L24,51C22.9,51,22,50.1,22,49C22,47.89,22.9,47,24,47L29.59,47L33.78,58.31C33.24,59.88,31.75,61,30,61ZM25.89,37L24,37C22.89,37,22,37.9,22,39C22,40.11,22.89,41,24,41L27.37,41ZM17,23C15.9,23,15,22.1,15,21L15,12C15,10.9,15.9,10,17,10L75,10C76.1,10,77,10.9,77,12L77,21C77,22.1,76.1,23,75,23ZM17,25C15.9,25,15,24.1,15,23L15,14C15,12.9,15.9,12,17,12L75,12C76.1,12,77,12.9,77,14L77,23C77,24.1,76.1,25,75,25ZM17,25L75,25C76.1,25,77,24.1,77,23L15,23C15,24.1,15.9,25,17,25ZM15,23L73,23L17.63,22.27C16.68,22.26,15.87,21.58,15.69,20.65L15,17ZM77,14C77,12.9,76.1,12,75,12L19,12L74.3,12.97C75.28,12.99,76.1,13.72,76.24,14.69L77,20ZM35,25L35,12L37,12L37,25ZM55,25L55,12L57,12L57,25ZM26.83,22.49L26.83,13.41L24.17,13.41L24.17,22.49ZM30.2,19.2L30.2,16.7L20.8,16.7L20.8,19.2ZM63.27,14.05L63.27,21.51L70.72,17.78ZM26.83,23.24L26.83,14.16L24.17,14.16L24.17,23.24ZM30.2,19.95L30.2,17.45L20.8,17.45L20.8,19.95ZM63.27,14.8L63.27,22.26L70.72,18.53ZM50.7,19.2L50.7,16.7L41.3,16.7L41.3,19.2ZM50.7,19.95L50.7,17.45L41.3,17.45L41.3,19.95Z"/></svg>