<svg xmlns="http://www.w3.org/2000/svg" viewBox="0 0 90 90"><path d="M2.49,42.73L7.33,40.64C13.1,38.15,15.37,31.16,12.17,25.75L9.48,21.21C8.55,19.64,9.95,17.71,11.73,18.11L16.88,19.27C23.01,20.64,28.96,16.32,29.55,10.06L30.04,4.81C30.21,2.99,32.48,2.25,33.69,3.63L37.17,7.58C41.32,12.3,48.68,12.3,52.83,7.58L56.31,3.63C57.52,2.25,59.79,2.99,59.96,4.81L60.45,10.06C61.04,16.32,66.99,20.64,73.12,19.27L78.27,18.11C80.05,17.71,81.45,19.64,80.52,21.21L77.83,25.75C74.63,31.16,76.9,38.15,82.67,40.64L87.51,42.73C88.5,43.16,88.2,44.65,87.11,44.65L2.89,44.65C1.8,44.65,1.5,43.16,2.49,42.73Z" fill="#E3AA24"/><path d="M87.31,42.65L82.67,40.64C76.9,38.15,74.63,31.16,77.83,25.75L81.75,19.13C82.22,18.35,81.52,17.38,80.62,17.58L73.12,19.27C66.99,20.64,61.04,16.32,60.45,10.06L59.73,2.41C59.65,1.5,58.52,1.13,57.91,1.81L52.83,7.59C48.68,12.3,41.32,12.3,37.17,7.59L32.09,1.81C31.48,1.13,30.35,1.5,30.27,2.41L29.55,10.06C28.96,16.32,23.01,20.64,16.88,19.27L9.38,17.58C8.48,17.38,7.78,18.35,8.25,19.13L12.17,25.75C15.37,31.16,13.1,38.15,7.33,40.64L2.69,42.65C1.65,43.1,1.96,44.63,3.08,44.65L5.94,44.65C14.83,40.81,18.34,30.03,13.4,21.69C22.85,23.81,32.02,17.15,32.93,7.5C39.33,14.77,50.67,14.77,57.07,7.5C57.98,17.15,67.15,23.81,76.6,21.69C71.66,30.03,75.17,40.81,84.06,44.65L86.92,44.65C88.04,44.63,88.35,43.1,87.31,42.65Z" fill="#F7C631"/><path d="M45,19.65C31.19,19.65,20,30.84,20,44.65L70,44.65C70,30.84,58.81,19.65,45,19.65Z" fill="#FAD541"/><path d="M29,44.65C29,35.81,36.16,28.65,45,28.65C53.84,28.65,61,35.81,61,44.65Z" fill="#FFFFC7"/><path d="M8,40C3.58,40,0,43.58,0,48L0,82C0,86.42,3.58,90,8,90L82,90C86.42,90,90,86.42,90,82L90,48C90,43.58,86.42,40,82,40Z" fill="#312E2B"/><path d="M8,40L80,40L10.95,42.36C6.38,42.52,2.64,46.09,2.29,50.66L0,80L0,48C0,43.58,3.58,40,8,40Z" fill="#4B4847"/><path d="M82,90L34.65,90L79.75,88.1C84.28,87.91,87.96,84.38,88.34,79.86L90,60L90,82C90,86.42,86.42,90,82,90Z" fill="#4B4847"/><path d="M62,52L62,78C62,80.76,64.24,83,67,83L77,83C79.76,83,82,80.76,82,78L82,52C82,49.24,79.76,47,77,47L67,47C64.24,47,62,49.24,62,52Z" fill="#E7E6E5"/><path d="M68,77L68,53L76,53L76,77Z" fill="#E7E6E5"/><path d="M52,47L40,47C37.24,47,35,49.24,35,52L35,78C35,80.76,37.24,83,40,83L50,83C52.76,83,55,80.76,55,78L55,65C55,62.24,52.76,60,50,60L41,60L41,53L52,53C53.66,53,55,51.66,55,50C55,48.34,53.66,47,52,47Z" fill="#E7E6E5"/><path d="M49,77L41,77L41,66L49,66Z" fill="#E7E6E5"/><path d="M9,52L9,64C9,66.76,11.24,69,14,69L22,69L22,77L12,77C10.34,77,9,78.34,9,80C9,81.66,10.34,83,12,83L23,83C25.76,83,28,80.76,28,78L28,52C28,49.24,25.76,47,23,47L14,47C11.24,47,9,49.24,9,52Z" fill="#E7E6E5"/><path d="M15,63L15,53L22,53L22,63Z" fill="#E7E6E5"/><path d="M14,47L24,47L14.41,47.98C12.03,48.22,10.16,50.12,9.94,52.51L9,63L9,52C9,49.24,11.24,47,14,47Z" fill="white"/><path d="M40,47L50,47L40.41,47.98C38.03,48.22,36.16,50.12,35.94,52.51L35,63L35,52C35,49.24,37.24,47,40,47Z" fill="white"/><path d="M67,47L77,47L67.41,47.98C65.03,48.22,63.16,50.12,62.94,52.51L62,63L62,52C62,49.24,64.24,47,67,47Z" fill="white"/></svg>