<svg xmlns="http://www.w3.org/2000/svg" viewBox="0 0 90 90" fill="currentColor"><path d="M4.57,38.63L17.25,47.63C16.96,49.2,16.83,50.7,16.85,52.12ZM26.07,30L4.67,4.14L30.5,25.51C29.76,26.15,29.05,26.8,28.38,27.49L28.37,27.49C27.57,28.29,26.81,29.12,26.07,30ZM44.61,17.11L31.77,1L51.32,16.58L44.6,17.11C44.6,17.11,44.6,17.11,44.61,17.11ZM83.92,83.57C77.48,90.01,51.25,87.63,39.95,76.33C39.93,76.31,39.92,76.3,39.9,76.28L22.67,59.05C16.9,53.28,21.74,39.15,30.61,30.27C36.54,24.34,51.63,14.56,59.39,22.32L76.67,39.6L76.67,39.61C87.96,50.9,90.35,77.14,83.92,83.57ZM59.39,22.32L76.67,39.6L76.67,39.61C87.96,50.9,90.35,77.14,83.92,83.57C80.51,86.98,71.55,87.92,62.2,86.37L72.65,85.95C75.2,85.85,77.68,85.01,79.77,83.54C81.95,82,82.66,79.08,81.42,76.72C70.65,56.09,54.74,38.73,35.4,26.23C42.55,21.01,53.26,16.19,59.39,22.32ZM59.39,22.32L76.67,39.6L76.67,39.61C81.73,44.67,85,52.73,86.49,60.66C75.88,44.8,62.33,31.12,46.6,20.35C51.35,18.89,56.05,18.98,59.39,22.32ZM76.46,82.46C56.43,83.69,37.69,70.17,26.92,53.59C46.5,66.7,58.44,76.01,76.46,82.46ZM39.95,76.33L39.9,76.28L22.67,59.05C16.9,53.28,21.74,39.15,30.61,30.27C35.7,25.19,47.53,17.26,55.69,20.01L48.99,20.85C47.8,21,46.63,21.3,45.51,21.74C34.24,26.19,25.98,36.03,23.56,47.9L23.33,49.03C22.64,52.39,23.51,55.88,25.69,58.53L31.65,65.78C40.29,76.28,52.05,83.6,65.08,86.77C55.94,85.74,45.88,82.26,39.95,76.33ZM42.42,75.68C36.65,69.91,41.49,55.78,50.37,46.9C54.86,42.41,64.63,35.69,72.47,36.1C64.32,32.06,51.55,40.53,46.21,45.87C37.33,54.74,32.5,68.87,38.27,74.64L40.08,76.46C42.56,78.9,45.74,80.92,49.26,82.52ZM40.34,76.72C34.57,70.95,39.41,56.82,48.29,47.94C54.2,42.03,69.23,32.28,77.01,39.94L73.95,36.87C66.19,29.12,51.1,38.9,45.17,44.83C36.29,53.7,31.46,67.83,37.23,73.6L54.46,90.83L54.5,90.88C54.54,90.92,54.58,90.96,54.62,91Z"/></svg>