<svg xmlns="http://www.w3.org/2000/svg" viewBox="0 0 90 90"><path d="M2.49,43.08L7.33,40.99C13.1,38.5,15.37,31.51,12.17,26.1L9.48,21.56C8.55,19.99,9.95,18.06,11.73,18.46L16.88,19.62C23.01,20.99,28.96,16.67,29.55,10.41L30.04,5.16C30.21,3.34,32.48,2.6,33.69,3.98L37.17,7.93C41.32,12.65,48.68,12.65,52.83,7.93L56.31,3.98C57.52,2.6,59.79,3.34,59.96,5.16L60.45,10.41C61.04,16.67,66.99,20.99,73.12,19.62L78.27,18.46C80.05,18.06,81.45,19.99,80.52,21.56L77.83,26.1C74.63,31.51,76.9,38.5,82.67,40.99L87.51,43.08C88.5,43.51,88.2,45,87.11,45L2.89,45C1.8,45,1.5,43.51,2.49,43.08Z" fill="currentColor"/><path d="M87.31,43L82.67,40.99C76.9,38.5,74.63,31.51,77.83,26.1L81.75,19.48C82.22,18.7,81.52,17.73,80.62,17.93L73.12,19.62C66.99,20.99,61.04,16.67,60.45,10.41L59.73,2.76C59.65,1.85,58.52,1.48,57.91,2.16L52.83,7.94C48.68,12.65,41.32,12.65,37.17,7.94L32.09,2.16C31.48,1.48,30.35,1.85,30.27,2.76L29.55,10.41C28.96,16.67,23.01,20.99,16.88,19.62L9.38,17.93C8.48,17.73,7.78,18.7,8.25,19.48L12.17,26.1C15.37,31.51,13.1,38.5,7.33,40.99L2.69,43C1.65,43.45,1.96,44.98,3.08,45L5.94,45C14.83,41.16,18.34,30.38,13.4,22.04C22.85,24.16,32.02,17.5,32.93,7.85C39.33,15.12,50.67,15.12,57.07,7.85C57.98,17.5,67.15,24.16,76.6,22.04C71.66,30.38,75.17,41.16,84.06,45L86.92,45C88.04,44.98,88.35,43.45,87.31,43Z" fill="currentColor"/><path d="M45,20C31.19,20,20,31.19,20,45L70,45C70,31.19,58.81,20,45,20Z" fill="currentColor"/><path d="M29,45C29,36.16,36.16,29,45,29C53.84,29,61,36.16,61,45Z" fill="currentColor"/><path d="M62.97,62C64.63,62,65.57,63.89,64.57,65.21L46.59,88.9C45.79,89.95,44.21,89.95,43.41,88.9L25.43,65.21C24.44,63.89,25.37,62,27.03,62L38,62L38,45C38,41.13,41.13,38,45,38C48.87,38,52,41.13,52,45L52,62Z" fill="currentColor"/></svg>