<svg xmlns="http://www.w3.org/2000/svg" viewBox="0 0 90 90" fill="currentColor"><path d="M12.68,16.65C12.68,14.31,14.57,12.42,16.91,12.42L75.11,12.42C77.44,12.42,79.34,14.31,79.34,16.65L79.34,42.53C79.34,64.48,66.93,83.98,46.01,91C25.21,84.03,12.68,64.35,12.68,42.53ZM16.91,42.53C16.91,62.27,27.94,79.85,46.01,86.56C64.19,79.82,75.11,62.4,75.11,42.53L75.11,16.65L16.91,16.65ZM79.34,42.53L79.34,16.65C79.34,14.31,77.44,12.42,75.11,12.42L16.91,12.42C14.57,12.42,12.68,14.31,12.68,16.65L12.68,42.53C12.68,64.35,25.21,84.03,46.01,91C66.93,83.98,79.34,64.48,79.34,42.53ZM63.7,69.85L63.7,74.35C59.04,79.71,53.07,83.94,46.01,86.56L46.01,86.56L46.01,25.37L57.93,25.37L57.93,33.06C49.1,43.5,49.26,61.6,63.7,69.85ZM46.01,86.56C38.96,83.94,32.98,79.67,28.32,74.27L28.32,69.85C42.75,61.6,42.92,43.51,34.08,33.06L34.08,25.49L46.01,25.49ZM28.32,74.27L28.32,69.85L46.01,69.85L46.01,86.56C38.96,83.94,32.98,79.67,28.32,74.27ZM46.01,86.56L46.01,86.56L46.01,69.85L63.7,69.85L63.7,74.35C59.04,79.71,53.07,83.94,46.01,86.56ZM57.93,33.06L57.93,25.45L53.19,25.45L56.49,16.65L48.65,12.34C48.24,12.11,47.98,11.68,47.98,11.21L47.98,9.85L52.74,9.85L52.74,6.14L47.98,6.14L47.98,1L46.01,1L46.01,33.06ZM34.08,33.06L34.08,25.45L38.84,25.45L35.54,16.65L43.38,12.35C43.79,12.13,44.05,11.7,44.05,11.23L44.05,9.89L39.29,9.89L39.29,6.18L44.05,6.18L44.05,1.04L46.01,1.04L46.01,33.06ZM53.21,25.49L56.52,16.65L46.01,16.65L46.01,25.49ZM38.8,25.49L35.49,16.65L46.01,16.65L46.01,25.49ZM58.85,66.23C55.59,65.82,52.31,65.61,49.03,65.61L41.2,65.61C38.54,65.61,35.89,65.78,33.26,66.14C35.14,64.3,36.61,62.24,37.7,60.03L54.31,60.03C55.41,62.27,56.91,64.37,58.85,66.23ZM15.81,59.65C15.67,59.65,15.52,59.66,15.38,59.68C16.09,61.85,16.93,63.96,17.91,65.99L22.65,65.99C21.56,63.96,20.63,61.85,19.84,59.65ZM72.21,59.66L76.68,59.66C75.97,61.84,75.13,63.95,74.16,66L69.42,66C70.5,63.97,71.43,61.85,72.21,59.66ZM16.37,31.1L70.01,31.11C75.01,31.11,79.06,35.16,79.06,40.15C79.06,42.32,78.29,44.32,77.02,45.88L87.08,45.88C89.58,45.88,91.08,48.65,89.71,50.74L85.91,56.57L85.91,60.93C85.91,62.67,84.51,64.08,82.77,64.08L10.17,64.08C8.43,64.08,7.02,62.67,7.02,60.93L7.02,55.42L6.89,55.42C5.16,55.42,3.75,54.01,3.75,52.28L3.75,49.02C3.75,47.29,5.16,45.88,6.89,45.88L16.37,45.88L16.37,40.47C14.64,40.47,13.23,39.06,13.23,37.32L13.23,34.25C13.23,32.51,14.64,31.1,16.37,31.1ZM48.41,48.79C49.1,48.97,49.77,49.23,50.41,49.58L50.41,53.28C49.46,52.84,48.65,52.52,48,52.32C47.35,52.11,46.74,52,46.17,52C45.88,52,45.65,52.03,45.49,52.09C45.33,52.15,45.22,52.23,45.15,52.34C45.09,52.44,45.06,52.57,45.06,52.71C45.06,52.87,45.13,52.99,45.27,53.09C45.42,53.18,45.59,53.26,45.79,53.32C46.01,53.37,46.31,53.43,46.7,53.51C47.5,53.68,48.18,53.88,48.75,54.12C49.33,54.35,49.83,54.73,50.25,55.26C50.66,55.78,50.87,56.5,50.87,57.42C50.87,58.26,50.67,59,50.26,59.63C49.87,60.24,49.29,60.72,48.52,61.07C48.12,61.24,47.69,61.37,47.21,61.45L47.21,64.08L44.65,64.08L44.65,61.51C44.26,61.46,43.88,61.39,43.51,61.3C42.81,61.12,42.14,60.87,41.5,60.54L41.5,56.81C42.47,57.26,43.3,57.59,43.97,57.79C44.65,57.99,45.26,58.09,45.79,58.09C46.08,58.09,46.3,58.06,46.45,58C46.62,57.95,46.73,57.87,46.79,57.77C46.86,57.67,46.9,57.54,46.9,57.4C46.9,57.23,46.82,57.1,46.68,57.01C46.54,56.9,46.36,56.82,46.13,56.76C45.9,56.69,45.59,56.61,45.19,56.53C44.41,56.36,43.74,56.16,43.17,55.94C42.6,55.71,42.11,55.34,41.69,54.82C41.29,54.28,41.09,53.57,41.09,52.68C41.09,51.83,41.28,51.1,41.67,50.49C42.08,49.86,42.67,49.37,43.44,49.04C43.81,48.88,44.22,48.75,44.67,48.67L44.67,45.89L47.23,45.89L47.23,48.58C47.63,48.62,48.03,48.69,48.41,48.79ZM22.53,56.94C22.65,57.24,22.82,57.47,23.04,57.61C23.27,57.74,23.54,57.81,23.86,57.81C24.18,57.81,24.46,57.74,24.68,57.61C24.91,57.47,25.08,57.24,25.2,56.94C25.32,56.63,25.38,56.22,25.38,55.72L25.38,48.81L29.51,48.81L29.51,55.85C29.51,57.13,29.29,58.2,28.83,59.06C28.39,59.9,27.75,60.53,26.91,60.95C26.07,61.36,25.04,61.57,23.83,61.57C22.62,61.57,21.59,61.36,20.74,60.95C19.9,60.53,19.25,59.9,18.8,59.06C18.36,58.2,18.14,57.13,18.14,55.85L18.14,48.81L22.35,48.81L22.35,55.72C22.35,56.22,22.41,56.63,22.53,56.94ZM82.86,48.86L87.07,48.86L82.72,55.7L82.72,61.34L78.51,61.34L78.51,55.74L74.17,48.86L78.46,48.86L80.65,52.14ZM14.19,52.25L14.19,61.28L9.99,61.28L9.99,52.25L7.03,52.25L7.03,48.81L17.15,48.81L17.15,52.25ZM35.33,52.2L35.33,53.67L39.5,53.67L39.5,56.44L35.33,56.44L35.33,57.97L39.84,57.97L39.84,61.28L31.2,61.28L31.2,48.81L39.82,48.81L39.82,52.2ZM60.23,49.58C61.25,50.08,62.04,50.79,62.6,51.73C63.17,52.67,63.45,53.78,63.45,55.05C63.45,56.32,63.17,57.42,62.6,58.36C62.04,59.3,61.25,60.02,60.23,60.54C59.22,61.03,58.05,61.28,56.74,61.28L52.07,61.28L52.07,48.81L56.74,48.81C58.05,48.81,59.22,49.07,60.23,49.58ZM73.06,61.28L72.31,59.15L67.55,59.15L66.82,61.28L62.54,61.28L67.41,48.81L72.47,48.81L77.4,61.28ZM56.68,57.52C57.22,57.52,57.67,57.43,58.05,57.26C58.45,57.08,58.74,56.81,58.95,56.45C59.15,56.09,59.25,55.62,59.25,55.05C59.25,54.48,59.15,54.01,58.95,53.66C58.74,53.29,58.45,53.02,58.05,52.84C57.67,52.66,57.22,52.57,56.68,52.57L56.15,52.57L56.15,57.52ZM71.2,55.94L69.91,52.22L68.64,55.94ZM69.15,34.07C70.47,34.07,71.64,34.32,72.65,34.83C73.67,35.33,74.46,36.05,75.02,36.99C75.59,37.93,75.87,39.03,75.87,40.3C75.87,41.58,75.59,42.68,75.02,43.62C74.46,44.56,73.67,45.28,72.65,45.79C71.64,46.29,70.47,46.54,69.15,46.54L64.36,46.54L64.36,34.07ZM70.47,42.51C70.86,42.34,71.16,42.07,71.36,41.71C71.56,41.34,71.67,40.87,71.67,40.3C71.67,39.73,71.56,39.27,71.36,38.91C71.16,38.55,70.86,38.27,70.47,38.09C70.09,37.92,69.63,37.83,69.1,37.83L68.57,37.83L68.57,42.78L69.1,42.78C69.63,42.78,70.09,42.69,70.47,42.51ZM62.65,34.07L62.65,37.45L58.16,37.45L58.16,38.93L62.33,38.93L62.33,41.69L58.16,41.69L58.16,43.23L62.67,43.23L62.67,46.54L54.02,46.54L54.02,34.07ZM48.87,34.07L48.87,43.1L52.41,43.1L52.41,46.54L44.66,46.54L44.66,34.07ZM33.29,37.51L33.29,34.07L43.41,34.07L43.41,37.51L40.45,37.51L40.45,46.54L36.24,46.54L36.24,37.51ZM32.04,34.07L32.04,46.54L27.83,46.54L27.83,34.07ZM16.46,37.51L16.46,34.07L26.58,34.07L26.58,37.51L23.62,37.51L23.62,46.54L19.42,46.54L19.42,37.51Z"/></svg>