<svg xmlns="http://www.w3.org/2000/svg" viewBox="0 0 90 90"><path d="M11.68,15.65C11.68,13.31,13.57,11.42,15.91,11.42L74.11,11.42C76.44,11.42,78.34,13.31,78.34,15.65L78.34,41.53C78.34,63.48,65.93,82.98,45.01,90C24.21,83.03,11.68,63.35,11.68,41.53Z" fill="currentColor"/><path d="M15.91,41.53C15.91,61.27,26.94,78.85,45.01,85.56C63.19,78.82,74.11,61.4,74.11,41.53L74.11,15.65L15.91,15.65Z" fill="currentColor"/><path d="M78.34,41.53L78.34,15.65C78.34,13.31,76.44,11.42,74.11,11.42L15.91,11.42C13.57,11.42,11.68,13.31,11.68,15.65L11.68,41.53C11.68,63.35,24.21,83.03,45.01,90C65.93,82.98,78.34,63.48,78.34,41.53Z" fill="currentColor"/><path d="M62.7,68.85L62.7,73.35C58.04,78.71,52.07,82.94,45.01,85.56L45.01,85.56L45.01,24.37L56.93,24.37L56.93,32.06C48.1,42.5,48.26,60.6,62.7,68.85Z" fill="currentColor"/><path d="M45.01,85.56C37.96,82.94,31.98,78.67,27.32,73.27L27.32,68.85C41.75,60.6,41.92,42.51,33.08,32.06L33.08,24.49L45.01,24.49Z" fill="currentColor"/><path d="M27.32,73.27L27.32,68.85L45.01,68.85L45.01,85.56C37.96,82.94,31.98,78.67,27.32,73.27Z" fill="currentColor"/><path d="M45.01,85.56L45.01,85.56L45.01,68.85L62.7,68.85L62.7,73.35C58.04,78.71,52.07,82.94,45.01,85.56Z" fill="currentColor"/><path d="M56.93,32.06L56.93,24.45L52.19,24.45L55.49,15.65L47.65,11.34C47.24,11.11,46.98,10.68,46.98,10.21L46.98,8.85L51.74,8.85L51.74,5.14L46.98,5.14L46.98,0L45.01,0L45.01,32.06Z" fill="currentColor"/><path d="M33.08,32.06L33.08,24.45L37.84,24.45L34.54,15.65L42.38,11.35C42.79,11.13,43.05,10.7,43.05,10.23L43.05,8.89L38.29,8.89L38.29,5.18L43.05,5.18L43.05,0.04L45.01,0.04L45.01,32.06Z" fill="currentColor"/><path d="M52.21,24.49L55.52,15.65L45.01,15.65L45.01,24.49Z" fill="currentColor"/><path d="M37.8,24.49L34.49,15.65L45.01,15.65L45.01,24.49Z" fill="currentColor"/><path d="M57.85,65.23C54.59,64.82,51.31,64.61,48.03,64.61L40.2,64.61C37.54,64.61,34.89,64.78,32.26,65.14C34.14,63.3,35.61,61.24,36.7,59.03L53.31,59.03C54.41,61.27,55.91,63.37,57.85,65.23Z" fill="currentColor"/><path d="M14.81,58.65C14.67,58.65,14.52,58.66,14.38,58.68C15.09,60.85,15.93,62.96,16.91,64.99L21.65,64.99C20.56,62.96,19.63,60.85,18.84,58.65Z" fill="currentColor"/><path d="M71.21,58.66L75.68,58.66C74.97,60.84,74.13,62.95,73.16,65L68.42,65C69.5,62.97,70.43,60.85,71.21,58.66Z" fill="currentColor"/><path d="M15.37,30.1L69.01,30.11C74.01,30.11,78.06,34.16,78.06,39.15C78.06,41.32,77.29,43.32,76.02,44.88L86.08,44.88C88.58,44.88,90.08,47.65,88.71,49.74L84.91,55.57L84.91,59.93C84.91,61.67,83.51,63.08,81.77,63.08L9.17,63.08C7.43,63.08,6.02,61.67,6.02,59.93L6.02,54.42L5.89,54.42C4.16,54.42,2.75,53.01,2.75,51.28L2.75,48.02C2.75,46.29,4.16,44.88,5.89,44.88L15.37,44.88L15.37,39.47C13.64,39.47,12.23,38.06,12.23,36.32L12.23,33.25C12.23,31.51,13.64,30.1,15.37,30.1Z" fill="currentColor"/><path d="M47.41,47.79C48.1,47.97,48.77,48.23,49.41,48.58L49.41,52.28C48.46,51.84,47.65,51.52,47,51.32C46.35,51.11,45.74,51,45.17,51C44.88,51,44.65,51.03,44.49,51.09C44.33,51.15,44.22,51.23,44.15,51.34C44.09,51.44,44.06,51.57,44.06,51.71C44.06,51.87,44.13,51.99,44.27,52.09C44.42,52.18,44.59,52.26,44.79,52.32C45.01,52.37,45.31,52.43,45.7,52.51C46.5,52.68,47.18,52.88,47.75,53.12C48.33,53.35,48.83,53.73,49.25,54.26C49.66,54.78,49.87,55.5,49.87,56.42C49.87,57.26,49.67,58,49.26,58.63C48.87,59.24,48.29,59.72,47.52,60.07C47.12,60.24,46.69,60.37,46.21,60.45L46.21,63.08L43.65,63.08L43.65,60.51C43.26,60.46,42.88,60.39,42.51,60.3C41.81,60.12,41.14,59.87,40.5,59.54L40.5,55.81C41.47,56.26,42.3,56.59,42.97,56.79C43.65,56.99,44.26,57.09,44.79,57.09C45.08,57.09,45.3,57.06,45.45,57C45.62,56.95,45.73,56.87,45.79,56.77C45.86,56.67,45.9,56.54,45.9,56.4C45.9,56.23,45.82,56.1,45.68,56.01C45.54,55.9,45.36,55.82,45.13,55.76C44.9,55.69,44.59,55.61,44.19,55.53C43.41,55.36,42.74,55.16,42.17,54.94C41.6,54.71,41.11,54.34,40.69,53.82C40.29,53.28,40.09,52.57,40.09,51.68C40.09,50.83,40.28,50.1,40.67,49.49C41.08,48.86,41.67,48.37,42.44,48.04C42.81,47.88,43.22,47.75,43.67,47.67L43.67,44.89L46.23,44.89L46.23,47.58C46.63,47.62,47.03,47.69,47.41,47.79Z" fill="currentColor"/><path d="M21.53,55.94C21.65,56.24,21.82,56.47,22.04,56.61C22.27,56.74,22.54,56.81,22.86,56.81C23.18,56.81,23.46,56.74,23.68,56.61C23.91,56.47,24.08,56.24,24.2,55.94C24.32,55.63,24.38,55.22,24.38,54.72L24.38,47.81L28.51,47.81L28.51,54.85C28.51,56.13,28.29,57.2,27.83,58.06C27.39,58.9,26.75,59.53,25.91,59.95C25.07,60.36,24.04,60.57,22.83,60.57C21.62,60.57,20.59,60.36,19.74,59.95C18.9,59.53,18.25,58.9,17.8,58.06C17.36,57.2,17.14,56.13,17.14,54.85L17.14,47.81L21.35,47.81L21.35,54.72C21.35,55.22,21.41,55.63,21.53,55.94Z" fill="currentColor"/><path d="M81.86,47.86L86.07,47.86L81.72,54.7L81.72,60.34L77.51,60.34L77.51,54.74L73.17,47.86L77.46,47.86L79.65,51.14Z" fill="currentColor"/><path d="M13.19,51.25L13.19,60.28L8.99,60.28L8.99,51.25L6.03,51.25L6.03,47.81L16.15,47.81L16.15,51.25Z" fill="currentColor"/><path d="M34.33,51.2L34.33,52.67L38.5,52.67L38.5,55.44L34.33,55.44L34.33,56.97L38.84,56.97L38.84,60.28L30.2,60.28L30.2,47.81L38.82,47.81L38.82,51.2Z" fill="currentColor"/><path d="M59.23,48.58C60.25,49.08,61.04,49.79,61.6,50.73C62.17,51.67,62.45,52.78,62.45,54.05C62.45,55.32,62.17,56.42,61.6,57.36C61.04,58.3,60.25,59.02,59.23,59.54C58.22,60.03,57.05,60.28,55.74,60.28L51.07,60.28L51.07,47.81L55.74,47.81C57.05,47.81,58.22,48.07,59.23,48.58Z" fill="currentColor"/><path d="M72.06,60.28L71.31,58.15L66.55,58.15L65.82,60.28L61.54,60.28L66.41,47.81L71.47,47.81L76.4,60.28Z" fill="currentColor"/><path d="M55.68,56.52C56.22,56.52,56.67,56.43,57.05,56.26C57.45,56.08,57.74,55.81,57.95,55.45C58.15,55.09,58.25,54.62,58.25,54.05C58.25,53.48,58.15,53.01,57.95,52.66C57.74,52.29,57.45,52.02,57.05,51.84C56.67,51.66,56.22,51.57,55.68,51.57L55.15,51.57L55.15,56.52Z" fill="currentColor"/><path d="M70.2,54.94L68.91,51.22L67.64,54.94Z" fill="currentColor"/><path d="M68.15,33.07C69.47,33.07,70.64,33.32,71.65,33.83C72.67,34.33,73.46,35.05,74.02,35.99C74.59,36.93,74.87,38.03,74.87,39.3C74.87,40.58,74.59,41.68,74.02,42.62C73.46,43.56,72.67,44.28,71.65,44.79C70.64,45.29,69.47,45.54,68.15,45.54L63.36,45.54L63.36,33.07Z" fill="currentColor"/><path d="M69.47,41.51C69.86,41.34,70.16,41.07,70.36,40.71C70.56,40.34,70.67,39.87,70.67,39.3C70.67,38.73,70.56,38.27,70.36,37.91C70.16,37.55,69.86,37.27,69.47,37.09C69.09,36.92,68.63,36.83,68.1,36.83L67.57,36.83L67.57,41.78L68.1,41.78C68.63,41.78,69.09,41.69,69.47,41.51Z" fill="currentColor"/><path d="M61.65,33.07L61.65,36.45L57.16,36.45L57.16,37.93L61.33,37.93L61.33,40.69L57.16,40.69L57.16,42.23L61.67,42.23L61.67,45.54L53.02,45.54L53.02,33.07Z" fill="currentColor"/><path d="M47.87,33.07L47.87,42.1L51.41,42.1L51.41,45.54L43.66,45.54L43.66,33.07Z" fill="currentColor"/><path d="M32.29,36.51L32.29,33.07L42.41,33.07L42.41,36.51L39.45,36.51L39.45,45.54L35.24,45.54L35.24,36.51Z" fill="currentColor"/><path d="M31.04,33.07L31.04,45.54L26.83,45.54L26.83,33.07Z" fill="currentColor"/><path d="M15.46,36.51L15.46,33.07L25.58,33.07L25.58,36.51L22.62,36.51L22.62,45.54L18.42,45.54L18.42,36.51Z" fill="currentColor"/></svg>