<svg xmlns="http://www.w3.org/2000/svg" viewBox="0 0 90 90" fill="currentColor"><path d="M22.58,86L22.58,84.91C22.58,76.76,26.47,73.79,30.51,70.71C34.56,67.63,38.77,64.43,39.39,55.78L33.18,55.78C32.33,54.21,32.21,52.46,32.21,50.7L38.76,46.71C35.79,44.36,34.27,40.61,34.27,37.22C34.27,30.82,39.49,25.62,46.03,25.56C52.51,25.62,57.73,30.82,57.73,37.22C57.73,40.61,56.21,44.36,53.24,46.71L59.79,50.7C59.79,52.46,59.67,54.21,58.82,55.78L52.61,55.78C53.23,64.43,57.44,67.63,61.49,70.71C65.53,73.79,69.42,76.76,69.42,84.91L69.42,86ZM52.68,56.57C53.77,67.34,60.67,69.25,65.27,73.88C54.2,72.2,47.32,63.49,39.96,55.78L52.61,55.78ZM57.73,37.22C57.73,40.61,56.21,44.36,53.24,46.71L45.24,46.71C45.26,46.71,50.72,45.47,53.53,41.51C57.28,36.19,54.09,28.82,49.99,26.27C54.51,27.9,57.73,32.19,57.73,37.22ZM33.86,72.52C28.09,76.73,24.78,78.71,22.58,86L22.58,84.91C22.58,76.76,26.47,73.79,30.51,70.71C33.47,68.46,36.5,66.15,38.17,61.71C37.74,65.7,37.09,70.15,33.86,72.52ZM59.79,50.7C59.79,52.46,59.66,54.21,58.82,55.78L33.18,55.78C32.89,55.23,32.68,54.66,32.54,54.08L52.04,54.08C56.9,50.94,52,46.81,51.9,46.71L53.24,46.71ZM32.22,51.25C32.22,51.06,32.21,50.88,32.21,50.7L38.76,46.71L37.33,51.24ZM34.68,40.32C34.41,39.29,34.27,38.24,34.27,37.22C34.27,31,39.2,25.91,45.48,25.58C45.54,25.58,45.59,25.57,45.65,25.57L45.79,25.57C41.77,26.06,35.61,30.78,34.68,40.32ZM15.31,59.41C16.45,61.06,15.84,63.2,13.95,64.19C12.06,65.18,9.6,64.65,8.46,63C-4.8,43.86,0.62,17.12,20.61,3.08C22.33,1.87,24.85,2.1,26.23,3.6C27.62,5.09,27.35,7.28,25.64,8.49C8.75,20.35,4.11,43.25,15.31,59.41ZM26.82,51.83C27.95,53.48,27.34,55.62,25.45,56.61C23.55,57.59,21.1,57.06,19.96,55.41C10.73,42.05,14.5,23.44,28.43,13.63C30.15,12.42,32.67,12.65,34.06,14.14C35.45,15.64,35.18,17.83,33.46,19.04C22.63,26.66,19.64,41.44,26.82,51.83ZM28.43,13.63C29.65,12.77,31.27,12.64,32.6,13.17C31.82,13.22,31.05,13.47,30.4,13.93C16.47,23.74,12.7,42.36,21.93,55.72C22.36,56.35,22.99,56.81,23.7,57.09C22.24,57.19,20.76,56.58,19.96,55.42C10.73,42.05,14.5,23.44,28.43,13.63ZM20.61,3.08C21.83,2.22,23.45,2.09,24.78,2.62C24,2.67,23.23,2.92,22.58,3.38C2.59,17.43,-2.83,44.16,10.43,63.31C10.86,63.93,11.49,64.4,12.2,64.68C10.74,64.78,9.27,64.17,8.46,63C-4.8,43.86,0.62,17.12,20.61,3.08ZM76.69,59.41C75.55,61.06,76.16,63.2,78.05,64.19C79.94,65.18,82.4,64.65,83.54,63C96.8,43.86,91.38,17.12,71.39,3.08C69.67,1.87,67.15,2.1,65.77,3.6C64.38,5.09,64.65,7.28,66.36,8.49C83.24,20.35,87.89,43.25,76.69,59.41ZM65.18,51.83C64.05,53.48,64.66,55.62,66.55,56.61C68.45,57.59,70.9,57.06,72.04,55.41C81.27,42.05,77.5,23.44,63.57,13.63C61.85,12.42,59.33,12.65,57.94,14.14C56.55,15.64,56.82,17.83,58.54,19.04C69.37,26.66,72.36,41.44,65.18,51.83ZM63.57,13.63C62.35,12.77,60.73,12.64,59.4,13.17C60.18,13.22,60.95,13.47,61.6,13.93C75.53,23.74,79.3,42.36,70.07,55.72C69.64,56.35,69.01,56.81,68.3,57.09C69.76,57.19,71.24,56.58,72.04,55.42C81.27,42.05,77.5,23.44,63.57,13.63ZM71.39,3.08C70.17,2.22,68.56,2.09,67.22,2.62C68,2.67,68.77,2.92,69.42,3.38C89.41,17.43,94.83,44.16,81.57,63.31C81.14,63.93,80.51,64.4,79.8,64.68C81.26,64.78,82.73,64.17,83.54,63C96.8,43.86,91.38,17.12,71.39,3.08Z"/></svg>