<svg xmlns="http://www.w3.org/2000/svg" viewBox="0 0 90 90"><path d="M21.58,85L21.58,83.91C21.58,75.76,25.47,72.79,29.51,69.71C33.56,66.63,37.77,63.43,38.39,54.78L32.18,54.78C31.33,53.21,31.21,51.46,31.21,49.7L37.76,45.71C34.79,43.36,33.27,39.61,33.27,36.22C33.27,29.82,38.49,24.62,45.03,24.56C51.51,24.62,56.73,29.82,56.73,36.22C56.73,39.61,55.21,43.36,52.24,45.71L58.79,49.7C58.79,51.46,58.67,53.21,57.82,54.78L51.61,54.78C52.23,63.43,56.44,66.63,60.49,69.71C64.53,72.79,68.42,75.76,68.42,83.91L68.42,85Z" fill="currentColor"/><path d="M51.68,55.57C52.77,66.34,59.67,68.25,64.27,72.88C53.2,71.2,46.32,62.49,38.96,54.78L51.61,54.78Z" fill="currentColor"/><path d="M56.73,36.22C56.73,39.61,55.21,43.36,52.24,45.71L44.24,45.71C44.26,45.71,49.72,44.47,52.53,40.51C56.28,35.19,53.09,27.82,48.99,25.27C53.51,26.9,56.73,31.19,56.73,36.22Z" fill="currentColor"/><path d="M32.86,71.52C27.09,75.73,23.78,77.71,21.58,85L21.58,83.91C21.58,75.76,25.47,72.79,29.51,69.71C32.47,67.46,35.5,65.15,37.17,60.71C36.74,64.7,36.09,69.15,32.86,71.52Z" fill="currentColor"/><path d="M58.79,49.7C58.79,51.46,58.66,53.21,57.82,54.78L32.18,54.78C31.89,54.23,31.68,53.66,31.54,53.08L51.04,53.08C55.9,49.94,51,45.81,50.9,45.71L52.24,45.71Z" fill="currentColor"/><path d="M31.22,50.25C31.22,50.06,31.21,49.88,31.21,49.7L37.76,45.71L36.33,50.24Z" fill="currentColor"/><path d="M33.68,39.32C33.41,38.29,33.27,37.24,33.27,36.22C33.27,30,38.2,24.91,44.48,24.58C44.54,24.58,44.59,24.57,44.65,24.57L44.79,24.57C40.77,25.06,34.61,29.78,33.68,39.32Z" fill="currentColor"/><path d="M14.31,58.41C15.45,60.06,14.84,62.2,12.95,63.19C11.06,64.18,8.6,63.65,7.46,62C-5.8,42.86,-0.38,16.12,19.61,2.08C21.33,0.87,23.85,1.1,25.23,2.6C26.62,4.09,26.35,6.28,24.64,7.49C7.75,19.35,3.11,42.25,14.31,58.41Z" fill="currentColor"/><path d="M25.82,50.83C26.95,52.48,26.34,54.62,24.45,55.61C22.55,56.59,20.1,56.06,18.96,54.41C9.73,41.05,13.5,22.44,27.43,12.63C29.15,11.42,31.67,11.65,33.06,13.14C34.45,14.64,34.18,16.83,32.46,18.04C21.63,25.66,18.64,40.44,25.82,50.83Z" fill="currentColor"/><path d="M27.43,12.63C28.65,11.77,30.27,11.64,31.6,12.17C30.82,12.22,30.05,12.47,29.4,12.93C15.47,22.74,11.7,41.36,20.93,54.72C21.36,55.35,21.99,55.81,22.7,56.09C21.24,56.19,19.76,55.58,18.96,54.42C9.73,41.05,13.5,22.44,27.43,12.63Z" fill="currentColor"/><path d="M19.61,2.08C20.83,1.22,22.45,1.09,23.78,1.62C23,1.67,22.23,1.92,21.58,2.38C1.59,16.43,-3.83,43.16,9.43,62.31C9.86,62.93,10.49,63.4,11.2,63.68C9.74,63.78,8.27,63.17,7.46,62C-5.8,42.86,-0.38,16.12,19.61,2.08Z" fill="currentColor"/><path d="M75.69,58.41C74.55,60.06,75.16,62.2,77.05,63.19C78.94,64.18,81.4,63.65,82.54,62C95.8,42.86,90.38,16.12,70.39,2.08C68.67,0.87,66.15,1.1,64.77,2.6C63.38,4.09,63.65,6.28,65.36,7.49C82.24,19.35,86.89,42.25,75.69,58.41Z" fill="currentColor"/><path d="M64.18,50.83C63.05,52.48,63.66,54.62,65.55,55.61C67.45,56.59,69.9,56.06,71.04,54.41C80.27,41.05,76.5,22.44,62.57,12.63C60.85,11.42,58.33,11.65,56.94,13.14C55.55,14.64,55.82,16.83,57.54,18.04C68.37,25.66,71.36,40.44,64.18,50.83Z" fill="currentColor"/><path d="M62.57,12.63C61.35,11.77,59.73,11.64,58.4,12.17C59.18,12.22,59.95,12.47,60.6,12.93C74.53,22.74,78.3,41.36,69.07,54.72C68.64,55.35,68.01,55.81,67.3,56.09C68.76,56.19,70.24,55.58,71.04,54.42C80.27,41.05,76.5,22.44,62.57,12.63Z" fill="currentColor"/><path d="M70.39,2.08C69.17,1.22,67.56,1.09,66.22,1.62C67,1.67,67.77,1.92,68.42,2.38C88.41,16.43,93.83,43.16,80.57,62.31C80.14,62.93,79.51,63.4,78.8,63.68C80.26,63.78,81.73,63.17,82.54,62C95.8,42.86,90.38,16.12,70.39,2.08Z" fill="currentColor"/></svg>