<svg xmlns="http://www.w3.org/2000/svg" viewBox="0 0 90 90"><path d="M30.8,24.63L30.74,24.58C31.53,23.79,32.36,23.08,33.23,22.44C40.9,16.15,48.52,14.68,45.9,0C45.9,0,53.67,4.06,54.91,11.93C55.39,14.97,55.37,17.42,55.03,19.51L55.01,19.5C54.94,19.92,54.86,20.34,54.77,20.75C53.89,24.78,51.16,27.97,49.05,31.4C46.86,34.85,45.9,38.92,45.9,42.98C47.01,40.96,48.04,39.16,49.16,37.63C51.67,34.25,54.33,32.7,57.18,29.25C58.51,27.74,59.57,25.92,60.36,23.94C60.6,24.15,60.84,24.35,61.06,24.58C65.26,28.78,67.35,34.29,67.34,39.79C67.35,45.29,65.26,50.8,61.06,55C52.69,63.38,39.12,63.38,30.74,55C22.37,46.63,22.37,33.06,30.74,24.68C30.76,24.67,30.78,24.65,30.8,24.63Z" fill="url(#paint0_linear_258_23)"/><path d="M49.16,37.63C48.04,39.16,47.01,40.96,45.9,42.98C45.9,38.92,46.86,34.85,49.05,31.4C51.16,27.97,53.89,24.78,54.77,20.75C54.86,20.34,54.94,19.92,55.01,19.5L55.03,19.51C55.37,17.42,55.39,14.97,54.91,11.93C53.67,4.06,45.91,0,45.9,0C53.45,7.55,52.8,17.79,38.32,32.27C34.14,36.45,34.14,43.24,38.32,47.42C42.51,51.61,49.3,51.61,53.48,47.42C60.55,40.35,60.36,33,60.36,23.94C60.36,23.94,60.36,23.94,60.36,23.94C59.57,25.92,58.51,27.74,57.18,29.25C54.33,32.7,51.67,34.25,49.16,37.63Z" fill="url(#paint1_linear_258_23)"/><path d="M45.91,50.34L45.9,50.34L45.9,50.34C38.35,50.34,30.85,51.47,23.64,53.68L23.64,53.68C22.32,54.09,21.66,55.58,22.25,56.83L26.66,66.19C27.07,67.07,27.95,67.63,28.93,67.63L37.05,67.63L41.99,88.44C42.21,89.35,43.03,90,43.97,90L45.9,90L47.84,90C48.78,90,49.6,89.35,49.81,88.44L54.75,67.63L62.88,67.63C63.85,67.63,64.74,67.07,65.15,66.19L69.56,56.83C70.15,55.58,69.49,54.09,68.16,53.68C60.95,51.47,53.45,50.34,45.91,50.34Z" fill="url(#paint2_linear_258_23)"/><path d="M43.8,50.37C40.41,50.47,37.03,50.79,33.68,51.33C33.65,51.34,33.61,51.35,33.58,51.35C32.79,51.48,32.01,51.62,31.23,51.78C31.14,51.79,31.06,51.81,30.98,51.83C30.22,51.98,29.47,52.14,28.72,52.32C28.62,52.34,28.52,52.36,28.43,52.38C27.68,52.56,26.93,52.75,26.18,52.95C26.11,52.97,26.03,52.99,25.96,53.01C25.18,53.23,24.41,53.45,23.64,53.68L23.64,53.68C22.32,54.09,21.66,55.58,22.25,56.83L26.66,66.19C26.81,66.52,27.03,66.81,27.3,67.04C27.48,67.19,27.68,67.31,27.89,67.41C28,67.46,28.11,67.5,28.22,67.53C28.44,67.6,28.68,67.63,28.93,67.63L37.05,67.63L41.99,88.44C41.99,88.44,41.99,88.44,41.99,88.44C42.21,89.36,43.03,90,43.97,90L45.87,90L51.32,63.96C52.53,58.2,49.33,52.42,43.81,50.37C43.81,50.37,43.8,50.37,43.8,50.37Z" fill="url(#paint3_linear_258_23)"/></svg>