<svg xmlns="http://www.w3.org/2000/svg" viewBox="0 0 90 90" fill="currentColor"><path d="M31.8,66.37L31.74,66.42C32.53,67.21,33.36,67.92,34.23,68.56C41.9,74.85,49.52,76.32,46.9,91C46.9,91,54.67,86.94,55.91,79.07C56.39,76.03,56.37,73.58,56.03,71.49L56.01,71.5C55.94,71.08,55.86,70.66,55.77,70.25C54.89,66.22,52.16,63.03,50.05,59.6C47.86,56.15,46.9,52.08,46.9,48.02C48.01,50.04,49.04,51.84,50.16,53.37C52.67,56.75,55.33,58.3,58.18,61.75C59.51,63.26,60.57,65.08,61.36,67.06C61.6,66.85,61.84,66.65,62.06,66.42C66.26,62.22,68.35,56.71,68.34,51.21C68.35,45.71,66.26,40.2,62.06,36C53.69,27.62,40.12,27.62,31.74,36C23.37,44.37,23.37,57.94,31.74,66.32C31.76,66.33,31.78,66.35,31.8,66.37ZM50.16,53.37C49.04,51.84,48.01,50.04,46.9,48.02C46.9,52.08,47.86,56.15,50.05,59.6C52.16,63.03,54.89,66.22,55.77,70.25C55.86,70.66,55.94,71.08,56.01,71.5L56.03,71.49C56.37,73.58,56.39,76.03,55.91,79.07C54.67,86.94,46.91,91,46.9,91C54.45,83.45,53.8,73.21,39.32,58.73C35.14,54.55,35.14,47.76,39.32,43.58C43.51,39.39,50.3,39.39,54.48,43.58C61.55,50.65,61.36,58,61.36,67.06C61.36,67.06,61.36,67.06,61.36,67.06C60.57,65.08,59.51,63.26,58.18,61.75C55.33,58.3,52.67,56.75,50.16,53.37ZM46.91,40.66L46.9,40.66L46.9,40.66C39.35,40.66,31.85,39.53,24.64,37.32L24.64,37.32C23.32,36.91,22.66,35.42,23.25,34.17L27.66,24.81C28.07,23.93,28.95,23.37,29.93,23.37L38.05,23.37L42.99,2.56C43.21,1.65,44.03,1,44.97,1L46.9,1L48.84,1C49.78,1,50.6,1.65,50.81,2.56L55.75,23.37L63.88,23.37C64.85,23.37,65.74,23.93,66.15,24.81L70.56,34.17C71.15,35.42,70.49,36.91,69.16,37.32C61.95,39.53,54.45,40.66,46.91,40.66ZM44.8,40.63C41.41,40.53,38.03,40.21,34.68,39.67C34.65,39.66,34.61,39.65,34.58,39.65C33.79,39.52,33.01,39.38,32.23,39.22C32.14,39.21,32.06,39.19,31.98,39.17C31.22,39.02,30.47,38.86,29.72,38.68C29.62,38.66,29.52,38.64,29.43,38.62C28.68,38.44,27.93,38.25,27.18,38.05C27.11,38.03,27.03,38.01,26.96,37.99C26.18,37.77,25.41,37.55,24.64,37.32L24.64,37.32C23.32,36.91,22.66,35.42,23.25,34.17L27.66,24.81C27.81,24.48,28.03,24.19,28.3,23.96C28.48,23.81,28.68,23.69,28.89,23.59C29,23.54,29.11,23.5,29.22,23.47C29.44,23.4,29.68,23.37,29.93,23.37L38.05,23.37L42.99,2.56C42.99,2.56,42.99,2.56,42.99,2.56C43.21,1.64,44.03,1,44.97,1L46.87,1L52.32,27.04C53.53,32.8,50.33,38.58,44.81,40.63C44.81,40.63,44.8,40.63,44.8,40.63Z"/></svg>