<svg xmlns="http://www.w3.org/2000/svg" viewBox="0 0 90 90"><path d="M53,0L76,0L63.89,21C62.1,24.09,58.8,26,55.22,26L38,26Z" fill="currentColor"/><path d="M58,0L71,0L60.33,18.5C57.65,23.14,52.7,26,47.34,26L43,26Z" fill="currentColor"/><path d="M55.22,26L41.15,26C40.21,25.84,39.3,25.59,38.43,25.26L47.98,8.7L57.7,25.69C56.9,25.89,56.07,26,55.22,26Z" fill="currentColor"/><path d="M63,29L63,41L58,41L58,29C58,27.34,56.66,26,55,26L35,26C33.34,26,32,27.34,32,29L32,41L27,41L27,29C27,24.58,30.58,21,35,21L55,21C59.42,21,63,24.58,63,29Z" fill="currentColor"/><path d="M50,21L55,21C53.11,21.54,52.09,23.57,52.78,25.41L53,26Z" fill="currentColor"/><path d="M38,0L15,0L27.11,21C28.9,24.09,32.2,26,35.78,26L53,26Z" fill="currentColor"/><path d="M33,0L20,0L35,26L48,26Z" fill="currentColor"/><path d="M75,60.68C75,44.49,61.57,31.36,45,31.36C28.43,31.36,15,44.49,15,60.68C15,76.87,28.43,90,45,90C61.57,90,75,76.87,75,60.68Z" fill="currentColor"/><path d="M75,58C75,41.43,61.57,28,45,28C28.43,28,15,41.43,15,58C15,74.57,28.43,88,45,88C61.57,88,75,74.57,75,58Z" fill="currentColor"/><path d="M17.43,69.84C15.87,66.21,15,62.2,15,58C15,42.44,26.84,29.65,42,28.15L42,33.47C42,49.72,32.03,63.97,17.43,69.84Z" fill="currentColor"/><path d="M50.23,87.54C61.1,83.83,69.75,75.64,74.12,65.24C71.29,76.65,61.93,85.49,50.23,87.54Z" fill="currentColor"/><path d="M15.22,54.39C16.93,40.07,28.73,28.85,43.32,28.05C29.91,31.47,19.39,41.52,15.22,54.39Z" fill="currentColor"/><path d="M45,82C31.75,82,21,71.25,21,58C21,44.74,31.75,34,45,34C58.25,34,69,44.74,69,58C69,71.25,58.25,82,45,82Z" fill="currentColor"/><path d="M45,78C33.95,78,25,69.05,25,58C25,46.95,33.95,38,45,38C56.05,38,65,46.95,65,58C65,69.05,56.05,78,45,78Z" fill="currentColor"/><path d="M65,58C65,65.21,61.18,71.53,55.46,75.05C59.69,69.61,62.92,63.44,64.96,56.82C64.99,57.21,65,57.6,65,58Z" fill="currentColor"/></svg>