<svg xmlns="http://www.w3.org/2000/svg" viewBox="0 0 90 90" fill="currentColor"><path d="M54,91L77,91L64.89,70C63.1,66.91,59.8,65,56.22,65L39,65ZM59,91L72,91L61.33,72.5C58.65,67.86,53.7,65,48.34,65L44,65ZM56.22,65L42.15,65C41.21,65.16,40.3,65.41,39.43,65.74L48.98,82.3L58.7,65.31C57.9,65.11,57.07,65,56.22,65ZM64,62L64,50L59,50L59,62C59,63.66,57.66,65,56,65L36,65C34.34,65,33,63.66,33,62L33,50L28,50L28,62C28,66.42,31.58,70,36,70L56,70C60.42,70,64,66.42,64,62ZM51,70L56,70C54.11,69.46,53.09,67.43,53.78,65.59L54,65ZM39,91L16,91L28.11,70C29.9,66.91,33.2,65,36.78,65L54,65ZM34,91L21,91L36,65L49,65ZM76,30.32C76,46.51,62.57,59.64,46,59.64C29.43,59.64,16,46.51,16,30.32C16,14.13,29.43,1,46,1C62.57,1,76,14.13,76,30.32ZM76,33C76,49.57,62.57,63,46,63C29.43,63,16,49.57,16,33C16,16.43,29.43,3,46,3C62.57,3,76,16.43,76,33ZM43,57.53C43,41.28,33.03,27.02,18.43,21.16C16.87,24.79,16,28.79,16,33C16,48.56,27.84,61.35,43,62.85ZM16.21,36.6C20.39,49.48,30.91,59.53,44.32,62.95C29.73,62.15,17.93,50.92,16.21,36.6ZM75.12,25.77C70.75,15.36,62.11,7.17,51.24,3.46C62.93,5.51,72.3,14.35,75.12,25.77ZM46,9C32.75,9,22,19.75,22,33C22,46.26,32.75,57,46,57C59.25,57,70,46.26,70,33C70,19.75,59.25,9,46,9ZM46,13C34.95,13,26,21.95,26,33C26,44.05,34.95,53,46,53C57.05,53,66,44.05,66,33C66,21.95,57.05,13,46,13ZM66,33C66,33.4,65.99,33.79,65.97,34.18C63.92,27.56,60.69,21.39,56.46,15.95C62.19,19.47,66,25.79,66,33Z"/></svg>