<svg xmlns="http://www.w3.org/2000/svg" viewBox="0 0 90 90"><path d="M12.05,77.95C9.53,75.43,6.57,74.3,5.44,75.43C4.31,76.56,5.44,79.52,7.96,82.04C10.48,84.56,13.44,85.69,14.57,84.56C15.7,83.43,14.57,80.47,12.05,77.95Z" fill="currentColor"/><path d="M22.81,58.06L5.7,75.17L14.83,84.3L31.94,67.19Z" fill="currentColor"/><path d="M14.76,75.21C22.51,82.96,31.64,86.43,35.11,83L39.76,78.36L11.69,50.25L7.01,54.9C3.54,58.37,7.01,67.46,14.76,75.21Z" fill="currentColor"/><path d="M31.99,58.01C24.24,50.26,15.14,46.79,11.68,50.25C8.21,53.72,11.68,62.81,19.44,70.56C27.19,78.31,36.29,81.78,39.75,78.32C43.22,74.85,39.75,65.76,31.99,58.01Z" fill="currentColor"/><path d="M20.62,69.41C30.7,79.49,42.52,84,47.01,79.47L53.01,73.47L16.57,36.94L10.53,43L10.54,43C6.03,47.51,10.54,59.33,20.62,69.41Z" fill="currentColor"/><path d="M42.98,47.03C32.9,36.96,21.08,32.44,16.57,36.95C12.06,41.46,16.57,53.29,26.65,63.36C36.73,73.44,48.55,77.95,53.06,73.44C57.57,68.93,53.06,57.1,42.98,47.03Z" fill="currentColor"/><path d="M36.86,53.15C34.34,50.63,31.38,49.5,30.25,50.63C29.12,51.76,30.25,54.72,32.77,57.24C35.29,59.76,38.25,60.89,39.38,59.76C40.51,58.63,39.38,55.67,36.86,53.15Z" fill="currentColor"/><path d="M47.62,33.25L30.51,50.36L39.64,59.49L56.75,42.38Z" fill="currentColor"/><path d="M49.16,40.84C59.24,50.92,71.07,55.43,75.58,50.92L81.58,44.92L45.12,8.38L39.08,14.42C34.57,18.93,39.08,30.76,49.16,40.84Z" fill="currentColor"/><path d="M71.54,18.47C61.46,8.39,49.64,3.88,45.13,8.39C40.62,12.9,45.13,24.73,55.21,34.8C65.29,44.88,77.11,49.39,81.62,44.88C86.13,40.37,81.62,28.54,71.54,18.47Z" fill="currentColor"/><path d="M58.63,31.37C66.39,39.12,75.47,42.6,78.94,39.13L83.58,34.48L55.52,6.43L50.87,11.07L50.87,11.06C47.4,14.53,50.87,23.62,58.63,31.37Z" fill="currentColor"/><path d="M75.82,14.18C68.07,6.43,58.97,2.96,55.51,6.42C52.04,9.89,55.51,18.98,63.27,26.73C71.02,34.48,80.12,37.95,83.58,34.49C87.05,31.02,83.58,21.93,75.82,14.18Z" fill="currentColor"/><path d="M71.59,18.41C69.07,15.89,66.11,14.76,64.98,15.89C63.85,17.02,64.98,19.98,67.5,22.5C70.02,25.02,72.98,26.15,74.11,25.02C75.24,23.89,74.11,20.93,71.59,18.41Z" fill="currentColor"/><path d="M75.43,5.45L64.99,15.89L74.12,25.02L84.56,14.58Z" fill="currentColor"/><path d="M82.04,7.96C79.52,5.44,76.56,4.31,75.43,5.44C74.3,6.57,75.43,9.53,77.95,12.05C80.47,14.57,83.43,15.7,84.56,14.57C85.69,13.44,84.56,10.48,82.04,7.96Z" fill="currentColor"/><path d="M63.27,26.73C70.89,34.35,79.82,37.83,83.41,34.65L78.94,39.13C75.47,42.6,66.39,39.12,58.63,31.37C58.46,31.2,58.3,31.03,58.13,30.86L62.77,26.22C62.94,26.39,63.1,26.56,63.27,26.73Z" fill="currentColor" opacity="0.5"/><path d="M14.76,75.21C22.51,82.96,31.64,86.43,35.11,83L37.62,80.5C41.66,81.71,45.06,81.47,47.04,79.48L53.04,73.48C48.5,77.93,36.72,73.41,26.67,63.36C26.5,63.19,26.32,63.01,26.15,62.84L20.11,68.89C20.28,69.06,20.45,69.23,20.62,69.4C25.41,74.19,30.59,77.72,35.2,79.63C30.85,79.26,24.82,75.94,19.44,70.56C19.27,70.39,19.1,70.22,18.94,70.05L14.27,74.72C14.43,74.88,14.6,75.05,14.76,75.21Z" fill="currentColor" opacity="0.5"/><path d="M48.66,40.33C48.82,40.5,48.99,40.67,49.16,40.84C59.24,50.92,71.07,55.43,75.58,50.92L81.58,44.92C77.04,49.36,65.26,44.85,55.21,34.8C55.04,34.63,54.87,34.46,54.7,34.29Z" fill="currentColor" opacity="0.5"/><path d="M55.51,6.42C52.06,9.87,55.47,18.88,63.15,26.6C56.91,18.26,54.38,9.28,57.51,5.64C57.65,5.48,57.79,5.33,57.95,5.2C56.97,5.38,56.15,5.78,55.51,6.42Z" fill="currentColor"/><path d="M16.57,36.95C12.87,40.65,15.24,49.28,21.78,57.83C16.55,48.4,15.17,39.7,19.01,35.56C19.02,35.55,19.03,35.54,19.04,35.52C18.07,35.81,17.24,36.28,16.57,36.95Z" fill="currentColor"/><path d="M45.13,8.39C41.43,12.09,43.8,20.72,50.34,29.26C45.11,19.84,43.73,11.14,47.57,7C47.58,6.99,47.59,6.97,47.6,6.96C46.64,7.24,45.8,7.71,45.13,8.39Z" fill="currentColor"/></svg>