<svg xmlns="http://www.w3.org/2000/svg" viewBox="0 0 90 90"><path d="M13.05,12.44C10.53,14.96,7.57,16.09,6.44,14.96C5.31,13.83,6.44,10.87,8.96,8.35C11.48,5.83,14.44,4.7,15.57,5.83C16.7,6.96,15.57,9.92,13.05,12.44Z" fill="currentColor"/><path d="M23.81,32.33L6.7,15.22L15.83,6.09L32.94,23.2Z" fill="currentColor"/><path d="M15.76,15.18C23.51,7.43,32.64,3.96,36.11,7.39L40.76,12.03L12.69,40.14L8.01,35.49C4.54,32.02,8.01,22.93,15.76,15.18Z" fill="currentColor"/><path d="M32.99,32.38C25.24,40.13,16.14,43.6,12.68,40.14C9.21,36.67,12.68,27.58,20.44,19.83C28.19,12.08,37.29,8.61,40.75,12.07C44.22,15.54,40.75,24.63,32.99,32.38Z" fill="currentColor"/><path d="M21.62,20.98C31.7,10.9,43.52,6.39,48.01,10.92L54.01,16.92L17.57,53.45L11.53,47.39L11.54,47.39C7.03,42.88,11.54,31.06,21.62,20.98Z" fill="currentColor"/><path d="M43.98,43.36C33.9,53.43,22.08,57.95,17.57,53.44C13.06,48.93,17.57,37.1,27.65,27.03C37.73,16.95,49.55,12.44,54.06,16.95C58.57,21.46,54.06,33.29,43.98,43.36Z" fill="currentColor"/><path d="M37.86,37.24C35.34,39.76,32.38,40.89,31.25,39.76C30.12,38.63,31.25,35.67,33.77,33.15C36.29,30.63,39.25,29.5,40.38,30.63C41.51,31.76,40.38,34.72,37.86,37.24Z" fill="currentColor"/><path d="M48.62,57.14L31.51,40.03L40.64,30.9L57.75,48.01Z" fill="currentColor"/><path d="M50.16,49.55C60.24,39.47,72.07,34.96,76.58,39.47L82.58,45.47L46.12,82.01L40.08,75.97C35.57,71.46,40.08,59.63,50.16,49.55Z" fill="currentColor"/><path d="M72.54,71.92C62.46,82,50.64,86.51,46.13,82C41.62,77.49,46.13,65.66,56.21,55.59C66.29,45.51,78.11,41,82.62,45.51C87.13,50.02,82.62,61.85,72.54,71.92Z" fill="currentColor"/><path d="M59.63,59.02C67.39,51.27,76.47,47.79,79.94,51.26L84.58,55.91L56.52,83.96L51.87,79.32L51.87,79.33C48.4,75.86,51.87,66.77,59.63,59.02Z" fill="currentColor"/><path d="M76.82,76.21C69.07,83.96,59.97,87.43,56.51,83.97C53.04,80.5,56.51,71.41,64.27,63.66C72.02,55.91,81.12,52.44,84.58,55.9C88.05,59.37,84.58,68.46,76.82,76.21Z" fill="currentColor"/><path d="M72.59,71.98C70.07,74.5,67.11,75.63,65.98,74.5C64.85,73.37,65.98,70.41,68.5,67.89C71.02,65.37,73.98,64.24,75.11,65.37C76.24,66.5,75.11,69.46,72.59,71.98Z" fill="currentColor"/><path d="M76.43,84.94L65.99,74.5L75.12,65.37L85.56,75.81Z" fill="currentColor"/><path d="M83.04,82.43C80.52,84.95,77.56,86.08,76.43,84.95C75.3,83.82,76.43,80.86,78.95,78.34C81.47,75.82,84.43,74.69,85.56,75.82C86.69,76.95,85.56,79.91,83.04,82.43Z" fill="currentColor"/><path d="M64.27,63.66C71.89,56.04,80.82,52.56,84.41,55.74L79.94,51.26C76.47,47.79,67.39,51.27,59.63,59.02C59.46,59.19,59.3,59.36,59.13,59.53L63.77,64.17C63.94,64,64.1,63.83,64.27,63.66Z" fill="currentColor" opacity="0.5"/><path d="M15.76,15.18C23.51,7.43,32.64,3.96,36.11,7.39L38.62,9.89C42.66,8.68,46.06,8.92,48.04,10.91L54.04,16.91C49.5,12.46,37.72,16.98,27.67,27.03C27.5,27.2,27.32,27.38,27.15,27.55L21.11,21.5C21.28,21.33,21.45,21.16,21.62,20.99C26.41,16.2,31.59,12.67,36.2,10.76C31.85,11.13,25.82,14.45,20.44,19.83C20.27,20,20.1,20.17,19.94,20.34L15.27,15.67C15.43,15.51,15.6,15.34,15.76,15.18Z" fill="currentColor" opacity="0.5"/><path d="M49.66,50.06C49.82,49.89,49.99,49.72,50.16,49.55C60.24,39.47,72.07,34.96,76.58,39.47L82.58,45.47C78.04,41.03,66.26,45.54,56.21,55.59C56.04,55.76,55.87,55.93,55.7,56.1Z" fill="currentColor" opacity="0.5"/><path d="M56.51,83.97C53.06,80.52,56.47,71.51,64.15,63.79C57.91,72.13,55.38,81.11,58.51,84.75C58.65,84.91,58.79,85.06,58.95,85.19C57.97,85.01,57.15,84.61,56.51,83.97Z" fill="currentColor"/><path d="M17.57,53.44C13.87,49.74,16.24,41.11,22.78,32.56C17.55,41.99,16.17,50.69,20.01,54.83C20.02,54.84,20.03,54.85,20.04,54.87C19.07,54.58,18.24,54.11,17.57,53.44Z" fill="currentColor"/><path d="M46.13,82C42.43,78.3,44.8,69.67,51.34,61.13C46.11,70.55,44.73,79.25,48.57,83.39C48.58,83.4,48.59,83.42,48.6,83.43C47.64,83.15,46.8,82.68,46.13,82Z" fill="currentColor"/></svg>