<svg xmlns="http://www.w3.org/2000/svg" viewBox="0 0 90 90"><path d="M16.25,80.45L5.39,70.12L5.39,19L15.95,9.55L70.98,9.55L84.02,21.83L84.02,73.83L73.98,80.45Z" fill="currentColor"/><path d="M57.7,37.12L57.7,41.49L85,41.49L85,37.12Z" fill="currentColor"/><path d="M5,37.12L5,41.49L32.3,41.49L32.3,37.12Z" fill="currentColor"/><path d="M5,37.12L29.05,37.12L29.05,41.48L5,41.48L5,75.3C5,78.14,7.24,80.44,10,80.44L16.25,80.44L16.25,45.84L21.25,45.84L21.25,80.44L68.98,80.44L68.98,45.84L73.98,45.84L73.98,80.44L80,80.44C82.76,80.44,85,78.14,85,75.3L85,41.48L60.78,41.48L60.78,37.12L85,37.12L85,22.2C85,15.1,81.66,9.55,74.76,9.55L65.62,9.55C72.92,11.52,73.98,22.54,73.98,23.33L73.98,33.52L68.98,33.52L68.98,23.65C68.98,15.25,63.7,9.55,55.08,9.55L34.92,9.55C26.3,9.55,21.02,15.25,21.02,23.65L21.02,33.52L16.02,33.52L16.02,23.33C16.02,22.54,17.07,11.52,24.38,9.55L15.24,9.55C8.34,9.55,5,15.1,5,22.2Z" fill="currentColor"/><path d="M49.09,42.4L53.83,42.4C54.38,41.37,54.67,40.42,54.67,39.23L49.29,35.69C51.16,34.34,52.38,32.14,52.38,29.66C52.38,26.53,50.45,23.86,47.72,22.75C46.86,22.4,45.92,22.21,44.93,22.21C40.82,22.21,37.48,25.55,37.48,29.66C37.48,32.14,38.7,34.34,40.57,35.69L35.19,39.23C35.19,40.42,35.47,41.37,36.03,42.4L40.77,42.4C40.75,42.85,40.74,43.44,40.74,44.15C40.64,46.75,39.87,50.93,33.75,55.6C32.16,56.81,30.96,58.52,30.23,60.59C30.23,60.61,30.21,60.63,30.2,60.65C30.18,60.7,30.17,60.75,30.16,60.8C30.15,60.83,30.14,60.86,30.13,60.89C29.68,62.28,29.43,63.83,29.43,65.49C29.43,65.68,29.84,68.49,44.93,68.49C60.02,68.49,60.43,65.67,60.43,65.49C60.43,61.21,58.83,57.68,56.11,55.61L56.1,55.6C48.32,49.67,49.18,44.52,49.09,42.4Z" fill="currentColor"/></svg>