<svg xmlns="http://www.w3.org/2000/svg" viewBox="0 0 90 90" fill="currentColor"><path d="M17.25,10.55L6.39,20.88L6.39,72L16.95,81.45L71.98,81.45L85.02,69.17L85.02,17.17L74.98,10.55ZM58.7,53.88L58.7,49.51L86,49.51L86,53.88ZM6,53.88L6,49.51L33.3,49.51L33.3,53.88ZM6,53.88L30.05,53.88L30.05,49.52L6,49.52L6,15.7C6,12.86,8.24,10.56,11,10.56L17.25,10.56L17.25,45.16L22.25,45.16L22.25,10.56L69.98,10.56L69.98,45.16L74.98,45.16L74.98,10.56L81,10.56C83.76,10.56,86,12.86,86,15.7L86,49.52L61.78,49.52L61.78,53.88L86,53.88L86,68.8C86,75.9,82.66,81.45,75.76,81.45L66.62,81.45C73.92,79.48,74.98,68.46,74.98,67.67L74.98,57.48L69.98,57.48L69.98,67.35C69.98,75.75,64.7,81.45,56.08,81.45L35.92,81.45C27.3,81.45,22.02,75.75,22.02,67.35L22.02,57.48L17.02,57.48L17.02,67.67C17.02,68.46,18.07,79.48,25.38,81.45L16.24,81.45C9.34,81.45,6,75.9,6,68.8ZM50.09,48.6L54.83,48.6C55.38,49.63,55.67,50.58,55.67,51.77L50.29,55.31C52.16,56.66,53.38,58.86,53.38,61.34C53.38,64.47,51.45,67.14,48.72,68.25C47.86,68.6,46.92,68.79,45.93,68.79C41.82,68.79,38.48,65.45,38.48,61.34C38.48,58.86,39.7,56.66,41.57,55.31L36.19,51.77C36.19,50.58,36.47,49.63,37.03,48.6L41.77,48.6C41.75,48.15,41.74,47.56,41.74,46.85C41.64,44.25,40.87,40.07,34.75,35.4C33.16,34.19,31.96,32.48,31.23,30.41C31.23,30.39,31.21,30.37,31.2,30.35C31.18,30.3,31.17,30.25,31.16,30.2C31.15,30.17,31.14,30.14,31.13,30.11C30.68,28.72,30.43,27.17,30.43,25.51C30.43,25.32,30.84,22.51,45.93,22.51C61.02,22.51,61.43,25.33,61.43,25.51C61.43,29.79,59.83,33.32,57.11,35.39L57.1,35.4C49.32,41.33,50.18,46.48,50.09,48.6Z"/></svg>