<svg xmlns="http://www.w3.org/2000/svg" viewBox="0 0 90 90"><path d="M69.79,15.22C62.83,9.43,54.04,6.24,45.04,6.24C42.8,6.24,40.53,6.44,38.3,6.83C17.26,10.52,3.14,30.64,6.83,51.69C7.61,56.13,9.12,60.34,11.34,64.21C11.33,64.45,11.32,64.67,11.32,64.88C11.32,71.21,16.39,76.43,22.68,76.66C29.26,81.3,36.96,83.75,44.97,83.75C47.21,83.75,49.48,83.55,51.7,83.16C61.9,81.37,70.79,75.72,76.73,67.25C82.68,58.78,84.97,48.49,83.18,38.3L83.17,38.31C81.59,29.28,76.84,21.08,69.79,15.22Z" fill="currentColor"/><path d="M70.59,14.26C63.41,8.29,54.34,5,45.05,5C42.74,5,40.4,5.2,38.1,5.61C16.37,9.42,1.8,30.19,5.6,51.91C6.4,56.49,7.97,60.84,10.25,64.84C10.24,65.09,10.23,65.32,10.23,65.54C10.23,72.07,15.46,77.46,21.95,77.7C28.74,82.49,36.68,85.02,44.95,85.02C47.26,85.02,49.6,84.82,51.9,84.41C62.42,82.57,71.6,76.73,77.73,67.99C83.87,59.25,86.23,48.63,84.38,38.11L84.39,38.09C82.76,28.77,77.85,20.3,70.59,14.26Z" fill="currentColor"/><path d="M22.81,76.01L22.57,75.84L22.28,75.84C16.66,75.77,12.09,71.14,12.09,65.52C12.09,65.26,12.1,64.99,12.13,64.68L12.15,64.39L12,64.14C9.75,60.26,8.21,56.03,7.43,51.58C3.8,30.87,17.7,11.06,38.41,7.43C40.6,7.05,42.83,6.85,45.04,6.85C63.58,6.85,79.36,20.12,82.56,38.41C84.32,48.44,82.07,58.56,76.21,66.9C70.36,75.24,61.61,80.8,51.58,82.56C49.39,82.94,47.16,83.14,44.95,83.14L44.96,83.14C36.99,83.14,29.33,80.67,22.81,76.01Z" fill="currentColor"/><path d="M23.22,34.64C23.38,34.64,23.55,34.64,23.71,34.61C24.91,34.48,25.99,33.89,26.74,32.95C27.79,31.65,29.35,30.9,31.02,30.9C32.28,30.9,33.47,31.32,34.45,32.11C35.25,32.75,36.25,33.11,37.28,33.11C38.66,33.11,39.94,32.49,40.8,31.42C41.56,30.48,41.9,29.3,41.77,28.1C41.64,26.9,41.05,25.82,40.11,25.07C39.95,24.94,39.79,24.82,39.63,24.7C37.25,22.95,34.43,21.97,31.48,21.88C31.33,21.88,31.18,21.88,31.03,21.88C26.6,21.88,22.46,23.85,19.7,27.3C18.14,29.24,18.45,32.09,20.39,33.65L20.39,33.64C21.19,34.28,22.19,34.64,23.22,34.64Z" fill="currentColor"/><path d="M31.03,23.72C31.09,23.72,31.15,23.72,31.22,23.72C31.18,24.03,31.17,24.36,31.21,24.69C31.45,26.91,33.45,28.51,35.66,28.27C36.98,28.13,38.07,27.37,38.7,26.31C38.79,26.38,38.87,26.44,38.96,26.51C39.51,26.96,39.86,27.59,39.94,28.3C40.02,29.01,39.81,29.7,39.37,30.26C38.86,30.89,38.1,31.26,37.29,31.26C36.68,31.26,36.1,31.06,35.62,30.67C34.32,29.63,32.69,29.05,31.03,29.05C28.79,29.05,26.7,30.05,25.3,31.79C24.85,32.34,24.22,32.69,23.51,32.77C22.81,32.85,22.11,32.64,21.55,32.2C20.4,31.28,20.22,29.6,21.14,28.45C23.55,25.45,27.16,23.72,31.03,23.72Z" fill="currentColor"/><path d="M56.81,31.3C57.81,30.41,59.1,29.92,60.44,29.92C62.01,29.92,63.51,30.59,64.55,31.77C65.35,32.67,66.45,33.21,67.66,33.29C67.75,33.29,67.84,33.29,67.94,33.29C69.04,33.29,70.11,32.89,70.93,32.16C71.83,31.36,72.37,30.26,72.45,29.05C72.52,27.85,72.12,26.68,71.32,25.78C70.74,25.13,70.1,24.52,69.39,23.97C67.12,22.19,64.4,21.14,61.51,20.93C61.15,20.9,60.79,20.89,60.43,20.89C56.88,20.89,53.47,22.18,50.81,24.53C49.91,25.33,49.37,26.43,49.29,27.64C49.22,28.84,49.62,30.01,50.42,30.91C51.28,31.88,52.51,32.43,53.81,32.43L53.82,32.43C54.92,32.43,55.99,32.03,56.81,31.3Z" fill="currentColor"/><path d="M60.44,22.75C60.63,22.75,60.82,22.76,61.01,22.77C60.9,23.1,60.83,23.45,60.81,23.81C60.67,26.04,62.37,27.95,64.6,28.09C66.34,28.2,67.89,27.18,68.55,25.67C69.05,26.09,69.53,26.54,69.95,27.02C70.42,27.55,70.66,28.24,70.61,28.95C70.57,29.66,70.25,30.31,69.72,30.78C69.23,31.21,68.61,31.45,67.95,31.45C67.9,31.45,67.84,31.45,67.79,31.45C67.08,31.41,66.43,31.09,65.96,30.56C64.57,28.99,62.56,28.09,60.46,28.09C58.67,28.09,56.94,28.74,55.6,29.93C55.11,30.36,54.49,30.6,53.83,30.6C53.07,30.6,52.34,30.27,51.83,29.7C51.36,29.17,51.12,28.48,51.17,27.77C51.21,27.06,51.53,26.41,52.06,25.94L52.05,25.92C54.36,23.87,57.34,22.75,60.44,22.75Z" fill="currentColor"/><path d="M68.15,40.88C68.17,40.88,68.19,40.88,68.22,40.88C68.73,40.84,69.12,40.4,69.08,39.89C69.02,39.01,69.3,38.15,69.89,37.48C70.47,36.81,71.28,36.41,72.16,36.35C73.98,36.22,75.57,37.6,75.7,39.43C75.74,39.94,76.18,40.32,76.69,40.29C77.2,40.25,77.59,39.81,77.55,39.3C77.35,36.46,74.88,34.3,72.03,34.5C69.19,34.7,67.03,37.17,67.23,40.02C67.26,40.51,67.67,40.88,68.15,40.88Z" fill="currentColor"/><path d="M20.24,42.21C20.28,42.72,20.72,43.1,21.23,43.07C21.74,43.03,22.13,42.59,22.09,42.08C21.89,39.24,19.41,37.08,16.57,37.28C15.19,37.38,13.93,38,13.03,39.05C12.12,40.09,11.68,41.42,11.77,42.8C11.8,43.29,12.21,43.66,12.69,43.66C12.71,43.66,12.73,43.66,12.76,43.66C13.27,43.62,13.66,43.18,13.62,42.67C13.49,40.85,14.87,39.26,16.7,39.13C18.52,39.01,20.11,40.38,20.24,42.21Z" fill="currentColor"/><path d="M39.17,44.16C38.22,44.65,37.51,45.49,37.19,46.51C36.87,47.53,36.96,48.62,37.45,49.57C38.14,50.91,39.51,51.74,41.02,51.74C41.66,51.74,42.3,51.58,42.84,51.3C43.19,51.17,44.63,51.3,45.32,51.35C45.85,51.39,46.3,51.43,46.64,51.43C48.74,51.43,50.45,49.72,50.45,47.62C50.45,47.21,50.36,46.31,50.17,44.96C50.1,44.45,49.63,44.1,49.13,44.17C49.05,44.18,48.98,44.2,48.91,44.23C48.52,44.38,48.28,44.78,48.33,45.21C48.57,46.98,48.59,47.5,48.59,47.61C48.59,48.69,47.71,49.57,46.63,49.57C46.37,49.57,45.93,49.53,45.46,49.49C43.8,49.35,42.66,49.29,42,49.63C41.69,49.79,41.36,49.87,41.01,49.87C40.2,49.87,39.46,49.42,39.09,48.7C38.82,48.19,38.77,47.6,38.95,47.05C39.12,46.5,39.5,46.05,40.02,45.78C44.19,43.62,42.79,38.32,42.61,37.72C42.27,36.58,42.92,35.38,44.05,35.03C44.29,34.96,44.54,34.93,44.79,34.94C44.93,34.94,45.06,34.92,45.18,34.88C45.51,34.75,45.74,34.44,45.76,34.07C45.79,33.56,45.39,33.12,44.88,33.1C44.42,33.08,43.95,33.13,43.51,33.27C41.4,33.91,40.2,36.15,40.83,38.25L40.84,38.27C40.97,38.72,42.03,42.69,39.17,44.16Z" fill="currentColor"/><path d="M73.88,39.7C73.81,39.6,73.73,39.51,73.63,39.44C73.31,39.23,72.93,39.11,72.54,39.11C71.88,39.11,71.3,39.43,70.93,39.98C70.28,40.97,69.54,41.92,68.76,42.82C68.64,42.96,68.51,43.11,68.39,43.25C68.34,43.3,68.3,43.36,68.27,43.43C68.21,43.47,68.14,43.52,68.09,43.58C66.06,45.74,63.65,47.59,60.92,49.1C60.9,49.11,60.89,49.13,60.87,49.14C60.77,49.21,60.68,49.29,60.61,49.39C60.61,49.39,60.61,49.39,60.61,49.4C60.47,49.4,60.32,49.43,60.19,49.5C57.75,50.76,55.06,51.76,52.19,52.47C52.13,52.49,52.07,52.51,52.01,52.54C51.97,52.56,51.93,52.59,51.89,52.62C51.85,52.62,51.81,52.61,51.76,52.61C51.69,52.61,51.62,52.61,51.55,52.63C49.01,53.21,46.32,53.58,43.55,53.71C40.51,53.86,37.54,53.73,34.89,53.29C32.01,52.81,29.43,51.98,27,50.77C26.9,50.72,26.79,50.7,26.69,50.68C26.66,50.64,26.63,50.61,26.59,50.58C26.54,50.54,26.49,50.5,26.43,50.47C26.41,50.47,26.39,50.45,26.37,50.44C25.2,49.81,24.06,49.08,22.96,48.26C21.35,47.01,19.81,45.55,18.32,43.86C17.94,43.44,17.43,43.2,16.87,43.2C15.79,43.2,14.93,44.04,14.92,45.11C14.88,47.69,14.65,50.2,14.42,52.63C13.79,59.44,13.24,65.33,17.18,69.65C17.89,70.43,18.74,71.13,19.72,71.76C23.39,74.11,29.05,75.47,37.04,75.91C39.03,76.02,41.15,76.08,43.44,76.08C44.27,76.08,45.1,76.04,45.92,75.97C56.07,75.1,64.89,68.97,70.09,60.07C73.22,54.71,75.04,48.34,75.04,41.53L75.04,41.49L75.03,41.47C75.03,40.67,74.56,40,73.88,39.7Z" fill="currentColor"/><path d="M16.26,52.78C16.49,50.32,16.73,47.77,16.77,45.11C16.77,45.08,16.79,45.06,16.81,45.04L16.81,48.97C16.81,50.63,17.6,52.22,18.93,53.22L19.01,53.28C19.95,53.98,21.04,54.35,22.18,54.35C23.47,54.35,24.7,53.88,25.66,53.07L25.66,54.1C25.66,56.19,26.98,58.07,28.95,58.78L29.03,58.81C29.57,59,30.14,59.1,30.71,59.1C32.05,59.1,33.27,58.56,34.16,57.69C34.82,59.34,36.39,60.53,38.26,60.62C38.78,60.64,39.31,60.66,39.83,60.66L39.87,60.66C41.68,60.66,43.25,59.61,44.02,58.08C44.93,59.05,46.22,59.66,47.65,59.66C48.06,59.66,48.48,59.61,48.88,59.51L48.96,59.49C51.03,58.97,52.51,57.17,52.67,55.05C53.63,55.87,54.87,56.35,56.15,56.35C57.02,56.35,57.86,56.14,58.64,55.73L58.73,55.68C60.3,54.85,61.33,53.29,61.51,51.54C61.61,51.49,61.71,51.44,61.81,51.38C62.37,51.67,62.99,51.83,63.63,51.83C64.48,51.83,65.29,51.55,65.98,51.03C66.76,50.44,67.54,49.81,68.3,49.17C69.19,48.42,69.69,47.33,69.69,46.17L69.69,45.53C70.04,45.67,70.41,45.74,70.8,45.74C71.6,45.74,72.35,45.41,72.92,44.82L72.96,44.78C72.96,44.78,73.01,44.71,73.04,44.68C72.65,49.12,71.45,53.29,69.6,57.04C68.75,56.24,67.62,55.77,66.44,55.77C65.44,55.77,64.48,56.1,63.67,56.73C63.42,56.93,63.17,57.12,62.91,57.31C61.65,58.26,60.96,59.76,61.06,61.31L61.13,62.34C60.25,61.68,59.16,61.29,57.98,61.29C57.15,61.29,56.35,61.48,55.6,61.86L55.51,61.9C53.99,62.65,52.96,64.04,52.65,65.63C51.81,64.98,50.76,64.59,49.63,64.59C49.19,64.59,48.76,64.65,48.33,64.77L48.25,64.79C46.89,65.16,45.8,66.07,45.16,67.24C44.24,66.29,42.92,65.73,41.49,65.82L41.55,66.74L41.45,65.82C41.04,65.85,40.63,65.87,40.22,65.88C38.96,65.91,37.8,66.45,36.95,67.38C36.9,67.44,36.85,67.5,36.8,67.56C36.09,66.43,34.95,65.6,33.58,65.34L33.5,65.32C31.92,65.01,30.26,65.49,29.1,66.58C28.77,64.97,27.69,63.59,26.16,62.87L26.04,62.82C25.31,62.47,24.54,62.3,23.75,62.3C22.29,62.3,20.89,62.91,19.89,63.98C18.9,65.04,18.41,66.43,18.51,67.89L18.54,68.41C18.54,68.41,18.52,68.39,18.52,68.38L18.54,68.38C15.15,64.66,15.67,59.16,16.26,52.78Z" fill="currentColor"/><path d="M21.73,49.63C22.66,50.33,23.62,50.97,24.6,51.55C24.58,51.57,24.56,51.58,24.54,51.6C23.91,52.17,23.07,52.51,22.19,52.51C21.45,52.51,20.74,52.27,20.13,51.81L20.05,51.75C19.19,51.1,18.67,50.07,18.67,48.99L18.67,47.02L18.66,47.01C19.66,47.97,20.68,48.84,21.73,49.63Z" fill="currentColor"/><path d="M57.86,54.05L57.78,54.09C57.26,54.36,56.72,54.5,56.15,54.5C55.67,54.5,55.21,54.4,54.78,54.21C54.55,54.11,54.34,53.99,54.13,53.85C56.04,53.3,57.86,52.63,59.58,51.84C59.52,52.1,59.42,52.35,59.3,52.59C58.99,53.2,58.49,53.72,57.86,54.05Z" fill="currentColor"/><path d="M50.79,55.17C50.6,56.39,49.72,57.39,48.51,57.7L48.43,57.72C48.17,57.78,47.91,57.82,47.65,57.82C46.36,57.82,45.25,57.04,44.78,55.92C44.72,55.78,44.67,55.64,44.63,55.49C46.76,55.35,48.84,55.07,50.84,54.66L50.84,54.68L50.83,54.68C50.83,54.84,50.82,55.01,50.79,55.17Z" fill="currentColor"/><path d="M35.67,55.25C37.87,55.54,40.23,55.64,42.67,55.57L42.67,55.95C42.67,55.95,42.67,55.98,42.67,56C42.65,57.55,41.4,58.8,39.87,58.8L39.83,58.8C39.34,58.8,38.84,58.79,38.35,58.77C36.85,58.7,35.67,57.45,35.67,55.92L35.67,55.59Z" fill="currentColor"/><path d="M27.51,53.03C29.46,53.88,31.5,54.51,33.71,54.94C33.68,55.04,33.65,55.13,33.62,55.23C33.17,56.41,32.03,57.25,30.71,57.25C30.35,57.25,30,57.19,29.66,57.07L29.58,57.04C28.35,56.6,27.52,55.42,27.52,54.11L27.52,53.21L27.51,53.2Z" fill="currentColor"/><path d="M64.87,49.54C64.83,49.57,64.8,49.59,64.76,49.62C64.72,49.65,64.68,49.68,64.64,49.7C64.19,49.97,63.66,50.05,63.16,49.93C64.85,48.89,66.41,47.73,67.82,46.43C67.76,46.94,67.5,47.42,67.1,47.76C66.37,48.37,65.62,48.97,64.87,49.54Z" fill="currentColor"/><path d="M71.58,43.54C71.47,43.65,71.36,43.73,71.26,43.78C71.09,43.86,70.93,43.89,70.8,43.89C70.65,43.89,70.51,43.86,70.37,43.8C70.97,43.1,71.54,42.36,72.07,41.61C72.02,42.05,71.96,42.49,71.9,42.92C71.9,42.94,71.89,42.96,71.89,42.98C71.85,43.17,71.76,43.35,71.62,43.49L72.29,44.13L72.29,44.14Z" fill="currentColor"/><path d="M27.72,72.56C24.74,71.94,22.37,71.09,20.53,69.99L20.38,67.77C20.32,66.82,20.63,65.93,21.27,65.25C21.92,64.56,22.83,64.16,23.78,64.16C24.29,64.16,24.8,64.28,25.28,64.5L25.4,64.56C26.54,65.1,27.29,66.19,27.38,67.42L27.59,70.52L27.58,70.51Z" fill="currentColor"/><path d="M35.96,73.59C33.63,73.44,31.5,73.21,29.6,72.91L29.43,70.39C29.37,69.52,29.67,68.7,30.26,68.07C30.99,67.29,32.1,66.93,33.17,67.14L33.26,67.16C34.62,67.43,35.64,68.6,35.73,70L35.84,71.59L35.83,71.59Z" fill="currentColor"/><path d="M48.75,66.59L48.83,66.57C49.1,66.5,49.37,66.46,49.64,66.46C51.26,66.46,52.62,67.74,52.73,69.37L52.8,70.47L52.9,71.91C50.89,72.7,48.81,73.24,46.69,73.54L46.46,70.13L46.44,69.8C46.34,68.33,47.31,66.97,48.75,66.59Z" fill="currentColor"/><path d="M56.35,63.57L56.44,63.53C56.93,63.28,57.46,63.16,57.99,63.16C59.56,63.16,61.27,64.35,61.4,66.34L61.42,66.7C59.36,68.5,57.11,69.99,54.7,71.13L54.58,69.37L54.58,69.25L54.42,66.87C54.33,65.49,55.08,64.2,56.35,63.57Z" fill="currentColor"/><path d="M64.81,58.2C65.29,57.83,65.85,57.63,66.44,57.63C67.09,57.63,67.72,57.87,68.21,58.28C66.8,60.78,65.11,63.04,63.16,65.04L62.91,61.2C62.85,60.27,63.27,59.37,64.03,58.8C64.29,58.6,64.55,58.4,64.81,58.2Z" fill="currentColor"/><path d="M44.61,70.25L44.84,73.73C44.19,73.78,43.54,73.8,42.91,73.8C41.14,73.8,39.44,73.77,37.83,73.7L37.66,71.15L37.63,70.7C37.58,69.94,37.83,69.21,38.35,68.65C38.86,68.09,39.55,67.78,40.3,67.76C40.73,67.75,41.17,67.73,41.6,67.7L41.64,67.7L41.63,67.68C43.18,67.58,44.51,68.74,44.61,70.25Z" fill="currentColor"/></svg>