<svg xmlns="http://www.w3.org/2000/svg" viewBox="0 0 90 90" fill="currentColor"><path d="M70.79,75.8C63.83,81.59,55.04,84.78,46.04,84.78C43.8,84.78,41.53,84.58,39.3,84.19C18.26,80.5,4.14,60.38,7.83,39.33C8.61,34.89,10.12,30.68,12.34,26.81C12.33,26.57,12.32,26.35,12.32,26.14C12.32,19.81,17.39,14.59,23.68,14.36C30.26,9.72,37.96,7.27,45.97,7.27C48.21,7.27,50.48,7.47,52.7,7.86C62.9,9.65,71.79,15.3,77.73,23.77C83.68,32.24,85.97,42.53,84.18,52.72L84.17,52.71C82.59,61.74,77.84,69.94,70.79,75.8ZM71.59,76.76C64.41,82.73,55.34,86.02,46.05,86.02C43.74,86.02,41.4,85.82,39.1,85.41C17.37,81.6,2.8,60.83,6.6,39.11C7.4,34.53,8.97,30.18,11.25,26.18C11.24,25.93,11.23,25.7,11.23,25.48C11.23,18.95,16.46,13.56,22.95,13.32C29.74,8.53,37.68,6,45.95,6C48.26,6,50.6,6.2,52.9,6.61C63.42,8.45,72.6,14.29,78.73,23.03C84.87,31.77,87.23,42.39,85.38,52.91L85.39,52.93C83.76,62.25,78.85,70.72,71.59,76.76ZM23.81,15.01L23.57,15.18L23.28,15.18C17.66,15.25,13.09,19.88,13.09,25.5C13.09,25.76,13.1,26.03,13.13,26.34L13.15,26.63L13,26.88C10.75,30.76,9.21,34.99,8.43,39.44C4.8,60.15,18.7,79.96,39.41,83.59C41.6,83.97,43.83,84.17,46.04,84.17C64.58,84.17,80.36,70.9,83.56,52.61C85.32,42.58,83.07,32.46,77.21,24.12C71.36,15.78,62.61,10.22,52.58,8.46C50.39,8.08,48.16,7.88,45.95,7.88L45.96,7.88C37.99,7.88,30.33,10.35,23.81,15.01ZM24.22,56.38C24.38,56.38,24.55,56.38,24.71,56.41C25.91,56.54,26.99,57.13,27.74,58.07C28.79,59.37,30.35,60.12,32.02,60.12C33.28,60.12,34.47,59.7,35.45,58.91C36.25,58.27,37.25,57.91,38.28,57.91C39.66,57.91,40.94,58.53,41.8,59.6C42.56,60.54,42.9,61.72,42.77,62.92C42.64,64.12,42.05,65.2,41.11,65.95C40.95,66.08,40.79,66.2,40.63,66.32C38.25,68.07,35.43,69.05,32.48,69.14C32.33,69.14,32.18,69.14,32.03,69.14C27.6,69.14,23.46,67.17,20.7,63.72C19.14,61.78,19.45,58.93,21.39,57.37L21.39,57.38C22.19,56.74,23.19,56.38,24.22,56.38ZM32.03,67.3C32.09,67.3,32.15,67.3,32.22,67.3C32.18,66.99,32.17,66.66,32.21,66.33C32.45,64.11,34.45,62.51,36.66,62.75C37.98,62.89,39.07,63.65,39.7,64.71C39.79,64.64,39.87,64.58,39.96,64.51C40.51,64.06,40.86,63.43,40.94,62.72C41.02,62.01,40.81,61.32,40.37,60.76C39.86,60.13,39.1,59.76,38.29,59.76C37.68,59.76,37.1,59.96,36.62,60.35C35.32,61.39,33.69,61.97,32.03,61.97C29.79,61.97,27.7,60.97,26.3,59.23C25.85,58.68,25.22,58.33,24.51,58.25C23.81,58.17,23.11,58.38,22.55,58.82C21.4,59.74,21.22,61.42,22.14,62.57C24.55,65.57,28.16,67.3,32.03,67.3ZM57.81,59.72C58.81,60.61,60.1,61.1,61.44,61.1C63.01,61.1,64.51,60.43,65.55,59.25C66.35,58.35,67.45,57.81,68.66,57.73C68.75,57.73,68.84,57.73,68.94,57.73C70.04,57.73,71.11,58.13,71.93,58.86C72.83,59.66,73.37,60.76,73.45,61.97C73.52,63.17,73.12,64.34,72.32,65.24C71.74,65.89,71.1,66.5,70.39,67.05C68.12,68.83,65.4,69.88,62.51,70.09C62.15,70.12,61.79,70.13,61.43,70.13C57.88,70.13,54.47,68.84,51.81,66.49C50.91,65.69,50.37,64.59,50.29,63.38C50.22,62.18,50.62,61.01,51.42,60.11C52.28,59.14,53.51,58.59,54.81,58.59L54.82,58.59C55.92,58.59,56.99,58.99,57.81,59.72ZM61.44,68.27C61.63,68.27,61.82,68.26,62.01,68.25C61.9,67.92,61.83,67.57,61.81,67.21C61.67,64.98,63.37,63.07,65.6,62.93C67.34,62.82,68.89,63.84,69.55,65.35C70.05,64.93,70.53,64.48,70.95,64C71.42,63.47,71.66,62.78,71.61,62.07C71.57,61.36,71.25,60.71,70.72,60.24C70.23,59.81,69.61,59.57,68.95,59.57C68.9,59.57,68.84,59.57,68.79,59.57C68.08,59.61,67.43,59.93,66.96,60.46C65.57,62.03,63.56,62.93,61.46,62.93C59.67,62.93,57.94,62.28,56.6,61.09C56.11,60.66,55.49,60.42,54.83,60.42C54.07,60.42,53.34,60.75,52.83,61.32C52.36,61.85,52.12,62.54,52.17,63.25C52.21,63.96,52.53,64.61,53.06,65.08L53.05,65.1C55.36,67.15,58.34,68.27,61.44,68.27ZM69.15,50.14C69.17,50.14,69.19,50.14,69.22,50.14C69.73,50.18,70.12,50.62,70.08,51.13C70.02,52.01,70.3,52.87,70.89,53.54C71.47,54.21,72.28,54.61,73.16,54.67C74.98,54.8,76.57,53.42,76.7,51.59C76.74,51.08,77.18,50.7,77.69,50.73C78.2,50.77,78.59,51.21,78.55,51.72C78.35,54.56,75.88,56.72,73.03,56.52C70.19,56.32,68.03,53.85,68.23,51C68.26,50.51,68.67,50.14,69.15,50.14ZM21.24,48.81C21.28,48.3,21.72,47.92,22.23,47.95C22.74,47.99,23.13,48.43,23.09,48.94C22.89,51.78,20.41,53.94,17.57,53.74C16.19,53.64,14.93,53.02,14.03,51.97C13.12,50.93,12.68,49.6,12.77,48.22C12.8,47.73,13.21,47.36,13.69,47.36C13.71,47.36,13.73,47.36,13.76,47.36C14.27,47.4,14.66,47.84,14.62,48.35C14.49,50.17,15.87,51.76,17.7,51.89C19.52,52.01,21.11,50.64,21.24,48.81ZM40.17,46.86C39.22,46.37,38.51,45.53,38.19,44.51C37.87,43.49,37.96,42.4,38.45,41.45C39.14,40.11,40.51,39.28,42.02,39.28C42.66,39.28,43.3,39.44,43.84,39.72C44.19,39.85,45.63,39.72,46.32,39.67C46.85,39.63,47.3,39.59,47.64,39.59C49.74,39.59,51.45,41.3,51.45,43.4C51.45,43.81,51.36,44.71,51.17,46.06C51.1,46.57,50.63,46.92,50.13,46.85C50.05,46.84,49.98,46.82,49.91,46.79C49.52,46.64,49.28,46.24,49.33,45.81C49.57,44.04,49.59,43.52,49.59,43.41C49.59,42.33,48.71,41.45,47.63,41.45C47.37,41.45,46.93,41.49,46.46,41.53C44.8,41.67,43.66,41.73,43,41.39C42.69,41.23,42.36,41.15,42.01,41.15C41.2,41.15,40.46,41.6,40.09,42.32C39.82,42.83,39.77,43.42,39.95,43.97C40.12,44.52,40.5,44.97,41.02,45.24C45.19,47.4,43.79,52.7,43.61,53.3C43.27,54.44,43.92,55.64,45.05,55.99C45.29,56.06,45.54,56.09,45.79,56.08C45.93,56.08,46.06,56.1,46.18,56.14C46.51,56.27,46.74,56.58,46.76,56.95C46.79,57.46,46.39,57.9,45.88,57.92C45.42,57.94,44.95,57.89,44.51,57.75C42.4,57.11,41.2,54.87,41.83,52.77L41.84,52.75C41.97,52.3,43.03,48.33,40.17,46.86ZM74.88,51.32C74.81,51.42,74.73,51.51,74.63,51.58C74.31,51.79,73.93,51.91,73.54,51.91C72.88,51.91,72.3,51.59,71.93,51.04C71.28,50.05,70.54,49.1,69.76,48.2C69.64,48.06,69.51,47.91,69.39,47.77C69.34,47.72,69.3,47.66,69.27,47.59C69.21,47.55,69.14,47.5,69.09,47.44C67.06,45.28,64.65,43.43,61.92,41.92C61.9,41.91,61.89,41.89,61.87,41.88C61.77,41.81,61.68,41.73,61.61,41.63C61.61,41.63,61.61,41.63,61.61,41.62C61.47,41.62,61.32,41.59,61.19,41.52C58.75,40.26,56.06,39.26,53.19,38.55C53.13,38.53,53.07,38.51,53.01,38.48C52.97,38.46,52.93,38.43,52.89,38.4C52.85,38.4,52.81,38.41,52.76,38.41C52.69,38.41,52.62,38.41,52.55,38.39C50.01,37.81,47.32,37.44,44.55,37.31C41.51,37.16,38.54,37.29,35.89,37.73C33.01,38.21,30.43,39.04,28,40.25C27.9,40.3,27.79,40.32,27.69,40.34C27.66,40.38,27.63,40.41,27.59,40.44C27.54,40.48,27.49,40.52,27.43,40.55C27.41,40.55,27.39,40.57,27.37,40.58C26.2,41.21,25.06,41.94,23.96,42.76C22.35,44.01,20.81,45.47,19.32,47.16C18.94,47.58,18.43,47.82,17.87,47.82C16.79,47.82,15.93,46.98,15.92,45.91C15.88,43.33,15.65,40.82,15.42,38.39C14.79,31.58,14.24,25.69,18.18,21.37C18.89,20.59,19.74,19.89,20.72,19.26C24.39,16.91,30.05,15.55,38.04,15.11C40.03,15,42.15,14.94,44.44,14.94C45.27,14.94,46.1,14.98,46.92,15.05C57.07,15.92,65.89,22.05,71.09,30.95C74.22,36.31,76.04,42.68,76.04,49.49L76.04,49.53L76.03,49.55C76.03,50.35,75.56,51.02,74.88,51.32ZM17.26,38.24C17.49,40.7,17.73,43.25,17.77,45.91C17.77,45.94,17.79,45.96,17.81,45.98L17.81,42.05C17.81,40.39,18.6,38.8,19.93,37.8L20.01,37.74C20.95,37.04,22.04,36.67,23.18,36.67C24.47,36.67,25.7,37.14,26.66,37.95L26.66,36.92C26.66,34.83,27.98,32.95,29.95,32.24L30.03,32.21C30.57,32.02,31.14,31.92,31.71,31.92C33.05,31.92,34.27,32.46,35.16,33.33C35.82,31.68,37.39,30.49,39.26,30.4C39.78,30.38,40.31,30.36,40.83,30.36L40.87,30.36C42.68,30.36,44.25,31.41,45.02,32.94C45.93,31.97,47.22,31.36,48.65,31.36C49.06,31.36,49.48,31.41,49.88,31.51L49.96,31.53C52.03,32.05,53.51,33.85,53.67,35.97C54.63,35.15,55.87,34.67,57.15,34.67C58.02,34.67,58.86,34.88,59.64,35.29L59.73,35.34C61.3,36.17,62.33,37.73,62.51,39.48C62.61,39.53,62.71,39.58,62.81,39.64C63.37,39.35,63.99,39.19,64.63,39.19C65.48,39.19,66.29,39.47,66.98,39.99C67.76,40.58,68.54,41.21,69.3,41.85C70.19,42.6,70.69,43.69,70.69,44.85L70.69,45.49C71.04,45.35,71.41,45.28,71.8,45.28C72.6,45.28,73.35,45.61,73.92,46.2L73.96,46.24C73.96,46.24,74.01,46.31,74.04,46.34C73.65,41.9,72.45,37.73,70.6,33.98C69.75,34.78,68.62,35.25,67.44,35.25C66.44,35.25,65.48,34.92,64.67,34.29C64.42,34.09,64.17,33.9,63.91,33.71C62.65,32.76,61.96,31.26,62.06,29.71L62.13,28.68C61.25,29.34,60.16,29.73,58.98,29.73C58.15,29.73,57.35,29.54,56.6,29.16L56.51,29.12C54.99,28.37,53.96,26.98,53.65,25.39C52.81,26.04,51.76,26.43,50.63,26.43C50.19,26.43,49.76,26.37,49.33,26.25L49.25,26.23C47.89,25.86,46.8,24.95,46.16,23.78C45.24,24.73,43.92,25.29,42.49,25.2L42.55,24.28L42.45,25.2C42.04,25.17,41.63,25.15,41.22,25.14C39.96,25.11,38.8,24.57,37.95,23.64C37.9,23.58,37.85,23.52,37.8,23.46C37.09,24.59,35.95,25.42,34.58,25.68L34.5,25.7C32.92,26.01,31.26,25.53,30.1,24.44C29.77,26.05,28.69,27.43,27.16,28.15L27.04,28.2C26.31,28.55,25.54,28.72,24.75,28.72C23.29,28.72,21.89,28.11,20.89,27.04C19.9,25.98,19.41,24.59,19.51,23.13L19.54,22.61C19.54,22.61,19.52,22.63,19.52,22.64L19.54,22.64C16.15,26.36,16.67,31.86,17.26,38.24ZM22.73,41.39C23.66,40.69,24.62,40.05,25.6,39.47C25.58,39.45,25.56,39.44,25.54,39.42C24.91,38.85,24.07,38.51,23.19,38.51C22.45,38.51,21.74,38.75,21.13,39.21L21.05,39.27C20.19,39.92,19.67,40.95,19.67,42.03L19.67,44L19.66,44.01C20.66,43.05,21.68,42.18,22.73,41.39ZM58.86,36.97L58.78,36.93C58.26,36.66,57.72,36.52,57.15,36.52C56.67,36.52,56.21,36.62,55.78,36.81C55.55,36.91,55.34,37.03,55.13,37.17C57.04,37.72,58.86,38.39,60.58,39.18C60.52,38.92,60.42,38.67,60.3,38.43C59.99,37.82,59.49,37.3,58.86,36.97ZM51.79,35.85C51.6,34.63,50.72,33.63,49.51,33.32L49.43,33.3C49.17,33.24,48.91,33.2,48.65,33.2C47.36,33.2,46.25,33.98,45.78,35.1C45.72,35.24,45.67,35.38,45.63,35.53C47.76,35.67,49.84,35.95,51.84,36.36L51.84,36.34L51.83,36.34C51.83,36.18,51.82,36.01,51.79,35.85ZM36.67,35.77C38.87,35.48,41.23,35.38,43.67,35.45L43.67,35.07C43.67,35.07,43.67,35.04,43.67,35.02C43.65,33.47,42.4,32.22,40.87,32.22L40.83,32.22C40.34,32.22,39.84,32.23,39.35,32.25C37.85,32.32,36.67,33.57,36.67,35.1L36.67,35.43ZM28.51,37.99C30.46,37.14,32.5,36.51,34.71,36.08C34.68,35.98,34.65,35.89,34.62,35.79C34.17,34.61,33.03,33.77,31.71,33.77C31.35,33.77,31,33.83,30.66,33.95L30.58,33.98C29.35,34.42,28.52,35.6,28.52,36.91L28.52,37.81L28.51,37.82ZM65.87,41.48C65.83,41.45,65.8,41.43,65.76,41.4C65.72,41.37,65.68,41.34,65.64,41.32C65.19,41.05,64.66,40.97,64.16,41.09C65.85,42.13,67.41,43.29,68.82,44.59C68.76,44.08,68.5,43.6,68.1,43.26C67.37,42.65,66.62,42.05,65.87,41.48ZM72.58,47.48C72.47,47.37,72.36,47.29,72.26,47.24C72.09,47.16,71.93,47.13,71.8,47.13C71.65,47.13,71.51,47.16,71.37,47.22C71.97,47.92,72.54,48.66,73.07,49.41C73.02,48.97,72.96,48.53,72.9,48.1C72.9,48.08,72.89,48.06,72.89,48.04C72.85,47.85,72.76,47.67,72.62,47.53L73.29,46.89L73.29,46.88ZM28.72,18.46C25.74,19.08,23.37,19.93,21.53,21.03L21.38,23.25C21.32,24.2,21.63,25.09,22.27,25.77C22.92,26.46,23.83,26.86,24.78,26.86C25.29,26.86,25.8,26.74,26.28,26.52L26.4,26.46C27.54,25.92,28.29,24.83,28.38,23.6L28.59,20.5L28.58,20.51ZM36.96,17.43C34.63,17.58,32.5,17.81,30.6,18.11L30.43,20.63C30.37,21.5,30.67,22.32,31.26,22.95C31.99,23.73,33.1,24.09,34.17,23.88L34.26,23.86C35.62,23.59,36.64,22.42,36.73,21.02L36.84,19.43L36.83,19.43ZM49.75,24.43L49.83,24.45C50.1,24.52,50.37,24.56,50.64,24.56C52.26,24.56,53.62,23.28,53.73,21.65L53.8,20.55L53.9,19.11C51.89,18.32,49.81,17.78,47.69,17.48L47.46,20.89L47.44,21.22C47.34,22.69,48.31,24.05,49.75,24.43ZM57.35,27.45L57.44,27.49C57.93,27.74,58.46,27.86,58.99,27.86C60.56,27.86,62.27,26.67,62.4,24.68L62.42,24.32C60.36,22.52,58.11,21.03,55.7,19.89L55.58,21.65L55.58,21.77L55.42,24.15C55.33,25.53,56.08,26.82,57.35,27.45ZM65.81,32.82C66.29,33.19,66.85,33.39,67.44,33.39C68.09,33.39,68.72,33.15,69.21,32.74C67.8,30.24,66.11,27.98,64.16,25.98L63.91,29.82C63.85,30.75,64.27,31.65,65.03,32.22C65.29,32.42,65.55,32.62,65.81,32.82ZM45.61,20.77L45.84,17.29C45.19,17.24,44.54,17.22,43.91,17.22C42.14,17.22,40.44,17.25,38.83,17.32L38.66,19.87L38.63,20.32C38.58,21.08,38.83,21.81,39.35,22.37C39.86,22.93,40.55,23.24,41.3,23.26C41.73,23.27,42.17,23.29,42.6,23.32L42.64,23.32L42.63,23.34C44.18,23.44,45.51,22.28,45.61,20.77Z"/></svg>