<svg xmlns="http://www.w3.org/2000/svg" viewBox="0 0 90 90" fill="currentColor"><path d="M21,1L71,1C73.76,1,76,3.24,76,6L76,25C76,27.76,73.76,30,71,30L21,30C18.24,30,16,27.76,16,25L16,6C16,3.24,18.24,1,21,1ZM16,25C16,27.76,18.24,30,21,30L66,30L22.98,28.4C19.91,28.29,17.42,25.87,17.22,22.8L16,4.34ZM29.71,19.5L29.71,11.37L62.18,11.37L62.18,19.5ZM29.71,21.5L29.71,13.37L62.18,13.37L62.18,21.5ZM40.92,47.54C40.84,41.98,36.32,37.32,30.73,37.32L29.9,37.32L29.9,30L62.09,30L62.09,37.32L61.15,37.32C55.53,37.32,50.97,42.05,50.97,47.67L50.97,53.63L40.92,53.66ZM46,49.68C44.24,49.68,42.53,49.92,40.92,50.37L40.92,53.66L50.97,53.63L50.97,50.34C49.39,49.91,47.72,49.68,46,49.68ZM30.73,37.32L61.15,37.32C50.71,37.32,43.8,43.9,40.92,47.54C40.84,41.98,36.32,37.32,30.73,37.32ZM18.26,81.22C18.89,75.16,22.68,69.61,29.28,69.51L62.68,69.51C69.28,69.61,73.07,75.16,73.7,81.22ZM78.89,81.94C79.02,84.46,76.84,86.34,74.32,86.34L17.65,86.34C15.13,86.34,12.94,84.46,13.07,81.94C13.55,72.85,19.04,64.51,29.25,64.39L62.72,64.39C72.92,64.51,78.42,72.85,78.89,81.94ZM27.45,90.06C29.23,90.27,36.15,91,46,91C55.85,91,62.77,90.27,64.55,90.06C64.81,90.02,65,89.8,65,89.54L65,71.68C65,61.19,56.49,52.68,46,52.68C35.51,52.68,27,61.19,27,71.68L27,89.54C27,89.8,27.19,90.02,27.45,90.06ZM41.6,74.63C41.6,67.75,37.8,61.76,32.19,58.64C28.97,62.04,27,66.63,27,71.68L27,89.54C27,89.8,27.19,90.02,27.45,90.06C28.96,90.23,34.11,90.78,41.6,90.95ZM56.97,73.24C56.97,63.81,50.38,55.66,41.16,53.69L40.4,53.52C42.17,52.98,44.05,52.68,46,52.68C56.49,52.68,65,61.19,65,71.68L65,89.54C65,89.8,64.81,90.02,64.55,90.06C63.54,90.18,60.88,90.46,56.97,90.69Z"/></svg>