<svg xmlns="http://www.w3.org/2000/svg" viewBox="0 0 90 90"><path d="M20,90L70,90C72.76,90,75,87.76,75,85L75,66C75,63.24,72.76,61,70,61L20,61C17.24,61,15,63.24,15,66L15,85C15,87.76,17.24,90,20,90Z" fill="currentColor"/><path d="M15,66C15,63.24,17.24,61,20,61L65,61L21.98,62.6C18.91,62.71,16.42,65.13,16.22,68.2L15,86.66Z" fill="currentColor"/><path d="M28.71,71.5L28.71,79.63L61.18,79.63L61.18,71.5Z" fill="currentColor"/><path d="M28.71,69.5L28.71,77.63L61.18,77.63L61.18,69.5Z" fill="currentColor"/><path d="M39.92,43.46C39.84,49.02,35.32,53.68,29.73,53.68L28.9,53.68L28.9,61L61.09,61L61.09,53.68L60.15,53.68C54.53,53.68,49.97,48.95,49.97,43.33L49.97,37.37L39.92,37.34Z" fill="currentColor"/><path d="M45,41.32C43.24,41.32,41.53,41.08,39.92,40.63L39.92,37.34L49.97,37.37L49.97,40.66C48.39,41.09,46.72,41.32,45,41.32Z" fill="currentColor"/><path d="M29.73,53.68L60.15,53.68C49.71,53.68,42.8,47.1,39.92,43.46C39.84,49.02,35.32,53.68,29.73,53.68Z" fill="currentColor"/><path d="M17.26,9.78C17.89,15.84,21.68,21.39,28.28,21.49L61.68,21.49C68.28,21.39,72.07,15.84,72.7,9.78Z" fill="currentColor"/><path d="M77.89,9.06C78.02,6.54,75.84,4.66,73.32,4.66L16.65,4.66C14.13,4.66,11.94,6.54,12.07,9.06C12.55,18.15,18.04,26.49,28.25,26.61L61.72,26.61C71.92,26.49,77.42,18.15,77.89,9.06Z" fill="currentColor"/><path d="M26.45,0.94C28.23,0.73,35.15,0,45,0C54.85,0,61.77,0.73,63.55,0.94C63.81,0.98,64,1.2,64,1.46L64,19.32C64,29.81,55.49,38.32,45,38.32C34.51,38.32,26,29.81,26,19.32L26,1.46C26,1.2,26.19,0.98,26.45,0.94Z" fill="currentColor"/><path d="M40.6,16.37C40.6,23.25,36.8,29.24,31.19,32.36C27.97,28.96,26,24.37,26,19.32L26,1.46C26,1.2,26.19,0.98,26.45,0.94C27.96,0.77,33.11,0.22,40.6,0.05Z" fill="currentColor"/><path d="M55.97,17.76C55.97,27.19,49.38,35.34,40.16,37.31L39.4,37.48C41.17,38.02,43.05,38.32,45,38.32C55.49,38.32,64,29.81,64,19.32L64,1.46C64,1.2,63.81,0.98,63.55,0.94C62.54,0.82,59.88,0.54,55.97,0.31Z" fill="currentColor"/></svg>