<svg xmlns="http://www.w3.org/2000/svg" viewBox="0 0 90 90"><path d="M0,61.8C0,77.26,12.54,89.8,28,89.8C43.46,89.8,56,77.26,56,61.8C56,46.34,43.46,33.8,28,33.8C12.54,33.8,0,46.34,0,61.8Z" fill="currentColor"/><path d="M0,59C0,74.46,12.54,87,28,87C43.46,87,56,74.46,56,59C56,43.54,43.46,31,28,31C12.54,31,0,43.54,0,59Z" fill="currentColor"/><path d="M7.78,59C7.78,70.17,16.83,79.22,28,79.22C39.17,79.22,48.22,70.17,48.22,59C48.22,47.83,39.17,38.78,28,38.78C16.83,38.78,7.78,47.83,7.78,59Z" fill="currentColor"/><path d="M7.78,59C7.78,70.17,16.83,79.22,28,79.22C39.17,79.22,48.22,70.17,48.22,59C48.22,47.83,39.17,38.78,28,38.78C16.83,38.78,7.78,47.83,7.78,59Z" fill="currentColor" opacity="0.5"/><path d="M7.78,61C7.78,72.17,16.83,81.22,28,81.22C39.17,81.22,48.22,72.17,48.22,61C48.22,49.83,39.17,40.78,28,40.78C16.83,40.78,7.78,49.83,7.78,61Z" fill="currentColor" opacity="0.5"/><path d="M28,87C41.4,84.66,52.15,74.62,55.4,61.42L56,59C56,74.46,43.46,87,28,87Z" fill="currentColor"/><path d="M0,59C0,43.54,12.54,31,28,31L27.17,31.25C13.96,35.23,3.7,45.71,0,59Z" fill="currentColor"/><path d="M56,59C56,59.2,56,59.39,55.99,59.59C42.81,57.32,32.78,45.83,32.78,32C32.78,31.8,32.78,31.61,32.78,31.41C45.97,33.68,56,45.17,56,59Z" fill="currentColor"/><path d="M34,30.8C34,46.26,46.54,58.8,62,58.8C77.46,58.8,90,46.26,90,30.8C90,15.34,77.46,2.8,62,2.8C46.54,2.8,34,15.34,34,30.8Z" fill="currentColor"/><path d="M34,28C34,43.46,46.54,56,62,56C77.46,56,90,43.46,90,28C90,12.54,77.46,0,62,0C46.54,0,34,12.54,34,28Z" fill="currentColor"/><path d="M41.78,28C41.78,39.17,50.83,48.22,62,48.22C73.17,48.22,82.22,39.17,82.22,28C82.22,16.83,73.17,7.78,62,7.78C50.83,7.78,41.78,16.83,41.78,28Z" fill="currentColor" opacity="0.5"/><path d="M41.78,30C41.78,41.17,50.83,50.22,62,50.22C73.17,50.22,82.22,41.17,82.22,30C82.22,18.83,73.17,9.78,62,9.78C50.83,9.78,41.78,18.83,41.78,30Z" fill="currentColor"/><path d="M61.17,0.25C47.96,4.24,37.7,14.71,34,28C34,12.83,46.07,0.47,61.13,0.01C61.28,0.01,61.31,0.21,61.17,0.25Z" fill="currentColor"/><path d="M90,28C90,43.46,77.46,56,62,56C75.4,53.66,86.15,43.62,89.4,30.42Z" fill="currentColor"/><path d="M89.89,30.49C89.41,35.94,87.37,40.94,84.22,45.04C82.56,47.2,81.77,45.13,83.41,42.96C86.19,39.3,88.26,35.05,89.4,30.42C89.49,30.07,89.92,30.13,89.89,30.49Z" fill="currentColor"/></svg>