<svg xmlns="http://www.w3.org/2000/svg" viewBox="0 0 90 90" fill="currentColor"><path d="M4.18,76.53C2.25,75.86,1,74,1,71.95L1,65.38C1,61.82,4.6,59.43,7.98,60.56C12.57,62.11,17.3,63.21,22.19,63.21C26.12,63.21,32.5,62.12,32.5,57.05C32.5,52.04,26.31,51.46,22.58,51.46L18.91,51.46C16.15,51.46,13.91,49.22,13.91,46.46L13.91,40.82C13.91,39.38,14.53,38.01,15.62,37.06L27.14,26.99L6,26.99C3.24,26.99,1,24.75,1,21.99L1,16C1,13.24,3.24,11,6,11L46,11C48.76,11,51,13.24,51,16L51,23.35C51,24.81,50.35,26.2,49.25,27.15C35.66,38.88,36.91,37.92,36.91,37.92C46.27,40.2,53.6,47.03,53.6,57.05C53.6,73.45,36.67,79.88,22.87,79.88C16.5,79.88,10.19,78.6,4.18,76.53ZM53.6,57.05C53.6,59.09,53.33,60.98,52.85,62.72L47.85,56.73C46.66,55.29,46,53.48,46,51.6L46,43.5C46,43.05,46.04,42.61,46.11,42.18C50.65,45.62,53.6,50.7,53.6,57.05ZM1,70.35L1.84,66.46C2.46,63.53,5.51,61.78,8.41,62.51C16.92,64.66,32.5,67.21,32.5,57.05C32.5,62.12,26.12,63.21,22.19,63.21C17.3,63.21,12.57,62.11,7.98,60.56C4.6,59.43,1,61.82,1,65.38ZM6,11L46,11L6.59,12.69C4.31,12.79,2.38,14.42,1.91,16.66L1,21L1,16C1,13.24,3.24,11,6,11ZM65,25C63.34,25,62,26.34,62,28L62,64C62,65.66,63.34,67,65,67L74,67C75.66,67,77,65.66,77,64L77,28C77,26.34,75.66,25,74,25ZM51,38.5C49.34,38.5,48,39.84,48,41.5L48,50.5C48,52.16,49.34,53.5,51,53.5L88,53.5C89.66,53.5,91,52.16,91,50.5L91,41.5C91,39.84,89.66,38.5,88,38.5ZM51,38.5L62,38.5L52.14,39.85C50.93,40.02,49.95,40.9,49.64,42.08L48,48.5L48,41.5C48,39.84,49.34,38.5,51,38.5ZM65,25L72,25L65.98,26.25C64.85,26.48,63.96,27.33,63.68,28.44L62,35L62,28C62,26.34,63.34,25,65,25Z"/></svg>