<svg xmlns="http://www.w3.org/2000/svg" viewBox="0 0 90 90"><path d="M20.67,39.57L37.99,82.25C38.52,83.56,37.56,85,36.14,85L1.5,85C0.08,85,-0.88,83.56,-0.35,82.25L16.97,39.57C17.64,37.9,20,37.9,20.67,39.57Z" fill="#666564"/><path d="M71.67,39.57L88.99,82.25C89.52,83.56,88.56,85,87.14,85L52.5,85C51.08,85,50.12,83.56,50.65,82.25L67.97,39.57C68.64,37.9,71,37.9,71.67,39.57Z" fill="#666564"/><path d="M52.5,85C51.08,85,50.12,83.56,50.65,82.25L64.41,48.34L84.78,85Z" fill="#4B4847"/><path d="M36.14,85L4.44,85L24.47,48.93L37.99,82.25C38.52,83.56,37.56,85,36.14,85Z" fill="#4B4847"/><path d="M52.5,85C51.08,85,50.12,83.56,50.65,82.25L64.41,48.34L84.78,85Z" fill="#4B4847"/><path d="M36.14,85L4.44,85L24.47,48.93L37.99,82.25C38.52,83.56,37.56,85,36.14,85Z" fill="#4B4847"/><path d="M46.35,27.18L76.82,82.03C77.56,83.36,76.6,85,75.08,85L14.14,85C12.61,85,11.65,83.36,12.39,82.03L42.86,27.18C43.62,25.81,45.59,25.81,46.35,27.18Z" fill="#666564"/><path d="M48.61,2L48.61,12L58.45,12C59.55,12,60.45,12.9,60.45,14L60.45,18C60.45,19.1,59.55,20,58.45,20L48.61,20L48.61,39.29C48.61,40.01,48.2,40.66,47.56,40.98C45.7,41.91,43.51,41.91,41.65,40.98C41.01,40.66,40.61,40.01,40.61,39.29L40.61,20L30.83,20C29.72,20,28.83,19.1,28.83,18L28.83,14C28.83,12.9,29.72,12,30.83,12L40.61,12L40.61,2C40.61,0.9,41.5,0,42.61,0L46.61,0C47.71,0,48.61,0.9,48.61,2Z" fill="#666564"/></svg>