<svg xmlns="http://www.w3.org/2000/svg" viewBox="0 0 90 90"><path d="M3.18,75.53C1.25,74.86,0,73,0,70.95L0,64.38C0,60.82,3.6,58.43,6.98,59.56C11.57,61.11,16.3,62.21,21.19,62.21C25.12,62.21,31.5,61.12,31.5,56.05C31.5,51.04,25.31,50.46,21.58,50.46L17.91,50.46C15.15,50.46,12.91,48.22,12.91,45.46L12.91,39.82C12.91,38.38,13.53,37.01,14.62,36.06L26.14,25.99L5,25.99C2.24,25.99,0,23.75,0,20.99L0,15C0,12.24,2.24,10,5,10L45,10C47.76,10,50,12.24,50,15L50,22.35C50,23.81,49.35,25.2,48.25,26.15C34.66,37.88,35.91,36.92,35.91,36.92C45.27,39.2,52.6,46.03,52.6,56.05C52.6,72.45,35.67,78.88,21.87,78.88C15.5,78.88,9.19,77.6,3.18,75.53Z" fill="#26C2A3"/><path d="M52.6,56.05C52.6,58.09,52.33,59.98,51.85,61.72L46.85,55.73C45.66,54.29,45,52.48,45,50.6L45,42.5C45,42.05,45.04,41.61,45.11,41.18C49.65,44.62,52.6,49.7,52.6,56.05Z" fill="#10777C"/><path d="M0,69.35L0.84,65.46C1.46,62.53,4.51,60.78,7.41,61.51C15.92,63.66,31.5,66.21,31.5,56.05C31.5,61.12,25.12,62.21,21.19,62.21C16.3,62.21,11.57,61.11,6.98,59.56C3.6,58.43,0,60.82,0,64.38Z" fill="#62F6CA"/><path d="M5,10L45,10L5.59,11.69C3.31,11.79,1.38,13.42,0.91,15.66L0,20L0,15C0,12.24,2.24,10,5,10Z" fill="#62F6CA"/><path d="M64,24C62.34,24,61,25.34,61,27L61,63C61,64.66,62.34,66,64,66L73,66C74.66,66,76,64.66,76,63L76,27C76,25.34,74.66,24,73,24Z" fill="#26C2A3"/><path d="M50,37.5C48.34,37.5,47,38.84,47,40.5L47,49.5C47,51.16,48.34,52.5,50,52.5L87,52.5C88.66,52.5,90,51.16,90,49.5L90,40.5C90,38.84,88.66,37.5,87,37.5Z" fill="#26C2A3"/><path d="M50,37.5L61,37.5L51.14,38.85C49.93,39.02,48.95,39.9,48.64,41.08L47,47.5L47,40.5C47,38.84,48.34,37.5,50,37.5Z" fill="#62F6CA"/><path d="M64,24L71,24L64.98,25.25C63.85,25.48,62.96,26.33,62.68,27.44L61,34L61,27C61,25.34,62.34,24,64,24Z" fill="#62F6CA"/></svg>