<svg xmlns="http://www.w3.org/2000/svg" viewBox="0 0 90 90" fill="currentColor"><path d="M23.23,1C29.67,1,35.61,4.47,38.77,10.07L39.8,11.89C43.43,18.32,50.9,21.54,58.07,19.76L58.57,19.63C72.51,16.16,86,26.71,86,41.07L86,42.09L86,71L81,71L81,42.09L81,41.07C81,29.96,70.56,21.8,59.77,24.49L59.28,24.61C49.93,26.94,40.18,22.74,35.44,14.35L34.41,12.53C32.14,8.49,27.87,6,23.23,6C13.32,6,7.15,16.76,12.15,25.32L13.27,27.22C16.43,32.64,16.74,39.26,14.08,44.95L12.85,47.6C11.63,50.2,11,53.05,11,55.92L11,71L6,71L6,55.92C6,52.31,6.79,48.75,8.32,45.48L9.55,42.83C11.51,38.63,11.29,33.74,8.95,29.75L7.83,27.84C0.88,15.95,9.46,1,23.23,1ZM81,41.04C81,41.05,81,41.06,81,41.07L81,42.09L81,71L86,71L86,44.85C84.51,43.37,82.83,42.09,81,41.04ZM14.08,44.95L12.85,47.6C11.63,50.2,11,53.05,11,55.92L11,71L6,71L6,55.92C6,52.31,6.79,48.75,8.32,45.48L9.55,42.83C9.74,42.43,9.91,42.02,10.05,41.61C11.81,40.5,13.73,39.61,15.76,39C15.53,41.03,14.97,43.04,14.08,44.95ZM19.7,41.09C36.92,36.45,55.08,36.45,72.3,41.09C83.34,44.06,91,54.07,91,65.49L91,71.23C91,82.15,82.15,91,71.23,91C66.33,91,61.61,89.18,57.98,85.9L54.71,82.95C52.32,80.79,49.22,79.6,46,79.6C42.78,79.6,39.68,80.79,37.29,82.95L34.02,85.9C30.39,89.18,25.67,91,20.77,91C9.85,91,1,82.15,1,71.23L1,65.49C1,54.07,8.66,44.06,19.7,41.09ZM71.23,91C66.33,91,61.61,89.18,57.98,85.9L54.71,82.95C52.32,80.79,49.22,79.6,46,79.6C42.78,79.6,39.68,80.79,37.29,82.95L34.02,85.9C30.39,89.18,25.67,91,20.77,91C16.19,91,11.97,89.44,8.62,86.82C6.04,83.7,4.5,79.7,4.5,75.33L4.5,67.87C4.5,57.58,11.35,48.55,21.27,45.77C37.44,41.24,54.56,41.24,70.73,45.77C80.65,48.55,87.5,57.58,87.5,67.87L87.5,75.33C87.5,79.7,85.96,83.7,83.38,86.82C80.03,89.44,75.81,91,71.23,91ZM20.77,91C25.67,91,30.39,89.18,34.02,85.9L37.29,82.95C39.68,80.79,42.78,79.6,46,79.6C49.22,79.6,52.32,80.79,54.71,82.95L57.98,85.9C61.61,89.18,66.33,91,71.23,91C71.51,91,71.79,90.99,72.07,90.98C66.56,90.74,61.45,88,58.2,83.52L53.94,77.65C52.09,75.1,49.14,73.6,46,73.6C42.86,73.6,39.91,75.1,38.06,77.65L33.8,83.52C30.55,88,25.44,90.74,19.93,90.98C20.21,90.99,20.49,91,20.77,91ZM37.08,68.43C32.65,69.88,29.09,70.66,25.46,70.66C21.83,70.66,18.28,69.88,13.88,68.43C12.83,68.09,12.26,66.96,12.6,65.91C12.94,64.86,14.07,64.29,15.12,64.63C19.34,66.01,22.43,66.66,25.46,66.66C28.49,66.66,31.6,66.02,35.83,64.63C36.88,64.29,38.01,64.86,38.36,65.91C38.7,66.96,38.13,68.09,37.08,68.43ZM77,68.43C72.57,69.88,69.01,70.66,65.38,70.66C61.75,70.66,58.2,69.88,53.8,68.43C52.75,68.09,52.18,66.96,52.52,65.91C52.86,64.86,53.99,64.29,55.04,64.63C59.26,66.01,62.35,66.66,65.38,66.66C68.41,66.66,71.52,66.02,75.75,64.63C76.8,64.29,77.93,64.86,78.28,65.91C78.62,66.96,78.05,68.09,77,68.43Z"/></svg>