<svg xmlns="http://www.w3.org/2000/svg" viewBox="0 0 90 90" fill="currentColor"><path d="M49.15,54.88L56.84,57.59C59.2,58.42,61.2,60.02,62.52,62.13L63.78,64.14C65.88,67.51,68.76,70.32,72.17,72.36L84.05,79.44C85.26,80.16,86,81.47,86,82.88L86,87C86,89.21,84.21,91,82,91L10,91C7.79,91,6,89.21,6,87L6,82.88C6,81.47,6.74,80.16,7.95,79.44L18.96,72.88C22.91,70.52,26.07,67.04,28.03,62.88C29.24,60.32,31.46,58.38,34.16,57.52L42.81,54.78C44.88,54.13,47.11,54.16,49.15,54.88ZM47.66,54.48L41.63,56.7C38.93,57.69,36.77,59.78,35.69,62.44C33.99,66.62,31.11,70.22,27.39,72.79L18.11,79.21C17.03,79.96,16.39,81.19,16.39,82.5L16.39,87C16.39,89.21,18.18,91,20.39,91L10,91C7.79,91,6,89.21,6,87L6,82.88C6,81.47,6.74,80.16,7.95,79.44L18.96,72.88C22.91,70.52,26.07,67.04,28.03,62.88C29.24,60.32,31.46,58.38,34.16,57.52L42.81,54.78C44.39,54.29,46.05,54.19,47.66,54.48ZM15.74,76.53L24.48,73.26L19.36,65.4ZM70.17,77.73L82.47,78.6C80.65,77.45,79.27,75.72,78.54,73.7L75.86,66.18ZM64.97,81.78L80.27,79.43C77.91,78.54,76.07,76.63,75.28,74.23L71.06,61.37ZM18.57,78.29L7.7,79.63C10.1,78.03,11.84,75.6,12.56,72.8L14.43,65.54ZM49.15,54.88L56.84,57.59C59.2,58.41,61.2,60.02,62.52,62.13L63.78,64.14C64.75,65.69,65.88,67.12,67.15,68.41L54.71,70.36C48.9,71.27,42.99,71.27,37.18,70.36L24.41,68.36C25.86,66.73,27.09,64.88,28.03,62.88C29.24,60.32,31.46,58.38,34.16,57.52L42.81,54.78C44.88,54.13,47.11,54.16,49.15,54.88ZM68.81,48.04C66.39,50.25,64.32,52.8,62.64,55.61C67.92,57.03,68.81,60.6,68.81,65.57L68.81,68L23.19,68L23.19,65.57C23.19,60.75,23.93,57.09,29.4,55.62C27.72,52.8,25.63,50.25,23.19,48.04C19.42,44.34,15.53,40.44,15.53,34.36C15.38,26.33,21.78,19.4,29.93,19.54C33.63,19.4,38.29,21.31,41.49,23.16L42.8,14.46L34.57,14.46L34.57,8.42L42.95,8.42L42.95,1L49.03,1L49.03,8.57L57.41,8.57L57.41,14.55L49.17,14.55L50.48,23.25C53.67,21.37,58.34,19.43,62.04,19.54C70.6,19.32,76.66,26.01,76.47,34.36C76.47,40.4,72.58,44.29,68.81,48.04ZM63.09,35.93C63.78,31.21,58.53,31.03,58.51,31.03C55.63,31.03,52.03,33.59,52.03,33.59L52.03,44.77C53.28,44.82,54.13,44.9,55.57,44.99C56.65,43.61,57.93,42.4,59.12,41.26C61.09,39.39,62.84,37.73,63.09,35.93ZM33.44,31.03C33.44,31.03,28.23,31.21,28.86,35.93C29.12,37.73,30.86,39.38,32.82,41.25C34.02,42.39,35.3,43.61,36.38,44.99C37.82,44.89,38.7,44.77,39.92,44.77L39.92,33.59C39.92,33.59,36.33,31.03,33.44,31.03ZM76.47,34.36C76.47,40.4,72.58,44.29,68.81,48.04C66.39,50.25,64.31,52.8,62.64,55.61C60.94,55.16,59.05,55.01,57.24,55.01L57.12,55.01L70.51,41.59C77.13,34.97,72.71,24.88,71.93,23.21C71.95,23.21,71.98,23.21,72.01,23.21C74.89,25.92,76.57,29.91,76.47,34.36ZM62.76,55.65C63.12,55.75,63.47,55.86,63.8,55.99C64.5,56.25,65.16,56.59,65.75,57.01C66.88,57.82,67.6,58.86,68.07,60.08C66.61,59.43,61.68,58.14,45.98,58.14C30.37,58.14,25.4,59.45,23.92,60.08C24.34,58.96,25,57.99,26.01,57.21C26.78,56.61,27.68,56.17,28.65,55.85C28.86,55.78,29.08,55.71,29.31,55.65C31.1,55.16,33.05,55.01,34.81,55.01L57.24,55.01C59.09,55.01,61.02,55.16,62.76,55.65ZM30.79,19.54C19.82,21.34,14.47,31.74,17.74,41.77C16.3,39.57,15.53,36.99,15.53,34.36C15.46,30.39,16.95,26.56,19.67,23.68C21.02,22.34,22.62,21.28,24.38,20.57C26.14,19.86,28.03,19.5,29.93,19.54ZM30.79,19.54C30.8,19.53,30.82,19.53,30.83,19.53L30.83,19.54ZM47.81,2.35L44.3,2.35L44.3,9.75L35.92,9.75L35.92,13.24L34.71,14.46L34.57,14.46L34.57,8.42L42.95,8.42L42.95,1L49.03,1L49.03,1.13ZM48.81,9.75L50.03,8.42L57.41,8.42L57.41,9.75ZM60.44,68.17L53.24,68.17L63.03,79.2ZM47.15,79.87L54.47,70.72L63.03,79.2L53.94,61.37Z"/></svg>