<svg xmlns="http://www.w3.org/2000/svg" viewBox="0 0 90 90"><path d="M10,83C10,84.1,10.9,85,12,85L78,85C79.1,85,80,84.1,80,83L80,35.92L45,8L10,35.92Z" fill="currentColor"/><path d="M40.09,48.61C40.09,44.51,36.77,41.19,32.67,41.19C28.57,41.19,25.25,44.51,25.25,48.61C25.25,52.71,28.57,56.03,32.67,56.03C36.77,56.03,40.09,52.71,40.09,48.61Z" fill="currentColor"/><path d="M64.68,58.17C64.68,58.17,64.68,58.18,64.68,58.19C65.57,67.49,57.82,76.03,47.12,77.41C36.43,78.79,26.76,72.49,25.25,63.28C25.22,62.98,25.45,62.72,25.74,62.69C25.74,62.69,25.74,62.69,25.75,62.69L64.02,57.75L64.04,57.74C64.33,57.68,64.62,57.87,64.68,58.17Z" fill="currentColor"/><path d="M59.78,41.59C55.91,40.23,51.68,42.27,50.32,46.14C49.76,47.73,49.76,49.46,50.32,51.05L64.33,51.05C65.69,47.18,63.65,42.95,59.78,41.59Z" fill="currentColor"/><path d="M40.04,49.46C40.08,49.17,40.1,48.87,40.09,48.57C40.09,44.47,36.77,41.15,32.67,41.15C28.57,41.15,25.25,44.47,25.25,48.57C25.25,48.87,25.27,49.16,25.3,49.46C25.73,45.72,28.9,42.89,32.67,42.89C36.44,42.89,39.61,45.72,40.04,49.46Z" fill="currentColor"/><path d="M64.7,49.45C64.74,49.16,64.76,48.86,64.75,48.56C64.75,44.46,61.43,41.14,57.33,41.14C53.23,41.14,49.91,44.46,49.91,48.56C49.91,48.84,49.91,49.13,49.96,49.45C50.4,45.71,53.57,42.9,57.33,42.89C61.09,42.89,64.26,45.71,64.7,49.45Z" fill="currentColor"/><path d="M64.68,58.18C64.63,57.88,64.35,57.68,64.06,57.73C64.06,57.73,64.05,57.73,64.04,57.73L25.77,62.65C25.47,62.67,25.24,62.93,25.26,63.22C25.26,63.22,25.26,63.22,25.26,63.23L62.65,60.07C62.65,60.07,63.11,70.35,55.17,74.75L55.18,74.76C61.4,71.2,65.32,64.91,64.68,58.18Z" fill="currentColor"/><path d="M10,36.45L10,51L45.29,21.64L80,50.49L80,35.97L45.29,7Z" fill="currentColor"/><path d="M79.04,45.36L45,17.43L10.96,45.35C8.78,47.15,5.55,46.77,3.83,44.53L2.96,43.41C1.31,41.26,1.67,38.19,3.78,36.48L41.85,5.56C43.68,4.07,46.32,4.07,48.15,5.56L86.22,36.49C88.33,38.2,88.69,41.27,87.03,43.42L86.18,44.54C84.45,46.78,81.22,47.15,79.04,45.36Z" fill="currentColor"/><path d="M86.32,37.65L48.1,7.45C46.28,6.01,43.72,6.01,41.9,7.45L3.68,37.64C2.78,38.35,2.19,39.32,1.93,40.36C1.93,38.91,2.56,37.47,3.78,36.48L41.85,5.56C43.68,4.07,46.32,4.07,48.15,5.56L86.22,36.49C87.44,37.48,88.07,38.91,88.07,40.37C87.81,39.33,87.22,38.36,86.32,37.65Z" fill="currentColor"/></svg>