<svg xmlns="http://www.w3.org/2000/svg" viewBox="0 0 90 90"><path d="M85,22L85,77C85,81.42,81.42,85,77,85L13,85C8.58,85,5,81.42,5,77L5,22Z" fill="#8B8987"/><path d="M85,22L85,73C85,77.42,81.42,81,77,81L13,81C8.58,81,5,77.42,5,73L5,22Z" fill="#E7E6E5"/><path d="M85,73C85,77.42,81.42,81,77,81L22,81L73.66,79.12C78.7,78.94,82.83,75.03,83.12,69.99C84,54.68,83.51,42.89,85,26Z" fill="#F8F8F8"/><path d="M85,22L85,13C85,8.58,81.42,5,77,5L13,5C8.58,5,5,8.58,5,13L5,22Z" fill="#FA412D"/><path d="M5,22L5,13C5,8.86,8.15,5.45,12.18,5.04C12.45,5.01,12.72,5,13,5L55,5L15.58,5.99C10.64,6.11,6.51,9.82,6.24,14.75C6.13,16.75,6.07,18.67,6,20.6C5.98,21.07,5.97,21.53,5.95,22Z" fill="#FF6352"/><path d="M32,5L33.01,11.08C33.53,14.18,31.14,17,28,17C24.86,17,22.47,14.18,22.99,11.08L24,5Z" fill="#AD1F24"/><path d="M66,5L67.01,11.08C67.53,14.18,65.14,17,62,17C58.86,17,56.47,14.18,56.99,11.08L58,5Z" fill="#AD1F24"/><path d="M28,0C25.79,0,24,1.79,24,4L24,9C24,11.21,25.79,13,28,13C30.21,13,32,11.21,32,9L32,4C32,1.79,30.21,0,28,0Z" fill="#FF8A75"/><path d="M28,0C30.21,0,32,1.79,32,4L32,6L31.59,3.94C31.25,2.23,29.74,1,28,1C26.26,1,24.75,2.23,24.41,3.94L24,6L24,4C24,1.79,25.79,0,28,0Z" fill="#FFB196"/><path d="M62,0C59.79,0,58,1.79,58,4L58,9C58,11.21,59.79,13,62,13C64.21,13,66,11.21,66,9L66,4C66,1.79,64.21,0,62,0Z" fill="#FF8A75"/><path d="M62,0C64.21,0,66,1.79,66,4L66,6L65.59,3.94C65.25,2.23,63.74,1,62,1C60.26,1,58.75,2.23,58.41,3.94L58,6L58,4C58,1.79,59.79,0,62,0Z" fill="#FFB196"/><path d="M59.71,37.31L59.71,63.69C59.71,66.49,61.98,68.76,64.78,68.76L74.93,68.76C77.73,68.76,80,66.49,80,63.69L80,37.31C80,34.51,77.73,32.24,74.93,32.24L64.78,32.24C61.98,32.24,59.71,34.51,59.71,37.31Z" fill="#2E2C29"/><path d="M65.8,62.67L65.8,38.33L73.91,38.33L73.91,62.67Z" fill="#2E2C29"/><path d="M51.59,32.24L39.42,32.24C36.62,32.24,34.35,34.51,34.35,37.31L34.35,63.69C34.35,66.49,36.62,68.76,39.42,68.76L49.57,68.76C52.37,68.76,54.64,66.49,54.64,63.69L54.64,50.5C54.64,47.7,52.37,45.43,49.57,45.43L40.43,45.43L40.43,38.33L51.59,38.33C53.28,38.33,54.64,36.96,54.64,35.28C54.64,33.6,53.28,32.24,51.59,32.24Z" fill="#2E2C29"/><path d="M48.55,62.67L40.43,62.67L40.43,51.51L48.55,51.51Z" fill="#2E2C29"/><path d="M10,37.31L10,49.49C10,52.29,12.27,54.56,15.07,54.56L23.19,54.56L23.19,62.67L13.04,62.67C11.36,62.67,10,64.04,10,65.72C10,67.4,11.36,68.76,13.04,68.76L24.2,68.76C27,68.76,29.28,66.49,29.28,63.69L29.28,37.31C29.28,34.51,27,32.24,24.2,32.24L15.07,32.24C12.27,32.24,10,34.51,10,37.31Z" fill="#2E2C29"/><path d="M16.09,48.47L16.09,38.33L23.19,38.33L23.19,48.47Z" fill="#2E2C29"/></svg>