<svg xmlns="http://www.w3.org/2000/svg" viewBox="0 0 90 90"><path d="M52.09,17.95C52.09,23.14,49.91,27.87,46.35,31.15C49.27,33.98,52.82,35.25,56.28,35.25C58.56,35.25,61.02,34.71,63.48,33.52C68.49,30.97,70.58,25.05,74.05,25.05C80.42,25.05,83.25,41.08,83.25,46.37C83.25,56.2,78.42,67.59,66.03,73.33C74.78,75.15,76.23,78.43,76.23,81.62C76.23,89,75.32,90,72.32,90L18.21,90C16.11,90,15.11,89,15.11,81.62C15.11,74.97,22.67,73.24,28.41,72.69C17.75,67.68,10.65,58.48,10.65,48.01C10.65,43.36,12.01,38.99,14.47,35.16C16.02,32.79,17.84,30.61,20.03,28.69L18.94,27.24C17.57,27.69,15.47,28.24,13.74,28.24C12.19,28.24,10.92,27.78,10.92,26.51C10.92,24.96,12.65,22.77,13.74,21.68C9.28,19.77,6,15.76,6,13.48C6,12.3,6.82,11.93,7.91,11.93C9.46,11.93,11.47,13.21,13.01,13.21C15.38,13.21,17.48,11.57,17.48,11.57C20.21,3.19,26.59,0,34.24,0C44.08,0,52.09,8.02,52.09,17.95Z" fill="#FFC70A"/><path d="M83.25,46.37C79.88,53.74,73.23,63.4,62.66,66.59C65.76,64.22,70.95,53.93,67.4,53.56C64.94,57.57,56.74,57.02,52,56.39C53.19,57.75,56.65,58.66,60.11,59.57C61.57,59.94,61.84,60.58,61.84,61.49C61.84,65.77,48.63,67.04,45.08,67.04C30.78,67.04,25.77,59.85,27.59,48.83C26.04,54.93,27.04,61.4,30.14,65.5C21.3,62.13,14.29,55.2,10.65,48.01C10.65,58.48,17.75,67.68,28.41,72.69C39.07,71.51,55.28,71.6,66.03,73.33C78.42,67.59,83.25,56.2,83.25,46.37Z" fill="#D9A80A"/><path d="M17.57,23.05L13.74,21.68C12.65,22.77,10.92,24.96,10.92,26.51C12.38,24.32,15.75,22.5,17.57,23.05Z" fill="#D9A80A"/><path d="M22.22,29.51C24.04,28.69,24.4,27.69,24.4,26.51C24.4,24.32,22.94,21.32,20.85,19.86C23.22,22.77,18.75,26.87,13.74,28.24C15.47,28.24,17.57,27.69,18.94,27.24L20.03,28.69C17.84,30.61,16.02,32.79,14.47,35.16C17.66,31.61,20.58,30.24,22.22,29.51Z" fill="#D9A80A"/><path d="M63.48,33.52C61.02,34.71,58.56,35.25,56.28,35.25C52.82,35.25,49.27,33.98,46.35,31.15C49.91,27.87,52.09,23.14,52.09,17.95C49.63,26.78,45.26,30.06,41.16,32.25C46.54,38.9,57.01,39.9,63.48,33.52Z" fill="#D9A80A"/><path d="M67.21,53.56C60.47,53.56,55.46,38.62,41.16,38.62C34.79,38.62,29.41,43.09,27.68,48.73C30.78,44.27,35.24,42.18,39.98,42.18C52.73,42.18,57.38,54.38,64.94,54.38C66.58,54.38,67.21,53.56,67.21,53.56Z" fill="#FFD13B"/><path d="M76.23,81.62C76.23,78.43,74.78,75.15,66.03,73.33C55.28,71.6,39.07,71.51,28.41,72.69C22.67,73.24,15.11,74.97,15.11,81.62C26.4,75.97,64.94,75.97,76.23,81.62Z" fill="#FFD13B"/><path d="M12.19,14.39C14.2,14.39,16.29,13.85,17.48,11.57C17.48,11.57,15.38,13.21,13.01,13.21C11.47,13.21,9.46,11.93,7.91,11.93C6.82,11.93,6,12.3,6,13.48C6,14.39,6.46,15.49,7.55,16.94C7.18,12.94,8.19,14.39,12.19,14.39Z" fill="#FFD13B"/><path d="M30.41,12.75C30.41,11.2,29.5,9.93,28.32,9.93C27.13,9.93,26.13,11.2,26.13,12.75C26.13,14.21,27.13,15.49,28.32,15.49C29.5,15.49,30.41,14.21,30.41,12.75Z" fill="black"/><path d="M42.44,2C40.07,0.73,37.15,0,34.24,0C26.59,0,20.21,3.19,17.48,11.57C17.48,11.84,17.2,13.57,17.3,15.21C21.85,5.19,31.51,1.09,42.44,2Z" fill="#FFD13B"/></svg>