<svg xmlns="http://www.w3.org/2000/svg" viewBox="0 0 90 90" fill="currentColor"><path d="M53.09,18.95C53.09,24.14,50.91,28.87,47.35,32.15C50.27,34.98,53.82,36.25,57.28,36.25C59.56,36.25,62.02,35.71,64.48,34.52C69.49,31.97,71.58,26.05,75.05,26.05C81.42,26.05,84.25,42.08,84.25,47.37C84.25,57.2,79.42,68.59,67.03,74.33C75.78,76.15,77.23,79.43,77.23,82.62C77.23,90,76.32,91,73.32,91L19.21,91C17.11,91,16.11,90,16.11,82.62C16.11,75.97,23.67,74.24,29.41,73.69C18.75,68.68,11.65,59.48,11.65,49.01C11.65,44.36,13.01,39.99,15.47,36.16C17.02,33.79,18.84,31.61,21.03,29.69L19.94,28.24C18.57,28.69,16.47,29.24,14.74,29.24C13.19,29.24,11.92,28.78,11.92,27.51C11.92,25.96,13.65,23.77,14.74,22.68C10.28,20.77,7,16.76,7,14.48C7,13.3,7.82,12.93,8.91,12.93C10.46,12.93,12.47,14.21,14.01,14.21C16.38,14.21,18.48,12.57,18.48,12.57C21.21,4.19,27.59,1,35.24,1C45.08,1,53.09,9.02,53.09,18.95ZM84.25,47.37C80.88,54.74,74.23,64.4,63.66,67.59C66.76,65.22,71.95,54.93,68.4,54.56C65.94,58.57,57.74,58.02,53,57.39C54.19,58.75,57.65,59.66,61.11,60.57C62.57,60.94,62.84,61.58,62.84,62.49C62.84,66.77,49.63,68.04,46.08,68.04C31.78,68.04,26.77,60.85,28.59,49.83C27.04,55.93,28.04,62.4,31.14,66.5C22.3,63.13,15.29,56.2,11.65,49.01C11.65,59.48,18.75,68.68,29.41,73.69C40.07,72.51,56.28,72.6,67.03,74.33C79.42,68.59,84.25,57.2,84.25,47.37ZM18.57,24.05L14.74,22.68C13.65,23.77,11.92,25.96,11.92,27.51C13.38,25.32,16.75,23.5,18.57,24.05ZM23.22,30.51C25.04,29.69,25.4,28.69,25.4,27.51C25.4,25.32,23.94,22.32,21.85,20.86C24.22,23.77,19.75,27.87,14.74,29.24C16.47,29.24,18.57,28.69,19.94,28.24L21.03,29.69C18.84,31.61,17.02,33.79,15.47,36.16C18.66,32.61,21.58,31.24,23.22,30.51ZM64.48,34.52C62.02,35.71,59.56,36.25,57.28,36.25C53.82,36.25,50.27,34.98,47.35,32.15C50.91,28.87,53.09,24.14,53.09,18.95C50.63,27.78,46.26,31.06,42.16,33.25C47.54,39.9,58.01,40.9,64.48,34.52ZM68.21,54.56C61.47,54.56,56.46,39.62,42.16,39.62C35.79,39.62,30.41,44.09,28.68,49.73C31.78,45.27,36.24,43.18,40.98,43.18C53.73,43.18,58.38,55.38,65.94,55.38C67.58,55.38,68.21,54.56,68.21,54.56ZM77.23,82.62C77.23,79.43,75.78,76.15,67.03,74.33C56.28,72.6,40.07,72.51,29.41,73.69C23.67,74.24,16.11,75.97,16.11,82.62C27.4,76.97,65.94,76.97,77.23,82.62ZM13.19,15.39C15.2,15.39,17.29,14.85,18.48,12.57C18.48,12.57,16.38,14.21,14.01,14.21C12.47,14.21,10.46,12.93,8.91,12.93C7.82,12.93,7,13.3,7,14.48C7,15.39,7.46,16.49,8.55,17.94C8.18,13.94,9.19,15.39,13.19,15.39ZM31.41,13.75C31.41,12.2,30.5,10.93,29.32,10.93C28.13,10.93,27.13,12.2,27.13,13.75C27.13,15.21,28.13,16.49,29.32,16.49C30.5,16.49,31.41,15.21,31.41,13.75ZM43.44,3C41.07,1.73,38.15,1,35.24,1C27.59,1,21.21,4.19,18.48,12.57C18.48,12.84,18.2,14.57,18.3,16.21C22.85,6.19,32.51,2.09,43.44,3Z"/></svg>