<svg xmlns="http://www.w3.org/2000/svg" viewBox="0 0 90 90" fill="currentColor"><path d="M11,7.07C11,5.96,11.9,5.07,13,5.07L79,5.07C80.1,5.07,81,5.96,81,7.07L81,54.14L46,82.07L11,54.14ZM41.09,41.46C41.09,45.56,37.77,48.88,33.67,48.88C29.57,48.88,26.25,45.56,26.25,41.46C26.25,37.36,29.57,34.04,33.67,34.04C37.77,34.04,41.09,37.36,41.09,41.46ZM65.68,31.9C65.68,31.9,65.68,31.89,65.68,31.88C66.57,22.58,58.82,14.04,48.12,12.66C37.43,11.28,27.76,17.58,26.25,26.79C26.22,27.09,26.45,27.35,26.74,27.38C26.74,27.38,26.74,27.38,26.75,27.38L65.02,32.32L65.04,32.33C65.33,32.39,65.62,32.2,65.68,31.9ZM60.78,48.48C56.91,49.84,52.68,47.8,51.32,43.93C50.76,42.34,50.76,40.61,51.32,39.02L65.33,39.02C66.69,42.89,64.65,47.12,60.78,48.48ZM41.04,40.61C41.08,40.9,41.1,41.2,41.09,41.5C41.09,45.6,37.77,48.92,33.67,48.92C29.57,48.92,26.25,45.6,26.25,41.5C26.25,41.2,26.27,40.91,26.3,40.61C26.73,44.35,29.9,47.18,33.67,47.18C37.44,47.18,40.61,44.35,41.04,40.61ZM65.7,40.62C65.74,40.91,65.76,41.21,65.75,41.51C65.75,45.61,62.43,48.93,58.33,48.93C54.23,48.93,50.91,45.61,50.91,41.51C50.91,41.23,50.91,40.94,50.96,40.62C51.4,44.36,54.57,47.17,58.33,47.18C62.09,47.18,65.26,44.36,65.7,40.62ZM65.68,31.89C65.63,32.19,65.35,32.39,65.06,32.34C65.06,32.34,65.05,32.34,65.04,32.34L26.77,27.42C26.47,27.4,26.24,27.14,26.26,26.85C26.26,26.85,26.26,26.85,26.26,26.84L63.65,30C63.65,30,64.11,19.72,56.17,15.32L56.18,15.31C62.4,18.87,66.32,25.16,65.68,31.89ZM11,53.62L11,39.07L46.29,68.43L81,39.58L81,54.1L46.29,83.07ZM80.04,44.71L46,72.64L11.96,44.71C9.78,42.92,6.55,43.29,4.83,45.54L3.96,46.66C2.31,48.81,2.67,51.88,4.78,53.59L42.85,84.51C44.68,86,47.32,86,49.15,84.51L87.22,53.58C89.33,51.87,89.69,48.8,88.03,46.65L87.18,45.53C85.45,43.29,82.22,42.92,80.04,44.71ZM87.32,52.42L49.1,82.62C47.28,84.06,44.72,84.06,42.9,82.62L4.68,52.43C3.78,51.71,3.19,50.75,2.93,49.71C2.93,51.16,3.56,52.6,4.78,53.59L42.85,84.51C44.68,86,47.32,86,49.15,84.51L87.22,53.58C88.44,52.59,89.07,51.15,89.07,49.7C88.81,50.74,88.22,51.71,87.32,52.42Z"/></svg>