<svg xmlns="http://www.w3.org/2000/svg" viewBox="0 0 90 90"><path d="M22.23,0C28.67,0,34.61,3.47,37.77,9.07L38.8,10.89C42.43,17.32,49.9,20.54,57.07,18.76L57.57,18.63C71.51,15.16,85,25.71,85,40.07L85,41.09L85,70L80,70L80,41.09L80,40.07C80,28.96,69.56,20.8,58.77,23.49L58.28,23.61C48.93,25.94,39.18,21.74,34.44,13.35L33.41,11.53C31.14,7.49,26.87,5,22.23,5C12.32,5,6.15,15.76,11.15,24.32L12.27,26.22C15.43,31.64,15.74,38.26,13.08,43.95L11.85,46.6C10.63,49.2,10,52.05,10,54.92L10,70L5,70L5,54.92C5,51.31,5.79,47.75,7.32,44.48L8.55,41.83C10.51,37.63,10.29,32.74,7.95,28.75L6.83,26.84C-0.12,14.95,8.46,0,22.23,0Z" fill="#DAD8D6"/><path d="M80,40.04C80,40.05,80,40.06,80,40.07L80,41.09L80,70L85,70L85,43.85C83.51,42.37,81.83,41.09,80,40.04Z" fill="#8B8987"/><path d="M13.08,43.95L11.85,46.6C10.63,49.2,10,52.05,10,54.92L10,70L5,70L5,54.92C5,51.31,5.79,47.75,7.32,44.48L8.55,41.83C8.74,41.43,8.91,41.02,9.05,40.61C10.81,39.5,12.73,38.61,14.76,38C14.53,40.03,13.97,42.04,13.08,43.95Z" fill="#8B8987"/><path d="M18.7,40.09C35.92,35.45,54.08,35.45,71.3,40.09C82.34,43.06,90,53.07,90,64.49L90,70.23C90,81.15,81.15,90,70.23,90C65.33,90,60.61,88.18,56.98,84.9L53.71,81.95C51.32,79.79,48.22,78.6,45,78.6C41.78,78.6,38.68,79.79,36.29,81.95L33.02,84.9C29.39,88.18,24.67,90,19.77,90C8.85,90,0,81.15,0,70.23L0,64.49C0,53.07,7.66,43.06,18.7,40.09Z" fill="#749BBF"/><path d="M70.23,90C65.33,90,60.61,88.18,56.98,84.9L53.71,81.95C51.32,79.79,48.22,78.6,45,78.6C41.78,78.6,38.68,79.79,36.29,81.95L33.02,84.9C29.39,88.18,24.67,90,19.77,90C15.19,90,10.97,88.44,7.62,85.82C5.04,82.7,3.5,78.7,3.5,74.33L3.5,66.87C3.5,56.58,10.35,47.55,20.27,44.77C36.44,40.24,53.56,40.24,69.73,44.77C79.65,47.55,86.5,56.58,86.5,66.87L86.5,74.33C86.5,78.7,84.96,82.7,82.38,85.82C79.03,88.44,74.81,90,70.23,90Z" fill="#486688"/><path d="M19.77,90C24.67,90,29.39,88.18,33.02,84.9L36.29,81.95C38.68,79.79,41.78,78.6,45,78.6C48.22,78.6,51.32,79.79,53.71,81.95L56.98,84.9C60.61,88.18,65.33,90,70.23,90C70.51,90,70.79,89.99,71.07,89.98C65.56,89.74,60.45,87,57.2,82.52L52.94,76.65C51.09,74.1,48.14,72.6,45,72.6C41.86,72.6,38.91,74.1,37.06,76.65L32.8,82.52C29.55,87,24.44,89.74,18.93,89.98C19.21,89.99,19.49,90,19.77,90Z" fill="#324660"/><path d="M36.08,67.43C31.65,68.88,28.09,69.66,24.46,69.66C20.83,69.66,17.28,68.88,12.88,67.43C11.83,67.09,11.26,65.96,11.6,64.91C11.94,63.86,13.07,63.29,14.12,63.63C18.34,65.01,21.43,65.66,24.46,65.66C27.49,65.66,30.6,65.02,34.83,63.63C35.88,63.29,37.01,63.86,37.36,64.91C37.7,65.96,37.13,67.09,36.08,67.43Z" fill="#324660"/><path d="M76,67.43C71.57,68.88,68.01,69.66,64.38,69.66C60.75,69.66,57.2,68.88,52.8,67.43C51.75,67.09,51.18,65.96,51.52,64.91C51.86,63.86,52.99,63.29,54.04,63.63C58.26,65.01,61.35,65.66,64.38,65.66C67.41,65.66,70.52,65.02,74.75,63.63C75.8,63.29,76.93,63.86,77.28,64.91C77.62,65.96,77.05,67.09,76,67.43Z" fill="#324660"/></svg>