<svg xmlns="http://www.w3.org/2000/svg" viewBox="0 0 90 90"><path d="M50.52,59.2L71.66,81.67C72.52,82.59,73,83.8,73,85.06C73,87.79,70.79,90,68.06,90L21.94,90C19.21,90,17,87.79,17,85.06C17,83.8,17.48,82.59,18.34,81.67L39.43,59.21C40.75,57.8,42.6,57,44.53,57L45.42,57C47.35,57,49.19,57.8,50.52,59.2Z" fill="currentColor"/><path d="M73,4.94C73,6.2,72.52,7.41,71.66,8.33L50.57,30.79C49.25,32.2,47.4,33,45.47,33L44.58,33C42.65,33,40.81,32.2,39.48,30.8L18.34,8.33C17.48,7.41,17,6.2,17,4.94C17,2.21,19.21,0,21.94,0L68.06,0C70.79,0,73,2.21,73,4.94Z" fill="currentColor"/><path d="M90,22.94L90,69.06C90,71.79,87.79,74,85.06,74C83.8,74,82.59,73.52,81.67,72.66L59.21,51.57C57.8,50.25,57,48.4,57,46.47L57,45.58C57,43.65,57.8,41.81,59.2,40.48L81.67,19.34C82.59,18.48,83.8,18,85.06,18C87.79,18,90,20.21,90,22.94Z" fill="currentColor"/><path d="M8.33,19.34L30.79,40.43C32.2,41.75,33,43.6,33,45.53L33,46.42C33,48.35,32.2,50.19,30.8,51.52L8.33,72.66C7.41,73.52,6.2,74,4.94,74C2.21,74,0,71.79,0,69.06L0,22.94C0,20.21,2.21,18,4.94,18C6.2,18,7.41,18.48,8.33,19.34Z" fill="currentColor"/><path d="M19,81L40.6,63.55C43.17,61.48,46.83,61.48,49.4,63.55L71,81L50.52,59.21C49.19,57.8,47.35,57,45.42,57L44.54,57C42.6,57,40.75,57.8,39.43,59.21Z" fill="currentColor"/><path d="M73,7L49.44,26.35C46.86,28.47,43.14,28.47,40.56,26.35L17,7L39.48,30.81C40.81,32.21,42.65,33,44.57,33L45.48,33C47.4,33,49.25,32.2,50.57,30.8Z" fill="currentColor"/><path d="M83,74L63.65,50.44C61.53,47.86,61.53,44.14,63.65,41.56L83,18L59.19,40.48C57.79,41.81,57,43.65,57,45.57L57,46.48C57,48.4,57.8,50.25,59.2,51.57Z" fill="currentColor"/><path d="M33,45.54L33,46.42C33,48.35,32.2,50.19,30.79,51.52L9,72L26.45,50.4C28.52,47.83,28.52,44.17,26.45,41.6L9,20L30.79,40.43C32.2,41.75,33,43.6,33,45.54Z" fill="currentColor"/><path d="M47,67L49,85L41,85L43,67Z" fill="currentColor"/><path d="M47,23L49,5L41,5L43,23Z" fill="currentColor"/><path d="M67,43L85,41L85,49L67,47Z" fill="currentColor"/><path d="M23,43L5,41L5,49L23,47Z" fill="currentColor"/></svg>