<svg xmlns="http://www.w3.org/2000/svg" viewBox="0 0 90 90" fill="currentColor"><path d="M11.56,60.92L1.73,50.93C0.74,49.94,0.76,48.34,1.75,47.35L3.01,46.09C9.85,39.26,17.69,44.3,25.4,47.04L29.64,31.63L53.86,7.4C62.34,-1.11,76.15,-1.13,84.66,7.34C93.13,15.86,93.11,29.66,84.6,38.14L60.37,62.37L44.96,66.6C47.71,74.32,52.74,82.15,45.91,89L44.65,90.25C43.67,91.24,42.07,91.25,41.07,90.27L31.12,80.48L26.76,84.84C26.06,85.54,24.93,85.54,24.22,84.84L19.59,80.21L19.25,72.76L11.79,72.41L7.2,67.81C6.5,67.11,6.5,65.98,7.2,65.28ZM7.16,67.84C6.45,67.14,6.45,66.01,7.16,65.3L25.41,47.05C25.41,47.05,29.57,31.71,29.64,31.64L54.05,56.05C54.05,56.05,56.79,60.51,84.56,38.17C84.59,38.13,60.38,62.38,60.38,62.38L44.97,66.61L26.72,84.86C26.01,85.57,24.88,85.57,24.18,84.86L19.55,80.23L19.2,72.78L11.75,72.44ZM32.82,54.69C34.06,53.45,36.07,53.45,37.32,54.69C38.56,55.93,38.56,57.94,37.32,59.18L25.82,70.67C24.58,71.91,22.57,71.91,21.33,70.67C20.09,69.43,20.09,67.42,21.33,66.18ZM29.64,31.63L36.73,38.72C36.73,38.72,45.07,22.68,56.33,11.42C67.59,0.16,78.78,2.8,84.84,7.55C84.78,7.48,84.72,7.41,84.66,7.34C76.15,-1.13,62.34,-1.11,53.86,7.4Z"/></svg>