<svg xmlns="http://www.w3.org/2000/svg" viewBox="0 0 90 90" fill="currentColor"><path d="M11,7.07C11,5.96,11.9,5.07,13,5.07L79,5.07C80.1,5.07,81,5.96,81,7.07L81,54.14L46,82.07L11,54.14ZM11,53.62L11,39.07L46.29,68.42L81,39.57L81,54.1L46.29,83.07ZM80.04,44.71L46,72.64L11.96,44.71C9.78,42.92,6.54,43.29,4.82,45.53L3.96,46.66C2.31,48.81,2.67,51.88,4.77,53.58L42.85,84.51C44.68,86,47.32,86,49.15,84.51L87.22,53.58C89.33,51.87,89.69,48.8,88.04,46.65L87.18,45.53C85.46,43.29,82.22,42.92,80.04,44.71ZM87.32,52.42L49.1,82.62C47.28,84.06,44.72,84.06,42.9,82.62L4.68,52.43C3.78,51.71,3.18,50.75,2.93,49.71C2.93,51.16,3.56,52.6,4.77,53.58L42.85,84.51C44.68,86,47.32,86,49.15,84.51L87.22,53.58C88.44,52.59,89.07,51.15,89.07,49.7C88.81,50.74,88.22,51.7,87.32,52.42ZM61.25,40.05L61.25,40.19C56.94,37.04,51.61,35.32,46,35.32C40.4,35.32,35.07,37.04,30.75,40.05C27.3,38.62,23.98,36.61,20.97,34.18C20.1,33.32,19.95,32.03,20.82,31.17C21.54,30.17,22.83,30.02,23.84,30.88C25.72,32.45,27.87,33.88,30.02,35.03C29.89,34.61,29.89,34.32,29.89,34.03C29.89,31.03,30.46,28.16,31.47,25.72C28.17,22.85,25.72,18.97,24.57,14.54C24.28,13.39,25.01,12.24,26.16,11.96C27.31,11.67,28.46,12.38,28.75,13.54C29.61,16.69,31.34,19.56,33.64,21.85C36.52,17.55,40.97,14.69,46.01,14.69C51.05,14.69,55.51,17.4,58.52,21.72C60.68,19.56,62.42,16.69,63.27,13.54C63.41,12.54,64.28,11.96,65.28,11.96L65.86,11.96C67.01,12.24,67.73,13.39,67.43,14.54C66.28,18.97,63.84,22.85,60.53,25.72C61.53,28.15,62.1,31.02,62.1,34.03L62.1,34.89C64.27,33.75,66.28,32.45,68.15,30.88C68.59,30.44,69.16,30.31,69.59,30.31C70.16,30.31,70.74,30.59,71.16,31.17C72.03,32.03,71.88,33.32,71.03,34.18L71.04,34.18C68.01,36.61,64.71,38.62,61.25,40.05ZM46,39.48C56.08,39.48,64.84,46.36,67.43,56.11C67.72,57.26,67.01,58.4,65.86,58.69C64.71,58.98,63.56,58.27,63.27,57.12C62.25,53.39,60.1,50.09,57.22,47.79C54.35,51.09,50.32,53.24,46,53.24C41.68,53.24,37.66,51.09,34.78,47.79C31.9,50.09,29.74,53.38,28.74,57.12C28.45,58.27,27.3,58.98,26.15,58.69C24.99,58.4,24.27,57.26,24.56,56.11C27.15,46.36,35.92,39.48,46,39.48ZM61.85,43.26L61.85,43.4C57.36,40.11,51.83,38.32,46,38.32C40.18,38.32,34.64,40.11,30.16,43.26C26.57,41.76,23.13,39.67,19.99,37.13C19.1,36.24,18.94,34.89,19.84,33.99C20.59,32.95,21.93,32.79,22.98,33.69C24.93,35.33,27.17,36.82,29.4,38.02C29.26,37.58,29.26,37.28,29.26,36.98C29.26,33.84,29.86,30.86,30.91,28.31C27.48,25.32,24.93,21.28,23.74,16.65C23.44,15.45,24.19,14.26,25.39,13.96C26.58,13.66,27.78,14.4,28.08,15.61C28.97,18.9,30.77,21.89,33.16,24.28C36.15,19.79,40.78,16.81,46.01,16.81C51.25,16.81,55.88,19.64,59.01,24.14C61.25,21.89,63.05,18.9,63.94,15.61C64.08,14.57,64.99,13.96,66.03,13.96L66.63,13.96C67.82,14.26,68.58,15.45,68.27,16.65C67.07,21.28,64.54,25.32,61.09,28.31C62.13,30.84,62.73,33.83,62.73,36.98L62.73,37.87C64.98,36.68,67.07,35.33,69.01,33.69C69.46,33.23,70.06,33.09,70.5,33.09C71.1,33.09,71.7,33.39,72.14,33.99C73.04,34.89,72.88,36.24,72,37.13L72.01,37.13C68.86,39.67,65.43,41.76,61.85,43.26ZM46,42.66C56.48,42.66,65.58,49.83,68.27,60C68.57,61.19,67.82,62.39,66.63,62.69C65.43,62.99,64.24,62.24,63.94,61.05C62.89,57.16,60.65,53.72,57.66,51.33C54.67,54.76,50.49,57.01,46,57.01C41.52,57.01,37.33,54.76,34.34,51.33C31.35,53.72,29.11,57.15,28.07,61.05C27.77,62.24,26.57,62.99,25.37,62.69C24.18,62.39,23.43,61.19,23.72,60C26.42,49.83,35.53,42.66,46,42.66ZM38.2,19.2C36.24,20.49,34.53,22.23,33.16,24.28C30.77,21.89,28.97,18.9,28.08,15.61C27.78,14.4,26.58,13.66,25.39,13.96C24.19,14.26,23.44,15.45,23.74,16.65C24.93,21.28,27.48,25.32,30.91,28.31C29.86,30.86,29.26,33.84,29.26,36.98C29.26,37.28,29.26,37.58,29.4,38.02C27.17,36.82,24.93,35.33,22.98,33.69C21.93,32.79,20.59,32.95,19.84,33.99C18.94,34.89,19.1,36.24,19.99,37.13C23.13,39.67,26.57,41.76,30.16,43.26C34.64,40.11,40.18,38.32,46,38.32C48.75,38.32,51.44,38.72,53.99,39.49C50.4,31.19,44.92,24.17,38.2,19.2ZM46,42.66C35.53,42.66,26.42,49.83,23.72,60C23.43,61.19,24.18,62.39,25.37,62.69C26.57,62.99,27.77,62.24,28.07,61.05C29.11,57.15,31.35,53.72,34.34,51.33C37.33,54.76,41.52,57.01,46,57.01C50.46,57.01,54.62,54.79,57.61,51.39C57.2,49.2,56.66,47.06,56.02,44.98C52.97,43.49,49.57,42.66,46,42.66Z"/></svg>