<svg xmlns="http://www.w3.org/2000/svg" viewBox="0 0 90 90"><path d="M48.15,53.88L55.84,56.59C58.2,57.42,60.2,59.02,61.52,61.13L62.78,63.14C64.88,66.51,67.76,69.32,71.17,71.36L83.05,78.44C84.26,79.16,85,80.47,85,81.88L85,86C85,88.21,83.21,90,81,90L9,90C6.79,90,5,88.21,5,86L5,81.88C5,80.47,5.74,79.16,6.95,78.44L17.96,71.88C21.91,69.52,25.07,66.04,27.03,61.88C28.24,59.32,30.46,57.38,33.16,56.52L41.81,53.78C43.88,53.13,46.11,53.16,48.15,53.88Z" fill="#5D9948"/><path d="M46.66,53.48L40.63,55.7C37.93,56.69,35.77,58.78,34.69,61.44C32.99,65.62,30.11,69.22,26.39,71.79L17.11,78.21C16.03,78.96,15.39,80.19,15.39,81.5L15.39,86C15.39,88.21,17.18,90,19.39,90L9,90C6.79,90,5,88.21,5,86L5,81.88C5,80.47,5.74,79.16,6.95,78.44L17.96,71.88C21.91,69.52,25.07,66.04,27.03,61.88C28.24,59.32,30.46,57.38,33.16,56.52L41.81,53.78C43.39,53.29,45.05,53.19,46.66,53.48Z" fill="#81B64C"/><path d="M14.74,75.53L23.48,72.26L18.36,64.4Z" fill="#81B64C"/><path d="M69.17,76.73L81.47,77.6C79.65,76.45,78.27,74.72,77.54,72.7L74.86,65.18Z" fill="#5D9948"/><path d="M63.97,80.78L79.27,78.43C76.91,77.54,75.07,75.63,74.28,73.23L70.06,60.37Z" fill="#5D9948"/><path d="M17.57,77.29L6.7,78.63C9.1,77.03,10.84,74.6,11.56,71.8L13.43,64.54Z" fill="#81B64C"/><path d="M48.15,53.88L55.84,56.59C58.2,57.41,60.2,59.02,61.52,61.13L62.78,63.14C63.75,64.69,64.88,66.12,66.15,67.41L53.71,69.36C47.9,70.27,41.99,70.27,36.18,69.36L23.41,67.36C24.86,65.73,26.09,63.88,27.03,61.88C28.24,59.32,30.46,57.38,33.16,56.52L41.81,53.78C43.88,53.13,46.11,53.16,48.15,53.88Z" fill="#305730"/><path d="M67.81,47.04C65.39,49.25,63.32,51.8,61.64,54.61C66.92,56.03,67.81,59.6,67.81,64.57L67.81,67L22.19,67L22.19,64.57C22.19,59.75,22.93,56.09,28.4,54.62C26.72,51.8,24.63,49.25,22.19,47.04C18.42,43.34,14.53,39.44,14.53,33.36C14.38,25.33,20.78,18.4,28.93,18.54C32.63,18.4,37.29,20.31,40.49,22.16L41.8,13.46L33.57,13.46L33.57,7.42L41.95,7.42L41.95,0L48.03,0L48.03,7.57L56.41,7.57L56.41,13.55L48.17,13.55L49.48,22.25C52.67,20.37,57.34,18.43,61.04,18.54C69.6,18.32,75.66,25.01,75.47,33.36C75.47,39.4,71.58,43.29,67.81,47.04Z" fill="#E7E6E5"/><path d="M62.09,34.93C62.78,30.21,57.53,30.03,57.51,30.03C54.63,30.03,51.03,32.59,51.03,32.59L51.03,43.77C52.28,43.82,53.13,43.9,54.57,43.99C55.65,42.61,56.93,41.4,58.12,40.26C60.09,38.39,61.84,36.73,62.09,34.93Z" fill="#E7E6E5"/><path d="M32.44,30.03C32.44,30.03,27.23,30.21,27.86,34.93C28.12,36.73,29.86,38.38,31.82,40.25C33.02,41.39,34.3,42.61,35.38,43.99C36.82,43.89,37.7,43.77,38.92,43.77L38.92,32.59C38.92,32.59,35.33,30.03,32.44,30.03Z" fill="#E7E6E5"/><path d="M75.47,33.36C75.47,39.4,71.58,43.29,67.81,47.04C65.39,49.25,63.31,51.8,61.64,54.61C59.94,54.16,58.05,54.01,56.24,54.01L56.12,54.01L69.51,40.59C76.13,33.97,71.71,23.88,70.93,22.21C70.95,22.21,70.98,22.21,71.01,22.21C73.89,24.92,75.57,28.91,75.47,33.36Z" fill="#BEBDB9"/><path d="M61.76,54.65C62.12,54.75,62.47,54.86,62.8,54.99C63.5,55.25,64.16,55.59,64.75,56.01C65.88,56.82,66.6,57.86,67.07,59.08C65.61,58.43,60.68,57.14,44.98,57.14C29.37,57.14,24.4,58.45,22.92,59.08C23.34,57.96,24,56.99,25.01,56.21C25.78,55.61,26.68,55.17,27.65,54.85C27.86,54.78,28.08,54.71,28.31,54.65C30.1,54.16,32.05,54.01,33.81,54.01L56.24,54.01C58.09,54.01,60.02,54.16,61.76,54.65Z" fill="#F8F8F8"/><path d="M29.79,18.54C18.82,20.34,13.47,30.74,16.74,40.77C15.3,38.57,14.53,35.99,14.53,33.36C14.46,29.39,15.95,25.56,18.67,22.68C20.02,21.34,21.62,20.28,23.38,19.57C25.14,18.86,27.03,18.5,28.93,18.54Z" fill="#F8F8F8"/><path d="M29.79,18.54C29.8,18.53,29.82,18.53,29.83,18.53L29.83,18.54Z" fill="#F8F8F8"/><path d="M46.81,1.35L43.3,1.35L43.3,8.75L34.92,8.75L34.92,12.24L33.71,13.46L33.57,13.46L33.57,7.42L41.95,7.42L41.95,0L48.03,0L48.03,0.13Z" fill="#F8F8F8"/><path d="M47.81,8.75L49.03,7.42L56.41,7.42L56.41,8.75Z" fill="#F8F8F8"/><path d="M59.44,67.17L52.24,67.17L62.03,78.2Z" fill="#305730"/><path d="M46.15,78.87L53.47,69.72L62.03,78.2L52.94,60.37Z" fill="#81B64C"/></svg>