<svg xmlns="http://www.w3.org/2000/svg" viewBox="0 0 90 90" fill="currentColor"><path d="M1,27.51C1,29.17,2.35,30.52,4.01,30.52L9.9,30.52L9.9,68.25L22.47,68.25L22.47,55.68L35.04,55.68L35.04,43.11L47.61,43.11L47.61,30.54L56.51,30.54L56.51,16.82L3.78,16.82C2.24,16.82,1,18.06,1,19.6L1,19.59ZM47.62,30.53L47.62,43.1L35.05,43.1L35.05,50.04L10.4,25.39L18.98,16.81L56.52,16.81L56.52,30.53ZM37.91,60.8C36.73,59.62,36.73,57.71,37.91,56.54L42.07,52.38L15.4,25.71L24.29,16.82L33.18,25.71L42.07,16.82L50.96,25.71L59.85,16.82L68.74,25.71L72.9,21.55C74.08,20.37,75.99,20.37,77.16,21.55L90.18,34.57C91.27,35.66,91.27,37.42,90.18,38.5L85.21,43.47C84.12,44.56,82.36,44.56,81.28,43.47L75.83,38.02L69.9,43.95L75.35,49.4C76.44,50.49,76.44,52.25,75.35,53.33L69.69,58.99C68.6,60.08,66.84,60.08,65.76,58.99L60.31,53.54L54.38,59.47L59.83,64.92C60.92,66.01,60.92,67.77,59.83,68.85L54.86,73.82C53.77,74.91,52.01,74.91,50.93,73.82Z"/></svg>