<svg xmlns="http://www.w3.org/2000/svg" viewBox="0 0 90 90"><path d="M0,63.21C0,61.55,1.35,60.2,3.01,60.2L8.9,60.2L8.9,22.47L21.47,22.47L21.47,35.04L34.04,35.04L34.04,47.61L46.61,47.61L46.61,60.18L55.51,60.18L55.51,73.9L2.78,73.9C1.24,73.9,0,72.66,0,71.12L0,71.13Z" fill="currentColor"/><path d="M46.62,60.19L46.62,47.62L34.05,47.62L34.05,40.68L9.4,65.33L17.98,73.91L55.52,73.91L55.52,60.19Z" fill="currentColor"/><path d="M36.91,29.92C35.73,31.1,35.73,33.01,36.91,34.18L41.07,38.34L14.4,65.01L23.29,73.9L32.18,65.01L41.07,73.9L49.96,65.01L58.85,73.9L67.74,65.01L71.9,69.17C73.08,70.35,74.99,70.35,76.16,69.17L89.18,56.15C90.27,55.06,90.27,53.3,89.18,52.22L84.21,47.25C83.12,46.16,81.36,46.16,80.28,47.25L74.83,52.7L68.9,46.77L74.35,41.32C75.44,40.23,75.44,38.47,74.35,37.39L68.69,31.73C67.6,30.64,65.84,30.64,64.76,31.73L59.31,37.18L53.38,31.25L58.83,25.8C59.92,24.71,59.92,22.95,58.83,21.87L53.86,16.9C52.77,15.81,51.01,15.81,49.93,16.9Z" fill="currentColor"/></svg>