<svg xmlns="http://www.w3.org/2000/svg" viewBox="0 0 90 90" fill="currentColor"><path d="M86,23L86,78C86,82.42,82.42,86,78,86L14,86C9.58,86,6,82.42,6,78L6,23ZM86,23L86,74C86,78.42,82.42,82,78,82L14,82C9.58,82,6,78.42,6,74L6,23ZM86,74C86,78.42,82.42,82,78,82L23,82L74.66,80.12C79.7,79.94,83.83,76.03,84.12,70.99C85,55.68,84.51,43.89,86,27ZM86,23L86,14C86,9.58,82.42,6,78,6L14,6C9.58,6,6,9.58,6,14L6,23ZM6,23L6,14C6,9.86,9.15,6.45,13.18,6.04C13.45,6.01,13.72,6,14,6L56,6L16.58,6.99C11.64,7.11,7.51,10.82,7.24,15.75C7.13,17.75,7.07,19.67,7,21.6C6.98,22.07,6.97,22.53,6.95,23ZM33,6L34.01,12.08C34.53,15.18,32.14,18,29,18C25.86,18,23.47,15.18,23.99,12.08L25,6ZM67,6L68.01,12.08C68.53,15.18,66.14,18,63,18C59.86,18,57.47,15.18,57.99,12.08L59,6ZM29,1C26.79,1,25,2.79,25,5L25,10C25,12.21,26.79,14,29,14C31.21,14,33,12.21,33,10L33,5C33,2.79,31.21,1,29,1ZM29,1C31.21,1,33,2.79,33,5L33,7L32.59,4.94C32.25,3.23,30.74,2,29,2C27.26,2,25.75,3.23,25.41,4.94L25,7L25,5C25,2.79,26.79,1,29,1ZM63,1C60.79,1,59,2.79,59,5L59,10C59,12.21,60.79,14,63,14C65.21,14,67,12.21,67,10L67,5C67,2.79,65.21,1,63,1ZM63,1C65.21,1,67,2.79,67,5L67,7L66.59,4.94C66.25,3.23,64.74,2,63,2C61.26,2,59.75,3.23,59.41,4.94L59,7L59,5C59,2.79,60.79,1,63,1ZM60.71,38.31L60.71,64.69C60.71,67.49,62.98,69.76,65.78,69.76L75.93,69.76C78.73,69.76,81,67.49,81,64.69L81,38.31C81,35.51,78.73,33.24,75.93,33.24L65.78,33.24C62.98,33.24,60.71,35.51,60.71,38.31ZM66.8,63.67L66.8,39.33L74.91,39.33L74.91,63.67ZM52.59,33.24L40.42,33.24C37.62,33.24,35.35,35.51,35.35,38.31L35.35,64.69C35.35,67.49,37.62,69.76,40.42,69.76L50.57,69.76C53.37,69.76,55.64,67.49,55.64,64.69L55.64,51.5C55.64,48.7,53.37,46.43,50.57,46.43L41.43,46.43L41.43,39.33L52.59,39.33C54.28,39.33,55.64,37.96,55.64,36.28C55.64,34.6,54.28,33.24,52.59,33.24ZM49.55,63.67L41.43,63.67L41.43,52.51L49.55,52.51ZM11,38.31L11,50.49C11,53.29,13.27,55.56,16.07,55.56L24.19,55.56L24.19,63.67L14.04,63.67C12.36,63.67,11,65.04,11,66.72C11,68.4,12.36,69.76,14.04,69.76L25.2,69.76C28,69.76,30.28,67.49,30.28,64.69L30.28,38.31C30.28,35.51,28,33.24,25.2,33.24L16.07,33.24C13.27,33.24,11,35.51,11,38.31ZM17.09,49.47L17.09,39.33L24.19,39.33L24.19,49.47Z"/></svg>