<svg xmlns="http://www.w3.org/2000/svg" viewBox="0 0 90 90"><path d="M10,83C10,84.1,10.9,85,12,85L78,85C79.1,85,80,84.1,80,83L80,35.92L45,8L10,35.92Z" fill="currentColor"/><path d="M10,36.45L10,51L45.29,21.64L80,50.49L80,35.97L45.29,7Z" fill="currentColor"/><path d="M79.04,45.36L45,17.43L10.96,45.36C8.78,47.15,5.54,46.77,3.82,44.53L2.96,43.41C1.31,41.26,1.67,38.19,3.77,36.48L41.85,5.56C43.68,4.07,46.32,4.07,48.15,5.56L86.22,36.49C88.33,38.2,88.69,41.27,87.04,43.42L86.18,44.54C84.46,46.78,81.22,47.15,79.04,45.36Z" fill="currentColor"/><path d="M86.32,37.65L48.1,7.45C46.28,6.01,43.72,6.01,41.9,7.45L3.68,37.64C2.78,38.35,2.18,39.32,1.93,40.36C1.93,38.91,2.56,37.47,3.77,36.48L41.85,5.56C43.68,4.07,46.32,4.07,48.15,5.56L86.22,36.49C87.44,37.48,88.07,38.91,88.07,40.37C87.81,39.33,87.22,38.36,86.32,37.65Z" fill="currentColor"/><path d="M60.25,50.01L60.25,49.88C55.94,53.03,50.61,54.75,45,54.75C39.4,54.75,34.07,53.03,29.75,50.01C26.3,51.45,22.98,53.45,19.97,55.89C19.1,56.75,18.95,58.04,19.82,58.9C20.54,59.9,21.83,60.05,22.84,59.19C24.72,57.62,26.87,56.18,29.02,55.04C28.89,55.46,28.89,55.75,28.89,56.04C28.89,59.04,29.46,61.91,30.47,64.35C27.17,67.22,24.72,71.09,23.57,75.53C23.28,76.68,24.01,77.82,25.16,78.11C26.31,78.4,27.46,77.69,27.75,76.53C28.61,73.38,30.34,70.51,32.64,68.21C35.52,72.51,39.97,75.38,45.01,75.38C50.05,75.38,54.51,72.66,57.52,68.35C59.68,70.51,61.42,73.38,62.27,76.53C62.41,77.53,63.28,78.11,64.28,78.11L64.86,78.11C66.01,77.82,66.73,76.68,66.43,75.53C65.28,71.09,62.84,67.22,59.53,64.35C60.53,61.92,61.1,59.05,61.1,56.04L61.1,55.17C63.27,56.32,65.28,57.62,67.15,59.19C67.59,59.62,68.16,59.76,68.59,59.76C69.16,59.76,69.74,59.48,70.16,58.9C71.03,58.04,70.88,56.75,70.03,55.89L70.04,55.89C67.01,53.45,63.71,51.45,60.25,50.01Z" fill="currentColor"/><path d="M45,50.59C55.08,50.59,63.84,43.71,66.43,33.96C66.72,32.81,66.01,31.67,64.86,31.38C63.71,31.09,62.56,31.8,62.27,32.95C61.25,36.68,59.1,39.98,56.22,42.27C53.35,38.98,49.32,36.83,45,36.83C40.68,36.83,36.66,38.98,33.78,42.27C30.9,39.98,28.74,36.69,27.74,32.95C27.45,31.8,26.3,31.09,25.15,31.38C23.99,31.67,23.27,32.81,23.56,33.96C26.15,43.71,34.92,50.59,45,50.59Z" fill="currentColor"/><path d="M60.85,46.81L60.85,46.67C56.36,49.96,50.83,51.75,45,51.75C39.18,51.75,33.64,49.96,29.16,46.81C25.57,48.31,22.13,50.4,18.99,52.93C18.1,53.83,17.94,55.18,18.84,56.08C19.59,57.12,20.93,57.28,21.98,56.38C23.93,54.74,26.17,53.25,28.4,52.05C28.26,52.49,28.26,52.79,28.26,53.09C28.26,56.22,28.86,59.21,29.91,61.76C26.48,64.75,23.93,68.79,22.74,73.42C22.44,74.61,23.19,75.81,24.39,76.11C25.58,76.41,26.78,75.67,27.08,74.46C27.97,71.17,29.77,68.18,32.16,65.79C35.15,70.27,39.78,73.26,45.01,73.26C50.25,73.26,54.88,70.43,58.01,65.93C60.25,68.18,62.05,71.17,62.94,74.46C63.08,75.5,63.99,76.11,65.03,76.11L65.63,76.11C66.82,75.81,67.58,74.61,67.27,73.42C66.07,68.79,63.54,64.75,60.09,61.76C61.13,59.22,61.73,56.23,61.73,53.09L61.73,52.19C63.98,53.39,66.07,54.74,68.01,56.38C68.46,56.83,69.06,56.98,69.5,56.98C70.1,56.98,70.7,56.68,71.14,56.08C72.04,55.18,71.88,53.83,71,52.93L71.01,52.93C67.86,50.4,64.43,48.31,60.85,46.81Z" fill="currentColor"/><path d="M45,47.41C55.48,47.41,64.58,40.24,67.27,30.07C67.57,28.88,66.82,27.68,65.63,27.38C64.43,27.08,63.24,27.82,62.94,29.02C61.89,32.91,59.65,36.35,56.66,38.74C53.67,35.31,49.49,33.06,45,33.06C40.52,33.06,36.33,35.31,33.34,38.74C30.35,36.35,28.11,32.92,27.07,29.02C26.77,27.82,25.57,27.08,24.37,27.38C23.18,27.68,22.43,28.88,22.72,30.07C25.42,40.24,34.53,47.41,45,47.41Z" fill="currentColor"/><path d="M37.2,70.86C35.24,69.58,33.53,67.84,32.16,65.79C29.77,68.18,27.97,71.17,27.08,74.46C26.78,75.67,25.58,76.41,24.39,76.11C23.19,75.81,22.44,74.61,22.74,73.42C23.93,68.79,26.48,64.75,29.91,61.76C28.86,59.21,28.26,56.22,28.26,53.09C28.26,52.79,28.26,52.49,28.4,52.05C26.17,53.25,23.93,54.74,21.98,56.38C20.93,57.28,19.59,57.12,18.84,56.08C17.94,55.18,18.1,53.83,18.99,52.93C22.13,50.4,25.57,48.31,29.16,46.81C33.64,49.96,39.18,51.75,45,51.75C47.75,51.75,50.44,51.35,52.99,50.58C49.4,58.88,43.92,65.9,37.2,70.86Z" fill="currentColor"/><path d="M45,47.41C34.53,47.41,25.42,40.24,22.72,30.07C22.43,28.88,23.18,27.68,24.37,27.38C25.57,27.08,26.77,27.82,27.07,29.02C28.11,32.92,30.35,36.35,33.34,38.74C36.33,35.31,40.52,33.06,45,33.06C49.46,33.06,53.62,35.28,56.61,38.68C56.2,40.87,55.66,43.01,55.02,45.08C51.97,46.58,48.57,47.41,45,47.41Z" fill="currentColor"/></svg>