<svg xmlns="http://www.w3.org/2000/svg" viewBox="0 0 90 90" fill="currentColor"><path d="M21.67,40.57L38.99,83.25C39.52,84.56,38.56,86,37.14,86L2.5,86C1.08,86,0.12,84.56,0.65,83.25L17.97,40.57C18.64,38.9,21,38.9,21.67,40.57ZM72.67,40.57L89.99,83.25C90.52,84.56,89.56,86,88.14,86L53.5,86C52.08,86,51.12,84.56,51.65,83.25L68.97,40.57C69.64,38.9,72,38.9,72.67,40.57ZM53.5,86C52.08,86,51.12,84.56,51.65,83.25L65.41,49.34L85.78,86ZM37.14,86L5.44,86L25.47,49.93L38.99,83.25C39.52,84.56,38.56,86,37.14,86ZM53.5,86C52.08,86,51.12,84.56,51.65,83.25L65.41,49.34L85.78,86ZM37.14,86L5.44,86L25.47,49.93L38.99,83.25C39.52,84.56,38.56,86,37.14,86ZM47.35,28.18L77.82,83.03C78.56,84.36,77.6,86,76.08,86L15.14,86C13.61,86,12.65,84.36,13.39,83.03L43.86,28.18C44.62,26.81,46.59,26.81,47.35,28.18ZM49.61,3L49.61,13L59.45,13C60.55,13,61.45,13.9,61.45,15L61.45,19C61.45,20.1,60.55,21,59.45,21L49.61,21L49.61,40.29C49.61,41.01,49.2,41.66,48.56,41.98C46.7,42.91,44.51,42.91,42.65,41.98C42.01,41.66,41.61,41.01,41.61,40.29L41.61,21L31.83,21C30.72,21,29.83,20.1,29.83,19L29.83,15C29.83,13.9,30.72,13,31.83,13L41.61,13L41.61,3C41.61,1.9,42.5,1,43.61,1L47.61,1C48.71,1,49.61,1.9,49.61,3Z"/></svg>