<svg xmlns="http://www.w3.org/2000/svg" viewBox="0 0 90 90"><path d="M80.65,20.27L50.48,4.8C47.04,3.04,42.96,3.04,39.52,4.8L9.35,20.27C6.68,21.64,5,24.39,5,27.39C5,39.07,5,55.4,5,63.33C5,66.23,6.57,68.89,9.1,70.31L41.1,88.17C43.52,89.52,46.48,89.52,48.9,88.17L80.9,70.31C83.43,68.89,85,66.22,85,63.32L85,27.39C85,24.39,83.32,21.64,80.65,20.27Z" fill="#5D9948"/><path d="M40.69,40.59L9.39,24.29C7.39,23.25,5,24.69,5,26.94C5,38.72,5,55.32,5,63.33C5,66.23,6.57,68.89,9.1,70.31L40.54,87.85C42.54,88.97,45,87.52,45,85.23L45,47.69C45,44.7,43.34,41.97,40.69,40.59Z" fill="#81B64C"/><path d="M49.32,40.59L80.63,24.29C82.62,23.25,85.01,24.69,85.01,26.94C85.01,38.72,85.01,55.32,85.01,63.33C85.01,66.23,83.44,68.89,80.91,70.31L49.47,87.85C47.47,88.97,45.01,87.52,45.01,85.23L45.01,47.69C45.01,44.7,46.67,41.97,49.32,40.59Z" fill="#45753C"/><path d="M50.48,4.8C47.04,3.04,42.96,3.04,39.52,4.8L19.24,15.2L41.74,5.16C43.81,4.23,46.19,4.23,48.26,5.16L70.76,15.2Z" fill="#81B64C"/><path d="M5.91,63.16L5,52.51L5,63.32C5,66.22,6.57,68.89,9.1,70.31L25,79.18L9.54,69.21C7.46,67.86,6.12,65.63,5.91,63.16Z" fill="#B2E068"/><path d="M84.1,63.16L85.01,52.51L85.01,63.32C85.01,66.22,83.44,68.89,80.91,70.31L65.01,79.18L80.47,69.21C82.55,67.86,83.89,65.63,84.1,63.16Z" fill="#5D9948"/><path d="M46.28,16.04C47.38,14.98,46.82,14.14,45.82,13.47L41.91,11.14C40.66,11.33,39.56,11.65,38.62,12.13L40.78,13.94L38.52,15.08L34.8,13.58C34.8,13.58,33.7,13.98,32.89,14.38C32.08,14.78,31.29,15.34,31.29,15.34L34.2,17.25L31.94,18.39L28.4,17.27C27.46,17.74,26.8,18.3,26.42,18.93L30.95,20.95C32.26,21.46,33.89,21.76,35.99,21.21L36,21.22Z" fill="white"/><path d="M37.01,22.04L37.01,22.03L47.87,16.56C49.77,17.27,52.32,18.16,54.4,18.89C56.07,19.48,57.44,19.96,57.9,20.14L43.92,27.18C43.56,26.93,42.59,26.2,41.41,25.31C40.02,24.26,38.33,22.98,37.01,22.04Z" fill="white"/><path d="M15.85,63.84L15.83,63.83C15.83,61.43,16.75,59.98,18.36,59.84C22.55,59.48,22.8,56.81,22.9,55.74C22.91,55.69,22.91,55.64,22.91,55.59L22.93,54.44L20.28,52.98C19.98,52.24,19.82,51.5,19.82,50.83L22.92,50.61L22.69,50.32C21.45,48.78,20.71,46.96,20.71,45.44C20.71,42.92,22.74,41.98,25.25,43.36C27.75,44.74,29.78,47.91,29.78,50.43C29.78,51.95,29.04,52.96,27.8,53.13L27.57,53.16L30.67,56.79C30.67,57.45,30.52,58.02,30.21,58.43L27.55,56.97L27.57,58.15C27.57,58.21,27.58,58.27,27.58,58.34C27.69,59.53,27.97,62.48,32.12,67.4C33.73,69.31,34.65,71.78,34.65,74.18Z" fill="white"/><path d="M57.45,21.7C62.69,19.05,66.8,21.2,66.8,21.2L68.54,22.09L47.59,32.62L45.85,31.73C45.85,31.73,41.7,29.62,46.94,26.98Z" fill="white"/><path d="M59.41,58.63C59.84,57.69,60.25,56.79,61.53,56.08C62.95,55.3,64.22,53.24,64.93,52.07L65.63,50.82C65.9,51.02,66.66,51.73,66.32,53.16C66.22,53.6,66.06,54.03,65.85,54.47C65.47,55.26,64.94,56.07,64.31,56.96C64.08,57.29,63.82,57.63,63.54,57.99C62.21,59.76,60.54,61.98,60.32,64.41L73.31,57.37C73.38,56.97,73.55,56.32,73.75,55.54C74.21,53.77,74.83,51.37,74.83,49.86C74.83,41.66,69.65,40.87,65.02,43.04L62.64,41.8C62.3,41.98,61.96,42.55,61.87,43.02L61.6,44.54C61.33,45.4,60.87,46.13,60.17,47.13C59.51,48.08,59.31,48.74,59.17,49.23L59.14,49.31C58.98,49.84,58.87,50.28,58.76,50.69C58.49,51.69,58.27,52.52,57.59,53.94L55.45,58.32C54.9,59.35,54.97,60.31,55.56,60.53C56.34,60.82,58.59,60.19,58.79,59.88L58.78,59.85C59.05,59.45,59.23,59.03,59.41,58.63Z" fill="white"/><path d="M71.59,59.67L71.58,59.67C76.74,56.88,76.72,61.26,76.72,61.26L76.72,63.1L56.1,74.26L56.1,72.42C56.1,72.42,56.08,68.07,61.24,65.28Z" fill="white"/></svg>