<svg xmlns="http://www.w3.org/2000/svg" viewBox="0 0 90 90" fill="currentColor"><path d="M51.52,60.2L72.66,82.67C73.52,83.59,74,84.8,74,86.06C74,88.79,71.79,91,69.06,91L22.94,91C20.21,91,18,88.79,18,86.06C18,84.8,18.48,83.59,19.34,82.67L40.43,60.21C41.75,58.8,43.6,58,45.53,58L46.42,58C48.35,58,50.19,58.8,51.52,60.2ZM74,5.94C74,7.2,73.52,8.41,72.66,9.33L51.57,31.79C50.25,33.2,48.4,34,46.47,34L45.58,34C43.65,34,41.81,33.2,40.48,31.8L19.34,9.33C18.48,8.41,18,7.2,18,5.94C18,3.21,20.21,1,22.94,1L69.06,1C71.79,1,74,3.21,74,5.94ZM91,23.94L91,70.06C91,72.79,88.79,75,86.06,75C84.8,75,83.59,74.52,82.67,73.66L60.21,52.57C58.8,51.25,58,49.4,58,47.47L58,46.58C58,44.65,58.8,42.81,60.2,41.48L82.67,20.34C83.59,19.48,84.8,19,86.06,19C88.79,19,91,21.21,91,23.94ZM9.33,20.34L31.79,41.43C33.2,42.75,34,44.6,34,46.53L34,47.42C34,49.35,33.2,51.19,31.8,52.52L9.33,73.66C8.41,74.52,7.2,75,5.94,75C3.21,75,1,72.79,1,70.06L1,23.94C1,21.21,3.21,19,5.94,19C7.2,19,8.41,19.48,9.33,20.34ZM20,82L41.6,64.55C44.17,62.48,47.83,62.48,50.4,64.55L72,82L51.52,60.21C50.19,58.8,48.35,58,46.42,58L45.54,58C43.6,58,41.75,58.8,40.43,60.21ZM74,8L50.44,27.35C47.86,29.47,44.14,29.47,41.56,27.35L18,8L40.48,31.81C41.81,33.21,43.65,34,45.57,34L46.48,34C48.4,34,50.25,33.2,51.57,31.8ZM84,75L64.65,51.44C62.53,48.86,62.53,45.14,64.65,42.56L84,19L60.19,41.48C58.79,42.81,58,44.65,58,46.57L58,47.48C58,49.4,58.8,51.25,60.2,52.57ZM34,46.54L34,47.42C34,49.35,33.2,51.19,31.79,52.52L10,73L27.45,51.4C29.52,48.83,29.52,45.17,27.45,42.6L10,21L31.79,41.43C33.2,42.75,34,44.6,34,46.54ZM48,68L50,86L42,86L44,68ZM48,24L50,6L42,6L44,24ZM68,44L86,42L86,50L68,48ZM24,44L6,42L6,50L24,48Z"/></svg>