<svg xmlns="http://www.w3.org/2000/svg" viewBox="0 0 90 90"><path d="M10.56,59.92L0.73,49.93C-0.26,48.94,-0.24,47.34,0.75,46.35L2.01,45.09C8.85,38.26,16.69,43.3,24.4,46.04L28.64,30.63L52.86,6.4C61.34,-2.11,75.15,-2.13,83.66,6.34C92.13,14.86,92.11,28.66,83.6,37.14L59.37,61.37L43.96,65.6C46.71,73.32,51.74,81.15,44.91,88L43.65,89.25C42.67,90.24,41.07,90.25,40.07,89.27L30.12,79.48L25.76,83.84C25.06,84.54,23.93,84.54,23.22,83.84L18.59,79.21L18.25,71.76L10.79,71.41L6.2,66.81C5.5,66.11,5.5,64.98,6.2,64.28Z" fill="currentColor"/><path d="M6.16,66.84C5.45,66.14,5.45,65.01,6.16,64.3L24.41,46.05C24.41,46.05,28.57,30.71,28.64,30.64L53.05,55.05C53.05,55.05,55.79,59.51,83.56,37.17C83.59,37.13,59.38,61.38,59.38,61.38L43.97,65.61L25.72,83.86C25.01,84.57,23.88,84.57,23.18,83.86L18.55,79.23L18.2,71.78L10.75,71.44Z" fill="currentColor"/><path d="M31.82,53.69C33.06,52.45,35.07,52.45,36.32,53.69C37.56,54.93,37.56,56.94,36.32,58.18L24.82,69.67C23.58,70.91,21.57,70.91,20.33,69.67C19.09,68.43,19.09,66.42,20.33,65.18Z" fill="currentColor"/><path d="M28.64,30.63L35.73,37.72C35.73,37.72,44.07,21.68,55.33,10.42C66.59,-0.84,77.78,1.8,83.84,6.55C83.78,6.48,83.72,6.41,83.66,6.34C75.15,-2.13,61.34,-2.11,52.86,6.4Z" fill="currentColor"/></svg>