<svg xmlns="http://www.w3.org/2000/svg" viewBox="0 0 90 90"><path d="M1,29C1,13.54,13.54,1,29,1C44.46,1,57,13.54,57,29C57,44.46,44.46,57,29,57C13.54,57,1,44.46,1,29Z" fill="currentColor"/><path d="M1,31.8C1,16.34,13.54,3.8,29,3.8C44.46,3.8,57,16.34,57,31.8C57,47.26,44.46,59.8,29,59.8C13.54,59.8,1,47.26,1,31.8Z" fill="currentColor"/><path d="M8.78,31.8C8.78,20.63,17.83,11.58,29,11.58C40.17,11.58,49.22,20.63,49.22,31.8C49.22,42.97,40.17,52.02,29,52.02C17.83,52.02,8.78,42.97,8.78,31.8Z" fill="currentColor"/><path d="M8.78,31.8C8.78,20.63,17.83,11.58,29,11.58C40.17,11.58,49.22,20.63,49.22,31.8C49.22,42.97,40.17,52.02,29,52.02C17.83,52.02,8.78,42.97,8.78,31.8Z" fill="currentColor" opacity="0.5"/><path d="M8.78,29.8C8.78,18.63,17.83,9.58,29,9.58C40.17,9.58,49.22,18.63,49.22,29.8C49.22,40.97,40.17,50.02,29,50.02C17.83,50.02,8.78,40.97,8.78,29.8Z" fill="currentColor" opacity="0.5"/><path d="M29,3.8C42.4,6.14,53.15,16.18,56.4,29.38L57,31.8C57,16.34,44.46,3.8,29,3.8Z" fill="currentColor"/><path d="M1,31.8C1,47.26,13.54,59.8,29,59.8L28.17,59.55C14.96,55.57,4.7,45.09,1,31.8Z" fill="currentColor"/><path d="M57,31.8C57,31.6,57,31.41,56.99,31.21C43.81,33.48,33.78,44.97,33.78,58.8C33.78,59,33.78,59.2,33.78,59.39C46.97,57.12,57,45.63,57,31.8Z" fill="currentColor"/><path d="M35,60C35,44.54,47.54,32,63,32C78.46,32,91,44.54,91,60C91,75.46,78.46,88,63,88C47.54,88,35,75.46,35,60Z" fill="currentColor"/><path d="M35,62.8C35,47.34,47.54,34.8,63,34.8C78.46,34.8,91,47.34,91,62.8C91,78.26,78.46,90.8,63,90.8C47.54,90.8,35,78.26,35,62.8Z" fill="currentColor"/><path d="M42.78,62.8C42.78,51.63,51.83,42.58,63,42.58C74.17,42.58,83.22,51.63,83.22,62.8C83.22,73.97,74.17,83.02,63,83.02C51.83,83.02,42.78,73.97,42.78,62.8Z" fill="currentColor" opacity="0.5"/><path d="M42.78,60.8C42.78,49.63,51.83,40.58,63,40.58C74.17,40.58,83.22,49.63,83.22,60.8C83.22,71.97,74.17,81.02,63,81.02C51.83,81.02,42.78,71.97,42.78,60.8Z" fill="currentColor"/><path d="M62.17,90.55C48.96,86.56,38.7,76.09,35,62.8C35,77.97,47.07,90.33,62.13,90.79C62.28,90.79,62.31,90.59,62.17,90.55Z" fill="currentColor"/><path d="M91,62.8C91,47.34,78.46,34.8,63,34.8C76.4,37.14,87.15,47.18,90.4,60.38Z" fill="currentColor"/><path d="M90.89,60.31C90.41,54.86,88.37,49.86,85.22,45.76C83.56,43.6,82.77,45.67,84.41,47.84C87.19,51.5,89.26,55.75,90.4,60.38C90.49,60.73,90.92,60.67,90.89,60.31Z" fill="currentColor"/></svg>