<svg xmlns="http://www.w3.org/2000/svg" viewBox="0 0 90 90"><path d="M58.75,2.14C61.29,3.83,62.38,7.01,61.42,9.9L61.05,11L56.05,11L56.05,22.45C70.51,26.76,81.05,40.15,81.05,56C81.05,75.33,65.38,91,46.05,91C26.72,91,11.05,75.33,11.05,56C11.05,40.14,21.59,26.75,36.05,22.45L36.05,11L31.05,11L30.68,9.9C29.72,7.01,30.81,3.83,33.34,2.14C34.46,1.4,35.76,1,37.09,1L55,1C56.34,1,57.64,1.4,58.75,2.14Z" fill="currentColor"/><path d="M80.01,47.54C80.69,50.25,81.05,53.08,81.05,56C81.05,75.33,65.38,91,46.05,91C26.72,91,11.05,75.33,11.05,56C11.05,53.32,11.35,50.71,11.92,48.21C22.64,51.87,34.26,51.89,44.98,48.27L47.11,47.53C57.78,43.93,69.34,43.93,80.01,47.54Z" fill="currentColor" opacity="0.5"/><path d="M64.45,39C64.45,41,63.53,42.87,61.37,44.24L65.7,46.74C65.7,47.62,65.5,48.49,65.04,49.24L61.37,49.24L61.5,50.74C62.22,59.36,71.27,58.05,71.27,66.73L48.56,66.73C49.46,67.66,50.19,68.9,50.65,70.69L25.47,77.84C23.34,69.41,32.35,68.22,30.92,59.65L30.68,58.16L27.16,59.16C26.53,58.56,26.13,57.76,25.92,56.91L29.46,53.31C27.04,52.56,25.7,50.99,25.21,49.05C24.4,45.84,26.45,42.46,29.78,41.51C33.12,40.57,36.48,42.41,37.3,45.62C37.82,47.68,37.51,49.39,35.61,51.49L40.39,52.8C40.61,53.65,40.63,54.55,40.38,55.4L36.85,56.41L37.34,57.83C38.92,62.42,42.26,63.25,45.26,64.6C46.63,58.21,54.16,58.58,54.82,50.74L54.95,49.24L51.28,49.24C50.82,48.49,50.62,47.62,50.62,46.74L54.95,44.18C52.59,42.68,51.87,41.12,51.87,39C51.87,35.69,54.68,33,58.16,33C61.63,33,64.45,35.69,64.45,39Z" fill="currentColor"/><path d="M78.8,57.09L81,57.88C80.02,76.34,64.75,91,46.05,91C27.37,91,12.11,76.37,11.1,57.95C21.39,67.51,36.85,68.86,48.64,61.22L49.94,60.38C58.51,54.83,69.19,53.61,78.8,57.09Z" fill="currentColor" opacity="0.33"/><path d="M75.95,74.2C69.8,84.27,58.71,91,46.05,91C37.62,91,29.88,88.02,23.84,83.05C32.07,85.31,41.11,84.1,48.64,79.22L49.94,78.38C57.67,73.37,67.12,71.89,75.95,74.2Z" fill="currentColor" opacity="0.3"/><path d="M34.27,33.81C34.27,33.1,33.7,32.53,32.99,32.53C32.28,32.53,31.7,33.1,31.7,33.81C31.7,34.52,32.28,35.1,32.99,35.1C33.7,35.1,34.27,34.52,34.27,33.81Z" fill="currentColor"/><path d="M43.16,37.61C43.16,36.19,42.01,35.04,40.59,35.04C39.17,35.04,38.02,36.19,38.02,37.61C38.02,39.03,39.17,40.19,40.59,40.19C42.01,40.19,43.16,39.03,43.16,37.61Z" fill="currentColor"/><path d="M70.06,53.56C70.06,52.52,69.21,51.67,68.17,51.67C67.12,51.67,66.27,52.52,66.27,53.56C66.27,54.61,67.12,55.45,68.17,55.45C69.21,55.45,70.06,54.61,70.06,53.56Z" fill="currentColor"/><path d="M49.38,77.93C49.38,76.89,48.53,76.04,47.49,76.04C46.44,76.04,45.59,76.89,45.59,77.93C45.59,78.98,46.44,79.83,47.49,79.83C48.53,79.83,49.38,78.98,49.38,77.93Z" fill="currentColor"/><path d="M62.33,74.68C62.33,72.69,60.71,71.08,58.72,71.08C56.73,71.08,55.11,72.69,55.11,74.68C55.11,76.67,56.73,78.29,58.72,78.29C60.71,78.29,62.33,76.67,62.33,74.68Z" fill="currentColor"/><path d="M81.05,56C81.05,75.33,65.38,91,46.05,91C37.6,91,29.85,88,23.8,83.02C28.11,84.3,32.74,85,37.55,85C61.02,85,80.05,68.43,80.05,48C80.05,47.89,80.05,47.77,80.04,47.66C80.7,50.33,81.05,53.13,81.05,56Z" fill="currentColor" opacity="0.3"/><path d="M56.05,11L56.05,14.71C49.6,12.32,42.5,12.32,36.05,14.71L36.05,11Z" fill="currentColor" opacity="0.3"/><path d="M56.05,11L56.05,22.5C49.49,20.86,42.62,20.86,36.05,22.5L36.05,11Z" fill="currentColor" opacity="0.3"/><path d="M58.65,2.14C61.19,3.83,62.28,7.01,61.32,9.9L60.95,11L59.1,11L59.67,8.86C60.3,6.51,59.5,4,57.63,2.45C56.58,1.57,55.27,1.07,53.91,1.01L53.63,1L54.9,1C56.24,1,57.54,1.4,58.65,2.14Z" fill="currentColor"/><path d="M36.52,2.45C34.65,4,33.85,6.51,34.48,8.86L35.05,11L30.95,11L30.58,9.9C29.62,7.01,30.71,3.83,33.25,2.14C34.36,1.4,35.66,1,37,1L40.52,1C39.06,1,37.64,1.51,36.52,2.45Z" fill="currentColor"/><path d="M79.92,47.54C80.59,50.25,80.95,53.08,80.95,56C80.95,75.33,65.28,91,45.95,91C44.44,91,42.94,90.9,41.48,90.71C41.48,90.72,41.49,90.72,41.49,90.72C41.47,90.71,41.44,90.71,41.42,90.71C41.38,90.7,41.34,90.7,41.3,90.69C41.05,90.66,40.8,90.62,40.55,90.58C40.5,90.58,40.46,90.57,40.41,90.56C40.17,90.52,39.92,90.48,39.68,90.44C39.63,90.43,39.58,90.42,39.53,90.41C39.3,90.37,39.07,90.32,38.83,90.27C38.81,90.27,38.78,90.26,38.75,90.26C38.76,90.26,38.76,90.26,38.77,90.26C22.88,86.95,10.95,72.87,10.95,56C10.95,53.32,11.25,50.71,11.82,48.21C13.23,48.69,14.65,49.1,16.08,49.46C15.67,51.65,15.45,53.91,15.45,56.23C15.45,72.41,26.03,86.08,40.53,90.44C41.43,90.51,42.33,90.55,43.25,90.55C62.58,90.55,78.25,74.58,78.25,54.88C78.25,52.08,77.93,49.36,77.34,46.74C78.2,46.99,79.06,47.25,79.92,47.54Z" fill="currentColor"/><path d="M15.45,56.23C15.45,72.41,26.03,86.08,40.53,90.44C41.43,90.51,42.33,90.55,43.25,90.55C62.58,90.55,78.25,74.58,78.25,54.88C78.25,42.67,72.23,31.9,63.06,25.46C73.73,31.46,80.95,42.89,80.95,56C80.95,75.33,65.28,91,45.95,91C44.44,91,42.94,90.9,41.48,90.71C41.48,90.72,41.49,90.72,41.49,90.72C41.47,90.71,41.44,90.71,41.42,90.71C41.38,90.7,41.34,90.7,41.3,90.69C41.05,90.66,40.8,90.62,40.55,90.58C40.5,90.57,40.46,90.57,40.41,90.56C40.17,90.52,39.92,90.48,39.68,90.44C39.63,90.43,39.58,90.42,39.53,90.41C39.3,90.37,39.07,90.32,38.83,90.27C38.81,90.27,38.78,90.26,38.75,90.26C38.76,90.26,38.76,90.26,38.77,90.26C22.88,86.94,10.95,72.87,10.95,56C10.95,37.07,25.98,21.65,44.76,21.02C28.13,23.8,15.45,38.5,15.45,56.23Z" fill="currentColor"/></svg>