<svg xmlns="http://www.w3.org/2000/svg" viewBox="0 0 90 90"><path d="M45,18.31L45,80L3,80L3,75.15C3,75.15,2.94,66.73,14.71,65.59L14.83,63.18C15.55,55.86,22.24,50.51,26.05,47.42C28.43,45.5,30.86,43.31,31.73,40.28C32.66,36.99,30.54,34.04,29.77,33.11L27.79,35.4C25.79,37.49,22.24,41.14,18.24,41.15C13.04,41.18,12.92,44.81,10.47,47.17L10.49,47.18C9.94,47.73,3.59,46.16,1.38,44.29C-0.29,42.88,-0.5,40.25,1.06,38.32L7.11,29.82C9.81,25.89,9.93,23.79,11.48,19.82C11.93,18.71,12.43,17.17,14.4,15.54C16.37,13.91,17.64,12.63,18.41,10.75L19.17,7.11C19.44,6,20.41,5,21.36,5L28.03,11.67C33.86,12.06,39.99,14.17,45,18.31Z" fill="currentColor"/><path d="M19.66,40.99C19.19,41.09,18.72,41.15,18.24,41.15C13.04,41.17,12.92,44.8,10.47,47.16C10.34,47.29,9.89,47.3,9.27,47.22C9.78,46.36,11.21,44.78,12.29,41.53C14.05,36.25,15.24,38.72,19.66,40.99Z" fill="currentColor"/><path d="M19.66,40.99C19.66,40.99,19.67,40.99,19.67,40.99L19.67,40.99C19.67,40.99,19.66,40.99,19.66,40.99Z" fill="currentColor"/><path d="M34.06,30.84C34.08,32.28,33.16,36.32,31.78,39.94C32.49,36.79,30.51,34,29.77,33.11L29.6,33.3C29.63,33.21,29.64,33.15,29.65,33.14C29.65,33.14,31.97,29.49,32.91,27.69C33.85,25.89,34.03,29.27,34.06,30.84Z" fill="currentColor"/><path d="M32.25,68.62C10.29,68.62,5.33,70.44,4.37,70.93C6,68.32,9.57,65.46,17.48,65.46L45,65.46L45,68.87C41.56,68.72,37.37,68.62,32.25,68.62Z" fill="currentColor"/><path d="M19.73,14.35C11.76,19.31,13.21,25.38,10.89,28.47C9.75,30,1.67,39.97,0.1,41.9C-0.1,40.7,0.15,39.39,1.04,38.29L1.05,38.3L7.1,29.8C9.8,25.87,9.92,23.77,11.47,19.8C11.91,18.69,12.41,17.15,14.39,15.52C16.36,13.89,17.64,12.61,18.4,10.73L19.16,7.09C19.36,6.27,19.95,5.5,20.63,5.16C20.78,5.13,20.92,5.09,21.08,5.09C21.08,5.11,23.88,11.77,19.73,14.35Z" fill="currentColor"/><path d="M45,18.31L45,80L87,80L87,75.15C87,75.15,87.06,66.73,75.29,65.59L75.17,63.18C74.45,55.86,67.76,50.51,63.95,47.42C61.57,45.5,59.14,43.31,58.27,40.28C57.34,36.99,59.46,34.04,60.23,33.11L62.21,35.4C64.21,37.49,67.76,41.14,71.76,41.15C76.96,41.18,77.08,44.81,79.53,47.17L79.51,47.18C80.06,47.73,86.41,46.16,88.62,44.29C90.29,42.88,90.5,40.25,88.94,38.32L82.89,29.82C80.19,25.89,80.07,23.79,78.52,19.82C78.08,18.71,77.57,17.17,75.6,15.54C73.63,13.91,72.36,12.63,71.59,10.75L70.83,7.11C70.56,6,69.59,5,68.64,5L61.97,11.67C56.14,12.06,50.01,14.17,45,18.31Z" fill="currentColor"/><path d="M70.34,40.99C70.81,41.09,71.28,41.15,71.76,41.15C76.96,41.17,77.08,44.8,79.53,47.16C79.66,47.29,80.11,47.3,80.73,47.22C80.22,46.36,78.79,44.78,77.71,41.53C75.95,36.25,74.76,38.72,70.34,40.99Z" fill="currentColor"/><path d="M70.34,40.99C70.34,40.99,70.33,40.99,70.33,40.99L70.33,40.99C70.33,40.99,70.34,40.99,70.34,40.99Z" fill="currentColor"/><path d="M55.94,30.84C55.92,32.28,56.84,36.32,58.22,39.94C57.51,36.79,59.49,34,60.23,33.11L60.4,33.3C60.37,33.21,60.36,33.15,60.35,33.14C60.35,33.14,58.03,29.49,57.09,27.69C56.15,25.89,55.97,29.27,55.94,30.84Z" fill="currentColor"/><path d="M57.75,68.62C79.71,68.62,84.67,70.44,85.63,70.93C84,68.32,80.43,65.46,72.52,65.46L45,65.46L45,68.87C48.44,68.72,52.63,68.62,57.75,68.62Z" fill="currentColor"/><path d="M70.26,14.35C78.24,19.31,76.79,25.38,79.11,28.47C80.25,30,88.33,39.97,89.9,41.9C90.1,40.7,89.85,39.39,88.96,38.29L88.95,38.3L82.9,29.8C80.2,25.87,80.08,23.77,78.53,19.8C78.09,18.69,77.59,17.15,75.61,15.52C73.64,13.89,72.36,12.61,71.6,10.73L70.84,7.09C70.64,6.27,70.05,5.5,69.37,5.16C69.22,5.13,69.08,5.09,68.92,5.09C68.92,5.11,66.12,11.77,70.26,14.35Z" fill="currentColor"/><path d="M53.72,70.86L53.72,77.42C53.72,77.88,53.85,78.18,54.12,78.25C54.38,78.34,54.72,78.22,55.08,77.88L67.44,66.47C67.82,66.12,68,65.7,68,65.21C68,64.71,67.8,64.3,67.44,63.94L55.08,52.53C54.72,52.18,54.38,52.05,54.12,52.15C53.85,52.24,53.72,52.55,53.72,53.04L53.72,59.6L45,59.6L45,70.81L45,70.86Z" fill="currentColor"/><path d="M36.28,70.86L36.28,77.42C36.28,77.88,36.15,78.18,35.88,78.25C35.62,78.34,35.28,78.22,34.92,77.88L22.56,66.47C22.18,66.12,22,65.7,22,65.21C22,64.71,22.2,64.3,22.56,63.94L34.92,52.53C35.28,52.18,35.62,52.05,35.88,52.15C36.15,52.24,36.28,52.55,36.28,53.04L36.28,59.6L45,59.6L45,70.81L45,70.86Z" fill="currentColor"/><path d="M53.72,67.12L53.72,73.69C53.72,74.15,53.85,74.44,54.12,74.52C54.38,74.61,54.72,74.49,55.08,74.15L67.44,62.73C67.82,62.38,68,61.96,68,61.47C68,60.98,67.8,60.56,67.44,60.21L55.08,48.8C54.72,48.44,54.38,48.32,54.12,48.41C53.85,48.5,53.72,48.81,53.72,49.3L53.72,55.87L45,55.87L45,67.08L45,67.12Z" fill="currentColor"/><path d="M67.44,62.73C67.82,62.38,68,61.96,68,61.47C68,60.98,67.8,60.56,67.44,60.21L55.08,48.8L65.85,60.29C66.47,60.96,66.47,61.99,65.85,62.65L55.08,74.15Z" fill="currentColor"/><path d="M36.28,67.12L36.28,73.69C36.28,74.15,36.15,74.44,35.88,74.52C35.62,74.61,35.28,74.49,34.92,74.15L22.56,62.73C22.18,62.38,22,61.96,22,61.47C22,60.98,22.2,60.56,22.56,60.21L34.92,48.8C35.28,48.44,35.62,48.32,35.88,48.41C36.15,48.5,36.28,48.81,36.28,49.3L36.28,55.87L45,55.87L45,67.08L45,67.12Z" fill="currentColor"/><path d="M22.56,62.73C22.18,62.38,22,61.96,22,61.47C22,60.98,22.2,60.56,22.56,60.21L34.92,48.8L24.15,60.29C23.53,60.96,23.53,61.99,24.15,62.65L34.92,74.15Z" fill="currentColor"/></svg>