<svg xmlns="http://www.w3.org/2000/svg" viewBox="0 0 90 90"><path d="M57.75,1.14C60.29,2.83,61.38,6.01,60.42,8.9L60.05,10L55.05,10L55.05,21.45C69.51,25.76,80.05,39.15,80.05,55C80.05,74.33,64.38,90,45.05,90C25.72,90,10.05,74.33,10.05,55C10.05,39.14,20.59,25.75,35.05,21.45L35.05,10L30.05,10L29.68,8.9C28.72,6.01,29.81,2.83,32.34,1.14C33.46,0.4,34.76,0,36.09,0L54,0C55.34,0,56.64,0.4,57.75,1.14Z" fill="currentColor"/><path d="M79.01,46.54C79.69,49.25,80.05,52.08,80.05,55C80.05,74.33,64.38,90,45.05,90C25.72,90,10.05,74.33,10.05,55C10.05,52.32,10.35,49.71,10.92,47.21C21.64,50.87,33.26,50.89,43.98,47.27L46.11,46.53C56.78,42.93,68.34,42.93,79.01,46.54Z" fill="currentColor" opacity="0.5"/><path d="M63.45,38C63.45,40,62.53,41.87,60.37,43.24L64.7,45.74C64.7,46.62,64.5,47.49,64.04,48.24L60.37,48.24L60.5,49.74C61.22,58.36,70.27,57.05,70.27,65.73L47.56,65.73C48.46,66.66,49.19,67.9,49.65,69.69L24.47,76.84C22.34,68.41,31.35,67.22,29.92,58.65L29.68,57.16L26.16,58.16C25.53,57.56,25.13,56.76,24.92,55.91L28.46,52.31C26.04,51.56,24.7,49.99,24.21,48.05C23.4,44.84,25.45,41.46,28.78,40.51C32.12,39.57,35.48,41.41,36.3,44.62C36.82,46.68,36.51,48.39,34.61,50.49L39.39,51.8C39.61,52.65,39.63,53.55,39.38,54.4L35.85,55.41L36.34,56.83C37.92,61.42,41.26,62.25,44.26,63.6C45.63,57.21,53.16,57.58,53.82,49.74L53.95,48.24L50.28,48.24C49.82,47.49,49.62,46.62,49.62,45.74L53.95,43.18C51.59,41.68,50.87,40.12,50.87,38C50.87,34.69,53.68,32,57.16,32C60.63,32,63.45,34.69,63.45,38Z" fill="currentColor"/><path d="M77.8,56.09L80,56.88C79.02,75.34,63.75,90,45.05,90C26.37,90,11.11,75.37,10.1,56.95C20.39,66.51,35.85,67.86,47.64,60.22L48.94,59.38C57.51,53.83,68.19,52.61,77.8,56.09Z" fill="currentColor" opacity="0.33"/><path d="M74.95,73.2C68.8,83.27,57.71,90,45.05,90C36.62,90,28.88,87.02,22.84,82.05C31.07,84.31,40.11,83.1,47.64,78.22L48.94,77.38C56.67,72.37,66.12,70.89,74.95,73.2Z" fill="currentColor" opacity="0.3"/><path d="M33.27,32.81C33.27,32.1,32.7,31.53,31.99,31.53C31.28,31.53,30.7,32.1,30.7,32.81C30.7,33.52,31.28,34.1,31.99,34.1C32.7,34.1,33.27,33.52,33.27,32.81Z" fill="currentColor"/><path d="M42.16,36.61C42.16,35.19,41.01,34.04,39.59,34.04C38.17,34.04,37.02,35.19,37.02,36.61C37.02,38.03,38.17,39.19,39.59,39.19C41.01,39.19,42.16,38.03,42.16,36.61Z" fill="currentColor"/><path d="M69.06,52.56C69.06,51.52,68.21,50.67,67.17,50.67C66.12,50.67,65.27,51.52,65.27,52.56C65.27,53.61,66.12,54.45,67.17,54.45C68.21,54.45,69.06,53.61,69.06,52.56Z" fill="currentColor"/><path d="M48.38,76.93C48.38,75.89,47.53,75.04,46.49,75.04C45.44,75.04,44.59,75.89,44.59,76.93C44.59,77.98,45.44,78.83,46.49,78.83C47.53,78.83,48.38,77.98,48.38,76.93Z" fill="currentColor"/><path d="M61.33,73.68C61.33,71.69,59.71,70.08,57.72,70.08C55.73,70.08,54.11,71.69,54.11,73.68C54.11,75.67,55.73,77.29,57.72,77.29C59.71,77.29,61.33,75.67,61.33,73.68Z" fill="currentColor"/><path d="M80.05,55C80.05,74.33,64.38,90,45.05,90C36.6,90,28.85,87,22.8,82.02C27.11,83.3,31.74,84,36.55,84C60.02,84,79.05,67.43,79.05,47C79.05,46.89,79.05,46.77,79.04,46.66C79.7,49.33,80.05,52.13,80.05,55Z" fill="currentColor" opacity="0.3"/><path d="M55.05,10L55.05,13.71C48.6,11.32,41.5,11.32,35.05,13.71L35.05,10Z" fill="currentColor" opacity="0.3"/><path d="M55.05,10L55.05,21.5C48.49,19.86,41.62,19.86,35.05,21.5L35.05,10Z" fill="currentColor" opacity="0.3"/><path d="M57.65,1.14C60.19,2.83,61.28,6.01,60.32,8.9L59.95,10L58.1,10L58.67,7.86C59.3,5.51,58.5,3,56.63,1.45C55.58,0.57,54.27,0.07,52.91,0.01L52.63,0L53.9,0C55.24,0,56.54,0.4,57.65,1.14Z" fill="currentColor"/><path d="M35.52,1.45C33.65,3,32.85,5.51,33.48,7.86L34.05,10L29.95,10L29.58,8.9C28.62,6.01,29.71,2.83,32.25,1.14C33.36,0.4,34.66,0,36,0L39.52,0C38.06,0,36.64,0.51,35.52,1.45Z" fill="currentColor"/><path d="M78.92,46.54C79.59,49.25,79.95,52.08,79.95,55C79.95,74.33,64.28,90,44.95,90C43.44,90,41.94,89.9,40.48,89.71C40.48,89.72,40.49,89.72,40.49,89.72C40.47,89.71,40.44,89.71,40.42,89.71C40.38,89.7,40.34,89.7,40.3,89.69C40.05,89.66,39.8,89.62,39.55,89.58C39.5,89.58,39.46,89.57,39.41,89.56C39.17,89.52,38.92,89.48,38.68,89.44C38.63,89.43,38.58,89.42,38.53,89.41C38.3,89.37,38.07,89.32,37.83,89.27C37.81,89.27,37.78,89.26,37.75,89.26C37.76,89.26,37.76,89.26,37.77,89.26C21.88,85.95,9.95,71.87,9.95,55C9.95,52.32,10.25,49.71,10.82,47.21C12.23,47.69,13.65,48.1,15.08,48.46C14.67,50.65,14.45,52.91,14.45,55.23C14.45,71.41,25.03,85.08,39.53,89.44C40.43,89.51,41.33,89.55,42.25,89.55C61.58,89.55,77.25,73.58,77.25,53.88C77.25,51.08,76.93,48.36,76.34,45.74C77.2,45.99,78.06,46.25,78.92,46.54Z" fill="currentColor"/><path d="M14.45,55.23C14.45,71.41,25.03,85.08,39.53,89.44C40.43,89.51,41.33,89.55,42.25,89.55C61.58,89.55,77.25,73.58,77.25,53.88C77.25,41.67,71.23,30.9,62.06,24.46C72.73,30.46,79.95,41.89,79.95,55C79.95,74.33,64.28,90,44.95,90C43.44,90,41.94,89.9,40.48,89.71C40.48,89.72,40.49,89.72,40.49,89.72C40.47,89.71,40.44,89.71,40.42,89.71C40.38,89.7,40.34,89.7,40.3,89.69C40.05,89.66,39.8,89.62,39.55,89.58C39.5,89.57,39.46,89.57,39.41,89.56C39.17,89.52,38.92,89.48,38.68,89.44C38.63,89.43,38.58,89.42,38.53,89.41C38.3,89.37,38.07,89.32,37.83,89.27C37.81,89.27,37.78,89.26,37.75,89.26C37.76,89.26,37.76,89.26,37.77,89.26C21.88,85.94,9.95,71.87,9.95,55C9.95,36.07,24.98,20.65,43.76,20.02C27.13,22.8,14.45,37.5,14.45,55.23Z" fill="currentColor"/></svg>