<svg xmlns="http://www.w3.org/2000/svg" viewBox="0 0 90 90" fill="currentColor"><path d="M46,67.69L46,6L4,6L4,10.85C4,10.85,3.94,19.27,15.71,20.41L15.83,22.82C16.55,30.14,23.24,35.49,27.05,38.58C29.43,40.5,31.86,42.69,32.73,45.72C33.66,49.01,31.54,51.96,30.77,52.89L28.79,50.6C26.79,48.51,23.24,44.86,19.24,44.85C14.04,44.82,13.92,41.19,11.47,38.83L11.49,38.82C10.94,38.27,4.59,39.84,2.38,41.71C0.71,43.12,0.5,45.75,2.06,47.68L8.11,56.18C10.81,60.11,10.93,62.21,12.48,66.18C12.93,67.29,13.43,68.83,15.4,70.46C17.37,72.09,18.64,73.37,19.41,75.25L20.17,78.89C20.44,80,21.41,81,22.36,81L29.03,74.33C34.86,73.94,40.99,71.83,46,67.69ZM20.66,45.01C20.19,44.91,19.72,44.85,19.24,44.85C14.04,44.83,13.92,41.2,11.47,38.84C11.34,38.71,10.89,38.7,10.27,38.78C10.78,39.64,12.21,41.22,13.29,44.47C15.05,49.75,16.24,47.28,20.66,45.01ZM20.66,45.01C20.66,45.01,20.67,45.01,20.67,45.01L20.67,45.01C20.67,45.01,20.66,45.01,20.66,45.01ZM35.06,55.16C35.08,53.72,34.16,49.68,32.78,46.06C33.49,49.21,31.51,52,30.77,52.89L30.6,52.7C30.63,52.79,30.64,52.85,30.65,52.86C30.65,52.86,32.97,56.51,33.91,58.31C34.85,60.11,35.03,56.73,35.06,55.16ZM33.25,17.38C11.29,17.38,6.33,15.56,5.37,15.07C7,17.68,10.57,20.54,18.48,20.54L46,20.54L46,17.13C42.56,17.28,38.37,17.38,33.25,17.38ZM20.73,71.65C12.76,66.69,14.21,60.62,11.89,57.53C10.75,56,2.67,46.03,1.1,44.1C0.9,45.3,1.15,46.61,2.04,47.71L2.05,47.7L8.1,56.2C10.8,60.13,10.92,62.23,12.47,66.2C12.91,67.31,13.41,68.85,15.39,70.48C17.36,72.11,18.64,73.39,19.4,75.27L20.16,78.91C20.36,79.73,20.95,80.5,21.63,80.84C21.78,80.87,21.92,80.91,22.08,80.91C22.08,80.89,24.88,74.23,20.73,71.65ZM46,67.69L46,6L88,6L88,10.85C88,10.85,88.06,19.27,76.29,20.41L76.17,22.82C75.45,30.14,68.76,35.49,64.95,38.58C62.57,40.5,60.14,42.69,59.27,45.72C58.34,49.01,60.46,51.96,61.23,52.89L63.21,50.6C65.21,48.51,68.76,44.86,72.76,44.85C77.96,44.82,78.08,41.19,80.53,38.83L80.51,38.82C81.06,38.27,87.41,39.84,89.62,41.71C91.29,43.12,91.5,45.75,89.94,47.68L83.89,56.18C81.19,60.11,81.07,62.21,79.52,66.18C79.08,67.29,78.57,68.83,76.6,70.46C74.63,72.09,73.36,73.37,72.59,75.25L71.83,78.89C71.56,80,70.59,81,69.64,81L62.97,74.33C57.14,73.94,51.01,71.83,46,67.69ZM71.34,45.01C71.81,44.91,72.28,44.85,72.76,44.85C77.96,44.83,78.08,41.2,80.53,38.84C80.66,38.71,81.11,38.7,81.73,38.78C81.22,39.64,79.79,41.22,78.71,44.47C76.95,49.75,75.76,47.28,71.34,45.01ZM71.34,45.01C71.34,45.01,71.33,45.01,71.33,45.01L71.33,45.01C71.33,45.01,71.34,45.01,71.34,45.01ZM56.94,55.16C56.92,53.72,57.84,49.68,59.22,46.06C58.51,49.21,60.49,52,61.23,52.89L61.4,52.7C61.37,52.79,61.36,52.85,61.35,52.86C61.35,52.86,59.03,56.51,58.09,58.31C57.15,60.11,56.97,56.73,56.94,55.16ZM58.75,17.38C80.71,17.38,85.67,15.56,86.63,15.07C85,17.68,81.43,20.54,73.52,20.54L46,20.54L46,17.13C49.44,17.28,53.63,17.38,58.75,17.38ZM71.26,71.65C79.24,66.69,77.79,60.62,80.11,57.53C81.25,56,89.33,46.03,90.9,44.1C91.1,45.3,90.85,46.61,89.96,47.71L89.95,47.7L83.9,56.2C81.2,60.13,81.08,62.23,79.53,66.2C79.09,67.31,78.59,68.85,76.61,70.48C74.64,72.11,73.36,73.39,72.6,75.27L71.84,78.91C71.64,79.73,71.05,80.5,70.37,80.84C70.22,80.87,70.08,80.91,69.92,80.91C69.92,80.89,67.12,74.23,71.26,71.65ZM54.72,15.14L54.72,8.58C54.72,8.12,54.85,7.82,55.12,7.75C55.38,7.66,55.72,7.78,56.08,8.12L68.44,19.53C68.82,19.88,69,20.3,69,20.79C69,21.29,68.8,21.7,68.44,22.06L56.08,33.47C55.72,33.82,55.38,33.95,55.12,33.85C54.85,33.76,54.72,33.45,54.72,32.96L54.72,26.4L46,26.4L46,15.19L46,15.14ZM37.28,15.14L37.28,8.58C37.28,8.12,37.15,7.82,36.88,7.75C36.62,7.66,36.28,7.78,35.92,8.12L23.56,19.53C23.18,19.88,23,20.3,23,20.79C23,21.29,23.2,21.7,23.56,22.06L35.92,33.47C36.28,33.82,36.62,33.95,36.88,33.85C37.15,33.76,37.28,33.45,37.28,32.96L37.28,26.4L46,26.4L46,15.19L46,15.14ZM54.72,18.88L54.72,12.31C54.72,11.85,54.85,11.56,55.12,11.48C55.38,11.39,55.72,11.51,56.08,11.85L68.44,23.27C68.82,23.62,69,24.04,69,24.53C69,25.02,68.8,25.44,68.44,25.79L56.08,37.2C55.72,37.56,55.38,37.68,55.12,37.59C54.85,37.5,54.72,37.19,54.72,36.7L54.72,30.13L46,30.13L46,18.92L46,18.88ZM68.44,23.27C68.82,23.62,69,24.04,69,24.53C69,25.02,68.8,25.44,68.44,25.79L56.08,37.2L66.85,25.71C67.47,25.04,67.47,24.01,66.85,23.35L56.08,11.85ZM37.28,18.88L37.28,12.31C37.28,11.85,37.15,11.56,36.88,11.48C36.62,11.39,36.28,11.51,35.92,11.85L23.56,23.27C23.18,23.62,23,24.04,23,24.53C23,25.02,23.2,25.44,23.56,25.79L35.92,37.2C36.28,37.56,36.62,37.68,36.88,37.59C37.15,37.5,37.28,37.19,37.28,36.7L37.28,30.13L46,30.13L46,18.92L46,18.88ZM23.56,23.27C23.18,23.62,23,24.04,23,24.53C23,25.02,23.2,25.44,23.56,25.79L35.92,37.2L25.15,25.71C24.53,25.04,24.53,24.01,25.15,23.35L35.92,11.85Z"/></svg>