<svg xmlns="http://www.w3.org/2000/svg" viewBox="0 0 90 90" fill="currentColor"><path d="M81.65,73.28L51.48,88.76C48.04,90.52,43.96,90.52,40.52,88.76L10.35,73.28C7.68,71.91,6,69.17,6,66.17C6,54.48,6,38.15,6,30.22C6,27.32,7.57,24.66,10.1,23.25L42.1,5.39C44.52,4.04,47.48,4.04,49.9,5.39L81.9,23.25C84.43,24.66,86,27.34,86,30.23L86,66.16C86,69.16,84.32,71.91,81.65,73.28ZM41.69,52.97L10.39,69.27C8.39,70.31,6,68.86,6,66.61C6,54.83,6,38.23,6,30.22C6,27.32,7.57,24.66,10.1,23.25L41.54,5.7C43.54,4.59,46,6.03,46,8.32L46,45.87C46,48.85,44.34,51.59,41.69,52.97ZM50.32,52.97L81.63,69.27C83.62,70.31,86.01,68.86,86.01,66.61C86.01,54.83,86.01,38.23,86.01,30.22C86.01,27.32,84.44,24.66,81.91,23.25L50.47,5.7C48.47,4.59,46.01,6.03,46.01,8.32L46.01,45.87C46.01,48.85,47.67,51.59,50.32,52.97ZM51.48,88.76C48.04,90.52,43.96,90.52,40.52,88.76L20.24,78.35L42.74,88.4C44.81,89.32,47.19,89.32,49.26,88.4L71.76,78.35ZM6.91,30.39L6,41.05L6,30.23C6,27.34,7.57,24.66,10.1,23.25L26,14.38L10.54,24.35C8.46,25.69,7.12,27.93,6.91,30.39ZM85.1,30.39L86.01,41.05L86.01,30.23C86.01,27.34,84.44,24.66,81.91,23.25L66.01,14.38L81.47,24.35C83.55,25.69,84.89,27.93,85.1,30.39ZM47.28,77.51C48.38,78.57,47.82,79.41,46.82,80.08L42.91,82.41C41.66,82.22,40.56,81.9,39.62,81.42L41.78,79.61L39.52,78.47L35.8,79.97C35.8,79.97,34.7,79.57,33.89,79.17C33.08,78.77,32.29,78.21,32.29,78.21L35.2,76.3L32.94,75.16L29.4,76.28C28.46,75.81,27.8,75.25,27.42,74.62L31.95,72.61C33.26,72.1,34.89,71.8,36.99,72.35L37,72.34ZM38.01,71.52L38.01,71.53L48.87,76.99C50.77,76.29,53.32,75.39,55.4,74.66C57.07,74.07,58.44,73.59,58.9,73.41L44.92,66.38C44.56,66.62,43.59,67.35,42.41,68.24C41.02,69.3,39.33,70.57,38.01,71.52ZM16.85,29.72L16.83,29.73C16.83,32.13,17.75,33.58,19.36,33.72C23.55,34.07,23.8,36.75,23.9,37.81C23.91,37.87,23.91,37.92,23.91,37.96L23.93,39.11L21.28,40.57C20.98,41.31,20.82,42.05,20.82,42.72L23.92,42.94L23.69,43.23C22.45,44.77,21.71,46.59,21.71,48.11C21.71,50.63,23.74,51.57,26.25,50.19C28.75,48.81,30.78,45.64,30.78,43.12C30.78,41.6,30.04,40.59,28.8,40.42L28.57,40.39L31.67,36.76C31.67,36.1,31.52,35.53,31.21,35.12L28.55,36.58L28.57,35.4C28.57,35.34,28.58,35.28,28.58,35.22C28.69,34.02,28.97,31.07,33.12,26.16C34.73,24.25,35.65,21.78,35.65,19.38ZM58.45,71.86C63.69,74.5,67.8,72.36,67.8,72.36L69.54,71.47L48.59,60.94L46.85,61.83C46.85,61.83,42.7,63.94,47.94,66.58ZM60.41,34.92C60.84,35.87,61.25,36.76,62.53,37.47C63.95,38.25,65.22,40.31,65.93,41.48L66.63,42.73C66.9,42.53,67.66,41.82,67.32,40.39C67.22,39.95,67.06,39.52,66.85,39.08C66.47,38.29,65.94,37.48,65.31,36.59C65.08,36.27,64.82,35.92,64.54,35.56C63.21,33.79,61.54,31.57,61.32,29.15L74.31,36.18C74.38,36.58,74.55,37.24,74.75,38.01C75.21,39.78,75.83,42.19,75.83,43.69C75.83,51.89,70.65,52.68,66.02,50.51L63.64,51.75C63.3,51.57,62.96,51,62.87,50.53L62.6,49.01C62.33,48.15,61.87,47.42,61.17,46.42C60.51,45.48,60.31,44.81,60.17,44.32L60.14,44.24C59.98,43.72,59.87,43.28,59.76,42.87C59.49,41.87,59.27,41.04,58.59,39.61L56.45,35.23C55.9,34.2,55.97,33.25,56.56,33.03C57.34,32.74,59.59,33.37,59.79,33.68L59.78,33.7C60.05,34.11,60.23,34.52,60.41,34.92ZM72.59,33.88L72.58,33.88C77.74,36.67,77.72,32.3,77.72,32.3L77.72,30.46L57.1,19.3L57.1,21.14C57.1,21.14,57.08,25.49,62.24,28.28Z"/></svg>