<svg xmlns="http://www.w3.org/2000/svg" viewBox="0 0 90 90"><path d="M31.26,87.29C29.58,86.75,28.24,85.5,27.57,83.87L24.14,75.5C23.85,74.8,23.2,74.33,22.45,74.27L13.43,73.6C11.67,73.47,10.07,72.58,9.03,71.15C7.99,69.72,7.64,67.92,8.06,66.21L10.21,57.42C10.39,56.68,10.14,55.92,9.57,55.43L2.66,49.58C1.32,48.44,0.54,46.78,0.54,45.01C0.54,43.24,1.31,41.58,2.66,40.44L9.56,34.59C10.14,34.1,10.39,33.34,10.21,32.6L8.06,23.81C7.64,22.1,8,20.3,9.03,18.87C10.07,17.44,11.67,16.55,13.43,16.42L22.45,15.75C23.21,15.69,23.85,15.22,24.14,14.52L27.57,6.15C28.24,4.52,29.58,3.27,31.26,2.72C32.94,2.18,34.76,2.4,36.26,3.32L43.96,8.08C44.6,8.48,45.4,8.48,46.05,8.08L53.75,3.32C55.25,2.39,57.07,2.17,58.75,2.72C60.43,3.26,61.77,4.51,62.44,6.15L65.87,14.52C66.16,15.22,66.8,15.69,67.56,15.75L76.59,16.42C78.35,16.55,79.95,17.44,80.99,18.87C82.03,20.3,82.38,22.1,81.96,23.81L79.81,32.6C79.63,33.34,79.88,34.1,80.46,34.59L87.36,40.44C88.71,41.58,89.48,43.25,89.48,45.01C89.48,46.77,88.71,48.44,87.36,49.58L80.46,55.43C79.88,55.92,79.63,56.68,79.81,57.42L81.96,66.21C82.38,67.92,82.02,69.72,80.99,71.15C79.96,72.58,78.35,73.47,76.59,73.6L67.56,74.27C66.81,74.33,66.16,74.8,65.87,75.5L62.44,83.87C61.77,85.5,60.43,86.75,58.75,87.29C57.07,87.83,55.25,87.62,53.75,86.69L46.05,81.93C45.41,81.53,44.61,81.53,43.96,81.93L36.26,86.69C35.3,87.28,34.21,87.59,33.11,87.59L33.11,87.58C32.49,87.58,31.86,87.48,31.26,87.29Z" fill="currentColor"/><path d="M32.5,6.52C31.93,6.7,31.5,7.11,31.27,7.66L27.84,16.03C26.97,18.14,25.02,19.56,22.75,19.73L13.73,20.4C13.14,20.44,12.62,20.73,12.27,21.21C11.92,21.69,11.81,22.27,11.95,22.85L14.1,31.64C14.64,33.86,13.9,36.15,12.15,37.63L5.25,43.48C4.8,43.86,4.55,44.4,4.55,45C4.55,45.6,4.8,46.13,5.25,46.51L12.15,52.36C13.89,53.84,14.64,56.13,14.1,58.35L11.95,67.14C11.81,67.72,11.92,68.3,12.27,68.78C12.62,69.26,13.14,69.55,13.73,69.59L22.75,70.26C25.03,70.43,26.98,71.85,27.84,73.96L31.27,82.34C31.5,82.89,31.93,83.29,32.49,83.48C33.05,83.66,33.64,83.59,34.15,83.28L41.85,78.52C43.79,77.32,46.2,77.32,48.14,78.52L55.84,83.28C56.34,83.59,56.93,83.66,57.5,83.48C58.06,83.3,58.5,82.89,58.72,82.34L62.15,73.97C63.01,71.86,64.97,70.44,67.24,70.27L76.26,69.6C76.85,69.56,77.37,69.27,77.72,68.79C78.07,68.31,78.18,67.73,78.04,67.15L75.89,58.36C75.35,56.14,76.09,53.85,77.84,52.37L84.75,46.52C85.2,46.14,85.45,45.6,85.45,45.01C85.45,44.42,85.2,43.88,84.75,43.49L77.85,37.64C76.11,36.16,75.36,33.87,75.9,31.65L78.05,22.86C78.19,22.28,78.08,21.7,77.73,21.22C77.38,20.74,76.86,20.45,76.27,20.41L67.25,19.74C64.97,19.57,63.02,18.15,62.16,16.04L58.73,7.67C58.5,7.12,58.07,6.72,57.5,6.53C56.94,6.35,56.35,6.42,55.84,6.73L48.14,11.49C46.2,12.69,43.79,12.69,41.84,11.49L34.14,6.73C33.82,6.53,33.46,6.43,33.1,6.43L33.12,6.42C32.91,6.42,32.7,6.45,32.5,6.52Z" fill="currentColor"/><path d="M39.41,6.37L29.11,6.37L29.11,22.28L45.02,22.28L45.02,9.78Z" fill="currentColor"/><path d="M45.02,22.28L45.02,38.19L60.93,38.19L60.93,22.28Z" fill="currentColor"/><path d="M29.11,38.19L29.11,54.1L45.02,54.1L45.02,38.19Z" fill="currentColor"/><path d="M45.02,54.11L45.02,70.02L60.93,70.02L60.93,54.11Z" fill="currentColor"/><path d="M32.08,85.49L45.02,80.08L45.02,70.02L29.11,70.02L29.11,81.25Z" fill="currentColor"/><path d="M65.54,17.05L60.93,6.37L60.93,22.28L76.85,22.28L76.85,18.74Z" fill="currentColor"/><path d="M76.85,22.28L76.85,38.19L80.3,22.28Z" fill="currentColor"/><path d="M60.93,38.19L60.93,54.1L76.84,54.1L76.84,38.19Z" fill="currentColor"/><path d="M78.77,58.25L76.85,58.25L76.85,70.02L80.04,70.02Z" fill="currentColor"/><path d="M65.01,73.61L76.85,70.02L60.93,70.02L60.93,81.51Z" fill="currentColor"/><path d="M13.19,22.28L13.19,17.76L9.05,22.28Z" fill="currentColor"/><path d="M13.19,22.28L13.19,38.19L29.1,38.19L29.1,22.28Z" fill="currentColor"/><path d="M1.89,44.62L10.95,54.11L13.19,54.11L13.19,38.19L8.77,38.19Z" fill="currentColor"/><path d="M13.19,54.11L13.19,70.02L29.1,70.02L29.1,54.11Z" fill="currentColor"/><path d="M60.99,24.65L38.81,46.83L29.02,37.04C28.33,36.35,27.42,35.97,26.45,35.97C25.48,35.97,24.57,36.35,23.88,37.03L18.11,42.8C17.42,43.49,17.04,44.4,17.04,45.37C17.04,46.34,17.42,47.25,18.11,47.94L36.24,66.07C36.93,66.76,37.84,67.14,38.81,67.14C39.78,67.14,40.69,66.76,41.38,66.07L48.3,59.15L71.9,35.55C73.32,34.13,73.32,31.82,71.9,30.41L66.13,24.64C65.44,23.95,64.53,23.57,63.56,23.57L63.56,23.58C62.59,23.58,61.68,23.96,60.99,24.65Z" fill="currentColor"/><path d="M63.56,25.58C63.98,25.58,64.4,25.74,64.72,26.06L70.49,31.83C71.13,32.47,71.13,33.51,70.49,34.14L46.89,57.74L39.97,64.66C39.65,64.98,39.23,65.14,38.81,65.14C38.39,65.14,37.97,64.98,37.65,64.66L19.52,46.53C18.88,45.89,18.88,44.85,19.52,44.22L25.29,38.45C25.61,38.13,26.03,37.97,26.45,37.97C26.87,37.97,27.29,38.13,27.61,38.45L38.82,49.66L62.42,26.06C62.74,25.74,63.16,25.58,63.58,25.58" fill="none" stroke="currentColor" stroke-width="2" stroke-linecap="round" stroke-linejoin="round"/></svg>