<svg xmlns="http://www.w3.org/2000/svg" viewBox="0 0 90 90" fill="currentColor"><path d="M32.26,3.71C30.58,4.25,29.24,5.5,28.57,7.13L25.14,15.5C24.85,16.2,24.2,16.67,23.45,16.73L14.43,17.4C12.67,17.53,11.07,18.42,10.03,19.85C8.99,21.28,8.64,23.08,9.06,24.79L11.21,33.58C11.39,34.32,11.14,35.08,10.57,35.57L3.66,41.42C2.32,42.56,1.54,44.22,1.54,45.99C1.54,47.76,2.31,49.42,3.66,50.56L10.56,56.41C11.14,56.9,11.39,57.66,11.21,58.4L9.06,67.19C8.64,68.9,9,70.7,10.03,72.13C11.07,73.56,12.67,74.45,14.43,74.58L23.45,75.25C24.21,75.31,24.85,75.78,25.14,76.48L28.57,84.85C29.24,86.48,30.58,87.73,32.26,88.28C33.94,88.82,35.76,88.6,37.26,87.68L44.96,82.92C45.6,82.52,46.4,82.52,47.05,82.92L54.75,87.68C56.25,88.61,58.07,88.83,59.75,88.28C61.43,87.74,62.77,86.49,63.44,84.85L66.87,76.48C67.16,75.78,67.8,75.31,68.56,75.25L77.59,74.58C79.35,74.45,80.95,73.56,81.99,72.13C83.03,70.7,83.38,68.9,82.96,67.19L80.81,58.4C80.63,57.66,80.88,56.9,81.46,56.41L88.36,50.56C89.71,49.42,90.48,47.75,90.48,45.99C90.48,44.23,89.71,42.56,88.36,41.42L81.46,35.57C80.88,35.08,80.63,34.32,80.81,33.58L82.96,24.79C83.38,23.08,83.02,21.28,81.99,19.85C80.96,18.42,79.35,17.53,77.59,17.4L68.56,16.73C67.81,16.67,67.16,16.2,66.87,15.5L63.44,7.13C62.77,5.5,61.43,4.25,59.75,3.71C58.07,3.17,56.25,3.38,54.75,4.31L47.05,9.07C46.41,9.47,45.61,9.47,44.96,9.07L37.26,4.31C36.3,3.72,35.21,3.41,34.11,3.41L34.11,3.42C33.49,3.42,32.86,3.52,32.26,3.71ZM33.5,84.48C32.93,84.3,32.5,83.89,32.27,83.34L28.84,74.97C27.97,72.86,26.02,71.44,23.75,71.27L14.73,70.6C14.14,70.56,13.62,70.27,13.27,69.79C12.92,69.31,12.81,68.73,12.95,68.15L15.1,59.36C15.64,57.14,14.9,54.85,13.15,53.37L6.25,47.52C5.8,47.14,5.55,46.6,5.55,46C5.55,45.4,5.8,44.87,6.25,44.49L13.15,38.64C14.89,37.16,15.64,34.87,15.1,32.65L12.95,23.86C12.81,23.28,12.92,22.7,13.27,22.22C13.62,21.74,14.14,21.45,14.73,21.41L23.75,20.74C26.03,20.57,27.98,19.15,28.84,17.04L32.27,8.66C32.5,8.11,32.93,7.71,33.49,7.52C34.05,7.34,34.64,7.41,35.15,7.72L42.85,12.48C44.79,13.68,47.2,13.68,49.14,12.48L56.84,7.72C57.34,7.41,57.93,7.34,58.5,7.52C59.06,7.7,59.5,8.11,59.72,8.66L63.15,17.03C64.01,19.14,65.97,20.56,68.24,20.73L77.26,21.4C77.85,21.44,78.37,21.73,78.72,22.21C79.07,22.69,79.18,23.27,79.04,23.85L76.89,32.64C76.35,34.86,77.09,37.15,78.84,38.63L85.75,44.48C86.2,44.86,86.45,45.4,86.45,45.99C86.45,46.58,86.2,47.12,85.75,47.51L78.85,53.36C77.11,54.84,76.36,57.13,76.9,59.35L79.05,68.14C79.19,68.72,79.08,69.3,78.73,69.78C78.38,70.26,77.86,70.55,77.27,70.59L68.25,71.26C65.97,71.43,64.02,72.85,63.16,74.96L59.73,83.33C59.5,83.88,59.07,84.28,58.5,84.47C57.94,84.65,57.35,84.58,56.84,84.27L49.14,79.51C47.2,78.31,44.79,78.31,42.84,79.51L35.14,84.27C34.82,84.47,34.46,84.57,34.1,84.57L34.12,84.58C33.91,84.58,33.7,84.55,33.5,84.48ZM40.41,84.63L30.11,84.63L30.11,68.72L46.02,68.72L46.02,81.22ZM46.02,68.72L46.02,52.81L61.93,52.81L61.93,68.72ZM30.11,52.81L30.11,36.9L46.02,36.9L46.02,52.81ZM46.02,36.89L46.02,20.98L61.93,20.98L61.93,36.89ZM33.08,5.51L46.02,10.92L46.02,20.98L30.11,20.98L30.11,9.75ZM66.54,73.95L61.93,84.63L61.93,68.72L77.85,68.72L77.85,72.26ZM77.85,68.72L77.85,52.81L81.3,68.72ZM61.93,52.81L61.93,36.9L77.84,36.9L77.84,52.81ZM79.77,32.75L77.85,32.75L77.85,20.98L81.04,20.98ZM66.01,17.39L77.85,20.98L61.93,20.98L61.93,9.49ZM14.19,68.72L14.19,73.24L10.05,68.72ZM14.19,68.72L14.19,52.81L30.1,52.81L30.1,68.72ZM2.89,46.38L11.95,36.89L14.19,36.89L14.19,52.81L9.77,52.81ZM14.19,36.89L14.19,20.98L30.1,20.98L30.1,36.89ZM61.99,66.35L39.81,44.17L30.02,53.96C29.33,54.65,28.42,55.03,27.45,55.03C26.48,55.03,25.57,54.65,24.88,53.97L19.11,48.2C18.42,47.51,18.04,46.6,18.04,45.63C18.04,44.66,18.42,43.75,19.11,43.06L37.24,24.93C37.93,24.24,38.84,23.86,39.81,23.86C40.78,23.86,41.69,24.24,42.38,24.93L49.3,31.85L72.9,55.45C74.32,56.87,74.32,59.18,72.9,60.59L67.13,66.36C66.44,67.05,65.53,67.43,64.56,67.43L64.56,67.42C63.59,67.42,62.68,67.04,61.99,66.35ZM64.56,65.42C64.98,65.42,65.4,65.26,65.72,64.94L71.49,59.17C72.13,58.53,72.13,57.49,71.49,56.86L47.89,33.26L40.97,26.34C40.65,26.02,40.23,25.86,39.81,25.86C39.39,25.86,38.97,26.02,38.65,26.34L20.52,44.47C19.88,45.11,19.88,46.15,20.52,46.78L26.29,52.55C26.61,52.87,27.03,53.03,27.45,53.03C27.87,53.03,28.29,52.87,28.61,52.55L39.82,41.34L63.42,64.94C63.74,65.26,64.16,65.42,64.58,65.42"/></svg>