<svg xmlns="http://www.w3.org/2000/svg" viewBox="0 0 90 90" fill="currentColor"><path d="M20.04,40.57L33.98,26.62C34.6,26,35.56,25.86,36.34,26.27L41.5,29.01L47.05,23.46C47.83,22.67,47.83,21.41,47.05,20.63L43.51,17.09L55.83,4.77C57.21,3.39,59.27,2.94,61.1,3.62L69.47,6.7C70.83,7.2,72.06,7.99,73.08,9.01L74.36,10.29L53.85,30.79L35.57,85.7L25.51,80.06C11.04,71.96,8.32,52.29,20.04,40.57ZM63.67,81.79C54.49,90.97,39.61,90.97,30.43,81.79C21.25,72.62,21.25,57.74,30.43,48.56L68.26,10.73C70.22,8.78,73.38,8.78,75.33,10.73L77.46,12.86C79.11,14.51,79.4,17.08,78.16,19.05L72.05,28.76C68.4,34.57,67.19,41.59,68.69,48.29L70.96,58.38C72.8,66.57,70.32,75.14,64.38,81.08ZM30.08,81.44C21.1,72.46,21.1,57.89,30.08,48.91L70.38,8.61C71.17,7.83,72.43,7.83,73.21,8.61L77.3,12.69L73.86,10.73C72.65,10.04,71.13,10.27,70.18,11.29L33.75,50.37C25.65,59.05,24.44,72.11,30.79,82.15ZM58.36,54.57C53.29,49.49,44.74,49.81,39.27,55.28C33.8,60.74,33.49,69.29,38.56,74.37C43.64,79.44,52.19,79.13,57.66,73.66C63.12,68.19,63.44,59.65,58.36,54.57ZM55.7,53.13C55.23,52.66,54.73,52.23,54.21,51.84C55.73,52.44,57.15,53.35,58.36,54.57C63.44,59.64,63.13,68.19,57.66,73.66C52.19,79.13,43.64,79.44,38.57,74.37C38.09,73.89,37.66,73.39,37.28,72.86C42.59,77.49,50.65,77.28,55.7,72.22C60.97,66.95,60.97,58.4,55.7,53.13ZM55.54,23.46L58.36,26.28C59.14,27.07,59.14,28.33,58.36,29.11L52.71,34.77C51.93,35.55,50.66,35.55,49.88,34.77L47.05,31.94L35.03,25.58L43.51,17.09ZM53.89,25.86L56.31,27.16L50.65,32.82L48.23,31.51L43.98,29.2L49.64,23.54ZM38.13,1.06C39.57,1.04,40.67,2.35,40.4,3.76L38.36,14.23L35.97,3.84C35.64,2.43,36.69,1.09,38.13,1.06ZM22.06,5.75C23.06,4.71,24.76,4.86,25.57,6.05L31.54,14.9L22.49,9.24C21.27,8.48,21.06,6.78,22.06,5.75ZM18.01,22.42C17.99,20.98,19.29,19.89,20.71,20.16L31.18,22.19L20.79,24.59C19.38,24.91,18.04,23.86,18.01,22.42Z"/></svg>