<svg xmlns="http://www.w3.org/2000/svg" viewBox="0 0 90 90"><path d="M19.04,39.57L32.98,25.62C33.6,25,34.56,24.86,35.34,25.27L40.5,28.01L46.05,22.46C46.83,21.67,46.83,20.41,46.05,19.63L42.51,16.09L54.83,3.77C56.21,2.39,58.27,1.94,60.1,2.62L68.47,5.7C69.83,6.2,71.06,6.99,72.08,8.01L73.36,9.29L52.85,29.79L34.57,84.7L24.51,79.06C10.04,70.96,7.32,51.29,19.04,39.57Z" fill="currentColor"/><path d="M62.67,80.79C53.49,89.97,38.61,89.97,29.43,80.79C20.25,71.62,20.25,56.74,29.43,47.56L67.26,9.73C69.22,7.78,72.38,7.78,74.33,9.73L76.46,11.86C78.11,13.51,78.4,16.08,77.16,18.05L71.05,27.76C67.4,33.57,66.19,40.59,67.69,47.29L69.96,57.38C71.8,65.57,69.32,74.14,63.38,80.08Z" fill="currentColor"/><path d="M29.08,80.44C20.1,71.46,20.1,56.89,29.08,47.91L69.38,7.61C70.17,6.83,71.43,6.83,72.21,7.61L76.3,11.69L72.86,9.73C71.65,9.04,70.13,9.27,69.18,10.29L32.75,49.37C24.65,58.05,23.44,71.11,29.79,81.15Z" fill="currentColor"/><path d="M57.36,53.57C52.29,48.49,43.74,48.81,38.27,54.28C32.8,59.74,32.49,68.29,37.56,73.37C42.64,78.44,51.19,78.13,56.66,72.66C62.12,67.19,62.44,58.65,57.36,53.57Z" fill="currentColor"/><path d="M54.7,52.13C54.23,51.66,53.73,51.23,53.21,50.84C54.73,51.44,56.15,52.35,57.36,53.57C62.44,58.64,62.13,67.19,56.66,72.66C51.19,78.13,42.64,78.44,37.57,73.37C37.09,72.89,36.66,72.39,36.28,71.86C41.59,76.49,49.65,76.28,54.7,71.22C59.97,65.95,59.97,57.4,54.7,52.13Z" fill="currentColor"/><path d="M54.54,22.46L57.36,25.28C58.14,26.07,58.14,27.33,57.36,28.11L51.71,33.77C50.93,34.55,49.66,34.55,48.88,33.77L46.05,30.94L34.03,24.58L42.51,16.09Z" fill="currentColor"/><path d="M52.89,24.86L55.31,26.16L49.65,31.82L47.23,30.51L42.98,28.2L48.64,22.54Z" fill="currentColor"/><path d="M37.13,0.06C38.57,0.04,39.67,1.35,39.4,2.76L37.36,13.23L34.97,2.84C34.64,1.43,35.69,0.09,37.13,0.06Z" fill="currentColor"/><path d="M21.06,4.75C22.06,3.71,23.76,3.86,24.57,5.05L30.54,13.9L21.49,8.24C20.27,7.48,20.06,5.78,21.06,4.75Z" fill="currentColor"/><path d="M17.01,21.42C16.99,19.98,18.29,18.89,19.71,19.16L30.18,21.19L19.79,23.59C18.38,23.91,17.04,22.86,17.01,21.42Z" fill="currentColor"/></svg>