<svg xmlns="http://www.w3.org/2000/svg" viewBox="0 0 90 90"><path d="M54.59,89.5L63.75,71.54L81.71,80.7L62.79,22.42L35.67,31.22Z" fill="currentColor"/><path d="M81.71,80.7L62.79,22.42L49.23,26.82L63.75,71.54Z" fill="currentColor"/><path d="M62.79,22.42L35.67,31.22L46.76,65.38C57.7,64.42,66.94,57.83,71.3,48.64Z" fill="currentColor"/><path d="M35.12,89.58L25.96,71.62L8,80.78L26.92,22.5L54.04,31.3Z" fill="currentColor"/><path d="M35.12,89.58L25.96,71.62L40.48,26.9L54.04,31.3Z" fill="currentColor"/><path d="M54.04,31.3L26.92,22.5L17.77,50.68C22.73,59.24,32.11,65.12,42.94,65.48Z" fill="currentColor"/><path d="M75,32.18C75,15.99,61.57,2.86,45,2.86C28.43,2.86,15,15.99,15,32.18C15,48.37,28.43,61.5,45,61.5C61.57,61.5,75,48.37,75,32.18Z" fill="currentColor"/><path d="M75,29.5C75,12.93,61.57,-0.5,45,-0.5C28.43,-0.5,15,12.93,15,29.5C15,46.07,28.43,59.5,45,59.5C61.57,59.5,75,46.07,75,29.5Z" fill="currentColor"/><path d="M42,4.97C42,21.22,32.03,35.48,17.43,41.34C15.87,37.71,15,33.71,15,29.5C15,13.94,26.84,1.15,42,-0.35Z" fill="currentColor"/><path d="M15.21,25.9C19.39,13.02,29.91,2.97,43.32,-0.45C28.73,0.35,16.93,11.58,15.21,25.9Z" fill="currentColor"/><path d="M74.12,36.73C69.75,47.14,61.11,55.33,50.24,59.04C61.93,56.99,71.3,48.15,74.12,36.73Z" fill="currentColor"/><path d="M45,53.5C31.75,53.5,21,42.75,21,29.5C21,16.24,31.75,5.5,45,5.5C58.25,5.5,69,16.24,69,29.5C69,42.75,58.25,53.5,45,53.5Z" fill="currentColor"/><path d="M45,49.5C33.95,49.5,25,40.55,25,29.5C25,18.45,33.95,9.5,45,9.5C56.05,9.5,65,18.45,65,29.5C65,40.55,56.05,49.5,45,49.5Z" fill="currentColor"/><path d="M65,29.5C65,29.1,64.99,28.71,64.97,28.32C62.92,34.94,59.69,41.11,55.46,46.55C61.19,43.03,65,36.71,65,29.5Z" fill="currentColor"/></svg>