<svg xmlns="http://www.w3.org/2000/svg" viewBox="0 0 90 90" fill="currentColor"><path d="M55.59,0.58L64.75,18.54L82.71,9.38L63.79,67.66L36.67,58.86ZM82.71,9.38L63.79,67.66L50.23,63.26L64.75,18.54ZM63.79,67.66L36.67,58.86L47.76,24.7C58.7,25.66,67.94,32.25,72.3,41.44ZM36.12,0.5L26.96,18.46L9,9.3L27.92,67.58L55.04,58.78ZM36.12,0.5L26.96,18.46L41.48,63.18L55.04,58.78ZM55.04,58.78L27.92,67.58L18.77,39.4C23.73,30.84,33.11,24.96,43.94,24.6ZM76,57.9C76,74.09,62.57,87.22,46,87.22C29.43,87.22,16,74.09,16,57.9C16,41.71,29.43,28.58,46,28.58C62.57,28.58,76,41.71,76,57.9ZM76,60.58C76,77.15,62.57,90.58,46,90.58C29.43,90.58,16,77.15,16,60.58C16,44.01,29.43,30.58,46,30.58C62.57,30.58,76,44.01,76,60.58ZM43,85.11C43,68.86,33.03,54.6,18.43,48.74C16.87,52.37,16,56.37,16,60.58C16,76.14,27.84,88.93,43,90.43ZM16.21,64.18C20.39,77.06,30.91,87.11,44.32,90.53C29.73,89.73,17.93,78.5,16.21,64.18ZM75.12,53.35C70.75,42.94,62.11,34.75,51.24,31.04C62.93,33.09,72.3,41.93,75.12,53.35ZM46,36.58C32.75,36.58,22,47.33,22,60.58C22,73.84,32.75,84.58,46,84.58C59.25,84.58,70,73.84,70,60.58C70,47.33,59.25,36.58,46,36.58ZM46,40.58C34.95,40.58,26,49.53,26,60.58C26,71.63,34.95,80.58,46,80.58C57.05,80.58,66,71.63,66,60.58C66,49.53,57.05,40.58,46,40.58ZM66,60.58C66,60.98,65.99,61.37,65.97,61.76C63.92,55.14,60.69,48.97,56.46,43.53C62.19,47.05,66,53.37,66,60.58Z"/></svg>